<svg width="18" height="18" viewBox="0 0 18 18" fill="none" xmlns="http://www.w3.org/2000/svg">
<g clip-path="url(#clip0_722_10674)">
<path d="M2.81253 12.5923C4.85212 16.125 11.25 18.375 15.1875 12.5625C6.18751 13.875 4.10394 6.25268 5.43752 2.8125C2.02968 4.78001 0.845013 9.18448 2.81253 12.5923Z" fill="#E05149"/>
<path fill-rule="evenodd" clip-rule="evenodd" d="M2.56163 10.03C2.24172 7.95068 2.94695 5.80102 4.47253 4.31878C4.39938 5.18365 4.47026 6.12415 4.6987 7.05511C5.09534 8.67149 5.97951 10.3109 7.48477 11.5139C7.75442 11.7294 8.14771 11.6854 8.3632 11.4158C8.57869 11.1461 8.53478 10.7529 8.26513 10.5374C7.01064 9.53485 6.25526 8.15327 5.91269 6.75721C5.56785 5.35189 5.6538 3.98362 6.0202 3.03841C6.11603 2.7912 6.04546 2.51044 5.84414 2.33792C5.64282 2.1654 5.35456 2.13868 5.12496 2.27124C2.26871 3.92029 0.852008 7.13822 1.32617 10.22C1.37866 10.5612 1.69778 10.7952 2.03895 10.7427C2.38011 10.6902 2.61413 10.3711 2.56163 10.03ZM3.35373 12.2798C3.18114 11.9809 2.7989 11.8785 2.49997 12.0511C2.20103 12.2236 2.09861 12.6059 2.2712 12.9048C3.39221 14.8465 5.67764 16.4025 8.21484 16.7025C10.7996 17.0082 13.6087 16.0074 15.7049 12.913C15.8438 12.708 15.8485 12.4403 15.717 12.2305C15.5854 12.0206 15.3423 11.9083 15.0973 11.944C13.8138 12.1312 12.6922 12.127 11.7175 11.9811C11.3761 11.93 11.0579 12.1653 11.0068 12.5067C10.9557 12.8481 11.1911 13.1662 11.5324 13.2173C12.2318 13.322 12.9848 13.3607 13.7934 13.3245C12.1145 15.1444 10.1482 15.6725 8.36165 15.4612C6.20564 15.2062 4.27232 13.8709 3.35373 12.2798ZM9.78765 3.09215C9.69674 2.90356 9.42817 2.90356 9.33726 3.09215L8.80755 4.19096C8.78299 4.24191 8.74187 4.28303 8.69091 4.3076L7.5921 4.8373C7.40352 4.92821 7.40352 5.19679 7.5921 5.2877L8.69091 5.81741C8.74187 5.84197 8.78299 5.88309 8.80755 5.93404L9.33726 7.03285C9.42817 7.22144 9.69674 7.22144 9.78765 7.03285L10.3174 5.93404C10.3419 5.88309 10.383 5.84197 10.434 5.81741L11.5328 5.2877C11.7214 5.19679 11.7214 4.92821 11.5328 4.8373L10.434 4.3076C10.383 4.28303 10.3419 4.24191 10.3174 4.19096L9.78765 3.09215ZM13.8373 5.71715C13.9282 5.52856 14.1967 5.52856 14.2877 5.71715L14.5734 6.30991C14.598 6.36087 14.6391 6.40198 14.69 6.42655L15.2828 6.7123C15.4714 6.80321 15.4714 7.07179 15.2828 7.1627L14.69 7.44845C14.6391 7.47302 14.598 7.51414 14.5734 7.56509L14.2877 8.15785C14.1967 8.34644 13.9282 8.34644 13.8373 8.15785L13.5515 7.56509C13.5269 7.51414 13.4858 7.47302 13.4349 7.44845L12.8421 7.1627C12.6535 7.07179 12.6535 6.80321 12.8421 6.7123L13.4349 6.42655C13.4858 6.40198 13.5269 6.36086 13.5515 6.30991L13.8373 5.71715ZM11.6627 9.09215C11.5717 8.90356 11.3032 8.90356 11.2123 9.09215L11.0485 9.43189C11.0239 9.48284 10.9828 9.52396 10.9318 9.54852L10.5921 9.7123C10.4035 9.80321 10.4035 10.0718 10.5921 10.1627L10.9318 10.3265C10.9828 10.351 11.0239 10.3922 11.0485 10.4431L11.2123 10.7829C11.3032 10.9714 11.5717 10.9714 11.6627 10.7829L11.8264 10.4431C11.851 10.3922 11.8921 10.351 11.9431 10.3265L12.2828 10.1627C12.4714 10.0718 12.4714 9.80321 12.2828 9.7123L11.9431 9.54852C11.8921 9.52396 11.851 9.48284 11.8264 9.43189L11.6627 9.09215Z" fill="#252323"/>
</g>
<defs>
<clipPath id="clip0_722_10674">
<rect width="18" height="18" fill="white"/>
</clipPath>
</defs>
</svg>
