<svg width="28" height="28" viewBox="0 0 28 28" fill="none" xmlns="http://www.w3.org/2000/svg">
<g clip-path="url(#clip0_722_10608)">
<path fill-rule="evenodd" clip-rule="evenodd" d="M3.76515 15.6359C3.22691 12.1377 4.51427 8.51322 7.24327 6.15462C7.0405 7.62576 7.12233 9.28093 7.52494 10.9216C8.13232 13.3968 9.48479 15.9013 11.7817 17.7369C12.1053 17.9954 12.5773 17.9428 12.8358 17.6192C13.0944 17.2956 13.0417 16.8236 12.7182 16.5651C10.7221 14.97 9.52422 12.775 8.98172 10.5642C8.43649 8.34225 8.56828 6.1663 9.15758 4.64609C9.27258 4.34944 9.18789 4.01253 8.94631 3.8055C8.70473 3.59848 8.35881 3.56641 8.08329 3.72549C3.72275 6.24304 1.55838 11.157 2.28259 15.864C2.34558 16.2734 2.72853 16.5543 3.13792 16.4913C3.54732 16.4283 3.82814 16.0453 3.76515 15.6359ZM5.02449 19.213C4.81738 18.8543 4.35869 18.7314 3.99997 18.9385C3.64125 19.1456 3.51834 19.6043 3.72545 19.963C5.43326 22.9211 8.92577 25.3023 12.8048 25.761C16.7409 26.2265 21.0304 24.7089 24.2459 19.9623C24.4126 19.7163 24.4182 19.395 24.2603 19.1432C24.1025 18.8914 23.8108 18.7566 23.5167 18.7995C21.5016 19.0934 19.7347 19.0876 18.1943 18.857C17.7847 18.7957 17.4029 19.0781 17.3415 19.4877C17.2802 19.8974 17.5626 20.2792 17.9723 20.3405C19.196 20.5237 20.5292 20.5756 21.9771 20.4745C19.2439 23.6806 15.9615 24.6239 12.9809 24.2714C9.55937 23.8667 6.48939 21.7503 5.02449 19.213ZM15.7757 4.22479C15.4121 3.47045 14.3378 3.47046 13.9742 4.22479L13.0799 6.07991L11.2247 6.97421C10.4704 7.33785 10.4704 8.41215 11.2247 8.77579L13.0799 9.67009L13.9742 11.5252C14.3378 12.2795 15.4121 12.2795 15.7757 11.5252L16.67 9.67009L18.5252 8.77579C19.2795 8.41215 19.2795 7.33785 18.5252 6.97421L16.67 6.07991L15.7757 4.22479ZM14.3552 6.88867L14.875 5.81046L15.3947 6.88867C15.493 7.09249 15.6575 7.25697 15.8613 7.35522L16.9395 7.875L15.8613 8.39478C15.6575 8.49303 15.493 8.65751 15.3947 8.86132L14.875 9.93954L14.3552 8.86132C14.2569 8.6575 14.0924 8.49303 13.8886 8.39478L12.8104 7.875L13.8886 7.35522C14.0924 7.25696 14.2569 7.09249 14.3552 6.88867ZM20.9742 8.30813C21.3378 7.55379 22.4121 7.55379 22.7757 8.30813L23.2906 9.37605L24.3585 9.89087C25.1128 10.2545 25.1128 11.3288 24.3585 11.6925L23.2906 12.2073L22.7757 13.2752C22.4121 14.0295 21.3378 14.0295 20.9742 13.2752L20.4593 12.2073L19.3914 11.6925C18.6371 11.3288 18.6371 10.2545 19.3914 9.89087L20.4593 9.37605L20.9742 8.30813ZM21.875 9.89379L21.7347 10.1848C21.6364 10.3886 21.4719 10.5531 21.2681 10.6514L20.9771 10.7917L21.2681 10.932C21.4719 11.0302 21.6364 11.1947 21.7347 11.3985L21.875 11.6895L22.0152 11.3985C22.1135 11.1947 22.278 11.0302 22.4818 10.932L22.7728 10.7917L22.4818 10.6514C22.278 10.5531 22.1135 10.3886 22.0152 10.1848L21.875 9.89379ZM18.6924 13.5581C18.3288 12.8038 17.2545 12.8038 16.8908 13.5581L16.5657 14.2325L15.8914 14.5575C15.1371 14.9212 15.1371 15.9955 15.8914 16.3591L16.5657 16.6842L16.8908 17.3585C17.2545 18.1129 18.3288 18.1129 18.6924 17.3585L19.0175 16.6842L19.6918 16.3591C20.4462 15.9955 20.4462 14.9212 19.6918 14.5575L19.0175 14.2325L18.6924 13.5581ZM17.4649 15.4583C17.5978 15.3764 17.7097 15.2645 17.7916 15.1316C17.8735 15.2645 17.9854 15.3764 18.1184 15.4583C17.9854 15.5402 17.8735 15.6522 17.7916 15.7851C17.7097 15.6522 17.5978 15.5402 17.4649 15.4583Z" fill="#252323"/>
</g>
<defs>
<clipPath id="clip0_722_10608">
<rect width="28" height="28" fill="white"/>
</clipPath>
</defs>
</svg>
