<svg width="23" height="23" viewBox="0 0 23 23" fill="none" xmlns="http://www.w3.org/2000/svg">
<g clip-path="url(#clip0_722_10628)">
<path fill-rule="evenodd" clip-rule="evenodd" d="M3.15111 12.835C2.71977 10.0315 3.7257 7.12886 5.87145 5.2034C5.73006 6.38043 5.80589 7.68908 6.12404 8.98559C6.6255 11.0292 7.74253 13.0985 9.64113 14.6158C9.93236 14.8485 10.3571 14.8011 10.5898 14.5099C10.8226 14.2187 10.7751 13.7939 10.4839 13.5612C8.85616 12.2604 7.87822 10.4695 7.43514 8.66387C6.98961 6.84823 7.09837 5.07344 7.57731 3.83792C7.68081 3.57094 7.60459 3.26772 7.38717 3.0814C7.16974 2.89508 6.85842 2.86622 6.61045 3.00938C3.0067 5.09001 1.21838 9.15081 1.81681 13.0403C1.8735 13.4088 2.21815 13.6615 2.58661 13.6048C2.95506 13.5482 3.2078 13.2035 3.15111 12.835ZM4.17836 15.7529C3.99196 15.43 3.57914 15.3194 3.25629 15.5058C2.93344 15.6922 2.82283 16.105 3.00923 16.4279C4.42161 18.8742 7.30706 20.8406 10.5113 21.2196C13.767 21.6046 17.3119 20.3476 19.9651 16.4309C20.1151 16.2094 20.1202 15.9203 19.9781 15.6937C19.836 15.4671 19.5735 15.3457 19.3089 15.3843C17.6585 15.625 16.213 15.6201 14.9541 15.4316C14.5854 15.3764 14.2418 15.6306 14.1866 15.9993C14.1314 16.3679 14.3856 16.7116 14.7543 16.7667C15.7243 16.9119 16.777 16.9571 17.9161 16.8866C15.7021 19.42 13.065 20.1622 10.6699 19.8789C7.8773 19.5486 5.37213 17.8205 4.17836 15.7529ZM12.444 3.82151C12.3531 3.63292 12.0845 3.63292 11.9936 3.82151L11.2436 5.37717C11.2191 5.42812 11.178 5.46924 11.127 5.49381L9.57134 6.24375C9.38276 6.33466 9.38276 6.60323 9.57134 6.69414L11.127 7.44408C11.178 7.46865 11.2191 7.50977 11.2436 7.56072L11.9936 9.11638C12.0845 9.30497 12.3531 9.30497 12.444 9.11638L13.1939 7.56072C13.2185 7.50977 13.2596 7.46865 13.3106 7.44408L14.8662 6.69414C15.0548 6.60323 15.0548 6.33466 14.8662 6.24375L13.3106 5.49381C13.2596 5.46924 13.2185 5.42812 13.1939 5.37717L12.444 3.82151ZM17.7436 7.17567C17.8345 6.98709 18.1031 6.98709 18.194 7.17567L18.6322 8.08472C18.6568 8.13567 18.6979 8.17679 18.7488 8.20135L19.6579 8.63958C19.8465 8.73049 19.8465 8.99906 19.6579 9.08998L18.7488 9.5282C18.6979 9.55276 18.6568 9.59388 18.6322 9.64484L18.194 10.5539C18.1031 10.7425 17.8345 10.7425 17.7436 10.5539L17.3054 9.64484C17.2808 9.59388 17.2397 9.55276 17.1887 9.5282L16.2797 9.08998C16.0911 8.99906 16.0911 8.73049 16.2797 8.63958L17.1887 8.20135C17.2397 8.17679 17.2808 8.13567 17.3054 8.08472L17.7436 7.17567ZM14.8398 11.4882C14.7489 11.2996 14.4803 11.2996 14.3894 11.4882L14.107 12.0739C14.0825 12.1249 14.0414 12.166 13.9904 12.1905L13.4047 12.4729C13.2161 12.5638 13.2161 12.8324 13.4047 12.9233L13.9904 13.2057C14.0414 13.2302 14.0825 13.2714 14.107 13.3223L14.3894 13.908C14.4803 14.0966 14.7489 14.0966 14.8398 13.908L15.1222 13.3223C15.1467 13.2714 15.1879 13.2302 15.2388 13.2057L15.8245 12.9233C16.0131 12.8324 16.0131 12.5638 15.8245 12.4729L15.2388 12.1905C15.1879 12.166 15.1467 12.1249 15.1222 12.0739L14.8398 11.4882Z" fill="#252323"/>
</g>
<defs>
<clipPath id="clip0_722_10628">
<rect width="23" height="23" fill="white"/>
</clipPath>
</defs>
</svg>
