<svg width="23" height="23" viewBox="0 0 23 23" fill="none" xmlns="http://www.w3.org/2000/svg">
<g clip-path="url(#clip0_722_10673)">
<path d="M3.59366 16.0902C6.19981 20.6042 14.3749 23.4792 19.4061 16.0521C7.90615 17.7292 5.24381 7.98954 6.94782 3.59375C2.59336 6.1078 1.07962 11.7357 3.59366 16.0902Z" fill="#E05149"/>
<path fill-rule="evenodd" clip-rule="evenodd" d="M3.18076 15.4305C2.85791 15.6169 2.74786 16.0303 2.93425 16.3531C4.34665 18.7992 7.23164 20.7657 10.4357 21.1448C13.6913 21.5298 17.2367 20.2728 19.89 16.3561C20.0399 16.1348 20.045 15.8455 19.9031 15.619C19.7787 15.4207 19.5619 15.3028 19.3324 15.3023L19.2339 15.3096L18.6244 15.3886C17.225 15.5463 15.9806 15.5214 14.8791 15.3566C14.5104 15.3014 14.1659 15.5555 14.1107 15.9242C14.0555 16.2929 14.3105 16.6369 14.6792 16.6921C15.6498 16.8373 16.703 16.8791 17.8429 16.8084C15.6284 19.3441 12.99 20.0872 10.5941 19.8039C7.80181 19.4735 5.29681 17.7457 4.10305 15.6783C3.91665 15.3555 3.50361 15.2441 3.18076 15.4305ZM7.31201 3.00593C7.09468 2.81979 6.78338 2.79146 6.5355 2.93441C2.93178 5.01502 1.14328 9.07574 1.74167 12.9652C1.79835 13.3336 2.14271 13.5868 2.51106 13.5303C2.87951 13.4736 3.13229 13.1285 3.0756 12.76C2.64427 9.95651 3.65034 7.05377 5.79609 5.12832C5.65469 6.30538 5.73038 7.61472 6.04853 8.91126C6.55006 10.9546 7.66749 13.0235 9.56586 14.5406C9.857 14.7732 10.2814 14.7261 10.5142 14.4351C10.7469 14.1439 10.6994 13.7186 10.4082 13.4859C8.78068 12.1851 7.80269 10.3939 7.35964 8.58843C6.91427 6.77303 7.02343 4.99864 7.50229 3.76323C7.60578 3.49625 7.52944 3.19225 7.31201 3.00593ZM12.3687 3.74653C12.2777 3.55795 12.0092 3.55795 11.9183 3.74653L11.1683 5.30219C11.1438 5.35315 11.1026 5.39426 11.0517 5.41883L9.49602 6.16877C9.30743 6.25968 9.30743 6.52825 9.49602 6.61917L11.0517 7.36911C11.1026 7.39367 11.1438 7.43479 11.1683 7.48574L11.9183 9.0414C12.0092 9.22999 12.2777 9.22999 12.3687 9.0414L13.1186 7.48574C13.1432 7.43479 13.1843 7.39367 13.2352 7.36911L14.7909 6.61916C14.9795 6.52825 14.9795 6.25968 14.7909 6.16877L13.2352 5.41883C13.1843 5.39426 13.1432 5.35315 13.1186 5.30219L12.3687 3.74653ZM17.6683 7.1007C17.7592 6.91211 18.0277 6.91211 18.1187 7.1007L18.5569 8.00974C18.5814 8.06069 18.6226 8.10181 18.6735 8.12638L19.5826 8.5646C19.7711 8.65551 19.7711 8.92409 19.5826 9.015L18.6735 9.45322C18.6226 9.47779 18.5814 9.5189 18.5569 9.56986L18.1187 10.4789C18.0277 10.6675 17.7592 10.6675 17.6683 10.4789L17.23 9.56986C17.2055 9.5189 17.1643 9.47779 17.1134 9.45322L16.2043 9.015C16.0158 8.92409 16.0158 8.65551 16.2044 8.5646L17.1134 8.12638C17.1643 8.10181 17.2055 8.06069 17.23 8.00974L17.6683 7.1007ZM14.7645 11.4132C14.6736 11.2246 14.405 11.2246 14.3141 11.4132L14.0317 11.9989C14.0072 12.0499 13.966 12.091 13.9151 12.1156L13.3294 12.3979C13.1408 12.4888 13.1408 12.7574 13.3294 12.8483L13.9151 13.1307C13.966 13.1553 14.0072 13.1964 14.0317 13.2473L14.3141 13.8331C14.405 14.0217 14.6736 14.0217 14.7645 13.8331L15.0469 13.2473C15.0714 13.1964 15.1125 13.1553 15.1635 13.1307L15.7492 12.8483C15.9378 12.7574 15.9378 12.4888 15.7492 12.3979L15.1635 12.1156C15.1125 12.091 15.0714 12.0499 15.0469 11.9989L14.7645 11.4132Z" fill="#332A2A"/>
</g>
<defs>
<clipPath id="clip0_722_10673">
<rect width="23" height="23" fill="white"/>
</clipPath>
</defs>
</svg>
