<svg width="18" height="18" viewBox="0 0 18 18" fill="none" xmlns="http://www.w3.org/2000/svg">
<g clip-path="url(#clip0_722_10654)">
<path fill-rule="evenodd" clip-rule="evenodd" d="M2.37463 11.9265C2.07569 12.0991 1.97327 12.4813 2.14586 12.7802C3.26686 14.7218 5.55208 16.278 8.08912 16.5782C10.6739 16.8839 13.4833 15.8825 15.5795 12.7881C15.7183 12.5831 15.723 12.3155 15.5914 12.1058C15.4599 11.896 15.2168 11.7839 14.9718 11.8196C13.6884 12.0068 12.5667 12.0021 11.592 11.8562C11.2508 11.8052 10.9328 12.0404 10.8815 12.3815C10.8304 12.7228 11.0658 13.0417 11.4072 13.0928C12.1061 13.1974 12.8585 13.2353 13.6664 13.1992C11.9875 15.0187 10.0224 15.5477 8.23598 15.3364C6.08013 15.0814 4.14697 13.7462 3.22839 12.1552C3.0558 11.8563 2.67356 11.7539 2.37463 11.9265ZM5.71874 2.21279C5.51743 2.04043 5.22896 2.01407 4.99943 2.14659C2.14334 3.79562 0.72705 7.01331 1.20109 10.095C1.25358 10.4362 1.57256 10.6709 1.91372 10.6184C2.25478 10.5658 2.48819 10.2465 2.43576 9.90541C2.11586 7.82622 2.82161 5.67663 4.34706 4.19439C4.27396 5.05912 4.34502 5.99939 4.5734 6.93017C4.97004 8.54655 5.85457 10.1863 7.35984 11.3892C7.62948 11.6044 8.0223 11.5601 8.2377 11.2906C8.45296 11.021 8.40948 10.6277 8.13992 10.4122C6.88559 9.40983 6.13022 8.02873 5.7876 6.63284C5.4428 5.2277 5.52843 3.85927 5.89472 2.91407C5.99055 2.66687 5.92006 2.38531 5.71874 2.21279ZM9.66224 2.96743C9.57132 2.77885 9.30275 2.77885 9.21184 2.96743L8.68213 4.06625C8.65757 4.1172 8.61645 4.15832 8.5655 4.18288L7.46668 4.71259C7.2781 4.8035 7.2781 5.07208 7.46668 5.16299L8.5655 5.69269C8.61645 5.71726 8.65757 5.75838 8.68213 5.80933L9.21184 6.90814C9.30275 7.09673 9.57132 7.09673 9.66224 6.90814L10.1919 5.80933C10.2165 5.75838 10.2576 5.71726 10.3086 5.69269L11.4074 5.16299C11.596 5.07208 11.596 4.8035 11.4074 4.71259L10.3086 4.18288C10.2576 4.15832 10.2165 4.1172 10.1919 4.06625L9.66224 2.96743ZM13.7118 5.59243C13.8028 5.40385 14.0713 5.40385 14.1622 5.59243L14.448 6.1852C14.4726 6.23615 14.5137 6.27727 14.5646 6.30183L15.1574 6.58759C15.346 6.6785 15.346 6.94708 15.1574 7.03799L14.5646 7.32374C14.5137 7.34831 14.4726 7.38942 14.448 7.44038L14.1622 8.03314C14.0713 8.22173 13.8028 8.22173 13.7118 8.03314L13.4261 7.44038C13.4015 7.38942 13.3604 7.34831 13.3094 7.32374L12.7167 7.03799C12.5281 6.94707 12.5281 6.6785 12.7167 6.58759L13.3094 6.30183C13.3604 6.27727 13.4015 6.23615 13.4261 6.1852L13.7118 5.59243ZM11.5372 8.96744C11.4463 8.77885 11.1778 8.77885 11.0868 8.96744L10.9231 9.30718C10.8985 9.35813 10.8574 9.39925 10.8064 9.42381L10.4667 9.58759C10.2781 9.6785 10.2781 9.94708 10.4667 10.038L10.8064 10.2018C10.8574 10.2263 10.8985 10.2674 10.9231 10.3184L11.0868 10.6581C11.1778 10.8467 11.4463 10.8467 11.5372 10.6581L11.701 10.3184C11.7256 10.2674 11.7667 10.2263 11.8177 10.2018L12.1574 10.038C12.346 9.94708 12.346 9.6785 12.1574 9.58759L11.8177 9.42381C11.7667 9.39925 11.7256 9.35813 11.701 9.30718L11.5372 8.96744Z" fill="#332A2A"/>
</g>
<defs>
<clipPath id="clip0_722_10654">
<rect width="18" height="18" fill="white"/>
</clipPath>
</defs>
</svg>
