<svg width="44" height="44" viewBox="0 0 44 44" fill="none" xmlns="http://www.w3.org/2000/svg">
<g clip-path="url(#clip0_722_10671)">
<path d="M6.87507 30.7812C11.8607 39.4167 27.5 44.9167 37.125 30.7083C15.125 33.9167 10.0319 15.2843 13.2917 6.875C4.96145 11.6845 2.06559 22.4509 6.87507 30.7812Z" fill="#E05149"/>
<path fill-rule="evenodd" clip-rule="evenodd" d="M24.2758 6.55794C23.9121 5.8036 22.8378 5.80361 22.4742 6.55794L20.8751 9.87497L17.5581 11.474C16.8038 11.8377 16.8038 12.912 17.5581 13.2756L20.8751 14.8747L22.4742 18.1917C22.8378 18.946 23.9121 18.946 24.2758 18.1917L25.8748 14.8747L29.1918 13.2756C29.9462 12.912 29.9462 11.8377 29.1918 11.474L25.8748 9.87497L24.2758 6.55794ZM22.1504 10.6837L23.375 8.1436L24.5995 10.6837C24.6977 10.8876 24.8622 11.052 25.066 11.1503L27.6062 12.3748L25.066 13.5993C24.8622 13.6976 24.6977 13.8621 24.5995 14.0659L23.375 16.606L22.1504 14.0659C22.0522 13.8621 21.8877 13.6976 21.6839 13.5993L19.1438 12.3748L21.6839 11.1503C21.8877 11.052 22.0522 10.8876 22.1504 10.6837ZM5.49312 24.6358C4.56842 18.6257 6.98506 12.383 11.999 8.62472C11.4693 11.1284 11.5155 14.103 12.2412 17.0603C13.1771 20.8743 15.2582 24.7214 18.7817 27.5372C19.1053 27.7958 19.5773 27.7431 19.8359 27.4195C20.0944 27.096 20.0418 26.624 19.7182 26.3654C16.4956 23.7901 14.569 20.2525 13.698 16.7028C12.8242 13.142 13.0276 9.63103 13.9909 7.1459C14.1059 6.84926 14.0212 6.51234 13.7797 6.30532C13.5381 6.0983 13.1922 6.06623 12.9166 6.22531C6.2235 10.0896 2.89831 17.6348 4.01056 24.8639C4.07355 25.2733 4.45649 25.5541 4.86589 25.4911C5.27529 25.4281 5.55611 25.0452 5.49312 24.6358ZM7.52451 30.406C7.31741 30.0473 6.85871 29.9244 6.49999 30.1315C6.14127 30.3386 6.01837 30.7973 6.22547 31.156C8.83977 35.6841 14.2073 39.3504 20.1721 40.0558C26.1941 40.768 32.7805 38.4587 37.7459 31.1288C37.9126 30.8827 37.9183 30.5615 37.7604 30.3097C37.6025 30.0579 37.3108 29.9231 37.0167 29.966C33.8139 30.4331 30.9949 30.4254 28.5277 30.0561C28.118 29.9948 27.7362 30.2772 27.6749 30.6869C27.6136 31.0965 27.896 31.4783 28.3056 31.5396C30.4721 31.8639 32.8676 31.9228 35.5054 31.6622C31.0006 37.4391 25.417 39.1656 20.3483 38.5662C14.8409 37.9149 9.8959 34.5134 7.52451 30.406ZM33.4742 12.9746C33.8378 12.2203 34.9121 12.2203 35.2758 12.9746L36.2785 15.0546L38.3585 16.0574C39.1128 16.421 39.1128 17.4953 38.3585 17.8589L36.2785 18.8617L35.2758 20.9417C34.9121 21.696 33.8378 21.696 33.4742 20.9417L32.4714 18.8617L30.3914 17.8589C29.6371 17.4953 29.6371 16.421 30.3914 16.0574L32.4714 15.0546L33.4742 12.9746ZM34.375 14.5603L33.7468 15.8634C33.6485 16.0672 33.484 16.2317 33.2802 16.3299L31.9771 16.9581L33.2802 17.5863C33.484 17.6846 33.6485 17.8491 33.7468 18.0529L34.375 19.356L35.0032 18.0529C35.1014 17.8491 35.2659 17.6846 35.4697 17.5863L36.7728 16.9581L35.4697 16.3299C35.2659 16.2317 35.1014 16.0672 35.0032 15.8634L34.375 14.5603ZM28.8591 21.2246C28.4954 20.4703 27.4212 20.4703 27.0575 21.2246L26.3529 22.6861L24.8914 23.3907C24.1371 23.7543 24.1371 24.8286 24.8914 25.1923L26.3529 25.8968L27.0575 27.3584C27.4211 28.1127 28.4954 28.1127 28.8591 27.3584L29.5636 25.8968L31.0252 25.1923C31.7795 24.8286 31.7795 23.7543 31.0252 23.3907L29.5636 22.6861L28.8591 21.2246ZM27.6283 23.4949L27.9583 22.8103L28.2883 23.4949C28.3866 23.6987 28.5511 23.8632 28.7549 23.9614L29.4395 24.2915L28.7549 24.6215C28.5511 24.7198 28.3866 24.8842 28.2883 25.0881L27.9583 25.7727L27.6283 25.0881C27.53 24.8842 27.3655 24.7198 27.1617 24.6215L26.4771 24.2915L27.1617 23.9614C27.3655 23.8632 27.53 23.6987 27.6283 23.4949Z" fill="#252323"/>
</g>
<defs>
<clipPath id="clip0_722_10671">
<rect width="44" height="44" fill="white"/>
</clipPath>
</defs>
</svg>
