<svg width="23" height="23" viewBox="0 0 23 23" fill="none" xmlns="http://www.w3.org/2000/svg">
<g clip-path="url(#clip0_586_2697)">
<path fill-rule="evenodd" clip-rule="evenodd" d="M7.23795 5.93811C6.86522 5.93811 6.56324 6.2402 6.56315 6.61292C6.56315 9.4476 8.89756 11.1471 11.5505 11.1471C14.0533 11.1471 16.5378 9.46423 16.5378 6.61292C16.5377 3.86867 14.3012 1.651 11.5505 1.651C10.1567 1.651 8.89465 2.22079 7.9899 3.13831C7.72841 3.40373 7.73149 3.83072 7.99674 4.09241C8.26219 4.35416 8.69007 4.35102 8.95182 4.08557C9.61241 3.41587 10.5317 3.00061 11.5505 3.00061C13.5631 3.00061 15.1881 4.62171 15.1881 6.61292C15.1881 8.50505 13.5409 9.79651 11.5505 9.79651C9.43989 9.79651 7.91276 8.51383 7.91276 6.61292C7.91266 6.2402 7.61069 5.93811 7.23795 5.93811ZM7.59049 13.3916C7.41151 13.0647 7.0014 12.9442 6.67448 13.123C5.26358 13.8956 4.17886 15.0389 3.81608 16.4248C3.69402 16.8912 3.8304 17.3124 4.05338 17.624C4.26797 17.9238 4.57225 18.1413 4.86881 18.2802C5.50983 18.5806 5.88727 19.1055 6.3663 19.7718C6.37718 19.7869 6.3881 19.8021 6.39908 19.8173C6.71204 20.2522 7.21136 20.4901 7.72623 20.4902H11.5505C11.9232 20.4902 12.2253 20.1882 12.2253 19.8154C12.2253 19.4426 11.9232 19.1406 11.5505 19.1406H7.72623C7.62454 19.1405 7.542 19.0939 7.49479 19.0283C7.4687 18.992 7.44219 18.9549 7.4152 18.9172C6.97678 18.3042 6.41088 17.5129 5.44108 17.0586C5.30082 16.9928 5.20041 16.9068 5.15104 16.8378C5.12875 16.8066 5.12312 16.7872 5.12174 16.7812L5.12173 16.7812C5.12102 16.7781 5.12041 16.7754 5.12272 16.7666C5.36294 15.8493 6.1234 14.9644 7.32291 14.3076C7.64963 14.1285 7.76923 13.7184 7.59049 13.3916ZM16.4342 13.1279C15.085 12.3872 13.3838 11.9531 11.5505 11.9531C10.6589 11.9531 9.79985 12.0555 8.99869 12.2451C8.63618 12.3311 8.41189 12.695 8.49772 13.0576C8.58366 13.4202 8.94751 13.6444 9.31022 13.5586C10.0077 13.3935 10.7619 13.3027 11.5505 13.3027C13.1784 13.3027 14.6529 13.6891 15.7848 14.3105C16.9235 14.9356 17.6668 15.7685 17.9411 16.6377C17.9432 16.6445 17.9435 16.6471 17.9411 16.6572C17.9369 16.6739 17.9232 16.7123 17.8805 16.7714C17.7889 16.8986 17.6271 17.04 17.4225 17.1816C17.046 17.4423 16.7236 17.7911 16.446 18.1171C16.3264 18.2576 16.2192 18.3883 16.1162 18.5138C15.9581 18.7065 15.81 18.8871 15.6422 19.0722C15.611 19.1065 15.5505 19.1406 15.4596 19.1406H14.1862C13.8134 19.1406 13.5104 19.4426 13.5104 19.8154C13.5104 20.1882 13.8134 20.4902 14.1862 20.4902H15.4596C15.886 20.4902 16.3268 20.3276 16.6432 19.9785C16.8258 19.777 17.0174 19.5437 17.1939 19.3287C17.2933 19.2077 17.3878 19.0925 17.4733 18.9921C17.7362 18.6834 17.9651 18.4478 18.1901 18.292C18.4393 18.1194 18.7506 17.8737 18.9762 17.5605C19.209 17.2374 19.3982 16.7689 19.2292 16.2324C18.8202 14.9355 17.7764 13.8647 16.4342 13.1279Z" fill="#332A2A"/>
</g>
<defs>
<clipPath id="clip0_586_2697">
<rect width="23" height="23" fill="white"/>
</clipPath>
</defs>
</svg>
