<svg width="18" height="18" viewBox="0 0 18 18" fill="none" xmlns="http://www.w3.org/2000/svg">
<g clip-path="url(#clip0_597_2839)">
<path fill-rule="evenodd" clip-rule="evenodd" d="M9 8.15625C7.13604 8.15625 5.625 6.98957 5.625 5.13651C5.625 4.59343 5.75479 4.08048 5.98521 3.62664L6.58977 2.78783C7.2023 2.16665 8.05588 1.78125 9 1.78125C10.864 1.78125 12.375 3.28345 12.375 5.13651C12.375 5.98745 12.0564 6.69364 11.5312 7.2086L10.5187 7.86771C10.0622 8.05604 9.54628 8.15625 9 8.15625ZM9 9.84375C11.5989 9.84375 13.7862 11.0258 14.4317 12.6189C14.6391 13.1308 14.1446 13.617 13.724 13.9749C13.4682 14.1925 13.2328 14.4792 12.9945 14.7695C12.882 14.9066 12.7688 15.0445 12.6525 15.1762C12.4813 15.3702 12.2305 15.4688 11.9718 15.4688H11.0625H9H6.11346C5.80501 15.4688 5.51504 15.3258 5.33522 15.0752C5.01623 14.6306 4.68289 14.1713 4.15558 13.8724C3.73591 13.6346 3.3566 13.2332 3.51019 12.7759C3.78882 11.9463 4.48194 11.218 5.4375 10.6948C5.90333 10.4006 6.7566 10.1478 7.125 10.0582C7.71146 9.91939 8.34256 9.84375 9 9.84375Z" fill="#E05149"/>
<path fill-rule="evenodd" clip-rule="evenodd" d="M7.03491 3.22666C7.53442 2.7201 8.22948 2.40625 9.00011 2.40625C10.5224 2.40625 11.7501 3.63208 11.7501 5.13651C11.7501 6.49808 10.4837 7.53125 9.00011 7.53125C7.38723 7.53125 6.25011 6.55727 6.25011 5.13651C6.25011 4.79133 5.97029 4.51151 5.62511 4.51151C5.27993 4.51151 5.00011 4.79133 5.00011 5.13651C5.00011 7.42188 6.88507 8.78125 9.00011 8.78125C10.9657 8.78125 13.0001 7.37984 13.0001 5.13651C13.0001 2.93482 11.2058 1.15625 9.00011 1.15625C7.88251 1.15625 6.87041 1.6132 6.14485 2.34899C5.90249 2.59478 5.90526 2.99049 6.15104 3.23286C6.39683 3.47522 6.79254 3.47245 7.03491 3.22666ZM7.26906 10.6664C7.80757 10.5389 8.39033 10.4688 9.00011 10.4688C10.208 10.4688 11.3044 10.744 12.1604 11.1886C13.0223 11.6362 13.601 12.2329 13.8525 12.8536C13.8558 12.8618 13.8567 12.8647 13.8542 12.878C13.8501 12.899 13.8355 12.9434 13.79 13.013C13.6932 13.1615 13.526 13.3228 13.3191 13.4988C13.0894 13.6943 12.8848 13.925 12.7045 14.1397C12.6315 14.2266 12.5649 14.3078 12.5007 14.386L12.5005 14.3863C12.3939 14.5163 12.2942 14.6379 12.184 14.7627C12.147 14.8047 12.0762 14.8438 11.9719 14.8438H11.0626C10.7174 14.8438 10.4376 15.1236 10.4376 15.4688C10.4376 15.8139 10.7174 16.0938 11.0626 16.0938H11.9719C12.3851 16.0938 12.8159 15.9358 13.1213 15.5898C13.2439 15.4508 13.3717 15.2953 13.4894 15.1519L13.4895 15.1518C13.5502 15.0779 13.6083 15.0071 13.6617 14.9436C13.8323 14.7405 13.9822 14.5759 14.1291 14.4509C14.3428 14.269 14.6331 14.0083 14.8368 13.6962C15.0464 13.3751 15.2217 12.9042 15.011 12.3842C14.617 11.4118 13.7794 10.6209 12.7366 10.0793C11.6878 9.53457 10.3912 9.21875 9.00011 9.21875C8.29501 9.21875 7.61557 9.29985 6.98116 9.45C6.64526 9.52951 6.43741 9.86625 6.51692 10.2022C6.59642 10.538 6.93317 10.7459 7.26906 10.6664ZM5.73779 11.243C6.04055 11.0772 6.15159 10.6974 5.98581 10.3946C5.82002 10.0919 5.44019 9.98082 5.13743 10.1466C4.089 10.7207 3.26075 11.5559 2.91782 12.5769C2.76353 13.0363 2.89326 13.454 3.10219 13.7594C3.30152 14.0507 3.58677 14.2684 3.84753 14.4162C4.23872 14.6379 4.50011 14.9832 4.82753 15.4395C5.12947 15.8603 5.612 16.0938 6.11357 16.0938H9.00011C9.34529 16.0938 9.62511 15.8139 9.62511 15.4688C9.62511 15.1236 9.34529 14.8438 9.00011 14.8438H6.11357C5.99826 14.8438 5.90083 14.7912 5.84313 14.7108L5.82909 14.6912C5.52037 14.2609 5.11734 13.699 4.46387 13.3287C4.30496 13.2386 4.19071 13.1367 4.13386 13.0536C4.10786 13.0155 4.10201 12.9935 4.10087 12.9876L4.10073 12.9869C4.10034 12.9854 4.09988 12.9835 4.10277 12.9749C4.31712 12.3367 4.87511 11.7154 5.73779 11.243Z" fill="#252323"/>
</g>
<defs>
<clipPath id="clip0_597_2839">
<rect width="18" height="18" fill="white"/>
</clipPath>
</defs>
</svg>
