<svg width="44" height="44" viewBox="0 0 44 44" fill="none" xmlns="http://www.w3.org/2000/svg">
<g clip-path="url(#clip0_189_429)">
<path fill-rule="evenodd" clip-rule="evenodd" d="M16.6424 7.34125C18.004 5.96035 19.9003 5.10413 22 5.10413C26.1463 5.10413 29.5 8.44453 29.5 12.5559C29.5 14.4359 28.8011 15.9688 27.6624 17.0855C27.3666 17.3755 27.362 17.8503 27.652 18.1461C27.942 18.4418 28.4169 18.4465 28.7126 18.1565C30.1411 16.7556 31 14.8359 31 12.5559C31 7.60782 26.9664 3.60413 22 3.60413C19.484 3.60413 17.2072 4.63207 15.5743 6.28805C15.2835 6.58299 15.2868 7.05785 15.5817 7.34869C15.8767 7.63952 16.3515 7.63619 16.6424 7.34125ZM15.2993 9.20463C15.4868 8.83529 15.3394 8.38387 14.9701 8.19635C14.6007 8.00883 14.1493 8.15622 13.9618 8.52555C13.3464 9.73759 13 11.1075 13 12.5559C13 17.6043 17.1424 20.6875 22 20.6875C23.4264 20.6875 24.7856 20.4259 25.9985 19.9255C26.3814 19.7675 26.5638 19.329 26.4058 18.9461C26.2479 18.5632 25.8094 18.3809 25.4265 18.5388C24.4077 18.9591 23.2443 19.1875 22 19.1875C17.745 19.1875 14.5 16.5668 14.5 12.5559C14.5 11.3491 14.7881 10.2113 15.2993 9.20463ZM17.5894 25.3165C18.9654 24.9908 20.4501 24.8125 22 24.8125C25.4224 24.8125 28.5159 25.6817 30.8244 27.0744C33.141 28.472 34.6016 30.3506 34.9289 32.3542L34.9291 32.3552C34.9308 32.3647 34.9364 32.3961 34.8757 32.4677C34.8045 32.5517 34.6745 32.6437 34.5099 32.705C33.5092 33.0773 32.7029 33.8593 32.0134 34.6414C31.731 34.9618 31.4517 35.302 31.1809 35.6319C31.1167 35.7101 31.053 35.7877 30.9899 35.8644C30.6546 36.2712 30.3287 36.6579 29.9932 37.0078C29.9658 37.0363 29.9167 37.0625 29.847 37.0625H27.0417C26.6275 37.0625 26.2917 37.3982 26.2917 37.8125C26.2917 38.2267 26.6275 38.5625 27.0417 38.5625H29.847C30.2948 38.5625 30.745 38.3909 31.0758 38.0459C31.4531 37.6524 31.8094 37.2284 32.1474 36.8184C32.2151 36.7362 32.2818 36.6549 32.3479 36.5744L32.348 36.5744C32.6173 36.2462 32.8754 35.9319 33.1386 35.6334C33.8034 34.8794 34.4027 34.3453 35.0329 34.1109C35.3858 33.9795 35.7493 33.7567 36.0197 33.4379C36.2983 33.1094 36.497 32.6493 36.4093 32.1123C35.9892 29.5409 34.1587 27.3341 31.5993 25.7901C29.0318 24.2411 25.6646 23.3125 22 23.3125C20.3357 23.3125 18.735 23.5039 17.2439 23.8568C16.8409 23.9522 16.5914 24.3563 16.6868 24.7594C16.7822 25.1625 17.1863 25.4119 17.5894 25.3165ZM13.6519 26.8006C14.0152 26.6017 14.1485 26.1459 13.9495 25.7826C13.7506 25.4193 13.2948 25.286 12.9315 25.485C10.0291 27.0742 7.94644 29.4737 7.56295 32.2981C7.43362 33.2506 8.1451 33.9262 8.82917 34.1448C10.5646 34.6992 11.4551 35.9343 12.4565 37.3232C12.5857 37.5024 12.7167 37.6842 12.8516 37.8673C13.1813 38.3149 13.7004 38.5625 14.2379 38.5625H22C22.4142 38.5625 22.75 38.2267 22.75 37.8125C22.75 37.3982 22.4142 37.0625 22 37.0625H14.2379C14.1586 37.0625 14.0955 37.0268 14.0593 36.9777C13.9375 36.8124 13.8142 36.6395 13.6873 36.4618L13.6872 36.4617C12.7083 35.0904 11.5236 33.4309 9.28565 32.7159C9.18794 32.6847 9.11657 32.6296 9.0792 32.5811C9.04684 32.5391 9.04721 32.5153 9.04931 32.4999C9.34726 30.3055 11.0039 28.2506 13.6519 26.8006Z" fill="#252323"/>
</g>
<defs>
<clipPath id="clip0_189_429">
<rect width="44" height="44" fill="white"/>
</clipPath>
</defs>
</svg>
