<svg width="23" height="23" viewBox="0 0 23 23" fill="none" xmlns="http://www.w3.org/2000/svg">
<g clip-path="url(#clip0_586_2697)">
<path fill-rule="evenodd" clip-rule="evenodd" d="M8.90087 4.0362C9.56149 3.36625 10.481 2.95107 11.5 2.95107C13.5127 2.95107 15.1375 4.57207 15.1375 6.56336C15.1375 8.45549 13.4905 9.74691 11.5 9.74691C9.38942 9.74691 7.86248 8.46427 7.86248 6.56336C7.86248 6.19056 7.56027 5.88836 7.18748 5.88836C6.81469 5.88836 6.51248 6.19056 6.51248 6.56336C6.51248 9.39804 8.84709 11.0969 11.5 11.0969C14.0028 11.0969 16.4875 9.41467 16.4875 6.56336C16.4875 3.81904 14.2508 1.60107 11.5 1.60107C10.1062 1.60107 8.84436 2.1708 7.93961 3.08832C7.67786 3.35376 7.68085 3.78114 7.9463 4.04289C8.21174 4.30464 8.63912 4.30164 8.90087 4.0362ZM9.25962 13.509C9.9572 13.3439 10.7114 13.2532 11.5 13.2532C13.128 13.2532 14.6023 13.6398 15.7342 14.2611C16.8731 14.8864 17.6166 15.7191 17.8907 16.5884C17.8929 16.5953 17.8933 16.597 17.8909 16.6071C17.8869 16.6237 17.8729 16.6617 17.83 16.7213C17.7383 16.8486 17.5764 16.9903 17.3716 17.1321C16.9951 17.3928 16.6731 17.7411 16.3955 18.0671C16.2753 18.2082 16.1678 18.3394 16.0645 18.4654C15.9071 18.6575 15.7595 18.8376 15.5922 19.0222C15.5611 19.0565 15.5005 19.0907 15.4093 19.0907H14.1354C13.7626 19.0907 13.4604 19.3929 13.4604 19.7657C13.4604 20.1384 13.7626 20.4407 14.1354 20.4407H15.4093C15.8357 20.4407 16.2762 20.2778 16.5926 19.9287C16.7757 19.7266 16.9682 19.4924 17.1454 19.2769L17.1454 19.2769C17.2442 19.1567 17.3383 19.0422 17.4233 18.9424C17.6864 18.6335 17.9149 18.3979 18.1401 18.242C18.3893 18.0695 18.6998 17.8236 18.9254 17.5104C19.1582 17.1872 19.3475 16.719 19.1782 16.1824C18.7692 14.8855 17.7261 13.8146 16.3839 13.0777C15.0347 12.3371 13.3334 11.9032 11.5 11.9032C10.6084 11.9032 9.74984 12.0057 8.94868 12.1953C8.58591 12.2812 8.36144 12.6449 8.4473 13.0076C8.53316 13.3704 8.89685 13.5949 9.25962 13.509ZM7.27209 14.2577C7.59907 14.0786 7.719 13.6684 7.53995 13.3414C7.3609 13.0144 6.95069 12.8945 6.62371 13.0736C5.21271 13.8462 4.12877 14.9895 3.76606 16.3755C3.644 16.8419 3.78019 17.2625 4.00319 17.5741C4.21778 17.874 4.5214 18.092 4.81796 18.2309C5.46004 18.5318 5.83774 19.057 6.31785 19.7247L6.34845 19.7672C6.66144 20.2023 7.16092 20.4407 7.676 20.4407H11.5C11.8728 20.4407 12.175 20.1384 12.175 19.7657C12.175 19.3929 11.8728 19.0907 11.5 19.0907H7.676C7.5742 19.0907 7.4916 19.0446 7.44435 18.9789L7.36366 18.8663C6.92539 18.2534 6.35986 17.4625 5.39073 17.0085C5.25047 16.9427 5.15039 16.8574 5.10101 16.7884C5.07844 16.7569 5.07254 16.7375 5.07116 16.7315L5.07108 16.7311C5.0704 16.7282 5.06985 16.7258 5.07208 16.7172C5.31218 15.7998 6.07239 14.9146 7.27209 14.2577Z" fill="#252323"/>
</g>
<defs>
<clipPath id="clip0_586_2697">
<rect width="23" height="23" fill="white"/>
</clipPath>
</defs>
</svg>
