<svg width="28" height="28" viewBox="0 0 28 28" fill="none" xmlns="http://www.w3.org/2000/svg">
<g clip-path="url(#clip0_597_2837)">
<path fill-rule="evenodd" clip-rule="evenodd" d="M13.9999 12.6875C11.1004 12.6875 8.7499 10.8727 8.7499 7.99017C8.7499 7.14537 8.95179 6.34745 9.31023 5.64149L10.2506 4.33666C11.2035 3.37038 12.5313 2.77087 13.9999 2.77087C16.8994 2.77087 19.2499 5.10763 19.2499 7.99017C19.2499 9.31385 18.7543 10.4124 17.9374 11.2134L16.3624 12.2387C15.6523 12.5317 14.8497 12.6875 13.9999 12.6875ZM13.9999 15.3125C18.3244 15.3125 21.9162 17.4166 22.6235 20.1564C22.7616 20.6912 22.2773 21.139 21.7992 21.4155C21.2175 21.7518 20.7198 22.3582 20.2136 22.9748C19.9905 23.2466 19.7657 23.5204 19.5314 23.774C19.3558 23.964 19.1055 24.0625 18.8468 24.0625H17.2082H13.9999H9.23833C8.92989 24.0625 8.63854 23.9207 8.45771 23.6708C8.41091 23.6061 8.36419 23.541 8.31729 23.4756C7.73663 22.6663 7.13003 21.8208 6.04837 21.3774C5.60202 21.1945 5.23666 20.7911 5.33776 20.3195C5.65388 18.8448 6.80292 17.5428 8.45823 16.6364C9.18286 16.1788 10.5102 15.7856 11.0832 15.6461C11.9955 15.4302 12.9772 15.3125 13.9999 15.3125Z" fill="#E05149"/>
<path fill-rule="evenodd" clip-rule="evenodd" d="M10.7849 4.86326C11.6021 4.03452 12.7396 3.52087 14.0001 3.52087C16.4895 3.52087 18.5001 5.52599 18.5001 7.99017C18.5001 9.11384 18.0845 10.0189 17.4125 10.6779C17.1167 10.9679 17.1121 11.4428 17.4021 11.7385C17.6921 12.0343 18.167 12.0389 18.4627 11.7489C19.4244 10.8058 20.0001 9.51385 20.0001 7.99017C20.0001 4.68928 17.3096 2.02087 14.0001 2.02087C12.3233 2.02087 10.8053 2.70624 9.71681 3.81006C9.42597 4.105 9.4293 4.57986 9.72424 4.8707C10.0192 5.16153 10.494 5.1582 10.7849 4.86326ZM9.50009 7.99017C9.50009 7.57596 9.1643 7.24017 8.75009 7.24017C8.33588 7.24017 8.00009 7.57596 8.00009 7.99017C8.00009 11.3915 10.7993 13.4375 14.0001 13.4375C14.9409 13.4375 15.8414 13.265 16.6486 12.932C17.0315 12.7741 17.2139 12.3356 17.0559 11.9527C16.8979 11.5698 16.4595 11.3874 16.0766 11.5454C15.4635 11.7983 14.7588 11.9375 14.0001 11.9375C11.4019 11.9375 9.50009 10.3539 9.50009 7.99017ZM11.2562 16.376C12.1109 16.1737 13.0346 16.0625 14.0001 16.0625C16.0456 16.0625 17.8946 16.561 19.2976 17.359C20.7076 18.161 21.6086 19.2276 21.897 20.3418C21.8942 20.351 21.8833 20.3796 21.8474 20.4265C21.7666 20.5319 21.6179 20.6541 21.4239 20.7662C20.8897 21.0751 20.4461 21.5397 20.0701 21.9762C19.9011 22.1725 19.7521 22.3544 19.6092 22.5289L19.6092 22.5289C19.4012 22.7829 19.2062 23.0211 18.9808 23.2649C18.9615 23.2858 18.9187 23.3125 18.8469 23.3125H17.2084C16.7942 23.3125 16.4584 23.6483 16.4584 24.0625C16.4584 24.4768 16.7942 24.8125 17.2084 24.8125H18.8469C19.2927 24.8125 19.7505 24.6422 20.0825 24.283C20.3263 24.0191 20.5843 23.7055 20.8213 23.4172C20.9591 23.2497 21.0899 23.0908 21.2067 22.9551C21.5636 22.5408 21.871 22.2404 22.1748 22.0647C22.459 21.9004 22.7914 21.6605 23.0378 21.3392C23.2925 21.0069 23.4942 20.5278 23.3499 19.969C22.9304 18.3441 21.6821 16.9896 20.0392 16.0551C18.3882 15.1161 16.2791 14.5625 14.0001 14.5625C12.9202 14.5625 11.8805 14.6868 10.9107 14.9163C10.5076 15.0117 10.2582 15.4158 10.3536 15.8189C10.449 16.2219 10.8531 16.4714 11.2562 16.376ZM8.81864 17.2942C9.18195 17.0953 9.3152 16.6395 9.11626 16.2762C8.91732 15.9129 8.46152 15.7796 8.09821 15.9786C6.32179 16.9513 4.98087 18.407 4.60461 20.1623C4.39039 21.1616 5.17741 21.8309 5.76412 22.0714C6.63923 22.4301 7.12571 23.1052 7.73026 23.9441L7.85031 24.1105C8.17888 24.5645 8.70117 24.8125 9.23852 24.8125H14.0001C14.4143 24.8125 14.7501 24.4768 14.7501 24.0625C14.7501 23.6483 14.4143 23.3125 14.0001 23.3125H9.23852C9.15898 23.3125 9.09857 23.2768 9.06549 23.2311C9.01726 23.1644 8.96805 23.0955 8.91756 23.0248L8.91734 23.0245C8.35061 22.2307 7.62364 21.2125 6.333 20.6835C6.21359 20.6345 6.13089 20.565 6.09191 20.512C6.07792 20.493 6.0729 20.4809 6.07135 20.4764C6.3274 19.2824 7.28453 18.1343 8.81864 17.2942Z" fill="#332A2A"/>
</g>
<defs>
<clipPath id="clip0_597_2837">
<rect width="28" height="28" fill="white"/>
</clipPath>
</defs>
</svg>
