<svg width="18" height="18" viewBox="0 0 18 18" fill="none" xmlns="http://www.w3.org/2000/svg">
<g clip-path="url(#clip0_597_2839)">
<path fill-rule="evenodd" clip-rule="evenodd" d="M9 8.15625C7.13604 8.15625 5.625 6.98957 5.625 5.13651C5.625 4.59343 5.75479 4.08048 5.98521 3.62664L6.58977 2.78783C7.2023 2.16665 8.05588 1.78125 9 1.78125C10.864 1.78125 12.375 3.28345 12.375 5.13651C12.375 5.98745 12.0564 6.69364 11.5312 7.2086L10.5187 7.86771C10.0622 8.05604 9.54628 8.15625 9 8.15625ZM9 9.84375C11.5989 9.84375 13.7862 11.0258 14.4317 12.6189C14.6391 13.1308 14.1446 13.617 13.724 13.9749C13.4682 14.1925 13.2328 14.4792 12.9945 14.7695C12.882 14.9066 12.7688 15.0445 12.6525 15.1762C12.4813 15.3702 12.2305 15.4688 11.9718 15.4688H11.0625H9H6.11346C5.80501 15.4688 5.51504 15.3258 5.33522 15.0752C5.01623 14.6306 4.68289 14.1713 4.15558 13.8724C3.73591 13.6346 3.3566 13.2332 3.51019 12.7759C3.78882 11.9463 4.48194 11.218 5.4375 10.6948C5.90333 10.4006 6.7566 10.1478 7.125 10.0582C7.71146 9.91939 8.34256 9.84375 9 9.84375Z" fill="#E05149"/>
<path fill-rule="evenodd" clip-rule="evenodd" d="M5.74978 4.63672C5.4046 4.63672 5.12478 4.91654 5.12478 5.26172C5.12489 7.54696 7.00981 8.90625 9.12478 8.90625C11.0903 8.90625 13.1247 7.50492 13.1248 5.26172C13.1248 3.06003 11.3305 1.28125 9.12478 1.28125C8.00721 1.28125 6.99486 1.73788 6.26931 2.47363C6.02695 2.71941 6.03037 3.11506 6.27615 3.35742C6.52193 3.59978 6.91758 3.59734 7.15994 3.35156C7.65943 2.84513 8.35426 2.53125 9.12478 2.53125C10.647 2.53125 11.8748 3.75729 11.8748 5.26172C11.8747 6.62318 10.6083 7.65625 9.12478 7.65625C7.51197 7.65625 6.37489 6.68237 6.37478 5.26172C6.37478 4.91654 6.09496 4.63672 5.74978 4.63672ZM6.11013 10.5195C5.94435 10.217 5.56511 10.106 5.26248 10.2715C4.21404 10.8456 3.38567 11.6811 3.04275 12.7021C2.88852 13.1615 3.0184 13.5794 3.22732 13.8848C3.42663 14.1759 3.71182 14.3933 3.97244 14.541C4.3635 14.7627 4.6246 15.1083 4.95193 15.5645C5.25383 15.9852 5.73655 16.2187 6.23806 16.2188H9.12478C9.46996 16.2188 9.74978 15.9389 9.74978 15.5938C9.74978 15.2486 9.46996 14.9688 9.12478 14.9688H6.23806C6.12282 14.9687 6.02522 14.9163 5.96755 14.8359L5.95358 14.8165C5.64489 14.3861 5.242 13.8245 4.58865 13.4541C4.42982 13.3641 4.31545 13.2618 4.25857 13.1787C4.23257 13.1407 4.22651 13.1182 4.22537 13.1123L4.2253 13.112C4.22491 13.1104 4.2244 13.1083 4.22732 13.0996C4.4417 12.4616 4.99972 11.8405 5.86208 11.3682C6.16484 11.2024 6.27592 10.8223 6.11013 10.5195ZM12.8611 10.2041C11.8124 9.65944 10.5158 9.34375 9.12478 9.34375C8.4198 9.34375 7.74054 9.42509 7.10623 9.5752C6.77034 9.65469 6.56191 9.99127 6.64138 10.3271C6.72086 10.6629 7.05753 10.8703 7.39333 10.791C7.93184 10.6636 8.515 10.5938 9.12478 10.5938C10.3326 10.5938 11.429 10.8689 12.2849 11.3135C13.1468 11.7611 13.7258 12.3578 13.9773 12.9785C13.9806 12.9867 13.9818 12.9898 13.9793 13.0029C13.9752 13.0239 13.9601 13.0682 13.9148 13.1377C13.818 13.2861 13.651 13.448 13.4441 13.624C13.2144 13.8195 13.0092 14.0499 12.8289 14.2646C12.7559 14.3516 12.6892 14.4329 12.6249 14.5112C12.5183 14.6412 12.4185 14.7629 12.3084 14.8877C12.2713 14.9296 12.2006 14.9688 12.0965 14.9688H11.1873C10.8421 14.9688 10.5623 15.2486 10.5623 15.5938C10.5623 15.9389 10.8421 16.2188 11.1873 16.2188H12.0965C12.5097 16.2188 12.9405 16.0608 13.2459 15.7148C13.3675 15.577 13.494 15.4227 13.6109 15.2803C13.6726 15.2049 13.7317 15.1329 13.7859 15.0684C13.9564 14.8653 14.1068 14.7011 14.2537 14.5762C14.4674 14.3944 14.758 14.1334 14.9617 13.8213C15.1712 13.5002 15.3462 13.0288 15.1355 12.5088C14.7415 11.5366 13.9038 10.7457 12.8611 10.2041Z" fill="#332A2A"/>
</g>
<defs>
<clipPath id="clip0_597_2839">
<rect width="18" height="18" fill="white"/>
</clipPath>
</defs>
</svg>
