<svg width="28" height="28" viewBox="0 0 28 28" fill="none" xmlns="http://www.w3.org/2000/svg">
<g clip-path="url(#clip0_622_5523)">
<path fill-rule="evenodd" clip-rule="evenodd" d="M14.7659 8.91922C14.7659 8.50501 14.4301 8.16922 14.0159 8.16922C13.6017 8.16922 13.2659 8.50501 13.2659 8.91922V13.2659L8.91919 13.2659C8.50498 13.2659 8.16919 13.6017 8.16919 14.0159C8.16919 14.4301 8.50498 14.7659 8.91919 14.7659L13.2659 14.7659V19.1126C13.2659 19.5268 13.6017 19.8626 14.0159 19.8626C14.4301 19.8626 14.7659 19.5268 14.7659 19.1126V14.7659L19.1126 14.7659C19.5268 14.7659 19.8626 14.4301 19.8626 14.0159C19.8626 13.6017 19.5268 13.2659 19.1126 13.2659L14.7659 13.2659V8.91922Z" fill="#252323"/>
</g>
<defs>
<clipPath id="clip0_622_5523">
<rect width="28" height="28" fill="white"/>
</clipPath>
</defs>
</svg>
