<svg width="44" height="44" viewBox="0 0 44 44" fill="none" xmlns="http://www.w3.org/2000/svg">
<g clip-path="url(#clip0_209_387)">
<path fill-rule="evenodd" clip-rule="evenodd" d="M22.775 14.0159C22.775 13.6017 22.4392 13.2659 22.025 13.2659C21.6108 13.2659 21.275 13.6017 21.275 14.0159V21.275H14.0159C13.6017 21.275 13.2659 21.6108 13.2659 22.025C13.2659 22.4392 13.6017 22.775 14.0159 22.775H21.275V30.0341C21.275 30.4483 21.6108 30.7841 22.025 30.7841C22.4392 30.7841 22.775 30.4483 22.775 30.0341V22.775H30.0341C30.4483 22.775 30.7841 22.4392 30.7841 22.025C30.7841 21.6108 30.4483 21.275 30.0341 21.275H22.775V14.0159Z" fill="#252323"/>
</g>
<defs>
<clipPath id="clip0_209_387">
<rect width="44" height="44" fill="white"/>
</clipPath>
</defs>
</svg>
