<svg width="23" height="23" viewBox="0 0 23 23" fill="none" xmlns="http://www.w3.org/2000/svg">
<g clip-path="url(#clip0_622_5536)">
<path fill-rule="evenodd" clip-rule="evenodd" d="M12.1882 7.32652C12.1882 6.95373 11.886 6.65152 11.5132 6.65152C11.1404 6.65152 10.8382 6.95373 10.8382 7.32652L10.8382 10.8381L7.32661 10.8381C6.95382 10.8381 6.65161 11.1403 6.65161 11.5131C6.65161 11.8859 6.95382 12.1881 7.32661 12.1881L10.8382 12.1881L10.8382 15.6997C10.8382 16.0725 11.1404 16.3747 11.5132 16.3747C11.886 16.3747 12.1882 16.0725 12.1882 15.6997V12.1881L15.6998 12.1881C16.0726 12.1881 16.3748 11.8859 16.3748 11.5131C16.3748 11.1403 16.0726 10.8381 15.6998 10.8381L12.1882 10.8381V7.32652Z" fill="#252323"/>
</g>
<defs>
<clipPath id="clip0_622_5536">
<rect width="23" height="23" fill="white"/>
</clipPath>
</defs>
</svg>
