<svg width="18" height="18" viewBox="0 0 18 18" fill="none" xmlns="http://www.w3.org/2000/svg">
<g clip-path="url(#clip0_622_5549)">
<path fill-rule="evenodd" clip-rule="evenodd" d="M9.63534 5.7338C9.63534 5.38862 9.35552 5.1088 9.01034 5.1088C8.66516 5.1088 8.38534 5.38862 8.38534 5.7338L8.38534 8.38525L5.73389 8.38525C5.38871 8.38525 5.10889 8.66507 5.10889 9.01025C5.10889 9.35542 5.38871 9.63525 5.73389 9.63525L8.38534 9.63525L8.38534 12.2867C8.38534 12.6319 8.66516 12.9117 9.01034 12.9117C9.35552 12.9117 9.63534 12.6319 9.63534 12.2867V9.63525L12.2868 9.63525C12.632 9.63525 12.9118 9.35542 12.9118 9.01025C12.9118 8.66507 12.632 8.38525 12.2868 8.38525L9.63534 8.38525V5.7338Z" fill="#252323"/>
</g>
<defs>
<clipPath id="clip0_622_5549">
<rect width="18" height="18" fill="white"/>
</clipPath>
</defs>
</svg>
