<svg width="44" height="44" viewBox="0 0 44 44" fill="none" xmlns="http://www.w3.org/2000/svg">
<g clip-path="url(#clip0_609_5414)">
<path fill-rule="evenodd" clip-rule="evenodd" d="M11.9591 7.62646C11.6139 7.62646 11.3341 7.90629 11.3341 8.25146V9.37703H12.5841V8.25146C12.5841 7.90629 12.3043 7.62646 11.9591 7.62646ZM9.83408 8.25146V9.37703H8.41675C6.89796 9.37703 5.66675 10.6083 5.66675 12.127V15.627V19.6307V24.3825C5.66675 24.7968 6.00253 25.1325 6.41675 25.1325C6.83096 25.1325 7.16675 24.7968 7.16675 24.3825V19.6307V16.377H36.8334V18.4175C36.8334 18.8317 37.1692 19.1675 37.5834 19.1675C37.9976 19.1675 38.3334 18.8317 38.3334 18.4175V15.627V12.127C38.3334 10.6083 37.1022 9.37703 35.5834 9.37703H34.1662V8.25146C34.1662 7.07786 33.2148 6.12646 32.0412 6.12646C30.8676 6.12646 29.9162 7.07786 29.9162 8.25146V9.37703H22.0001H14.0841V8.25146C14.0841 7.07786 13.1327 6.12646 11.9591 6.12646C10.7855 6.12646 9.83408 7.07786 9.83408 8.25146ZM31.4162 9.37703H32.6662V8.25146C32.6662 7.90629 32.3864 7.62646 32.0412 7.62646C31.696 7.62646 31.4162 7.90629 31.4162 8.25146V9.37703ZM8.41675 10.877C7.72639 10.877 7.16675 11.4367 7.16675 12.127V14.877H36.8334V12.127C36.8334 11.4367 36.2738 10.877 35.5834 10.877H22.0001H8.41675ZM37.5834 21.8127C37.9976 21.8127 38.3334 22.1485 38.3334 22.5627V26.7079V28.2003C38.5907 28.4794 38.8261 28.779 39.037 29.0961C39.2663 29.4411 39.1726 29.9066 38.8277 30.1359C38.4827 30.3653 38.0172 30.2716 37.7879 29.9266C36.765 28.3883 35.0183 27.377 33.0356 27.377C29.8864 27.377 27.3334 29.93 27.3334 33.0792C27.3334 36.2285 29.8864 38.7814 33.0356 38.7814C36.1848 38.7814 38.7378 36.2285 38.7378 33.0792C38.7378 32.665 39.0736 32.3292 39.4878 32.3292C39.902 32.3292 40.2378 32.665 40.2378 33.0792C40.2378 37.0569 37.0133 40.2814 33.0356 40.2814C31.1533 40.2814 29.4396 39.5593 28.1565 38.377H8.41675C6.89796 38.377 5.66675 37.1458 5.66675 35.627V33.3807V29.1344C5.66675 28.7202 6.00253 28.3844 6.41675 28.3844C6.83096 28.3844 7.16675 28.7202 7.16675 29.1344V33.3807V35.627C7.16675 36.3174 7.72639 36.877 8.41675 36.877H26.915C26.2294 35.7745 25.8334 34.4731 25.8334 33.0792C25.8334 29.1016 29.0579 25.877 33.0356 25.877C34.4297 25.877 35.7311 26.2733 36.8334 26.9587V26.7079V22.5627C36.8334 22.1485 37.1692 21.8127 37.5834 21.8127ZM33.7311 29.5276C33.7311 29.1134 33.3953 28.7776 32.9811 28.7776C32.5668 28.7776 32.2311 29.1134 32.2311 29.5276V32.2747H31.2325H30.3582H29.484C29.0698 32.2747 28.734 32.6105 28.734 33.0247C28.734 33.4389 29.0698 33.7747 29.484 33.7747H30.3582H31.2325H32.2311V36.5218C32.2311 36.936 32.5668 37.2718 32.9811 37.2718C33.3953 37.2718 33.7311 36.936 33.7311 36.5218V33.7747H36.4781C36.8924 33.7747 37.2281 33.4389 37.2281 33.0247C37.2281 32.6105 36.8924 32.2747 36.4781 32.2747H33.7311V29.5276Z" fill="#252323"/>
</g>
<defs>
<clipPath id="clip0_609_5414">
<rect width="44" height="44" fill="white"/>
</clipPath>
</defs>
</svg>
