<svg width="23" height="23" viewBox="0 0 23 23" fill="none" xmlns="http://www.w3.org/2000/svg">
<g clip-path="url(#clip0_1218_14057)">
<circle cx="11.4999" cy="11.5" r="9.10417" fill="#E05149"/>
<path d="M5.02661 17.9359C5.26772 17.6519 5.69354 17.6168 5.97778 17.8578C7.44722 19.1033 9.34773 19.8539 11.425 19.8539C12.439 19.8538 13.4102 19.6751 14.3088 19.348C14.659 19.2207 15.0466 19.4011 15.1741 19.7513C15.3015 20.1016 15.12 20.489 14.7698 20.6165C13.7254 20.9967 12.5987 21.2044 11.425 21.2044C9.01628 21.2044 6.80886 20.3325 5.10474 18.888C4.82036 18.647 4.78556 18.2203 5.02661 17.9359ZM14.2659 2.74643C14.4079 2.40174 14.803 2.23724 15.1477 2.37924C16.59 2.97347 17.8586 3.90187 18.8567 5.06772C20.3199 6.77682 21.2043 8.99892 21.2043 11.4251C21.2042 14.4167 19.8593 17.0953 17.7444 18.888C17.46 19.1287 17.0342 19.0932 16.7932 18.8089C16.5524 18.5246 16.5872 18.0988 16.8713 17.8578C18.6966 16.3106 19.8537 14.0033 19.8538 11.4251C19.8538 9.33288 19.092 7.41941 17.8303 5.94565C16.9689 4.93962 15.8751 4.13895 14.6331 3.62729C14.2886 3.48524 14.124 3.09101 14.2659 2.74643ZM11.425 1.64584C11.7977 1.64602 12.0999 1.94796 12.0999 2.32065C12.0999 2.69333 11.7977 2.99528 11.425 2.99545C6.76975 2.99545 2.99536 6.76984 2.99536 11.4251C2.99543 13.2445 3.57177 14.9272 4.55103 16.304C4.76707 16.6078 4.69553 17.0294 4.39185 17.2455C4.08812 17.4615 3.66655 17.3909 3.45044 17.0872C2.31396 15.4894 1.64582 13.5341 1.64575 11.4251C1.64575 6.02426 6.02416 1.64584 11.425 1.64584ZM11.4377 6.57651C11.8105 6.57651 12.1125 6.87852 12.1125 7.25131V10.763H15.6243C15.997 10.763 16.299 11.0651 16.2991 11.4378C16.2991 11.8106 15.9971 12.1126 15.6243 12.1126H12.1125V15.6244C12.1125 15.9972 11.8105 16.2992 11.4377 16.2992C11.065 16.2991 10.7629 15.9971 10.7629 15.6244V12.1126H7.25122C6.87843 12.1126 6.57642 11.8106 6.57642 11.4378C6.57644 11.0651 6.87845 10.763 7.25122 10.763H10.7629V7.25131C10.7629 6.87854 11.065 6.57654 11.4377 6.57651Z" fill="#332A2A"/>
</g>
<defs>
<clipPath id="clip0_1218_14057">
<rect width="23" height="23" fill="white"/>
</clipPath>
</defs>
</svg>
