<svg width="23" height="23" viewBox="0 0 23 23" fill="none" xmlns="http://www.w3.org/2000/svg">
<g clip-path="url(#clip0_609_5445)">
<path fill-rule="evenodd" clip-rule="evenodd" d="M6.75618 3.78047C6.71822 3.78047 6.68743 3.81125 6.68743 3.84922V4.42908H6.82493V3.84922C6.82493 3.81125 6.79415 3.78047 6.75618 3.78047ZM5.38743 3.84922V4.42908H5.3541C3.89055 4.42908 2.7041 5.61552 2.7041 7.07908V7.95408V10.0469V12.5308C2.7041 12.8898 2.99512 13.1808 3.3541 13.1808C3.71309 13.1808 4.0041 12.8898 4.0041 12.5308V10.0469V8.60408H18.9958V9.41272C18.9958 9.77171 19.2868 10.0627 19.6458 10.0627C20.0048 10.0627 20.2958 9.77171 20.2958 9.41272V7.95408V7.07908C20.2958 5.61552 19.1093 4.42908 17.6458 4.42908H17.6124V3.84922C17.6124 3.09328 16.9996 2.48047 16.2437 2.48047C15.4877 2.48047 14.8749 3.09328 14.8749 3.84922V4.42908H11.4999H8.12493V3.84922C8.12493 3.09328 7.51212 2.48047 6.75618 2.48047C6.00024 2.48047 5.38743 3.09328 5.38743 3.84922ZM16.1749 4.42908H16.3124V3.84922C16.3124 3.81125 16.2817 3.78047 16.2437 3.78047C16.2057 3.78047 16.1749 3.81125 16.1749 3.84922V4.42908ZM5.3541 5.72908C4.60852 5.72908 4.0041 6.3335 4.0041 7.07908V7.30408H18.9958V7.07908C18.9958 6.3335 18.3914 5.72908 17.6458 5.72908H11.4999H5.3541ZM19.6458 10.9295C20.0048 10.9295 20.2958 11.2206 20.2958 11.5795V13.7464V14.1258C20.4792 14.3139 20.6452 14.5191 20.7912 14.7386C20.9899 15.0375 20.9087 15.441 20.6098 15.6397C20.3108 15.8385 19.9074 15.7573 19.7086 15.4583C19.183 14.6678 18.2861 14.1491 17.2684 14.1491C15.6514 14.1491 14.3406 15.4599 14.3406 17.0768C14.3406 18.6938 15.6514 20.0046 17.2684 20.0046C18.8854 20.0046 20.1962 18.6938 20.1962 17.0768C20.1962 16.7179 20.4872 16.4268 20.8462 16.4268C21.2052 16.4268 21.4962 16.7179 21.4962 17.0768C21.4962 19.4118 19.6033 21.3046 17.2684 21.3046C16.1203 21.3046 15.079 20.8469 14.3171 20.1041H5.3541C3.89055 20.1041 2.7041 18.9176 2.7041 17.4541V17.2344V15.0147C2.7041 14.6558 2.99512 14.3647 3.3541 14.3647C3.71309 14.3647 4.0041 14.6558 4.0041 15.0147V17.2344V17.4541C4.0041 18.1997 4.60852 18.8041 5.3541 18.8041H13.4084C13.1721 18.2767 13.0406 17.6921 13.0406 17.0768C13.0406 14.7419 14.9335 12.8491 17.2684 12.8491C17.8838 12.8491 18.4685 12.9807 18.9958 13.217V11.5795C18.9958 11.2206 19.2868 10.9295 19.6458 10.9295ZM17.89 15.5151C17.89 15.1561 17.5989 14.8651 17.24 14.8651C16.881 14.8651 16.59 15.1561 16.59 15.5151V16.3984H16.4733H16.09H15.7066C15.3476 16.3984 15.0566 16.6894 15.0566 17.0484C15.0566 17.4074 15.3476 17.6984 15.7066 17.6984H16.09H16.4733H16.59V18.5817C16.59 18.9407 16.881 19.2317 17.24 19.2317C17.5989 19.2317 17.89 18.9407 17.89 18.5817V17.6984H18.7733C19.1323 17.6984 19.4233 17.4074 19.4233 17.0484C19.4233 16.6894 19.1323 16.3984 18.7733 16.3984H17.89V15.5151Z" fill="#252323"/>
</g>
<defs>
<clipPath id="clip0_609_5445">
<rect width="23" height="23" fill="white"/>
</clipPath>
</defs>
</svg>
