<svg width="23" height="23" viewBox="0 0 23 23" fill="none" xmlns="http://www.w3.org/2000/svg">
<g clip-path="url(#clip0_1218_14057)">
<circle cx="11.4999" cy="11.5" r="9.10417" fill="#E05149"/>
<path fill-rule="evenodd" clip-rule="evenodd" d="M11.5001 3.07084C6.84481 3.07084 3.07095 6.84471 3.07095 11.5C3.07095 13.3196 3.64671 15.0027 4.62607 16.3796C4.84213 16.6834 4.77102 17.1048 4.46723 17.3209C4.16344 17.537 3.74201 17.4659 3.52595 17.1621C2.38941 15.5641 1.72095 13.6091 1.72095 11.5C1.72095 6.09912 6.09923 1.72084 11.5001 1.72084C11.8729 1.72084 12.1751 2.02305 12.1751 2.39584C12.1751 2.76863 11.8729 3.07084 11.5001 3.07084ZM14.3416 2.82154C14.4836 2.47685 14.8781 2.31254 15.2228 2.45454C16.6652 3.04877 17.9335 3.9774 18.9317 5.14332C20.3949 6.85242 21.2793 9.07379 21.2793 11.5C21.2793 14.4917 19.9351 17.1701 17.8201 18.9628C17.5357 19.2039 17.1098 19.1688 16.8687 18.8844C16.6277 18.6 16.6628 18.1741 16.9472 17.933C18.7725 16.3858 19.9293 14.0783 19.9293 11.5C19.9293 9.40775 19.1679 7.49504 17.9061 6.02128C17.0447 5.01503 15.9508 4.21451 14.7086 3.70277C14.3639 3.56077 14.1996 3.16623 14.3416 2.82154ZM5.10169 18.0115C5.34274 17.7271 5.76868 17.692 6.05306 17.933C7.5225 19.1786 9.42278 19.9292 11.5001 19.9292C12.5142 19.9292 13.485 19.7504 14.3838 19.4232C14.7341 19.2957 15.1214 19.4763 15.249 19.8266C15.3765 20.1769 15.1959 20.5642 14.8456 20.6918C13.801 21.072 12.674 21.2792 11.5001 21.2792C9.09126 21.2792 6.88429 20.4074 5.18014 18.9628C4.89576 18.7218 4.86064 18.2958 5.10169 18.0115ZM6.65162 11.5131C6.65162 11.1403 6.95383 10.8381 7.32662 10.8381L10.8382 10.8381V7.3265C10.8382 6.95371 11.1404 6.6515 11.5132 6.6515C11.886 6.6515 12.1882 6.95371 12.1882 7.3265V10.8381L15.6998 10.8381C16.0726 10.8381 16.3748 11.1403 16.3748 11.5131C16.3748 11.8859 16.0726 12.1881 15.6998 12.1881H12.1882V15.6997C12.1882 16.0724 11.886 16.3747 11.5132 16.3747C11.1404 16.3747 10.8382 16.0724 10.8382 15.6997V12.1881H7.32662C6.95383 12.1881 6.65162 11.8859 6.65162 11.5131Z" fill="#252323"/>
</g>
<defs>
<clipPath id="clip0_1218_14057">
<rect width="23" height="23" fill="white"/>
</clipPath>
</defs>
</svg>
