<svg width="18" height="18" viewBox="0 0 18 18" fill="none" xmlns="http://www.w3.org/2000/svg">
<g clip-path="url(#clip0_622_5588)">
<path fill-rule="evenodd" clip-rule="evenodd" d="M9 2.50002C5.41015 2.50002 2.5 5.41016 2.5 9.00002C2.5 10.4033 2.94396 11.701 3.69914 12.7628C3.89921 13.0441 3.83336 13.4343 3.55208 13.6343C3.27079 13.8344 2.88058 13.7685 2.68051 13.4873C1.77978 12.2208 1.25 10.6714 1.25 9.00002C1.25 4.71981 4.71979 1.25002 9 1.25002C9.34518 1.25002 9.625 1.52984 9.625 1.87502C9.625 2.22019 9.34518 2.50002 9 2.50002ZM11.1343 2.17132C11.2658 1.85217 11.6311 1.70003 11.9503 1.83151C13.0934 2.30247 14.0985 3.0384 14.8895 3.9623C16.049 5.31673 16.75 7.0773 16.75 9.00002C16.75 11.3709 15.6846 13.4937 14.0086 14.9143C13.7453 15.1375 13.3509 15.105 13.1277 14.8416C12.9045 14.5783 12.9371 14.1839 13.2004 13.9608C14.6081 12.7675 15.5 10.9882 15.5 9.00002C15.5 7.38652 14.9129 5.91174 13.9399 4.77523C13.2755 3.99917 12.4319 3.38186 11.4741 2.98727C11.155 2.85579 11.0028 2.49048 11.1343 2.17132ZM3.91874 14.0334C4.14194 13.7701 4.53633 13.7376 4.79964 13.9608C5.93281 14.9213 7.39802 15.5 9 15.5C9.78219 15.5 10.5308 15.3621 11.2237 15.1099C11.548 14.9918 11.9067 15.159 12.0248 15.4834C12.1429 15.8077 11.9757 16.1664 11.6513 16.2845C10.8233 16.5859 9.93014 16.75 9 16.75C7.09105 16.75 5.34188 16.059 3.99138 14.9143C3.72807 14.6911 3.69555 14.2967 3.91874 14.0334ZM5.10879 9.01024C5.10879 8.66507 5.38861 8.38524 5.73379 8.38524L8.38524 8.38524V5.73379C8.38524 5.38862 8.66506 5.10879 9.01024 5.10879C9.35542 5.10879 9.63524 5.38862 9.63524 5.73379V8.38525L12.2867 8.38525C12.6319 8.38525 12.9117 8.66507 12.9117 9.01025C12.9117 9.35542 12.6319 9.63525 12.2867 9.63525H9.63524V12.2867C9.63524 12.6319 9.35542 12.9117 9.01024 12.9117C8.66506 12.9117 8.38524 12.6319 8.38524 12.2867V9.63524H5.73379C5.38861 9.63524 5.10879 9.35542 5.10879 9.01024Z" fill="#332A2A"/>
</g>
<defs>
<clipPath id="clip0_622_5588">
<rect width="18" height="18" fill="white"/>
</clipPath>
</defs>
</svg>
