<svg width="18" height="18" viewBox="0 0 18 18" fill="none" xmlns="http://www.w3.org/2000/svg">
<g clip-path="url(#clip0_609_5474)">
<path fill-rule="evenodd" clip-rule="evenodd" d="M15.375 6.625H2.625V14.625C2.625 15.1773 3.07272 15.625 3.625 15.625H11.6629C11.1767 15.1486 10.875 14.4845 10.875 13.75C10.875 12.3003 12.0503 11.125 13.5 11.125C14.2345 11.125 14.8986 11.4267 15.375 11.9129V6.625ZM15.375 15.5871C15.3625 15.5999 15.3499 15.6125 15.3371 15.625H15.375V15.5871Z" fill="#E05149"/>
<path fill-rule="evenodd" clip-rule="evenodd" d="M6.375 3.3125V3.75H9H11.625V3.3125C11.625 2.65666 12.1567 2.125 12.8125 2.125C13.4683 2.125 14 2.65666 14 3.3125V3.82486C15.148 4.10525 16 5.14063 16 6.375V6.625V7.76654C16 8.11172 15.7202 8.39154 15.375 8.39154C15.0298 8.39154 14.75 8.11172 14.75 7.76654V7.25H3.25V8.26287V10.2068C3.25 10.552 2.97018 10.8318 2.625 10.8318C2.27982 10.8318 2 10.552 2 10.2068V8.26287V6.625V6.375C2 5.14063 2.852 4.10525 4 3.82486V3.3125C4 2.65666 4.53166 2.125 5.1875 2.125C5.84334 2.125 6.375 2.65666 6.375 3.3125ZM4.625 5C3.99561 5 3.46499 5.42287 3.30176 6H14.6982C14.535 5.42287 14.0044 5 13.375 5H9H4.625ZM15.375 8.83732C15.7202 8.83732 16 9.11714 16 9.46232V11.1581V11.87C16.0412 11.924 16.0807 11.9794 16.1184 12.0361C16.3096 12.3235 16.2315 12.7115 15.944 12.9026C15.6566 13.0937 15.2686 13.0156 15.0775 12.7282C14.7406 12.2214 14.1662 11.8895 13.5146 11.8895C12.4791 11.8895 11.6396 12.729 11.6396 13.7645C11.6396 14.8001 12.4791 15.6395 13.5146 15.6395C14.5502 15.6395 15.3896 14.8001 15.3896 13.7645C15.3896 13.4193 15.6695 13.1395 16.0146 13.1395C16.3598 13.1395 16.6396 13.4193 16.6396 13.7645C16.6396 15.4904 15.2405 16.8895 13.5146 16.8895C12.8024 16.8895 12.1457 16.6512 11.6202 16.25H4.36213C3.05756 16.25 2 15.1924 2 13.8879V12.1507C2 11.8056 2.27982 11.5257 2.625 11.5257C2.97018 11.5257 3.25 11.8056 3.25 12.1507V13.8879C3.25 14.5021 3.74792 15 4.36213 15H10.6434C10.4801 14.6211 10.3896 14.2034 10.3896 13.7645C10.3896 12.0386 11.7888 10.6395 13.5146 10.6395C13.9535 10.6395 14.3712 10.7301 14.75 10.8933V9.46232C14.75 9.11714 15.0298 8.83732 15.375 8.83732ZM13.9922 12.7423C13.9922 12.4662 13.7683 12.2423 13.4922 12.2423C13.216 12.2423 12.9922 12.4662 12.9922 12.7423V13.2423H12.7422H12.4922C12.216 13.2423 11.9922 13.4662 11.9922 13.7423C11.9922 14.0185 12.216 14.2423 12.4922 14.2423H12.7422H12.9922V14.7423C12.9922 15.0185 13.216 15.2423 13.4922 15.2423C13.7683 15.2423 13.9922 15.0185 13.9922 14.7423V14.2423H14.4922C14.7683 14.2423 14.9922 14.0185 14.9922 13.7423C14.9922 13.4662 14.7683 13.2423 14.4922 13.2423H13.9922V12.7423Z" fill="#252323"/>
</g>
<defs>
<clipPath id="clip0_609_5474">
<rect width="18" height="18" fill="white"/>
</clipPath>
</defs>
</svg>
