<svg width="28" height="28" viewBox="0 0 28 28" fill="none" xmlns="http://www.w3.org/2000/svg">
<g clip-path="url(#clip0_1218_14056)">
<circle cx="14.0001" cy="14" r="11.0833" fill="#E05149"/>
<path fill-rule="evenodd" clip-rule="evenodd" d="M14.0001 3.66669C8.29314 3.66669 3.66675 8.29308 3.66675 14C3.66675 16.2305 4.3726 18.2939 5.57321 19.982C5.81329 20.3195 5.73428 20.7878 5.39673 21.0279C5.05919 21.2679 4.59093 21.1889 4.35086 20.8514C2.9756 18.9178 2.16675 16.5522 2.16675 14C2.16675 7.46465 7.46471 2.16669 14.0001 2.16669C14.4143 2.16669 14.7501 2.50247 14.7501 2.91669C14.7501 3.3309 14.4143 3.66669 14.0001 3.66669ZM17.5256 3.46225C17.6834 3.07927 18.1217 2.8967 18.5047 3.05448C20.2501 3.7735 21.7848 4.8972 22.9927 6.3081C24.7633 8.37624 25.8334 11.0641 25.8334 14C25.8334 17.6201 24.2069 20.861 21.6476 23.0305C21.3316 23.2983 20.8583 23.2593 20.5905 22.9433C20.3227 22.6273 20.3617 22.1541 20.6777 21.8862C22.9152 19.9896 24.3334 17.1608 24.3334 14C24.3334 11.4352 23.3999 9.09026 21.8532 7.28361C20.7972 6.05013 19.4562 5.06877 17.9334 4.4414C17.5504 4.28362 17.3678 3.84524 17.5256 3.46225ZM6.26542 21.9734C6.53326 21.6574 7.00652 21.6184 7.32249 21.8862C9.12385 23.4132 11.4535 24.3334 14.0001 24.3334C15.2431 24.3334 16.4333 24.1142 17.5352 23.7131C17.9244 23.5714 18.3548 23.772 18.4965 24.1612C18.6382 24.5505 18.4375 24.9809 18.0483 25.1226C16.7844 25.5827 15.4207 25.8334 14.0001 25.8334C11.0852 25.8334 8.41473 24.7784 6.35258 23.0305C6.03661 22.7626 5.99759 22.2894 6.26542 21.9734ZM8.16931 14.0159C8.16931 13.6017 8.50509 13.2659 8.91931 13.2659H13.266V8.91923C13.266 8.50502 13.6018 8.16923 14.016 8.16923C14.4302 8.16923 14.766 8.50502 14.766 8.91923V13.2659H19.1127C19.5269 13.2659 19.8627 13.6017 19.8627 14.0159C19.8627 14.4301 19.5269 14.7659 19.1127 14.7659H14.766V19.1126C14.766 19.5268 14.4302 19.8626 14.016 19.8626C13.6018 19.8626 13.266 19.5268 13.266 19.1126V14.7659H8.91931C8.50509 14.7659 8.16931 14.4301 8.16931 14.0159Z" fill="#332A2A"/>
</g>
<defs>
<clipPath id="clip0_1218_14056">
<rect width="28" height="28" fill="white"/>
</clipPath>
</defs>
</svg>
