<svg width="18" height="18" viewBox="0 0 18 18" fill="none" xmlns="http://www.w3.org/2000/svg">
<g clip-path="url(#clip0_609_5475)">
<path d="M15.375 8.83691C15.72 8.83691 15.9998 9.11692 16 9.46191V11.8701C16.0412 11.9241 16.0805 11.9795 16.1182 12.0361C16.3091 12.3234 16.2314 12.7112 15.9443 12.9023C15.6569 13.0934 15.2683 13.0159 15.0771 12.7285C14.7402 12.2217 14.1662 11.8896 13.5146 11.8896C12.4791 11.8896 11.6396 12.7291 11.6396 13.7646C11.6397 14.8001 12.4792 15.6396 13.5146 15.6396C14.5501 15.6396 15.3896 14.8001 15.3896 13.7646C15.3896 13.4195 15.6695 13.1396 16.0146 13.1396C16.3598 13.1396 16.6396 13.4195 16.6396 13.7646C16.6396 15.4905 15.2405 16.8896 13.5146 16.8896C12.8043 16.8896 12.1518 16.6492 11.627 16.25H4.3623C3.05774 16.25 2 15.1923 2 13.8877V12.1504C2.00019 11.8054 2.27994 11.5254 2.625 11.5254C2.97006 11.5254 3.24981 11.8054 3.25 12.1504V13.8877C3.25 14.5019 3.74809 15 4.3623 15H10.6445C10.4812 14.621 10.3897 14.2036 10.3896 13.7646C10.3896 12.0388 11.7888 10.6396 13.5146 10.6396C13.9537 10.6396 14.3711 10.7311 14.75 10.8945V9.46191C14.7502 9.11692 15.03 8.83691 15.375 8.83691ZM13.4922 12.2422C13.7683 12.2422 13.9921 12.4661 13.9922 12.7422V13.2422H14.4922C14.7683 13.2422 14.9921 13.4661 14.9922 13.7422C14.9922 14.0183 14.7683 14.2422 14.4922 14.2422H13.9922V14.7422C13.9922 15.0183 13.7683 15.2422 13.4922 15.2422C13.216 15.2422 12.9922 15.0183 12.9922 14.7422V14.2422H12.4922C12.216 14.2422 11.9922 14.0183 11.9922 13.7422C11.9923 13.4661 12.2161 13.2422 12.4922 13.2422H12.9922V12.7422C12.9923 12.4661 13.2161 12.2422 13.4922 12.2422ZM12.8125 2.125C13.4683 2.125 14 2.65666 14 3.3125V3.82812C15.1476 4.10878 16 5.1409 16 6.375V7.7666C16 8.11175 15.7202 8.3916 15.375 8.3916C15.0298 8.3916 14.75 8.11175 14.75 7.7666V7.25H3.25V10.207C3.24988 10.5521 2.9701 10.832 2.625 10.832C2.2799 10.832 2.00012 10.5521 2 10.207V6.375C2 5.1409 2.85238 4.10878 4 3.82812V3.3125C4 2.65666 4.53166 2.125 5.1875 2.125C5.84334 2.125 6.375 2.65666 6.375 3.3125V3.75H11.625V3.3125C11.625 2.65666 12.1567 2.125 12.8125 2.125ZM4.625 5C3.9957 5 3.46605 5.423 3.30273 6H14.6973C14.5339 5.423 14.0043 5 13.375 5H4.625Z" fill="#332A2A"/>
</g>
<defs>
<clipPath id="clip0_609_5475">
<rect width="18" height="18" fill="white"/>
</clipPath>
</defs>
</svg>
