<svg width="44" height="44" viewBox="0 0 44 44" fill="none" xmlns="http://www.w3.org/2000/svg">
<g clip-path="url(#clip0_206_576)">
<path fill-rule="evenodd" clip-rule="evenodd" d="M21.9999 5.33336C12.7952 5.33336 5.33325 12.7953 5.33325 22C5.33325 25.597 6.47188 28.9259 8.40845 31.6487C8.64853 31.9862 8.56952 32.4545 8.23197 32.6945C7.89443 32.9346 7.42618 32.8556 7.1861 32.5181C5.07488 29.5497 3.83325 25.9187 3.83325 22C3.83325 11.9669 11.9667 3.83336 21.9999 3.83336C22.4141 3.83336 22.7499 4.16915 22.7499 4.58336C22.7499 4.99757 22.4141 5.33336 21.9999 5.33336ZM27.9362 5.60393C28.094 5.22094 28.5324 5.03837 28.9154 5.19615C31.5945 6.29986 33.9509 8.025 35.8056 10.1914C38.524 13.3667 40.1666 17.4925 40.1666 22C40.1666 27.5575 37.6702 32.5326 33.7403 35.8638C33.4243 36.1316 32.9511 36.0926 32.6832 35.7766C32.4154 35.4607 32.4544 34.9874 32.7704 34.7196C36.3784 31.6612 38.6666 27.0982 38.6666 22C38.6666 17.8635 37.1606 14.0807 34.6661 11.1669C32.9633 9.17793 30.8007 7.59513 28.344 6.58307C27.961 6.42529 27.7785 5.98691 27.9362 5.60393ZM10.1724 34.8067C10.4402 34.4908 10.9135 34.4517 11.2295 34.7196C14.1347 37.1822 17.893 38.6667 21.9999 38.6667C24.004 38.6667 25.9239 38.3133 27.7017 37.6661C28.0909 37.5244 28.5213 37.7251 28.663 38.1143C28.8047 38.5035 28.604 38.9339 28.2148 39.0756C26.2749 39.7818 24.1815 40.1667 21.9999 40.1667C17.5246 40.1667 13.4255 38.5475 10.2595 35.8638C9.94357 35.596 9.90454 35.1227 10.1724 34.8067ZM13.2658 22.025C13.2658 21.6108 13.6016 21.275 14.0158 21.275H21.2749V14.0159C21.2749 13.6017 21.6107 13.2659 22.0249 13.2659C22.4392 13.2659 22.7749 13.6017 22.7749 14.0159V21.275H30.034C30.4483 21.275 30.784 21.6108 30.784 22.025C30.784 22.4392 30.4483 22.775 30.034 22.775H22.7749V30.0341C22.7749 30.4483 22.4392 30.7841 22.0249 30.7841C21.6107 30.7841 21.2749 30.4483 21.2749 30.0341V22.775H14.0158C13.6016 22.775 13.2658 22.4392 13.2658 22.025Z" fill="#252323"/>
</g>
<defs>
<clipPath id="clip0_206_576">
<rect width="44" height="44" fill="white"/>
</clipPath>
</defs>
</svg>
