<svg width="28" height="28" viewBox="0 0 28 28" fill="none" xmlns="http://www.w3.org/2000/svg">
<g clip-path="url(#clip0_609_5399)">
<path fill-rule="evenodd" clip-rule="evenodd" d="M23.9166 9.49634H4.08325V23.4963H18.1422C17.3859 22.7552 16.9166 21.7222 16.9166 20.5797C16.9166 18.3245 18.7448 16.4963 20.9999 16.4963C22.1425 16.4963 23.1754 16.9656 23.9166 17.7219V9.49634ZM23.9166 23.4374C23.8971 23.4573 23.8775 23.4769 23.8577 23.4963H23.9166V23.4374Z" fill="#E05149"/>
<path fill-rule="evenodd" clip-rule="evenodd" d="M7.78935 4.49878C7.72031 4.49878 7.66435 4.55474 7.66435 4.62378V5.24652H7.91435V4.62378C7.91435 4.55474 7.85838 4.49878 7.78935 4.49878ZM6.16435 4.62378V5.24652H6.08325C4.56447 5.24652 3.33325 6.47774 3.33325 7.99652V9.49651V12.0443V15.0682C3.33325 15.4824 3.66904 15.8182 4.08325 15.8182C4.49747 15.8182 4.83325 15.4824 4.83325 15.0682V12.0443V10.2465H23.1666V11.2723C23.1666 11.6865 23.5024 12.0223 23.9166 12.0223C24.3308 12.0223 24.6666 11.6865 24.6666 11.2723V9.49651V7.99652C24.6666 6.47774 23.4354 5.24652 21.9166 5.24652H21.8357V4.62378C21.8357 3.72632 21.1081 2.99878 20.2107 2.99878C19.3132 2.99878 18.5857 3.72632 18.5857 4.62378V5.24652H13.9999H9.41435V4.62378C9.41435 3.72632 8.68681 2.99878 7.78935 2.99878C6.89188 2.99878 6.16435 3.72632 6.16435 4.62378ZM20.0857 5.24652H20.3357V4.62378C20.3357 4.55474 20.2797 4.49878 20.2107 4.49878C20.1416 4.49878 20.0857 4.55474 20.0857 4.62378V5.24652ZM6.08325 6.74652C5.3929 6.74652 4.83325 7.30617 4.83325 7.99652V8.74651H23.1666V7.99652C23.1666 7.30617 22.6069 6.74652 21.9166 6.74652H13.9999H6.08325ZM23.9166 13.1601C24.3308 13.1601 24.6666 13.4959 24.6666 13.9101V16.548V16.7495C24.9583 17.0254 25.2185 17.334 25.4414 17.6693C25.6919 18.046 25.5896 18.5544 25.2129 18.8049C24.8362 19.0554 24.3277 18.953 24.0773 18.5763C23.4193 17.5867 22.2966 16.9373 21.0225 16.9373C18.9984 16.9373 17.3575 18.5782 17.3575 20.6024C17.3575 22.6266 18.9984 24.2675 21.0225 24.2675C23.0467 24.2675 24.6876 22.6266 24.6876 20.6024C24.6876 20.15 25.0544 19.7833 25.5067 19.7833C25.9591 19.7833 26.3258 20.15 26.3258 20.6024C26.3258 23.5313 23.9515 25.9057 21.0225 25.9057C19.505 25.9057 18.1363 25.2682 17.1696 24.2465H6.08325C4.56447 24.2465 3.33325 23.0153 3.33325 21.4965V20.7943V18.0921C3.33325 17.6779 3.66904 17.3421 4.08325 17.3421C4.49747 17.3421 4.83325 17.6779 4.83325 18.0921V20.7943V21.4965C4.83325 22.1869 5.3929 22.7465 6.08325 22.7465H16.1706C15.8804 22.0909 15.7193 21.3655 15.7193 20.6024C15.7193 17.6735 18.0936 15.2991 21.0225 15.2991C21.7857 15.2991 22.5111 15.4605 23.1666 15.7506V13.9101C23.1666 13.4959 23.5024 13.1601 23.9166 13.1601ZM21.7379 18.5769C21.7379 18.1627 21.4021 17.8269 20.9879 17.8269C20.5737 17.8269 20.2379 18.1627 20.2379 18.5769V19.8177H19.9925H19.4949H18.9972C18.583 19.8177 18.2472 20.1535 18.2472 20.5677C18.2472 20.9819 18.583 21.3177 18.9972 21.3177H19.4949H19.9925H20.2379V22.5584C20.2379 22.9726 20.5737 23.3084 20.9879 23.3084C21.4021 23.3084 21.7379 22.9726 21.7379 22.5584V21.3177H22.9787C23.3929 21.3177 23.7287 20.9819 23.7287 20.5677C23.7287 20.1535 23.3929 19.8177 22.9787 19.8177H21.7379V18.5769Z" fill="#252323"/>
</g>
<defs>
<clipPath id="clip0_609_5399">
<rect width="28" height="28" fill="white"/>
</clipPath>
</defs>
</svg>
