<svg width="23" height="23" viewBox="0 0 23 23" fill="none" xmlns="http://www.w3.org/2000/svg">
<g clip-path="url(#clip0_609_5445)">
<path d="M19.5466 10.8298C19.9052 10.83 20.1956 11.1208 20.196 11.4792V14.0339C20.3401 14.1922 20.4737 14.3601 20.5925 14.5388C20.7912 14.8376 20.7094 15.2413 20.4109 15.4402C20.112 15.6388 19.7083 15.5574 19.5095 15.2585C18.984 14.4685 18.0873 13.9502 17.0701 13.95C15.4532 13.95 14.1426 15.2609 14.1423 16.8777C14.1425 18.4945 15.4532 19.8054 17.0701 19.8054C18.6866 19.805 19.9976 18.4942 19.9978 16.8777C19.998 16.519 20.2885 16.2274 20.6472 16.2273C21.0059 16.2275 21.2974 16.519 21.2976 16.8777C21.2974 19.2122 19.4046 21.1048 17.0701 21.1052C15.974 21.1052 14.9747 20.6887 14.2234 20.0046H5.25464C3.79108 20.0046 2.60425 18.8178 2.60425 17.3542V14.9148C2.60451 14.556 2.89582 14.2654 3.25464 14.2654C3.61346 14.2654 3.90477 14.556 3.90503 14.9148V17.3542C3.90503 18.0998 4.50905 18.7039 5.25464 18.7039H13.2556C12.9904 18.1511 12.8416 17.5317 12.8416 16.8777C12.8418 14.5429 14.7353 12.6492 17.0701 12.6492C17.7243 12.6493 18.3435 12.7989 18.8962 13.0642V11.4792C18.8967 11.1206 19.1879 10.8298 19.5466 10.8298ZM17.1404 14.7654C17.4994 14.7654 17.7908 15.0568 17.7908 15.4158V16.2996H18.6736C19.0325 16.2996 19.3239 16.5901 19.324 16.949C19.3239 17.3079 19.0325 17.5994 18.6736 17.5994H17.7908V18.4822C17.7907 18.8411 17.4993 19.1326 17.1404 19.1326C16.7815 19.1325 16.4911 18.841 16.491 18.4822V17.5994H15.6072C15.2483 17.5994 14.9569 17.3079 14.9568 16.949C14.9569 16.59 15.2482 16.2996 15.6072 16.2996H16.491V15.4158C16.491 15.0568 16.7815 14.7655 17.1404 14.7654ZM16.1443 2.38062C16.9002 2.38065 17.5134 2.99384 17.5134 3.74976V4.32886H17.5466C19.0099 4.32903 20.1958 5.51597 20.196 6.97925V9.31323C20.1959 9.67195 19.9054 9.96247 19.5466 9.96265C19.1878 9.96265 18.8964 9.67206 18.8962 9.31323V8.50464H3.90503V12.4314C3.90481 12.7902 3.61349 13.0808 3.25464 13.0808C2.89579 13.0808 2.60446 12.7902 2.60425 12.4314V6.97925C2.60445 5.51586 3.79121 4.32886 5.25464 4.32886H5.28784V3.74976C5.28784 2.99382 5.90104 2.38062 6.65698 2.38062C7.4128 2.38076 8.02612 2.9939 8.02612 3.74976V4.32886H14.7751V3.74976C14.7751 2.99382 15.3883 2.38062 16.1443 2.38062ZM5.25464 5.62964C4.50918 5.62964 3.90523 6.23383 3.90503 6.97925V7.20386H18.8962V6.97925C18.896 6.23394 18.2919 5.62982 17.5466 5.62964H5.25464ZM16.1443 3.6814C16.1063 3.6814 16.0759 3.71179 16.0759 3.74976V4.32886H16.2126V3.74976C16.2126 3.71181 16.1822 3.68143 16.1443 3.6814ZM6.65698 3.6814C6.61901 3.6814 6.58862 3.71179 6.58862 3.74976V4.32886H6.72534V3.74976C6.72534 3.71187 6.69483 3.68154 6.65698 3.6814Z" fill="#332A2A"/>
</g>
<defs>
<clipPath id="clip0_609_5445">
<rect width="23" height="23" fill="white"/>
</clipPath>
</defs>
</svg>
