<svg width="44" height="44" viewBox="0 0 44 44" fill="none" xmlns="http://www.w3.org/2000/svg">
<g clip-path="url(#clip0_601_3701)">
<path fill-rule="evenodd" clip-rule="evenodd" d="M33.1372 6.68231C30.1176 5.70914 26.3346 6.36163 22.2753 9.11592C17.557 5.91483 13.2071 5.55535 10.022 7.27562C6.75222 9.04165 4.97896 12.8587 5.29271 17.3039C5.32187 17.7171 5.68047 18.0284 6.09366 17.9992C6.50684 17.9701 6.81815 17.6115 6.78899 17.1983C6.50568 13.1844 8.10865 10.0138 10.7348 8.59542C13.3481 7.184 17.2437 7.36644 21.8403 10.6403C22.1007 10.8257 22.45 10.8257 22.7104 10.6403C26.6847 7.80966 30.1397 7.29223 32.677 8.11C35.2054 8.92489 37.0097 11.1241 37.5933 14.1418C38.1151 16.84 37.6443 20.201 35.7983 23.6869C34.5321 22.7983 32.9893 22.2762 31.3244 22.2762C27.0183 22.2762 23.5276 25.7669 23.5276 30.0729C23.5276 31.7202 24.0385 33.2482 24.9104 34.5071C24.0786 35.0135 23.2007 35.5085 22.2753 35.9899C16.3785 32.9224 12.4035 29.2884 9.95591 25.6821C9.7233 25.3394 9.25689 25.2501 8.91416 25.4828C8.57143 25.7154 8.48216 26.1818 8.71477 26.5245C11.3735 30.4419 15.6629 34.3025 21.9345 37.5016C22.1486 37.6108 22.4021 37.6108 22.6161 37.5016C23.7742 36.9109 24.865 36.2972 25.8907 35.6645C27.295 37.0293 29.2115 37.8697 31.3244 37.8697C35.6304 37.8697 39.1211 34.379 39.1211 30.0729C39.1211 29.6587 38.7853 29.3229 38.3711 29.3229C37.9569 29.3229 37.6211 29.6587 37.6211 30.0729C37.6211 33.5505 34.802 36.3697 31.3244 36.3697C27.8468 36.3697 25.0276 33.5505 25.0276 30.0729C25.0276 26.5953 27.8468 23.7762 31.3244 23.7762C33.5138 23.7762 35.4428 24.893 36.5721 26.5916C36.8014 26.9365 37.267 27.0302 37.6119 26.8009C37.9568 26.5715 38.0505 26.106 37.8212 25.7611C37.5669 25.3786 37.2797 25.0199 36.9635 24.6888C39.0844 20.841 39.6807 17.0353 39.0661 13.857C38.3972 10.3984 36.2733 7.69306 33.1372 6.68231ZM31.3243 25.7355C31.7385 25.7355 32.0743 26.0713 32.0743 26.4855V29.3229H34.9117C35.3259 29.3229 35.6617 29.6587 35.6617 30.0729C35.6617 30.4871 35.3259 30.8229 34.9117 30.8229H32.0743V33.6604C32.0743 34.0746 31.7385 34.4104 31.3243 34.4104C30.9101 34.4104 30.5743 34.0746 30.5743 33.6604V30.8229H29.5306H28.6337H27.7369C27.3226 30.8229 26.9869 30.4871 26.9869 30.0729C26.9869 29.6587 27.3226 29.3229 27.7369 29.3229H28.6337H29.5306H30.5743V26.4855C30.5743 26.0713 30.9101 25.7355 31.3243 25.7355Z" fill="#252323"/>
</g>
<defs>
<clipPath id="clip0_601_3701">
<rect width="44" height="44" fill="white"/>
</clipPath>
</defs>
</svg>
