<svg width="18" height="18" viewBox="0 0 18 18" fill="none" xmlns="http://www.w3.org/2000/svg">
<g clip-path="url(#clip0_601_3704)">
<path fill-rule="evenodd" clip-rule="evenodd" d="M13.6537 2.43083C12.3448 2.00899 10.7632 2.28194 9.1126 3.34771C7.18389 2.10295 5.34632 1.94158 3.94871 2.69643C2.47454 3.49263 1.71299 5.19126 1.84781 7.10127C1.87211 7.44559 2.17094 7.70501 2.51526 7.68071C2.85958 7.65641 3.11901 7.35758 3.0947 7.01326C2.98526 5.46272 3.6049 4.30279 4.54273 3.79626C5.46978 3.29556 6.93096 3.31636 8.75006 4.61199C8.96707 4.76656 9.25821 4.76656 9.47522 4.61199C11.0481 3.49171 12.3574 3.32635 13.2703 3.62057C14.1757 3.91238 14.846 4.70469 15.0667 5.84571C15.2636 6.86415 15.0884 8.16746 14.3654 9.53689C13.8796 9.22562 13.3018 9.0448 12.6816 9.0448C10.9557 9.0448 9.55661 10.4439 9.55661 12.1698C9.55661 12.7828 9.73312 13.3546 10.0381 13.8371C9.74445 14.0161 9.43615 14.1919 9.11266 14.3637C6.82068 13.1459 5.28315 11.723 4.33614 10.3276C4.1423 10.042 3.75363 9.96765 3.46802 10.1615C3.18241 10.3553 3.10802 10.744 3.30186 11.0296C4.42439 12.6835 6.22336 14.2961 8.82864 15.625C9.00704 15.716 9.21823 15.716 9.39663 15.625C9.94105 15.3473 10.4507 15.0568 10.9265 14.7557C11.4268 15.096 12.031 15.2948 12.6816 15.2948C14.4075 15.2948 15.8066 13.8957 15.8066 12.1698C15.8066 11.8246 15.5268 11.5448 15.1816 11.5448C14.8364 11.5448 14.5566 11.8246 14.5566 12.1698C14.5566 13.2053 13.7171 14.0448 12.6816 14.0448C11.6461 14.0448 10.8066 13.2053 10.8066 12.1698C10.8066 11.1343 11.6461 10.2948 12.6816 10.2948C13.3332 10.2948 13.9075 10.6266 14.2445 11.1334C14.4356 11.4209 14.8235 11.499 15.111 11.3078C15.3961 11.1183 15.4753 10.735 15.2899 10.4482C16.2783 8.75371 16.5728 7.05041 16.294 5.60837C16.0022 4.09993 15.0656 2.88586 13.6537 2.43083ZM12.6855 10.7371C12.9616 10.7371 13.1855 10.961 13.1855 11.2371V11.6855H13.6339C13.91 11.6855 14.1339 11.9094 14.1339 12.1855C14.1339 12.4617 13.91 12.6855 13.6339 12.6855H13.1855V13.134C13.1855 13.4101 12.9616 13.634 12.6855 13.634C12.4093 13.634 12.1855 13.4101 12.1855 13.134V12.6855H11.9741H11.737C11.4609 12.6855 11.237 12.4617 11.237 12.1855C11.237 11.9094 11.4609 11.6855 11.737 11.6855H11.9741H12.1855V11.2371C12.1855 10.961 12.4093 10.7371 12.6855 10.7371Z" fill="#252323"/>
</g>
<defs>
<clipPath id="clip0_601_3704">
<rect width="18" height="18" fill="white"/>
</clipPath>
</defs>
</svg>
