<svg width="23" height="23" viewBox="0 0 23 23" fill="none" xmlns="http://www.w3.org/2000/svg">
<g clip-path="url(#clip0_601_3667)">
<path fill-rule="evenodd" clip-rule="evenodd" d="M11.6439 19.253C-2.16428 12.21 3.07329 -0.861386 11.6439 5.24253C17.9819 0.728652 22.4971 6.70115 18.8353 12.9673C18.1877 12.3882 17.3291 12.0364 16.374 12.0364C14.3397 12.0364 12.6905 13.6856 12.6905 15.7199C12.6905 16.6463 13.0325 17.4927 13.597 18.14C12.9934 18.5243 12.3431 18.8964 11.6439 19.253Z" fill="#E05149"/>
<path fill-rule="evenodd" clip-rule="evenodd" d="M17.4084 3.22371C15.7638 2.69367 13.756 3.0407 11.6439 4.42506C9.17983 2.8106 6.8541 2.60911 5.10427 3.5542C3.27365 4.54292 2.31459 6.66012 2.48434 9.06513C2.51059 9.437 2.83333 9.71718 3.20519 9.69093C3.57706 9.66469 3.85724 9.34195 3.83099 8.97008C3.68864 6.95329 4.49443 5.41789 5.74582 4.74202C6.98554 4.07244 8.90407 4.11993 11.2523 5.79242C11.4867 5.95935 11.8011 5.95935 12.0355 5.79242C14.0659 4.3463 15.7792 4.11701 16.9943 4.50862C18.2014 4.89764 19.0842 5.95174 19.3732 7.44605C19.618 8.71213 19.423 10.3011 18.6027 11.9737C17.9508 11.585 17.1885 11.3614 16.374 11.3614C13.9669 11.3614 12.0155 13.3128 12.0155 15.7199C12.0155 16.5329 12.2381 17.2939 12.6256 17.9453C12.311 18.1312 11.9839 18.314 11.6439 18.4934C8.66836 16.9228 6.66939 15.0797 5.4383 13.2659C5.22895 12.9574 4.80918 12.8771 4.50073 13.0864C4.19227 13.2958 4.11193 13.7155 4.32128 14.024C5.74208 16.1174 8.02358 18.165 11.3372 19.8552C11.5298 19.9535 11.7579 19.9535 11.9506 19.8552C12.4939 19.5781 13.0097 19.291 13.4986 18.9955C14.266 19.6697 15.2723 20.0785 16.374 20.0785C18.7812 20.0785 20.7325 18.1271 20.7325 15.7199C20.7325 15.3471 20.4303 15.0449 20.0575 15.0449C19.6847 15.0449 19.3825 15.3471 19.3825 15.7199C19.3825 17.3815 18.0356 18.7285 16.374 18.7285C14.7124 18.7285 13.3655 17.3815 13.3655 15.7199C13.3655 14.0584 14.7124 12.7114 16.374 12.7114C17.4198 12.7114 18.3414 13.2444 18.8815 14.0568C19.0879 14.3672 19.5069 14.4516 19.8173 14.2452C20.1278 14.0388 20.2121 13.6198 20.0057 13.3093C19.9021 13.1535 19.7887 13.0047 19.6663 12.8637C20.7253 10.8629 21.0251 8.87796 20.6986 7.18972C20.3329 5.2986 19.1624 3.789 17.4084 3.22371ZM16.374 13.4741C16.7192 13.4741 16.999 13.7539 16.999 14.0991V15.0949H17.9949C18.34 15.0949 18.6199 15.3747 18.6199 15.7199C18.6199 16.0651 18.34 16.3449 17.9949 16.3449H16.999V17.3408C16.999 17.686 16.7192 17.9658 16.374 17.9658C16.0288 17.9658 15.749 17.686 15.749 17.3408V16.3449H15.5636H15.1583H14.7531C14.408 16.3449 14.1281 16.0651 14.1281 15.7199C14.1281 15.3747 14.408 15.0949 14.7531 15.0949H15.1583H15.5636H15.749V14.0991C15.749 13.7539 16.0288 13.4741 16.374 13.4741Z" fill="#252323"/>
</g>
<defs>
<clipPath id="clip0_601_3667">
<rect width="23" height="23" fill="white"/>
</clipPath>
</defs>
</svg>
