<svg width="28" height="28" viewBox="0 0 28 28" fill="none" xmlns="http://www.w3.org/2000/svg">
<g clip-path="url(#clip0_601_3650)">
<path fill-rule="evenodd" clip-rule="evenodd" d="M14.1752 23.4384C-2.63474 14.8644 3.74143 -1.04865 14.1752 6.38221C21.891 0.887051 27.3879 8.15792 22.9299 15.7863C22.1416 15.0813 21.0963 14.653 19.9337 14.653C17.457 14.653 15.4494 16.6607 15.4494 19.1373C15.4494 20.265 15.8656 21.2955 16.5529 22.0835C15.8181 22.5513 15.0264 23.0043 14.1752 23.4384Z" fill="#E05149"/>
<path fill-rule="evenodd" clip-rule="evenodd" d="M21.1709 3.9928C19.1852 3.35283 16.7486 3.77408 14.1752 5.4729C11.1754 3.49312 8.3571 3.25087 6.24804 4.38997C4.05024 5.57701 2.89084 8.12356 3.09604 11.0308C3.1252 11.444 3.48379 11.7553 3.89698 11.7261C4.31017 11.6969 4.62148 11.3383 4.59231 10.9252C4.41756 8.44931 5.40667 6.54921 6.96087 5.70978C8.50212 4.87734 10.8676 4.9473 13.7401 6.99321C14.0005 7.17869 14.3499 7.17869 14.6103 6.99321C17.094 5.22423 19.2034 4.93465 20.7108 5.42049C22.2093 5.90344 23.2994 7.2109 23.6553 9.05114C23.9603 10.6283 23.7106 12.6045 22.6767 14.6786C21.8792 14.187 20.9397 13.903 19.9337 13.903C17.0429 13.903 14.6994 16.2465 14.6994 19.1373C14.6994 20.1393 14.981 21.0756 15.4693 21.8712C15.0559 22.117 14.6247 22.3584 14.1752 22.5949C10.5257 20.6744 8.07218 18.4162 6.56124 16.19C6.32863 15.8473 5.86222 15.758 5.51949 15.9906C5.17676 16.2233 5.08749 16.6897 5.3201 17.0324C7.04191 19.5693 9.80942 22.0545 13.8344 24.1076C14.0485 24.2168 14.3019 24.2168 14.516 24.1076C15.1927 23.7624 15.8342 23.4047 16.4414 23.0362C17.3677 23.8666 18.5918 24.3716 19.9337 24.3716C22.8246 24.3716 25.168 22.0281 25.168 19.1373C25.168 18.7231 24.8322 18.3873 24.418 18.3873C24.0038 18.3873 23.668 18.7231 23.668 19.1373C23.668 21.1997 21.9961 22.8716 19.9337 22.8716C17.8713 22.8716 16.1994 21.1997 16.1994 19.1373C16.1994 17.0749 17.8713 15.403 19.9337 15.403C21.2319 15.403 22.3758 16.0648 23.0461 17.0729C23.2754 17.4178 23.741 17.5115 24.0859 17.2822C24.4308 17.0529 24.5245 16.5873 24.2952 16.2424C24.1616 16.0415 24.0145 15.8503 23.855 15.6701C25.1562 13.232 25.5241 10.8148 25.128 8.76634C24.6868 6.48519 23.2772 4.67162 21.1709 3.9928ZM19.9337 16.3966C20.348 16.3966 20.6837 16.7323 20.6837 17.1466V18.3873H21.9245C22.3387 18.3873 22.6745 18.7231 22.6745 19.1373C22.6745 19.5515 22.3387 19.8873 21.9245 19.8873H20.6837V21.1281C20.6837 21.5423 20.348 21.8781 19.9337 21.8781C19.5195 21.8781 19.1837 21.5423 19.1837 21.1281V19.8873H18.9384H18.4407H17.943C17.5288 19.8873 17.193 19.5515 17.193 19.1373C17.193 18.7231 17.5288 18.3873 17.943 18.3873H18.4407H18.9384H19.1837V17.1466C19.1837 16.7323 19.5195 16.3966 19.9337 16.3966Z" fill="#252323"/>
</g>
<defs>
<clipPath id="clip0_601_3650">
<rect width="28" height="28" fill="white"/>
</clipPath>
</defs>
</svg>
