<svg width="28" height="28" viewBox="0 0 28 28" fill="none" xmlns="http://www.w3.org/2000/svg">
<g clip-path="url(#clip0_601_3702)">
<path fill-rule="evenodd" clip-rule="evenodd" d="M14.1752 5.47368C11.1752 3.4936 8.35761 3.25058 6.24843 4.3897C4.05063 5.57674 2.89089 8.12311 3.09609 11.0303C3.12531 11.4434 3.48381 11.7547 3.89687 11.7256C4.30997 11.6965 4.6212 11.3379 4.59218 10.9249C4.41743 8.449 5.40712 6.54846 6.96132 5.70903C8.45438 4.90283 10.7206 4.9436 13.4721 6.80669L13.7406 6.99224L13.8412 7.05376C14.0861 7.17563 14.3828 7.15459 14.6107 6.99224C17.0943 5.22351 19.204 4.93416 20.7113 5.41997C22.2096 5.90303 23.2998 7.21076 23.6557 9.05083C23.9606 10.6281 23.7104 12.6038 22.6759 14.6772C21.8787 14.1858 20.9394 13.9018 19.9337 13.9018C17.0429 13.9018 14.6993 16.2453 14.6993 19.1362C14.6993 20.1371 14.9803 21.0724 15.4677 21.8676C15.0545 22.1132 14.6235 22.3545 14.1742 22.5909C10.5259 20.6706 8.07155 18.4153 6.56093 16.1895C6.32832 15.8469 5.86259 15.7578 5.51992 15.9903C5.17718 16.2229 5.08711 16.6895 5.31972 17.0323C6.93386 19.4105 9.46755 21.7429 13.0941 23.7168L13.8344 24.1075L13.9164 24.1426C14.0834 24.2041 14.2669 24.2041 14.434 24.1426L14.516 24.1075C15.193 23.7622 15.8347 23.4043 16.442 23.0357C17.3683 23.8657 18.5921 24.3705 19.9337 24.3705C22.8245 24.3705 25.168 22.0269 25.1681 19.1362C25.1681 18.722 24.8322 18.3862 24.4181 18.3862C24.0039 18.3862 23.6681 18.7219 23.6681 19.1362C23.668 21.1985 21.996 22.8705 19.9337 22.8705C17.8713 22.8705 16.1994 21.1985 16.1993 19.1362C16.1993 17.0738 17.8713 15.4018 19.9337 15.4018C21.2318 15.4018 22.3757 16.0636 23.046 17.0717C23.2754 17.4166 23.7411 17.51 24.0861 17.2807C24.4306 17.0513 24.5241 16.5864 24.295 16.2416C24.1615 16.0409 24.0145 15.8498 23.8552 15.6697C25.1564 13.2315 25.5245 10.8141 25.1283 8.76568C24.6872 6.48463 23.2774 4.67111 21.1713 3.99224C19.1854 3.35221 16.7488 3.77449 14.1752 5.47368ZM14.6107 6.99224L14.1752 6.38189V6.38091L14.6107 6.99224ZM19.1843 21.1274V19.8872H17.9431C17.529 19.8872 17.1933 19.5512 17.1931 19.1372C17.1931 18.723 17.5289 18.3872 17.9431 18.3872H19.1843V17.146C19.1843 16.7318 19.5201 16.396 19.9343 16.396C20.3483 16.3962 20.6843 16.7319 20.6843 17.146V18.3872H21.9245C22.3387 18.3872 22.6745 18.723 22.6745 19.1372C22.6743 19.5512 22.3386 19.8872 21.9245 19.8872H20.6843V21.1274C20.6843 21.5415 20.3483 21.8772 19.9343 21.8774C19.5201 21.8774 19.1843 21.5416 19.1843 21.1274Z" fill="#332A2A"/>
</g>
<defs>
<clipPath id="clip0_601_3702">
<rect width="28" height="28" fill="white"/>
</clipPath>
</defs>
</svg>
