<svg width="18" height="18" viewBox="0 0 18 18" fill="none" xmlns="http://www.w3.org/2000/svg">
<g clip-path="url(#clip0_601_3704)">
<path fill-rule="evenodd" clip-rule="evenodd" d="M9.23736 3.47287C7.30873 2.22821 5.47086 2.06672 4.0733 2.8215C2.59913 3.6177 1.8379 5.31677 1.97271 7.22678C1.99701 7.571 2.29549 7.83003 2.6397 7.80588C2.98397 7.78158 3.244 7.48315 3.21978 7.13889C3.11036 5.58859 3.72946 4.42874 4.66705 3.92209C5.59409 3.42139 7.05595 3.44189 8.87505 4.73752C9.09198 4.8919 9.38273 4.8919 9.59966 4.73752C11.1724 3.61736 12.4817 3.45222 13.3946 3.74631C14.3 4.0381 14.9707 4.83005 15.1915 5.97092C15.3884 6.98952 15.2129 8.29263 14.4892 9.66181C14.0037 9.35082 13.4262 9.17015 12.8063 9.17015C11.0804 9.17015 9.68133 10.5693 9.68133 12.2952C9.68133 12.9072 9.85729 13.4782 10.1614 13.9602C9.86788 14.1392 9.55971 14.3148 9.23638 14.4865C6.94554 13.2691 5.40775 11.8482 4.46099 10.4533C4.26715 10.1677 3.87844 10.0935 3.59283 10.2873C3.30729 10.4812 3.23299 10.8699 3.42681 11.1555C4.54932 12.8092 6.34823 14.4214 8.95318 15.7502C9.13157 15.8412 9.34314 15.8412 9.52154 15.7502C10.0659 15.4725 10.5754 15.182 11.0511 14.8811C11.5515 15.2213 12.1557 15.4202 12.8063 15.4202C14.5322 15.4202 15.9313 14.021 15.9313 12.2952C15.9313 11.95 15.6515 11.6702 15.3063 11.6702C14.9611 11.6702 14.6813 11.95 14.6813 12.2952C14.6813 13.3307 13.8419 14.1702 12.8063 14.1702C11.7708 14.1702 10.9313 13.3307 10.9313 12.2952C10.9313 11.2596 11.7708 10.4202 12.8063 10.4202C13.4579 10.4202 14.0319 10.7522 14.3688 11.259C14.5599 11.5465 14.9486 11.624 15.236 11.4328C15.5207 11.2432 15.5996 10.8604 15.4146 10.5739C16.4032 8.87921 16.6979 7.17575 16.419 5.73361C16.1272 4.22526 15.1902 3.01089 13.7784 2.55588C12.4696 2.13414 10.8879 2.40726 9.23736 3.47287ZM9.59966 4.73752L9.23736 4.22775L8.87505 4.73752L9.23736 4.22873L9.59966 4.73752ZM12.31 13.2589V12.8107H11.8617C11.5856 12.8107 11.3617 12.5868 11.3617 12.3107C11.3618 12.0346 11.5857 11.8107 11.8617 11.8107H12.31V11.3625C12.31 11.0864 12.5339 10.8626 12.81 10.8625C13.0861 10.8625 13.31 11.0863 13.31 11.3625V11.8107H13.7582C14.0343 11.8107 14.2581 12.0346 14.2582 12.3107C14.2582 12.5868 14.0344 12.8107 13.7582 12.8107H13.31V13.2589C13.31 13.5351 13.0861 13.7589 12.81 13.7589C12.5339 13.7588 12.31 13.535 12.31 13.2589Z" fill="#332A2A"/>
</g>
<defs>
<clipPath id="clip0_601_3704">
<rect width="18" height="18" fill="white"/>
</clipPath>
</defs>
</svg>
