<svg width="44" height="44" viewBox="0 0 44 44" fill="none" xmlns="http://www.w3.org/2000/svg">
<g clip-path="url(#clip0_189_265)">
<path fill-rule="evenodd" clip-rule="evenodd" d="M22.2753 36.8319C-4.14027 23.3583 5.87942 -1.64787 22.2753 10.0292C34.4002 1.39394 43.0381 12.8196 36.0328 24.8071C34.794 23.6992 33.1514 23.0262 31.3244 23.0262C27.4325 23.0262 24.2776 26.1811 24.2776 30.0729C24.2776 31.845 24.9317 33.4644 26.0117 34.7026C24.8571 35.4378 23.6129 36.1496 22.2753 36.8319Z" fill="#E05149"/>
<path fill-rule="evenodd" clip-rule="evenodd" d="M33.1364 6.68296C30.117 5.70991 26.3342 6.36153 22.2751 9.11558C17.5569 5.9146 13.2062 5.55549 10.0212 7.27573C6.75163 9.04184 4.97895 12.859 5.29269 17.3041C5.32186 17.7172 5.68029 18.0285 6.09347 17.9994C6.50654 17.9701 6.81788 17.6117 6.78879 17.1986C6.5055 13.185 8.1082 10.0146 10.7341 8.59605C13.3473 7.18467 17.2432 7.36649 21.8396 10.64C22.1 10.8255 22.4493 10.8254 22.7097 10.64C26.6838 7.80952 30.1391 7.2921 32.6765 8.10972C35.2049 8.92461 37.0099 11.1242 37.5935 14.1419C38.1153 16.8404 37.644 20.2013 35.7972 23.687C34.5311 22.7985 32.9883 22.2764 31.3236 22.2764C27.0176 22.2764 23.5268 25.7672 23.5268 30.0732C23.5268 31.7197 24.0371 33.2469 24.9083 34.5054C24.0767 35.0117 23.1992 35.5065 22.2741 35.9876C16.3782 32.9204 12.4031 29.2879 9.95578 25.682C9.72314 25.3394 9.25646 25.2502 8.91379 25.4828C8.57105 25.7154 8.48195 26.182 8.71457 26.5248C11.2902 30.3197 15.3964 34.061 21.3523 37.1996L21.9343 37.5023L22.0163 37.5375C22.1834 37.5989 22.3669 37.5989 22.5339 37.5375L22.6159 37.5023C23.7739 36.9116 24.8647 36.2979 25.8904 35.6652C27.2946 37.0298 29.211 37.8701 31.3236 37.8701C35.6296 37.8701 39.1204 34.3792 39.1205 30.0732C39.1205 29.6591 38.7846 29.3234 38.3705 29.3232C37.9563 29.3232 37.6205 29.659 37.6205 30.0732C37.6204 33.5508 34.8011 36.3701 31.3236 36.3701C27.8461 36.3701 25.0268 33.5508 25.0268 30.0732C25.0268 26.5956 27.846 23.7764 31.3236 23.7764C33.5131 23.7764 35.4424 24.8933 36.5717 26.5918C36.8011 26.9365 37.2659 27.03 37.6107 26.8008C37.9555 26.5716 38.0496 26.1066 37.8207 25.7617C37.5665 25.3793 37.2793 25.0206 36.9631 24.6896C39.0844 20.8413 39.6808 17.0352 39.0661 13.8568C38.3972 10.3983 36.2725 7.69368 33.1364 6.68296ZM30.5744 33.6605V30.8236H27.7365C27.3225 30.8236 26.9868 30.4876 26.9865 30.0736C26.9865 29.6593 27.3223 29.3236 27.7365 29.3236H30.5744V26.4857C30.5744 26.0715 30.9102 25.7357 31.3244 25.7357C31.7384 25.7359 32.0744 26.0716 32.0744 26.4857V29.3236H34.9113C35.3255 29.3236 35.6613 29.6593 35.6613 30.0736C35.6611 30.4876 35.3254 30.8236 34.9113 30.8236H32.0744V33.6605C32.0744 34.0745 31.7384 34.4102 31.3244 34.4105C30.9102 34.4105 30.5744 34.0747 30.5744 33.6605Z" fill="#332A2A"/>
</g>
<defs>
<clipPath id="clip0_189_265">
<rect width="44" height="44" fill="white"/>
</clipPath>
</defs>
</svg>
