<svg width="23" height="23" viewBox="0 0 23 23" fill="none" xmlns="http://www.w3.org/2000/svg">
<g clip-path="url(#clip0_601_3703)">
<path fill-rule="evenodd" clip-rule="evenodd" d="M11.6926 4.47586C9.22867 2.86158 6.90328 2.65874 5.15352 3.60379C3.32306 4.59257 2.36464 6.7106 2.53438 9.11551C2.56087 9.48714 2.88338 9.76675 3.25508 9.74051C3.62686 9.71418 3.9073 9.39162 3.88106 9.01981C3.73879 7.00336 4.54404 5.46826 5.79512 4.79227C7.03482 4.12271 8.95381 4.16971 11.302 5.84208C11.5363 6.009 11.8508 6.009 12.0852 5.84208C14.1155 4.39602 15.8291 4.16727 17.0441 4.55887C18.2511 4.94793 19.1341 6.00214 19.423 7.49637C19.6686 8.76653 19.4712 10.3611 18.6439 12.0391C18.0049 11.6716 17.2637 11.4611 16.4733 11.4611C14.0662 11.4611 12.1149 13.4124 12.1149 15.8195C12.1149 16.6072 12.3239 17.3461 12.6894 17.9838C12.3705 18.1725 12.0386 18.3582 11.6936 18.5403C8.71883 16.9699 6.71939 15.1293 5.48848 13.3157C5.27913 13.0073 4.85846 12.9267 4.55 13.136C4.24173 13.3454 4.16209 13.7651 4.37129 14.0735C5.79209 16.1669 8.07333 18.2153 11.3869 19.9056C11.5794 20.0037 11.8077 20.0036 12.0002 19.9056C12.5423 19.629 13.0571 19.3426 13.5451 19.0478C14.3189 19.75 15.3461 20.1779 16.4733 20.1779C18.8804 20.1779 20.8317 18.2266 20.8317 15.8195C20.8317 15.4468 20.5297 15.1448 20.1569 15.1447C19.7841 15.1447 19.4821 15.4467 19.4821 15.8195C19.4821 17.4811 18.1348 18.8283 16.4733 18.8283C14.8118 18.8283 13.4646 17.4811 13.4645 15.8195C13.4645 14.158 14.8118 12.8107 16.4733 12.8107C17.5191 12.8108 18.441 13.3441 18.9811 14.1564C19.1876 14.4667 19.6063 14.5512 19.9167 14.3449C20.2271 14.1385 20.3116 13.7188 20.1052 13.4084C19.9883 13.2326 19.8589 13.0658 19.7183 12.9092C20.7754 10.9098 21.0745 8.92648 20.7482 7.23954C20.3825 5.34849 19.2121 3.83901 17.4582 3.27372C15.8133 2.74358 13.8051 3.0909 11.6926 4.47586ZM15.799 17.3912V16.3951H14.8029C14.4578 16.3951 14.178 16.1151 14.1779 15.7701C14.1779 15.4249 14.4577 15.1451 14.8029 15.1451H15.799V14.149C15.799 13.8038 16.0788 13.524 16.424 13.524C16.769 13.5241 17.049 13.8039 17.049 14.149V15.1451H18.0451C18.39 15.1453 18.6701 15.425 18.6701 15.7701C18.6699 16.115 18.39 16.3948 18.0451 16.3951H17.049V17.3912C17.0487 17.7361 16.7689 18.016 16.424 18.0162C16.0789 18.0162 15.7992 17.7361 15.799 17.3912Z" fill="#332A2A"/>
</g>
<defs>
<clipPath id="clip0_601_3703">
<rect width="23" height="23" fill="white"/>
</clipPath>
</defs>
</svg>
