<svg width="28" height="28" viewBox="0 0 28 28" fill="none" xmlns="http://www.w3.org/2000/svg">
<g clip-path="url(#clip0_597_3131)">
<path fill-rule="evenodd" clip-rule="evenodd" d="M13.7887 3.37787C9.62304 3.37787 6.29175 6.63089 6.29175 10.5884C6.29175 13.0016 7.13744 14.9137 9.07214 17.6681C9.31023 18.007 9.22846 18.4748 8.8895 18.7129C8.55055 18.951 8.08277 18.8692 7.84469 18.5303C5.8369 15.6718 4.79175 13.4521 4.79175 10.5884C4.79175 5.75292 8.84504 1.87787 13.7887 1.87787C18.7324 1.87787 22.7857 5.75292 22.7857 10.5884C22.7857 11.0026 22.4499 11.3384 22.0357 11.3384C21.6215 11.3384 21.2857 11.0026 21.2857 10.5884C21.2857 6.63089 17.9544 3.37787 13.7887 3.37787ZM15.4942 21.7175C15.1472 22.1576 14.7831 22.6175 14.4013 23.0997L14.4012 23.0997L14.3975 23.1045C14.2014 23.3521 14.0006 23.6056 13.7952 23.8654C13.3732 23.3208 12.9681 22.8007 12.5818 22.3046L12.5786 22.3005L12.5767 22.298L12.5765 22.2978L12.5753 22.2963C12.1754 21.7827 11.7956 21.295 11.4379 20.8327C11.1844 20.5051 10.7133 20.445 10.3857 20.6985C10.0581 20.952 9.99806 21.4231 10.2515 21.7507C10.6165 22.2222 10.9974 22.7115 11.3969 23.2244L11.3976 23.2253L11.3982 23.226L11.3984 23.2263L11.3984 23.2263C11.9586 23.9456 12.5551 24.7117 13.1948 25.5413C13.3359 25.7243 13.5534 25.832 13.7845 25.8333C14.0156 25.8346 14.2344 25.7293 14.3775 25.5479C14.7905 25.0244 15.1877 24.5229 15.5692 24.0412L15.5693 24.0411C15.8557 23.6794 16.1334 23.3288 16.4021 22.9886C17.3011 23.9014 18.5513 24.4673 19.9337 24.4673C22.6712 24.4673 24.8903 22.2481 24.8903 19.5106C24.8903 19.0964 24.5545 18.7606 24.1403 18.7606C23.7261 18.7606 23.3903 19.0964 23.3903 19.5106C23.3903 21.4197 21.8427 22.9673 19.9337 22.9673C18.0246 22.9673 16.477 21.4197 16.477 19.5106C16.477 17.6015 18.0246 16.0539 19.9337 16.0539C21.1353 16.0539 22.1941 16.6664 22.8147 17.5997C23.044 17.9446 23.5095 18.0383 23.8545 17.809C24.1994 17.5797 24.2931 17.1141 24.0638 16.7692C23.177 15.4355 21.6585 14.5539 19.9337 14.5539C17.1962 14.5539 14.977 16.7731 14.977 19.5106C14.977 20.3035 15.1632 21.0529 15.4942 21.7175ZM10.0007 10.2571C10.0007 8.1825 11.6825 6.50071 13.7571 6.50071C15.8317 6.50071 17.5135 8.1825 17.5135 10.2571C17.5135 12.3317 15.8317 14.0135 13.7571 14.0135C13.3429 14.0135 13.0071 14.3492 13.0071 14.7635C13.0071 15.1777 13.3429 15.5135 13.7571 15.5135C16.6601 15.5135 19.0135 13.1601 19.0135 10.2571C19.0135 7.35407 16.6601 5.00071 13.7571 5.00071C10.8541 5.00071 8.50071 7.35407 8.50071 10.2571C8.50071 11.8201 9.18382 13.2244 10.2653 14.1862C10.5749 14.4614 11.0489 14.4336 11.3242 14.1241C11.5994 13.8146 11.5716 13.3405 11.2621 13.0653C10.4871 12.3761 10.0007 11.3739 10.0007 10.2571ZM19.9339 16.7698C20.3481 16.7698 20.6839 17.1056 20.6839 17.5198V18.7605H21.9247C22.3389 18.7605 22.6747 19.0963 22.6747 19.5105C22.6747 19.9248 22.3389 20.2605 21.9247 20.2605H20.6839V21.5013C20.6839 21.9155 20.3481 22.2513 19.9339 22.2513C19.5197 22.2513 19.1839 21.9155 19.1839 21.5013V20.2605H18.9385H18.4408H17.9432C17.5289 20.2605 17.1932 19.9248 17.1932 19.5105C17.1932 19.0963 17.5289 18.7605 17.9432 18.7605H18.4408H18.9385H19.1839V17.5198C19.1839 17.1056 19.5197 16.7698 19.9339 16.7698Z" fill="#332A2A"/>
</g>
<defs>
<clipPath id="clip0_597_3131">
<rect width="28" height="28" fill="white"/>
</clipPath>
</defs>
</svg>
