<svg width="18" height="18" viewBox="0 0 18 18" fill="none" xmlns="http://www.w3.org/2000/svg">
<g clip-path="url(#clip0_597_3111)">
<path fill-rule="evenodd" clip-rule="evenodd" d="M10.5131 14.0389C10.2368 14.3903 9.94365 14.7605 9.63335 15.1524C9.38778 15.4625 9.13139 15.7862 8.86412 16.125C8.45321 15.592 8.06721 15.0964 7.70576 14.6322C4.8881 11.014 3.5625 9.31174 3.5625 6.80679C3.5625 3.98049 5.93612 1.68933 8.86412 1.68933C11.7921 1.68933 14.1657 3.98049 14.1657 6.80679C14.1657 7.77885 13.9761 8.63003 13.5768 9.5192C13.3348 9.45437 13.0794 9.41978 12.8145 9.41978C11.2224 9.41978 9.93172 10.7104 9.93172 12.3025C9.93172 12.9545 10.1482 13.556 10.5131 14.0389ZM11.8357 6.56249C11.8357 8.3229 10.5729 9.5192 8.8125 9.5192C7.05209 9.5192 5.8499 8.3229 5.8499 6.56249C5.8499 4.80208 7.10371 3.75 8.86412 3.75C10.6245 3.75 11.8357 4.80208 11.8357 6.56249Z" fill="#E05149"/>
<path fill-rule="evenodd" clip-rule="evenodd" d="M8.86412 2.31433C6.26028 2.31433 4.1875 4.34632 4.1875 6.80679C4.1875 8.31523 4.71217 9.51517 5.94894 11.2759C6.14734 11.5584 6.0792 11.9482 5.79674 12.1466C5.51428 12.345 5.12446 12.2769 4.92606 11.9944C3.62838 10.1469 2.9375 8.69066 2.9375 6.80679C2.9375 3.61467 5.61195 1.06433 8.86412 1.06433C12.1163 1.06433 14.7907 3.61467 14.7907 6.80679C14.7907 7.15197 14.5109 7.43179 14.1657 7.43179C13.8206 7.43179 13.5407 7.15197 13.5407 6.80679C13.5407 4.34632 11.468 2.31433 8.86412 2.31433ZM10.0054 13.6733C9.73632 14.0154 9.45029 14.3766 9.1466 14.7602L9.14658 14.7602L8.86939 15.1104C8.63678 14.8105 8.41233 14.5223 8.19704 14.2458L8.19627 14.2449C7.93915 13.9147 7.6951 13.6013 7.46584 13.305C7.2546 13.032 6.86205 12.9819 6.58906 13.1932C6.31606 13.4044 6.26601 13.797 6.47725 14.07C6.71278 14.3744 6.95809 14.6894 7.21517 15.0195L7.2152 15.0195L7.2154 15.0198L7.21568 15.0201L7.21587 15.0204L7.21602 15.0206C7.57555 15.4822 7.95811 15.9735 8.36915 16.5066C8.48674 16.6591 8.66806 16.7489 8.86063 16.75C9.05319 16.7511 9.23551 16.6633 9.35479 16.5121C9.61932 16.1768 9.87396 15.8553 10.1187 15.5463L10.1198 15.545L10.1199 15.5447L10.1199 15.5447L10.1201 15.5445C10.3548 15.2482 10.5803 14.9634 10.7968 14.689C11.3412 15.1497 12.0454 15.4276 12.8145 15.4276C14.5403 15.4276 15.9395 14.0284 15.9395 12.3026C15.9395 11.9574 15.6596 11.6776 15.3145 11.6776C14.9693 11.6776 14.6895 11.9574 14.6895 12.3026C14.6895 13.3381 13.85 14.1776 12.8145 14.1776C11.7789 14.1776 10.9395 13.3381 10.9395 12.3026C10.9395 11.267 11.7789 10.4276 12.8145 10.4276C13.466 10.4276 14.0404 10.7594 14.3773 11.2662C14.5684 11.5536 14.9564 11.6317 15.2438 11.4406C15.5313 11.2495 15.6094 10.8615 15.4182 10.5741C14.8594 9.73364 13.902 9.17755 12.8145 9.17755C11.0886 9.17755 9.68945 10.5767 9.68945 12.3026C9.68945 12.7943 9.80302 13.2595 10.0054 13.6733ZM6.57188 6.59384C6.57188 5.33907 7.58907 4.32188 8.84384 4.32188C10.0986 4.32188 11.1158 5.33907 11.1158 6.59384C11.1158 7.84861 10.0986 8.8658 8.84384 8.8658C8.49866 8.8658 8.21884 9.14562 8.21884 9.4908C8.21884 9.83597 8.49866 10.1158 8.84384 10.1158C10.789 10.1158 12.3658 8.53896 12.3658 6.59384C12.3658 4.64872 10.789 3.07188 8.84384 3.07188C6.89872 3.07188 5.32188 4.64872 5.32188 6.59384C5.32188 7.6411 5.77976 8.58222 6.50421 9.22643C6.76216 9.45581 7.15721 9.43265 7.38658 9.1747C7.61596 8.91676 7.5928 8.52171 7.33485 8.29234C6.86585 7.87528 6.57188 7.26929 6.57188 6.59384ZM12.8228 10.8607C13.0989 10.8607 13.3228 11.0846 13.3228 11.3607V11.8107H13.7728C14.0489 11.8107 14.2728 12.0346 14.2728 12.3107C14.2728 12.5869 14.0489 12.8107 13.7728 12.8107H13.3228V13.2607C13.3228 13.5369 13.0989 13.7607 12.8228 13.7607C12.5467 13.7607 12.3228 13.5369 12.3228 13.2607V12.8107H12.1103H11.8728C11.5967 12.8107 11.3728 12.5869 11.3728 12.3107C11.3728 12.0346 11.5967 11.8107 11.8728 11.8107H12.1103H12.3228V11.3607C12.3228 11.0846 12.5467 10.8607 12.8228 10.8607Z" fill="#252323"/>
</g>
<defs>
<clipPath id="clip0_597_3111">
<rect width="18" height="18" fill="white"/>
</clipPath>
</defs>
</svg>
