<svg width="18" height="18" viewBox="0 0 18 18" fill="none" xmlns="http://www.w3.org/2000/svg">
<g clip-path="url(#clip0_597_3133)">
<path d="M12.8145 9.17761C13.902 9.17761 14.8591 9.73374 15.418 10.5741C15.609 10.8614 15.5313 11.2491 15.2441 11.4403C14.9567 11.6314 14.5681 11.5539 14.377 11.2665C14.04 10.7597 13.466 10.4276 12.8145 10.4276C11.7789 10.4276 10.9395 11.2671 10.9395 12.3026C10.9395 13.3381 11.7789 14.1776 12.8145 14.1776C13.85 14.1776 14.6894 13.3381 14.6895 12.3026C14.6895 11.9574 14.9693 11.6776 15.3145 11.6776C15.6596 11.6776 15.9395 11.9574 15.9395 12.3026C15.9394 14.0285 14.5403 15.4276 12.8145 15.4276C12.0451 15.4276 11.3424 15.1475 10.7979 14.6864C10.5811 14.9612 10.3561 15.2471 10.1211 15.5438C9.87558 15.8538 9.6199 16.1762 9.35449 16.5126L9.30762 16.5653C9.19014 16.6836 9.02906 16.7508 8.86035 16.7499C8.66791 16.7487 8.48667 16.6591 8.36914 16.5067C7.95692 15.9721 7.57328 15.4793 7.21289 15.0165C6.95675 14.6875 6.71229 14.3736 6.47754 14.0702C6.26633 13.7972 6.316 13.4045 6.58887 13.1932C6.86177 12.9821 7.25453 13.0318 7.46582 13.3046C7.72186 13.6355 7.99593 13.9887 8.28613 14.3622C8.47351 14.6033 8.66783 14.853 8.86816 15.1112C8.96656 14.9869 9.06328 14.8649 9.1582 14.745C9.45844 14.3658 9.74053 14.0074 10.0068 13.6688C9.80544 13.2557 9.68946 12.7931 9.68945 12.3026C9.68945 10.5767 11.0886 9.17761 12.8145 9.17761ZM12.8232 10.8612C13.0992 10.8614 13.3232 11.0852 13.3232 11.3612V11.8114H13.7734C14.0493 11.8117 14.2734 12.0355 14.2734 12.3114C14.2731 12.587 14.0491 12.8111 13.7734 12.8114H13.3232V13.2616C13.3228 13.5372 13.0989 13.7614 12.8232 13.7616C12.5474 13.7616 12.3237 13.5373 12.3232 13.2616V12.8114H11.873C11.5971 12.8114 11.3734 12.5872 11.373 12.3114C11.373 12.0353 11.5969 11.8114 11.873 11.8114H12.3232V11.3612C12.3232 11.0851 12.5471 10.8612 12.8232 10.8612ZM8.86426 1.06433C12.1163 1.0644 14.7909 3.61458 14.791 6.80652C14.791 7.1516 14.5111 7.43137 14.166 7.43152C13.8208 7.43152 13.541 7.1517 13.541 6.80652C13.5409 4.34621 11.4679 2.3144 8.86426 2.31433C6.26052 2.31433 4.18765 4.34617 4.1875 6.80652C4.1875 8.31496 4.71245 9.51549 5.94922 11.2762C6.14728 11.5586 6.07905 11.948 5.79688 12.1464C5.51441 12.3448 5.12418 12.2765 4.92578 11.994C3.62828 10.1467 2.9375 8.69026 2.9375 6.80652C2.93765 3.61453 5.61218 1.06433 8.86426 1.06433ZM8.84375 3.07214C10.7885 3.07235 12.366 4.64885 12.3662 6.59363C12.3661 8.5385 10.7886 10.1159 8.84375 10.1161C8.49889 10.1158 8.21891 9.83598 8.21875 9.49109C8.21875 9.14607 8.49879 8.86634 8.84375 8.86609C10.0983 8.86588 11.1161 7.84815 11.1162 6.59363C11.116 5.33921 10.0982 4.32235 8.84375 4.32214C7.58936 4.3224 6.57252 5.33924 6.57227 6.59363C6.57234 7.26896 6.86603 7.87584 7.33496 8.29285C7.59256 8.52224 7.61592 8.91685 7.38672 9.17468C7.15746 9.4325 6.76283 9.45546 6.50488 9.22644C5.78049 8.58228 5.32234 7.64078 5.32227 6.59363C5.32252 4.64888 6.899 3.0724 8.84375 3.07214Z" fill="#332A2A"/>
</g>
<defs>
<clipPath id="clip0_597_3133">
<rect width="18" height="18" fill="white"/>
</clipPath>
</defs>
</svg>
