<svg width="23" height="23" viewBox="0 0 23 23" fill="none" xmlns="http://www.w3.org/2000/svg">
<g clip-path="url(#clip0_597_3092)">
<path fill-rule="evenodd" clip-rule="evenodd" d="M13.4333 17.9386C13.0802 18.3877 12.7057 18.8607 12.3092 19.3614C11.9954 19.7576 11.6678 20.1713 11.3263 20.6042C10.8012 19.9232 10.308 19.2898 9.84617 18.6968C6.24582 14.0735 4.552 11.8984 4.552 8.6976C4.552 5.08623 7.58496 2.15863 11.3263 2.15863C15.0676 2.15863 18.1006 5.08623 18.1006 8.6976C18.1006 9.93968 17.8583 11.0273 17.348 12.1635C17.0389 12.0806 16.7125 12.0364 16.374 12.0364C14.3396 12.0364 12.6905 13.6856 12.6905 15.72C12.6905 16.553 12.967 17.3215 13.4333 17.9386ZM14.9999 8.38544C14.9999 10.6349 13.5757 12.1635 11.3263 12.1635C9.07688 12.1635 7.49988 10.6349 7.49988 8.38544C7.49988 6.13603 9.07688 4.75 11.3263 4.75C13.5757 4.75 14.9999 6.13603 14.9999 8.38544Z" fill="#E05149"/>
<path fill-rule="evenodd" clip-rule="evenodd" d="M11.3265 2.83358C7.93525 2.83358 5.2272 5.48127 5.2272 8.69755C5.2272 10.6621 5.91404 12.2207 7.50039 14.4792C7.71466 14.7842 7.64107 15.2052 7.33601 15.4195C7.03095 15.6338 6.60995 15.5602 6.39568 15.2551C4.74355 12.903 3.8772 11.0676 3.8772 8.69755C3.8772 4.69109 7.23505 1.48358 11.3265 1.48358C15.4179 1.48358 18.7758 4.69109 18.7758 8.69755C18.7758 9.07035 18.4736 9.37255 18.1008 9.37255C17.728 9.37255 17.4258 9.07035 17.4258 8.69755C17.4258 5.48127 14.7177 2.83358 11.3265 2.83358ZM12.6366 17.8593C12.3652 18.2034 12.081 18.5623 11.7837 18.9378L11.3323 19.5081C11.0005 19.0801 10.6815 18.6705 10.3767 18.2791L10.3762 18.2784L10.376 18.2782L10.3753 18.2773L10.3748 18.2767C10.0468 17.8554 9.73523 17.4554 9.44204 17.0765C9.2139 16.7816 8.78994 16.7276 8.49511 16.9557C8.20028 17.1839 8.14622 17.6078 8.37436 17.9026C8.67468 18.2908 8.988 18.6931 9.31649 19.1149C9.77654 19.7057 10.2664 20.3346 10.7919 21.0163C10.9189 21.181 11.1147 21.278 11.3227 21.2791C11.5307 21.2803 11.7276 21.1855 11.8564 21.0222C12.1954 20.5925 12.5216 20.1807 12.8349 19.7851L12.8349 19.7851L12.8351 19.7849C13.0444 19.5206 13.2479 19.2636 13.4457 19.0133C14.1935 19.7658 15.2293 20.2316 16.374 20.2316C18.654 20.2316 20.5023 18.3833 20.5023 16.1033C20.5023 15.7305 20.2001 15.4283 19.8273 15.4283C19.4545 15.4283 19.1523 15.7305 19.1523 16.1033C19.1523 17.6377 17.9084 18.8816 16.374 18.8816C14.8395 18.8816 13.5956 17.6377 13.5956 16.1033C13.5956 14.5689 14.8395 13.325 16.374 13.325C17.3397 13.325 18.1907 13.8171 18.6896 14.5674C18.896 14.8779 19.315 14.9622 19.6254 14.7558C19.9359 14.5494 20.0202 14.1304 19.8138 13.82C19.0753 12.7093 17.8105 11.975 16.374 11.975C14.094 11.975 12.2456 13.8233 12.2456 16.1033C12.2456 16.7312 12.3858 17.3264 12.6366 17.8593ZM8.27387 8.42541C8.27387 6.75383 9.62895 5.39875 11.3005 5.39875C12.9721 5.39875 14.3272 6.75383 14.3272 8.42541C14.3272 10.097 12.9721 11.4521 11.3005 11.4521C10.9277 11.4521 10.6255 11.7543 10.6255 12.1271C10.6255 12.4999 10.9277 12.8021 11.3005 12.8021C13.7177 12.8021 15.6772 10.8426 15.6772 8.42541C15.6772 6.00825 13.7177 4.04875 11.3005 4.04875C8.88337 4.04875 6.92387 6.00825 6.92387 8.42541C6.92387 9.72681 7.49273 10.8962 8.39315 11.6969C8.67173 11.9446 9.09839 11.9196 9.34611 11.641C9.59384 11.3625 9.56882 10.9358 9.29025 10.6881C8.6657 10.1327 8.27387 9.32526 8.27387 8.42541ZM16.3741 13.8573C16.7193 13.8573 16.9991 14.1372 16.9991 14.4823V15.4782H17.9949C18.3401 15.4782 18.6199 15.758 18.6199 16.1032C18.6199 16.4484 18.3401 16.7282 17.9949 16.7282H16.9991V17.7241C16.9991 18.0692 16.7193 18.3491 16.3741 18.3491C16.0289 18.3491 15.7491 18.0692 15.7491 17.7241V16.7282H15.5636H15.1584H14.7532C14.408 16.7282 14.1282 16.4484 14.1282 16.1032C14.1282 15.758 14.408 15.4782 14.7532 15.4782H15.1584H15.5636H15.7491V14.4823C15.7491 14.1372 16.0289 13.8573 16.3741 13.8573Z" fill="#252323"/>
</g>
<defs>
<clipPath id="clip0_597_3092">
<rect width="23" height="23" fill="white"/>
</clipPath>
</defs>
</svg>
