<svg width="23" height="23" viewBox="0 0 23 23" fill="none" xmlns="http://www.w3.org/2000/svg">
<g clip-path="url(#clip0_597_3132)">
<path d="M16.3733 11.9748C17.8097 11.9748 19.0752 12.7091 19.8137 13.8195C20.0199 14.1298 19.9353 14.5486 19.6252 14.7551C19.3148 14.9613 18.8951 14.877 18.6887 14.5666C18.1898 13.8168 17.3386 13.3244 16.3733 13.3244C14.8394 13.3248 13.5953 14.5688 13.595 16.1027C13.595 17.6369 14.8392 18.8807 16.3733 18.881C17.9077 18.881 19.1516 17.6371 19.1516 16.1027C19.1519 15.7305 19.4542 15.4284 19.8264 15.4279C20.199 15.4279 20.5019 15.7302 20.5022 16.1027C20.5022 18.3827 18.6533 20.2316 16.3733 20.2316C15.2282 20.2314 14.1923 19.7651 13.4446 19.0119C13.2434 19.2665 13.0375 19.529 12.8245 19.798C12.5145 20.1895 12.1918 20.5969 11.8567 21.0217C11.7279 21.1849 11.5305 21.2797 11.3225 21.2785C11.1146 21.2773 10.9182 21.1805 10.7913 21.0158C10.2649 20.3331 9.77436 19.7031 9.31372 19.1115C8.9864 18.6911 8.67364 18.2894 8.37427 17.9025C8.14633 17.6077 8.20063 17.1834 8.49536 16.9553C8.79009 16.7276 9.21357 16.7819 9.44165 17.0764C9.74798 17.4722 10.0743 17.8917 10.4182 18.3342C10.7097 18.7092 11.014 19.1009 11.3303 19.509C11.4918 19.3048 11.6496 19.1053 11.804 18.9103C12.0941 18.5439 12.3705 18.1921 12.636 17.8557C12.3862 17.3235 12.2454 16.7294 12.2454 16.1027C12.2457 13.8232 14.0938 11.9751 16.3733 11.9748ZM16.3743 13.8576C16.7193 13.8577 16.9993 14.1375 16.9993 14.4826V15.4787H17.9954C18.3403 15.4789 18.6204 15.7587 18.6204 16.1037C18.6201 16.4485 18.3402 16.7285 17.9954 16.7287H16.9993V17.7248C16.9989 18.0696 16.7191 18.3497 16.3743 18.3498C16.0293 18.3498 15.7497 18.0696 15.7493 17.7248V16.7287H14.7532C14.4082 16.7287 14.1284 16.4486 14.1282 16.1037C14.1282 15.7585 14.408 15.4787 14.7532 15.4787H15.7493V14.4826C15.7493 14.1374 16.0291 13.8576 16.3743 13.8576ZM11.3264 1.48358C15.4177 1.48365 18.7755 4.69112 18.7756 8.69745C18.7756 9.07012 18.4735 9.37212 18.1008 9.37225C17.7282 9.37215 17.4261 9.07013 17.426 8.69745C17.4259 5.48129 14.7175 2.83326 11.3264 2.83319C7.93534 2.83329 5.22692 5.48131 5.22681 8.69745C5.22683 10.6619 5.91411 12.2205 7.50024 14.4787C7.71444 14.7836 7.64096 15.2048 7.33618 15.4191C7.0312 15.6333 6.61007 15.5599 6.39575 15.2551C4.74375 12.9031 3.87722 11.0674 3.8772 8.69745C3.87731 4.69114 7.23513 1.48368 11.3264 1.48358ZM11.301 4.04901C13.718 4.04928 15.677 6.00896 15.677 8.42596C15.6767 10.8427 13.7178 12.8017 11.301 12.8019C10.9283 12.8019 10.6253 12.4999 10.6252 12.1271C10.6253 11.7543 10.9282 11.4523 11.301 11.4523C12.9722 11.4521 14.3271 10.0971 14.3274 8.42596C14.3274 6.75455 12.9724 5.39889 11.301 5.39862C9.62944 5.39862 8.27368 6.75438 8.27368 8.42596C8.27384 9.32548 8.66599 10.1324 9.29028 10.6877C9.5688 10.9354 9.59358 11.3622 9.34595 11.6408C9.09824 11.9193 8.67139 11.9451 8.39282 11.6974C7.49252 10.8969 6.92423 9.72714 6.92407 8.42596C6.92407 6.0088 8.88386 4.04901 11.301 4.04901Z" fill="#332A2A"/>
</g>
<defs>
<clipPath id="clip0_597_3132">
<rect width="23" height="23" fill="white"/>
</clipPath>
</defs>
</svg>
