<svg width="44" height="44" viewBox="0 0 44 44" fill="none" xmlns="http://www.w3.org/2000/svg">
<g clip-path="url(#clip0_189_326)">
<path fill-rule="evenodd" clip-rule="evenodd" d="M25.6987 34.3173C25.0233 35.1764 24.3067 36.0813 23.5482 37.0392C22.9479 37.7972 22.3212 38.5886 21.6679 39.4167C20.6634 38.1139 19.7199 36.9023 18.8363 35.7677C11.9487 26.9231 8.70837 22.7621 8.70837 16.6389C8.70837 9.73014 14.5105 4.12952 21.6679 4.12952C28.8252 4.12952 34.6274 9.73014 34.6274 16.6389C34.6274 19.015 34.1638 21.0957 33.1877 23.2692C32.5963 23.1107 31.9719 23.0262 31.3243 23.0262C27.4325 23.0262 24.2776 26.1811 24.2776 30.0729C24.2776 31.6667 24.8067 33.1368 25.6987 34.3173ZM28.5 16.25C28.5 20.5532 25.9711 23.0262 21.6679 23.0262C17.3647 23.0262 14.5 20.3449 14.5 16.0417C14.5 11.7385 17.3647 9.01183 21.6679 9.01183C25.9711 9.01183 28.5 11.9468 28.5 16.25Z" fill="#E05149"/>
<path fill-rule="evenodd" clip-rule="evenodd" d="M21.6679 4.87952C14.8995 4.87952 9.45837 10.1691 9.45837 16.6389C9.45837 20.5598 10.8443 23.6524 13.9054 28.0105C14.1435 28.3494 14.0617 28.8172 13.7228 29.0553C13.3838 29.2934 12.9161 29.2116 12.678 28.8726C9.54376 24.4106 7.95837 21.0103 7.95837 16.6389C7.95837 9.29115 14.1215 3.37952 21.6679 3.37952C29.2142 3.37952 35.3774 9.29115 35.3774 16.6389C35.3774 17.0531 35.0416 17.3889 34.6274 17.3889C34.2132 17.3889 33.8774 17.0531 33.8774 16.6389C33.8774 10.1691 28.4362 4.87952 21.6679 4.87952ZM25.5629 35.7016C26.9888 37.2645 29.042 38.2451 31.3243 38.2451C35.6304 38.2451 39.1211 34.7544 39.1211 30.4484C39.1211 30.0341 38.7853 29.6984 38.3711 29.6984C37.9569 29.6984 37.6211 30.0341 37.6211 30.4484C37.6211 33.926 34.8019 36.7451 31.3243 36.7451C27.8467 36.7451 25.0276 33.926 25.0276 30.4484C25.0276 26.9708 27.8467 24.1516 31.3243 24.1516C33.5138 24.1516 35.4427 25.2684 36.5721 26.967C36.8014 27.3119 37.267 27.4056 37.6119 27.1763C37.9568 26.947 38.0505 26.4814 37.8212 26.1365C36.4256 24.0376 34.037 22.6516 31.3243 22.6516C27.0183 22.6516 23.5276 26.1423 23.5276 30.4484C23.5276 31.9137 23.9318 33.2847 24.6349 34.4558C24.1039 35.1292 23.5478 35.8314 22.9662 36.566L22.9644 36.5682L22.9643 36.5683L22.9642 36.5684L22.9642 36.5685C22.5475 37.0947 22.1176 37.6375 21.6745 38.1982C20.8866 37.1798 20.1359 36.2158 19.4249 35.3028C18.7964 34.4957 18.1991 33.7286 17.6347 32.9994C17.3813 32.6718 16.9102 32.6117 16.5826 32.8652C16.255 33.1187 16.1949 33.5897 16.4484 33.9173C17.0201 34.6561 17.6188 35.4249 18.247 36.2316L18.2472 36.2318L18.2478 36.2326L18.2481 36.2331L18.249 36.2341L18.2518 36.2378C19.1321 37.3682 20.0705 38.5732 21.0739 39.8746C21.215 40.0576 21.4326 40.1654 21.6637 40.1667C21.8948 40.168 22.1136 40.0627 22.2567 39.8812C22.9073 39.0566 23.5324 38.2673 24.1322 37.51L24.1326 37.5094C24.6265 36.8857 25.1032 36.2838 25.5629 35.7016ZM15.2868 16.1183C15.2868 12.6215 18.1215 9.78683 21.6183 9.78683C25.115 9.78683 27.9497 12.6215 27.9497 16.1183C27.9497 19.615 25.115 22.4497 21.6183 22.4497C20.8152 22.4497 20.0487 22.3006 19.3438 22.0291C18.9573 21.8803 18.5233 22.073 18.3744 22.4595C18.2256 22.8461 18.4183 23.2801 18.8048 23.4289C19.679 23.7656 20.628 23.9497 21.6183 23.9497C25.9435 23.9497 29.4497 20.4435 29.4497 16.1183C29.4497 11.7931 25.9435 8.28683 21.6183 8.28683C17.2931 8.28683 13.7868 11.7931 13.7868 16.1183C13.7868 18.4469 14.8041 20.5389 16.416 21.9723C16.7256 22.2475 17.1996 22.2197 17.4749 21.9102C17.7501 21.6007 17.7223 21.1266 17.4128 20.8514C16.1074 19.6905 15.2868 18.0007 15.2868 16.1183ZM31.3243 26.1109C31.7385 26.1109 32.0743 26.4467 32.0743 26.8609V29.6984H34.9117C35.3259 29.6984 35.6617 30.0341 35.6617 30.4484C35.6617 30.8626 35.3259 31.1984 34.9117 31.1984H32.0743V34.0358C32.0743 34.45 31.7385 34.7858 31.3243 34.7858C30.9101 34.7858 30.5743 34.45 30.5743 34.0358V31.1984H29.5306H28.6337H27.7368C27.3226 31.1984 26.9868 30.8626 26.9868 30.4484C26.9868 30.0341 27.3226 29.6984 27.7368 29.6984H28.6337H29.5306H30.5743V26.8609C30.5743 26.4467 30.9101 26.1109 31.3243 26.1109Z" fill="#252323"/>
</g>
<defs>
<clipPath id="clip0_189_326">
<rect width="44" height="44" fill="white"/>
</clipPath>
</defs>
</svg>
