<svg width="44" height="44" viewBox="0 0 44 44" fill="none" xmlns="http://www.w3.org/2000/svg">
<g clip-path="url(#clip0_189_326)">
<path fill-rule="evenodd" clip-rule="evenodd" d="M25.6989 34.3173C25.0234 35.1764 24.3069 36.0813 23.5483 37.0392C22.9481 37.7972 22.3213 38.5886 21.668 39.4167C20.6636 38.1139 19.72 36.9023 18.8365 35.7677C11.9489 26.9231 8.7085 22.7621 8.7085 16.6389C8.7085 9.73014 14.5107 4.12952 21.668 4.12952C28.8253 4.12952 34.6275 9.73014 34.6275 16.6389C34.6275 19.015 34.1639 21.0957 33.1878 23.2692C32.5964 23.1107 31.972 23.0262 31.3245 23.0262C27.4326 23.0262 24.2777 26.1811 24.2777 30.0729C24.2777 31.6667 24.8068 33.1368 25.6989 34.3173ZM28.5001 16.25C28.5001 20.5532 25.9712 23.0262 21.668 23.0262C17.3648 23.0262 14.5001 20.3449 14.5001 16.0417C14.5001 11.7385 17.3648 9.01183 21.668 9.01183C25.9712 9.01183 28.5001 11.9468 28.5001 16.25Z" fill="#E05149"/>
<path fill-rule="evenodd" clip-rule="evenodd" d="M21.668 4.87952C14.8997 4.87952 9.4585 10.1691 9.4585 16.6389C9.4585 20.5598 10.8444 23.6524 13.9056 28.0105C14.1436 28.3494 14.0619 28.8172 13.7229 29.0553C13.384 29.2934 12.9162 29.2116 12.6781 28.8726C9.54389 24.4106 7.9585 21.0103 7.9585 16.6389C7.9585 9.29115 14.1217 3.37952 21.668 3.37952C29.2143 3.37952 35.3775 9.29115 35.3775 16.6389C35.3775 17.0531 35.0417 17.3889 34.6275 17.3889C34.2133 17.3889 33.8775 17.0531 33.8775 16.6389C33.8775 10.1691 28.4363 4.87952 21.668 4.87952ZM25.563 35.7016C26.9889 37.2645 29.0422 38.2451 31.3245 38.2451C35.6305 38.2451 39.1212 34.7544 39.1212 30.4484C39.1212 30.0341 38.7854 29.6984 38.3712 29.6984C37.957 29.6984 37.6212 30.0341 37.6212 30.4484C37.6212 33.926 34.8021 36.7451 31.3245 36.7451C27.8469 36.7451 25.0277 33.926 25.0277 30.4484C25.0277 26.9708 27.8469 24.1516 31.3245 24.1516C33.5139 24.1516 35.4429 25.2684 36.5722 26.967C36.8015 27.3119 37.2671 27.4056 37.612 27.1763C37.9569 26.947 38.0506 26.4814 37.8213 26.1365C36.4258 24.0376 34.0371 22.6516 31.3245 22.6516C27.0184 22.6516 23.5277 26.1423 23.5277 30.4484C23.5277 31.9137 23.932 33.2847 24.635 34.4558C24.104 35.1292 23.5479 35.8314 22.9663 36.566L22.9645 36.5682L22.9645 36.5683L22.9643 36.5684L22.9643 36.5685C22.5476 37.0947 22.1178 37.6375 21.6746 38.1982C20.8867 37.1798 20.136 36.2158 19.4251 35.3028C18.7966 34.4957 18.1992 33.7286 17.6349 32.9994C17.3814 32.6718 16.9103 32.6117 16.5827 32.8652C16.2551 33.1187 16.1951 33.5897 16.4486 33.9173C17.0202 34.6561 17.6189 35.4249 18.2472 36.2316L18.2473 36.2318L18.2479 36.2326L18.2483 36.2331L18.2491 36.2341L18.2519 36.2378C19.1323 37.3682 20.0706 38.5732 21.0741 39.8746C21.2152 40.0576 21.4327 40.1654 21.6638 40.1667C21.8949 40.168 22.1137 40.0627 22.2568 39.8812C22.9074 39.0566 23.5325 38.2673 24.1323 37.51L24.1327 37.5094C24.6266 36.8857 25.1033 36.2838 25.563 35.7016ZM15.2869 16.1183C15.2869 12.6215 18.1216 9.78683 21.6184 9.78683C25.1152 9.78683 27.9498 12.6215 27.9498 16.1183C27.9498 19.615 25.1152 22.4497 21.6184 22.4497C20.8153 22.4497 20.0489 22.3006 19.344 22.0291C18.9574 21.8803 18.5234 22.073 18.3745 22.4595C18.2257 22.8461 18.4184 23.2801 18.8049 23.4289C19.6791 23.7656 20.6281 23.9497 21.6184 23.9497C25.9436 23.9497 29.4498 20.4435 29.4498 16.1183C29.4498 11.7931 25.9436 8.28683 21.6184 8.28683C17.2932 8.28683 13.7869 11.7931 13.7869 16.1183C13.7869 18.4469 14.8042 20.5389 16.4162 21.9723C16.7257 22.2475 17.1997 22.2197 17.475 21.9102C17.7502 21.6007 17.7225 21.1266 17.4129 20.8514C16.1075 19.6905 15.2869 18.0007 15.2869 16.1183ZM31.3244 26.1109C31.7386 26.1109 32.0744 26.4467 32.0744 26.8609V29.6984H34.9118C35.326 29.6984 35.6618 30.0341 35.6618 30.4484C35.6618 30.8626 35.326 31.1984 34.9118 31.1984H32.0744V34.0358C32.0744 34.45 31.7386 34.7858 31.3244 34.7858C30.9102 34.7858 30.5744 34.45 30.5744 34.0358V31.1984H29.5307H28.6338H27.737C27.3227 31.1984 26.987 30.8626 26.987 30.4484C26.987 30.0341 27.3227 29.6984 27.737 29.6984H28.6338H29.5307H30.5744V26.8609C30.5744 26.4467 30.9102 26.1109 31.3244 26.1109Z" fill="#332A2A"/>
</g>
<defs>
<clipPath id="clip0_189_326">
<rect width="44" height="44" fill="white"/>
</clipPath>
</defs>
</svg>
