<svg width="23" height="23" viewBox="0 0 23 23" fill="none" xmlns="http://www.w3.org/2000/svg">
<g clip-path="url(#clip0_597_3092)">
<path fill-rule="evenodd" clip-rule="evenodd" d="M13.4333 17.9386C13.0802 18.3876 12.7057 18.8606 12.3092 19.3613C11.9954 19.7576 11.6678 20.1713 11.3263 20.6041C10.8012 19.9231 10.308 19.2898 9.84617 18.6967C6.24582 14.0734 4.552 11.8983 4.552 8.69754C4.552 5.08617 7.58496 2.15857 11.3263 2.15857C15.0676 2.15857 18.1006 5.08617 18.1006 8.69754C18.1006 9.93962 17.8583 11.0272 17.348 12.1634C17.0389 12.0806 16.7125 12.0364 16.374 12.0364C14.3396 12.0364 12.6905 13.6855 12.6905 15.7199C12.6905 16.553 12.967 17.3215 13.4333 17.9386ZM14.9999 8.38538C14.9999 10.6348 13.5757 12.1634 11.3263 12.1634C9.07688 12.1634 7.49988 10.6348 7.49988 8.38538C7.49988 6.13597 9.07688 4.74994 11.3263 4.74994C13.5757 4.74994 14.9999 6.13597 14.9999 8.38538Z" fill="#E05149"/>
<path d="M16.3733 11.9749C17.8097 11.9749 19.0752 12.7092 19.8137 13.8196C20.0199 14.1299 19.9353 14.5487 19.6252 14.7551C19.3148 14.9614 18.8951 14.877 18.6887 14.5667C18.1898 13.8169 17.3386 13.3245 16.3733 13.3245C14.8394 13.3248 13.5953 14.5688 13.595 16.1028C13.595 17.637 14.8392 18.8807 16.3733 18.8811C17.9077 18.8811 19.1516 17.6372 19.1516 16.1028C19.1519 15.7305 19.4542 15.4284 19.8264 15.428C20.199 15.428 20.5019 15.7302 20.5022 16.1028C20.5022 18.3828 18.6533 20.2317 16.3733 20.2317C15.2282 20.2315 14.1923 19.7652 13.4446 19.012C13.2434 19.2665 13.0375 19.5291 12.8245 19.7981C12.5145 20.1895 12.1918 20.597 11.8567 21.0217C11.7279 21.185 11.5305 21.2797 11.3225 21.2786C11.1146 21.2773 10.9182 21.1805 10.7913 21.0159C10.2649 20.3331 9.77436 19.7032 9.31372 19.1116C8.9864 18.6912 8.67364 18.2895 8.37427 17.9026C8.14633 17.6078 8.20063 17.1834 8.49536 16.9553C8.79009 16.7276 9.21357 16.7819 9.44165 17.0764C9.74798 17.4723 10.0743 17.8917 10.4182 18.3342C10.7097 18.7092 11.014 19.101 11.3303 19.509C11.4918 19.3049 11.6496 19.1053 11.804 18.9104C12.0941 18.544 12.3705 18.1922 12.636 17.8557C12.3862 17.3236 12.2454 16.7295 12.2454 16.1028C12.2457 13.8233 14.0938 11.9752 16.3733 11.9749ZM16.3743 13.8577C16.7193 13.8578 16.9993 14.1376 16.9993 14.4827V15.4788H17.9954C18.3403 15.479 18.6204 15.7587 18.6204 16.1038C18.6201 16.4486 18.3402 16.7285 17.9954 16.7288H16.9993V17.7249C16.9989 18.0696 16.7191 18.3497 16.3743 18.3499C16.0293 18.3498 15.7497 18.0697 15.7493 17.7249V16.7288H14.7532C14.4082 16.7287 14.1284 16.4487 14.1282 16.1038C14.1282 15.7586 14.408 15.4788 14.7532 15.4788H15.7493V14.4827C15.7493 14.1375 16.0291 13.8577 16.3743 13.8577ZM11.3264 1.48364C15.4177 1.48371 18.7755 4.69118 18.7756 8.69751C18.7756 9.07018 18.4735 9.37218 18.1008 9.37231C17.7282 9.37221 17.4261 9.0702 17.426 8.69751C17.4259 5.48135 14.7175 2.83332 11.3264 2.83325C7.93534 2.83335 5.22692 5.48137 5.22681 8.69751C5.22683 10.6619 5.91411 12.2206 7.50024 14.4788C7.71444 14.7837 7.64096 15.2048 7.33618 15.4192C7.0312 15.6334 6.61007 15.56 6.39575 15.2551C4.74375 12.9032 3.87722 11.0674 3.8772 8.69751C3.87731 4.6912 7.23513 1.48374 11.3264 1.48364ZM11.301 4.04907C13.718 4.04934 15.677 6.00902 15.677 8.42603C15.6767 10.8428 13.7178 12.8017 11.301 12.802C10.9283 12.802 10.6253 12.5 10.6252 12.1272C10.6253 11.7544 10.9282 11.4524 11.301 11.4524C12.9722 11.4521 14.3271 10.0972 14.3274 8.42603C14.3274 6.75461 12.9724 5.39895 11.301 5.39868C9.62944 5.39868 8.27368 6.75444 8.27368 8.42603C8.27384 9.32554 8.66599 10.1325 9.29028 10.6877C9.5688 10.9354 9.59358 11.3623 9.34595 11.6409C9.09824 11.9194 8.67139 11.9451 8.39282 11.6975C7.49252 10.8969 6.92423 9.7272 6.92407 8.42603C6.92407 6.00886 8.88386 4.04907 11.301 4.04907Z" fill="#332A2A"/>
</g>
<defs>
<clipPath id="clip0_597_3092">
<rect width="23" height="23" fill="white"/>
</clipPath>
</defs>
</svg>
