<svg width="23" height="23" viewBox="0 0 23 23" fill="none" xmlns="http://www.w3.org/2000/svg">
<g clip-path="url(#clip0_657_5990)">
<path fill-rule="evenodd" clip-rule="evenodd" d="M4.81763 6.75C4.81763 6.54289 4.98552 6.375 5.19263 6.375H8.14575C8.49093 6.375 8.77075 6.09518 8.77075 5.75C8.77075 5.40482 8.49093 5.125 8.14575 5.125H5.19263C4.29516 5.125 3.56763 5.85254 3.56763 6.75V15.2917C3.56763 16.1891 4.29516 16.9167 5.19263 16.9167H12.0989H12.815C13.479 18.4402 14.9984 19.5052 16.7664 19.5052C19.146 19.5052 21.075 17.5762 21.075 15.1966C21.075 14.8514 20.7952 14.5716 20.45 14.5716C20.1048 14.5716 19.825 14.8514 19.825 15.1966C19.825 16.8858 18.4556 18.2552 16.7664 18.2552C15.0773 18.2552 13.7079 16.8858 13.7079 15.1966C13.7079 13.5074 15.0773 12.1381 16.7664 12.1381C17.8297 12.1381 18.7666 12.6801 19.3156 13.5058C19.5067 13.7932 19.8947 13.8713 20.1821 13.6802C20.4695 13.4891 20.5476 13.1011 20.3565 12.8137C20.3219 12.7617 20.2862 12.7105 20.2495 12.6601V6.75C20.2495 5.85254 19.522 5.125 18.6245 5.125H12.0989C11.7537 5.125 11.4739 5.40482 11.4739 5.75C11.4739 6.09518 11.7537 6.375 12.0989 6.375H18.6245C18.8316 6.375 18.9995 6.54289 18.9995 6.75V7.1875H4.81763V6.75ZM12.4579 15.1966C12.4579 15.3555 12.4665 15.5123 12.4833 15.6667H12.0989H5.19263C4.98552 15.6667 4.81763 15.4988 4.81763 15.2917V10.0625H18.9995V11.5113C18.3485 11.116 17.5841 10.8881 16.7664 10.8881C15.5219 10.8881 14.4005 11.4158 13.614 12.2597C13.552 12.239 13.4857 12.2279 13.4167 12.2279H5.72346C5.37829 12.2279 5.09846 12.5077 5.09846 12.8529C5.09846 13.1981 5.37829 13.4779 5.72346 13.4779H12.8144C12.754 13.6166 12.7007 13.7591 12.6549 13.905H11.0209C10.6757 13.905 10.3959 14.1848 10.3959 14.53C10.3959 14.8751 10.6757 15.155 11.0209 15.155H12.4581L12.4579 15.1966ZM3.02075 6.70833C3.02075 6.36316 2.74093 6.08333 2.39575 6.08333C2.05057 6.08333 1.77075 6.36316 1.77075 6.70833V9.79896C1.77075 10.1441 2.05057 10.424 2.39575 10.424C2.74093 10.424 3.02075 10.1441 3.02075 9.79896V6.70833ZM3.02075 12.6021C3.02075 12.2569 2.74093 11.9771 2.39575 11.9771C2.05057 11.9771 1.77075 12.2569 1.77075 12.6021V16.2083C1.77075 17.6581 2.946 18.8333 4.39575 18.8333H11.1389C11.4841 18.8333 11.7639 18.5535 11.7639 18.2083C11.7639 17.8632 11.4841 17.5833 11.1389 17.5833H4.39575C3.63636 17.5833 3.02075 16.9677 3.02075 16.2083V12.6021ZM5.09846 14.53C5.09846 14.1848 5.37829 13.905 5.72346 13.905H9.40281C9.74799 13.905 10.0278 14.1848 10.0278 14.53C10.0278 14.8751 9.74799 15.155 9.40281 15.155H5.72346C5.37829 15.155 5.09846 14.8751 5.09846 14.53ZM17.3913 13.1726C17.3913 12.8274 17.1115 12.5476 16.7663 12.5476C16.4211 12.5476 16.1413 12.8274 16.1413 13.1726V14.5716H15.7543H15.2483H14.7423C14.3971 14.5716 14.1173 14.8514 14.1173 15.1966C14.1173 15.5418 14.3971 15.8216 14.7423 15.8216H15.2483H15.7543H16.1413V17.2206C16.1413 17.5658 16.4211 17.8456 16.7663 17.8456C17.1115 17.8456 17.3913 17.5658 17.3913 17.2206V15.8216H18.7903C19.1355 15.8216 19.4153 15.5418 19.4153 15.1966C19.4153 14.8514 19.1355 14.5716 18.7903 14.5716H17.3913V13.1726Z" fill="#252323"/>
</g>
<defs>
<clipPath id="clip0_657_5990">
<rect width="23" height="23" fill="white"/>
</clipPath>
</defs>
</svg>
