<svg width="28" height="28" viewBox="0 0 28 28" fill="none" xmlns="http://www.w3.org/2000/svg">
<g clip-path="url(#clip0_657_5862)">
<path fill-rule="evenodd" clip-rule="evenodd" d="M16.0406 19.8333C15.9664 19.4988 15.9273 19.151 15.9273 18.7941C15.9273 16.1552 18.0665 14.0159 20.7054 14.0159C22.1843 14.0159 23.4849 14.6662 24.3542 15.692V9C24.3542 7.89543 23.4588 7 22.3542 7H7.10425C5.99968 7 5.10425 7.89543 5.10425 9V17.8333C5.10425 18.9379 5.99968 19.8333 7.10425 19.8333H16.0406Z" fill="#E05149"/>
<path fill-rule="evenodd" clip-rule="evenodd" d="M5.85435 8C5.85435 7.86193 5.96627 7.75 6.10435 7.75H9.91685C10.3311 7.75 10.6668 7.41421 10.6668 7C10.6668 6.58579 10.3311 6.25 9.91685 6.25H6.10435C5.13785 6.25 4.35435 7.0335 4.35435 8V18.8333C4.35435 19.7998 5.13785 20.5833 6.10435 20.5833H14.7293H15.6083C16.4136 22.4377 18.2612 23.7345 20.4117 23.7345C23.3025 23.7345 25.646 21.391 25.646 18.5002C25.646 18.086 25.3102 17.7502 24.896 17.7502C24.4818 17.7502 24.146 18.086 24.146 18.5002C24.146 20.5626 22.4741 22.2345 20.4117 22.2345C18.3493 22.2345 16.6774 20.5626 16.6774 18.5002C16.6774 16.4378 18.3493 14.7659 20.4117 14.7659C21.7099 14.7659 22.8538 15.4277 23.5241 16.4358C23.7534 16.7807 24.2189 16.8744 24.5639 16.6451C24.9088 16.4158 25.0025 15.9502 24.7732 15.6053C24.7305 15.5411 24.6864 15.4779 24.641 15.4157V8C24.641 7.0335 23.8575 6.25 22.891 6.25H14.7293C14.3151 6.25 13.9793 6.58579 13.9793 7C13.9793 7.41421 14.3151 7.75 14.7293 7.75H22.891C23.029 7.75 23.141 7.86193 23.141 8V8.74999H5.85435V8ZM15.1774 18.5002C15.1774 18.6973 15.1883 18.8919 15.2095 19.0833H14.7293H6.10435C5.96627 19.0833 5.85435 18.9714 5.85435 18.8333V12.25H23.141V14.0331C22.3465 13.5467 21.4119 13.2659 20.4117 13.2659C18.8971 13.2659 17.5328 13.9092 16.577 14.9374C16.5007 14.9112 16.4187 14.897 16.3335 14.897H6.96777C6.55356 14.897 6.21777 15.2328 6.21777 15.647C6.21777 16.0612 6.55356 16.397 6.96777 16.397H15.6171C15.5399 16.5727 15.4721 16.7535 15.4143 16.9387H13.4168C13.0026 16.9387 12.6668 17.2744 12.6668 17.6887C12.6668 18.1029 13.0026 18.4387 13.4168 18.4387H15.1777C15.1775 18.4592 15.1774 18.4797 15.1774 18.5002ZM3.66675 8.16667C3.66675 7.75246 3.33096 7.41667 2.91675 7.41667C2.50253 7.41667 2.16675 7.75246 2.16675 8.16667V11.9292C2.16675 12.3434 2.50253 12.6792 2.91675 12.6792C3.33096 12.6792 3.66675 12.3434 3.66675 11.9292V8.16667ZM3.66675 15.3417C3.66675 14.9275 3.33096 14.5917 2.91675 14.5917C2.50253 14.5917 2.16675 14.9275 2.16675 15.3417V20.1667C2.16675 21.6855 3.39797 22.9167 4.91675 22.9167H13.5606C13.9748 22.9167 14.3106 22.5809 14.3106 22.1667C14.3106 21.7525 13.9748 21.4167 13.5606 21.4167H4.91675C4.22639 21.4167 3.66675 20.857 3.66675 20.1667V15.3417ZM6.21777 17.6887C6.21777 17.2744 6.55356 16.9387 6.96777 16.9387H11.447C11.8612 16.9387 12.197 17.2744 12.197 17.6887C12.197 18.1029 11.8612 18.4387 11.447 18.4387H6.96777C6.55356 18.4387 6.21777 18.1029 6.21777 17.6887ZM21.0657 16.0118C21.0657 15.6506 20.7729 15.3578 20.4117 15.3578C20.0505 15.3578 19.7577 15.6506 19.7577 16.0118V17.8462H19.1675H18.5454H17.9232C17.562 17.8462 17.2692 18.139 17.2692 18.5002C17.2692 18.8614 17.562 19.1542 17.9232 19.1542H18.5454H19.1675H19.7577V20.9887C19.7577 21.3499 20.0505 21.6427 20.4117 21.6427C20.7729 21.6427 21.0657 21.3499 21.0657 20.9887V19.1542H22.9001C23.2613 19.1542 23.5542 18.8614 23.5542 18.5002C23.5542 18.139 23.2613 17.8462 22.9001 17.8462H21.0657V16.0118Z" fill="#332A2A"/>
</g>
<defs>
<clipPath id="clip0_657_5862">
<rect width="28" height="28" fill="white"/>
</clipPath>
</defs>
</svg>
