<svg width="44" height="44" viewBox="0 0 44 44" fill="none" xmlns="http://www.w3.org/2000/svg">
<g clip-path="url(#clip0_657_5827)">
<path fill-rule="evenodd" clip-rule="evenodd" d="M8.77075 12C8.77075 11.8619 8.88268 11.75 9.02075 11.75H15.5833C15.9975 11.75 16.3333 11.4142 16.3333 11C16.3333 10.5858 15.9975 10.25 15.5833 10.25H9.02075C8.05425 10.25 7.27075 11.0335 7.27075 12V30.1667C7.27075 31.1332 8.05425 31.9167 9.02075 31.9167H23.1458H24.8137C25.9503 34.8157 28.773 36.8685 32.0751 36.8685C36.3811 36.8685 39.8719 33.3778 39.8719 29.0718C39.8719 28.6576 39.5361 28.3218 39.1219 28.3218C38.7077 28.3218 38.3719 28.6576 38.3719 29.0718C38.3719 32.5494 35.5527 35.3685 32.0751 35.3685C28.5975 35.3685 25.7784 32.5494 25.7784 29.0718C25.7784 25.5942 28.5975 22.775 32.0751 22.775C34.2646 22.775 36.1935 23.8919 37.3229 25.5904C37.5363 25.9115 37.9545 26.0149 38.2895 25.8427L38.2926 25.8488V25.8411C38.3164 25.8287 38.3398 25.8149 38.3627 25.7997C38.7076 25.5704 38.8013 25.1048 38.572 24.7599C38.4828 24.6259 38.3896 24.4947 38.2926 24.3666V12C38.2926 11.0335 37.5091 10.25 36.5426 10.25H23.1458C22.7315 10.25 22.3958 10.5858 22.3958 11C22.3958 11.4142 22.7315 11.75 23.1458 11.75H36.5426C36.6806 11.75 36.7926 11.8619 36.7926 12V13.75H8.77075V12ZM24.2784 29.0718C24.2784 29.5304 24.318 29.9798 24.3939 30.4167H23.1458H9.02075C8.88268 30.4167 8.77075 30.3047 8.77075 30.1667V19.25H36.7926V22.8638C35.4831 21.8673 33.8484 21.275 32.0751 21.275C29.5777 21.275 27.3545 22.4493 25.9275 24.2758C25.8463 24.2456 25.7584 24.2292 25.6667 24.2292H10.5417C10.1275 24.2292 9.79168 24.565 9.79168 24.9792C9.79168 25.3934 10.1275 25.7292 10.5417 25.7292H25.0292C24.7734 26.2675 24.5774 26.8398 24.4499 27.4375H21.0834C20.6691 27.4375 20.3334 27.7733 20.3334 28.1875C20.3334 28.6017 20.6691 28.9375 21.0834 28.9375H24.2795C24.2787 28.9822 24.2784 29.0269 24.2784 29.0718ZM4.58325 12.0833C4.99747 12.0833 5.33325 12.4191 5.33325 12.8333V18.7458C5.33325 19.16 4.99747 19.4958 4.58325 19.4958C4.16904 19.4958 3.83325 19.16 3.83325 18.7458V12.8333C3.83325 12.4191 4.16904 12.0833 4.58325 12.0833ZM4.58325 23.3583C4.99747 23.3583 5.33325 23.6941 5.33325 24.1083V32.8333C5.33325 33.5237 5.8929 34.0833 6.58325 34.0833H21.3093C21.7235 34.0833 22.0593 34.4191 22.0593 34.8333C22.0593 35.2475 21.7235 35.5833 21.3093 35.5833H6.58325C5.06447 35.5833 3.83325 34.3521 3.83325 32.8333V24.1083C3.83325 23.6941 4.16904 23.3583 4.58325 23.3583ZM9.79168 28.1875C9.79168 27.7733 10.1275 27.4375 10.5417 27.4375H18.7917C19.2059 27.4375 19.5417 27.7733 19.5417 28.1875C19.5417 28.6017 19.2059 28.9375 18.7917 28.9375H10.5417C10.1275 28.9375 9.79168 28.6017 9.79168 28.1875ZM32.8251 24.5875C32.8251 24.1733 32.4894 23.8375 32.0751 23.8375C31.6609 23.8375 31.3251 24.1733 31.3251 24.5875V28.3218H29.833H28.7119H27.5908C27.1766 28.3218 26.8408 28.6576 26.8408 29.0718C26.8408 29.486 27.1766 29.8218 27.5908 29.8218H28.7119H29.833H31.3251V33.5561C31.3251 33.9703 31.6609 34.3061 32.0751 34.3061C32.4894 34.3061 32.8251 33.9703 32.8251 33.5561V29.8218H36.5594C36.9737 29.8218 37.3094 29.486 37.3094 29.0718C37.3094 28.6576 36.9737 28.3218 36.5594 28.3218H32.8251V24.5875Z" fill="#252323"/>
</g>
<defs>
<clipPath id="clip0_657_5827">
<rect width="44" height="44" fill="white"/>
</clipPath>
</defs>
</svg>
