<svg width="23" height="23" viewBox="0 0 23 23" fill="none" xmlns="http://www.w3.org/2000/svg">
<g clip-path="url(#clip0_657_5990)">
<path d="M8.14575 5.07501C8.51848 5.07501 8.82045 5.37711 8.82056 5.74982C8.82056 6.12261 8.51854 6.42462 8.14575 6.42462H5.19263C5.01329 6.42473 4.86754 6.57048 4.86743 6.74982V7.18732H18.9495V6.74982C18.9494 6.57041 18.8037 6.42462 18.6243 6.42462H12.0989C11.7262 6.42452 11.4241 6.12254 11.4241 5.74982C11.4242 5.37718 11.7262 5.07512 12.0989 5.07501H18.6243C19.5493 5.07501 20.299 5.82483 20.2991 6.74982V12.6443C20.3328 12.691 20.3668 12.738 20.3987 12.7859C20.6048 13.0964 20.5205 13.5161 20.2102 13.7225C19.9 13.9286 19.4812 13.8439 19.2747 13.534C18.7346 12.7217 17.8126 12.1884 16.7668 12.1883C15.1053 12.1883 13.7581 13.5355 13.7581 15.1971C13.7583 16.8584 15.1054 18.2059 16.7668 18.2059C18.4282 18.2058 19.7754 16.8584 19.7756 15.1971C19.7756 14.8243 20.0776 14.5223 20.4504 14.5223C20.8231 14.5224 21.1252 14.8244 21.1252 15.1971C21.125 17.604 19.1738 19.5554 16.7668 19.5555C14.9901 19.5555 13.4631 18.4914 12.7844 16.9666H5.19263C4.26775 16.9665 3.518 16.2167 3.51782 15.2918V6.74982C3.51793 5.8249 4.2677 5.07512 5.19263 5.07501H8.14575ZM2.39575 11.9276C2.76848 11.9276 3.07045 12.2297 3.07056 12.6024V16.2088C3.0708 16.9403 3.66422 17.5339 4.39575 17.534H11.1389C11.5117 17.534 11.8137 17.836 11.8137 18.2088C11.8135 18.5814 11.5116 18.8836 11.1389 18.8836H4.39575C2.91863 18.8835 1.72119 17.6859 1.72095 16.2088V12.6024C1.72105 12.2297 2.02311 11.9277 2.39575 11.9276ZM16.7668 12.5477C17.1118 12.5479 17.3918 12.8276 17.3918 13.1727V14.5721H18.7903C19.1355 14.5721 19.4153 14.8519 19.4153 15.1971C19.415 15.542 19.1353 15.8221 18.7903 15.8221H17.3918V17.2205C17.3918 17.5655 17.1118 17.8453 16.7668 17.8455C16.4217 17.8455 16.1419 17.5657 16.1418 17.2205V15.8221H14.7424C14.3974 15.8221 14.1177 15.542 14.1174 15.1971C14.1174 14.8519 14.3973 14.5721 14.7424 14.5721H16.1418V13.1727C16.1418 12.8275 16.4217 12.5477 16.7668 12.5477ZM4.86743 15.2918C4.86761 15.4711 5.01333 15.6159 5.19263 15.616H12.429C12.416 15.4807 12.4087 15.3436 12.4084 15.2049H11.0208C10.6482 15.2047 10.346 14.9027 10.3459 14.5301C10.3459 14.1574 10.6481 13.8555 11.0208 13.8553H12.6194C12.6837 13.6563 12.7618 13.4635 12.8528 13.2781H5.87524C5.5026 13.2781 5.20068 12.9759 5.20044 12.6033C5.20044 12.2305 5.50245 11.9276 5.87524 11.9276H13.885C14.6532 11.2499 15.6619 10.8387 16.7668 10.8387C17.5624 10.8387 18.3076 11.0526 18.9495 11.4246V10.0623H4.86743V15.2918ZM9.40259 13.8553C9.77538 13.8553 10.0784 14.1573 10.0784 14.5301C10.0783 14.9028 9.77534 15.2049 9.40259 15.2049H5.87524C5.50249 15.2049 5.2005 14.9028 5.20044 14.5301C5.20044 14.1573 5.50245 13.8553 5.87524 13.8553H9.40259ZM2.39575 6.034C2.76854 6.034 3.07056 6.33601 3.07056 6.7088V9.79962C3.07021 10.1721 2.76833 10.4744 2.39575 10.4744C2.02327 10.4743 1.7213 10.172 1.72095 9.79962V6.7088C1.72095 6.33607 2.02305 6.0341 2.39575 6.034Z" fill="#332A2A"/>
</g>
<defs>
<clipPath id="clip0_657_5990">
<rect width="23" height="23" fill="white"/>
</clipPath>
</defs>
</svg>
