<svg width="44" height="44" viewBox="0 0 44 44" fill="none" xmlns="http://www.w3.org/2000/svg">
<g clip-path="url(#clip0_657_5827)">
<path fill-rule="evenodd" clip-rule="evenodd" d="M7.27075 12V30.167C7.27093 31.1333 8.05436 31.917 9.02075 31.917H24.8138C25.9506 34.816 28.7732 36.8688 32.0752 36.8688C36.3812 36.8687 39.872 33.3778 39.8721 29.0719C39.8721 28.6578 39.5362 28.322 39.1221 28.3219C38.7079 28.3219 38.3721 28.6577 38.3721 29.0719C38.372 32.5494 35.5527 35.3687 32.0752 35.3688C28.5977 35.3688 25.7784 32.5494 25.7784 29.0719C25.7784 25.5943 28.5976 22.775 32.0752 22.775C34.2646 22.7751 36.194 23.8919 37.3233 25.5905C37.5368 25.9114 37.9544 26.0145 38.2893 25.8423L38.2922 25.8481V25.8408C38.3161 25.8284 38.3395 25.8146 38.3623 25.7994C38.7071 25.5702 38.8012 25.1053 38.5723 24.7604C38.483 24.626 38.3895 24.4946 38.2922 24.3662V12C38.2922 11.0335 37.5087 10.25 36.5422 10.25H23.1458C22.7315 10.25 22.3958 10.5858 22.3958 11C22.3958 11.4142 22.7315 11.75 23.1458 11.75H36.5422C36.6803 11.75 36.7922 11.8619 36.7922 12V13.75H8.77075V12C8.77075 11.8619 8.88268 11.75 9.02075 11.75H15.5833C15.9975 11.75 16.3333 11.4142 16.3333 11C16.3333 10.5858 15.9975 10.25 15.5833 10.25H9.02075C8.05426 10.25 7.27075 11.0335 7.27075 12ZM24.2784 29.0719C24.2784 29.5306 24.318 29.98 24.394 30.417H9.02075C8.88279 30.417 8.77093 30.3049 8.77075 30.167V19.25H36.7922V22.8636C35.4828 21.8673 33.8482 21.2751 32.0752 21.275C29.5778 21.275 27.3545 22.4493 25.9275 24.2759C25.8464 24.2457 25.7585 24.2292 25.6667 24.2292H10.5417C10.1275 24.2292 9.79168 24.565 9.79168 24.9792C9.79168 25.3934 10.1275 25.7292 10.5417 25.7292H25.0293C24.7735 26.2674 24.5775 26.8396 24.45 27.4372H21.0837C20.6696 27.4372 20.3339 27.7731 20.3337 28.1872C20.3337 28.6014 20.6695 28.9372 21.0837 28.9372H24.2795C24.2787 28.982 24.2784 29.0269 24.2784 29.0719ZM3.83325 32.8333V24.1087C3.83325 23.6945 4.16904 23.3587 4.58325 23.3587C4.99747 23.3587 5.33325 23.6945 5.33325 24.1087V32.8333C5.33325 33.5237 5.8929 34.0833 6.58325 34.0833H21.3088C21.7231 34.0833 22.0588 34.4191 22.0588 34.8333C22.0588 35.2475 21.7231 35.5833 21.3088 35.5833H6.58325C5.06447 35.5833 3.83325 34.3521 3.83325 32.8333ZM3.83325 18.7454V12.8333C3.83325 12.4191 4.16904 12.0833 4.58325 12.0833C4.99747 12.0833 5.33325 12.4191 5.33325 12.8333V18.7454C5.33325 19.1597 4.99747 19.4954 4.58325 19.4954C4.16904 19.4954 3.83325 19.1597 3.83325 18.7454ZM19.5417 28.1872C19.5415 27.7731 19.2058 27.4372 18.7917 27.4372H10.5417C10.1276 27.4372 9.79186 27.7731 9.79168 28.1872C9.79168 28.6014 10.1275 28.9372 10.5417 28.9372H18.7917C19.2059 28.9372 19.5417 28.6014 19.5417 28.1872ZM31.3252 29.8219V33.5562C31.3253 33.9704 31.6611 34.3062 32.0752 34.3062C32.4893 34.3062 32.8251 33.9703 32.8252 33.5562V29.8219H36.5596C36.9737 29.8218 37.3096 29.486 37.3096 29.0719C37.3096 28.6577 36.9737 28.3219 36.5596 28.3219H32.8252V24.5875C32.8252 24.1733 32.4894 23.8375 32.0752 23.8375C31.661 23.8375 31.3252 24.1733 31.3252 24.5875V28.3219H27.5908C27.1766 28.3219 26.8408 28.6576 26.8408 29.0719C26.8409 29.486 27.1767 29.8219 27.5908 29.8219H31.3252Z" fill="#332A2A"/>
</g>
<defs>
<clipPath id="clip0_657_5827">
<rect width="44" height="44" fill="white"/>
</clipPath>
</defs>
</svg>
