<svg width="23" height="23" viewBox="0 0 23 23" fill="none" xmlns="http://www.w3.org/2000/svg">
<g clip-path="url(#clip0_613_5668)">
<path d="M5.01831 4.08143C5.28378 4.12779 5.50144 4.33048 5.56128 4.60096L5.92554 6.24842L7.49976 13.1488H13.074C13.823 11.829 15.2399 10.9379 16.866 10.9379C17.2688 10.9379 17.6587 10.9938 18.0291 11.0961L18.5085 9.99647H14.0115C13.6388 9.99635 13.3367 9.69438 13.3367 9.32166C13.3367 8.94899 13.6388 8.64697 14.0115 8.64686H19.0955L19.7439 7.15565H11.1023C10.7297 7.15557 10.4276 6.85347 10.4275 6.48084C10.4275 6.10809 10.7296 5.80611 11.1023 5.80604H20.7732C21.0006 5.80615 21.213 5.92056 21.3376 6.11072C21.4621 6.30081 21.4828 6.54096 21.3923 6.7494L19.2595 11.6547C19.7505 11.9779 20.1728 12.3964 20.4978 12.8851C20.7042 13.1956 20.6198 13.6153 20.3093 13.8217C19.999 14.0279 19.5802 13.9434 19.3738 13.6332C18.8337 12.8209 17.9117 12.2875 16.866 12.2875C15.2045 12.2876 13.8572 13.6348 13.8572 15.2963C13.8572 16.9578 15.2045 18.305 16.866 18.3051C18.5275 18.305 19.8747 16.9578 19.8748 15.2963C19.8748 14.9235 20.1768 14.6215 20.5496 14.6215C20.9223 14.6215 21.2244 14.9235 21.2244 15.2963C21.2243 17.7034 19.2731 19.6546 16.866 19.6547C16.1799 19.6546 15.5312 19.4956 14.9539 19.2133C14.9368 19.214 14.9194 19.2162 14.9021 19.2162C14.3529 19.2161 13.891 18.8463 13.7498 18.3422C13.2669 17.8482 12.9006 17.2402 12.6951 16.5619H5.26733C5.00647 16.5619 4.76863 16.4119 4.65698 16.1762C4.54541 15.9403 4.58038 15.6611 4.74585 15.4594L6.22827 13.6508L4.60913 6.5492L4.60815 6.54432L4.36011 5.42127H2.33374C1.96095 5.42127 1.65894 5.11926 1.65894 4.74647C1.65894 4.37367 1.96095 4.07166 2.33374 4.07166H4.9021L5.01831 4.08143ZM8.50171 16.8207C9.1633 16.8207 9.69995 17.3573 9.69995 18.0189C9.69975 18.6803 9.16318 19.2162 8.50171 19.2162C7.84027 19.2162 7.30367 18.6803 7.30347 18.0189C7.30347 17.3574 7.84014 16.8207 8.50171 16.8207ZM16.8162 12.9379C17.1889 12.938 17.4909 13.24 17.491 13.6127V14.5717H18.45C18.8226 14.5718 19.1247 14.8738 19.1248 15.2465C19.1247 15.6191 18.8226 15.9211 18.45 15.9213H17.491V16.8803C17.4908 17.2529 17.1888 17.555 16.8162 17.5551C16.4435 17.555 16.1415 17.2529 16.1414 16.8803V15.9213H15.1824C14.8097 15.9212 14.5076 15.6192 14.5076 15.2465C14.5076 14.8737 14.8096 14.5717 15.1824 14.5717H16.1414V13.6127C16.1414 13.24 16.4434 12.9379 16.8162 12.9379ZM7.28003 14.4984L6.69409 15.2123H12.5095C12.5141 14.9689 12.5388 14.7305 12.5818 14.4984H7.28003Z" fill="#332A2A"/>
</g>
<defs>
<clipPath id="clip0_613_5668">
<rect width="23" height="23" fill="white"/>
</clipPath>
</defs>
</svg>
