<svg width="28" height="28" viewBox="0 0 28 28" fill="none" xmlns="http://www.w3.org/2000/svg">
<g clip-path="url(#clip0_613_5573)">
<path fill-rule="evenodd" clip-rule="evenodd" d="M13.4165 7.875H6.4165L8.45817 16.9167H16.2147C16.8547 15.2215 18.4922 14.0159 20.4114 14.0159C21.1025 14.0159 21.7521 14.1672 22.3309 14.438L25.0832 7.875H13.4165Z" fill="#E05149"/>
<path fill-rule="evenodd" clip-rule="evenodd" d="M2.03052 5.71767C2.03052 5.30346 2.3663 4.96767 2.78052 4.96767H5.90687C6.25866 4.96767 6.56317 5.21219 6.63916 5.55567L7.0842 7.56733C7.17367 7.97177 6.91834 8.37216 6.5139 8.46163C6.10947 8.5511 5.70908 8.29578 5.61961 7.89134L5.30465 6.46767H2.78052C2.3663 6.46767 2.03052 6.13189 2.03052 5.71767ZM12.7054 7.82876C12.7054 7.41455 13.0412 7.07876 13.4554 7.07876H25.2281C25.4809 7.07876 25.7167 7.20611 25.8553 7.41751C25.9939 7.6289 26.0167 7.89591 25.916 8.12775L23.3038 14.1371C23.8862 14.5238 24.3864 15.0239 24.773 15.6053C25.0023 15.9502 24.9086 16.4158 24.5637 16.6451C24.2188 16.8745 23.7533 16.7807 23.5239 16.4358C22.8536 15.4277 21.7097 14.7659 20.4115 14.7659C18.3491 14.7659 16.6772 16.4378 16.6772 18.5002C16.6772 20.5626 18.3491 22.2345 20.4115 22.2345C22.4739 22.2345 24.1458 20.5626 24.1458 18.5002C24.1458 18.086 24.4816 17.7502 24.8958 17.7502C25.3101 17.7502 25.6458 18.086 25.6458 18.5002C25.6458 21.3911 23.3024 23.7345 20.4115 23.7345C19.6769 23.7345 18.9776 23.5832 18.3431 23.3099C18.2582 23.3253 18.1708 23.3333 18.0816 23.3333C17.3655 23.3333 16.7699 22.8172 16.6466 22.1366C16.0797 21.5498 15.6487 20.8307 15.4044 20.0302H6.3519C6.06686 20.0302 5.80645 19.8686 5.67989 19.6132C5.55332 19.3578 5.58248 19.0527 5.75513 18.8259L6.70444 17.5788C6.95533 17.2492 7.42589 17.1854 7.75548 17.4363C8.08507 17.6872 8.14888 18.1577 7.89799 18.4873L7.86537 18.5302H15.1773C15.1773 18.5202 15.1772 18.5102 15.1772 18.5002C15.1772 18.1646 15.2088 17.8363 15.2692 17.5182H8.41301C8.06121 17.5182 7.7567 17.2737 7.68071 16.9302L6.16797 10.0921C6.0785 9.68767 6.33383 9.28728 6.73827 9.19781C7.1427 9.10834 7.54309 9.36367 7.63256 9.7681L9.01522 16.0182H15.802C16.6862 14.3794 18.4188 13.2659 20.4115 13.2659C20.946 13.2659 21.4617 13.3461 21.9473 13.4949L22.5808 12.0376L16.997 12.0376C16.5827 12.0376 16.247 11.7018 16.247 11.2876C16.247 10.8734 16.5827 10.5376 16.997 10.5376L23.2328 10.5376L24.0843 8.57876H13.4554C13.0412 8.57876 12.7054 8.24297 12.7054 7.82876ZM10.2894 23.3333C11.0948 23.3333 11.7477 22.6804 11.7477 21.875C11.7477 21.0696 11.0948 20.4167 10.2894 20.4167C9.48396 20.4167 8.83104 21.0696 8.83104 21.875C8.83104 22.6804 9.48396 23.3333 10.2894 23.3333ZM20.4116 15.8839C20.8258 15.8839 21.1616 16.2197 21.1616 16.6339V17.7502H22.2779C22.6921 17.7502 23.0279 18.086 23.0279 18.5002C23.0279 18.9144 22.6921 19.2502 22.2779 19.2502H21.1616V20.3666C21.1616 20.7808 20.8258 21.1166 20.4116 21.1166C19.9973 21.1166 19.6616 20.7808 19.6616 20.3666V19.2502H19.4784H19.0118H18.5452C18.131 19.2502 17.7952 18.9144 17.7952 18.5002C17.7952 18.086 18.131 17.7502 18.5452 17.7502H19.0118H19.4784H19.6616V16.6339C19.6616 16.2197 19.9973 15.8839 20.4116 15.8839Z" fill="#252323"/>
</g>
<defs>
<clipPath id="clip0_613_5573">
<rect width="28" height="28" fill="white"/>
</clipPath>
</defs>
</svg>
