<svg width="23" height="23" viewBox="0 0 23 23" fill="none" xmlns="http://www.w3.org/2000/svg">
<g clip-path="url(#clip0_613_5604)">
<path fill-rule="evenodd" clip-rule="evenodd" d="M11.0208 6.46875H5.27075L6.94784 13.8958H13.3193C13.845 12.5034 15.1901 11.5131 16.7666 11.5131C17.3342 11.5131 17.8678 11.6374 18.3433 11.8598L20.6041 6.46875H11.0208Z" fill="#E05149"/>
<path fill-rule="evenodd" clip-rule="evenodd" d="M1.60913 4.69666C1.60913 4.32387 1.91134 4.02166 2.28413 4.02166H4.8522C5.16881 4.02166 5.44288 4.24172 5.51127 4.55086L5.87635 6.20114L5.87683 6.20329L7.44923 13.0989H12.9452C13.6865 11.7513 15.1199 10.8381 16.7666 10.8381C17.1933 10.8381 17.6055 10.8994 17.9951 11.0137L18.4588 9.94697L13.962 9.94697C13.5893 9.94696 13.287 9.64476 13.287 9.27197C13.287 8.89917 13.5893 8.59696 13.962 8.59696L19.0456 8.59697L19.6938 7.10577H11.0528C10.68 7.10577 10.3778 6.80356 10.3778 6.43077C10.3778 6.05797 10.68 5.75577 11.0528 5.75577H20.7232C20.9508 5.75577 21.163 5.87038 21.2877 6.06064C21.4125 6.2509 21.433 6.4912 21.3423 6.69985L19.2161 11.5911C19.6835 11.9092 20.0856 12.3157 20.3983 12.786C20.6047 13.0965 20.5204 13.5154 20.21 13.7218C19.8995 13.9282 19.4806 13.8439 19.2741 13.5335C18.734 12.7211 17.8124 12.1881 16.7666 12.1881C15.1051 12.1881 13.7581 13.535 13.7581 15.1966C13.7581 16.8582 15.1051 18.2051 16.7666 18.2051C18.4282 18.2051 19.7752 16.8582 19.7752 15.1966C19.7752 14.8238 20.0774 14.5216 20.4502 14.5216C20.823 14.5216 21.1252 14.8238 21.1252 15.1966C21.1252 17.6038 19.1738 19.5551 16.7666 19.5551C16.1205 19.5551 15.5072 19.4146 14.9557 19.1623C14.9218 19.1652 14.8875 19.1667 14.8528 19.1667C14.3036 19.1667 13.8407 18.7971 13.6993 18.2931C13.2039 17.8023 12.8256 17.1935 12.6102 16.5123H5.21777C4.95678 16.5123 4.71919 16.3618 4.60759 16.1259C4.49599 15.89 4.5304 15.6109 4.69594 15.4091L6.17917 13.6014L4.55966 6.49916L4.55869 6.4949L4.5587 6.4949L4.31021 5.37166H2.28413C1.91134 5.37166 1.60913 5.06945 1.60913 4.69666ZM12.4082 15.1623C12.4101 14.9192 12.4319 14.6809 12.472 14.4489H7.23011L6.64475 15.1623H12.4082ZM8.45215 19.1667C9.11375 19.1667 9.65007 18.6303 9.65007 17.9687C9.65007 17.3072 9.11375 16.7708 8.45215 16.7708C7.79056 16.7708 7.25424 17.3072 7.25424 17.9687C7.25424 18.6303 7.79056 19.1667 8.45215 19.1667ZM16.7665 12.888C17.1393 12.888 17.4415 13.1902 17.4415 13.563V14.5216H18.4001C18.7729 14.5216 19.0751 14.8238 19.0751 15.1966C19.0751 15.5694 18.7729 15.8716 18.4001 15.8716H17.4415V16.8303C17.4415 17.203 17.1393 17.5053 16.7665 17.5053C16.3937 17.5053 16.0915 17.203 16.0915 16.8303V15.8716H15.9496H15.5412H15.1328C14.76 15.8716 14.4578 15.5694 14.4578 15.1966C14.4578 14.8238 14.76 14.5216 15.1328 14.5216H15.5412H15.9496H16.0915V13.563C16.0915 13.1902 16.3937 12.888 16.7665 12.888Z" fill="#252323"/>
</g>
<defs>
<clipPath id="clip0_613_5604">
<rect width="23" height="23" fill="white"/>
</clipPath>
</defs>
</svg>
