<svg width="18" height="18" viewBox="0 0 18 18" fill="none" xmlns="http://www.w3.org/2000/svg">
<g clip-path="url(#clip0_613_5635)">
<path fill-rule="evenodd" clip-rule="evenodd" d="M8.625 5.0625H4.125L5.4375 10.875H10.4238C10.8352 9.78526 11.888 9.01024 13.1217 9.01024C13.566 9.01024 13.9836 9.10752 14.3557 9.2816L16.125 5.0625H8.625Z" fill="#E05149"/>
<path fill-rule="evenodd" clip-rule="evenodd" d="M0.875 3.5C0.875 3.15482 1.15482 2.875 1.5 2.875H3.5098C3.80295 2.875 4.05672 3.07876 4.12004 3.365L4.4057 4.65623L5.61941 9.9789H10.2373C10.7981 9.14272 11.752 8.59235 12.8345 8.59235C13.0936 8.59235 13.3452 8.62391 13.5859 8.68335L14.0109 7.70568L10.6391 7.70567C10.294 7.70567 10.0141 7.42585 10.0141 7.08067C10.0141 6.73549 10.294 6.45567 10.6391 6.45567L14.5542 6.45568L14.9774 5.48213H8.36245C8.01727 5.48213 7.73745 5.2023 7.73745 4.85713C7.73745 4.51195 8.01727 4.23213 8.36245 4.23213H15.9306C16.1413 4.23213 16.3378 4.33825 16.4533 4.51441C16.5688 4.69058 16.5878 4.91308 16.5038 5.10628L14.715 9.22142C14.9974 9.43448 15.2423 9.6942 15.4383 9.98889C15.6294 10.2763 15.5513 10.6643 15.2639 10.8554C14.9764 11.0465 14.5885 10.9684 14.3973 10.681C14.0604 10.1742 13.486 9.84235 12.8345 9.84235C11.7989 9.84235 10.9595 10.6818 10.9595 11.7174C10.9595 12.7529 11.7989 13.5924 12.8345 13.5924C13.87 13.5924 14.7095 12.7529 14.7095 11.7174C14.7095 11.3722 14.9893 11.0924 15.3345 11.0924C15.6797 11.0924 15.9595 11.3722 15.9595 11.7174C15.9595 13.4432 14.5604 14.8424 12.8345 14.8424C12.4856 14.8424 12.1502 14.7852 11.8369 14.6797C11.6921 14.7713 11.5204 14.8244 11.3364 14.8244C10.8187 14.8244 10.3989 14.4046 10.3989 13.8869C10.3989 13.8224 10.4054 13.7595 10.4178 13.6987C10.2089 13.4442 10.0394 13.1561 9.91863 12.8437H3.79589C3.55424 12.8437 3.33424 12.7044 3.23091 12.486C3.12758 12.2676 3.15944 12.0091 3.31272 11.8223L4.44343 10.4442L3.18653 4.93216L3.18563 4.92822L3.18564 4.92821L3.00795 4.125H1.5C1.15482 4.125 0.875 3.84518 0.875 3.5ZM9.71187 11.5937C9.71668 11.4702 9.72866 11.3484 9.74742 11.2289H5.41653L5.11717 11.5937H9.71187ZM6.32715 14.8244C6.84492 14.8244 7.26465 14.4046 7.26465 13.8869C7.26465 13.3691 6.84492 12.9494 6.32715 12.9494C5.80938 12.9494 5.38965 13.3691 5.38965 13.8869C5.38965 14.4046 5.80938 14.8244 6.32715 14.8244ZM12.8338 10.2036C13.179 10.2036 13.4588 10.4834 13.4588 10.8286V11.0924H13.7226C14.0677 11.0924 14.3476 11.3722 14.3476 11.7174C14.3476 12.0625 14.0677 12.3424 13.7226 12.3424H13.4588V12.6061C13.4588 12.9513 13.179 13.2311 12.8338 13.2311C12.4886 13.2311 12.2088 12.9513 12.2088 12.6061V12.3424H12.1673H11.9451C11.5999 12.3424 11.3201 12.0625 11.3201 11.7174C11.3201 11.3722 11.5999 11.0924 11.9451 11.0924H12.1673H12.2088V10.8286C12.2088 10.4834 12.4886 10.2036 12.8338 10.2036Z" fill="#252323"/>
</g>
<defs>
<clipPath id="clip0_613_5635">
<rect width="18" height="18" fill="white"/>
</clipPath>
</defs>
</svg>
