<svg width="44" height="44" viewBox="0 0 44 44" fill="none" xmlns="http://www.w3.org/2000/svg">
<g clip-path="url(#clip0_190_659)">
<path fill-rule="evenodd" clip-rule="evenodd" d="M21.0833 12.375H10.0833L13.2916 26.5833H25.4804C26.4861 23.9195 29.0594 22.025 32.0752 22.025C33.1612 22.025 34.182 22.2628 35.0916 22.6884L39.4166 12.375H21.0833Z" fill="#E05149"/>
<path fill-rule="evenodd" clip-rule="evenodd" d="M4.00537 8.75995C4.00537 8.34574 4.34116 8.00995 4.75537 8.00995H9.66821C10.02 8.00995 10.3245 8.25447 10.4005 8.59795L11.0998 11.7591C11.1893 12.1636 10.934 12.564 10.5295 12.6534C10.1251 12.7429 9.72472 12.4876 9.63525 12.0831L9.06599 9.50995H4.75537C4.34116 9.50995 4.00537 9.17417 4.00537 8.75995ZM20.7802 12.0774C20.7802 11.6632 21.116 11.3274 21.5302 11.3274H40.0302C40.283 11.3274 40.5188 11.4547 40.6574 11.6661C40.796 11.8775 40.8188 12.1445 40.718 12.3764L36.4668 22.1565C37.4639 22.7548 38.316 23.5694 38.958 24.535C39.1873 24.8799 39.0936 25.3454 38.7487 25.5748C38.4037 25.8041 37.9382 25.7104 37.7089 25.3655C36.5795 23.6669 34.6506 22.5501 32.4611 22.5501C28.9835 22.5501 26.1643 25.3692 26.1643 28.8468C26.1643 32.3244 28.9835 35.1436 32.4611 35.1436C35.9387 35.1436 38.7579 32.3244 38.7579 28.8468C38.7579 28.4326 39.0936 28.0968 39.5079 28.0968C39.9221 28.0968 40.2579 28.4326 40.2579 28.8468C40.2579 33.1529 36.7671 36.6436 32.4611 36.6436C31.5418 36.6436 30.6596 36.4845 29.8406 36.1923C29.5283 36.3517 29.1745 36.4417 28.7998 36.4417C27.5341 36.4417 26.5081 35.4157 26.5081 34.15C26.5081 34.0649 26.5128 33.9809 26.5218 33.8982C25.7737 33.0195 25.2172 31.9727 24.9168 30.8225H10.3675C10.0825 30.8225 9.8221 30.6609 9.69553 30.4055C9.56897 30.1501 9.59812 29.845 9.77077 29.6182L11.2626 27.6584C11.5134 27.3288 11.984 27.265 12.3136 27.5159C12.6432 27.7668 12.707 28.2374 12.4561 28.567L11.881 29.3225H24.6786C24.6691 29.1651 24.6643 29.0065 24.6643 28.8468C24.6643 28.1656 24.7517 27.5048 24.9158 26.8751H13.6064C13.2546 26.8751 12.9501 26.6305 12.8741 26.2871L10.497 15.5415C10.4075 15.137 10.6628 14.7367 11.0673 14.6472C11.4717 14.5577 11.8721 14.813 11.9616 15.2175L14.2086 25.3751H25.478C26.7551 22.8114 29.4024 21.0501 32.4611 21.0501C33.3916 21.0501 34.284 21.2131 35.1113 21.5121L36.5237 18.2627L27.0956 18.2627C26.6814 18.2627 26.3456 17.9269 26.3456 17.5127C26.3456 17.0985 26.6814 16.7627 27.0956 16.7627L37.1758 16.7627L38.8864 12.8274H21.5302C21.116 12.8274 20.7802 12.4916 20.7802 12.0774ZM17.3467 34.15C17.3467 34.5873 16.9923 34.9417 16.5551 34.9417C16.1178 34.9417 15.7634 34.5873 15.7634 34.15C15.7634 33.7128 16.1178 33.3584 16.5551 33.3584C16.9923 33.3584 17.3467 33.7128 17.3467 34.15ZM18.8467 34.15C18.8467 35.4157 17.8207 36.4417 16.5551 36.4417C15.2894 36.4417 14.2634 35.4157 14.2634 34.15C14.2634 32.8844 15.2894 31.8584 16.5551 31.8584C17.8207 31.8584 18.8467 32.8844 18.8467 34.15ZM32.4611 24.2784C32.8753 24.2784 33.2111 24.6142 33.2111 25.0284V28.0968H36.2795C36.6937 28.0968 37.0295 28.4326 37.0295 28.8468C37.0295 29.261 36.6937 29.5968 36.2795 29.5968H33.2111V32.6652C33.2111 33.0794 32.8753 33.4152 32.4611 33.4152C32.0469 33.4152 31.7111 33.0794 31.7111 32.6652V29.5968H30.5519H29.5973H28.6428C28.2285 29.5968 27.8928 29.261 27.8928 28.8468C27.8928 28.4326 28.2285 28.0968 28.6428 28.0968H29.5973H30.5519H31.7111V25.0284C31.7111 24.6142 32.0469 24.2784 32.4611 24.2784Z" fill="#252323"/>
</g>
<defs>
<clipPath id="clip0_190_659">
<rect width="44" height="44" fill="white"/>
</clipPath>
</defs>
</svg>
