<svg width="18" height="18" viewBox="0 0 18 18" fill="none" xmlns="http://www.w3.org/2000/svg">
<g clip-path="url(#clip0_613_5669)">
<path d="M3.63477 3C3.92792 3 4.18179 3.204 4.24512 3.49023L4.53027 4.7793L5.74414 10.1035H10.5801C11.1498 9.33928 12.0585 8.84277 13.085 8.84277C13.2856 8.8428 13.4818 8.86128 13.6719 8.89746L14.1357 7.83105H10.7637C10.4188 7.83079 10.1399 7.55089 10.1396 7.20605C10.1396 6.86088 10.4195 6.58105 10.7646 6.58105H14.6797L15.1025 5.60742H8.4873C8.14229 5.60734 7.86246 5.32742 7.8623 4.98242C7.8623 4.63729 8.14219 4.3575 8.4873 4.35742H16.0557C16.2663 4.35744 16.4626 4.4635 16.5781 4.63965C16.6936 4.8158 16.7129 5.03828 16.6289 5.23145L14.8271 9.375C15.1676 9.60432 15.4615 9.89796 15.6885 10.2393C15.879 10.5265 15.8015 10.9143 15.5146 11.1055C15.2274 11.2965 14.8387 11.2187 14.6475 10.9316C14.3106 10.425 13.7363 10.0929 13.085 10.0928C12.0494 10.0928 11.21 10.9322 11.21 11.9678C11.2102 13.0031 12.0496 13.8428 13.085 13.8428C14.1201 13.8425 14.9597 13.003 14.96 11.9678C14.96 11.6226 15.2398 11.3428 15.585 11.3428C15.9299 11.343 16.21 11.6228 16.21 11.9678C16.2097 13.6933 14.8105 15.0925 13.085 15.0928C12.6572 15.0928 12.2492 15.0061 11.8779 14.8506C11.7523 14.9131 11.6108 14.9492 11.4609 14.9492C10.9434 14.949 10.5244 14.5293 10.5244 14.0117C10.5244 13.936 10.5338 13.8625 10.5508 13.792C10.3706 13.5422 10.2246 13.2663 10.124 12.9688H3.9209C3.67928 12.9688 3.45882 12.8297 3.35547 12.6113C3.25215 12.3929 3.28428 12.1341 3.4375 11.9473L4.56836 10.5684L3.31152 5.05762L3.31055 5.05273L3.13281 4.25H1.625C1.27982 4.25 1 3.97018 1 3.625C1 3.27982 1.27982 3 1.625 3H3.63477ZM6.45215 13.0742C6.96987 13.0742 7.38958 13.494 7.38965 14.0117C7.38965 14.5295 6.96992 14.9492 6.45215 14.9492C5.93438 14.9492 5.51465 14.5295 5.51465 14.0117C5.51472 13.494 5.93443 13.0742 6.45215 13.0742ZM12.959 10.3281C13.3039 10.3283 13.5837 10.6082 13.584 10.9531V11.2168H13.8477C14.1925 11.2169 14.4724 11.497 14.4727 11.8418C14.4727 12.1869 14.1927 12.4667 13.8477 12.4668H13.584V12.7305C13.584 13.0756 13.3041 13.3553 12.959 13.3555C12.6138 13.3554 12.334 13.0756 12.334 12.7305V12.4668H12.0703C11.7251 12.4668 11.4453 12.187 11.4453 11.8418C11.4456 11.4969 11.7253 11.2168 12.0703 11.2168H12.334V10.9531C12.3342 10.6082 12.614 10.3282 12.959 10.3281ZM5.54199 11.3535L5.24219 11.7188H9.9707C9.98046 11.5948 9.99671 11.473 10.0205 11.3535H5.54199Z" fill="#332A2A"/>
</g>
<defs>
<clipPath id="clip0_613_5669">
<rect width="18" height="18" fill="white"/>
</clipPath>
</defs>
</svg>
