<svg width="44" height="44" viewBox="0 0 44 44" fill="none" xmlns="http://www.w3.org/2000/svg">
<g clip-path="url(#clip0_613_5666)">
<path fill-rule="evenodd" clip-rule="evenodd" d="M12.314 27.5158C11.9844 27.2649 11.5131 27.3288 11.2622 27.6584L9.771 29.6184C9.59835 29.8452 9.56924 30.1501 9.6958 30.4055C9.82238 30.6608 10.0827 30.8225 10.3677 30.8225H24.9168C25.2172 31.9728 25.7738 33.0196 26.5218 33.8983C26.5128 33.9811 26.5081 34.0652 26.5081 34.1504L26.5198 34.3847C26.6295 35.4632 27.4872 36.3202 28.5657 36.4297L28.8001 36.4414C29.1746 36.4413 29.528 36.3515 29.8401 36.1922C30.6592 36.4846 31.5416 36.6438 32.4612 36.6438C36.7672 36.6437 40.258 33.1529 40.2581 28.8469C40.2581 28.4328 39.9222 28.0971 39.5081 28.0969C39.0939 28.0969 38.7581 28.4327 38.7581 28.8469C38.758 32.3244 35.9387 35.1437 32.4612 35.1438C28.9837 35.1438 26.1644 32.3245 26.1643 28.8469C26.1643 25.3693 28.9836 22.5501 32.4612 22.5501C34.6506 22.5501 36.5799 23.667 37.7093 25.3655C37.9386 25.7102 38.4035 25.8037 38.7483 25.5745C39.0931 25.3452 39.1872 24.8803 38.9583 24.5354C38.3162 23.5697 37.4638 22.7548 36.4663 22.1564L40.7183 12.3762C40.8189 12.1445 40.7962 11.8775 40.6577 11.6662C40.5191 11.4548 40.2826 11.3273 40.0298 11.3273H21.5298C21.1158 11.3276 20.7798 11.6633 20.7798 12.0773C20.7798 12.4914 21.1158 12.8271 21.5298 12.8273H38.8862L37.1754 16.7627L27.0957 16.7627C26.6815 16.7627 26.3457 17.0985 26.3457 17.5127C26.3457 17.9269 26.6815 18.2627 27.0957 18.2627L36.5233 18.2627L35.1107 21.512C34.2836 21.2131 33.3914 21.0501 32.4612 21.0501C29.4025 21.0501 26.7551 22.8114 25.4781 25.3752H14.2085L11.9614 15.218C11.872 14.8135 11.4713 14.5582 11.0669 14.6476C10.6628 14.7373 10.4074 15.137 10.4966 15.5412L12.8745 26.2873C12.9506 26.6305 13.2545 26.875 13.606 26.8752H24.9158C24.7517 27.505 24.6643 28.1658 24.6643 28.8469C24.6643 29.0066 24.6691 29.1652 24.6786 29.3225H11.8813L12.4565 28.5666C12.707 28.2371 12.6432 27.7666 12.314 27.5158ZM10.4009 8.59785C10.3344 8.29722 10.0925 8.07211 9.79736 8.0207L9.66846 8.00995H4.75537C4.34116 8.00995 4.00537 8.34574 4.00537 8.75995C4.00537 9.17417 4.34116 9.50995 4.75537 9.50995H9.06592L9.63525 12.0832C9.72475 12.4876 10.1254 12.743 10.5298 12.6535C10.9341 12.5639 11.1896 12.1633 11.1001 11.759L10.4009 8.59785ZM16.5554 33.3584C16.9925 33.3585 17.3464 33.7132 17.3464 34.1504C17.3462 34.5873 16.9924 34.9412 16.5554 34.9414C16.1183 34.9414 15.7636 34.5874 15.7634 34.1504C15.7634 33.7131 16.1182 33.3584 16.5554 33.3584ZM16.321 36.4297L16.5554 36.4414C17.7417 36.4412 18.7172 35.54 18.8347 34.3847L18.8464 34.1504C18.8464 32.9639 17.9452 31.9876 16.7898 31.8701L16.5554 31.8584C15.2897 31.8584 14.2634 32.8847 14.2634 34.1504L14.2751 34.3847C14.3848 35.4632 15.2425 36.3202 16.321 36.4297ZM31.7111 32.6652V29.5968H28.6428C28.2285 29.5968 27.8928 29.261 27.8928 28.8468C27.8928 28.4326 28.2285 28.0968 28.6428 28.0968H31.7111V25.0284C31.7111 24.6142 32.0469 24.2784 32.4611 24.2784C32.8753 24.2784 33.2111 24.6142 33.2111 25.0284V28.0968H36.2795C36.6937 28.0968 37.0295 28.4326 37.0295 28.8468C37.0295 29.261 36.6937 29.5968 36.2795 29.5968H33.2111V32.6652C33.2111 33.0794 32.8753 33.4152 32.4611 33.4152C32.0469 33.4152 31.7111 33.0794 31.7111 32.6652Z" fill="#332A2A"/>
</g>
<defs>
<clipPath id="clip0_613_5666">
<rect width="44" height="44" fill="white"/>
</clipPath>
</defs>
</svg>
