<svg width="28" height="28" viewBox="0 0 28 28" fill="none" xmlns="http://www.w3.org/2000/svg">
<g clip-path="url(#clip0_1030_11090)">
<path d="M16.6277 16.2708H12.155C11.6418 16.2708 11.1483 16.0736 10.7765 15.7199L7.0632 12.1875L4.91698 10.1458L3.43572 8.73673C3.0596 8.37894 3.0198 7.79286 3.34408 7.3875L3.74673 6.88419C4.4775 5.97073 5.83282 5.8767 6.68272 6.6805L11.9465 11.6588C12.5036 12.1856 13.2412 12.4792 14.0079 12.4792H14.9448C15.7404 12.4792 16.5035 12.1631 17.0661 11.6005L17.9337 10.7328C18.4963 10.1702 19.2594 9.85417 20.0551 9.85417H20.5211H22.2299H23.6473C24.7519 9.85417 25.6473 10.7496 25.6473 11.8542V12.5486C25.6473 13.1009 25.1996 13.5486 24.6473 13.5486H22.6371H21.132C20.1863 13.5486 19.2977 14.0009 18.7412 14.7656L18.2448 15.4477C17.8684 15.9649 17.2674 16.2708 16.6277 16.2708Z" fill="#E05149"/>
<path fill-rule="evenodd" clip-rule="evenodd" d="M10.0304 8.49757L8.02916 6.57547C8.16243 6.55631 8.32302 6.56504 8.51286 6.62832C8.79382 6.72197 9.20166 6.99573 9.54612 7.37151C9.90932 7.76773 10.0417 8.09982 10.0417 8.25014C10.0417 8.3452 10.0374 8.42701 10.0304 8.49757ZM8.98718 5.20529C8.27108 4.9666 7.63439 5.06223 7.14929 5.2907C6.92847 5.39471 6.72824 5.53194 6.56343 5.68559C5.43244 5.10474 3.99851 5.36891 3.16108 6.4157L2.75843 6.91901C2.19093 7.62838 2.26059 8.65404 2.91879 9.28017L4.40005 10.6893C4.70016 10.9748 5.17489 10.9629 5.46038 10.6628C5.74587 10.3627 5.73402 9.88795 5.43391 9.60246L3.95264 8.19336C3.85861 8.10392 3.84866 7.95739 3.92974 7.85606L4.33239 7.35274C4.78912 6.78183 5.63619 6.72306 6.16738 7.22544L11.4312 12.2037C12.1275 12.8623 13.0495 13.2292 14.0079 13.2292H14.9448C15.9393 13.2292 16.8932 12.8341 17.5964 12.1308L18.4641 11.2632C18.886 10.8413 19.4583 10.6042 20.0551 10.6042H20.5211C20.9354 10.6042 21.2711 10.2684 21.2711 9.8542C21.2711 9.43999 20.9354 9.1042 20.5211 9.1042H20.0551C19.0605 9.1042 18.1067 9.49929 17.4034 10.2025L16.5358 11.0702C16.1138 11.4921 15.5415 11.7292 14.9448 11.7292H14.0079C13.4329 11.7292 12.8797 11.509 12.4619 11.1139L11.1018 9.82763C11.1642 9.74101 11.2253 9.64336 11.2802 9.53347C11.4541 9.18575 11.5417 8.7727 11.5417 8.25014C11.5417 7.52546 11.0907 6.83672 10.6519 6.35793C10.1943 5.85872 9.58126 5.40331 8.98718 5.20529ZM2.33325 17.9169C1.91904 17.9169 1.58325 18.2527 1.58325 18.6669C1.58325 19.0811 1.91904 19.4169 2.33325 19.4169H2.33833H2.34341H2.34848H2.35355H2.35862H2.36369H2.36876H2.37382H2.37888H2.38394H2.389H2.39405H2.3991H2.40415H2.4092H2.41424H2.41929H2.42433H2.42937H2.4344H2.43944H2.44447H2.4495H2.45452H2.45955H2.46457H2.46959H2.47461H2.47963H2.48464H2.48965H2.49466H2.49967H2.50467H2.50968H2.51468H2.51967H2.52467H2.52966H2.53466H2.53965H2.54463H2.54962H2.5546H2.55958H2.56456H2.56954H2.57451H2.57948H2.58445H2.58942H2.59439H2.59935H2.60431H2.60927H2.61422H2.61918H2.62413H2.62908H2.63403H2.63898H2.64392H2.64886H2.6538H2.65874H2.66367H2.6686H2.67353H2.67846H2.68339H2.68831H2.69323H2.69815H2.70307H2.70799H2.7129H2.71781H2.72272H2.72763H2.73253H2.73743H2.74233H2.74723H2.75213H2.75702H2.76191H2.7668H2.77169H2.77657H2.78146H2.78634H2.79122H2.79609H2.80097H2.80584H2.81071H2.81558H2.82044H2.82531H2.83017H2.83503H2.83988H2.84474H2.84959H2.85444H2.85929H2.86414H2.86898H2.87383H2.87867H2.8835H2.88834H2.89317H2.89801H2.90284H2.90766H2.91249H2.91731H2.92213H2.92695H2.93177H2.93658H2.9414H2.94621H2.95102H2.95582H2.96063H2.96543H2.97023H2.97503H2.97983H2.98462H2.98941H2.9942H2.99899H3.00377H3.00856H3.01334H3.01812H3.0229H3.02767H3.03244H3.03722H3.04198H3.04675H3.05152H3.05628H3.06104H3.0658H3.07056H3.07531H3.08006H3.08481H3.08956H3.09431H3.09905H3.10379H3.10853H3.11327H3.11801H3.12274H3.12747H3.1322H3.13693H3.14166H3.14638H3.1511H3.15582H3.16054H3.16525H3.16997H3.17468H3.17939H3.1841H3.1888H3.1935H3.19821H3.2029H3.2076H3.2123H3.21699H3.22168H3.22637H3.23106H3.23574H3.24043H3.24511H3.24978H3.25446H3.25914H3.26381H3.26848H3.27315H3.27782H3.28248H3.28714H3.2918H3.29646H3.30112H3.30577H3.31043H3.31508H3.31973H3.32437H3.32902H3.33366H3.3383H3.34294H3.34758H3.35221H3.35684H3.36148H3.3661H3.37073H3.37536H3.37998H3.3846H3.38922H3.39384H3.39845H3.40306H3.40767H3.41228H3.41689H3.4215H3.4261H3.4307H3.4353H3.4399H3.44449H3.44908H3.45368H3.45826H3.46285H3.46744H3.47202H3.4766H3.48118H3.48576H3.49033H3.49491H3.49948H3.50405H3.50862H3.51318H3.51775H3.52231H3.52687H3.53143H3.53598H3.54054H3.54509H3.54964H3.55419H3.55873H3.56328H3.56782H3.57236H3.5769H3.58144H3.58597H3.59051H3.59504H3.59957H3.60409H3.60862H3.61314H3.61766H3.62218H3.6267H3.63121H3.63573H3.64024H3.64475H3.64926H3.65376H3.65827H3.66277H3.66727H3.67177H3.67627H3.68076H3.68525H3.68974H3.69423H3.69872H3.7032H3.70769H3.71217H3.71665H3.72113H3.7256H3.73008H3.73455H3.73902H3.74349H3.74795H3.75242H3.75688H3.76134H3.7658H3.77025H3.77471H3.77916H3.78361H3.78806H3.79251H3.79696H3.8014H3.80584H3.81028H3.81472H3.81916H3.82359H3.82802H3.83245H3.83688H3.84131H3.84573H3.85016H3.85458H3.859H3.86342H3.86783H3.87225H3.87666H3.88107H3.88548H3.88988H3.89429H3.89869H3.90309H3.90749H3.91189H3.91628H3.91659V21.0002C3.91659 21.4144 4.25237 21.7502 4.66659 21.7502C5.0808 21.7502 5.41659 21.4144 5.41659 21.0002V19.4169H5.43642H5.45646H5.47646H5.49643H5.51636H5.53625H5.55611H5.57592H5.5957H5.61545H5.63516H5.65483H5.67447H5.69407H5.71363H5.73316H5.75265H5.77211H5.79154H5.81093H5.83028H5.8496H5.86889H5.88814H5.90736H5.92655H5.9457H5.96482H5.9839H6.00296H6.02198H6.04097H6.05992H6.07885H6.09774H6.1166H6.13543H6.15422H6.17299H6.19173H6.21043H6.2291H6.24775H6.26636H6.28495H6.3035H6.32202H6.34052H6.35898H6.37742H6.39583H6.41421H6.43256H6.45088H6.46917H6.48744H6.50568H6.52389H6.54207H6.56023H6.57835H6.59646H6.61453H6.63258H6.6506H6.6686H6.68657H6.70451H6.72243H6.74033H6.7582H6.77604H6.79386H6.81165H6.82942H6.84717H6.86489H6.88259H6.90026H6.91791H6.93554H6.95314H6.97072H6.98828H7.00582H7.02333H7.04082H7.05829H7.07574H7.09317H7.11057H7.12795H7.14531H7.16266H7.17998H7.19728H7.21456H7.23181H7.24905H7.26627H7.28347H7.30065H7.31782H7.33496H7.35208H7.36919H7.38627H7.40334H7.42039H7.43742H7.45444H7.47143H7.48841H7.50538H7.52232H7.53925H7.55616H7.57306H7.58994H7.6068H7.62365H7.64048H7.65729H7.6741H7.69088H7.70765H7.72441H7.74115H7.75788H7.77459H7.79129H7.80797H7.82464H7.8413H7.85795H7.87458H7.8912H7.9078H7.9244H7.94098H7.95755H7.9741H7.99065H8.00718H8.0237H8.04021H8.05671H8.0732H8.08968H8.10615H8.12261H8.13905H8.15549H8.17192H8.18834H8.20475H8.22115H8.23754H8.25392H8.27029H8.28666H8.30301H8.31936H8.3357H8.35204H8.36836H8.38468H8.40099H8.41729H8.43359H8.44988H8.46617H8.48245H8.49872H8.51498H8.53124H8.5475H8.56375H8.57999H8.59623H8.61247H8.6287H8.64493H8.66115H8.67737H8.69358H8.70979H8.726H8.7422H8.75841H8.7746H8.7908H8.80699H8.82318H8.83937H8.85556H8.87174H8.88793H8.90411H8.92029H8.93647H8.95265H8.96883H8.98501H9.00118H9.01736H9.03354H9.04972H9.0659H9.08208H9.09826H9.11444H9.13062H9.14681H9.16299H9.17918H9.19537H9.21156H9.22775H9.24395H9.26015H9.27635H9.29256H9.30876H9.32498H9.34119H9.35741H9.37364H9.38986H9.4061H9.42233H9.43857H9.45482H9.47107H9.48733H9.50359H9.51986H9.53613H9.55241H9.5687H9.58499H9.60129H9.6176H9.63391H9.65023H9.66656H9.68289H9.69924H9.71559H9.73195H9.74832H9.76469H9.78108H9.79747H9.81387H9.83028H9.8467H9.86314H9.87958H9.89603H9.91249H9.92896H9.94544H9.96193H9.97844H9.99495H10.0115H10.028H10.0446H10.0611H10.0777H10.0943H10.1109H10.1275H10.1441H10.1607H10.1774H10.1941H10.2107H10.2274H10.2441H10.2608H10.2776H10.2943H10.3111H10.3279H10.3446H10.3614H10.3783H10.3951H10.412H10.4288H10.4457H10.4626H10.4795H10.4965H10.5134H10.5304H10.5474H10.5644H10.5814H10.5984H10.6155H10.6326H10.6496H10.6668H10.6839H10.701H10.7182H10.7354H10.7526H10.7698H10.7871H10.8043H10.8216H10.8389H10.8562H10.8736H10.891H10.9084H10.9258H10.9432H10.9607H10.9781H10.9956H11.0131H11.0307H11.0483H11.0658H11.0835H11.1011H11.1187H11.1364H11.1541H11.1719H11.1896H11.2074H11.2252H11.243H11.2609H11.2787H11.2966H11.3146H11.3325H11.3505H11.3685H11.3865H11.4046H11.4227H11.4408H11.4589H11.4771H11.4953H11.5135H11.5318H11.55H11.5683H11.5867H11.605H11.6234H11.6418H11.6603H11.6787H11.6972H11.7158H11.7343H11.7529H11.7716H11.7902H11.8089H11.8276H11.8464H11.8651H11.8839H11.9028H11.9216H11.9405H11.9595H11.9784H11.9974H12.0165H12.0355H12.0546H12.0738H12.0929H12.1121H12.1314H12.1506H12.1699H12.1892H12.2086H12.228H12.2474H12.2669H12.2864H12.306H12.3255H12.3451H12.3648H12.3845H12.4042H12.424H12.4437H12.4636H12.4834H12.5033H12.5233H12.5433H12.5633H12.5833H12.6034H12.6236H12.6437H12.6639H12.6842H12.7045H12.7248H12.7451H12.7655H12.786H12.8065H12.827H12.8476H12.8682H12.8888H12.9095H12.9302H12.951H12.9718H12.9926H13.0135H13.0345H13.0554H13.0765H13.0975H13.1186H13.1398H13.161H13.1822H13.2035H13.2248H13.2462H13.2676H13.289H13.3105H13.332H13.3536H13.3753H13.3969H13.4187H13.4404H13.4622H13.4841H13.506H13.528H13.5499H13.572H13.5941H13.6162H13.6384H13.6606H13.6829H13.7052H13.7276H13.75H13.7725H13.795H13.8176H13.8402H13.8629H13.8856H13.9084H13.9312H13.954H13.977H13.9999H18.7559H22.5833V21.0002C22.5833 21.4144 22.919 21.7502 23.3333 21.7502C23.7475 21.7502 24.0833 21.4144 24.0833 21.0002V19.4169H24.4366H25.6666C26.0808 19.4169 26.4166 19.0811 26.4166 18.6669C26.4166 18.2527 26.0808 17.9169 25.6666 17.9169H24.4366H23.3333H19.6317L20.7647 16.36C20.8118 16.2954 20.8869 16.2571 20.9669 16.2571H22.8046C23.1525 16.2571 23.445 16.0203 23.5298 15.6991C23.6146 16.0203 23.9072 16.2571 24.255 16.2571H25.5208C25.935 16.2571 26.2708 15.9214 26.2708 15.5071C26.2708 15.0929 25.935 14.7571 25.5208 14.7571H24.255C23.9072 14.7571 23.6146 14.994 23.5298 15.3152C23.445 14.994 23.1525 14.7571 22.8046 14.7571H20.9669C20.4072 14.7571 19.8813 15.0249 19.5519 15.4774L18.1698 17.3765C18.1228 17.4411 18.0477 17.4794 17.9677 17.4794H11.1717C11.1076 17.4794 11.046 17.4547 10.9995 17.4106L2.84994 9.66491C2.5497 9.37955 2.07498 9.39161 1.78962 9.69185C1.50426 9.99209 1.51633 10.4668 1.81657 10.7522L9.35486 17.9169H9.34119H9.32498H9.30876H9.29256H9.27635H9.26015H9.24395H9.22775H9.21156H9.19537H9.17918H9.16299H9.14681H9.13062H9.11444H9.09826H9.08208H9.0659H9.04972H9.03354H9.01736H9.00118H8.98501H8.96883H8.95265H8.93647H8.92029H8.90411H8.88793H8.87174H8.85556H8.83937H8.82318H8.80699H8.7908H8.7746H8.75841H8.7422H8.726H8.70979H8.69358H8.67737H8.66115H8.64493H8.6287H8.61247H8.59623H8.57999H8.56375H8.5475H8.53124H8.51498H8.49872H8.48245H8.46617H8.44988H8.43359H8.41729H8.40099H8.38468H8.36836H8.35204H8.3357H8.31936H8.30301H8.28666H8.27029H8.25392H8.23754H8.22115H8.20475H8.18834H8.17192H8.15549H8.13905H8.12261H8.10615H8.08968H8.0732H8.05671H8.04021H8.0237H8.00718H7.99065H7.9741H7.95755H7.94098H7.9244H7.9078H7.8912H7.87458H7.85795H7.8413H7.82464H7.80797H7.79129H7.77459H7.75788H7.74115H7.72441H7.70765H7.69088H7.6741H7.65729H7.64048H7.62365H7.6068H7.58994H7.57306H7.55616H7.53925H7.52232H7.50538H7.48841H7.47143H7.45444H7.43742H7.42039H7.40334H7.38627H7.36919H7.35208H7.33496H7.31782H7.30065H7.28347H7.26627H7.24905H7.23181H7.21456H7.19728H7.17998H7.16266H7.14531H7.12795H7.11057H7.09317H7.07574H7.05829H7.04082H7.02333H7.00582H6.98828H6.97072H6.95314H6.93554H6.91791H6.90026H6.88259H6.86489H6.84717H6.82942H6.81165H6.79386H6.77604H6.7582H6.74033H6.72243H6.70451H6.68657H6.6686H6.6506H6.63258H6.61453H6.59646H6.57835H6.56023H6.54207H6.52389H6.50568H6.48744H6.46917H6.45088H6.43256H6.41421H6.39583H6.37742H6.35898H6.34052H6.32202H6.3035H6.28495H6.26636H6.24775H6.2291H6.21043H6.19173H6.17299H6.15422H6.13543H6.1166H6.09774H6.07885H6.05992H6.04097H6.02198H6.00296H5.9839H5.96482H5.9457H5.92655H5.90736H5.88814H5.86889H5.8496H5.83028H5.81093H5.79154H5.77211H5.75265H5.73316H5.71363H5.69407H5.67447H5.65483H5.63516H5.61545H5.5957H5.57592H5.55611H5.53625H5.51636H5.49643H5.47646H5.45646H5.43642H5.41634H5.39622H5.37606H5.35587H5.33564H5.31536H5.29505H5.2747H5.25431H5.23388H5.21341H5.1929H5.17235H5.15176H5.13113H5.11046H5.08974H5.06899H5.04819H5.02735H5.00648H4.98555H4.96459H4.94359H4.92254H4.90145H4.88032H4.85914H4.83792H4.81666H4.79535H4.774H4.75261H4.73117H4.70969H4.68816H4.66659H4.6625H4.6584H4.65431H4.65021H4.64612H4.64202H4.63792H4.63382H4.62971H4.62561H4.6215H4.61739H4.61328H4.60917H4.60506H4.60094H4.59682H4.59271H4.58859H4.58447H4.58034H4.57622H4.57209H4.56796H4.56383H4.5597H4.55557H4.55143H4.5473H4.54316H4.53902H4.53488H4.53074H4.52659H4.52244H4.5183H4.51415H4.51H4.50584H4.50169H4.49753H4.49338H4.48922H4.48505H4.48089H4.47673H4.47256H4.46839H4.46422H4.46005H4.45588H4.45171H4.44753H4.44335H4.43917H4.43499H4.43081H4.42662H4.42244H4.41825H4.41406H4.40987H4.40567H4.40148H4.39728H4.39309H4.38889H4.38468H4.38048H4.37628H4.37207H4.36786H4.36365H4.35944H4.35523H4.35101H4.34679H4.34258H4.33836H4.33413H4.32991H4.32569H4.32146H4.31723H4.313H4.30877H4.30453H4.3003H4.29606H4.29182H4.28758H4.28334H4.27909H4.27485H4.2706H4.26635H4.2621H4.25785H4.25359H4.24934H4.24508H4.24082H4.23656H4.23229H4.22803H4.22376H4.21949H4.21522H4.21095H4.20668H4.2024H4.19812H4.19384H4.18956H4.18528H4.181H4.17671H4.17242H4.16813H4.16384H4.15955H4.15525H4.15096H4.14666H4.14236H4.13806H4.13375H4.12945H4.12514H4.12083H4.11652H4.11221H4.10789H4.10358H4.09926H4.09494H4.09062H4.0863H4.08197H4.07764H4.07331H4.06898H4.06465H4.06032H4.05598H4.05165H4.04731H4.04296H4.03862H4.03428H4.02993H4.02558H4.02123H4.01688H4.01253H4.00817H4.00381H3.99945H3.99509H3.99073H3.98637H3.982H3.97763H3.97326H3.96889H3.96452H3.96014H3.95576H3.95138H3.947H3.94262H3.93824H3.93385H3.92946H3.92507H3.92068H3.91628H3.91189H3.90749H3.90309H3.89869H3.89429H3.88988H3.88548H3.88107H3.87666H3.87225H3.86783H3.86342H3.859H3.85458H3.85016H3.84573H3.84131H3.83688H3.83245H3.82802H3.82359H3.81916H3.81472H3.81028H3.80584H3.8014H3.79696H3.79251H3.78806H3.78361H3.77916H3.77471H3.77025H3.7658H3.76134H3.75688H3.75242H3.74795H3.74349H3.73902H3.73455H3.73008H3.7256H3.72113H3.71665H3.71217H3.70769H3.7032H3.69872H3.69423H3.68974H3.68525H3.68076H3.67627H3.67177H3.66727H3.66277H3.65827H3.65376H3.64926H3.64475H3.64024H3.63573H3.63121H3.6267H3.62218H3.61766H3.61314H3.60862H3.60409H3.59957H3.59504H3.59051H3.58597H3.58144H3.5769H3.57236H3.56782H3.56328H3.55873H3.55419H3.54964H3.54509H3.54054H3.53598H3.53143H3.52687H3.52231H3.51775H3.51318H3.50862H3.50405H3.49948H3.49491H3.49033H3.48576H3.48118H3.4766H3.47202H3.46744H3.46285H3.45826H3.45368H3.44908H3.44449H3.4399H3.4353H3.4307H3.4261H3.4215H3.41689H3.41228H3.40767H3.40306H3.39845H3.39384H3.38922H3.3846H3.37998H3.37536H3.37073H3.3661H3.36148H3.35684H3.35221H3.34758H3.34294H3.3383H3.33366H3.32902H3.32437H3.31973H3.31508H3.31043H3.30577H3.30112H3.29646H3.2918H3.28714H3.28248H3.27782H3.27315H3.26848H3.26381H3.25914H3.25446H3.24978H3.24511H3.24042H3.23574H3.23106H3.22637H3.22168H3.21699H3.2123H3.2076H3.2029H3.19821H3.1935H3.1888H3.1841H3.17939H3.17468H3.16997H3.16525H3.16054H3.15582H3.1511H3.14638H3.14166H3.13693H3.1322H3.12747H3.12274H3.11801H3.11327H3.10853H3.10379H3.09905H3.09431H3.08956H3.08481H3.08006H3.07531H3.07056H3.0658H3.06104H3.05628H3.05152H3.04675H3.04198H3.03722H3.03244H3.02767H3.0229H3.01812H3.01334H3.00856H3.00377H2.99899H2.9942H2.98941H2.98462H2.97983H2.97503H2.97023H2.96543H2.96063H2.95582H2.95102H2.94621H2.9414H2.93658H2.93177H2.92695H2.92213H2.91731H2.91249H2.90766H2.90284H2.89801H2.89317H2.88834H2.8835H2.87867H2.87383H2.86898H2.86414H2.85929H2.85444H2.84959H2.84474H2.83988H2.83503H2.83017H2.82531H2.82044H2.81558H2.81071H2.80584H2.80097H2.79609H2.79122H2.78634H2.78146H2.77657H2.77169H2.7668H2.76191H2.75702H2.75213H2.74723H2.74233H2.73743H2.73253H2.72763H2.72272H2.71781H2.7129H2.70799H2.70307H2.69815H2.69323H2.68831H2.68339H2.67846H2.67353H2.6686H2.66367H2.65874H2.6538H2.64886H2.64392H2.63897H2.63403H2.62908H2.62413H2.61918H2.61422H2.60927H2.60431H2.59935H2.59439H2.58942H2.58445H2.57948H2.57451H2.56954H2.56456H2.55958H2.5546H2.54962H2.54463H2.53965H2.53466H2.52966H2.52467H2.51967H2.51468H2.50968H2.50467H2.49967H2.49466H2.48965H2.48464H2.47963H2.47461H2.46959H2.46457H2.45955H2.45452H2.4495H2.44447H2.43944H2.4344H2.42937H2.42433H2.41929H2.41424H2.4092H2.40415H2.3991H2.39405H2.389H2.38394H2.37888H2.37382H2.36876H2.36369H2.35862H2.35355H2.34848H2.34341H2.33833H2.33325ZM22.2299 9.1042C21.8157 9.1042 21.4799 9.43999 21.4799 9.8542C21.4799 10.2684 21.8157 10.6042 22.2299 10.6042H23.6473C24.3377 10.6042 24.8973 11.1638 24.8973 11.8542V12.5486C24.8973 12.6867 24.7854 12.7986 24.6473 12.7986H22.6371H21.132C19.9465 12.7986 18.8324 13.3657 18.1348 14.3243L17.6384 15.0064C17.4031 15.3296 17.0275 15.5209 16.6277 15.5209H12.155C11.8343 15.5209 11.5258 15.3976 11.2934 15.1765L7.58013 11.6441C7.28002 11.3586 6.80529 11.3705 6.5198 11.6706C6.23431 11.9707 6.24616 12.4454 6.54628 12.7309L10.2596 16.2633C10.7708 16.7496 11.4494 17.0209 12.155 17.0209H16.6277C17.5072 17.0209 18.3337 16.6002 18.8512 15.889L19.3476 15.2069C19.763 14.6362 20.4262 14.2986 21.132 14.2986H22.6371H24.6473C25.6138 14.2986 26.3973 13.5151 26.3973 12.5486V11.8542C26.3973 10.3354 25.1661 9.1042 23.6473 9.1042H22.2299Z" fill="#332A2A"/>
</g>
<defs>
<clipPath id="clip0_1030_11090">
<rect width="28" height="28" fill="white"/>
</clipPath>
</defs>
</svg>
