<svg width="23" height="23" viewBox="0 0 23 23" fill="none" xmlns="http://www.w3.org/2000/svg">
<g clip-path="url(#clip0_1030_11136)">
<path fill-rule="evenodd" clip-rule="evenodd" d="M7.72272 5.68075C8.018 6.00287 8.11427 6.26141 8.11432 6.36239C8.11432 6.37644 8.11326 6.39012 8.11223 6.40343C8.11146 6.41339 8.1107 6.42314 8.11041 6.4327L6.66022 5.04012C6.73146 5.04357 6.81137 5.05665 6.89948 5.08602C7.11796 5.15896 7.44437 5.3771 7.72272 5.68075ZM9.24323 7.44344C9.39111 7.14768 9.46491 6.79832 9.46491 6.36239C9.46487 5.74459 9.0813 5.16515 8.71784 4.76864C8.33759 4.35382 7.82641 3.97257 7.32624 3.80575C6.72262 3.60455 6.18364 3.68441 5.77252 3.87801C5.561 3.97763 5.37046 4.11404 5.22019 4.26718C4.18568 3.89588 2.97735 4.1915 2.24298 5.10946C1.7022 5.78548 1.76906 6.76277 2.3963 7.35946L3.49884 8.40829C3.76894 8.66523 4.196 8.65494 4.45294 8.38485C4.70981 8.11482 4.69939 7.68771 4.42951 7.43075L3.32599 6.38192C3.2065 6.26825 3.19467 6.082 3.29767 5.95321C3.7765 5.35467 4.66461 5.29274 5.2215 5.81942L9.11994 9.50594C9.80223 10.1512 10.7053 10.5117 11.6444 10.5118H11.9793C12.9539 10.5118 13.8888 10.1238 14.5779 9.43465L14.9764 9.03621C15.4124 8.60019 16.0043 8.35555 16.6209 8.35555H18.992C19.7237 8.35555 20.317 8.94814 20.3172 9.67977V9.71493C20.3171 9.89436 20.1715 10.0401 19.992 10.0401H17.574C16.3988 10.0402 15.294 10.6016 14.6024 11.5518L14.4735 11.7306C14.2242 12.0731 13.8258 12.2753 13.4022 12.2755H10.0526C9.71259 12.2755 9.38481 12.1455 9.13849 11.9112L6.1922 9.1075C5.9221 8.85064 5.49502 8.86184 5.2381 9.13192C4.98125 9.40202 4.99147 9.82911 5.26154 10.086L8.2088 12.8888C8.70608 13.3618 9.36622 13.6261 10.0526 13.6261H13.4022C14.2575 13.6259 15.0609 13.2161 15.5643 12.5245L15.6942 12.3468C16.1317 11.7456 16.8305 11.3898 17.574 11.3897H19.992C20.917 11.3897 21.6677 10.6399 21.6678 9.71493V9.67977C21.6676 8.20256 20.4693 7.00496 18.992 7.00496H16.6209C15.6464 7.00496 14.7115 7.3921 14.0223 8.08114L13.6229 8.48055C13.1869 8.91638 12.5958 9.16118 11.9793 9.16121H11.6444C11.0503 9.16112 10.4783 8.93368 10.0467 8.52547L9.12149 7.65056C9.16398 7.58804 9.20534 7.51915 9.24323 7.44344ZM18.4168 15.9332V17.1754C18.417 17.548 18.7189 17.8502 19.0916 17.8502C19.4643 17.8502 19.7662 17.548 19.7664 17.1754V15.9332H21.0086C21.3813 15.933 21.6834 15.6311 21.6834 15.2584C21.6834 14.8857 21.3813 14.5838 21.0086 14.5836H16.1672L16.9764 13.4716C17.0376 13.3877 17.1352 13.3378 17.2391 13.3378H20.8885C21.2612 13.3378 21.5632 13.0358 21.5633 12.663C21.5633 12.2902 21.2613 11.9882 20.8885 11.9882H17.2391C16.7034 11.9882 16.1998 12.2445 15.8846 12.6777L14.8563 14.0898C14.7952 14.1738 14.6974 14.2235 14.5936 14.2236H9.17267C9.0895 14.2235 9.00934 14.192 8.94904 14.1347L2.30646 7.82123C2.03624 7.5645 1.60915 7.57546 1.35236 7.84565C1.09562 8.11587 1.10659 8.54295 1.37677 8.79975L7.46212 14.5836H1.84162C1.46883 14.5836 1.16681 14.8856 1.16681 15.2584C1.16681 15.6312 1.46883 15.9332 1.84162 15.9332H3.08283V17.1754C3.083 17.548 3.38593 17.8502 3.75861 17.8502C4.13114 17.85 4.43324 17.5479 4.43341 17.1754V15.9332H18.4168Z" fill="#332A2A"/>
</g>
<defs>
<clipPath id="clip0_1030_11136">
<rect width="23" height="23" fill="white"/>
</clipPath>
</defs>
</svg>
