<svg width="18" height="18" viewBox="0 0 18 18" fill="none" xmlns="http://www.w3.org/2000/svg">
<g clip-path="url(#clip0_1030_11120)">
<path d="M10.478 9.78124H8.09945C7.58629 9.78124 7.09277 9.584 6.72097 9.23031L4.54068 7.15625L3.16097 5.84375L2.29788 5.02271C2.00567 4.74473 1.97474 4.28939 2.22669 3.97445C2.79444 3.26476 3.84742 3.19171 4.50774 3.8162L7.46557 6.61358C7.96136 7.08247 8.61786 7.34375 9.30026 7.34375C10.0084 7.34375 10.6876 7.06244 11.1883 6.5617L11.317 6.43298C11.8144 5.93565 12.4889 5.65625 13.1922 5.65625H14.2907H14.9043C15.7787 5.65625 16.4876 6.36513 16.4876 7.23958C16.4876 7.6768 16.1332 8.03124 15.696 8.03124H14.5525H13.5849C12.977 8.03124 12.4057 8.32203 12.048 8.81357L11.8532 9.08124C11.5331 9.52106 11.022 9.78124 10.478 9.78124Z" fill="#E05149"/>
<path fill-rule="evenodd" clip-rule="evenodd" d="M6.03143 4.1568C5.92081 4.03611 5.80136 3.93504 5.69103 3.85899L6.15068 4.30047C6.11756 4.25586 6.07815 4.20776 6.03143 4.1568ZM5.82259 2.53217C5.32481 2.36625 4.87756 2.43204 4.53505 2.59336C4.38054 2.66613 4.23807 2.7632 4.11951 2.87418C3.28531 2.60116 2.32649 2.84924 1.73864 3.58405C1.28402 4.15233 1.33982 4.97398 1.86711 5.47557L2.73019 6.29661C2.98029 6.53452 3.37589 6.52464 3.6138 6.27455C3.85171 6.02446 3.84183 5.62885 3.59174 5.39094L2.72865 4.5699C2.67151 4.51554 2.66546 4.4265 2.71473 4.36492C3.05412 3.94068 3.68357 3.89701 4.07828 4.27032L7.03611 7.06769C7.64795 7.64635 8.45813 7.96878 9.30026 7.96878C10.1742 7.96878 11.0123 7.62162 11.6302 7.00367L11.6919 6.94197C12.115 6.51894 12.6887 6.28128 13.287 6.28128H14.9043C15.4336 6.28128 15.8626 6.71034 15.8626 7.23961C15.8626 7.33165 15.788 7.40627 15.696 7.40627H13.916C12.9001 7.40627 11.9456 7.89216 11.3478 8.7135C11.1454 8.9917 10.8221 9.15627 10.478 9.15627H8.09945C7.74665 9.15627 7.40736 9.02067 7.15175 8.77751L4.97146 6.70344C4.72136 6.46553 4.32576 6.47541 4.08785 6.7255C3.84994 6.97559 3.85982 7.3712 4.10991 7.60911L6.2902 9.68318C6.77819 10.1474 7.42593 10.4063 8.09945 10.4063H10.478C11.2218 10.4063 11.9208 10.0505 12.3585 9.44904C12.721 8.95093 13.2999 8.65627 13.916 8.65627H15.696C16.4784 8.65627 17.1126 8.02201 17.1126 7.23961C17.1126 6.01998 16.1239 5.03128 14.9043 5.03128H13.287C12.3572 5.03128 11.4655 5.40063 10.8081 6.05809L10.7464 6.11978C10.3628 6.50331 9.84265 6.71878 9.30026 6.71878C8.77759 6.71878 8.27476 6.51866 7.89502 6.15952L7.32211 5.61769C7.34187 5.58499 7.36106 5.55044 7.37929 5.51399C7.50334 5.26588 7.56246 4.97723 7.56246 4.6251C7.56246 4.10453 7.24223 3.6278 6.95288 3.31215C6.64793 2.97947 6.23432 2.6694 5.82259 2.53217ZM1.5 11.3752C1.15482 11.3752 0.875 11.655 0.875 12.0002C0.875 12.3454 1.15482 12.6252 1.5 12.6252H1.50327H1.50653H1.50979H1.51305H1.51631H1.51957H1.52283H1.52608H1.52933H1.53259H1.53584H1.53908H1.54233H1.54558H1.54882H1.55207H1.55531H1.55855H1.56179H1.56502H1.56826H1.5715H1.57473H1.57796H1.58119H1.58442H1.58765H1.59087H1.5941H1.59732H1.60054H1.60376H1.60698H1.6102H1.61342H1.61663H1.61984H1.62306H1.62627H1.62947H1.63268H1.63589H1.63909H1.6423H1.6455H1.6487H1.6519H1.6551H1.65829H1.66149H1.66468H1.66787H1.67106H1.67425H1.67744H1.68063H1.68381H1.68699H1.69018H1.69336H1.69654H1.69971H1.70289H1.70607H1.70924H1.71241H1.71558H1.71875H1.72192H1.72509H1.72825H1.73142H1.73458H1.73774H1.7409H1.74406H1.74722H1.75037H1.75353H1.75668H1.75983H1.76298H1.76613H1.76928H1.77242H1.77557H1.77871H1.78185H1.78499H1.78813H1.79127H1.79441H1.79754H1.80067H1.80381H1.80694H1.81007H1.81319H1.81632H1.81945H1.82257H1.82569H1.82881H1.83193H1.83505H1.83817H1.84128H1.8444H1.84751H1.85062H1.85373H1.85684H1.85995H1.86306H1.86616H1.86926H1.87237H1.87547H1.87857H1.88167H1.88476H1.88786H1.89095H1.89404H1.89714H1.90023H1.90331H1.9064H1.90949H1.91257H1.91565H1.91874H1.92182H1.9249H1.92797H1.93105H1.93413H1.9372H1.94027H1.94334H1.94641H1.94948H1.95255H1.95561H1.95868H1.96174H1.9648H1.96786H1.97092H1.97398H1.97704H1.98009H1.98315H1.9862H1.98925H1.9923H1.99535H1.9984H2.00144H2.00449H2.00753H2.01057H2.01361H2.01665H2.01969H2.02273H2.02576H2.02879H2.03183H2.03486H2.03789H2.04092H2.04395H2.04697H2.05H2.05302H2.05604H2.05906H2.06208H2.0651H2.06812H2.07113H2.07415H2.07716H2.08017H2.08318H2.08619H2.0892H2.09221H2.09521H2.09822H2.10122H2.10422H2.10722H2.11022H2.11322H2.11621H2.11921H2.1222H2.12519H2.12818H2.13117H2.13416H2.13715H2.14014H2.14312H2.1461H2.14909H2.15207H2.15505H2.15802H2.161H2.16398H2.16695H2.16992H2.1729H2.17587H2.17884H2.1818H2.18477H2.18774H2.1907H2.19366H2.19662H2.19959H2.20254H2.2055H2.20846H2.21141H2.21437H2.21732H2.22027H2.22322H2.22617H2.22912H2.23207H2.23501H2.23795H2.2409H2.24384H2.24678H2.24972H2.25266H2.25559H2.25853H2.26146H2.26439H2.26733H2.27026H2.27318H2.27611H2.27904H2.28196H2.28489H2.28781H2.29073H2.29365H2.29657H2.29949H2.30241H2.30532H2.30823H2.31115H2.31406H2.31697H2.31988H2.32279H2.32569H2.3286H2.3315H2.3344H2.33731H2.34021H2.34311H2.346H2.3489H2.3518H2.35469H2.35758H2.36048H2.36337H2.36626H2.36914H2.37203H2.37492H2.375V13.5002C2.375 13.8454 2.65482 14.1252 3 14.1252C3.34518 14.1252 3.625 13.8454 3.625 13.5002V12.6252H3.6353H3.64792H3.66052H3.6731H3.68565H3.69819H3.7107H3.72318H3.73565H3.74809H3.76051H3.77291H3.78529H3.79764H3.80997H3.82229H3.83458H3.84685H3.8591H3.87132H3.88353H3.89572H3.90788H3.92003H3.93215H3.94425H3.95634H3.9684H3.98045H3.99247H4.00448H4.01646H4.02843H4.04037H4.0523H4.06421H4.0761H4.08797H4.09982H4.11166H4.12347H4.13527H4.14705H4.15881H4.17055H4.18227H4.19398H4.20567H4.21734H4.22899H4.24063H4.25225H4.26385H4.27544H4.28701H4.29856H4.3101H4.32162H4.33312H4.34461H4.35608H4.36753H4.37897H4.3904H4.4018H4.4132H4.42457H4.43593H4.44728H4.45861H4.46993H4.48123H4.49252H4.50379H4.51505H4.5263H4.53753H4.54874H4.55994H4.57113H4.58231H4.59347H4.60462H4.61575H4.62687H4.63798H4.64908H4.66016H4.67123H4.68229H4.69333H4.70436H4.71538H4.72639H4.73739H4.74837H4.75934H4.7703H4.78125H4.79219H4.80312H4.81403H4.82494H4.83583H4.84671H4.85758H4.86845H4.8793H4.89014H4.90097H4.91179H4.9226H4.9334H4.94419H4.95497H4.96574H4.97651H4.98726H4.998H5.00874H5.01946H5.03018H5.04089H5.05159H5.06228H5.07296H5.08364H5.09431H5.10497H5.11562H5.12626H5.1369H5.14753H5.15815H5.16876H5.17937H5.18997H5.20056H5.21115H5.22173H5.2323H5.24287H5.25343H5.26398H5.27453H5.28507H5.29561H5.30614H5.31667H5.32719H5.3377H5.34821H5.35872H5.36922H5.37971H5.3902H5.40069H5.41117H5.42165H5.43212H5.44259H5.45305H5.46351H5.47397H5.48442H5.49487H5.50532H5.51576H5.5262H5.53664H5.54707H5.55751H5.56793H5.57836H5.58878H5.5992H5.60962H5.62004H5.63046H5.64087H5.65128H5.66169H5.6721H5.68251H5.69291H5.70332H5.71372H5.72412H5.73453H5.74493H5.75533H5.76573H5.77613H5.78653H5.79693H5.80733H5.81773H5.82813H5.83853H5.84893H5.85933H5.86974H5.88014H5.89055H5.90095H5.91136H5.92177H5.93218H5.94259H5.95301H5.96342H5.97384H5.98426H5.99468H6.0051H6.01553H6.02596H6.03639H6.04683H6.05727H6.06771H6.07815H6.0886H6.09905H6.1095H6.11996H6.13042H6.14089H6.15136H6.16183H6.17231H6.18279H6.19328H6.20377H6.21427H6.22477H6.23528H6.24579H6.2563H6.26683H6.27735H6.28789H6.29843H6.30897H6.31952H6.33008H6.34064H6.35121H6.36178H6.37237H6.38295H6.39355H6.40415H6.41476H6.42538H6.436H6.44663H6.45727H6.46792H6.47857H6.48923H6.4999H6.51058H6.52127H6.53196H6.54266H6.55337H6.56409H6.57482H6.58556H6.59631H6.60706H6.61783H6.6286H6.63939H6.65018H6.66098H6.6718H6.68262H6.69345H6.7043H6.71515H6.72602H6.73689H6.74778H6.75867H6.76958H6.7805H6.79143H6.80237H6.81332H6.82429H6.83526H6.84625H6.85725H6.86826H6.87929H6.89032H6.90137H6.91243H6.92351H6.93459H6.94569H6.9568H6.96793H6.97907H6.99022H7.00139H7.01257H7.02376H7.03496H7.04619H7.05742H7.06867H7.07993H7.09121H7.1025H7.11381H7.12513H7.13647H7.14782H7.15918H7.17057H7.18196H7.19338H7.2048H7.21625H7.22771H7.23918H7.25068H7.26218H7.27371H7.28525H7.29681H7.30838H7.31997H7.33158H7.3432H7.35485H7.36651H7.37818H7.38988H7.40159H7.41332H7.42507H7.43683H7.44862H7.46042H7.47224H7.48408H7.49594H7.50781H7.51971H7.53162H7.54356H7.55551H7.56748H7.57947H7.59148H7.60351H7.61556H7.62763H7.63972H7.65184H7.66397H7.67612H7.68829H7.70048H7.71269H7.72493H7.73718H7.74946H7.76176H7.77408H7.78642H7.79878H7.81116H7.82357H7.83599H7.84844H7.86091H7.87341H7.88592H7.89846H7.91103H7.92361H7.93622H7.94885H7.9615H7.97418H7.98688H7.9996H8.01235H8.02512H8.03791H8.05073H8.06358H8.07644H8.08933H8.10225H8.11519H8.12816H8.14115H8.15416H8.1672H8.18027H8.19336H8.20647H8.21961H8.23278H8.24598H8.25919H8.27244H8.28571H8.29901H8.31233H8.32568H8.33906H8.35246H8.36589H8.37935H8.39283H8.40635H8.41989H8.43345H8.44705H8.46067H8.47432H8.488H8.5017H8.51543H8.5292H8.54299H8.55681H8.57065H8.58453H8.59844H8.61237H8.62633H8.64033H8.65435H8.6684H8.68248H8.69659H8.71073H8.7249H8.7391H8.75334H8.7676H8.78189H8.79621H8.81056H8.82495H8.83936H8.85381H8.86829H8.88279H8.89733H8.9119H8.92651H8.94114H8.95581H8.97051H8.98524H9H12.0574H14.375V13.5002C14.375 13.8454 14.6548 14.1252 15 14.1252C15.3452 14.1252 15.625 13.8454 15.625 13.5002V12.6252H15.7093H16.5C16.8452 12.6252 17.125 12.3454 17.125 12.0002C17.125 11.655 16.8452 11.3752 16.5 11.3752H15.7093H15H12.9011L13.3574 10.7483C13.4279 10.6513 13.5406 10.594 13.6606 10.594H15.5926H16.4063C16.7514 10.594 17.0313 10.3141 17.0313 9.96897C17.0313 9.62379 16.7514 9.34397 16.4063 9.34397H15.5926H13.6606C13.1408 9.34397 12.6525 9.59255 12.3467 10.0128L11.6721 10.9396C11.6016 11.0366 11.4889 11.094 11.3689 11.094H7.32453C7.22837 11.094 7.13588 11.057 7.06618 10.9908L1.93057 6.10969C1.68038 5.87189 1.28478 5.88194 1.04698 6.13214C0.809177 6.38234 0.819229 6.77794 1.06943 7.01574L5.65622 11.3752H5.65128H5.64087H5.63046H5.62004H5.60962H5.5992H5.58878H5.57836H5.56793H5.55751H5.54707H5.53664H5.5262H5.51576H5.50532H5.49487H5.48442H5.47397H5.46351H5.45305H5.44259H5.43212H5.42165H5.41117H5.40069H5.3902H5.37971H5.36922H5.35872H5.34821H5.3377H5.32719H5.31667H5.30614H5.29561H5.28507H5.27453H5.26398H5.25343H5.24287H5.2323H5.22173H5.21115H5.20056H5.18997H5.17937H5.16876H5.15815H5.14753H5.1369H5.12626H5.11562H5.10497H5.09431H5.08364H5.07296H5.06228H5.05159H5.04089H5.03018H5.01946H5.00874H4.998H4.98726H4.97651H4.96574H4.95497H4.94419H4.9334H4.9226H4.91179H4.90097H4.89014H4.8793H4.86845H4.85758H4.84671H4.83583H4.82494H4.81403H4.80312H4.79219H4.78125H4.7703H4.75934H4.74837H4.73739H4.72639H4.71538H4.70436H4.69333H4.68229H4.67123H4.66016H4.64908H4.63798H4.62687H4.61575H4.60462H4.59347H4.58231H4.57113H4.55994H4.54874H4.53753H4.5263H4.51505H4.50379H4.49252H4.48123H4.46993H4.45861H4.44728H4.43593H4.42457H4.4132H4.4018H4.3904H4.37897H4.36753H4.35608H4.34461H4.33312H4.32162H4.3101H4.29856H4.28701H4.27544H4.26385H4.25225H4.24063H4.22899H4.21734H4.20567H4.19398H4.18227H4.17055H4.15881H4.14705H4.13527H4.12347H4.11166H4.09982H4.08797H4.0761H4.06421H4.0523H4.04037H4.02843H4.01646H4.00448H3.99247H3.98045H3.9684H3.95634H3.94425H3.93215H3.92003H3.90788H3.89572H3.88353H3.87132H3.8591H3.84685H3.83458H3.82229H3.80997H3.79764H3.78529H3.77291H3.76051H3.74809H3.73565H3.72318H3.7107H3.69819H3.68565H3.6731H3.66052H3.64792H3.6353H3.62265H3.60998H3.59729H3.58457H3.57183H3.55907H3.54628H3.53347H3.52064H3.50778H3.49489H3.48198H3.46905H3.45609H3.44311H3.4301H3.41707H3.40401H3.39093H3.37782H3.36469H3.35153H3.33835H3.32513H3.3119H3.29863H3.28534H3.27203H3.25869H3.24532H3.23192H3.2185H3.20505H3.19158H3.17807H3.16454H3.15098H3.1374H3.12378H3.11014H3.09647H3.08278H3.06905H3.0553H3.04152H3.02771H3.01387H3H2.99737H2.99474H2.99211H2.98948H2.98684H2.98421H2.98157H2.97893H2.9763H2.97366H2.97102H2.96838H2.96573H2.96309H2.96045H2.9578H2.95515H2.95251H2.94986H2.94721H2.94456H2.94191H2.93925H2.9366H2.93394H2.93129H2.92863H2.92597H2.92332H2.92066H2.91799H2.91533H2.91267H2.91H2.90734H2.90467H2.902H2.89934H2.89667H2.894H2.89132H2.88865H2.88598H2.8833H2.88063H2.87795H2.87527H2.87259H2.86991H2.86723H2.86455H2.86186H2.85918H2.85649H2.85381H2.85112H2.84843H2.84574H2.84305H2.84036H2.83766H2.83497H2.83227H2.82958H2.82688H2.82418H2.82148H2.81878H2.81608H2.81337H2.81067H2.80796H2.80526H2.80255H2.79984H2.79713H2.79442H2.79171H2.789H2.78628H2.78357H2.78085H2.77813H2.77541H2.77269H2.76997H2.76725H2.76453H2.76181H2.75908H2.75635H2.75363H2.7509H2.74817H2.74544H2.74271H2.73997H2.73724H2.7345H2.73177H2.72903H2.72629H2.72355H2.72081H2.71807H2.71533H2.71258H2.70984H2.70709H2.70434H2.7016H2.69885H2.6961H2.69334H2.69059H2.68784H2.68508H2.68232H2.67957H2.67681H2.67405H2.67129H2.66852H2.66576H2.663H2.66023H2.65747H2.6547H2.65193H2.64916H2.64639H2.64361H2.64084H2.63807H2.63529H2.63251H2.62974H2.62696H2.62418H2.62139H2.61861H2.61583H2.61304H2.61026H2.60747H2.60468H2.60189H2.5991H2.59631H2.59352H2.59072H2.58793H2.58513H2.58233H2.57953H2.57673H2.57393H2.57113H2.56833H2.56552H2.56272H2.55991H2.5571H2.55429H2.55148H2.54867H2.54586H2.54304H2.54023H2.53741H2.53459H2.53178H2.52896H2.52613H2.52331H2.52049H2.51766H2.51484H2.51201H2.50918H2.50635H2.50352H2.50069H2.49786H2.49503H2.49219H2.48935H2.48652H2.48368H2.48084H2.478H2.47515H2.47231H2.46947H2.46662H2.46377H2.46092H2.45807H2.45522H2.45237H2.44952H2.44666H2.44381H2.44095H2.43809H2.43524H2.43238H2.42951H2.42665H2.42379H2.42092H2.41806H2.41519H2.41232H2.40945H2.40658H2.40371H2.40083H2.39796H2.39508H2.3922H2.38933H2.38645H2.38357H2.38068H2.3778H2.37492H2.37203H2.36914H2.36626H2.36337H2.36048H2.35758H2.35469H2.3518H2.3489H2.346H2.34311H2.34021H2.33731H2.3344H2.3315H2.3286H2.32569H2.32279H2.31988H2.31697H2.31406H2.31115H2.30823H2.30532H2.30241H2.29949H2.29657H2.29365H2.29073H2.28781H2.28489H2.28196H2.27904H2.27611H2.27318H2.27026H2.26733H2.26439H2.26146H2.25853H2.25559H2.25266H2.24972H2.24678H2.24384H2.2409H2.23795H2.23501H2.23207H2.22912H2.22617H2.22322H2.22027H2.21732H2.21437H2.21141H2.20846H2.2055H2.20254H2.19959H2.19662H2.19366H2.1907H2.18774H2.18477H2.1818H2.17884H2.17587H2.1729H2.16992H2.16695H2.16398H2.161H2.15802H2.15505H2.15207H2.14909H2.1461H2.14312H2.14014H2.13715H2.13416H2.13117H2.12818H2.12519H2.1222H2.11921H2.11621H2.11322H2.11022H2.10722H2.10422H2.10122H2.09822H2.09521H2.09221H2.0892H2.08619H2.08318H2.08017H2.07716H2.07415H2.07113H2.06812H2.0651H2.06208H2.05906H2.05604H2.05302H2.05H2.04697H2.04395H2.04092H2.03789H2.03486H2.03183H2.02879H2.02576H2.02273H2.01969H2.01665H2.01361H2.01057H2.00753H2.00449H2.00144H1.9984H1.99535H1.9923H1.98925H1.9862H1.98315H1.98009H1.97704H1.97398H1.97092H1.96786H1.9648H1.96174H1.95868H1.95561H1.95255H1.94948H1.94641H1.94334H1.94027H1.9372H1.93413H1.93105H1.92797H1.9249H1.92182H1.91874H1.91565H1.91257H1.90949H1.9064H1.90331H1.90023H1.89714H1.89404H1.89095H1.88786H1.88476H1.88167H1.87857H1.87547H1.87237H1.86926H1.86616H1.86306H1.85995H1.85684H1.85373H1.85062H1.84751H1.8444H1.84128H1.83817H1.83505H1.83193H1.82881H1.82569H1.82257H1.81945H1.81632H1.81319H1.81007H1.80694H1.80381H1.80067H1.79754H1.79441H1.79127H1.78813H1.78499H1.78185H1.77871H1.77557H1.77242H1.76928H1.76613H1.76298H1.75983H1.75668H1.75353H1.75037H1.74722H1.74406H1.7409H1.73774H1.73458H1.73142H1.72825H1.72509H1.72192H1.71875H1.71558H1.71241H1.70924H1.70607H1.70289H1.69971H1.69654H1.69336H1.69018H1.68699H1.68381H1.68063H1.67744H1.67425H1.67106H1.66787H1.66468H1.66149H1.65829H1.6551H1.6519H1.6487H1.6455H1.6423H1.63909H1.63589H1.63268H1.62947H1.62627H1.62306H1.61984H1.61663H1.61342H1.6102H1.60698H1.60376H1.60054H1.59732H1.5941H1.59087H1.58765H1.58442H1.58119H1.57796H1.57473H1.5715H1.56826H1.56502H1.56179H1.55855H1.55531H1.55207H1.54882H1.54558H1.54233H1.53908H1.53584H1.53259H1.52933H1.52608H1.52283H1.51957H1.51631H1.51305H1.50979H1.50653H1.50327H1.5Z" fill="#332A2A"/>
</g>
<defs>
<clipPath id="clip0_1030_11120">
<rect width="18" height="18" fill="white"/>
</clipPath>
</defs>
</svg>
