<svg width="44" height="44" viewBox="0 0 44 44" fill="none" xmlns="http://www.w3.org/2000/svg">
<g clip-path="url(#clip0_1030_11082)">
<path fill-rule="evenodd" clip-rule="evenodd" d="M10.1149 9.88537C8.94628 8.78015 7.08272 8.90943 6.07791 10.1654L4.34193 12.3354C3.77443 13.0448 3.84409 14.0704 4.50228 14.6966L7.20996 17.2723C7.51008 17.5578 7.9848 17.546 8.27029 17.2459C8.55578 16.9457 8.54393 16.471 8.24382 16.1855L5.53614 13.6098C5.44211 13.5203 5.43216 13.3738 5.51323 13.2725L7.24922 11.1025C7.70595 10.5316 8.55302 10.4728 9.08421 10.9752L18.7537 20.1201C19.45 20.7787 20.372 21.1456 21.3304 21.1456H24.1949C25.1895 21.1456 26.1433 20.7505 26.8466 20.0473L29.2142 17.6796C29.6362 17.2577 30.2085 17.0206 30.8052 17.0206H32.2477C32.6619 17.0206 32.9977 16.6848 32.9977 16.2706C32.9977 15.8564 32.6619 15.5206 32.2477 15.5206H30.8052C29.8107 15.5206 28.8568 15.9157 28.1536 16.619L25.7859 18.9866C25.364 19.4086 24.7917 19.6456 24.1949 19.6456H21.3304C20.7554 19.6456 20.2022 19.4254 19.7844 19.0303L16.864 16.2684C17.0279 16.0849 17.2003 15.8597 17.3428 15.5748C17.5791 15.102 17.7084 14.5223 17.7084 13.7498C17.7084 12.7751 17.0908 11.7947 16.4228 11.0659C15.736 10.3167 14.8313 9.65294 13.9872 9.37159C12.9743 9.03395 12.0876 9.17124 11.4172 9.48695C11.024 9.67217 10.6884 9.92772 10.4445 10.1971L10.1149 9.88537ZM34.9329 15.5206C34.5187 15.5206 34.1829 15.8564 34.1829 16.2706C34.1829 16.6848 34.5187 17.0206 34.9329 17.0206H38.3031C38.9935 17.0206 39.5531 17.5802 39.5531 18.2706V21.0761C39.5531 21.2142 39.4412 21.3261 39.3031 21.3261H35.5728H33.2076H32.3695C31.1702 21.3261 30.0432 21.8998 29.3375 22.8695L27.7219 25.0895C27.4866 25.4127 27.111 25.6039 26.7112 25.6039H18.6441C18.3234 25.6039 18.015 25.4806 17.7826 25.2596L11.6165 19.3939C11.3163 19.1084 10.8416 19.1202 10.5561 19.4203C10.2706 19.7204 10.2825 20.1952 10.5826 20.4807L16.7487 26.3464C17.26 26.8327 17.9386 27.1039 18.6441 27.1039H26.7112C27.5907 27.1039 28.4172 26.6832 28.9347 25.9721L30.5503 23.7522C30.9737 23.1703 31.6499 22.8261 32.3695 22.8261H33.2076H35.5728H39.3031C40.2696 22.8261 41.0531 22.0426 41.0531 21.0761V18.2706C41.0531 16.7518 39.8219 15.5206 38.3031 15.5206H34.9329ZM15.9809 14.943L11.8397 10.9655C11.9049 10.9225 11.9773 10.8812 12.0564 10.844C12.4047 10.6799 12.8931 10.588 13.5129 10.7946C14.0439 10.9716 14.7434 11.4537 15.317 12.0795C15.9094 12.7257 16.2084 13.3494 16.2084 13.7498C16.2084 14.3522 16.1085 14.6892 16.0011 14.9039C15.9945 14.9172 15.9878 14.9302 15.9809 14.943ZM3.66675 28.5831C3.25254 28.5831 2.91675 28.9189 2.91675 29.3331C2.91675 29.7473 3.25254 30.0831 3.66675 30.0831H3.67473H3.68271H3.69068H3.69865H3.70662H3.71458H3.72254H3.7305H3.73845H3.7464H3.75434H3.76229H3.77023H3.77816H3.78609H3.79402H3.80194H3.80987H3.81778H3.8257H3.83361H3.84151H3.84942H3.85732H3.86521H3.87311H3.881H3.88888H3.89676H3.90464H3.91252H3.92039H3.92826H3.93612H3.94398H3.95184H3.9597H3.96755H3.9754H3.98324H3.99108H3.99892H4.00675H4.01458H4.02241H4.03023H4.03805H4.04587H4.05368H4.06149H4.0693H4.0771H4.0849H4.09269H4.10049H4.10828H4.11606H4.12384H4.13162H4.1394H4.14717H4.15494H4.1627H4.17046H4.17822H4.18598H4.19373H4.20148H4.20922H4.21696H4.2247H4.23243H4.24016H4.24789H4.25561H4.26334H4.27105H4.27877H4.28648H4.29418H4.30189H4.30959H4.31728H4.32498H4.33267H4.34035H4.34804H4.35572H4.36339H4.37107H4.37874H4.3864H4.39407H4.40173H4.40938H4.41704H4.42469H4.43233H4.43997H4.44761H4.45525H4.46288H4.47051H4.47814H4.48576H4.49338H4.501H4.50861H4.51622H4.52383H4.53143H4.53903H4.54663H4.55422H4.56181H4.56939H4.57698H4.58456H4.59213H4.59971H4.60728H4.61484H4.62241H4.62996H4.63752H4.64507H4.65262H4.66017H4.66771H4.67525H4.68279H4.69032H4.69785H4.70538H4.71291H4.72043H4.72794H4.73546H4.74297H4.75047H4.75798H4.76548H4.77298H4.78047H4.78796H4.79545H4.80293H4.81041H4.81789H4.82537H4.83284H4.84031H4.84777H4.85523H4.86269H4.87015H4.8776H4.88505H4.89249H4.89993H4.90737H4.91481H4.92224H4.92967H4.9371H4.94452H4.95194H4.95936H4.96677H4.97418H4.98159H4.98899H4.99639H5.00379H5.01118H5.01857H5.02596H5.03334H5.04073H5.0481H5.05548H5.06285H5.07022H5.07758H5.08495H5.0923H5.09966H5.10701H5.11436H5.12171H5.12905H5.13639H5.14373H5.15106H5.15839H5.16572H5.17304H5.18036H5.18768H5.195H5.20231H5.20962H5.21692H5.22422H5.23152H5.23882H5.24611H5.2534H5.26069H5.26797H5.27525H5.28253H5.2898H5.29707H5.30434H5.3116H5.31887H5.32612H5.33338H5.34063H5.34788H5.35512H5.36237H5.36961H5.37684H5.38408H5.39131H5.39853H5.40576H5.41298H5.4202H5.42741H5.43462H5.44183H5.44904H5.45624H5.46344H5.47064H5.47783H5.48502H5.49221H5.49939H5.50657H5.51375H5.52092H5.5281H5.53527H5.54243H5.54959H5.55675H5.56391H5.57106H5.57821H5.58536H5.59251H5.59965H5.60678H5.61392H5.62105H5.62818H5.63531H5.64243H5.64955H5.65667H5.66378H5.67089H5.678H5.68511H5.69221H5.69931H5.7064H5.7135H5.72059H5.72767H5.73476H5.74184H5.74891H5.75599H5.76306H5.77013H5.7772H5.78426H5.79132H5.79838H5.80543H5.81248H5.81953H5.82657H5.83362H5.84066H5.84769H5.85472H5.86175H5.86878H5.87581H5.88283H5.88985H5.89686H5.90387H5.91088H5.91789H5.92489H5.93189H5.93889H5.94589H5.95288H5.95987H5.96685H5.97384H5.98082H5.98779H5.99477H6.00174H6.00871H6.01567H6.02263H6.02959H6.03655H6.04351H6.05046H6.0574H6.06435H6.07129H6.07823H6.08517H6.0921H6.09903H6.10596H6.11288H6.1198H6.12672H6.13364H6.14055H6.14746H6.15437H6.16127H6.16818H6.17508H6.18197H6.18886H6.19575H6.20264H6.20953H6.21641H6.22329H6.23016H6.23703H6.2439H6.25077H6.25764H6.2645H6.27136H6.27821H6.28507H6.29191H6.29876H6.30561H6.31245H6.31929H6.32612H6.33296H6.33979H6.34661H6.35344H6.36026H6.36708H6.3739H6.38071H6.38752H6.39433H6.40113H6.40793H6.41473H6.42153H6.42832H6.43511H6.4419H6.44869H6.45547H6.46225H6.46903H6.4758H6.48257H6.48934H6.49611H6.50287H6.50963H6.51639H6.52314H6.52989H6.53664H6.54339H6.55013H6.55687H6.56361H6.57035H6.57708H6.58342V32.9998C6.58342 33.414 6.9192 33.7498 7.33342 33.7498C7.74763 33.7498 8.08342 33.414 8.08342 32.9998V30.0831H8.09583H8.12819H8.16048H8.19271H8.22488H8.25698H8.28902H8.321H8.35292H8.38478H8.41657H8.44831H8.47998H8.5116H8.54315H8.57465H8.60608H8.63746H8.66877H8.70003H8.73123H8.76237H8.79346H8.82449H8.85546H8.88637H8.91722H8.94803H8.97877H9.00946H9.04009H9.07067H9.10119H9.13166H9.16208H9.19244H9.22275H9.253H9.2832H9.31335H9.34345H9.37349H9.40348H9.43343H9.46332H9.49315H9.52294H9.55268H9.58237H9.612H9.64159H9.67113H9.70062H9.73006H9.75946H9.7888H9.8181H9.84735H9.87655H9.90571H9.93482H9.96388H9.9929H10.0219H10.0508H10.0797H10.1085H10.1373H10.166H10.1948H10.2234H10.252H10.2806H10.3091H10.3376H10.3661H10.3945H10.4228H10.4512H10.4794H10.5077H10.5359H10.564H10.5922H10.6202H10.6483H10.6763H10.7042H10.7322H10.76H10.7879H10.8157H10.8435H10.8712H10.8989H10.9266H10.9542H10.9818H11.0094H11.0369H11.0644H11.0918H11.1192H11.1466H11.174H11.2013H11.2286H11.2558H11.283H11.3102H11.3374H11.3645H11.3916H11.4186H11.4457H11.4727H11.4996H11.5266H11.5535H11.5804H11.6072H11.634H11.6608H11.6876H11.7143H11.741H11.7677H11.7944H11.821H11.8476H11.8742H11.9007H11.9273H11.9538H11.9802H12.0067H12.0331H12.0595H12.0859H12.1122H12.1386H12.1649H12.1912H12.2174H12.2437H12.2699H12.2961H12.3223H12.3484H12.3745H12.4007H12.4268H12.4528H12.4789H12.5049H12.5309H12.5569H12.5829H12.6089H12.6348H12.6608H12.6867H12.7126H12.7384H12.7643H12.7902H12.816H12.8418H12.8676H12.8934H12.9192H12.9449H12.9707H12.9964H13.0221H13.0478H13.0735H13.0992H13.1248H13.1505H13.1761H13.2018H13.2274H13.253H13.2786H13.3042H13.3298H13.3553H13.3809H13.4064H13.432H13.4575H13.4831H13.5086H13.5341H13.5596H13.5851H13.6106H13.6361H13.6616H13.687H13.7125H13.738H13.7634H13.7889H13.8143H13.8398H13.8652H13.8907H13.9161H13.9415H13.967H13.9924H14.0178H14.0432H14.0687H14.0941H14.1195H14.1449H14.1704H14.1958H14.2212H14.2466H14.272H14.2975H14.3229H14.3483H14.3738H14.3992H14.4246H14.4501H14.4755H14.501H14.5264H14.5519H14.5773H14.6028H14.6283H14.6537H14.6792H14.7047H14.7302H14.7557H14.7812H14.8067H14.8323H14.8578H14.8833H14.9089H14.9344H14.96H14.9856H15.0111H15.0367H15.0623H15.088H15.1136H15.1392H15.1649H15.1905H15.2162H15.2419H15.2676H15.2933H15.319H15.3447H15.3705H15.3962H15.422H15.4478H15.4736H15.4994H15.5253H15.5511H15.577H15.6029H15.6288H15.6547H15.6806H15.7066H15.7325H15.7585H15.7845H15.8105H15.8366H15.8626H15.8887H15.9148H15.941H15.9671H15.9933H16.0194H16.0456H16.0719H16.0981H16.1244H16.1507H16.177H16.2033H16.2297H16.2561H16.2825H16.3089H16.3354H16.3619H16.3884H16.4149H16.4415H16.468H16.4946H16.5213H16.5479H16.5746H16.6014H16.6281H16.6549H16.6817H16.7085H16.7354H16.7623H16.7892H16.8161H16.8431H16.8701H16.8971H16.9242H16.9513H16.9784H17.0056H17.0328H17.06H17.0873H17.1146H17.1419H17.1693H17.1967H17.2241H17.2516H17.279H17.3066H17.3341H17.3618H17.3894H17.4171H17.4448H17.4725H17.5003H17.5281H17.556H17.5839H17.6118H17.6398H17.6678H17.6959H17.724H17.7521H17.7803H17.8085H17.8367H17.865H17.8933H17.9217H17.9501H17.9786H18.0071H18.0356H18.0642H18.0929H18.1215H18.1502H18.179H18.2078H18.2367H18.2656H18.2945H18.3235H18.3525H18.3816H18.4107H18.4399H18.4691H18.4984H18.5277H18.557H18.5864H18.6159H18.6454H18.675H18.7046H18.7342H18.7639H18.7937H18.8235H18.8533H18.8832H18.9132H18.9432H18.9733H19.0034H19.0335H19.0638H19.094H19.1244H19.1547H19.1852H19.2157H19.2462H19.2768H19.3074H19.3381H19.3689H19.3997H19.4306H19.4615H19.4925H19.5236H19.5547H19.5858H19.617H19.6483H19.6796H19.711H19.7425H19.774H19.8056H19.8372H19.8689H19.9007H19.9325H19.9644H19.9963H20.0283H20.0604H20.0925H20.1247H20.1569H20.1892H20.2216H20.254H20.2865H20.3191H20.3517H20.3844H20.4172H20.45H20.4829H20.5159H20.5489H20.582H20.6152H20.6484H20.6817H20.7151H20.7485H20.782H20.8156H20.8492H20.8829H20.9167H20.9506H20.9845H21.0185H21.0525H21.0867H21.1209H21.1552H21.1895H21.2239H21.2584H21.293H21.3276H21.3623H21.3971H21.432H21.4669H21.5019H21.537H21.5722H21.6074H21.6427H21.6781H21.7136H21.7491H21.7847H21.8204H21.8562H21.8921H21.928H21.964H22.0001H29.4738H35.9167V32.9998C35.9167 33.414 36.2525 33.7498 36.6667 33.7498C37.081 33.7498 37.4167 33.414 37.4167 32.9998V30.0831H38.4005H40.3334C40.7476 30.0831 41.0834 29.7473 41.0834 29.3331C41.0834 28.9189 40.7476 28.5831 40.3334 28.5831H38.4005H36.6667H30.0081L32.4552 25.2207C32.5022 25.1561 32.5773 25.1178 32.6573 25.1178H35.836C36.2502 25.1178 36.586 24.782 36.586 24.3678C36.586 23.9536 36.2502 23.6178 35.836 23.6178H32.6573C32.0976 23.6178 31.5717 23.8855 31.2423 24.3381L28.7282 27.7927C28.6811 27.8574 28.606 27.8956 28.526 27.8956H17.3276C17.2635 27.8956 17.2018 27.871 17.1553 27.8268L4.18344 15.4978C3.8832 15.2124 3.40848 15.2245 3.12312 15.5248C2.83776 15.825 2.84982 16.2997 3.15006 16.5851L15.7737 28.5831H15.7585H15.7325H15.7066H15.6806H15.6547H15.6288H15.6029H15.577H15.5511H15.5253H15.4994H15.4736H15.4478H15.422H15.3962H15.3705H15.3447H15.319H15.2933H15.2676H15.2419H15.2162H15.1905H15.1649H15.1392H15.1136H15.088H15.0623H15.0367H15.0111H14.9856H14.96H14.9344H14.9089H14.8833H14.8578H14.8323H14.8067H14.7812H14.7557H14.7302H14.7047H14.6792H14.6537H14.6283H14.6028H14.5773H14.5519H14.5264H14.501H14.4755H14.4501H14.4246H14.3992H14.3738H14.3483H14.3229H14.2975H14.272H14.2466H14.2212H14.1958H14.1704H14.1449H14.1195H14.0941H14.0687H14.0432H14.0178H13.9924H13.967H13.9415H13.9161H13.8907H13.8652H13.8398H13.8143H13.7889H13.7634H13.738H13.7125H13.687H13.6616H13.6361H13.6106H13.5851H13.5596H13.5341H13.5086H13.4831H13.4575H13.432H13.4064H13.3809H13.3553H13.3298H13.3042H13.2786H13.253H13.2274H13.2018H13.1761H13.1505H13.1248H13.0992H13.0735H13.0478H13.0221H12.9964H12.9707H12.9449H12.9192H12.8934H12.8676H12.8418H12.816H12.7902H12.7643H12.7384H12.7126H12.6867H12.6608H12.6348H12.6089H12.5829H12.5569H12.5309H12.5049H12.4789H12.4528H12.4268H12.4007H12.3745H12.3484H12.3223H12.2961H12.2699H12.2437H12.2174H12.1912H12.1649H12.1386H12.1122H12.0859H12.0595H12.0331H12.0067H11.9802H11.9538H11.9273H11.9007H11.8742H11.8476H11.821H11.7944H11.7677H11.741H11.7143H11.6876H11.6608H11.634H11.6072H11.5804H11.5535H11.5266H11.4996H11.4727H11.4457H11.4186H11.3916H11.3645H11.3374H11.3102H11.283H11.2558H11.2286H11.2013H11.174H11.1466H11.1192H11.0918H11.0644H11.0369H11.0094H10.9818H10.9542H10.9266H10.8989H10.8712H10.8435H10.8157H10.7879H10.76H10.7322H10.7042H10.6763H10.6483H10.6202H10.5922H10.564H10.5359H10.5077H10.4794H10.4512H10.4228H10.3945H10.3661H10.3376H10.3091H10.2806H10.252H10.2234H10.1948H10.166H10.1373H10.1085H10.0797H10.0508H10.0219H9.9929H9.96388H9.93482H9.90571H9.87655H9.84735H9.8181H9.7888H9.75946H9.73006H9.70062H9.67113H9.64159H9.612H9.58237H9.55268H9.52294H9.49315H9.46332H9.43343H9.40348H9.37349H9.34345H9.31335H9.2832H9.253H9.22275H9.19244H9.16208H9.13166H9.10119H9.07067H9.04009H9.00946H8.97877H8.94803H8.91722H8.88637H8.85546H8.82449H8.79346H8.76237H8.73123H8.70003H8.66877H8.63746H8.60608H8.57465H8.54315H8.5116H8.47998H8.44831H8.41657H8.38478H8.35292H8.321H8.28902H8.25698H8.22488H8.19271H8.16048H8.12819H8.09583H8.06341H8.03092H7.99837H7.96576H7.93308H7.90034H7.86753H7.83465H7.80171H7.7687H7.73563H7.70249H7.66928H7.636H7.60265H7.56924H7.53576H7.50221H7.46859H7.4349H7.40114H7.36731H7.33342H7.32699H7.32056H7.31412H7.30769H7.30125H7.29481H7.28837H7.28192H7.27547H7.26902H7.26257H7.25611H7.24965H7.24319H7.23673H7.23026H7.22379H7.21732H7.21084H7.20437H7.19789H7.19141H7.18492H7.17844H7.17195H7.16545H7.15896H7.15246H7.14596H7.13946H7.13295H7.12645H7.11994H7.11342H7.10691H7.10039H7.09387H7.08735H7.08082H7.07429H7.06776H7.06123H7.05469H7.04815H7.04161H7.03507H7.02852H7.02197H7.01542H7.00886H7.00231H6.99575H6.98918H6.98262H6.97605H6.96948H6.96291H6.95633H6.94975H6.94317H6.93659H6.93H6.92341H6.91682H6.91023H6.90363H6.89703H6.89043H6.88382H6.87721H6.8706H6.86399H6.85738H6.85076H6.84414H6.83751H6.83089H6.82426H6.81763H6.81099H6.80435H6.79771H6.79107H6.78443H6.77778H6.77113H6.76447H6.75782H6.75116H6.7445H6.73783H6.73117H6.7245H6.71783H6.71115H6.70447H6.69779H6.69111H6.68442H6.67774H6.67104H6.66435H6.65765H6.65095H6.64425H6.63755H6.63084H6.62413H6.61742H6.6107H6.60398H6.59726H6.59054H6.58381H6.57708H6.57035H6.56361H6.55687H6.55013H6.54339H6.53664H6.52989H6.52314H6.51639H6.50963H6.50287H6.49611H6.48934H6.48257H6.4758H6.46903H6.46225H6.45547H6.44869H6.4419H6.43511H6.42832H6.42153H6.41473H6.40793H6.40113H6.39433H6.38752H6.38071H6.3739H6.36708H6.36026H6.35344H6.34661H6.33979H6.33296H6.32612H6.31929H6.31245H6.30561H6.29876H6.29191H6.28507H6.27821H6.27136H6.2645H6.25764H6.25077H6.2439H6.23703H6.23016H6.22329H6.21641H6.20953H6.20264H6.19575H6.18886H6.18197H6.17508H6.16818H6.16127H6.15437H6.14746H6.14055H6.13364H6.12672H6.1198H6.11288H6.10596H6.09903H6.0921H6.08517H6.07823H6.07129H6.06435H6.0574H6.05046H6.04351H6.03655H6.02959H6.02263H6.01567H6.00871H6.00174H5.99477H5.98779H5.98082H5.97384H5.96685H5.95987H5.95288H5.94589H5.93889H5.93189H5.92489H5.91789H5.91088H5.90387H5.89686H5.88985H5.88283H5.87581H5.86878H5.86175H5.85472H5.84769H5.84066H5.83362H5.82657H5.81953H5.81248H5.80543H5.79838H5.79132H5.78426H5.7772H5.77013H5.76306H5.75599H5.74891H5.74184H5.73476H5.72767H5.72059H5.7135H5.7064H5.69931H5.69221H5.68511H5.678H5.67089H5.66378H5.65667H5.64955H5.64243H5.63531H5.62818H5.62105H5.61392H5.60678H5.59965H5.59251H5.58536H5.57821H5.57106H5.56391H5.55675H5.54959H5.54243H5.53527H5.5281H5.52092H5.51375H5.50657H5.49939H5.49221H5.48502H5.47783H5.47064H5.46344H5.45624H5.44904H5.44183H5.43462H5.42741H5.4202H5.41298H5.40576H5.39853H5.39131H5.38408H5.37684H5.36961H5.36237H5.35512H5.34788H5.34063H5.33338H5.32612H5.31887H5.3116H5.30434H5.29707H5.2898H5.28253H5.27525H5.26797H5.26069H5.2534H5.24611H5.23882H5.23152H5.22422H5.21692H5.20962H5.20231H5.195H5.18768H5.18036H5.17304H5.16572H5.15839H5.15106H5.14373H5.13639H5.12905H5.12171H5.11436H5.10701H5.09966H5.0923H5.08495H5.07758H5.07022H5.06285H5.05548H5.0481H5.04073H5.03334H5.02596H5.01857H5.01118H5.00379H4.99639H4.98899H4.98159H4.97418H4.96677H4.95936H4.95194H4.94452H4.9371H4.92967H4.92224H4.91481H4.90737H4.89993H4.89249H4.88505H4.8776H4.87015H4.86269H4.85523H4.84777H4.84031H4.83284H4.82537H4.81789H4.81041H4.80293H4.79545H4.78796H4.78047H4.77298H4.76548H4.75798H4.75047H4.74297H4.73546H4.72794H4.72043H4.71291H4.70538H4.69785H4.69032H4.68279H4.67525H4.66771H4.66017H4.65262H4.64507H4.63752H4.62996H4.6224H4.61484H4.60728H4.59971H4.59213H4.58456H4.57698H4.56939H4.56181H4.55422H4.54663H4.53903H4.53143H4.52383H4.51622H4.50861H4.501H4.49338H4.48576H4.47814H4.47051H4.46288H4.45525H4.44761H4.43997H4.43233H4.42469H4.41704H4.40938H4.40173H4.39407H4.3864H4.37874H4.37107H4.36339H4.35572H4.34804H4.34035H4.33267H4.32498H4.31728H4.30959H4.30189H4.29418H4.28648H4.27877H4.27105H4.26334H4.25561H4.24789H4.24016H4.23243H4.2247H4.21696H4.20922H4.20148H4.19373H4.18598H4.17822H4.17046H4.1627H4.15494H4.14717H4.1394H4.13162H4.12384H4.11606H4.10828H4.10049H4.09269H4.0849H4.0771H4.0693H4.06149H4.05368H4.04587H4.03805H4.03023H4.02241H4.01458H4.00675H3.99892H3.99108H3.98324H3.9754H3.96755H3.9597H3.95184H3.94398H3.93612H3.92826H3.92039H3.91252H3.90464H3.89676H3.88888H3.881H3.87311H3.86521H3.85732H3.84942H3.84151H3.83361H3.8257H3.81778H3.80987H3.80194H3.79402H3.78609H3.77816H3.77023H3.76229H3.75434H3.7464H3.73845H3.7305H3.72254H3.71458H3.70662H3.69865H3.69068H3.68271H3.67473H3.66675ZM37.3653 24.3678C37.3653 23.9536 37.701 23.6178 38.1153 23.6178H40.1042C40.5185 23.6178 40.8542 23.9536 40.8542 24.3678C40.8542 24.782 40.5185 25.1178 40.1042 25.1178H38.1153C37.701 25.1178 37.3653 24.782 37.3653 24.3678Z" fill="#252323"/>
</g>
<defs>
<clipPath id="clip0_1030_11082">
<rect width="44" height="44" fill="white"/>
</clipPath>
</defs>
</svg>
