<svg width="23" height="24" viewBox="0 0 23 24" fill="none" xmlns="http://www.w3.org/2000/svg">
<g clip-path="url(#clip0_1030_11136)">
<path fill-rule="evenodd" clip-rule="evenodd" d="M8.18855 7.01013L6.73504 5.61409C6.80636 5.61751 6.88589 5.63161 6.97412 5.66102C7.19261 5.73385 7.51956 5.95158 7.79807 6.25541C8.09343 6.57763 8.18965 6.83641 8.18965 6.93732C8.18965 6.96281 8.18927 6.98706 8.18855 7.01013ZM7.40101 4.38029C6.79734 4.17908 6.25869 4.25942 5.84757 4.45305C5.63616 4.55261 5.44585 4.68878 5.29574 4.8417C4.26112 4.47046 3.05255 4.76632 2.31816 5.68431C1.77733 6.36034 1.84372 7.33778 2.47097 7.93448L3.57381 8.98359C3.84391 9.24053 4.27117 9.22986 4.52811 8.95976C4.78505 8.68966 4.77438 8.26241 4.50428 8.00546L3.40144 6.95636C3.28194 6.84267 3.26929 6.65645 3.37233 6.52765C3.85116 5.92912 4.73922 5.86751 5.29611 6.39419L9.19463 10.0812C9.87701 10.7266 10.7806 11.0862 11.7198 11.0862H12.0543C13.0289 11.0862 13.9637 10.699 14.6529 10.0098L15.0518 9.61092C15.4878 9.1749 16.0792 8.92994 16.6958 8.92994H19.0675C19.7993 8.92994 20.3925 9.52317 20.3925 10.2549V10.2897C20.3925 10.4691 20.247 10.6147 20.0675 10.6147H17.6493C16.4739 10.6147 15.3695 11.1768 14.6778 12.1272L14.5481 12.3054C14.2987 12.6481 13.9005 12.8508 13.4768 12.8508H10.1273C9.78733 12.8508 9.46037 12.7201 9.21405 12.4858L6.26725 9.68254C5.99715 9.4256 5.5699 9.43627 5.31296 9.70637C5.05601 9.97647 5.06668 10.4037 5.33678 10.6607L8.28358 13.4639C8.78086 13.937 9.44095 14.2008 10.1273 14.2008H13.4768C14.3323 14.2008 15.1362 13.7916 15.6396 13.0998L15.7694 12.9216C16.2069 12.3203 16.9057 11.9647 17.6493 11.9647H20.0675C20.9926 11.9647 21.7425 11.2147 21.7425 10.2897V10.2549C21.7425 8.77758 20.5449 7.57994 19.0675 7.57994H16.6958C15.7211 7.57994 14.7864 7.96713 14.0972 8.65633L13.6983 9.05522C13.2623 9.49124 12.6709 9.73619 12.0543 9.73619H11.7198C11.1256 9.73619 10.554 9.50869 10.1222 9.1004L9.19684 8.22519C9.23935 8.16263 9.28072 8.09368 9.31864 8.01784C9.46653 7.72208 9.53965 7.37326 9.53965 6.93732C9.53965 6.31949 9.15671 5.73972 8.79323 5.34319C8.41289 4.92827 7.9013 4.54705 7.40101 4.38029ZM1.9167 15.1583C1.54391 15.1583 1.2417 15.4605 1.2417 15.8333C1.2417 16.206 1.54391 16.5083 1.9167 16.5083H1.92087H1.92504H1.92921H1.93338H1.93754H1.9417H1.94586H1.95002H1.95418H1.95834H1.96249H1.96664H1.97079H1.97494H1.97908H1.98323H1.98737H1.99151H1.99565H1.99979H2.00392H2.00805H2.01219H2.01632H2.02044H2.02457H2.02869H2.03281H2.03694H2.04105H2.04517H2.04929H2.0534H2.05751H2.06162H2.06573H2.06983H2.07394H2.07804H2.08214H2.08624H2.09033H2.09443H2.09852H2.10261H2.1067H2.11079H2.11488H2.11896H2.12304H2.12712H2.1312H2.13528H2.13935H2.14343H2.1475H2.15157H2.15564H2.1597H2.16377H2.16783H2.17189H2.17595H2.18001H2.18406H2.18811H2.19217H2.19622H2.20026H2.20431H2.20836H2.2124H2.21644H2.22048H2.22452H2.22855H2.23259H2.23662H2.24065H2.24468H2.2487H2.25273H2.25675H2.26077H2.26479H2.26881H2.27283H2.27684H2.28086H2.28487H2.28888H2.29288H2.29689H2.30089H2.3049H2.3089H2.31289H2.31689H2.32089H2.32488H2.32887H2.33286H2.33685H2.34084H2.34482H2.3488H2.35278H2.35676H2.36074H2.36472H2.36869H2.37266H2.37664H2.3806H2.38457H2.38854H2.3925H2.39646H2.40042H2.40438H2.40834H2.41229H2.41625H2.4202H2.42415H2.4281H2.43204H2.43599H2.43993H2.44387H2.44781H2.45175H2.45569H2.45962H2.46355H2.46749H2.47141H2.47534H2.47927H2.48319H2.48712H2.49104H2.49496H2.49887H2.50279H2.5067H2.51061H2.51453H2.51843H2.52234H2.52625H2.53015H2.53405H2.53795H2.54185H2.54575H2.54964H2.55354H2.55743H2.56132H2.56521H2.5691H2.57298H2.57686H2.58075H2.58463H2.5885H2.59238H2.59626H2.60013H2.604H2.60787H2.61174H2.61561H2.61947H2.62334H2.6272H2.63106H2.63492H2.63877H2.64263H2.64648H2.65033H2.65418H2.65803H2.66188H2.66572H2.66957H2.67341H2.67725H2.68109H2.68492H2.68876H2.69259H2.69642H2.70025H2.70408H2.70791H2.71173H2.71556H2.71938H2.7232H2.72702H2.73083H2.73465H2.73846H2.74228H2.74609H2.7499H2.7537H2.75751H2.76131H2.76511H2.76891H2.77271H2.77651H2.78031H2.7841H2.78789H2.79168H2.79547H2.79926H2.80305H2.80683H2.81061H2.81439H2.81817H2.82195H2.82573H2.8295H2.83328H2.83705H2.84082H2.84458H2.84835H2.85212H2.85588H2.85964H2.8634H2.86716H2.87092H2.87467H2.87843H2.88218H2.88593H2.88968H2.89342H2.89717H2.90091H2.90466H2.9084H2.91214H2.91587H2.91961H2.92335H2.92708H2.93081H2.93454H2.93827H2.94199H2.94572H2.94944H2.95316H2.95689H2.9606H2.96432H2.96804H2.97175H2.97546H2.97917H2.98288H2.98659H2.9903H2.994H2.9977H3.00141H3.00511H3.0088H3.0125H3.0162H3.01989H3.02358H3.02727H3.03096H3.03465H3.03833H3.04202H3.0457H3.04938H3.05306H3.05674H3.06041H3.06409H3.06776H3.07143H3.07511H3.07877H3.08244H3.08611H3.08977H3.09343H3.09709H3.10075H3.10441H3.10807H3.11172H3.11538H3.11903H3.12268H3.12633H3.12997H3.13362H3.13726H3.14091H3.14455H3.14819H3.15182H3.15546H3.15837V17.7499C3.15837 18.1227 3.46058 18.4249 3.83337 18.4249C4.20616 18.4249 4.50837 18.1227 4.50837 17.7499V16.5083H4.51502H4.53139H4.54773H4.56404H4.58032H4.59657H4.61279H4.62898H4.64514H4.66127H4.67737H4.69344H4.70948H4.72549H4.74148H4.75743H4.77336H4.78926H4.80513H4.82097H4.83679H4.85257H4.86833H4.88407H4.89977H4.91545H4.9311H4.94672H4.96232H4.97789H4.99344H5.00895H5.02445H5.03991H5.05535H5.07077H5.08616H5.10152H5.11686H5.13218H5.14747H5.16273H5.17797H5.19319H5.20838H5.22355H5.23869H5.25381H5.26891H5.28398H5.29903H5.31406H5.32907H5.34405H5.35901H5.37394H5.38886H5.40375H5.41862H5.43346H5.44829H5.46309H5.47788H5.49264H5.50738H5.5221H5.5368H5.55147H5.56613H5.58077H5.59539H5.60998H5.62456H5.63912H5.65365H5.66817H5.68267H5.69715H5.71161H5.72605H5.74047H5.75488H5.76926H5.78363H5.79798H5.81231H5.82663H5.84092H5.8552H5.86947H5.88371H5.89794H5.91215H5.92634H5.94052H5.95468H5.96882H5.98295H5.99707H6.01116H6.02524H6.03931H6.05336H6.06739H6.08142H6.09542H6.10941H6.12339H6.13735H6.1513H6.16523H6.17915H6.19305H6.20695H6.22082H6.23469H6.24854H6.26238H6.27621H6.29002H6.30382H6.31761H6.33138H6.34515H6.3589H6.37264H6.38637H6.40009H6.41379H6.42749H6.44117H6.45484H6.4685H6.48215H6.49579H6.50942H6.52304H6.53665H6.55025H6.56384H6.57743H6.591H6.60456H6.61811H6.63166H6.64519H6.65872H6.67224H6.68575H6.69925H6.71275H6.72623H6.73971H6.75318H6.76665H6.7801H6.79355H6.807H6.82043H6.83386H6.84728H6.8607H6.87411H6.88751H6.90091H6.91431H6.92769H6.94107H6.95445H6.96782H6.98119H6.99455H7.00791H7.02126H7.03461H7.04795H7.06129H7.07463H7.08796H7.10129H7.11461H7.12794H7.14126H7.15457H7.16788H7.1812H7.1945H7.20781H7.22111H7.23441H7.24771H7.26101H7.27431H7.2876H7.3009H7.31419H7.32748H7.34077H7.35406H7.36735H7.38064H7.39393H7.40722H7.42051H7.4338H7.44709H7.46038H7.47367H7.48696H7.50025H7.51355H7.52684H7.54014H7.55344H7.56674H7.58004H7.59334H7.60665H7.61996H7.63327H7.64658H7.6599H7.67322H7.68654H7.69987H7.7132H7.72653H7.73987H7.75321H7.76656H7.77991H7.79326H7.80662H7.81998H7.83335H7.84672H7.8601H7.87349H7.88687H7.90027H7.91367H7.92707H7.94049H7.95391H7.96733H7.98076H7.9942H8.00764H8.0211H8.03455H8.04802H8.06149H8.07497H8.08846H8.10196H8.11546H8.12898H8.1425H8.15603H8.16957H8.18311H8.19667H8.21024H8.22381H8.23739H8.25099H8.26459H8.27821H8.29183H8.30546H8.31911H8.33276H8.34642H8.3601H8.37379H8.38748H8.40119H8.41491H8.42865H8.44239H8.45614H8.46991H8.48369H8.49748H8.51129H8.52511H8.53894H8.55278H8.56663H8.5805H8.59439H8.60828H8.62219H8.63612H8.65005H8.664H8.67797H8.69195H8.70595H8.71996H8.73398H8.74802H8.76208H8.77615H8.79023H8.80433H8.81845H8.83259H8.84674H8.8609H8.87508H8.88928H8.9035H8.91773H8.93198H8.94625H8.96053H8.97483H8.98915H9.00349H9.01785H9.03222H9.04661H9.06102H9.07545H9.0899H9.10436H9.11885H9.13335H9.14788H9.16242H9.17698H9.19157H9.20617H9.22079H9.23544H9.2501H9.26478H9.27949H9.29421H9.30896H9.32373H9.33852H9.35333H9.36816H9.38302H9.39789H9.41279H9.42771H9.44266H9.45762H9.47261H9.48762H9.50265H9.51771H9.53279H9.5479H9.56302H9.57818H9.59335H9.60855H9.62377H9.63902H9.65429H9.66959H9.68491H9.70026H9.71563H9.73103H9.74645H9.7619H9.77738H9.79288H9.8084H9.82396H9.83954H9.85514H9.87077H9.88643H9.90212H9.91783H9.93357H9.94934H9.96514H9.98096H9.99681H10.0127H10.0286H10.0445H10.0605H10.0765H10.0925H10.1086H10.1246H10.1408H10.1569H10.1731H10.1893H10.2055H10.2217H10.238H10.2544H10.2707H10.2871H10.3035H10.3199H10.3364H10.3529H10.3694H10.386H10.4026H10.4192H10.4359H10.4526H10.4693H10.4861H10.5029H10.5197H10.5366H10.5534H10.5704H10.5873H10.6043H10.6213H10.6384H10.6555H10.6726H10.6898H10.707H10.7242H10.7415H10.7588H10.7761H10.7935H10.8109H10.8283H10.8458H10.8633H10.8809H10.8985H10.9161H10.9337H10.9514H10.9692H10.9869H11.0047H11.0226H11.0404H11.0584H11.0763H11.0943H11.1123H11.1304H11.1485H11.1667H11.1849H11.2031H11.2213H11.2396H11.258H11.2764H11.2948H11.3132H11.3317H11.3503H11.3688H11.3875H11.4061H11.4248H11.4436H11.4623H11.4812H11.5H15.4067H18.4917V17.7499C18.4917 18.1227 18.7939 18.4249 19.1667 18.4249C19.5395 18.4249 19.8417 18.1227 19.8417 17.7499V16.5083H20.073H21.0834C21.4562 16.5083 21.7584 16.206 21.7584 15.8333C21.7584 15.4605 21.4562 15.1583 21.0834 15.1583H20.073H19.1667H16.2419L17.051 14.0465C17.1122 13.9625 17.2098 13.9128 17.3138 13.9128H20.9636C21.3364 13.9128 21.6386 13.6106 21.6386 13.2378C21.6386 12.865 21.3364 12.5628 20.9636 12.5628H17.3138C16.7781 12.5628 16.2747 12.819 15.9595 13.2522L14.9312 14.6651C14.87 14.7492 14.7723 14.7989 14.6684 14.7989H9.2482C9.16487 14.7989 9.08471 14.7669 9.02431 14.7095L2.38172 8.39607C2.11151 8.13925 1.68426 8.15011 1.42743 8.42032C1.17061 8.69054 1.18147 9.11779 1.45168 9.37461L7.53691 15.1583H7.52684H7.51355H7.50025H7.48696H7.47367H7.46038H7.44709H7.4338H7.42051H7.40722H7.39393H7.38064H7.36735H7.35406H7.34077H7.32748H7.31419H7.3009H7.2876H7.27431H7.26101H7.24771H7.23441H7.22111H7.20781H7.1945H7.1812H7.16788H7.15457H7.14126H7.12794H7.11461H7.10129H7.08796H7.07463H7.06129H7.04795H7.03461H7.02126H7.00791H6.99455H6.98119H6.96782H6.95445H6.94107H6.92769H6.91431H6.90091H6.88751H6.87411H6.8607H6.84728H6.83386H6.82043H6.807H6.79355H6.7801H6.76665H6.75318H6.73971H6.72623H6.71275H6.69925H6.68575H6.67224H6.65872H6.64519H6.63166H6.61811H6.60456H6.591H6.57743H6.56384H6.55025H6.53665H6.52304H6.50942H6.49579H6.48215H6.4685H6.45484H6.44117H6.42749H6.41379H6.40009H6.38637H6.37264H6.3589H6.34515H6.33138H6.31761H6.30382H6.29002H6.27621H6.26238H6.24854H6.23469H6.22082H6.20695H6.19305H6.17915H6.16523H6.1513H6.13735H6.12339H6.10941H6.09542H6.08142H6.06739H6.05336H6.03931H6.02524H6.01116H5.99707H5.98295H5.96882H5.95468H5.94052H5.92634H5.91215H5.89794H5.88371H5.86947H5.8552H5.84092H5.82663H5.81231H5.79798H5.78363H5.76926H5.75488H5.74047H5.72605H5.71161H5.69715H5.68267H5.66817H5.65365H5.63912H5.62456H5.60998H5.59539H5.58077H5.56613H5.55147H5.5368H5.5221H5.50738H5.49264H5.47788H5.46309H5.44829H5.43346H5.41862H5.40375H5.38886H5.37394H5.35901H5.34405H5.32907H5.31406H5.29903H5.28398H5.26891H5.25381H5.23869H5.22355H5.20838H5.19319H5.17797H5.16273H5.14747H5.13218H5.11686H5.10152H5.08616H5.07077H5.05535H5.03991H5.02445H5.00895H4.99344H4.97789H4.96232H4.94672H4.9311H4.91545H4.89977H4.88407H4.86833H4.85257H4.83679H4.82097H4.80513H4.78926H4.77336H4.75743H4.74148H4.72549H4.70948H4.69344H4.67737H4.66127H4.64514H4.62898H4.61279H4.59657H4.58032H4.56404H4.54773H4.53139H4.51502H4.49862H4.48219H4.46573H4.44923H4.43271H4.41615H4.39956H4.38294H4.36629H4.34961H4.33289H4.31614H4.29936H4.28254H4.2657H4.24881H4.2319H4.21495H4.19797H4.18096H4.16391H4.14683H4.12971H4.11256H4.09538H4.07816H4.0609H4.04361H4.02629H4.00893H3.99154H3.97411H3.95664H3.93914H3.9216H3.90403H3.88642H3.86877H3.85109H3.83337H3.83001H3.82665H3.82328H3.81992H3.81655H3.81319H3.80982H3.80645H3.80308H3.79971H3.79633H3.79296H3.78958H3.7862H3.78282H3.77944H3.77606H3.77268H3.7693H3.76591H3.76252H3.75913H3.75575H3.75235H3.74896H3.74557H3.74217H3.73878H3.73538H3.73198H3.72858H3.72518H3.72178H3.71837H3.71497H3.71156H3.70815H3.70474H3.70133H3.69792H3.6945H3.69109H3.68767H3.68425H3.68083H3.67741H3.67399H3.67057H3.66714H3.66371H3.66029H3.65686H3.65343H3.65H3.64656H3.64313H3.63969H3.63625H3.63282H3.62938H3.62593H3.62249H3.61905H3.6156H3.61215H3.60871H3.60526H3.6018H3.59835H3.5949H3.59144H3.58799H3.58453H3.58107H3.57761H3.57414H3.57068H3.56722H3.56375H3.56028H3.55681H3.55334H3.54987H3.5464H3.54292H3.53944H3.53597H3.53249H3.52901H3.52552H3.52204H3.51856H3.51507H3.51158H3.50809H3.5046H3.50111H3.49762H3.49412H3.49062H3.48713H3.48363H3.48013H3.47663H3.47312H3.46962H3.46611H3.4626H3.45909H3.45558H3.45207H3.44856H3.44504H3.44153H3.43801H3.43449H3.43097H3.42745H3.42392H3.4204H3.41687H3.41334H3.40981H3.40628H3.40275H3.39922H3.39568H3.39215H3.38861H3.38507H3.38153H3.37798H3.37444H3.3709H3.36735H3.3638H3.36025H3.3567H3.35315H3.34959H3.34604H3.34248H3.33892H3.33536H3.3318H3.32824H3.32467H3.32111H3.31754H3.31397H3.3104H3.30683H3.30325H3.29968H3.2961H3.29253H3.28895H3.28537H3.28178H3.2782H3.27461H3.27103H3.26744H3.26385H3.26026H3.25667H3.25307H3.24948H3.24588H3.24228H3.23868H3.23508H3.23148H3.22787H3.22426H3.22066H3.21705H3.21344H3.20982H3.20621H3.2026H3.19898H3.19536H3.19174H3.18812H3.1845H3.18087H3.17725H3.17362H3.16999H3.16636H3.16273H3.1591H3.15546H3.15182H3.14819H3.14455H3.14091H3.13726H3.13362H3.12997H3.12633H3.12268H3.11903H3.11538H3.11172H3.10807H3.10441H3.10075H3.09709H3.09343H3.08977H3.08611H3.08244H3.07877H3.07511H3.07143H3.06776H3.06409H3.06041H3.05674H3.05306H3.04938H3.0457H3.04202H3.03833H3.03465H3.03096H3.02727H3.02358H3.01989H3.0162H3.0125H3.0088H3.00511H3.00141H2.9977H2.994H2.9903H2.98659H2.98288H2.97917H2.97546H2.97175H2.96804H2.96432H2.9606H2.95688H2.95316H2.94944H2.94572H2.94199H2.93827H2.93454H2.93081H2.92708H2.92335H2.91961H2.91587H2.91214H2.9084H2.90466H2.90091H2.89717H2.89342H2.88968H2.88593H2.88218H2.87843H2.87467H2.87092H2.86716H2.8634H2.85964H2.85588H2.85212H2.84835H2.84458H2.84082H2.83705H2.83328H2.8295H2.82573H2.82195H2.81817H2.81439H2.81061H2.80683H2.80305H2.79926H2.79547H2.79168H2.78789H2.7841H2.78031H2.77651H2.77271H2.76891H2.76511H2.76131H2.75751H2.7537H2.7499H2.74609H2.74228H2.73846H2.73465H2.73083H2.72702H2.7232H2.71938H2.71556H2.71173H2.70791H2.70408H2.70025H2.69642H2.69259H2.68876H2.68492H2.68109H2.67725H2.67341H2.66957H2.66572H2.66188H2.65803H2.65418H2.65033H2.64648H2.64263H2.63877H2.63492H2.63106H2.6272H2.62334H2.61947H2.61561H2.61174H2.60787H2.604H2.60013H2.59626H2.59238H2.5885H2.58463H2.58075H2.57686H2.57298H2.5691H2.56521H2.56132H2.55743H2.55354H2.54964H2.54575H2.54185H2.53795H2.53405H2.53015H2.52625H2.52234H2.51843H2.51453H2.51061H2.5067H2.50279H2.49887H2.49496H2.49104H2.48712H2.48319H2.47927H2.47534H2.47141H2.46749H2.46355H2.45962H2.45569H2.45175H2.44781H2.44387H2.43993H2.43599H2.43204H2.4281H2.42415H2.4202H2.41625H2.41229H2.40834H2.40438H2.40042H2.39646H2.3925H2.38854H2.38457H2.3806H2.37664H2.37266H2.36869H2.36472H2.36074H2.35676H2.35278H2.3488H2.34482H2.34084H2.33685H2.33286H2.32887H2.32488H2.32089H2.31689H2.31289H2.3089H2.3049H2.30089H2.29689H2.29288H2.28888H2.28487H2.28086H2.27684H2.27283H2.26881H2.26479H2.26077H2.25675H2.25273H2.2487H2.24468H2.24065H2.23662H2.23259H2.22855H2.22452H2.22048H2.21644H2.2124H2.20836H2.20431H2.20026H2.19622H2.19217H2.18811H2.18406H2.18001H2.17595H2.17189H2.16783H2.16377H2.1597H2.15564H2.15157H2.1475H2.14343H2.13935H2.13528H2.1312H2.12712H2.12304H2.11896H2.11488H2.11079H2.1067H2.10261H2.09852H2.09443H2.09033H2.08624H2.08214H2.07804H2.07394H2.06983H2.06573H2.06162H2.05751H2.0534H2.04929H2.04517H2.04105H2.03694H2.03281H2.02869H2.02457H2.02044H2.01632H2.01219H2.00805H2.00392H1.99979H1.99565H1.99151H1.98737H1.98323H1.97908H1.97494H1.97079H1.96664H1.96249H1.95834H1.95418H1.95002H1.94586H1.9417H1.93754H1.93338H1.92921H1.92504H1.92087H1.9167Z" fill="#252323"/>
</g>
<defs>
<clipPath id="clip0_1030_11136">
<rect width="23" height="23" fill="white" transform="translate(0 0.5)"/>
</clipPath>
</defs>
</svg>
