<svg width="24" height="23" viewBox="0 0 24 23" fill="none" xmlns="http://www.w3.org/2000/svg">
<g clip-path="url(#clip0_1220_14269)">
<path fill-rule="evenodd" clip-rule="evenodd" d="M6.11421 7.044C5.74142 7.044 5.43921 7.34621 5.43921 7.719C5.43921 8.0918 5.74142 8.394 6.11421 8.394L7.16085 8.394C7.33987 8.394 7.51156 8.32289 7.63815 8.1963L12.3941 3.44038L17.15 8.1963C17.2766 8.32289 17.4483 8.394 17.6273 8.394L18.6739 8.394C19.0467 8.394 19.3489 8.0918 19.3489 7.719C19.3489 7.34621 19.0467 7.044 18.6739 7.044L17.9069 7.044L12.8714 2.00849C12.6078 1.74488 12.1804 1.74488 11.9168 2.00849L6.88126 7.044L6.11421 7.044ZM11.7191 20.5404C11.7191 20.9132 12.0213 21.2154 12.3941 21.2154C12.7669 21.2154 13.0691 20.9132 13.0691 20.5404L13.0691 7.98067C13.0691 7.60787 12.7669 7.30566 12.3941 7.30566C12.0213 7.30566 11.7191 7.60787 11.7191 7.98067L11.7191 20.5404Z" fill="#252323"/>
</g>
<defs>
<clipPath id="clip0_1220_14269">
<rect width="23" height="23" fill="white" transform="translate(0.75)"/>
</clipPath>
</defs>
</svg>
