<svg width="18" height="18" viewBox="0 0 18 18" fill="none" xmlns="http://www.w3.org/2000/svg">
<g clip-path="url(#clip0_1220_14316)">
<path d="M6.01831 14.4249C5.67316 14.4249 5.39331 14.1451 5.39331 13.7999L5.39331 13.2404L1.4812 9.32727L1.92358 8.88587L1.92261 8.88489L1.4812 9.32727C1.36401 9.21006 1.29761 9.05064 1.29761 8.88489C1.2977 8.71927 1.36409 8.56061 1.4812 8.44348L5.39331 4.53137L5.39331 3.97083C5.39331 3.62567 5.67315 3.34585 6.01831 3.34583C6.36349 3.34583 6.64331 3.62565 6.64331 3.97083L6.64331 4.79016C6.64318 4.95563 6.57763 5.11449 6.46069 5.23157L2.80737 8.88587L6.46069 12.5392L6.53784 12.6339C6.6059 12.7358 6.64327 12.8562 6.64331 12.9806L6.64331 13.7999C6.64331 14.1451 6.36349 14.4249 6.01831 14.4249ZM6.22339 9.50989C5.87821 9.50989 5.59839 9.23007 5.59839 8.88489C5.59858 8.53988 5.87833 8.25989 6.22339 8.25989L16.0525 8.25989C16.3975 8.25989 16.6773 8.53988 16.6775 8.88489C16.6775 9.23007 16.3977 9.50989 16.0525 9.50989L6.22339 9.50989Z" fill="#332A2A"/>
</g>
<defs>
<clipPath id="clip0_1220_14316">
<rect width="18" height="18" fill="white"/>
</clipPath>
</defs>
</svg>
