<svg width="44" height="44" viewBox="0 0 44 44" fill="none" xmlns="http://www.w3.org/2000/svg">
<g clip-path="url(#clip0_664_6897)">
<path d="M17.52 16.2699C17.9342 16.2699 18.27 16.6056 18.27 17.0199C18.2699 17.434 17.9342 17.7698 17.52 17.7699H6.25635V26.2806H11.5132C11.9272 26.2806 12.2629 26.6166 12.2632 27.0306C12.2632 27.4448 11.9274 27.7806 11.5132 27.7806H5.50635C5.09213 27.7806 4.75635 27.4448 4.75635 27.0306V17.0199C4.75635 16.6056 5.09213 16.2699 5.50635 16.2699H17.52ZM28.7837 12.014C28.7837 11.7107 28.9663 11.4367 29.2466 11.3206C29.5268 11.2046 29.8495 11.2693 30.064 11.4837L40.0757 21.4954C40.2161 21.6361 40.2954 21.827 40.2954 22.0257C40.2953 22.2245 40.2162 22.4154 40.0757 22.556L35.0698 27.5618L30.064 32.5667C29.8495 32.7812 29.5268 32.8459 29.2466 32.7298C28.9663 32.6137 28.7837 32.3398 28.7837 32.0365V27.7806H17.52C17.1058 27.7806 16.77 27.4448 16.77 27.0306C16.7703 26.6166 17.106 26.2806 17.52 26.2806H29.5337C29.9477 26.2806 30.2834 26.6166 30.2837 27.0306V30.2259L34.0093 26.5003L36.5122 23.9984L38.4849 22.0257L30.2837 13.8245V17.0199C30.2836 17.434 29.9478 17.7698 29.5337 17.7699H23.5269C23.1127 17.7699 22.7769 17.434 22.7769 17.0199C22.7769 16.6056 23.1126 16.2699 23.5269 16.2699H28.7837V12.014Z" fill="#332A2A"/>
</g>
<defs>
<clipPath id="clip0_664_6897">
<rect width="44" height="44" fill="white"/>
</clipPath>
</defs>
</svg>
