<svg width="28" height="28" viewBox="0 0 28 28" fill="none" xmlns="http://www.w3.org/2000/svg">
<g clip-path="url(#clip0_1220_14198)">
<path d="M25.1651 14.016L18.7942 7.64508L19.7276 13.8676C19.7423 13.966 19.7423 14.066 19.7276 14.1643L18.7942 20.3868L25.1651 14.016Z" fill="#E05149"/>
<path fill-rule="evenodd" clip-rule="evenodd" d="M19.5442 6.37085C19.5442 5.95664 19.2084 5.62085 18.7942 5.62085C18.38 5.62085 18.0442 5.95664 18.0442 6.37085V7.64502C18.0442 7.84394 18.1232 8.0347 18.2639 8.17535L24.1044 14.0159L18.2639 19.8564C18.1232 19.9971 18.0442 20.1879 18.0442 20.3868V21.661C18.0442 22.0752 18.38 22.411 18.7942 22.411C19.2084 22.411 19.5442 22.0752 19.5442 21.661V20.6974L25.6954 14.5462C25.9883 14.2533 25.9883 13.7785 25.6954 13.4856L19.5442 7.33436V6.37085ZM3.18555 13.2659C2.77133 13.2659 2.43555 13.6017 2.43555 14.0159C2.43555 14.4301 2.77133 14.7659 3.18555 14.7659H18.4756C18.8899 14.7659 19.2256 14.4301 19.2256 14.0159C19.2256 13.6017 18.8899 13.2659 18.4756 13.2659H3.18555Z" fill="#252323"/>
</g>
<defs>
<clipPath id="clip0_1220_14198">
<rect width="28" height="28" fill="white"/>
</clipPath>
</defs>
</svg>
