<svg width="18" height="18" viewBox="0 0 18 18" fill="none" xmlns="http://www.w3.org/2000/svg">
<g clip-path="url(#clip0_1220_14268)">
<path d="M3.698 5.91589C3.69802 5.57074 3.97784 5.29089 4.323 5.29089L4.88257 5.29089L8.79565 1.37878L9.23706 1.82117L9.23804 1.82019L8.79565 1.37878C8.91286 1.26159 9.07229 1.19519 9.23804 1.19519C9.40365 1.19529 9.56232 1.26167 9.67944 1.37878L13.5916 5.29089L14.1521 5.29089C14.4973 5.29089 14.7771 5.57074 14.7771 5.91589C14.7771 6.26107 14.4973 6.54089 14.1521 6.54089L13.3328 6.54089C13.1673 6.54077 13.0084 6.47522 12.8914 6.35828L9.23706 2.70496L5.58374 6.35828L5.48901 6.43542C5.38708 6.50349 5.2667 6.54085 5.14233 6.54089L4.323 6.54089C3.97782 6.54089 3.698 6.26107 3.698 5.91589ZM8.61304 6.12097C8.61304 5.77579 8.89286 5.49597 9.23804 5.49597C9.58305 5.49617 9.86304 5.77591 9.86304 6.12097L9.86304 15.9501C9.86304 16.2951 9.58305 16.5749 9.23804 16.5751C8.89286 16.5751 8.61304 16.2953 8.61304 15.9501L8.61304 6.12097Z" fill="#332A2A"/>
</g>
<defs>
<clipPath id="clip0_1220_14268">
<rect width="18" height="18" fill="white"/>
</clipPath>
</defs>
</svg>
