<svg width="23" height="23" viewBox="0 0 23 23" fill="none" xmlns="http://www.w3.org/2000/svg">
<g clip-path="url(#clip0_1220_14269)">
<path d="M4.73926 7.66931C4.73926 7.29652 5.04127 6.99451 5.41406 6.99451L6.18066 6.99451L11.2168 1.95837C11.4803 1.69519 11.9074 1.69524 12.1709 1.95837L17.207 6.99451L17.9736 6.99451C18.3464 6.99451 18.6484 7.29652 18.6484 7.66931C18.6484 8.04206 18.3464 8.34412 17.9736 8.34412L16.9268 8.34412C16.748 8.34401 16.5767 8.27313 16.4502 8.14685L11.6934 3.39099L6.93848 8.14685C6.81195 8.27335 6.63985 8.34405 6.46094 8.34412L5.41406 8.34412C5.0413 8.34412 4.73931 8.04206 4.73926 7.66931ZM11.0195 7.93103C11.0195 7.55824 11.3215 7.25623 11.6943 7.25623C12.0669 7.25645 12.3691 7.55837 12.3691 7.93103L12.3691 20.4906C12.3691 20.8633 12.0669 21.1652 11.6943 21.1654C11.3215 21.1654 11.0195 20.8634 11.0195 20.4906L11.0195 7.93103Z" fill="#332A2A"/>
</g>
<defs>
<clipPath id="clip0_1220_14269">
<rect width="23" height="23" fill="white"/>
</clipPath>
</defs>
</svg>
