<svg width="28" height="28" viewBox="0 0 28 28" fill="none" xmlns="http://www.w3.org/2000/svg">
<g clip-path="url(#clip0_664_6870)">
<path d="M25.4835 14.0159L19.1126 7.64502V10.8305H4.82251C4.27022 10.8305 3.82251 11.2782 3.82251 11.8305V17.5199H19.1126V20.3868L25.4835 14.0159Z" fill="#E05149"/>
<path fill-rule="evenodd" clip-rule="evenodd" d="M18.507 6.95213C18.7873 6.83605 19.1098 6.90021 19.3243 7.11471L25.6952 13.4856C25.9881 13.7785 25.9881 14.2534 25.6952 14.5462L24.1025 16.139L22.5098 17.7317L19.3243 20.9171C19.1098 21.1316 18.7873 21.1958 18.507 21.0797C18.2267 20.9636 18.044 20.6901 18.044 20.3868V17.9514H11.149C10.7347 17.9514 10.399 17.6156 10.399 17.2014C10.399 16.7871 10.7347 16.4514 11.149 16.4514H18.794C19.2082 16.4514 19.544 16.7871 19.544 17.2014V17.8384V18.5761L21.4491 16.671L23.0418 15.0783L24.1042 14.0159L19.544 9.4557V10.1934V10.8305C19.544 11.2447 19.2082 11.5805 18.794 11.5805H14.9715C14.5573 11.5805 14.2215 11.2447 14.2215 10.8305C14.2215 10.4163 14.5573 10.0805 14.9715 10.0805H18.044V7.64504C18.044 7.34169 18.2267 7.06822 18.507 6.95213ZM2.75391 10.8305C2.75391 10.4163 3.08969 10.0805 3.50391 10.0805H11.149C11.5632 10.0805 11.899 10.4163 11.899 10.8305C11.899 11.2447 11.5632 11.5805 11.149 11.5805H4.25391V16.4514H7.32643C7.74065 16.4514 8.07643 16.7871 8.07643 17.2014C8.07643 17.6156 7.74065 17.9514 7.32643 17.9514H3.50391C3.08969 17.9514 2.75391 17.6156 2.75391 17.2014V10.8305Z" fill="#332A2A"/>
</g>
<defs>
<clipPath id="clip0_664_6870">
<rect width="28" height="28" fill="white"/>
</clipPath>
</defs>
</svg>
