<svg width="44" height="44" viewBox="0 0 44 44" fill="none" xmlns="http://www.w3.org/2000/svg">
<g clip-path="url(#clip0_1220_14247)">
<path d="M22.2753 4.75535L12.2639 14.7667L22.127 13.2873C22.2253 13.2725 22.3253 13.2725 22.4236 13.2873L32.2867 14.7667L22.2753 4.75535Z" fill="#E05149"/>
<path d="M9.51172 14.7664C9.51196 14.3523 9.84765 14.0164 10.2617 14.0164L11.9531 14.0164L21.7451 4.22436C22.0379 3.93201 22.5129 3.93199 22.8057 4.22436L32.5977 14.0164L34.2891 14.0164C34.7031 14.0164 35.0388 14.3524 35.0391 14.7664C35.0391 15.1806 34.7033 15.5163 34.2891 15.5164L32.2871 15.5164C32.0883 15.5164 31.8975 15.4372 31.7568 15.2966L22.2754 5.81518L12.7939 15.2966C12.6533 15.4372 12.4625 15.5164 12.2637 15.5164L10.2617 15.5164C9.8475 15.5164 9.51172 15.1806 9.51172 14.7664ZM21.5254 15.2673C21.5254 14.8531 21.8612 14.5173 22.2754 14.5173C22.6896 14.5173 23.0254 14.8531 23.0254 15.2673L23.0254 39.2947C23.0254 39.7089 22.6896 40.0447 22.2754 40.0447C21.8612 40.0447 21.5254 39.7089 21.5254 39.2947L21.5254 15.2673Z" fill="#332A2A"/>
</g>
<defs>
<clipPath id="clip0_1220_14247">
<rect width="44" height="44" fill="white"/>
</clipPath>
</defs>
</svg>
