<svg width="24" height="23" viewBox="0 0 24 23" fill="none" xmlns="http://www.w3.org/2000/svg">
<g clip-path="url(#clip0_1220_14365)">
<path fill-rule="evenodd" clip-rule="evenodd" d="M18.5489 15.9822C18.9217 15.9822 19.2239 15.68 19.2239 15.3072C19.2239 14.9344 18.9217 14.6322 18.5489 14.6322L17.5022 14.6322C17.3232 14.6322 17.1515 14.7033 17.0249 14.8299L12.269 19.5858L7.51309 14.8299C7.38651 14.7033 7.21482 14.6322 7.0358 14.6322L5.98915 14.6322C5.61636 14.6322 5.31415 14.9344 5.31415 15.3072C5.31415 15.68 5.61636 15.9822 5.98915 15.9822L6.7562 15.9822L11.7917 21.0177C12.0553 21.2813 12.4827 21.2813 12.7463 21.0177L17.7818 15.9822L18.5489 15.9822ZM12.944 2.48579C12.944 2.113 12.6418 1.81079 12.269 1.81079C11.8962 1.81079 11.594 2.113 11.594 2.48579L11.594 15.0455C11.594 15.4183 11.8962 15.7205 12.269 15.7205C12.6418 15.7205 12.944 15.4183 12.944 15.0455L12.944 2.48579Z" fill="#252323"/>
</g>
<defs>
<clipPath id="clip0_1220_14365">
<rect width="23" height="23" fill="white" transform="translate(0.625)"/>
</clipPath>
</defs>
</svg>
