<svg width="29" height="29" viewBox="0 0 29 29" fill="none" xmlns="http://www.w3.org/2000/svg">
<g clip-path="url(#clip0_1220_14342)">
<path d="M14.9255 25.3808L21.2964 19.0099L15.0739 19.9433C14.9755 19.958 14.8755 19.958 14.7772 19.9433L8.55464 19.0099L14.9255 25.3808Z" fill="#E05149"/>
<path fill-rule="evenodd" clip-rule="evenodd" d="M22.5703 19.7599C22.9845 19.7599 23.3203 19.4241 23.3203 19.0099C23.3203 18.5957 22.9845 18.2599 22.5703 18.2599L21.2961 18.2599C21.0972 18.2599 20.9065 18.3389 20.7658 18.4796L14.9253 24.3201L9.08472 18.4796C8.94407 18.3389 8.7533 18.2599 8.55439 18.2599L7.28021 18.2599C6.866 18.2599 6.53021 18.5957 6.53021 19.0099C6.53021 19.4241 6.866 19.7599 7.28021 19.7599L8.24373 19.7599L14.3949 25.9111C14.6878 26.204 15.1627 26.204 15.4556 25.9111L21.6068 19.7599L22.5703 19.7599ZM15.6753 3.40125C15.6753 2.98703 15.3395 2.65125 14.9253 2.65125C14.511 2.65125 14.1753 2.98703 14.1753 3.40125L14.1753 18.6913C14.1753 19.1056 14.5111 19.4413 14.9253 19.4413C15.3395 19.4413 15.6753 19.1056 15.6753 18.6913L15.6753 3.40125Z" fill="#252323"/>
</g>
<defs>
<clipPath id="clip0_1220_14342">
<rect width="28" height="28" fill="white" transform="translate(0.75 0.375)"/>
</clipPath>
</defs>
</svg>
