<svg width="44" height="44" viewBox="0 0 44 44" fill="none" xmlns="http://www.w3.org/2000/svg">
<g clip-path="url(#clip0_1220_14367)">
<path fill-rule="evenodd" clip-rule="evenodd" d="M34.2891 30.0332C34.7033 30.0332 35.0391 29.6975 35.0391 29.2832C35.0391 28.869 34.7033 28.5332 34.2891 28.5332L32.2868 28.5332C32.0879 28.5332 31.8971 28.6123 31.7565 28.7529L22.2754 38.234L12.7944 28.7529C12.6537 28.6123 12.463 28.5332 12.264 28.5332L10.2618 28.5332C9.84755 28.5332 9.51176 28.869 9.51176 29.2832C9.51176 29.6975 9.84755 30.0332 10.2618 30.0332L11.9534 30.0332L21.7451 39.825C22.038 40.1178 22.5129 40.1178 22.8057 39.825L32.5975 30.0332L34.2891 30.0332ZM23.0254 4.75537C23.0254 4.34116 22.6896 4.00537 22.2754 4.00537C21.8612 4.00537 21.5254 4.34116 21.5254 4.75537L21.5254 28.7827C21.5254 29.1969 21.8612 29.5327 22.2754 29.5327C22.6896 29.5327 23.0254 29.1969 23.0254 28.7827L23.0254 4.75537Z" fill="#252323"/>
</g>
<defs>
<clipPath id="clip0_1220_14367">
<rect width="44" height="44" fill="white"/>
</clipPath>
</defs>
</svg>
