<svg width="44" height="44" viewBox="0 0 44 44" fill="none" xmlns="http://www.w3.org/2000/svg">
<g clip-path="url(#clip0_1220_14271)">
<path fill-rule="evenodd" clip-rule="evenodd" d="M10.2617 14.0168C9.8475 14.0168 9.51172 14.3526 9.51172 14.7668C9.51172 15.181 9.8475 15.5168 10.2617 15.5168L12.264 15.5168C12.4629 15.5168 12.6537 15.4378 12.7943 15.2971L22.2754 5.81609L31.7564 15.2971C31.8971 15.4378 32.0878 15.5168 32.2867 15.5168L34.289 15.5168C34.7032 15.5168 35.039 15.181 35.039 14.7668C35.039 14.3526 34.7032 14.0168 34.289 14.0168L32.5974 14.0168L22.8057 4.2251C22.5128 3.9322 22.0379 3.9322 21.745 4.2251L11.9533 14.0168L10.2617 14.0168ZM21.5254 39.2947C21.5254 39.7089 21.8612 40.0447 22.2754 40.0447C22.6896 40.0447 23.0254 39.7089 23.0254 39.2947L23.0254 15.2674C23.0254 14.8532 22.6896 14.5174 22.2754 14.5174C21.8612 14.5174 21.5254 14.8532 21.5254 15.2674L21.5254 39.2947Z" fill="#252323"/>
</g>
<defs>
<clipPath id="clip0_1220_14271">
<rect width="44" height="44" fill="white"/>
</clipPath>
</defs>
</svg>
