<svg width="44" height="44" viewBox="0 0 44 44" fill="none" xmlns="http://www.w3.org/2000/svg">
<g clip-path="url(#clip0_1220_14367)">
<path fill-rule="evenodd" clip-rule="evenodd" d="M12.2637 28.5332L10.2617 28.5332C9.84753 28.5333 9.51172 28.869 9.51172 29.2832C9.51172 29.6974 9.84753 30.0332 10.2617 30.0332L11.9531 30.0332L21.7451 39.8252C22.038 40.1179 22.5128 40.1179 22.8057 39.8252L32.5977 30.0332L34.2891 30.0332C34.7033 30.0332 35.0391 29.6975 35.0391 29.2832C35.0391 28.869 34.7033 28.5332 34.2891 28.5332L32.2871 28.5332C32.0883 28.5332 31.8975 28.6124 31.7568 28.753L22.2754 38.2344L12.7939 28.753C12.6533 28.6124 12.4625 28.5332 12.2637 28.5332ZM22.2754 29.5327C22.6896 29.5327 23.0254 29.1969 23.0254 28.7827L23.0254 4.75537C23.0254 4.34116 22.6896 4.00537 22.2754 4.00537C21.8612 4.00537 21.5254 4.34116 21.5254 4.75537L21.5254 28.7827C21.5254 29.1969 21.8612 29.5327 22.2754 29.5327Z" fill="#332A2A"/>
</g>
<defs>
<clipPath id="clip0_1220_14367">
<rect width="44" height="44" fill="white"/>
</clipPath>
</defs>
</svg>
