<svg width="18" height="18" viewBox="0 0 18 18" fill="none" xmlns="http://www.w3.org/2000/svg">
<g clip-path="url(#clip0_1220_14292)">
<path d="M2.04775 9.01027L6.14331 13.1058L5.55123 9.15861C5.53648 9.06027 5.53648 8.96028 5.55123 8.86193L6.14331 4.91471L2.04775 9.01027Z" fill="#E05149"/>
<path fill-rule="evenodd" clip-rule="evenodd" d="M5.51836 13.9249C5.51836 14.2701 5.79818 14.5499 6.14336 14.5499C6.48854 14.5499 6.76836 14.2701 6.76836 13.9249L6.76836 13.1058C6.76836 12.9401 6.70251 12.7811 6.5853 12.6639L2.93168 9.01025L6.5853 5.35663C6.70251 5.23942 6.76836 5.08045 6.76836 4.91469L6.76836 4.09558C6.76836 3.7504 6.48854 3.47058 6.14336 3.47058C5.79818 3.47058 5.51836 3.7504 5.51836 4.09558L5.51836 4.65581L1.60585 8.56831C1.48864 8.68552 1.4228 8.84449 1.4228 9.01025C1.4228 9.17601 1.48864 9.33498 1.60585 9.45219L5.51836 13.3647L5.51836 13.9249ZM16.1775 9.63525C16.5227 9.63525 16.8025 9.35543 16.8025 9.01025C16.8025 8.66507 16.5227 8.38525 16.1775 8.38525L6.34814 8.38525C6.00296 8.38525 5.72314 8.66507 5.72314 9.01025C5.72314 9.35543 6.00296 9.63525 6.34814 9.63525L16.1775 9.63525Z" fill="#252323"/>
</g>
<defs>
<clipPath id="clip0_1220_14292">
<rect width="18" height="18" fill="white"/>
</clipPath>
</defs>
</svg>
