<svg width="23" height="23" viewBox="0 0 23 23" fill="none" xmlns="http://www.w3.org/2000/svg">
<g clip-path="url(#clip0_1220_14317)">
<path fill-rule="evenodd" clip-rule="evenodd" d="M7.225 17.793C7.225 18.1381 7.50482 18.418 7.85 18.418C8.19518 18.418 8.475 18.1381 8.475 17.793L8.475 16.7463C8.475 16.5806 8.40915 16.4216 8.29194 16.3044L3.50066 11.5131L8.29194 6.72183C8.40915 6.60462 8.475 6.44565 8.475 6.27989L8.475 5.23324C8.475 4.88806 8.19518 4.60824 7.85 4.60824C7.50482 4.60824 7.225 4.88806 7.225 5.23324L7.225 6.021L2.17484 11.0712C1.93076 11.3152 1.93076 11.711 2.17484 11.955L7.225 17.0052L7.225 17.793ZM20.6714 12.1381C21.0166 12.1381 21.2964 11.8583 21.2964 11.5131C21.2964 11.1679 21.0166 10.8881 20.6714 10.8881L8.11166 10.8881C7.76648 10.8881 7.48666 11.1679 7.48666 11.5131C7.48666 11.8583 7.76648 12.1381 8.11166 12.1381L20.6714 12.1381Z" fill="#332A2A"/>
</g>
<defs>
<clipPath id="clip0_1220_14317">
<rect width="23" height="23" fill="white"/>
</clipPath>
</defs>
</svg>
