<svg width="18" height="18" viewBox="0 0 18 18" fill="none" xmlns="http://www.w3.org/2000/svg">
<g clip-path="url(#clip0_664_6880)">
<path d="M16.3822 9.01036L12.2866 4.91479V6.96258H3.45728C2.90499 6.96258 2.45728 7.41029 2.45728 7.96258V11.2629H12.2866V13.1059L16.3822 9.01036Z" fill="#E05149"/>
<path d="M11.3315 12.9809V11.558H7.04248C6.69737 11.558 6.41759 11.2781 6.41748 10.933C6.41748 10.5878 6.6973 10.308 7.04248 10.308H11.9565C12.3017 10.308 12.5815 10.5878 12.5815 10.933V11.4721L14.5864 9.4672L15.1685 8.88419L12.5815 6.29727V6.83731C12.5815 7.18246 12.3017 7.46231 11.9565 7.46231H9.49951C9.15436 7.46231 8.87455 7.18246 8.87451 6.83731C8.87451 6.49214 9.15433 6.21231 9.49951 6.21231H11.3315V4.78946C11.3315 4.53681 11.484 4.30914 11.7173 4.21231C11.9508 4.1156 12.2202 4.16843 12.3989 4.34708L16.4946 8.44278C16.7386 8.68674 16.7383 9.08247 16.4946 9.32657L12.3989 13.4223L11.9575 12.9809H11.9565L12.3989 13.4223C12.2202 13.601 11.9508 13.6548 11.7173 13.558C11.484 13.4612 11.3317 13.2334 11.3315 12.9809ZM7.04248 6.21231C7.38749 6.21251 7.66748 6.49226 7.66748 6.83731C7.66744 7.18234 7.38747 7.46212 7.04248 7.46231H2.75244V10.308H4.58447C4.92965 10.308 5.20947 10.5878 5.20947 10.933C5.20936 11.2781 4.92958 11.558 4.58447 11.558H2.12744C1.78233 11.558 1.50256 11.2781 1.50244 10.933V6.83731C1.50244 6.49214 1.78226 6.21231 2.12744 6.21231H7.04248Z" fill="#332A2A"/>
</g>
<defs>
<clipPath id="clip0_664_6880">
<rect width="18" height="18" fill="white"/>
</clipPath>
</defs>
</svg>
