<svg width="18" height="18" viewBox="0 0 18 18" fill="none" xmlns="http://www.w3.org/2000/svg">
<g clip-path="url(#clip0_1220_14340)">
<path d="M9.11269 16.0751L13.2083 11.9795L9.26103 12.5716C9.16269 12.5863 9.06269 12.5863 8.96435 12.5716L5.01713 11.9795L9.11269 16.0751Z" fill="#E05149"/>
<path d="M14.5273 12.1045C14.5273 12.4496 14.2475 12.7295 13.9023 12.7295L13.3428 12.7295L9.42969 16.6416L8.98828 16.1992L8.98731 16.2002L9.42969 16.6416C9.31248 16.7588 9.15306 16.8252 8.98731 16.8252C8.82169 16.8251 8.66302 16.7587 8.5459 16.6416L4.63379 12.7295L4.07324 12.7295C3.72808 12.7295 3.44827 12.4496 3.44824 12.1045C3.44824 11.7593 3.72807 11.4795 4.07324 11.4795L4.89258 11.4795C5.05805 11.4796 5.21691 11.5452 5.33399 11.6621L8.98828 15.3154L12.6416 11.6621L12.7363 11.585C12.8383 11.5169 12.9586 11.4795 13.083 11.4795L13.9023 11.4795C14.2475 11.4795 14.5273 11.7593 14.5273 12.1045ZM9.61231 11.8994C9.61231 12.2446 9.33248 12.5244 8.98731 12.5244C8.6423 12.5242 8.36231 12.2445 8.36231 11.8994L8.3623 2.07031C8.3623 1.72526 8.64229 1.44551 8.9873 1.44531C9.33248 1.44531 9.6123 1.72514 9.6123 2.07031L9.61231 11.8994Z" fill="#332A2A"/>
</g>
<defs>
<clipPath id="clip0_1220_14340">
<rect width="18" height="18" fill="white"/>
</clipPath>
</defs>
</svg>
