<svg width="44" height="44" viewBox="0 0 44 44" fill="none" xmlns="http://www.w3.org/2000/svg">
<g clip-path="url(#clip0_1220_14223)">
<path d="M29.5339 9.26135C29.9479 9.26159 30.2839 9.59729 30.2839 10.0114V11.7028L40.0759 21.4948C40.3683 21.7875 40.3683 22.2625 40.0759 22.5553L30.2839 32.3473V34.0387C30.2839 34.4527 29.9479 34.7885 29.5339 34.7887C29.1197 34.7887 28.784 34.4529 28.7839 34.0387V32.0367C28.7839 31.8379 28.8631 31.6471 29.0037 31.5065L38.4851 22.025L29.0037 12.5436C28.8631 12.4029 28.7839 12.2121 28.7839 12.0133V10.0114C28.7839 9.59714 29.1197 9.26135 29.5339 9.26135ZM29.033 21.275C29.4472 21.275 29.783 21.6108 29.783 22.025C29.7829 22.4392 29.4471 22.775 29.033 22.775H5.00562C4.59141 22.775 4.25563 22.4392 4.25562 22.025C4.25562 21.6108 4.5914 21.275 5.00562 21.275H29.033Z" fill="#332A2A"/>
</g>
<defs>
<clipPath id="clip0_1220_14223">
<rect width="44" height="44" fill="white"/>
</clipPath>
</defs>
</svg>
