<svg width="44" height="44" viewBox="0 0 44 44" fill="none" xmlns="http://www.w3.org/2000/svg">
<g clip-path="url(#clip0_1220_14343)">
<path d="M22.2752 39.2947L32.2866 29.2833L22.4236 30.7628C22.3252 30.7775 22.2252 30.7775 22.1269 30.7628L12.2639 29.2833L22.2752 39.2947Z" fill="#E05149"/>
<path d="M35.0391 29.2837C35.0388 29.6977 34.7031 30.0337 34.2891 30.0337L32.5977 30.0337L22.8057 39.8257C22.5129 40.118 22.0379 40.1181 21.7451 39.8257L11.9531 30.0337L10.2617 30.0337C9.84768 30.0337 9.51196 29.6977 9.51172 29.2837C9.51172 28.8695 9.84753 28.5337 10.2617 28.5337L12.2637 28.5337C12.4625 28.5337 12.6533 28.6129 12.7939 28.7534L22.2754 38.2349L31.7568 28.7534C31.8975 28.6129 32.0883 28.5337 32.2871 28.5337L34.2891 28.5337C34.7033 28.5337 35.0391 28.8695 35.0391 29.2837ZM23.0254 28.7827C23.0254 29.1969 22.6896 29.5327 22.2754 29.5327C21.8612 29.5327 21.5254 29.1969 21.5254 28.7827L21.5254 4.75537C21.5254 4.34117 21.8612 4.00538 22.2754 4.00537C22.6896 4.00537 23.0254 4.34116 23.0254 4.75537L23.0254 28.7827Z" fill="#332A2A"/>
</g>
<defs>
<clipPath id="clip0_1220_14343">
<rect width="44" height="44" fill="white"/>
</clipPath>
</defs>
</svg>
