<svg width="18" height="18" viewBox="0 0 18 18" fill="none" xmlns="http://www.w3.org/2000/svg">
<g clip-path="url(#clip0_664_6900)">
<path fill-rule="evenodd" clip-rule="evenodd" d="M11.8426 4.33714C12.0762 4.24041 12.345 4.29388 12.5237 4.47263L16.6193 8.56819C16.8634 8.81227 16.8634 9.208 16.6193 9.45207L15.5954 10.476L14.5715 11.4999L12.5237 13.5476C12.345 13.7264 12.0762 13.7799 11.8426 13.6831C11.6091 13.5864 11.4568 13.3585 11.4568 13.1057V11.6829H7.16712C6.82194 11.6829 6.54212 11.4031 6.54212 11.0579C6.54212 10.7127 6.82194 10.4329 7.16712 10.4329H12.0818C12.427 10.4329 12.7068 10.7127 12.7068 11.0579V11.4675V11.5968L13.6876 10.616L14.7115 9.59208L15.2935 9.01013L12.7068 6.42345V6.55279V6.96235C12.7068 7.30753 12.427 7.58735 12.0818 7.58735H9.62445C9.27928 7.58735 8.99945 7.30753 8.99945 6.96235C8.99945 6.61717 9.27928 6.33735 9.62445 6.33735H11.4568V4.91457C11.4568 4.66178 11.6091 4.43388 11.8426 4.33714ZM1.62744 6.96235C1.62744 6.61717 1.90726 6.33735 2.25244 6.33735H7.16712C7.51229 6.33735 7.79212 6.61717 7.79212 6.96235C7.79212 7.30753 7.51229 7.58735 7.16712 7.58735H2.87744V10.4329H4.70978C5.05496 10.4329 5.33478 10.7127 5.33478 11.0579C5.33478 11.4031 5.05496 11.6829 4.70978 11.6829H2.25244C1.90726 11.6829 1.62744 11.4031 1.62744 11.0579V6.96235Z" fill="#252323"/>
</g>
<defs>
<clipPath id="clip0_664_6900">
<rect width="18" height="18" fill="white"/>
</clipPath>
</defs>
</svg>
