<svg width="29" height="28" viewBox="0 0 29 28" fill="none" xmlns="http://www.w3.org/2000/svg">
<g clip-path="url(#clip0_1220_14270)">
<path fill-rule="evenodd" clip-rule="evenodd" d="M6.65503 8.64703C6.24081 8.64703 5.90503 8.98282 5.90503 9.39703C5.90503 9.81124 6.24082 10.147 6.65503 10.147L7.9292 10.147C8.12812 10.147 8.31888 10.068 8.45953 9.92736L14.3001 4.08681L20.1406 9.92736C20.2813 10.068 20.472 10.147 20.671 10.147L21.9451 10.147C22.3593 10.147 22.6951 9.81124 22.6951 9.39703C22.6951 8.98282 22.3593 8.64703 21.9451 8.64703L20.9816 8.64703L14.8304 2.49582C14.5375 2.20293 14.0626 2.20293 13.7697 2.49582L7.61854 8.64703L6.65503 8.64703ZM13.5501 25.0057C13.5501 25.4199 13.8859 25.7557 14.3001 25.7557C14.7143 25.7557 15.0501 25.4199 15.0501 25.0057L15.0501 9.71557C15.0501 9.30136 14.7143 8.96557 14.3001 8.96557C13.8859 8.96557 13.5501 9.30136 13.5501 9.71557L13.5501 25.0057Z" fill="#252323"/>
</g>
<defs>
<clipPath id="clip0_1220_14270">
<rect width="28" height="28" fill="white" transform="translate(0.125)"/>
</clipPath>
</defs>
</svg>
