<svg width="23" height="23" viewBox="0 0 23 23" fill="none" xmlns="http://www.w3.org/2000/svg">
<g clip-path="url(#clip0_1220_14197)">
<path d="M20.6712 11.5131L15.438 6.27985L16.2007 11.3647C16.2155 11.4631 16.2155 11.5631 16.2007 11.6614L15.438 16.7463L20.6712 11.5131Z" fill="#E05149"/>
<path d="M15.4878 4.60822C15.8606 4.60822 16.1626 4.91023 16.1626 5.28302V6.04962L21.1987 11.0858C21.4619 11.3493 21.4619 11.7763 21.1987 12.0399L16.1626 17.076V17.8426C16.1626 18.2154 15.8606 18.5174 15.4878 18.5174C15.115 18.5173 14.813 18.2153 14.813 17.8426V16.7957C14.8131 16.617 14.884 16.4456 15.0103 16.3192L19.7661 11.5623L15.0103 6.80743C14.8838 6.68091 14.813 6.50881 14.813 6.3299V5.28302C14.813 4.91026 15.115 4.60827 15.4878 4.60822ZM15.2261 10.8885C15.5989 10.8885 15.9009 11.1905 15.9009 11.5633C15.9007 11.9359 15.5987 12.2381 15.2261 12.2381H2.6665C2.29385 12.2381 1.99192 11.9359 1.9917 11.5633C1.9917 11.1905 2.29371 10.8885 2.6665 10.8885H15.2261Z" fill="#332A2A"/>
</g>
<defs>
<clipPath id="clip0_1220_14197">
<rect width="23" height="23" fill="white"/>
</clipPath>
</defs>
</svg>
