<svg width="23" height="23" viewBox="0 0 23 23" fill="none" xmlns="http://www.w3.org/2000/svg">
<g clip-path="url(#clip0_1220_14341)">
<path d="M11.644 20.5402L16.8772 15.307L11.7923 16.0697C11.694 16.0845 11.594 16.0845 11.4956 16.0697L6.41076 15.307L11.644 20.5402Z" fill="#E05149"/>
<path d="M18.5488 15.3568C18.5488 15.7296 18.2468 16.0316 17.874 16.0316L17.1074 16.0316L12.0713 21.0677C11.8078 21.3309 11.3807 21.3309 11.1172 21.0677L6.08106 16.0316L5.31445 16.0316C4.94166 16.0316 4.63965 15.7296 4.63965 15.3568C4.6397 14.9841 4.9417 14.682 5.31445 14.682L6.36133 14.682C6.54005 14.6821 6.71143 14.753 6.83789 14.8793L11.5947 19.6351L16.3496 14.8793C16.4761 14.7528 16.6482 14.6821 16.8272 14.682L17.874 14.682C18.2468 14.682 18.5488 14.9841 18.5488 15.3568ZM12.2686 15.0951C12.2686 15.4679 11.9665 15.7699 11.5938 15.7699C11.2211 15.7697 10.9189 15.4677 10.9189 15.0951L10.9189 2.53552C10.9189 2.16287 11.2211 1.86094 11.5938 1.86072C11.9665 1.86072 12.2686 2.16273 12.2686 2.53552L12.2686 15.0951Z" fill="#332A2A"/>
</g>
<defs>
<clipPath id="clip0_1220_14341">
<rect width="23" height="23" fill="white"/>
</clipPath>
</defs>
</svg>
