<svg width="44" height="44" viewBox="0 0 44 44" fill="none" xmlns="http://www.w3.org/2000/svg">
<g clip-path="url(#clip0_1220_14319)">
<path fill-rule="evenodd" clip-rule="evenodd" d="M14.267 34.0387C14.267 34.4529 14.6028 34.7887 15.017 34.7887C15.4313 34.7887 15.767 34.4529 15.767 34.0387L15.767 32.0364C15.767 31.8375 15.688 31.6467 15.5474 31.5061L6.06633 22.025L15.5474 12.544C15.688 12.4033 15.767 12.2126 15.767 12.0137L15.767 10.0114C15.767 9.59718 15.4313 9.2614 15.017 9.2614C14.6028 9.2614 14.267 9.59718 14.267 10.0114L14.267 11.703L4.47534 21.4947C4.18245 21.7876 4.18245 22.2625 4.47534 22.5554L14.267 32.3471L14.267 34.0387ZM39.5449 22.775C39.9591 22.775 40.2949 22.4393 40.2949 22.025C40.2949 21.6108 39.9591 21.275 39.5449 21.275L15.5176 21.275C15.1034 21.275 14.7676 21.6108 14.7676 22.025C14.7676 22.4393 15.1034 22.775 15.5176 22.775L39.5449 22.775Z" fill="#252323"/>
</g>
<defs>
<clipPath id="clip0_1220_14319">
<rect width="44" height="44" fill="white"/>
</clipPath>
</defs>
</svg>
