<svg width="29" height="28" viewBox="0 0 29 28" fill="none" xmlns="http://www.w3.org/2000/svg">
<g clip-path="url(#clip0_1220_14246)">
<path d="M14.3001 3.0261L7.9292 9.39697L14.1517 8.46359C14.2501 8.44884 14.3501 8.44884 14.4484 8.46359L20.671 9.39697L14.3001 3.0261Z" fill="#E05149"/>
<path fill-rule="evenodd" clip-rule="evenodd" d="M6.65503 8.64709C6.24081 8.64709 5.90503 8.98288 5.90503 9.39709C5.90503 9.8113 6.24082 10.1471 6.65503 10.1471L7.9292 10.1471C8.12812 10.1471 8.31888 10.0681 8.45953 9.92742L14.3001 4.08688L20.1406 9.92742C20.2813 10.0681 20.472 10.1471 20.671 10.1471L21.9451 10.1471C22.3593 10.1471 22.6951 9.8113 22.6951 9.39709C22.6951 8.98288 22.3593 8.64709 21.9451 8.64709L20.9816 8.64709L14.8304 2.49589C14.5375 2.20299 14.0626 2.20299 13.7697 2.49589L7.61854 8.64709L6.65503 8.64709ZM13.5501 25.0057C13.5501 25.42 13.8859 25.7557 14.3001 25.7557C14.7143 25.7557 15.0501 25.42 15.0501 25.0057L15.0501 9.71563C15.0501 9.30142 14.7143 8.96563 14.3001 8.96563C13.8859 8.96563 13.5501 9.30142 13.5501 9.71563L13.5501 25.0057Z" fill="#252323"/>
</g>
<defs>
<clipPath id="clip0_1220_14246">
<rect width="28" height="28" fill="white" transform="translate(0.125)"/>
</clipPath>
</defs>
</svg>
