<svg width="18" height="18" viewBox="0 0 18 18" fill="none" xmlns="http://www.w3.org/2000/svg">
<g clip-path="url(#clip0_1220_14220)">
<path d="M12.207 3.59558C12.5522 3.59561 12.832 3.87542 12.832 4.22058V4.78015L16.7441 8.69324L16.3018 9.13464L16.3027 9.13562L16.7441 8.69324C16.8613 8.81044 16.9277 8.96987 16.9277 9.13562C16.9276 9.30124 16.8612 9.4599 16.7441 9.57703L12.832 13.4891V14.0497C12.832 14.3948 12.5522 14.6747 12.207 14.6747C11.8619 14.6747 11.582 14.3949 11.582 14.0497V13.2303C11.5822 13.0649 11.6477 12.906 11.7646 12.7889L15.418 9.13464L11.7646 5.48132L11.6875 5.3866C11.6194 5.28466 11.5821 5.16429 11.582 5.03992V4.22058C11.582 3.8754 11.8619 3.59558 12.207 3.59558ZM12.002 8.51062C12.3471 8.51062 12.627 8.79044 12.627 9.13562C12.6268 9.48063 12.347 9.76062 12.002 9.76062H2.17285C1.82779 9.76062 1.54805 9.48063 1.54785 9.13562C1.54785 8.79044 1.82767 8.51062 2.17285 8.51062H12.002Z" fill="#332A2A"/>
</g>
<defs>
<clipPath id="clip0_1220_14220">
<rect width="18" height="18" fill="white"/>
</clipPath>
</defs>
</svg>
