<svg width="28" height="28" viewBox="0 0 28 28" fill="none" xmlns="http://www.w3.org/2000/svg">
<g clip-path="url(#clip0_1220_14366)">
<path fill-rule="evenodd" clip-rule="evenodd" d="M21.8203 19.3849C22.2345 19.3849 22.5703 19.0491 22.5703 18.6349C22.5703 18.2207 22.2345 17.8849 21.8203 17.8849L20.5461 17.8849C20.3472 17.8849 20.1565 17.9639 20.0158 18.1046L14.1753 23.9451L8.33472 18.1046C8.19407 17.9639 8.0033 17.8849 7.80439 17.8849L6.53021 17.8849C6.116 17.8849 5.78021 18.2207 5.78021 18.6349C5.78021 19.0491 6.116 19.3849 6.53021 19.3849L7.49373 19.3849L13.6449 25.5361C13.9378 25.829 14.4127 25.829 14.7056 25.5361L20.8568 19.3849L21.8203 19.3849ZM14.9253 3.02625C14.9253 2.61203 14.5895 2.27625 14.1753 2.27625C13.761 2.27625 13.4253 2.61203 13.4253 3.02625L13.4253 18.3163C13.4253 18.7306 13.7611 19.0663 14.1753 19.0663C14.5895 19.0663 14.9253 18.7306 14.9253 18.3163L14.9253 3.02625Z" fill="#332A2A"/>
</g>
<defs>
<clipPath id="clip0_1220_14366">
<rect width="28" height="28" fill="white"/>
</clipPath>
</defs>
</svg>
