<svg width="18" height="18" viewBox="0 0 18 18" fill="none" xmlns="http://www.w3.org/2000/svg">
<g clip-path="url(#clip0_1220_14196)">
<path d="M16.1776 9.01024L12.082 4.91467L12.6741 8.8619C12.6889 8.96024 12.6889 9.06023 12.6741 9.15858L12.082 13.1058L16.1776 9.01024Z" fill="#E05149"/>
<path fill-rule="evenodd" clip-rule="evenodd" d="M12.707 4.09558C12.707 3.7504 12.4272 3.47058 12.082 3.47058C11.7368 3.47058 11.457 3.7504 11.457 4.09558V4.91469C11.457 5.08045 11.5228 5.23943 11.64 5.35664L15.2937 9.01026L11.64 12.6639C11.5228 12.7811 11.457 12.9401 11.457 13.1058V13.9249C11.457 14.2701 11.7368 14.5499 12.082 14.5499C12.4272 14.5499 12.707 14.2701 12.707 13.9249V13.3647L16.6195 9.4522C16.7367 9.33499 16.8025 9.17602 16.8025 9.01026C16.8025 8.8445 16.7367 8.68552 16.6195 8.56832L12.707 4.65581V4.09558ZM2.04785 8.38526C1.70267 8.38526 1.42285 8.66508 1.42285 9.01026C1.42285 9.35543 1.70267 9.63526 2.04785 9.63526H11.8772C12.2224 9.63526 12.5022 9.35543 12.5022 9.01026C12.5022 8.66508 12.2224 8.38526 11.8772 8.38526H2.04785Z" fill="#252323"/>
</g>
<defs>
<clipPath id="clip0_1220_14196">
<rect width="18" height="18" fill="white"/>
</clipPath>
</defs>
</svg>
