<svg width="44" height="44" viewBox="0 0 44 44" fill="none" xmlns="http://www.w3.org/2000/svg">
<g clip-path="url(#clip0_1220_14199)">
<path d="M39.5448 22.025L29.5334 12.0137L31.0129 21.8767C31.0277 21.9751 31.0277 22.075 31.0129 22.1734L29.5334 32.0364L39.5448 22.025Z" fill="#E05149"/>
<path fill-rule="evenodd" clip-rule="evenodd" d="M30.2835 10.0114C30.2835 9.59714 29.9477 9.26135 29.5335 9.26135C29.1193 9.26135 28.7835 9.59714 28.7835 10.0114V12.0136C28.7835 12.2125 28.8625 12.4033 29.0032 12.544L38.4842 22.025L29.0032 31.5061C28.8625 31.6467 28.7835 31.8375 28.7835 32.0364V34.0387C28.7835 34.4529 29.1193 34.7887 29.5335 34.7887C29.9477 34.7887 30.2835 34.4529 30.2835 34.0387V32.347L40.0752 22.5553C40.3681 22.2624 40.3681 21.7876 40.0752 21.4947L30.2835 11.703V10.0114ZM5.00562 21.275C4.5914 21.275 4.25562 21.6108 4.25562 22.025C4.25562 22.4392 4.5914 22.775 5.00562 22.775H29.0329C29.4471 22.775 29.7829 22.4392 29.7829 22.025C29.7829 21.6108 29.4471 21.275 29.0329 21.275H5.00562Z" fill="#252323"/>
</g>
<defs>
<clipPath id="clip0_1220_14199">
<rect width="44" height="44" fill="white"/>
</clipPath>
</defs>
</svg>
