<svg width="19" height="18" viewBox="0 0 19 18" fill="none" xmlns="http://www.w3.org/2000/svg">
<g clip-path="url(#clip0_1220_14268)">
<path fill-rule="evenodd" clip-rule="evenodd" d="M4.323 5.41594C3.97782 5.41594 3.698 5.69577 3.698 6.04094C3.698 6.38612 3.97782 6.66594 4.323 6.66594L5.14211 6.66594C5.30787 6.66594 5.46684 6.60009 5.58405 6.48288L9.23767 2.82926L12.8913 6.48288C13.0085 6.60009 13.1675 6.66594 13.3332 6.66594L14.1523 6.66594C14.4975 6.66594 14.7773 6.38612 14.7773 6.04094C14.7773 5.69577 14.4975 5.41594 14.1523 5.41594L13.5921 5.41594L9.67961 1.50344C9.5624 1.38623 9.40343 1.32038 9.23767 1.32038C9.07191 1.32038 8.91294 1.38623 8.79573 1.50344L4.88323 5.41594L4.323 5.41594ZM8.61267 16.0751C8.61267 16.4203 8.8925 16.7001 9.23767 16.7001C9.58285 16.7001 9.86267 16.4203 9.86267 16.0751L9.86267 6.24572C9.86267 5.90054 9.58285 5.62072 9.23767 5.62072C8.8925 5.62072 8.61267 5.90054 8.61267 6.24572L8.61267 16.0751Z" fill="#252323"/>
</g>
<defs>
<clipPath id="clip0_1220_14268">
<rect width="18" height="18" fill="white" transform="translate(0.125)"/>
</clipPath>
</defs>
</svg>
