<svg width="28" height="28" viewBox="0 0 28 28" fill="none" xmlns="http://www.w3.org/2000/svg">
<g clip-path="url(#clip0_1220_14246)">
<path d="M14.1751 3.0261L7.8042 9.39697L14.0267 8.46359C14.1251 8.44884 14.2251 8.44884 14.3234 8.46359L20.546 9.39697L14.1751 3.0261Z" fill="#E05149"/>
<path fill-rule="evenodd" clip-rule="evenodd" d="M6.53003 8.64709C6.11581 8.64709 5.78003 8.98288 5.78003 9.39709C5.78003 9.8113 6.11582 10.1471 6.53003 10.1471L7.8042 10.1471C8.00312 10.1471 8.19388 10.0681 8.33453 9.92742L14.1751 4.08688L20.0156 9.92742C20.1563 10.0681 20.347 10.1471 20.546 10.1471L21.8201 10.1471C22.2343 10.1471 22.5701 9.8113 22.5701 9.39709C22.5701 8.98288 22.2343 8.64709 21.8201 8.64709L20.8566 8.64709L14.7054 2.49589C14.4125 2.20299 13.9376 2.20299 13.6447 2.49589L7.49354 8.64709L6.53003 8.64709ZM13.4251 25.0057C13.4251 25.42 13.7609 25.7557 14.1751 25.7557C14.5893 25.7557 14.9251 25.42 14.9251 25.0057L14.9251 9.71563C14.9251 9.30142 14.5893 8.96563 14.1751 8.96563C13.7609 8.96563 13.4251 9.30142 13.4251 9.71563L13.4251 25.0057Z" fill="#332A2A"/>
</g>
<defs>
<clipPath id="clip0_1220_14246">
<rect width="28" height="28" fill="white"/>
</clipPath>
</defs>
</svg>
