<svg width="24" height="23" viewBox="0 0 24 23" fill="none" xmlns="http://www.w3.org/2000/svg">
<g clip-path="url(#clip0_1220_14245)">
<path d="M12.3941 2.4859L7.16089 7.71912L12.2458 6.95638C12.3441 6.94163 12.4441 6.94163 12.5424 6.95638L17.6273 7.71912L12.3941 2.4859Z" fill="#E05149"/>
<path fill-rule="evenodd" clip-rule="evenodd" d="M6.11421 7.04394C5.74142 7.04394 5.43921 7.34615 5.43921 7.71894C5.43921 8.09174 5.74142 8.39394 6.11421 8.39394L7.16085 8.39394C7.33987 8.39394 7.51156 8.32283 7.63815 8.19624L12.3941 3.44032L17.15 8.19624C17.2766 8.32283 17.4483 8.39394 17.6273 8.39394L18.6739 8.39394C19.0467 8.39394 19.3489 8.09174 19.3489 7.71894C19.3489 7.34615 19.0467 7.04394 18.6739 7.04394L17.9069 7.04394L12.8714 2.00843C12.6078 1.74482 12.1804 1.74482 11.9168 2.00843L6.88126 7.04394L6.11421 7.04394ZM11.7191 20.5403C11.7191 20.9131 12.0213 21.2153 12.3941 21.2153C12.7669 21.2153 13.0691 20.9131 13.0691 20.5403L13.0691 7.9806C13.0691 7.60781 12.7669 7.3056 12.3941 7.3056C12.0213 7.3056 11.7191 7.60781 11.7191 7.9806L11.7191 20.5403Z" fill="#252323"/>
</g>
<defs>
<clipPath id="clip0_1220_14245">
<rect width="23" height="23" fill="white" transform="translate(0.75)"/>
</clipPath>
</defs>
</svg>
