<svg width="28" height="28" viewBox="0 0 28 28" fill="none" xmlns="http://www.w3.org/2000/svg">
<g clip-path="url(#clip0_1220_14318)">
<path fill-rule="evenodd" clip-rule="evenodd" d="M8.80639 21.661C8.80639 22.0752 9.14218 22.411 9.55639 22.411C9.97061 22.411 10.3064 22.0752 10.3064 21.661L10.3064 20.3868C10.3064 20.1879 10.2274 19.9972 10.0867 19.8565L4.24618 14.016L10.0867 8.17542C10.2274 8.03476 10.3064 7.844 10.3064 7.64509L10.3064 6.37091C10.3064 5.9567 9.9706 5.62091 9.55639 5.62091C9.14218 5.62091 8.80639 5.9567 8.80639 6.37091L8.80639 7.33443L2.65519 13.4856C2.36229 13.7785 2.36229 14.2534 2.65519 14.5463L8.80639 20.6975L8.80639 21.661ZM25.165 14.766C25.5793 14.766 25.915 14.4302 25.915 14.016C25.915 13.6017 25.5793 13.266 25.165 13.266L9.87494 13.266C9.46072 13.266 9.12494 13.6017 9.12494 14.016C9.12494 14.4302 9.46072 14.766 9.87494 14.766L25.165 14.766Z" fill="#332A2A"/>
</g>
<defs>
<clipPath id="clip0_1220_14318">
<rect width="28" height="28" fill="white"/>
</clipPath>
</defs>
</svg>
