<svg width="24" height="23" viewBox="0 0 24 23" fill="none" xmlns="http://www.w3.org/2000/svg">
<g clip-path="url(#clip0_1220_14221)">
<path fill-rule="evenodd" clip-rule="evenodd" d="M16.863 5.23323C16.863 4.86044 16.5608 4.55823 16.188 4.55823C15.8152 4.55823 15.513 4.86044 15.513 5.23323V6.27987C15.513 6.45889 15.5842 6.63058 15.7107 6.75717L20.4667 11.5131L15.7107 16.269C15.5842 16.3956 15.513 16.5673 15.513 16.7463V17.793C15.513 18.1657 15.8152 18.468 16.188 18.468C16.5608 18.468 16.863 18.1657 16.863 17.793V17.0259L21.8986 11.9904C22.1622 11.7268 22.1622 11.2994 21.8986 11.0358L16.863 6.00028V5.23323ZM3.36665 10.8381C2.99386 10.8381 2.69165 11.1403 2.69165 11.5131C2.69165 11.8859 2.99386 12.1881 3.36665 12.1881H15.9264C16.2992 12.1881 16.6014 11.8859 16.6014 11.5131C16.6014 11.1403 16.2992 10.8381 15.9264 10.8381H3.36665Z" fill="#252323"/>
</g>
<defs>
<clipPath id="clip0_1220_14221">
<rect width="23" height="23" fill="white" transform="translate(0.75)"/>
</clipPath>
</defs>
</svg>
