<svg width="44" height="44" viewBox="0 0 44 44" fill="none" xmlns="http://www.w3.org/2000/svg">
<g clip-path="url(#clip0_664_6897)">
<path fill-rule="evenodd" clip-rule="evenodd" d="M29.2466 11.3208C29.5269 11.2047 29.8495 11.2689 30.064 11.4834L40.0754 21.4947C40.216 21.6354 40.295 21.8262 40.295 22.0251C40.295 22.224 40.216 22.4147 40.0754 22.5554L37.5725 25.0582L35.0697 27.5611L30.064 32.5668C29.8495 32.7813 29.5269 32.8454 29.2466 32.7294C28.9664 32.6133 28.7837 32.3398 28.7837 32.0364V28.0319V27.7808H17.52C17.1058 27.7808 16.77 27.445 16.77 27.0308C16.77 26.6165 17.1058 26.2808 17.52 26.2808H29.5337C29.9479 26.2808 30.2837 26.6165 30.2837 27.0308V28.0319V30.2258L34.009 26.5004L36.5119 23.9976L38.4844 22.0251L30.2837 13.8244V16.0182V17.0194C30.2837 17.4336 29.9479 17.7694 29.5337 17.7694H23.5268C23.1126 17.7694 22.7768 17.4336 22.7768 17.0194C22.7768 16.6052 23.1126 16.2694 23.5268 16.2694H28.7837V16.0182V12.0137C28.7837 11.7103 28.9664 11.4369 29.2466 11.3208ZM4.75635 17.0194C4.75635 16.6052 5.09213 16.2694 5.50635 16.2694H17.52C17.9342 16.2694 18.27 16.6052 18.27 17.0194C18.27 17.4336 17.9342 17.7694 17.52 17.7694H6.25635V26.2808H11.5132C11.9274 26.2808 12.2632 26.6165 12.2632 27.0308C12.2632 27.445 11.9274 27.7808 11.5132 27.7808H5.50635C5.09213 27.7808 4.75635 27.445 4.75635 27.0308V17.0194Z" fill="#252323"/>
</g>
<defs>
<clipPath id="clip0_664_6897">
<rect width="44" height="44" fill="white"/>
</clipPath>
</defs>
</svg>
