<svg width="19" height="18" viewBox="0 0 19 18" fill="none" xmlns="http://www.w3.org/2000/svg">
<g clip-path="url(#clip0_1220_14364)">
<path fill-rule="evenodd" clip-rule="evenodd" d="M14.9023 12.6044C15.2475 12.6044 15.5273 12.3246 15.5273 11.9794C15.5273 11.6343 15.2475 11.3544 14.9023 11.3544L14.0832 11.3544C13.9175 11.3544 13.7585 11.4203 13.6413 11.5375L9.98767 15.1911L6.33405 11.5375C6.21684 11.4203 6.05787 11.3544 5.89211 11.3544L5.07299 11.3544C4.72782 11.3544 4.44799 11.6343 4.44799 11.9794C4.44799 12.3246 4.72782 12.6044 5.07299 12.6044L5.63322 12.6044L9.54573 16.5169C9.66294 16.6342 9.82191 16.7 9.98767 16.7C10.1534 16.7 10.3124 16.6342 10.4296 16.5169L14.3421 12.6044L14.9023 12.6044ZM10.6127 1.94531C10.6127 1.60014 10.3328 1.32031 9.98767 1.32031C9.64249 1.32031 9.36267 1.60014 9.36267 1.94531L9.36267 11.7747C9.36267 12.1198 9.64249 12.3997 9.98767 12.3997C10.3328 12.3997 10.6127 12.1198 10.6127 11.7747L10.6127 1.94531Z" fill="#252323"/>
</g>
<defs>
<clipPath id="clip0_1220_14364">
<rect width="18" height="18" fill="white" transform="translate(0.875)"/>
</clipPath>
</defs>
</svg>
