<svg width="23" height="23" viewBox="0 0 23 23" fill="none" xmlns="http://www.w3.org/2000/svg">
<g clip-path="url(#clip0_664_6899)">
<path d="M14.6877 16.6719V14.7295H9.08325C8.71046 14.7295 8.40747 14.4275 8.40747 14.0547C8.40759 13.682 8.71053 13.3799 9.08325 13.3799H15.3625C15.7353 13.3799 16.0372 13.682 16.0374 14.0547V15.042L17.5022 13.5772L18.8108 12.2696L19.6409 11.4385L16.0374 7.83499V8.82132C16.0374 9.19411 15.7353 9.4971 15.3625 9.4971H12.2229C11.8501 9.4971 11.5481 9.19411 11.5481 8.82132C11.5483 8.44871 11.8502 8.14651 12.2229 8.14651H14.6877V6.20511C14.6877 5.93209 14.8525 5.68556 15.1047 5.58108C15.3568 5.47687 15.6472 5.53469 15.8401 5.72757L21.0735 10.961C21.337 11.2246 21.3371 11.6525 21.0735 11.916L19.7649 13.2237L15.8401 17.1485L15.3635 16.6719H15.3625L15.8401 17.1485C15.6471 17.3415 15.3569 17.3993 15.1047 17.2949C14.8526 17.1905 14.6879 16.9448 14.6877 16.6719ZM9.08325 8.14651C9.45572 8.14673 9.75784 8.44884 9.75806 8.82132C9.75806 9.19397 9.45586 9.49688 9.08325 9.4971H3.47778V13.3799H5.94263C6.31535 13.3799 6.61731 13.682 6.61743 14.0547C6.61743 14.4275 6.31542 14.7295 5.94263 14.7295H2.80298C2.43019 14.7295 2.12817 14.4275 2.12817 14.0547V8.82132C2.12839 8.44871 2.43032 8.14651 2.80298 8.14651H9.08325Z" fill="#332A2A"/>
</g>
<defs>
<clipPath id="clip0_664_6899">
<rect width="23" height="23" fill="white"/>
</clipPath>
</defs>
</svg>
