<svg width="23" height="23" viewBox="0 0 23 23" fill="none" xmlns="http://www.w3.org/2000/svg">
<g clip-path="url(#clip0_664_6875)">
<path d="M20.9328 11.513L15.6996 6.27979V8.8964H4.13989C3.58761 8.8964 3.13989 9.34411 3.13989 9.89639V14.3913H15.6996V16.7462L20.9328 11.513Z" fill="#E05149"/>
<path fill-rule="evenodd" clip-rule="evenodd" d="M15.1798 5.65614C15.432 5.55166 15.7223 5.60941 15.9154 5.80246L21.1486 11.0357C21.4122 11.2993 21.4122 11.7267 21.1486 11.9903L19.8403 13.2986L18.532 14.6069L15.9154 17.2235C15.7223 17.4165 15.432 17.4743 15.1798 17.3698C14.9276 17.2653 14.7631 17.0192 14.7631 16.7462V14.8046H9.15823C8.78544 14.8046 8.48323 14.5024 8.48323 14.1296C8.48323 13.7568 8.78544 13.4546 9.15823 13.4546H15.4381C15.8109 13.4546 16.1131 13.7568 16.1131 14.1296V14.6529V15.1166L17.5774 13.6523L18.8857 12.344L19.7167 11.513L16.1131 7.90935V8.37304V8.89637C16.1131 9.26916 15.8109 9.57137 15.4381 9.57137H12.2982C11.9254 9.57137 11.6232 9.26916 11.6232 8.89637C11.6232 8.52357 11.9254 8.22137 12.2982 8.22137H14.7631V6.27976C14.7631 6.00674 14.9276 5.76061 15.1798 5.65614ZM2.20337 8.89637C2.20337 8.52357 2.50558 8.22137 2.87837 8.22137H9.15823C9.53102 8.22137 9.83323 8.52357 9.83323 8.89637C9.83323 9.26916 9.53102 9.57137 9.15823 9.57137H3.55337V13.4546H6.0183C6.39109 13.4546 6.6933 13.7568 6.6933 14.1296C6.6933 14.5024 6.39109 14.8046 6.0183 14.8046H2.87837C2.50558 14.8046 2.20337 14.5024 2.20337 14.1296V8.89637Z" fill="#252323"/>
</g>
<defs>
<clipPath id="clip0_664_6875">
<rect width="23" height="23" fill="white"/>
</clipPath>
</defs>
</svg>
