<svg width="44" height="44" viewBox="0 0 44 44" fill="none" xmlns="http://www.w3.org/2000/svg">
<g clip-path="url(#clip0_1220_14319)">
<path fill-rule="evenodd" clip-rule="evenodd" d="M15.767 12.0133L15.767 10.0114C15.767 9.59716 15.4312 9.26135 15.017 9.26135C14.6028 9.26135 14.2671 9.59716 14.267 10.0114L14.267 11.7028L4.47506 21.4948C4.18238 21.7876 4.1824 22.2624 4.47506 22.5553L14.267 32.3473L14.267 34.0387C14.267 34.4529 14.6028 34.7887 15.017 34.7887C15.4313 34.7887 15.767 34.4529 15.767 34.0387L15.767 32.0367C15.767 31.8379 15.6879 31.6471 15.5473 31.5065L6.06588 22.025L15.5473 12.5436C15.6879 12.4029 15.767 12.2121 15.767 12.0133ZM14.7676 22.025C14.7676 22.4392 15.1034 22.775 15.5176 22.775L39.5449 22.775C39.9591 22.775 40.2949 22.4393 40.2949 22.025C40.2949 21.6108 39.9591 21.275 39.5449 21.275L15.5176 21.275C15.1034 21.2751 14.7676 21.6108 14.7676 22.025Z" fill="#332A2A"/>
</g>
<defs>
<clipPath id="clip0_1220_14319">
<rect width="44" height="44" fill="white"/>
</clipPath>
</defs>
</svg>
