<svg width="28" height="28" viewBox="0 0 28 28" fill="none" xmlns="http://www.w3.org/2000/svg">
<g clip-path="url(#clip0_2144_13370)">
<path d="M25.748 5.75098V16.3877L24.873 16.7666C24.1358 15.6712 22.8846 14.9503 21.4648 14.9502C19.1972 14.9502 17.3584 16.789 17.3584 19.0566C17.3584 19.3737 17.3958 19.6821 17.4639 19.9785L9.88477 23.2646L2.36523 21.2783V19.3828L4.38281 19.8721V18.8633L6.125 19.2305V18.4971L9.51758 19.3828V18.1914L6.125 17.6406V16.3877L4.38281 16.0518L4.22949 14.7979L2.36523 14.2178V10.5498L9.88477 12.5059L17.251 9.36914V4.6875H22.5537L25.748 5.75098Z" fill="#E05149"/>
<path d="M21.7852 4.52234C21.8995 4.12454 22.315 3.89475 22.7129 4.00867L25.7773 4.88757C26.0986 4.97996 26.3202 5.27395 26.3203 5.60828V16.3104C26.3203 16.6086 26.1434 16.8786 25.8701 16.9979L25.542 17.1395C25.4854 17.2444 25.4069 17.3395 25.3008 17.41C24.956 17.639 24.491 17.5456 24.2617 17.201C23.6592 16.2949 22.6304 15.7001 21.4639 15.7001C19.6109 15.7004 18.1087 17.2025 18.1084 19.0555C18.1084 20.9087 19.6108 22.4116 21.4639 22.412C23.3173 22.412 24.8203 20.909 24.8203 19.0555C24.8206 18.6416 25.1563 18.3056 25.5703 18.3055C25.9844 18.3056 26.3201 18.6416 26.3203 19.0555C26.3203 21.7374 24.1457 23.912 21.4639 23.912C19.4265 23.9117 17.6833 22.656 16.9629 20.8768L10.1426 23.8495C9.98702 23.9172 9.81232 23.9305 9.64844 23.8866L3.08301 22.1268V22.4296C3.08271 22.8435 2.74704 23.1796 2.33301 23.1796C1.91913 23.1794 1.58331 22.8434 1.58301 22.4296V10.4725C1.58304 10.4655 1.58475 10.458 1.58496 10.451C1.58565 10.4346 1.58706 10.4178 1.58887 10.4012C1.61375 10.1406 1.77124 9.90883 2.01074 9.7948L13.9941 4.0946C14.3681 3.91687 14.8152 4.07629 14.9932 4.45007C15.1709 4.82395 15.0124 5.27108 14.6387 5.4491L4.48145 10.2802L9.7334 11.6874L16.4404 8.76648V4.77234C16.4405 4.35832 16.7764 4.02251 17.1904 4.02234C17.6045 4.02247 17.9403 4.35829 17.9404 4.77234V8.11316L23.3574 5.75378L22.2988 5.45007C21.9011 5.33562 21.6711 4.92025 21.7852 4.52234ZM6.8623 19.3602C6.82638 19.5353 6.73033 19.6937 6.58594 19.8046C6.40101 19.9464 6.16067 19.9947 5.93555 19.9344L5.05273 19.6971V19.8397C5.05272 19.8487 5.05111 19.8582 5.05078 19.8671C5.0504 19.8757 5.05049 19.8847 5.0498 19.8934C5.04682 19.9356 5.03897 19.9765 5.0293 20.0165C5.02831 20.0205 5.0284 20.0252 5.02734 20.0292C5.02022 20.0557 5.01068 20.0813 5.00098 20.1063C4.99428 20.1239 4.98744 20.1412 4.97949 20.1581C4.9763 20.1648 4.97212 20.1711 4.96875 20.1776C4.8449 20.4213 4.59481 20.5897 4.30273 20.5897C4.21698 20.5896 4.13533 20.5723 4.05859 20.5458L3.08301 20.2841V20.5731L9.09277 22.1835V19.9882L6.8623 19.3602ZM17.4893 9.94519C17.4848 9.94714 17.4801 9.94919 17.4756 9.95105L10.5928 12.9501V22.0165L16.6211 19.3885C16.6136 19.2785 16.6084 19.1675 16.6084 19.0555C16.6087 16.3741 18.7825 14.2004 21.4639 14.2001C22.7664 14.2001 23.9487 14.7141 24.8203 15.5477V6.75281L17.4893 9.94519ZM21.4648 16.1132C23.0901 16.1133 24.4072 17.4313 24.4072 19.0565C24.4069 20.6815 23.0899 21.9987 21.4648 21.9989C19.8397 21.9989 18.5218 20.6816 18.5215 19.0565C18.5215 17.4312 19.8395 16.1132 21.4648 16.1132ZM21.4648 17.1132C20.3918 17.1132 19.5215 17.9834 19.5215 19.0565C19.5218 20.1293 20.3919 20.9989 21.4648 20.9989C22.5376 20.9987 23.4069 20.1292 23.4072 19.0565C23.4072 17.9835 22.5378 17.1133 21.4648 17.1132ZM21.6016 17.4989C21.8776 17.4989 22.1014 17.7229 22.1016 17.9989C22.1016 18.275 21.8777 18.4989 21.6016 18.4989C21.3072 18.499 21.0406 18.6149 20.8438 18.8046C20.6449 18.996 20.3283 18.9906 20.1367 18.7919C19.9453 18.593 19.9517 18.2764 20.1504 18.0848C20.5261 17.7229 21.0382 17.499 21.6016 17.4989ZM3.08301 18.7313L3.55273 18.8573V15.328L3.08301 15.202V18.7313ZM5.05273 18.1444L5.37988 18.2323V17.1151L5.05273 17.0272V18.1444ZM3.08301 13.6483L4.49707 14.0282C4.82488 14.116 5.05265 14.4134 5.05273 14.7528V15.4755L6.32324 15.8163C6.65105 15.9041 6.8798 16.2015 6.87988 16.5409V16.7753L9.09277 17.3573V13.0692L3.08301 11.4589V13.6483ZM18.8057 12.3163C19.1857 12.1517 19.6273 12.327 19.792 12.7069C19.9563 13.0869 19.7822 13.5286 19.4023 13.6932L16.1445 15.1034C15.7647 15.2677 15.323 15.0934 15.1582 14.7137C14.9939 14.3339 15.1682 13.8921 15.5479 13.7274L18.8057 12.3163Z" fill="#332A2A"/>
</g>
<defs>
<clipPath id="clip0_2144_13370">
<rect width="28" height="28" fill="white"/>
</clipPath>
</defs>
</svg>
