<svg width="44" height="44" viewBox="0 0 44 44" fill="none" xmlns="http://www.w3.org/2000/svg">
<g clip-path="url(#clip0_2144_13393)">
<path d="M34.6465 7.22555C34.7609 6.82765 35.1762 6.59773 35.5742 6.71188L40.3896 8.09274C40.7108 8.18518 40.9325 8.47918 40.9326 8.81344V25.6318C40.9326 25.9299 40.7556 26.2 40.4824 26.3193L39.8154 26.6084C39.7651 26.7635 39.6679 26.9046 39.5215 27.0019C39.1766 27.231 38.7107 27.1378 38.4814 26.7929C37.4586 25.2548 35.712 24.2431 33.7295 24.2431C30.5806 24.2434 28.0275 26.7963 28.0273 29.9453C28.0273 33.0943 30.5805 35.6472 33.7295 35.6474C36.8787 35.6474 39.4316 33.0945 39.4316 29.9453C39.4318 29.5314 39.7678 29.1956 40.1816 29.1953C40.5958 29.1953 40.9315 29.5312 40.9316 29.9453C40.9316 33.9229 37.7071 37.1474 33.7295 37.1474C30.5524 37.1472 27.8579 35.0894 26.9014 32.2343L15.7676 37.0849C15.6122 37.1526 15.4382 37.1657 15.2744 37.122L4.41699 34.2129V35.2461C4.41698 35.6602 4.08105 35.9959 3.66699 35.9961C3.25279 35.9961 2.91701 35.6603 2.91699 35.2461V16.457C2.917 16.4505 2.91877 16.444 2.91895 16.4375C2.91952 16.4251 2.92067 16.4128 2.92188 16.4004C2.94216 16.1339 3.10081 15.8964 3.34473 15.7802L22.1758 6.82223C22.5497 6.64474 22.997 6.80385 23.1748 7.1777C23.3524 7.55158 23.1931 7.99876 22.8193 8.17672L5.80859 16.2685L15.3311 18.8203L26.2637 14.0586V7.49997C26.2637 7.08587 26.5996 6.75013 27.0137 6.74997C27.4277 6.75014 27.7637 7.08588 27.7637 7.49997V13.4043L37.9697 8.95895L35.1602 8.15329C34.7622 8.03897 34.5323 7.6236 34.6465 7.22555ZM10.3828 30.1875C10.3828 30.4205 10.2747 30.6412 10.0898 30.7832C9.90495 30.925 9.6636 30.9723 9.43848 30.9121L7.5127 30.3955V31.1777C7.51269 31.1865 7.51104 31.1954 7.51074 31.2041C7.5104 31.2115 7.51034 31.2191 7.50977 31.2265C7.50697 31.2701 7.49918 31.3123 7.48926 31.3535C7.4884 31.3569 7.4882 31.3608 7.4873 31.3642C7.48112 31.3873 7.47299 31.4097 7.46484 31.4316C7.36054 31.7202 7.08725 31.9276 6.7627 31.9277C6.65802 31.9277 6.55828 31.9059 6.46777 31.8672L4.41699 31.3173V32.6591L14.7178 35.4189V31.0869L10.3828 29.8652V30.1875ZM27.3105 15.2382C27.3074 15.2396 27.3039 15.2409 27.3008 15.2422L16.2178 20.0703V35.2529L26.5723 30.7412C26.5435 30.4799 26.5273 30.2142 26.5273 29.9453C26.5275 25.9679 29.7521 22.7434 33.7295 22.7431C35.9117 22.7431 37.8666 23.7149 39.1865 25.2461L39.4326 25.1396V9.95797L27.3105 15.2382ZM33.7295 25.4814C36.1948 25.4814 38.1932 27.48 38.1934 29.9453C38.1934 32.4107 36.1949 34.4091 33.7295 34.4091C31.2643 34.4089 29.2656 32.4105 29.2656 29.9453C29.2658 27.4802 31.2644 25.4817 33.7295 25.4814ZM33.7295 26.7314C31.9548 26.7317 30.5158 28.1705 30.5156 29.9453C30.5156 31.7202 31.9547 33.1589 33.7295 33.1591C35.5045 33.1591 36.9434 31.7203 36.9434 29.9453C36.9432 28.1704 35.5045 26.7314 33.7295 26.7314ZM4.41699 29.7646L6.0127 30.1923V23.7588L4.41699 23.331V29.7646ZM10.3828 28.3076L14.7178 29.5283V29.3847L10.3828 28.2451V28.3076ZM33.7305 27.4863C34.0754 27.4866 34.3554 27.7663 34.3555 28.1113C34.3555 28.4563 34.0754 28.736 33.7305 28.7363C33.2245 28.7363 32.7659 28.936 32.4277 29.2617C32.1792 29.5011 31.7834 29.4935 31.5439 29.2451C31.3045 28.9965 31.312 28.6008 31.5605 28.3613C32.1223 27.8202 32.8883 27.4863 33.7305 27.4863ZM7.5127 28.8427L8.88281 29.2099V26.5683L7.5127 26.2011V28.8427ZM4.41699 21.7773L6.95703 22.459C7.28462 22.547 7.51268 22.8443 7.5127 23.1836V24.6484L9.82715 25.2685C10.1549 25.3565 10.3828 25.6538 10.3828 25.9931V26.6933L14.7178 27.833V20.209L4.41699 17.4492V21.7773ZM29.7236 19.748C30.1036 19.5839 30.5455 19.7588 30.71 20.1386C30.8742 20.5185 30.6991 20.9603 30.3193 21.125L25.2002 23.3418C24.8201 23.5063 24.3785 23.3312 24.2139 22.9511C24.0494 22.5711 24.2235 22.1294 24.6035 21.9648L29.7236 19.748Z" fill="#332A2A"/>
</g>
<defs>
<clipPath id="clip0_2144_13393">
<rect width="44" height="44" fill="white"/>
</clipPath>
</defs>
</svg>
