<svg width="28" height="28" viewBox="0 0 28 28" fill="none" xmlns="http://www.w3.org/2000/svg">
<g clip-path="url(#clip0_611_5940)">
<path d="M14.0332 2.77075H7.27075C6.71847 2.77075 6.27075 3.21847 6.27075 3.77075V8.31157C6.27075 8.86386 6.71847 9.31157 7.27075 9.31157H20.8455C21.3702 9.31157 21.7956 8.88622 21.7956 8.36153V5.56614V3.77075C21.7956 3.21847 21.3479 2.77075 20.7956 2.77075H19.855H17.9144H14.0332Z" fill="#E05149"/>
<path d="M6.27075 19.5431V21.4583C6.27075 22.0105 6.71847 22.4583 7.27075 22.4583H20.7956C21.3479 22.4583 21.7956 22.0105 21.7956 21.4583V17.0464C21.7956 16.4941 21.3479 16.0464 20.7956 16.0464H6.9721C6.58476 16.0464 6.27075 16.3604 6.27075 16.7477V19.5431Z" fill="#E05149"/>
<path fill-rule="evenodd" clip-rule="evenodd" d="M5.52075 3.77075C5.52075 2.80426 6.30425 2.02075 7.27075 2.02075H14.0332H17.9144C18.3286 2.02075 18.6644 2.35654 18.6644 2.77075C18.6644 3.18497 18.3286 3.52075 17.9144 3.52075H14.0332H7.27075C7.13268 3.52075 7.02075 3.63268 7.02075 3.77075V8.58325L8.31242 8.58325C8.72663 8.58325 9.06242 8.91904 9.06242 9.33325C9.06242 9.74747 8.72663 10.0833 8.31242 10.0833H7.02075V13.9523V15.2513H10.2082H12.1041C12.5183 15.2513 12.8541 15.5871 12.8541 16.0013C12.8541 16.4156 12.5183 16.7513 12.1041 16.7513H10.2082H7.02074C7.01878 17.1639 6.68375 17.4977 6.27075 17.4977C5.85654 17.4977 5.52075 17.1619 5.52075 16.7477V13.9523V3.77075ZM19.105 2.77075C19.105 2.35654 19.4408 2.02075 19.855 2.02075H20.7956C21.7621 2.02075 22.5456 2.80425 22.5456 3.77075V5.56614C22.5456 5.98036 22.2098 6.31614 21.7956 6.31614C21.3814 6.31614 21.0456 5.98036 21.0456 5.56614V3.77075C21.0456 3.63268 20.9336 3.52075 20.7956 3.52075H19.855C19.4408 3.52075 19.105 3.18497 19.105 2.77075ZM21.7956 7.61153C22.2098 7.61153 22.5456 7.94732 22.5456 8.36153V13.9523V25.1339C22.5456 25.5481 22.2098 25.8839 21.7956 25.8839C21.3814 25.8839 21.0456 25.5481 21.0456 25.1339V23.1486H19.6874C19.2732 23.1486 18.9374 22.8128 18.9374 22.3986C18.9374 21.9843 19.2732 21.6486 19.6874 21.6486H21.0456V16.7513H13.9999C13.5857 16.7513 13.2499 16.4156 13.2499 16.0013C13.2499 15.5871 13.5857 15.2513 13.9999 15.2513H21.0456V13.9523V10.0833L13.9999 10.0833H10.2083C9.79404 10.0833 9.45825 9.74747 9.45825 9.33325C9.45825 8.91904 9.79404 8.58325 10.2083 8.58325L13.9999 8.58325L21.0456 8.58325V8.36153C21.0456 7.94732 21.3814 7.61153 21.7956 7.61153ZM6.27075 18.7931C6.68497 18.7931 7.02075 19.1289 7.02075 19.5431V21.6486H13.9999H17.7916C18.2058 21.6486 18.5416 21.9843 18.5416 22.3986C18.5416 22.8128 18.2058 23.1486 17.7916 23.1486H13.9999H7.02075V25.1339C7.02075 25.5481 6.68497 25.8839 6.27075 25.8839C5.85654 25.8839 5.52075 25.5481 5.52075 25.1339V19.5431C5.52075 19.1289 5.85654 18.7931 6.27075 18.7931ZM12.2666 6.40553C12.2666 5.99132 12.6024 5.65553 13.0166 5.65553H15.0497C15.4639 5.65553 15.7997 5.99132 15.7997 6.40553C15.7997 6.81974 15.4639 7.15553 15.0497 7.15553H13.0166C12.6024 7.15553 12.2666 6.81974 12.2666 6.40553ZM12.2666 12.8027C12.2666 12.3885 12.6024 12.0527 13.0166 12.0527H15.0497C15.4639 12.0527 15.7997 12.3885 15.7997 12.8027C15.7997 13.217 15.4639 13.5527 15.0497 13.5527H13.0166C12.6024 13.5527 12.2666 13.217 12.2666 12.8027ZM12.2666 19.2C12.2666 18.7857 12.6024 18.45 13.0166 18.45H15.0497C15.4639 18.45 15.7997 18.7857 15.7997 19.2C15.7997 19.6142 15.4639 19.95 15.0497 19.95H13.0166C12.6024 19.95 12.2666 19.6142 12.2666 19.2Z" fill="#252323"/>
</g>
<defs>
<clipPath id="clip0_611_5940">
<rect width="28" height="28" fill="white"/>
</clipPath>
</defs>
</svg>
