<svg width="23" height="23" viewBox="0 0 23 23" fill="none" xmlns="http://www.w3.org/2000/svg">
<g clip-path="url(#clip0_611_5961)">
<path d="M11.5274 2.27612H6.15112C5.59884 2.27612 5.15112 2.72384 5.15112 3.27612V6.7096C5.15112 7.26188 5.59884 7.7096 6.15112 7.7096H16.9037C17.4559 7.7096 17.9037 7.26188 17.9037 6.7096V4.57234V3.27612C17.9037 2.72384 17.4559 2.27612 16.9037 2.27612H16.3096H14.7155H11.5274Z" fill="#E05149"/>
<path d="M5.15112 16.0534V17.448C5.15112 18.0003 5.59884 18.448 6.15112 18.448H16.9037C17.4559 18.448 17.9037 18.0003 17.9037 17.448V14.1431C17.9037 13.5908 17.4559 13.1431 16.9037 13.1431H6.15112C5.59884 13.1431 5.15112 13.5908 5.15112 14.1431V16.0534Z" fill="#E05149"/>
<path d="M5.20093 15.4285C5.57372 15.4285 5.87573 15.7305 5.87573 16.1033V17.7742H14.6648C15.0374 17.7743 15.3396 18.0763 15.3396 18.449C15.3395 18.8216 15.0374 19.1236 14.6648 19.1238H5.87573V20.696C5.87551 21.0687 5.57359 21.3708 5.20093 21.3708C4.82827 21.3708 4.52634 21.0687 4.52612 20.696V16.1033C4.52612 15.7305 4.82814 15.4285 5.20093 15.4285ZM17.9539 6.24292C18.3265 6.24314 18.6287 6.54604 18.6287 6.9187V20.696C18.6284 21.0685 18.3263 21.3706 17.9539 21.3708C17.5812 21.3708 17.2783 21.0687 17.2781 20.696V19.1238H16.2224C15.8497 19.1238 15.5467 18.8217 15.5466 18.449C15.5466 18.0762 15.8496 17.7742 16.2224 17.7742H17.2781V13.8689H11.5505C11.1778 13.8689 10.8749 13.5668 10.8748 13.1941C10.8748 12.8213 11.1777 12.5193 11.5505 12.5193H17.2781V8.39136H8.4353C8.06266 8.39118 7.7605 8.08924 7.7605 7.71655C7.7605 7.34387 8.06266 7.04192 8.4353 7.04175H17.2781V6.9187C17.2781 6.54591 17.5811 6.24292 17.9539 6.24292ZM12.4119 15.1462C12.7846 15.1462 13.0865 15.4484 13.0867 15.821C13.0867 16.1938 12.7847 16.4958 12.4119 16.4958H10.7419C10.3693 16.4957 10.0671 16.1938 10.0671 15.821C10.0673 15.4485 10.3694 15.1464 10.7419 15.1462H12.4119ZM14.7654 1.65112C15.1381 1.65115 15.4402 1.95315 15.4402 2.32593C15.4402 2.6987 15.1381 3.0007 14.7654 3.00073H6.20093C6.02144 3.00073 5.87573 3.14643 5.87573 3.32593V7.04175H6.87866C7.25115 7.0421 7.55347 7.34398 7.55347 7.71655C7.55347 8.08913 7.25116 8.39101 6.87866 8.39136H5.87573V12.5193H9.99292C10.3656 12.5195 10.6677 12.8214 10.6677 13.1941C10.6676 13.5667 10.3655 13.8687 9.99292 13.8689H5.86987C5.83851 14.2126 5.55276 14.4822 5.20093 14.4822C4.82826 14.4822 4.52633 14.18 4.52612 13.8074V3.32593C4.52612 2.40085 5.27585 1.65112 6.20093 1.65112H14.7654ZM12.4119 9.89136C12.7845 9.89136 13.0865 10.1935 13.0867 10.5662C13.0867 10.939 12.7847 11.241 12.4119 11.241H10.7419C10.3693 11.2408 10.0671 10.9389 10.0671 10.5662C10.0673 10.1936 10.3694 9.89149 10.7419 9.89136H12.4119ZM12.4119 4.63647C12.7845 4.63647 13.0865 4.93865 13.0867 5.31128C13.0867 5.68407 12.7847 5.98608 12.4119 5.98608H10.7419C10.3693 5.98595 10.0671 5.68399 10.0671 5.31128C10.0673 4.93874 10.3694 4.63661 10.7419 4.63647H12.4119ZM16.9539 1.65112C17.8788 1.65134 18.6287 2.40099 18.6287 3.32593V4.62183C18.6287 4.99448 18.3265 5.29739 17.9539 5.29761C17.5811 5.29761 17.2781 4.99462 17.2781 4.62183V3.32593C17.2781 3.14657 17.1332 3.00095 16.9539 3.00073H16.3591C15.9865 3.00059 15.6843 2.69863 15.6843 2.32593C15.6843 1.95322 15.9865 1.65126 16.3591 1.65112H16.9539Z" fill="#332A2A"/>
</g>
<defs>
<clipPath id="clip0_611_5961">
<rect width="23" height="23" fill="white"/>
</clipPath>
</defs>
</svg>
