<svg width="44" height="44" viewBox="0 0 44 44" fill="none" xmlns="http://www.w3.org/2000/svg">
<g clip-path="url(#clip0_611_6003)">
<path fill-rule="evenodd" clip-rule="evenodd" d="M9.10425 5.35425C9.10425 4.38775 9.88775 3.60425 10.8542 3.60425H22.0523H28.1514C28.5656 3.60425 28.9014 3.94003 28.9014 4.35425C28.9014 4.76846 28.5656 5.10425 28.1514 5.10425H22.0523H10.8542C10.7162 5.10425 10.6042 5.21618 10.6042 5.35425V13.9167H13.0626C13.4768 13.9167 13.8126 14.2525 13.8126 14.6667C13.8126 15.081 13.4768 15.4167 13.0626 15.4167H10.6042V21.9253V24.3952H16.0417H19.0209C19.4351 24.3952 19.7709 24.731 19.7709 25.1452C19.7709 25.5594 19.4351 25.8952 19.0209 25.8952H16.0417H10.6042V26.318C10.6042 26.7322 10.2685 27.068 9.85425 27.068C9.44003 27.068 9.10425 26.7322 9.10425 26.318V21.9253V5.35425ZM30.4509 4.35425C30.4509 3.94003 30.7867 3.60425 31.2009 3.60425H33.2504C34.2169 3.60425 35.0004 4.38775 35.0004 5.35425V8.74701C35.0004 9.16122 34.6646 9.49701 34.2504 9.49701C33.8362 9.49701 33.5004 9.16122 33.5004 8.74701V5.35425C33.5004 5.21618 33.3885 5.10425 33.2504 5.10425H31.2009C30.7867 5.10425 30.4509 4.76846 30.4509 4.35425ZM34.2504 12.3898C34.6646 12.3898 35.0004 12.7255 35.0004 13.1398V21.9253V39.4963C35.0004 39.9105 34.6646 40.2463 34.2504 40.2463C33.8362 40.2463 33.5004 39.9105 33.5004 39.4963V35.9479H30.9376C30.5234 35.9479 30.1876 35.6122 30.1876 35.1979C30.1876 34.7837 30.5234 34.4479 30.9376 34.4479H33.5004V25.8952H22.0001C21.5859 25.8952 21.2501 25.5594 21.2501 25.1452C21.2501 24.731 21.5859 24.3952 22.0001 24.3952H33.5004V21.9253V15.4167L22.0001 15.4167H16.0417C15.6275 15.4167 15.2917 15.081 15.2917 14.6667C15.2917 14.2525 15.6275 13.9167 16.0417 13.9167H22.0001L33.5004 13.9167V13.1398C33.5004 12.7255 33.8362 12.3898 34.2504 12.3898ZM9.85425 29.9608C10.2685 29.9608 10.6042 30.2966 10.6042 30.7108V34.4479H22.0001H27.9584C28.3726 34.4479 28.7084 34.7837 28.7084 35.1979C28.7084 35.6122 28.3726 35.9479 27.9584 35.9479H22.0001H10.6042V39.4963C10.6042 39.9105 10.2685 40.2463 9.85425 40.2463C9.44003 40.2463 9.10425 39.9105 9.10425 39.4963V30.7108C9.10425 30.2966 9.44003 29.9608 9.85425 29.9608ZM19.7049 10.066C19.7049 9.65183 20.0407 9.31604 20.4549 9.31604H23.6497C24.0639 9.31604 24.3997 9.65183 24.3997 10.066C24.3997 10.4803 24.0639 10.816 23.6497 10.816H20.4549C20.0407 10.816 19.7049 10.4803 19.7049 10.066ZM19.7049 20.1188C19.7049 19.7046 20.0407 19.3688 20.4549 19.3688H23.6497C24.0639 19.3688 24.3997 19.7046 24.3997 20.1188C24.3997 20.533 24.0639 20.8688 23.6497 20.8688H20.4549C20.0407 20.8688 19.7049 20.533 19.7049 20.1188ZM19.7049 30.1716C19.7049 29.7574 20.0407 29.4216 20.4549 29.4216H23.6497C24.0639 29.4216 24.3997 29.7574 24.3997 30.1716C24.3997 30.5858 24.0639 30.9216 23.6497 30.9216H20.4549C20.0407 30.9216 19.7049 30.5858 19.7049 30.1716Z" fill="#332A2A"/>
</g>
<defs>
<clipPath id="clip0_611_6003">
<rect width="44" height="44" fill="white"/>
</clipPath>
</defs>
</svg>
