<svg width="18" height="18" viewBox="0 0 18 18" fill="none" xmlns="http://www.w3.org/2000/svg">
<g clip-path="url(#clip0_611_5982)">
<path d="M9.02137 1.78125H5.02387C4.47448 1.78125 4.02797 2.22446 4.0239 2.77384L4.00746 4.99259C4.00335 5.54776 4.45226 6 5.00744 6H13.0115C13.5638 6 14.0115 5.55228 14.0115 5V3.57829V2.78125C14.0115 2.22897 13.5638 1.78125 13.0115 1.78125H12.764H11.5164H9.02137Z" fill="#E05149"/>
<path d="M4.03125 12.5635V13.4375C4.03125 13.9898 4.47897 14.4375 5.03125 14.4375H13.0115C13.5638 14.4375 14.0115 13.9898 14.0115 13.4375V11.2795C14.0115 10.7272 13.5638 10.2795 13.0115 10.2795H5.03125C4.47897 10.2795 4.03125 10.7272 4.03125 11.2795V12.5635Z" fill="#E05149"/>
<path fill-rule="evenodd" clip-rule="evenodd" d="M3.40625 2.78125C3.40625 1.88379 4.13379 1.15625 5.03125 1.15625H9.02137H10.7289C11.0741 1.15625 11.3539 1.43607 11.3539 1.78125C11.3539 2.12643 11.0741 2.40625 10.7289 2.40625H9.02137H5.03125C4.82414 2.40625 4.65625 2.57414 4.65625 2.78125V5.375L5.34375 5.375C5.68893 5.375 5.96875 5.65482 5.96875 6C5.96875 6.34518 5.68893 6.625 5.34375 6.625L4.65625 6.625V8.9694V9.66163H6.5625H7.3513C7.69648 9.66163 7.9763 9.94145 7.9763 10.2866C7.9763 10.6318 7.69648 10.9116 7.3513 10.9116H6.5625H4.6393C4.57384 11.1868 4.32644 11.3914 4.03125 11.3914C3.68607 11.3914 3.40625 11.1116 3.40625 10.7664V8.9694V2.78125ZM12.139 1.78125C12.139 1.43607 12.4188 1.15625 12.764 1.15625H13.0115C13.9089 1.15625 14.6365 1.88379 14.6365 2.78125V3.57829C14.6365 3.92347 14.3567 4.20329 14.0115 4.20329C13.6663 4.20329 13.3865 3.92347 13.3865 3.57829V2.78125C13.3865 2.57414 13.2186 2.40625 13.0115 2.40625H12.764C12.4188 2.40625 12.139 2.12643 12.139 1.78125ZM14.0115 4.75032C14.3567 4.75032 14.6365 5.03015 14.6365 5.37532V8.9694V16.1575C14.6365 16.5027 14.3567 16.7825 14.0115 16.7825C13.6663 16.7825 13.3865 16.5027 13.3865 16.1575V15.0241H12.6562C12.3111 15.0241 12.0312 14.7443 12.0312 14.3991C12.0312 14.0539 12.3111 13.7741 12.6562 13.7741H13.3865V10.9116H9C8.65482 10.9116 8.375 10.6318 8.375 10.2866C8.375 9.94145 8.65482 9.66163 9 9.66163H13.3865V8.9694V6.625L9 6.625H7C6.65482 6.625 6.375 6.34518 6.375 6C6.375 5.65482 6.65482 5.375 7 5.375H9L13.3865 5.375C13.3867 5.02997 13.6664 4.75032 14.0115 4.75032ZM4.03125 11.9385C4.37643 11.9385 4.65625 12.2183 4.65625 12.5635V13.7741H9H10.5C10.8452 13.7741 11.125 14.0539 11.125 14.3991C11.125 14.7443 10.8452 15.0241 10.5 15.0241H9H4.65625V16.1575C4.65625 16.5027 4.37643 16.7825 4.03125 16.7825C3.68607 16.7825 3.40625 16.5027 3.40625 16.1575V12.5635C3.40625 12.2183 3.68607 11.9385 4.03125 11.9385ZM7.74292 3.86792C7.74292 3.52274 8.02274 3.24292 8.36792 3.24292H9.67486C10.02 3.24292 10.2999 3.52274 10.2999 3.86792C10.2999 4.2131 10.02 4.49292 9.67486 4.49292H8.36792C8.02274 4.49292 7.74292 4.2131 7.74292 3.86792ZM7.74292 8.23047C7.74292 7.88529 8.02274 7.60547 8.36792 7.60547H9.67486C10.02 7.60547 10.2999 7.88529 10.2999 8.23047C10.2999 8.57565 10.02 8.85547 9.67486 8.85547H8.36792C8.02274 8.85547 7.74292 8.57565 7.74292 8.23047ZM7.74289 12.3429C7.74289 11.9977 8.02272 11.7179 8.36789 11.7179H9.67483C10.02 11.7179 10.2998 11.9977 10.2998 12.3429C10.2998 12.6881 10.02 12.9679 9.67483 12.9679H8.36789C8.02272 12.9679 7.74289 12.6881 7.74289 12.3429Z" fill="#252323"/>
</g>
<defs>
<clipPath id="clip0_611_5982">
<rect width="18" height="18" fill="white"/>
</clipPath>
</defs>
</svg>
