<svg width="23" height="23" viewBox="0 0 23 23" fill="none" xmlns="http://www.w3.org/2000/svg">
<g clip-path="url(#clip0_611_5961)">
<path d="M11.5274 2.27612H6.15112C5.59884 2.27612 5.15112 2.72384 5.15112 3.27612V6.7096C5.15112 7.26188 5.59884 7.7096 6.15112 7.7096H16.9037C17.4559 7.7096 17.9037 7.26188 17.9037 6.7096V4.57234V3.27612C17.9037 2.72384 17.4559 2.27612 16.9037 2.27612H16.3096H14.7155H11.5274Z" fill="#E05149"/>
<path d="M5.15112 16.0534V17.448C5.15112 18.0003 5.59884 18.448 6.15112 18.448H16.9037C17.4559 18.448 17.9037 18.0003 17.9037 17.448V14.1431C17.9037 13.5908 17.4559 13.1431 16.9037 13.1431H6.15112C5.59884 13.1431 5.15112 13.5908 5.15112 14.1431V16.0534Z" fill="#E05149"/>
<path fill-rule="evenodd" clip-rule="evenodd" d="M4.47607 3.27608C4.47607 2.351 5.226 1.60107 6.15107 1.60107H11.5273H14.7155C15.0883 1.60107 15.3905 1.90328 15.3905 2.27607C15.3905 2.64887 15.0883 2.95107 14.7155 2.95107H11.5273H6.15107C5.97158 2.95107 5.82607 3.09658 5.82607 3.27608V6.9917H6.82816C7.20095 6.9917 7.50316 7.29391 7.50316 7.6667C7.50316 8.03949 7.20095 8.3417 6.82816 8.3417L5.82607 8.3417V11.4609V12.4691H8.38545H9.94274C10.3155 12.4691 10.6177 12.7713 10.6177 13.1441C10.6177 13.5169 10.3155 13.8191 9.94274 13.8191H8.38545H5.82327C5.79201 14.1628 5.50299 14.4321 5.15107 14.4321C4.77828 14.4321 4.47607 14.1299 4.47607 13.7571V11.4609V3.27608ZM15.6345 2.27607C15.6345 1.90328 15.9367 1.60107 16.3095 1.60107H16.9036C17.8287 1.60107 18.5786 2.351 18.5786 3.27607V4.57229C18.5786 4.94508 18.2764 5.24729 17.9036 5.24729C17.5308 5.24729 17.2286 4.94508 17.2286 4.57229V3.27607C17.2286 3.09658 17.0831 2.95107 16.9036 2.95107H16.3095C15.9367 2.95107 15.6345 2.64887 15.6345 2.27607ZM17.9036 6.1935C18.2764 6.1935 18.5786 6.49571 18.5786 6.8685V11.4609V20.6458C18.5786 21.0186 18.2764 21.3208 17.9036 21.3208C17.5308 21.3208 17.2286 21.0186 17.2286 20.6458V19.0739H16.1719C15.7991 19.0739 15.4969 18.7717 15.4969 18.3989C15.4969 18.0261 15.7991 17.7239 16.1719 17.7239H17.2286V13.8191H11.5C11.1272 13.8191 10.825 13.5169 10.825 13.1441C10.825 12.7713 11.1272 12.4691 11.5 12.4691H17.2286V11.4609V8.3417L11.5 8.3417L8.38545 8.3417C8.01266 8.3417 7.71045 8.03949 7.71045 7.6667C7.71045 7.29391 8.01266 6.9917 8.38545 6.9917L11.5 6.9917L17.2286 6.9917V6.8685C17.2286 6.49571 17.5308 6.1935 17.9036 6.1935ZM5.15107 15.3784C5.52387 15.3784 5.82607 15.6806 5.82607 16.0534V17.7239H11.5H14.6146C14.9874 17.7239 15.2896 18.0261 15.2896 18.3989C15.2896 18.7717 14.9874 19.0739 14.6146 19.0739H11.5H5.82607V20.6458C5.82607 21.0186 5.52387 21.3208 5.15107 21.3208C4.77828 21.3208 4.47607 21.0186 4.47607 20.6458V16.0534C4.47607 15.6806 4.77828 15.3784 5.15107 15.3784ZM10.0173 5.26178C10.0173 4.88899 10.3195 4.58678 10.6923 4.58678H12.3623C12.7351 4.58678 13.0373 4.88899 13.0373 5.26178C13.0373 5.63458 12.7351 5.93678 12.3623 5.93678H10.6923C10.3195 5.93678 10.0173 5.63458 10.0173 5.26178ZM10.0173 10.5166C10.0173 10.1438 10.3195 9.84164 10.6923 9.84164H12.3623C12.7351 9.84164 13.0373 10.1438 13.0373 10.5166C13.0373 10.8894 12.7351 11.1916 12.3623 11.1916H10.6923C10.3195 11.1916 10.0173 10.8894 10.0173 10.5166ZM10.0173 15.7715C10.0173 15.3987 10.3195 15.0965 10.6923 15.0965H12.3623C12.7351 15.0965 13.0373 15.3987 13.0373 15.7715C13.0373 16.1443 12.7351 16.4465 12.3623 16.4465H10.6923C10.3195 16.4465 10.0173 16.1443 10.0173 15.7715Z" fill="#252323"/>
</g>
<defs>
<clipPath id="clip0_611_5961">
<rect width="23" height="23" fill="white"/>
</clipPath>
</defs>
</svg>
