<svg width="44" height="44" viewBox="0 0 44 44" fill="none" xmlns="http://www.w3.org/2000/svg">
<g clip-path="url(#clip0_691_12301)">
<path fill-rule="evenodd" clip-rule="evenodd" d="M17.5834 7.41663C17.5834 6.45013 18.3669 5.66663 19.3334 5.66663H29.2501C30.2166 5.66663 31.0001 6.45013 31.0001 7.41663V13.5229L34.3181 18.5H37.5834C37.9976 18.5 38.3334 18.8357 38.3334 19.25V28.4166C38.3334 28.8308 37.9976 29.1666 37.5834 29.1666C37.1692 29.1666 36.8334 28.8308 36.8334 28.4166V20H33.9167C33.666 20 33.4318 19.8746 33.2927 19.666L31.0001 16.227V22.3871C31.5908 22.5616 32.6243 22.7762 33.9167 22.7762C34.331 22.7762 34.6667 23.112 34.6667 23.5262C34.6667 23.9405 34.331 24.2762 33.9167 24.2762C32.7433 24.2762 31.7358 24.119 31.0001 23.9397V27.8871C31.5908 28.0616 32.6243 28.2762 33.9167 28.2762C34.331 28.2762 34.6667 28.612 34.6667 29.0262C34.6667 29.4405 34.331 29.7762 33.9167 29.7762C32.7433 29.7762 31.7358 29.619 31.0001 29.4397V33.3871C31.5908 33.5616 32.6243 33.7762 33.9167 33.7762C34.331 33.7762 34.6667 34.112 34.6667 34.5262C34.6667 34.9405 34.331 35.2762 33.9167 35.2762C32.7433 35.2762 31.7358 35.119 31.0001 34.9397V36.8333H36.8334V33C36.8334 32.5857 37.1692 32.25 37.5834 32.25C37.9976 32.25 38.3334 32.5857 38.3334 33V37.5833C38.3334 37.9975 37.9976 38.3333 37.5834 38.3333L30.2501 38.3333H30.2477H18.3358H18.3334L6.41675 38.3333C6.00253 38.3333 5.66675 37.9975 5.66675 37.5833V28.6458C5.66675 28.2316 6.00253 27.8958 6.41675 27.8958C6.83096 27.8958 7.16675 28.2316 7.16675 28.6458V36.8333H17.5834V14.5H12.6857L7.16675 20.019V24.177C7.16675 24.5913 6.83096 24.927 6.41675 24.927C6.00253 24.927 5.66675 24.5913 5.66675 24.177V19.7083C5.66675 19.5094 5.74577 19.3186 5.88642 19.178L11.8448 13.2196C11.9854 13.079 12.1762 13 12.3751 13H17.5834V7.41663ZM29.5001 36.8333L29.5001 13.75L29.5001 7.41663C29.5001 7.27856 29.3882 7.16663 29.2501 7.16663H19.3334C19.1953 7.16663 19.0834 7.27855 19.0834 7.41663V13.7487L19.0834 13.75L19.0834 36.8333H29.5001ZM19.646 18C19.646 16.8264 20.5974 15.875 21.771 15.875C22.9446 15.875 23.896 16.8264 23.896 18V20.2917C23.896 20.7059 23.5602 21.0417 23.146 21.0417H20.396C19.9818 21.0417 19.646 20.7059 19.646 20.2917V18ZM21.771 17.375C21.4258 17.375 21.146 17.6548 21.146 18V19.5417H22.396V18C22.396 17.6548 22.1162 17.375 21.771 17.375ZM21.771 8.875C20.5974 8.875 19.646 9.8264 19.646 11V13.2917C19.646 13.7059 19.9818 14.0417 20.396 14.0417H23.146C23.5602 14.0417 23.896 13.7059 23.896 13.2917V11C23.896 9.82639 22.9446 8.875 21.771 8.875ZM21.146 11C21.146 10.6548 21.4258 10.375 21.771 10.375C22.1162 10.375 22.396 10.6548 22.396 11V12.5417H21.146V11ZM19.646 25C19.646 23.8264 20.5974 22.875 21.771 22.875C22.9446 22.875 23.896 23.8264 23.896 25V27.2917C23.896 27.7059 23.5602 28.0417 23.146 28.0417H20.396C19.9818 28.0417 19.646 27.7059 19.646 27.2917V25ZM21.771 24.375C21.4258 24.375 21.146 24.6548 21.146 25V26.5417H22.396V25C22.396 24.6548 22.1162 24.375 21.771 24.375ZM21.771 29.9896C20.5974 29.9896 19.646 30.941 19.646 32.1146V34.4063C19.646 34.8205 19.9818 35.1563 20.396 35.1563H23.146C23.5602 35.1563 23.896 34.8205 23.896 34.4063V32.1146C23.896 30.941 22.9446 29.9896 21.771 29.9896ZM21.146 32.1146C21.146 31.7694 21.4258 31.4896 21.771 31.4896C22.1162 31.4896 22.396 31.7694 22.396 32.1146V33.6563H21.146V32.1146ZM24.6877 18C24.6877 16.8264 25.6391 15.875 26.8127 15.875C27.9863 15.875 28.9377 16.8264 28.9377 18V20.2917C28.9377 20.7059 28.602 21.0417 28.1877 21.0417H25.4377C25.0235 21.0417 24.6877 20.7059 24.6877 20.2917V18ZM26.8127 17.375C26.4676 17.375 26.1877 17.6548 26.1877 18V19.5417H27.4377V18C27.4377 17.6548 27.1579 17.375 26.8127 17.375ZM26.8127 8.875C25.6391 8.875 24.6877 9.8264 24.6877 11V13.2917C24.6877 13.7059 25.0235 14.0417 25.4377 14.0417H28.1877C28.602 14.0417 28.9377 13.7059 28.9377 13.2917V11C28.9377 9.82639 27.9863 8.875 26.8127 8.875ZM26.1877 11C26.1877 10.6548 26.4676 10.375 26.8127 10.375C27.1579 10.375 27.4377 10.6548 27.4377 11V12.5417H26.1877V11ZM24.6877 25C24.6877 23.8264 25.6391 22.875 26.8127 22.875C27.9863 22.875 28.9377 23.8264 28.9377 25V27.2917C28.9377 27.7059 28.602 28.0417 28.1877 28.0417H25.4377C25.0235 28.0417 24.6877 27.7059 24.6877 27.2917V25ZM26.8127 24.375C26.4676 24.375 26.1877 24.6548 26.1877 25V26.5417H27.4377V25C27.4377 24.6548 27.1579 24.375 26.8127 24.375ZM26.8127 29.875C25.6391 29.875 24.6877 30.8264 24.6877 32V34.2917C24.6877 34.7059 25.0235 35.0417 25.4377 35.0417H28.1877C28.602 35.0417 28.9377 34.7059 28.9377 34.2917V32C28.9377 30.8264 27.9863 29.875 26.8127 29.875ZM26.1877 32C26.1877 31.6548 26.4676 31.375 26.8127 31.375C27.1579 31.375 27.4377 31.6548 27.4377 32V33.5417H26.1877V32ZM10.7084 25.552C10.7084 24.3784 11.6598 23.427 12.8334 23.427C14.007 23.427 14.9584 24.3784 14.9584 25.552V27.8437C14.9584 28.2579 14.6226 28.5937 14.2084 28.5937H11.4584C11.0442 28.5937 10.7084 28.2579 10.7084 27.8437V25.552ZM12.8334 24.927C12.4882 24.927 12.2084 25.2069 12.2084 25.552V27.0937H13.4584V25.552C13.4584 25.2069 13.1786 24.927 12.8334 24.927ZM12.8334 30.4166C11.6598 30.4166 10.7084 31.368 10.7084 32.5416V34.8333C10.7084 35.2475 11.0442 35.5833 11.4584 35.5833H14.2084C14.6226 35.5833 14.9584 35.2475 14.9584 34.8333V32.5416C14.9584 31.368 14.007 30.4166 12.8334 30.4166ZM12.2084 32.5416C12.2084 32.1964 12.4882 31.9166 12.8334 31.9166C13.1786 31.9166 13.4584 32.1964 13.4584 32.5416V34.0833H12.2084V32.5416ZM10.7084 18.9062C10.7084 17.7326 11.6598 16.7812 12.8334 16.7812C14.007 16.7812 14.9584 17.7326 14.9584 18.9062V21.1979C14.9584 21.6121 14.6226 21.9479 14.2084 21.9479H11.4584C11.0442 21.9479 10.7084 21.6121 10.7084 21.1979V18.9062ZM12.8334 18.2812C12.4882 18.2812 12.2084 18.561 12.2084 18.9062V20.4479H13.4584V18.9062C13.4584 18.561 13.1786 18.2812 12.8334 18.2812Z" fill="#252323"/>
</g>
<defs>
<clipPath id="clip0_691_12301">
<rect width="44" height="44" fill="white"/>
</clipPath>
</defs>
</svg>
