<svg width="44" height="44" viewBox="0 0 44 44" fill="none" xmlns="http://www.w3.org/2000/svg">
<g clip-path="url(#clip0_688_12064)">
<path fill-rule="evenodd" clip-rule="evenodd" d="M18.3333 6.41675H30.2499V37.5834H18.3333V6.41675ZM23.1458 11.0001V13.2917H20.3958V11.0001C20.3958 10.2407 21.0114 9.62508 21.7708 9.62508C22.5301 9.62508 23.1458 10.2407 23.1458 11.0001ZM23.1458 20.6251V18.3334C23.1458 17.574 22.5301 16.9584 21.7708 16.9584C21.0114 16.9584 20.3958 17.574 20.3958 18.3334V20.6251H23.1458ZM23.1458 25.3646V27.6563H20.3958V25.3646C20.3958 24.6052 21.0114 23.9896 21.7708 23.9896C22.5301 23.9896 23.1458 24.6052 23.1458 25.3646ZM28.1874 13.2917V11.0001C28.1874 10.2407 27.5718 9.62508 26.8124 9.62508C26.053 9.62508 25.4374 10.2407 25.4374 11.0001V13.2917H28.1874ZM28.1874 18.3334V20.6251H25.4374V18.3334C25.4374 17.574 26.053 16.9584 26.8124 16.9584C27.5718 16.9584 28.1874 17.574 28.1874 18.3334ZM28 28.0001V25.0001C28 24.4478 27.5523 24.0001 27 24.0001C26.4477 24.0001 26 24.4478 26 25.0001V28.0001H28ZM27.75 31.1251V34.1251H25.75V31.1251C25.75 30.5728 26.1977 30.1251 26.75 30.1251C27.3023 30.1251 27.75 30.5728 27.75 31.1251ZM22.625 34.6251V31.6251C22.625 31.0728 22.1773 30.6251 21.625 30.6251C21.0727 30.6251 20.625 31.0728 20.625 31.6251V34.6251H22.625ZM14.2083 18.9063V21.198H11.4583V18.9063C11.4583 18.1469 12.0739 17.5313 12.8333 17.5313C13.5926 17.5313 14.2083 18.1469 14.2083 18.9063ZM14.2083 25.6667V27.9584H11.4583V25.6667C11.4583 24.9074 12.0739 24.2917 12.8333 24.2917C13.5926 24.2917 14.2083 24.9074 14.2083 25.6667ZM14.2083 34.948V32.6563C14.2083 31.8969 13.5926 31.2813 12.8333 31.2813C12.0739 31.2813 11.4583 31.8969 11.4583 32.6563V34.948H14.2083Z" fill="#E05149"/>
<path fill-rule="evenodd" clip-rule="evenodd" d="M17.5834 7.4165C17.5834 6.45 18.3669 5.6665 19.3334 5.6665H29.2501C30.2166 5.6665 31.0001 6.45 31.0001 7.4165V13.5228L34.3181 18.4998H37.5834C37.9976 18.4998 38.3334 18.8356 38.3334 19.2498V28.4165C38.3334 28.8307 37.9976 29.1665 37.5834 29.1665C37.1692 29.1665 36.8334 28.8307 36.8334 28.4165V19.9998H33.9167C33.666 19.9998 33.4318 19.8745 33.2927 19.6659L31.0001 16.2269V22.3869C31.5908 22.5615 32.6243 22.7761 33.9167 22.7761C34.331 22.7761 34.6667 23.1119 34.6667 23.5261C34.6667 23.9403 34.331 24.2761 33.9167 24.2761C32.7433 24.2761 31.7358 24.1189 31.0001 23.9395V27.8869C31.5908 28.0615 32.6243 28.2761 33.9167 28.2761C34.331 28.2761 34.6667 28.6119 34.6667 29.0261C34.6667 29.4403 34.331 29.7761 33.9167 29.7761C32.7433 29.7761 31.7358 29.6189 31.0001 29.4395V33.3869C31.5908 33.5615 32.6243 33.7761 33.9167 33.7761C34.331 33.7761 34.6667 34.1119 34.6667 34.5261C34.6667 34.9403 34.331 35.2761 33.9167 35.2761C32.7433 35.2761 31.7358 35.1189 31.0001 34.9395V36.8332H36.8334V32.9998C36.8334 32.5856 37.1692 32.2498 37.5834 32.2498C37.9976 32.2498 38.3334 32.5856 38.3334 32.9998V37.5832C38.3334 37.9974 37.9976 38.3332 37.5834 38.3332L30.2501 38.3332H30.2477H18.3358H18.3334L6.41675 38.3332C6.00253 38.3332 5.66675 37.9974 5.66675 37.5832V28.6457C5.66675 28.2315 6.00253 27.8957 6.41675 27.8957C6.83096 27.8957 7.16675 28.2315 7.16675 28.6457V36.8332H17.5834V14.4998H12.6857L7.16675 20.0188V24.1769C7.16675 24.5911 6.83096 24.9269 6.41675 24.9269C6.00253 24.9269 5.66675 24.5911 5.66675 24.1769V19.7082C5.66675 19.5093 5.74577 19.3185 5.88642 19.1778L11.8448 13.2195C11.9854 13.0789 12.1762 12.9998 12.3751 12.9998H17.5834V7.4165ZM29.5001 36.8332L29.5001 13.7498L29.5001 7.4165C29.5001 7.27843 29.3882 7.1665 29.2501 7.1665H19.3334C19.1953 7.1665 19.0834 7.27843 19.0834 7.4165V13.7486L19.0834 13.7498L19.0834 36.8332H29.5001ZM19.646 17.9999C19.646 16.8263 20.5974 15.8749 21.771 15.8749C22.9446 15.8749 23.896 16.8263 23.896 17.9999V20.2915C23.896 20.7058 23.5602 21.0415 23.146 21.0415H20.396C19.9818 21.0415 19.646 20.7058 19.646 20.2915V17.9999ZM21.771 17.3749C21.4258 17.3749 21.146 17.6547 21.146 17.9999V19.5415H22.396V17.9999C22.396 17.6547 22.1162 17.3749 21.771 17.3749ZM21.771 8.87488C20.5974 8.87488 19.646 9.82627 19.646 10.9999V13.2915C19.646 13.7058 19.9818 14.0415 20.396 14.0415H23.146C23.5602 14.0415 23.896 13.7058 23.896 13.2915V10.9999C23.896 9.82627 22.9446 8.87488 21.771 8.87488ZM21.146 10.9999C21.146 10.6547 21.4258 10.3749 21.771 10.3749C22.1162 10.3749 22.396 10.6547 22.396 10.9999V12.5415H21.146V10.9999ZM19.646 24.9999C19.646 23.8263 20.5974 22.8749 21.771 22.8749C22.9446 22.8749 23.896 23.8263 23.896 24.9999V27.2915C23.896 27.7058 23.5602 28.0415 23.146 28.0415H20.396C19.9818 28.0415 19.646 27.7058 19.646 27.2915V24.9999ZM21.771 24.3749C21.4258 24.3749 21.146 24.6547 21.146 24.9999V26.5415H22.396V24.9999C22.396 24.6547 22.1162 24.3749 21.771 24.3749ZM21.771 29.9895C20.5974 29.9895 19.646 30.9409 19.646 32.1145V34.4062C19.646 34.8204 19.9818 35.1562 20.396 35.1562H23.146C23.5602 35.1562 23.896 34.8204 23.896 34.4062V32.1145C23.896 30.9409 22.9446 29.9895 21.771 29.9895ZM21.146 32.1145C21.146 31.7693 21.4258 31.4895 21.771 31.4895C22.1162 31.4895 22.396 31.7693 22.396 32.1145V33.6562H21.146V32.1145ZM24.6877 17.9999C24.6877 16.8263 25.6391 15.8749 26.8127 15.8749C27.9863 15.8749 28.9377 16.8263 28.9377 17.9999V20.2915C28.9377 20.7058 28.602 21.0415 28.1877 21.0415H25.4377C25.0235 21.0415 24.6877 20.7058 24.6877 20.2915V17.9999ZM26.8127 17.3749C26.4676 17.3749 26.1877 17.6547 26.1877 17.9999V19.5415H27.4377V17.9999C27.4377 17.6547 27.1579 17.3749 26.8127 17.3749ZM26.8127 8.87488C25.6391 8.87488 24.6877 9.82627 24.6877 10.9999V13.2915C24.6877 13.7058 25.0235 14.0415 25.4377 14.0415H28.1877C28.602 14.0415 28.9377 13.7058 28.9377 13.2915V10.9999C28.9377 9.82627 27.9863 8.87488 26.8127 8.87488ZM26.1877 10.9999C26.1877 10.6547 26.4676 10.3749 26.8127 10.3749C27.1579 10.3749 27.4377 10.6547 27.4377 10.9999V12.5415H26.1877V10.9999ZM24.6877 24.9999C24.6877 23.8263 25.6391 22.8749 26.8127 22.8749C27.9863 22.8749 28.9377 23.8263 28.9377 24.9999V27.2915C28.9377 27.7058 28.602 28.0415 28.1877 28.0415H25.4377C25.0235 28.0415 24.6877 27.7058 24.6877 27.2915V24.9999ZM26.8127 24.3749C26.4676 24.3749 26.1877 24.6547 26.1877 24.9999V26.5415H27.4377V24.9999C27.4377 24.6547 27.1579 24.3749 26.8127 24.3749ZM26.8127 29.8749C25.6391 29.8749 24.6877 30.8263 24.6877 31.9999V34.2915C24.6877 34.7058 25.0235 35.0415 25.4377 35.0415H28.1877C28.602 35.0415 28.9377 34.7058 28.9377 34.2915V31.9999C28.9377 30.8263 27.9863 29.8749 26.8127 29.8749ZM26.1877 31.9999C26.1877 31.6547 26.4676 31.3749 26.8127 31.3749C27.1579 31.3749 27.4377 31.6547 27.4377 31.9999V33.5415H26.1877V31.9999ZM10.7084 25.5519C10.7084 24.3783 11.6598 23.4269 12.8334 23.4269C14.007 23.4269 14.9584 24.3783 14.9584 25.5519V27.8436C14.9584 28.2578 14.6226 28.5936 14.2084 28.5936H11.4584C11.0442 28.5936 10.7084 28.2578 10.7084 27.8436V25.5519ZM12.8334 24.9269C12.4882 24.9269 12.2084 25.2067 12.2084 25.5519V27.0936H13.4584V25.5519C13.4584 25.2067 13.1786 24.9269 12.8334 24.9269ZM12.8334 30.4165C11.6598 30.4165 10.7084 31.3679 10.7084 32.5415V34.8332C10.7084 35.2474 11.0442 35.5832 11.4584 35.5832H14.2084C14.6226 35.5832 14.9584 35.2474 14.9584 34.8332V32.5415C14.9584 31.3679 14.007 30.4165 12.8334 30.4165ZM12.2084 32.5415C12.2084 32.1963 12.4882 31.9165 12.8334 31.9165C13.1786 31.9165 13.4584 32.1963 13.4584 32.5415V34.0832H12.2084V32.5415ZM10.7084 18.9061C10.7084 17.7325 11.6598 16.7811 12.8334 16.7811C14.007 16.7811 14.9584 17.7325 14.9584 18.9061V21.1978C14.9584 21.612 14.6226 21.9478 14.2084 21.9478H11.4584C11.0442 21.9478 10.7084 21.612 10.7084 21.1978V18.9061ZM12.8334 18.2811C12.4882 18.2811 12.2084 18.5609 12.2084 18.9061V20.4478H13.4584V18.9061C13.4584 18.5609 13.1786 18.2811 12.8334 18.2811Z" fill="#252323"/>
</g>
<defs>
<clipPath id="clip0_688_12064">
<rect width="44" height="44" fill="white"/>
</clipPath>
</defs>
</svg>
