<svg width="23" height="23" viewBox="0 0 23 23" fill="none" xmlns="http://www.w3.org/2000/svg">
<g clip-path="url(#clip0_688_12165)">
<path fill-rule="evenodd" clip-rule="evenodd" d="M9.58325 3.35425H15.8124V19.6459H9.58325V3.35425ZM13.4739 5.87512V7.07304H12.0364V5.87512C12.0364 5.47817 12.3582 5.15637 12.7551 5.15637C13.1521 5.15637 13.4739 5.47817 13.4739 5.87512ZM13.4739 10.9063V9.70837C13.4739 9.31142 13.1521 8.98962 12.7551 8.98962C12.3582 8.98962 12.0364 9.31142 12.0364 9.70837V10.9063H13.4739ZM13.4739 13.0912V14.2891H12.0364V13.0912C12.0364 12.6942 12.3582 12.3724 12.7551 12.3724C13.1521 12.3724 13.4739 12.6942 13.4739 13.0912ZM13.4739 17.5391V16.3412C13.4739 15.9442 13.1521 15.6224 12.7551 15.6224C12.3582 15.6224 12.0364 15.9442 12.0364 16.3412V17.5391H13.4739ZM7.427 9.88289V11.0808H5.9895V9.88289C5.9895 9.48594 6.3113 9.16414 6.70825 9.16414C7.10521 9.16414 7.427 9.48594 7.427 9.88289ZM7.427 13.4167V14.6147H5.9895V13.4167C5.9895 13.0198 6.3113 12.698 6.70825 12.698C7.10521 12.698 7.427 13.0198 7.427 13.4167ZM7.427 18.2683V17.0704C7.427 16.6734 7.10521 16.3516 6.70825 16.3516C6.3113 16.3516 5.9895 16.6734 5.9895 17.0704V18.2683H7.427Z" fill="#E05149"/>
<path d="M14.738 2.60425C15.6628 2.6046 16.4128 3.35419 16.4128 4.27905V6.90894L18.0154 9.31226H19.5701C19.9428 9.31226 20.2457 9.61442 20.2458 9.98706V14.7791C20.2457 15.1517 19.9428 15.4539 19.5701 15.4539C19.1977 15.4535 18.8954 15.1515 18.8953 14.7791V10.6619H17.6541C17.4285 10.6618 17.2177 10.5488 17.0925 10.3611L16.4128 9.34058V11.408C16.7077 11.4775 17.1372 11.5476 17.6541 11.5476C18.0266 11.5478 18.3287 11.8499 18.3289 12.2224C18.3289 12.5951 18.0267 12.898 17.6541 12.8982C17.1865 12.8982 16.7656 12.85 16.4128 12.7859V14.283C16.7077 14.3525 17.1372 14.4226 17.6541 14.4226C18.0266 14.4228 18.3287 14.7249 18.3289 15.0974C18.3289 15.4701 18.0267 15.773 17.6541 15.7732C17.1865 15.7732 16.7656 15.725 16.4128 15.6609V16.908C16.7077 16.9774 17.1372 17.0476 17.6541 17.0476C18.0266 17.0478 18.3287 17.3499 18.3289 17.7224C18.3289 18.0951 18.0267 18.398 17.6541 18.3982C17.1865 18.3982 16.7656 18.35 16.4128 18.2859V18.8953H18.8953V17.1746C18.8954 16.8021 19.1977 16.5001 19.5701 16.4998C19.9428 16.4998 20.2457 16.8019 20.2458 17.1746V19.5701C20.2458 19.9429 19.9429 20.2458 19.5701 20.2458H3.27905C2.90626 20.2458 2.60425 19.9429 2.60425 19.5701V14.8982C2.6046 14.5257 2.90648 14.2234 3.27905 14.2234C3.65163 14.2234 3.95351 14.5257 3.95386 14.8982V18.8953H8.83276V7.78687H6.67358L3.95386 10.5066V12.5623C3.95386 12.935 3.65184 13.238 3.27905 13.238C2.90626 13.238 2.60425 12.935 2.60425 12.5623V10.2263C2.60442 10.0477 2.67528 9.87616 2.80151 9.74976L5.91675 6.63452L6.01929 6.55054C6.12924 6.47728 6.25925 6.43732 6.39331 6.43726H8.83374V4.27905C8.83374 3.35398 9.58347 2.60425 10.5085 2.60425H14.738ZM10.5085 3.95386C10.3291 3.95386 10.1833 4.09956 10.1833 4.27905V18.8953H15.0623V4.27905C15.0623 4.09978 14.9172 3.95421 14.738 3.95386H10.5085ZM6.63354 15.4666C7.30653 15.4667 7.85229 16.0123 7.85229 16.6853V17.8835C7.85212 18.1595 7.62822 18.3834 7.35229 18.3835H5.91479C5.63876 18.3835 5.41497 18.1595 5.41479 17.8835V16.6853C5.41479 16.0122 5.96045 15.4666 6.63354 15.4666ZM12.6052 14.8806C13.2781 14.8807 13.8238 15.4265 13.824 16.0994V17.2976C13.8238 17.5735 13.5999 17.7975 13.324 17.7976H11.8865C11.6104 17.7976 11.3867 17.5736 11.3865 17.2976V16.0994C11.3867 15.4264 11.9323 14.8806 12.6052 14.8806ZM6.63354 16.4666C6.51273 16.4666 6.41479 16.5645 6.41479 16.6853V17.3835H6.85229V16.6853C6.85229 16.5646 6.75424 16.4667 6.63354 16.4666ZM12.6052 15.8806C12.4845 15.8806 12.3867 15.9787 12.3865 16.0994V16.7976H12.824V16.0994C12.8238 15.9788 12.7258 15.8807 12.6052 15.8806ZM6.63354 12.0632C7.30649 12.0634 7.85229 12.609 7.85229 13.282V14.4802C7.85194 14.756 7.62807 14.98 7.35229 14.9802H5.91479C5.63887 14.9802 5.41515 14.7561 5.41479 14.4802V13.282C5.41479 12.6089 5.96045 12.0632 6.63354 12.0632ZM12.6052 11.4646C13.2782 11.4647 13.824 12.0103 13.824 12.6833V13.8816C13.8236 14.1574 13.5998 14.3815 13.324 14.3816H11.8865C11.6105 14.3816 11.3868 14.1575 11.3865 13.8816V12.6833C11.3865 12.0103 11.9321 11.4646 12.6052 11.4646ZM6.63354 13.0632C6.51273 13.0632 6.41479 13.1612 6.41479 13.282V13.9802H6.85229V13.282C6.85229 13.1613 6.75421 13.0634 6.63354 13.0632ZM12.6052 12.4646C12.4844 12.4646 12.3865 12.5625 12.3865 12.6833V13.3816H12.824V12.6833C12.824 12.5626 12.7259 12.4647 12.6052 12.4646ZM6.63354 8.83862C7.30641 8.83875 7.8521 9.38453 7.85229 10.0574V11.2556C7.85212 11.5315 7.62822 11.7555 7.35229 11.7556H5.91479C5.63876 11.7556 5.41497 11.5316 5.41479 11.2556V10.0574C5.41499 9.38444 5.96057 8.83862 6.63354 8.83862ZM12.6052 8.04761C13.2782 8.04774 13.824 8.59336 13.824 9.26636V10.4646C13.8238 10.7405 13.5999 10.9645 13.324 10.9646H11.8865C11.6104 10.9646 11.3867 10.7406 11.3865 10.4646V9.26636C11.3865 8.59328 11.9321 8.04761 12.6052 8.04761ZM6.63354 9.83862C6.51285 9.83862 6.41499 9.93673 6.41479 10.0574V10.7556H6.85229V10.0574C6.8521 9.93681 6.75412 9.83875 6.63354 9.83862ZM12.6052 9.04761C12.4844 9.04761 12.3865 9.14556 12.3865 9.26636V9.9646H12.824V9.26636C12.824 9.14565 12.7259 9.04774 12.6052 9.04761ZM12.6052 4.63062C13.2781 4.63075 13.8238 5.17652 13.824 5.84937V7.04761C13.8238 7.32352 13.5999 7.54748 13.324 7.54761H11.8865C11.6104 7.54761 11.3867 7.3236 11.3865 7.04761V5.84937C11.3867 5.17644 11.9323 4.63062 12.6052 4.63062ZM12.6052 5.63062C12.4845 5.63062 12.3867 5.72872 12.3865 5.84937V6.54761H12.824V5.84937C12.8238 5.7288 12.7258 5.63075 12.6052 5.63062Z" fill="#332A2A"/>
</g>
<defs>
<clipPath id="clip0_688_12165">
<rect width="23" height="23" fill="white"/>
</clipPath>
</defs>
</svg>
