<svg width="23" height="23" viewBox="0 0 23 23" fill="none" xmlns="http://www.w3.org/2000/svg">
<g clip-path="url(#clip0_688_12165)">
<path fill-rule="evenodd" clip-rule="evenodd" d="M9.58325 3.35425H15.8124V19.6459H9.58325V3.35425ZM13.4739 5.87512V7.07304H12.0364V5.87512C12.0364 5.47817 12.3582 5.15637 12.7551 5.15637C13.1521 5.15637 13.4739 5.47817 13.4739 5.87512ZM13.4739 10.9063V9.70837C13.4739 9.31142 13.1521 8.98962 12.7551 8.98962C12.3582 8.98962 12.0364 9.31142 12.0364 9.70837V10.9063H13.4739ZM13.4739 13.0912V14.2891H12.0364V13.0912C12.0364 12.6942 12.3582 12.3724 12.7551 12.3724C13.1521 12.3724 13.4739 12.6942 13.4739 13.0912ZM13.4739 17.5391V16.3412C13.4739 15.9442 13.1521 15.6224 12.7551 15.6224C12.3582 15.6224 12.0364 15.9442 12.0364 16.3412V17.5391H13.4739ZM7.427 9.88289V11.0808H5.9895V9.88289C5.9895 9.48594 6.3113 9.16414 6.70825 9.16414C7.10521 9.16414 7.427 9.48594 7.427 9.88289ZM7.427 13.4167V14.6147H5.9895V13.4167C5.9895 13.0198 6.3113 12.698 6.70825 12.698C7.10521 12.698 7.427 13.0198 7.427 13.4167ZM7.427 18.2683V17.0704C7.427 16.6734 7.10521 16.3516 6.70825 16.3516C6.3113 16.3516 5.9895 16.6734 5.9895 17.0704V18.2683H7.427Z" fill="#E05149"/>
<path fill-rule="evenodd" clip-rule="evenodd" d="M8.90836 4.3542C8.90836 3.42912 9.65829 2.6792 10.5834 2.6792H14.8125C15.7376 2.6792 16.4875 3.42912 16.4875 4.3542V6.98316L18.0905 9.38753H19.6459C20.0187 9.38753 20.3209 9.68974 20.3209 10.0625V14.8542C20.3209 15.227 20.0187 15.5292 19.6459 15.5292C19.2731 15.5292 18.9709 15.227 18.9709 14.8542V10.7375H17.7292C17.5035 10.7375 17.2928 10.6247 17.1676 10.437L16.4875 9.41691V11.4845C16.7823 11.5541 17.2121 11.6229 17.7292 11.6229C18.102 11.6229 18.4042 11.9251 18.4042 12.2979C18.4042 12.6707 18.102 12.9729 17.7292 12.9729C17.2616 12.9729 16.8402 12.9269 16.4875 12.8629V14.3595C16.7823 14.4291 17.2121 14.4979 17.7292 14.4979C18.102 14.4979 18.4042 14.8001 18.4042 15.1729C18.4042 15.5457 18.102 15.8479 17.7292 15.8479C17.2616 15.8479 16.8402 15.8019 16.4875 15.7379V16.9846C16.7823 17.0541 17.2121 17.1229 17.7291 17.1229C18.1019 17.1229 18.4041 17.4251 18.4041 17.7979C18.4041 18.1707 18.1019 18.4729 17.7291 18.4729C17.2615 18.4729 16.8402 18.427 16.4875 18.363V18.9709H18.9709V17.25C18.9709 16.8772 19.2731 16.575 19.6459 16.575C20.0187 16.575 20.3209 16.8772 20.3209 17.25V19.6459C20.3209 20.0187 20.0187 20.3209 19.6459 20.3209L15.8125 20.3209L15.1375 18.7599V4.3542C15.1375 4.17471 14.992 4.0292 14.8125 4.0292H10.5834C10.4039 4.0292 10.2584 4.17471 10.2584 4.3542V7.18613L10.2584 7.18753V7.47623L8.90836 4.3542ZM10.2584 7.47696L8.90836 4.3542V6.51253H6.46878C6.28976 6.51253 6.11807 6.58365 5.99149 6.71023L2.8769 9.82482C2.75032 9.95141 2.6792 10.1231 2.6792 10.3021V12.6381C2.6792 13.0108 2.98141 13.3131 3.3542 13.3131C3.72699 13.3131 4.0292 13.0108 4.0292 12.6381V10.5817L6.74838 7.86253H8.90837V18.9709H4.0292V14.974C4.0292 14.6012 3.72699 14.299 3.3542 14.299C2.98141 14.299 2.6792 14.6012 2.6792 14.974V19.6459C2.6792 20.0187 2.98141 20.3209 3.3542 20.3209L9.58336 20.3209H9.58499H15.8109L15.1375 18.7632V18.7599L13.9521 16.0183C13.918 15.8414 13.8457 15.6782 13.7441 15.5374L13.3091 14.5313H13.4741C13.7502 14.5313 13.9741 14.3075 13.9741 14.0313V12.8334C13.9741 12.1603 13.4284 11.6147 12.7553 11.6147C12.5242 11.6147 12.3081 11.679 12.124 11.7907L11.8077 11.0593C11.8763 11.0947 11.9541 11.1147 12.0366 11.1147H13.4741C13.7502 11.1147 13.9741 10.8908 13.9741 10.6147V9.41674C13.9741 8.74364 13.4284 8.19799 12.7553 8.19799C12.0822 8.19799 11.5366 8.74364 11.5366 9.41674V10.4322L10.2584 7.47623V7.47696ZM10.2584 7.47696L10.2584 18.9709H15.1375V18.7632L13.953 16.0232C13.9668 16.0967 13.9741 16.1726 13.9741 16.2501V17.448C13.9741 17.7241 13.7502 17.948 13.4741 17.948H12.0366C11.7604 17.948 11.5366 17.7241 11.5366 17.448V16.2501C11.5366 15.577 12.0822 15.0313 12.7553 15.0313C13.1606 15.0313 13.5197 15.2292 13.7413 15.5336L13.308 14.5313H12.0366C11.7604 14.5313 11.5366 14.3075 11.5366 14.0313V12.8334C11.5366 12.3917 11.7716 12.0048 12.1234 11.7911L11.8069 11.0589C11.6463 10.9757 11.5366 10.808 11.5366 10.6147V10.4337L10.2584 7.47696ZM12.9741 13.5313H12.8767L12.5465 12.7679C12.5744 12.6791 12.6573 12.6147 12.7553 12.6147C12.8761 12.6147 12.9741 12.7126 12.9741 12.8334V13.5313ZM12.5366 12.8334C12.5366 12.811 12.5399 12.7894 12.5462 12.7691L12.8757 13.5313H12.5366V12.8334ZM11.5366 6.00007C11.5366 5.32698 12.0822 4.78132 12.7553 4.78132C13.4284 4.78132 13.9741 5.32698 13.9741 6.00007V7.19799C13.9741 7.47413 13.7502 7.69799 13.4741 7.69799H12.0366C11.7604 7.69799 11.5366 7.47413 11.5366 7.19799V6.00007ZM12.7553 5.78132C12.6345 5.78132 12.5366 5.87926 12.5366 6.00007V6.69799H12.9741V6.00007C12.9741 5.87926 12.8761 5.78132 12.7553 5.78132ZM12.5366 9.41674C12.5366 9.29593 12.6345 9.19799 12.7553 9.19799C12.8761 9.19799 12.9741 9.29593 12.9741 9.41674V10.1147H12.5366V9.41674ZM12.5366 16.2501C12.5366 16.1293 12.6345 16.0313 12.7553 16.0313C12.8761 16.0313 12.9741 16.1293 12.9741 16.2501V16.948H12.5366V16.2501ZM5.48962 13.3568C5.48962 12.6837 6.03527 12.1381 6.70837 12.1381C7.38146 12.1381 7.92712 12.6837 7.92712 13.3568V14.5547C7.92712 14.8309 7.70326 15.0547 7.42712 15.0547H5.98962C5.71347 15.0547 5.48962 14.8309 5.48962 14.5547V13.3568ZM6.70837 13.1381C6.58755 13.1381 6.48962 13.236 6.48962 13.3568V14.0547H6.92712V13.3568C6.92712 13.236 6.82918 13.1381 6.70837 13.1381ZM6.70845 15.5417C6.03535 15.5417 5.4897 16.0874 5.4897 16.7604V17.9584C5.4897 18.2345 5.71355 18.4584 5.9897 18.4584H7.4272C7.70334 18.4584 7.9272 18.2345 7.9272 17.9584V16.7604C7.9272 16.0874 7.38154 15.5417 6.70845 15.5417ZM6.4897 16.7604C6.4897 16.6396 6.58763 16.5417 6.70845 16.5417C6.82926 16.5417 6.9272 16.6396 6.9272 16.7604V17.4584H6.4897V16.7604ZM5.4897 10.1329C5.4897 9.45979 6.03535 8.91414 6.70845 8.91414C7.38154 8.91414 7.9272 9.45979 7.9272 10.1329V11.3308C7.9272 11.6069 7.70334 11.8308 7.4272 11.8308H5.9897C5.71355 11.8308 5.4897 11.6069 5.4897 11.3308V10.1329ZM6.70845 9.91414C6.58763 9.91414 6.4897 10.0121 6.4897 10.1329V10.8308H6.9272V10.1329C6.9272 10.0121 6.82926 9.91414 6.70845 9.91414Z" fill="#252323"/>
</g>
<defs>
<clipPath id="clip0_688_12165">
<rect width="23" height="23" fill="white"/>
</clipPath>
</defs>
</svg>
