<svg width="44" height="44" viewBox="0 0 44 44" fill="none" xmlns="http://www.w3.org/2000/svg">
<g clip-path="url(#clip0_691_12301)">
<path d="M29.2507 5.6665C30.2169 5.66686 31.0007 6.45022 31.0007 7.4165V13.5229L34.3181 18.4995H37.5828C37.9969 18.4995 38.3326 18.8354 38.3328 19.2495V28.4165C38.3326 28.8306 37.9969 29.1665 37.5828 29.1665C37.169 29.1662 36.8329 28.8304 36.8328 28.4165V19.9995H33.9167C33.6662 19.9994 33.4318 19.874 33.2927 19.6655L31.0007 16.2271V22.3862C31.5916 22.5607 32.6248 22.7758 33.9167 22.7759C34.3307 22.7761 34.6666 23.1119 34.6667 23.5259C34.6667 23.94 34.3308 24.2757 33.9167 24.2759C32.7435 24.2758 31.7365 24.1173 31.0007 23.938V27.8862C31.5916 28.0607 32.6248 28.2758 33.9167 28.2759C34.3307 28.2761 34.6666 28.6119 34.6667 29.0259C34.6667 29.44 34.3308 29.7757 33.9167 29.7759C32.7435 29.7758 31.7365 29.6173 31.0007 29.438V33.3862C31.5916 33.5607 32.6248 33.7758 33.9167 33.7759C34.3307 33.7761 34.6666 34.1119 34.6667 34.5259C34.6667 34.94 34.3308 35.2757 33.9167 35.2759C32.7435 35.2758 31.7365 35.1173 31.0007 34.938V36.8325H36.8328V32.9995C36.8329 32.5857 37.169 32.2499 37.5828 32.2495C37.9969 32.2495 38.3326 32.5854 38.3328 32.9995V37.5825C38.3328 37.9967 37.997 38.3325 37.5828 38.3325H30.2703C30.2638 38.3327 30.2573 38.3335 30.2507 38.3335H18.3337C18.3273 38.3335 18.3206 38.3327 18.3142 38.3325H6.41675C6.00253 38.3325 5.66675 37.9967 5.66675 37.5825V28.645C5.6671 28.2311 6.00275 27.895 6.41675 27.895C6.83074 27.895 7.1664 28.2311 7.16675 28.645V36.8325H17.5837V14.4995H12.6853L7.16675 20.0181V24.1763C7.16675 24.5905 6.83096 24.9263 6.41675 24.9263C6.00253 24.9263 5.66675 24.5905 5.66675 24.1763V19.7075C5.66692 19.5088 5.74598 19.3177 5.88647 19.1772L11.8445 13.2192C11.985 13.0788 12.176 12.9996 12.3748 12.9995H17.5837V7.4165C17.5837 6.45 18.3672 5.6665 19.3337 5.6665H29.2507ZM19.3337 7.1665C19.1957 7.1665 19.0837 7.27843 19.0837 7.4165V36.8335H29.4998V13.7495C29.4998 13.7453 29.5007 13.741 29.5007 13.7368V7.4165C29.5007 7.27865 29.3885 7.16686 29.2507 7.1665H19.3337ZM12.8337 30.4165C14.0072 30.4167 14.9587 31.368 14.9587 32.5415V34.8335C14.9586 35.2475 14.6227 35.5833 14.2087 35.5835H11.4587C11.0446 35.5835 10.7089 35.2476 10.7087 34.8335V32.5415C10.7087 31.3679 11.6601 30.4165 12.8337 30.4165ZM21.7712 29.9897C22.9447 29.9899 23.8962 30.9412 23.8962 32.1147V34.4067C23.8959 34.8206 23.5602 35.1566 23.1462 35.1567H20.3962C19.9822 35.1567 19.6465 34.8207 19.6462 34.4067V32.1147C19.6462 30.9411 20.5976 29.9897 21.7712 29.9897ZM26.8132 29.8745C27.9865 29.8748 28.938 30.8262 28.9382 31.9995V34.2915C28.9381 34.7054 28.6021 35.0412 28.1882 35.0415H25.4382C25.0241 35.0415 24.6884 34.7056 24.6882 34.2915V31.9995C24.6884 30.8261 25.6397 29.8745 26.8132 29.8745ZM12.8337 31.9165C12.4886 31.9165 12.2087 32.1963 12.2087 32.5415V34.0835H13.4587V32.5415C13.4587 32.1964 13.1788 31.9167 12.8337 31.9165ZM21.7712 31.4897C21.4261 31.4897 21.1462 31.7696 21.1462 32.1147V33.6567H22.3962V32.1147C22.3962 31.7696 22.1163 31.4899 21.7712 31.4897ZM26.8132 31.3745C26.4682 31.3745 26.1884 31.6545 26.1882 31.9995V33.5415H27.4382V31.9995C27.438 31.6547 27.1581 31.3748 26.8132 31.3745ZM12.8337 23.4272C14.0072 23.4274 14.9587 24.3787 14.9587 25.5522V27.8442C14.9584 28.258 14.6226 28.5941 14.2087 28.5942H11.4587C11.0447 28.5942 10.7091 28.2582 10.7087 27.8442V25.5522C10.7087 24.3786 11.6601 23.4272 12.8337 23.4272ZM21.7712 22.8745C22.9446 22.8746 23.896 23.8262 23.8962 24.9995V27.2915C23.8961 27.7055 23.5602 28.0414 23.1462 28.0415H20.3962C19.9821 28.0415 19.6464 27.7056 19.6462 27.2915V24.9995C19.6464 23.8261 20.5978 22.8745 21.7712 22.8745ZM26.8132 22.8745C27.9865 22.8748 28.938 23.8262 28.9382 24.9995V27.2915C28.9381 27.7054 28.6021 28.0412 28.1882 28.0415H25.4382C25.0241 28.0415 24.6884 27.7056 24.6882 27.2915V24.9995C24.6884 23.8261 25.6397 22.8745 26.8132 22.8745ZM12.8337 24.9272C12.4886 24.9272 12.2087 25.2071 12.2087 25.5522V27.0942H13.4587V25.5522C13.4587 25.2072 13.1788 24.9274 12.8337 24.9272ZM21.7712 24.3745C21.4262 24.3745 21.1464 24.6545 21.1462 24.9995V26.5415H22.3962V24.9995C22.396 24.6546 22.1162 24.3746 21.7712 24.3745ZM26.8132 24.3745C26.4682 24.3745 26.1884 24.6545 26.1882 24.9995V26.5415H27.4382V24.9995C27.438 24.6547 27.1581 24.3748 26.8132 24.3745ZM12.8337 16.7808C14.0071 16.7809 14.9586 17.7324 14.9587 18.9058V21.1978C14.9586 21.6117 14.6227 21.9476 14.2087 21.9478H11.4587C11.0446 21.9478 10.7089 21.6118 10.7087 21.1978V18.9058C10.7089 17.7323 11.6602 16.7808 12.8337 16.7808ZM21.7712 15.8745C22.9446 15.8746 23.896 16.8262 23.8962 17.9995V20.2915C23.8961 20.7055 23.5602 21.0414 23.1462 21.0415H20.3962C19.9821 21.0415 19.6464 20.7056 19.6462 20.2915V17.9995C19.6464 16.8261 20.5978 15.8745 21.7712 15.8745ZM26.8132 15.8745C27.9865 15.8748 28.938 16.8262 28.9382 17.9995V20.2915C28.9381 20.7054 28.6021 21.0412 28.1882 21.0415H25.4382C25.0241 21.0415 24.6884 20.7056 24.6882 20.2915V17.9995C24.6884 16.8261 25.6397 15.8745 26.8132 15.8745ZM12.8337 18.2808C12.4887 18.2808 12.2089 18.5607 12.2087 18.9058V20.4478H13.4587V18.9058C13.4586 18.5608 13.1787 18.2809 12.8337 18.2808ZM21.7712 17.3745C21.4262 17.3745 21.1464 17.6545 21.1462 17.9995V19.5415H22.3962V17.9995C22.396 17.6546 22.1162 17.3746 21.7712 17.3745ZM26.8132 17.3745C26.4682 17.3745 26.1884 17.6545 26.1882 17.9995V19.5415H27.4382V17.9995C27.438 17.6547 27.1581 17.3748 26.8132 17.3745ZM21.7712 8.87451C22.9446 8.87464 23.896 9.82616 23.8962 10.9995V13.2915C23.8961 13.7055 23.5602 14.0414 23.1462 14.0415H20.3962C19.9821 14.0415 19.6464 13.7056 19.6462 13.2915V10.9995C19.6464 9.82608 20.5978 8.87451 21.7712 8.87451ZM26.8132 8.87451C27.9865 8.87478 28.938 9.82624 28.9382 10.9995V13.2915C28.9381 13.7054 28.6021 14.0412 28.1882 14.0415H25.4382C25.0241 14.0415 24.6884 13.7056 24.6882 13.2915V10.9995C24.6884 9.82608 25.6397 8.87451 26.8132 8.87451ZM21.7712 10.3745C21.4262 10.3745 21.1464 10.6545 21.1462 10.9995V12.5415H22.3962V10.9995C22.396 10.6546 22.1162 10.3746 21.7712 10.3745ZM26.8132 10.3745C26.4682 10.3745 26.1884 10.6545 26.1882 10.9995V12.5415H27.4382V10.9995C27.438 10.6547 27.1581 10.3748 26.8132 10.3745Z" fill="#332A2A"/>
</g>
<defs>
<clipPath id="clip0_691_12301">
<rect width="44" height="44" fill="white"/>
</clipPath>
</defs>
</svg>
