<svg width="18" height="18" viewBox="0 0 18 18" fill="none" xmlns="http://www.w3.org/2000/svg">
<g clip-path="url(#clip0_691_12304)">
<path fill-rule="evenodd" clip-rule="evenodd" d="M6.875 3.625C6.875 2.72754 7.60254 2 8.5 2H11.375C12.2725 2 13 2.72754 13 3.625V5.4229L14.3196 7.25H15.375C15.7202 7.25 16 7.52982 16 7.875V11.625C16 11.9702 15.7202 12.25 15.375 12.25C15.0298 12.25 14.75 11.9702 14.75 11.625V8.5H14C13.7993 8.5 13.6108 8.40363 13.4933 8.24093L13 7.55787V8.91042C13.2189 8.95695 13.5195 8.99939 13.875 8.99939C14.2202 8.99939 14.5 9.27921 14.5 9.62439C14.5 9.96957 14.2202 10.2494 13.875 10.2494C13.5524 10.2494 13.2568 10.2219 13 10.1812V10.9104C13.2189 10.9569 13.5195 10.9994 13.875 10.9994C14.2202 10.9994 14.5 11.2792 14.5 11.6244C14.5 11.9696 14.2202 12.2494 13.875 12.2494C13.5524 12.2494 13.2568 12.2219 13 12.1812V12.9104C13.2189 12.9569 13.5195 12.9994 13.875 12.9994C14.2202 12.9994 14.5 13.2792 14.5 13.6244C14.5 13.9696 14.2202 14.2494 13.875 14.2494C13.5524 14.2494 13.2568 14.2219 13 14.1812V14.75H14.75V13.5C14.75 13.1548 15.0298 12.875 15.375 12.875C15.7202 12.875 16 13.1548 16 13.5V15.375C16 15.7202 15.7202 16 15.375 16L12.375 16L11.75 14.5937V3.625C11.75 3.41789 11.5821 3.25 11.375 3.25H8.5C8.29289 3.25 8.125 3.41789 8.125 3.625V5.62365L8.125 5.625V6.4375L6.875 3.625ZM8.125 6.4383L6.875 3.625V5H5.0625C4.89674 5 4.73777 5.06585 4.62056 5.18306L2.18306 7.62056C2.06585 7.73777 2 7.89674 2 8.0625V9.89062C2 10.2358 2.27982 10.5156 2.625 10.5156C2.97018 10.5156 3.25 10.2358 3.25 9.89062V8.32138L5.32138 6.25H6.875V14.75H3.25V11.7188C3.25 11.3736 2.97018 11.0938 2.625 11.0938C2.27982 11.0938 2 11.3736 2 11.7188V15.375C2 15.7202 2.27982 16 2.625 16H7.5L7.50156 16H12.3734L11.75 14.5969V14.5937L10.9196 12.7253C10.9129 12.468 10.8026 12.2365 10.6288 12.071L10.2917 11.3125H10.5449C10.752 11.3125 10.9199 11.1446 10.9199 10.9375V10C10.9199 9.48226 10.5002 9.06253 9.9824 9.06253C9.75614 9.06253 9.5486 9.14269 9.38662 9.27615L8.125 6.4375V6.4383ZM8.125 6.4383L8.125 14.75H11.75V14.5969L10.9196 12.728L10.9199 12.75V13.6875C10.9199 13.8946 10.752 14.0625 10.5449 14.0625H9.4199C9.21279 14.0625 9.0449 13.8946 9.0449 13.6875V12.75C9.0449 12.2323 9.46463 11.8125 9.9824 11.8125C10.2321 11.8125 10.4589 11.9101 10.6269 12.0692L10.2907 11.3125H9.4199C9.21279 11.3125 9.0449 11.1446 9.0449 10.9375V10C9.0449 9.70877 9.17772 9.44853 9.3861 9.27658L8.125 6.4383ZM10.1699 10.5625H9.95835L9.7949 10.1948V10C9.7949 9.89648 9.87885 9.81253 9.9824 9.81253C10.086 9.81253 10.1699 9.89648 10.1699 10V10.5625ZM9.7949 10.5625V10.1966L9.95747 10.5625H9.7949ZM9.0449 4.50003C9.0449 3.98226 9.46463 3.56253 9.9824 3.56253C10.5002 3.56253 10.9199 3.98227 10.9199 4.50003V5.43753C10.9199 5.64464 10.752 5.81253 10.5449 5.81253H9.4199C9.21279 5.81253 9.0449 5.64464 9.0449 5.43753V4.50003ZM9.9824 4.31253C9.87885 4.31253 9.7949 4.39648 9.7949 4.50003V5.06253H10.1699V4.50003C10.1699 4.39648 10.086 4.31253 9.9824 4.31253ZM9.9824 6.31253C9.46463 6.31253 9.0449 6.73226 9.0449 7.25003V8.18753C9.0449 8.39464 9.21279 8.56253 9.4199 8.56253H10.5449C10.752 8.56253 10.9199 8.39464 10.9199 8.18753V7.25003C10.9199 6.73226 10.5002 6.31253 9.9824 6.31253ZM9.7949 7.25003C9.7949 7.14648 9.87885 7.06253 9.9824 7.06253C10.086 7.06253 10.1699 7.14648 10.1699 7.25003V7.81253H9.7949V7.25003ZM9.7949 12.75C9.7949 12.6465 9.87885 12.5625 9.9824 12.5625C10.086 12.5625 10.1699 12.6465 10.1699 12.75V13.3125H9.7949V12.75ZM4.3125 10.5781C4.3125 10.0604 4.73223 9.64062 5.25 9.64062C5.76777 9.64062 6.1875 10.0604 6.1875 10.5781V11.5156C6.1875 11.7227 6.01961 11.8906 5.8125 11.8906H4.6875C4.48039 11.8906 4.3125 11.7227 4.3125 11.5156V10.5781ZM5.25 10.3906C5.14645 10.3906 5.0625 10.4746 5.0625 10.5781V11.1406H5.4375V10.5781C5.4375 10.4746 5.35355 10.3906 5.25 10.3906ZM5.25006 12.1793C4.7323 12.1793 4.31256 12.5991 4.31256 13.1168V14.0543C4.31256 14.2615 4.48046 14.4293 4.68756 14.4293H5.81256C6.01967 14.4293 6.18756 14.2615 6.18756 14.0543V13.1168C6.18756 12.5991 5.76783 12.1793 5.25006 12.1793ZM5.06256 13.1168C5.06256 13.0133 5.14651 12.9293 5.25006 12.9293C5.35362 12.9293 5.43756 13.0133 5.43756 13.1168V13.6793H5.06256V13.1168ZM4.3125 8.05505C4.3125 7.53729 4.73223 7.11755 5.25 7.11755C5.76777 7.11755 6.1875 7.53729 6.1875 8.05505V8.99255C6.1875 9.19966 6.01961 9.36755 5.8125 9.36755H4.6875C4.48039 9.36755 4.3125 9.19966 4.3125 8.99255V8.05505ZM5.25 7.86755C5.14645 7.86755 5.0625 7.9515 5.0625 8.05505V8.61755H5.4375V8.05505C5.4375 7.9515 5.35355 7.86755 5.25 7.86755Z" fill="#332A2A"/>
</g>
<defs>
<clipPath id="clip0_691_12304">
<rect width="18" height="18" fill="white"/>
</clipPath>
</defs>
</svg>
