<svg width="28" height="28" viewBox="0 0 28 28" fill="none" xmlns="http://www.w3.org/2000/svg">
<g clip-path="url(#clip0_688_12098)">
<path fill-rule="evenodd" clip-rule="evenodd" d="M11.6667 4.08325H19.2501V23.9166H11.6667V4.08325ZM14.7292 6.99992V8.45825H12.9792V6.99992C12.9792 6.51667 13.371 6.12492 13.8542 6.12492C14.3375 6.12492 14.7292 6.51667 14.7292 6.99992ZM14.7292 13.1249V11.6666C14.7292 11.1833 14.3375 10.7916 13.8542 10.7916C13.371 10.7916 12.9792 11.1833 12.9792 11.6666V13.1249H14.7292ZM14.8542 16.1979V17.6562H13.1042V16.1979C13.1042 15.7146 13.496 15.3229 13.9792 15.3229C14.4625 15.3229 14.8542 15.7146 14.8542 16.1979ZM17.9376 8.45825V6.99992C17.9376 6.51667 17.5458 6.12492 17.0626 6.12492C16.5793 6.12492 16.1876 6.51667 16.1876 6.99992V8.45825H17.9376ZM17.9376 11.6666V13.1249H16.1876V11.6666C16.1876 11.1833 16.5793 10.7916 17.0626 10.7916C17.5458 10.7916 17.9376 11.1833 17.9376 11.6666ZM17.8125 17.7082V16.2499C17.8125 15.7666 17.4207 15.3749 16.9375 15.3749C16.4543 15.3749 16.0625 15.7666 16.0625 16.2499V17.7082H17.8125ZM17.8125 20.4999V21.9582H16.0625V20.4999C16.0625 20.0166 16.4543 19.6249 16.9375 19.6249C17.4207 19.6249 17.8125 20.0166 17.8125 20.4999ZM14.75 21.9582V20.4999C14.75 20.0166 14.3582 19.6249 13.875 19.6249C13.3918 19.6249 13 20.0166 13 20.4999V21.9582H14.75ZM9.04175 12.0312V13.4895H7.29175V12.0312C7.29175 11.5479 7.6835 11.1562 8.16675 11.1562C8.65 11.1562 9.04175 11.5479 9.04175 12.0312ZM9.04175 16.3333V17.7916H7.29175V16.3333C7.29175 15.85 7.6835 15.4583 8.16675 15.4583C8.65 15.4583 9.04175 15.85 9.04175 16.3333ZM9.04175 22.2395V20.7812C9.04175 20.2979 8.65 19.9062 8.16675 19.9062C7.6835 19.9062 7.29175 20.2979 7.29175 20.7812V22.2395H9.04175Z" fill="#E05149"/>
<path fill-rule="evenodd" clip-rule="evenodd" d="M10.9166 5.08325C10.9166 4.11676 11.7001 3.33325 12.6666 3.33325H18.2499C19.2164 3.33325 19.9999 4.11675 19.9999 5.08325V8.52284L21.9846 11.4999H23.9166C24.3308 11.4999 24.6666 11.8357 24.6666 12.2499V18.0833C24.6666 18.4975 24.3308 18.8333 23.9166 18.8333C23.5024 18.8333 23.1666 18.4975 23.1666 18.0833V12.9999H21.5833C21.3325 12.9999 21.0983 12.8746 20.9592 12.6659L19.9999 11.227V14.2947C20.3848 14.3853 20.932 14.4712 21.5833 14.4712C21.8594 14.4712 22.0833 14.695 22.0833 14.9712C22.0833 15.2473 21.8594 15.4712 21.5833 15.4712C20.9732 15.4712 20.4333 15.4046 19.9999 15.3179V17.7947C20.3848 17.8853 20.932 17.9712 21.5833 17.9712C21.8594 17.9712 22.0833 18.195 22.0833 18.4712C22.0833 18.7473 21.8594 18.9712 21.5833 18.9712C20.9732 18.9712 20.4333 18.9046 19.9999 18.8179V21.2947C20.3848 21.3853 20.932 21.4712 21.5833 21.4712C21.8594 21.4712 22.0833 21.695 22.0833 21.9712C22.0833 22.2473 21.8594 22.4712 21.5833 22.4712C20.9732 22.4712 20.4333 22.4046 19.9999 22.3179V23.1666H23.1666V20.9999C23.1666 20.5857 23.5024 20.2499 23.9166 20.2499C24.3308 20.2499 24.6666 20.5857 24.6666 20.9999V23.9166C24.6666 24.3308 24.3308 24.6666 23.9166 24.6666L19.2499 24.6666L18.4999 22.9041V5.08325C18.4999 4.94518 18.388 4.83325 18.2499 4.83325H12.6666C12.5285 4.83325 12.4166 4.94518 12.4166 5.08325V8.60825L10.9166 5.08325ZM12.4166 8.60897L10.9166 5.08325V7.99992H7.87492C7.67601 7.99992 7.48524 8.07894 7.34459 8.21959L3.55292 12.0113C3.41227 12.1519 3.33325 12.3427 3.33325 12.5416V18.2291C3.33325 18.6433 3.66904 18.9791 4.08325 18.9791C4.49747 18.9791 4.83325 18.6433 4.83325 18.2291V12.8522L8.18558 9.49992H10.9166V23.1666H4.83325V21.0728C4.83325 20.6586 4.49747 20.3228 4.08325 20.3228C3.66904 20.3228 3.33325 20.6586 3.33325 21.0728V23.9166C3.33325 24.3308 3.66904 24.6666 4.08325 24.6666L11.6666 24.6666H11.6683H19.2482L18.4999 22.9077V22.9041L18.1638 22.1143C18.2254 22.0373 18.2623 21.9396 18.2623 21.8333V20.375C18.2623 19.6432 17.669 19.05 16.9373 19.05C16.9116 19.05 16.8861 19.0507 16.8608 19.0522L16.3918 17.95H17.8123C18.0608 17.95 18.2623 17.7485 18.2623 17.5V16.0416C18.2623 15.3098 17.669 14.7166 16.9373 14.7166C16.2055 14.7166 15.6123 15.3098 15.6123 16.0416V16.1181L14.5478 13.6166H14.854C15.1025 13.6166 15.304 13.4151 15.304 13.1666V11.7083C15.304 10.9765 14.7108 10.3833 13.979 10.3833C13.7146 10.3833 13.4684 10.4607 13.2616 10.5941L12.4166 8.60825V8.60897ZM12.4166 8.60897V8.74821L12.4166 8.74992L12.4166 23.1666H18.4999V22.9077L18.1628 22.1155C18.0804 22.2178 17.954 22.2833 17.8123 22.2833H16.0623C15.8137 22.2833 15.6123 22.0819 15.6123 21.8333V20.375C15.6123 19.6693 16.164 19.0924 16.8596 19.0522L16.3907 17.95H16.0623C15.8137 17.95 15.6123 17.7485 15.6123 17.5V16.1203L14.547 13.6166H13.104C12.8555 13.6166 12.654 13.4151 12.654 13.1666V11.7083C12.654 11.241 12.8959 10.8302 13.2612 10.5943L12.4166 8.60897ZM13.6312 11.4639C13.5826 11.533 13.554 11.6173 13.554 11.7083V12.7166H14.1641L13.6312 11.4639ZM14.1648 12.7166H14.404V11.7083C14.404 11.4735 14.2137 11.2833 13.979 11.2833C13.8354 11.2833 13.7085 11.3544 13.6316 11.4634L14.1648 12.7166ZM12.654 7.37488C12.654 6.6431 13.2472 6.04988 13.979 6.04988C14.7108 6.04988 15.304 6.6431 15.304 7.37488V8.83321C15.304 9.08174 15.1025 9.28321 14.854 9.28321H13.104C12.8555 9.28321 12.654 9.08174 12.654 8.83321V7.37488ZM13.979 6.94988C13.7443 6.94988 13.554 7.14016 13.554 7.37488V8.38321H14.404V7.37488C14.404 7.14016 14.2137 6.94988 13.979 6.94988ZM12.654 16.0416C12.654 15.3098 13.2472 14.7166 13.979 14.7166C14.7108 14.7166 15.304 15.3098 15.304 16.0416V17.5C15.304 17.7485 15.1025 17.95 14.854 17.95H13.104C12.8555 17.95 12.654 17.7485 12.654 17.5V16.0416ZM13.979 15.6166C13.7443 15.6166 13.554 15.8069 13.554 16.0416V17.05H14.404V16.0416C14.404 15.8069 14.2137 15.6166 13.979 15.6166ZM13.979 19.05C13.2472 19.05 12.654 19.6432 12.654 20.375V21.8333C12.654 22.0819 12.8555 22.2833 13.104 22.2833H14.854C15.1025 22.2833 15.304 22.0819 15.304 21.8333V20.375C15.304 19.6432 14.7108 19.05 13.979 19.05ZM13.554 20.375C13.554 20.1403 13.7443 19.95 13.979 19.95C14.2137 19.95 14.404 20.1403 14.404 20.375V21.3833H13.554V20.375ZM15.6123 7.37488C15.6123 6.6431 16.2055 6.04988 16.9373 6.04988C17.669 6.04988 18.2623 6.6431 18.2623 7.37488V8.83321C18.2623 9.08174 18.0608 9.28321 17.8123 9.28321H16.0623C15.8137 9.28321 15.6123 9.08174 15.6123 8.83321V7.37488ZM16.9373 6.94988C16.7025 6.94988 16.5123 7.14016 16.5123 7.37488V8.38321H17.3623V7.37488C17.3623 7.14016 17.172 6.94988 16.9373 6.94988ZM16.9373 10.3833C16.2055 10.3833 15.6123 10.9765 15.6123 11.7083V13.1666C15.6123 13.4151 15.8137 13.6166 16.0623 13.6166H17.8123C18.0608 13.6166 18.2623 13.4151 18.2623 13.1666V11.7083C18.2623 10.9765 17.669 10.3833 16.9373 10.3833ZM16.5123 11.7083C16.5123 11.4735 16.7025 11.2833 16.9373 11.2833C17.172 11.2833 17.3623 11.4735 17.3623 11.7083V12.7166H16.5123V11.7083ZM16.9373 15.6166C16.7025 15.6166 16.5123 15.8069 16.5123 16.0416V17.05H17.3623V16.0416C17.3623 15.8069 17.172 15.6166 16.9373 15.6166ZM16.5123 20.375C16.5123 20.1403 16.7025 19.95 16.9373 19.95C17.172 19.95 17.3623 20.1403 17.3623 20.375V21.3833H16.5123V20.375ZM6.7915 16.3854C6.7915 15.626 7.40711 15.0104 8.1665 15.0104C8.9259 15.0104 9.5415 15.626 9.5415 16.3854V17.8437C9.5415 18.1199 9.31765 18.3437 9.0415 18.3437H7.2915C7.01536 18.3437 6.7915 18.1199 6.7915 17.8437V16.3854ZM8.1665 16.0104C7.9594 16.0104 7.7915 16.1783 7.7915 16.3854V17.3437H8.5415V16.3854C8.5415 16.1783 8.37361 16.0104 8.1665 16.0104ZM8.16659 19.3333C7.40719 19.3333 6.79159 19.9489 6.79159 20.7083V22.1666C6.79159 22.4427 7.01544 22.6666 7.29159 22.6666H9.04159C9.31773 22.6666 9.54159 22.4427 9.54159 22.1666V20.7083C9.54159 19.9489 8.92598 19.3333 8.16659 19.3333ZM7.79159 20.7083C7.79159 20.5011 7.95948 20.3333 8.16659 20.3333C8.37369 20.3333 8.54159 20.5011 8.54159 20.7083V21.6666H7.79159V20.7083ZM6.7915 12.1561C6.7915 11.3967 7.40711 10.7811 8.1665 10.7811C8.9259 10.7811 9.5415 11.3967 9.5415 12.1561V13.6145C9.5415 13.8906 9.31765 14.1145 9.0415 14.1145H7.2915C7.01536 14.1145 6.7915 13.8906 6.7915 13.6145V12.1561ZM8.1665 11.7811C7.9594 11.7811 7.7915 11.949 7.7915 12.1561V13.1145H8.5415V12.1561C8.5415 11.949 8.37361 11.7811 8.1665 11.7811Z" fill="#252323"/>
</g>
<defs>
<clipPath id="clip0_688_12098">
<rect width="28" height="28" fill="white"/>
</clipPath>
</defs>
</svg>
