<svg width="28" height="28" viewBox="0 0 28 28" fill="none" xmlns="http://www.w3.org/2000/svg">
<g clip-path="url(#clip0_691_12302)">
<path fill-rule="evenodd" clip-rule="evenodd" d="M10.9166 5.08338C10.9166 4.11688 11.7001 3.33337 12.6666 3.33337H18.2499C19.2164 3.33337 19.9999 4.11687 19.9999 5.08337V8.52296L21.9846 11.5H23.9166C24.3308 11.5 24.6666 11.8358 24.6666 12.25V18.0834C24.6666 18.4976 24.3308 18.8334 23.9166 18.8334C23.5024 18.8334 23.1666 18.4976 23.1666 18.0834V13H21.5833C21.3325 13 21.0983 12.8747 20.9592 12.6661L19.9999 11.2271V14.2948C20.3848 14.3854 20.932 14.4713 21.5833 14.4713C21.8594 14.4713 22.0833 14.6952 22.0833 14.9713C22.0833 15.2475 21.8594 15.4713 21.5833 15.4713C20.9732 15.4713 20.4333 15.4047 19.9999 15.318V17.7948C20.3848 17.8854 20.932 17.9713 21.5833 17.9713C21.8594 17.9713 22.0833 18.1952 22.0833 18.4713C22.0833 18.7475 21.8594 18.9713 21.5833 18.9713C20.9732 18.9713 20.4333 18.9047 19.9999 18.818V21.2948C20.3848 21.3854 20.932 21.4713 21.5833 21.4713C21.8594 21.4713 22.0833 21.6952 22.0833 21.9713C22.0833 22.2475 21.8594 22.4713 21.5833 22.4713C20.9732 22.4713 20.4333 22.4047 19.9999 22.318V23.1667H23.1666V21C23.1666 20.5858 23.5024 20.25 23.9166 20.25C24.3308 20.25 24.6666 20.5858 24.6666 21V23.9167C24.6666 24.3309 24.3308 24.6667 23.9166 24.6667L19.2499 24.6667L18.4999 22.9042V5.08337C18.4999 4.9453 18.388 4.83337 18.2499 4.83337H12.6666C12.5285 4.83337 12.4166 4.9453 12.4166 5.08338V8.60837L10.9166 5.08338ZM12.4166 8.6091L10.9166 5.08338V8.00004H7.87492C7.67601 8.00004 7.48524 8.07906 7.34459 8.21971L3.55292 12.0114C3.41227 12.152 3.33325 12.3428 3.33325 12.5417V18.2292C3.33325 18.6434 3.66904 18.9792 4.08325 18.9792C4.49747 18.9792 4.83325 18.6434 4.83325 18.2292V12.8524L8.18558 9.50004H10.9166V23.1667H4.83325V21.073C4.83325 20.6587 4.49747 20.323 4.08325 20.323C3.66904 20.323 3.33325 20.6587 3.33325 21.073V23.9167C3.33325 24.3309 3.66904 24.6667 4.08325 24.6667L11.6666 24.6667H11.6683H19.2482L18.4999 22.9079V22.9042L18.1638 22.1144C18.2254 22.0374 18.2623 21.9397 18.2623 21.8335V20.3751C18.2623 19.6433 17.669 19.0501 16.9373 19.0501C16.9116 19.0501 16.8861 19.0509 16.8608 19.0523L16.3918 17.9501H17.8123C18.0608 17.9501 18.2623 17.7486 18.2623 17.5001V16.0417C18.2623 15.31 17.669 14.7167 16.9373 14.7167C16.2055 14.7167 15.6123 15.31 15.6123 16.0417V16.1182L14.5478 13.6167H14.854C15.1025 13.6167 15.304 13.4152 15.304 13.1667V11.7084C15.304 10.9766 14.7108 10.3834 13.979 10.3834C13.7146 10.3834 13.4684 10.4608 13.2616 10.5942L12.4166 8.60837V8.6091ZM12.4166 8.6091V8.74833L12.4166 8.75004L12.4166 23.1667H18.4999V22.9079L18.1628 22.1156C18.0804 22.218 17.954 22.2835 17.8123 22.2835H16.0623C15.8137 22.2835 15.6123 22.082 15.6123 21.8335V20.3751C15.6123 19.6694 16.164 19.0926 16.8596 19.0524L16.3907 17.9501H16.0623C15.8137 17.9501 15.6123 17.7486 15.6123 17.5001V16.1205L14.547 13.6167H13.104C12.8555 13.6167 12.654 13.4152 12.654 13.1667V11.7084C12.654 11.2411 12.8959 10.8303 13.2612 10.5944L12.4166 8.6091ZM13.6312 11.4641C13.5826 11.5332 13.554 11.6174 13.554 11.7084V12.7167H14.1641L13.6312 11.4641ZM14.1648 12.7167H14.404V11.7084C14.404 11.4737 14.2137 11.2834 13.979 11.2834C13.8354 11.2834 13.7085 11.3546 13.6316 11.4636L14.1648 12.7167ZM12.654 7.375C12.654 6.64322 13.2472 6.05 13.979 6.05C14.7108 6.05 15.304 6.64322 15.304 7.375V8.83333C15.304 9.08186 15.1025 9.28333 14.854 9.28333H13.104C12.8555 9.28333 12.654 9.08186 12.654 8.83333V7.375ZM13.979 6.95C13.7443 6.95 13.554 7.14028 13.554 7.375V8.38333H14.404V7.375C14.404 7.14028 14.2137 6.95 13.979 6.95ZM12.654 16.0417C12.654 15.31 13.2472 14.7167 13.979 14.7167C14.7108 14.7167 15.304 15.31 15.304 16.0417V17.5001C15.304 17.7486 15.1025 17.9501 14.854 17.9501H13.104C12.8555 17.9501 12.654 17.7486 12.654 17.5001V16.0417ZM13.979 15.6167C13.7443 15.6167 13.554 15.807 13.554 16.0417V17.0501H14.404V16.0417C14.404 15.807 14.2137 15.6167 13.979 15.6167ZM13.979 19.0501C13.2472 19.0501 12.654 19.6433 12.654 20.3751V21.8335C12.654 22.082 12.8555 22.2835 13.104 22.2835H14.854C15.1025 22.2835 15.304 22.082 15.304 21.8335V20.3751C15.304 19.6433 14.7108 19.0501 13.979 19.0501ZM13.554 20.3751C13.554 20.1404 13.7443 19.9501 13.979 19.9501C14.2137 19.9501 14.404 20.1404 14.404 20.3751V21.3835H13.554V20.3751ZM15.6123 7.375C15.6123 6.64322 16.2055 6.05 16.9373 6.05C17.669 6.05 18.2623 6.64322 18.2623 7.375V8.83333C18.2623 9.08186 18.0608 9.28333 17.8123 9.28333H16.0623C15.8137 9.28333 15.6123 9.08186 15.6123 8.83333V7.375ZM16.9373 6.95C16.7025 6.95 16.5123 7.14028 16.5123 7.375V8.38333H17.3623V7.375C17.3623 7.14028 17.172 6.95 16.9373 6.95ZM16.9373 10.3834C16.2055 10.3834 15.6123 10.9766 15.6123 11.7084V13.1667C15.6123 13.4152 15.8137 13.6167 16.0623 13.6167H17.8123C18.0608 13.6167 18.2623 13.4152 18.2623 13.1667V11.7084C18.2623 10.9766 17.669 10.3834 16.9373 10.3834ZM16.5123 11.7084C16.5123 11.4737 16.7025 11.2834 16.9373 11.2834C17.172 11.2834 17.3623 11.4737 17.3623 11.7084V12.7167H16.5123V11.7084ZM16.9373 15.6167C16.7025 15.6167 16.5123 15.807 16.5123 16.0417V17.0501H17.3623V16.0417C17.3623 15.807 17.172 15.6167 16.9373 15.6167ZM16.5123 20.3751C16.5123 20.1404 16.7025 19.9501 16.9373 19.9501C17.172 19.9501 17.3623 20.1404 17.3623 20.3751V21.3835H16.5123V20.3751ZM6.7915 16.3855C6.7915 15.6261 7.40711 15.0105 8.1665 15.0105C8.9259 15.0105 9.5415 15.6261 9.5415 16.3855V17.8438C9.5415 18.12 9.31765 18.3438 9.0415 18.3438H7.2915C7.01536 18.3438 6.7915 18.12 6.7915 17.8438V16.3855ZM8.1665 16.0105C7.9594 16.0105 7.7915 16.1784 7.7915 16.3855V17.3438H8.5415V16.3855C8.5415 16.1784 8.37361 16.0105 8.1665 16.0105ZM8.16659 19.3334C7.40719 19.3334 6.79159 19.949 6.79159 20.7084V22.1667C6.79159 22.4429 7.01544 22.6667 7.29159 22.6667H9.04159C9.31773 22.6667 9.54159 22.4429 9.54159 22.1667V20.7084C9.54159 19.949 8.92598 19.3334 8.16659 19.3334ZM7.79159 20.7084C7.79159 20.5013 7.95948 20.3334 8.16659 20.3334C8.37369 20.3334 8.54159 20.5013 8.54159 20.7084V21.6667H7.79159V20.7084ZM6.7915 12.1562C6.7915 11.3969 7.40711 10.7812 8.1665 10.7812C8.9259 10.7812 9.5415 11.3969 9.5415 12.1562V13.6146C9.5415 13.8907 9.31765 14.1146 9.0415 14.1146H7.2915C7.01536 14.1146 6.7915 13.8907 6.7915 13.6146V12.1562ZM8.1665 11.7812C7.9594 11.7812 7.7915 11.9491 7.7915 12.1562V13.1146H8.5415V12.1562C8.5415 11.9491 8.37361 11.7812 8.1665 11.7812Z" fill="#252323"/>
</g>
<defs>
<clipPath id="clip0_691_12302">
<rect width="28" height="28" fill="white"/>
</clipPath>
</defs>
</svg>
