<svg width="23" height="23" viewBox="0 0 23 23" fill="none" xmlns="http://www.w3.org/2000/svg">
<g clip-path="url(#clip0_609_5310)">
<path fill-rule="evenodd" clip-rule="evenodd" d="M6.50081 3.84443C6.46284 3.84443 6.43206 3.87521 6.43206 3.91318V4.49304H6.56956V3.91318C6.56956 3.87521 6.53878 3.84443 6.50081 3.84443ZM5.13206 3.91318V4.49304H5.09873C3.63518 4.49304 2.44873 5.67949 2.44873 7.14304V8.01804V10.1109V12.5948C2.44873 12.9538 2.73975 13.2448 3.09873 13.2448C3.45772 13.2448 3.74873 12.9538 3.74873 12.5948V10.1109V8.66804H18.7404V9.47668C18.7404 9.83567 19.0314 10.1267 19.3904 10.1267C19.7494 10.1267 20.0404 9.83567 20.0404 9.47668V8.01804V7.14304C20.0404 5.67949 18.8539 4.49304 17.3904 4.49304H16.846V3.91318C16.846 3.15724 16.2331 2.54443 15.4772 2.54443C14.7213 2.54443 14.1085 3.15724 14.1085 3.91318V4.49304H11.2446H7.86956V3.91318C7.86956 3.15724 7.25675 2.54443 6.50081 2.54443C5.74487 2.54443 5.13206 3.15724 5.13206 3.91318ZM15.4085 4.49304H15.546V3.91318C15.546 3.87521 15.5152 3.84443 15.4772 3.84443C15.4392 3.84443 15.4085 3.87521 15.4085 3.91318V4.49304ZM3.74873 7.14304C3.74873 6.39746 4.35315 5.79304 5.09873 5.79304H11.2446H15.3175H17.3904C18.136 5.79304 18.7404 6.39746 18.7404 7.14304V7.36804H3.74873V7.14304ZM20.0404 11.6435C20.0404 11.2845 19.7494 10.9935 19.3904 10.9935C19.0314 10.9935 18.7404 11.2845 18.7404 11.6435V13.8103V15.2901V17.518C18.7404 18.2636 18.136 18.868 17.3904 18.868H5.09873C4.35315 18.868 3.74873 18.2636 3.74873 17.518V17.2984V15.0787C3.74873 14.7197 3.45772 14.4287 3.09873 14.4287C2.73975 14.4287 2.44873 14.7197 2.44873 15.0787V17.2984V17.518C2.44873 18.9816 3.63518 20.168 5.09873 20.168H17.3904C18.854 20.168 20.0404 18.9816 20.0404 17.518V15.2901V13.8103V11.6435Z" fill="#252323"/>
</g>
<defs>
<clipPath id="clip0_609_5310">
<rect width="23" height="23" fill="white"/>
</clipPath>
</defs>
</svg>
