<svg width="18" height="18" viewBox="0 0 18 18" fill="none" xmlns="http://www.w3.org/2000/svg">
<g clip-path="url(#clip0_609_5382)">
<path d="M2.625 7.375C2.625 6.82272 3.07272 6.375 3.625 6.375H14.375C14.9273 6.375 15.375 6.82272 15.375 7.375V14.375C15.375 14.9273 14.9273 15.375 14.375 15.375H3.625C3.07272 15.375 2.625 14.9273 2.625 14.375V7.375Z" fill="#E05149"/>
<path fill-rule="evenodd" clip-rule="evenodd" d="M6.625 3.3125V3.75H9H11.375V3.3125C11.375 2.65666 11.9067 2.125 12.5625 2.125C13.2183 2.125 13.75 2.65666 13.75 3.3125V3.75H14.375C15.2725 3.75 16 4.47754 16 5.375V6.625V7.76654C16 8.11172 15.7202 8.39154 15.375 8.39154C15.0298 8.39154 14.75 8.11172 14.75 7.76654V7.25H3.25V8.26287V10.2068C3.25 10.552 2.97018 10.8318 2.625 10.8318C2.27982 10.8318 2 10.552 2 10.2068V8.26287V6.625V5.375C2 4.47754 2.72754 3.75 3.625 3.75H4.25V3.3125C4.25 2.65666 4.78166 2.125 5.4375 2.125C6.09334 2.125 6.625 2.65666 6.625 3.3125ZM3.25 5.375C3.25 5.16789 3.41789 5 3.625 5H9H12.1875H14.375C14.5821 5 14.75 5.16789 14.75 5.375V6H3.25V5.375ZM16 9.46232C16 9.11714 15.7202 8.83732 15.375 8.83732C15.0298 8.83732 14.75 9.11714 14.75 9.46232V11.1581V12.3162V13.625C14.75 14.3844 14.1344 15 13.375 15H4.36213C3.74792 15 3.25 14.5021 3.25 13.8879V12.1507C3.25 11.8056 2.97018 11.5257 2.625 11.5257C2.27982 11.5257 2 11.8056 2 12.1507V13.8879C2 15.1924 3.05756 16.25 4.36213 16.25H13.375C14.8247 16.25 16 15.0747 16 13.625V12.3162V11.1581V9.46232Z" fill="#252323"/>
</g>
<defs>
<clipPath id="clip0_609_5382">
<rect width="18" height="18" fill="white"/>
</clipPath>
</defs>
</svg>
