<svg width="28" height="28" viewBox="0 0 28 28" fill="none" xmlns="http://www.w3.org/2000/svg">
<g clip-path="url(#clip0_609_5291)">
<path fill-rule="evenodd" clip-rule="evenodd" d="M7.29166 4.48267C7.22262 4.48267 7.16666 4.53863 7.16666 4.60767V5.23036H7.41666V4.60767C7.41666 4.53863 7.36069 4.48267 7.29166 4.48267ZM5.66666 4.60767V5.26171C4.34556 5.46247 3.33325 6.60319 3.33325 7.98036V9.48036V12.0281V15.052C3.33325 15.4663 3.66904 15.802 4.08325 15.802C4.49747 15.802 4.83325 15.4663 4.83325 15.052V12.0281V10.2304H23.1666V11.2561C23.1666 11.6703 23.5024 12.0061 23.9166 12.0061C24.3308 12.0061 24.6666 11.6703 24.6666 11.2561V9.48036V7.98036C24.6666 6.60326 23.6544 5.46258 22.3334 5.26173V4.60767C22.3334 3.7102 21.6058 2.98267 20.7084 2.98267C19.8109 2.98267 19.0834 3.7102 19.0834 4.60767V5.23036H18.9583H13.9999H8.91666V4.60767C8.91666 3.7102 8.18912 2.98267 7.29166 2.98267C6.39419 2.98267 5.66666 3.7102 5.66666 4.60767ZM20.5834 5.23036H20.8334V4.60767C20.8334 4.53863 20.7774 4.48267 20.7084 4.48267C20.6393 4.48267 20.5834 4.53863 20.5834 4.60767V5.23036ZM4.83325 7.98036C4.83325 7.29 5.3929 6.73036 6.08325 6.73036H13.9999H18.9583H21.9166C22.6069 6.73036 23.1666 7.29 23.1666 7.98036V8.73036H4.83325V7.98036ZM24.6666 13.894C24.6666 13.4797 24.3308 13.144 23.9166 13.144C23.5024 13.144 23.1666 13.4797 23.1666 13.894V16.5318V18.3333V21.4804C23.1666 22.1707 22.6069 22.7304 21.9166 22.7304H6.08325C5.3929 22.7304 4.83325 22.1707 4.83325 21.4804V20.7781V18.0759C4.83325 17.6617 4.49747 17.3259 4.08325 17.3259C3.66904 17.3259 3.33325 17.6617 3.33325 18.0759V20.7781V21.4804C3.33325 22.9991 4.56447 24.2304 6.08325 24.2304H21.9166C23.4354 24.2304 24.6666 22.9991 24.6666 21.4804V18.3333V16.5318V13.894Z" fill="#332A2A"/>
</g>
<defs>
<clipPath id="clip0_609_5291">
<rect width="28" height="28" fill="white"/>
</clipPath>
</defs>
</svg>
