<svg width="18" height="18" viewBox="0 0 18 18" fill="none" xmlns="http://www.w3.org/2000/svg">
<g clip-path="url(#clip0_609_5382)">
<path d="M2.625 7.375C2.625 6.82272 3.07272 6.375 3.625 6.375H14.375C14.9273 6.375 15.375 6.82272 15.375 7.375V14.375C15.375 14.9273 14.9273 15.375 14.375 15.375H3.625C3.07272 15.375 2.625 14.9273 2.625 14.375V7.375Z" fill="#E05149"/>
<path d="M15.5 8.96191C15.845 8.96191 16.1248 9.24192 16.125 9.58691V13.75C16.125 15.1997 14.9497 16.375 13.5 16.375H4.4873C3.18274 16.375 2.125 15.3173 2.125 14.0127V12.2754C2.12519 11.9304 2.40494 11.6504 2.75 11.6504C3.09506 11.6504 3.37481 11.9304 3.375 12.2754V14.0127C3.375 14.6269 3.87309 15.125 4.4873 15.125H13.5C14.2594 15.125 14.875 14.5094 14.875 13.75V9.58691C14.8752 9.24192 15.155 8.96191 15.5 8.96191ZM12.6875 2.25C13.3433 2.25 13.875 2.78166 13.875 3.4375V3.875H14.5C15.3975 3.875 16.125 4.60254 16.125 5.5V7.8916C16.125 8.23675 15.8452 8.5166 15.5 8.5166C15.1548 8.5166 14.875 8.23675 14.875 7.8916V7.375H3.375V10.332C3.37488 10.6771 3.0951 10.957 2.75 10.957C2.4049 10.957 2.12512 10.6771 2.125 10.332V5.5C2.125 4.60254 2.85254 3.875 3.75 3.875H4.375V3.4375C4.375 2.78166 4.90666 2.25 5.5625 2.25C6.21834 2.25 6.75 2.78166 6.75 3.4375V3.875H11.5V3.4375C11.5 2.78166 12.0317 2.25 12.6875 2.25ZM3.75 5.125C3.54289 5.125 3.375 5.29289 3.375 5.5V6.125H14.875V5.5C14.875 5.29289 14.7071 5.125 14.5 5.125H3.75Z" fill="#332A2A"/>
</g>
<defs>
<clipPath id="clip0_609_5382">
<rect width="18" height="18" fill="white"/>
</clipPath>
</defs>
</svg>
