<svg width="44" height="44" viewBox="0 0 44 44" fill="none" xmlns="http://www.w3.org/2000/svg">
<g clip-path="url(#clip0_609_5263)">
<path fill-rule="evenodd" clip-rule="evenodd" d="M11.4585 7.50757C11.1133 7.50757 10.8335 7.78739 10.8335 8.13257V9.25814H12.0835V8.13257C12.0835 7.78739 11.8037 7.50757 11.4585 7.50757ZM9.33351 8.13257V9.25814H8.41675C6.89796 9.25814 5.66675 10.4894 5.66675 12.0081V15.5081V19.5118V24.2637C5.66675 24.6779 6.00253 25.0137 6.41675 25.0137C6.83096 25.0137 7.16675 24.6779 7.16675 24.2637V19.5118V16.2581H36.8334V18.2986C36.8334 18.7128 37.1692 19.0486 37.5834 19.0486C37.9976 19.0486 38.3334 18.7128 38.3334 18.2986V15.5081V12.0081C38.3334 10.4894 37.1022 9.25814 35.5834 9.25814H34.6668V8.13257C34.6668 6.95896 33.7154 6.00757 32.5418 6.00757C31.3682 6.00757 30.4168 6.95896 30.4168 8.13257V9.25814H29.7917H22.0001H13.5835V8.13257C13.5835 6.95896 12.6321 6.00757 11.4585 6.00757C10.2849 6.00757 9.33351 6.95896 9.33351 8.13257ZM31.9168 9.25814H33.1668V8.13257C33.1668 7.78739 32.887 7.50757 32.5418 7.50757C32.1966 7.50757 31.9168 7.78739 31.9168 8.13257V9.25814ZM7.16675 12.0081C7.16675 11.3178 7.72639 10.7581 8.41675 10.7581H22.0001H29.7917H35.5834C36.2738 10.7581 36.8334 11.3178 36.8334 12.0081V14.7581H7.16675V12.0081ZM38.3334 22.4438C38.3334 22.0296 37.9976 21.6938 37.5834 21.6938C37.1692 21.6938 36.8334 22.0296 36.8334 22.4438V26.589V29.4199V35.5081C36.8334 36.1985 36.2738 36.7581 35.5834 36.7581H8.41675C7.72639 36.7581 7.16675 36.1985 7.16675 35.5081V33.2618V29.0155C7.16675 28.6013 6.83096 28.2655 6.41675 28.2655C6.00253 28.2655 5.66675 28.6013 5.66675 29.0155V33.2618V35.5081C5.66675 37.0269 6.89796 38.2581 8.41675 38.2581H35.5834C37.1022 38.2581 38.3334 37.0269 38.3334 35.5081V29.4199V26.589V22.4438Z" fill="#332A2A"/>
</g>
<defs>
<clipPath id="clip0_609_5263">
<rect width="44" height="44" fill="white"/>
</clipPath>
</defs>
</svg>
