<svg width="23" height="23" viewBox="0 0 23 23" fill="none" xmlns="http://www.w3.org/2000/svg">
<g clip-path="url(#clip0_609_5310)">
<path d="M19.291 10.8936C19.6496 10.8937 19.94 11.1845 19.9404 11.543V17.418C19.9404 18.8814 18.7544 20.0682 17.291 20.0684H4.99902C3.53547 20.0684 2.34863 18.8815 2.34863 17.418V14.9785C2.34889 14.6198 2.6402 14.3291 2.99902 14.3291C3.35785 14.3291 3.64915 14.6198 3.64941 14.9785V17.418C3.64941 18.1636 4.25344 18.7676 4.99902 18.7676H17.291C18.0365 18.7674 18.6406 18.1634 18.6406 17.418V11.543C18.6411 11.1844 18.9323 10.8936 19.291 10.8936ZM15.3779 2.44434C16.1337 2.44457 16.7471 3.05768 16.7471 3.81348V4.39258H17.291C18.7543 4.39275 19.9402 5.57969 19.9404 7.04297V9.37695C19.9402 9.73567 19.6497 10.0262 19.291 10.0264C18.9321 10.0264 18.6408 9.73578 18.6406 9.37695V8.56836H3.64941V12.4951C3.6492 12.8539 3.35787 13.1445 2.99902 13.1445C2.64017 13.1445 2.34885 12.8539 2.34863 12.4951V7.04297C2.34883 5.57958 3.53559 4.39258 4.99902 4.39258H5.03223V3.81348C5.03223 3.05754 5.64543 2.44434 6.40137 2.44434C7.15719 2.44448 7.77051 3.05762 7.77051 3.81348V4.39258H14.0088V3.81348C14.0088 3.05754 14.622 2.44434 15.3779 2.44434ZM4.99902 5.69336C4.25356 5.69336 3.64961 6.29755 3.64941 7.04297V7.26758H18.6406V7.04297C18.6404 6.29766 18.0363 5.69354 17.291 5.69336H4.99902ZM15.3779 3.74512C15.34 3.74512 15.3096 3.77551 15.3096 3.81348V4.39258H15.4463V3.81348C15.4463 3.77565 15.4157 3.74535 15.3779 3.74512ZM6.40137 3.74512C6.3634 3.74512 6.33301 3.77551 6.33301 3.81348V4.39258H6.46973V3.81348C6.46973 3.77559 6.43922 3.74526 6.40137 3.74512Z" fill="#332A2A"/>
</g>
<defs>
<clipPath id="clip0_609_5310">
<rect width="23" height="23" fill="white"/>
</clipPath>
</defs>
</svg>
