<svg width="23" height="23" viewBox="0 0 23 23" fill="none" xmlns="http://www.w3.org/2000/svg">
<g clip-path="url(#clip0_666_7136)">
<path d="M2.32056 11.948C2.69335 11.948 2.99536 12.25 2.99536 12.6228V18.2117C2.99554 18.391 3.14117 18.5359 3.32056 18.5359H19.5286C19.7079 18.5359 19.8536 18.391 19.8538 18.2117V15.9167C19.8539 15.5442 20.156 15.2421 20.5286 15.2419C20.9012 15.2419 21.2042 15.5441 21.2043 15.9167V18.2117C21.2042 19.1366 20.4535 19.8865 19.5286 19.8865H3.32056C2.39559 19.8865 1.64593 19.1366 1.64575 18.2117V12.6228C1.64575 12.25 1.94776 11.948 2.32056 11.948ZM11.425 7.27612C14.1794 7.2763 16.4124 9.50902 16.4124 12.2634C16.4124 13.679 15.8217 14.958 14.8752 15.865C13.9801 16.7225 12.7631 17.2506 11.425 17.2507C8.67053 17.2507 6.43774 15.0179 6.43774 12.2634C6.43774 9.50891 8.67053 7.27612 11.425 7.27612ZM11.425 8.62573C9.41611 8.62573 7.78735 10.2545 7.78735 12.2634C7.78735 14.2724 9.41611 15.9011 11.425 15.9011C12.4014 15.901 13.2868 15.5168 13.9407 14.8904C14.6326 14.2274 15.0627 13.2962 15.0627 12.2634C15.0627 10.2546 13.4338 8.62591 11.425 8.62573ZM12.7815 2.96362C13.1305 2.96365 13.4711 3.07226 13.7551 3.27515L15.8118 4.74487C16.0796 4.42468 16.4828 4.22144 16.9329 4.22144H17.2415C17.9782 4.22163 18.6023 4.69806 18.8264 5.35913H19.5286C20.4535 5.35913 21.2042 6.10901 21.2043 7.03394V12.6228C21.2043 12.9956 20.9014 13.2976 20.5286 13.2976C20.1559 13.2974 19.8538 12.9955 19.8538 12.6228V7.03394C19.8536 6.85459 19.7079 6.70972 19.5286 6.70972H16.7766C16.4275 6.70972 16.087 6.60011 15.803 6.39722L12.97 4.37378C12.9149 4.33456 12.8491 4.31326 12.7815 4.31323H9.58911C9.52137 4.31323 9.45478 4.33441 9.39966 4.37378L6.56763 6.39722C6.28359 6.6001 5.94305 6.70969 5.59399 6.70972H3.32056C3.14117 6.70972 2.99554 6.85459 2.99536 7.03394V9.32886C2.99519 9.7015 2.69324 10.0037 2.32056 10.0037C1.94787 10.0037 1.64593 9.7015 1.64575 9.32886V7.03394C1.64593 6.10901 2.39559 5.35913 3.32056 5.35913H5.59399C5.66163 5.3591 5.72741 5.33787 5.78247 5.29858L8.61548 3.27515C8.89952 3.07233 9.24009 2.96362 9.58911 2.96362H12.7815ZM11.425 9.19312C11.8281 9.19316 12.2275 9.27233 12.5999 9.42651C12.9723 9.58083 13.3119 9.80748 13.5969 10.0925C13.8818 10.3775 14.1078 10.7164 14.262 11.0886C14.4161 11.461 14.4963 11.8604 14.4963 12.2634C14.4962 12.636 14.1931 12.939 13.8206 12.9392C13.448 12.939 13.1459 12.636 13.1458 12.2634C13.1457 12.0377 13.1012 11.8138 13.0149 11.6052C12.9285 11.3966 12.8015 11.2064 12.6418 11.0466C12.4822 10.887 12.2918 10.76 12.0833 10.6736C11.8747 10.5873 11.6508 10.5428 11.425 10.5427C11.0524 10.5427 10.7504 10.2406 10.7502 9.86792C10.7502 9.49513 11.0523 9.19312 11.425 9.19312Z" fill="#332A2A"/>
</g>
<defs>
<clipPath id="clip0_666_7136">
<rect width="23" height="23" fill="white"/>
</clipPath>
</defs>
</svg>
