<svg width="23" height="23" viewBox="0 0 23 23" fill="none" xmlns="http://www.w3.org/2000/svg">
<g clip-path="url(#clip0_666_7088)">
<path fill-rule="evenodd" clip-rule="evenodd" d="M9.0829 4.01952L6.25028 6.04282C6.08067 6.16396 5.87746 6.22909 5.66904 6.22909H3.39575C2.84347 6.22909 2.39575 6.6768 2.39575 7.22909V9.52336V12.8176V18.4062C2.39575 18.9585 2.84347 19.4062 3.39575 19.4062H19.6041C20.1564 19.4062 20.6041 18.9585 20.6041 18.4062V16.1119V12.8176V7.22908C20.6041 6.6768 20.1564 6.22909 19.6041 6.22909H16.8516C16.6432 6.22909 16.44 6.16396 16.2704 6.04282L13.4378 4.01952C13.2682 3.89838 13.065 3.83325 12.8565 3.83325H9.66413C9.45571 3.83325 9.2525 3.89838 9.0829 4.01952ZM14.4827 15.5728C15.3022 14.7878 15.8124 13.6826 15.8124 12.4583C15.8124 10.0765 13.8816 8.14575 11.4999 8.14575C9.11819 8.14575 7.18742 10.0765 7.18742 12.4583C7.18742 14.84 9.11819 16.7708 11.4999 16.7708C12.6573 16.7708 13.7081 16.3148 14.4827 15.5728Z" fill="#E05149"/>
<path fill-rule="evenodd" clip-rule="evenodd" d="M9.47543 4.44911C9.53055 4.40974 9.59659 4.38857 9.66433 4.38857H12.8567C12.9245 4.38857 12.9905 4.40974 13.0456 4.44911L15.8783 6.47241C16.1623 6.67533 16.5027 6.78441 16.8518 6.78441H19.6043C19.7838 6.78441 19.9293 6.92991 19.9293 7.10941V12.6979C19.9293 13.0707 20.2315 13.3729 20.6043 13.3729C20.9771 13.3729 21.2793 13.0707 21.2793 12.6979V7.10941C21.2793 6.18433 20.5294 5.43441 19.6043 5.43441H18.9034C18.6796 4.77279 18.0536 4.29654 17.3164 4.29654H17.0081C16.5581 4.29654 16.1556 4.50013 15.8878 4.82022L13.8303 3.35057C13.5462 3.14766 13.2058 3.03857 12.8567 3.03857H9.66433C9.31522 3.03857 8.97484 3.14766 8.69076 3.35057L5.85814 5.37387C5.80301 5.41324 5.73697 5.43441 5.66923 5.43441H3.39595C2.47087 5.43441 1.72095 6.18433 1.72095 7.10941V9.40368C1.72095 9.77647 2.02316 10.0787 2.39595 10.0787C2.76874 10.0787 3.07095 9.77647 3.07095 9.40368V7.10941C3.07095 6.92992 3.21645 6.78441 3.39595 6.78441H5.66923C6.01834 6.78441 6.35873 6.67533 6.64281 6.47241L9.47543 4.44911ZM3.07095 12.6979C3.07095 12.3252 2.76874 12.0229 2.39595 12.0229C2.02316 12.0229 1.72095 12.3252 1.72095 12.6979V18.2865C1.72095 19.2116 2.47087 19.9615 3.39595 19.9615H19.6043C20.5294 19.9615 21.2793 19.2116 21.2793 18.2865V15.9922C21.2793 15.6194 20.9771 15.3172 20.6043 15.3172C20.2315 15.3172 19.9293 15.6194 19.9293 15.9922V18.2865C19.9293 18.466 19.7838 18.6115 19.6043 18.6115H3.39595C3.21645 18.6115 3.07095 18.466 3.07095 18.2865V12.6979ZM7.86261 12.3386C7.86261 10.3296 9.49118 8.70107 11.5001 8.70107C13.509 8.70107 15.1376 10.3296 15.1376 12.3386C15.1376 13.3714 14.708 14.3028 14.016 14.9657C13.362 15.5922 12.4766 15.9761 11.5001 15.9761C9.49118 15.9761 7.86261 14.3475 7.86261 12.3386ZM11.5001 7.35107C8.74559 7.35107 6.51261 9.58405 6.51261 12.3386C6.51261 15.0931 8.74559 17.3261 11.5001 17.3261C12.8383 17.3261 14.0547 16.7981 14.9498 15.9406C15.8967 15.0336 16.4876 13.7545 16.4876 12.3386C16.4876 9.58405 14.2546 7.35107 11.5001 7.35107ZM10.8251 9.94274C10.8251 9.56995 11.1273 9.26774 11.5001 9.26774C11.9034 9.26774 12.3027 9.34717 12.6753 9.50149C13.0478 9.65582 13.3864 9.88201 13.6715 10.1672C13.9567 10.4523 14.1829 10.7908 14.3372 11.1634C14.4915 11.536 14.5709 11.9353 14.5709 12.3386C14.5709 12.7114 14.2687 13.0136 13.8959 13.0136C13.5232 13.0136 13.2209 12.7114 13.2209 12.3386C13.2209 12.1126 13.1764 11.8888 13.09 11.68C13.0035 11.4713 12.8767 11.2816 12.7169 11.1218C12.5571 10.962 12.3674 10.8352 12.1586 10.7487C11.9499 10.6623 11.7261 10.6177 11.5001 10.6177C11.1273 10.6177 10.8251 10.3155 10.8251 9.94274Z" fill="#252323"/>
</g>
<defs>
<clipPath id="clip0_666_7088">
<rect width="23" height="23" fill="white"/>
</clipPath>
</defs>
</svg>
