<svg width="44" height="44" viewBox="0 0 44 44" fill="none" xmlns="http://www.w3.org/2000/svg">
<g clip-path="url(#clip0_311_1373)">
<path d="M24.8879 7.33325C25.0963 7.33328 25.2994 7.39866 25.469 7.51978L31.3645 11.7307C31.534 11.8517 31.7373 11.9163 31.9456 11.9163H38.4163C38.9684 11.9163 39.4161 12.3641 39.4163 12.9163V36.1252C39.4161 36.6774 38.9684 37.1252 38.4163 37.1252H5.58325C5.03108 37.1252 4.58343 36.6774 4.58325 36.1252V12.9163C4.58343 12.3641 5.03108 11.9163 5.58325 11.9163H11.1379C11.3462 11.9162 11.5495 11.8517 11.719 11.7307L17.6145 7.51978C17.7841 7.39868 17.9872 7.33325 18.1956 7.33325H24.8879ZM22.0002 15.5833C17.4439 15.5833 13.7502 19.2769 13.7502 23.8333C13.7502 28.3896 17.4439 32.0833 22.0002 32.0833C24.2142 32.0832 26.2246 31.2107 27.7063 29.7913C29.2738 28.2895 30.2502 26.1754 30.2502 23.8333C30.2502 19.277 26.5564 15.5834 22.0002 15.5833Z" fill="#E05149"/>
<path d="M4.58325 23.5417C4.99747 23.5417 5.33325 23.8775 5.33325 24.2917V35.8962C5.33343 36.0342 5.44529 36.1462 5.58325 36.1462H38.4163C38.5542 36.1462 38.6661 36.0342 38.6663 35.8962V30.5935C38.6664 30.1795 39.0023 29.8437 39.4163 29.8435C39.8304 29.8435 40.1661 30.1794 40.1663 30.5935V35.8962C40.1661 36.8626 39.3827 37.6462 38.4163 37.6462H5.58325C4.61686 37.6462 3.83343 36.8626 3.83325 35.8962V24.2917C3.83325 23.8775 4.16904 23.5417 4.58325 23.5417ZM22.0002 14.6042C26.9707 14.6044 31.0002 18.6338 31.0002 23.6042C31.0002 26.1593 29.934 28.4669 28.2249 30.1042C26.6091 31.6519 24.415 32.6042 22.0002 32.6042C17.0297 32.6042 13.0002 28.5748 13.0002 23.6042C13.0002 18.6337 17.0297 14.6042 22.0002 14.6042ZM22.0002 16.1042C17.8581 16.1042 14.5002 19.4621 14.5002 23.6042C14.5002 27.7464 17.8581 31.1042 22.0002 31.1042C24.0132 31.1042 25.84 30.3123 27.1877 29.0212C28.6138 27.6551 29.5002 25.7336 29.5002 23.6042C29.5002 19.4622 26.1422 16.1044 22.0002 16.1042ZM24.8879 6.35425C25.2526 6.35428 25.6078 6.46853 25.9045 6.68042L30.3997 9.89136C30.6499 9.23088 31.2872 8.7605 32.0354 8.7605H34.0403C35.0064 8.76079 35.7901 9.54432 35.7903 10.5105V10.9373H38.4163C39.3827 10.9373 40.1661 11.7209 40.1663 12.6873V24.2917C40.1663 24.706 39.8305 25.0417 39.4163 25.0417C39.0022 25.0416 38.6663 24.7059 38.6663 24.2917V12.6873C38.6661 12.5493 38.5542 12.4373 38.4163 12.4373H31.9456C31.5808 12.4373 31.2248 12.324 30.928 12.1121L25.0334 7.90112C24.9911 7.87087 24.94 7.85428 24.8879 7.85425H18.1956C18.1435 7.85425 18.0924 7.87084 18.05 7.90112L12.1545 12.1121C11.8579 12.3238 11.5024 12.4372 11.1379 12.4373H5.58325C5.44529 12.4373 5.33343 12.5493 5.33325 12.6873V17.99C5.33308 18.4041 4.99736 18.74 4.58325 18.74C4.16915 18.74 3.83343 18.4041 3.83325 17.99V12.6873C3.83343 11.7209 4.61686 10.9373 5.58325 10.9373H11.1379C11.19 10.9372 11.2411 10.9216 11.2834 10.8914L17.178 6.68042C17.4748 6.46842 17.8308 6.35425 18.1956 6.35425H24.8879ZM22.0002 18.2712C22.7005 18.2713 23.3943 18.4095 24.0413 18.6775C24.6881 18.9455 25.2766 19.3386 25.7717 19.8337C26.2666 20.3288 26.6601 20.9165 26.928 21.5632C27.1959 22.2101 27.3332 22.9041 27.3333 23.6042C27.3331 24.0182 26.9972 24.3541 26.5833 24.3542C26.1693 24.3541 25.8334 24.0182 25.8333 23.6042C25.8332 23.1011 25.7347 22.6023 25.5422 22.1375C25.3497 21.6727 25.0668 21.2501 24.7112 20.8943C24.3553 20.5384 23.932 20.2559 23.467 20.0632C23.0021 19.8706 22.5035 19.7713 22.0002 19.7712C21.5861 19.7712 21.2504 19.4353 21.2502 19.0212C21.2502 18.607 21.586 18.2712 22.0002 18.2712ZM32.0354 10.2605C31.8974 10.2605 31.7856 10.3726 31.7854 10.5105V10.8806L31.8 10.8914C31.8424 10.9216 31.8935 10.9373 31.9456 10.9373H34.2903V10.5105C34.2901 10.3727 34.178 10.2608 34.0403 10.2605H32.0354Z" fill="#332A2A"/>
</g>
<defs>
<clipPath id="clip0_311_1373">
<rect width="44" height="44" fill="white"/>
</clipPath>
</defs>
</svg>
