<svg width="44" height="44" viewBox="0 0 44 44" fill="none" xmlns="http://www.w3.org/2000/svg">
<g clip-path="url(#clip0_666_7134)">
<path fill-rule="evenodd" clip-rule="evenodd" d="M18.0501 7.90081C18.0925 7.87053 18.1433 7.85425 18.1954 7.85425H24.8878C24.9399 7.85425 24.9907 7.87053 25.0331 7.90081L30.9282 12.1116C31.225 12.3236 31.5806 12.4376 31.9454 12.4376H38.4166C38.5547 12.4376 38.6666 12.5495 38.6666 12.6876V24.2917C38.6666 24.706 39.0024 25.0417 39.4166 25.0417C39.8308 25.0417 40.1666 24.706 40.1666 24.2917V12.6876C40.1666 11.7211 39.3831 10.9376 38.4166 10.9376H35.7897V10.5108C35.7897 9.54429 35.0062 8.76079 34.0397 8.76079H32.0352C31.2873 8.76079 30.649 9.2299 30.3985 9.88991L25.905 6.68021C25.6082 6.46821 25.2525 6.35425 24.8878 6.35425H18.1954C17.8306 6.35425 17.475 6.46821 17.1782 6.68021L11.2831 10.891C11.2407 10.9213 11.1899 10.9376 11.1378 10.9376H5.58325C4.61675 10.9376 3.83325 11.7211 3.83325 12.6876V17.9897C3.83325 18.4039 4.16904 18.7397 4.58325 18.7397C4.99747 18.7397 5.33325 18.4039 5.33325 17.9897V12.6876C5.33325 12.5495 5.44518 12.4376 5.58325 12.4376H11.1378C11.5025 12.4376 11.8582 12.3236 12.155 12.1116L18.0501 7.90081ZM31.7852 10.8804L31.8001 10.891C31.8425 10.9213 31.8933 10.9376 31.9454 10.9376H34.2897V10.5108C34.2897 10.3727 34.1778 10.2608 34.0397 10.2608H32.0352C31.8971 10.2608 31.7852 10.3727 31.7852 10.5108V10.8804ZM5.33325 24.2917C5.33325 23.8775 4.99747 23.5417 4.58325 23.5417C4.16904 23.5417 3.83325 23.8775 3.83325 24.2917V35.8959C3.83325 36.8624 4.61675 37.6459 5.58325 37.6459H38.4166C39.3831 37.6459 40.1666 36.8624 40.1666 35.8959V30.5938C40.1666 30.1796 39.8308 29.8438 39.4166 29.8438C39.0024 29.8438 38.6666 30.1796 38.6666 30.5938V35.8959C38.6666 36.034 38.5547 36.1459 38.4166 36.1459H5.58325C5.44518 36.1459 5.33325 36.034 5.33325 35.8959V24.2917ZM14.4999 23.6042C14.4999 19.4621 17.8578 16.1042 21.9999 16.1042C26.1421 16.1042 29.4999 19.4621 29.4999 23.6042C29.4999 25.7337 28.6134 27.6549 27.1873 29.021C25.8395 30.3121 24.013 31.1042 21.9999 31.1042C17.8578 31.1042 14.4999 27.7464 14.4999 23.6042ZM21.9999 14.6042C17.0294 14.6042 12.9999 18.6337 12.9999 23.6042C12.9999 28.5748 17.0294 32.6042 21.9999 32.6042C24.4149 32.6042 26.6091 31.6521 28.225 30.1042C29.9342 28.4669 30.9999 26.1594 30.9999 23.6042C30.9999 18.6337 26.9705 14.6042 21.9999 14.6042ZM21.2499 19.0209C21.2499 18.6067 21.5857 18.2709 21.9999 18.2709C22.7003 18.2709 23.3938 18.4089 24.0409 18.6769C24.688 18.9449 25.2759 19.3378 25.7712 19.833C26.2664 20.3283 26.6593 20.9162 26.9273 21.5633C27.1953 22.2103 27.3333 22.9039 27.3333 23.6042C27.3333 24.0185 26.9975 24.3542 26.5833 24.3542C26.169 24.3542 25.8333 24.0185 25.8333 23.6042C25.8333 23.1008 25.7341 22.6024 25.5415 22.1373C25.3488 21.6722 25.0665 21.2496 24.7105 20.8937C24.3545 20.5377 23.932 20.2554 23.4669 20.0627C23.0018 19.8701 22.5033 19.7709 21.9999 19.7709C21.5857 19.7709 21.2499 19.4351 21.2499 19.0209Z" fill="#252323"/>
</g>
<defs>
<clipPath id="clip0_666_7134">
<rect width="44" height="44" fill="white"/>
</clipPath>
</defs>
</svg>
