<svg width="18" height="18" viewBox="0 0 18 18" fill="none" xmlns="http://www.w3.org/2000/svg">
<g clip-path="url(#clip0_666_7098)">
<path fill-rule="evenodd" clip-rule="evenodd" d="M7.05173 3.18627L4.94827 4.68873C4.77867 4.80988 4.57546 4.875 4.36703 4.875H2.875C2.32272 4.875 1.875 5.32272 1.875 5.875V7.45312V10.0312V14.1875C1.875 14.7398 2.32272 15.1875 2.875 15.1875H15.125C15.6773 15.1875 16.125 14.7398 16.125 14.1875V12.6094V10.0312V5.875C16.125 5.32272 15.6773 4.875 15.125 4.875H13.258C13.0495 4.875 12.8463 4.80988 12.6767 4.68873L10.5733 3.18627C10.4037 3.06512 10.2005 3 9.99203 3H7.63297C7.42454 3 7.22133 3.06512 7.05173 3.18627ZM11.3344 12.1875C11.9757 11.5732 12.375 10.7082 12.375 9.75C12.375 7.88604 10.864 6.375 9 6.375C7.13604 6.375 5.625 7.88604 5.625 9.75C5.625 11.614 7.13604 13.125 9 13.125C9.90575 13.125 10.7282 12.7682 11.3344 12.1875Z" fill="#E05149"/>
<path fill-rule="evenodd" clip-rule="evenodd" d="M7.63297 3.53125C7.55481 3.53125 7.4786 3.55567 7.415 3.6011L5.31155 5.10357C5.03595 5.30042 4.70572 5.40625 4.36703 5.40625H2.875C2.66789 5.40625 2.5 5.57414 2.5 5.78125V7.35937C2.5 7.70455 2.22018 7.98437 1.875 7.98437C1.52982 7.98437 1.25 7.70455 1.25 7.35937V5.78125C1.25 4.88379 1.97754 4.15625 2.875 4.15625H4.36703C4.44519 4.15625 4.5214 4.13183 4.585 4.0864L6.68845 2.58393C6.96405 2.38708 7.29428 2.28125 7.63297 2.28125H9.99203C10.3307 2.28125 10.6609 2.38708 10.9365 2.58393L12.4198 3.64341C12.6451 3.41053 12.9609 3.26575 13.3106 3.26575H13.5154C14.1168 3.26575 14.6324 3.63341 14.8496 4.15625H15.125C16.0225 4.15625 16.75 4.88379 16.75 5.78125V9.9375C16.75 10.2827 16.4702 10.5625 16.125 10.5625C15.7798 10.5625 15.5 10.2827 15.5 9.9375V5.78125C15.5 5.57414 15.3321 5.40625 15.125 5.40625H13.258C12.9193 5.40625 12.5891 5.30042 12.3135 5.10357L10.21 3.6011C10.1464 3.55567 10.0702 3.53125 9.99203 3.53125H7.63297ZM1.875 9.3125C2.22018 9.3125 2.5 9.59232 2.5 9.9375V14.0937C2.5 14.3009 2.66789 14.4687 2.875 14.4687H15.125C15.3321 14.4687 15.5 14.3009 15.5 14.0937V12.5156C15.5 12.1704 15.7798 11.8906 16.125 11.8906C16.4702 11.8906 16.75 12.1704 16.75 12.5156V14.0937C16.75 14.9912 16.0225 15.7187 15.125 15.7187H2.875C1.97754 15.7187 1.25 14.9912 1.25 14.0937V9.9375C1.25 9.59232 1.52982 9.3125 1.875 9.3125ZM9 6.90625C7.48122 6.90625 6.25 8.13747 6.25 9.65625C6.25 11.175 7.48122 12.4062 9 12.4062C9.73828 12.4062 10.4075 12.1161 10.902 11.6424C11.4254 11.1411 11.75 10.4371 11.75 9.65625C11.75 8.13747 10.5188 6.90625 9 6.90625ZM5 9.65625C5 7.44711 6.79086 5.65625 9 5.65625C11.2091 5.65625 13 7.44711 13 9.65625C13 10.7918 12.526 11.8177 11.7667 12.5451C11.0488 13.2328 10.0732 13.6562 9 13.6562C6.79086 13.6562 5 11.8654 5 9.65625Z" fill="#252323"/>
</g>
<defs>
<clipPath id="clip0_666_7098">
<rect width="18" height="18" fill="white"/>
</clipPath>
</defs>
</svg>
