<svg width="28" height="28" viewBox="0 0 28 28" fill="none" xmlns="http://www.w3.org/2000/svg">
<g clip-path="url(#clip0_666_7135)">
<path fill-rule="evenodd" clip-rule="evenodd" d="M11.5502 5.31732C11.5926 5.28703 11.6434 5.27075 11.6955 5.27075H15.7213C15.7734 5.27075 15.8242 5.28703 15.8666 5.31732L19.4284 7.86145C19.7252 8.07345 20.0808 8.18742 20.4455 8.18742H24.0834C24.2215 8.18742 24.3334 8.29935 24.3334 8.43742V15.4583C24.3334 15.8725 24.6692 16.2083 25.0834 16.2083C25.4976 16.2083 25.8334 15.8725 25.8334 15.4583V8.43742C25.8334 7.47092 25.0499 6.68742 24.0834 6.68742H23.0101C22.8423 5.896 22.1396 5.30219 21.2981 5.30219H20.7054C20.1559 5.30219 19.667 5.56211 19.3551 5.96573L16.7385 4.09672C16.4416 3.88472 16.086 3.77075 15.7213 3.77075H11.6955C11.3308 3.77075 10.9752 3.88472 10.6784 4.09672L7.11659 6.64085C7.07419 6.67114 7.02339 6.68742 6.97128 6.68742H3.91675C2.95025 6.68742 2.16675 7.47092 2.16675 8.43742V11.4478C2.16675 11.862 2.50253 12.1978 2.91675 12.1978C3.33096 12.1978 3.66675 11.862 3.66675 11.4478V8.43742C3.66675 8.29935 3.77868 8.18742 3.91675 8.18742H6.97128C7.33602 8.18742 7.69165 8.07345 7.98845 7.86145L11.5502 5.31732ZM3.66675 15.4583C3.66675 15.044 3.33096 14.7083 2.91675 14.7083C2.50253 14.7083 2.16675 15.044 2.16675 15.4583V22.4791C2.16675 23.4456 2.95025 24.2291 3.91675 24.2291H24.0834C25.0499 24.2291 25.8334 23.4456 25.8334 22.4791V19.4687C25.8334 19.0545 25.4976 18.7187 25.0834 18.7187C24.6692 18.7187 24.3334 19.0545 24.3334 19.4687V22.4791C24.3334 22.6172 24.2215 22.7291 24.0834 22.7291H3.91675C3.77868 22.7291 3.66675 22.6172 3.66675 22.4791V15.4583ZM9.50008 15.0208C9.50008 12.5355 11.5148 10.5208 14.0001 10.5208C16.4854 10.5208 18.5001 12.5355 18.5001 15.0208C18.5001 16.2985 17.9685 17.4508 17.1125 18.2708C16.3035 19.0458 15.2081 19.5208 14.0001 19.5208C11.5148 19.5208 9.50008 17.506 9.50008 15.0208ZM14.0001 9.02075C10.6864 9.02075 8.00008 11.707 8.00008 15.0208C8.00008 18.3345 10.6864 21.0208 14.0001 21.0208C15.61 21.0208 17.0731 20.3857 18.1501 19.354C19.2893 18.2628 20.0001 16.7241 20.0001 15.0208C20.0001 11.707 17.3138 9.02075 14.0001 9.02075ZM13.2501 12.1041C13.2501 11.6899 13.5859 11.3541 14.0001 11.3541C14.4816 11.3541 14.9584 11.4489 15.4033 11.6332C15.8481 11.8175 16.2523 12.0875 16.5928 12.428C16.9333 12.7685 17.2034 13.1727 17.3876 13.6176C17.5719 14.0624 17.6667 14.5392 17.6667 15.0208C17.6667 15.435 17.331 15.7708 16.9167 15.7708C16.5025 15.7708 16.1667 15.435 16.1667 15.0208C16.1667 14.7362 16.1107 14.4545 16.0018 14.1916C15.8929 13.9287 15.7333 13.6899 15.5321 13.4887C15.331 13.2875 15.0921 13.1279 14.8292 13.019C14.5664 12.9101 14.2846 12.8541 14.0001 12.8541C13.5859 12.8541 13.2501 12.5183 13.2501 12.1041Z" fill="#332A2A"/>
</g>
<defs>
<clipPath id="clip0_666_7135">
<rect width="28" height="28" fill="white"/>
</clipPath>
</defs>
</svg>
