<svg width="23" height="23" viewBox="0 0 23 23" fill="none" xmlns="http://www.w3.org/2000/svg">
<g clip-path="url(#clip0_607_3249)">
<path d="M5.27075 6.46875H11.0208H20.6041L17.4895 13.8958H6.94784L5.27075 6.46875Z" fill="#E05149"/>
<path fill-rule="evenodd" clip-rule="evenodd" d="M2.28413 3.77166C1.91134 3.77166 1.60913 4.07387 1.60913 4.44666C1.60913 4.81945 1.91134 5.12166 2.28413 5.12166H4.31021L4.5587 6.2449L4.55869 6.2449L4.55966 6.24916L6.17917 13.3514L4.69594 15.1591C4.5304 15.3609 4.49599 15.64 4.60759 15.8759C4.71919 16.1118 4.95678 16.2623 5.21777 16.2623H17.1004L17.6053 17.2962C17.7689 17.6312 18.173 17.7701 18.508 17.6066C18.843 17.443 18.982 17.0388 18.8184 16.7038L18.1286 15.2911C18.0154 15.0593 17.78 14.9123 17.522 14.9123H6.64475L7.23011 14.1989H17.5313C17.8001 14.1989 18.0432 14.0394 18.1504 13.793L21.3423 6.44985C21.433 6.2412 21.4125 6.0009 21.2877 5.81064C21.163 5.62038 20.9508 5.50577 20.7232 5.50577H11.0528C10.68 5.50577 10.3778 5.80797 10.3778 6.18077C10.3778 6.55356 10.68 6.85577 11.0528 6.85577H19.6938L19.0456 8.34697L13.962 8.34696C13.5892 8.34696 13.287 8.64917 13.287 9.02197C13.287 9.39476 13.5892 9.69696 13.962 9.69697L18.4588 9.69697L17.0887 12.8489H7.44923L5.87683 5.95329L5.87636 5.95117L5.51127 4.30086C5.44288 3.99172 5.16881 3.77166 4.8522 3.77166H2.28413ZM8.45216 19.1667C9.11375 19.1667 9.65007 18.6303 9.65007 17.9688C9.65007 17.3072 9.11375 16.7708 8.45216 16.7708C7.79057 16.7708 7.25424 17.3072 7.25424 17.9688C7.25424 18.6303 7.79057 19.1667 8.45216 19.1667ZM16.0508 17.9688C16.0508 18.6303 15.5144 19.1667 14.8529 19.1667C14.1913 19.1667 13.6549 18.6303 13.6549 17.9688C13.6549 17.3072 14.1913 16.7708 14.8529 16.7708C15.5144 16.7708 16.0508 17.3072 16.0508 17.9688Z" fill="#252323"/>
</g>
<defs>
<clipPath id="clip0_607_3249">
<rect width="23" height="23" fill="white"/>
</clipPath>
</defs>
</svg>
