<svg width="28" height="28" viewBox="0 0 28 28" fill="none" xmlns="http://www.w3.org/2000/svg">
<g clip-path="url(#clip0_607_3287)">
<path fill-rule="evenodd" clip-rule="evenodd" d="M2.78076 4.96767C2.36655 4.96767 2.03076 5.30346 2.03076 5.71767C2.03076 6.13189 2.36655 6.46767 2.78076 6.46767H5.3049L5.61985 7.89134C5.70932 8.29578 6.10971 8.5511 6.51415 8.46163C6.91858 8.37216 7.17391 7.97177 7.08444 7.56733L6.63941 5.55567C6.56342 5.21219 6.2589 4.96767 5.90711 4.96767H2.78076ZM13.4557 7.07876C13.0415 7.07876 12.7057 7.41455 12.7057 7.82876C12.7057 8.24297 13.0415 8.57876 13.4557 8.57876H24.0846L23.2331 10.5376L16.9973 10.5376C16.5831 10.5376 16.2473 10.8734 16.2473 11.2876C16.2473 11.7018 16.5831 12.0376 16.9973 12.0376L22.5811 12.0376L20.8508 16.0182H9.01547L7.63281 9.7681C7.54334 9.36367 7.14295 9.10834 6.73851 9.19781C6.33408 9.28728 6.07875 9.68767 6.16822 10.0921L7.68096 16.9302C7.75694 17.2737 8.06146 17.5182 8.41325 17.5182H21.3426C21.6412 17.5182 21.9113 17.341 22.0304 17.0672L25.9162 8.12775C26.017 7.89591 25.9942 7.6289 25.8556 7.41751C25.7169 7.20611 25.4812 7.07876 25.2284 7.07876H13.4557ZM7.89824 18.4873C8.14912 18.1577 8.08532 17.6872 7.75573 17.4363C7.42614 17.1854 6.95557 17.2492 6.70469 17.5788L5.75537 18.8259C5.58272 19.0527 5.55357 19.3578 5.68013 19.6132C5.8067 19.8686 6.0671 20.0302 6.35215 20.0302H20.8628L21.4971 21.3291C21.6788 21.7013 22.1279 21.8557 22.5001 21.6739C22.8723 21.4922 23.0267 21.0431 22.8449 20.6709L22.0052 18.9511C21.8794 18.6935 21.6178 18.5302 21.3312 18.5302H7.86561L7.89824 18.4873ZM10.2897 23.3333C11.0951 23.3333 11.748 22.6804 11.748 21.875C11.748 21.0696 11.0951 20.4167 10.2897 20.4167C9.48425 20.4167 8.83133 21.0696 8.83133 21.875C8.83133 22.6804 9.48425 23.3333 10.2897 23.3333ZM19.5402 21.875C19.5402 22.6804 18.8872 23.3333 18.0818 23.3333C17.2764 23.3333 16.6235 22.6804 16.6235 21.875C16.6235 21.0696 17.2764 20.4167 18.0818 20.4167C18.8872 20.4167 19.5402 21.0696 19.5402 21.875Z" fill="#252323"/>
</g>
<defs>
<clipPath id="clip0_607_3287">
<rect width="28" height="28" fill="white"/>
</clipPath>
</defs>
</svg>
