<svg width="18" height="18" viewBox="0 0 18 18" fill="none" xmlns="http://www.w3.org/2000/svg">
<g clip-path="url(#clip0_607_3289)">
<path fill-rule="evenodd" clip-rule="evenodd" d="M1.7876 2.80065C1.44242 2.80065 1.1626 3.08047 1.1626 3.42565C1.1626 3.77083 1.44242 4.05065 1.7876 4.05065H3.29555L3.47324 4.85386L3.47323 4.85386L3.47413 4.85781L4.73103 10.3699L3.60032 11.7479C3.44703 11.9348 3.41518 12.1932 3.51851 12.4116C3.62184 12.6301 3.84184 12.7694 4.08349 12.7694H13.3225L13.6911 13.5242C13.8426 13.8344 14.2168 13.9631 14.527 13.8116C14.8372 13.6602 14.9658 13.2859 14.8144 12.9758L14.2745 11.8702C14.1697 11.6555 13.9517 11.5194 13.7129 11.5194H5.40477L5.70413 11.1546H13.7202C13.969 11.1546 14.1942 11.0069 14.2934 10.7787L16.7914 5.03193C16.8754 4.83873 16.8564 4.61623 16.7409 4.44006C16.6254 4.2639 16.4289 4.15777 16.2182 4.15777H8.65005C8.30487 4.15777 8.02505 4.4376 8.02505 4.78277C8.02505 5.12795 8.30487 5.40777 8.65005 5.40777H15.265L14.8418 6.38133L10.9268 6.38132C10.5816 6.38132 10.3018 6.66114 10.3018 7.00632C10.3018 7.3515 10.5816 7.63132 10.9268 7.63132L14.2985 7.63133L13.3104 9.90455H5.90701L4.69329 4.58188L4.40764 3.29064C4.34432 3.00441 4.09055 2.80065 3.79739 2.80065H1.7876ZM6.61475 15C7.13251 15 7.55225 14.5803 7.55225 14.0625C7.55225 13.5447 7.13251 13.125 6.61475 13.125C6.09698 13.125 5.67725 13.5447 5.67725 14.0625C5.67725 14.5803 6.09698 15 6.61475 15ZM12.5615 14.0625C12.5615 14.5803 12.1418 15 11.624 15C11.1062 15 10.6865 14.5803 10.6865 14.0625C10.6865 13.5447 11.1062 13.125 11.624 13.125C12.1418 13.125 12.5615 13.5447 12.5615 14.0625Z" fill="#252323"/>
</g>
<defs>
<clipPath id="clip0_607_3289">
<rect width="18" height="18" fill="white"/>
</clipPath>
</defs>
</svg>
