<svg width="44" height="44" viewBox="0 0 44 44" fill="none" xmlns="http://www.w3.org/2000/svg">
<g clip-path="url(#clip0_607_3286)">
<path fill-rule="evenodd" clip-rule="evenodd" d="M4.36963 8.23492C3.95542 8.23492 3.61963 8.5707 3.61963 8.98492C3.61963 9.39913 3.95542 9.73492 4.36963 9.73492H8.68025L9.24951 12.3081C9.33898 12.7125 9.73937 12.9679 10.1438 12.8784C10.5482 12.7889 10.8036 12.3885 10.7141 11.9841L10.0148 8.82291C9.93877 8.47943 9.63425 8.23492 9.28246 8.23492H4.36963ZM21.1445 11.5523C20.7303 11.5523 20.3945 11.8881 20.3945 12.3023C20.3945 12.7165 20.7303 13.0523 21.1445 13.0523H38.5006L36.79 16.9877L26.7099 16.9877C26.2957 16.9877 25.9599 17.3235 25.9599 17.7377C25.9599 18.1519 26.2957 18.4877 26.7099 18.4877L36.138 18.4877L33.0464 25.6H13.8229L11.5758 15.4424C11.4863 15.038 11.086 14.7827 10.6815 14.8722C10.2771 14.9616 10.0218 15.362 10.1112 15.7664L12.4884 26.512C12.5644 26.8555 12.8689 27.1 13.2207 27.1H33.5382C33.8368 27.1 34.1069 26.9229 34.226 26.649L40.3323 12.6013C40.433 12.3695 40.4103 12.1025 40.2716 11.8911C40.133 11.6797 39.8972 11.5523 39.6444 11.5523H21.1445ZM12.0704 28.7919C12.3212 28.4623 12.2574 27.9918 11.9279 27.7409C11.5983 27.49 11.1277 27.5538 10.8768 27.8834L9.38503 29.8431C9.21238 30.07 9.18323 30.375 9.30979 30.6304C9.43636 30.8858 9.69676 31.0474 9.9818 31.0474H33.0519L34.1661 33.3291C34.3478 33.7013 34.7969 33.8557 35.1691 33.6739C35.5413 33.4922 35.6957 33.0431 35.5139 32.6709L34.1943 29.9683C34.0685 29.7108 33.807 29.5474 33.5203 29.5474H11.4953L12.0704 28.7919ZM16.961 34.375C16.961 34.8122 16.6066 35.1667 16.1693 35.1667C15.7321 35.1667 15.3777 34.8122 15.3777 34.375C15.3777 33.9378 15.7321 33.5833 16.1693 33.5833C16.6066 33.5833 16.961 33.9378 16.961 34.375ZM18.461 34.375C18.461 35.6407 17.435 36.6667 16.1693 36.6667C14.9037 36.6667 13.8777 35.6407 13.8777 34.375C13.8777 33.1093 14.9037 32.0833 16.1693 32.0833C17.435 32.0833 18.461 33.1093 18.461 34.375ZM28.4141 35.1667C28.8514 35.1667 29.2058 34.8122 29.2058 34.375C29.2058 33.9378 28.8514 33.5833 28.4141 33.5833C27.9769 33.5833 27.6225 33.9378 27.6225 34.375C27.6225 34.8122 27.9769 35.1667 28.4141 35.1667ZM28.4141 36.6667C29.6798 36.6667 30.7058 35.6407 30.7058 34.375C30.7058 33.1093 29.6798 32.0833 28.4141 32.0833C27.1485 32.0833 26.1225 33.1093 26.1225 34.375C26.1225 35.6407 27.1485 36.6667 28.4141 36.6667Z" fill="#252323"/>
</g>
<defs>
<clipPath id="clip0_607_3286">
<rect width="44" height="44" fill="white"/>
</clipPath>
</defs>
</svg>
