<svg width="28" height="28" viewBox="0 0 28 28" fill="none" xmlns="http://www.w3.org/2000/svg">
<g clip-path="url(#clip0_2089_12933)">
<path fill-rule="evenodd" clip-rule="evenodd" d="M15.7125 1.95113C16.0847 1.7696 16.5338 1.92381 16.7155 2.29585L19.4391 7.87984C20.8313 8.04041 21.9666 9.04123 22.7389 10.3896C23.5897 11.8752 24.0826 13.8972 24.0827 16.1523C24.0827 17.5426 23.8129 19.1588 23.2721 20.6142C22.7367 22.0551 21.8983 23.4365 20.692 24.2353C19.5807 24.9712 18.3081 25.4215 17.3375 25.6875C16.8477 25.8216 16.4233 25.9119 16.1207 25.9687C15.9695 25.9971 15.8475 26.018 15.7623 26.0312C15.72 26.0378 15.6863 26.0425 15.6627 26.0459C15.6515 26.0474 15.6421 26.0479 15.6354 26.0488C15.0683 26.2772 14.4642 26.4062 13.8297 26.4062C11.9148 26.4061 10.266 25.264 9.12953 23.5927C7.99038 21.9174 7.31025 19.6441 7.3102 17.1709C7.31022 16.3935 7.38056 15.6377 7.50746 14.915C7.10577 14.1972 6.70437 13.4742 6.32387 12.7802C5.60729 11.4733 4.95368 10.2623 4.48012 9.37788C4.24339 8.9358 4.05152 8.57436 3.91859 8.32417C3.85224 8.19928 3.80037 8.10139 3.76527 8.03511C3.74791 8.00232 3.73425 7.97696 3.72523 7.95992C3.72083 7.95158 3.71682 7.94475 3.71449 7.94038C3.71354 7.93858 3.71301 7.93659 3.71254 7.9355L3.71156 7.93452V7.93355C3.51841 7.56755 3.65843 7.11447 4.02406 6.92085C4.39031 6.72748 4.8443 6.86716 5.03773 7.23335L5.03871 7.23531C5.03934 7.23639 5.04071 7.23843 5.04164 7.24019L5.09047 7.33296C5.12522 7.39859 5.17691 7.49602 5.24281 7.62007C5.37502 7.86892 5.56662 8.22862 5.80238 8.6689C6.27436 9.55032 6.92469 10.7579 7.63832 12.0595C9.07221 14.6748 10.7421 17.6355 11.7389 19.1308C11.9684 19.4753 11.8752 19.9411 11.5309 20.1709C11.1864 20.4003 10.7206 20.3072 10.4909 19.9628C10.0322 19.2749 9.4459 18.3015 8.8102 17.206C8.81669 19.4042 9.42686 21.3609 10.3707 22.749C11.3223 24.1482 12.5585 24.9061 13.8297 24.9062C15.101 24.9062 16.3381 24.1483 17.2897 22.749C18.2385 21.3535 18.8492 19.3832 18.8493 17.1709C18.8495 16.757 19.1854 16.4211 19.5993 16.4209C20.0133 16.4209 20.349 16.7568 20.3493 17.1709C20.3492 19.6442 19.6691 21.9174 18.5299 23.5927C18.4971 23.641 18.4611 23.6869 18.4274 23.7343C18.9186 23.5304 19.4127 23.284 19.8639 22.9853C20.694 22.4356 21.3831 21.3909 21.8659 20.0918C22.3432 18.8072 22.5827 17.3683 22.5827 16.1523C22.5826 14.0968 22.1305 12.3452 21.4371 11.1347C20.7368 9.912 19.8705 9.35448 19.0455 9.35445H17.3209C18.5568 10.464 19.4787 12.127 19.9567 13.9902C20.0594 14.3912 19.8175 14.8002 19.4166 14.9033C19.0157 15.0059 18.6066 14.7641 18.5036 14.3632C17.8371 11.7656 16.3559 10.0347 14.7252 9.56538L16.5455 13.4599L16.5631 13.499C18.2506 17.7184 16.0513 21.281 13.2877 21.4443C12.8748 21.4684 12.5196 21.1531 12.4948 20.7402C12.4703 20.3267 12.7864 19.9717 13.1998 19.9472C14.5698 19.8661 16.624 17.7021 15.1715 14.0625L10.112 3.23433C9.93669 2.85918 10.0992 2.4127 10.4743 2.23726C10.8494 2.06225 11.295 2.2245 11.4704 2.59956L13.9254 7.85445H17.7594L15.3678 2.95406C15.1862 2.58188 15.3405 2.13285 15.7125 1.95113ZM13.1246 13.25C13.8377 13.25 14.2817 13.8083 14.5026 14.25C14.7458 14.7365 14.8746 15.3565 14.8746 16C14.8746 16.6434 14.7458 17.2634 14.5026 17.75C14.2817 18.1916 13.8377 18.75 13.1246 18.75C12.4116 18.7499 11.9676 18.1915 11.7467 17.75C11.5035 17.2634 11.3746 16.6434 11.3746 16C11.3746 15.3565 11.5035 14.7365 11.7467 14.25C11.9676 13.8084 12.4116 13.25 13.1246 13.25ZM13.0885 14.9209C12.9699 15.1582 12.8746 15.5389 12.8746 16C12.8746 16.461 12.9699 16.8417 13.0885 17.0791C13.1008 17.1036 13.1137 17.1246 13.1246 17.1435C13.1356 17.1246 13.1485 17.1036 13.1608 17.0791C13.2795 16.8417 13.3746 16.4611 13.3746 16C13.3746 15.5389 13.2795 15.1582 13.1608 14.9209C13.1483 14.8959 13.1357 14.8745 13.1246 14.8554C13.1136 14.8745 13.101 14.8959 13.0885 14.9209Z" fill="#332A2A"/>
</g>
<defs>
<clipPath id="clip0_2089_12933">
<rect width="28" height="28" fill="white"/>
</clipPath>
</defs>
</svg>
