<svg width="44" height="44" viewBox="0 0 44 44" fill="none" xmlns="http://www.w3.org/2000/svg">
<g clip-path="url(#clip0_2089_12932)">
<path fill-rule="evenodd" clip-rule="evenodd" d="M24.8795 3.451C25.2516 3.26972 25.7008 3.42379 25.8825 3.79572L30.2682 12.784C32.3756 12.9282 34.1407 14.4086 35.361 16.5389C36.6531 18.7949 37.4166 21.8957 37.4166 25.3826C37.4166 27.5177 37.0013 30.0067 36.1696 32.2449C35.3433 34.4686 34.0688 36.5432 32.2809 37.7274C30.5876 38.8487 28.6355 39.5409 27.1315 39.9529C26.375 40.1602 25.7207 40.3 25.2545 40.3875C25.0215 40.4312 24.8346 40.462 24.7047 40.4822C24.6398 40.4923 24.5887 40.4997 24.5534 40.5047C24.5359 40.5072 24.5221 40.5093 24.5124 40.5106C24.5076 40.5112 24.5035 40.5112 24.5006 40.5115C24.4995 40.5117 24.4985 40.5124 24.4977 40.5125H24.4957C24.4957 40.512 24.4953 40.5105 24.4948 40.5067C23.6259 40.8685 22.7002 41.0662 21.7331 41.0662C18.9076 41.0661 16.4349 39.3815 14.7018 36.8328C12.966 34.2801 11.9167 30.7954 11.9166 26.9832C11.9167 25.7316 12.0302 24.5169 12.2428 23.3602C11.5884 22.1918 10.9343 21.0098 10.3131 19.8768C9.18784 17.8243 8.1623 15.9219 7.4186 14.533C7.04679 13.8387 6.74445 13.2715 6.53579 12.8787C6.43164 12.6827 6.35055 12.5295 6.29555 12.4256C6.26825 12.3741 6.24717 12.3341 6.23305 12.3074C6.22614 12.2944 6.22001 12.2839 6.21645 12.2772L6.21157 12.2674V12.2664C6.01855 11.9003 6.1581 11.4462 6.52407 11.2528C6.89022 11.0595 7.34423 11.2003 7.53774 11.5662L7.53872 11.5682C7.53956 11.5698 7.54187 11.5728 7.5436 11.576C7.54709 11.5826 7.5524 11.5934 7.55923 11.6063C7.5732 11.6327 7.59458 11.6722 7.62173 11.7235C7.67645 11.8268 7.75711 11.9801 7.86098 12.1756C8.06897 12.5671 8.37003 13.1325 8.74087 13.825C9.48297 15.2109 10.5063 17.1092 11.6286 19.1561C13.8797 23.262 16.5118 27.9315 18.0905 30.2996C18.3202 30.6443 18.2271 31.1109 17.8825 31.3406C17.538 31.5702 17.0723 31.4769 16.8424 31.1326C15.9522 29.7972 14.749 27.7683 13.4723 25.533C13.436 26.0087 13.4166 26.4926 13.4166 26.9832C13.4167 30.5346 14.3965 33.7172 15.942 35.9901C17.4902 38.2667 19.5514 39.5661 21.7331 39.5662C23.9147 39.5662 25.9758 38.2667 27.5241 35.9901C29.0696 33.7172 30.0504 30.5346 30.0504 26.9832C30.0505 26.5691 30.3863 26.2332 30.8004 26.2332C31.2143 26.2336 31.5504 26.5693 31.5504 26.9832C31.5504 30.7955 30.5002 34.2801 28.7643 36.8328C28.4229 37.3349 28.0507 37.8016 27.6549 38.2303C28.8845 37.8342 30.256 37.269 31.4528 36.4764C32.8644 35.5413 33.9898 33.8042 34.7633 31.7225C35.5315 29.6551 35.9166 27.3433 35.9166 25.3826C35.9166 22.0954 35.1948 19.2649 34.0602 17.284C32.9186 15.291 31.4391 14.2714 29.9293 14.2713H25.9831C28.3142 15.8731 30.084 18.7357 30.945 22.0916C31.0477 22.4927 30.806 22.9018 30.4049 23.0047C30.004 23.1072 29.5958 22.8646 29.4928 22.4637C28.3177 17.8835 25.5088 14.821 22.3913 14.4403L25.612 21.3319L25.6217 21.3514L25.6295 21.3709C28.216 27.8372 24.801 33.0363 20.8561 33.2694C20.4429 33.2936 20.0878 32.9784 20.0631 32.5653C20.039 32.152 20.3549 31.7968 20.7682 31.7723C23.3178 31.6212 26.5865 27.8251 24.2428 21.9442L16.279 4.90022C16.1039 4.52507 16.2652 4.07846 16.6403 3.90315C17.0154 3.72787 17.4619 3.8905 17.6374 4.26545L21.612 12.7713H28.5924L24.5348 4.45393C24.3532 4.08175 24.5075 3.63272 24.8795 3.451ZM20.6256 21.2498C21.61 21.2502 22.3879 21.8869 22.8815 22.6766C23.3817 23.477 23.6666 24.5364 23.6666 25.6668C23.6666 26.7972 23.3816 27.8567 22.8815 28.6571C22.3879 29.4466 21.6098 30.0825 20.6256 30.0828C19.641 30.0828 18.8625 29.4468 18.3688 28.6571C17.8686 27.8567 17.5837 26.7973 17.5836 25.6668C17.5837 24.5364 17.8686 23.477 18.3688 22.6766C18.8625 21.8868 19.641 21.2498 20.6256 21.2498ZM20.6256 22.7498C20.3448 22.7498 19.9769 22.9346 19.6413 23.4715C19.3121 23.9981 19.0837 24.7724 19.0836 25.6668C19.0837 26.5611 19.3122 27.3356 19.6413 27.8621C19.9769 28.3988 20.3448 28.5828 20.6256 28.5828C20.9064 28.5825 21.2746 28.3987 21.61 27.8621C21.939 27.3356 22.1666 26.561 22.1666 25.6668C22.1666 24.7727 21.939 23.9981 21.61 23.4715C21.2746 22.9348 20.9065 22.7502 20.6256 22.7498Z" fill="#332A2A"/>
</g>
<defs>
<clipPath id="clip0_2089_12932">
<rect width="44" height="44" fill="white"/>
</clipPath>
</defs>
</svg>
