<svg width="23" height="23" viewBox="0 0 23 23" fill="none" xmlns="http://www.w3.org/2000/svg">
<g clip-path="url(#clip0_2089_12974)">
<path d="M16.0999 14.1047C16.2494 17.7019 14.8549 19.522 13.8958 20.3643C13.0105 21.1418 12.5167 21.0831 11.2603 21.0831C8.64285 21.0831 6.70826 17.9845 6.70826 14.1352C6.70826 13.5225 6.42924 11.8741 6.94784 12.4581C7.65924 13.2592 9.22574 16.5135 10.0624 16.7706C12.4475 17.5036 14.5779 15.4359 12.9374 11.2602C12.2801 9.5871 11.3512 8.01606 11.4999 7.42686C12.4583 6.70811 15.8841 8.9125 16.0999 14.1047Z" fill="#E05149"/>
<path fill-rule="evenodd" clip-rule="evenodd" d="M12.8813 1.54943C13.2162 1.38601 13.6201 1.52514 13.7836 1.85998L16.0082 6.41858C17.1614 6.56517 18.0964 7.39855 18.7299 8.50451C19.4351 9.73572 19.8422 11.4077 19.8422 13.2682C19.8422 14.4171 19.619 15.7515 19.1723 16.9537C18.7304 18.1428 18.0362 19.2907 17.0307 19.9567C16.1102 20.5662 15.0575 20.9386 14.2572 21.1578C13.8533 21.2685 13.5041 21.3424 13.2543 21.3893C13.1292 21.4127 13.0281 21.4301 12.9574 21.441C12.9222 21.4465 12.8941 21.45 12.8744 21.4528C12.8694 21.4535 12.8648 21.454 12.8608 21.4547C12.3902 21.6437 11.8883 21.7496 11.3608 21.7496C9.76246 21.7496 8.39243 20.7962 7.45158 19.4127C6.50839 18.0256 5.94678 16.1469 5.9467 14.1051C5.94671 13.4713 6.00266 12.8546 6.1049 12.2643C5.77798 11.68 5.45249 11.0915 5.14299 10.527C4.55431 9.45328 4.01837 8.45763 3.62932 7.73108C3.43495 7.3681 3.27661 7.07139 3.1674 6.86584C3.11302 6.76348 3.07026 6.68299 3.04143 6.62854C3.02713 6.60154 3.01565 6.58008 3.00822 6.56604L2.99748 6.54455C2.82346 6.21496 2.94922 5.80656 3.27873 5.63244C3.60839 5.45839 4.01678 5.585 4.19084 5.91467L4.19182 5.91565L4.20158 5.93518C4.20889 5.94898 4.22063 5.96997 4.23478 5.9967C4.26335 6.05064 4.30573 6.13032 4.35978 6.23205C4.46837 6.43644 4.62516 6.73181 4.81877 7.09338C5.20637 7.81723 5.74058 8.80874 6.32658 9.87756C7.50474 12.0264 8.87568 14.4566 9.69279 15.6822C9.89913 15.9924 9.8153 16.4121 9.50529 16.6188C9.19524 16.8253 8.7756 16.7411 8.56877 16.4313C8.21905 15.9067 7.77878 15.181 7.30021 14.361C7.34494 16.0633 7.8326 17.5716 8.56779 18.653C9.34221 19.7918 10.3417 20.399 11.3608 20.399C12.3798 20.399 13.3793 19.7918 14.1537 18.653C14.9256 17.5177 15.4251 15.912 15.4252 14.1051C15.4253 13.7325 15.7274 13.4295 16.1 13.4293C16.4727 13.4293 16.7747 13.7324 16.7748 14.1051C16.7747 16.122 16.2256 17.979 15.3031 19.361C15.6408 19.2111 15.976 19.0367 16.2856 18.8317C16.9525 18.3899 17.5122 17.5453 17.9067 16.484C18.2963 15.4355 18.4916 14.2602 18.4916 13.2682C18.4916 11.5875 18.1223 10.159 17.559 9.17541C16.9893 8.18083 16.2932 7.7428 15.6449 7.74279H14.3793C15.3492 8.66258 16.0708 9.99682 16.4506 11.4772C16.5431 11.8382 16.3253 12.2068 15.9643 12.2994C15.6034 12.3919 15.2358 12.1739 15.143 11.8131C14.6156 9.75739 13.469 8.38303 12.2065 7.95373L13.6449 11.0319L13.6537 11.0485L13.6606 11.067C15.0555 14.5553 13.244 17.536 10.9194 17.6735C10.5474 17.6954 10.2277 17.4116 10.2055 17.0397C10.1836 16.6676 10.4681 16.3478 10.8403 16.3258C11.9105 16.2619 13.5906 14.5412 12.4096 11.5768L8.25334 2.68225C8.09552 2.34452 8.24179 1.94261 8.57951 1.78479C8.91717 1.6271 9.31913 1.77239 9.47697 2.10998L11.4779 6.39318H14.4936L12.5707 2.45178C12.4075 2.11681 12.5463 1.71288 12.8813 1.54943ZM10.7641 12.0426C11.3161 12.043 11.7641 12.7144 11.7641 13.5426C11.764 14.3707 11.3161 15.0422 10.7641 15.0426C10.2119 15.0426 9.76417 14.3709 9.76408 13.5426C9.76408 12.7142 10.2118 12.0426 10.7641 12.0426Z" fill="#332A2A"/>
</g>
<defs>
<clipPath id="clip0_2089_12974">
<rect width="23" height="23" fill="white"/>
</clipPath>
</defs>
</svg>
