<svg width="18" height="18" viewBox="0 0 18 18" fill="none" xmlns="http://www.w3.org/2000/svg">
<g clip-path="url(#clip0_2089_12975)">
<path d="M12.6001 11.0387C12.7171 13.8539 11.6257 15.2784 10.8751 15.9376C10.1823 16.5461 9.7958 16.5001 8.81257 16.5001C6.7641 16.5001 5.25007 14.0751 5.25007 11.0626C5.25007 10.5831 5.03171 9.2931 5.43757 9.75013C5.99431 10.3771 7.22028 12.9239 7.87507 13.1251C9.74167 13.6988 11.4089 12.0806 10.1251 8.81262C9.61067 7.50325 8.88369 6.27374 9.00007 5.81262C9.75007 5.25012 12.4312 6.9753 12.6001 11.0387Z" fill="#E05149"/>
<path d="M10.038 1.12597C10.3481 0.974663 10.7224 1.10311 10.8739 1.41308L12.5907 4.93261C13.5101 5.06977 14.2468 5.74282 14.7421 6.60742C15.3041 7.58873 15.6249 8.91489 15.6249 10.3838C15.6249 11.2942 15.4483 12.3498 15.0946 13.3018C14.7454 14.2416 14.192 15.1619 13.3807 15.6992C12.6485 16.184 11.8135 16.4785 11.1825 16.6514C10.8635 16.7387 10.587 16.7979 10.3895 16.835C10.291 16.8534 10.2112 16.8663 10.1552 16.875C10.1282 16.8792 10.1064 16.8816 10.0907 16.8838C9.71484 17.0333 9.31328 17.1182 8.8905 17.1182C7.59825 17.118 6.49903 16.3473 5.75085 15.2471C5.00049 14.1435 4.55664 12.6537 4.55652 11.0391C4.55652 10.5492 4.59932 10.0718 4.67664 9.61426C4.42626 9.16639 4.17715 8.71615 3.94031 8.28418C3.47937 7.44346 3.05934 6.6645 2.75476 6.0957C2.60246 5.81128 2.47797 5.57893 2.39246 5.41797C2.34992 5.3379 2.31735 5.27501 2.2948 5.23242C2.28353 5.21115 2.27426 5.1946 2.26843 5.18359C2.26558 5.17819 2.26308 5.1737 2.2616 5.1709C2.26103 5.16981 2.26092 5.16863 2.26062 5.16797L2.25964 5.16699C2.09854 4.86186 2.21539 4.48353 2.52039 4.32226C2.82559 4.16112 3.20391 4.27785 3.36511 4.58301V4.58398C3.36548 4.58462 3.36645 4.58574 3.36707 4.58691C3.3685 4.58963 3.37108 4.59428 3.3739 4.59961C3.3796 4.61039 3.38826 4.62663 3.39929 4.64746C3.42163 4.68964 3.45458 4.75228 3.49695 4.83203C3.5819 4.99193 3.70484 5.22297 3.85632 5.50586C4.15958 6.0722 4.57757 6.84744 5.03601 7.68359C5.95836 9.36587 7.02812 11.2634 7.66492 12.2187C7.9833 12.6963 8.26939 12.7715 8.45398 12.7607C8.6801 12.7473 8.98499 12.5925 9.28113 12.2236C9.87679 11.4813 10.1651 10.2036 9.63855 9.13281L9.63367 9.12109L6.37097 2.13965C6.22489 1.827 6.36017 1.45479 6.67273 1.30859C6.98545 1.16248 7.35766 1.29764 7.50378 1.61035L9.04382 4.90625H11.1874L9.75085 1.96191C9.59958 1.65188 9.72815 1.27752 10.038 1.12597ZM11.4872 6.15625C12.1781 6.88222 12.6899 7.87548 12.9677 8.95801C13.0534 9.2923 12.8517 9.6329 12.5175 9.71875C12.1832 9.80424 11.8425 9.60276 11.7567 9.26855C11.3802 7.80107 10.6043 6.80622 9.74499 6.40625L10.7665 8.59179H10.7655C11.5316 10.1615 11.1046 11.9493 10.2557 13.0068C9.82887 13.5385 9.22779 13.9678 8.52624 14.0088C7.78304 14.0521 7.11765 13.6512 6.62488 12.9121C6.39932 12.5737 6.12903 12.1279 5.83093 11.624C5.92208 12.7802 6.27727 13.7972 6.78503 14.5439C7.37908 15.4175 8.13465 15.868 8.8905 15.8682C9.64641 15.8682 10.4028 15.4175 10.9969 14.5439C11.5886 13.6736 11.9744 12.4361 11.9745 11.0391C11.9745 10.6941 12.2546 10.4144 12.5995 10.4141C12.9447 10.4141 13.2245 10.6939 13.2245 11.0391C13.2244 12.5011 12.8592 13.8596 12.2333 14.9228C12.3908 14.8423 12.5449 14.7542 12.6913 14.6572C13.1891 14.3276 13.6174 13.6878 13.9227 12.8662C14.2235 12.0567 14.3749 11.1489 14.3749 10.3838C14.3749 9.08133 14.0878 7.98051 13.6571 7.22851C13.2206 6.46661 12.7021 6.15625 12.243 6.15625H11.4872ZM8.43738 9C8.95514 9 9.37488 9.67157 9.37488 10.5C9.37481 11.3283 8.9551 12 8.43738 12C7.91973 11.9999 7.49995 11.3282 7.49988 10.5C7.49988 9.67166 7.91968 9.00014 8.43738 9Z" fill="#332A2A"/>
</g>
<defs>
<clipPath id="clip0_2089_12975">
<rect width="18" height="18" fill="white"/>
</clipPath>
</defs>
</svg>
