<svg width="18" height="18" viewBox="0 0 18 18" fill="none" xmlns="http://www.w3.org/2000/svg">
<g clip-path="url(#clip0_1230_14835)">
<path fill-rule="evenodd" clip-rule="evenodd" d="M9 2.5C5.41015 2.5 2.5 5.41015 2.5 9C2.5 10.4033 2.94396 11.701 3.69914 12.7628C3.89921 13.044 3.83336 13.4343 3.55208 13.6343C3.27079 13.8344 2.88058 13.7685 2.68051 13.4872C1.77978 12.2208 1.25 10.6714 1.25 9C1.25 4.71979 4.71979 1.25 9 1.25C9.34518 1.25 9.625 1.52982 9.625 1.875C9.625 2.22018 9.34518 2.5 9 2.5ZM11.1343 2.17131C11.2658 1.85215 11.6311 1.70001 11.9503 1.83149C13.0934 2.30245 14.0985 3.03838 14.8895 3.96229C16.049 5.31671 16.75 7.07729 16.75 9C16.75 11.3709 15.6846 13.4936 14.0086 14.9143C13.7453 15.1375 13.3509 15.1049 13.1277 14.8416C12.9045 14.5783 12.9371 14.1839 13.2004 13.9607C14.6081 12.7675 15.5 10.9882 15.5 9C15.5 7.38651 14.9129 5.91173 13.9399 4.77521C13.2755 3.99916 12.4319 3.38184 11.4741 2.98726C11.155 2.85578 11.0028 2.49046 11.1343 2.17131ZM3.91874 14.0334C4.14194 13.7701 4.53633 13.7375 4.79964 13.9607C5.93281 14.9213 7.39802 15.5 9 15.5C9.78219 15.5 10.5308 15.3621 11.2237 15.1099C11.548 14.9918 11.9067 15.159 12.0248 15.4833C12.1429 15.8077 11.9757 16.1664 11.6513 16.2844C10.8233 16.5859 9.93014 16.75 9 16.75C7.09105 16.75 5.34188 16.059 3.99138 14.9143C3.72807 14.6911 3.69555 14.2967 3.91874 14.0334Z" fill="#332A2A"/>
<path d="M5.83618 9.83872L8.157 12.0088L10.4778 9.02493M12.7986 6.04102L11.6382 7.53297" stroke="#2C6724" stroke-width="1.25" stroke-linecap="round" stroke-linejoin="round"/>
</g>
<defs>
<clipPath id="clip0_1230_14835">
<rect width="18" height="18" fill="white"/>
</clipPath>
</defs>
</svg>
