<svg width="44" height="44" viewBox="0 0 44 44" fill="none" xmlns="http://www.w3.org/2000/svg">
<g clip-path="url(#clip0_1230_14832)">
<path fill-rule="evenodd" clip-rule="evenodd" d="M21.9999 5.33325C12.7952 5.33325 5.33325 12.7952 5.33325 21.9999C5.33325 25.5969 6.47188 28.9258 8.40845 31.6486C8.64853 31.9861 8.56952 32.4544 8.23197 32.6944C7.89443 32.9345 7.42618 32.8555 7.1861 32.5179C5.07488 29.5496 3.83325 25.9186 3.83325 21.9999C3.83325 11.9667 11.9667 3.83325 21.9999 3.83325C22.4141 3.83325 22.7499 4.16904 22.7499 4.58325C22.7499 4.99747 22.4141 5.33325 21.9999 5.33325ZM27.9362 5.60382C28.094 5.22083 28.5324 5.03826 28.9154 5.19604C31.5945 6.29975 33.9509 8.02489 35.8056 10.1913C38.524 13.3666 40.1666 17.4924 40.1666 21.9999C40.1666 27.5574 37.6702 32.5325 33.7403 35.8637C33.4243 36.1315 32.9511 36.0925 32.6832 35.7765C32.4154 35.4606 32.4544 34.9873 32.7704 34.7195C36.3784 31.6611 38.6666 27.0981 38.6666 21.9999C38.6666 17.8634 37.1606 14.0806 34.6661 11.1668C32.9633 9.17782 30.8007 7.59502 28.344 6.58296C27.961 6.42518 27.7785 5.98681 27.9362 5.60382ZM10.1724 34.8066C10.4402 34.4907 10.9135 34.4516 11.2295 34.7195C14.1347 37.1821 17.893 38.6666 21.9999 38.6666C24.004 38.6666 25.9239 38.3132 27.7017 37.666C28.0909 37.5243 28.5213 37.725 28.663 38.1142C28.8047 38.5034 28.604 38.9338 28.2148 39.0755C26.2749 39.7817 24.1815 40.1666 21.9999 40.1666C17.5246 40.1666 13.4255 38.5474 10.2595 35.8637C9.94357 35.5959 9.90454 35.1226 10.1724 34.8066Z" fill="#252323"/>
<path d="M14.2661 24.0501L19.9392 29.3549L25.6123 22.0608M31.2855 14.7668L28.4489 18.4138" stroke="#2C6724" stroke-width="1.5" stroke-linecap="round" stroke-linejoin="round"/>
</g>
<defs>
<clipPath id="clip0_1230_14832">
<rect width="44" height="44" fill="white"/>
</clipPath>
</defs>
</svg>
