<svg width="23" height="23" viewBox="0 0 23 23" fill="none" xmlns="http://www.w3.org/2000/svg">
<g clip-path="url(#clip0_1230_14834)">
<path fill-rule="evenodd" clip-rule="evenodd" d="M11.5001 3.07095C6.84481 3.07095 3.07095 6.84481 3.07095 11.5001C3.07095 13.3197 3.64671 15.0028 4.62607 16.3797C4.84213 16.6835 4.77102 17.1049 4.46723 17.321C4.16344 17.5371 3.74201 17.466 3.52595 17.1622C2.38941 15.5642 1.72095 13.6092 1.72095 11.5001C1.72095 6.09923 6.09923 1.72095 11.5001 1.72095C11.8729 1.72095 12.1751 2.02316 12.1751 2.39595C12.1751 2.76874 11.8729 3.07095 11.5001 3.07095ZM14.3416 2.82165C14.4836 2.47696 14.8781 2.31265 15.2228 2.45465C16.6652 3.04887 17.9335 3.9775 18.9317 5.14343C20.3949 6.85253 21.2793 9.0739 21.2793 11.5001C21.2793 14.4918 19.9351 17.1702 17.8201 18.9629C17.5357 19.204 17.1098 19.1689 16.8687 18.8845C16.6277 18.6001 16.6628 18.1742 16.9472 17.9331C18.7725 16.3859 19.9293 14.0784 19.9293 11.5001C19.9293 9.40785 19.1679 7.49515 17.9061 6.02139C17.0447 5.01514 15.9508 4.21462 14.7086 3.70287C14.3639 3.56087 14.1996 3.16633 14.3416 2.82165ZM5.10169 18.0116C5.34274 17.7272 5.76868 17.6921 6.05306 17.9331C7.5225 19.1787 9.42278 19.9293 11.5001 19.9293C12.5142 19.9293 13.485 19.7505 14.3838 19.4233C14.7341 19.2958 15.1214 19.4764 15.249 19.8267C15.3765 20.177 15.1959 20.5643 14.8456 20.6919C13.801 21.0722 12.674 21.2793 11.5001 21.2793C9.09126 21.2793 6.88429 20.4075 5.18014 18.9629C4.89576 18.7219 4.86064 18.2959 5.10169 18.0116Z" fill="#252323"/>
<path d="M7.45728 12.5716L10.4228 15.3445L13.3883 11.5318M16.3537 7.71899L14.871 9.62538" stroke="#2C6724" stroke-width="1.35" stroke-linecap="round" stroke-linejoin="round"/>
</g>
<defs>
<clipPath id="clip0_1230_14834">
<rect width="23" height="23" fill="white"/>
</clipPath>
</defs>
</svg>
