<svg width="44" height="44" viewBox="0 0 44 44" fill="none" xmlns="http://www.w3.org/2000/svg">
<g clip-path="url(#clip0_1230_14905)">
<path d="M10.1721 34.8069C10.4399 34.4909 10.9138 34.4512 11.2297 34.719C14.1349 37.1816 17.8933 38.6663 22.0002 38.6663C24.0041 38.6662 25.9238 38.3134 27.7014 37.6663C28.0906 37.5246 28.5216 37.7253 28.6633 38.1145C28.8047 38.5035 28.604 38.9337 28.2151 39.0754C26.2753 39.7816 24.1817 40.1662 22.0002 40.1663C17.525 40.1663 13.426 38.5471 10.26 35.8635C9.94413 35.5958 9.90454 35.1229 10.1721 34.8069ZM27.9358 5.60376C28.0935 5.22086 28.5324 5.03797 28.9153 5.19556C31.5944 6.29927 33.9512 8.02521 35.8059 10.1917C38.5241 13.3668 40.1663 17.4928 40.1663 22.0002C40.1662 27.5575 37.6702 32.5324 33.7405 35.8635C33.4245 36.1314 32.9507 36.0926 32.6829 35.7766C32.4152 35.4606 32.4548 34.9868 32.7708 34.719C36.3785 31.6607 38.6662 27.0981 38.6663 22.0002C38.6663 17.8639 37.1606 14.0809 34.6663 11.1672C32.9634 9.17824 30.8006 7.59531 28.344 6.58325C27.961 6.42549 27.7781 5.98672 27.9358 5.60376ZM22.0002 3.83325C22.4143 3.83343 22.7502 4.16915 22.7502 4.58325C22.7502 4.99736 22.4143 5.33308 22.0002 5.33325C12.7955 5.33325 5.33325 12.7955 5.33325 22.0002C5.33332 25.5971 6.47193 28.926 8.40845 31.6487C8.64845 31.9862 8.56921 32.4545 8.23169 32.6946C7.89416 32.9344 7.42581 32.8553 7.18579 32.5178C5.07473 29.5496 3.83332 25.9187 3.83325 22.0002C3.83325 11.9671 11.9671 3.83325 22.0002 3.83325ZM25.0198 21.6008C25.2741 21.2739 25.7456 21.2148 26.0725 21.469C26.3994 21.7233 26.4586 22.1948 26.2043 22.5217L20.5305 29.8157C20.4012 29.9816 20.208 30.0862 19.9983 30.1028C19.7883 30.1193 19.5809 30.0464 19.427 29.9026L13.7532 24.5979C13.4511 24.3151 13.4357 23.8408 13.718 23.5383C14.0009 23.2358 14.476 23.2193 14.7786 23.5022L19.8508 28.2454L25.0198 21.6008ZM30.6936 14.3059C30.948 13.9794 31.4186 13.921 31.7454 14.175C32.0723 14.4294 32.1315 14.9008 31.8772 15.2278L29.0403 18.8743C28.786 19.2008 28.3153 19.26 27.9885 19.0061C27.6617 18.7518 27.6026 18.2803 27.8567 17.9534L30.6936 14.3059Z" fill="#332A2A"/>
</g>
<defs>
<clipPath id="clip0_1230_14905">
<rect width="44" height="44" fill="white"/>
</clipPath>
</defs>
</svg>
