<svg width="29" height="28" viewBox="0 0 29 28" fill="none" xmlns="http://www.w3.org/2000/svg">
<g clip-path="url(#clip0_1230_14858)">
<circle cx="14.6251" cy="14.0001" r="11.0833" fill="#E05149"/>
<path fill-rule="evenodd" clip-rule="evenodd" d="M4.29175 14.0001C4.29175 8.29314 8.91814 3.66675 14.6251 3.66675C15.0393 3.66675 15.3751 3.33096 15.3751 2.91675C15.3751 2.50253 15.0393 2.16675 14.6251 2.16675C8.08971 2.16675 2.79175 7.46471 2.79175 14.0001C2.79175 16.5523 3.6006 18.9179 4.97586 20.8514C5.21594 21.189 5.68419 21.268 6.02173 21.0279C6.35928 20.7878 6.43829 20.3196 6.19821 19.982C4.9976 18.294 4.29175 16.2306 4.29175 14.0001ZM19.1297 3.05454C18.7467 2.89676 18.3084 3.07933 18.1506 3.46232C17.9928 3.8453 18.1754 4.28368 18.5584 4.44146C20.0812 5.06883 21.4222 6.05019 22.4782 7.28367C24.0249 9.09032 24.9584 11.4352 24.9584 14.0001C24.9584 17.1609 23.5402 19.9897 21.3027 21.8863C20.9867 22.1541 20.9477 22.6274 21.2155 22.9434C21.4833 23.2593 21.9566 23.2984 22.2726 23.0305C24.8319 20.8611 26.4584 17.6201 26.4584 14.0001C26.4584 11.0642 25.3883 8.3763 23.6177 6.30816C22.4098 4.89726 20.8751 3.77356 19.1297 3.05454ZM7.94749 21.8863C7.63152 21.6185 7.15826 21.6575 6.89042 21.9735C6.62259 22.2894 6.66161 22.7627 6.97758 23.0305C9.03973 24.7785 11.7102 25.8334 14.6251 25.8334C16.0457 25.8334 17.4094 25.5828 18.6733 25.1226C19.0625 24.9809 19.2632 24.5505 19.1215 24.1613C18.9798 23.7721 18.5494 23.5714 18.1602 23.7131C17.0583 24.1143 15.8681 24.3334 14.6251 24.3334C12.0785 24.3334 9.74885 23.4132 7.94749 21.8863ZM21.1261 9.85757C21.3804 9.53061 21.3215 9.0594 20.9945 8.8051C20.6676 8.55079 20.1964 8.60969 19.9421 8.93666L18.137 11.2575C17.8827 11.5844 17.9416 12.0556 18.2685 12.3099C18.5955 12.5642 19.0667 12.5053 19.321 12.1784L21.1261 9.85757ZM17.5159 14.4992C17.7702 14.1722 17.7113 13.701 17.3844 13.4467C17.0574 13.1924 16.5862 13.2513 16.3319 13.5783L13.226 17.5716L10.2158 14.7568C9.91327 14.4739 9.43867 14.4899 9.15576 14.7924C8.87286 15.095 8.88878 15.5696 9.19133 15.8525L12.8015 19.2282C12.9554 19.3721 13.1628 19.4447 13.3729 19.4281C13.583 19.4114 13.7764 19.3072 13.9058 19.1408L17.5159 14.4992Z" fill="#252323"/>
</g>
<defs>
<clipPath id="clip0_1230_14858">
<rect width="28" height="28" fill="white" transform="translate(0.625)"/>
</clipPath>
</defs>
</svg>
