<svg width="44" height="44" viewBox="0 0 44 44" fill="none" xmlns="http://www.w3.org/2000/svg">
<g clip-path="url(#clip0_1230_14857)">
<circle cx="21.9999" cy="21.9999" r="17.4167" fill="#E05149"/>
<path fill-rule="evenodd" clip-rule="evenodd" d="M5.33325 21.9999C5.33325 12.7952 12.7952 5.33325 21.9999 5.33325C22.4141 5.33325 22.7499 4.99747 22.7499 4.58325C22.7499 4.16904 22.4141 3.83325 21.9999 3.83325C11.9667 3.83325 3.83325 11.9667 3.83325 21.9999C3.83325 25.9186 5.07488 29.5496 7.1861 32.5179C7.42618 32.8555 7.89443 32.9345 8.23197 32.6944C8.56952 32.4544 8.64853 31.9861 8.40845 31.6486C6.47188 28.9258 5.33325 25.5969 5.33325 21.9999ZM28.9154 5.19604C28.5324 5.03826 28.094 5.22083 27.9362 5.60382C27.7785 5.98681 27.961 6.42518 28.344 6.58296C30.8007 7.59502 32.9633 9.17782 34.6661 11.1668C37.1606 14.0806 38.6666 17.8634 38.6666 21.9999C38.6666 27.0981 36.3784 31.6611 32.7704 34.7195C32.4544 34.9873 32.4154 35.4606 32.6832 35.7765C32.9511 36.0925 33.4243 36.1315 33.7403 35.8637C37.6702 32.5325 40.1666 27.5574 40.1666 21.9999C40.1666 17.4924 38.524 13.3666 35.8056 10.1913C33.9509 8.02489 31.5945 6.29975 28.9154 5.19604ZM11.2295 34.7195C10.9135 34.4516 10.4402 34.4907 10.1724 34.8066C9.90454 35.1226 9.94357 35.5959 10.2595 35.8637C13.4255 38.5474 17.5246 40.1666 21.9999 40.1666C24.1815 40.1666 26.2749 39.7817 28.2148 39.0755C28.604 38.9338 28.8047 38.5034 28.663 38.1142C28.5213 37.725 28.0909 37.5243 27.7017 37.666C25.9239 38.3132 24.004 38.6666 21.9999 38.6666C17.893 38.6666 14.1347 37.1821 11.2295 34.7195ZM31.8775 15.2271C32.1318 14.9002 32.0729 14.429 31.7459 14.1747C31.419 13.9204 30.9478 13.9793 30.6935 14.3062L27.8569 17.9532C27.6026 18.2802 27.6615 18.7514 27.9885 19.0057C28.3154 19.26 28.7866 19.2011 29.0409 18.8741L31.8775 15.2271ZM26.2044 22.5211C26.4587 22.1942 26.3998 21.723 26.0728 21.4687C25.7459 21.2144 25.2746 21.2733 25.0203 21.6002L19.8515 28.2459L14.7784 23.5021C14.4758 23.2192 14.0012 23.2352 13.7183 23.5377C13.4354 23.8403 13.4513 24.3149 13.7539 24.5978L19.427 29.9025C19.5809 30.0464 19.7883 30.119 19.9984 30.1023C20.2085 30.0857 20.4019 29.9815 20.5313 29.8151L26.2044 22.5211Z" fill="#252323"/>
</g>
<defs>
<clipPath id="clip0_1230_14857">
<rect width="44" height="44" fill="white"/>
</clipPath>
</defs>
</svg>
