<svg width="19" height="18" viewBox="0 0 19 18" fill="none" xmlns="http://www.w3.org/2000/svg">
<g clip-path="url(#clip0_1230_14908)">
<path fill-rule="evenodd" clip-rule="evenodd" d="M3.125 9C3.125 5.41015 6.03515 2.5 9.625 2.5C9.97018 2.5 10.25 2.22018 10.25 1.875C10.25 1.52982 9.97018 1.25 9.625 1.25C5.34479 1.25 1.875 4.71979 1.875 9C1.875 10.6714 2.40478 12.2208 3.30551 13.4872C3.50558 13.7685 3.89579 13.8344 4.17708 13.6343C4.45836 13.4343 4.52421 13.044 4.32414 12.7628C3.56896 11.701 3.125 10.4033 3.125 9ZM12.5753 1.83149C12.2561 1.70001 11.8908 1.85215 11.7593 2.17131C11.6278 2.49046 11.78 2.85578 12.0991 2.98726C13.0569 3.38184 13.9005 3.99916 14.5649 4.77521C15.5379 5.91173 16.125 7.38651 16.125 9C16.125 10.9882 15.2331 12.7675 13.8254 13.9607C13.5621 14.1839 13.5295 14.5783 13.7527 14.8416C13.9759 15.1049 14.3703 15.1375 14.6336 14.9143C16.3096 13.4936 17.375 11.3709 17.375 9C17.375 7.07729 16.674 5.31671 15.5145 3.96229C14.7235 3.03838 13.7184 2.30245 12.5753 1.83149ZM5.42464 13.9607C5.16133 13.7375 4.76694 13.7701 4.54374 14.0334C4.32055 14.2967 4.35307 14.6911 4.61638 14.9143C5.96688 16.059 7.71605 16.75 9.625 16.75C10.5551 16.75 11.4483 16.5859 12.2763 16.2844C12.6007 16.1664 12.7679 15.8077 12.6498 15.4833C12.5317 15.159 12.173 14.9918 11.8487 15.1099C11.1558 15.3621 10.4072 15.5 9.625 15.5C8.02302 15.5 6.55781 14.9213 5.42464 13.9607ZM13.917 6.42466C14.1289 6.15219 14.0798 5.75952 13.8073 5.5476C13.5349 5.33568 13.1422 5.38477 12.9303 5.65723L11.7699 7.14919C11.558 7.42166 11.607 7.81433 11.8795 8.02625C12.152 8.23817 12.5447 8.18908 12.7566 7.91661L13.917 6.42466ZM11.5962 9.40857C11.8081 9.1361 11.759 8.74343 11.4865 8.53151C11.2141 8.31959 10.8214 8.36868 10.6095 8.64114L8.70889 11.0847L6.88805 9.38214C6.63592 9.14638 6.24042 9.15965 6.00466 9.41178C5.76891 9.66391 5.78218 10.0594 6.03431 10.2952L8.35513 12.4653C8.4834 12.5852 8.65622 12.6457 8.83129 12.6318C9.00636 12.618 9.16752 12.5311 9.27534 12.3925L11.5962 9.40857Z" fill="#252323"/>
</g>
<defs>
<clipPath id="clip0_1230_14908">
<rect width="18" height="18" fill="white" transform="translate(0.625)"/>
</clipPath>
</defs>
</svg>
