<svg width="23" height="23" viewBox="0 0 23 23" fill="none" xmlns="http://www.w3.org/2000/svg">
<g clip-path="url(#clip0_1230_14907)">
<path d="M5.02661 17.9358C5.26772 17.6518 5.69354 17.6167 5.97778 17.8577C7.44722 19.1032 9.34773 19.8538 11.425 19.8538C12.439 19.8537 13.4102 19.6751 14.3088 19.3479C14.659 19.2207 15.0466 19.4011 15.1741 19.7512C15.3015 20.1015 15.12 20.4889 14.7698 20.6165C13.7254 20.9966 12.5987 21.2043 11.425 21.2043C9.01628 21.2043 6.80886 20.3324 5.10474 18.8879C4.82036 18.6469 4.78556 18.2202 5.02661 17.9358ZM14.2659 2.74634C14.4079 2.40165 14.803 2.23715 15.1477 2.37915C16.59 2.97338 17.8586 3.90178 18.8567 5.06763C20.3199 6.77673 21.2043 8.99883 21.2043 11.425C21.2042 14.4166 19.8593 17.0952 17.7444 18.8879C17.46 19.1286 17.0342 19.0931 16.7932 18.8088C16.5524 18.5245 16.5872 18.0987 16.8713 17.8577C18.6966 16.3105 19.8537 14.0032 19.8538 11.425C19.8538 9.33279 19.092 7.41932 17.8303 5.94556C16.9689 4.93953 15.8751 4.13886 14.6331 3.6272C14.2886 3.48515 14.124 3.09091 14.2659 2.74634ZM11.425 1.64575C11.7977 1.64593 12.0999 1.94787 12.0999 2.32056C12.0999 2.69324 11.7977 2.99519 11.425 2.99536C6.76975 2.99536 2.99536 6.76975 2.99536 11.425C2.99543 13.2445 3.57177 14.9271 4.55103 16.304C4.76706 16.6077 4.69553 17.0293 4.39185 17.2454C4.08812 17.4614 3.66655 17.3908 3.45044 17.0872C2.31396 15.4893 1.64582 13.534 1.64575 11.425C1.64575 6.02416 6.02416 1.64575 11.425 1.64575ZM10.8801 15.6838C10.7637 15.8334 10.5896 15.9277 10.4006 15.9426C10.2117 15.9575 10.0254 15.8914 9.88696 15.762L10.3479 15.2698L10.8801 15.6838ZM12.7805 11.0422C13.0094 10.748 13.4335 10.6952 13.7278 10.9241C14.0217 11.153 14.0747 11.5772 13.8459 11.8713L10.8801 15.6838L10.3469 15.2688L9.88696 15.762L6.92114 12.9895C6.64888 12.7349 6.6344 12.3077 6.88892 12.0354C7.14348 11.7632 7.57071 11.7487 7.84302 12.0032L10.2678 14.2708L12.7805 11.0422ZM15.7454 7.22974C15.9741 6.9356 16.3984 6.88208 16.6926 7.1106C16.9867 7.33937 17.0403 7.76363 16.8118 8.05786L15.3284 9.96411C15.0995 10.2583 14.6754 10.3121 14.3811 10.0833C14.087 9.85442 14.0343 9.43022 14.2629 9.13599L15.7454 7.22974Z" fill="#332A2A"/>
</g>
<defs>
<clipPath id="clip0_1230_14907">
<rect width="23" height="23" fill="white"/>
</clipPath>
</defs>
</svg>
