<svg width="18" height="18" viewBox="0 0 18 18" fill="none" xmlns="http://www.w3.org/2000/svg">
<g clip-path="url(#clip0_1230_14860)">
<circle cx="9" cy="9" r="7.125" fill="#E05149"/>
<path fill-rule="evenodd" clip-rule="evenodd" d="M2.5 9C2.5 5.41015 5.41015 2.5 9 2.5C9.34518 2.5 9.625 2.22018 9.625 1.875C9.625 1.52982 9.34518 1.25 9 1.25C4.71979 1.25 1.25 4.71979 1.25 9C1.25 10.6714 1.77978 12.2208 2.68051 13.4872C2.88058 13.7685 3.27079 13.8344 3.55208 13.6343C3.83336 13.4343 3.89921 13.044 3.69914 12.7628C2.94396 11.701 2.5 10.4033 2.5 9ZM11.9503 1.83149C11.6311 1.70001 11.2658 1.85215 11.1343 2.17131C11.0028 2.49046 11.155 2.85578 11.4741 2.98726C12.4319 3.38184 13.2755 3.99916 13.9399 4.77521C14.9129 5.91173 15.5 7.38651 15.5 9C15.5 10.9882 14.6081 12.7675 13.2004 13.9607C12.9371 14.1839 12.9045 14.5783 13.1277 14.8416C13.3509 15.1049 13.7453 15.1375 14.0086 14.9143C15.6846 13.4936 16.75 11.3709 16.75 9C16.75 7.07729 16.049 5.31671 14.8895 3.96229C14.0985 3.03838 13.0934 2.30245 11.9503 1.83149ZM4.79964 13.9607C4.53633 13.7375 4.14194 13.7701 3.91874 14.0334C3.69555 14.2967 3.72807 14.6911 3.99138 14.9143C5.34188 16.059 7.09105 16.75 9 16.75C9.93014 16.75 10.8233 16.5859 11.6513 16.2844C11.9757 16.1664 12.1429 15.8077 12.0248 15.4833C11.9067 15.159 11.548 14.9918 11.2237 15.1099C10.5308 15.3621 9.78219 15.5 9 15.5C7.39802 15.5 5.93281 14.9213 4.79964 13.9607ZM13.292 6.42466C13.5039 6.15219 13.4548 5.75952 13.1823 5.5476C12.9099 5.33568 12.5172 5.38477 12.3053 5.65723L11.1449 7.14919C10.933 7.42166 10.982 7.81433 11.2545 8.02625C11.527 8.23817 11.9197 8.18908 12.1316 7.91661L13.292 6.42466ZM10.9712 9.40857C11.1831 9.1361 11.134 8.74343 10.8615 8.53151C10.5891 8.31959 10.1964 8.36868 9.98447 8.64114L8.08389 11.0847L6.26305 9.38214C6.01092 9.14638 5.61542 9.15965 5.37966 9.41178C5.14391 9.66391 5.15718 10.0594 5.40931 10.2952L7.73013 12.4653C7.8584 12.5852 8.03122 12.6457 8.20629 12.6318C8.38136 12.618 8.54252 12.5311 8.65034 12.3925L10.9712 9.40857Z" fill="#332A2A"/>
</g>
<defs>
<clipPath id="clip0_1230_14860">
<rect width="18" height="18" fill="white"/>
</clipPath>
</defs>
</svg>
