<svg width="24" height="23" viewBox="0 0 24 23" fill="none" xmlns="http://www.w3.org/2000/svg">
<g clip-path="url(#clip0_1230_14859)">
<circle cx="12.1249" cy="11.4999" r="9.10417" fill="#E05149"/>
<path fill-rule="evenodd" clip-rule="evenodd" d="M3.69595 11.5001C3.69595 6.84481 7.46981 3.07095 12.1251 3.07095C12.4979 3.07095 12.8001 2.76874 12.8001 2.39595C12.8001 2.02316 12.4979 1.72095 12.1251 1.72095C6.72423 1.72095 2.34595 6.09923 2.34595 11.5001C2.34595 13.6092 3.01441 15.5642 4.15095 17.1622C4.36701 17.466 4.78844 17.5371 5.09223 17.321C5.39602 17.1049 5.46713 16.6835 5.25107 16.3797C4.27171 15.0028 3.69595 13.3197 3.69595 11.5001ZM15.8478 2.45465C15.5031 2.31265 15.1086 2.47696 14.9666 2.82165C14.8246 3.16633 14.9889 3.56087 15.3336 3.70287C16.5758 4.21462 17.6697 5.01514 18.5311 6.02139C19.7929 7.49515 20.5543 9.40785 20.5543 11.5001C20.5543 14.0784 19.3975 16.3859 17.5722 17.9331C17.2878 18.1742 17.2527 18.6001 17.4937 18.8845C17.7348 19.1689 18.1607 19.204 18.4451 18.9629C20.5601 17.1702 21.9043 14.4918 21.9043 11.5001C21.9043 9.0739 21.0199 6.85253 19.5567 5.14343C18.5585 3.9775 17.2902 3.04887 15.8478 2.45465ZM6.67806 17.9331C6.39368 17.6921 5.96774 17.7272 5.72669 18.0116C5.48564 18.2959 5.52076 18.7219 5.80514 18.9629C7.50929 20.4075 9.71626 21.2793 12.1251 21.2793C13.299 21.2793 14.426 21.0722 15.4706 20.6919C15.8209 20.5643 16.0015 20.177 15.874 19.8267C15.7464 19.4764 15.3591 19.2958 15.0088 19.4233C14.11 19.7505 13.1392 19.9293 12.1251 19.9293C10.0478 19.9293 8.1475 19.1787 6.67806 17.9331ZM17.5117 8.13351C17.7406 7.83925 17.6876 7.41516 17.3933 7.18629C17.0991 6.95742 16.675 7.01043 16.4461 7.30469L14.9634 9.21108C14.7345 9.50534 14.7875 9.92943 15.0818 10.1583C15.376 10.3872 15.8001 10.3342 16.029 10.0399L17.5117 8.13351ZM14.5462 11.9463C14.7751 11.652 14.7221 11.2279 14.4278 10.9991C14.1336 10.7702 13.7095 10.8232 13.4806 11.1175L10.969 14.3467L8.54347 12.0787C8.27118 11.8241 7.84403 11.8384 7.58942 12.1107C7.3348 12.383 7.34913 12.8101 7.62143 13.0648L10.5869 15.8377C10.7255 15.9672 10.9121 16.0325 11.1012 16.0175C11.2903 16.0026 11.4643 15.9088 11.5808 15.7591L14.5462 11.9463Z" fill="#252323"/>
</g>
<defs>
<clipPath id="clip0_1230_14859">
<rect width="23" height="23" fill="white" transform="translate(0.625)"/>
</clipPath>
</defs>
</svg>
