<svg width="28" height="28" viewBox="0 0 28 28" fill="none" xmlns="http://www.w3.org/2000/svg">
<g clip-path="url(#clip0_1230_14833)">
<path fill-rule="evenodd" clip-rule="evenodd" d="M14.0001 3.66675C8.29314 3.66675 3.66675 8.29314 3.66675 14.0001C3.66675 16.2306 4.3726 18.294 5.57321 19.982C5.81329 20.3196 5.73428 20.7878 5.39673 21.0279C5.05919 21.268 4.59094 21.189 4.35086 20.8514C2.9756 18.9179 2.16675 16.5523 2.16675 14.0001C2.16675 7.46471 7.46471 2.16675 14.0001 2.16675C14.4143 2.16675 14.7501 2.50253 14.7501 2.91675C14.7501 3.33096 14.4143 3.66675 14.0001 3.66675ZM17.5256 3.46232C17.6834 3.07933 18.1217 2.89676 18.5047 3.05454C20.2501 3.77356 21.7848 4.89726 22.9927 6.30816C24.7633 8.3763 25.8334 11.0642 25.8334 14.0001C25.8334 17.6201 24.2069 20.8611 21.6476 23.0305C21.3316 23.2984 20.8583 23.2593 20.5905 22.9434C20.3227 22.6274 20.3617 22.1541 20.6777 21.8863C22.9152 19.9897 24.3334 17.1609 24.3334 14.0001C24.3334 11.4352 23.3999 9.09032 21.8532 7.28367C20.7972 6.05019 19.4562 5.06883 17.9334 4.44146C17.5504 4.28368 17.3678 3.8453 17.5256 3.46232ZM6.26542 21.9735C6.53326 21.6575 7.00652 21.6185 7.32249 21.8863C9.12385 23.4132 11.4535 24.3334 14.0001 24.3334C15.2431 24.3334 16.4333 24.1143 17.5352 23.7131C17.9244 23.5714 18.3548 23.7721 18.4965 24.1613C18.6382 24.5505 18.4375 24.9809 18.0483 25.1226C16.7844 25.5828 15.4207 25.8334 14.0001 25.8334C11.0852 25.8334 8.41473 24.7785 6.35258 23.0305C6.03661 22.7627 5.99759 22.2894 6.26542 21.9735Z" fill="#332A2A"/>
<path d="M9.07837 15.3045L12.6885 18.6802L16.2987 14.0386M19.9089 9.39697L18.1038 11.7178" stroke="#2C6724" stroke-width="1.5" stroke-linecap="round" stroke-linejoin="round"/>
</g>
<defs>
<clipPath id="clip0_1230_14833">
<rect width="28" height="28" fill="white"/>
</clipPath>
</defs>
</svg>
