<svg width="28" height="28" viewBox="0 0 28 28" fill="none" xmlns="http://www.w3.org/2000/svg">
<g clip-path="url(#clip0_1230_14858)">
<circle cx="14.0001" cy="14.0001" r="11.0833" fill="#E05149"/>
<path fill-rule="evenodd" clip-rule="evenodd" d="M3.66675 14.0001C3.66675 8.29314 8.29314 3.66675 14.0001 3.66675C14.4143 3.66675 14.7501 3.33096 14.7501 2.91675C14.7501 2.50253 14.4143 2.16675 14.0001 2.16675C7.46471 2.16675 2.16675 7.46471 2.16675 14.0001C2.16675 16.5523 2.9756 18.9179 4.35086 20.8514C4.59094 21.189 5.05919 21.268 5.39673 21.0279C5.73428 20.7878 5.81329 20.3196 5.57321 19.982C4.3726 18.294 3.66675 16.2306 3.66675 14.0001ZM18.5047 3.05454C18.1217 2.89676 17.6834 3.07933 17.5256 3.46232C17.3678 3.8453 17.5504 4.28368 17.9334 4.44146C19.4562 5.06883 20.7972 6.05019 21.8532 7.28367C23.3999 9.09032 24.3334 11.4352 24.3334 14.0001C24.3334 17.1609 22.9152 19.9897 20.6777 21.8863C20.3617 22.1541 20.3227 22.6274 20.5905 22.9434C20.8583 23.2593 21.3316 23.2984 21.6476 23.0305C24.2069 20.8611 25.8334 17.6201 25.8334 14.0001C25.8334 11.0642 24.7633 8.3763 22.9927 6.30816C21.7848 4.89726 20.2501 3.77356 18.5047 3.05454ZM7.32249 21.8863C7.00652 21.6185 6.53326 21.6575 6.26542 21.9735C5.99759 22.2894 6.03661 22.7627 6.35258 23.0305C8.41473 24.7785 11.0852 25.8334 14.0001 25.8334C15.4207 25.8334 16.7844 25.5828 18.0483 25.1226C18.4375 24.9809 18.6382 24.5505 18.4965 24.1613C18.3548 23.7721 17.9244 23.5714 17.5352 23.7131C16.4333 24.1143 15.2431 24.3334 14.0001 24.3334C11.4535 24.3334 9.12385 23.4132 7.32249 21.8863ZM20.5011 9.85757C20.7554 9.53061 20.6965 9.0594 20.3695 8.8051C20.0426 8.55079 19.5714 8.60969 19.3171 8.93666L17.512 11.2575C17.2577 11.5844 17.3166 12.0556 17.6435 12.3099C17.9705 12.5642 18.4417 12.5053 18.696 12.1784L20.5011 9.85757ZM16.8909 14.4992C17.1452 14.1722 17.0863 13.701 16.7594 13.4467C16.4324 13.1924 15.9612 13.2513 15.7069 13.5783L12.601 17.5716L9.59083 14.7568C9.28827 14.4739 8.81367 14.4899 8.53076 14.7924C8.24786 15.095 8.26378 15.5696 8.56633 15.8525L12.1765 19.2282C12.3304 19.3721 12.5378 19.4447 12.7479 19.4281C12.958 19.4114 13.1514 19.3072 13.2808 19.1408L16.8909 14.4992Z" fill="#332A2A"/>
</g>
<defs>
<clipPath id="clip0_1230_14858">
<rect width="28" height="28" fill="white"/>
</clipPath>
</defs>
</svg>
