<svg width="23" height="23" viewBox="0 0 23 23" fill="none" xmlns="http://www.w3.org/2000/svg">
<g clip-path="url(#clip0_2264_13497)">
<circle cx="11.4981" cy="11.4759" r="9.58526" fill="#E05149"/>
<path d="M17.3672 3.86719C17.6151 3.58908 18.042 3.56388 18.3203 3.81152C20.4288 5.68969 21.7587 8.42814 21.7588 11.4756C21.7588 17.1421 17.1645 21.7362 11.498 21.7363C8.55598 21.7362 5.90219 20.4967 4.03223 18.5137C3.77649 18.2424 3.78833 17.8143 4.05957 17.5586C4.33072 17.3032 4.75798 17.3161 5.01367 17.5869C6.63923 19.311 8.94282 20.3857 11.498 20.3857C16.4189 20.3856 20.4082 16.3965 20.4082 11.4756C20.4081 8.82944 19.2557 6.45315 17.4229 4.82031C17.1445 4.5724 17.1194 4.14556 17.3672 3.86719ZM11.498 1.21582C12.9538 1.21586 14.3414 1.51936 15.5977 2.06738C15.9389 2.21659 16.0952 2.61456 15.9463 2.95605C15.7972 3.29762 15.3992 3.45354 15.0576 3.30469C13.9684 2.82954 12.7646 2.56547 11.498 2.56543C6.57731 2.56559 2.58809 6.55486 2.58789 11.4756C2.58789 12.8157 2.88353 14.0852 3.41211 15.2236C3.56903 15.5617 3.42191 15.963 3.08398 16.1201C2.7459 16.277 2.3445 16.13 2.1875 15.792C1.57797 14.4792 1.23828 13.016 1.23828 11.4756C1.23848 5.80927 5.83172 1.21598 11.498 1.21582ZM11.5 4.21777C11.8728 4.21777 12.1748 4.51979 12.1748 4.89258V11.249L15.207 14.7871C15.4496 15.0701 15.4168 15.4966 15.1338 15.7393C14.8507 15.9819 14.4243 15.9491 14.1816 15.666L10.9873 11.9395C10.9777 11.9282 10.9707 11.915 10.9619 11.9033C10.9498 11.8872 10.9384 11.8707 10.9277 11.8535C10.9152 11.8333 10.9037 11.8131 10.8936 11.792C10.8845 11.7732 10.8765 11.7541 10.8691 11.7344C10.8605 11.7112 10.8536 11.6878 10.8477 11.6641C10.8434 11.647 10.8389 11.6299 10.8359 11.6123C10.8314 11.5854 10.8294 11.5584 10.8281 11.5312C10.8276 11.5209 10.8252 11.5105 10.8252 11.5V4.89258C10.8252 4.51979 11.1272 4.21777 11.5 4.21777Z" fill="#332A2A"/>
</g>
<defs>
<clipPath id="clip0_2264_13497">
<rect width="23" height="23" fill="white"/>
</clipPath>
</defs>
</svg>
