<svg width="18" height="18" viewBox="0 0 18 18" fill="none" xmlns="http://www.w3.org/2000/svg">
<g clip-path="url(#clip0_2264_13498)">
<circle cx="8.99858" cy="8.981" r="7.50151" fill="#E05149"/>
<path d="M13.5195 2.96191C13.7491 2.70435 14.1447 2.68163 14.4023 2.91113C16.0721 4.3986 17.1249 6.56781 17.125 8.98145C17.1248 13.4692 13.4868 17.1071 8.99902 17.1074C6.6685 17.1074 4.566 16.1255 3.08496 14.5547C2.84824 14.3035 2.85924 13.9077 3.11035 13.6709C3.36145 13.4343 3.75737 13.4463 3.99414 13.6973C5.24885 15.028 7.02688 15.8574 8.99902 15.8574C12.7964 15.8571 15.8748 12.7789 15.875 8.98145C15.8749 6.93912 14.9852 5.10505 13.5703 3.84473C13.3126 3.61513 13.29 3.21965 13.5195 2.96191ZM8.99902 0.854492C10.1518 0.854566 11.2501 1.09523 12.2451 1.5293C12.5613 1.66725 12.706 2.03531 12.5684 2.35156C12.4303 2.66794 12.0615 2.81282 11.7451 2.6748C10.9048 2.30827 9.97649 2.10457 8.99902 2.10449C5.20129 2.10449 2.12217 5.18374 2.12207 8.98145C2.12214 10.0156 2.35011 10.9948 2.75781 11.873C2.90316 12.1861 2.76707 12.5577 2.4541 12.7031C2.14104 12.8485 1.76939 12.7125 1.62402 12.3994C1.14133 11.3597 0.872135 10.2011 0.87207 8.98145C0.872169 4.49338 4.51094 0.854492 8.99902 0.854492ZM9 3.30859C9.34505 3.30859 9.6248 3.58859 9.625 3.93359V8.76758L11.9746 11.5098C12.1992 11.7718 12.1692 12.167 11.9072 12.3916C11.6451 12.6162 11.25 12.5853 11.0254 12.3232L8.52539 9.40723C8.51806 9.39867 8.51265 9.38871 8.50586 9.37988C8.49229 9.36226 8.47943 9.34424 8.46777 9.3252C8.45709 9.30774 8.44825 9.28965 8.43945 9.27148C8.43075 9.25353 8.42203 9.23566 8.41504 9.2168C8.40755 9.19655 8.40179 9.17601 8.39648 9.15527C8.39195 9.13758 8.38776 9.11983 8.38477 9.10156C8.38099 9.07851 8.37911 9.05546 8.37793 9.03223C8.37739 9.02157 8.375 9.0108 8.375 9V3.93359C8.3752 3.58859 8.65495 3.30859 9 3.30859Z" fill="#332A2A"/>
</g>
<defs>
<clipPath id="clip0_2264_13498">
<rect width="18" height="18" fill="white"/>
</clipPath>
</defs>
</svg>
