<svg width="28" height="28" viewBox="0 0 28 28" fill="none" xmlns="http://www.w3.org/2000/svg">
<g clip-path="url(#clip0_2264_13496)">
<circle cx="13.9976" cy="13.9708" r="11.669" fill="#E05149"/>
<path d="M21.1963 4.75586C21.4718 4.44676 21.9466 4.41889 22.2559 4.69434C24.808 6.96783 26.417 10.2821 26.417 13.9707C26.417 20.8294 20.8567 26.3894 13.998 26.3896C10.4369 26.3896 7.22449 24.8897 4.96094 22.4893C4.67678 22.1879 4.69081 21.7129 4.99219 21.4287C5.29358 21.1449 5.76772 21.1587 6.05176 21.46C8.04374 23.5726 10.8667 24.8896 13.998 24.8896C20.0282 24.8894 24.917 20.0009 24.917 13.9707C24.917 10.7277 23.504 7.81538 21.2578 5.81445C20.9486 5.53903 20.9211 5.06517 21.1963 4.75586ZM13.998 1.55176C15.7602 1.55182 17.4395 1.91974 18.96 2.58301C19.3389 2.74893 19.5121 3.19099 19.3467 3.57031C19.181 3.94952 18.7388 4.12229 18.3594 3.95703C17.0247 3.37487 15.5498 3.05182 13.998 3.05176C7.9677 3.0518 3.07914 7.94035 3.0791 13.9707C3.07911 15.6128 3.44108 17.1683 4.08887 18.5635C4.26308 18.939 4.09989 19.385 3.72461 19.5596C3.34899 19.734 2.90303 19.5708 2.72852 19.1953C1.99067 17.6063 1.57911 15.8355 1.5791 13.9707C1.57914 7.11193 7.13927 1.5518 13.998 1.55176ZM14 4.97461C14.4142 4.97461 14.75 5.3104 14.75 5.72461V13.7217L18.458 18.0488C18.7276 18.3633 18.6914 18.8369 18.377 19.1064C18.0625 19.376 17.5889 19.3398 17.3193 19.0254L13.4307 14.4883C13.3884 14.439 13.3555 14.3848 13.3281 14.3291C13.3171 14.3066 13.3076 14.2835 13.2988 14.2598C13.2893 14.234 13.281 14.2081 13.2744 14.1816C13.2677 14.1547 13.2606 14.1276 13.2568 14.0996C13.256 14.0934 13.2546 14.0873 13.2539 14.0811C13.251 14.0544 13.25 14.0274 13.25 14V5.72461C13.25 5.3104 13.5858 4.97461 14 4.97461Z" fill="#332A2A"/>
</g>
<defs>
<clipPath id="clip0_2264_13496">
<rect width="28" height="28" fill="white"/>
</clipPath>
</defs>
</svg>
