<svg width="44" height="44" viewBox="0 0 44 44" fill="none" xmlns="http://www.w3.org/2000/svg">
<g clip-path="url(#clip0_2264_13463)">
<path d="M33.6279 7.75781C33.9034 7.44873 34.3773 7.42197 34.6865 7.69727C38.6099 11.192 41.083 16.2847 41.083 21.9541C41.0829 32.4955 32.5375 41.041 21.9961 41.041C16.5225 41.041 11.5859 38.7361 8.10645 35.0459C7.82234 34.7446 7.83647 34.2695 8.1377 33.9854C8.43902 33.7014 8.91315 33.7155 9.19727 34.0166C12.4051 37.4189 16.9524 39.541 21.9961 39.541C31.7091 39.541 39.5829 31.6671 39.583 21.9541C39.583 16.7305 37.3067 12.0396 33.6895 8.81738C33.3802 8.54192 33.3526 8.06712 33.6279 7.75781ZM21.9961 2.86719C24.7053 2.86719 27.2847 3.43201 29.6211 4.45117C30.0007 4.61677 30.1743 5.05885 30.0088 5.43848C29.8431 5.81799 29.4011 5.99176 29.0215 5.82617C26.8707 4.88794 24.4951 4.36719 21.9961 4.36719C12.2832 4.3673 4.40924 12.2412 4.40918 21.9541C4.40921 24.598 4.9925 27.1038 6.03613 29.3516C6.21041 29.7271 6.04719 30.1731 5.67188 30.3477C5.29626 30.522 4.85024 30.3589 4.67578 29.9834C3.54209 27.5418 2.90921 24.8207 2.90918 21.9541C2.90924 11.4128 11.4548 2.8673 21.9961 2.86719ZM22 6.99121C22.4142 6.99121 22.75 7.327 22.75 7.74121V21.7217L28.6807 28.6416C28.9501 28.956 28.9139 29.4297 28.5996 29.6992C28.2853 29.9687 27.8116 29.9323 27.542 29.6182L21.4307 22.4883C21.3875 22.4379 21.3547 22.3822 21.3271 22.3252C21.317 22.3044 21.307 22.2836 21.2988 22.2617C21.2889 22.2351 21.2812 22.208 21.2744 22.1807C21.2678 22.154 21.2605 22.1273 21.2568 22.0996C21.256 22.0934 21.2546 22.0873 21.2539 22.0811C21.251 22.0544 21.25 22.0274 21.25 22V7.74121C21.25 7.327 21.5858 6.99121 22 6.99121Z" fill="#332A2A"/>
</g>
<defs>
<clipPath id="clip0_2264_13463">
<rect width="44" height="44" fill="white"/>
</clipPath>
</defs>
</svg>
