<svg width="18" height="18" viewBox="0 0 18 18" fill="none" xmlns="http://www.w3.org/2000/svg">
<g clip-path="url(#clip0_2153_13492)">
<path d="M4.18628 1.62479C4.53113 1.62509 4.81117 1.90489 4.81128 2.24979C4.81128 2.59478 4.5312 2.87448 4.18628 2.87479H4.05737L4.64429 3.50662L6.20679 5.18924L8.8728 8.06033L11.5388 5.18924L13.1013 3.50662L14.6638 1.82498L14.7605 1.74002C14.8652 1.66595 14.9915 1.62479 15.1218 1.62479H16.0144C16.3593 1.62503 16.6393 1.90485 16.6394 2.24979C16.6394 2.59482 16.3594 2.87454 16.0144 2.87479H15.3943L14.0173 4.35721L12.4548 6.03983L9.72534 8.97928L14.0173 13.6023L15.3943 15.0847H16.0144C16.3593 15.085 16.6393 15.3648 16.6394 15.7097C16.6394 16.0548 16.3594 16.3345 16.0144 16.3347H13.5593C13.2142 16.3347 12.9343 16.0549 12.9343 15.7097C12.9344 15.3647 13.2143 15.0848 13.5593 15.0847H13.6882L13.1013 14.4529L11.5388 12.7703L8.8728 9.89822L6.20679 12.7703L3.08179 16.1355C2.96364 16.2626 2.79729 16.3346 2.62378 16.3347H1.7312C1.38602 16.3347 1.1062 16.0549 1.1062 15.7097C1.10632 15.3647 1.3861 15.0847 1.7312 15.0847H2.35132L3.72827 13.6023L5.29077 11.9197L8.01929 8.97928L5.29077 6.03983L3.72827 4.35721L2.35132 2.87479H1.7312C1.38602 2.87479 1.1062 2.59496 1.1062 2.24979C1.10631 1.9047 1.38609 1.62479 1.7312 1.62479H4.18628Z" fill="#332A2A"/>
</g>
<defs>
<clipPath id="clip0_2153_13492">
<rect width="18" height="18" fill="white"/>
</clipPath>
</defs>
</svg>
