<svg width="23" height="23" viewBox="0 0 23 23" fill="none" xmlns="http://www.w3.org/2000/svg">
<g clip-path="url(#clip0_613_5737)">
<circle cx="11.4999" cy="11.5" r="9.10417" fill="#E05149"/>
<path fill-rule="evenodd" clip-rule="evenodd" d="M11.5001 3.07084C6.84481 3.07084 3.07095 6.84471 3.07095 11.5C3.07095 13.3196 3.64671 15.0027 4.62607 16.3796C4.84213 16.6834 4.77102 17.1048 4.46723 17.3209C4.16344 17.537 3.74201 17.4659 3.52595 17.1621C2.38941 15.5641 1.72095 13.6091 1.72095 11.5C1.72095 6.09912 6.09923 1.72084 11.5001 1.72084C11.8729 1.72084 12.1751 2.02305 12.1751 2.39584C12.1751 2.76863 11.8729 3.07084 11.5001 3.07084ZM14.3416 2.82154C14.4836 2.47685 14.8781 2.31254 15.2228 2.45454C16.6652 3.04877 17.9335 3.9774 18.9317 5.14332C20.3949 6.85242 21.2793 9.07379 21.2793 11.5C21.2793 14.4917 19.9351 17.1701 17.8201 18.9628C17.5357 19.2039 17.1098 19.1688 16.8687 18.8844C16.6277 18.6 16.6628 18.1741 16.9472 17.933C18.7725 16.3858 19.9293 14.0783 19.9293 11.5C19.9293 9.40775 19.1679 7.49504 17.9061 6.02128C17.0447 5.01503 15.9508 4.21451 14.7086 3.70277C14.3639 3.56077 14.1996 3.16623 14.3416 2.82154ZM5.10169 18.0115C5.34274 17.7271 5.76868 17.692 6.05306 17.933C7.5225 19.1786 9.42278 19.9292 11.5001 19.9292C12.5142 19.9292 13.485 19.7504 14.3838 19.4232C14.7341 19.2957 15.1214 19.4763 15.249 19.8266C15.3765 20.1769 15.1959 20.5642 14.8456 20.6918C13.801 21.072 12.674 21.2792 11.5001 21.2792C9.09126 21.2792 6.88429 20.4074 5.18014 18.9628C4.89576 18.7218 4.86064 18.2958 5.10169 18.0115ZM7.14127 8.07923C7.14127 7.70644 7.44348 7.40423 7.81627 7.40423H8.27676H9.08261C9.4554 7.40423 9.75761 7.70644 9.75761 8.07923C9.75761 8.24092 9.70076 8.38933 9.60596 8.50556L10.3797 9.3267L11.5002 10.5157L12.6206 9.3267L13.4265 8.47151L14.2323 7.61632C14.3599 7.48096 14.5376 7.40423 14.7236 7.40423H15.1841C15.5569 7.40423 15.8591 7.70644 15.8591 8.07923C15.8591 8.45202 15.5569 8.75423 15.1841 8.75423H15.015L14.409 9.39734L13.6031 10.2525L12.4276 11.5L13.6031 12.7475L14.409 13.6027L15.015 14.2458H15.1841C15.5569 14.2458 15.8591 14.548 15.8591 14.9208C15.8591 15.2935 15.5569 15.5958 15.1841 15.5958H14.7236H13.9177C13.5449 15.5958 13.2427 15.2935 13.2427 14.9208C13.2427 14.7591 13.2996 14.6107 13.3944 14.4944L12.6206 13.6733L11.5002 12.4842L10.3797 13.6733L9.57387 14.5285L8.76802 15.3837C8.64047 15.519 8.46274 15.5958 8.27676 15.5958H7.81627C7.44348 15.5958 7.14127 15.2935 7.14127 14.9208C7.14127 14.548 7.44348 14.2458 7.81627 14.2458H7.98535L8.59135 13.6027L9.39721 12.7475L10.5727 11.5L9.39721 10.2525L8.59135 9.39734L7.98535 8.75423H7.81627C7.44348 8.75423 7.14127 8.45202 7.14127 8.07923Z" fill="#252323"/>
</g>
<defs>
<clipPath id="clip0_613_5737">
<rect width="23" height="23" fill="white"/>
</clipPath>
</defs>
</svg>
