<svg width="44" height="44" viewBox="0 0 44 44" fill="none" xmlns="http://www.w3.org/2000/svg">
<g clip-path="url(#clip0_190_552)">
<circle cx="21.9999" cy="22" r="17.4167" fill="#E05149"/>
<path fill-rule="evenodd" clip-rule="evenodd" d="M21.9999 5.33335C12.7952 5.33335 5.33325 12.7953 5.33325 22C5.33325 25.597 6.47188 28.9259 8.40845 31.6487C8.64853 31.9862 8.56952 32.4545 8.23197 32.6945C7.89443 32.9346 7.42618 32.8556 7.1861 32.518C5.07488 29.5497 3.83325 25.9187 3.83325 22C3.83325 11.9668 11.9667 3.83335 21.9999 3.83335C22.4141 3.83335 22.7499 4.16914 22.7499 4.58335C22.7499 4.99756 22.4141 5.33335 21.9999 5.33335ZM27.9362 5.60392C28.094 5.22093 28.5324 5.03836 28.9154 5.19614C31.5945 6.29985 33.9509 8.02499 35.8056 10.1914C38.524 13.3667 40.1666 17.4925 40.1666 22C40.1666 27.5575 37.6702 32.5326 33.7403 35.8638C33.4243 36.1316 32.9511 36.0926 32.6832 35.7766C32.4154 35.4607 32.4544 34.9874 32.7704 34.7196C36.3784 31.6612 38.6666 27.0982 38.6666 22C38.6666 17.8635 37.1606 14.0807 34.6661 11.1669C32.9633 9.17792 30.8007 7.59512 28.344 6.58306C27.961 6.42528 27.7785 5.98691 27.9362 5.60392ZM10.1724 34.8067C10.4402 34.4908 10.9135 34.4517 11.2295 34.7196C14.1347 37.1822 17.893 38.6667 21.9999 38.6667C24.004 38.6667 25.9239 38.3133 27.7017 37.6661C28.0909 37.5244 28.5213 37.725 28.663 38.1143C28.8047 38.5035 28.604 38.9339 28.2148 39.0756C26.2749 39.7818 24.1815 40.1667 21.9999 40.1667C17.5246 40.1667 13.4255 38.5475 10.2595 35.8638C9.94357 35.596 9.90454 35.1227 10.1724 34.8067ZM14.2025 15.4559C14.2025 15.0417 14.5382 14.7059 14.9525 14.7059H15.8334H17.375C17.7892 14.7059 18.125 15.0417 18.125 15.4559C18.125 15.8095 17.8803 16.1059 17.5511 16.1852L17.9209 16.5776L19.4625 18.2136L21.9999 20.9064L24.5373 18.2136L26.079 16.5776L27.6206 14.9416C27.7623 14.7912 27.9598 14.7059 28.1664 14.7059H29.0474C29.4616 14.7059 29.7974 15.0417 29.7974 15.4559C29.7974 15.8701 29.4616 16.2059 29.0474 16.2059H28.4902L27.1707 17.6063L25.629 19.2423L23.0304 22L25.629 24.7577L27.1707 26.3937L28.4902 27.7941H29.0474C29.4616 27.7941 29.7974 28.1298 29.7974 28.5441C29.7974 28.9583 29.4616 29.2941 29.0474 29.2941H28.1664H26.6248C26.2106 29.2941 25.8748 28.9583 25.8748 28.5441C25.8748 28.1905 26.1195 27.894 26.4488 27.8148L26.079 27.4224L24.5373 25.7864L21.9999 23.0936L19.4625 25.7864L17.9209 27.4224L16.3792 29.0584C16.2375 29.2088 16.04 29.2941 15.8334 29.2941H14.9525C14.5382 29.2941 14.2025 28.9583 14.2025 28.5441C14.2025 28.1298 14.5382 27.7941 14.9525 27.7941H15.5096L16.8292 26.3937L18.3708 24.7577L20.9694 22L18.3708 19.2423L16.8292 17.6063L15.5096 16.2059H14.9525C14.5382 16.2059 14.2025 15.8701 14.2025 15.4559Z" fill="#252323"/>
</g>
<defs>
<clipPath id="clip0_190_552">
<rect width="44" height="44" fill="white"/>
</clipPath>
</defs>
</svg>
