<svg width="23" height="23" viewBox="0 0 23 23" fill="none" xmlns="http://www.w3.org/2000/svg">
<g clip-path="url(#clip0_1218_14025)">
<path d="M9.00757 7.32924C9.38024 7.32938 9.68237 7.63134 9.68237 8.00404C9.68237 8.16562 9.62276 8.31167 9.52808 8.42787L9.7146 8.62611L11.4246 10.4406L12.5457 9.25111L13.3513 8.39662L14.157 7.54115C14.2845 7.40582 14.4622 7.32926 14.6482 7.32924H15.1091C15.4818 7.32944 15.7839 7.63137 15.7839 8.00404C15.7839 8.37671 15.4818 8.67865 15.1091 8.67885H14.9402L14.3337 9.3224L13.5281 10.1769L12.3513 11.424L14.3337 13.5275L14.9402 14.171H15.1091C15.4818 14.1712 15.7839 14.4732 15.7839 14.8458C15.7838 15.2184 15.4817 15.5204 15.1091 15.5206H13.8425C13.4698 15.5206 13.1679 15.2185 13.1677 14.8458C13.1677 14.6842 13.2263 14.5373 13.321 14.421L11.4246 12.4083L10.3044 13.5978L8.69312 15.3087L8.58862 15.3986C8.47617 15.4773 8.34135 15.5206 8.2019 15.5206H7.74097C7.36827 15.5206 7.06631 15.2185 7.06616 14.8458C7.06616 14.473 7.36817 14.171 7.74097 14.171H7.90991L8.51636 13.5275L9.32202 12.672L10.4968 11.424L9.32202 10.1769L8.51636 9.3224L7.90991 8.67885H7.74097C7.36817 8.67885 7.06616 8.37684 7.06616 8.00404C7.06616 7.63125 7.36817 7.32924 7.74097 7.32924H9.00757Z" fill="#332A2A"/>
</g>
<defs>
<clipPath id="clip0_1218_14025">
<rect width="23" height="23" fill="white"/>
</clipPath>
</defs>
</svg>
