<svg width="23" height="23" viewBox="0 0 23 23" fill="none" xmlns="http://www.w3.org/2000/svg">
<g clip-path="url(#clip0_2153_13491)">
<path d="M5.34839 2.2C5.72106 2.20006 6.02309 2.50214 6.02319 2.8748C6.02319 3.24756 5.72113 3.54954 5.34839 3.54961H4.90015L5.84351 4.56523L11.3367 10.4822L14.8347 6.71562L16.8308 4.56523L18.8269 2.41582C18.9546 2.27837 19.1344 2.2 19.322 2.2H20.4626C20.8352 2.2002 21.1373 2.50223 21.1375 2.8748C21.1375 3.24747 20.8353 3.5494 20.4626 3.54961H19.616L17.8201 5.48418L15.824 7.63359L12.2576 11.4734L15.824 15.3143L17.8201 17.4646L19.616 19.3982H20.4626C20.8352 19.3984 21.1373 19.7014 21.1375 20.074C21.1373 20.4465 20.8351 20.7486 20.4626 20.7488H17.3259C16.9532 20.7488 16.6503 20.4467 16.6501 20.074C16.6503 19.7013 16.9532 19.3982 17.3259 19.3982H17.7732L16.8308 18.3836L11.3367 12.4656L7.8396 16.2332L5.84351 18.3836L3.84741 20.533C3.71972 20.6705 3.53996 20.7488 3.35229 20.7488H2.21167C1.83899 20.7488 1.53705 20.4467 1.53687 20.074C1.53697 19.7013 1.83894 19.3982 2.21167 19.3982H3.05835L4.85425 17.4646L6.85034 15.3143L10.4158 11.4744L4.85425 5.48418L3.05835 3.54961H2.21167C1.83888 3.54961 1.53687 3.24759 1.53687 2.8748C1.53697 2.5021 1.83894 2.2 2.21167 2.2H5.34839Z" fill="#332A2A"/>
</g>
<defs>
<clipPath id="clip0_2153_13491">
<rect width="23" height="23" fill="white"/>
</clipPath>
</defs>
</svg>
