<svg width="28" height="28" viewBox="0 0 28 28" fill="none" xmlns="http://www.w3.org/2000/svg">
<g clip-path="url(#clip0_2153_13490)">
<path d="M6.5105 2.74979C6.92465 2.74979 7.26039 3.08566 7.2605 3.49979C7.2605 3.914 6.92471 4.24979 6.5105 4.24979H5.80151L7.0603 5.60623L9.49097 8.22342L10.4392 9.2449L13.8015 12.866L18.1121 8.22342L20.5417 5.60623L22.9724 2.98904L23.0281 2.93533C23.1641 2.81639 23.3398 2.74983 23.5222 2.74979H24.9099C25.3241 2.74979 25.6598 3.08566 25.6599 3.49979C25.6599 3.914 25.3241 4.24979 24.9099 4.24979H23.8494L21.6414 6.62772L19.2107 9.2449L14.825 13.9685L21.6414 21.3103L23.8484 23.6873H24.9099C25.324 23.6873 25.6597 24.0233 25.6599 24.4373C25.6599 24.8515 25.3241 25.1873 24.9099 25.1873H21.0916C20.6775 25.1872 20.3416 24.8514 20.3416 24.4373C20.3418 24.0234 20.6776 23.6874 21.0916 23.6873H21.8015L20.5417 22.3308L18.1121 19.7137L13.8015 15.0711L9.49097 19.7137L7.0603 22.3308L4.63062 24.948C4.48871 25.1009 4.28936 25.1873 4.08081 25.1873H2.69214C2.27801 25.1872 1.94214 24.8514 1.94214 24.4373C1.94239 24.0233 2.27816 23.6874 2.69214 23.6873H3.75366L5.96167 21.3103L8.39136 18.6931L12.7771 13.9685L8.39136 9.2449L5.96167 6.62772L3.75366 4.24979H2.69214C2.27801 4.24969 1.94214 3.91394 1.94214 3.49979C1.94224 3.08572 2.27807 2.74988 2.69214 2.74979H6.5105Z" fill="#332A2A"/>
</g>
<defs>
<clipPath id="clip0_2153_13490">
<rect width="28" height="28" fill="white"/>
</clipPath>
</defs>
</svg>
