<svg width="28" height="28" viewBox="0 0 28 28" fill="none" xmlns="http://www.w3.org/2000/svg">
<g clip-path="url(#clip0_1218_14026)">
<path fill-rule="evenodd" clip-rule="evenodd" d="M9.51538 9.08559C9.10117 9.08559 8.76538 9.42137 8.76538 9.83559C8.76538 10.2498 9.10117 10.5856 9.51538 10.5856H9.75219L10.5112 11.391L11.4922 12.4321L12.9696 14L11.4922 15.5678L10.5112 16.6089L9.75219 17.4144H9.51538C9.10117 17.4144 8.76538 17.7502 8.76538 18.1644C8.76538 18.5786 9.10117 18.9144 9.51538 18.9144H10.076C10.2826 18.9144 10.4801 18.8291 10.6218 18.6788L11.6029 17.6376L12.5839 16.5965L14.0001 15.0936L15.4164 16.5965L16.3974 17.6376L16.4033 17.6439C16.2732 17.7788 16.1932 17.9622 16.1932 18.1644C16.1932 18.5786 16.529 18.9144 16.9432 18.9144H17.9243H18.4849C18.8991 18.9144 19.2349 18.5786 19.2349 18.1644C19.2349 17.7502 18.8991 17.4144 18.4849 17.4144H18.2481L17.4891 16.6089L16.508 15.5678L15.0306 14L16.508 12.4321L17.4891 11.391L18.2481 10.5856H18.4849C18.8991 10.5856 19.2349 10.2498 19.2349 9.83559C19.2349 9.42137 18.8991 9.08559 18.4849 9.08559H17.9243C17.7176 9.08559 17.5202 9.17084 17.3784 9.32124L16.3974 10.3623L15.4164 11.4034L14.0001 12.9064L12.5839 11.4034L11.6029 10.3623L11.597 10.3561C11.727 10.2212 11.807 10.0377 11.807 9.83559C11.807 9.42137 11.4712 9.08559 11.057 9.08559H10.076H9.51538Z" fill="#332A2A"/>
</g>
<defs>
<clipPath id="clip0_1218_14026">
<rect width="28" height="28" fill="white"/>
</clipPath>
</defs>
</svg>
