<svg width="18" height="18" viewBox="0 0 18 18" fill="none" xmlns="http://www.w3.org/2000/svg">
<g clip-path="url(#clip0_613_5744)">
<circle cx="9" cy="9" r="7.125" fill="#E05149"/>
<path fill-rule="evenodd" clip-rule="evenodd" d="M9 2.50001C5.41015 2.50001 2.5 5.41016 2.5 9.00001C2.5 10.4033 2.94396 11.701 3.69914 12.7628C3.89921 13.044 3.83336 13.4343 3.55208 13.6343C3.27079 13.8344 2.88058 13.7685 2.68051 13.4873C1.77978 12.2208 1.25 10.6714 1.25 9.00001C1.25 4.7198 4.71979 1.25001 9 1.25001C9.34518 1.25001 9.625 1.52983 9.625 1.87501C9.625 2.22019 9.34518 2.50001 9 2.50001ZM11.1343 2.17131C11.2658 1.85216 11.6311 1.70002 11.9503 1.8315C13.0934 2.30246 14.0985 3.03839 14.8895 3.96229C16.049 5.31672 16.75 7.0773 16.75 9.00001C16.75 11.3709 15.6846 13.4936 14.0086 14.9143C13.7453 15.1375 13.3509 15.1049 13.1277 14.8416C12.9045 14.5783 12.9371 14.1839 13.2004 13.9607C14.6081 12.7675 15.5 10.9882 15.5 9.00001C15.5 7.38652 14.9129 5.91174 13.9399 4.77522C13.2755 3.99916 12.4319 3.38185 11.4741 2.98727C11.155 2.85578 11.0028 2.49047 11.1343 2.17131ZM3.91874 14.0334C4.14194 13.7701 4.53633 13.7375 4.79964 13.9607C5.93281 14.9213 7.39802 15.5 9 15.5C9.78219 15.5 10.5308 15.3621 11.2237 15.1099C11.548 14.9918 11.9067 15.159 12.0248 15.4834C12.1429 15.8077 11.9757 16.1664 11.6513 16.2845C10.8233 16.5859 9.93014 16.75 9 16.75C7.09105 16.75 5.34188 16.059 3.99138 14.9143C3.72807 14.6911 3.69555 14.2967 3.91874 14.0334ZM5.4917 6.32288C5.4917 5.9777 5.77152 5.69788 6.1167 5.69788H6.47708H7.10775C7.45293 5.69788 7.73275 5.9777 7.73275 6.32288C7.73275 6.44181 7.69953 6.55299 7.64186 6.64763L8.19328 7.23281L8.99975 8.08866L9.80622 7.23281L10.4369 6.56353L11.0676 5.89426C11.1856 5.76893 11.3502 5.69788 11.5224 5.69788H11.8828C12.228 5.69788 12.5078 5.9777 12.5078 6.32288C12.5078 6.66806 12.228 6.94788 11.8828 6.94788H11.7922L11.3466 7.42079L10.716 8.09007L9.85852 9L10.716 9.90993L11.3466 10.5792L11.7922 11.0521H11.8828C12.228 11.0521 12.5078 11.3319 12.5078 11.6771C12.5078 12.0223 12.228 12.3021 11.8828 12.3021H11.5224H10.8918C10.5466 12.3021 10.2668 12.0223 10.2668 11.6771C10.2668 11.5582 10.3 11.447 10.3576 11.3524L9.80622 10.7672L8.99975 9.91134L8.19328 10.7672L7.56262 11.4365L6.93195 12.1057C6.81385 12.2311 6.64928 12.3021 6.47708 12.3021H6.1167C5.77152 12.3021 5.4917 12.0223 5.4917 11.6771C5.4917 11.3319 5.77152 11.0521 6.1167 11.0521H6.20726L6.65288 10.5792L7.28355 9.90993L8.14098 9L7.28355 8.09007L6.65288 7.42079L6.20726 6.94788H6.1167C5.77152 6.94788 5.4917 6.66806 5.4917 6.32288Z" fill="#252323"/>
</g>
<defs>
<clipPath id="clip0_613_5744">
<rect width="18" height="18" fill="white"/>
</clipPath>
</defs>
</svg>
