<svg width="44" height="44" viewBox="0 0 44 44" fill="none" xmlns="http://www.w3.org/2000/svg">
<g clip-path="url(#clip0_613_5797)">
<path d="M10.1721 34.807C10.4399 34.491 10.9138 34.4513 11.2297 34.7191C14.1349 37.1817 17.8933 38.6664 22.0002 38.6664C24.0041 38.6663 25.9238 38.3135 27.7014 37.6664C28.0906 37.5247 28.5216 37.7254 28.6633 38.1146C28.8047 38.5036 28.604 38.9338 28.2151 39.0755C26.2753 39.7817 24.1817 40.1663 22.0002 40.1664C17.525 40.1664 13.426 38.5472 10.26 35.8636C9.94413 35.5959 9.90454 35.123 10.1721 34.807ZM27.9358 5.60386C28.0935 5.22096 28.5324 5.03807 28.9153 5.19566C31.5944 6.29937 33.9512 8.02531 35.8059 10.1917C38.5241 13.3669 40.1663 17.4929 40.1663 22.0003C40.1662 27.5576 37.6702 32.5325 33.7405 35.8636C33.4245 36.1315 32.9507 36.0927 32.6829 35.7767C32.4152 35.4607 32.4548 34.9869 32.7708 34.7191C36.3785 31.6608 38.6662 27.0982 38.6663 22.0003C38.6663 17.864 37.1606 14.081 34.6663 11.1673C32.9634 9.17834 30.8006 7.59541 28.344 6.58335C27.961 6.42559 27.7781 5.98682 27.9358 5.60386ZM22.0002 3.83335C22.4143 3.83353 22.7502 4.16925 22.7502 4.58335C22.7502 4.99746 22.4143 5.33317 22.0002 5.33335C12.7955 5.33335 5.33325 12.7956 5.33325 22.0003C5.33332 25.5972 6.47193 28.9261 8.40845 31.6488C8.64845 31.9863 8.56921 32.4546 8.23169 32.6947C7.89416 32.9345 7.42581 32.8554 7.18579 32.5179C5.07473 29.5497 3.83332 25.9188 3.83325 22.0003C3.83325 11.9672 11.9671 3.83335 22.0002 3.83335ZM17.3752 14.7064C17.7893 14.7066 18.1252 15.0423 18.1252 15.4564C18.125 15.8102 17.8788 16.1042 17.5491 16.183L17.9211 16.5785L19.4622 18.2142L21.9993 20.9056L24.5374 18.2142L26.0793 16.5785L27.6204 14.9417L27.676 14.889C27.8116 14.7719 27.9854 14.7064 28.1663 14.7064H29.0471C29.4613 14.7064 29.7971 15.0422 29.7971 15.4564C29.7969 15.8704 29.4612 16.2064 29.0471 16.2064H28.4905L27.1702 17.6068L25.6292 19.2425L23.0305 22.0003L25.6292 24.7582L27.1702 26.3939L28.4895 27.7943H29.0471C29.4613 27.7943 29.797 28.1302 29.7971 28.5443C29.7969 28.9583 29.4612 29.2943 29.0471 29.2943H26.6243C26.2105 29.294 25.8745 28.9581 25.8743 28.5443C25.8744 28.1904 26.1207 27.8955 26.4504 27.8167L26.0793 27.4232L24.5374 25.7865L21.9993 23.0941L19.4622 25.7865L17.9211 27.4232L16.3792 29.0589C16.2375 29.2091 16.0397 29.2943 15.8333 29.2943H14.9524C14.5384 29.2943 14.2026 28.9583 14.2024 28.5443C14.2025 28.1302 14.5383 27.7943 14.9524 27.7943H15.51L16.8293 26.3939L18.3704 24.7582L20.969 22.0003L18.3704 19.2425L16.8293 17.6068L15.509 16.2064H14.9524C14.5384 16.2064 14.2026 15.8704 14.2024 15.4564C14.2024 15.0422 14.5382 14.7064 14.9524 14.7064H17.3752Z" fill="#332A2A"/>
</g>
<defs>
<clipPath id="clip0_613_5797">
<rect width="44" height="44" fill="white"/>
</clipPath>
</defs>
</svg>
