<svg width="18" height="18" viewBox="0 0 18 18" fill="none" xmlns="http://www.w3.org/2000/svg">
<g clip-path="url(#clip0_1218_14024)">
<path fill-rule="evenodd" clip-rule="evenodd" d="M6.1167 5.69788C5.77152 5.69788 5.4917 5.9777 5.4917 6.32288C5.4917 6.66805 5.77152 6.94788 6.1167 6.94788H6.20726L6.65288 7.42078L7.28355 8.09006L8.14098 8.99999L7.28355 9.90993L6.65288 10.5792L6.20726 11.0521H6.1167C5.77152 11.0521 5.4917 11.3319 5.4917 11.6771C5.4917 12.0223 5.77152 12.3021 6.1167 12.3021H6.47708C6.64928 12.3021 6.81385 12.2311 6.93195 12.1057L7.56262 11.4365L8.19328 10.7672L8.99975 9.91134L9.80622 10.7672L10.3576 11.3524C10.3 11.447 10.2668 11.5582 10.2668 11.6771C10.2668 12.0223 10.5466 12.3021 10.8918 12.3021H11.5224H11.8828C12.228 12.3021 12.5078 12.0223 12.5078 11.6771C12.5078 11.3319 12.228 11.0521 11.8828 11.0521H11.7922L11.3466 10.5792L10.716 9.90993L9.85852 8.99999L10.716 8.09006L11.3466 7.42078L11.7922 6.94788H11.8828C12.228 6.94788 12.5078 6.66805 12.5078 6.32288C12.5078 5.9777 12.228 5.69788 11.8828 5.69788H11.5224C11.3502 5.69788 11.1856 5.76892 11.0676 5.89425L10.4369 6.56353L9.80622 7.23281L8.99975 8.08865L8.19328 7.23281L7.64186 6.64763C7.69953 6.55298 7.73275 6.44181 7.73275 6.32288C7.73275 5.9777 7.45293 5.69788 7.10775 5.69788H6.47708H6.1167Z" fill="#252323"/>
</g>
<defs>
<clipPath id="clip0_1218_14024">
<rect width="18" height="18" fill="white"/>
</clipPath>
</defs>
</svg>
