<svg width="24" height="23" viewBox="0 0 24 23" fill="none" xmlns="http://www.w3.org/2000/svg">
<g clip-path="url(#clip0_1218_14025)">
<path fill-rule="evenodd" clip-rule="evenodd" d="M8.56611 7.40424C8.19332 7.40424 7.89111 7.70644 7.89111 8.07924C7.89111 8.45203 8.19332 8.75424 8.56611 8.75424H8.73519L9.3412 9.39734L10.147 10.2525L11.3225 11.5L10.147 12.7475L9.3412 13.6027L8.73519 14.2458H8.56611C8.19332 14.2458 7.89111 14.548 7.89111 14.9208C7.89111 15.2936 8.19332 15.5958 8.56611 15.5958H9.0266C9.21258 15.5958 9.39031 15.519 9.51786 15.3837L10.3237 14.5285L11.1296 13.6733L12.25 12.4842L13.3705 13.6733L14.1442 14.4944C14.0494 14.6107 13.9926 14.7591 13.9926 14.9208C13.9926 15.2936 14.2948 15.5958 14.6676 15.5958H15.4734H15.9339C16.3067 15.5958 16.6089 15.2936 16.6089 14.9208C16.6089 14.548 16.3067 14.2458 15.9339 14.2458H15.7648L15.1588 13.6027L14.353 12.7475L13.1775 11.5L14.353 10.2525L15.1588 9.39734L15.7648 8.75424H15.9339C16.3067 8.75424 16.6089 8.45203 16.6089 8.07924C16.6089 7.70644 16.3067 7.40424 15.9339 7.40424H15.4734C15.2874 7.40424 15.1097 7.48097 14.9822 7.61632L14.1763 8.47151L13.3705 9.3267L12.25 10.5157L11.1296 9.3267L10.3558 8.50557C10.4506 8.38933 10.5075 8.24092 10.5075 8.07924C10.5075 7.70644 10.2052 7.40424 9.83245 7.40424H9.0266H8.56611Z" fill="#252323"/>
</g>
<defs>
<clipPath id="clip0_1218_14025">
<rect width="23" height="23" fill="white" transform="translate(0.75)"/>
</clipPath>
</defs>
</svg>
