<svg width="18" height="18" viewBox="0 0 18 18" fill="none" xmlns="http://www.w3.org/2000/svg">
<g clip-path="url(#clip0_1218_14024)">
<path d="M6.98291 5.57288C7.32801 5.57296 7.60791 5.85275 7.60791 6.19788C7.60791 6.31637 7.57241 6.42573 7.51514 6.52014L8.87451 7.96252L9.68115 7.10803L10.312 6.43811L10.9429 5.76917L11.0396 5.68616C11.1436 5.61339 11.268 5.57297 11.397 5.57288H11.7573C12.1025 5.57288 12.3823 5.8527 12.3823 6.19788C12.3823 6.54305 12.1025 6.82288 11.7573 6.82288H11.6665L11.2212 7.29553L10.5913 7.96545L9.73291 8.87463L11.2212 10.4537L11.6675 10.9274H11.7573C12.1025 10.9274 12.3823 11.2072 12.3823 11.5524C12.3822 11.8974 12.1024 12.1774 11.7573 12.1774H10.7671C10.422 12.1774 10.1422 11.8974 10.1421 11.5524C10.1421 11.4334 10.1762 11.3228 10.2339 11.2281L9.68115 10.6422L8.87451 9.78577L8.06787 10.6422L7.43799 11.3112L6.80713 11.9811C6.68904 12.1063 6.52421 12.1774 6.35205 12.1774H5.9917C5.64661 12.1774 5.36684 11.8974 5.3667 11.5524C5.3667 11.2072 5.64652 10.9274 5.9917 10.9274H6.08154L6.52783 10.4537L7.15869 9.78479L8.01514 8.87463L7.15869 7.96545L6.52783 7.29553L6.08252 6.82288H5.9917C5.64652 6.82288 5.3667 6.54305 5.3667 6.19788C5.3667 5.8527 5.64652 5.57288 5.9917 5.57288H6.98291Z" fill="#332A2A"/>
</g>
<defs>
<clipPath id="clip0_1218_14024">
<rect width="18" height="18" fill="white"/>
</clipPath>
</defs>
</svg>
