<svg width="44" height="44" viewBox="0 0 44 44" fill="none" xmlns="http://www.w3.org/2000/svg">
<g clip-path="url(#clip0_1218_14027)">
<path fill-rule="evenodd" clip-rule="evenodd" d="M14.9526 14.7059C14.5384 14.7059 14.2026 15.0417 14.2026 15.4559C14.2026 15.8701 14.5384 16.2059 14.9526 16.2059H15.5098L16.8294 17.6063L18.371 19.2423L20.9696 22L18.371 24.7577L16.8294 26.3937L15.5098 27.7941H14.9526C14.5384 27.7941 14.2026 28.1299 14.2026 28.5441C14.2026 28.9583 14.5384 29.2941 14.9526 29.2941H15.8336C16.0402 29.2941 16.2377 29.2088 16.3794 29.0584L17.921 27.4224L19.4627 25.7864L22.0001 23.0936L24.5375 25.7864L26.0791 27.4224L26.4489 27.8148C26.1197 27.894 25.875 28.1905 25.875 28.5441C25.875 28.9583 26.2108 29.2941 26.625 29.2941H28.1666H29.0476C29.4618 29.2941 29.7976 28.9583 29.7976 28.5441C29.7976 28.1299 29.4618 27.7941 29.0476 27.7941H28.4904L27.1708 26.3937L25.6292 24.7577L23.0306 22L25.6292 19.2423L27.1708 17.6063L28.4904 16.2059H29.0476C29.4618 16.2059 29.7976 15.8701 29.7976 15.4559C29.7976 15.0417 29.4618 14.7059 29.0476 14.7059H28.1666C27.96 14.7059 27.7625 14.7912 27.6208 14.9416L26.0791 16.5776L24.5375 18.2136L22.0001 20.9064L19.4627 18.2136L17.921 16.5776L17.5512 16.1852C17.8805 16.106 18.1252 15.8095 18.1252 15.4559C18.1252 15.0417 17.7894 14.7059 17.3752 14.7059H15.8336H14.9526Z" fill="#252323"/>
</g>
<defs>
<clipPath id="clip0_1218_14027">
<rect width="44" height="44" fill="white"/>
</clipPath>
</defs>
</svg>
