<svg width="23" height="23" viewBox="0 0 23 23" fill="none" xmlns="http://www.w3.org/2000/svg">
<g clip-path="url(#clip0_613_5799)">
<path d="M5.02661 17.9359C5.26772 17.6519 5.69354 17.6168 5.97778 17.8578C7.44722 19.1033 9.34773 19.8539 11.425 19.8539C12.439 19.8538 13.4102 19.6751 14.3088 19.348C14.659 19.2207 15.0466 19.4011 15.1741 19.7513C15.3015 20.1016 15.12 20.489 14.7698 20.6165C13.7254 20.9967 12.5987 21.2044 11.425 21.2044C9.01628 21.2044 6.80886 20.3325 5.10474 18.888C4.82036 18.647 4.78556 18.2203 5.02661 17.9359ZM14.2659 2.74643C14.4079 2.40174 14.803 2.23724 15.1477 2.37924C16.59 2.97347 17.8586 3.90187 18.8567 5.06772C20.3199 6.77682 21.2043 8.99892 21.2043 11.4251C21.2042 14.4167 19.8593 17.0953 17.7444 18.888C17.46 19.1287 17.0342 19.0932 16.7932 18.8089C16.5524 18.5246 16.5872 18.0988 16.8713 17.8578C18.6966 16.3106 19.8537 14.0033 19.8538 11.4251C19.8538 9.33288 19.092 7.41941 17.8303 5.94565C16.9689 4.93962 15.8751 4.13895 14.6331 3.62729C14.2886 3.48524 14.124 3.09101 14.2659 2.74643ZM11.425 1.64584C11.7977 1.64602 12.0999 1.94796 12.0999 2.32065C12.0999 2.69333 11.7977 2.99528 11.425 2.99545C6.76975 2.99545 2.99536 6.76984 2.99536 11.4251C2.99543 13.2445 3.57177 14.9272 4.55103 16.304C4.76707 16.6078 4.69553 17.0294 4.39185 17.2455C4.08812 17.4615 3.66655 17.3909 3.45044 17.0872C2.31396 15.4894 1.64582 13.5341 1.64575 11.4251C1.64575 6.02426 6.02416 1.64584 11.425 1.64584ZM9.00708 7.32944C9.37975 7.32958 9.68188 7.63154 9.68188 8.00424C9.68184 8.16574 9.62223 8.31192 9.52759 8.42807L9.71411 8.62631L11.4241 10.4408L12.5452 9.25131L13.3508 8.39682L14.1565 7.54135C14.2839 7.40612 14.4619 7.32957 14.6477 7.32944H15.1086C15.4813 7.32964 15.7834 7.63157 15.7834 8.00424C15.7833 8.37682 15.4812 8.67885 15.1086 8.67905H14.9397L14.3333 9.3226L13.5276 10.1771L12.3508 11.4242L14.3333 13.5277L14.9397 14.1712H15.1086C15.4813 14.1714 15.7834 14.4734 15.7834 14.846C15.7832 15.2185 15.4811 15.5206 15.1086 15.5208H13.842C13.4696 15.5206 13.1675 15.2185 13.1672 14.846C13.1672 14.6846 13.226 14.5374 13.3206 14.4212L11.4241 12.4085L10.304 13.598L8.69263 15.3089L8.58813 15.3988C8.47576 15.4773 8.34071 15.5208 8.20142 15.5208H7.74048C7.36803 15.5206 7.06593 15.2185 7.06567 14.846C7.06567 14.4734 7.36787 14.1715 7.74048 14.1712H7.90942L8.51587 13.5277L9.32153 12.6722L10.4963 11.4242L9.32153 10.1771L8.51587 9.3226L7.90942 8.67905H7.74048C7.36794 8.67883 7.06578 8.37681 7.06567 8.00424C7.06567 7.63158 7.36787 7.32965 7.74048 7.32944H9.00708Z" fill="#332A2A"/>
</g>
<defs>
<clipPath id="clip0_613_5799">
<rect width="23" height="23" fill="white"/>
</clipPath>
</defs>
</svg>
