<svg width="28" height="28" viewBox="0 0 28 28" fill="none" xmlns="http://www.w3.org/2000/svg">
<g clip-path="url(#clip0_613_5730)">
<circle cx="14.0001" cy="14" r="11.0833" fill="#E05149"/>
<path fill-rule="evenodd" clip-rule="evenodd" d="M14.0001 3.66668C8.29314 3.66668 3.66675 8.29307 3.66675 14C3.66675 16.2305 4.3726 18.2939 5.57321 19.982C5.81329 20.3195 5.73428 20.7878 5.39673 21.0279C5.05919 21.2679 4.59093 21.1889 4.35086 20.8514C2.9756 18.9178 2.16675 16.5522 2.16675 14C2.16675 7.46464 7.46471 2.16668 14.0001 2.16668C14.4143 2.16668 14.7501 2.50247 14.7501 2.91668C14.7501 3.33089 14.4143 3.66668 14.0001 3.66668ZM17.5256 3.46225C17.6834 3.07926 18.1217 2.89669 18.5047 3.05447C20.2501 3.77349 21.7848 4.89719 22.9927 6.30809C24.7633 8.37623 25.8334 11.0641 25.8334 14C25.8334 17.6201 24.2069 20.861 21.6476 23.0305C21.3316 23.2983 20.8583 23.2593 20.5905 22.9433C20.3227 22.6273 20.3617 22.1541 20.6777 21.8862C22.9152 19.9896 24.3334 17.1608 24.3334 14C24.3334 11.4352 23.3999 9.09025 21.8532 7.2836C20.7972 6.05012 19.4562 5.06876 17.9334 4.44139C17.5504 4.28361 17.3678 3.84523 17.5256 3.46225ZM6.26542 21.9734C6.53326 21.6574 7.00652 21.6184 7.32249 21.8862C9.12385 23.4131 11.4535 24.3333 14.0001 24.3333C15.2431 24.3333 16.4333 24.1142 17.5352 23.7131C17.9244 23.5714 18.3548 23.772 18.4965 24.1612C18.6382 24.5505 18.4375 24.9809 18.0483 25.1226C16.7844 25.5827 15.4207 25.8333 14.0001 25.8333C11.0852 25.8333 8.41473 24.7784 6.35258 23.0305C6.03661 22.7626 5.99759 22.2894 6.26542 21.9734ZM8.76551 9.83559C8.76551 9.42138 9.10129 9.08559 9.51551 9.08559H10.0761H11.0571C11.4714 9.08559 11.8071 9.42138 11.8071 9.83559C11.8071 10.0378 11.7272 10.2212 11.5971 10.3561L11.603 10.3623L12.584 11.4034L14.0003 12.9064L15.4165 11.4034L16.3975 10.3623L17.3786 9.32124C17.5203 9.17085 17.7178 9.08559 17.9244 9.08559H18.485C18.8992 9.08559 19.235 9.42138 19.235 9.83559C19.235 10.2498 18.8992 10.5856 18.485 10.5856H18.2482L17.4892 11.391L16.5082 12.4321L15.0308 14L16.5082 15.5679L17.4892 16.609L18.2482 17.4144H18.485C18.8992 17.4144 19.235 17.7502 19.235 18.1644C19.235 18.5786 18.8992 18.9144 18.485 18.9144H17.9244H16.9434C16.5292 18.9144 16.1934 18.5786 16.1934 18.1644C16.1934 17.9622 16.2733 17.7788 16.4034 17.6439L16.3975 17.6377L15.4165 16.5966L14.0003 15.0936L12.584 16.5966L11.603 17.6377L10.6219 18.6788C10.4802 18.8291 10.2827 18.9144 10.0761 18.9144H9.51551C9.10129 18.9144 8.76551 18.5786 8.76551 18.1644C8.76551 17.7502 9.10129 17.4144 9.51551 17.4144H9.75231L10.5113 16.609L11.4923 15.5679L12.9697 14L11.4923 12.4321L10.5113 11.391L9.75231 10.5856H9.51551C9.10129 10.5856 8.76551 10.2498 8.76551 9.83559Z" fill="#252323"/>
</g>
<defs>
<clipPath id="clip0_613_5730">
<rect width="28" height="28" fill="white"/>
</clipPath>
</defs>
</svg>
