<svg width="44" height="44" viewBox="0 0 44 44" fill="none" xmlns="http://www.w3.org/2000/svg">
<g clip-path="url(#clip0_2153_13489)">
<path d="M10.2322 4.74979C10.6461 4.75007 10.9821 5.08583 10.9822 5.49979C10.9822 5.91383 10.6462 6.24951 10.2322 6.24979H8.13354L10.782 9.10233L14.6003 13.2146L21.6882 20.8474L28.7761 13.2146L32.5955 9.10233L36.4138 4.98904L36.4695 4.93533C36.6055 4.81645 36.7812 4.74979 36.9636 4.74979H39.1453C39.5592 4.75003 39.8952 5.08581 39.8953 5.49979C39.8953 5.91385 39.5593 6.24954 39.1453 6.24979H37.2908L33.6941 10.1228L29.8757 14.2361L22.7117 21.95L29.8757 29.6658L33.6941 33.7791L37.2908 37.6521H39.1453C39.5592 37.6524 39.8952 37.9882 39.8953 38.4021C39.8952 38.8161 39.5592 39.1519 39.1453 39.1521H33.1443C32.7303 39.1519 32.3944 38.8161 32.3943 38.4021C32.3944 37.9881 32.7303 37.6523 33.1443 37.6521H35.2439L32.5955 34.7996L28.7761 30.6863L21.6882 23.0525L14.6003 30.6863L10.782 34.7996L6.96265 38.9119C6.82095 39.0645 6.62204 39.1519 6.41382 39.1521H4.2312C3.81703 39.1521 3.48128 38.8163 3.4812 38.4021C3.4813 37.988 3.81705 37.6521 4.2312 37.6521H6.08569L9.68237 33.7791L13.5017 29.6658L20.6638 21.95L13.5017 14.2361L9.68237 10.1228L6.08569 6.24979H4.2312C3.81699 6.24979 3.4812 5.914 3.4812 5.49979C3.4813 5.08566 3.81705 4.74979 4.2312 4.74979H10.2322Z" fill="#332A2A"/>
</g>
<defs>
<clipPath id="clip0_2153_13489">
<rect width="44" height="44" fill="white"/>
</clipPath>
</defs>
</svg>
