<svg width="18" height="18" viewBox="0 0 18 18" fill="none" xmlns="http://www.w3.org/2000/svg">
<g clip-path="url(#clip0_613_5800)">
<path d="M4.04395 14.1582C4.26717 13.8951 4.66156 13.8628 4.9248 14.0859C6.05795 15.0464 7.52311 15.625 9.125 15.625C9.90719 15.625 10.6557 15.4866 11.3486 15.2344C11.6729 15.1164 12.0313 15.2841 12.1494 15.6084C12.2675 15.9327 12.1006 16.2911 11.7764 16.4092C10.9484 16.7106 10.0551 16.875 9.125 16.875C7.21605 16.875 5.46671 16.1838 4.11621 15.0391C3.85308 14.8158 3.82081 14.4215 4.04395 14.1582ZM11.2598 2.29591C11.3914 1.97717 11.7563 1.8248 12.0752 1.95606C13.2183 2.427 14.2237 3.16308 15.0146 4.08692C16.1742 5.44135 16.875 7.2023 16.875 9.12501C16.875 11.4958 15.8096 13.6184 14.1338 15.0391C13.8705 15.2622 13.4762 15.2299 13.2529 14.9668C13.0298 14.7036 13.0621 14.3092 13.3252 14.0859C14.7329 12.8927 15.625 11.1132 15.625 9.12501C15.625 7.51152 15.0374 6.03691 14.0645 4.9004C13.4001 4.1244 12.5564 3.50687 11.5986 3.11231C11.2797 2.98069 11.1283 2.61493 11.2598 2.29591ZM9.125 1.37501C9.47018 1.37501 9.75 1.65483 9.75 2.00001C9.75 2.34519 9.47018 2.62501 9.125 2.62501C5.53515 2.62501 2.625 5.53516 2.625 9.12501C2.625 10.5283 3.06903 11.8259 3.82422 12.8877C4.02428 13.169 3.95804 13.5597 3.67676 13.7598C3.39554 13.9594 3.00565 13.8934 2.80566 13.6123C1.90494 12.3459 1.375 10.7964 1.375 9.12501C1.375 4.8448 4.84479 1.37501 9.125 1.37501ZM7.2334 5.82325C7.57828 5.8236 7.8584 6.10329 7.8584 6.44825C7.85832 6.5666 7.82284 6.6762 7.76562 6.77052L9.125 8.2129L9.93164 7.35841L10.5625 6.68848L11.1934 6.01954L11.29 5.93653C11.3941 5.86383 11.5185 5.82334 11.6475 5.82325H12.0078C12.3528 5.82351 12.6328 6.10323 12.6328 6.44825C12.6326 6.7931 12.3526 7.07299 12.0078 7.07325H11.917L11.4717 7.54591L10.8418 8.21583L9.9834 9.12501L11.4717 10.7041L11.918 11.1777H12.0078C12.3528 11.178 12.6328 11.4577 12.6328 11.8027C12.6325 12.1475 12.3526 12.4275 12.0078 12.4277H11.0176C10.6726 12.4277 10.3929 12.1476 10.3926 11.8027C10.3926 11.6838 10.4267 11.5731 10.4844 11.4785L9.93164 10.8926L9.125 10.0361L8.31836 10.8926L7.68848 11.5615L7.05762 12.2315C6.93964 12.3566 6.77452 12.4276 6.60254 12.4277H6.24219C5.89722 12.4277 5.61752 12.1476 5.61719 11.8027C5.61719 11.4576 5.89701 11.1777 6.24219 11.1777H6.33203L6.77832 10.7041L7.40918 10.0352L8.26562 9.12501L7.40918 8.21583L6.77832 7.54591L6.33301 7.07325H6.24219C5.89713 7.07325 5.61739 6.79326 5.61719 6.44825C5.61719 6.10307 5.89701 5.82325 6.24219 5.82325H7.2334Z" fill="#332A2A"/>
</g>
<defs>
<clipPath id="clip0_613_5800">
<rect width="18" height="18" fill="white"/>
</clipPath>
</defs>
</svg>
