<svg width="44" height="44" viewBox="0 0 44 44" fill="none" xmlns="http://www.w3.org/2000/svg">
<g clip-path="url(#clip0_1218_14027)">
<path d="M17.3755 14.7059C17.7896 14.7061 18.1255 15.0418 18.1255 15.4559C18.1255 15.81 17.8792 16.1037 17.5493 16.1825L17.9214 16.578L19.4624 18.2137L21.9995 20.9052L24.5376 18.2137L26.0796 16.578L27.6206 14.9413L27.6763 14.8885C27.8118 14.7714 27.9856 14.706 28.1665 14.7059H29.0474C29.4616 14.7059 29.7974 15.0417 29.7974 15.4559C29.7974 15.8701 29.4616 16.2059 29.0474 16.2059H28.4907L27.1704 17.6063L25.6294 19.2421L23.0308 21.9999L25.6294 24.7577L27.1704 26.3934L28.4897 27.7938H29.0474C29.4615 27.7938 29.7972 28.1297 29.7974 28.5438C29.7974 28.958 29.4616 29.2938 29.0474 29.2938H26.6245C26.2105 29.2936 25.8745 28.9579 25.8745 28.5438C25.8746 28.1899 26.1208 27.895 26.4507 27.8163L26.0796 27.4227L24.5376 25.786L21.9995 23.0936L19.4624 25.786L17.9214 27.4227L16.3794 29.0585C16.2377 29.2088 16.0401 29.2938 15.8335 29.2938H14.9526C14.5384 29.2938 14.2026 28.958 14.2026 28.5438C14.2028 28.1297 14.5385 27.7938 14.9526 27.7938H15.5103L16.8296 26.3934L18.3706 24.7577L20.9692 21.9999L18.3706 19.2421L16.8296 17.6063L15.5093 16.2059H14.9526C14.5384 16.2059 14.2026 15.8701 14.2026 15.4559C14.2026 15.0417 14.5384 14.7059 14.9526 14.7059H17.3755Z" fill="#332A2A"/>
</g>
<defs>
<clipPath id="clip0_1218_14027">
<rect width="44" height="44" fill="white"/>
</clipPath>
</defs>
</svg>
