<svg width="44" height="44" viewBox="0 0 44 44" fill="none" xmlns="http://www.w3.org/2000/svg">
<g clip-path="url(#clip0_1030_11272)">
<path fill-rule="evenodd" clip-rule="evenodd" d="M8.70825 16.4998C10.227 16.4998 11.4583 16.0894 11.4583 15.5832C11.4583 15.0769 10.227 14.6665 8.70825 14.6665C7.18947 14.6665 5.95825 15.0769 5.95825 15.5832C5.95825 16.0894 7.18947 16.4998 8.70825 16.4998ZM8.70825 21.9998C10.227 21.9998 11.4583 21.5894 11.4583 21.0832C11.4583 20.5769 10.227 20.1665 8.70825 20.1665C7.18947 20.1665 5.95825 20.5769 5.95825 21.0832C5.95825 21.5894 7.18947 21.9998 8.70825 21.9998ZM11.4583 25.6665C11.4583 26.1728 10.227 26.5832 8.70825 26.5832C7.18947 26.5832 5.95825 26.1728 5.95825 25.6665C5.95825 25.1602 7.18947 24.7498 8.70825 24.7498C10.227 24.7498 11.4583 25.1602 11.4583 25.6665ZM17.4166 26.5832C18.9354 26.5832 20.1666 26.1728 20.1666 25.6665C20.1666 25.1602 18.9354 24.7498 17.4166 24.7498C15.8978 24.7498 14.6666 25.1602 14.6666 25.6665C14.6666 26.1728 15.8978 26.5832 17.4166 26.5832ZM20.1666 21.0832C20.1666 21.5894 18.9354 21.9998 17.4166 21.9998C15.8978 21.9998 14.6666 21.5894 14.6666 21.0832C14.6666 20.5769 15.8978 20.1665 17.4166 20.1665C18.9354 20.1665 20.1666 20.5769 20.1666 21.0832ZM17.4166 16.4998C18.9354 16.4998 20.1666 16.0894 20.1666 15.5832C20.1666 15.0769 18.9354 14.6665 17.4166 14.6665C15.8978 14.6665 14.6666 15.0769 14.6666 15.5832C14.6666 16.0894 15.8978 16.4998 17.4166 16.4998ZM29.1041 15.5832C29.1041 16.0894 27.8729 16.4998 26.3541 16.4998C24.8353 16.4998 23.6041 16.0894 23.6041 15.5832C23.6041 15.0769 24.8353 14.6665 26.3541 14.6665C27.8729 14.6665 29.1041 15.0769 29.1041 15.5832ZM26.3541 21.9998C27.8729 21.9998 29.1041 21.5894 29.1041 21.0832C29.1041 20.5769 27.8729 20.1665 26.3541 20.1665C24.8353 20.1665 23.6041 20.5769 23.6041 21.0832C23.6041 21.5894 24.8353 21.9998 26.3541 21.9998ZM29.1041 25.6665C29.1041 26.1728 27.8729 26.5832 26.3541 26.5832C24.8353 26.5832 23.6041 26.1728 23.6041 25.6665C23.6041 25.1602 24.8353 24.7498 26.3541 24.7498C27.8729 24.7498 29.1041 25.1602 29.1041 25.6665ZM35.2916 26.5832C36.8104 26.5832 38.0416 26.1728 38.0416 25.6665C38.0416 25.1602 36.8104 24.7498 35.2916 24.7498C33.7728 24.7498 32.5416 25.1602 32.5416 25.6665C32.5416 26.1728 33.7728 26.5832 35.2916 26.5832ZM38.4999 21.0832C38.4999 21.5894 37.0635 21.9998 35.2916 21.9998C33.5197 21.9998 32.0833 21.5894 32.0833 21.0832C32.0833 20.5769 33.5197 20.1665 35.2916 20.1665C37.0635 20.1665 38.4999 20.5769 38.4999 21.0832ZM35.2916 16.4998C37.0635 16.4998 38.4999 16.0894 38.4999 15.5832C38.4999 15.0769 37.0635 14.6665 35.2916 14.6665C33.5197 14.6665 32.0833 15.0769 32.0833 15.5832C32.0833 16.0894 33.5197 16.4998 35.2916 16.4998Z" fill="#E05149"/>
<path fill-rule="evenodd" clip-rule="evenodd" d="M4.58325 11.1665C4.16904 11.1665 3.83325 11.5023 3.83325 11.9165C3.83325 12.3307 4.16904 12.6665 4.58325 12.6665H9.66376H13.9999C14.4141 12.6665 14.7499 12.3307 14.7499 11.9165C14.7499 11.5023 14.4141 11.1665 13.9999 11.1665H9.66376H4.58325ZM17.4999 11.1665C17.0857 11.1665 16.7499 11.5023 16.7499 11.9165C16.7499 12.3307 17.0857 12.6665 17.4999 12.6665H28.0228H39.4166C39.8308 12.6665 40.1666 12.3307 40.1666 11.9165C40.1666 11.5023 39.8308 11.1665 39.4166 11.1665H28.0228H17.4999ZM8.17949 14.6665C8.17949 14.2523 8.51528 13.9165 8.92949 13.9165C9.95799 13.9165 10.7991 14.0785 11.4132 14.3716C11.9955 14.6495 12.5604 15.1523 12.5604 15.8887C12.5604 16.6252 11.9955 17.128 11.4132 17.4059C10.8083 17.6946 9.98316 17.8561 8.97564 17.8608L8.95578 17.8611L8.90752 17.861C8.02452 17.8633 7.4745 18.0071 7.18117 18.1589C7.08252 18.21 7.02765 18.2518 6.99805 18.2805C7.03388 18.3261 7.11759 18.4079 7.30722 18.5028C7.63426 18.6666 8.17227 18.8054 8.92949 18.8054L8.97698 18.8055C9.72305 18.8029 10.2541 18.6652 10.578 18.503C10.8449 18.3694 10.902 18.2618 10.9111 18.2447L10.9121 18.2429C10.9609 17.8395 11.3234 17.547 11.7299 17.5869C12.1421 17.6274 12.4435 17.9944 12.403 18.4066C12.36 18.8447 12.1248 19.1998 11.8128 19.4718C12.2459 19.7672 12.5948 20.2045 12.5865 20.7883C12.5791 21.3074 12.2912 21.708 11.9175 21.9955C12.2964 22.2865 12.5867 22.6943 12.5866 23.2222C12.5866 23.6364 12.2509 23.9722 11.8366 23.9722C11.4363 23.9722 11.1092 23.6585 11.0878 23.2635C11.0681 23.2342 10.9996 23.1572 10.7934 23.0588C10.4472 22.8936 9.84786 22.75 8.95577 22.75L8.90751 22.7499C8.02755 22.7522 7.43521 22.8948 7.09188 23.0586C6.95089 23.1259 6.87427 23.1832 6.83363 23.2221C6.87428 23.2609 6.95089 23.3182 7.09189 23.3855C7.43807 23.5507 8.03741 23.6943 8.92949 23.6943C9.95799 23.6943 10.7991 23.8563 11.4132 24.1494C11.9955 24.4273 12.5604 24.93 12.5604 25.6665C12.5604 26.1488 12.3181 26.5309 11.9873 26.8152C12.4213 27.0808 12.7981 27.4628 12.8867 27.9858C12.9558 28.3942 12.6809 28.7814 12.2725 28.8506C11.873 28.9182 11.4938 28.6566 11.4127 28.2628C11.4127 28.2632 11.4126 28.2635 11.4125 28.2635C11.4122 28.2637 11.4116 28.2632 11.4106 28.2622L11.4063 28.2571C11.3827 28.228 11.2832 28.1056 10.9421 27.9622C10.5118 27.7812 9.84383 27.6389 8.95578 27.6389L8.90749 27.6388C8.0304 27.6411 7.36994 27.7825 6.94315 27.962C6.75989 28.0391 6.63578 28.1164 6.55797 28.1794C6.59785 28.2045 6.65145 28.2338 6.72242 28.2651C7.10556 28.4343 7.81077 28.5832 8.92947 28.5832C9.34369 28.5832 9.67948 28.919 9.67948 29.3332C9.67948 29.7474 9.34369 30.0832 8.92948 30.0832C7.71354 30.0832 6.77128 29.9265 6.11649 29.6373C5.50086 29.3655 4.85764 28.8178 4.99859 27.9857C5.08717 27.4627 5.46384 27.0807 5.89776 26.8152C5.56709 26.5309 5.32491 26.1489 5.3249 25.6667C5.3249 25.2525 5.66068 24.9167 6.07489 24.9167C6.47526 24.9167 6.80236 25.2304 6.82379 25.6254C6.84345 25.6547 6.91194 25.7316 7.11818 25.8301C7.45837 25.9924 8.04301 26.1339 8.90967 26.1388L8.92947 26.1387C9.82156 26.1387 10.4209 25.9952 10.7671 25.8299C10.9081 25.7626 10.9847 25.7054 11.0253 25.6665C10.9847 25.6276 10.9081 25.5704 10.7671 25.5031C10.4209 25.3379 9.82157 25.1943 8.92949 25.1943C7.90099 25.1943 7.05989 25.0323 6.44578 24.7392C5.86351 24.4613 5.29861 23.9585 5.29861 23.2221C5.29861 22.6942 5.58876 22.2865 5.96752 21.9955C5.59391 21.708 5.3062 21.3075 5.29878 20.7885C5.29286 20.3743 5.62381 20.0338 6.03798 20.0278C6.43842 20.0221 6.77005 20.3313 6.79695 20.7261C6.81594 20.7549 6.88587 20.8362 7.10539 20.9398C7.45268 21.1037 8.04324 21.245 8.90968 21.2499L8.92949 21.2498C9.82112 21.2498 10.4265 21.1064 10.7799 20.9396C10.9267 20.8703 11.0066 20.811 11.0491 20.7707C11.0079 20.733 10.9327 20.6787 10.7983 20.615C10.4551 20.4523 9.86144 20.3103 8.97545 20.3055L8.95577 20.3055L8.94111 20.3054L8.92949 20.3054C8.00621 20.3054 7.22382 20.1386 6.63558 19.8441C6.07604 19.5639 5.54887 19.0846 5.48226 18.4065C5.43049 17.8793 5.67154 17.4517 6.027 17.1405C5.63214 16.848 5.32491 16.432 5.3249 15.8889C5.3249 15.4747 5.66069 15.1389 6.0749 15.1389C6.47527 15.1389 6.80236 15.4526 6.82379 15.8476C6.84346 15.8769 6.91196 15.9539 7.11818 16.0523C7.45837 16.2147 8.04302 16.3561 8.9097 16.361L8.92948 16.3609C9.82156 16.3609 10.4209 16.2174 10.7671 16.0521C10.9081 15.9849 10.9847 15.9276 11.0253 15.8887C10.9847 15.8499 10.9081 15.7926 10.7671 15.7253C10.4209 15.5601 9.82157 15.4165 8.92949 15.4165C8.51528 15.4165 8.17949 15.0807 8.17949 14.6665ZM11.0685 15.9428C11.0683 15.9429 11.0675 15.9413 11.0665 15.9382C11.0681 15.9412 11.0686 15.9428 11.0685 15.9428ZM11.0665 15.8393C11.0675 15.8361 11.0683 15.8346 11.0685 15.8346C11.0686 15.8347 11.0681 15.8363 11.0665 15.8393ZM11.0929 20.8209C11.0943 20.8254 11.0955 20.8275 11.0958 20.8274C11.0959 20.8274 11.0957 20.8267 11.0952 20.8254L11.0929 20.8209ZM11.0945 20.7148L11.0942 20.7154L11.0934 20.7173L11.0945 20.7151L11.0945 20.7148ZM11.0685 25.7206C11.0683 25.7206 11.0675 25.7191 11.0665 25.716C11.0681 25.719 11.0686 25.7205 11.0685 25.7206ZM11.0676 25.6141L11.0665 25.617C11.0681 25.614 11.0686 25.6125 11.0685 25.6124C11.0684 25.6124 11.068 25.6129 11.0676 25.6141ZM6.7925 23.1726C6.79145 23.1694 6.79065 23.1679 6.79051 23.168C6.79041 23.168 6.79064 23.1688 6.79131 23.1702L6.7925 23.1726ZM6.79051 23.2761C6.79065 23.2762 6.79145 23.2747 6.7925 23.2715L6.79076 23.2752L6.79051 23.2761ZM6.96629 18.324C6.96528 18.3238 6.96653 18.3187 6.97303 18.3092C6.97054 18.3195 6.96729 18.3242 6.96629 18.324ZM6.8168 15.8348C6.81667 15.8348 6.81719 15.8364 6.81879 15.8394C6.81774 15.8362 6.81694 15.8347 6.8168 15.8348ZM6.79093 20.7156C6.79075 20.7152 6.79069 20.7149 6.79071 20.7149C6.79077 20.7149 6.79119 20.7158 6.79182 20.7175L6.79093 20.7156ZM11.0946 23.2756L11.0948 23.2763C11.0946 23.2763 11.0938 23.2748 11.0928 23.2717C11.0938 23.2735 11.0943 23.2748 11.0946 23.2756ZM6.8168 25.6126C6.81666 25.6126 6.81719 25.6142 6.81879 25.6172C6.81774 25.614 6.81694 25.6125 6.8168 25.6126ZM17.6394 13.9165C17.2252 13.9165 16.8894 14.2523 16.8894 14.6665C16.8894 15.0807 17.2252 15.4165 17.6394 15.4165C18.5315 15.4165 19.1308 15.5601 19.477 15.7253C19.618 15.7926 19.6946 15.8499 19.7352 15.8887C19.6946 15.9276 19.618 15.9849 19.477 16.0521C19.1308 16.2174 18.5315 16.3609 17.6394 16.3609L17.6196 16.361C16.7529 16.3561 16.1683 16.2147 15.8281 16.0523C15.6219 15.9539 15.5534 15.8769 15.5337 15.8476C15.5123 15.4526 15.1852 15.1389 14.7848 15.1389C14.3706 15.1389 14.0348 15.4747 14.0348 15.8889C14.0348 16.432 14.342 16.848 14.7369 17.1405C14.3814 17.4517 14.1404 17.8793 14.1922 18.4065C14.2588 19.0846 14.7859 19.5639 15.3455 19.8441C15.9337 20.1386 16.7161 20.3054 17.6394 20.3054L17.651 20.3054L17.6657 20.3055L17.6854 20.3055C18.5713 20.3103 19.165 20.4523 19.5082 20.615C19.6426 20.6787 19.7178 20.733 19.759 20.7707C19.7165 20.811 19.6366 20.8703 19.4898 20.9396C19.1364 21.1064 18.531 21.2498 17.6394 21.2498L17.6196 21.2499C16.7531 21.245 16.1626 21.1037 15.8153 20.9398C15.5958 20.8362 15.5258 20.7549 15.5068 20.7261C15.4799 20.3313 15.1483 20.0221 14.7479 20.0278C14.3337 20.0338 14.0028 20.3743 14.0087 20.7885C14.0161 21.3075 14.3038 21.708 14.6774 21.9955C14.2987 22.2865 14.0085 22.6942 14.0085 23.2221C14.0085 23.9585 14.5734 24.4613 15.1557 24.7392C15.7698 25.0323 16.6109 25.1943 17.6394 25.1943C18.5315 25.1943 19.1308 25.3379 19.477 25.5031C19.618 25.5704 19.6946 25.6276 19.7352 25.6665C19.6946 25.7054 19.618 25.7626 19.477 25.8299C19.1308 25.9952 18.5315 26.1387 17.6394 26.1387L17.6196 26.1388C16.7529 26.1339 16.1683 25.9924 15.8281 25.8301C15.6218 25.7316 15.5534 25.6547 15.5337 25.6254C15.5123 25.2304 15.1852 24.9167 14.7848 24.9167C14.3706 24.9167 14.0348 25.2525 14.0348 25.6667C14.0348 26.1489 14.277 26.5309 14.6077 26.8152C14.1737 27.0807 13.7971 27.4627 13.7085 27.9857C13.5675 28.8178 14.2108 29.3655 14.8264 29.6373C15.4812 29.9265 16.4234 30.0832 17.6394 30.0832C18.0536 30.0832 18.3894 29.7474 18.3894 29.3332C18.3894 28.919 18.0536 28.5832 17.6394 28.5832C16.5207 28.5832 15.8155 28.4343 15.4323 28.2651C15.3613 28.2338 15.3078 28.2045 15.2679 28.1794C15.3457 28.1164 15.4698 28.0391 15.653 27.962C16.0798 27.7825 16.7403 27.6411 17.6174 27.6388L17.6657 27.6389C18.5537 27.6389 19.2217 27.7812 19.652 27.9622C19.9931 28.1056 20.0926 28.228 20.1162 28.2571L20.1163 28.2571C20.1199 28.2616 20.1217 28.2638 20.1224 28.2635C20.1225 28.2635 20.1226 28.2632 20.1226 28.2628C20.2037 28.6566 20.5829 28.9182 20.9824 28.8506C21.3908 28.7814 21.6657 28.3942 21.5966 27.9858C21.508 27.4628 21.1312 27.0808 20.6972 26.8152C21.028 26.5309 21.2703 26.1488 21.2703 25.6665C21.2703 24.93 20.7054 24.4273 20.1231 24.1494C19.509 23.8563 18.6679 23.6943 17.6394 23.6943C16.7473 23.6943 16.148 23.5507 15.8018 23.3855C15.6608 23.3182 15.5842 23.2609 15.5435 23.2221C15.5842 23.1832 15.6608 23.1259 15.8018 23.0586C16.1451 22.8948 16.7374 22.7522 17.6174 22.7499L17.6657 22.75C18.5578 22.75 19.1571 22.8936 19.5033 23.0588C19.7095 23.1572 19.778 23.2342 19.7977 23.2635C19.8191 23.6585 20.1462 23.9722 20.5465 23.9722C20.9608 23.9722 21.2965 23.6364 21.2966 23.2222C21.2966 22.6943 21.0063 22.2865 20.6274 21.9955C21.0012 21.708 21.289 21.3074 21.2964 20.7883C21.3047 20.2045 20.9558 19.7672 20.5227 19.4718C20.8347 19.1998 21.0699 18.8447 21.1129 18.4066C21.1534 17.9944 20.852 17.6274 20.4398 17.5869C20.0333 17.547 19.6708 17.8395 19.622 18.2429L19.621 18.2447C19.6119 18.2618 19.5548 18.3694 19.2879 18.503C18.964 18.6652 18.4329 18.8029 17.6869 18.8055L17.6394 18.8054C16.8822 18.8054 16.3442 18.6666 16.0171 18.5028C15.8275 18.4079 15.7438 18.3261 15.7079 18.2805C15.7375 18.2518 15.7924 18.21 15.8911 18.1589C16.1844 18.0071 16.7344 17.8633 17.6174 17.861L17.6657 17.8611L17.6855 17.8608C18.6931 17.8561 19.5182 17.6946 20.1231 17.4059C20.7054 17.128 21.2703 16.6252 21.2703 15.8887C21.2703 15.1523 20.7054 14.6495 20.1231 14.3716C19.509 14.0785 18.6679 13.9165 17.6394 13.9165ZM19.7784 15.9428C19.7782 15.9429 19.7774 15.9413 19.7764 15.9382C19.778 15.9412 19.7785 15.9428 19.7784 15.9428ZM19.7764 15.8393C19.7774 15.8361 19.7782 15.8346 19.7784 15.8346C19.7785 15.8347 19.778 15.8363 19.7764 15.8393ZM19.8057 20.8274C19.8054 20.8275 19.8042 20.8254 19.8028 20.8209C19.8052 20.8251 19.8059 20.8273 19.8057 20.8274ZM19.8033 20.7173L19.8042 20.7152L19.8044 20.7148C19.8045 20.7148 19.8042 20.7157 19.8033 20.7173ZM19.7784 25.7206C19.7782 25.7206 19.7774 25.7191 19.7764 25.716C19.778 25.719 19.7785 25.7205 19.7784 25.7206ZM19.7764 25.617C19.7774 25.6139 19.7782 25.6124 19.7784 25.6124C19.7785 25.6125 19.778 25.614 19.7764 25.617ZM15.5004 23.168C15.5005 23.1679 15.5013 23.1694 15.5024 23.1726L15.5008 23.1694C15.5005 23.1685 15.5003 23.168 15.5004 23.168ZM15.5024 23.2715L15.5011 23.2749L15.5004 23.2761C15.5003 23.2761 15.5008 23.2745 15.5024 23.2715ZM15.6762 18.324C15.6752 18.3238 15.6764 18.3187 15.6829 18.3092C15.6804 18.3195 15.6772 18.3242 15.6762 18.324ZM15.5267 15.8348C15.5266 15.8348 15.5271 15.8364 15.5287 15.8394C15.5276 15.8362 15.5268 15.8347 15.5267 15.8348ZM15.5006 20.7149C15.5006 20.715 15.5009 20.7158 15.5017 20.7175C15.5011 20.7158 15.5007 20.7149 15.5006 20.7149ZM19.8047 23.2763C19.8048 23.2763 19.8043 23.2747 19.8027 23.2717L19.8039 23.275L19.8047 23.2763ZM15.5267 25.6126C15.5266 25.6126 15.5271 25.6142 15.5287 25.6172C15.5276 25.614 15.5268 25.6125 15.5267 25.6126ZM25.5993 14.6665C25.5993 14.2523 25.9351 13.9165 26.3493 13.9165C27.3778 13.9165 28.2189 14.0785 28.833 14.3716C29.4153 14.6495 29.9802 15.1523 29.9802 15.8887C29.9802 16.6252 29.4153 17.128 28.833 17.4059C28.2281 17.6946 27.403 17.8561 26.3954 17.8608L26.3756 17.8611L26.3273 17.861C25.4443 17.8633 24.8943 18.0071 24.601 18.1589C24.5023 18.21 24.4474 18.2518 24.4178 18.2805C24.4537 18.3261 24.5374 18.4079 24.727 18.5028C25.0541 18.6666 25.5921 18.8054 26.3493 18.8054L26.3968 18.8055C27.1428 18.8029 27.6739 18.6652 27.9978 18.503C28.2647 18.3694 28.3218 18.2618 28.3309 18.2447L28.3319 18.2429C28.3807 17.8395 28.7432 17.547 29.1497 17.5869C29.5619 17.6274 29.8633 17.9944 29.8228 18.4066C29.7798 18.8447 29.5445 19.1998 29.2326 19.4718C29.6657 19.7672 30.0146 20.2045 30.0063 20.7883C29.9989 21.3074 29.711 21.708 29.3373 21.9955C29.7162 22.2865 30.0065 22.6943 30.0064 23.2222C30.0064 23.6364 29.6707 23.9722 29.2564 23.9722C28.8561 23.9722 28.529 23.6585 28.5076 23.2635C28.4879 23.2342 28.4194 23.1572 28.2132 23.0588C27.867 22.8936 27.2677 22.75 26.3756 22.75L26.3273 22.7499C25.4473 22.7522 24.855 22.8948 24.5117 23.0586C24.3707 23.1259 24.2941 23.1832 24.2534 23.2221C24.2941 23.2609 24.3707 23.3182 24.5117 23.3855C24.8579 23.5507 25.4572 23.6943 26.3493 23.6943C27.3778 23.6943 28.2189 23.8563 28.833 24.1494C29.4153 24.4273 29.9802 24.93 29.9802 25.6665C29.9802 26.1488 29.7379 26.5309 29.4071 26.8152C29.8411 27.0808 30.2179 27.4628 30.3065 27.9858C30.3756 28.3942 30.1007 28.7814 29.6923 28.8506C29.2928 28.9182 28.9136 28.6566 28.8325 28.2628C28.8325 28.2632 28.8324 28.2635 28.8323 28.2635C28.8316 28.2638 28.8298 28.2616 28.8261 28.2571C28.8025 28.228 28.703 28.1056 28.3619 27.9622C27.9316 27.7812 27.2636 27.6389 26.3756 27.6389L26.3273 27.6388C25.4502 27.6411 24.7897 27.7825 24.3629 27.962C24.1797 28.0391 24.0556 28.1164 23.9778 28.1794C24.0177 28.2045 24.0712 28.2338 24.1422 28.2651C24.5254 28.4343 25.2306 28.5832 26.3493 28.5832C26.7635 28.5832 27.0993 28.919 27.0993 29.3332C27.0993 29.7474 26.7635 30.0832 26.3493 30.0832C25.1333 30.0832 24.1911 29.9265 23.5363 29.6373C22.9207 29.3655 22.2774 28.8178 22.4184 27.9857C22.507 27.4627 22.8836 27.0807 23.3176 26.8152C22.9869 26.5309 22.7447 26.1489 22.7447 25.6667C22.7447 25.2525 23.0805 24.9167 23.4947 24.9167C23.8951 24.9167 24.2222 25.2304 24.2436 25.6254C24.2633 25.6547 24.3317 25.7316 24.538 25.8301C24.8782 25.9924 25.4628 26.1339 26.3295 26.1388L26.3493 26.1387C27.2414 26.1387 27.8407 25.9952 28.1869 25.8299C28.3279 25.7626 28.4045 25.7054 28.4451 25.6665C28.4045 25.6276 28.3279 25.5704 28.1869 25.5031C27.8407 25.3379 27.2414 25.1943 26.3493 25.1943C25.3208 25.1943 24.4797 25.0323 23.8656 24.7392C23.2833 24.4613 22.7184 23.9585 22.7184 23.2221C22.7184 22.6942 23.0086 22.2865 23.3873 21.9955C23.0137 21.708 22.726 21.3075 22.7186 20.7885C22.7127 20.3743 23.0436 20.0338 23.4578 20.0278C23.8582 20.0221 24.1898 20.3313 24.2167 20.7261C24.2357 20.7549 24.3057 20.8362 24.5252 20.9398C24.8725 21.1037 25.463 21.245 26.3295 21.2499L26.3493 21.2498C27.2409 21.2498 27.8463 21.1064 28.1997 20.9396C28.3465 20.8703 28.4264 20.811 28.4689 20.7707C28.4277 20.733 28.3525 20.6787 28.2181 20.615C27.8749 20.4523 27.2812 20.3103 26.3953 20.3055L26.3756 20.3055L26.3609 20.3054L26.3493 20.3054C25.426 20.3054 24.6436 20.1386 24.0554 19.8441C23.4958 19.5639 22.9687 19.0846 22.9021 18.4065C22.8503 17.8793 23.0913 17.4517 23.4468 17.1405C23.0519 16.848 22.7447 16.432 22.7447 15.8889C22.7447 15.4747 23.0805 15.1389 23.4947 15.1389C23.8951 15.1389 24.2222 15.4526 24.2436 15.8476C24.2633 15.8769 24.3318 15.9539 24.538 16.0523C24.8782 16.2147 25.4628 16.3561 26.3295 16.361L26.3493 16.3609C27.2414 16.3609 27.8407 16.2174 28.1869 16.0521C28.3279 15.9849 28.4045 15.9276 28.4451 15.8887C28.4045 15.8499 28.3279 15.7926 28.1869 15.7253C27.8407 15.5601 27.2414 15.4165 26.3493 15.4165C25.9351 15.4165 25.5993 15.0807 25.5993 14.6665ZM28.4879 15.9422L28.4883 15.9428C28.4884 15.9428 28.4879 15.9412 28.4863 15.9382C28.4869 15.9402 28.4875 15.9415 28.4879 15.9422ZM28.4872 15.8367L28.4863 15.8393L28.4874 15.8371L28.4882 15.8351L28.4883 15.8346L28.4879 15.8351L28.4872 15.8367ZM28.5156 20.8274C28.5153 20.8275 28.5141 20.8254 28.5127 20.8209C28.5151 20.8251 28.5158 20.8273 28.5156 20.8274ZM28.5132 20.7173C28.5139 20.7156 28.5143 20.7148 28.5143 20.7148C28.5144 20.7148 28.5141 20.7157 28.5132 20.7173ZM28.4876 25.7194L28.4883 25.7206C28.4884 25.7205 28.4879 25.719 28.4863 25.716L28.4876 25.7194ZM28.4863 25.617C28.4873 25.6139 28.4881 25.6124 28.4883 25.6124C28.4884 25.6125 28.4879 25.614 28.4863 25.617ZM24.2103 23.168C24.2104 23.1679 24.2112 23.1694 24.2123 23.1726C24.2107 23.1696 24.2102 23.168 24.2103 23.168ZM24.2123 23.2715C24.2112 23.2747 24.2104 23.2762 24.2103 23.2761C24.2102 23.2761 24.2107 23.2745 24.2123 23.2715ZM24.3861 18.324C24.3851 18.3238 24.3863 18.3187 24.3928 18.3092C24.3903 18.3195 24.3871 18.3242 24.3861 18.324ZM24.237 15.836L24.2366 15.8348L24.2372 15.8357L24.2386 15.8394L24.237 15.836ZM24.2105 20.7149C24.2105 20.715 24.2108 20.7158 24.2116 20.7175C24.211 20.7158 24.2106 20.7149 24.2105 20.7149ZM28.5146 23.2763C28.5147 23.2763 28.5142 23.2747 28.5126 23.2717C28.5136 23.2748 28.5144 23.2763 28.5146 23.2763ZM24.2366 25.6126C24.2365 25.6126 24.237 25.6142 24.2386 25.6172C24.2375 25.614 24.2367 25.6125 24.2366 25.6126ZM35.0592 13.9165C34.645 13.9165 34.3092 14.2523 34.3092 14.6665C34.3092 15.0807 34.645 15.4165 35.0592 15.4165C35.9513 15.4165 36.5506 15.5601 36.8968 15.7253C37.0378 15.7926 37.1144 15.8499 37.155 15.8887C37.1144 15.9276 37.0378 15.9849 36.8968 16.0521C36.5506 16.2174 35.9513 16.3609 35.0592 16.3609L35.0394 16.361C34.1727 16.3561 33.5881 16.2147 33.2479 16.0523C33.0417 15.9539 32.9732 15.8769 32.9535 15.8476C32.9321 15.4526 32.605 15.1389 32.2046 15.1389C31.7904 15.1389 31.4546 15.4747 31.4546 15.8889C31.4546 16.432 31.7618 16.848 32.1567 17.1405C31.8012 17.4517 31.5602 17.8793 31.612 18.4065C31.6786 19.0846 32.2057 19.5639 32.7653 19.8441C33.3535 20.1386 34.1359 20.3054 35.0592 20.3054L35.0708 20.3054L35.0855 20.3055L35.1052 20.3055C35.9911 20.3103 36.5848 20.4523 36.928 20.615C37.0624 20.6787 37.1376 20.733 37.1788 20.7707C37.1363 20.811 37.0564 20.8703 36.9096 20.9396C36.5562 21.1064 35.9508 21.2498 35.0592 21.2498L35.0394 21.2499C34.1729 21.245 33.5824 21.1037 33.2351 20.9398C33.0156 20.8362 32.9456 20.7549 32.9266 20.7261C32.8997 20.3313 32.5681 20.0221 32.1677 20.0278C31.7535 20.0338 31.4226 20.3743 31.4285 20.7885C31.4359 21.3075 31.7236 21.708 32.0972 21.9955C31.7185 22.2865 31.4283 22.6942 31.4283 23.2221C31.4283 23.9585 31.9932 24.4613 32.5755 24.7392C33.1896 25.0323 34.0307 25.1943 35.0592 25.1943C35.9513 25.1943 36.5506 25.3379 36.8968 25.5031C37.0378 25.5704 37.1144 25.6276 37.155 25.6665C37.1144 25.7054 37.0378 25.7626 36.8968 25.8299C36.5506 25.9952 35.9513 26.1387 35.0592 26.1387L35.0394 26.1388C34.1727 26.1339 33.5881 25.9924 33.2479 25.8301C33.0416 25.7316 32.9732 25.6547 32.9535 25.6254C32.9321 25.2304 32.605 24.9167 32.2046 24.9167C31.7904 24.9167 31.4546 25.2525 31.4546 25.6667C31.4546 26.1489 31.6968 26.5309 32.0275 26.8152C31.5935 27.0807 31.2169 27.4627 31.1283 27.9857C30.9873 28.8178 31.6306 29.3655 32.2462 29.6373C32.901 29.9265 33.8432 30.0832 35.0592 30.0832C35.4734 30.0832 35.8092 29.7474 35.8092 29.3332C35.8092 28.919 35.4734 28.5832 35.0592 28.5832C33.9405 28.5832 33.2353 28.4343 32.8521 28.2651C32.7811 28.2338 32.7276 28.2045 32.6877 28.1794C32.7655 28.1164 32.8896 28.0391 33.0728 27.962C33.4996 27.7825 34.1601 27.6411 35.0372 27.6388L35.0855 27.6389C35.9735 27.6389 36.6415 27.7812 37.0718 27.9622C37.4129 28.1056 37.5124 28.228 37.536 28.2571C37.5397 28.2616 37.5415 28.2638 37.5422 28.2635L37.5423 28.2633L37.5424 28.2628C37.6235 28.6566 38.0027 28.9182 38.4022 28.8506C38.8106 28.7814 39.0855 28.3942 39.0164 27.9858C38.9278 27.4628 38.551 27.0808 38.117 26.8152C38.4478 26.5309 38.6901 26.1488 38.6901 25.6665C38.6901 24.93 38.1252 24.4273 37.5429 24.1494C36.9288 23.8563 36.0877 23.6943 35.0592 23.6943C34.1671 23.6943 33.5678 23.5507 33.2216 23.3855C33.0806 23.3182 33.004 23.2609 32.9633 23.2221C33.004 23.1832 33.0806 23.1259 33.2216 23.0586C33.5649 22.8948 34.1572 22.7522 35.0372 22.7499L35.0855 22.75C35.9776 22.75 36.5769 22.8936 36.9231 23.0588C37.1293 23.1572 37.1978 23.2342 37.2175 23.2635C37.2389 23.6585 37.566 23.9722 37.9663 23.9722C38.3806 23.9722 38.7163 23.6364 38.7164 23.2222C38.7164 22.6943 38.4261 22.2865 38.0472 21.9955C38.4209 21.708 38.7088 21.3074 38.7162 20.7883C38.7245 20.2045 38.3756 19.7672 37.9425 19.4718C38.2545 19.1998 38.4897 18.8447 38.5327 18.4066C38.5732 17.9944 38.2718 17.6274 37.8596 17.5869C37.4531 17.547 37.0906 17.8395 37.0418 18.2429L37.0408 18.2447C37.0317 18.2618 36.9746 18.3694 36.7077 18.503C36.3838 18.6652 35.8527 18.8029 35.1067 18.8055L35.0592 18.8054C34.302 18.8054 33.764 18.6666 33.4369 18.5028C33.2473 18.4079 33.1636 18.3261 33.1277 18.2805C33.1573 18.2518 33.2122 18.21 33.3109 18.1589C33.6042 18.0071 34.1542 17.8633 35.0372 17.861L35.0855 17.8611L35.1053 17.8608C36.1129 17.8561 36.938 17.6946 37.5429 17.4059C38.1252 17.128 38.6901 16.6252 38.6901 15.8887C38.6901 15.1523 38.1252 14.6495 37.5429 14.3716C36.9288 14.0785 36.0877 13.9165 35.0592 13.9165ZM37.1982 15.9428L37.1976 15.9419L37.1962 15.9382L37.1973 15.9405C37.198 15.942 37.1983 15.9428 37.1982 15.9428ZM37.1962 15.8393C37.1972 15.8361 37.198 15.8346 37.1982 15.8346C37.1983 15.8347 37.1978 15.8363 37.1962 15.8393ZM37.2255 20.8274C37.2253 20.8274 37.2249 20.8268 37.2243 20.8254L37.2226 20.8209C37.225 20.8251 37.2257 20.8273 37.2255 20.8274ZM37.2231 20.7173C37.2238 20.7156 37.2242 20.7148 37.2242 20.7148C37.2243 20.7148 37.224 20.7157 37.2231 20.7173ZM37.1982 25.7206C37.198 25.7206 37.1972 25.7191 37.1962 25.716C37.1978 25.719 37.1983 25.7205 37.1982 25.7206ZM37.1962 25.617C37.1972 25.6139 37.198 25.6124 37.1982 25.6124C37.1983 25.6125 37.1978 25.614 37.1962 25.617ZM32.9202 23.168C32.9203 23.1679 32.9211 23.1694 32.9222 23.1726C32.9206 23.1696 32.9201 23.168 32.9202 23.168ZM32.9222 23.2715L32.9209 23.2751L32.9202 23.2761C32.9201 23.2761 32.9206 23.2745 32.9222 23.2715ZM33.096 18.324C33.095 18.3238 33.0962 18.3187 33.1027 18.3092C33.1002 18.3195 33.097 18.3242 33.096 18.324ZM32.9465 15.8348C32.9464 15.8348 32.9469 15.8364 32.9485 15.8394C32.9474 15.8362 32.9466 15.8347 32.9465 15.8348ZM32.9204 20.7149C32.9204 20.715 32.9207 20.7158 32.9215 20.7175C32.9209 20.7158 32.9205 20.7149 32.9204 20.7149ZM37.2244 23.2763L37.2241 23.2751L37.2225 23.2717C37.223 23.2732 37.2234 23.2743 37.2237 23.275C37.2241 23.2759 37.2244 23.2763 37.2244 23.2763ZM32.9465 25.6126L32.9467 25.6134L32.9485 25.6172L32.9474 25.6142C32.9469 25.6131 32.9466 25.6125 32.9465 25.6126ZM4.58325 31.333C4.16904 31.333 3.83325 31.6688 3.83325 32.083C3.83325 32.4972 4.16904 32.833 4.58325 32.833H4.63081H4.67823H4.72553H4.77269H4.81972H4.86662H4.91339H4.96003H5.00654H5.05292H5.09918H5.1453H5.1913H5.23718H5.28292H5.32854H5.37404H5.41941H5.46465H5.50977H5.55477H5.59965H5.6444H5.68903H5.73354H5.77792H5.82219H5.86634H5.91036H5.95427H5.99806H6.04173H6.08528H6.12871H6.17203H6.21523H6.25832H6.30129H6.34414H6.38688H6.42951H6.47202H6.51442H6.5567H6.59887H6.64093H6.68288H6.72472H6.76645H6.80807H6.84958H6.89098H6.93227H6.97345H7.01453H7.0555H7.09636H7.13712H7.17777H7.21831H7.25875H7.29908H7.33932H7.37944H7.41947H7.45939H7.49921H7.53893H7.57855H7.61806H7.65748H7.6968H7.73602H7.77513H7.81415H7.85308H7.8919H7.93063H7.96926H8.0078H8.04624H8.08459H8.12284H8.16099H8.19906H8.23703H8.2749H8.31269H8.35038H8.38799H8.4255H8.46292H8.50025H8.53749H8.57464H8.61171H8.64868H8.68557H8.72237H8.75909H8.79572H8.83226H8.86872H8.90509H8.94138H8.97758H9.0137H9.04974H9.0857H9.12157H9.15737H9.19308H9.22871H9.26426H9.29973H9.33512H9.37044H9.40567H9.44083H9.47591H9.51091H9.54584H9.58069H9.61547H9.65017H9.68479H9.71935H9.75382H9.78823H9.82256H9.85682H9.89101H9.92513H9.95918H9.99316H10.0271H10.0609H10.0947H10.1284H10.162H10.1956H10.2291H10.2625H10.2959H10.3292H10.3624H10.3956H10.4287H10.4617H10.4947H10.5276H10.5605H10.5933H10.626H10.6587H10.6913H10.7238H10.7563H10.7887H10.8211H10.8534H10.8857H10.9179H10.95H10.9821H11.0141H11.0461H11.078H11.1099H11.1417H11.1735H11.2052H11.2368H11.2684H11.3H11.3315H11.3629H11.3943H11.4257H11.457H11.4882H11.5194H11.5506H11.5817H11.6127H11.6437H11.6747H11.7056H11.7365H11.7673H11.7981H11.8289H11.8596H11.8902H11.9208H11.9514H11.9819H12.0124H12.0429H12.0733H12.1037H12.134H12.1643H12.1945H12.2248H12.2549H12.2851H12.3152H12.3453H12.3753H12.4053H12.4353H12.4652H12.4951H12.525H12.5548H12.5846H12.6144H12.6441H12.6738H12.7035H12.7332H12.7628H12.7924H12.822H12.8515H12.881H12.9105H12.9399H12.9694H12.9988H13.0282H13.0575H13.0868H13.1161H13.1454H13.1747H13.2039H13.2332H13.2624H13.2915H13.3207H13.3498H13.3789H13.408H13.4371H13.4662H13.4952H13.5242H13.5533H13.5823H13.6112H13.6402H13.6691H13.6981H13.727H13.7559H13.7848H13.8137H13.8426H13.8714H13.9003H13.9291H13.9579H13.9867H14.0156H14.0444H14.0732H14.1019H14.1307H14.1595H14.1882H14.217H14.2458H14.2745H14.3033H14.332H14.3607H14.3895H14.4182H14.4469H14.4757H14.5044H14.5331H14.5618H14.5906H14.6193H14.648H14.6767H14.7055H14.7342H14.7629H14.7917H14.8204H14.8492H14.8779H14.9067H14.9355H14.9642H14.993H15.0218H15.0506H15.0794H15.1082H15.137H15.1658H15.1947H15.2235H15.2524H15.2813H15.3101H15.339H15.368H15.3969H15.4258H15.4548H15.4837H15.5127H15.5417H15.5707H15.5997H15.6288H15.6579H15.6869H15.716H15.7452H15.7743H15.8035H15.8326H15.8618H15.8911H15.9203H15.9496H15.9789H16.0082H16.0375H16.0669H16.0962H16.1256H16.1551H16.1845H16.214H16.2435H16.2731H16.3026H16.3322H16.3619H16.3915H16.4212H16.4509H16.4807H16.5104H16.5402H16.5701H16.6H16.6299H16.6598H16.6898H16.7198H16.7498H16.7799H16.81H16.8402H16.8703H16.9006H16.9308H16.9611H16.9915H17.0218H17.0522H17.0827H17.1132H17.1437H17.1743H17.2049H17.2356H17.2663H17.297H17.3278H17.3587H17.3896H17.4205H17.4515H17.4825H17.5135H17.5446H17.5758H17.607H17.6383H17.6696H17.7009H17.7323H17.7638H17.7953H17.8268H17.8584H17.8901H17.9218H17.9536H17.9854H18.0173H18.0492H18.0812H18.1132H18.1453H18.1774H18.2096H18.2419H18.2742H18.3066H18.339H18.3715H18.4041H18.4367H18.4694H18.5021H18.5349H18.5678H18.6007H18.6337H18.6667H18.6999H18.733H18.7663H18.7996H18.833H18.8664H18.8999H18.9335H18.9671H19.0008H19.0346H19.0684H19.1024H19.1363H19.1704H19.2045H19.2387H19.273H19.3073H19.3417H19.3762H19.4108H19.4454H19.4801H19.5149H19.5498H19.5847H19.6197H19.6548H19.69H19.7252H19.7605H19.7959H19.8314H19.867H19.9026H19.9384H19.9742H20.01H20.046H20.082H20.1182H20.1544H20.1907H20.2271H20.2635H20.3001H20.3367H20.3735H20.4103H20.4472H20.4841H20.5212H20.5584H20.5956H20.633H20.6704H20.7079H20.7455H20.7832H20.821H20.8589H20.8969H20.935H20.9732H21.0114H21.0498H21.0882H21.1268H21.1654H21.2041H21.243H21.2819H21.321H21.3601H21.3993H21.4386H21.4781H21.5176H21.5572H21.597H21.6368H21.6767H21.7168H21.7569H21.7971H21.8375H21.8779H21.9185H21.9592H21.9999H26.9999C27.4141 32.833 27.7499 32.4972 27.7499 32.083C27.7499 31.6688 27.4141 31.333 26.9999 31.333H21.9999H21.9592H21.9185H21.8779H21.8375H21.7971H21.7569H21.7168H21.6767H21.6368H21.597H21.5572H21.5176H21.4781H21.4386H21.3993H21.3601H21.321H21.2819H21.243H21.2041H21.1654H21.1268H21.0882H21.0498H21.0114H20.9732H20.935H20.8969H20.8589H20.821H20.7832H20.7455H20.7079H20.6704H20.633H20.5956H20.5584H20.5212H20.4841H20.4472H20.4103H20.3735H20.3367H20.3001H20.2635H20.2271H20.1907H20.1544H20.1182H20.082H20.046H20.01H19.9742H19.9384H19.9026H19.867H19.8314H19.7959H19.7605H19.7252H19.69H19.6548H19.6197H19.5847H19.5498H19.5149H19.4801H19.4454H19.4108H19.3762H19.3417H19.3073H19.273H19.2387H19.2045H19.1704H19.1363H19.1024H19.0684H19.0346H19.0008H18.9671H18.9335H18.8999H18.8664H18.833H18.7996H18.7663H18.733H18.6999H18.6667H18.6337H18.6007H18.5678H18.5349H18.5021H18.4694H18.4367H18.4041H18.3715H18.339H18.3066H18.2742H18.2419H18.2096H18.1774H18.1453H18.1132H18.0812H18.0492H18.0173H17.9854H17.9536H17.9218H17.8901H17.8584H17.8268H17.7953H17.7638H17.7323H17.7009H17.6696H17.6383H17.607H17.5758H17.5446H17.5135H17.4825H17.4515H17.4205H17.3896H17.3587H17.3278H17.297H17.2663H17.2356H17.2049H17.1743H17.1437H17.1132H17.0827H17.0522H17.0218H16.9915H16.9611H16.9308H16.9006H16.8703H16.8402H16.81H16.7799H16.7498H16.7198H16.6898H16.6598H16.6299H16.6H16.5701H16.5402H16.5104H16.4807H16.4509H16.4212H16.3915H16.3619H16.3322H16.3026H16.2731H16.2435H16.214H16.1845H16.1551H16.1256H16.0962H16.0669H16.0375H16.0082H15.9789H15.9496H15.9203H15.8911H15.8618H15.8326H15.8035H15.7743H15.7452H15.716H15.6869H15.6579H15.6288H15.5997H15.5707H15.5417H15.5127H15.4837H15.4548H15.4258H15.3969H15.368H15.339H15.3101H15.2813H15.2524H15.2235H15.1947H15.1658H15.137H15.1082H15.0794H15.0506H15.0218H14.993H14.9642H14.9355H14.9067H14.8779H14.8492H14.8204H14.7917H14.7629H14.7342H14.7055H14.6767H14.648H14.6193H14.5906H14.5618H14.5331H14.5044H14.4757H14.4469H14.4182H14.3895H14.3607H14.332H14.3033H14.2745H14.2458H14.217H14.1882H14.1595H14.1307H14.1019H14.0732H14.0444H14.0156H13.9867H13.9579H13.9291H13.9003H13.8714H13.8426H13.8137H13.7848H13.7559H13.727H13.6981H13.6691H13.6402H13.6112H13.5823H13.5533H13.5242H13.4952H13.4662H13.4371H13.408H13.3789H13.3498H13.3207H13.2915H13.2624H13.2332H13.2039H13.1747H13.1454H13.1161H13.0868H13.0575H13.0282H12.9988H12.9694H12.9399H12.9105H12.881H12.8515H12.822H12.7924H12.7628H12.7332H12.7035H12.6738H12.6441H12.6144H12.5846H12.5548H12.525H12.4951H12.4652H12.4353H12.4053H12.3753H12.3453H12.3152H12.2851H12.2549H12.2248H12.1945H12.1643H12.134H12.1037H12.0733H12.0429H12.0124H11.9819H11.9514H11.9208H11.8902H11.8596H11.8289H11.7981H11.7673H11.7365H11.7056H11.6747H11.6437H11.6127H11.5817H11.5506H11.5194H11.4882H11.457H11.4257H11.3943H11.3629H11.3315H11.3H11.2684H11.2368H11.2052H11.1735H11.1417H11.1099H11.078H11.0461H11.0141H10.9821H10.95H10.9179H10.8857H10.8534H10.8211H10.7887H10.7563H10.7238H10.6913H10.6587H10.626H10.5933H10.5605H10.5276H10.4947H10.4617H10.4287H10.3956H10.3624H10.3292H10.2959H10.2625H10.2291H10.1956H10.162H10.1284H10.0947H10.0609H10.0271H9.99316H9.95918H9.92513H9.89101H9.85682H9.82256H9.78823H9.75382H9.71935H9.68479H9.65017H9.61547H9.58069H9.54584H9.51091H9.47591H9.44083H9.40567H9.37044H9.33512H9.29973H9.26426H9.22871H9.19308H9.15737H9.12157H9.0857H9.04974H9.0137H8.97758H8.94138H8.90509H8.86872H8.83226H8.79572H8.75909H8.72237H8.68557H8.64868H8.61171H8.57464H8.53749H8.50025H8.46292H8.4255H8.38799H8.35038H8.31269H8.2749H8.23703H8.19906H8.16099H8.12284H8.08459H8.04624H8.0078H7.96926H7.93063H7.8919H7.85308H7.81415H7.77513H7.73602H7.6968H7.65748H7.61806H7.57855H7.53893H7.49921H7.45939H7.41947H7.37944H7.33932H7.29908H7.25875H7.21831H7.17777H7.13712H7.09636H7.0555H7.01453H6.97345H6.93227H6.89098H6.84958H6.80807H6.76645H6.72472H6.68288H6.64093H6.59887H6.5567H6.51442H6.47202H6.42951H6.38688H6.34414H6.30129H6.25832H6.21523H6.17203H6.12871H6.08528H6.04173H5.99806H5.95427H5.91036H5.86634H5.82219H5.77792H5.73354H5.68903H5.6444H5.59965H5.55477H5.50977H5.46465H5.41941H5.37404H5.32854H5.28292H5.23718H5.1913H5.1453H5.09918H5.05292H5.00654H4.96003H4.91339H4.86662H4.81972H4.77269H4.72553H4.67823H4.63081H4.58325ZM31.9999 31.333C31.5857 31.333 31.2499 31.6688 31.2499 32.083C31.2499 32.4972 31.5857 32.833 31.9999 32.833H32.0116H32.0234H32.0352H32.047H32.0588H32.0706H32.0824H32.0942H32.106H32.1178H32.1297H32.1415H32.1534H32.1652H32.1771H32.1889H32.2008H32.2127H32.2245H32.2364H32.2483H32.2602H32.2721H32.2841H32.296H32.3079H32.3198H32.3318H32.3437H32.3557H32.3677H32.3796H32.3916H32.4036H32.4156H32.4276H32.4396H32.4516H32.4636H32.4756H32.4877H32.4997H32.5117H32.5238H32.5359H32.5479H32.56H32.5721H32.5842H32.5963H32.6084H32.6205H32.6326H32.6447H32.6569H32.669H32.6812H32.6933H32.7055H32.7177H32.7298H32.742H32.7542H32.7664H32.7786H32.7909H32.8031H32.8153H32.8276H32.8398H32.8521H32.8643H32.8766H32.8889H32.9012H32.9135H32.9258H32.9381H32.9504H32.9628H32.9751H32.9874H32.9998H33.0122H33.0245H33.0369H33.0493H33.0617H33.0741H33.0865H33.0989H33.1114H33.1238H33.1363H33.1487H33.1612H33.1737H33.1861H33.1986H33.2111H33.2236H33.2362H33.2487H33.2612H33.2738H33.2863H33.2989H33.3115H33.324H33.3366H33.3492H33.3618H33.3744H33.3871H33.3997H33.4123H33.425H33.4377H33.4503H33.463H33.4757H33.4884H33.5011H33.5138H33.5265H33.5393H33.552H33.5648H33.5775H33.5903H33.6031H33.6159H33.6287H33.6415H33.6543H33.6672H33.68H33.6928H33.7057H33.7186H33.7315H33.7443H33.7572H33.7702H33.7831H33.796H33.8089H33.8219H33.8348H33.8478H33.8608H33.8738H33.8868H33.8998H33.9128H33.9258H33.9389H33.9519H33.965H33.9781H33.9911H34.0042H34.0173H34.0305H34.0436H34.0567H34.0699H34.083H34.0962H34.1094H34.1225H34.1357H34.1489H34.1622H34.1754H34.1886H34.2019H34.2151H34.2284H34.2417H34.255H34.2683H34.2816H34.2949H34.3083H34.3216H34.335H34.3484H34.3617H34.3751H34.3885H34.4019H34.4154H34.4288H34.4423H34.4557H34.4692H34.4827H34.4962H34.5097H34.5232H34.5367H34.5503H34.5638H34.5774H34.5909H34.6045H34.6181H34.6317H34.6454H34.659H34.6726H34.6863H34.7H34.7136H34.7273H34.741H34.7547H34.7685H34.7822H34.796H34.8097H34.8235H34.8373H34.8511H34.8649H34.8787H34.8926H34.9064H34.9203H34.9341H34.948H34.9619H34.9758H34.9897H35.0037H35.0176H35.0316H35.0456H35.0595H35.0735H35.0875H35.1016H35.1156H35.1296H35.1437H35.1578H35.1719H35.186H35.2001H35.2142H35.2283H35.2425H35.2566H35.2708H35.285H35.2992H35.3134H35.3276H35.3419H35.3561H35.3704H35.3846H35.3989H35.4132H35.4276H35.4419H35.4562H35.4706H35.485H35.4993H35.5137H35.5281H35.5426H35.557H35.5715H35.5859H35.6004H35.6149H35.6294H35.6439H35.6584H35.673H35.6875H35.7021H35.7167H35.7313H35.7459H35.7605H35.7752H35.7898H35.8045H35.8192H35.8339H35.8486H35.8633H35.878H35.8928H35.9076H35.9223H35.9371H35.9519H35.9668H35.9816H35.9964H36.0113H36.0262H36.0411H36.056H36.0709H36.0858H36.1008H36.1158H36.1307H36.1457H36.1608H36.1758H36.1908H36.2059H36.2209H36.236H36.2511H36.2662H36.2813H36.2965H36.3116H36.3268H36.342H36.3572H36.3724H36.3876H36.4029H36.4181H36.4334H36.4487H36.464H36.4793H36.4947H36.51H36.5254H36.5408H36.5561H36.5716H36.587H36.6024H36.6179H36.6334H36.6488H36.6643H36.6799H36.6954H36.7109H36.7265H36.7421H36.7577H36.7733H36.7889H36.8046H36.8202H36.8359H36.8516H36.8673H36.883H36.8987H36.9145H36.9303H36.946H36.9618H36.9777H36.9935H37.0093H37.0252H37.0411H37.057H37.0729H37.0888H37.1048H37.1207H37.1367H37.1527H37.1687H37.1847H37.2008H37.2168H37.2329H37.249H37.2651H37.2812H37.2974H37.3135H37.3297H37.3459H37.3621H37.3783H37.3945H37.4108H37.4271H37.4434H37.4597H37.476H37.4923H37.5087H37.525H37.5414H37.5578H37.5743H37.5907H37.6072H37.6236H37.6401H37.6566H37.6732H37.6897H37.7063H37.7228H37.7394H37.7561H37.7727H37.7893H37.806H37.8227H37.8394H37.8561H37.8728H37.8896H37.9063H37.9231H37.9399H37.9567H37.9736H37.9904H38.0073H38.0242H38.0411H38.058H38.075H38.0919H38.1089H38.1259H38.1429H38.16H38.177H38.1941H38.2112H38.2283H38.2454H38.2625H38.2797H38.2969H38.3141H38.3313H38.3485H38.3658H38.383H38.4003H38.4176H38.4349H38.4523H38.4696H38.487H38.5044H38.5218H38.5392H38.5567H38.5742H38.5917H38.6092H38.6267H38.6442H38.6618H38.6794H38.697H38.7146H38.7322H38.7499H38.7676H38.7853H38.803H38.8207H38.8384H38.8562H38.874H38.8918H38.9096H38.9275H38.9453H38.9632H38.9811H38.9991H39.017H39.035H39.0529H39.0709H39.0889H39.107H39.125H39.1431H39.1612H39.1793H39.1975H39.2156H39.2338H39.252H39.2702H39.2884H39.3067H39.3249H39.3432H39.3615H39.3799H39.3982H39.4166C39.8308 32.833 40.1666 32.4972 40.1666 32.083C40.1666 31.6688 39.8308 31.333 39.4166 31.333H39.3982H39.3799H39.3615H39.3432H39.3249H39.3067H39.2884H39.2702H39.252H39.2338H39.2156H39.1975H39.1793H39.1612H39.1431H39.125H39.107H39.0889H39.0709H39.0529H39.035H39.017H38.9991H38.9811H38.9632H38.9453H38.9275H38.9096H38.8918H38.874H38.8562H38.8384H38.8207H38.803H38.7853H38.7676H38.7499H38.7322H38.7146H38.697H38.6794H38.6618H38.6442H38.6267H38.6092H38.5917H38.5742H38.5567H38.5392H38.5218H38.5044H38.487H38.4696H38.4523H38.4349H38.4176H38.4003H38.383H38.3658H38.3485H38.3313H38.3141H38.2969H38.2797H38.2625H38.2454H38.2283H38.2112H38.1941H38.177H38.16H38.1429H38.1259H38.1089H38.0919H38.075H38.058H38.0411H38.0242H38.0073H37.9904H37.9736H37.9567H37.9399H37.9231H37.9063H37.8896H37.8728H37.8561H37.8394H37.8227H37.806H37.7893H37.7727H37.7561H37.7394H37.7228H37.7063H37.6897H37.6732H37.6566H37.6401H37.6236H37.6072H37.5907H37.5743H37.5578H37.5414H37.525H37.5087H37.4923H37.476H37.4597H37.4434H37.4271H37.4108H37.3945H37.3783H37.3621H37.3459H37.3297H37.3135H37.2974H37.2812H37.2651H37.249H37.2329H37.2168H37.2008H37.1847H37.1687H37.1527H37.1367H37.1207H37.1048H37.0888H37.0729H37.057H37.0411H37.0252H37.0093H36.9935H36.9777H36.9618H36.946H36.9303H36.9145H36.8987H36.883H36.8673H36.8516H36.8359H36.8202H36.8046H36.7889H36.7733H36.7577H36.7421H36.7265H36.7109H36.6954H36.6799H36.6643H36.6488H36.6334H36.6179H36.6024H36.587H36.5716H36.5561H36.5408H36.5254H36.51H36.4947H36.4793H36.464H36.4487H36.4334H36.4181H36.4029H36.3876H36.3724H36.3572H36.342H36.3268H36.3116H36.2965H36.2813H36.2662H36.2511H36.236H36.2209H36.2059H36.1908H36.1758H36.1608H36.1457H36.1307H36.1158H36.1008H36.0858H36.0709H36.056H36.0411H36.0262H36.0113H35.9964H35.9816H35.9668H35.9519H35.9371H35.9223H35.9076H35.8928H35.878H35.8633H35.8486H35.8339H35.8192H35.8045H35.7898H35.7752H35.7605H35.7459H35.7313H35.7167H35.7021H35.6875H35.673H35.6584H35.6439H35.6294H35.6149H35.6004H35.5859H35.5715H35.557H35.5426H35.5281H35.5137H35.4993H35.485H35.4706H35.4562H35.4419H35.4276H35.4132H35.3989H35.3846H35.3704H35.3561H35.3419H35.3276H35.3134H35.2992H35.285H35.2708H35.2566H35.2425H35.2283H35.2142H35.2001H35.186H35.1719H35.1578H35.1437H35.1296H35.1156H35.1016H35.0875H35.0735H35.0595H35.0456H35.0316H35.0176H35.0037H34.9897H34.9758H34.9619H34.948H34.9341H34.9203H34.9064H34.8926H34.8787H34.8649H34.8511H34.8373H34.8235H34.8097H34.796H34.7822H34.7685H34.7547H34.741H34.7273H34.7136H34.7H34.6863H34.6726H34.659H34.6454H34.6317H34.6181H34.6045H34.5909H34.5774H34.5638H34.5503H34.5367H34.5232H34.5097H34.4962H34.4827H34.4692H34.4557H34.4423H34.4288H34.4154H34.4019H34.3885H34.3751H34.3617H34.3484H34.335H34.3216H34.3083H34.2949H34.2816H34.2683H34.255H34.2417H34.2284H34.2151H34.2019H34.1886H34.1754H34.1622H34.1489H34.1357H34.1225H34.1094H34.0962H34.083H34.0699H34.0567H34.0436H34.0305H34.0173H34.0042H33.9911H33.9781H33.965H33.9519H33.9389H33.9258H33.9128H33.8998H33.8868H33.8738H33.8608H33.8478H33.8348H33.8219H33.8089H33.796H33.7831H33.7702H33.7572H33.7443H33.7315H33.7186H33.7057H33.6928H33.68H33.6672H33.6543H33.6415H33.6287H33.6159H33.6031H33.5903H33.5775H33.5648H33.552H33.5393H33.5265H33.5138H33.5011H33.4884H33.4757H33.463H33.4503H33.4377H33.425H33.4123H33.3997H33.3871H33.3744H33.3618H33.3492H33.3366H33.324H33.3115H33.2989H33.2863H33.2738H33.2612H33.2487H33.2362H33.2236H33.2111H33.1986H33.1861H33.1737H33.1612H33.1487H33.1363H33.1238H33.1114H33.0989H33.0865H33.0741H33.0617H33.0493H33.0369H33.0245H33.0122H32.9998H32.9874H32.9751H32.9628H32.9504H32.9381H32.9258H32.9135H32.9012H32.8889H32.8766H32.8643H32.8521H32.8398H32.8276H32.8153H32.8031H32.7909H32.7786H32.7664H32.7542H32.742H32.7298H32.7177H32.7055H32.6933H32.6812H32.669H32.6569H32.6447H32.6326H32.6205H32.6084H32.5963H32.5842H32.5721H32.56H32.5479H32.5359H32.5238H32.5117H32.4997H32.4877H32.4756H32.4636H32.4516H32.4396H32.4276H32.4156H32.4036H32.3916H32.3796H32.3677H32.3557H32.3437H32.3318H32.3198H32.3079H32.296H32.2841H32.2721H32.2602H32.2483H32.2364H32.2245H32.2127H32.2008H32.1889H32.1771H32.1652H32.1534H32.1415H32.1297H32.1178H32.106H32.0942H32.0824H32.0706H32.0588H32.047H32.0352H32.0234H32.0116H31.9999Z" fill="#252323"/>
</g>
<defs>
<clipPath id="clip0_1030_11272">
<rect width="44" height="44" fill="white"/>
</clipPath>
</defs>
</svg>
