<svg width="28" height="28" viewBox="0 0 28 28" fill="none" xmlns="http://www.w3.org/2000/svg">
<g clip-path="url(#clip0_611_5637)">
<path d="M24.8465 14.016C24.8465 19.9975 19.9975 24.8465 14.016 24.8465C8.03452 24.8465 3.18555 19.9975 3.18555 14.016C3.18555 8.03452 8.03452 3.18555 14.016 3.18555C14.9187 3.18555 15.7957 3.29599 16.634 3.50409C16.634 5.41535 17.5433 6.90111 18.7942 7.9637C19.4611 8.53021 20.3556 8.95467 21.3425 9.22234C22.1538 9.44234 23.0275 9.55642 23.8887 9.55642C24.504 10.9164 24.8465 12.4262 24.8465 14.016Z" fill="#E05149"/>
<path fill-rule="evenodd" clip-rule="evenodd" d="M3.93555 14.016C3.93555 8.44874 8.44874 3.93555 14.016 3.93555C14.6646 3.93555 15.2983 3.99671 15.9119 4.11341C16.0862 5.99705 17.0597 7.47438 18.3086 8.53531C19.5869 9.62115 21.5155 10.2057 23.3875 10.2945C23.8448 11.4451 24.0965 12.7004 24.0965 14.016C24.0965 17.9278 21.8686 21.3204 18.609 22.992C18.2404 23.181 18.0948 23.633 18.2838 24.0016C18.4728 24.3701 18.9248 24.5157 19.2934 24.3267C23.0341 22.4085 25.5965 18.5122 25.5965 14.016C25.5965 12.3175 25.2304 10.7025 24.572 9.24727C24.4776 9.03854 24.2929 8.88442 24.0707 8.82883C21.5527 8.19907 20.2747 7.59882 19.4324 6.81678C18.581 6.0264 18.0964 4.98696 17.3218 3.20511C17.2288 2.99099 17.0413 2.83243 16.8147 2.77618C15.9177 2.55352 14.9801 2.43555 14.016 2.43555C7.62031 2.43555 2.43555 7.62031 2.43555 14.016C2.43555 16.7148 3.35966 19.1999 4.90821 21.1691C5.16426 21.4947 5.63577 21.551 5.96137 21.295C6.28696 21.039 6.34334 20.5674 6.0873 20.2418C4.73922 18.5276 3.93555 16.3667 3.93555 14.016ZM8.67986 22.57C8.32864 22.3504 7.86591 22.4571 7.64632 22.8083C7.42672 23.1596 7.53342 23.6223 7.88464 23.8419C9.66321 24.9539 11.7657 25.5965 14.016 25.5965C14.4302 25.5965 14.766 25.2607 14.766 24.8465C14.766 24.4323 14.4302 24.0965 14.016 24.0965C12.055 24.0965 10.2269 23.5373 8.67986 22.57ZM13.0604 8.28225C13.94 8.28225 14.6531 7.8544 14.6531 7.32662C14.6531 6.79884 13.94 6.37098 13.0604 6.37098C12.1808 6.37098 11.4677 6.79884 11.4677 7.32662C11.4677 7.8544 12.1808 8.28225 13.0604 8.28225ZM12.5487 12.2084C13.1212 12.6175 13.005 13.7614 12.2891 14.7634C11.5732 15.7655 10.5286 16.2461 9.95607 15.837C9.3835 15.4279 9.49971 14.284 10.2156 13.282C10.9316 12.28 11.9761 11.7993 12.5487 12.2084ZM16.4901 18.5552C17.4451 18.1952 18.0524 17.461 17.8467 16.9153C17.641 16.3696 16.7 16.2191 15.7451 16.5791C14.7902 16.9392 14.1828 17.6734 14.3885 18.2191C14.5943 18.7647 15.5352 18.9152 16.4901 18.5552ZM14.559 22.2003C14.4392 22.5653 13.556 22.6033 12.5863 22.2851C11.6166 21.9669 10.9277 21.413 11.0475 21.0479C11.1673 20.6828 12.0505 20.6449 13.0201 20.9631C13.9898 21.2813 14.6788 21.8352 14.559 22.2003ZM17.0795 12.0985C17.364 12.8255 17.9314 13.2831 18.3468 13.1205C18.7622 12.958 18.8684 12.2368 18.5839 11.5098C18.2994 10.7829 17.732 10.3253 17.3166 10.4879C16.9011 10.6504 16.795 11.3715 17.0795 12.0985ZM23.2825 13.361C23.1237 13.4231 22.839 13.0748 22.6466 12.5831C22.4542 12.0913 22.4269 11.6423 22.5856 11.5802C22.7444 11.518 23.029 11.8663 23.2215 12.3581C23.4139 12.8499 23.4412 13.2989 23.2825 13.361ZM7.64516 10.8306C8.34887 10.8306 8.91933 10.4027 8.91933 9.87497C8.91933 9.34719 8.34887 8.91934 7.64516 8.91934C6.94145 8.91934 6.37098 9.34719 6.37098 9.87497C6.37098 10.4027 6.94145 10.8306 7.64516 10.8306ZM8.91934 18.1571C8.91934 18.6849 8.6341 19.1127 8.28225 19.1127C7.93039 19.1127 7.64516 18.6849 7.64516 18.1571C7.64516 17.6293 7.93039 17.2015 8.28225 17.2015C8.6341 17.2015 8.91934 17.6293 8.91934 18.1571ZM21.024 17.2015C21.3759 17.2015 21.6611 16.7736 21.6611 16.2458C21.6611 15.7181 21.3759 15.2902 21.024 15.2902C20.6721 15.2902 20.3869 15.7181 20.3869 16.2458C20.3869 16.7736 20.6721 17.2015 21.024 17.2015ZM5.7339 14.016C5.7339 14.3679 5.59128 14.6531 5.41535 14.6531C5.23943 14.6531 5.09681 14.3679 5.09681 14.016C5.09681 13.6642 5.23943 13.3789 5.41535 13.3789C5.59128 13.3789 5.7339 13.6642 5.7339 14.016ZM19.3197 20.8196C19.434 20.9534 19.7435 20.8766 20.011 20.648C20.2785 20.4195 20.4028 20.1258 20.2885 19.992C20.1742 19.8583 19.8647 19.9351 19.5972 20.1636C19.3297 20.3922 19.2054 20.6859 19.3197 20.8196Z" fill="#252323"/>
</g>
<defs>
<clipPath id="clip0_611_5637">
<rect width="28" height="28" fill="white"/>
</clipPath>
</defs>
</svg>
