<svg width="44" height="44" viewBox="0 0 44 44" fill="none" xmlns="http://www.w3.org/2000/svg">
<path d="M39 22C39 31.3888 31.3888 39 22 39C12.6112 39 5 31.3888 5 22C5 12.6112 12.6112 5 22 5C23.4169 5 24.7934 5.17335 26.1093 5.5C26.1093 8.5 27.5366 10.8321 29.5 12.5C30.5468 13.3892 31.9508 14.0555 33.5 14.4756C34.7733 14.8209 36.1447 15 37.4965 15C38.4623 17.1347 39 19.5046 39 22Z" fill="#E05149"/>
<path fill-rule="evenodd" clip-rule="evenodd" d="M5.75 22C5.75 13.0254 13.0254 5.75 22 5.75C23.1587 5.75 24.2883 5.87115 25.3772 6.10125C25.5558 9.07737 27.0516 11.4042 29.0144 13.0716C30.989 14.749 34.0421 15.6516 37.0016 15.7424C37.8056 17.6675 38.25 19.781 38.25 22C38.25 28.3065 34.6577 33.7752 29.4042 36.4692C29.0356 36.6582 28.89 37.1102 29.079 37.4788C29.268 37.8474 29.7201 37.9929 30.0886 37.8039C35.8232 34.8633 39.75 28.8909 39.75 22C39.75 19.3959 39.1887 16.9208 38.1798 14.6908C38.0854 14.4821 37.9007 14.328 37.6785 14.2724C33.7095 13.2797 31.6153 12.3166 30.211 11.0129C28.7977 9.70078 28.0054 7.98088 26.7971 5.20102C26.704 4.9869 26.5166 4.82834 26.29 4.77209C24.9154 4.43089 23.4783 4.25 22 4.25C12.1969 4.25 4.25 12.1969 4.25 22C4.25 26.137 5.66623 29.9453 8.03979 32.9636C8.29584 33.2892 8.76736 33.3456 9.09295 33.0895C9.41855 32.8335 9.47493 32.362 9.21888 32.0364C7.04578 29.273 5.75 25.7889 5.75 22ZM13.3976 35.789C13.0464 35.5694 12.5837 35.6761 12.3641 36.0273C12.1445 36.3785 12.2512 36.8412 12.6024 37.0608C15.3282 38.7651 18.5502 39.75 22 39.75C22.4142 39.75 22.75 39.4142 22.75 39C22.75 38.5858 22.4142 38.25 22 38.25C18.8395 38.25 15.8919 37.3485 13.3976 35.789ZM20.5 13C21.8807 13 23 12.3284 23 11.5C23 10.6716 21.8807 10 20.5 10C19.1193 10 18 10.6716 18 11.5C18 12.3284 19.1193 13 20.5 13ZM19.6968 19.1627C20.5955 19.8048 20.4131 21.6004 19.2893 23.1732C18.1656 24.746 16.526 25.5004 15.6273 24.8583C14.7286 24.2161 14.911 22.4206 16.0347 20.8478C17.1585 19.275 18.798 18.5205 19.6968 19.1627ZM25.8834 29.1249C27.3823 28.5598 28.3357 27.4073 28.0127 26.5508C27.6898 25.6943 26.2129 25.4581 24.714 26.0232C23.2151 26.5883 22.2618 27.7407 22.5847 28.5973C22.9076 29.4538 24.3845 29.69 25.8834 29.1249ZM22.8522 34.8463C22.6642 35.4193 21.2779 35.4789 19.7558 34.9795C18.2338 34.48 17.1524 33.6105 17.3404 33.0375C17.5285 32.4645 18.9148 32.4049 20.4368 32.9044C21.9588 33.4039 23.0403 34.2733 22.8522 34.8463ZM26.8085 18.9902C27.2551 20.1313 28.1457 20.8495 28.7977 20.5944C29.4498 20.3392 29.6164 19.2073 29.1699 18.0662C28.7233 16.9251 27.8327 16.2069 27.1807 16.462C26.5286 16.7172 26.362 17.8491 26.8085 18.9902ZM36.545 20.9718C36.2958 21.0693 35.849 20.5226 35.5469 19.7507C35.2448 18.9789 35.202 18.2741 35.4512 18.1766C35.7003 18.079 36.1472 18.6257 36.4493 19.3976C36.7513 20.1695 36.7942 20.8743 36.545 20.9718ZM12 17C13.1046 17 14 16.3284 14 15.5C14 14.6716 13.1046 14 12 14C10.8954 14 10 14.6716 10 15.5C10 16.3284 10.8954 17 12 17ZM14 28.5C14 29.3284 13.5523 30 13 30C12.4477 30 12 29.3284 12 28.5C12 27.6716 12.4477 27 13 27C13.5523 27 14 27.6716 14 28.5ZM33 27C33.5523 27 34 26.3284 34 25.5C34 24.6716 33.5523 24 33 24C32.4477 24 32 24.6716 32 25.5C32 26.3284 32.4477 27 33 27ZM9 22C9 22.5523 8.77614 23 8.5 23C8.22386 23 8 22.5523 8 22C8 21.4477 8.22386 21 8.5 21C8.77614 21 9 21.4477 9 22ZM30.3249 32.6792C30.5042 32.8892 30.99 32.7686 31.41 32.4099C31.8299 32.0511 32.0249 31.5901 31.8455 31.3802C31.6662 31.1702 31.1803 31.2908 30.7604 31.6495C30.3405 32.0083 30.1455 32.4693 30.3249 32.6792Z" fill="#332A2A"/>
</svg>
