<svg width="23" height="23" viewBox="0 0 23 23" fill="none" xmlns="http://www.w3.org/2000/svg">
<g clip-path="url(#clip0_611_5653)">
<path d="M20.4096 11.5132C20.4096 16.4266 16.4266 20.4096 11.5132 20.4096C6.59979 20.4096 2.6167 16.4266 2.6167 11.5132C2.6167 6.59979 6.59979 2.6167 11.5132 2.6167C12.2547 2.6167 12.975 2.70742 13.6636 2.87836C13.6636 4.44833 14.4106 5.66877 15.4381 6.54161C15.9859 7.00696 16.7206 7.35562 17.5314 7.57549C18.1977 7.7562 18.9154 7.84992 19.6228 7.84992C20.1283 8.96707 20.4096 10.2073 20.4096 11.5132Z" fill="#E05149"/>
<path fill-rule="evenodd" clip-rule="evenodd" d="M3.3667 11.5132C3.3667 7.014 7.014 3.3667 11.5132 3.3667C12.003 3.3667 12.4822 3.40985 12.9474 3.49242C13.1192 5.03257 13.9278 6.24275 14.9525 7.11322C16.0114 8.01267 17.5869 8.4978 19.1179 8.58541C19.4677 9.49323 19.6596 10.48 19.6596 11.5132C19.6596 14.6742 17.8594 17.4161 15.2248 18.7671C14.8562 18.9561 14.7107 19.4081 14.8997 19.7767C15.0887 20.1453 15.5407 20.2908 15.9093 20.1018C19.0249 18.5041 21.1596 15.2586 21.1596 11.5132C21.1596 10.0986 20.8547 8.75313 20.3062 7.54077C20.2117 7.33204 20.0271 7.17792 19.8048 7.12233C17.7417 6.60633 16.7196 6.11985 16.0534 5.50135C15.3782 4.8745 14.99 4.04837 14.3515 2.57938C14.2584 2.36526 14.0709 2.2067 13.8443 2.15045C13.0971 1.96495 12.3161 1.8667 11.5132 1.8667C6.18557 1.8667 1.8667 6.18557 1.8667 11.5132C1.8667 13.7611 2.63655 15.8314 3.92647 17.4717C4.18251 17.7973 4.65403 17.8536 4.97963 17.5976C5.30522 17.3415 5.3616 16.87 5.10556 16.5444C4.0161 15.1591 3.3667 13.413 3.3667 11.5132ZM7.20088 18.4261C6.84967 18.2065 6.38694 18.3132 6.16735 18.6644C5.94775 19.0156 6.05445 19.4784 6.40567 19.698C7.88731 20.6243 9.63887 21.1596 11.5132 21.1596C11.9274 21.1596 12.2632 20.8239 12.2632 20.4096C12.2632 19.9954 11.9274 19.6596 11.5132 19.6596C9.92818 19.6596 8.45104 19.2078 7.20088 18.4261ZM10.7282 6.80327C11.4507 6.80327 12.0365 6.45183 12.0365 6.01829C12.0365 5.58476 11.4507 5.23331 10.7282 5.23331C10.0056 5.23331 9.41988 5.58476 9.41988 6.01829C9.41988 6.45183 10.0056 6.80327 10.7282 6.80327ZM10.3078 10.0283C10.7782 10.3644 10.6827 11.304 10.0946 12.1271C9.50654 12.9502 8.64853 13.345 8.1782 13.009C7.70787 12.6729 7.80333 11.7333 8.39141 10.9102C8.9795 10.0871 9.83751 9.6923 10.3078 10.0283ZM13.5455 15.2418C14.3299 14.9461 14.8288 14.3429 14.6598 13.8947C14.4908 13.4465 13.7179 13.3228 12.9335 13.6186C12.1491 13.9143 11.6502 14.5174 11.8192 14.9657C11.9881 15.4139 12.761 15.5375 13.5455 15.2418ZM11.9592 18.2359C11.8607 18.5358 11.1353 18.567 10.3388 18.3056C9.54223 18.0442 8.97631 17.5892 9.07471 17.2894C9.17312 16.9895 9.8986 16.9583 10.6951 17.2197C11.4916 17.4811 12.0576 17.9361 11.9592 18.2359ZM14.0296 9.93809C14.2633 10.5353 14.7293 10.9111 15.0706 10.7776C15.4118 10.644 15.499 10.0517 15.2653 9.45452C15.0316 8.85735 14.5656 8.48149 14.2243 8.61503C13.8831 8.74856 13.7959 9.34092 14.0296 9.93809ZM19.1249 10.9751C18.9945 11.0261 18.7606 10.74 18.6026 10.3361C18.4445 9.93214 18.4221 9.56331 18.5525 9.51228C18.6829 9.46125 18.9167 9.74735 19.0748 10.1513C19.2329 10.5552 19.2553 10.9241 19.1249 10.9751ZM6.27995 8.89656C6.858 8.89656 7.3266 8.54511 7.3266 8.11158C7.3266 7.67805 6.858 7.3266 6.27995 7.3266C5.70191 7.3266 5.23331 7.67805 5.23331 8.11158C5.23331 8.54511 5.70191 8.89656 6.27995 8.89656ZM7.3266 14.9148C7.3266 15.3483 7.0923 15.6997 6.80328 15.6997C6.51425 15.6997 6.27995 15.3483 6.27995 14.9148C6.27995 14.4812 6.51425 14.1298 6.80328 14.1298C7.0923 14.1298 7.3266 14.4812 7.3266 14.9148ZM17.2697 14.1298C17.5587 14.1298 17.793 13.7783 17.793 13.3448C17.793 12.9113 17.5587 12.5598 17.2697 12.5598C16.9807 12.5598 16.7464 12.9113 16.7464 13.3448C16.7464 13.7783 16.9807 14.1298 17.2697 14.1298ZM4.70999 11.5132C4.70999 11.8022 4.59284 12.0365 4.44833 12.0365C4.30382 12.0365 4.18667 11.8022 4.18667 11.5132C4.18667 11.2241 4.30382 10.9898 4.44833 10.9898C4.59284 10.9898 4.70999 11.2241 4.70999 11.5132ZM15.8698 17.1018C15.9636 17.2117 16.2179 17.1486 16.4376 16.9609C16.6574 16.7732 16.7594 16.5319 16.6655 16.422C16.5717 16.3121 16.3174 16.3753 16.0977 16.563C15.8779 16.7507 15.7759 16.992 15.8698 17.1018Z" fill="#332A2A"/>
</g>
<defs>
<clipPath id="clip0_611_5653">
<rect width="23" height="23" fill="white"/>
</clipPath>
</defs>
</svg>
