<svg width="18" height="18" viewBox="0 0 18 18" fill="none" xmlns="http://www.w3.org/2000/svg">
<g clip-path="url(#clip0_611_5669)">
<path d="M15.9728 9.01031C15.9728 12.8556 12.8556 15.9728 9.01031 15.9728C5.16505 15.9728 2.04785 12.8556 2.04785 9.01031C2.04785 5.16505 5.16505 2.04785 9.01031 2.04785C9.59062 2.04785 10.1544 2.11885 10.6933 2.25263C10.6933 3.4813 11.2778 4.43643 12.082 5.11952C12.5107 5.48371 13.0857 5.75657 13.7202 5.92864C14.2417 6.07007 14.8034 6.14341 15.357 6.14341C15.7526 7.01771 15.9728 7.98829 15.9728 9.01031Z" fill="#E05149"/>
<path fill-rule="evenodd" clip-rule="evenodd" d="M2.67285 9.01031C2.67285 5.51023 5.51023 2.67285 9.01031 2.67285C9.38163 2.67285 9.74509 2.70472 10.0982 2.76577C10.2406 3.96893 10.8758 4.91496 11.6773 5.59586C12.5083 6.30177 13.7389 6.68288 14.9351 6.75555C15.2016 7.45542 15.3478 8.21518 15.3478 9.01031C15.3478 11.4693 13.9474 13.6024 11.8977 14.6534C11.5906 14.8109 11.4693 15.1876 11.6268 15.4948C11.7843 15.8019 12.1609 15.9232 12.4681 15.7657C14.9186 14.5091 16.5978 11.9563 16.5978 9.01031C16.5978 7.8977 16.3579 6.83943 15.9264 5.88579C15.8477 5.71185 15.6939 5.58341 15.5087 5.53709C13.8955 5.13364 13.1035 4.75478 12.5894 4.27752C12.0679 3.79331 11.7669 3.15464 11.2665 2.00348C11.1889 1.82505 11.0327 1.69291 10.8439 1.64604C10.2561 1.50013 9.64178 1.42285 9.01031 1.42285C4.81987 1.42285 1.42285 4.81987 1.42285 9.01031C1.42285 10.7784 2.0284 12.4068 3.04298 13.697C3.25636 13.9683 3.64928 14.0153 3.92061 13.8019C4.19195 13.5886 4.23893 13.1956 4.02556 12.9243C3.17803 11.8466 2.67285 10.4883 2.67285 9.01031ZM5.65564 14.3882C5.36296 14.2052 4.97736 14.2941 4.79436 14.5868C4.61137 14.8795 4.70028 15.2651 4.99296 15.4481C6.15838 16.1767 7.53613 16.5978 9.01031 16.5978C9.35549 16.5978 9.63531 16.3179 9.63531 15.9728C9.63531 15.6276 9.35549 15.3478 9.01031 15.3478C7.77722 15.3478 6.62815 14.9962 5.65564 14.3882ZM8.39597 5.3243C8.96145 5.3243 9.41986 5.04926 9.41986 4.70997C9.41986 4.37068 8.96145 4.09563 8.39597 4.09563C7.8305 4.09563 7.37208 4.37068 7.37208 4.70997C7.37208 5.04926 7.8305 5.3243 8.39597 5.3243ZM8.067 7.84827C8.43509 8.11126 8.36038 8.84664 7.90014 9.49079C7.4399 10.1349 6.76842 10.4439 6.40033 10.1809C6.03225 9.91793 6.10696 9.18255 6.56719 8.5384C7.02743 7.89426 7.69892 7.58527 8.067 7.84827ZM10.6008 11.9284C11.2147 11.6969 11.6051 11.2249 11.4729 10.8741C11.3406 10.5233 10.7357 10.4266 10.1219 10.658C9.50796 10.8895 9.11752 11.3615 9.24978 11.7123C9.38203 12.0631 9.9869 12.1598 10.6008 11.9284ZM9.35934 14.2716C9.28232 14.5063 8.71456 14.5307 8.0912 14.3261C7.46784 14.1216 7.02493 13.7655 7.10195 13.5308C7.17896 13.2961 7.74673 13.2717 8.37009 13.4763C8.99345 13.6808 9.43635 14.0369 9.35934 14.2716ZM10.9797 7.77763C11.1626 8.24499 11.5273 8.53913 11.7944 8.43463C12.0614 8.33012 12.1297 7.86654 11.9468 7.39919C11.7639 6.93184 11.3991 6.63769 11.1321 6.74219C10.865 6.8467 10.7968 7.31028 10.9797 7.77763ZM14.9673 8.58921C14.8653 8.62915 14.6822 8.40524 14.5585 8.08911C14.4348 7.77298 14.4173 7.48433 14.5193 7.44439C14.6214 7.40446 14.8044 7.62836 14.9281 7.94449C15.0518 8.26063 15.0694 8.54928 14.9673 8.58921ZM4.91475 6.96253C5.36713 6.96253 5.73386 6.68748 5.73386 6.34819C5.73386 6.00891 5.36713 5.73386 4.91475 5.73386C4.46236 5.73386 4.09563 6.00891 4.09563 6.34819C4.09563 6.68748 4.46236 6.96253 4.91475 6.96253ZM5.73386 11.6724C5.73386 12.0117 5.55049 12.2868 5.3243 12.2868C5.09811 12.2868 4.91475 12.0117 4.91475 11.6724C4.91475 11.3331 5.09811 11.0581 5.3243 11.0581C5.55049 11.0581 5.73386 11.3331 5.73386 11.6724ZM13.5154 11.0581C13.7416 11.0581 13.925 10.783 13.925 10.4438C13.925 10.1045 13.7416 9.82942 13.5154 9.82942C13.2892 9.82942 13.1059 10.1045 13.1059 10.4438C13.1059 10.783 13.2892 11.0581 13.5154 11.0581ZM3.68608 9.01031C3.68608 9.2365 3.59439 9.41986 3.4813 9.41986C3.3682 9.41986 3.27652 9.2365 3.27652 9.01031C3.27652 8.78412 3.3682 8.60075 3.4813 8.60075C3.59439 8.60075 3.68608 8.78412 3.68608 9.01031ZM12.4198 13.3841C12.4933 13.47 12.6922 13.4207 12.8642 13.2737C13.0362 13.1268 13.1161 12.938 13.0426 12.852C12.9691 12.766 12.7702 12.8154 12.5982 12.9623C12.4262 13.1093 12.3463 13.2981 12.4198 13.3841Z" fill="#252323"/>
</g>
<defs>
<clipPath id="clip0_611_5669">
<rect width="18" height="18" fill="white"/>
</clipPath>
</defs>
</svg>
