<svg width="18" height="18" viewBox="0 0 18 18" fill="none" xmlns="http://www.w3.org/2000/svg">
<g clip-path="url(#clip0_611_5669)">
<path d="M15.9728 9.01031C15.9728 12.8556 12.8556 15.9728 9.01031 15.9728C5.16505 15.9728 2.04785 12.8556 2.04785 9.01031C2.04785 5.16505 5.16505 2.04785 9.01031 2.04785C9.59062 2.04785 10.1544 2.11885 10.6933 2.25263C10.6933 3.4813 11.2778 4.43643 12.082 5.11952C12.5107 5.48371 13.0857 5.75657 13.7202 5.92864C14.2417 6.07007 14.8034 6.14341 15.357 6.14341C15.7526 7.01771 15.9728 7.98829 15.9728 9.01031Z" fill="#E05149"/>
<path d="M4.66895 14.4619C4.85184 14.1694 5.23765 14.0801 5.53027 14.2627C6.50278 14.8707 7.65266 15.2227 8.88574 15.2227C9.23068 15.2229 9.51068 15.5027 9.51074 15.8477C9.51074 16.1927 9.23072 16.4724 8.88574 16.4727C7.41166 16.4727 6.03353 16.0518 4.86816 15.3232C4.57558 15.1403 4.48619 14.7546 4.66895 14.4619ZM8.88574 1.29785C9.51706 1.29789 10.1311 1.37561 10.7188 1.52148C10.9076 1.56836 11.064 1.70048 11.1416 1.87891C11.6419 3.02981 11.9433 3.66819 12.4648 4.15234C12.9789 4.62954 13.7708 5.00869 15.3838 5.41211C15.5459 5.4527 15.6839 5.55634 15.7686 5.69824L15.8018 5.76074L15.9541 6.12305C16.2891 6.97973 16.4727 7.91215 16.4727 8.88574C16.4725 11.8316 14.7932 14.3841 12.3428 15.6406C12.0358 15.7979 11.6595 15.6769 11.502 15.3701C11.3445 15.063 11.4654 14.6859 11.7725 14.5283C13.822 13.4773 15.2225 11.3446 15.2227 8.88574C15.2227 8.08976 15.0747 7.32941 14.8076 6.62891C13.6123 6.55585 12.3831 6.17603 11.5527 5.4707C10.7514 4.78995 10.1152 3.8444 9.97266 2.6416C9.6198 2.58062 9.25678 2.54788 8.88574 2.54785C5.38566 2.54785 2.54785 5.38566 2.54785 8.88574C2.54795 10.3634 3.05312 11.7212 3.90039 12.7988C4.11369 13.0701 4.067 13.4633 3.7959 13.6768C3.52462 13.8901 3.13137 13.8435 2.91797 13.5723C1.90347 12.2822 1.29795 10.6537 1.29785 8.88574C1.29785 4.69531 4.69531 1.29785 8.88574 1.29785ZM6.97656 13.4062C7.05358 13.1716 7.62176 13.147 8.24512 13.3516C8.86832 13.5561 9.3112 13.9118 9.23438 14.1465C9.15736 14.3812 8.58918 14.4057 7.96582 14.2012C7.34309 13.9967 6.90039 13.6409 6.97656 13.4062ZM12.4736 12.8369C12.6455 12.6903 12.8445 12.6408 12.918 12.7266C12.9914 12.8125 12.9111 13.0015 12.7393 13.1484C12.5673 13.2954 12.3684 13.3448 12.2949 13.2588C12.2216 13.1728 12.3017 12.9838 12.4736 12.8369ZM5.19922 10.9326C5.42541 10.9326 5.6084 11.2086 5.6084 11.5479C5.60824 11.8869 5.42532 12.1621 5.19922 12.1621C4.97316 12.162 4.79019 11.8869 4.79004 11.5479C4.79004 11.2086 4.97307 10.9327 5.19922 10.9326ZM9.99707 10.5332C10.6108 10.3019 11.2153 10.3984 11.3477 10.749C11.4799 11.0998 11.0895 11.5723 10.4756 11.8037C9.8618 12.035 9.25723 11.9377 9.125 11.5869C8.993 11.2361 9.38331 10.7646 9.99707 10.5332ZM13.3906 9.7041C13.6166 9.70426 13.7997 9.97935 13.7998 10.3184C13.7998 10.6575 13.6167 10.9325 13.3906 10.9326C13.1644 10.9326 12.9805 10.6576 12.9805 10.3184C12.9806 9.97925 13.1645 9.7041 13.3906 9.7041ZM6.44238 8.41309C6.90262 7.76914 7.57436 7.46068 7.94238 7.72363C8.30998 7.98689 8.23545 8.72231 7.77539 9.36621C7.31516 10.0102 6.64344 10.3186 6.27539 10.0557C5.9074 9.79262 5.98218 9.05718 6.44238 8.41309ZM3.35645 8.47559C3.46947 8.47574 3.56152 8.65965 3.56152 8.88574C3.56141 9.11164 3.4694 9.29476 3.35645 9.29492C3.24342 9.29492 3.15148 9.11173 3.15137 8.88574C3.15137 8.65955 3.24335 8.47559 3.35645 8.47559ZM14.3945 7.31934C14.4966 7.27979 14.6791 7.50355 14.8027 7.81934C14.9262 8.13493 14.9442 8.42315 14.8428 8.46387C14.7407 8.5038 14.5573 8.28 14.4336 7.96387C14.31 7.64781 14.2925 7.35926 14.3945 7.31934ZM11.0068 6.61719C11.2739 6.51268 11.6384 6.80706 11.8213 7.27441C12.0042 7.74176 11.936 8.20507 11.6689 8.30957C11.4019 8.41369 11.0373 8.1195 10.8545 7.65234C10.6718 7.18522 10.74 6.72183 11.0068 6.61719ZM4.79004 5.6084C5.24229 5.60852 5.6084 5.88442 5.6084 6.22363C5.60808 6.56264 5.24209 6.83777 4.79004 6.83789C4.33785 6.83789 3.97102 6.56272 3.9707 6.22363C3.9707 5.88435 4.33766 5.6084 4.79004 5.6084ZM8.27051 3.9707C8.83598 3.9707 9.29492 4.24568 9.29492 4.58496C9.29492 4.92425 8.83599 5.19922 8.27051 5.19922C7.70524 5.19907 7.24707 4.92416 7.24707 4.58496C7.24708 4.24577 7.70525 3.97085 8.27051 3.9707Z" fill="#332A2A"/>
</g>
<defs>
<clipPath id="clip0_611_5669">
<rect width="18" height="18" fill="white"/>
</clipPath>
</defs>
</svg>
