<svg width="18" height="18" viewBox="0 0 18 18" fill="none" xmlns="http://www.w3.org/2000/svg">
<g clip-path="url(#clip0_2074_12811)">
<path d="M3 9.6875C3.34518 9.6875 3.625 9.96732 3.625 10.3125V15C3.625 15.4832 4.01675 15.875 4.5 15.875H5.0625C5.40768 15.875 5.6875 16.1548 5.6875 16.5C5.6875 16.8452 5.40768 17.125 5.0625 17.125H4.5C3.32639 17.125 2.375 16.1736 2.375 15V10.3125C2.375 9.96732 2.65482 9.6875 3 9.6875ZM13.5 0.875C14.6736 0.875001 15.625 1.8264 15.625 3V7.6875C15.625 8.03268 15.3452 8.3125 15 8.3125C14.6548 8.3125 14.375 8.03268 14.375 7.6875V3C14.375 2.51675 13.9832 2.125 13.5 2.125H8.25C7.76675 2.125 7.375 2.51675 7.375 3V3.5H9.75C10.9236 3.5 11.875 4.4514 11.875 5.625V13.25H13.5C13.9832 13.25 14.375 12.8582 14.375 12.375V10.7812C14.375 10.4361 14.6548 10.1562 15 10.1562C15.3452 10.1563 15.625 10.4361 15.625 10.7812V12.375C15.625 13.5486 14.6736 14.5 13.5 14.5H11.875V15C11.875 16.1736 10.9236 17.125 9.75 17.125H8C7.65482 17.125 7.375 16.8452 7.375 16.5C7.375 16.1548 7.65482 15.875 8 15.875H9.75C10.2332 15.875 10.625 15.4832 10.625 15V5.625C10.625 5.14175 10.2332 4.75 9.75 4.75H4.5C4.01675 4.75 3.625 5.14175 3.625 5.625V7.21875C3.625 7.56393 3.34518 7.84375 3 7.84375C2.65482 7.84375 2.375 7.56393 2.375 7.21875V5.625C2.375 4.4514 3.32639 3.5 4.5 3.5H6.125V3C6.125 1.82639 7.0764 0.875 8.25 0.875H13.5Z" fill="#332A2A"/>
</g>
<defs>
<clipPath id="clip0_2074_12811">
<rect width="18" height="18" fill="white"/>
</clipPath>
</defs>
</svg>
