<svg width="23" height="23" viewBox="0 0 23 23" fill="none" xmlns="http://www.w3.org/2000/svg">
<g clip-path="url(#clip0_2074_12840)">
<rect x="3.83325" y="5.271" width="10.5417" height="15.8125" rx="2" fill="#E05149"/>
<path d="M3.83301 12.502C4.20569 12.502 4.50764 12.8041 4.50781 13.1768V19.083C4.50781 19.8147 5.10138 20.408 5.83301 20.4082H6.46875C6.84128 20.4084 7.14338 20.7105 7.14355 21.083C7.14355 21.4557 6.84139 21.7576 6.46875 21.7578H5.83301C4.3558 21.7576 3.1582 20.5603 3.1582 19.083V13.1768C3.15838 12.8042 3.46047 12.5021 3.83301 12.502ZM17.167 1.24219C18.6442 1.24236 19.8418 2.43974 19.8418 3.91699V9.82324C19.8416 10.1958 19.5395 10.4979 19.167 10.498C18.7943 10.498 18.4914 10.1959 18.4912 9.82324V3.91699C18.4912 3.18533 17.8986 2.59197 17.167 2.5918H10.625C9.89322 2.5918 9.2998 3.18522 9.2998 3.91699V4.5957H12.375C13.8521 4.59588 15.0496 5.7934 15.0498 7.27051V17.0547H17.167C17.8985 17.0545 18.491 16.461 18.4912 15.7295V13.7764C18.4912 13.4036 18.7942 13.1016 19.167 13.1016C19.5396 13.1017 19.8418 13.4037 19.8418 13.7764V15.7295C19.8416 17.2066 18.6441 18.4041 17.167 18.4043H15.0498V19.083C15.0498 20.5603 13.8522 21.7576 12.375 21.7578H9.10352C8.73102 21.7575 8.42871 21.4556 8.42871 21.083C8.42889 20.7106 8.73113 20.4086 9.10352 20.4082H12.375C13.1066 20.408 13.6992 19.8147 13.6992 19.083V7.27051C13.699 6.53899 13.1065 5.94549 12.375 5.94531H8.63477C8.63151 5.94536 8.62826 5.94629 8.625 5.94629C8.62174 5.94629 8.61849 5.94536 8.61523 5.94531H5.83301C5.10149 5.94549 4.50799 6.53899 4.50781 7.27051V9.22363C4.50781 9.59643 4.2058 9.89844 3.83301 9.89844C3.46037 9.89826 3.1582 9.59632 3.1582 9.22363V7.27051C3.15838 5.7934 4.3559 4.59588 5.83301 4.5957H7.9502V3.91699C7.9502 2.43963 9.14764 1.24219 10.625 1.24219H17.167Z" fill="#332A2A"/>
</g>
<defs>
<clipPath id="clip0_2074_12840">
<rect width="23" height="23" fill="white"/>
</clipPath>
</defs>
</svg>
