<svg width="28" height="28" viewBox="0 0 28 28" fill="none" xmlns="http://www.w3.org/2000/svg">
<g clip-path="url(#clip0_2074_12809)">
<path d="M4.66699 15.292C5.08106 15.2922 5.41699 15.6279 5.41699 16.042V23.667C5.41717 24.3572 5.97675 24.917 6.66699 24.917H7.875C8.28906 24.9172 8.625 25.2529 8.625 25.667C8.62482 26.0809 8.28896 26.4168 7.875 26.417H6.66699C5.14832 26.417 3.91717 25.1856 3.91699 23.667V16.042C3.91699 15.6278 4.25278 15.292 4.66699 15.292ZM21.333 1.58301C22.8517 1.58301 24.0828 2.81438 24.083 4.33301V11.958C24.083 12.3722 23.7472 12.708 23.333 12.708C22.9189 12.7078 22.583 12.3721 22.583 11.958V4.33301C22.5828 3.6428 22.0233 3.08301 21.333 3.08301H12.5C11.8098 3.08301 11.2502 3.6428 11.25 4.33301V5.66699H15.5C17.0186 5.66717 18.25 6.89832 18.25 8.41699V20.833H21.333C22.0234 20.833 22.583 20.2734 22.583 19.583V16.7705C22.5832 16.3566 22.9191 16.0207 23.333 16.0205C23.7471 16.0205 24.0828 16.3564 24.083 16.7705V19.583C24.083 21.1018 22.8518 22.333 21.333 22.333H18.25V23.667C18.2498 25.1855 17.0185 26.4168 15.5 26.417H11.084C10.6699 26.417 10.3342 26.0811 10.334 25.667C10.334 25.2528 10.6698 24.917 11.084 24.917H15.5C16.1901 24.9168 16.7498 24.3571 16.75 23.667V8.41699C16.75 7.72674 16.1902 7.16717 15.5 7.16699H6.66699C5.97664 7.16699 5.41699 7.72664 5.41699 8.41699V11.2295C5.41682 11.6434 5.08095 11.9793 4.66699 11.9795C4.25289 11.9795 3.91717 11.6436 3.91699 11.2295V8.41699C3.91699 6.89821 5.14821 5.66699 6.66699 5.66699H9.75V4.33301C9.75018 2.81437 10.9813 1.58301 12.5 1.58301H21.333Z" fill="#332A2A"/>
</g>
<defs>
<clipPath id="clip0_2074_12809">
<rect width="28" height="28" fill="white"/>
</clipPath>
</defs>
</svg>
