<svg width="44" height="44" viewBox="0 0 44 44" fill="none" xmlns="http://www.w3.org/2000/svg">
<g clip-path="url(#clip0_2074_12838)">
<rect x="7.33325" y="10.0835" width="20.1667" height="30.25" rx="2" fill="#E05149"/>
<path d="M7.33301 24.458C7.74711 24.458 8.08283 24.7939 8.08301 25.208V38.333C8.08301 39.0233 8.6428 39.5828 9.33301 39.583H12.375C12.789 39.5832 13.1248 39.9191 13.125 40.333C13.125 40.7471 12.7891 41.0828 12.375 41.083H9.33301C7.81437 41.0828 6.58301 39.8517 6.58301 38.333V25.208C6.58318 24.7941 6.91905 24.4582 7.33301 24.458ZM34.667 2.91699C36.1856 2.91717 37.417 4.14832 37.417 5.66699V18.792C37.4168 19.2059 37.0809 19.5418 36.667 19.542C36.2529 19.542 35.9172 19.2061 35.917 18.792V5.66699C35.917 4.97674 35.3572 4.41717 34.667 4.41699H18.5C17.8096 4.41699 17.25 4.97664 17.25 5.66699V9.33301H25.5C27.0185 9.33318 28.2498 10.5645 28.25 12.083V33.167H34.667C35.3571 33.1668 35.9168 32.6071 35.917 31.917V26.3545C35.917 25.9403 36.2528 25.6045 36.667 25.6045C37.0811 25.6047 37.417 25.9404 37.417 26.3545V31.917C37.4168 33.4355 36.1855 34.6668 34.667 34.667H28.25V38.333C28.25 39.8517 27.0186 41.0828 25.5 41.083H17.416C17.0021 41.0827 16.666 40.747 16.666 40.333C16.6662 39.9192 17.0022 39.5834 17.416 39.583H25.5C26.1902 39.5828 26.75 39.0233 26.75 38.333V12.083C26.7498 11.3929 26.1901 10.8332 25.5 10.833H16.5195C16.513 10.8332 16.5065 10.834 16.5 10.834C16.4935 10.834 16.487 10.8332 16.4805 10.833H9.33301C8.64291 10.8332 8.08318 11.3929 8.08301 12.083V17.6455C8.08301 18.0597 7.74722 18.3955 7.33301 18.3955C6.91894 18.3953 6.58301 18.0596 6.58301 17.6455V12.083C6.58318 10.5645 7.81448 9.33318 9.33301 9.33301H15.75V5.66699C15.75 4.14821 16.9812 2.91699 18.5 2.91699H34.667Z" fill="#332A2A"/>
</g>
<defs>
<clipPath id="clip0_2074_12838">
<rect width="44" height="44" fill="white"/>
</clipPath>
</defs>
</svg>
