<svg width="44" height="44" viewBox="0 0 44 44" fill="none" xmlns="http://www.w3.org/2000/svg">
<g clip-path="url(#clip0_661_6076)">
<path fill-rule="evenodd" clip-rule="evenodd" d="M5.72912 9.91669C5.51049 9.91669 5.33325 10.0939 5.33325 10.3126V13.5714H38.6666V10.3131C38.6666 10.0944 38.4892 9.91709 38.2705 9.91719L22.3373 9.92414C21.9231 9.92432 21.5871 9.58868 21.587 9.17447C21.5868 8.76026 21.9224 8.42432 22.3366 8.42414L38.2699 8.41719C39.3173 8.41673 40.1666 9.26567 40.1666 10.3131V33.6875C40.1666 34.7345 39.3178 35.5834 38.2707 35.5834H22.337H5.72912C4.68206 35.5834 3.83325 34.7345 3.83325 33.6875V10.3126C3.83325 9.26549 4.68206 8.41669 5.72912 8.41669H13.6714C14.0856 8.41669 14.4214 8.75247 14.4214 9.16669C14.4214 9.5809 14.0856 9.91669 13.6714 9.91669H5.72912ZM5.33325 33.6875V19.8736H38.6666V33.6875C38.6666 33.9061 38.4893 34.0834 38.2707 34.0834H22.337H5.72912C5.51049 34.0834 5.33325 33.9061 5.33325 33.6875ZM7.99477 26.8343C7.58056 26.8343 7.24477 27.1701 7.24477 27.5843C7.24477 27.9985 7.58056 28.3343 7.99477 28.3343H25.326C25.7402 28.3343 26.076 27.9985 26.076 27.5843C26.076 27.1701 25.7402 26.8343 25.326 26.8343H7.99477ZM7.99477 30.5106C7.58056 30.5106 7.24477 30.8464 7.24477 31.2606C7.24477 31.6748 7.58056 32.0106 7.99477 32.0106H17.4481C17.8624 32.0106 18.1981 31.6748 18.1981 31.2606C18.1981 30.8464 17.8624 30.5106 17.4481 30.5106H7.99477ZM20.0741 30.5106C19.6599 30.5106 19.3241 30.8464 19.3241 31.2606C19.3241 31.6748 19.6599 32.0106 20.0741 32.0106H25.326C25.7402 32.0106 26.076 31.6748 26.076 31.2606C26.076 30.8464 25.7402 30.5106 25.326 30.5106H20.0741Z" fill="#252323"/>
</g>
<defs>
<clipPath id="clip0_661_6076">
<rect width="44" height="44" fill="white"/>
</clipPath>
</defs>
</svg>
