<svg width="18" height="18" viewBox="0 0 18 18" fill="none" xmlns="http://www.w3.org/2000/svg">
<g clip-path="url(#clip0_661_6051)">
<path d="M16.125 12.25V5.75C16.125 4.64543 15.2296 3.75 14.125 3.75H3.875C2.77043 3.75 1.875 4.64543 1.875 5.75V12.25C1.875 13.3546 2.77043 14.25 3.875 14.25H14.125C15.2296 14.25 16.125 13.3546 16.125 12.25Z" fill="#E05149"/>
<path fill-rule="evenodd" clip-rule="evenodd" d="M3.02086 4.375C2.7332 4.375 2.5 4.6082 2.5 4.89586V5.55192H15.5V4.89636C15.5 4.60861 15.2667 4.37537 14.9789 4.3755L9.13816 4.37805C8.79298 4.3782 8.51303 4.0985 8.51288 3.75332C8.51273 3.40814 8.79243 3.1282 9.13761 3.12805L14.9784 3.1255C15.9567 3.12507 16.75 3.91804 16.75 4.89636V13.1041C16.75 14.0822 15.9572 14.875 14.9791 14.875H9.13788H3.02087C2.04285 14.875 1.25 14.0822 1.25 13.1041V4.89586C1.25 3.91784 2.04284 3.125 3.02086 3.125H5.59287C5.93805 3.125 6.21787 3.40482 6.21787 3.75C6.21787 4.09518 5.93805 4.375 5.59287 4.375H3.02086ZM2.5 13.1041V8.13011H15.5V13.1041C15.5 13.3918 15.2668 13.625 14.9791 13.625H9.13788H3.02087C2.7332 13.625 2.5 13.3918 2.5 13.1041ZM3.52051 10.4095C3.17533 10.4095 2.89551 10.6893 2.89551 11.0345C2.89551 11.3797 3.17533 11.6595 3.52051 11.6595H10.6105C10.9557 11.6595 11.2355 11.3797 11.2355 11.0345C11.2355 10.6893 10.9557 10.4095 10.6105 10.4095H3.52051ZM3.52051 11.9134C3.17533 11.9134 2.89551 12.1933 2.89551 12.5384C2.89551 12.8836 3.17533 13.1634 3.52051 13.1634H6.74976C7.09493 13.1634 7.37476 12.8836 7.37476 12.5384C7.37476 12.1933 7.09493 11.9134 6.74976 11.9134H3.52051ZM8.46205 11.9134C8.11687 11.9134 7.83705 12.1933 7.83705 12.5384C7.83705 12.8836 8.11687 13.1634 8.46205 13.1634H10.6105C10.9557 13.1634 11.2355 12.8836 11.2355 12.5384C11.2355 12.1933 10.9557 11.9134 10.6105 11.9134H8.46205Z" fill="#252323"/>
</g>
<defs>
<clipPath id="clip0_661_6051">
<rect width="18" height="18" fill="white"/>
</clipPath>
</defs>
</svg>
