<svg width="28" height="28" viewBox="0 0 28 28" fill="none" xmlns="http://www.w3.org/2000/svg">
<g clip-path="url(#clip0_661_6037)">
<path d="M25.0834 20.1666V7.83331C25.0834 6.72874 24.188 5.83331 23.0834 5.83331H4.91675C3.81218 5.83331 2.91675 6.72874 2.91675 7.83331V20.1666C2.91675 21.2712 3.81218 22.1666 4.91675 22.1666H23.0834C24.188 22.1666 25.0834 21.2712 25.0834 20.1666Z" fill="#E05149"/>
<path d="M8.59058 4.97394C9.00479 4.97394 9.34058 5.30972 9.34058 5.72394C9.34058 6.13815 9.00479 6.47394 8.59058 6.47394H3.95288C3.73453 6.47413 3.55756 6.6511 3.55737 6.86945V8.4173H24.2244V6.87042C24.2244 6.65173 24.0466 6.47482 23.8279 6.47491L14.1052 6.47882C13.6911 6.47884 13.3554 6.14294 13.3552 5.72882C13.3551 5.31469 13.6911 4.979 14.1052 4.97882L23.8269 4.97491C24.8743 4.97446 25.7244 5.82304 25.7244 6.87042V20.9114C25.7244 21.9585 24.8749 22.8069 23.8279 22.8069H3.95288C2.906 22.8068 2.05739 21.9584 2.05737 20.9114V6.86945C2.05756 5.82267 2.90611 4.97413 3.95288 4.97394H8.59058ZM3.55737 20.9114C3.55739 21.1299 3.73443 21.3068 3.95288 21.3069H23.8279C24.0465 21.3069 24.2244 21.1301 24.2244 20.9114V12.428H3.55737V20.9114ZM10.2322 18.9251C10.6464 18.9251 10.9822 19.2609 10.9822 19.6751C10.9818 20.089 10.6461 20.4251 10.2322 20.4251H4.8689C4.45497 20.4251 4.11931 20.0889 4.1189 19.6751C4.1189 19.2609 4.45471 18.9251 4.8689 18.9251H10.2322ZM15.8982 18.9251C16.3122 18.9253 16.6482 19.261 16.6482 19.6751C16.6478 20.0889 16.312 20.4249 15.8982 20.4251H12.5554C12.1416 20.4249 11.8058 20.0888 11.8054 19.6751C11.8054 19.261 12.1414 18.9253 12.5554 18.9251H15.8982ZM15.8982 16.5853C16.3122 16.5855 16.6482 16.9212 16.6482 17.3353C16.648 17.7492 16.3121 18.0851 15.8982 18.0853H4.8689C4.45485 18.0852 4.11911 17.7493 4.1189 17.3353C4.1189 16.9211 4.45471 16.5853 4.8689 16.5853H15.8982Z" fill="#332A2A"/>
</g>
<defs>
<clipPath id="clip0_661_6037">
<rect width="28" height="28" fill="white"/>
</clipPath>
</defs>
</svg>
