<svg width="23" height="23" viewBox="0 0 23 23" fill="none" xmlns="http://www.w3.org/2000/svg">
<g clip-path="url(#clip0_661_6044)">
<path d="M20.6041 16.2084V6.79169C20.6041 5.68712 19.7087 4.79169 18.6041 4.79169H4.39575C3.29118 4.79169 2.39575 5.68712 2.39575 6.79169V16.2084C2.39575 17.3129 3.29118 18.2084 4.39575 18.2084H18.6041C19.7087 18.2084 20.6041 17.3129 20.6041 16.2084Z" fill="#E05149"/>
<path d="M7.19653 4.16669C7.56916 4.16689 7.87134 4.46882 7.87134 4.84149C7.87134 5.21416 7.56916 5.5161 7.19653 5.5163H3.59106C3.3313 5.51649 3.12055 5.72723 3.12036 5.987V7.19403H19.9788V5.98798C19.9788 5.72792 19.7681 5.51729 19.5081 5.51727L11.7258 5.5202C11.3532 5.52016 11.0512 5.21807 11.051 4.8454C11.051 4.47274 11.3531 4.17076 11.7258 4.17059L19.5071 4.16669C20.513 4.16625 21.3293 4.98203 21.3293 5.98798V17.112C21.3293 18.1176 20.5137 18.9333 19.5081 18.9333H3.59106C2.58559 18.9331 1.77075 18.1175 1.77075 17.112V5.987C1.77094 4.98165 2.58571 4.16688 3.59106 4.16669H7.19653ZM3.12036 17.112C3.12036 17.3719 3.33118 17.5825 3.59106 17.5827H19.5081C19.7681 17.5827 19.9788 17.372 19.9788 17.112V10.488H3.12036V17.112ZM8.78833 15.7653C9.16093 15.7654 9.4629 16.0676 9.46313 16.4401C9.46305 16.8128 9.16102 17.1149 8.78833 17.1149H4.27856C3.90587 17.1149 3.60385 16.8128 3.60376 16.4401C3.604 16.0676 3.90596 15.7654 4.27856 15.7653H8.78833ZM13.3381 15.7653C13.7107 15.7654 14.0127 16.0676 14.0129 16.4401C14.0128 16.8128 13.7108 17.1149 13.3381 17.1149H10.593C10.2203 17.1149 9.9183 16.8128 9.91821 16.4401C9.91845 16.0676 10.2204 15.7654 10.593 15.7653H13.3381ZM13.3381 13.8434C13.7107 13.8435 14.0127 14.1457 14.0129 14.5182C14.0129 14.891 13.7109 15.193 13.3381 15.1931H4.27856C3.90581 15.193 3.60376 14.891 3.60376 14.5182C3.604 14.1457 3.90596 13.8435 4.27856 13.8434H13.3381Z" fill="#332A2A"/>
</g>
<defs>
<clipPath id="clip0_661_6044">
<rect width="23" height="23" fill="white"/>
</clipPath>
</defs>
</svg>
