<svg width="44" height="44" viewBox="0 0 44 44" fill="none" xmlns="http://www.w3.org/2000/svg">
<g clip-path="url(#clip0_661_6076)">
<path d="M13.5618 8.30725C13.976 8.30725 14.3118 8.64304 14.3118 9.05725C14.3118 9.47146 13.976 9.80725 13.5618 9.80725H5.61938C5.40104 9.80744 5.22407 9.98441 5.22388 10.2028V13.3522H38.5569V10.2037C38.5569 9.98511 38.38 9.80824 38.1614 9.80823L22.2278 9.81506C21.8136 9.81517 21.478 9.47922 21.4778 9.06506C21.4776 8.651 21.8128 8.31549 22.2268 8.31506L38.1604 8.30823C39.2078 8.30777 40.0569 9.15635 40.0569 10.2037V33.5778C40.0569 34.6248 39.2084 35.4742 38.1614 35.4742H5.61938C4.57249 35.4741 3.72388 34.6247 3.72388 33.5778V10.2028C3.72407 9.15598 4.57261 8.30744 5.61938 8.30725H13.5618ZM5.22388 33.5778C5.22388 33.7963 5.40092 33.9741 5.61938 33.9742H38.1614C38.38 33.9742 38.5569 33.7964 38.5569 33.5778V19.6549H5.22388V33.5778ZM17.2288 30.2926C17.643 30.2926 17.9788 30.6284 17.9788 31.0426C17.9783 31.4565 17.6427 31.7926 17.2288 31.7926H7.77563C7.36186 31.7924 7.02606 31.4563 7.02563 31.0426C7.02563 30.6285 7.3616 30.2928 7.77563 30.2926H17.2288ZM25.1067 30.2926C25.5209 30.2926 25.8567 30.6284 25.8567 31.0426C25.8563 31.4565 25.5206 31.7926 25.1067 31.7926H19.8547C19.4411 31.7923 19.1052 31.4563 19.1047 31.0426C19.1047 30.6286 19.4408 30.2929 19.8547 30.2926H25.1067ZM25.1067 26.6158C25.5209 26.6158 25.8567 26.9516 25.8567 27.3658C25.8565 27.7799 25.5208 28.1158 25.1067 28.1158H7.77563C7.36171 28.1156 7.02582 27.7798 7.02563 27.3658C7.02563 26.9518 7.3616 26.6161 7.77563 26.6158H25.1067Z" fill="#332A2A"/>
</g>
<defs>
<clipPath id="clip0_661_6076">
<rect width="44" height="44" fill="white"/>
</clipPath>
</defs>
</svg>
