<svg width="28" height="28" viewBox="0 0 28 28" fill="none" xmlns="http://www.w3.org/2000/svg">
<g clip-path="url(#clip0_661_6037)">
<path d="M25.0834 20.1666V7.83331C25.0834 6.72874 24.188 5.83331 23.0834 5.83331H4.91675C3.81218 5.83331 2.91675 6.72874 2.91675 7.83331V20.1666C2.91675 21.2712 3.81218 22.1666 4.91675 22.1666H23.0834C24.188 22.1666 25.0834 21.2712 25.0834 20.1666Z" fill="#E05149"/>
<path fill-rule="evenodd" clip-rule="evenodd" d="M4.06261 6.58331C3.84398 6.58331 3.66675 6.76055 3.66675 6.97918V8.6363H24.3334V6.97968C24.3334 6.76098 24.1561 6.58372 23.9374 6.58381L14.2149 6.58806C13.8007 6.58824 13.4647 6.2526 13.4646 5.83838C13.4644 5.42417 13.8 5.08824 14.2142 5.08806L23.9367 5.08381C24.9841 5.08336 25.8334 5.9323 25.8334 6.97968V21.0208C25.8334 22.0678 24.9846 22.9166 23.9375 22.9166H14.2146H4.06261C3.01555 22.9166 2.16675 22.0678 2.16675 21.0208V6.97918C2.16675 5.93212 3.01556 5.08331 4.06261 5.08331H8.7001C9.11431 5.08331 9.4501 5.4191 9.4501 5.83331C9.4501 6.24753 9.11431 6.58331 8.7001 6.58331H4.06261ZM3.66675 21.0208V12.6468H24.3334V21.0208C24.3334 21.2394 24.1562 21.4166 23.9375 21.4166H14.2146H4.06261C3.84398 21.4166 3.66675 21.2394 3.66675 21.0208ZM5.08772 16.8036C4.6735 16.8036 4.33772 17.1394 4.33772 17.5536C4.33772 17.9678 4.6735 18.3036 5.08772 18.3036H16.1167C16.5309 18.3036 16.8667 17.9678 16.8667 17.5536C16.8667 17.1394 16.5309 16.8036 16.1167 16.8036H5.08772ZM5.08772 19.1431C4.6735 19.1431 4.33772 19.4789 4.33772 19.8931C4.33772 20.3073 4.6735 20.6431 5.08772 20.6431H10.4515C10.8657 20.6431 11.2015 20.3073 11.2015 19.8931C11.2015 19.4789 10.8657 19.1431 10.4515 19.1431H5.08772ZM12.7746 19.1431C12.3603 19.1431 12.0246 19.4789 12.0246 19.8931C12.0246 20.3073 12.3603 20.6431 12.7746 20.6431H16.1167C16.5309 20.6431 16.8667 20.3073 16.8667 19.8931C16.8667 19.4789 16.5309 19.1431 16.1167 19.1431H12.7746Z" fill="#252323"/>
</g>
<defs>
<clipPath id="clip0_661_6037">
<rect width="28" height="28" fill="white"/>
</clipPath>
</defs>
</svg>
