<svg width="23" height="23" viewBox="0 0 23 23" fill="none" xmlns="http://www.w3.org/2000/svg">
<g clip-path="url(#clip0_661_6044)">
<path d="M20.6041 16.2084V6.79169C20.6041 5.68712 19.7087 4.79169 18.6041 4.79169H4.39575C3.29118 4.79169 2.39575 5.68712 2.39575 6.79169V16.2084C2.39575 17.3129 3.29118 18.2084 4.39575 18.2084H18.6041C19.7087 18.2084 20.6041 17.3129 20.6041 16.2084Z" fill="#E05149"/>
<path fill-rule="evenodd" clip-rule="evenodd" d="M3.54181 5.46664C3.28176 5.46664 3.07095 5.67745 3.07095 5.9375V7.09409H19.9293V5.938C19.9293 5.67787 19.7183 5.46702 19.4582 5.46714L11.6766 5.47054C11.3038 5.4707 11.0015 5.16862 11.0013 4.79583C11.0011 4.42304 11.3032 4.1207 11.676 4.12054L19.4576 4.11714C20.4636 4.1167 21.2793 4.93206 21.2793 5.938V17.0624C21.2793 18.0681 20.4641 18.8833 19.4584 18.8833H11.6763H3.54181C2.53617 18.8833 1.72095 18.0681 1.72095 17.0624V5.9375C1.72095 4.93187 2.53618 4.11664 3.54181 4.11664H7.14656C7.51935 4.11664 7.82156 4.41885 7.82156 4.79164C7.82156 5.16443 7.51935 5.46664 7.14656 5.46664H3.54181ZM3.07095 17.0624V10.3885H19.9293V17.0624C19.9293 17.3225 19.7185 17.5333 19.4584 17.5333H11.6763H3.54181C3.28176 17.5333 3.07095 17.3225 3.07095 17.0624ZM4.17924 13.744C3.80645 13.744 3.50424 14.0462 3.50424 14.419C3.50424 14.7918 3.80645 15.094 4.17924 15.094H13.2387C13.6115 15.094 13.9137 14.7918 13.9137 14.419C13.9137 14.0462 13.6115 13.744 13.2387 13.744H4.17924ZM4.17924 17.0157H8.6889C9.06169 17.0157 9.3639 16.7135 9.3639 16.3407C9.3639 15.9679 9.06169 15.6657 8.6889 15.6657H4.17924C3.80645 15.6657 3.50424 15.9679 3.50424 16.3407C3.50424 16.7135 3.80645 17.0157 4.17924 17.0157ZM10.4934 15.6657C10.1206 15.6657 9.81843 15.9679 9.81843 16.3407C9.81843 16.7135 10.1206 17.0157 10.4934 17.0157H13.2387C13.6115 17.0157 13.9137 16.7135 13.9137 16.3407C13.9137 15.9679 13.6115 15.6657 13.2387 15.6657H10.4934Z" fill="#252323"/>
</g>
<defs>
<clipPath id="clip0_661_6044">
<rect width="23" height="23" fill="white"/>
</clipPath>
</defs>
</svg>
