<svg width="23" height="23" viewBox="0 0 23 23" fill="none" xmlns="http://www.w3.org/2000/svg">
<g clip-path="url(#clip0_597_2927)">
<path d="M13.0102 12.1165L15.5015 14.6734L18.6734 17.9288C19.3492 18.6224 18.8578 19.7873 17.8895 19.7873H17.3373L16.2883 18.7055M11.7645 10.838L10.5188 9.55957L8.94531 11.1331L13.1413 15.4602L15.0588 17.3777" stroke="#332A2A" stroke-width="1.35" stroke-linecap="round" stroke-linejoin="round"/>
<path d="M6.8473 5.61391C8.02234 4.82487 9.64191 4.44819 11.83 4.57691C10.781 5.6259 10.781 5.6259 9.73204 6.6749C11.3055 7.98614 11.5678 8.24839 11.0433 8.77289L8.15855 11.6576L6.8473 11.9199C5.27381 10.3464 6.06056 11.1331 4.48706 9.29738C4.67217 8.55696 4.92986 7.88911 5.27381 7.30411" stroke="#332A2A" stroke-width="1.35" stroke-linecap="round" stroke-linejoin="round"/>
<path d="M3.27854 10.2874C4.22487 11.0262 4.71364 10.6795 5.01163 10.0842L6.11169 11.2434C5.5361 11.6577 5.58231 12.7883 6.00311 13.0759C5.79835 13.2312 5.17121 13.8147 4.8939 14.061L2.44663 11.0262L3.27854 10.2874Z" stroke="#332A2A" stroke-width="1.35" stroke-linejoin="round"/>
</g>
<defs>
<clipPath id="clip0_597_2927">
<rect width="23" height="23" fill="white"/>
</clipPath>
</defs>
</svg>
