<svg width="23" height="23" viewBox="0 0 23 23" fill="none" xmlns="http://www.w3.org/2000/svg">
<g clip-path="url(#clip0_662_6752)">
<path fill-rule="evenodd" clip-rule="evenodd" d="M2.93205 5.09557C2.77221 5.22368 2.6792 5.41744 2.6792 5.62227L2.6792 6.96056C2.67921 7.29304 2.92132 7.576 3.2498 7.62743L4.49573 7.82249C4.67364 7.85035 4.85531 7.80596 5.00032 7.6992L6.0931 6.8947L10.3982 11.6473L10.1219 11.9236C9.45297 11.6681 8.66709 11.8099 8.12804 12.349L3.24472 17.2323C2.5133 17.9637 2.5133 19.1496 3.24472 19.881C3.97614 20.6124 5.16201 20.6124 5.89343 19.881L10.7767 14.9977C11.3634 14.411 11.4795 13.532 11.1251 12.8296L11.3057 12.649L17.3888 19.3643C17.4391 19.4199 17.4982 19.4666 17.5639 19.5027L18.983 20.2828C19.1854 20.394 19.4307 20.3941 19.6332 20.2828C19.8356 20.1716 19.9671 19.9645 19.9818 19.7339L20.096 17.9317C20.1076 17.7491 20.0446 17.5697 19.9214 17.4344L13.5336 10.4211L15.5712 8.38357C15.6172 8.33754 15.6552 8.28652 15.6851 8.23225C15.7253 8.22897 15.7654 8.22206 15.8051 8.21141L16.8197 7.93916C17.0964 7.86489 17.3443 7.70871 17.5307 7.4911L18.6117 6.22957C18.8411 5.96177 18.8258 5.56245 18.5764 5.31308L17.5444 4.2811C17.2951 4.03172 16.8957 4.01635 16.6279 4.24582L15.3664 5.32675C15.1488 5.5132 14.9926 5.76107 14.9183 6.03784L14.6461 7.05239C14.6149 7.1687 14.6158 7.28891 14.6458 7.40136C14.6359 7.41022 14.6261 7.41942 14.6166 7.42897L12.6236 9.42195L7.39714 3.68372C6.75576 2.97954 5.67753 2.89505 4.9343 3.49076L2.93205 5.09557ZM4.0292 6.38301L4.0292 5.94631L5.77861 4.54415C5.96585 4.39408 6.23749 4.41536 6.39907 4.59277L18.7306 18.1319L18.7017 18.5876L18.3133 18.3742L6.68424 5.53643C6.45173 5.27976 6.06269 5.2407 5.7838 5.44602L4.42655 6.44522L4.0292 6.38301ZM17.0317 5.67761L16.2448 6.3519C16.2338 6.36129 16.226 6.37378 16.2222 6.38773L16.1314 6.72608L16.4698 6.63529C16.4837 6.63155 16.4962 6.62368 16.5056 6.61271L17.1799 5.82576L17.0317 5.67761ZM9.82215 13.3035C9.61794 13.0993 9.28685 13.0993 9.08264 13.3035L4.19932 18.1869C3.99511 18.3911 3.99511 18.7222 4.19932 18.9264C4.40353 19.1306 4.73462 19.1306 4.93883 18.9264L9.82215 14.0431C10.0264 13.8388 10.0264 13.5078 9.82215 13.3035Z" fill="#252323"/>
</g>
<defs>
<clipPath id="clip0_662_6752">
<rect width="23" height="23" fill="white"/>
</clipPath>
</defs>
</svg>
