<svg width="23" height="23" viewBox="0 0 23 23" fill="none" xmlns="http://www.w3.org/2000/svg">
<g clip-path="url(#clip0_662_6752)">
<path fill-rule="evenodd" clip-rule="evenodd" d="M19.6825 20.3327C19.885 20.2215 20.0169 20.0139 20.0316 19.7834L20.1454 17.9812C20.1569 17.7987 20.0939 17.6196 19.9708 17.4844L13.5829 10.4704L15.6203 8.43308C15.6664 8.38694 15.7016 8.33415 15.7316 8.27976C15.7726 8.27655 15.814 8.27209 15.8546 8.2612L16.8693 7.98874C17.1459 7.91444 17.3938 7.75802 17.5802 7.5405L18.6613 6.27976C18.8907 6.01195 18.8745 5.61214 18.6251 5.36276L17.5939 4.33151C17.3446 4.08226 16.9457 4.06627 16.6779 4.29538L15.4161 5.37644C15.1987 5.56278 15.0422 5.8108 14.9679 6.08737L14.6954 7.10202C14.664 7.21905 14.6649 7.34045 14.6954 7.45358C14.6917 7.4569 14.6878 7.4601 14.684 7.46331C14.6779 7.46834 14.6717 7.47339 14.6661 7.47897L12.6734 9.47177L7.44711 3.73334C6.80573 3.02915 5.72686 2.94506 4.98363 3.54076L2.98229 5.14544C2.82253 5.27349 2.72888 5.46707 2.7288 5.6718L2.7288 7.01068C2.72893 7.30138 2.9141 7.55439 3.18027 7.64758L3.29878 7.67726L4.54502 7.87203C4.72283 7.89986 4.90466 7.85574 5.04963 7.74911L6.14212 6.94465L10.4474 11.697L10.1701 11.9741C9.50148 11.7193 8.71659 11.8604 8.17787 12.3989L3.29506 17.2817C2.56364 18.0131 2.56364 19.1997 3.29506 19.9311C4.02643 20.6619 5.21223 20.6621 5.94349 19.9311L10.8263 15.0483C11.413 14.4616 11.5275 13.5828 11.173 12.8803L11.3548 12.6987L17.4382 19.4137C17.4634 19.4416 17.4911 19.4677 17.5205 19.4909L17.6134 19.5522L19.0328 20.3322C19.2352 20.4434 19.4801 20.4438 19.6825 20.3327ZM17.4382 19.4137L17.9382 18.9604L17.9374 18.9625L17.4382 19.4137ZM14.6954 7.10202L15.3488 7.27683L15.3478 7.2778L14.6954 7.10202ZM15.8546 8.2612L15.8058 8.08054V8.07956L15.8546 8.2612ZM19.3582 19.7413L19.0328 20.3322L19.3576 19.7405L20.0316 19.7834L19.3582 19.7413ZM4.47545 6.49551L4.07811 6.43289L4.07823 5.9956L5.82794 4.59427C6.01513 4.44423 6.28669 4.46541 6.44828 4.6427L18.78 18.1816L18.7503 18.637L18.3625 18.4242L6.7336 5.58594C6.53003 5.36147 6.20667 5.30369 5.94223 5.43046L5.83357 5.49621L4.47545 6.49551ZM9.13197 13.353C9.33614 13.1491 9.66807 13.1491 9.8722 13.353C10.0762 13.5572 10.0754 13.8891 9.87123 14.0932L4.98841 18.976C4.78426 19.1799 4.4533 19.1799 4.24916 18.976C4.04513 18.7718 4.04501 18.44 4.24916 18.2358L9.13197 13.353ZM16.2716 6.43796C16.2754 6.42401 16.2831 6.41025 16.2941 6.40085L17.0812 5.72702L17.2296 5.87546L16.5558 6.66257C16.5464 6.67353 16.5326 6.68129 16.5187 6.68503L16.1808 6.77585L16.2716 6.43796Z" fill="#332A2A"/>
</g>
<defs>
<clipPath id="clip0_662_6752">
<rect width="23" height="23" fill="white"/>
</clipPath>
</defs>
</svg>
