<svg width="44" height="44" viewBox="0 0 44 44" fill="none" xmlns="http://www.w3.org/2000/svg">
<g clip-path="url(#clip0_1228_14581)">
<path d="M27.7815 31.6041L30.1175 33.7884L32.4535 30.785M34.7895 27.7816L33.6215 29.2833" stroke="#2C6724" stroke-width="1.5" stroke-linecap="round" stroke-linejoin="round"/>
<path d="M17.0269 23.9728C17.61 23.3896 18.555 23.3897 19.1382 23.9728L20.2681 25.1017C20.8509 25.6847 20.8507 26.6299 20.2681 27.213L10.3608 37.1202C9.46597 38.0148 8.01549 38.0148 7.12061 37.1202C6.22565 36.2253 6.22565 34.774 7.12061 33.879L17.0269 23.9728ZM37.1245 35.2921L36.937 37.67L34.9028 37.0216L34.3872 36.42C35.2429 36.0064 36.0004 35.4236 36.6206 34.7169L37.1245 35.2921ZM10.978 7.21008C11.4445 6.77595 12.1773 6.81375 12.5972 7.29309L27.4155 24.2091C26.6734 24.7048 26.031 25.3377 25.5239 26.0714L11.8296 10.0831L7.7915 13.7501L6.4165 13.3156V11.4581L10.978 7.21008ZM34.3149 12.0568L32.4106 14.4376C32.1359 14.7811 31.7234 14.9856 31.2837 14.9972L30.5347 15.0167L29.3472 14.5167L29.5562 13.1759C29.6101 12.8305 29.7837 12.515 30.0464 12.2843L32.3384 10.2706L34.3149 12.0568Z" fill="#E05149"/>
<path fill-rule="evenodd" clip-rule="evenodd" d="M37.8726 35.3507C37.8885 35.1492 37.822 34.9501 37.689 34.798L37.6018 34.6985C38.5569 33.4045 39.1214 31.8047 39.1215 30.0731C39.1215 29.6589 38.7856 29.3232 38.3715 29.3231C37.9572 29.3231 37.6215 29.6589 37.6215 30.0731C37.6214 33.5506 34.8021 36.3699 31.3246 36.37C27.847 36.37 25.0278 33.5506 25.0277 30.0731C25.0277 26.5955 27.847 23.7762 31.3246 23.7762C33.514 23.7762 35.4433 24.8931 36.5726 26.5916C36.802 26.9364 37.2668 27.0298 37.6117 26.8006C37.9565 26.5714 38.0506 26.1064 37.8217 25.7616C36.4261 23.6627 34.0372 22.2762 31.3246 22.2762C29.9614 22.2762 28.6799 22.626 27.5651 23.2408L25.1561 20.4908L30.1002 15.5477C30.1066 15.5413 30.1124 15.5342 30.1181 15.5271L30.1181 15.5271L30.124 15.52L30.1295 15.5136C30.2337 15.5311 30.3423 15.5282 30.4478 15.4999L32.148 15.0438C32.4393 14.9657 32.7008 14.8011 32.897 14.5722L34.6607 12.5136C34.8838 12.2531 34.8981 11.881 34.7125 11.6063L34.6217 11.496L33.0172 9.89149C32.7401 9.6147 32.2971 9.59768 31.9996 9.85243L29.941 11.6151C29.712 11.8114 29.5475 12.0729 29.4693 12.3642L29.0123 14.0653C28.9735 14.2103 28.9807 14.3604 29.0269 14.4979L24.1657 19.3601L13.1616 6.79797C12.4629 6.00072 11.2433 5.93904 10.4673 6.66125L5.90479 10.9103C5.77193 11.0343 5.68904 11.2019 5.67041 11.381L5.6665 11.4581L5.66748 13.3156C5.66749 13.6426 5.87824 13.9327 6.18994 14.0314L7.56494 14.465C7.81932 14.5453 8.09786 14.4841 8.29541 14.3048L11.7622 11.1573L21.1744 22.1469L19.773 23.5468L19.6685 23.4423C18.7925 22.5665 17.3726 22.5664 16.4967 23.4423L6.5904 33.3485C5.40258 34.5364 5.40261 36.4624 6.5904 37.6503C7.77815 38.8378 9.70339 38.8377 10.8912 37.6503L20.7974 27.7431C21.6612 26.8792 21.6725 25.4878 20.8326 24.6093L22.153 23.2896L24.5923 26.1377C23.9156 27.2928 23.5277 28.6377 23.5277 30.0731C23.5278 34.3791 27.0186 37.87 31.3246 37.87C32.3324 37.8699 33.2956 37.6787 34.1799 37.3305L34.3335 37.5099C34.4241 37.6155 34.5427 37.6942 34.6753 37.7365L36.7095 38.3849C36.9275 38.4542 37.1661 38.4198 37.356 38.2921C37.5455 38.1645 37.6669 37.9574 37.6851 37.7296L37.8726 35.3507ZM35.7376 36.5016L36.2632 36.6691L36.3109 36.0671C36.1268 36.2205 35.9355 36.3655 35.7376 36.5016ZM25.4997 24.8902C25.753 24.6057 26.0268 24.3399 26.3188 24.0951L12.0337 7.78723C11.8925 7.62611 11.6455 7.6139 11.4888 7.75989L7.16553 11.7843V12.7657L7.60596 12.9044L11.3257 9.52844C11.4757 9.39225 11.6752 9.32244 11.8774 9.33508C12.0795 9.34794 12.2682 9.44206 12.3999 9.59583L25.4997 24.8902ZM17.5572 24.5028C17.8474 24.2127 18.3177 24.2128 18.608 24.5028L19.7369 25.6317C20.0271 25.922 20.0271 26.3922 19.7369 26.6825L9.83064 36.5897C9.22863 37.1914 8.25291 37.1914 7.65095 36.5897C7.04894 35.9877 7.04891 35.0111 7.65095 34.4091L8.85731 33.2027C9.05406 33.4897 9.28616 33.7216 9.52049 33.9557L9.5205 33.9557L9.55344 33.9886C9.84634 34.2814 10.3211 34.2815 10.614 33.9886C10.9067 33.6958 10.9067 33.2209 10.614 32.9281C10.2389 32.553 10.0627 32.3667 9.95766 32.1024L11.9328 30.1272C12.107 30.3551 12.3026 30.5504 12.4997 30.7474L12.5326 30.7803C12.8255 31.073 13.3003 31.0731 13.5932 30.7803C13.8858 30.4874 13.8858 30.0126 13.5932 29.7197C13.2948 29.4214 13.1223 29.2425 13.0113 29.0487L15.274 26.7861C15.4707 27.073 15.7028 27.3049 15.9372 27.539L15.9701 27.572C16.263 27.8647 16.7378 27.8648 17.0307 27.572C17.3233 27.2791 17.3233 26.8043 17.0307 26.5114C16.6556 26.1364 16.4794 25.95 16.3743 25.6857L17.5572 24.5028ZM30.609 13.9032L30.9166 12.7548L32.4468 11.4423L33.0699 12.0653L31.7584 13.5956L30.609 13.9032Z" fill="#332A2A"/>
</g>
<defs>
<clipPath id="clip0_1228_14581">
<rect width="44" height="44" fill="white"/>
</clipPath>
</defs>
</svg>
