<svg width="18" height="18" viewBox="0 0 18 18" fill="none" xmlns="http://www.w3.org/2000/svg">
<g clip-path="url(#clip0_1228_14419)">
<path fill-rule="evenodd" clip-rule="evenodd" d="M2.625 4.68749L4.00423 3.56568C4.47201 3.18521 5.15613 3.23919 5.55845 3.68831L11.1601 9.94156C10.8513 10.1583 10.587 10.4341 10.3836 10.7525L4.83962 4.50001L3.18752 5.62498L2.62501 5.44736L2.625 4.68749ZM14.0627 14.9019L14.2786 15.1454L15.1107 15.4105L15.1875 14.4375L14.9799 14.2057C14.7254 14.4951 14.4138 14.733 14.0627 14.9019ZM4.23871 15.1855L8.06044 11.3637C8.42656 10.9976 8.42656 10.404 8.06044 10.0379C7.69433 9.67178 7.10073 9.67178 6.73462 10.0379L2.91289 13.8596C2.54677 14.2257 2.54677 14.8193 2.91289 15.1855C3.27901 15.5516 3.8726 15.5516 4.23871 15.1855ZM11.6252 5.81244L12.0329 4.86114C12.1344 4.62436 12.2954 4.41786 12.5003 4.26171L13.5 3.4999L14.0001 4.49991L13.6867 5.23525C13.5293 5.60447 13.2299 5.8948 12.8561 6.04077L12.0002 6.37494L11.6252 5.81244Z" fill="#E05149"/>
<path fill-rule="evenodd" clip-rule="evenodd" d="M13.7937 15.5419C13.4836 15.6355 13.1547 15.6859 12.8141 15.6859C10.9458 15.6859 9.43129 14.1713 9.43127 12.3031C9.43127 11.8404 9.52418 11.3993 9.69237 10.9976L8.83512 10.0479L8.66986 10.2128C8.94609 10.8518 8.82565 11.6213 8.30364 12.1435L4.74505 15.7021C4.06213 16.3846 2.95527 16.3837 2.27239 15.7011C1.58956 15.0182 1.58881 13.9114 2.27142 13.2284L5.83001 9.66984C6.36203 9.13796 7.15098 9.02147 7.79681 9.31828L7.99649 9.1188L4.81125 5.58996L3.9382 6.44738L3.85422 6.51476C3.68027 6.63474 3.45674 6.65894 3.26145 6.57824L3.16672 6.52844L2.29074 5.97668L2.22629 5.92883C2.08416 5.81111 2.00086 5.63563 2.0007 5.44836L1.99973 4.68859L2.0134 4.55969C2.03965 4.43461 2.10395 4.31914 2.19895 4.23058L3.57395 2.94933C4.29085 2.282 5.41654 2.33075 6.07297 3.05773L9.86149 7.2543L11.3144 5.8007C11.3137 5.73474 11.3229 5.66817 11.3437 5.60343L11.5937 4.82707C11.6701 4.58976 11.8101 4.37765 11.998 4.21378L13.0107 3.33097L13.1083 3.26066C13.3487 3.12173 13.6599 3.15802 13.8632 3.36124L14.6152 4.1132C14.8182 4.31646 14.8536 4.6268 14.7148 4.8671L14.6445 4.96476L13.7617 5.97746C13.5978 6.16539 13.3857 6.3053 13.1484 6.38175L12.373 6.63175C12.324 6.6475 12.2736 6.65572 12.2236 6.6591L10.7001 8.18327L11.5764 9.15388C11.9597 9.0031 12.3772 8.92028 12.8141 8.92028C13.9911 8.9203 15.0272 9.52192 15.6324 10.432C15.7853 10.662 15.7227 10.9725 15.4928 11.1254C15.2629 11.278 14.9533 11.2155 14.8004 10.9857C14.3727 10.3424 13.6424 9.9203 12.8141 9.92028C11.4981 9.92028 10.4313 10.9871 10.4313 12.3031C10.4313 13.619 11.4981 14.6859 12.8141 14.6859C14.13 14.6859 15.1969 13.619 15.1969 12.3031C15.1969 12.027 15.4207 11.8031 15.6969 11.8031C15.973 11.8031 16.1969 12.027 16.1969 12.3031C16.1969 12.9251 16.029 13.5079 15.736 14.0087L15.7351 15.4112C15.7349 15.6104 15.64 15.7976 15.4792 15.9152C15.3182 16.0328 15.1106 16.0675 14.9206 16.007L14.0886 15.7413C13.9833 15.7078 13.8883 15.6466 13.8142 15.5646L13.7937 15.5419ZM10.5042 9.83167L5.14523 3.89562C4.95657 3.68668 4.63269 3.67286 4.42648 3.86437L3.24875 4.96008V5.10265L3.41574 5.20812L4.40207 4.24133C4.52361 4.12238 4.68911 4.0574 4.8591 4.06262C5.02891 4.06798 5.18954 4.1426 5.30344 4.26867L10.4082 9.92501C10.4396 9.89327 10.4716 9.86215 10.5042 9.83167ZM14.4324 10.7793C14.1599 10.5674 13.7673 10.6163 13.5554 10.8887L12.3083 12.4912L11.9753 12.1797C11.7233 11.944 11.3283 11.9572 11.0925 12.209C10.8568 12.4611 10.8697 12.857 11.1218 13.0928L11.9548 13.872L12.0593 13.9502C12.1702 14.017 12.3002 14.0484 12.4314 14.0381C12.6064 14.0242 12.7679 13.9374 12.8757 13.7988L14.5417 11.6562C14.7536 11.3838 14.7047 10.9912 14.4324 10.7793ZM12.3816 13.414L12.8757 13.7988L12.3816 13.415V13.414ZM7.41986 10.5536C7.22509 10.3589 6.90864 10.359 6.7138 10.5536L3.15521 14.1122C2.96074 14.3071 2.96149 14.6226 3.15618 14.8173C3.3509 15.0117 3.6665 15.0127 3.86126 14.8183L7.41986 11.2597C7.61442 11.0649 7.61437 10.7484 7.41986 10.5536Z" fill="#332A2A"/>
</g>
<defs>
<clipPath id="clip0_1228_14419">
<rect width="18" height="18" fill="white"/>
</clipPath>
</defs>
</svg>
