<svg width="24" height="23" viewBox="0 0 24 23" fill="none" xmlns="http://www.w3.org/2000/svg">
<g clip-path="url(#clip0_1228_14418)">
<path d="M15.5706 16.1951L16.5928 17.1509L17.615 15.8366L18.1261 15.1795L18.6372 14.5223" stroke="#252323" stroke-width="1.04643" stroke-linecap="round" stroke-linejoin="round"/>
<path fill-rule="evenodd" clip-rule="evenodd" d="M4.104 5.98956L6.08157 4.14784C6.54799 3.71346 7.2812 3.75072 7.70117 4.23014L15.081 12.6545C14.6614 12.9346 14.3027 13.2986 14.0286 13.7225L6.88329 5.62218L4.82278 7.18747L4.10402 6.96052L4.104 5.98956ZM18.7198 19.0408L18.9947 19.3524L20.0579 19.6912L20.1561 18.4479L19.8937 18.1484C19.5682 18.5194 19.1694 18.8244 18.7198 19.0408ZM6.16597 19.4036L11.0493 14.5203C11.5171 14.0525 11.5171 13.294 11.0493 12.8262C10.5815 12.3584 9.823 12.3584 9.35518 12.8262L4.47186 17.7095C4.00405 18.1773 4.00405 18.9358 4.47186 19.4036C4.93968 19.8714 5.69816 19.8714 6.16597 19.4036ZM15.6042 7.42703L16.106 6.25644C16.2461 5.92954 16.4983 5.66338 16.8171 5.50586L17.6165 5.11099L19.1499 6.13322L18.4548 7.17575C18.2445 7.49115 17.9222 7.71478 17.5531 7.80129L16.0834 8.14578L15.6042 7.42703Z" fill="#E05149"/>
<path fill-rule="evenodd" clip-rule="evenodd" d="M3.71312 5.13451C3.56513 5.25313 3.479 5.43254 3.479 5.6222L3.47901 6.96048C3.47901 7.26834 3.70319 7.53034 4.00734 7.57796L5.25327 7.77302C5.418 7.79881 5.58621 7.75771 5.72048 7.65886L6.84963 6.82758L11.2171 11.649L10.884 11.9821C10.2266 11.7174 9.44608 11.8515 8.91332 12.3842L4.03 17.2676C3.31811 17.9795 3.3181 19.1337 4.03 19.8456C4.74189 20.5575 5.8961 20.5575 6.60799 19.8456L11.4913 14.9622C12.0713 14.3823 12.1787 13.5088 11.8138 12.82L12.0573 12.5765L13.2307 13.8719C12.9644 14.4319 12.8154 15.0585 12.8154 15.7199C12.8154 18.0995 14.7444 20.0285 17.1239 20.0285C17.7095 20.0285 18.2677 19.9117 18.7767 19.7001L19.7569 20.2389C19.9443 20.3419 20.1714 20.3419 20.3589 20.2389C20.5464 20.1359 20.6681 19.9442 20.6817 19.7307L20.7926 17.9803C21.1983 17.3232 21.4324 16.5489 21.4324 15.7199C21.4324 15.3748 21.1526 15.0949 20.8074 15.0949C20.4623 15.0949 20.1824 15.3748 20.1824 15.7199C20.1824 17.4091 18.8131 18.7785 17.1239 18.7785C15.4347 18.7785 14.0654 17.4091 14.0654 15.7199C14.0654 14.0308 15.4347 12.6614 17.1239 12.6614C18.1871 12.6614 19.1241 13.2034 19.6731 14.0291C19.8642 14.3166 20.2521 14.3947 20.5396 14.2035C20.827 14.0124 20.9051 13.6245 20.714 13.337C19.9431 12.1777 18.6231 11.4114 17.1239 11.4114C16.5233 11.4114 15.9514 11.5343 15.432 11.7563L14.2144 10.4195L16.2159 8.41801C16.3209 8.44661 16.4333 8.4478 16.5421 8.41862L17.5566 8.14637C17.8237 8.07471 18.0628 7.92402 18.2427 7.71407L19.3236 6.45253C19.5361 6.20457 19.5219 5.83483 19.291 5.60393L18.259 4.57195C18.0281 4.34105 17.6584 4.32682 17.4104 4.53928L16.1489 5.62021C15.9389 5.80011 15.7882 6.03926 15.7166 6.30629L15.4443 7.32085C15.4335 7.36123 15.4268 7.40213 15.4242 7.44296C15.4166 7.44984 15.4092 7.45694 15.4018 7.46426L13.3717 9.49434L8.10997 3.71732C7.48637 3.03264 6.43801 2.9505 5.71538 3.5297L3.71312 5.13451ZM14.3491 12.4238L7.18584 4.55903C7.00649 4.36211 6.70497 4.33849 6.49714 4.50507L4.72901 5.92223L4.72901 6.42572L5.18922 6.49777L6.56324 5.48621C6.82148 5.2961 7.1817 5.33226 7.39699 5.56993L13.951 12.8051C14.0754 12.6697 14.2084 12.5423 14.3491 12.4238ZM16.9622 6.56942L17.7843 5.86501L17.9979 6.07863L17.2935 6.90074C17.2775 6.91936 17.2563 6.93272 17.2326 6.93908L16.8106 7.05234L16.9238 6.63027C16.9302 6.60659 16.9436 6.58538 16.9622 6.56942ZM9.7972 13.2681C10.0209 13.0444 10.3837 13.0444 10.6074 13.2681C10.8312 13.4919 10.8312 13.8546 10.6074 14.0784L5.72411 18.9617C5.50037 19.1854 5.13762 19.1854 4.91388 18.9617C4.69014 18.7379 4.69014 18.3752 4.91388 18.1515L9.7972 13.2681Z" fill="#252323"/>
</g>
<defs>
<clipPath id="clip0_1228_14418">
<rect width="23" height="23" fill="white" transform="translate(0.75)"/>
</clipPath>
</defs>
</svg>
