<svg width="18" height="18" viewBox="0 0 18 18" fill="none" xmlns="http://www.w3.org/2000/svg">
<g clip-path="url(#clip0_1228_14666)">
<path d="M11.5486 12.6361L12.3819 13.4153L14.0486 11.2725" stroke="#2C6724" stroke-width="1.25" stroke-linecap="round" stroke-linejoin="round"/>
<path fill-rule="evenodd" clip-rule="evenodd" d="M4.42609 3.86424C4.63228 3.67222 4.95575 3.68622 5.14457 3.89534L10.5044 9.83128C10.4718 9.86177 10.4398 9.8929 10.4084 9.92465L5.30361 4.26877C5.18957 4.14242 5.02893 4.06804 4.8588 4.06282C4.68868 4.05761 4.52378 4.122 4.40221 4.24112L3.41586 5.20762L3.25003 5.1029L3.25003 4.95952L4.42609 3.86424ZM9.69263 10.9972L8.83591 10.048L8.67236 10.2115C8.94852 10.8505 8.82554 11.6206 8.30343 12.1427L4.74527 15.7008C4.06228 16.3838 2.95494 16.3838 2.27197 15.7008C1.58902 15.0178 1.58903 13.9105 2.272 13.2276L5.83016 9.66941C6.36255 9.13702 7.15279 9.01964 7.79889 9.31726L7.99729 9.11885L4.81197 5.58968L3.93759 6.44646C3.73064 6.64926 3.41144 6.68321 3.16645 6.5285L2.29132 5.97586C2.10999 5.86135 2.00004 5.66187 2.00004 5.44742L2.00002 4.68754C2.00002 4.51406 2.07212 4.34839 2.19907 4.23016L3.57419 2.9495C4.29108 2.28185 5.4158 2.33053 6.07233 3.05762L9.86179 7.25438L11.3145 5.80168C11.3137 5.7352 11.3235 5.66805 11.3446 5.60274L11.5944 4.8269C11.6709 4.58945 11.8107 4.37735 11.9987 4.21342L13.0109 3.33112C13.2586 3.1152 13.6311 3.12795 13.8635 3.3603L14.6155 4.11235C14.8479 4.3447 14.8606 4.71729 14.6447 4.96498L13.7624 5.97713C13.5985 6.16518 13.3864 6.30496 13.1489 6.38143L12.3731 6.63128C12.3241 6.64707 12.274 6.65654 12.224 6.65994L10.7006 8.18334L11.5766 9.15346C11.9599 9.00267 12.3774 8.91985 12.8143 8.91985C13.9914 8.91985 15.0278 9.52149 15.633 10.4317C15.7859 10.6617 15.7234 10.972 15.4935 11.1249C15.2635 11.2778 14.9532 11.2153 14.8003 10.9854C14.3725 10.3421 13.6426 9.91985 12.8143 9.91985C11.4984 9.91985 10.4316 10.9867 10.4316 12.3026C10.4316 13.6186 11.4984 14.6854 12.8143 14.6854C14.1303 14.6854 15.1971 13.6186 15.1971 12.3026C15.1971 12.0265 15.4209 11.8026 15.6971 11.8026C15.9732 11.8026 16.1971 12.0265 16.1971 12.3026C16.1971 12.925 16.029 13.5082 15.7357 14.0092V15.4105C15.7357 15.61 15.6405 15.7974 15.4795 15.9151C15.3185 16.0328 15.111 16.0666 14.921 16.006L14.0889 15.7409C13.9834 15.7073 13.8888 15.6463 13.8146 15.5642L13.794 15.5413C13.4839 15.635 13.155 15.6854 12.8143 15.6854C10.9461 15.6854 9.43156 14.1709 9.43156 12.3026C9.43156 11.8399 9.52446 11.3989 9.69263 10.9972ZM12.8201 5.15568L12.8206 5.1552L12.8202 5.15575C12.8163 5.16013 12.8122 5.16421 12.8079 5.16797C12.8116 5.1636 12.8157 5.15949 12.8201 5.15568ZM6.71405 10.5533C6.90887 10.3585 7.22474 10.3585 7.41956 10.5533C7.61437 10.7481 7.61437 11.064 7.41955 11.2588L3.86138 14.817C3.66656 15.0118 3.35069 15.0118 3.15587 14.817C2.96106 14.6221 2.96106 14.3063 3.15588 14.1115L6.71405 10.5533Z" fill="#252323"/>
</g>
<defs>
<clipPath id="clip0_1228_14666">
<rect width="18" height="18" fill="white"/>
</clipPath>
</defs>
</svg>
