<svg width="18" height="18" viewBox="0 0 18 18" fill="none" xmlns="http://www.w3.org/2000/svg">
<g clip-path="url(#clip0_662_6753)">
<path fill-rule="evenodd" clip-rule="evenodd" d="M4.42602 3.86424C4.6322 3.67222 4.95568 3.68622 5.1445 3.89534L14.4856 14.2405V14.4421L5.30353 4.26877C5.18949 4.14242 5.02886 4.06804 4.85873 4.06282C4.68861 4.05761 4.52371 4.122 4.40214 4.24112L3.41579 5.20762L3.24996 5.1029L3.24995 4.95952L4.42602 3.86424ZM6.07226 3.05762C5.41573 2.33053 4.29101 2.28185 3.57411 2.9495L2.199 4.23016C2.07205 4.34839 1.99995 4.51406 1.99995 4.68754L1.99996 5.44742C1.99997 5.66187 2.10992 5.86135 2.29125 5.97586L3.16638 6.5285C3.41136 6.68321 3.73056 6.64926 3.93752 6.44646L4.8119 5.58968L7.99725 9.11889L7.79889 9.31725C7.15279 9.01963 6.36255 9.13701 5.83016 9.6694L2.272 13.2276C1.58903 13.9105 1.58902 15.0178 2.27197 15.7008C2.95494 16.3838 4.06228 16.3838 4.74527 15.7008L8.30343 12.1427C8.82554 11.6206 8.94852 10.8505 8.67236 10.2115L8.83587 10.048L13.8146 15.5642C13.8887 15.6463 13.9834 15.7073 14.0888 15.7409L14.9209 16.006C15.1109 16.0666 15.3184 16.0328 15.4794 15.9151C15.6405 15.7974 15.7356 15.61 15.7356 15.4105V14.0001C15.7356 13.8453 15.6782 13.6961 15.5745 13.5812L10.7005 8.18337L12.2239 6.65999C12.2741 6.6566 12.3242 6.64712 12.3733 6.63131L13.1491 6.38146C13.3866 6.30499 13.5987 6.16521 13.7626 5.97716L14.6449 4.96501C14.8608 4.71732 14.8481 4.34473 14.6157 4.11238L13.8637 3.36034C13.6313 3.12799 13.2587 3.11523 13.011 3.33115L11.9989 4.21346C11.8109 4.37738 11.6711 4.58948 11.5946 4.82694L11.3447 5.60277C11.3237 5.66801 11.3139 5.73509 11.3147 5.80149L9.86175 7.25441L6.07226 3.05762ZM12.8208 5.15523L12.8203 5.15571C12.8159 5.15953 12.8118 5.16364 12.8081 5.16801C12.8124 5.16424 12.8165 5.16016 12.8203 5.15578L12.8208 5.15523ZM7.41956 10.5533C7.22474 10.3585 6.90887 10.3585 6.71405 10.5533L3.15588 14.1115C2.96106 14.3063 2.96106 14.6221 3.15587 14.817C3.35069 15.0118 3.66656 15.0118 3.86138 14.817L7.41955 11.2588C7.61437 11.064 7.61437 10.7481 7.41956 10.5533Z" fill="#252323"/>
</g>
<defs>
<clipPath id="clip0_662_6753">
<rect width="18" height="18" fill="white"/>
</clipPath>
</defs>
</svg>
