<svg width="44" height="44" viewBox="0 0 44 44" fill="none" xmlns="http://www.w3.org/2000/svg">
<g clip-path="url(#clip0_482_2927)">
<path fill-rule="evenodd" clip-rule="evenodd" d="M11.4584 11.4583C12.3751 9.47222 15.7667 5.5 22.0001 5.5C28.2334 5.5 31.6251 9.47222 32.5417 11.4583C32.0479 11.2388 31.5278 10.9799 30.9758 10.7052L30.9758 10.7052C26.9178 8.6852 21.1414 5.8099 11.4584 11.4583ZM7.79175 21.0833V29.3333L6.14732 28.5111C5.46975 28.1723 5.04175 27.4798 5.04175 26.7223V23.6944C5.04175 22.9369 5.46975 22.2443 6.14732 21.9055L7.79175 21.0833ZM36.2084 29.3333V21.0833L37.8528 21.9055C38.5304 22.2443 38.9584 22.9369 38.9584 23.6944V26.7223C38.9584 27.4798 38.5304 28.1723 37.8528 28.5111L36.2084 29.3333ZM22.4584 39.4167C24.2303 39.4167 25.6667 38.5959 25.6667 37.5833C25.6667 36.5708 24.2303 35.75 22.4584 35.75C20.6865 35.75 19.2501 36.5708 19.2501 37.5833C19.2501 38.5959 20.6865 39.4167 22.4584 39.4167Z" fill="#E05149"/>
<path fill-rule="evenodd" clip-rule="evenodd" d="M11.9054 9.02199C14.2233 6.31962 17.6176 4.75 21.8804 4.75C26.2625 4.75 29.7158 6.35959 32.0633 9.08083C34.0039 11.3303 35.1498 14.2928 35.4818 17.6284C35.5454 18.1225 35.5801 18.6366 35.5832 19.1709C36.1695 19.4393 36.6265 19.9414 36.8349 20.5581L38.1882 21.2347C39.1199 21.7006 39.7084 22.6528 39.7084 23.6944V26.7223C39.7084 27.7639 39.1199 28.7161 38.1882 29.1819L36.8349 29.8586C36.5341 30.7483 35.716 31.3996 34.7386 31.4546L31.2941 35.7602C31.2154 35.8586 31.1132 35.9355 30.9969 35.984L25.4969 38.2756C25.4674 38.2879 25.4375 38.2982 25.4075 38.3065C24.9165 38.9594 23.7809 39.4167 22.4584 39.4167C20.6865 39.4167 19.2501 38.5959 19.2501 37.5833C19.2501 36.5708 20.6865 35.75 22.4584 35.75C23.6928 35.75 24.7643 36.1483 25.3009 36.7323L30.2427 34.6732L33.1914 30.9874C32.6198 30.5579 32.2501 29.8742 32.2501 29.1042V25.2083C32.2501 24.7941 32.5859 24.4583 33.0001 24.4583C33.4143 24.4583 33.7501 24.7941 33.7501 25.2083V29.1042C33.7501 29.5759 34.1325 29.9583 34.6042 29.9583C35.076 29.9583 35.4584 29.5759 35.4584 29.1042V21.3125C35.4584 20.8408 35.076 20.4583 34.6042 20.4583C34.1325 20.4583 33.7501 20.8408 33.7501 21.3125V22.4583C33.7501 22.8725 33.4143 23.2083 33.0001 23.2083C32.5859 23.2083 32.2501 22.8725 32.2501 22.4583V21.3125C32.2501 20.1955 33.028 19.2602 34.0716 19.0188C34.0579 18.6156 34.0321 18.2187 33.9944 17.8286C33.473 13.7834 30.7245 11.2783 27.4263 10.0022C27.04 9.85269 26.848 9.41836 26.9974 9.03205C27.1469 8.64575 27.5812 8.45375 27.9675 8.60322C29.0925 9.03848 30.1759 9.61205 31.1552 10.3333C31.0806 10.241 31.0048 10.1501 30.9276 10.0606C28.8911 7.7 25.868 6.25 21.8804 6.25C18.173 6.25 15.2972 7.54506 13.2981 9.7128C15.7529 8.15694 18.8549 7.5 22.0001 7.5C22.4143 7.5 22.7501 7.83579 22.7501 8.25C22.7501 8.66421 22.4143 9 22.0001 9C18.7623 9 15.7299 9.74301 13.5269 11.3731C11.758 12.682 10.474 14.5981 10.0598 17.2942C9.99143 17.8534 9.94725 18.4287 9.92794 19.0187C10.9719 19.2599 11.7501 20.1953 11.7501 21.3125V25.2083C11.7501 25.6225 11.4143 25.9583 11.0001 25.9583C10.5859 25.9583 10.2501 25.6225 10.2501 25.2083V21.3125C10.2501 20.8408 9.86766 20.4583 9.39592 20.4583C8.92417 20.4583 8.54175 20.8408 8.54175 21.3125V29.1042C8.54175 29.5759 8.92417 29.9583 9.39592 29.9583C9.86766 29.9583 10.2501 29.5759 10.2501 29.1042V27.9583C10.2501 27.5441 10.5859 27.2083 11.0001 27.2083C11.4143 27.2083 11.7501 27.5441 11.7501 27.9583V29.1042C11.7501 30.4043 10.6961 31.4583 9.39592 31.4583C8.35961 31.4583 7.4797 30.7887 7.16523 29.8586L5.81191 29.1819C4.88025 28.7161 4.29175 27.7639 4.29175 26.7223V23.6944C4.29175 22.6528 4.88025 21.7006 5.81191 21.2347L7.16523 20.5581C7.3737 19.9415 7.83066 19.4394 8.41694 19.1709C8.42054 18.4413 8.474 17.7486 8.57357 17.0921C8.96477 13.9218 10.0852 11.1441 11.9054 9.02199ZM7.04175 22.2969V28.1198L6.48273 27.8403C6.05925 27.6286 5.79175 27.1957 5.79175 26.7223V23.6944C5.79175 23.2209 6.05925 22.7881 6.48273 22.5764L7.04175 22.2969ZM36.9584 28.1198L37.5174 27.8403C37.9409 27.6286 38.2084 27.1957 38.2084 26.7223V23.6944C38.2084 23.2209 37.9409 22.7881 37.5174 22.5764L36.9584 22.2969V28.1198ZM24.2089 37.4041C24.2097 37.4043 24.2068 37.4098 24.198 37.42C24.2037 37.409 24.2081 37.4039 24.2089 37.4041ZM22.4584 37.25C23.1242 37.25 23.6556 37.4056 23.9722 37.5833C23.6556 37.7611 23.1242 37.9167 22.4584 37.9167C21.7926 37.9167 21.2613 37.7611 20.9446 37.5833C21.2613 37.4056 21.7926 37.25 22.4584 37.25ZM20.7113 37.4075C20.7095 37.4051 20.7083 37.404 20.708 37.4041C20.7072 37.4043 20.71 37.4098 20.7189 37.42C20.7159 37.4143 20.7132 37.4101 20.7113 37.4075ZM20.708 37.7626C20.7072 37.7624 20.71 37.7569 20.7189 37.7466C20.7132 37.7576 20.7087 37.7628 20.708 37.7626ZM24.198 37.7466C24.2068 37.7569 24.2097 37.7624 24.2089 37.7626C24.2081 37.7628 24.2037 37.7576 24.198 37.7466Z" fill="#252323"/>
</g>
<defs>
<clipPath id="clip0_482_2927">
<rect width="44" height="44" fill="white"/>
</clipPath>
</defs>
</svg>
