<svg width="18" height="18" viewBox="0 0 18 18" fill="none" xmlns="http://www.w3.org/2000/svg">
<g clip-path="url(#clip0_597_2888)">
<path fill-rule="evenodd" clip-rule="evenodd" d="M7.61646 5.2238C8.84789 6.24999 9.05313 6.45523 8.64265 6.86571L6.38503 9.12333L5.35883 9.32857C4.53788 8.50762 4.53788 8.50761 4.26423 8.17316C4.12741 8.00592 3.92217 7.75508 3.51169 7.27618C3.65655 6.69672 3.85823 6.17406 4.1274 5.71622L5.35883 4.39346C6.27843 3.77595 7.54592 3.48116 9.25837 3.58189L7.61646 5.2238ZM13.5684 15.4857H14.846C15.2883 15.4857 15.5128 14.9536 15.2041 14.6368L12.1317 11.4836L10.182 9.48251L9.20708 8.48198L8.23219 7.48144L7.00076 8.71287L10.2846 12.0993L11.5 13.3661L12.7474 14.6391L13.5684 15.4857ZM3.92226 7.89191C3.71702 8.3708 3.14235 9.04125 2.48559 7.89191L1.86987 8.71287L3.92226 10.9705L4.74321 10.1495C4.40115 9.9443 3.92226 9.36963 4.74321 8.71287L3.92226 7.89191Z" fill="#E05149"/>
<path fill-rule="evenodd" clip-rule="evenodd" d="M5.13592 3.99987C6.20599 3.28132 7.6239 2.97724 9.4201 3.08288L9.38299 3.70592L9.38397 3.7069L9.4201 3.08288C9.66569 3.09732 9.88041 3.25435 9.96795 3.48424C10.0554 3.71424 9.99931 3.97427 9.82537 4.14831L8.66326 5.31042C8.74937 5.38486 8.82895 5.45396 8.90057 5.5194C9.09222 5.69453 9.2692 5.87119 9.3908 6.05358C9.52043 6.24803 9.63099 6.51587 9.56561 6.8319C9.50779 7.1111 9.33274 7.30986 9.21014 7.43249L9.13447 7.50815L9.78027 8.17076C10.0209 8.41799 10.0157 8.81373 9.76855 9.05455C9.52132 9.29544 9.12565 9.29006 8.88476 9.04283L8.35156 8.49595L8.00292 8.84459L10.8516 11.7821L11.7519 12.6825C11.996 12.9266 11.996 13.3232 11.7519 13.5672C11.5078 13.8109 11.1121 13.8111 10.8682 13.5672L9.96777 12.6659L9.96093 12.659L7.01821 9.62441L6.95233 9.6903C6.86511 9.77751 6.75393 9.83698 6.63299 9.8612L5.60662 10.0663C5.52988 10.0816 5.45217 10.0822 5.37721 10.0692C5.42083 10.1527 5.44562 10.2462 5.448 10.343C5.45288 10.5438 5.36047 10.7352 5.20039 10.8566C5.11098 10.9245 4.88851 11.1269 4.67503 11.3212C4.56433 11.4219 4.45604 11.5204 4.37 11.5968L4.2668 11.6709C4.15757 11.7338 4.0305 11.7627 3.90296 11.7521C3.73289 11.7379 3.57575 11.6547 3.46855 11.5219L3.95553 11.1291L3.95455 11.1291L3.46855 11.5219L1.55296 9.14663C1.3437 8.88708 1.37539 8.50862 1.62444 8.28705L2.27602 7.70837L2.37824 7.6342C2.59946 7.50616 2.87977 7.52671 3.08062 7.68701C3.01222 7.5537 2.99343 7.39838 3.03045 7.24987C3.18677 6.62459 3.40879 6.04348 3.71405 5.52428C3.88902 5.22682 4.272 5.12768 4.56951 5.3026C4.8669 5.47761 4.96609 5.86059 4.79119 6.15807C4.60332 6.47767 4.451 6.84222 4.3283 7.25084C4.60235 7.5736 4.75791 7.76323 4.86671 7.89585L4.86671 7.89586C5.10894 8.19112 5.1194 8.20387 5.68963 8.77428L6.20233 8.67174L8.24725 6.62682C8.20164 6.57899 8.14065 6.51797 8.0578 6.44225C7.88413 6.28356 7.65145 6.08687 7.34198 5.82897C7.20707 5.71655 7.12532 5.55224 7.11737 5.37682C7.10946 5.20149 7.17589 5.03122 7.29998 4.90709C7.43386 4.77322 7.54561 4.66084 7.64269 4.56322L7.6428 4.56311C7.71737 4.48812 7.78329 4.42183 7.84393 4.3612C6.99252 4.45868 6.33726 4.69784 5.83221 5.03698C5.5457 5.22931 5.15747 5.15348 4.96502 4.86706C4.77259 4.58049 4.84936 4.1923 5.13592 3.99987ZM10.331 9.68248C10.575 9.43859 10.9707 9.43886 11.2148 9.68248L12.7051 11.1727H12.7041L15.7773 14.3251C16.4719 15.0379 15.9659 16.2352 14.9707 16.2352H14.1172C13.6776 16.2352 13.2562 16.0576 12.9502 15.742L12.4238 15.1991C12.1836 14.9513 12.1897 14.5556 12.4375 14.3153C12.6853 14.075 13.081 14.0812 13.3213 14.329L13.8477 14.8719C13.9183 14.9447 14.0158 14.9852 14.1172 14.9852H14.6748L11.8154 12.0506L10.331 10.5672C10.087 10.3232 10.087 9.92656 10.331 9.68248ZM12.291 11.5741L12.2754 11.5897L12.4082 11.4598L12.291 11.5741ZM3.72774 9.14538C3.86074 9.10137 3.97593 9.03352 4.07838 8.95681L4.09769 8.97752C3.9945 9.21111 3.95273 9.45723 3.94836 9.6652C3.94451 9.84844 3.96847 10.0373 4.02141 10.2154L3.19395 9.18908C3.36586 9.21627 3.54455 9.20599 3.72774 9.14538Z" fill="#332A2A"/>
</g>
<defs>
<clipPath id="clip0_597_2888">
<rect width="18" height="18" fill="white"/>
</clipPath>
</defs>
</svg>
