<svg width="44" height="44" viewBox="0 0 44 44" fill="none" xmlns="http://www.w3.org/2000/svg">
<g clip-path="url(#clip0_1228_14498)">
<path fill-rule="evenodd" clip-rule="evenodd" d="M37.689 34.798C37.822 34.9501 37.8885 35.1492 37.8726 35.3507L37.6851 37.7296C37.6669 37.9574 37.5455 38.1645 37.356 38.2921C37.1661 38.4198 36.9275 38.4542 36.7095 38.3849L34.6753 37.7365C34.5427 37.6942 34.4241 37.6155 34.3335 37.5099L34.1799 37.3305C33.2956 37.6787 32.3324 37.8699 31.3246 37.87C27.0186 37.87 23.5278 34.3791 23.5277 30.0731C23.5277 28.6377 23.9156 27.2928 24.5923 26.1377L21.9768 23.0839L20.6431 24.4168L20.7974 24.5711C21.6735 25.4471 21.6734 26.8679 20.7974 27.7439L10.8912 37.6502C9.70339 38.8377 7.77817 38.8377 6.5904 37.6502C5.40266 36.4623 5.40259 34.5362 6.5904 33.3484L16.4967 23.4422C17.3438 22.5952 18.698 22.5691 19.5787 23.3601L20.9979 21.9409L11.7622 11.1573L8.29541 14.3048C8.09786 14.4841 7.81932 14.5453 7.56494 14.465L6.18994 14.0314C5.87824 13.9327 5.66749 13.6426 5.66748 13.3156L5.6665 11.4581L5.67041 11.381C5.68904 11.2019 5.77193 11.0343 5.90479 10.9103L10.4673 6.66125C11.2433 5.93904 12.4629 6.00072 13.1616 6.79797L23.892 19.0477L28.3443 14.5945C28.3963 14.5425 28.4557 14.5021 28.5172 14.4685C28.4795 14.3391 28.4762 14.2 28.5123 14.0652L28.9683 12.364C29.0465 12.0728 29.211 11.8113 29.44 11.615L31.4986 9.85233C31.7962 9.59737 32.2401 9.61431 32.5172 9.89139L34.1217 11.4959L34.2125 11.6062C34.398 11.8809 34.3829 12.253 34.1597 12.5135L32.397 14.5721C32.2008 14.8011 31.9393 14.9655 31.648 15.0437L29.9468 15.4998C29.8061 15.5375 29.6611 15.5306 29.5269 15.4881C29.494 15.5472 29.456 15.6048 29.4058 15.6551L24.8825 20.1784L27.5651 23.2408C28.6799 22.626 29.9614 22.2762 31.3246 22.2762C34.0372 22.2762 36.4261 23.6627 37.8217 25.7616C38.0506 26.1064 37.9565 26.5714 37.6117 26.8006C37.2668 27.0298 36.802 26.9364 36.5726 26.5916C35.4433 24.8931 33.514 23.7762 31.3246 23.7762C27.847 23.7762 25.0277 26.5955 25.0277 30.0731C25.0278 33.5506 27.847 36.37 31.3246 36.37C34.8021 36.3699 37.6214 33.5506 37.6215 30.0731C37.6215 29.6589 37.9572 29.3231 38.3715 29.3231C38.7856 29.3232 39.1215 29.6589 39.1215 30.0731C39.1214 31.8047 38.5569 33.4045 37.6018 34.6985L37.689 34.798ZM26.3188 24.0951L12.0337 7.78723C11.8925 7.62611 11.6455 7.6139 11.4888 7.75989L7.16553 11.7843V12.7657L7.60596 12.9044L11.3257 9.52844C11.4757 9.39225 11.6752 9.32244 11.8774 9.33508C12.0795 9.34794 12.2682 9.44206 12.3999 9.59583L25.4997 24.8902C25.753 24.6057 26.0268 24.3399 26.3188 24.0951ZM35.7376 36.5016L36.2632 36.6691L36.3109 36.0671C36.1268 36.2205 35.9355 36.3655 35.7376 36.5016ZM18.608 24.5027C18.3177 24.2128 17.8474 24.2127 17.5572 24.5027L16.3743 25.6856C16.4793 25.95 16.6556 26.1363 17.0307 26.5114C17.3233 26.8043 17.3233 27.2791 17.0307 27.572C16.7378 27.8648 16.263 27.8647 15.9701 27.572L15.9372 27.539C15.7028 27.3049 15.4707 27.073 15.2739 26.786L13.0113 29.0486C13.1222 29.2424 13.2948 29.4214 13.5932 29.7197C13.8858 30.0126 13.8858 30.4874 13.5932 30.7803C13.3003 31.0731 12.8255 31.073 12.5326 30.7803L12.4997 30.7474L12.4997 30.7474L12.4996 30.7473C12.3025 30.5504 12.107 30.355 11.9328 30.1272L9.95763 32.1023C10.0627 32.3666 10.2389 32.553 10.614 32.9281C10.9067 33.2209 10.9067 33.6958 10.614 33.9886C10.3211 34.2815 9.84634 34.2814 9.55344 33.9886L9.5205 33.9557C9.28615 33.7216 9.05403 33.4896 8.85726 33.2027L7.65095 34.409C7.04893 35.011 7.04899 35.9876 7.65095 36.5896C8.25293 37.1914 9.22863 37.1913 9.83064 36.5896L19.7369 26.6824C20.027 26.3921 20.0271 25.9219 19.7369 25.6316L18.608 24.5027ZM30.4166 12.7547L30.109 13.9031L31.2574 13.5955L32.5699 12.0652L31.9468 11.4422L30.4166 12.7547ZM32.9143 30.1927C32.5874 29.9385 32.1159 29.9977 31.8616 30.3246L30.0295 32.6791L28.2942 31.056C27.9916 30.7731 27.5165 30.7896 27.2336 31.0922C26.951 31.3946 26.9666 31.8688 27.2688 32.1517L29.6057 34.3363C29.7596 34.4801 29.967 34.5531 30.177 34.5365C30.387 34.5198 30.5799 34.4147 30.7092 34.2484L33.0452 31.2455C33.2994 30.9186 33.2412 30.4471 32.9143 30.1927ZM35.2502 27.1898C34.9234 26.9356 34.4519 26.994 34.1975 27.3207L33.0295 28.8226C32.7752 29.1496 32.8344 29.6211 33.1614 29.8754C33.4883 30.1294 33.9589 30.0704 34.2131 29.7435L35.3811 28.2426C35.6353 27.9157 35.5769 27.4442 35.2502 27.1898Z" fill="#332A2A"/>
</g>
<defs>
<clipPath id="clip0_1228_14498">
<rect width="44" height="44" fill="white"/>
</clipPath>
</defs>
</svg>
