<svg width="18" height="18" viewBox="0 0 18 18" fill="none" xmlns="http://www.w3.org/2000/svg">
<g clip-path="url(#clip0_597_2888)">
<path fill-rule="evenodd" clip-rule="evenodd" d="M7.61646 5.2238C8.84789 6.24999 9.05313 6.45523 8.64265 6.86571L6.38503 9.12333L5.35883 9.32857C4.53788 8.50762 4.53788 8.50761 4.26423 8.17316C4.12741 8.00592 3.92217 7.75508 3.51169 7.27618C3.65655 6.69672 3.85823 6.17406 4.1274 5.71622L5.35883 4.39346C6.27843 3.77595 7.54592 3.48116 9.25837 3.58189L7.61646 5.2238ZM13.5684 15.4857H14.846C15.2883 15.4857 15.5128 14.9536 15.2041 14.6368L12.1317 11.4836L10.182 9.48251L9.20708 8.48198L8.23219 7.48144L7.00076 8.71287L10.2846 12.0993L11.5 13.3661L12.7474 14.6391L13.5684 15.4857ZM3.92226 7.89191C3.71702 8.3708 3.14235 9.04125 2.48559 7.89191L1.86987 8.71287L3.92226 10.9705L4.74321 10.1495C4.40115 9.9443 3.92226 9.36963 4.74321 8.71287L3.92226 7.89191Z" fill="#E05149"/>
<path fill-rule="evenodd" clip-rule="evenodd" d="M5.08018 3.97834C6.12019 3.27997 7.50829 2.97806 9.28781 3.08273C9.48437 3.0943 9.65584 3.22014 9.72581 3.40418C9.79579 3.58822 9.75123 3.7962 9.61201 3.93542L8.35562 5.19181C8.48149 5.29917 8.59353 5.39698 8.69141 5.48642C8.88195 5.66053 9.04871 5.82926 9.16138 5.99827C9.28048 6.17692 9.37452 6.41016 9.31837 6.68158C9.26827 6.92371 9.11492 7.10061 8.99629 7.21924L8.83352 7.38201L9.56528 8.13302C9.75799 8.3308 9.75388 8.64736 9.5561 8.84007C9.35831 9.03278 9.04176 9.02867 8.84905 8.83088L8.22766 8.19314L7.70256 8.71824L10.6409 11.7485L11.5389 12.6464C11.7342 12.8417 11.7342 13.1583 11.5389 13.3535C11.3436 13.5488 11.0271 13.5488 10.8318 13.3535L9.93111 12.4528L9.92567 12.4474L9.92571 12.4474L6.89431 9.32122L6.73867 9.47686C6.66887 9.54666 6.57997 9.59424 6.48317 9.6136L5.45698 9.81884C5.29305 9.85162 5.12358 9.80031 5.00537 9.6821C4.98622 9.66295 4.96751 9.64424 4.94921 9.62594C4.95305 9.69218 4.96499 9.7495 4.9801 9.7919C4.988 9.81405 4.99481 9.82712 4.9987 9.83367C5.12048 9.92526 5.19421 10.0678 5.19798 10.221C5.20194 10.3817 5.12836 10.5345 5.00025 10.6317C4.90662 10.7027 4.67354 10.9146 4.45598 11.1125L4.45595 11.1125C4.34781 11.2109 4.24351 11.3057 4.16208 11.3781C4.05984 11.4689 3.92488 11.5138 3.78862 11.5025C3.65235 11.4912 3.52667 11.4245 3.44084 11.3181L1.52559 8.94301C1.35805 8.73525 1.38323 8.43253 1.58278 8.2553L2.23384 7.67708C2.44017 7.49383 2.75595 7.51239 2.9394 7.71855C3.07394 7.86976 3.16703 7.92503 3.21298 7.94357C3.23418 7.95213 3.24441 7.95258 3.24567 7.95263L3.24587 7.95264C3.2467 7.95268 3.24709 7.95269 3.24911 7.95202C3.25607 7.94972 3.28656 7.93634 3.33462 7.88318C3.34092 7.87622 3.34725 7.86887 3.35358 7.86116C3.28718 7.78289 3.21373 7.69674 3.13215 7.60155C3.02671 7.47854 2.98741 7.31207 3.0267 7.15489C3.18073 6.53877 3.39843 5.96971 3.69647 5.46279C3.83642 5.22474 4.14286 5.14522 4.3809 5.28518C4.61895 5.42513 4.69847 5.73157 4.55851 5.96961C4.35516 6.31549 4.19095 6.7097 4.06303 7.15169C4.37164 7.51435 4.5387 7.71867 4.65384 7.85949L4.65386 7.85951C4.72626 7.94806 4.77813 8.0115 4.83176 8.07342C4.95731 8.21836 5.0925 8.35496 5.52325 8.78578L6.13861 8.66271L8.28918 6.51213L8.2948 6.50647C8.24437 6.4439 8.15856 6.35414 8.01684 6.22463C7.84066 6.06364 7.60574 5.86562 7.29645 5.60789C7.18853 5.51796 7.12343 5.38677 7.11706 5.24644C7.11069 5.1061 7.16366 4.96956 7.26299 4.87023L8.05269 4.08053C7.01515 4.1492 6.23068 4.41032 5.63766 4.80853C5.40841 4.96248 5.09777 4.90143 4.94383 4.67218C4.78988 4.44293 4.85093 4.13229 5.08018 3.97834ZM10.2947 9.64642C10.4899 9.45115 10.8065 9.45115 11.0018 9.64642L12.4854 11.13L12.49 11.1346L12.4899 11.1346L15.5623 14.2879C16.1797 14.9215 15.7307 15.9857 14.8461 15.9857H13.9917C13.5859 15.9857 13.1974 15.8213 12.9149 15.5299L12.3886 14.9872C12.1963 14.7889 12.2012 14.4724 12.3995 14.2802C12.5977 14.0879 12.9142 14.0928 13.1065 14.291L13.6328 14.8338C13.727 14.9309 13.8565 14.9857 13.9917 14.9857H14.8461L11.776 11.8348L10.2947 10.3535C10.0994 10.1583 10.0994 9.84168 10.2947 9.64642ZM3.56332 8.90138C3.72026 8.84943 3.85349 8.76416 3.96569 8.6641L4.12165 8.82844C4.00079 9.06355 3.95295 9.32279 3.94831 9.54282C3.94416 9.74024 3.9725 9.9435 4.03816 10.1277L4.04206 10.1385C3.99099 10.1842 3.93856 10.2314 3.88691 10.2782L2.69685 8.80242C2.96873 8.95355 3.26179 9.00118 3.56332 8.90138Z" fill="#252323"/>
</g>
<defs>
<clipPath id="clip0_597_2888">
<rect width="18" height="18" fill="white"/>
</clipPath>
</defs>
</svg>
