<svg width="23" height="23" viewBox="0 0 23 23" fill="none" xmlns="http://www.w3.org/2000/svg">
<g clip-path="url(#clip0_597_2878)">
<path fill-rule="evenodd" clip-rule="evenodd" d="M9.73202 6.6749C11.3055 7.98614 11.5678 8.24839 11.0433 8.77289L8.15852 11.6576L6.84728 11.9199C5.79829 10.8709 5.79828 10.8709 5.44862 10.4435C5.27379 10.2298 5.01154 9.90931 4.48704 9.29738C4.67214 8.55696 4.92984 7.88911 5.27378 7.30411L6.84728 5.61391C8.02231 4.82487 9.64188 4.44819 11.83 4.57691L9.73202 6.6749ZM17.3373 19.7874H17.8894C18.8578 19.7874 19.3492 18.6224 18.6734 17.9289L15.5015 14.6735L13.0102 12.1166L11.7645 10.8381L10.5188 9.55966L8.9453 11.1332L13.1413 15.4603L15.2393 17.6238L16.2883 18.7056L17.3373 19.7874ZM5.01165 10.0842C4.7494 10.6961 4.01511 11.5527 3.17591 10.0842L2.38916 11.1332L5.01165 14.0179L6.06065 12.9689C5.62357 12.7066 5.01165 11.9723 6.06065 11.1332L5.01165 10.0842Z" fill="#E05149"/>
<path fill-rule="evenodd" clip-rule="evenodd" d="M6.49894 5.09501C7.82449 4.20489 9.59482 3.81931 11.8668 3.95295C12.1125 3.96741 12.3268 4.12471 12.4143 4.35476C12.5018 4.58482 12.4461 4.84478 12.272 5.01882L10.656 6.63483C10.8214 6.77578 10.9683 6.90386 11.0962 7.02072C11.3395 7.24308 11.5515 7.45773 11.6945 7.67221C11.8455 7.89872 11.9638 8.19294 11.893 8.5348C11.8299 8.84005 11.6364 9.06366 11.4853 9.2148L11.2676 9.43248L12.2122 10.4019C12.4531 10.6492 12.448 11.0448 12.2007 11.2857C11.9535 11.5266 11.5578 11.5215 11.3169 11.2743L10.5131 10.4493L9.82252 11.1399L13.5867 15.0217L15.5009 16.9358C15.7449 17.1799 15.7449 17.5756 15.5009 17.8197C15.2568 18.0638 14.861 18.0638 14.617 17.8197L12.6994 15.9022L12.6926 15.8954L12.6927 15.8953L8.8094 11.8907L8.60055 12.0995C8.5133 12.1868 8.40217 12.2463 8.28118 12.2705L6.96993 12.5327C6.76502 12.5737 6.55318 12.5096 6.40542 12.3618C6.37212 12.3285 6.33985 12.2962 6.30855 12.2649C6.3108 12.3658 6.32773 12.4535 6.35023 12.5166C6.36164 12.5486 6.37149 12.5666 6.3766 12.5748C6.5301 12.6892 6.6231 12.8682 6.62783 13.0605C6.63278 13.2614 6.5408 13.4524 6.38067 13.5739C6.26055 13.665 5.96167 13.9368 5.68333 14.1899L5.68328 14.19L5.68318 14.1901C5.54526 14.3155 5.4124 14.4363 5.30884 14.5283C5.18105 14.6418 5.01235 14.698 4.84201 14.6838C4.67168 14.6697 4.51458 14.5864 4.40729 14.4533L1.96002 11.4185C1.7506 11.1588 1.78207 10.7804 2.03152 10.5589L2.86342 9.82002C3.08894 9.61974 3.42533 9.60908 3.66307 9.79469C3.86371 9.95134 4.00985 10.0261 4.10686 10.059C4.1972 10.0895 4.23374 10.0804 4.23786 10.0794L4.23798 10.0794C4.2412 10.0786 4.26242 10.0719 4.29729 10.0379C4.21198 9.93733 4.11756 9.82657 4.01258 9.7041C3.88079 9.55034 3.83166 9.34224 3.88078 9.14577C4.07734 8.35953 4.35506 7.63368 4.73509 6.98731C4.91003 6.68975 5.29307 6.59035 5.59063 6.7653C5.88819 6.94024 5.98759 7.32328 5.81265 7.62084C5.55103 8.06582 5.34011 8.57303 5.17608 9.14162C5.57325 9.60828 5.78783 9.87071 5.9356 10.0514L5.9356 10.0514L5.93561 10.0514C6.02819 10.1647 6.09454 10.2458 6.16314 10.325C6.32427 10.511 6.49779 10.6863 7.05278 11.2414L7.85048 11.0818L10.6014 8.33092L10.6173 8.3148C10.5532 8.23347 10.4414 8.11567 10.253 7.94349C10.0276 7.73752 9.72714 7.4843 9.33199 7.15501C9.19709 7.04259 9.1157 6.87861 9.10775 6.70319C9.09979 6.52777 9.16599 6.3571 9.29016 6.23293L10.3253 5.19783C8.97941 5.28192 7.96302 5.61755 7.19579 6.13275C6.90922 6.32518 6.52092 6.24887 6.32849 5.9623C6.13606 5.67574 6.21237 5.28744 6.49894 5.09501ZM12.5741 11.6689C12.8213 11.428 13.217 11.4332 13.4579 11.6804L15.9493 14.2373L19.1212 17.4927C20.1828 18.5823 19.4108 20.4123 17.8895 20.4123H17.3374C17.1683 20.4123 17.0064 20.3438 16.8887 20.2224L15.8397 19.1407C15.5994 18.8929 15.6055 18.4972 15.8533 18.2569C16.1011 18.0166 16.4968 18.0227 16.737 18.2705L17.6019 19.1623H17.8895C18.305 19.1623 18.5158 18.6626 18.2259 18.365L15.054 15.1097L12.5626 12.5527C12.3217 12.3055 12.3269 11.9098 12.5741 11.6689ZM4.53827 11.2927C4.741 11.2426 4.91098 11.1503 5.05353 11.0363L5.28328 11.2784C5.12675 11.5788 5.06475 11.9114 5.0588 12.1939C5.05352 12.4447 5.08955 12.7028 5.17281 12.9363L5.18101 12.9588C5.10997 13.0223 5.03676 13.0884 4.96488 13.1535L3.30716 11.0977L3.33297 11.0748C3.72811 11.2948 4.13402 11.3928 4.53827 11.2927Z" fill="#252323"/>
</g>
<defs>
<clipPath id="clip0_597_2878">
<rect width="23" height="23" fill="white"/>
</clipPath>
</defs>
</svg>
