<svg width="23" height="23" viewBox="0 0 23 23" fill="none" xmlns="http://www.w3.org/2000/svg">
<g clip-path="url(#clip0_1228_14583)">
<path d="M14.8206 16.1951L15.8428 17.1509L16.865 15.8366L17.3761 15.1795L17.8872 14.5223" stroke="#2C6724" stroke-width="1.35" stroke-linecap="round" stroke-linejoin="round"/>
<path fill-rule="evenodd" clip-rule="evenodd" d="M3.354 5.98956L5.33157 4.14784C5.79799 3.71346 6.5312 3.75072 6.95117 4.23014L14.331 12.6545C13.9114 12.9346 13.5527 13.2986 13.2786 13.7225L6.13329 5.62218L4.07278 7.18747L3.35402 6.96052L3.354 5.98956ZM17.9698 19.0408L18.2447 19.3524L19.3079 19.6912L19.4061 18.4479L19.1437 18.1484C18.8182 18.5194 18.4194 18.8244 17.9698 19.0408ZM5.41597 19.4036L10.2993 14.5203C10.7671 14.0525 10.7671 13.294 10.2993 12.8262C9.83148 12.3584 9.073 12.3584 8.60518 12.8262L3.72186 17.7095C3.25405 18.1773 3.25405 18.9358 3.72186 19.4036C4.18968 19.8714 4.94816 19.8714 5.41597 19.4036ZM14.8541 7.42712L15.4417 6.0563C15.5281 5.85459 15.658 5.67442 15.822 5.5286L16.8664 4.59997L17.8888 6.13327L16.9787 7.04327C16.9041 7.11788 16.8218 7.18436 16.7331 7.24161L15.3333 8.14587L14.8541 7.42712Z" fill="#E05149"/>
<path fill-rule="evenodd" clip-rule="evenodd" d="M20.1464 17.9405C20.1463 17.954 20.1459 17.9675 20.145 17.981L20.0317 19.7838C20.017 20.0142 19.8845 20.2214 19.6821 20.3326C19.4798 20.4435 19.235 20.4437 19.0327 20.3326L18.0172 19.7742C17.5243 19.9705 16.9866 20.0784 16.4238 20.0785C14.0443 20.0785 12.1152 18.1494 12.1152 15.7699C12.1152 15.1278 12.2556 14.5185 12.5075 13.9711L11.3549 12.6989L11.1732 12.8803C11.5277 13.5828 11.4132 14.4617 10.8265 15.0483L5.94373 19.9311C5.21249 20.6621 4.02669 20.6619 3.29529 19.9311C2.56387 19.1997 2.56387 18.0131 3.29529 17.2817L8.1781 12.3989C8.71685 11.8604 9.50171 11.7192 10.1703 11.9741L10.4474 11.6972L6.14209 6.94491L5.04932 7.74862C4.90443 7.85519 4.72311 7.8994 4.54541 7.87167L3.29834 7.67733L3.18018 7.64706C2.91413 7.5538 2.72914 7.30096 2.729 7.01034V5.67147C2.72918 5.46688 2.82229 5.27309 2.98193 5.14511L4.98389 3.54061C5.72699 2.94519 6.80542 3.02918 7.44678 3.733L12.6736 9.47176L14.6664 7.47898C14.672 7.47338 14.6781 7.46834 14.6842 7.46332C14.6881 7.46011 14.692 7.45692 14.6957 7.45359C14.6651 7.34045 14.6643 7.21907 14.6957 7.10203L15.348 7.27781V7.27683L14.6957 7.10203L14.9681 6.08738C15.0425 5.8108 15.1989 5.56279 15.4164 5.37644L16.6781 4.29539C16.9459 4.06634 17.3449 4.08229 17.5941 4.33152L18.6254 5.36277C18.8747 5.61214 18.891 6.01196 18.6615 6.27976L17.5804 7.5405C17.3941 7.75803 17.1462 7.91444 16.8695 7.98875L15.8549 8.26121L15.806 8.07957V8.08054L15.8549 8.26121C15.8143 8.27208 15.7728 8.27656 15.7318 8.27976C15.7018 8.33417 15.6666 8.38694 15.6205 8.43308L13.5832 10.4704L14.781 11.7855C15.2872 11.5766 15.842 11.4613 16.4238 11.4613C17.923 11.4613 19.2428 12.2277 20.0136 13.387C20.2046 13.6744 20.1269 14.0621 19.8398 14.2533C19.5524 14.4443 19.1638 14.3667 18.9726 14.0794C18.4236 13.2537 17.487 12.7113 16.4238 12.7113C14.7346 12.7113 13.3652 14.0807 13.3652 15.7699C13.3652 17.459 14.7346 18.8285 16.4238 18.8285C18.1129 18.8284 19.4823 17.459 19.4824 15.7699C19.4824 15.4247 19.7622 15.1449 20.1074 15.1449C20.4525 15.1449 20.7324 15.4247 20.7324 15.7699C20.7323 16.5614 20.5189 17.3031 20.1464 17.9405ZM13.6108 12.5062L6.44873 4.64218C6.28713 4.46493 6.01482 4.4443 5.82764 4.59433L4.07861 5.99569L4.07764 6.43319L4.4751 6.49569L5.8335 5.49569L5.94189 5.43026C6.20632 5.3035 6.53031 5.36112 6.73389 5.58554L13.2849 12.8183C13.388 12.7087 13.4968 12.6045 13.6108 12.5062ZM9.87244 13.353C9.66832 13.149 9.33641 13.1491 9.13221 13.353L4.24939 18.2358C4.04522 18.44 4.04529 18.7718 4.24939 18.9761C4.45355 19.18 4.7845 19.18 4.98865 18.9761L9.87146 14.0932C10.0756 13.8891 10.0764 13.5572 9.87244 13.353ZM16.2943 6.40086C16.2833 6.41025 16.2756 6.42402 16.2719 6.43797L16.181 6.77586L16.5189 6.68504C16.5327 6.68133 16.5457 6.67335 16.5551 6.66258L17.2299 5.87547L17.0814 5.72703L16.2943 6.40086Z" fill="#332A2A"/>
</g>
<defs>
<clipPath id="clip0_1228_14583">
<rect width="23" height="23" fill="white"/>
</clipPath>
</defs>
</svg>
