<svg width="18" height="18" viewBox="0 0 18 18" fill="none" xmlns="http://www.w3.org/2000/svg">
<g clip-path="url(#clip0_662_6726)">
<path fill-rule="evenodd" clip-rule="evenodd" d="M3.98743 3.41871L2.62504 4.68752L2.62505 5.4474L3.18755 5.62502L4.83966 4.68752L14.2786 15.1454L15.1107 15.4105L15.1875 14.4375L5.60703 3.50102C5.18705 3.02159 4.45385 2.98433 3.98743 3.41871ZM4.60091 15.3896L8.01448 11.976C8.49331 11.4972 8.49331 10.7209 8.01448 10.242C7.53566 9.76322 6.75933 9.76322 6.28051 10.242L2.86693 13.6556C2.38811 14.1344 2.38811 14.9108 2.86693 15.3896C3.34576 15.8684 4.12208 15.8684 4.60091 15.3896ZM11.625 5.81263L11.9382 5.0819C12.0976 4.71005 12.401 4.41879 12.7791 4.27474L13.4998 4.00012L14 4.50006L13.0001 5.5L12 6.37513L11.625 5.81263Z" fill="#E05149"/>
<path fill-rule="evenodd" clip-rule="evenodd" d="M6.19752 3.18256C5.54105 2.45552 4.41584 2.40676 3.69894 3.07424L2.32359 4.35545C2.2286 4.444 2.16428 4.559 2.13802 4.68408L2.12501 4.81264L2.12515 5.57239C2.12516 5.75995 2.20884 5.936 2.35125 6.05381L2.41607 6.10083L3.29153 6.65329L3.38594 6.70288C3.58134 6.78375 3.80543 6.75968 3.97948 6.63959L4.06269 6.57153L4.93573 5.71438L8.12126 9.24351L7.9218 9.44276C7.27597 9.14596 6.48702 9.26245 5.955 9.79432L2.39641 13.3529C1.71379 14.0359 1.71455 15.1427 2.39739 15.8256C3.08026 16.5082 4.18712 16.5091 4.87004 15.8265L8.42864 12.268C8.95063 11.7458 9.07109 10.9763 8.79485 10.3373L8.95989 10.1726L13.9395 15.6893C14.0136 15.7713 14.1081 15.8323 14.2134 15.8659L15.0455 16.1312C15.2355 16.1917 15.4431 16.1578 15.6041 16.0401C15.765 15.9225 15.8602 15.7353 15.8604 15.536L15.8608 14.1252C15.8608 14.0092 15.828 13.896 15.7681 13.7983L15.6992 13.7067L10.8249 8.30793L12.3486 6.78358C12.3986 6.78021 12.449 6.772 12.498 6.75624L13.2743 6.50623C13.5116 6.42973 13.7238 6.28984 13.8876 6.10194L14.7695 5.08924L14.8398 4.99159C14.9786 4.7514 14.9439 4.44095 14.7411 4.23768L13.9882 3.48573C13.7851 3.28272 13.4746 3.24652 13.2343 3.38514L13.1357 3.45545L12.1239 4.33827C11.936 4.50215 11.7952 4.71416 11.7187 4.95155L11.4687 5.72791C11.4479 5.79263 11.4387 5.85924 11.4394 5.92518L9.98626 7.37901L6.19752 3.18256ZM3.37385 5.22761L3.37396 5.08439L4.55135 3.98918C4.75755 3.7975 5.08095 3.81131 5.26967 4.02032L14.6097 14.3654L14.6101 14.5667L5.42792 4.39364C5.31394 4.26746 5.15361 4.19285 4.98365 4.18757C4.81353 4.18235 4.64827 4.24698 4.5267 4.3661L3.54018 5.33229L3.37385 5.22761ZM6.83879 10.6781C7.03363 10.4835 7.35009 10.4833 7.54485 10.6781C7.73936 10.8729 7.7394 11.1894 7.54485 11.3842L3.98625 14.9428C3.79149 15.1372 3.4759 15.1362 3.28117 14.9418C3.08648 14.7471 3.08573 14.4315 3.2802 14.2367L6.83879 10.6781Z" fill="#332A2A"/>
</g>
<defs>
<clipPath id="clip0_662_6726">
<rect width="18" height="18" fill="white"/>
</clipPath>
</defs>
</svg>
