<svg width="18" height="18" viewBox="0 0 18 18" fill="none" xmlns="http://www.w3.org/2000/svg">
<g clip-path="url(#clip0_1228_14419)">
<path d="M11.5486 12.6361L12.3819 13.4153L14.0486 11.2725" stroke="#252323" stroke-width="0.872024" stroke-linecap="round" stroke-linejoin="round"/>
<path fill-rule="evenodd" clip-rule="evenodd" d="M2.625 4.68749L4.00423 3.56568C4.47201 3.18521 5.15613 3.23919 5.55845 3.68831L11.1601 9.94156C10.8513 10.1583 10.587 10.4341 10.3836 10.7525L4.83962 4.50001L3.18752 5.62498L2.62501 5.44736L2.625 4.68749ZM14.0627 14.9019L14.2786 15.1454L15.1107 15.4105L15.1875 14.4375L14.9799 14.2057C14.7254 14.4951 14.4138 14.733 14.0627 14.9019ZM4.23871 15.1855L8.06044 11.3637C8.42656 10.9976 8.42656 10.404 8.06044 10.0379C7.69433 9.67178 7.10073 9.67178 6.73462 10.0379L2.91289 13.8596C2.54677 14.2257 2.54677 14.8193 2.91289 15.1855C3.27901 15.5516 3.8726 15.5516 4.23871 15.1855ZM11.6252 5.81244L12.0329 4.86114C12.1344 4.62436 12.2954 4.41786 12.5003 4.26171L13.5 3.4999L14.0001 4.49991L13.6867 5.23525C13.5293 5.60447 13.2299 5.8948 12.8561 6.04077L12.0002 6.37494L11.6252 5.81244Z" fill="#E05149"/>
<path fill-rule="evenodd" clip-rule="evenodd" d="M4.3409 3.77277C4.59816 3.53318 5.00176 3.55065 5.23735 3.81157L10.5973 9.74759C10.5005 9.83162 10.4086 9.92104 10.322 10.0154L5.21081 4.35252C5.11958 4.25144 4.99107 4.19194 4.85497 4.18776C4.71887 4.18359 4.58695 4.2351 4.4897 4.3304L3.43272 5.36611L3.12503 5.1718L3.12502 4.90512L4.3409 3.77277ZM9.74806 10.872L8.84055 9.86658L8.52224 10.1849C8.82321 10.7921 8.72081 11.5485 8.21505 12.0543L4.65688 15.6125C4.02271 16.2466 2.99452 16.2466 2.36036 15.6124C1.72622 14.9783 1.72623 13.9501 2.36038 13.316L5.91855 9.7578C6.43436 9.24199 7.21082 9.14573 7.82393 9.469L8.16966 9.12326L4.8175 5.40925L3.85011 6.35718C3.68454 6.51942 3.42918 6.54658 3.23319 6.42281L2.35806 5.87017C2.213 5.77856 2.12504 5.61898 2.12504 5.44742L2.12502 4.68754C2.12502 4.54876 2.1827 4.41622 2.28426 4.32163L3.65938 3.04097C4.3252 2.42089 5.3698 2.4661 5.97955 3.14139L9.85716 7.43578L11.4426 5.85034C11.4348 5.78109 11.4414 5.7098 11.4635 5.64106L11.7134 4.86522C11.7829 4.64941 11.9099 4.45663 12.0809 4.30765L13.093 3.42534C13.2912 3.25261 13.5892 3.26281 13.7751 3.44869L14.5272 4.20074C14.713 4.38661 14.7232 4.68469 14.5505 4.88284L13.6682 5.89499C13.5192 6.0659 13.3264 6.19294 13.1106 6.26245L12.3348 6.5123C12.281 6.52963 12.2256 6.53744 12.1708 6.53627L12.1661 6.54109L10.5282 8.17894L11.4542 9.20442C11.8704 9.02143 12.3305 8.91985 12.8143 8.91985C13.9914 8.91985 15.0278 9.52149 15.633 10.4317C15.7859 10.6617 15.7234 10.972 15.4935 11.1249C15.2635 11.2778 14.9532 11.2153 14.8003 10.9854C14.3725 10.3421 13.6426 9.91985 12.8143 9.91985C11.4984 9.91985 10.4316 10.9867 10.4316 12.3026C10.4316 13.6186 11.4984 14.6854 12.8143 14.6854C14.1303 14.6854 15.1971 13.6186 15.1971 12.3026C15.1971 12.0265 15.4209 11.8026 15.6971 11.8026C15.9732 11.8026 16.1971 12.0265 16.1971 12.3026C16.1971 13.0087 15.9807 13.6643 15.6107 14.2067L15.6107 15.4105C15.6107 15.5701 15.5346 15.7201 15.4057 15.8142C15.2769 15.9084 15.1109 15.9354 14.9589 15.8869L14.1268 15.6218C14.0505 15.5975 13.9813 15.5553 13.9249 15.4988C13.5771 15.6197 13.2034 15.6854 12.8143 15.6854C10.9461 15.6854 9.43156 14.1709 9.43156 12.3026C9.43156 11.7913 9.54499 11.3065 9.74806 10.872ZM12.738 5.06145L13.3982 4.48595L13.4899 4.57769L12.9144 5.23789C12.8849 5.2717 12.8468 5.29684 12.8041 5.31059L12.5993 5.37653L12.6653 5.17176C12.679 5.12907 12.7041 5.09093 12.738 5.06145ZM6.62566 10.4649C6.8693 10.2213 7.26431 10.2213 7.50795 10.4649C7.75157 10.7085 7.75157 11.1036 7.50794 11.3472L3.94977 14.9054C3.70613 15.149 3.31112 15.149 3.06748 14.9053C2.82386 14.6617 2.82386 14.2667 3.06749 14.0231L6.62566 10.4649Z" fill="#252323"/>
</g>
<defs>
<clipPath id="clip0_1228_14419">
<rect width="18" height="18" fill="white"/>
</clipPath>
</defs>
</svg>
