<svg width="44" height="44" viewBox="0 0 44 44" fill="none" xmlns="http://www.w3.org/2000/svg">
<g clip-path="url(#clip0_189_378)">
<path fill-rule="evenodd" clip-rule="evenodd" d="M18.618 12.7693C21.6282 15.2778 22.1299 15.7795 21.1265 16.7829L15.6078 22.3015L13.0994 22.8032C11.0926 20.7964 11.0926 20.7964 10.4237 19.9789C10.0892 19.5701 9.58752 18.9569 8.58413 17.7863C8.93825 16.3698 9.43123 15.0922 10.0892 13.973L13.0994 10.7396C15.3473 9.23014 18.4456 8.50955 22.6316 8.75578L18.618 12.7693ZM33.1672 37.8541H36.5927C37.561 37.8541 38.0525 36.6891 37.3767 35.9956L29.6553 28.071L24.8892 23.1795L22.5062 20.7338L20.1231 18.288L17.113 21.2982L25.1401 29.5761L29.1536 33.7151L31.1604 35.7846L33.1672 37.8541ZM9.58774 19.2914C9.08605 20.462 7.6813 22.1009 6.07588 19.2914L4.5708 21.2982L9.58774 26.8168L11.5945 24.81C10.7584 24.3083 9.58774 22.9036 11.5945 21.2982L9.58774 19.2914Z" fill="#E05149"/>
<path fill-rule="evenodd" clip-rule="evenodd" d="M12.6813 10.1169C15.1098 8.48617 18.389 7.75489 22.6756 8.00704C22.9705 8.02438 23.2277 8.21315 23.3326 8.48921C23.4376 8.76528 23.3707 9.07724 23.1619 9.28608L19.728 12.72C20.1972 13.1148 20.5966 13.4581 20.9269 13.7599C21.3884 14.1816 21.7597 14.5619 22.0014 14.9245C22.2527 15.3015 22.418 15.7422 22.3156 16.2371C22.2223 16.6882 21.9317 17.0383 21.6568 17.3132L20.9293 18.0407L23.0434 20.2103C23.3324 20.507 23.3263 20.9818 23.0296 21.2709C22.7329 21.56 22.2581 21.5538 21.969 21.2571L20.1162 19.3556L18.1656 21.3062L25.6785 29.054L29.6921 33.193C29.9804 33.4903 29.9731 33.9651 29.6758 34.2535C29.3784 34.5418 28.9036 34.5345 28.6152 34.2372L24.6017 30.0982L16.8577 22.1123L16.1382 22.8318C16.0335 22.9365 15.9001 23.0079 15.7549 23.0369L13.2465 23.5386C13.0006 23.5878 12.7464 23.5108 12.5691 23.3335C12.2696 23.0341 12.014 22.7783 11.7935 22.5573C11.6927 22.7792 11.6296 23.0566 11.623 23.3685C11.6172 23.644 11.6588 23.8986 11.7286 24.0944C11.802 24.3005 11.883 24.3788 11.9074 24.3955C12.1065 24.5316 12.228 24.7551 12.2339 24.9962C12.2398 25.2373 12.1295 25.4666 11.9373 25.6123C11.6916 25.7986 11.0851 26.3501 10.5419 26.844L10.5419 26.8441C10.2858 27.0769 10.0437 27.297 9.8602 27.46C9.70685 27.5962 9.5044 27.6637 9.30001 27.6467C9.09561 27.6297 8.90709 27.5297 8.77834 27.37L4.09661 21.5643C3.8453 21.2527 3.88307 20.7986 4.1824 20.5328L5.77387 19.1193C6.0445 18.879 6.44816 18.8662 6.73345 19.0889C7.57072 19.7426 8.01692 19.7637 8.21458 19.7148C8.38616 19.6724 8.5825 19.5265 8.79016 19.1857C8.57073 18.9256 8.31529 18.625 8.0147 18.2743C7.85654 18.0898 7.79759 17.8401 7.85653 17.6043C8.2244 16.1329 8.74141 14.7857 9.44269 13.5929C9.65262 13.2358 10.1123 13.1165 10.4693 13.3265C10.8264 13.5364 10.9457 13.996 10.7358 14.3531C10.1776 15.3025 9.73956 16.3859 9.40888 17.5966C10.2598 18.5936 10.7053 19.1383 11.008 19.5084C11.1869 19.7271 11.3159 19.8848 11.4492 20.0388C11.7796 20.4206 12.1365 20.7796 13.3459 21.989L15.2381 21.6106L20.5962 16.2525C20.7022 16.1465 20.7672 16.0678 20.8062 16.0092C20.8326 15.9696 20.8422 15.9466 20.8454 15.9375C20.8411 15.9154 20.8223 15.86 20.7533 15.7565C20.6187 15.5547 20.3629 15.2765 19.9151 14.8672C19.4751 14.4652 18.8926 13.9744 18.1379 13.3455C17.976 13.2106 17.8783 13.0138 17.8688 12.8033C17.8592 12.5928 17.9387 12.388 18.0877 12.239L20.8675 9.45915C17.6663 9.48651 15.2821 10.1772 13.5175 11.3622C13.1736 11.5931 12.7077 11.5016 12.4767 11.1577C12.2458 10.8138 12.3374 10.3479 12.6813 10.1169ZM20.8461 15.949C20.8456 15.9488 20.845 15.9453 20.8457 15.9393C20.8469 15.9461 20.8466 15.9491 20.8461 15.949ZM24.3658 22.6423C24.6625 22.3532 25.1374 22.3594 25.4264 22.6561L30.1925 27.5476L37.9139 35.4721C39.0527 36.6409 38.2245 38.604 36.5927 38.604H33.1672C32.9643 38.604 32.77 38.5218 32.6288 38.3761L30.622 36.3067C30.3336 36.0093 30.341 35.5345 30.6383 35.2461C30.9357 34.9578 31.4105 34.9651 31.6988 35.2624L33.4846 37.104H36.5927C36.8976 37.104 37.0523 36.7373 36.8395 36.5189L29.1182 28.5944L24.3521 23.7029C24.063 23.4062 24.0692 22.9314 24.3658 22.6423ZM8.57494 21.1709C9.03881 21.0561 9.40126 20.7979 9.68625 20.4851L10.6624 21.5138C10.2871 22.069 10.1357 22.7481 10.1234 23.3369C10.1142 23.7699 10.1769 24.2088 10.3157 24.5981C10.3525 24.7014 10.3966 24.8062 10.4488 24.9092C10.1353 25.1859 9.7676 25.5201 9.44788 25.8108L5.71317 21.1794L6.32425 20.6367C7.11056 21.1388 7.86356 21.347 8.57494 21.1709Z" fill="#332A2A"/>
</g>
<defs>
<clipPath id="clip0_189_378">
<rect width="44" height="44" fill="white"/>
</clipPath>
</defs>
</svg>
