<svg width="28" height="28" viewBox="0 0 28 28" fill="none" xmlns="http://www.w3.org/2000/svg">
<g clip-path="url(#clip0_611_6684)">
<path fill-rule="evenodd" clip-rule="evenodd" d="M7.36916 5.56371C8.9008 3.77799 11.1393 2.75 13.9239 2.75C16.7842 2.75 19.06 3.8033 20.6104 5.60057C22.0512 7.27069 22.8161 9.52421 22.9073 12.0292C23.2279 12.2149 23.4849 12.4983 23.6375 12.8387L24.9949 13.3462C25.6788 13.6019 26.1321 14.2553 26.1321 14.9854V17.0979C26.1321 17.828 25.6788 18.4814 24.9949 18.7371L23.6375 19.2446C23.3902 19.7961 22.869 20.1981 22.2469 20.2774L20.1274 22.9269C20.0487 23.0252 19.9465 23.1022 19.8302 23.1506L16.3302 24.609C16.1824 24.6706 16.0261 24.6813 15.8807 24.6493C15.5065 24.914 14.9337 25.0833 14.2917 25.0833C13.1641 25.0833 12.25 24.561 12.25 23.9167C12.25 23.2723 13.1641 22.75 14.2917 22.75C14.9272 22.75 15.4948 22.9159 15.8693 23.176L19.076 21.8399L20.7471 19.751C20.4394 19.4324 20.25 18.9987 20.25 18.5208V16.0417C20.25 15.6275 20.5858 15.2917 21 15.2917C21.4143 15.2917 21.75 15.6275 21.75 16.0417V18.5208C21.75 18.6704 21.8713 18.7917 22.0209 18.7917C22.1705 18.7917 22.2917 18.6704 22.2917 18.5208V13.5625C22.2917 13.4129 22.1705 13.2917 22.0209 13.2917C21.8713 13.2917 21.75 13.4129 21.75 13.5625V14.2917C21.75 14.7059 21.4143 15.0417 21 15.0417C20.5858 15.0417 20.25 14.7059 20.25 14.2917V13.5625C20.25 12.9002 20.6136 12.3229 21.152 12.0191C21.1496 11.9946 21.1483 11.9696 21.1483 11.9444C21.1483 9.52906 19.4726 8.01344 17.2297 7.2541C16.8373 7.12127 16.6269 6.69554 16.7598 6.3032C16.8926 5.91086 17.3183 5.70049 17.7107 5.83331C18.353 6.05078 18.9832 6.33453 19.567 6.68977C19.5366 6.65292 19.5058 6.61645 19.4747 6.58037C18.2353 5.14371 16.3897 4.25 13.9239 4.25C11.6779 4.25 9.94669 5.01675 8.73359 6.29037C10.2527 5.53564 12.0934 5.22216 13.9353 5.22216C14.3495 5.22216 14.6853 5.55795 14.6853 5.97216C14.6853 6.38638 14.3495 6.72216 13.9353 6.72216C11.9472 6.72216 10.1169 7.12296 8.80854 7.97005C7.54061 8.79098 6.72228 10.0514 6.72228 11.9444L6.72221 11.9546C7.32906 12.2355 7.75004 12.8498 7.75004 13.5625V16.0417C7.75004 16.4559 7.41426 16.7917 7.00004 16.7917C6.58583 16.7917 6.25004 16.4559 6.25004 16.0417V13.5625C6.25004 13.4129 6.12879 13.2917 5.97921 13.2917C5.8298 13.2917 5.70865 13.4126 5.70838 13.562V18.5213C5.70865 18.6707 5.8298 18.7917 5.97921 18.7917C6.12879 18.7917 6.25004 18.6704 6.25004 18.5208V17.7917C6.25004 17.3775 6.58583 17.0417 7.00004 17.0417C7.41426 17.0417 7.75004 17.3775 7.75004 17.7917V18.5208C7.75004 19.4988 6.95721 20.2917 5.97921 20.2917C5.26213 20.2917 4.6446 19.8654 4.36613 19.2525L2.90414 18.7346C2.20548 18.4871 1.73853 17.8263 1.73853 17.085V14.9983C1.73853 14.2571 2.20548 13.5963 2.90414 13.3488L4.36613 12.8308C4.51911 12.4941 4.7744 12.2137 5.09231 12.0294C5.18187 9.48109 5.94438 7.22483 7.36916 5.56371ZM4.20838 14.478V17.6053L3.40504 17.3207C3.30523 17.2853 3.23853 17.1909 3.23853 17.085V14.9983C3.23853 14.8924 3.30523 14.798 3.40504 14.7626L4.20838 14.478ZM23.7917 17.5856L24.4697 17.3321C24.5674 17.2956 24.6321 17.2022 24.6321 17.0979V14.9854C24.6321 14.8811 24.5674 14.7878 24.4697 14.7512L23.7917 14.4978V17.5856Z" fill="#332A2A"/>
</g>
<defs>
<clipPath id="clip0_611_6684">
<rect width="28" height="28" fill="white"/>
</clipPath>
</defs>
</svg>
