<svg width="44" height="44" viewBox="0 0 44 44" fill="none" xmlns="http://www.w3.org/2000/svg">
<g clip-path="url(#clip0_662_6651)">
<path fill-rule="evenodd" clip-rule="evenodd" d="M10.8086 6.51107C11.5846 5.78868 12.8039 5.85041 13.5026 6.64772L24.3306 19.0083L28.6533 14.6848C28.7053 14.6328 28.7647 14.5923 28.8261 14.5588C28.7884 14.4293 28.7851 14.2902 28.8212 14.1555L29.2773 12.4543C29.3555 12.163 29.5199 11.9015 29.749 11.7053L31.8076 9.94257C32.1051 9.68761 32.549 9.70456 32.8261 9.98164L34.4306 11.5861L34.5214 11.6965C34.707 11.9711 34.6918 12.3433 34.4687 12.6037L32.706 14.6623C32.5098 14.8913 32.2482 15.0558 31.957 15.134L30.2558 15.59C30.1151 15.6278 29.9701 15.6209 29.8359 15.5783C29.8029 15.6374 29.765 15.6951 29.7148 15.7453L25.3211 20.139L38.0306 34.6475C38.1636 34.7996 38.23 34.9988 38.2141 35.2002L38.0262 37.5789C38.0081 37.807 37.8869 38.0143 37.697 38.142C37.5071 38.2696 37.2692 38.3038 37.0511 38.2345L35.0166 37.5862C34.884 37.5439 34.7659 37.4653 34.6753 37.3597L22.4147 23.0452L20.9521 24.507L21.1064 24.6613C21.9824 25.5374 21.9824 26.9581 21.1064 27.8342L11.2002 37.7404C10.0124 38.9279 8.08713 38.9279 6.89937 37.7404C5.7116 36.5526 5.71155 34.6265 6.89937 33.4387L11.7496 28.5884C11.8015 28.3085 12.0113 28.0706 12.3056 27.997C12.3207 27.9932 12.3358 27.99 12.3509 27.9872L16.8056 23.5324C17.6527 22.6854 19.0069 22.6593 19.8876 23.4504L21.4357 21.9023L12.1039 11.0072L8.63725 14.1545C8.43969 14.3338 8.1612 14.3953 7.90675 14.3149L6.53181 13.8809C6.2199 13.7823 6.00853 13.4925 6.00852 13.1653L6.00757 11.3082L6.01183 11.2302C6.03047 11.051 6.11348 10.8835 6.24657 10.7594L10.8086 6.51107ZM10.3659 32.0932L12.3666 30.0926C12.5162 30.2724 12.678 30.4341 12.8409 30.5969L12.841 30.5969L12.8739 30.6298C13.1668 30.9226 13.6416 30.9227 13.9345 30.6298C14.2271 30.337 14.2271 29.8621 13.9345 29.5693C13.7012 29.3361 13.5449 29.1758 13.4347 29.0244L15.7026 26.7565C15.8791 26.9895 16.078 27.1882 16.2785 27.3886C16.2894 27.3995 16.3004 27.4105 16.3114 27.4215C16.6043 27.7142 17.0791 27.7143 17.372 27.4215C17.6646 27.1286 17.6646 26.6538 17.372 26.3609C17.0668 26.0558 16.8932 25.8755 16.7826 25.6765L17.8662 24.593C18.1564 24.3029 18.6267 24.303 18.9169 24.593L20.0459 25.7219C20.3361 26.0121 20.336 26.4824 20.0459 26.7727L10.1396 36.6799C9.5376 37.2815 8.56189 37.2816 7.95992 36.6799C7.35793 36.0778 7.35788 35.1012 7.95992 34.4992L9.28589 33.1732C9.46239 33.4062 9.66125 33.6049 9.86175 33.8052L9.8947 33.8381C10.1876 34.1309 10.6624 34.131 10.9552 33.8381C11.2479 33.5453 11.2479 33.0704 10.9552 32.7776C10.6501 32.4724 10.4765 32.2922 10.3659 32.0932ZM7.50703 11.6339L7.50693 12.615L7.94713 12.7544L11.6671 9.37763C11.8171 9.24139 12.0168 9.17168 12.2191 9.18438C12.4211 9.19724 12.6098 9.29147 12.7415 9.44523L35.6754 36.2228L36.6046 36.5185L36.6931 35.3983L12.3749 7.63675C12.2337 7.47563 11.9868 7.46306 11.83 7.60904L7.50703 11.6339ZM30.7255 12.8449L30.4179 13.9934L31.5664 13.6857L32.8789 12.1555L32.2558 11.5324L30.7255 12.8449Z" fill="#332A2A"/>
</g>
<defs>
<clipPath id="clip0_662_6651">
<rect width="44" height="44" fill="white"/>
</clipPath>
</defs>
</svg>
