<svg width="28" height="28" viewBox="0 0 28 28" fill="none" xmlns="http://www.w3.org/2000/svg">
<g clip-path="url(#clip0_597_2926)">
<path fill-rule="evenodd" clip-rule="evenodd" d="M7.91794 6.21168C9.52903 5.12981 11.6816 4.66056 14.446 4.82318C14.7409 4.84052 14.9981 5.02928 15.103 5.30535C15.208 5.58141 15.1412 5.89337 14.9323 6.10221L12.9567 8.07786C13.1616 8.25239 13.3433 8.41075 13.5012 8.55502C13.7973 8.82563 14.0546 9.0862 14.2279 9.34614C14.4108 9.62052 14.5533 9.97572 14.468 10.388C14.3918 10.7564 14.1582 11.0267 13.9745 11.2104L13.7019 11.483L14.8594 12.6708C15.1484 12.9675 15.1423 13.4423 14.8456 13.7314C14.5489 14.0205 14.0741 14.0143 13.785 13.7176L12.7988 12.7054L11.9427 13.5615L16.5327 18.2949L18.6104 20.3727C18.9033 20.6656 18.9033 21.1404 18.6104 21.4333C18.3176 21.7262 17.8427 21.7262 17.5498 21.4333L15.468 19.3515L15.4598 19.3434L15.4599 19.3433L10.7247 14.4602L10.4627 14.7222C10.358 14.8269 10.2246 14.8983 10.0794 14.9273L8.48313 15.2466C8.23724 15.2958 7.98303 15.2188 7.80572 15.0415C7.75845 14.9942 7.71288 14.9486 7.66893 14.9047C7.66906 15.0397 7.69078 15.1576 7.7206 15.2412C7.7356 15.2833 7.74855 15.3062 7.75484 15.316C7.94 15.4533 8.05223 15.6685 8.05793 15.9C8.06386 16.1411 7.95349 16.3704 7.76133 16.5161C7.61471 16.6273 7.24999 16.959 6.91086 17.2674L6.91083 17.2674C6.74308 17.42 6.58158 17.5668 6.45585 17.6785C6.30249 17.8147 6.10005 17.8822 5.89565 17.8652C5.69126 17.8482 5.50274 17.7482 5.37399 17.5885L2.3947 13.894C2.1434 13.5823 2.18116 13.1283 2.4805 12.8624L3.49325 11.963C3.76387 11.7226 4.16754 11.7098 4.45283 11.9326C4.96094 12.3293 5.15756 12.2822 5.16201 12.2811C5.16853 12.2795 5.19867 12.2694 5.24638 12.2207C5.14082 12.0962 5.02374 11.9589 4.89326 11.8066C4.73511 11.6221 4.67616 11.3724 4.7351 11.1367C4.97419 10.1803 5.31194 9.29765 5.77395 8.51183C5.98388 8.15476 6.44353 8.03548 6.80061 8.24542C7.15768 8.45535 7.27696 8.915 7.06702 9.27207C6.74714 9.81615 6.48951 10.4364 6.28938 11.1316C6.77512 11.7022 7.03722 12.0228 7.2176 12.2434L7.21762 12.2434C7.33037 12.3813 7.41119 12.4801 7.49475 12.5766C7.69146 12.8037 7.90333 13.0177 8.58254 13.697L9.56259 13.501L12.9139 10.1497C12.9233 10.1402 12.932 10.1314 12.9399 10.1231C12.8622 10.0231 12.7245 9.87725 12.4893 9.66234C12.2147 9.41141 11.8488 9.10298 11.3678 8.70213C11.2059 8.56723 11.1082 8.37045 11.0987 8.15995C11.0891 7.94944 11.1686 7.74463 11.3176 7.59563L12.598 6.31522C10.9439 6.41469 9.69558 6.82479 8.75416 7.45696C8.41028 7.68788 7.94432 7.59631 7.7134 7.25243C7.48249 6.90855 7.57406 6.44259 7.91794 6.21168ZM15.3153 14.2135C15.612 13.9244 16.0868 13.9306 16.3759 14.2272L19.4088 17.34L23.6639 21.7071C24.8027 22.8759 23.9746 24.839 22.3428 24.839H21.1065C20.9036 24.839 20.7093 24.7568 20.568 24.6111L19.291 23.2941C19.0027 22.9968 19.01 22.522 19.3073 22.2336C19.6047 21.9452 20.0795 21.9526 20.3679 22.2499L21.4239 23.339H22.3428C22.6476 23.339 22.8023 22.9722 22.5896 22.7539L18.3345 18.3868L15.3015 15.274C15.0124 14.9773 15.0186 14.5025 15.3153 14.2135ZM5.52237 13.7372C5.77112 13.6756 5.97916 13.5616 6.15324 13.4208L6.44519 13.7285C6.25296 14.094 6.1768 14.5 6.16954 14.8451C6.16313 15.1492 6.20683 15.462 6.3077 15.7449C6.31174 15.7563 6.31591 15.7677 6.32022 15.7791C6.22924 15.8605 6.1352 15.9453 6.0431 16.0287L4.01126 13.5091L4.05621 13.4692C4.53776 13.7388 5.03144 13.8587 5.52237 13.7372Z" fill="#332A2A"/>
</g>
<defs>
<clipPath id="clip0_597_2926">
<rect width="28" height="28" fill="white"/>
</clipPath>
</defs>
</svg>
