<svg width="18" height="18" viewBox="0 0 18 18" fill="none" xmlns="http://www.w3.org/2000/svg">
<g clip-path="url(#clip0_597_2928)">
<path fill-rule="evenodd" clip-rule="evenodd" d="M5.136 3.99993C6.20607 3.28138 7.62398 2.97731 9.42018 3.08294L9.38307 3.70599L9.38405 3.70696L9.42018 3.08294C9.66577 3.09739 9.88049 3.25441 9.96803 3.48431C10.0555 3.7143 9.99939 3.97434 9.82545 4.14837L8.66334 5.31048C8.74945 5.38492 8.82903 5.45402 8.90065 5.51946C9.0923 5.69459 9.26928 5.87126 9.39088 6.05364C9.52051 6.24809 9.63107 6.51594 9.56569 6.83196C9.50787 7.11116 9.33282 7.30992 9.21022 7.43255L9.13455 7.50822L9.78035 8.17082C10.021 8.41806 10.0158 8.81379 9.76863 9.05461C9.5214 9.2955 9.12573 9.29012 8.88484 9.04289L8.35164 8.49602L8.003 8.84465L10.8516 11.7822L11.752 12.6825C11.9961 12.9266 11.9961 13.3232 11.752 13.5673C11.5079 13.8109 11.1122 13.8112 10.8682 13.5673L9.96785 12.6659L9.96101 12.6591L7.01829 9.62448L6.95241 9.69036C6.86519 9.77757 6.75401 9.83704 6.63307 9.86126L5.6067 10.0663C5.52996 10.0817 5.45225 10.0823 5.37729 10.0693C5.42091 10.1528 5.4457 10.2462 5.44808 10.343C5.45296 10.5439 5.36055 10.7353 5.20047 10.8566C5.11106 10.9246 4.88859 11.127 4.67511 11.3212C4.56441 11.422 4.45612 11.5205 4.37008 11.5969L4.26688 11.671C4.15766 11.7338 4.03058 11.7628 3.90304 11.7522C3.73297 11.7379 3.57583 11.6548 3.46863 11.522L3.95561 11.1292L3.95463 11.1291L3.46863 11.522L1.55304 9.14669C1.34378 8.88714 1.37547 8.50869 1.62452 8.28711L2.2761 7.70843L2.37832 7.63427C2.59954 7.50622 2.87985 7.52678 3.0807 7.68707C3.0123 7.55376 2.99351 7.39844 3.03053 7.24993C3.18685 6.62465 3.40887 6.04354 3.71413 5.52435C3.8891 5.22688 4.27208 5.12775 4.56959 5.30267C4.86698 5.47767 4.96617 5.86065 4.79127 6.15813C4.6034 6.47773 4.45108 6.84228 4.32838 7.25091C4.60243 7.57367 4.75799 7.76329 4.86679 7.89592L4.86679 7.89592C5.10902 8.19119 5.11948 8.20394 5.68971 8.77435L6.20241 8.67181L8.24733 6.62688C8.20172 6.57905 8.14073 6.51803 8.05788 6.44231C7.88421 6.28362 7.65153 6.08693 7.34206 5.82903C7.20715 5.71662 7.1254 5.5523 7.11745 5.37688C7.10954 5.20155 7.17597 5.03128 7.30006 4.90716C7.43394 4.77328 7.54569 4.6609 7.64277 4.56328L7.64288 4.56317C7.71745 4.48818 7.78337 4.4219 7.84401 4.36126C6.9926 4.45875 6.33734 4.6979 5.83229 5.03704C5.54578 5.22938 5.15755 5.15354 4.9651 4.86712C4.77267 4.58056 4.84944 4.19236 5.136 3.99993ZM10.3311 9.68254C10.5751 9.43866 10.9708 9.43892 11.2149 9.68254L12.7052 11.1728H12.7042L15.7774 14.3251C16.472 15.0379 15.966 16.2353 14.9708 16.2353H14.1173C13.6776 16.2353 13.2563 16.0577 12.9503 15.7421L12.4239 15.1991C12.1837 14.9513 12.1898 14.5556 12.4376 14.3154C12.6854 14.0751 13.0811 14.0812 13.3214 14.329L13.8477 14.872C13.9183 14.9447 14.0159 14.9853 14.1173 14.9853H14.6749L11.8155 12.0507L10.3311 10.5673C10.0871 10.3232 10.0871 9.92662 10.3311 9.68254ZM12.2911 11.5741L12.2755 11.5898L12.4083 11.4599L12.2911 11.5741ZM3.72782 9.14545C3.86082 9.10143 3.97601 9.03359 4.07846 8.95687L4.09777 8.97758C3.99458 9.21117 3.95281 9.4573 3.94844 9.66527C3.94459 9.8485 3.96855 10.0374 4.02149 10.2155L3.19403 9.18914C3.36594 9.21633 3.54463 9.20606 3.72782 9.14545Z" fill="#332A2A"/>
</g>
<defs>
<clipPath id="clip0_597_2928">
<rect width="18" height="18" fill="white"/>
</clipPath>
</defs>
</svg>
