<svg width="24" height="23" viewBox="0 0 24 23" fill="none" xmlns="http://www.w3.org/2000/svg">
<g clip-path="url(#clip0_1228_14665)">
<path d="M15.5706 16.1951L16.5928 17.1509L17.615 15.8366L18.1261 15.1795L18.6372 14.5223" stroke="#2C6724" stroke-width="1.35" stroke-linecap="round" stroke-linejoin="round"/>
<path fill-rule="evenodd" clip-rule="evenodd" d="M3.6818 5.09557C3.52197 5.22368 3.42895 5.41744 3.42896 5.62227L3.42896 6.96056C3.42896 7.29304 3.67107 7.576 3.99955 7.62743L5.24549 7.82249C5.4234 7.85035 5.60506 7.80596 5.75008 7.6992L6.84285 6.8947L11.148 11.6473L10.8717 11.9236C10.2028 11.6681 9.41696 11.8099 8.87791 12.349L3.99459 17.2323C3.26317 17.9637 3.26317 19.1496 3.99459 19.881C4.72601 20.6124 5.91188 20.6124 6.6433 19.881L11.5266 14.9977C12.1133 14.411 12.2294 13.532 11.875 12.8296L12.0555 12.6491L13.2077 13.9211C12.9558 14.4685 12.8153 15.0779 12.8153 15.72C12.8153 18.0996 14.7443 20.0286 17.1239 20.0286C17.6866 20.0286 18.2242 19.9207 18.717 19.7244L19.7327 20.2828C19.9352 20.394 20.1805 20.3941 20.3829 20.2828C20.5854 20.1716 20.7169 19.9645 20.7315 19.7339L20.8458 17.9317C20.8467 17.9176 20.8471 17.9035 20.8471 17.8895C21.2192 17.2524 21.4324 16.5111 21.4324 15.72C21.4324 15.3748 21.1526 15.095 20.8074 15.095C20.4622 15.095 20.1824 15.3748 20.1824 15.72C20.1824 17.4092 18.813 18.7786 17.1239 18.7786C15.4347 18.7786 14.0653 17.4092 14.0653 15.72C14.0653 14.0308 15.4347 12.6615 17.1239 12.6615C18.1871 12.6615 19.124 13.2035 19.673 14.0292C19.8641 14.3166 20.2521 14.3947 20.5395 14.2036C20.8269 14.0125 20.905 13.6246 20.7139 13.3371C19.9431 12.1778 18.6231 11.4115 17.1239 11.4115C16.542 11.4115 15.9872 11.5268 15.4808 11.7358L14.2834 10.4212L16.321 8.38358C16.367 8.33756 16.405 8.28655 16.435 8.23229C16.4751 8.22901 16.5153 8.22211 16.555 8.21145L17.5695 7.9392C17.8463 7.86493 18.0942 7.70875 18.2806 7.49115L19.3616 6.22961C19.591 5.96181 19.5756 5.56249 19.3263 5.31312L18.2943 4.28114C18.0449 4.03177 17.6456 4.0164 17.3778 4.24586L16.1163 5.32679C15.8987 5.51324 15.7425 5.76111 15.6682 6.03788L15.396 7.05243C15.3648 7.16873 15.3657 7.28893 15.3957 7.40138C15.3857 7.41023 15.376 7.41943 15.3664 7.42898L13.3734 9.42202L8.14689 3.68372C7.50551 2.97954 6.42729 2.89505 5.68406 3.49076L3.6818 5.09557ZM14.311 12.4563L7.14883 4.59277C6.98724 4.41536 6.7156 4.39408 6.52836 4.54415L4.77896 5.94631L4.77896 6.38301L5.17631 6.44522L6.53355 5.44602C6.81245 5.2407 7.20149 5.27976 7.434 5.53643L13.9851 12.7684C14.0882 12.6588 14.197 12.5546 14.311 12.4563ZM16.9947 6.35194L17.7816 5.67765L17.9298 5.8258L17.2555 6.61275C17.2461 6.62372 17.2336 6.63159 17.2196 6.63533L16.8813 6.72613L16.9721 6.38777C16.9758 6.37383 16.9837 6.36134 16.9947 6.35194ZM9.83251 13.3036C10.0367 13.0993 10.3678 13.0993 10.572 13.3036C10.7762 13.5078 10.7762 13.8389 10.572 14.0431L5.6887 18.9264C5.48449 19.1306 5.1534 19.1306 4.94919 18.9264C4.74498 18.7222 4.74498 18.3911 4.94919 18.1869L9.83251 13.3036Z" fill="#252323"/>
</g>
<defs>
<clipPath id="clip0_1228_14665">
<rect width="23" height="23" fill="white" transform="translate(0.75)"/>
</clipPath>
</defs>
</svg>
