<svg width="28" height="28" viewBox="0 0 28 28" fill="none" xmlns="http://www.w3.org/2000/svg">
<g clip-path="url(#clip0_662_6667)">
<path fill-rule="evenodd" clip-rule="evenodd" d="M6.67599 4.87696L4.08325 7.2916L4.08328 8.47363L4.95828 8.74993L7.52822 7.2916L22.2111 23.5594L23.5054 23.9718L23.6249 22.4583L8.29559 4.95927C7.87562 4.47985 7.14241 4.44259 6.67599 4.87696ZM6.59345 23.6218L12.5384 17.6769C13.1079 17.1074 13.1079 16.184 12.5384 15.6145C11.9688 15.045 11.0455 15.045 10.476 15.6145L4.53105 21.5594C3.96154 22.1289 3.96154 23.0523 4.53105 23.6218C5.10057 24.1913 6.02393 24.1913 6.59345 23.6218ZM18.4144 8.95835L18.7862 7.61986C18.8962 7.22419 19.1642 6.89125 19.5272 6.69935L20.9029 5.97225L22.3959 7.46529L21.2247 8.70194C21.0152 8.92313 20.743 9.07495 20.4448 9.13703L18.9121 9.45604L18.4144 8.95835Z" fill="#E05149"/>
<path fill-rule="evenodd" clip-rule="evenodd" d="M7.73839 5.441C7.59654 5.28283 7.3525 5.27186 7.19702 5.41666L4.83326 7.61805L4.83326 7.94078L5.3265 8.11263L7.05559 6.70931C7.37053 6.45371 7.83162 6.49481 8.09639 6.80209L21.8199 22.729L22.7554 22.9871V22.1854L7.73839 5.441ZM6.17473 4.31896C6.94451 3.60206 8.15276 3.6564 8.85509 4.43951L15.3064 11.6329L17.8447 9.09466C17.9097 9.02966 17.9837 8.97908 18.0626 8.94293C18.0665 8.9005 18.0739 8.85808 18.0852 8.81612L18.4346 7.51403C18.5128 7.22266 18.6772 6.96171 18.9063 6.76542L20.5017 5.39845C20.7992 5.14349 21.2429 5.16057 21.52 5.43765L22.7917 6.70938C23.0688 6.98646 23.0859 7.43014 22.8309 7.7277L21.4639 9.32307C21.2677 9.55216 21.0067 9.71658 20.7153 9.79477L19.4133 10.1442C19.2545 10.1868 19.0893 10.1754 18.9415 10.1166C18.93 10.1298 18.9179 10.1427 18.9054 10.1553L16.3094 12.7513L24.0638 21.3976C24.1872 21.5352 24.2554 21.7135 24.2554 21.8983V23.9719C24.2554 24.206 24.1461 24.4267 23.9598 24.5686C23.7736 24.7104 23.5317 24.7572 23.306 24.6949L21.2012 24.1144C21.0578 24.0749 20.9295 23.9936 20.8324 23.881L13.5876 15.473L13.1411 15.9196C13.5876 16.755 13.4587 17.8172 12.7541 18.5217L7.12366 24.1522C6.26125 25.0146 4.86301 25.0146 4.0006 24.1522C3.1382 23.2898 3.1382 21.8915 4.0006 21.0291L9.63109 15.3987C10.2783 14.7514 11.2273 14.5899 12.0251 14.9142L12.6058 14.3335L7.4354 8.33291L5.94715 9.54077C5.74536 9.70454 5.47317 9.75218 5.22776 9.66667L3.83651 9.18193C3.53519 9.07694 3.33328 8.79279 3.33328 8.4737L3.33325 7.29167C3.33325 7.0835 3.41977 6.88469 3.57211 6.74281L6.17473 4.31896ZM19.8831 7.9038L20.9504 6.98933L21.2401 7.27902L20.3256 8.34629L19.7208 8.50858L19.8831 7.9038ZM10.7646 16.3956C11.0423 16.1846 11.44 16.2059 11.6935 16.4593C11.9701 16.7359 11.9701 17.1844 11.6935 17.461L6.063 23.0915C5.78638 23.3682 5.33788 23.3682 5.06126 23.0915C4.78464 22.8149 4.78464 22.3664 5.06126 22.0898L5.61262 21.5384C5.69466 21.6306 5.77833 21.7142 5.85856 21.7943L5.88634 21.822C6.17923 22.1149 6.6541 22.1149 6.947 21.822C7.23989 21.5291 7.23989 21.0542 6.947 20.7613C6.81493 20.6293 6.73213 20.5433 6.67722 20.4738L7.57818 19.5729C7.63744 19.6358 7.6968 19.6951 7.7544 19.7526L7.78217 19.7803C8.07506 20.0732 8.54994 20.0732 8.84283 19.7803C9.13572 19.4874 9.13572 19.0126 8.84283 18.7197C8.75609 18.6329 8.69061 18.5661 8.64032 18.5107L9.69595 17.4551C9.778 17.5473 9.86166 17.6308 9.9419 17.7109L9.96967 17.7387C10.2626 18.0316 10.7374 18.0316 11.0303 17.7387C11.3232 17.4458 11.3232 16.9709 11.0303 16.678C10.9015 16.5492 10.8196 16.4642 10.7646 16.3956Z" fill="#332A2A"/>
</g>
<defs>
<clipPath id="clip0_662_6667">
<rect width="28" height="28" fill="white"/>
</clipPath>
</defs>
</svg>
