<svg width="23" height="23" viewBox="0 0 23 23" fill="none" xmlns="http://www.w3.org/2000/svg">
<g clip-path="url(#clip0_1228_14500)">
<path d="M14.8206 16.1951L15.8428 17.1509L16.865 15.8366L17.3761 15.1795L17.8872 14.5223" stroke="#252323" stroke-width="1.04643" stroke-linecap="round" stroke-linejoin="round"/>
<path fill-rule="evenodd" clip-rule="evenodd" d="M2.96312 5.13451C2.81513 5.25313 2.729 5.43254 2.729 5.6222L2.72901 6.96048C2.72901 7.26834 2.95319 7.53034 3.25734 7.57796L4.50327 7.77302C4.668 7.79881 4.83621 7.75771 4.97048 7.65886L6.09963 6.82758L10.4671 11.649L10.134 11.9821C9.47656 11.7174 8.69608 11.8515 8.16332 12.3842L3.28 17.2676C2.56811 17.9795 2.5681 19.1337 3.28 19.8456C3.99189 20.5575 5.1461 20.5575 5.85799 19.8456L10.7413 14.9622C11.3213 14.3823 11.4287 13.5088 11.0638 12.82L11.3073 12.5765L12.4807 13.8719C12.2144 14.4319 12.0654 15.0585 12.0654 15.7199C12.0654 18.0995 13.9944 20.0285 16.3739 20.0285C16.9595 20.0285 17.5177 19.9117 18.0267 19.7001L19.0069 20.2389C19.1943 20.3419 19.4214 20.3419 19.6089 20.2389C19.7964 20.1359 19.9181 19.9442 19.9317 19.7307L20.0426 17.9803C20.4483 17.3232 20.6824 16.5489 20.6824 15.7199C20.6824 15.3748 20.4026 15.0949 20.0574 15.0949C19.7123 15.0949 19.4324 15.3748 19.4324 15.7199C19.4324 17.4091 18.0631 18.7785 16.3739 18.7785C14.6847 18.7785 13.3154 17.4091 13.3154 15.7199C13.3154 14.0308 14.6847 12.6614 16.3739 12.6614C17.4371 12.6614 18.3741 13.2034 18.9231 14.0291C19.1142 14.3166 19.5021 14.3947 19.7896 14.2035C20.077 14.0124 20.1551 13.6245 19.964 13.337C19.1931 12.1777 17.8731 11.4114 16.3739 11.4114C15.7733 11.4114 15.2014 11.5343 14.682 11.7563L13.4644 10.4195L15.4659 8.41801C15.5709 8.44661 15.6833 8.4478 15.7921 8.41862L16.8066 8.14637C17.0737 8.07471 17.3128 7.92402 17.4927 7.71407L18.5736 6.45253C18.7861 6.20457 18.7719 5.83483 18.541 5.60393L17.509 4.57195C17.2781 4.34105 16.9084 4.32682 16.6604 4.53928L15.3989 5.62021C15.1889 5.80011 15.0382 6.03926 14.9666 6.30629L14.6943 7.32085C14.6835 7.36123 14.6768 7.40213 14.6742 7.44296C14.6666 7.44984 14.6592 7.45694 14.6518 7.46426L12.6217 9.49434L7.35997 3.71732C6.73637 3.03264 5.68801 2.9505 4.96538 3.5297L2.96312 5.13451ZM13.5991 12.4238L6.43584 4.55903C6.25649 4.36211 5.95497 4.33849 5.74714 4.50507L3.97901 5.92223L3.97901 6.42572L4.43922 6.49777L5.81324 5.48621C6.07148 5.2961 6.4317 5.33226 6.64699 5.56993L13.201 12.8051C13.3254 12.6697 13.4584 12.5423 13.5991 12.4238ZM16.2122 6.56942L17.0343 5.86501L17.2479 6.07863L16.5435 6.90074C16.5275 6.91936 16.5063 6.93272 16.4826 6.93908L16.0606 7.05234L16.1738 6.63027C16.1802 6.60659 16.1936 6.58538 16.2122 6.56942ZM9.0472 13.2681C9.27094 13.0444 9.63369 13.0444 9.85743 13.2681C10.0812 13.4919 10.0812 13.8546 9.85743 14.0784L4.97411 18.9617C4.75037 19.1854 4.38762 19.1854 4.16388 18.9617C3.94014 18.7379 3.94014 18.3752 4.16388 18.1515L9.0472 13.2681Z" fill="#252323"/>
</g>
<defs>
<clipPath id="clip0_1228_14500">
<rect width="23" height="23" fill="white"/>
</clipPath>
</defs>
</svg>
