<svg width="44" height="44" viewBox="0 0 44 44" fill="none" xmlns="http://www.w3.org/2000/svg">
<g clip-path="url(#clip0_662_6651)">
<path fill-rule="evenodd" clip-rule="evenodd" d="M12.3743 7.63658C12.2332 7.47546 11.9868 7.46294 11.83 7.60892L7.50757 11.6344L7.50759 12.6158L7.94751 12.7547L11.6669 9.37777C11.817 9.24153 12.0158 9.17182 12.2181 9.18452C12.4203 9.19721 12.6089 9.29123 12.7407 9.44516L35.675 36.2219L36.6049 36.5182L36.6933 35.3977L12.3743 7.63658ZM10.8077 6.51123C11.5838 5.78846 12.8038 5.85046 13.5026 6.64818L24.3301 19.0082L28.6533 14.685C28.7052 14.6331 28.7629 14.5904 28.8242 14.5569C28.7872 14.428 28.7847 14.2894 28.8207 14.1554L29.2771 12.4546C29.3553 12.1632 29.5197 11.9023 29.7488 11.706L31.807 9.94236C32.1046 9.6874 32.5483 9.70448 32.8253 9.98156L34.4295 11.5857C34.7066 11.8628 34.7237 12.3065 34.4687 12.6041L32.7051 14.6623C32.5088 14.8914 32.2479 15.0558 31.9565 15.134L30.2557 15.5904C30.1161 15.6279 29.9715 15.6236 29.8381 15.5821C29.8052 15.6407 29.7638 15.6958 29.7139 15.7457L25.3207 20.1389L38.0301 34.6472C38.1633 34.7993 38.2295 34.9988 38.2136 35.2004L38.0258 37.5789C38.0078 37.8071 37.8865 38.0146 37.6965 38.1423C37.5065 38.27 37.2686 38.304 37.0504 38.2345L35.0164 37.5864C34.8836 37.544 34.7652 37.4655 34.6745 37.3596L22.4143 23.0454L22.1514 23.3083L20.9523 24.5074L21.1067 24.6617C21.9827 25.5378 21.9827 26.9582 21.1067 27.8342L11.2001 37.7408C10.0123 38.9286 8.08638 38.9286 6.89854 37.7408C5.7107 36.5529 5.7107 34.627 6.89854 33.4392L11.7491 28.5886C11.8009 28.3087 12.0107 28.0707 12.3049 27.9971C12.3201 27.9933 12.3353 27.99 12.3505 27.9872L16.8051 23.5326C17.6523 22.6854 19.0086 22.6575 19.8893 23.449L21.0907 22.2476L21.4356 21.9027L12.1037 11.0073L8.63676 14.155C8.43921 14.3343 8.16123 14.3952 7.90678 14.3149L6.53177 13.8807C6.21975 13.7822 6.00761 13.4927 6.0076 13.1655L6.00757 11.3081C6.00756 11.0999 6.09408 10.9011 6.24642 10.7592L10.8077 6.51123ZM10.3656 32.0935L12.366 30.093C12.5157 30.2729 12.6775 30.4346 12.8404 30.5974L12.8732 30.6301C13.1661 30.923 13.6409 30.923 13.9338 30.6301C14.2267 30.3372 14.2267 29.8623 13.9338 29.5694C13.7007 29.3363 13.5444 29.176 13.4344 29.0247L15.7021 26.757C15.8785 26.9899 16.0774 27.1886 16.2779 27.389L16.3107 27.4217C16.6036 27.7146 17.0784 27.7146 17.3713 27.4217C17.6642 27.1288 17.6642 26.654 17.3713 26.3611C17.0662 26.0559 16.8928 25.8757 16.7823 25.6768L17.8657 24.5933C18.156 24.303 18.6266 24.303 18.9169 24.5933L20.046 25.7224C20.3363 26.0127 20.3363 26.4833 20.046 26.7736L10.1394 36.6801C9.53739 37.2822 8.56126 37.2822 7.9592 36.6801C7.35714 36.078 7.35714 35.1019 7.9592 34.4999L9.28537 33.1737C9.46183 33.4066 9.66067 33.6053 9.8612 33.8056L9.86122 33.8057L9.89394 33.8384C10.1868 34.1313 10.6617 34.1313 10.9546 33.8384C11.2475 33.5455 11.2475 33.0706 10.9546 32.7777C10.6495 32.4726 10.4761 32.2924 10.3656 32.0935ZM30.7255 12.8443L32.2557 11.5332L32.8778 12.1554L31.5667 13.6855L30.417 13.9941L30.7255 12.8443Z" fill="#252323"/>
</g>
<defs>
<clipPath id="clip0_662_6651">
<rect width="44" height="44" fill="white"/>
</clipPath>
</defs>
</svg>
