<svg width="44" height="44" viewBox="0 0 44 44" fill="none" xmlns="http://www.w3.org/2000/svg">
<g clip-path="url(#clip0_1228_14498)">
<path d="M27.7815 31.6041L30.1175 33.7884L32.4535 30.785M34.7895 27.7816L33.6215 29.2833" stroke="#252323" stroke-width="1.5" stroke-linecap="round" stroke-linejoin="round"/>
<path fill-rule="evenodd" clip-rule="evenodd" d="M12.0332 7.78685C11.8921 7.62573 11.6457 7.61321 11.4889 7.75919L7.16651 11.7847L7.16653 12.7661L7.60645 12.905L11.3259 9.52804C11.4759 9.3918 11.6747 9.32209 11.877 9.33478C12.0793 9.34748 12.2678 9.4415 12.3996 9.59543L25.4996 24.8902C25.753 24.6055 26.027 24.3396 26.3191 24.0947L12.0332 7.78685ZM27.5652 23.2407L24.8824 20.1783L29.4054 15.6553C29.4553 15.6054 29.4967 15.5503 29.5296 15.4917C29.6629 15.5332 29.8075 15.5374 29.9471 15.5L31.6479 15.0436C31.9393 14.9654 32.2002 14.801 32.3965 14.5719L34.1601 12.5136C34.4151 12.2161 34.398 11.7724 34.1209 11.4953L32.5167 9.89113C32.2397 9.61405 31.796 9.59697 31.4984 9.85193L29.4402 11.6155C29.2111 11.8118 29.0467 12.0728 28.9685 12.3641L28.5121 14.0649C28.4761 14.199 28.4786 14.3376 28.5156 14.4665C28.4543 14.5 28.3967 14.5428 28.3448 14.5947L23.8919 19.0475L13.1615 6.79845C12.4627 6.00073 11.2427 5.93873 10.4667 6.6615L5.90536 10.9095C5.75302 11.0513 5.6665 11.2502 5.6665 11.4583L5.66654 13.3158C5.66655 13.643 5.87868 13.9325 6.19071 14.031L7.56572 14.4652C7.82017 14.5455 8.09814 14.4846 8.2957 14.3052L11.7626 11.1575L20.9985 21.9408L20.7822 22.1572L19.5807 23.3586C18.7 22.5672 17.3437 22.595 16.4965 23.4423L6.58995 33.3488C5.4021 34.5367 5.4021 36.4625 6.58994 37.6504C7.77779 38.8382 9.70367 38.8382 10.8915 37.6504L20.7981 27.7438C21.6741 26.8678 21.6741 25.4474 20.7981 24.5714L20.6437 24.417L21.8428 23.2179L21.9772 23.0835L24.5926 26.1371C23.9157 27.2923 23.5277 28.6373 23.5277 30.073C23.5277 34.379 27.0184 37.8697 31.3245 37.8697C32.3323 37.8697 33.2955 37.6785 34.1796 37.3304L34.3334 37.5099C34.4241 37.6158 34.5425 37.6943 34.6754 37.7366L36.7094 38.3847C36.9275 38.4542 37.1654 38.4203 37.3554 38.2926C37.5454 38.1649 37.6667 37.9574 37.6847 37.7292L37.8725 35.3507C37.8884 35.1491 37.8223 34.9496 37.689 34.7975L37.6019 34.698C38.5568 33.4041 39.1212 31.8045 39.1212 30.073C39.1212 29.6587 38.7854 29.323 38.3712 29.323C37.957 29.323 37.6212 29.6587 37.6212 30.073C37.6212 33.5506 34.8021 36.3697 31.3245 36.3697C27.8469 36.3697 25.0277 33.5506 25.0277 30.073C25.0277 26.5954 27.8469 23.7762 31.3245 23.7762C33.5139 23.7762 35.4429 24.893 36.5722 26.5916C36.8016 26.9365 37.2671 27.0302 37.612 26.8009C37.9569 26.5716 38.0507 26.106 37.8213 25.7611C36.4258 23.6622 34.0371 22.2762 31.3245 22.2762C29.9614 22.2762 28.68 22.626 27.5652 23.2407ZM36.3113 36.0666C36.1273 36.2199 35.936 36.3649 35.7382 36.501L36.2638 36.6685L36.3113 36.0666ZM31.9471 11.4428L30.4169 12.7539L30.1084 13.9036L31.2581 13.5951L32.5692 12.0649L31.9471 11.4428ZM18.6083 24.5029C18.318 24.2127 17.8474 24.2127 17.5572 24.5029L16.3744 25.6857C16.4794 25.95 16.6553 26.1363 17.0304 26.5114C17.3233 26.8042 17.3233 27.2791 17.0304 27.572C16.7375 27.8649 16.2626 27.8649 15.9697 27.572L15.937 27.5393C15.7026 27.3051 15.4705 27.0732 15.2738 26.7863L13.0114 29.0487C13.1222 29.2424 13.2946 29.4214 13.5929 29.7197C13.8858 30.0126 13.8858 30.4875 13.5929 30.7803C13.3 31.0732 12.8251 31.0732 12.5322 30.7803L12.4995 30.7476C12.3024 30.5507 12.1068 30.3553 11.9326 30.1275L9.95775 32.1023C10.0627 32.3666 10.2387 32.553 10.6137 32.928C10.9066 33.2209 10.9066 33.6958 10.6137 33.9887C10.3208 34.2816 9.84595 34.2816 9.55305 33.9887L9.52033 33.956L9.52032 33.956C9.28594 33.7218 9.05386 33.4899 8.85714 33.2029L7.65061 34.4095C7.04855 35.0115 7.04855 35.9877 7.6506 36.5897C8.25266 37.1918 9.22879 37.1918 9.83085 36.5897L19.7374 26.6832C20.0277 26.3929 20.0277 25.9223 19.7374 25.632L18.6083 24.5029Z" fill="#252323"/>
</g>
<defs>
<clipPath id="clip0_1228_14498">
<rect width="44" height="44" fill="white"/>
</clipPath>
</defs>
</svg>
