<svg width="18" height="18" viewBox="0 0 18 18" fill="none" xmlns="http://www.w3.org/2000/svg">
<g clip-path="url(#clip0_1228_14584)">
<path d="M11.5486 12.6361L12.3819 13.4153L14.0486 11.2725" stroke="#2C6724" stroke-width="1.25" stroke-linecap="round" stroke-linejoin="round"/>
<path fill-rule="evenodd" clip-rule="evenodd" d="M2.625 4.68749L4.00423 3.56568C4.47201 3.18521 5.15613 3.23919 5.55845 3.68831L11.1601 9.94156C10.8513 10.1583 10.587 10.4341 10.3836 10.7525L4.83962 4.50001L3.18752 5.62498L2.62501 5.44736L2.625 4.68749ZM14.0627 14.9019L14.2786 15.1454L15.1107 15.4105L15.1875 14.4375L14.9799 14.2057C14.7254 14.4951 14.4138 14.733 14.0627 14.9019ZM4.23871 15.1855L8.06044 11.3637C8.42656 10.9976 8.42656 10.404 8.06044 10.0379C7.69433 9.67178 7.10073 9.67178 6.73462 10.0379L2.91289 13.8596C2.54677 14.2257 2.54677 14.8193 2.91289 15.1855C3.27901 15.5516 3.8726 15.5516 4.23871 15.1855ZM11.6252 5.81247L12.0329 4.86117C12.1344 4.62439 12.2954 4.41789 12.5003 4.26174L13.5 3.49991L14.5001 4.49994L13.6364 5.36345C13.5458 5.45409 13.4438 5.53268 13.3331 5.59728L12.0002 6.37497L11.6252 5.81247Z" fill="#E05149"/>
<path fill-rule="evenodd" clip-rule="evenodd" d="M15.861 14.1337C16.154 13.6329 16.3219 13.0501 16.3219 12.4281C16.3219 12.152 16.098 11.9281 15.8219 11.9281C15.5457 11.9281 15.3219 12.152 15.3219 12.4281C15.3219 13.744 14.255 14.8109 12.9391 14.8109C11.6231 14.8109 10.5563 13.744 10.5563 12.4281C10.5563 11.1121 11.6231 10.0453 12.9391 10.0453C13.7674 10.0453 14.4977 10.4674 14.9254 11.1107C15.0783 11.3405 15.3879 11.403 15.6178 11.2504C15.8477 11.0975 15.9103 10.787 15.7574 10.557C15.1522 9.64692 14.1161 9.0453 12.9391 9.04528C12.5022 9.04528 12.0847 9.1281 11.7014 9.27888L10.8251 8.30827L12.3486 6.7841C12.3986 6.78072 12.449 6.7725 12.498 6.75675L13.2734 6.50675C13.5107 6.4303 13.7228 6.29039 13.8867 6.10246L14.7695 5.08976L14.8398 4.9921C14.9786 4.7518 14.9432 4.44146 14.7402 4.2382L13.9882 3.48624C13.7849 3.28302 13.4737 3.24673 13.2333 3.38566L13.1357 3.45597L12.123 4.33878C11.9351 4.50265 11.7951 4.71476 11.7187 4.95206L11.4687 5.72843C11.4479 5.79317 11.4387 5.85974 11.4394 5.9257L9.98649 7.3793L6.19797 3.18273C5.54154 2.45575 4.41585 2.407 3.69895 3.07433L2.32395 4.35558C2.22895 4.44414 2.16465 4.55961 2.1384 4.68469L2.12473 4.81359L2.1257 5.57336C2.12586 5.76063 2.20916 5.93611 2.35129 6.05383L2.41574 6.10168L3.29172 6.65344L3.38645 6.70324C3.58174 6.78394 3.80527 6.75974 3.97922 6.63976L4.0632 6.57238L4.93625 5.71496L8.12149 9.2438L7.92181 9.44328C7.27598 9.14647 6.48703 9.26296 5.95501 9.79484L2.39642 13.3534C1.71381 14.0364 1.71456 15.1432 2.39739 15.8261C3.08027 16.5087 4.18713 16.5096 4.87005 15.8271L8.42864 12.2685C8.95065 11.7463 9.07109 10.9768 8.79486 10.3378L8.96012 10.1729L9.81737 11.1226C9.64918 11.5243 9.55627 11.9654 9.55627 12.4281C9.55629 14.2963 11.0708 15.8109 12.9391 15.8109C13.2797 15.8109 13.6086 15.7605 13.9187 15.6669L13.9392 15.6896C14.0133 15.7716 14.1083 15.8328 14.2136 15.8663L15.0456 16.132C15.2356 16.1925 15.4432 16.1578 15.6042 16.0402C15.765 15.9226 15.8599 15.7354 15.8601 15.5362L15.861 14.1337ZM10.5332 10.05C10.5646 10.0183 10.5966 9.98715 10.6292 9.95667L5.27023 4.02062C5.08157 3.81168 4.75769 3.79786 4.55148 3.98937L3.37375 5.08508V5.22765L3.54074 5.33312L4.52707 4.36633C4.64861 4.24738 4.81411 4.1824 4.9841 4.18762C5.15391 4.19298 5.31454 4.2676 5.42844 4.39367L10.5332 10.05ZM7.54486 10.6786C7.35009 10.4839 7.03364 10.484 6.8388 10.6786L3.28021 14.2372C3.08574 14.4321 3.08649 14.7476 3.28118 14.9423C3.4759 15.1367 3.7915 15.1377 3.98626 14.9433L7.54486 11.3847C7.73942 11.1899 7.73937 10.8734 7.54486 10.6786Z" fill="#332A2A"/>
</g>
<defs>
<clipPath id="clip0_1228_14584">
<rect width="18" height="18" fill="white"/>
</clipPath>
</defs>
</svg>
