<svg width="28" height="28" viewBox="0 0 28 28" fill="none" xmlns="http://www.w3.org/2000/svg">
<g clip-path="url(#clip0_1228_14582)">
<path d="M17.6792 20.1117L19.1657 21.5017L20.4053 19.9076M22.1388 17.6792L21.3955 18.6348" stroke="#2C6724" stroke-width="1.25" stroke-linecap="round" stroke-linejoin="round"/>
<path fill-rule="evenodd" clip-rule="evenodd" d="M4.08325 7.2916L6.67599 4.87696C7.14241 4.44259 7.87562 4.47985 8.29559 4.95927L17.4465 15.4054C16.9741 15.7209 16.565 16.1236 16.2423 16.5906L7.52821 6.4166L4.95828 8.74993L4.08328 8.47363L4.08325 7.2916ZM21.8833 23.1767L22.2111 23.5594L23.5054 23.9718L23.6249 22.4583L23.3055 22.0937C22.9109 22.5434 22.4278 22.9135 21.8833 23.1767ZM6.59347 23.6218L12.5384 17.6769C13.1079 17.1073 13.1079 16.184 12.5384 15.6145C11.9689 15.045 11.0455 15.045 10.476 15.6145L4.53108 21.5594C3.96156 22.1289 3.96156 23.0523 4.53108 23.6218C5.10059 24.1913 6.02396 24.1913 6.59347 23.6218ZM18.0834 9.04168L18.7505 7.48525C18.8851 7.17126 19.1233 6.91291 19.4253 6.75328L20.903 5.97226L22.3961 6.96764L21.603 8.66677C21.4068 9.08701 21.0265 9.39226 20.5738 9.49287L18.6668 9.91667L18.0834 9.04168Z" fill="#E05149"/>
<path fill-rule="evenodd" clip-rule="evenodd" d="M7.73839 5.441C7.59654 5.28283 7.3525 5.27186 7.19702 5.41666L4.83326 7.61805L4.83326 7.94078L5.3265 8.11263L7.05559 6.70931C7.37053 6.45371 7.83162 6.49481 8.09639 6.80209L15.8758 15.8306C16.0618 15.6026 16.2666 15.3906 16.4879 15.197L7.73839 5.441ZM17.7635 14.3727L16.3094 12.7513L18.9054 10.1553C18.918 10.1428 18.93 10.1299 18.9415 10.1167C19.0893 10.1755 19.2546 10.1869 19.4134 10.1443L20.7155 9.79485C21.0068 9.71666 21.2678 9.55224 21.4641 9.32315L22.8311 7.72778C23.086 7.43022 23.0689 6.98654 22.7919 6.70946L21.5201 5.43773C21.243 5.16065 20.7994 5.14357 20.5018 5.39853L18.9064 6.7655C18.6774 6.96179 18.5129 7.22274 18.4347 7.51411L18.0853 8.8162C18.0741 8.85812 18.0666 8.9005 18.0627 8.9429C17.9838 8.97905 17.9098 9.02964 17.8447 9.09467L15.3064 11.6329L8.85509 4.43951C8.15276 3.6564 6.94451 3.60206 6.17473 4.31896L3.57211 6.74281C3.41977 6.88469 3.33325 7.0835 3.33325 7.29167L3.33328 8.4737C3.33328 8.79279 3.53519 9.07694 3.83651 9.18193L5.22776 9.66667C5.47317 9.75218 5.74536 9.70454 5.94715 9.54077L7.4354 8.33291L12.6058 14.3335L12.0252 14.9142C11.2273 14.59 10.2783 14.7514 9.63111 15.3987L4.00063 21.0292C3.13822 21.8916 3.13822 23.2898 4.00063 24.1522C4.86304 25.0146 6.26128 25.0146 7.12369 24.1522L12.7542 18.5217C13.4587 17.8172 13.5877 16.755 13.1411 15.9196L13.5877 15.473L15.0714 17.195C14.8313 17.7956 14.6992 18.451 14.6992 19.1374C14.6992 22.0282 17.0427 24.3717 19.9335 24.3717C20.4388 24.3717 20.9275 24.3 21.3897 24.1664L23.306 24.6949C23.5317 24.7572 23.7736 24.7104 23.9598 24.5686C24.1461 24.4267 24.2554 24.206 24.2554 23.9719V22.091C24.8311 21.2503 25.1678 20.2332 25.1678 19.1374C25.1678 18.7231 24.832 18.3874 24.4178 18.3874C24.0036 18.3874 23.6678 18.7231 23.6678 19.1374C23.6678 21.1998 21.9959 22.8717 19.9335 22.8717C17.8711 22.8717 16.1992 21.1998 16.1992 19.1374C16.1992 17.075 17.8711 15.4031 19.9335 15.4031C21.2317 15.4031 22.3756 16.0648 23.0459 17.0729C23.2752 17.4179 23.7408 17.5116 24.0857 17.2822C24.4306 17.0529 24.5243 16.5874 24.295 16.2424C23.3585 14.834 21.7549 13.9031 19.9335 13.9031C19.1594 13.9031 18.4246 14.0711 17.7635 14.3727ZM20.9505 6.98941L19.8832 7.90388L19.7209 8.50866L20.3257 8.34637L21.2402 7.2791L20.9505 6.98941ZM11.6935 16.4593C11.4401 16.2059 11.0423 16.1846 10.7647 16.3957C10.8196 16.4642 10.9015 16.5492 11.0304 16.678C11.3232 16.9709 11.3232 17.4458 11.0304 17.7387C10.7375 18.0316 10.2626 18.0316 9.9697 17.7387L9.94192 17.7109L9.94192 17.7109C9.86168 17.6308 9.77802 17.5473 9.69598 17.4551L8.64035 18.5108C8.69064 18.5661 8.75612 18.633 8.84286 18.7197C9.13575 19.0126 9.13575 19.4875 8.84286 19.7803C8.54996 20.0732 8.07509 20.0732 7.7822 19.7803L7.75442 19.7526C7.69683 19.6951 7.63747 19.6359 7.57821 19.5729L6.67725 20.4739C6.73216 20.5433 6.81496 20.6293 6.94702 20.7614C7.23992 21.0542 7.23992 21.5291 6.94702 21.822C6.65413 22.1149 6.17926 22.1149 5.88636 21.822L5.85859 21.7943C5.77835 21.7142 5.69469 21.6307 5.61265 21.5385L5.06129 22.0898C4.78467 22.3664 4.78467 22.8149 5.06129 23.0915C5.33791 23.3682 5.7864 23.3682 6.06303 23.0915L11.6935 17.4611C11.9701 17.1844 11.9701 16.7359 11.6935 16.4593Z" fill="#252323"/>
</g>
<defs>
<clipPath id="clip0_1228_14582">
<rect width="28" height="28" fill="white"/>
</clipPath>
</defs>
</svg>
