<svg width="28" height="28" viewBox="0 0 28 28" fill="none" xmlns="http://www.w3.org/2000/svg">
<g clip-path="url(#clip0_1228_14417)">
<path fill-rule="evenodd" clip-rule="evenodd" d="M4.08325 7.2916L6.67599 4.87696C7.14241 4.44259 7.87561 4.47985 8.29559 4.95927L17.4465 15.4054C16.929 15.751 16.4875 16.2013 16.1522 16.7262L7.52822 7L4.95828 8.74993L4.08327 8.47363L4.08325 7.2916ZM21.8752 23.1806L22.2111 23.5594L23.5054 23.9718L23.6249 22.4583L23.3055 22.0937C22.909 22.5456 22.423 22.9172 21.8752 23.1806ZM6.59347 23.6218L12.5384 17.6769C13.1079 17.1073 13.1079 16.184 12.5384 15.6145C11.9689 15.045 11.0455 15.045 10.476 15.6145L4.53108 21.5594C3.96156 22.1289 3.96156 23.0523 4.53108 23.6218C5.10059 24.1913 6.02396 24.1913 6.59347 23.6218ZM18.0834 9.04168L18.8081 7.35097C18.9068 7.12068 19.0618 6.91893 19.259 6.7643L20.9032 5.47454L22.3961 7.4653L20.9031 8.4607L18.6668 9.91667L18.0834 9.04168Z" fill="#E05149"/>
<path fill-rule="evenodd" clip-rule="evenodd" d="M7.19702 5.41666C7.3525 5.27186 7.59654 5.28283 7.73839 5.441L16.4879 15.197C16.2666 15.3906 16.0618 15.6026 15.8758 15.8306L8.09639 6.80209C7.83162 6.49481 7.37053 6.45371 7.05559 6.70931L5.3265 8.11263L4.83326 7.94078L4.83326 7.61805L7.19702 5.41666ZM15.0714 17.195L13.5877 15.473L13.1411 15.9196C13.5877 16.755 13.4587 17.8172 12.7542 18.5217L7.12369 24.1522C6.26128 25.0146 4.86304 25.0146 4.00063 24.1522C3.13822 23.2898 3.13822 21.8916 4.00063 21.0292L9.63111 15.3987C10.2783 14.7514 11.2273 14.59 12.0252 14.9142L12.6058 14.3335L7.4354 8.33291L5.94715 9.54077C5.74536 9.70454 5.47317 9.75218 5.22776 9.66667L3.83651 9.18193C3.53519 9.07694 3.33328 8.79279 3.33328 8.4737L3.33325 7.29167C3.33325 7.0835 3.41977 6.88469 3.57211 6.74281L6.17473 4.31896C6.94451 3.60206 8.15276 3.6564 8.85509 4.43951L15.3064 11.6329L17.8447 9.09467C17.9145 9.02494 17.9945 8.97182 18.0799 8.93529C18.0516 8.8161 18.0524 8.68979 18.0852 8.56737L18.4346 7.26528C18.5128 6.97391 18.6772 6.71297 18.9063 6.51668L20.5017 5.14971C20.7992 4.89475 21.2429 4.91182 21.52 5.18891L22.7917 6.46063C23.0688 6.73772 23.0859 7.1814 22.8309 7.47896L21.464 9.07433C21.2677 9.30341 21.0067 9.46783 20.7153 9.54602L19.4133 9.89543C19.2994 9.92598 19.1822 9.92879 19.0705 9.90624C19.0339 9.9969 18.9789 10.0818 18.9054 10.1553L16.3094 12.7513L17.7635 14.3727C18.4246 14.0711 19.1594 13.9031 19.9335 13.9031C21.7549 13.9031 23.3585 14.834 24.295 16.2424C24.5243 16.5874 24.4306 17.0529 24.0857 17.2822C23.7408 17.5116 23.2752 17.4179 23.0459 17.0729C22.3756 16.0648 21.2317 15.4031 19.9335 15.4031C17.8711 15.4031 16.1992 17.075 16.1992 19.1374C16.1992 21.1998 17.8711 22.8717 19.9335 22.8717C21.9959 22.8717 23.6678 21.1998 23.6678 19.1374C23.6678 18.7231 24.0036 18.3874 24.4178 18.3874C24.832 18.3874 25.1678 18.7231 25.1678 19.1374C25.1678 20.2332 24.8311 21.2503 24.2554 22.091V23.9719C24.2554 24.206 24.1461 24.4267 23.9598 24.5686C23.7736 24.7104 23.5317 24.7572 23.306 24.6949L21.3897 24.1664C20.9275 24.3 20.4388 24.3717 19.9335 24.3717C17.0427 24.3717 14.6992 22.0282 14.6992 19.1374C14.6992 18.451 14.8313 17.7956 15.0714 17.195ZM19.8831 7.65506L20.9504 6.74058L21.2401 7.03028L20.3256 8.09755L19.7208 8.25983L19.8831 7.65506ZM11.0304 16.678C10.9015 16.5492 10.8196 16.4642 10.7647 16.3957C11.0423 16.1846 11.4401 16.2059 11.6935 16.4593C11.9701 16.7359 11.9701 17.1844 11.6935 17.4611L6.06303 23.0915C5.7864 23.3682 5.33791 23.3682 5.06129 23.0915C4.78467 22.8149 4.78467 22.3664 5.06129 22.0898L5.61265 21.5385C5.69469 21.6307 5.77835 21.7142 5.85859 21.7943L5.88636 21.822C6.17926 22.1149 6.65413 22.1149 6.94702 21.822C7.23992 21.5291 7.23992 21.0542 6.94702 20.7614C6.81496 20.6293 6.73216 20.5433 6.67725 20.4739L7.57821 19.5729C7.63747 19.6359 7.69683 19.6951 7.75442 19.7526L7.7822 19.7803C8.07509 20.0732 8.54996 20.0732 8.84286 19.7803C9.13575 19.4875 9.13575 19.0126 8.84286 18.7197C8.75612 18.633 8.69064 18.5661 8.64034 18.5108L9.69598 17.4551C9.77802 17.5473 9.86169 17.6308 9.94192 17.7109L9.9697 17.7387C10.2626 18.0316 10.7375 18.0316 11.0304 17.7387C11.3232 17.4458 11.3232 16.9709 11.0304 16.678ZM22.6322 18.0629C22.8441 17.7904 22.795 17.3978 22.5225 17.1859C22.2501 16.9739 21.8574 17.023 21.6455 17.2955L20.9022 18.2511C20.6903 18.5236 20.7394 18.9163 21.0118 19.1282C21.2843 19.3401 21.677 19.291 21.8889 19.0185L22.6322 18.0629ZM20.8987 20.2912C21.1106 20.0187 21.0615 19.6261 20.789 19.4142C20.5165 19.2023 20.1238 19.2514 19.9119 19.5239L19.0926 20.5776L18.1061 19.6552C17.8539 19.4194 17.4584 19.4327 17.2227 19.6848C16.9869 19.937 17.0002 20.3325 17.2523 20.5682L18.7389 21.9582C18.8672 22.0782 19.04 22.1386 19.2151 22.1248C19.3902 22.1109 19.5513 22.024 19.6591 21.8854L20.8987 20.2912Z" fill="#332A2A"/>
</g>
<defs>
<clipPath id="clip0_1228_14417">
<rect width="28" height="28" fill="white"/>
</clipPath>
</defs>
</svg>
