<svg width="23" height="23" viewBox="0 0 23 23" fill="none" xmlns="http://www.w3.org/2000/svg">
<g clip-path="url(#clip0_1228_14418)">
<path fill-rule="evenodd" clip-rule="evenodd" d="M3.354 5.98956L5.33157 4.14784C5.79799 3.71346 6.5312 3.75072 6.95117 4.23014L14.331 12.6545C13.9114 12.9346 13.5527 13.2986 13.2786 13.7225L6.13329 5.62218L4.07278 7.18747L3.35402 6.96052L3.354 5.98956ZM17.9698 19.0408L18.2447 19.3524L19.3079 19.6912L19.4061 18.4479L19.1437 18.1484C18.8182 18.5194 18.4194 18.8244 17.9698 19.0408ZM5.41597 19.4036L10.2993 14.5203C10.7671 14.0525 10.7671 13.294 10.2993 12.8262C9.83148 12.3584 9.073 12.3584 8.60518 12.8262L3.72186 17.7095C3.25405 18.1773 3.25405 18.9358 3.72186 19.4036C4.18968 19.8714 4.94816 19.8714 5.41597 19.4036ZM14.8542 7.42703L15.356 6.25644C15.4961 5.92954 15.7483 5.66338 16.0671 5.50586L16.8665 5.11099L18.3999 6.13322L17.7048 7.17575C17.4945 7.49115 17.1722 7.71478 16.8031 7.80129L15.3334 8.14578L14.8542 7.42703Z" fill="#E05149"/>
<path fill-rule="evenodd" clip-rule="evenodd" d="M18.0237 19.7554C17.5148 19.9637 16.9578 20.0785 16.3739 20.0785C13.9668 20.0785 12.0155 18.1272 12.0155 15.7201C12.0155 15.063 12.1609 14.4399 12.4213 13.8812L11.3048 12.6489L11.1232 12.8302C11.4779 13.5328 11.3633 14.4115 10.7766 14.9982L5.89375 19.881C5.16245 20.6122 3.97673 20.612 3.24532 19.881C2.5139 19.1496 2.5139 17.963 3.24532 17.2316L8.12813 12.3498C8.66692 11.811 9.45158 11.67 10.1203 11.925L10.3978 11.6477L6.09224 6.89514L4.99946 7.69885C4.85458 7.80541 4.67326 7.84963 4.49556 7.8219L3.24849 7.62756L3.13032 7.59729C2.86427 7.50403 2.67928 7.25119 2.67915 6.96057V5.6217C2.67932 5.41711 2.77244 5.22332 2.93208 5.09533L4.93403 3.49084C5.67714 2.89542 6.75557 2.97941 7.39692 3.68322L12.6235 9.42175L14.6164 7.42888C14.6181 7.42721 14.6199 7.42567 14.6216 7.42413L14.6262 7.42009C14.6297 7.38257 14.6358 7.34488 14.6457 7.30778L14.9182 6.29313C14.9925 6.01656 15.1489 5.76854 15.3664 5.5822L16.6281 4.50114C16.8959 4.27203 17.2949 4.28803 17.5441 4.53728L18.5754 5.56853C18.8248 5.8179 18.841 6.21771 18.6115 6.48552L17.5305 7.74626C17.3441 7.96379 17.0962 8.1202 16.8195 8.1945L15.8049 8.46696L15.7209 8.15251L15.7199 8.15349L15.8049 8.46696C15.697 8.49588 15.5859 8.49567 15.4807 8.47185L13.533 10.4203L14.6955 11.6966C15.2121 11.4808 15.7791 11.3617 16.3739 11.3617C17.8905 11.3617 19.226 12.1364 20.0057 13.309C20.2122 13.6194 20.1277 14.0391 19.8173 14.2455C19.5069 14.4518 19.0882 14.3672 18.8817 14.057C18.3416 13.2447 17.4197 12.7113 16.3739 12.7113C14.7123 12.7113 13.3651 14.0585 13.3651 15.7201C13.3652 17.3816 14.7124 18.7289 16.3739 18.7289C18.0354 18.7288 19.3827 17.3816 19.3827 15.7201C19.3827 15.3473 19.6847 15.0453 20.0575 15.0453C20.4302 15.0453 20.7323 15.3473 20.7323 15.7201C20.7323 16.5546 20.4978 17.3343 20.091 17.9969L19.9819 19.734C19.9671 19.9644 19.8346 20.1717 19.6323 20.2828C19.43 20.3938 19.1851 20.3939 18.9829 20.2828L18.0237 19.7554ZM13.5274 12.4195L6.39888 4.5924C6.23727 4.41516 5.96496 4.39453 5.77778 4.54455L4.02876 5.94592L4.02778 6.38342L4.42524 6.44592L5.78364 5.44592L5.89204 5.38049C6.15646 5.25373 6.48046 5.31134 6.68403 5.53576L13.2015 12.7315C13.3046 12.622 13.4134 12.5179 13.5274 12.4195ZM18.302 13.9892C18.0077 13.7603 17.5836 13.8141 17.3547 14.1084L16.843 14.7656L16.3322 15.4218L15.7629 16.1523L15.2814 15.7021C15.0091 15.4475 14.5819 15.462 14.3273 15.7343C14.0729 16.0066 14.0873 16.4339 14.3596 16.6884L15.382 17.6445C15.5205 17.7737 15.7069 17.839 15.8957 17.8242C16.0847 17.8092 16.2588 17.715 16.3752 17.5654L17.3977 16.2509L17.9084 15.5937L18.4201 14.9365C18.6487 14.6422 18.5961 14.218 18.302 13.9892ZM16.3752 17.5654L15.843 17.1513V17.1503L16.3752 17.5654ZM9.82246 13.3039C9.61825 13.0997 9.28644 13.0997 9.08223 13.3039L4.19942 18.1867C3.99532 18.3909 3.99524 18.7228 4.19942 18.9269C4.40362 19.1307 4.73458 19.1299 4.93868 18.9259L9.82149 14.0431C10.0256 13.839 10.0263 13.5081 9.82246 13.3039ZM16.2443 6.60661C16.2334 6.61601 16.2256 6.62977 16.2219 6.64372L16.1311 6.98161L16.4689 6.89079C16.4829 6.88705 16.4967 6.8793 16.5061 6.86833L17.1799 6.08122L17.0314 5.93278L16.2443 6.60661Z" fill="#332A2A"/>
</g>
<defs>
<clipPath id="clip0_1228_14418">
<rect width="23" height="23" fill="white"/>
</clipPath>
</defs>
</svg>
