<svg width="44" height="44" viewBox="0 0 44 44" fill="none" xmlns="http://www.w3.org/2000/svg">
<g clip-path="url(#clip0_662_7973)">
<path fill-rule="evenodd" clip-rule="evenodd" d="M5.66675 7.41675C5.66675 6.45025 6.45025 5.66675 7.41675 5.66675H21.0001C21.9666 5.66675 22.7501 6.45025 22.7501 7.41675V36.5834C22.7501 37.5499 21.9666 38.3334 21.0001 38.3334H7.41675C6.45025 38.3334 5.66675 37.5499 5.66675 36.5834V29.7917C5.66675 29.3775 6.00253 29.0417 6.41675 29.0417C6.83096 29.0417 7.16675 29.3775 7.16675 29.7917V36.5834C7.16675 36.7215 7.27868 36.8334 7.41675 36.8334H21.0001C21.1382 36.8334 21.2501 36.7215 21.2501 36.5834V7.41675C21.2501 7.27868 21.1382 7.16675 21.0001 7.16675H7.41675C7.27868 7.16675 7.16675 7.27868 7.16675 7.41675V22.0001V25.8959C7.16675 26.3101 6.83096 26.6459 6.41675 26.6459C6.00253 26.6459 5.66675 26.3101 5.66675 25.8959V22.0001V7.41675ZM24.9167 7.41675C24.9167 6.45025 25.7003 5.66675 26.6667 5.66675H36.5834C37.5499 5.66675 38.3334 6.45025 38.3334 7.41675V16.0417C38.3334 16.456 37.9976 16.7917 37.5834 16.7917C37.1692 16.7917 36.8334 16.456 36.8334 16.0417V7.41675C36.8334 7.27868 36.7215 7.16675 36.5834 7.16675H26.6667C26.5287 7.16675 26.4167 7.27868 26.4167 7.41675V24.6667C26.4167 24.8048 26.5287 24.9167 26.6667 24.9167H36.5834C36.7215 24.9167 36.8334 24.8048 36.8334 24.6667V20.8542C36.8334 20.44 37.1692 20.1042 37.5834 20.1042C37.9976 20.1042 38.3334 20.44 38.3334 20.8542V24.6667C38.3334 25.6332 37.5499 26.4167 36.5834 26.4167H26.6667C25.7003 26.4167 24.9167 25.6332 24.9167 24.6667V7.41675ZM26.6667 28.5834C25.7003 28.5834 24.9167 29.3669 24.9167 30.3334V33.4584V36.5834C24.9167 37.5499 25.7003 38.3334 26.6667 38.3334H31.6251C32.0393 38.3334 32.3751 37.9976 32.3751 37.5834C32.3751 37.1692 32.0393 36.8334 31.6251 36.8334H26.6667C26.5287 36.8334 26.4167 36.7215 26.4167 36.5834V33.4584V30.3334C26.4167 30.1953 26.5287 30.0834 26.6667 30.0834H36.5834C36.7215 30.0834 36.8334 30.1953 36.8334 30.3334V36.5834C36.8334 36.7215 36.7215 36.8334 36.5834 36.8334H34.6042C34.19 36.8334 33.8542 37.1692 33.8542 37.5834C33.8542 37.9976 34.19 38.3334 34.6042 38.3334H36.5834C37.5499 38.3334 38.3334 37.5499 38.3334 36.5834V30.3334C38.3334 29.3669 37.5499 28.5834 36.5834 28.5834H26.6667Z" fill="#252323"/>
</g>
<defs>
<clipPath id="clip0_662_7973">
<rect width="44" height="44" fill="white"/>
</clipPath>
</defs>
</svg>
