<svg width="44" height="44" viewBox="0 0 44 44" fill="none" xmlns="http://www.w3.org/2000/svg">
<g clip-path="url(#clip0_213_629)">
<path d="M20.9998 6.41675C21.552 6.41675 21.9998 6.86446 21.9998 7.41675V36.5837C21.9996 37.1359 21.5519 37.5837 20.9998 37.5837H7.41675C6.86457 37.5837 6.41692 37.1359 6.41675 36.5837V7.41675C6.41675 6.86446 6.86446 6.41675 7.41675 6.41675H20.9998ZM36.5837 29.3337C37.1359 29.3339 37.5837 29.7816 37.5837 30.3337V36.5837C37.5836 37.1358 37.1358 37.5836 36.5837 37.5837H26.6667C26.1146 37.5837 25.6669 37.1359 25.6667 36.5837V30.3337C25.6667 29.7815 26.1145 29.3337 26.6667 29.3337H36.5837ZM36.5837 6.41675C37.1359 6.41692 37.5837 6.86457 37.5837 7.41675V24.6667C37.5837 25.2189 37.1359 25.6666 36.5837 25.6667H26.6667C26.1145 25.6667 25.6667 25.219 25.6667 24.6667V7.41675C25.6667 6.86446 26.1145 6.41675 26.6667 6.41675H36.5837Z" fill="#E05149"/>
<path d="M20.9998 5.66675C21.9663 5.66675 22.7498 6.45025 22.7498 7.41675V36.5837C22.7496 37.5501 21.9661 38.3337 20.9998 38.3337H7.41675C6.45036 38.3337 5.66692 37.5501 5.66675 36.5837V29.7917C5.66675 29.3775 6.00253 29.0417 6.41675 29.0417C6.83096 29.0417 7.16675 29.3775 7.16675 29.7917V36.5837C7.16692 36.7217 7.27879 36.8337 7.41675 36.8337H20.9998C21.1377 36.8337 21.2496 36.7217 21.2498 36.5837V7.41675C21.2498 7.27868 21.1378 7.16675 20.9998 7.16675H7.41675C7.27868 7.16675 7.16675 7.27868 7.16675 7.41675V25.8962C7.16657 26.3103 6.83085 26.6462 6.41675 26.6462C6.00264 26.6462 5.66692 26.3103 5.66675 25.8962V7.41675C5.66675 6.45025 6.45025 5.66675 7.41675 5.66675H20.9998ZM36.5837 28.5837C37.5501 28.5839 38.3337 29.3674 38.3337 30.3337V36.5837C38.3336 37.55 37.55 38.3336 36.5837 38.3337H34.6042C34.1901 38.3337 33.8544 37.9978 33.8542 37.5837C33.8542 37.1695 34.19 36.8337 34.6042 36.8337H36.5837C36.7216 36.8336 36.8336 36.7216 36.8337 36.5837V30.3337C36.8337 30.1958 36.7217 30.0839 36.5837 30.0837H26.6667C26.5287 30.0837 26.4167 30.1957 26.4167 30.3337V36.5837C26.4169 36.7217 26.5288 36.8337 26.6667 36.8337H31.6248C32.039 36.8337 32.3748 37.1695 32.3748 37.5837C32.3746 37.9978 32.0389 38.3337 31.6248 38.3337H26.6667C25.7004 38.3337 24.9169 37.5501 24.9167 36.5837V30.3337C24.9167 29.3672 25.7003 28.5837 26.6667 28.5837H36.5837ZM36.5837 5.66675C37.5501 5.66692 38.3337 6.45036 38.3337 7.41675V16.0417C38.3337 16.4559 37.9978 16.7916 37.5837 16.7917C37.1695 16.7917 36.8337 16.456 36.8337 16.0417V7.41675C36.8337 7.27879 36.7217 7.16692 36.5837 7.16675H26.6667C26.5287 7.16675 26.4167 7.27868 26.4167 7.41675V24.6667C26.4167 24.8048 26.5287 24.9167 26.6667 24.9167H36.5837C36.7217 24.9166 36.8337 24.8047 36.8337 24.6667V20.8542C36.8337 20.44 37.1695 20.1042 37.5837 20.1042C37.9978 20.1044 38.3337 20.4401 38.3337 20.8542V24.6667C38.3337 25.6331 37.5501 26.4166 36.5837 26.4167H26.6667C25.7003 26.4167 24.9167 25.6332 24.9167 24.6667V7.41675C24.9167 6.45025 25.7003 5.66675 26.6667 5.66675H36.5837Z" fill="#332A2A"/>
</g>
<defs>
<clipPath id="clip0_213_629">
<rect width="44" height="44" fill="white"/>
</clipPath>
</defs>
</svg>
