<svg width="18" height="18" viewBox="0 0 18 18" fill="none" xmlns="http://www.w3.org/2000/svg">
<g clip-path="url(#clip0_662_7976)">
<path d="M8.125 2.125C9.02246 2.125 9.75 2.85254 9.75 3.75V14.5C9.75 15.3975 9.02246 16.125 8.125 16.125H3.75C2.85254 16.125 2.125 15.3975 2.125 14.5V12.3125C2.125 11.9673 2.40482 11.6875 2.75 11.6875C3.09518 11.6875 3.375 11.9673 3.375 12.3125V14.5C3.375 14.7071 3.54289 14.875 3.75 14.875H8.125C8.33211 14.875 8.5 14.7071 8.5 14.5V3.75C8.5 3.54289 8.33211 3.375 8.125 3.375H3.75C3.54289 3.375 3.375 3.54289 3.375 3.75V10.7188C3.375 11.0639 3.09518 11.3438 2.75 11.3438C2.40482 11.3438 2.125 11.0639 2.125 10.7188V3.75C2.125 2.85254 2.85254 2.125 3.75 2.125H8.125ZM14.5 11.5C15.3975 11.5 16.125 12.2275 16.125 13.125V14.5C16.125 15.3975 15.3975 16.125 14.5 16.125H14.2812C13.9361 16.125 13.6562 15.8452 13.6562 15.5C13.6562 15.1548 13.9361 14.875 14.2812 14.875H14.5C14.7071 14.875 14.875 14.7071 14.875 14.5V13.125C14.875 12.9179 14.7071 12.75 14.5 12.75H11.625C11.4179 12.75 11.25 12.9179 11.25 13.125V14.5C11.25 14.7071 11.4179 14.875 11.625 14.875H12.625C12.9702 14.875 13.25 15.1548 13.25 15.5C13.25 15.8452 12.9702 16.125 12.625 16.125H11.625C10.7275 16.125 10 15.3975 10 14.5V13.125C10 12.2275 10.7275 11.5 11.625 11.5H14.5ZM14.5 2.125C15.3975 2.125 16.125 2.85254 16.125 3.75V6.6875C16.125 7.03268 15.8452 7.3125 15.5 7.3125C15.1548 7.3125 14.875 7.03268 14.875 6.6875V3.75C14.875 3.54289 14.7071 3.375 14.5 3.375H11.625C11.4179 3.375 11.25 3.54289 11.25 3.75V9.625C11.25 9.83211 11.4179 10 11.625 10H14.5C14.7071 10 14.875 9.83211 14.875 9.625V8.65625C14.875 8.31107 15.1548 8.03125 15.5 8.03125C15.8452 8.03125 16.125 8.31107 16.125 8.65625V9.625C16.125 10.5225 15.3975 11.25 14.5 11.25H11.625C10.7275 11.25 10 10.5225 10 9.625V3.75C10 2.85254 10.7275 2.125 11.625 2.125H14.5Z" fill="#332A2A"/>
</g>
<defs>
<clipPath id="clip0_662_7976">
<rect width="18" height="18" fill="white"/>
</clipPath>
</defs>
</svg>
