<svg width="23" height="23" viewBox="0 0 23 23" fill="none" xmlns="http://www.w3.org/2000/svg">
<g clip-path="url(#clip0_662_7975)">
<path fill-rule="evenodd" clip-rule="evenodd" d="M3.15845 3.81123C3.15845 2.88615 3.90837 2.13623 4.83345 2.13623H10.9793C11.9044 2.13623 12.6543 2.88615 12.6543 3.81123V18.1029C12.6543 19.028 11.9044 19.7779 10.9793 19.7779H4.83345C3.90837 19.7779 3.15845 19.028 3.15845 18.1029V15.03C3.15845 14.6572 3.46066 14.355 3.83345 14.355C4.20624 14.355 4.50845 14.6572 4.50845 15.03V18.1029C4.50845 18.2824 4.65395 18.4279 4.83345 18.4279H10.9793C11.1588 18.4279 11.3043 18.2824 11.3043 18.1029V3.81123C11.3043 3.63174 11.1588 3.48623 10.9793 3.48623H4.83345C4.65395 3.48623 4.50845 3.63174 4.50845 3.81123V10.9571V12.9935C4.50845 13.3663 4.20624 13.6685 3.83345 13.6685C3.46066 13.6685 3.15845 13.3663 3.15845 12.9935V10.9571V3.81123ZM13.2209 3.81123C13.2209 2.88615 13.9709 2.13623 14.8959 2.13623H19.1251C20.0502 2.13623 20.8001 2.88615 20.8001 3.81123V7.84248C20.8001 8.21527 20.4979 8.51748 20.1251 8.51748C19.7523 8.51748 19.4501 8.21527 19.4501 7.84248V3.81123C19.4501 3.63174 19.3046 3.48623 19.1251 3.48623H14.8959C14.7165 3.48623 14.5709 3.63174 14.5709 3.81123V11.8737C14.5709 12.0532 14.7165 12.1987 14.8959 12.1987H19.1251C19.3046 12.1987 19.4501 12.0532 19.4501 11.8737V10.3581C19.4501 9.98531 19.7523 9.68311 20.1251 9.68311C20.4979 9.68311 20.8001 9.98531 20.8001 10.3581V11.8737C20.8001 12.7988 20.0502 13.5487 19.1251 13.5487H14.8959C13.9709 13.5487 13.2209 12.7988 13.2209 11.8737V3.81123ZM14.8959 14.1154C13.9709 14.1154 13.2209 14.8653 13.2209 15.7904V16.9466V18.1029C13.2209 19.028 13.9709 19.7779 14.8959 19.7779H16.3557C16.7285 19.7779 17.0307 19.4757 17.0307 19.1029C17.0307 18.7301 16.7285 18.4279 16.3557 18.4279H14.8959C14.7165 18.4279 14.5709 18.2824 14.5709 18.1029V16.9466V15.7904C14.5709 15.6109 14.7165 15.4654 14.8959 15.4654H19.1251C19.3046 15.4654 19.4501 15.6109 19.4501 15.7904V18.1029C19.4501 18.2824 19.3046 18.4279 19.1251 18.4279H18.5678C18.195 18.4279 17.8928 18.7301 17.8928 19.1029C17.8928 19.4757 18.195 19.7779 18.5678 19.7779H19.1251C20.0502 19.7779 20.8001 19.028 20.8001 18.1029V15.7904C20.8001 14.8653 20.0502 14.1154 19.1251 14.1154H14.8959Z" fill="#252323"/>
</g>
<defs>
<clipPath id="clip0_662_7975">
<rect width="23" height="23" fill="white"/>
</clipPath>
</defs>
</svg>
