<svg width="18" height="18" viewBox="0 0 18 18" fill="none" xmlns="http://www.w3.org/2000/svg">
<g clip-path="url(#clip0_662_7976)">
<path fill-rule="evenodd" clip-rule="evenodd" d="M2 3.625C2 2.72754 2.72754 2 3.625 2H8C8.89746 2 9.625 2.72754 9.625 3.625V14.375C9.625 15.2725 8.89746 16 8 16H3.625C2.72754 16 2 15.2725 2 14.375V12.1875C2 11.8423 2.27982 11.5625 2.625 11.5625C2.97018 11.5625 3.25 11.8423 3.25 12.1875V14.375C3.25 14.5821 3.41789 14.75 3.625 14.75H8C8.20711 14.75 8.375 14.5821 8.375 14.375V3.625C8.375 3.41789 8.20711 3.25 8 3.25H3.625C3.41789 3.25 3.25 3.41789 3.25 3.625V9V10.5938C3.25 10.9389 2.97018 11.2188 2.625 11.2188C2.27982 11.2188 2 10.9389 2 10.5938V9V3.625ZM9.875 3.625C9.875 2.72754 10.6025 2 11.5 2H14.375C15.2725 2 16 2.72754 16 3.625V6.5625C16 6.90768 15.7202 7.1875 15.375 7.1875C15.0298 7.1875 14.75 6.90768 14.75 6.5625V3.625C14.75 3.41789 14.5821 3.25 14.375 3.25H11.5C11.2929 3.25 11.125 3.41789 11.125 3.625V9.5C11.125 9.70711 11.2929 9.875 11.5 9.875H14.375C14.5821 9.875 14.75 9.70711 14.75 9.5V8.53125C14.75 8.18607 15.0298 7.90625 15.375 7.90625C15.7202 7.90625 16 8.18607 16 8.53125V9.5C16 10.3975 15.2725 11.125 14.375 11.125H11.5C10.6025 11.125 9.875 10.3975 9.875 9.5V3.625ZM11.5 11.375C10.6025 11.375 9.875 12.1025 9.875 13V13.6875V14.375C9.875 15.2725 10.6025 16 11.5 16H12.5C12.8452 16 13.125 15.7202 13.125 15.375C13.125 15.0298 12.8452 14.75 12.5 14.75H11.5C11.2929 14.75 11.125 14.5821 11.125 14.375V13.6875V13C11.125 12.7929 11.2929 12.625 11.5 12.625H14.375C14.5821 12.625 14.75 12.7929 14.75 13V14.375C14.75 14.5821 14.5821 14.75 14.375 14.75H14.1562C13.8111 14.75 13.5312 15.0298 13.5312 15.375C13.5312 15.7202 13.8111 16 14.1562 16H14.375C15.2725 16 16 15.2725 16 14.375V13C16 12.1025 15.2725 11.375 14.375 11.375H11.5Z" fill="#252323"/>
</g>
<defs>
<clipPath id="clip0_662_7976">
<rect width="18" height="18" fill="white"/>
</clipPath>
</defs>
</svg>
