<svg width="23" height="23" viewBox="0 0 23 23" fill="none" xmlns="http://www.w3.org/2000/svg">
<g clip-path="url(#clip0_662_7935)">
<path fill-rule="evenodd" clip-rule="evenodd" d="M11.0111 3.09863H4.86523C4.31295 3.09863 3.86523 3.54635 3.86523 4.09863V11.2445V13.2809V15.3174V18.3903C3.86523 18.9426 4.31295 19.3903 4.86523 19.3903H11.0111C11.5634 19.3903 12.0111 18.9426 12.0111 18.3903V4.09863C12.0111 3.54635 11.5634 3.09863 11.0111 3.09863ZM19.1569 3.09863H14.9277C14.3755 3.09863 13.9277 3.54635 13.9277 4.09863V8.12988V9.3877V10.6455V12.1611C13.9277 12.7134 14.3754 13.1611 14.9277 13.1611H19.1569C19.7092 13.1611 20.1569 12.7134 20.1569 12.1611V4.09863C20.1569 3.54635 19.7092 3.09863 19.1569 3.09863ZM14.9277 14.8222H19.1569C19.7092 14.8222 20.1569 15.27 20.1569 15.8222V18.1347C20.1569 18.687 19.7092 19.1347 19.1569 19.1347H14.9277C14.3754 19.1347 13.9277 18.687 13.9277 18.1347V18.0566V17.5176V16.9785V15.8222C13.9277 15.27 14.3755 14.8222 14.9277 14.8222Z" fill="#E05149"/>
<path d="M11.0286 2.18604C11.9536 2.18604 12.7043 2.93576 12.7043 3.86084V18.1528C12.7042 19.0778 11.9535 19.8276 11.0286 19.8276H4.88306C3.95809 19.8276 3.20843 19.0778 3.20825 18.1528V15.0796C3.20825 14.7068 3.51026 14.4048 3.88306 14.4048C4.25585 14.4048 4.55786 14.7068 4.55786 15.0796V18.1528C4.55804 18.3322 4.70367 18.4771 4.88306 18.4771H11.0286C11.2079 18.4771 11.3536 18.3322 11.3538 18.1528V3.86084C11.3538 3.68135 11.2081 3.53564 11.0286 3.53564H4.88306C4.70356 3.53564 4.55786 3.68135 4.55786 3.86084V13.0435C4.55769 13.4161 4.25574 13.7183 3.88306 13.7183C3.51037 13.7183 3.20843 13.4161 3.20825 13.0435V3.86084C3.20825 2.93576 3.95798 2.18604 4.88306 2.18604H11.0286ZM19.175 14.1655C20.1 14.1657 20.8499 14.9154 20.8499 15.8403V18.1528C20.8497 19.0777 20.0999 19.8275 19.175 19.8276H18.6174C18.2447 19.8276 17.9428 19.5255 17.9426 19.1528C17.9426 18.78 18.2446 18.478 18.6174 18.478H19.175C19.3543 18.4779 19.4991 18.3321 19.4993 18.1528V15.8403C19.4993 15.6609 19.3544 15.5153 19.175 15.5151H14.9456C14.7661 15.5151 14.6204 15.6608 14.6204 15.8403V18.1528C14.6205 18.3322 14.7662 18.478 14.9456 18.478H16.4055C16.7782 18.4782 17.0803 18.7801 17.0803 19.1528C17.0801 19.5254 16.7781 19.8275 16.4055 19.8276H14.9456C14.0206 19.8276 13.2709 19.0778 13.2708 18.1528V15.8403C13.2708 14.9153 14.0205 14.1655 14.9456 14.1655H19.175ZM19.175 2.18604C20.1 2.18621 20.8499 2.93587 20.8499 3.86084V7.89209C20.8499 8.26477 20.5477 8.56672 20.175 8.56689C19.8023 8.56689 19.4993 8.26488 19.4993 7.89209V3.86084C19.4993 3.68145 19.3544 3.53582 19.175 3.53564H14.9456C14.7661 3.53564 14.6204 3.68135 14.6204 3.86084V11.9233C14.6204 12.1028 14.7661 12.2485 14.9456 12.2485H19.175C19.3544 12.2484 19.4993 12.1027 19.4993 11.9233V10.4077C19.4993 10.0349 19.8023 9.73291 20.175 9.73291C20.5477 9.73309 20.8499 10.035 20.8499 10.4077V11.9233C20.8499 12.8483 20.1 13.598 19.175 13.5981H14.9456C14.0205 13.5981 13.2708 12.8484 13.2708 11.9233V3.86084C13.2708 2.93576 14.0205 2.18604 14.9456 2.18604H19.175Z" fill="#332A2A"/>
</g>
<defs>
<clipPath id="clip0_662_7935">
<rect width="23" height="23" fill="white"/>
</clipPath>
</defs>
</svg>
