<svg width="28" height="28" viewBox="0 0 28 28" fill="none" xmlns="http://www.w3.org/2000/svg">
<g clip-path="url(#clip0_662_7974)">
<path fill-rule="evenodd" clip-rule="evenodd" d="M3.33325 5.08325C3.33325 4.11676 4.11675 3.33325 5.08325 3.33325H12.9999C13.9664 3.33325 14.7499 4.11675 14.7499 5.08325V22.9166C14.7499 23.8831 13.9664 24.6666 12.9999 24.6666H5.08325C4.11676 24.6666 3.33325 23.8831 3.33325 22.9166V18.9583C3.33325 18.544 3.66904 18.2083 4.08325 18.2083C4.49747 18.2083 4.83325 18.544 4.83325 18.9583V22.9166C4.83325 23.0547 4.94518 23.1666 5.08325 23.1666H12.9999C13.138 23.1666 13.2499 23.0547 13.2499 22.9166V5.08325C13.2499 4.94518 13.138 4.83325 12.9999 4.83325H5.08325C4.94518 4.83325 4.83325 4.94518 4.83325 5.08325V13.9999V16.4791C4.83325 16.8933 4.49747 17.2291 4.08325 17.2291C3.66904 17.2291 3.33325 16.8933 3.33325 16.4791V13.9999V5.08325ZM15.5833 5.08325C15.5833 4.11675 16.3668 3.33325 17.3333 3.33325H22.9166C23.8831 3.33325 24.6666 4.11675 24.6666 5.08325V10.2083C24.6666 10.6225 24.3308 10.9583 23.9166 10.9583C23.5024 10.9583 23.1666 10.6225 23.1666 10.2083V5.08325C23.1666 4.94518 23.0547 4.83325 22.9166 4.83325H17.3333C17.1952 4.83325 17.0833 4.94518 17.0833 5.08325V15.3333C17.0833 15.4713 17.1952 15.5833 17.3333 15.5833H22.9166C23.0547 15.5833 23.1666 15.4713 23.1666 15.3333V13.2708C23.1666 12.8565 23.5024 12.5208 23.9166 12.5208C24.3308 12.5208 24.6666 12.8565 24.6666 13.2708V15.3333C24.6666 16.2998 23.8831 17.0833 22.9166 17.0833H17.3333C16.3668 17.0833 15.5833 16.2998 15.5833 15.3333V5.08325ZM17.3333 17.9166C16.3668 17.9166 15.5833 18.7001 15.5833 19.6666V21.2916V22.9166C15.5833 23.8831 16.3668 24.6666 17.3333 24.6666H19.4098C19.824 24.6666 20.1598 24.3308 20.1598 23.9166C20.1598 23.5024 19.824 23.1666 19.4098 23.1666H17.3333C17.1952 23.1666 17.0833 23.0547 17.0833 22.9166V21.2916V19.6666C17.0833 19.5285 17.1952 19.4166 17.3333 19.4166H22.9166C23.0547 19.4166 23.1666 19.5285 23.1666 19.6666V22.9166C23.1666 23.0547 23.0547 23.1666 22.9166 23.1666H22.0208C21.6065 23.1666 21.2708 23.5024 21.2708 23.9166C21.2708 24.3308 21.6065 24.6666 22.0208 24.6666H22.9166C23.8831 24.6666 24.6666 23.8831 24.6666 22.9166V19.6666C24.6666 18.7001 23.8831 17.9166 22.9166 17.9166H17.3333Z" fill="#332A2A"/>
</g>
<defs>
<clipPath id="clip0_662_7974">
<rect width="28" height="28" fill="white"/>
</clipPath>
</defs>
</svg>
