<svg width="18" height="18" viewBox="0 0 18 18" fill="none" xmlns="http://www.w3.org/2000/svg">
<g clip-path="url(#clip0_662_7831)">
<path fill-rule="evenodd" clip-rule="evenodd" d="M11.25 2.25H6.75V3.375H11.25V2.25ZM13.125 14.375V3.375H4.875V14.375C4.875 14.9273 5.32272 15.375 5.875 15.375H12.125C12.6773 15.375 13.125 14.9273 13.125 14.375Z" fill="#E05149"/>
<path fill-rule="evenodd" clip-rule="evenodd" d="M6.75 4H11.25L12.5 4V6.375C12.5 6.72018 12.7798 7 13.125 7C13.4702 7 13.75 6.72018 13.75 6.375V4H13.875C14.2202 4 14.5 3.72018 14.5 3.375C14.5 3.02982 14.2202 2.75 13.875 2.75H13.125H11.7966C11.5857 2.09718 10.973 1.625 10.25 1.625H7.75C7.02699 1.625 6.41426 2.09718 6.20337 2.75H4.875H4.125C3.77982 2.75 3.5 3.02982 3.5 3.375C3.5 3.72018 3.77982 4 4.125 4H4.25V9.375V10.5C4.25 10.8452 4.52982 11.125 4.875 11.125C5.22018 11.125 5.5 10.8452 5.5 10.5V9.375V4L6.75 4ZM13.125 7.875C13.4702 7.875 13.75 8.15482 13.75 8.5V9.375V14.375C13.75 15.2725 13.0225 16 12.125 16H5.875C4.97754 16 4.25 15.2725 4.25 14.375V12.375C4.25 12.0298 4.52982 11.75 4.875 11.75C5.22018 11.75 5.5 12.0298 5.5 12.375V14.375C5.5 14.5821 5.66789 14.75 5.875 14.75H12.125C12.3321 14.75 12.5 14.5821 12.5 14.375V9.375V8.5C12.5 8.15482 12.7798 7.875 13.125 7.875ZM7.375 5.5C7.375 5.15482 7.09518 4.875 6.75 4.875C6.40482 4.875 6.125 5.15482 6.125 5.5V13.5C6.125 13.8452 6.40482 14.125 6.75 14.125C7.09518 14.125 7.375 13.8452 7.375 13.5V5.5ZM11.25 4.875C11.5952 4.875 11.875 5.15482 11.875 5.5V13.5C11.875 13.8452 11.5952 14.125 11.25 14.125C10.9048 14.125 10.625 13.8452 10.625 13.5V5.5C10.625 5.15482 10.9048 4.875 11.25 4.875ZM9.625 7C9.625 6.65482 9.34518 6.375 9 6.375C8.65482 6.375 8.375 6.65482 8.375 7V11.875C8.375 12.2202 8.65482 12.5 9 12.5C9.34518 12.5 9.625 12.2202 9.625 11.875V7Z" fill="#252323"/>
</g>
<defs>
<clipPath id="clip0_662_7831">
<rect width="18" height="18" fill="white"/>
</clipPath>
</defs>
</svg>
