<svg width="44" height="44" viewBox="0 0 44 44" fill="none" xmlns="http://www.w3.org/2000/svg">
<g clip-path="url(#clip0_210_1036)">
<path fill-rule="evenodd" clip-rule="evenodd" d="M27.5001 5.5H16.5001V8.25L11.9167 8.25V34.0833C11.9167 36.0163 13.4837 37.5833 15.4167 37.5833H28.5834C30.5164 37.5833 32.0834 36.0163 32.0834 34.0833V8.25L27.5001 8.25V5.5Z" fill="#E05149"/>
<path fill-rule="evenodd" clip-rule="evenodd" d="M17.4999 6.25C17.3618 6.25 17.2499 6.36193 17.2499 6.5V7.5H26.7499V6.5C26.7499 6.36193 26.638 6.25 26.4999 6.25H17.4999ZM11.9166 7.5H15.7499V6.5C15.7499 5.5335 16.5334 4.75 17.4999 4.75H26.4999C27.4664 4.75 28.2499 5.5335 28.2499 6.5V7.5H32.0833H33.9166C34.3308 7.5 34.6666 7.83579 34.6666 8.25C34.6666 8.66421 34.3308 9 33.9166 9H32.8333V15.5833C32.8333 15.9975 32.4975 16.3333 32.0833 16.3333C31.669 16.3333 31.3333 15.9975 31.3333 15.5833V9H27.4999H16.4999H12.6666V22.9167V26.5833C12.6666 26.9975 12.3308 27.3333 11.9166 27.3333C11.5024 27.3333 11.1666 26.9975 11.1666 26.5833V22.9167V9H10.0833C9.66904 9 9.33325 8.66421 9.33325 8.25C9.33325 7.83579 9.66904 7.5 10.0833 7.5H11.9166ZM32.0833 18.5C32.4975 18.5 32.8333 18.8358 32.8333 19.25V22.9167V33.5833C32.8333 36.2067 30.7066 38.3333 28.0833 38.3333H15.9166C13.2932 38.3333 11.1666 36.2067 11.1666 33.5833V30.25C11.1666 29.8358 11.5024 29.5 11.9166 29.5C12.3308 29.5 12.6666 29.8358 12.6666 30.25V33.5833C12.6666 35.3783 14.1217 36.8333 15.9166 36.8333H28.0833C29.8782 36.8333 31.3333 35.3783 31.3333 33.5833V22.9167V19.25C31.3333 18.8358 31.669 18.5 32.0833 18.5ZM17.2499 11.9167C17.2499 11.5025 16.9141 11.1667 16.4999 11.1667C16.0857 11.1667 15.7499 11.5025 15.7499 11.9167V33C15.7499 33.4142 16.0857 33.75 16.4999 33.75C16.9141 33.75 17.2499 33.4142 17.2499 33V11.9167ZM27.4999 11.1667C27.9141 11.1667 28.2499 11.5025 28.2499 11.9167V33C28.2499 33.4142 27.9141 33.75 27.4999 33.75C27.0857 33.75 26.7499 33.4142 26.7499 33V11.9167C26.7499 11.5025 27.0857 11.1667 27.4999 11.1667ZM22.7499 15.5833C22.7499 15.1691 22.4141 14.8333 21.9999 14.8333C21.5857 14.8333 21.2499 15.1691 21.2499 15.5833V27.5C21.2499 27.9142 21.5857 28.25 21.9999 28.25C22.4141 28.25 22.7499 27.9142 22.7499 27.5V15.5833Z" fill="#252323"/>
</g>
<defs>
<clipPath id="clip0_210_1036">
<rect width="44" height="44" fill="white"/>
</clipPath>
</defs>
</svg>
