<svg width="23" height="23" viewBox="0 0 23 23" fill="none" xmlns="http://www.w3.org/2000/svg">
<g clip-path="url(#clip0_662_7874)">
<path d="M16.8206 9.4375C17.1933 9.4375 17.4954 9.73951 17.4954 10.1123V17.6953C17.4954 19.1727 16.2979 20.3711 14.8206 20.3711H8.27856C6.80135 20.3709 5.60376 19.1726 5.60376 17.6953V15.8623C5.60376 15.4896 5.90592 15.1877 6.27856 15.1875C6.65136 15.1875 6.95435 15.4895 6.95435 15.8623V17.6953C6.95435 18.427 7.54694 19.0203 8.27856 19.0205H14.8206C15.5523 19.0205 16.1458 18.4271 16.1458 17.6953V10.1123C16.1458 9.73951 16.4478 9.4375 16.8206 9.4375ZM8.67505 5.60449C9.04769 5.60467 9.34985 5.90661 9.34985 6.2793V17.2998C9.34968 17.6723 9.04758 17.9754 8.67505 17.9756C8.30237 17.9756 8.00042 17.6724 8.00024 17.2998V6.2793C8.00024 5.9065 8.30226 5.60449 8.67505 5.60449ZM14.425 5.60449C14.7977 5.60467 15.0999 5.90661 15.0999 6.2793V17.2998C15.0997 17.6723 14.7976 17.9754 14.425 17.9756C14.0524 17.9756 13.7504 17.6724 13.7502 17.2998V6.2793C13.7502 5.9065 14.0523 5.60449 14.425 5.60449ZM11.55 7.52051C11.9226 7.52068 12.2247 7.82278 12.2249 8.19531V14.4248C12.2247 14.7973 11.9226 15.0994 11.55 15.0996C11.1774 15.0996 10.8754 14.7974 10.8752 14.4248V8.19531C10.8754 7.82267 11.1774 7.52051 11.55 7.52051ZM13.425 2.25C14.2693 2.25016 14.966 2.87505 15.0813 3.6875H17.7786C18.1514 3.6875 18.4543 3.98951 18.4543 4.3623C18.4543 4.7351 18.1514 5.03711 17.7786 5.03711H17.4954V8.19531C17.4954 8.5681 17.1933 8.87109 16.8206 8.87109C16.4478 8.87109 16.1458 8.5681 16.1458 8.19531V5.03711H6.95435V13.9453C6.95435 14.3181 6.65136 14.6211 6.27856 14.6211C5.90592 14.6209 5.60376 14.318 5.60376 13.9453V5.03711H5.32056C4.94776 5.03711 4.64575 4.7351 4.64575 4.3623C4.64575 3.98951 4.94776 3.6875 5.32056 3.6875H8.0188C8.13416 2.87499 8.83064 2.25 9.67505 2.25H13.425ZM9.67505 3.59961C9.58962 3.59961 9.5124 3.63356 9.45435 3.6875H13.6448C13.5868 3.63372 13.5103 3.59969 13.425 3.59961H9.67505Z" fill="#332A2A"/>
</g>
<defs>
<clipPath id="clip0_662_7874">
<rect width="23" height="23" fill="white"/>
</clipPath>
</defs>
</svg>
