<svg width="28" height="28" viewBox="0 0 28 28" fill="none" xmlns="http://www.w3.org/2000/svg">
<g clip-path="url(#clip0_662_7809)">
<path fill-rule="evenodd" clip-rule="evenodd" d="M17.4999 3.5H10.4999V5.25H17.4999V3.5ZM20.4166 20.4167V5.25H7.58325V20.4167C7.58325 22.3497 9.15025 23.9167 11.0832 23.9167H16.9166C18.8496 23.9167 20.4166 22.3497 20.4166 20.4167Z" fill="#E05149"/>
<path fill-rule="evenodd" clip-rule="evenodd" d="M11.5001 4.25C11.362 4.25 11.2501 4.36193 11.2501 4.5H16.7501C16.7501 4.36193 16.6382 4.25 16.5001 4.25H11.5001ZM11.5001 2.75C10.5336 2.75 9.75008 3.5335 9.75008 4.5L7.58341 4.5H6.41675C6.00253 4.5 5.66675 4.83579 5.66675 5.25C5.66675 5.66421 6.00253 6 6.41675 6H6.83341V14.5833V16.9167C6.83341 17.3309 7.1692 17.6667 7.58341 17.6667C7.99763 17.6667 8.33341 17.3309 8.33341 16.9167V14.5833V6L10.5001 6H17.5001L19.6667 6V9.91667C19.6667 10.3309 20.0025 10.6667 20.4167 10.6667C20.831 10.6667 21.1667 10.3309 21.1667 9.91667V6H21.5834C21.9976 6 22.3334 5.66421 22.3334 5.25C22.3334 4.83579 21.9976 4.5 21.5834 4.5H20.4167L18.2501 4.5C18.2501 3.5335 17.4666 2.75 16.5001 2.75H11.5001ZM20.4167 11.5C20.831 11.5 21.1667 11.8358 21.1667 12.25V14.5833V21.9167C21.1667 23.4355 19.9355 24.6667 18.4167 24.6667H9.58341C8.06463 24.6667 6.83341 23.4354 6.83341 21.9167V19.25C6.83341 18.8358 7.1692 18.5 7.58341 18.5C7.99763 18.5 8.33341 18.8358 8.33341 19.25V21.9167C8.33341 22.607 8.89306 23.1667 9.58341 23.1667H18.4167C19.1071 23.1667 19.6667 22.607 19.6667 21.9167V14.5833V12.25C19.6667 11.8358 20.0025 11.5 20.4167 11.5ZM11.2501 7.58333C11.2501 7.16912 10.9143 6.83333 10.5001 6.83333C10.0859 6.83333 9.75008 7.16912 9.75008 7.58333V21C9.75008 21.4142 10.0859 21.75 10.5001 21.75C10.9143 21.75 11.2501 21.4142 11.2501 21V7.58333ZM17.5001 6.83333C17.9143 6.83333 18.2501 7.16912 18.2501 7.58333V21C18.2501 21.4142 17.9143 21.75 17.5001 21.75C17.0859 21.75 16.7501 21.4142 16.7501 21V7.58333C16.7501 7.16912 17.0859 6.83333 17.5001 6.83333ZM14.7501 9.91667C14.7501 9.50245 14.4143 9.16667 14.0001 9.16667C13.5859 9.16667 13.2501 9.50245 13.2501 9.91667V17.5C13.2501 17.9142 13.5859 18.25 14.0001 18.25C14.4143 18.25 14.7501 17.9142 14.7501 17.5V9.91667Z" fill="#252323"/>
</g>
<defs>
<clipPath id="clip0_662_7809">
<rect width="28" height="28" fill="white"/>
</clipPath>
</defs>
</svg>
