<svg width="18" height="18" viewBox="0 0 18 18" fill="none" xmlns="http://www.w3.org/2000/svg">
<g clip-path="url(#clip0_662_7831)">
<path fill-rule="evenodd" clip-rule="evenodd" d="M11.25 2.25H6.75V3.375H11.25V2.25ZM13.125 14.375V3.375H4.875V14.375C4.875 14.9273 5.32272 15.375 5.875 15.375H12.125C12.6773 15.375 13.125 14.9273 13.125 14.375Z" fill="#E05149"/>
<path d="M13 7.75C13.3452 7.75 13.625 8.02982 13.625 8.375V14.25C13.625 15.1475 12.8975 15.875 12 15.875H5.75C4.85254 15.875 4.125 15.1475 4.125 14.25V12.25C4.125 11.9048 4.40482 11.625 4.75 11.625C5.09518 11.625 5.375 11.9048 5.375 12.25V14.25C5.375 14.4571 5.54289 14.625 5.75 14.625H12C12.2071 14.625 12.375 14.4571 12.375 14.25V8.375C12.375 8.02982 12.6548 7.75 13 7.75ZM6.625 4.75C6.97018 4.75 7.25 5.02982 7.25 5.375V13.375C7.25 13.7202 6.97018 14 6.625 14C6.27982 14 6 13.7202 6 13.375V5.375C6 5.02982 6.27982 4.75 6.625 4.75ZM11.125 4.75C11.4702 4.75 11.75 5.02982 11.75 5.375V13.375C11.75 13.7202 11.4702 14 11.125 14C10.7798 14 10.5 13.7202 10.5 13.375V5.375C10.5 5.02982 10.7798 4.75 11.125 4.75ZM8.875 6.25C9.22018 6.25 9.5 6.52982 9.5 6.875V11.75C9.5 12.0952 9.22018 12.375 8.875 12.375C8.52982 12.375 8.25 12.0952 8.25 11.75V6.875C8.25 6.52982 8.52982 6.25 8.875 6.25ZM10.125 1.5C10.8479 1.5 11.4599 1.97229 11.6709 2.625H13.75C14.0952 2.625 14.375 2.90482 14.375 3.25C14.375 3.59518 14.0952 3.875 13.75 3.875H13.625V6.25C13.625 6.59518 13.3452 6.875 13 6.875C12.6548 6.875 12.375 6.59518 12.375 6.25V3.875H5.375V10.375C5.375 10.7202 5.09518 11 4.75 11C4.40482 11 4.125 10.7202 4.125 10.375V3.875H4C3.65482 3.875 3.375 3.59518 3.375 3.25C3.375 2.90482 3.65482 2.625 4 2.625H6.0791C6.29006 1.97229 6.90207 1.5 7.625 1.5H10.125Z" fill="#332A2A"/>
</g>
<defs>
<clipPath id="clip0_662_7831">
<rect width="18" height="18" fill="white"/>
</clipPath>
</defs>
</svg>
