<svg width="23" height="23" viewBox="0 0 23 23" fill="none" xmlns="http://www.w3.org/2000/svg">
<g clip-path="url(#clip0_662_7874)">
<path fill-rule="evenodd" clip-rule="evenodd" d="M9.62511 3.54995C9.53935 3.54995 9.46134 3.58317 9.40326 3.63745H13.597C13.5389 3.58317 13.4609 3.54995 13.3751 3.54995H9.62511ZM6.22928 3.63745H7.96682C8.08216 2.82485 8.78066 2.19995 9.62511 2.19995H13.3751C14.2196 2.19995 14.9181 2.82485 15.0334 3.63745H16.7709H17.7293C18.1021 3.63745 18.4043 3.93966 18.4043 4.31245C18.4043 4.68524 18.1021 4.98745 17.7293 4.98745H17.4459V8.14578C17.4459 8.51858 17.1437 8.82078 16.7709 8.82078C16.3982 8.82078 16.0959 8.51858 16.0959 8.14578V4.98745L14.3751 4.98745H8.62511L6.90428 4.98745V11.9791V13.8958C6.90428 14.2686 6.60207 14.5708 6.22928 14.5708C5.85649 14.5708 5.55428 14.2686 5.55428 13.8958V11.9791V4.98745H5.27095C4.89816 4.98745 4.59595 4.68524 4.59595 4.31245C4.59595 3.93966 4.89816 3.63745 5.27095 3.63745H6.22928ZM16.7709 9.38745C17.1437 9.38745 17.4459 9.68966 17.4459 10.0625V11.9791V17.6458C17.4459 19.1231 16.2483 20.3208 14.7709 20.3208H8.22928C6.75192 20.3208 5.55428 19.1231 5.55428 17.6458V15.8124C5.55428 15.4397 5.85649 15.1374 6.22928 15.1374C6.60207 15.1374 6.90428 15.4397 6.90428 15.8124V17.6458C6.90428 18.3776 7.4975 18.9708 8.22928 18.9708H14.7709C15.5027 18.9708 16.0959 18.3776 16.0959 17.6458V11.9791V10.0625C16.0959 9.68966 16.3982 9.38745 16.7709 9.38745ZM9.30011 6.22912C9.30011 5.85633 8.99791 5.55412 8.62511 5.55412C8.25232 5.55412 7.95011 5.85633 7.95011 6.22912V17.25C7.95011 17.6227 8.25232 17.925 8.62511 17.925C8.99791 17.925 9.30011 17.6227 9.30011 17.25V6.22912ZM14.3751 5.55412C14.7479 5.55412 15.0501 5.85633 15.0501 6.22912V17.25C15.0501 17.6227 14.7479 17.925 14.3751 17.925C14.0023 17.925 13.7001 17.6227 13.7001 17.25V6.22912C13.7001 5.85633 14.0023 5.55412 14.3751 5.55412ZM12.1751 8.14579C12.1751 7.77299 11.8729 7.47078 11.5001 7.47078C11.1273 7.47078 10.8251 7.77299 10.8251 8.14579V14.375C10.8251 14.7477 11.1273 15.05 11.5001 15.05C11.8729 15.05 12.1751 14.7477 12.1751 14.375V8.14579Z" fill="#252323"/>
</g>
<defs>
<clipPath id="clip0_662_7874">
<rect width="23" height="23" fill="white"/>
</clipPath>
</defs>
</svg>
