<svg width="44" height="44" viewBox="0 0 44 44" fill="none" xmlns="http://www.w3.org/2000/svg">
<g clip-path="url(#clip0_662_7872)">
<path d="M32.0833 18.5C32.4975 18.5 32.8333 18.8358 32.8333 19.25V33.583C32.8333 36.2064 30.7066 38.333 28.0833 38.333H15.9163C13.2931 38.3328 11.1663 36.2063 11.1663 33.583V30.25C11.1663 29.8359 11.5022 29.5002 11.9163 29.5C12.3305 29.5 12.6663 29.8358 12.6663 30.25V33.583C12.6663 35.3778 14.1215 36.8328 15.9163 36.833H28.0833C29.8782 36.833 31.3333 35.3779 31.3333 33.583V19.25C31.3333 18.8358 31.669 18.5 32.0833 18.5ZM16.5002 11.167C16.9143 11.1672 17.2502 11.5029 17.2502 11.917V33C17.2501 33.414 16.9142 33.7498 16.5002 33.75C16.0861 33.75 15.7504 33.4141 15.7502 33V11.917C15.7502 11.5028 16.086 11.167 16.5002 11.167ZM27.5002 11.167C27.9143 11.1672 28.2502 11.5029 28.2502 11.917V33C28.2501 33.414 27.9142 33.7498 27.5002 33.75C27.0861 33.75 26.7504 33.4141 26.7502 33V11.917C26.7502 11.5028 27.086 11.167 27.5002 11.167ZM22.0002 14.833C22.4142 14.8332 22.7501 15.1691 22.7502 15.583V27.5C22.7501 27.914 22.4142 28.2498 22.0002 28.25C21.5861 28.25 21.2504 27.9141 21.2502 27.5V15.583C21.2504 15.1689 21.5861 14.833 22.0002 14.833ZM26.5002 4.75C27.4666 4.75018 28.2502 5.53361 28.2502 6.5V7.5H33.9163C34.3305 7.5 34.6663 7.83579 34.6663 8.25C34.6663 8.66421 34.3305 9 33.9163 9H32.8333V15.583C32.8333 15.9972 32.4975 16.333 32.0833 16.333C31.669 16.333 31.3333 15.9972 31.3333 15.583V9H12.6663V26.583C12.6663 26.9972 12.3305 27.333 11.9163 27.333C11.5022 27.3328 11.1663 26.9971 11.1663 26.583V9H10.0833C9.66904 9 9.33325 8.66421 9.33325 8.25C9.33325 7.83579 9.66904 7.5 10.0833 7.5H15.7502V6.5C15.7502 5.5335 16.5337 4.75 17.5002 4.75H26.5002ZM17.5002 6.25C17.3622 6.25 17.2502 6.36193 17.2502 6.5V7.5H26.7502V6.5C26.7502 6.36204 26.6382 6.25018 26.5002 6.25H17.5002Z" fill="#332A2A"/>
</g>
<defs>
<clipPath id="clip0_662_7872">
<rect width="44" height="44" fill="white"/>
</clipPath>
</defs>
</svg>
