<svg width="28" height="28" viewBox="0 0 28 28" fill="none" xmlns="http://www.w3.org/2000/svg">
<g clip-path="url(#clip0_607_4674)">
<path fill-rule="evenodd" clip-rule="evenodd" d="M2.91675 8.16663H20.4167V12.8333H21.0001H23.0417L25.0834 16.0416V18.9583H20.4167L20.4167 18.0833C19.3295 18.0833 18.4159 18.8269 18.1569 19.8333H10.4266C10.1675 18.8269 9.25399 18.0833 8.16675 18.0833C7.07951 18.0833 6.16595 18.8269 5.90692 19.8333H2.91675V8.16663Z" fill="#E05149"/>
<path fill-rule="evenodd" clip-rule="evenodd" d="M3.91675 8.91663C3.77868 8.91663 3.66675 9.02855 3.66675 9.16663V11.5H6.17946C6.59367 11.5 6.92946 11.8357 6.92946 12.25C6.92946 12.6642 6.59367 13 6.17946 13H3.66675V15.2916H4.69641C5.11062 15.2916 5.44641 15.6274 5.44641 16.0416C5.44641 16.4558 5.11062 16.7916 4.69641 16.7916H3.66675V19.0833H6.25164C6.67329 18.4788 7.37383 18.0833 8.16675 18.0833C8.95966 18.0833 9.6602 18.4788 10.0819 19.0833H11.6667H14.5834C14.9976 19.0833 15.3334 19.4191 15.3334 19.8333C15.3334 20.2475 14.9976 20.5833 14.5834 20.5833H11.6667H10.4942C10.4088 21.7942 9.39937 22.75 8.16675 22.75C6.93412 22.75 5.92473 21.7942 5.83928 20.5833H2.91675C2.50253 20.5833 2.16675 20.2475 2.16675 19.8333V16.0416V12.25V9.16663C2.16675 8.20013 2.95025 7.41663 3.91675 7.41663H7.29175H10.5001C10.9143 7.41663 11.2501 7.75241 11.2501 8.16663C11.2501 8.58084 10.9143 8.91663 10.5001 8.91663H7.29175H3.91675ZM12.9584 8.16663C12.9584 7.75241 13.2942 7.41663 13.7084 7.41663H20.4167C20.831 7.41663 21.1667 7.75241 21.1667 8.16663V11.7916H21.7316C22.6115 11.7916 23.4382 12.2126 23.9557 12.9242L24.7336 13.9939C25.4484 14.9767 25.8334 16.1607 25.8334 17.3759V18.9583C25.8334 19.2813 25.6292 19.5567 25.3428 19.6622C25.298 19.7269 25.2452 19.7867 25.1853 19.84L24.7768 20.2031C24.4106 20.5285 23.9379 20.7083 23.448 20.7083H22.732C22.5885 21.8593 21.6066 22.75 20.4167 22.75C19.1841 22.75 18.1747 21.7942 18.0893 20.5833H17.2084C16.7942 20.5833 16.4584 20.2475 16.4584 19.8333C16.4584 19.4191 16.7942 19.0833 17.2084 19.0833H18.5016C18.7838 18.6788 19.1908 18.3679 19.6667 18.2064V14.6203H12.4083C11.9941 14.6203 11.6583 14.2845 11.6583 13.8703C11.6583 13.4561 11.9941 13.1203 12.4083 13.1203H19.6667V12.5416V8.91663H13.7084C13.2942 8.91663 12.9584 8.58084 12.9584 8.16663ZM21.1667 18.2064C21.1686 18.2071 21.1704 18.2077 21.1722 18.2083H24.3334V17.3759C24.3334 16.4777 24.0488 15.6026 23.5205 14.8761L22.7426 13.8064C22.5073 13.483 22.1316 13.2916 21.7316 13.2916H21.1667V13.8703V18.2064ZM8.16675 21.25C8.62699 21.25 9.00008 20.8769 9.00008 20.4166C9.00008 19.9564 8.62699 19.5833 8.16675 19.5833C7.70651 19.5833 7.33341 19.9564 7.33341 20.4166C7.33341 20.8769 7.70651 21.25 8.16675 21.25ZM21.2501 20.4166C21.2501 20.8769 20.877 21.25 20.4167 21.25C19.9565 21.25 19.5834 20.8769 19.5834 20.4166C19.5834 19.9564 19.9565 19.5833 20.4167 19.5833C20.877 19.5833 21.2501 19.9564 21.2501 20.4166Z" fill="#252323"/>
</g>
<defs>
<clipPath id="clip0_607_4674">
<rect width="28" height="28" fill="white"/>
</clipPath>
</defs>
</svg>
