<svg width="23" height="23" viewBox="0 0 23 23" fill="none" xmlns="http://www.w3.org/2000/svg">
<g clip-path="url(#clip0_607_4675)">
<path fill-rule="evenodd" clip-rule="evenodd" d="M2.39575 6.70837H16.7708V10.5417H17.2499H18.927L20.6041 13.1771V15.573H16.7708V14.8542C15.8777 14.8542 15.1272 15.465 14.9145 16.2917H8.56454C8.35177 15.465 7.60134 14.8542 6.70825 14.8542C5.81516 14.8542 5.06474 15.465 4.85197 16.2917H2.39575V6.70837Z" fill="#E05149"/>
<path d="M8.67505 6.08337C9.04769 6.08355 9.34985 6.3855 9.34985 6.75818C9.34985 7.13086 9.04769 7.43281 8.67505 7.43298H3.44556C3.26606 7.43298 3.12036 7.57869 3.12036 7.75818V9.43787H5.12622C5.49875 9.43818 5.80103 9.74007 5.80103 10.1127C5.80085 10.4851 5.49864 10.7872 5.12622 10.7875H3.12036V12.5521H3.90747C4.27993 12.5524 4.58308 12.8544 4.58325 13.2269C4.58308 13.5994 4.27993 13.9024 3.90747 13.9027H3.12036V15.6664H5.23169C5.58168 15.2044 6.13393 14.9038 6.75806 14.9037L6.95337 14.9135C7.91992 15.0114 8.67391 15.8283 8.67407 16.8207L8.66431 17.016C8.56631 17.9825 7.7504 18.7365 6.75806 18.7367L6.56177 18.7269C5.65997 18.6352 4.94254 17.9188 4.85083 17.017H2.44556C2.07276 17.017 1.77075 16.714 1.77075 16.3412V7.75818C1.77075 6.8331 2.52048 6.08337 3.44556 6.08337H8.67505ZM16.8206 6.08337C17.1933 6.08337 17.4954 6.38539 17.4954 6.75818V9.67712H17.719C18.5747 9.67719 19.3787 10.0866 19.8821 10.7787L20.6262 11.8011C21.083 12.4293 21.3293 13.1866 21.3293 13.9633V15.6224C21.3293 15.9497 21.0957 16.2227 20.7864 16.2845C20.753 16.3254 20.7179 16.3653 20.678 16.4008L20.5032 16.5551C20.1372 16.8803 19.6647 17.0599 19.175 17.0599H18.7219C18.7227 17.0535 18.7222 17.0469 18.7229 17.0404C18.6138 17.9953 17.8046 18.7365 16.8206 18.7367L16.6243 18.7269C15.7225 18.6352 15.005 17.9188 14.9133 17.017H14.1848C13.8122 17.0168 13.51 16.7139 13.51 16.3412C13.5102 15.9687 13.8123 15.6666 14.1848 15.6664H15.2942C15.5108 15.3804 15.8044 15.1574 16.1458 15.0287V12.1185H10.2424C9.86986 12.1184 9.56782 11.8163 9.56763 11.4437C9.56763 11.071 9.86974 10.769 10.2424 10.7689H16.1458V7.43298H11.3098C10.9372 7.43281 10.635 7.13086 10.635 6.75818C10.635 6.38549 10.9372 6.08355 11.3098 6.08337H16.8206ZM16.8206 16.2533C16.5079 16.2535 16.2534 16.508 16.2532 16.8207C16.2533 17.1334 16.5079 17.3869 16.8206 17.3871C17.1333 17.3869 17.3868 17.1334 17.387 16.8207C17.3868 16.508 17.1333 16.2535 16.8206 16.2533ZM6.75806 16.2533C6.44535 16.2535 6.19085 16.508 6.19067 16.8207C6.19085 17.1334 6.44535 17.3869 6.75806 17.3871C7.07076 17.3869 7.32429 17.1334 7.32446 16.8207C7.32429 16.508 7.07076 16.2535 6.75806 16.2533ZM12.0286 15.6664C12.4012 15.6664 12.7042 15.9685 12.7043 16.3412C12.7043 16.714 12.4014 17.017 12.0286 17.017H8.71899C8.72265 16.9686 8.72485 16.9198 8.72485 16.8705C8.72485 16.4144 8.56511 15.9955 8.29907 15.6664H12.0286ZM18.7024 16.4584C18.7249 16.5757 18.7366 16.6968 18.7366 16.8207H18.7375C18.7375 16.6363 18.7109 16.4581 18.6624 16.2894L18.7024 16.4584ZM18.4553 15.8217C18.5327 15.9481 18.5952 16.0843 18.6418 16.2279C18.5953 16.0847 18.5334 15.9488 18.4563 15.8226L18.4553 15.8217ZM18.2385 15.5306C18.1244 15.4054 17.9943 15.295 17.8508 15.2035C17.9942 15.2951 18.1245 15.4054 18.2385 15.5306ZM17.5022 14.9476H19.9788V13.9633C19.9788 13.4719 19.8234 12.9925 19.5344 12.5951L18.7903 11.5726C18.541 11.2299 18.1428 11.0268 17.719 11.0267H17.5393L17.5022 14.9476Z" fill="#332A2A"/>
</g>
<defs>
<clipPath id="clip0_607_4675">
<rect width="23" height="23" fill="white"/>
</clipPath>
</defs>
</svg>
