<svg width="18" height="18" viewBox="0 0 18 18" fill="none" xmlns="http://www.w3.org/2000/svg">
<g clip-path="url(#clip0_607_4644)">
<path fill-rule="evenodd" clip-rule="evenodd" d="M2.875 5.75C2.59886 5.75 2.375 5.97386 2.375 6.25V7.375H3.97246C4.2486 7.375 4.47246 7.59886 4.47246 7.875C4.47246 8.15114 4.2486 8.375 3.97246 8.375H2.375V9.8125H3.01907C3.29521 9.8125 3.51907 10.0364 3.51907 10.3125C3.51907 10.5886 3.29521 10.8125 3.01907 10.8125H2.375V12.25H4.03151C4.30381 11.8715 4.74812 11.625 5.25 11.625C5.75188 11.625 6.19619 11.8715 6.46849 12.25H7.5H9.375C9.65114 12.25 9.875 12.4739 9.875 12.75C9.875 13.0261 9.65114 13.25 9.375 13.25H7.5H6.74487C6.68135 14.0199 6.03633 14.625 5.25 14.625C4.46367 14.625 3.81865 14.0199 3.75513 13.25H1.875C1.59886 13.25 1.375 13.0261 1.375 12.75V10.3125V7.875V6.25C1.375 5.42157 2.04657 4.75 2.875 4.75H4.6875H6.75C7.02614 4.75 7.25 4.97386 7.25 5.25C7.25 5.52614 7.02614 5.75 6.75 5.75H4.6875H2.875ZM8.3125 5.25C8.3125 4.97386 8.53636 4.75 8.8125 4.75H13.125C13.4011 4.75 13.625 4.97386 13.625 5.25V7.56257C14.4179 7.5684 15.1616 7.95019 15.6284 8.59207L16.1468 9.30494C16.4576 9.73224 16.625 10.247 16.625 10.7754V12.1875C16.625 12.4238 16.4611 12.6218 16.2407 12.674C16.1987 12.7348 16.1492 12.791 16.093 12.841C15.7513 13.1447 15.31 13.3125 14.8528 13.3125H14.6134C14.5211 14.0524 13.8899 14.625 13.125 14.625C12.3387 14.625 11.6937 14.0199 11.6301 13.25H11.0625C10.7864 13.25 10.5625 13.0261 10.5625 12.75C10.5625 12.4739 10.7864 12.25 11.0625 12.25H11.9065C12.0837 12.0037 12.3337 11.8133 12.625 11.7104V9.41667H7.9767C7.70055 9.41667 7.4767 9.19281 7.4767 8.91667C7.4767 8.64052 7.70055 8.41667 7.9767 8.41667H12.625V8.0625V5.75H8.8125C8.53636 5.75 8.3125 5.52614 8.3125 5.25ZM13.625 8.91667V11.6875H15.625V10.7754C15.625 10.4584 15.5246 10.1495 15.3381 9.89311L14.8197 9.18024C14.541 8.7971 14.098 8.56842 13.625 8.56261V8.91667ZM5.25 13.625C5.52614 13.625 5.75 13.4011 5.75 13.125C5.75 12.8489 5.52614 12.625 5.25 12.625C4.97386 12.625 4.75 12.8489 4.75 13.125C4.75 13.4011 4.97386 13.625 5.25 13.625ZM13.625 13.125C13.625 13.4011 13.4011 13.625 13.125 13.625C12.8489 13.625 12.625 13.4011 12.625 13.125C12.625 12.8489 12.8489 12.625 13.125 12.625C13.4011 12.625 13.625 12.8489 13.625 13.125Z" fill="#252323"/>
</g>
<defs>
<clipPath id="clip0_607_4644">
<rect width="18" height="18" fill="white"/>
</clipPath>
</defs>
</svg>
