<svg width="18" height="18" viewBox="0 0 18 18" fill="none" xmlns="http://www.w3.org/2000/svg">
<g clip-path="url(#clip0_607_4676)">
<path fill-rule="evenodd" clip-rule="evenodd" d="M1.875 5.25H13.125V8.25H13.5H14.8125L16.125 10.3125V12.1875H13.125L13.125 11.625C12.4261 11.625 11.8388 12.103 11.6723 12.75H6.70274C6.53623 12.103 5.94894 11.625 5.25 11.625C4.55106 11.625 3.96377 12.103 3.79726 12.75H1.875V5.25Z" fill="#E05149"/>
<path fill-rule="evenodd" clip-rule="evenodd" d="M2.875 5.875C2.66789 5.875 2.5 6.04289 2.5 6.25V7.25H3.97246C4.31764 7.25 4.59746 7.52982 4.59746 7.875C4.59746 8.22018 4.31764 8.5 3.97246 8.5H2.5V9.6875H3.01907C3.36425 9.6875 3.64407 9.96732 3.64407 10.3125C3.64407 10.6577 3.36425 10.9375 3.01907 10.9375H2.5V12.125H4.13195C4.40661 11.8181 4.80575 11.625 5.25 11.625C5.69425 11.625 6.09339 11.8181 6.36805 12.125H7.5H9.375C9.72018 12.125 10 12.4048 10 12.75C10 13.0952 9.72018 13.375 9.375 13.375H7.5H6.72926C6.61024 14.0844 5.99325 14.625 5.25 14.625C4.50675 14.625 3.88976 14.0844 3.77074 13.375H1.875C1.52982 13.375 1.25 13.0952 1.25 12.75V10.3125V7.875V6.25C1.25 5.35254 1.97754 4.625 2.875 4.625H4.6875H6.75C7.09518 4.625 7.375 4.90482 7.375 5.25C7.375 5.59518 7.09518 5.875 6.75 5.875H4.6875H2.875ZM8.1875 5.25C8.1875 4.90482 8.46732 4.625 8.8125 4.625H13.125C13.4702 4.625 13.75 4.90482 13.75 5.25V7.44141C14.5356 7.48434 15.2637 7.87816 15.7295 8.51855L16.2479 9.23142C16.5742 9.68008 16.75 10.2206 16.75 10.7754V12.1875C16.75 12.4971 16.5249 12.7541 16.2295 12.8038C16.1702 12.8832 16.0972 12.9532 16.0127 13.0101C15.7192 13.2072 15.3737 13.3125 15.0202 13.3125H14.6134C14.6211 13.2511 14.625 13.1885 14.625 13.125C14.625 13.0178 14.6138 12.9133 14.5924 12.8125H14.5924C14.6138 12.9133 14.625 13.0178 14.625 13.125C14.625 13.9534 13.9534 14.625 13.125 14.625C12.3818 14.625 11.7648 14.0844 11.6457 13.375H11.0625C10.7173 13.375 10.4375 13.0952 10.4375 12.75C10.4375 12.4048 10.7173 12.125 11.0625 12.125H12.0069C12.1437 11.9722 12.3112 11.8477 12.4998 11.7611L12.5 11.75V9.54167H7.9767C7.63152 9.54167 7.3517 9.26185 7.3517 8.91667C7.3517 8.57149 7.63152 8.29167 7.9767 8.29167H12.5V8.0625V5.875H8.8125C8.46732 5.875 8.1875 5.59518 8.1875 5.25ZM13.75 8.91667V11.5625H15.5V10.7754C15.5 10.4848 15.4079 10.2016 15.237 9.96663L14.7186 9.25376C14.4882 8.93696 14.1352 8.73536 13.75 8.69499V8.91667ZM5.25 13.625C5.52614 13.625 5.75 13.4011 5.75 13.125C5.75 12.8489 5.52614 12.625 5.25 12.625C4.97386 12.625 4.75 12.8489 4.75 13.125C4.75 13.4011 4.97386 13.625 5.25 13.625ZM13.625 13.125C13.625 13.4011 13.4011 13.625 13.125 13.625C12.8489 13.625 12.625 13.4011 12.625 13.125C12.625 12.8489 12.8489 12.625 13.125 12.625C13.4011 12.625 13.625 12.8489 13.625 13.125Z" fill="#332A2A"/>
</g>
<defs>
<clipPath id="clip0_607_4676">
<rect width="18" height="18" fill="white"/>
</clipPath>
</defs>
</svg>
