<svg width="44" height="44" viewBox="0 0 44 44" fill="none" xmlns="http://www.w3.org/2000/svg">
<g clip-path="url(#clip0_607_4673)">
<path fill-rule="evenodd" clip-rule="evenodd" d="M4.58325 12.8334H32.0833L32.0833 20.1667H32.9999H36.2083L39.4166 25.2084V29.7917H32.0833L32.0833 28.4167C30.3747 28.4167 28.9391 29.5852 28.5321 31.1667H16.3844C15.9774 29.5852 14.5418 28.4167 12.8333 28.4167C11.1247 28.4167 9.68914 29.5852 9.2821 31.1667H4.58325V12.8334Z" fill="#E05149"/>
<path fill-rule="evenodd" clip-rule="evenodd" d="M5.58325 13.5834C5.44518 13.5834 5.33325 13.6953 5.33325 13.8334V18.5H9.71037C10.1246 18.5 10.4604 18.8358 10.4604 19.25C10.4604 19.6643 10.1246 20 9.71037 20H5.33325V24.4584H7.37986C7.79408 24.4584 8.12986 24.7942 8.12986 25.2084C8.12986 25.6226 7.79408 25.9584 7.37986 25.9584H5.33325V30.4167H9.56639C10.1733 29.2295 11.4084 28.4167 12.8333 28.4167C14.2581 28.4167 15.4932 29.2295 16.1001 30.4167H18.3333H22.9166C23.3308 30.4167 23.6666 30.7525 23.6666 31.1667C23.6666 31.5809 23.3308 31.9167 22.9166 31.9167H18.3333H16.4962C16.4987 31.972 16.4999 32.0275 16.4999 32.0834C16.4999 34.1084 14.8583 35.75 12.8333 35.75C10.8082 35.75 9.16658 34.1084 9.16658 32.0834C9.16658 32.0275 9.16783 31.972 9.17031 31.9167H4.58325C4.16904 31.9167 3.83325 31.5809 3.83325 31.1667V25.2084V19.25V13.8334C3.83325 12.8669 4.61675 12.0834 5.58325 12.0834H11.4583H16.4999C16.9141 12.0834 17.2499 12.4192 17.2499 12.8334C17.2499 13.2476 16.9141 13.5834 16.4999 13.5834H11.4583H5.58325ZM20.7916 12.8334C20.7916 12.4192 21.1274 12.0834 21.5416 12.0834H32.0833C32.4975 12.0834 32.8333 12.4192 32.8333 12.8334V18.9584H34.7315C35.6113 18.9584 36.438 19.3794 36.9555 20.0909L38.6843 22.468C39.6477 23.7926 40.1666 25.3884 40.1666 27.0263V29.7917C40.1666 29.8984 40.1443 30 40.1041 30.0919V30.2593C40.1041 30.5449 39.9819 30.8169 39.7685 31.0067L38.6099 32.0365C38.2438 32.3619 37.771 32.5417 37.2812 32.5417H35.7216C35.496 34.3504 33.9531 35.75 32.0833 35.75C30.0582 35.75 28.4166 34.1084 28.4166 32.0834C28.4166 32.0275 28.4178 31.972 28.4203 31.9167H27.0416C26.6274 31.9167 26.2916 31.5809 26.2916 31.1667C26.2916 30.7525 26.6274 30.4167 27.0416 30.4167H28.8164C29.3138 29.4436 30.2332 28.7221 31.3333 28.4935L31.3333 22.5463H19.4985C19.0843 22.5463 18.7485 22.2106 18.7485 21.7963C18.7485 21.3821 19.0843 21.0463 19.4985 21.0463H31.3333V19.7084L31.3333 19.7067V13.5834H21.5416C21.1274 13.5834 20.7916 13.2476 20.7916 12.8334ZM34.1315 29.0417H38.6666V27.0263C38.6666 25.7054 38.2481 24.4185 37.4712 23.3503L35.7424 20.9732C35.5072 20.6497 35.1314 20.4584 34.7315 20.4584H32.8333V21.7963L32.8332 28.4935C33.3057 28.5917 33.7448 28.7808 34.1315 29.0417ZM12.8333 34.25C14.0299 34.25 14.9999 33.28 14.9999 32.0834C14.9999 30.8868 14.0299 29.9167 12.8333 29.9167C11.6366 29.9167 10.6666 30.8868 10.6666 32.0834C10.6666 33.28 11.6366 34.25 12.8333 34.25ZM34.2499 32.0834C34.2499 33.28 33.2799 34.25 32.0833 34.25C30.8866 34.25 29.9166 33.28 29.9166 32.0834C29.9166 30.8868 30.8866 29.9167 32.0833 29.9167C33.2799 29.9167 34.2499 30.8868 34.2499 32.0834Z" fill="#332A2A"/>
</g>
<defs>
<clipPath id="clip0_607_4673">
<rect width="44" height="44" fill="white"/>
</clipPath>
</defs>
</svg>
