<svg width="23" height="23" viewBox="0 0 23 23" fill="none" xmlns="http://www.w3.org/2000/svg">
<g clip-path="url(#clip0_607_4615)">
<path fill-rule="evenodd" clip-rule="evenodd" d="M3.39575 7.33337C3.18864 7.33337 3.02075 7.50127 3.02075 7.70837V9.43754H5.07584C5.42102 9.43754 5.70084 9.71736 5.70084 10.0625C5.70084 10.4077 5.42102 10.6875 5.07584 10.6875H3.02075V12.5521H3.85762C4.20279 12.5521 4.48262 12.8319 4.48262 13.1771C4.48262 13.5223 4.20279 13.8021 3.85762 13.8021H3.02075V15.6667H5.1414C5.4884 15.1752 6.06084 14.8542 6.70825 14.8542C7.35566 14.8542 7.9281 15.1752 8.27511 15.6667H9.58325H11.9791C12.3243 15.6667 12.6041 15.9465 12.6041 16.2917C12.6041 16.6369 12.3243 16.9167 11.9791 16.9167H9.58325H8.61945C8.54494 17.9071 7.71773 18.6875 6.70825 18.6875C5.69877 18.6875 4.87156 17.9071 4.79705 16.9167H2.39575C2.05057 16.9167 1.77075 16.6369 1.77075 16.2917V13.1771V10.0625V7.70837C1.77075 6.81091 2.49829 6.08337 3.39575 6.08337H5.9895H8.62492C8.9701 6.08337 9.24992 6.3632 9.24992 6.70837C9.24992 7.05355 8.9701 7.33337 8.62492 7.33337H5.9895H3.39575ZM10.6353 6.70837C10.6353 6.3632 10.9152 6.08337 11.2603 6.08337H16.7708C17.1159 6.08337 17.3958 6.3632 17.3958 6.70837V9.67712H17.669C18.5088 9.67712 19.2979 10.079 19.7919 10.7582L20.5358 11.781C20.9864 12.4006 21.2291 13.147 21.2291 13.9131V15.573C21.2291 15.8546 21.0428 16.0928 20.7866 16.1709C20.7415 16.2363 20.6883 16.2967 20.6278 16.3505L20.4537 16.5053C20.0876 16.8307 19.6148 17.0105 19.1249 17.0105H18.6726C18.5547 17.9559 17.7482 18.6875 16.7708 18.6875C15.7613 18.6875 14.9341 17.9071 14.8595 16.9167H14.1353C13.7902 16.9167 13.5103 16.6369 13.5103 16.2917C13.5103 15.9465 13.7902 15.6667 14.1353 15.6667H15.2039C15.4407 15.3312 15.7826 15.0752 16.1816 14.9465C16.1696 14.9503 16.1577 14.9543 16.1458 14.9584V12.0186H10.1924C9.84719 12.0186 9.56736 11.7387 9.56736 11.3936C9.56736 11.0484 9.84719 10.7686 10.1924 10.7686H16.1458V10.3021V7.33337H11.2603C10.9152 7.33337 10.6353 7.05355 10.6353 6.70837ZM17.3958 11.3925L17.3958 11.3936L17.3958 11.3947V14.948H19.9791V13.9131C19.9791 13.4112 19.8201 12.9221 19.5248 12.5162L18.781 11.4934C18.5222 11.1376 18.1089 10.9271 17.669 10.9271H17.3958V11.3925ZM6.70825 17.4375C7.07644 17.4375 7.37492 17.1391 7.37492 16.7709C7.37492 16.4027 7.07644 16.1042 6.70825 16.1042C6.34006 16.1042 6.04159 16.4027 6.04159 16.7709C6.04159 17.1391 6.34006 17.4375 6.70825 17.4375ZM17.4374 16.7709C17.4374 17.1391 17.1389 17.4375 16.7708 17.4375C16.4026 17.4375 16.1041 17.1391 16.1041 16.7709C16.1041 16.4027 16.4026 16.1042 16.7708 16.1042C17.1389 16.1042 17.4374 16.4027 17.4374 16.7709Z" fill="#252323"/>
</g>
<defs>
<clipPath id="clip0_607_4615">
<rect width="23" height="23" fill="white"/>
</clipPath>
</defs>
</svg>
