<svg width="44" height="44" viewBox="0 0 44 44" fill="none" xmlns="http://www.w3.org/2000/svg">
<g clip-path="url(#clip0_189_523)">
<path fill-rule="evenodd" clip-rule="evenodd" d="M32.4727 8.67319C32.5893 8.50243 32.6352 8.28452 32.5811 8.06815C32.4806 7.66631 32.0734 7.42199 31.6716 7.52245L29.6533 8.02702C29.3911 8.09256 29.1845 8.29403 29.1124 8.55443C29.0403 8.81483 29.1138 9.0939 29.3048 9.28496L30.314 10.2941C30.6069 10.587 31.0818 10.587 31.3747 10.2941C31.4643 10.2044 31.5265 10.0977 31.5613 9.98441L36.7845 11.3589C36.668 11.5297 36.6221 11.7476 36.6762 11.964C36.7767 12.3658 37.1839 12.6101 37.5857 12.5097L39.604 12.0051C39.8067 11.9544 39.979 11.8215 40.0796 11.6384C40.1801 11.4553 40.1997 11.2385 40.1336 11.0403L39.629 9.52661C39.4981 9.13365 39.0733 8.92128 38.6804 9.05227C38.2874 9.18325 38.075 9.60799 38.206 10.001L38.2721 10.1993L32.4727 8.67319ZM26.1042 10.0924C26.2637 10.0185 26.4442 10.003 26.614 10.0485L35.8321 12.5219C36.1599 12.6099 36.3878 12.9069 36.3878 13.2463V28.5814C36.3878 28.8735 36.2182 29.1391 35.9532 29.2619L19.9426 36.6821C19.7831 36.756 19.6027 36.7716 19.4329 36.726L10.2147 34.2526C9.88693 34.1647 9.65906 33.8676 9.65906 33.5282V22.584L6.07498 21.6065C6.03935 21.7135 5.97894 21.8141 5.89374 21.8993C5.60085 22.1922 5.12598 22.1922 4.83308 21.8993L3.82394 20.8902C3.63287 20.6991 3.55935 20.42 3.63148 20.1596C3.70361 19.8992 3.91023 19.6978 4.17236 19.6322L6.19066 19.1276C6.59251 19.0272 6.99971 19.2715 7.10017 19.6734C7.15635 19.8981 7.1047 20.1245 6.97797 20.298L9.65906 21.0292V18.1931C9.65906 17.901 9.82866 17.6355 10.0937 17.5126L26.1042 10.0924ZM11.1591 22.9931L12.8312 23.4491C12.7045 23.6226 12.6528 23.849 12.709 24.0738C12.8095 24.4756 13.2167 24.7199 13.6185 24.6195L15.6368 24.1149C15.8419 24.0636 16.0159 23.9281 16.1158 23.7418C16.2158 23.5555 16.2324 23.3356 16.1617 23.1363L15.8319 22.2074C15.6933 21.8171 15.2645 21.613 14.8742 21.7516C14.6137 21.8441 14.4362 22.0657 14.3881 22.3189L11.1591 21.4383V19.1709L18.8772 21.2418V28.3341V35.0239L11.1591 32.9529V22.9931ZM26.4881 11.5678L12.5998 18.0044L19.5588 19.8716L33.447 13.435L26.4881 11.5678ZM34.8878 14.4205L20.3772 21.1456V28.3341V34.8274L34.8878 28.1024V14.4205Z" fill="#332A2A"/>
</g>
<defs>
<clipPath id="clip0_189_523">
<rect width="44" height="44" fill="white"/>
</clipPath>
</defs>
</svg>
