<svg width="18" height="18" viewBox="0 0 18 18" fill="none" xmlns="http://www.w3.org/2000/svg">
<g clip-path="url(#clip0_607_3545)">
<path fill-rule="evenodd" clip-rule="evenodd" d="M12.8815 3.93427C12.8707 3.94756 12.8591 3.96042 12.8467 3.9728C12.6514 4.16806 12.3349 4.16806 12.1396 3.9728L11.7268 3.55997C11.5994 3.43259 11.5504 3.24655 11.5985 3.07295C11.6465 2.89935 11.7843 2.76503 11.9591 2.72134L12.7847 2.51492C13.0526 2.44795 13.3241 2.61083 13.3911 2.87873C13.4044 2.9322 13.4086 2.98581 13.4047 3.03791L15.3025 3.53733C15.332 3.36054 15.4558 3.20553 15.6377 3.14491C15.8997 3.05758 16.1828 3.19916 16.2702 3.46113L16.4766 4.08038C16.5206 4.21251 16.5076 4.35702 16.4405 4.4791C16.3735 4.60119 16.2586 4.68979 16.1235 4.72357L15.2978 4.92999C15.0299 4.99696 14.7585 4.83408 14.6915 4.56618C14.6781 4.51271 14.6739 4.4591 14.6779 4.407L12.8815 3.93427ZM10.5977 3.95341C10.7041 3.90412 10.8244 3.89376 10.9376 3.92414L14.7086 4.93598C14.9271 4.99461 15.0791 5.19266 15.0791 5.4189V11.6924C15.0791 11.8871 14.966 12.0641 14.7893 12.146L8.23954 15.1815C8.1332 15.2308 8.01293 15.2412 7.89972 15.2108L4.12864 14.199C3.91014 14.1403 3.75822 13.9423 3.75822 13.7161V9.38641L2.57641 9.0641C2.56734 9.07482 2.55776 9.08526 2.54765 9.09537C2.35239 9.29063 2.0358 9.29063 1.84054 9.09537L1.42771 8.68253C1.30033 8.55516 1.25132 8.36911 1.2994 8.19551C1.34749 8.02191 1.48524 7.8876 1.65999 7.84391L2.48566 7.63749C2.75356 7.57052 3.02503 7.7334 3.092 8.00129C3.10632 8.05859 3.11013 8.11605 3.10465 8.17164L3.75822 8.34989V7.4426C3.75822 7.24786 3.87129 7.07084 4.04797 6.98895L10.5977 3.95341ZM4.75822 9.65914L4.99904 9.72482C4.99356 9.78041 4.99737 9.83787 5.01169 9.89516C5.07867 10.1631 5.35014 10.3259 5.61803 10.259L6.4437 10.0526C6.58045 10.0184 6.69642 9.92804 6.76305 9.80382C6.82968 9.6796 6.84078 9.53302 6.79361 9.40018L6.65869 9.02018C6.5663 8.75996 6.28044 8.6239 6.02022 8.7163C5.91831 8.75248 5.83544 8.81834 5.77788 8.9007L4.75822 8.62261V8.09444L7.5293 8.83797V11.5912V14.0761L4.75822 13.3325V9.65914ZM10.8536 4.93699L5.71874 7.3168L7.98365 7.92451L13.1185 5.5447L10.8536 4.93699ZM14.0791 6.20172L8.5293 8.7738V11.5912V13.9451L14.0791 11.373V6.20172Z" fill="#332A2A"/>
</g>
<defs>
<clipPath id="clip0_607_3545">
<rect width="18" height="18" fill="white"/>
</clipPath>
</defs>
</svg>
