<svg width="28" height="28" viewBox="0 0 28 28" fill="none" xmlns="http://www.w3.org/2000/svg">
<g clip-path="url(#clip0_607_3519)">
<path fill-rule="evenodd" clip-rule="evenodd" d="M20.0972 6.29835C20.0779 6.32327 20.0568 6.34726 20.034 6.37013C19.7411 6.66302 19.2662 6.66302 18.9733 6.37013L18.3311 5.72794C18.1401 5.53688 18.0665 5.25781 18.1387 4.99741C18.2108 4.73701 18.4174 4.53554 18.6796 4.47001L19.9639 4.14891C20.3658 4.04845 20.773 4.29277 20.8734 4.69462C20.8955 4.78271 20.9009 4.87105 20.8918 4.95637L23.8967 5.74714C23.9314 5.46954 24.1208 5.22266 24.404 5.12829C24.7969 4.9973 25.2217 5.20967 25.3526 5.60263L25.6737 6.56591C25.7398 6.76409 25.7202 6.98085 25.6197 7.16398C25.5191 7.34711 25.3468 7.48002 25.1441 7.53068L23.8597 7.85178C23.4579 7.95224 23.0507 7.70792 22.9502 7.30607C22.9282 7.21798 22.9228 7.12964 22.9319 7.04432L20.0972 6.29835ZM16.497 6.17498C16.6565 6.10106 16.8369 6.08552 17.0067 6.13108L22.8728 7.70506C23.2006 7.79301 23.4285 8.09008 23.4285 8.42944V18.1881C23.4285 18.4803 23.2589 18.7458 22.9938 18.8686L12.8053 23.5906C12.6458 23.6645 12.4654 23.68 12.2956 23.6345L6.42945 22.0605C6.10169 21.9725 5.87382 21.6755 5.87382 21.3361V14.5799L3.99765 14.0682C3.98082 14.0891 3.96269 14.1093 3.94329 14.1287C3.65039 14.4216 3.17552 14.4216 2.88263 14.1287L2.24044 13.4866C2.04938 13.2955 1.97586 13.0164 2.04798 12.756C2.12011 12.4956 2.32673 12.2942 2.58887 12.2286L3.87324 11.9075C4.27509 11.8071 4.68229 12.0514 4.78275 12.4532C4.80624 12.5472 4.81088 12.6414 4.79906 12.732L5.87382 13.0251V11.5774C5.87382 11.2853 6.04342 11.0198 6.30845 10.8969L16.497 6.17498ZM7.37382 14.989L7.80652 15.107C7.7947 15.1976 7.79934 15.2918 7.82283 15.3858C7.9233 15.7876 8.3305 16.0319 8.73234 15.9315L10.0167 15.6104C10.2218 15.5591 10.3958 15.4236 10.4957 15.2373C10.5957 15.051 10.6123 14.8311 10.5416 14.6318L10.3317 14.0407C10.1931 13.6504 9.76433 13.4463 9.37399 13.5849C9.21455 13.6415 9.08618 13.7465 8.99955 13.8776L7.37382 13.4342V12.5552L11.7399 13.7267V18.0307V21.9323L7.37382 20.7608V14.989ZM16.8808 7.65036L8.8146 11.3887L12.4215 12.3565L20.4877 8.61814L16.8808 7.65036ZM21.9285 9.60367L13.2399 13.6304V18.0307V21.7359L21.9285 17.7091V9.60367Z" fill="#332A2A"/>
</g>
<defs>
<clipPath id="clip0_607_3519">
<rect width="28" height="28" fill="white"/>
</clipPath>
</defs>
</svg>
