<svg width="23" height="23" viewBox="0 0 23 23" fill="none" xmlns="http://www.w3.org/2000/svg">
<g clip-path="url(#clip0_607_3532)">
<path fill-rule="evenodd" clip-rule="evenodd" d="M16.4864 4.97936C16.4714 4.99846 16.455 5.01687 16.4374 5.0345C16.1933 5.27858 15.7976 5.27858 15.5535 5.0345L15.026 4.50699C14.8668 4.34777 14.8055 4.11522 14.8656 3.89822C14.9257 3.68122 15.0979 3.51332 15.3163 3.45871L16.3714 3.19496C16.7062 3.11124 17.0456 3.31484 17.1293 3.64971C17.147 3.72049 17.1518 3.79147 17.1453 3.86019L19.5965 4.50524C19.6287 4.27803 19.7854 4.07713 20.0179 3.99963C20.3453 3.89048 20.6993 4.06745 20.8084 4.39492L21.0722 5.18618C21.1273 5.35134 21.1109 5.53197 21.0272 5.68458C20.9434 5.83719 20.7997 5.94794 20.6309 5.99016L19.5758 6.25392C19.241 6.33764 18.9016 6.13404 18.8179 5.79916C18.8002 5.72838 18.7954 5.6574 18.8019 5.58868L16.4864 4.97936ZM13.5475 5.06424C13.6804 5.00263 13.8308 4.98968 13.9723 5.02765L18.7909 6.32057C19.064 6.39386 19.2539 6.64142 19.2539 6.92422V14.9403C19.2539 15.1837 19.1126 15.405 18.8917 15.5074L10.5225 19.3861C10.3896 19.4477 10.2393 19.4607 10.0978 19.4227L5.27917 18.1298C5.00603 18.0565 4.81614 17.8089 4.81614 17.5261V11.9832L3.2872 11.5662C3.27422 11.582 3.26035 11.5973 3.24559 11.6121C3.00151 11.8562 2.60578 11.8562 2.36171 11.6121L1.8342 11.0846C1.67498 10.9254 1.61371 10.6928 1.67382 10.4758C1.73392 10.2588 1.90611 10.0909 2.12455 10.0363L3.17957 9.77255C3.51444 9.68884 3.85378 9.89244 3.9375 10.2273C3.9564 10.3029 3.96066 10.3788 3.95205 10.4519L4.81614 10.6875V9.51005C4.81614 9.26662 4.95747 9.04535 5.17833 8.94299L13.5475 5.06424ZM6.06614 12.3241L6.40283 12.4159C6.39423 12.489 6.39848 12.5649 6.41739 12.6405C6.5011 12.9754 6.84044 13.179 7.17531 13.0953L8.23033 12.8315C8.40127 12.7888 8.54623 12.6759 8.62952 12.5206C8.7128 12.3653 8.72668 12.1821 8.66772 12.0161L8.49532 11.5305C8.37983 11.2052 8.02251 11.0352 7.69723 11.1506C7.56654 11.197 7.46091 11.2825 7.38879 11.3892L6.06614 11.0285V10.3249L9.63474 11.2824V14.811V18.0042L6.06614 17.0467V12.3241ZM13.8673 6.29372L7.26679 9.3528L10.2027 10.1405L16.8032 7.08147L13.8673 6.29372ZM18.0039 7.90274L10.8847 11.2022V14.811V17.8405L18.0039 14.5411V7.90274Z" fill="#252323"/>
</g>
<defs>
<clipPath id="clip0_607_3532">
<rect width="23" height="23" fill="white"/>
</clipPath>
</defs>
</svg>
