<svg width="28" height="28" viewBox="0 0 28 28" fill="none" xmlns="http://www.w3.org/2000/svg">
<g clip-path="url(#clip0_611_5909)">
<path fill-rule="evenodd" clip-rule="evenodd" d="M8.90336 8.17101C8.90336 7.68622 8.91178 6.52256 9.53335 5.48661C10.1136 4.51952 11.3206 3.51733 14.0483 3.51733C15.4832 3.51733 16.4341 3.85374 17.0737 4.29572C17.4145 4.5312 17.8816 4.44585 18.1171 4.10508C18.3526 3.76431 18.2672 3.29717 17.9265 3.06169C16.9884 2.41345 15.724 2.01733 14.0483 2.01733C10.8811 2.01733 9.14058 3.22575 8.24711 4.71487C7.40304 6.12164 7.40328 7.6441 7.40336 8.15655L7.40336 8.17101L7.40336 9.89036V11.6097V14.7489C6.75598 14.9926 6.29541 15.6176 6.29541 16.3501C6.29541 17.0878 6.76235 17.7163 7.41675 17.9563V21.2917V23.1875V24.5C7.41675 25.2364 8.01371 25.8334 8.75009 25.8334C9.48647 25.8334 10.0834 25.2364 10.0834 24.5V18.0604H17.3334V24.5C17.3334 25.2364 17.9304 25.8334 18.6668 25.8334C19.4031 25.8334 20.0001 25.2364 20.0001 24.5V21.2917V19.3959V17.9948C20.7157 17.7903 21.2395 17.1314 21.2395 16.3501C21.2395 15.6444 20.8121 15.0385 20.202 14.7772L20.202 8.17101V8.15995C20.202 7.71004 20.2021 6.4861 19.6807 5.25017C19.5197 4.86853 19.0797 4.68968 18.6981 4.85069C18.3165 5.0117 18.1376 5.4516 18.2986 5.83324C18.6975 6.77864 18.702 7.74579 18.702 8.17101L18.702 14.6399L8.90336 14.6399V11.6097V9.89036V8.17101ZM7.79541 16.3501C7.79541 16.234 7.88956 16.1399 8.0057 16.1399L19.5292 16.1399C19.6454 16.1399 19.7395 16.234 19.7395 16.3501C19.7395 16.4663 19.6454 16.5604 19.5292 16.5604L8.0057 16.5604C7.88956 16.5604 7.79541 16.4663 7.79541 16.3501Z" fill="#252323"/>
</g>
<defs>
<clipPath id="clip0_611_5909">
<rect width="28" height="28" fill="white"/>
</clipPath>
</defs>
</svg>
