<svg width="23" height="23" viewBox="0 0 23 23" fill="none" xmlns="http://www.w3.org/2000/svg">
<g clip-path="url(#clip0_611_5878)">
<path d="M11.5395 2.27319C6.69727 2.27319 6.69727 5.90488 6.69727 6.71192L6.69727 8.12425L6.69727 9.53658L6.69727 12.3612L15.9783 12.3612L15.9783 6.71192C15.9783 6.35631 15.9783 5.45226 15.5985 4.55214C15.5101 4.19987 15.1416 3.40063 14.3749 3.02182C13.7269 2.57405 12.8171 2.27319 11.5395 2.27319Z" fill="#E05149"/>
<path d="M7.6666 14.3751L6.69727 14.3751L6.69727 20.3647L7.18743 20.6042L7.6666 20.3647L7.6666 14.3751Z" fill="#E05149"/>
<path d="M14.8541 20.1251L14.8541 14.3751L15.8124 14.3751L15.8124 20.3647L15.3333 20.6042L14.8541 20.1251Z" fill="#E05149"/>
<path d="M11.5891 1.64819C12.975 1.6482 14.0265 1.97577 14.8088 2.51636C15.1154 2.72831 15.1926 3.14917 14.9807 3.45581C14.7688 3.7624 14.3479 3.83858 14.0413 3.62671C13.5276 3.2718 12.7582 2.99781 11.5891 2.9978C9.36655 2.99791 8.3963 3.81298 7.93188 4.58667C7.43048 5.42235 7.42212 6.36362 7.42212 6.76147V12.0164H15.3538V6.76147C15.3538 6.41267 15.3492 5.62858 15.0266 4.86401C14.8819 4.52068 15.0428 4.12517 15.386 3.98022C15.7295 3.83535 16.1258 3.99614 16.2708 4.3396C16.7075 5.37479 16.7034 6.39873 16.7034 6.76147V12.1511C17.2062 12.3828 17.5558 12.8904 17.5559 13.4802C17.5558 14.1327 17.1282 14.6848 16.5383 14.8738V20.1746C16.5383 20.8117 16.0211 21.3284 15.384 21.3289C14.7466 21.3289 14.2297 20.812 14.2297 20.1746V14.9441H8.39185V20.1746C8.39185 20.8119 7.87483 21.3287 7.23755 21.3289C6.60021 21.3287 6.08325 20.8119 6.08325 20.1746V14.8386C5.54402 14.6228 5.16246 14.0965 5.16235 13.4802C5.16249 12.868 5.53879 12.3441 6.07251 12.1257V6.76147C6.07251 6.35186 6.06478 5.07383 6.77368 3.89233C7.51988 2.64872 8.97054 1.64831 11.5891 1.64819ZM6.62622 13.366C6.56348 13.366 6.51215 13.4175 6.51196 13.4802C6.5121 13.543 6.56345 13.5935 6.62622 13.5935H16.092C16.1547 13.5933 16.2052 13.5429 16.2053 13.4802C16.2051 13.4176 16.1546 13.3661 16.092 13.366H6.62622Z" fill="#332A2A"/>
</g>
<defs>
<clipPath id="clip0_611_5878">
<rect width="23" height="23" fill="white"/>
</clipPath>
</defs>
</svg>
