<svg width="18" height="18" viewBox="0 0 18 18" fill="none" xmlns="http://www.w3.org/2000/svg">
<g clip-path="url(#clip0_611_5911)">
<path d="M9.03101 1.15405C10.1308 1.15412 10.9739 1.41413 11.6052 1.85034C11.8892 2.04658 11.9597 2.4365 11.7634 2.72046C11.5671 3.00404 11.1781 3.07479 10.8943 2.87866C10.5116 2.61437 9.92991 2.40412 9.03101 2.40405C7.31989 2.40414 6.59397 3.02848 6.25073 3.60034C5.87327 4.22956 5.86597 4.94221 5.86597 5.25269V9.26831H11.8796V5.25269C11.8796 4.98073 11.8759 4.38441 11.6316 3.80542C11.4976 3.48752 11.6468 3.12133 11.9646 2.98706C12.2825 2.85306 12.6488 3.0022 12.783 3.32007C13.1328 4.14957 13.1296 4.96786 13.1296 5.25269V9.58276C13.3425 9.7874 13.4753 10.0747 13.4753 10.3933C13.4753 10.7725 13.2872 11.1075 12.9998 11.3113V15.7498C12.9998 16.302 12.552 16.7498 11.9998 16.7498C11.4476 16.7497 10.9998 16.302 10.9998 15.7498V11.5183H6.62476V15.7498C6.62476 16.302 6.17704 16.7498 5.62476 16.7498C5.07256 16.7497 4.62476 16.302 4.62476 15.7498V11.2517C4.38094 11.0453 4.22534 10.7378 4.22534 10.3933C4.22541 10.0529 4.37695 9.748 4.61597 9.54175V5.25269C4.61596 4.93138 4.60905 3.90711 5.17847 2.95776C5.78264 1.95081 6.95331 1.15415 9.03101 1.15405Z" fill="#332A2A"/>
</g>
<defs>
<clipPath id="clip0_611_5911">
<rect width="18" height="18" fill="white"/>
</clipPath>
</defs>
</svg>
