<svg width="23" height="23" viewBox="0 0 23 23" fill="none" xmlns="http://www.w3.org/2000/svg">
<g clip-path="url(#clip0_611_5878)">
<path d="M11.5395 2.27319C6.69727 2.27319 6.69727 5.90488 6.69727 6.71192L6.69727 8.12425L6.69727 9.53658L6.69727 12.3612L15.9783 12.3612L15.9783 6.71192C15.9783 6.35631 15.9783 5.45226 15.5985 4.55214C15.5101 4.19987 15.1416 3.40063 14.3749 3.02182C13.7269 2.57405 12.8171 2.27319 11.5395 2.27319Z" fill="#E05149"/>
<path d="M7.6666 14.3751L6.69727 14.3751L6.69727 20.3647L7.18743 20.6042L7.6666 20.3647L7.6666 14.3751Z" fill="#E05149"/>
<path d="M14.8541 20.1251L14.8541 14.3751L15.8124 14.3751L15.8124 20.3647L15.3333 20.6042L14.8541 20.1251Z" fill="#E05149"/>
<path fill-rule="evenodd" clip-rule="evenodd" d="M7.37241 6.71188C7.37241 6.31417 7.37998 5.37301 7.8815 4.53715C8.34583 3.76326 9.31631 2.94814 11.5397 2.94814C12.7089 2.94814 13.4777 3.22214 13.9913 3.57708C14.298 3.78902 14.7184 3.7122 14.9304 3.40551C15.1423 3.09882 15.0655 2.67839 14.7588 2.46646C13.9765 1.92587 12.9256 1.59814 11.5397 1.59814C8.92076 1.59814 7.47011 2.59887 6.72388 3.84259C6.02209 5.01223 6.02233 6.27638 6.02241 6.69903L6.02241 6.71188V8.1242V9.53653V12.075C5.48848 12.2933 5.1123 12.818 5.1123 13.4305C5.1123 14.0471 5.49366 14.5748 6.03341 14.7904V17.4896V19.0469V20.125C6.03341 20.7624 6.55015 21.2792 7.18757 21.2792C7.825 21.2792 8.34174 20.7624 8.34174 20.125L8.34174 14.8943H14.1792V20.125C14.1792 20.7624 14.696 21.2792 15.3334 21.2792C15.9708 21.2792 16.4876 20.7624 16.4876 20.125V17.4896V15.9323V14.8252C17.0781 14.6366 17.5057 14.0835 17.5057 13.4305C17.5057 12.8403 17.1565 12.3317 16.6534 12.1001L16.6534 6.71188V6.70203C16.6534 6.33108 16.6535 5.31596 16.2206 4.28971C16.0756 3.94623 15.6797 3.78527 15.3363 3.93018C14.9928 4.07509 14.8318 4.471 14.9767 4.81448C15.2994 5.57923 15.3034 6.36319 15.3034 6.71188L15.3034 11.9666H7.37241V9.53653V8.1242V6.71188ZM6.4623 13.4305C6.4623 13.3676 6.51326 13.3166 6.57612 13.3166L16.0419 13.3166C16.1047 13.3166 16.1557 13.3676 16.1557 13.4305C16.1557 13.4933 16.1047 13.5443 16.0419 13.5443L6.57612 13.5443C6.51326 13.5443 6.4623 13.4933 6.4623 13.4305Z" fill="#252323"/>
</g>
<defs>
<clipPath id="clip0_611_5878">
<rect width="23" height="23" fill="white"/>
</clipPath>
</defs>
</svg>
