<svg width="18" height="18" viewBox="0 0 18 18" fill="none" xmlns="http://www.w3.org/2000/svg">
<g clip-path="url(#clip0_611_5911)">
<path fill-rule="evenodd" clip-rule="evenodd" d="M5.86633 5.25284C5.86633 4.94243 5.87334 4.23002 6.25096 3.60066C6.59416 3.02867 7.31925 2.40405 9.03092 2.40405C9.93043 2.40405 10.5119 2.61463 10.8946 2.87911C11.1786 3.07535 11.5679 3.00422 11.7641 2.72025C11.9603 2.43627 11.8892 2.04699 11.6052 1.85076C10.9738 1.41438 10.1311 1.15405 9.03092 1.15405C6.953 1.15405 5.7833 1.95053 5.1791 2.95754C4.616 3.89604 4.61625 4.90767 4.61633 5.24127L4.61633 5.25284V6.35814L4.61633 7.46344V9.54097C4.37691 9.74728 4.22534 10.0527 4.22534 10.3936C4.22534 10.7385 4.38055 11.0471 4.62494 11.2535V13.6876V14.9063V15.7501C4.62494 16.3024 5.07266 16.7501 5.62494 16.7501C6.17723 16.7501 6.62494 16.3024 6.62494 15.7501L6.62494 11.5186H10.9999V15.7501C10.9999 16.3024 11.4477 16.7501 11.9999 16.7501C12.5522 16.7501 12.9999 16.3024 12.9999 15.7501V13.6876V12.4688V11.3122C13.2876 11.1084 13.4753 10.7729 13.4753 10.3936C13.4753 10.0748 13.3428 9.78696 13.1297 9.58226V5.25284L13.1297 5.24394C13.1298 4.95137 13.1299 4.14092 12.7834 3.31963C12.6492 3.0016 12.2826 2.85255 11.9646 2.98673C11.6465 3.12091 11.4975 3.48749 11.6317 3.80553C11.876 4.38463 11.8797 4.98095 11.8797 5.25284V9.26855H5.86633V7.46344V6.35814V5.25284Z" fill="#252323"/>
</g>
<defs>
<clipPath id="clip0_611_5911">
<rect width="18" height="18" fill="white"/>
</clipPath>
</defs>
</svg>
