<svg width="44" height="44" viewBox="0 0 44 44" fill="none" xmlns="http://www.w3.org/2000/svg">
<g clip-path="url(#clip0_368_2079)">
<path d="M22.0757 4.34863C12.8123 4.34863 12.8123 11.2962 12.8123 12.8401L12.8123 15.542L12.8123 18.2438L12.8123 23.6475L30.5672 23.6475L30.5672 12.8401C30.5672 12.1598 30.5672 10.4303 29.8407 8.70836C29.6716 8.03445 28.9666 6.50547 27.5 5.78079C26.2603 4.92419 24.5198 4.34863 22.0757 4.34863Z" fill="#E05149"/>
<path d="M14.6666 27.5001L12.8123 27.5001L12.8123 38.9584L13.75 39.4167L14.6666 38.9584L14.6666 27.5001Z" fill="#E05149"/>
<path d="M28.4166 38.5001L28.4166 27.5001L30.25 27.5001L30.25 38.9584L29.3333 39.4167L28.4166 38.5001Z" fill="#E05149"/>
<path fill-rule="evenodd" clip-rule="evenodd" d="M13.5624 12.8401C13.5624 12.0746 13.5708 10.139 14.6134 8.40128C15.6147 6.73241 17.6638 5.09863 22.0758 5.09863C24.3995 5.09863 25.9833 5.64433 27.0737 6.3978C27.4145 6.63328 27.8816 6.54793 28.1171 6.20716C28.3526 5.8664 28.2672 5.39926 27.9264 5.16378C26.5376 4.20404 24.6402 3.59863 22.0758 3.59863C17.2243 3.59863 14.6417 5.43864 13.3272 7.62954C12.0621 9.73791 12.0623 12.032 12.0624 12.8249L12.0624 12.8401V15.542V18.2438V23.434C11.1 23.4389 10.3213 24.2205 10.3213 25.184V26.2021C10.3213 27.1686 11.1048 27.9521 12.0713 27.9521H12.0834V33.4584C12.0834 33.8726 12.4192 34.2084 12.8334 34.2084C13.2476 34.2084 13.5834 33.8726 13.5834 33.4584V27.9521H13.9167L13.9167 38.5C13.9167 38.5921 13.8421 38.6667 13.7501 38.6667C13.658 38.6667 13.5834 38.5921 13.5834 38.5V36.4375C13.5834 36.0233 13.2476 35.6875 12.8334 35.6875C12.4192 35.6875 12.0834 36.0233 12.0834 36.4375V38.5C12.0834 39.4205 12.8296 40.1667 13.7501 40.1667C14.6705 40.1667 15.4167 39.4205 15.4167 38.5V27.9521H27.6667V38.5C27.6667 39.4205 28.4129 40.1667 29.3334 40.1667C30.2539 40.1667 31.0001 39.4205 31.0001 38.5V33.4584C31.0001 33.0441 30.6643 32.7084 30.2501 32.7084C29.8359 32.7084 29.5001 33.0441 29.5001 33.4584V38.5C29.5001 38.5921 29.4254 38.6667 29.3334 38.6667C29.2414 38.6667 29.1667 38.5921 29.1667 38.5V27.9521H29.5001V30.4792C29.5001 30.8934 29.8359 31.2292 30.2501 31.2292C30.6643 31.2292 31.0001 30.8934 31.0001 30.4792V27.9521H31.1977C32.1642 27.9521 32.9477 27.1686 32.9477 26.2021V25.184C32.9477 24.2577 32.228 23.4995 31.3173 23.438V12.8401V12.8286C31.3173 12.1315 31.3174 10.2788 30.5318 8.41682C30.3708 8.03518 29.9309 7.85633 29.5493 8.01734C29.1676 8.17835 28.9888 8.61826 29.1498 8.9999C29.8128 10.5715 29.8173 12.1675 29.8173 12.8401V23.434H13.5624V18.2438V15.542V12.8401ZM11.8213 25.184C11.8213 25.0459 11.9332 24.934 12.0713 24.934H31.1977C31.3358 24.934 31.4477 25.0459 31.4477 25.184V26.2021C31.4477 26.3402 31.3358 26.4521 31.1977 26.4521H12.0713C11.9332 26.4521 11.8213 26.3402 11.8213 26.2021L11.8213 25.184Z" fill="#332A2A"/>
</g>
<defs>
<clipPath id="clip0_368_2079">
<rect width="44" height="44" fill="white"/>
</clipPath>
</defs>
</svg>
