<svg width="44" height="44" viewBox="0 0 44 44" fill="none" xmlns="http://www.w3.org/2000/svg">
<g clip-path="url(#clip0_662_7777)">
<path fill-rule="evenodd" clip-rule="evenodd" d="M15.6353 27.8852C15.6353 28.2994 15.9711 28.6352 16.3853 28.6352H17.0659L21.5554 32.1382C21.8266 32.3498 22.2069 32.3498 22.4781 32.1382L26.9675 28.6352H27.6481C28.0623 28.6352 28.3981 28.2994 28.3981 27.8852C28.3981 27.471 28.0623 27.1352 27.6481 27.1352H26.7096C26.5424 27.1352 26.38 27.1911 26.2482 27.2939L22.0167 30.5956L17.7853 27.2939C17.6535 27.1911 17.4911 27.1352 17.3239 27.1352H16.3853C15.9711 27.1352 15.6353 27.471 15.6353 27.8852ZM21.9999 11.9323C21.5857 11.9323 21.2499 12.268 21.2499 12.6823L21.2499 27.7024C21.2499 28.1166 21.5857 28.4524 21.9999 28.4524C22.4141 28.4524 22.7499 28.1166 22.7499 27.7024L22.7499 12.6823C22.7499 12.268 22.4141 11.9323 21.9999 11.9323ZM7.33325 28.5833C6.91904 28.5833 6.58325 28.9191 6.58325 29.3333C6.58325 29.7475 6.91904 30.0833 7.33325 30.0833H7.49992V35.75C7.49992 36.1642 7.83571 36.5 8.24992 36.5H35.7499C36.1641 36.5 36.4999 36.1642 36.4999 35.75V30.0833H36.6666C37.0808 30.0833 37.4166 29.7475 37.4166 29.3333C37.4166 28.9191 37.0808 28.5833 36.6666 28.5833H35.7499H32.9999C32.5857 28.5833 32.2499 28.9191 32.2499 29.3333C32.2499 29.7475 32.5857 30.0833 32.9999 30.0833H34.9999V35H8.99992V30.0833H10.9999C11.4141 30.0833 11.7499 29.7475 11.7499 29.3333C11.7499 28.9191 11.4141 28.5833 10.9999 28.5833H8.24992H7.33325Z" fill="#252323"/>
</g>
<defs>
<clipPath id="clip0_662_7777">
<rect width="44" height="44" fill="white"/>
</clipPath>
</defs>
</svg>
