<svg width="44" height="44" viewBox="0 0 44 44" fill="none" xmlns="http://www.w3.org/2000/svg">
<g clip-path="url(#clip0_209_895)">
<path d="M35.75 35.7499V29.3333H25.0283L22.0249 31.5357L19.0215 29.3333H8.25V35.7499H35.75Z" fill="#E05149"/>
<path d="M11.0002 28.5837C11.4143 28.5839 11.7502 28.9196 11.7502 29.3337C11.7501 29.7477 11.4142 30.0836 11.0002 30.0837H9.00024V35.0007H35.0002V30.0837H33.0002C32.5861 30.0837 32.2504 29.7478 32.2502 29.3337C32.2502 28.9195 32.586 28.5837 33.0002 28.5837H36.6663C37.0805 28.5837 37.4163 28.9195 37.4163 29.3337C37.4161 29.7478 37.0804 30.0837 36.6663 30.0837H36.5002V35.7507C36.4999 36.1646 36.1641 36.5006 35.7502 36.5007H8.25024C7.83624 36.5007 7.50058 36.1647 7.50024 35.7507V30.0837H7.33325C6.91914 30.0837 6.58341 29.7478 6.58325 29.3337C6.58325 28.9195 6.91904 28.5837 7.33325 28.5837H11.0002ZM17.3235 27.1355C17.4906 27.1355 17.6536 27.1919 17.7854 27.2947L22.0159 30.5955L26.2483 27.2947C26.347 27.2176 26.463 27.1668 26.5852 27.1462L26.7092 27.1355H27.6477C28.0619 27.1355 28.3977 27.4713 28.3977 27.8855C28.3976 28.2996 28.0619 28.6355 27.6477 28.6355H26.9661L22.4778 32.1384C22.2066 32.3498 21.826 32.3499 21.5549 32.1384L17.0657 28.6355H16.385C15.971 28.6353 15.6351 28.2995 15.635 27.8855C15.635 27.4714 15.9709 27.1357 16.385 27.1355H17.3235ZM21.9993 11.9324C22.4135 11.9324 22.7493 12.2682 22.7493 12.6824V27.7029C22.7491 28.1169 22.4134 28.4529 21.9993 28.4529C21.5855 28.4525 21.2494 28.1167 21.2493 27.7029V12.6824C21.2493 12.2684 21.5854 11.9327 21.9993 11.9324Z" fill="#332A2A"/>
</g>
<defs>
<clipPath id="clip0_209_895">
<rect width="44" height="44" fill="white"/>
</clipPath>
</defs>
</svg>
