<svg width="44" height="44" viewBox="0 0 44 44" fill="none" xmlns="http://www.w3.org/2000/svg">
<g clip-path="url(#clip0_662_7777)">
<path d="M11.0002 28.5836C11.4143 28.5838 11.7502 28.9195 11.7502 29.3336C11.7501 29.7476 11.4142 30.0834 11.0002 30.0836H9.00024V35.0006H35.0002V30.0836H33.0002C32.5861 30.0836 32.2504 29.7477 32.2502 29.3336C32.2502 28.9194 32.586 28.5836 33.0002 28.5836H36.6663C37.0805 28.5836 37.4163 28.9194 37.4163 29.3336C37.4161 29.7477 37.0804 30.0836 36.6663 30.0836H36.5002V35.7506C36.4999 36.1644 36.1641 36.5004 35.7502 36.5006H8.25024C7.83624 36.5006 7.50058 36.1645 7.50024 35.7506V30.0836H7.33325C6.91914 30.0836 6.58341 29.7477 6.58325 29.3336C6.58325 28.9194 6.91904 28.5836 7.33325 28.5836H11.0002ZM17.3235 27.1354C17.4906 27.1354 17.6536 27.1918 17.7854 27.2946L22.0159 30.5953L26.2483 27.2946C26.347 27.2175 26.463 27.1667 26.5852 27.1461L26.7092 27.1354H27.6477C28.0619 27.1354 28.3977 27.4712 28.3977 27.8854C28.3976 28.2995 28.0619 28.6354 27.6477 28.6354H26.9661L22.4778 32.1383C22.2066 32.3497 21.826 32.3498 21.5549 32.1383L17.0657 28.6354H16.385C15.971 28.6352 15.6351 28.2994 15.635 27.8854C15.635 27.4713 15.9709 27.1356 16.385 27.1354H17.3235ZM21.9993 11.9323C22.4135 11.9323 22.7493 12.268 22.7493 12.6823V27.7028C22.7491 28.1168 22.4134 28.4528 21.9993 28.4528C21.5855 28.4524 21.2494 28.1166 21.2493 27.7028V12.6823C21.2493 12.2683 21.5854 11.9326 21.9993 11.9323Z" fill="#332A2A"/>
</g>
<defs>
<clipPath id="clip0_662_7777">
<rect width="44" height="44" fill="white"/>
</clipPath>
</defs>
</svg>
