<svg width="18" height="18" viewBox="0 0 18 18" fill="none" xmlns="http://www.w3.org/2000/svg">
<g clip-path="url(#clip0_662_7748)">
<path d="M14.625 14.625V12H10.5L9 13L7.5 12H3.375V14.625H14.625Z" fill="#E05149"/>
<path fill-rule="evenodd" clip-rule="evenodd" d="M6.07812 11.252C6.07812 11.5972 6.35795 11.877 6.70312 11.877H6.8721L8.6224 13.2427C8.84839 13.419 9.16537 13.419 9.39136 13.2427L11.1417 11.877H11.3106C11.6558 11.877 11.9356 11.5972 11.9356 11.252C11.9356 10.9068 11.6558 10.627 11.3106 10.627H10.9267C10.7874 10.627 10.652 10.6735 10.5422 10.7592L9.00688 11.9572L7.47156 10.7592C7.36172 10.6735 7.2264 10.627 7.08708 10.627H6.70312C6.35795 10.627 6.07812 10.9068 6.07812 11.252ZM9 3.81323C8.65482 3.81323 8.375 4.09305 8.375 4.43823L8.375 10.4382C8.375 10.7834 8.65482 11.0632 9 11.0632C9.34518 11.0632 9.625 10.7834 9.625 10.4382L9.625 4.43823C9.625 4.09305 9.34518 3.81323 9 3.81323ZM3 11.375C2.65482 11.375 2.375 11.6549 2.375 12C2.375 12.2563 2.52926 12.4766 2.75 12.573V14.625C2.75 14.9702 3.02982 15.25 3.375 15.25H14.625C14.9702 15.25 15.25 14.9702 15.25 14.625V12.573C15.4707 12.4766 15.625 12.2563 15.625 12C15.625 11.6549 15.3452 11.375 15 11.375H14.625H13.5C13.1548 11.375 12.875 11.6549 12.875 12C12.875 12.3452 13.1548 12.625 13.5 12.625H14V14H4V12.625H4.5C4.84518 12.625 5.125 12.3452 5.125 12C5.125 11.6549 4.84518 11.375 4.5 11.375H3.375H3Z" fill="#252323"/>
</g>
<defs>
<clipPath id="clip0_662_7748">
<rect width="18" height="18" fill="white"/>
</clipPath>
</defs>
</svg>
