<svg width="23" height="23" viewBox="0 0 23 23" fill="none" xmlns="http://www.w3.org/2000/svg">
<g clip-path="url(#clip0_662_7740)">
<path d="M18.6875 18.6874V15.3333H13.2889L11.7556 16.3555L9.71111 15.3333H4.3125V18.6874H18.6875Z" fill="#E05149"/>
<path d="M5.80005 14.7085C6.17269 14.7087 6.47485 15.0106 6.47485 15.3833C6.47478 15.7559 6.17265 16.0579 5.80005 16.0581H5.03735V18.062H18.0618V16.0581H17.3C16.9273 16.0581 16.6243 15.756 16.6243 15.3833C16.6243 15.0105 16.9273 14.7085 17.3 14.7085H19.2161C19.5889 14.7085 19.8918 15.0105 19.8918 15.3833C19.8918 15.6875 19.689 15.9416 19.4124 16.0259V18.7378C19.4121 19.1103 19.11 19.4124 18.7375 19.4126H4.36255C3.98991 19.4126 3.68701 19.1104 3.68677 18.7378V16.0249C3.41039 15.9405 3.20831 15.6873 3.20825 15.3833C3.20825 15.0105 3.51026 14.7085 3.88306 14.7085H5.80005ZM9.10474 13.9517C9.25517 13.9517 9.40214 14.0017 9.52075 14.0942L11.5579 15.6841L13.5959 14.0942C13.7144 14.0018 13.8607 13.9518 14.011 13.9517H14.5022C14.8748 13.9518 15.177 14.2538 15.177 14.6265C15.1769 14.999 14.8748 15.3011 14.5022 15.3013H14.2424L11.9739 17.0728C11.7603 17.2392 11.4708 17.2602 11.2385 17.1353L11.1428 17.0728L8.87231 15.3013H8.6145C8.24195 15.3011 7.93984 14.999 7.9397 14.6265C7.9397 14.2538 8.24186 13.9518 8.6145 13.9517H9.10474ZM11.55 6.00439C11.9227 6.00457 12.2249 6.30652 12.2249 6.6792V13.9692C12.2249 14.3419 11.9227 14.6448 11.55 14.645C11.1773 14.645 10.8752 14.342 10.8752 13.9692V6.6792C10.8752 6.30641 11.1773 6.00439 11.55 6.00439Z" fill="#332A2A"/>
</g>
<defs>
<clipPath id="clip0_662_7740">
<rect width="23" height="23" fill="white"/>
</clipPath>
</defs>
</svg>
