<svg width="28" height="28" viewBox="0 0 28 28" fill="none" xmlns="http://www.w3.org/2000/svg">
<g clip-path="url(#clip0_662_7778)">
<path fill-rule="evenodd" clip-rule="evenodd" d="M9.67717 17.7452C9.67717 18.1594 10.013 18.4952 10.4272 18.4952H10.7665L13.5494 20.6666C13.8206 20.8782 14.201 20.8782 14.4722 20.6666L17.2551 18.4952H17.5944C18.0086 18.4952 18.3444 18.1594 18.3444 17.7452C18.3444 17.331 18.0086 16.9952 17.5944 16.9952H16.9971C16.83 16.9952 16.6676 17.051 16.5358 17.1539L14.0108 19.124L11.4858 17.1539C11.354 17.051 11.1916 16.9952 11.0244 16.9952H10.4272C10.013 16.9952 9.67717 17.331 9.67717 17.7452ZM14.0001 7.32056C13.5859 7.32056 13.2501 7.65634 13.2501 8.07056L13.2501 17.1968C13.2501 17.611 13.5859 17.9468 14.0001 17.9468C14.4143 17.9468 14.7501 17.611 14.7501 17.1968L14.7501 8.07056C14.7501 7.65634 14.4143 7.32056 14.0001 7.32056ZM4.66675 17.9167C4.25253 17.9167 3.91675 18.2525 3.91675 18.6667C3.91675 19.0236 4.16608 19.3223 4.50008 19.3981V22.75C4.50008 23.1642 4.83587 23.5 5.25008 23.5H22.7501C23.1643 23.5 23.5001 23.1642 23.5001 22.75V19.3981C23.8341 19.3223 24.0834 19.0236 24.0834 18.6667C24.0834 18.2525 23.7476 17.9167 23.3334 17.9167H22.7501H21.0001C20.5859 17.9167 20.2501 18.2525 20.2501 18.6667C20.2501 19.0809 20.5859 19.4167 21.0001 19.4167H22.0001V22H6.00008V19.4167H7.00008C7.41429 19.4167 7.75008 19.0809 7.75008 18.6667C7.75008 18.2525 7.41429 17.9167 7.00008 17.9167H5.25008H4.66675Z" fill="#252323"/>
</g>
<defs>
<clipPath id="clip0_662_7778">
<rect width="28" height="28" fill="white"/>
</clipPath>
</defs>
</svg>
