<svg width="23" height="23" viewBox="0 0 23 23" fill="none" xmlns="http://www.w3.org/2000/svg">
<g clip-path="url(#clip0_662_7740)">
<path d="M18.6875 18.6875V15.3334H13.2889L11.7556 16.3556L9.71111 15.3334H4.3125V18.6875H18.6875Z" fill="#E05149"/>
<path fill-rule="evenodd" clip-rule="evenodd" d="M7.89022 14.5763C7.89022 14.9491 8.19243 15.2513 8.56522 15.2513H8.82365L11.0937 17.0226C11.3377 17.213 11.6801 17.213 11.9241 17.0226L14.1942 15.2513H14.4526C14.8254 15.2513 15.1276 14.9491 15.1276 14.5763C15.1276 14.2036 14.8254 13.9013 14.4526 13.9013H13.962C13.8115 13.9013 13.6654 13.9516 13.5467 14.0442L11.5089 15.6342L9.47107 14.0442C9.35244 13.9516 9.20629 13.9013 9.05583 13.9013H8.56522C8.19243 13.9013 7.89022 14.2036 7.89022 14.5763ZM11.5001 5.95435C11.1273 5.95435 10.8251 6.25655 10.8251 6.62935L10.8251 13.9198C10.8251 14.2926 11.1273 14.5948 11.5001 14.5948C11.8729 14.5948 12.1751 14.2926 12.1751 13.9198L12.1751 6.62935C12.1751 6.25655 11.8729 5.95435 11.5001 5.95435ZM3.83345 14.6583C3.46066 14.6583 3.15845 14.9605 3.15845 15.3333C3.15845 15.638 3.36032 15.8955 3.63761 15.9795V18.6875C3.63761 19.0603 3.93982 19.3625 4.31261 19.3625H18.6876C19.0604 19.3625 19.3626 19.0603 19.3626 18.6875V15.9795C19.6399 15.8955 19.8418 15.638 19.8418 15.3333C19.8418 14.9605 19.5396 14.6583 19.1668 14.6583H18.6876H17.2501C16.8773 14.6583 16.5751 14.9605 16.5751 15.3333C16.5751 15.7061 16.8773 16.0083 17.2501 16.0083H18.0126V18.0125H4.98761V16.0083H5.75011C6.12291 16.0083 6.42511 15.7061 6.42511 15.3333C6.42511 14.9605 6.12291 14.6583 5.75011 14.6583H4.31261H3.83345Z" fill="#252323"/>
</g>
<defs>
<clipPath id="clip0_662_7740">
<rect width="23" height="23" fill="white"/>
</clipPath>
</defs>
</svg>
