<svg width="28" height="28" viewBox="0 0 28 28" fill="none" xmlns="http://www.w3.org/2000/svg">
<g clip-path="url(#clip0_607_5122)">
<path fill-rule="evenodd" clip-rule="evenodd" d="M6.64307 8.95837H22.2741L21.5504 13.8291H22.0714H23.895L25.221 16.6512L24.7686 19.2168H20.6004L20.7361 18.4471C19.7649 18.4471 18.8336 19.1013 18.4461 19.9865H11.3398C11.2226 19.1926 10.569 18.6177 9.67766 18.6177C8.7863 18.6177 7.92992 19.1926 7.53283 19.9865H4.83357L6.64307 8.95837Z" fill="#E05149"/>
<path fill-rule="evenodd" clip-rule="evenodd" d="M7.30426 9.83809C7.31799 9.7602 7.39324 9.69706 7.47233 9.69706H10.4869H13.3526C13.7668 9.69706 14.1609 9.36638 14.2328 8.95845C14.3047 8.55053 14.0273 8.21985 13.6131 8.21985H10.7474H7.7328C6.82528 8.21985 5.96184 8.94436 5.80426 9.83809L4.01585 19.9806C3.94392 20.3886 4.2214 20.7192 4.63562 20.7192H7.25322C7.18608 21.7467 7.92913 22.5462 9.00278 22.5462C10.0764 22.5462 11.1014 21.7467 11.3966 20.7192H12.4511H15.0563C15.4705 20.7192 15.8646 20.3886 15.9366 19.9806C16.0085 19.5727 15.731 19.242 15.3168 19.242H12.7116H11.2373C10.9421 18.755 10.3992 18.4412 9.72659 18.4412C9.05399 18.4412 8.40048 18.755 7.93353 19.242H5.64609L5.97372 17.3839H6.81333C7.22754 17.3839 7.62164 17.0532 7.69357 16.6453C7.76549 16.2374 7.48802 15.9067 7.0738 15.9067H6.2342L6.56182 14.0486H8.7261C9.14031 14.0486 9.53441 13.7179 9.60633 13.31C9.67826 12.9021 9.40078 12.5714 8.98657 12.5714H6.8223L7.30426 9.83809ZM16.4788 8.21985C16.0645 8.21985 15.6704 8.55053 15.5985 8.95845C15.5266 9.36638 15.8041 9.69706 16.2183 9.69706H21.4602L21.2248 11.0321H17.4709C17.0567 11.0321 16.6626 11.3627 16.5907 11.7707C16.5188 12.1786 16.7962 12.5093 17.2105 12.5093H20.9643L20.7786 13.5628L20.7779 13.5666L20.702 13.9967H14.2988C13.8846 13.9967 13.4905 14.3274 13.4186 14.7354C13.3467 15.1433 13.6242 15.474 14.0384 15.474H20.4416L20.1793 16.9614H18.015C17.6008 16.9614 17.2067 17.2921 17.1348 17.7C17.0629 18.108 17.3403 18.4386 17.7546 18.4386H19.9188L19.8942 18.5781C19.5108 18.7147 19.1587 18.9464 18.8753 19.242H17.6615C17.2472 19.242 16.8531 19.5727 16.7812 19.9806C16.7093 20.3886 16.9868 20.7192 17.401 20.7192H18.195C18.1998 20.6452 18.2088 20.5699 18.2223 20.4937C18.2382 20.4036 18.2597 20.3149 18.2865 20.2279C18.2597 20.3149 18.2382 20.4036 18.2223 20.4937C18.0224 21.6273 18.7935 22.5462 19.9445 22.5462C21.0073 22.5462 22.0225 21.7627 22.3292 20.7503H22.9688C23.4063 20.7503 23.8565 20.5921 24.2339 20.3059L24.6552 19.9865C24.6765 19.9703 24.6972 19.9534 24.7173 19.9359C25.0742 19.8697 25.3876 19.5703 25.4509 19.2109L25.8356 17.0292C25.9365 16.4569 25.8507 15.8992 25.5905 15.4363L24.7025 13.8567C24.3391 13.2104 23.6441 12.828 22.8326 12.828H22.4081L23.0904 8.95845C23.1624 8.55053 22.8849 8.21985 22.4707 8.21985H16.4788ZM22.1476 14.3052L21.4129 18.4723H24.0812L24.3356 17.0292C24.3815 16.7691 24.3425 16.5156 24.2242 16.3052L23.3362 14.7255C23.1877 14.4614 22.9037 14.3052 22.5721 14.3052H22.1476ZM9.94883 20.4937C9.89281 20.8114 9.58586 21.069 9.26325 21.069C8.94064 21.069 8.72452 20.8114 8.78054 20.4937C8.83657 20.176 9.14351 19.9184 9.46612 19.9184C9.78874 19.9184 10.0049 20.176 9.94883 20.4937ZM20.205 21.069C20.5276 21.069 20.8346 20.8114 20.8906 20.4937C20.9466 20.176 20.7305 19.9184 20.4079 19.9184C20.0853 19.9184 19.7783 20.176 19.7223 20.4937C19.6663 20.8114 19.8824 21.069 20.205 21.069ZM3.19279 10.1989C2.77857 10.1989 2.38448 10.5296 2.31255 10.9375C2.24062 11.3454 2.5181 11.6761 2.93231 11.6761H4.34908C4.76329 11.6761 5.15739 11.3454 5.22931 10.9375C5.30124 10.5296 5.02376 10.1989 4.60955 10.1989H3.19279ZM4.02622 11.9223C3.612 11.9223 3.21791 12.253 3.14598 12.6609C3.07405 13.0688 3.35153 13.3995 3.76574 13.3995H4.34908C4.76329 13.3995 5.15739 13.0688 5.22931 12.6609C5.30124 12.253 5.02376 11.9223 4.60955 11.9223H4.02622ZM2.65353 13.6457C2.23931 13.6457 1.84522 13.9764 1.77329 14.3843C1.70136 14.7923 1.97884 15.1229 2.39305 15.1229H3.85139C4.2656 15.1229 4.6597 14.7923 4.73162 14.3843C4.80355 13.9764 4.52607 13.6457 4.11186 13.6457H2.65353ZM3.03084 15.6564C2.61662 15.6564 2.22253 15.9871 2.1506 16.395C2.07867 16.8029 2.35615 17.1336 2.77037 17.1336H3.3537C3.76791 17.1336 4.16201 16.8029 4.23393 16.395C4.30586 15.9871 4.02838 15.6564 3.61417 15.6564H3.03084ZM3.03084 17.3798C2.61662 17.3798 2.22253 17.7105 2.1506 18.1184C2.07867 18.5263 2.35615 18.857 2.77036 18.857H3.3537C3.76791 18.857 4.16201 18.5263 4.23393 18.1184C4.30586 17.7105 4.02838 17.3798 3.61417 17.3798H3.03084Z" fill="#332A2A"/>
</g>
<defs>
<clipPath id="clip0_607_5122">
<rect width="28" height="28" fill="white"/>
</clipPath>
</defs>
</svg>
