<svg width="28" height="28" viewBox="0 0 28 28" fill="none" xmlns="http://www.w3.org/2000/svg">
<g clip-path="url(#clip0_1894_12810)">
<path d="M14.7432 16.1123C14.8689 15.718 15.2911 15.4998 15.6855 15.625C17.36 16.1577 19.1201 16.7919 20.833 17.5195V16.917C20.833 16.5029 21.1689 16.1672 21.583 16.167C21.9972 16.167 22.333 16.5028 22.333 16.917V23.334C22.3327 23.7479 21.997 24.084 21.583 24.084C21.1692 24.0838 20.8334 23.7478 20.833 23.334V19.1533C18.9921 18.341 17.0642 17.638 15.2305 17.0547C14.8361 16.9289 14.6177 16.5068 14.7432 16.1123ZM23.917 3.91699C24.3311 3.91717 24.667 4.25289 24.667 4.66699V9.96484C24.9176 9.78817 25.1393 9.6399 25.3135 9.54688C25.6787 9.35195 26.1329 9.48953 26.3281 9.85449C26.5232 10.2198 26.3848 10.674 26.0195 10.8691C25.7162 11.0311 25.0548 11.5215 24.3057 12.1172C23.58 12.6941 22.8368 13.318 22.4004 13.6953C22.3617 13.729 22.3331 13.7836 22.333 13.8545V15.166C22.333 15.5802 21.9972 15.916 21.583 15.916C21.1689 15.9158 20.833 15.5801 20.833 15.166V13.8545C20.8331 13.4066 21.0061 12.9689 21.332 12.6436C20.9676 12.4689 20.5736 12.3096 20.1846 12.1797L15.793 14.3701C15.6247 14.4539 15.4306 14.4711 15.25 14.4189L7.16699 12.0801V12.9287C7.20341 12.8986 7.2397 12.868 7.27637 12.8379C7.59625 12.5749 8.06893 12.6206 8.33203 12.9404C8.53056 13.1819 8.55254 13.5098 8.41406 13.7695C9.2015 13.9105 10.1718 14.1147 11.2617 14.3809C11.6637 14.4793 11.9104 14.885 11.8125 15.2871C11.7143 15.6894 11.3076 15.936 10.9053 15.8379C9.73178 15.5514 8.71201 15.3399 7.92773 15.2061C7.62932 15.1551 7.37563 15.1184 7.16699 15.0918V21.2969L12.1494 22.6084C12.5498 22.714 12.789 23.124 12.6836 23.5244C12.5781 23.9247 12.168 24.1637 11.7676 24.0586L6.22656 22.6006V22.5996L2.9248 21.7754C2.47974 21.6641 2.16714 21.2634 2.16699 20.8047V15.75C2.16717 15.3359 2.50289 15 2.91699 15C3.33095 15.0002 3.66682 15.336 3.66699 15.75V20.4141L5.66699 20.9141V11.3389C5.66701 11.1811 5.69645 11.0226 5.75293 10.8721C5.69727 10.7009 5.66704 10.5193 5.66699 10.332V10.0527C5.66699 9.84491 5.75284 9.65004 5.89844 9.51074C5.701 9.61932 5.50547 9.72711 5.31738 9.83203C4.91548 10.0562 4.54139 10.2699 4.2334 10.459C3.96962 10.6209 3.78151 10.7489 3.66699 10.8389V13.709C3.66664 14.1228 3.33084 14.4588 2.91699 14.459C2.503 14.459 2.16734 14.1229 2.16699 13.709V10.7559C2.16699 10.3867 2.32006 10.0233 2.6084 9.76758L2.78223 9.62598C2.97212 9.48121 3.20686 9.32943 3.44922 9.18066C3.78418 8.97506 4.17868 8.74866 4.58594 8.52148C5.21923 8.16822 5.87262 7.81527 6.42773 7.50391C6.46056 7.18178 6.64429 6.87305 6.99414 6.70801L8.08789 6.19238C8.37662 6.05621 8.69506 6.00081 9.00879 6.03223C9.03869 6.01792 9.07014 6.00561 9.10254 5.99512C9.75747 5.78319 10.4848 5.60943 11.209 5.4834V4.66699C11.209 4.25278 11.5448 3.91699 11.959 3.91699C12.3729 3.91734 12.709 4.253 12.709 4.66699V5.61426C12.7089 5.79759 12.6699 5.97072 12.6035 6.12891L12.7354 6.06445C13.0761 5.89464 13.4615 5.83985 13.833 5.9082V4.66699C13.833 4.25289 14.1689 3.91717 14.583 3.91699C14.9972 3.91699 15.333 4.25278 15.333 4.66699V6.32812L22.6641 8.41992C22.9037 8.48841 23.0883 8.66862 23.167 8.89453V4.66699C23.167 4.25278 23.5028 3.91699 23.917 3.91699ZM13.585 7.39062C13.525 7.37352 13.4601 7.37942 13.4043 7.40723L9.94824 9.12988L8.48145 9.86035L15.3838 11.8301L20.3936 9.33203L13.585 7.39062ZM23.167 10.3369C23.0894 10.5991 22.9072 10.8235 22.6553 10.9492L21.9746 11.2881C22.1793 11.3861 22.378 11.4903 22.5674 11.5986C22.7619 11.4386 22.9637 11.2735 23.167 11.1104V10.3369ZM7.44141 8.65234C7.18888 8.79664 6.90762 8.95409 6.61523 9.11523L7.50684 8.66992L7.44141 8.65234Z" fill="#332A2A"/>
</g>
<defs>
<clipPath id="clip0_1894_12810">
<rect width="28" height="28" fill="white"/>
</clipPath>
</defs>
</svg>
