<svg width="23" height="23" viewBox="0 0 23 23" fill="none" xmlns="http://www.w3.org/2000/svg">
<g clip-path="url(#clip0_607_5169)">
<path fill-rule="evenodd" clip-rule="evenodd" d="M5.45679 7.15564H18.2966L17.7021 11.3596H18.1301H19.6281L20.7173 13.6778L20.3457 15.7853H16.9218L17.0332 15.1531C16.2355 15.1531 15.4705 15.6904 15.1522 16.4176H9.31485C9.21864 15.7654 8.68174 15.2932 7.94955 15.2932C7.21736 15.2932 6.5139 15.7654 6.18772 16.4176H3.97047L5.45679 7.15564Z" fill="#E05149"/>
<path fill-rule="evenodd" clip-rule="evenodd" d="M6.01685 8.03518C6.04258 7.8893 6.18351 7.77105 6.33163 7.77105H8.64838H11.0023C11.3475 7.77105 11.6759 7.49548 11.7359 7.15554C11.7958 6.81561 11.5646 6.54004 11.2194 6.54004H8.86544H6.54869C5.71021 6.54004 4.91246 7.20944 4.76685 8.03518L3.58699 14.7265C3.5633 14.4623 3.3536 14.2674 3.0633 14.2674H2.664C2.31882 14.2674 1.99041 14.543 1.93047 14.8829C1.87053 15.2229 2.10176 15.4984 2.44694 15.4984H2.84624C3.13654 15.4984 3.41497 15.3035 3.53183 15.0394L3.2897 16.4126C3.22976 16.7525 3.46099 17.0281 3.80617 17.0281H5.95732C5.90694 17.8678 6.51613 18.52 7.39501 18.52C8.27389 18.52 9.11309 17.8678 9.35885 17.0281H10.2261H12.366C12.7112 17.0281 13.0396 16.7525 13.0996 16.4126C13.1595 16.0726 12.9283 15.7971 12.5831 15.7971H10.4431H9.22506C8.98139 15.4021 8.53798 15.1481 7.98957 15.1481C7.44116 15.1481 6.9082 15.4021 6.52523 15.7971H4.64823L4.91425 14.2884H5.59498C5.94016 14.2884 6.26857 14.0128 6.32851 13.6729C6.38845 13.3329 6.15722 13.0574 5.81204 13.0574H5.13131L5.39733 11.5487H7.16619C7.51136 11.5487 7.83978 11.2731 7.89972 10.9332C7.95965 10.5933 7.72842 10.3177 7.38325 10.3177H5.61439L6.01685 8.03518ZM13.5734 6.54004C13.2282 6.54004 12.8998 6.81561 12.8398 7.15554C12.7799 7.49548 13.0111 7.77105 13.3563 7.77105H17.6693L17.4772 9.05321H14.3525C14.0074 9.05321 13.679 9.32878 13.619 9.66871C13.5591 10.0086 13.7903 10.2842 14.1355 10.2842H17.2928L17.1266 11.3936L17.1074 11.4885H11.7469C11.4017 11.4885 11.0733 11.7641 11.0134 12.104C10.9534 12.4439 11.1847 12.7195 11.5298 12.7195H16.8588L16.6157 13.9238H14.7995C14.4543 13.9238 14.1259 14.1993 14.0659 14.5393C14.006 14.8792 14.2372 15.1548 14.5824 15.1548H16.3671L16.346 15.259C15.66 15.5015 15.0949 16.1152 14.9682 16.8341C14.804 17.7652 15.4374 18.52 16.3829 18.52C17.2559 18.52 18.0898 17.8765 18.3417 17.0448H18.7458C19.1833 17.0448 19.6335 16.8867 20.011 16.6004L20.1905 16.4643C20.222 16.4404 20.2521 16.415 20.2807 16.3883C20.5875 16.342 20.8608 16.0874 20.9149 15.7803L21.2672 13.7824C21.3268 13.4442 21.2761 13.1146 21.1224 12.8411L20.3721 11.5064C20.0266 10.892 19.3658 10.5284 18.5943 10.5284H18.5066L19.0144 7.13948C19.0644 6.80592 18.8341 6.54004 18.4953 6.54004H13.5734ZM17.812 15.1648L18.3222 11.7594H18.3772C18.7488 11.7594 19.0671 11.9345 19.2335 12.2305L19.9838 13.5652C20.0193 13.6283 20.031 13.7043 20.0172 13.7824L19.7734 15.1648H17.812ZM14.9452 17.0281C14.949 16.9644 14.9566 16.8997 14.9682 16.8341C15.0371 16.443 15.2358 16.0831 15.5131 15.7971H14.5091C14.1639 15.7971 13.8355 16.0726 13.7755 16.4126C13.7156 16.7525 13.9468 17.0281 14.292 17.0281H14.9452ZM8.15427 16.8341C8.10996 17.0853 7.86721 17.289 7.61207 17.289C7.35693 17.289 7.18601 17.0853 7.23032 16.8341C7.27462 16.5828 7.51737 16.3791 7.77251 16.3791C8.02765 16.3791 8.19857 16.5828 8.15427 16.8341ZM16.5999 17.289C16.8551 17.289 17.0978 17.0853 17.1421 16.8341C17.1864 16.5828 17.0155 16.3791 16.7604 16.3791C16.5052 16.3791 16.2625 16.5828 16.2182 16.8341C16.1739 17.0853 16.3448 17.289 16.5999 17.289ZM2.62407 8.36883C2.27889 8.36883 1.95048 8.64441 1.89054 8.98434C1.8306 9.32427 2.06183 9.59984 2.40701 9.59984H3.46916C3.81434 9.59984 4.14275 9.32427 4.20269 8.98434C4.26263 8.64441 4.0314 8.36883 3.68622 8.36883H2.62407ZM3.17511 9.7845C2.82993 9.7845 2.50152 10.0601 2.44158 10.4C2.38164 10.7399 2.61287 11.0155 2.95805 11.0155H3.43722C3.78239 11.0155 4.11081 10.7399 4.17075 10.4C4.23068 10.0601 3.99945 9.7845 3.65428 9.7845H3.17511ZM2.62407 11.2002C2.27889 11.2002 1.95048 11.4757 1.89054 11.8157C1.8306 12.1556 2.06183 12.4312 2.40701 12.4312H2.95805C3.30323 12.4312 3.63164 12.1556 3.69158 11.8157C3.75152 11.4757 3.52029 11.2002 3.17511 11.2002H2.62407ZM2.664 12.8518C2.31882 12.8518 1.99041 13.1273 1.93047 13.4673C1.87053 13.8072 2.10176 14.0828 2.44694 14.0828H2.9261C3.27128 14.0828 3.59969 13.8072 3.65963 13.4673C3.71957 13.1273 3.48834 12.8518 3.14316 12.8518H2.664Z" fill="#252323"/>
</g>
<defs>
<clipPath id="clip0_607_5169">
<rect width="23" height="23" fill="white"/>
</clipPath>
</defs>
</svg>
