<svg width="23" height="23" viewBox="0 0 23 23" fill="none" xmlns="http://www.w3.org/2000/svg">
<g clip-path="url(#clip0_607_5169)">
<path fill-rule="evenodd" clip-rule="evenodd" d="M5.45679 7.15564H18.2966L17.7021 11.3596H18.1301H19.6281L20.7173 13.6778L20.3457 15.7853H16.9218L17.0332 15.1531C16.2355 15.1531 15.4705 15.6904 15.1522 16.4176H9.31485C9.21864 15.7654 8.68174 15.2932 7.94955 15.2932C7.21736 15.2932 6.5139 15.7654 6.18772 16.4176H3.97047L5.45679 7.15564Z" fill="#E05149"/>
<path fill-rule="evenodd" clip-rule="evenodd" d="M6.01685 8.03518C6.04258 7.8893 6.18351 7.77105 6.33163 7.77105H8.64838H11.0023C11.3475 7.77105 11.6759 7.49548 11.7359 7.15554C11.7958 6.81561 11.5646 6.54004 11.2194 6.54004H8.86544H6.54869C5.71021 6.54004 4.91246 7.20944 4.76685 8.03518L3.78856 13.5834C3.77933 13.6128 3.77195 13.6428 3.76657 13.6733C3.76124 13.7037 3.75806 13.7336 3.75691 13.7628L3.58711 14.7259C3.56312 14.462 3.35351 14.2672 3.06354 14.2671H2.66412C2.31905 14.2671 1.99068 14.5428 1.93059 14.8826C1.87065 15.2225 2.10188 15.4981 2.44706 15.4981H2.84648C3.13648 15.498 3.41474 15.3035 3.53178 15.0396L3.2897 16.4126C3.22976 16.7525 3.46099 17.0281 3.80617 17.0281H5.95732C5.90697 17.8678 6.51614 18.5199 7.39497 18.5199C8.34047 18.5199 9.23997 17.7651 9.40416 16.834C9.5683 15.9029 8.93499 15.1481 7.98951 15.1481C7.44112 15.1481 6.90819 15.4021 6.52523 15.7971H4.64823L4.90552 14.3379H5.58591C5.95855 14.3379 6.31393 14.0403 6.37887 13.6733C6.44361 13.3062 6.19323 13.0078 5.82044 13.0078H5.14004L5.38864 11.5979H7.15791C7.53049 11.5977 7.88509 11.3003 7.94989 10.9334C8.0146 10.5664 7.76483 10.269 7.39227 10.2688H5.623L6.01685 8.03518ZM9.22506 15.7971C9.4015 16.0831 9.47322 16.443 9.40427 16.8341C9.3927 16.8997 9.37748 16.9644 9.35885 17.0281H10.2261H12.366C12.7112 17.0281 13.0396 16.7525 13.0996 16.4126C13.1595 16.0726 12.9283 15.7971 12.5831 15.7971H10.4431H9.22506ZM13.5734 6.54004C13.2282 6.54004 12.8998 6.81561 12.8398 7.15554C12.7799 7.49548 13.0111 7.77105 13.3563 7.77105H17.6693L17.4846 9.00416H14.3614C13.9886 9.00416 13.6341 9.30158 13.5694 9.66871C13.5046 10.0358 13.7542 10.3333 14.127 10.3333H17.2855L17.126 11.3975L17.1176 11.4392H11.7552C11.3826 11.4394 11.028 11.7369 10.9632 12.1038C10.8985 12.4708 11.1483 12.7682 11.5209 12.7684H16.8491L16.6256 13.8743H14.8083C14.4356 13.8743 14.0812 14.1719 14.0163 14.5389C13.9516 14.906 14.201 15.2044 14.5737 15.2044H16.3569L16.3466 15.2553C16.4028 15.2358 16.4598 15.2188 16.5174 15.2044H16.5272C15.7613 15.3958 15.106 16.0528 14.9682 16.834C14.804 17.7651 15.4374 18.5199 16.3828 18.5199C17.3283 18.5199 18.2278 17.7651 18.392 16.834C18.4187 16.6825 18.4243 16.5356 18.4109 16.3959H18.411C18.4244 16.5356 18.4188 16.6825 18.3921 16.8341C18.3795 16.9055 18.3626 16.9758 18.3417 17.0448H18.7458C19.1833 17.0448 19.6335 16.8867 20.011 16.6004L20.1905 16.4643C20.222 16.4404 20.2521 16.415 20.2806 16.3884C20.5874 16.342 20.8606 16.0875 20.9148 15.7804L21.2672 13.782C21.3267 13.444 21.2761 13.1147 21.1225 12.8414L20.3725 11.5065C20.0271 10.8922 19.3661 10.5286 18.5947 10.5284H18.5066L19.0144 7.13948C19.0644 6.80592 18.8341 6.54004 18.4953 6.54004H13.5734ZM17.812 15.1649L18.3222 11.7594H18.3777C18.7491 11.7596 19.0668 11.9349 19.2331 12.2307L19.984 13.5656C20.0193 13.6285 20.0308 13.7042 20.0172 13.782L19.7733 15.1649H17.812ZM14.9452 17.0281C14.949 16.9644 14.9566 16.8997 14.9682 16.8341C15.0371 16.443 15.2358 16.0831 15.5131 15.7971H14.5091C14.1639 15.7971 13.8355 16.0726 13.7755 16.4126C13.7156 16.7525 13.9468 17.0281 14.292 17.0281H14.9452ZM7.77245 16.3791C8.02757 16.3791 8.19842 16.5828 8.15416 16.834C8.10985 17.0853 7.86717 17.2889 7.61203 17.2889C7.35692 17.2889 7.18603 17.0853 7.23033 16.834C7.27466 16.5828 7.51735 16.3792 7.77245 16.3791ZM17.142 16.834C17.1863 16.5828 17.0154 16.3791 16.7603 16.3791C16.5052 16.3792 16.2625 16.5828 16.2182 16.834C16.1739 17.0853 16.3448 17.2889 16.5999 17.2889C16.855 17.2889 17.0977 17.0853 17.142 16.834ZM3.6597 13.4669C3.71944 13.1272 3.4883 12.8514 3.14323 12.8514H2.66374C2.31879 12.8516 1.99028 13.1273 1.93021 13.4669C1.87029 13.8068 2.10168 14.0823 2.44668 14.0825H2.92617C3.27135 14.0824 3.59976 13.8069 3.6597 13.4669ZM3.6911 11.8157C3.75104 11.4757 3.51981 11.2002 3.17463 11.2002H2.62385C2.27875 11.2003 1.95025 11.4758 1.89032 11.8157C1.83039 12.1555 2.06173 12.4311 2.40679 12.4312H2.95757C3.30275 12.4312 3.63116 12.1556 3.6911 11.8157ZM4.17119 10.4C4.2311 10.0602 3.99965 9.78473 3.65472 9.7845H3.17523C2.83005 9.7845 2.50164 10.0601 2.4417 10.4C2.38176 10.7399 2.61299 11.0155 2.95817 11.0155H3.43766C3.78268 11.0153 4.11128 10.7398 4.17119 10.4ZM4.20304 8.98434C4.26296 8.64452 4.03155 8.36902 3.68657 8.36883H2.62407C2.27889 8.36883 1.95048 8.64441 1.89054 8.98434C1.8306 9.32427 2.06183 9.59984 2.40701 9.59984H3.46951C3.81456 9.59966 4.14312 9.32416 4.20304 8.98434Z" fill="#332A2A"/>
</g>
<defs>
<clipPath id="clip0_607_5169">
<rect width="23" height="23" fill="white"/>
</clipPath>
</defs>
</svg>
