<svg width="44" height="44" viewBox="0 0 44 44" fill="none" xmlns="http://www.w3.org/2000/svg">
<g clip-path="url(#clip0_1894_12809)">
<path d="M37.583 6.58301C37.9971 6.58301 38.3328 6.91894 38.333 7.33301V16.5C38.9912 16.0071 39.5809 15.5942 39.9805 15.3809C40.3458 15.1859 40.8 15.3233 40.9951 15.6885C41.1899 16.0538 41.0517 16.5081 40.6865 16.7031C40.1415 16.9942 38.9901 17.8588 37.7627 18.8398C36.5597 19.8013 35.3551 20.8173 34.7363 21.3584C34.696 21.3937 34.667 21.4495 34.667 21.5215V23.834C34.6666 24.2478 34.3308 24.5838 33.917 24.584C33.503 24.584 33.1673 24.2479 33.167 23.834V21.5215C33.167 21.0353 33.3692 20.5606 33.749 20.2285C33.8959 20.1001 34.0734 19.9458 34.2754 19.7734C33.486 19.3462 32.567 18.9639 31.6797 18.6787L24.626 22.1973C24.4576 22.2811 24.2637 22.2984 24.083 22.2461L10.833 18.4131V21.2354C11.1117 21.0005 11.4054 20.752 11.707 20.5039C12.0268 20.2413 12.4997 20.287 12.7627 20.6064C13.0256 20.9262 12.9797 21.399 12.6602 21.6621C12.5529 21.7503 12.4488 21.839 12.3457 21.9248C12.4869 21.9473 12.6325 21.9688 12.7812 21.9941C14.0672 22.2135 15.7157 22.5558 17.5947 23.0146C17.9967 23.1131 18.2425 23.5188 18.1445 23.9209C18.0463 24.3233 17.6407 24.5699 17.2383 24.4717C15.386 24.0194 13.7728 23.685 12.5283 23.4727C11.8133 23.3507 11.2459 23.2761 10.833 23.2363V33.7959L18.9824 35.9414C19.3827 36.0469 19.6218 36.457 19.5166 36.8574C19.4111 37.2578 19.0011 37.4969 18.6006 37.3916L9.90137 35.1016V35.1025L4.59082 33.7744C4.14593 33.663 3.83311 33.2633 3.83301 32.8047V24.75C3.83318 24.336 4.16905 24.0002 4.58301 24C4.99711 24 5.33283 24.3359 5.33301 24.75V32.4141L9.33301 33.4141V17.8174C9.33308 17.6253 9.36835 17.4334 9.43457 17.251C9.36901 17.0666 9.33306 16.869 9.33301 16.665V15.7959C9.33321 15.5119 9.49394 15.2519 9.74805 15.125L13 13.5029L11.6357 13.1367C10.6409 13.7102 9.31601 14.4223 8.14551 15.0752C7.51242 15.4283 6.91941 15.7675 6.42773 16.0693C5.92448 16.3783 5.56724 16.6241 5.37793 16.792C5.35316 16.814 5.3331 16.8522 5.33301 16.9014V21.541C5.33301 21.9552 4.99722 22.291 4.58301 22.291C4.16894 22.2908 3.83301 21.9551 3.83301 21.541V16.9014C3.8331 16.4394 4.0251 15.9872 4.38281 15.6699C4.67949 15.4068 5.13672 15.1021 5.64355 14.791C6.16222 14.4726 6.77657 14.1208 7.41504 13.7646C8.38428 13.224 9.39954 12.6755 10.2676 12.1895C10.188 11.7732 10.362 11.31 10.8203 11.0938L13.0869 10.0244C13.4545 9.85101 13.8709 9.81261 14.2637 9.91211C14.3165 9.87834 14.3731 9.84835 14.4355 9.82812C15.4997 9.48374 16.6916 9.20084 17.874 9.00391C17.9801 8.98624 18.0409 8.90032 18.041 8.82227V7.33301C18.0412 6.91916 18.3772 6.58336 18.791 6.58301C19.2051 6.58301 19.5408 6.91894 19.541 7.33301V8.82227C19.5409 9.6629 18.9212 10.3501 18.1211 10.4834C17.7422 10.5465 17.364 10.6218 16.9902 10.7021L18.0186 11.001L20.4014 9.81348C20.7922 9.61871 21.2422 9.57664 21.6621 9.69629L22.167 9.83984V7.33301C22.1672 6.91894 22.5029 6.58301 22.917 6.58301C23.3309 6.58318 23.6668 6.91905 23.667 7.33301V10.2676L35.4971 13.6426C35.819 13.7344 36.0408 14.0286 36.041 14.3633V15.8867C36.041 16.2659 35.8266 16.6121 35.4873 16.7812L33.5234 17.7598C34.2202 18.0487 34.8993 18.3841 35.499 18.7471C35.9217 18.3976 36.3743 18.0292 36.8262 17.668C36.8285 17.6661 36.8307 17.664 36.833 17.6621V7.33301C36.8332 6.91905 37.1691 6.58318 37.583 6.58301ZM23.5771 25.4502C23.7028 25.0556 24.1249 24.8373 24.5195 24.9629C27.3359 25.8588 30.3046 26.9336 33.167 28.1787V26.583C33.1672 26.1689 33.5029 25.833 33.917 25.833C34.3309 25.8332 34.6668 26.1691 34.667 26.583V36.666C34.667 37.0801 34.3311 37.4158 33.917 37.416C33.5028 37.416 33.167 37.0802 33.167 36.666V29.8213C30.1798 28.4887 27.0423 27.3399 24.0645 26.3926C23.6698 26.267 23.4516 25.8449 23.5771 25.4502ZM11.6084 17.0762L23.541 20.5273V20.4131L11.6455 17.0205C11.6343 17.0398 11.6215 17.0578 11.6084 17.0762ZM25.041 20.3125V20.3135L34.541 15.5771V15.5752L25.041 20.3125ZM21.251 11.1396C21.1911 11.1227 21.126 11.1285 21.0703 11.1562L15.4414 13.9629L12.1475 15.6045L24.2168 19.0469L33.2266 14.5547L21.251 11.1396ZM13.9033 11.3672C13.8451 11.3505 13.7824 11.3551 13.7275 11.3809L12.6924 11.8682L15.0244 12.4932L16.0391 11.9873L13.9033 11.3672Z" fill="#332A2A"/>
</g>
<defs>
<clipPath id="clip0_1894_12809">
<rect width="44" height="44" fill="white"/>
</clipPath>
</defs>
</svg>
