<svg width="44" height="44" viewBox="0 0 44 44" fill="none" xmlns="http://www.w3.org/2000/svg">
<g clip-path="url(#clip0_256_1196)">
<path fill-rule="evenodd" clip-rule="evenodd" d="M10.6624 14.0159H35.2255L33.9988 20.9725H34.8176L37.0421 21.5244L39.7057 25.7551L38.939 30.103H32.3889L32.3889 29.5335L32.3889 29.0876C30.8628 29.0876 29.615 29.9071 28.9869 31.4074H17.8198C17.653 30.062 16.6384 29.0876 15.2377 29.0876C13.8369 29.0876 12.4787 30.062 11.8375 31.4074H7.59576L10.6624 14.0159Z" fill="#E05149"/>
<path fill-rule="evenodd" clip-rule="evenodd" d="M11.149 14.8956C11.1627 14.8177 11.238 14.7546 11.3171 14.7546H16.5647H21.0679C21.4821 14.7546 21.8762 14.4239 21.9481 14.0159C22.0201 13.608 21.7426 13.2773 21.3284 13.2773H16.8251H11.5776C10.67 13.2773 9.8066 14.0019 9.64901 14.8956L6.73915 31.3983C6.66722 31.8062 6.9447 32.1369 7.35891 32.1369H11.4534C11.4489 32.1593 11.4447 32.1819 11.4408 32.2044C11.1267 33.9857 12.3383 35.4298 14.1471 35.4298C15.9559 35.4298 17.6768 33.9857 17.9909 32.2044C17.9949 32.1819 17.9986 32.1593 18.0021 32.1369H19.6405H23.7343C24.1485 32.1369 24.5426 31.8062 24.6145 31.3983C24.6865 30.9904 24.409 30.6597 23.9948 30.6597H19.9009H17.8639C17.4847 29.6583 16.525 28.9791 15.2845 28.9791C14.0441 28.9791 12.8449 29.6583 12.1125 30.6597H8.36938L9.0331 26.8955H10.781C11.1952 26.8955 11.5893 26.5649 11.6612 26.1569C11.7331 25.749 11.4557 25.4183 11.0415 25.4183H9.29357L9.95726 21.6544H13.7868C14.201 21.6544 14.5951 21.3237 14.667 20.9158C14.7389 20.5079 14.4614 20.1772 14.0472 20.1772H10.2177L11.149 14.8956ZM25.8316 13.2773C25.4174 13.2773 25.0233 13.608 24.9514 14.0159C24.8794 14.4239 25.1569 14.7546 25.5711 14.7546H34.237L33.7074 17.7582H27.3798C26.9656 17.7582 26.5715 18.0889 26.4996 18.4968C26.4276 18.9047 26.7051 19.2354 27.1193 19.2354H33.4469L33.0816 21.3073L33.0794 21.319L32.8858 22.417H22.3951C21.9809 22.417 21.5868 22.7477 21.5149 23.1556C21.4429 23.5635 21.7204 23.8942 22.1346 23.8942H32.6253L32.0643 27.0758H28.2348C27.8206 27.0758 27.4265 27.4065 27.3546 27.8144C27.2826 28.2223 27.5601 28.553 27.9743 28.553H31.8039L31.7137 29.0641C30.2075 29.398 28.9042 30.6773 28.6349 32.2044C28.3208 33.9857 29.5325 35.4298 31.3413 35.4298C33.0114 35.4298 34.6067 34.1986 35.0887 32.6076H36.4818C36.9193 32.6076 37.3695 32.4495 37.7469 32.1632L38.9415 31.2574C39.1578 31.0933 39.3077 30.8594 39.3548 30.6129C39.4617 30.4928 39.5378 30.3465 39.5656 30.1886L40.1782 26.7145C40.3158 25.934 40.1988 25.1736 39.844 24.5424L38.1949 21.609C37.8316 20.9627 37.1365 20.5803 36.325 20.5803H34.7097L35.8672 14.0159C35.9392 13.608 35.6617 13.2773 35.2475 13.2773H25.8316ZM34.1005 29.45C33.84 29.2747 33.5419 29.143 33.2138 29.0641L34.4493 22.0576H36.0646C36.3962 22.0576 36.6802 22.2138 36.8286 22.4779L38.4777 25.4112C38.6906 25.79 38.7608 26.2462 38.6782 26.7145L38.1959 29.45H34.1005ZM28.6475 32.1369C28.7529 31.6024 28.9847 31.0999 29.3067 30.6597H27.6793C27.265 30.6597 26.8709 30.9904 26.799 31.3983C26.7271 31.8062 27.0046 32.1369 27.4188 32.1369H28.6475ZM16.4909 32.2044C16.3207 33.1699 15.3879 33.9526 14.4076 33.9526C13.4272 33.9526 12.7705 33.1699 12.9408 32.2044C13.111 31.239 14.0437 30.4563 15.0241 30.4563C16.0044 30.4563 16.6612 31.239 16.4909 32.2044ZM31.6018 33.9526C32.5821 33.9526 33.5149 33.1699 33.6851 32.2044C33.8553 31.239 33.1986 30.4563 32.2183 30.4563C31.2379 30.4563 30.3052 31.239 30.1349 32.2044C29.9647 33.1699 30.6214 33.9526 31.6018 33.9526ZM4.94271 16.4489C4.5285 16.4489 4.13441 16.7796 4.06248 17.1876C3.99055 17.5955 4.26803 17.9262 4.68224 17.9262H8.11974C8.53395 17.9262 8.92805 17.5955 8.99998 17.1876C9.07191 16.7796 8.79443 16.4489 8.38021 16.4489H4.94271ZM7.00521 19.1572C6.591 19.1572 6.1969 19.4879 6.12498 19.8958C6.05305 20.3037 6.33053 20.6344 6.74474 20.6344H7.66141C8.07562 20.6344 8.46972 20.3037 8.54164 19.8958C8.61357 19.4879 8.33609 19.1572 7.92188 19.1572H7.00521ZM4.94271 21.8654C4.5285 21.8654 4.1344 22.1961 4.06248 22.604C3.99055 23.0119 4.26803 23.3426 4.68224 23.3426H6.97391C7.38812 23.3426 7.78222 23.0119 7.85414 22.604C7.92607 22.1961 7.64859 21.8654 7.23438 21.8654H4.94271ZM5.49297 25.025C5.07876 25.025 4.68466 25.3557 4.61274 25.7636C4.54081 26.1715 4.81829 26.5022 5.2325 26.5022H6.14917C6.56338 26.5022 6.95747 26.1715 7.0294 25.7636C7.10133 25.3557 6.82385 25.025 6.40964 25.025H5.49297ZM5.17188 27.7332C4.75767 27.7332 4.36357 28.0639 4.29164 28.4718C4.21972 28.8797 4.49719 29.2104 4.91141 29.2104H5.82807C6.24229 29.2104 6.63638 28.8797 6.70831 28.4718C6.78024 28.0639 6.50276 27.7332 6.08855 27.7332H5.17188Z" fill="#252323"/>
</g>
<defs>
<clipPath id="clip0_256_1196">
<rect width="44" height="44" fill="white"/>
</clipPath>
</defs>
</svg>
