<svg width="18" height="18" viewBox="0 0 18 18" fill="none" xmlns="http://www.w3.org/2000/svg">
<g clip-path="url(#clip0_607_5075)">
<path fill-rule="evenodd" clip-rule="evenodd" d="M4.61542 6.87973C4.65313 6.66587 4.85975 6.4925 5.07691 6.4925H6.69584H8.53807C8.81421 6.4925 9.07694 6.27204 9.1249 6.00009C9.17285 5.72815 8.98786 5.50769 8.71172 5.50769H6.86949H5.25055C4.48111 5.50769 3.74904 6.12197 3.61542 6.87973L2.56362 12.8448C2.51567 13.1167 2.70066 13.3372 2.9768 13.3372H4.66172C4.62813 13.9892 5.10342 14.494 5.78747 14.494C6.47151 14.494 7.12484 13.9892 7.32118 13.3372H8.00107H9.67583C9.95197 13.3372 10.2147 13.1167 10.2627 12.8448C10.3106 12.5728 10.1256 12.3524 9.84948 12.3524H8.17472H7.21305C7.021 12.0493 6.67704 11.8551 6.25277 11.8551C5.82851 11.8551 5.41606 12.0493 5.11714 12.3524H3.65045L3.85488 11.193H4.37686C4.653 11.193 4.91573 10.9725 4.96369 10.7006C5.01164 10.4286 4.82665 10.2082 4.55051 10.2082H4.02853L4.23294 9.04888H5.6065C5.88264 9.04888 6.14537 8.82843 6.19332 8.55648C6.24127 8.28453 6.05629 8.06407 5.78015 8.06407H4.40659L4.61542 6.87973ZM10.554 5.50769C10.2778 5.50769 10.0151 5.72815 9.96713 6.00009C9.93173 6.20082 10.0232 6.37349 10.1846 6.45017C10.2419 6.47738 10.308 6.4925 10.3803 6.4925H13.7322L13.6296 7.07449H11.2344C10.9932 7.07449 10.7623 7.24259 10.6757 7.4663C10.6632 7.49877 10.6536 7.53242 10.6476 7.56689C10.6059 7.80313 10.74 8.00052 10.957 8.04828C10.9898 8.05549 11.0245 8.05929 11.0607 8.05929H13.456L13.2936 8.98036H11.4075H9.19518C8.91904 8.98036 8.65631 9.20082 8.60835 9.47276C8.5604 9.74471 8.74539 9.96517 9.02153 9.96517H11.8834H13.1199L12.9575 10.8862H12.3286H11.5842C11.308 10.8862 11.0453 11.1067 10.9973 11.3786C10.9494 11.6506 11.1344 11.871 11.4105 11.871H12.7839L12.7699 11.9501L12.77 11.9501C12.5385 12.0358 12.3255 12.1756 12.1511 12.3524H11.3568C11.0806 12.3524 10.8179 12.5728 10.7699 12.8448C10.722 13.1167 10.907 13.3372 11.1831 13.3372H11.6957C11.6984 13.2839 11.7046 13.2296 11.7143 13.1746C11.7218 13.132 11.7313 13.0899 11.7426 13.0484C11.7313 13.0899 11.7218 13.132 11.7143 13.1746C11.5858 13.9033 12.0815 14.494 12.8214 14.494C13.5047 14.494 14.1573 13.9904 14.3545 13.3395H14.5683C14.9766 13.3395 15.3968 13.1919 15.7492 12.9247C15.7843 12.8981 15.8175 12.8695 15.8486 12.8393C16.1033 12.812 16.3344 12.6033 16.3791 12.3499L16.6426 10.8559C16.6976 10.5437 16.6508 10.2395 16.5089 9.98705L16.0419 9.15631C15.7248 8.59227 15.1274 8.25122 14.4259 8.23006L14.8191 6.00009C14.867 5.72815 14.682 5.50769 14.4059 5.50769H10.554ZM12.77 11.9501C12.7831 11.9452 12.7962 11.9405 12.8094 11.936C12.7962 11.9405 12.7831 11.9452 12.77 11.9501L12.77 11.9501ZM14.2522 9.21568L13.7863 11.8575H15.4659L15.6426 10.8559C15.6609 10.7518 15.6453 10.6504 15.598 10.5663L15.131 9.73555C14.9572 9.42637 14.6337 9.23628 14.2522 9.21568ZM6.35993 13.1746C6.32734 13.3594 6.14878 13.5092 5.96111 13.5092C5.77344 13.5092 5.64773 13.3594 5.68031 13.1746C5.7129 12.9897 5.89146 12.8399 6.07913 12.8399C6.2668 12.8399 6.39251 12.9897 6.35993 13.1746ZM12.9951 13.5092C13.1828 13.5092 13.3613 13.3594 13.3939 13.1746C13.4265 12.9897 13.3008 12.8399 13.1131 12.8399C12.9254 12.8399 12.7469 12.9897 12.7143 13.1746C12.6817 13.3594 12.8074 13.5092 12.9951 13.5092ZM1.71512 6.53901C1.43898 6.53901 1.17625 6.75946 1.1283 7.03141C1.08035 7.30336 1.26533 7.52381 1.54148 7.52381H2.4133C2.68944 7.52381 2.95217 7.30336 3.00013 7.03141C3.04808 6.75946 2.86309 6.53901 2.58695 6.53901H1.71512ZM2.21176 7.64692C1.93562 7.64692 1.67289 7.86737 1.62494 8.13932C1.57699 8.41127 1.76197 8.63172 2.03811 8.63172H2.41311C2.68926 8.63172 2.95199 8.41127 2.99994 8.13932C3.04789 7.86737 2.8629 7.64692 2.58676 7.64692H2.21176ZM1.64926 8.75482C1.37312 8.75482 1.11039 8.97528 1.06244 9.24723C1.01449 9.51918 1.19947 9.73963 1.47561 9.73963H2.41311C2.68926 9.73963 2.95199 9.51918 2.99994 9.24723C3.04789 8.97528 2.8629 8.75482 2.58676 8.75482H1.64926ZM2.03062 10.0474C1.75447 10.0474 1.49174 10.2678 1.44379 10.5398C1.39584 10.8117 1.58083 11.0322 1.85697 11.0322H2.23197C2.50811 11.0322 2.77084 10.8117 2.81879 10.5398C2.86674 10.2678 2.68176 10.0474 2.40562 10.0474H2.03062ZM1.71195 11.1553C1.43581 11.1553 1.17308 11.3758 1.12513 11.6477C1.07717 11.9196 1.26216 12.1401 1.5383 12.1401H1.9133C2.18944 12.1401 2.45217 11.9196 2.50013 11.6477C2.54808 11.3758 2.36309 11.1553 2.08695 11.1553H1.71195Z" fill="#332A2A"/>
</g>
<defs>
<clipPath id="clip0_607_5075">
<rect width="18" height="18" fill="white"/>
</clipPath>
</defs>
</svg>
