<svg width="23" height="23" viewBox="0 0 23 23" fill="none" xmlns="http://www.w3.org/2000/svg">
<g clip-path="url(#clip0_1437_12815)">
<path d="M3.35449 10.8247C3.72694 10.8249 4.02897 11.1271 4.0293 11.4995V17.646C4.02947 18.3776 4.62282 18.9702 5.35449 18.9702H7.42773L7.56348 18.9849C7.87079 19.0479 8.10241 19.3201 8.10254 19.646C8.10239 19.9719 7.87078 20.2441 7.56348 20.3071L7.42773 20.3208H5.35449C3.87724 20.3208 2.67986 19.1232 2.67969 17.646V11.4995C2.68001 11.127 2.9819 10.8247 3.35449 10.8247ZM19.6465 16.814C20.0189 16.8143 20.3211 17.1173 20.3213 17.4897V17.646C20.3211 19.123 19.1234 20.3204 17.6465 20.3208H11.5C11.1275 20.3206 10.8254 20.0185 10.8252 19.646C10.8253 19.2734 11.1274 18.9704 11.5 18.9702H17.6465C18.3779 18.9699 18.9705 18.3774 18.9707 17.646V17.4897C18.9709 17.1171 19.2738 16.814 19.6465 16.814ZM11.0312 9.38721C11.2895 9.20901 11.6455 9.23003 11.8809 9.45557C12.1497 9.71374 12.1585 10.1417 11.9004 10.4106L7.08984 15.4214C7.07545 15.4364 7.06201 15.4528 7.05078 15.4702L7.02246 15.5259L6.59473 16.5874L7.47656 16.4087L7.56543 16.3765C7.59315 16.3616 7.61909 16.3433 7.6416 16.3208L10.0127 13.9497L10.1191 13.8628C10.3811 13.69 10.7372 13.7191 10.9678 13.9497C11.231 14.2133 11.231 14.6403 10.9678 14.9038L8.59668 17.2749C8.39323 17.4784 8.1409 17.6251 7.86523 17.7026L7.74609 17.7319L5.63477 18.1616C5.39149 18.2111 5.14039 18.1228 4.98145 17.9321C4.82252 17.7413 4.78126 17.478 4.87402 17.2476L5.77051 15.021L5.83691 14.8755C5.91057 14.7335 6.00504 14.6026 6.11621 14.4868L10.9268 9.4751L11.0312 9.38721ZM19.6465 10.3452C20.0189 10.3456 20.3211 10.6485 20.3213 11.021V15.3335C20.3211 15.7059 20.0189 16.0079 19.6465 16.0083C19.2738 16.0083 18.9709 15.7061 18.9707 15.3335V11.021C18.9709 10.6483 19.2738 10.3452 19.6465 10.3452ZM13.5518 12.3198C13.2882 12.5834 12.8603 12.5834 12.5967 12.3198C12.3333 12.0563 12.3334 11.6293 12.5967 11.3657L13.5518 12.3198ZM16.9014 3.26416C17.5579 2.7075 18.5458 2.73679 19.168 3.35889L20.3633 4.5542C20.4896 4.68075 20.5605 4.85288 20.5605 5.03174C20.5604 5.21041 20.4895 5.38185 20.3633 5.5083L13.5518 12.3198L13.0742 11.8423L12.5967 11.3657L17.2871 6.67432L16.3682 5.75537L14.373 7.83447L14.2695 7.92334C14.0111 8.10184 13.6543 8.07993 13.4189 7.854C13.1501 7.59582 13.1413 7.1688 13.3994 6.8999L15.8721 4.32471L16.7754 3.3833L16.9014 3.26416ZM11.6367 2.69287C11.9439 2.75604 12.1757 3.02815 12.1758 3.354C12.1758 3.67994 11.9439 3.95191 11.6367 4.01514L11.5 4.02881H5.35449C4.62281 4.02881 4.02944 4.62235 4.0293 5.354V7.42725C4.02912 7.79978 3.72703 8.10187 3.35449 8.10205C2.98181 8.10205 2.67986 7.79989 2.67969 7.42725V5.354C2.67983 3.87677 3.87722 2.6792 5.35449 2.6792H11.5L11.6367 2.69287ZM18.2129 4.31396C18.1003 4.2014 17.9261 4.1884 17.7998 4.2749L17.749 4.31885L17.3027 4.78174L18.2412 5.72021L18.9307 5.03076L18.2129 4.31396Z" fill="#252323"/>
</g>
<defs>
<clipPath id="clip0_1437_12815">
<rect width="23" height="23" fill="white"/>
</clipPath>
</defs>
</svg>
