<svg width="44" height="44" viewBox="0 0 44 44" fill="none" xmlns="http://www.w3.org/2000/svg">
<g clip-path="url(#clip0_597_3032)">
<path fill-rule="evenodd" clip-rule="evenodd" d="M9.4585 16.6389C9.4585 10.1691 14.8997 4.87952 21.668 4.87952C28.4363 4.87952 33.8775 10.1691 33.8775 16.6389C33.8775 17.0531 34.2133 17.3889 34.6275 17.3889C35.0417 17.3889 35.3775 17.0531 35.3775 16.6389C35.3775 9.29115 29.2143 3.37952 21.668 3.37952C14.1217 3.37952 7.9585 9.29115 7.9585 16.6389C7.9585 21.0103 9.54389 24.4106 12.6781 28.8726C12.9162 29.2116 13.384 29.2934 13.7229 29.0553C14.0619 28.8172 14.1436 28.3494 13.9056 28.0105C10.8444 23.6524 9.4585 20.5598 9.4585 16.6389ZM24.635 34.4558C23.932 33.2847 23.5277 31.9137 23.5277 30.4484C23.5277 26.1423 27.0184 22.6516 31.3245 22.6516C34.0371 22.6516 36.4258 24.0376 37.8213 26.1365C38.0506 26.4814 37.9569 26.947 37.612 27.1763C37.2671 27.4056 36.8015 27.3119 36.5722 26.967C35.4429 25.2684 33.5139 24.1516 31.3245 24.1516C27.8469 24.1516 25.0277 26.9708 25.0277 30.4484C25.0277 33.926 27.8469 36.7451 31.3245 36.7451C34.8021 36.7451 37.6212 33.926 37.6212 30.4484C37.6212 30.0341 37.957 29.6984 38.3712 29.6984C38.7854 29.6984 39.1212 30.0341 39.1212 30.4484C39.1212 34.7544 35.6305 38.2451 31.3245 38.2451C29.0422 38.2451 26.9889 37.2645 25.563 35.7016C25.1033 36.2838 24.6266 36.8857 24.1327 37.5094L24.1323 37.51C23.5325 38.2673 22.9074 39.0566 22.2568 39.8812C22.1137 40.0627 21.8949 40.168 21.6638 40.1667C21.4327 40.1654 21.2152 40.0576 21.0741 39.8746C20.0706 38.5732 19.1323 37.3682 18.2519 36.2378L18.2491 36.2341L18.2483 36.2331L18.2479 36.2326L18.2473 36.2318L18.2472 36.2316C17.6189 35.4249 17.0202 34.6561 16.4486 33.9173C16.1951 33.5897 16.2551 33.1187 16.5827 32.8652C16.9103 32.6117 17.3814 32.6718 17.6349 32.9994C18.1992 33.7286 18.7966 34.4957 19.4251 35.3028C20.136 36.2158 20.8867 37.1798 21.6746 38.1982C22.1178 37.6375 22.5476 37.0947 22.9643 36.5685L22.9643 36.5684L22.9645 36.5683L22.9645 36.5682C23.5468 35.8329 24.1034 35.1299 24.635 34.4558ZM21.6184 8.99998C17.6871 8.99998 14.5001 12.1869 14.5001 16.1183C14.5001 18.2347 15.4228 20.1346 16.8903 21.4395C17.1998 21.7148 17.2276 22.1888 16.9523 22.4984C16.6771 22.8079 16.203 22.8357 15.8935 22.5604C14.1195 20.9829 13.0001 18.6808 13.0001 16.1183C13.0001 11.3585 16.8586 7.49998 21.6184 7.49998C26.3781 7.49998 30.2367 11.3585 30.2367 16.1183C30.2367 20.878 26.3781 24.7365 21.6184 24.7365C20.5285 24.7365 19.4842 24.5339 18.5223 24.1635C18.1357 24.0146 17.943 23.5806 18.0919 23.194C18.2407 22.8075 18.6747 22.6148 19.0613 22.7637C19.8539 23.0689 20.7157 23.2365 21.6184 23.2365C25.5497 23.2365 28.7367 20.0496 28.7367 16.1183C28.7367 12.1869 25.5497 8.99998 21.6184 8.99998Z" fill="#332A2A"/>
<path d="M34.3603 29.0293L35.0682 28.3213L33.6523 26.9055L32.9486 27.6176M34.3603 29.0293L30.1128 33.2767L27.9891 33.9846L28.697 31.8609L32.9486 27.6176M34.3603 29.0293L32.9486 27.6176" stroke="#332A2A" stroke-linecap="round" stroke-linejoin="round"/>
</g>
<defs>
<clipPath id="clip0_597_3032">
<rect width="44" height="44" fill="white"/>
</clipPath>
</defs>
</svg>
