<svg width="18" height="18" viewBox="0 0 18 18" fill="none" xmlns="http://www.w3.org/2000/svg">
<g clip-path="url(#clip0_597_3035)">
<path fill-rule="evenodd" clip-rule="evenodd" d="M8.86412 2.31433C6.26028 2.31433 4.1875 4.34632 4.1875 6.80679C4.1875 8.31523 4.71217 9.51517 5.94894 11.2759C6.14734 11.5584 6.0792 11.9482 5.79674 12.1466C5.51428 12.345 5.12446 12.2769 4.92606 11.9944C3.62838 10.1469 2.9375 8.69066 2.9375 6.80679C2.9375 3.61467 5.61195 1.06433 8.86412 1.06433C12.1163 1.06433 14.7907 3.61467 14.7907 6.80679C14.7907 7.15197 14.5109 7.43179 14.1657 7.43179C13.8206 7.43179 13.5407 7.15197 13.5407 6.80679C13.5407 4.34632 11.468 2.31433 8.86412 2.31433ZM10.1078 13.5429C9.80924 13.9233 9.48916 14.3275 9.1466 14.7602L8.86939 15.1104C8.63678 14.8105 8.41233 14.5223 8.19704 14.2458L8.19627 14.2449C7.93915 13.9147 7.6951 13.6013 7.46584 13.305C7.2546 13.032 6.86205 12.9819 6.58906 13.1932C6.31606 13.4044 6.26601 13.797 6.47725 14.07C6.71278 14.3744 6.95809 14.6894 7.21517 15.0195L7.2152 15.0195L7.2154 15.0198L7.21568 15.0201L7.21587 15.0204L7.21602 15.0206C7.57555 15.4822 7.95811 15.9735 8.36915 16.5066C8.48674 16.6591 8.66806 16.7489 8.86063 16.75C9.05319 16.7511 9.23551 16.6633 9.35479 16.5121C9.61958 16.1765 9.87446 15.8547 10.1194 15.5454L10.1199 15.5447L10.12 15.5447L10.1209 15.5436C10.3823 15.2135 10.6325 14.8976 10.8713 14.5944C11.4008 15.0639 12.0975 15.349 12.8608 15.349C14.5177 15.349 15.8608 14.0059 15.8608 12.349C15.8608 12.0729 15.637 11.849 15.3608 11.849C15.0847 11.849 14.8608 12.0729 14.8608 12.349C14.8608 13.4536 13.9654 14.349 12.8608 14.349C11.7563 14.349 10.8608 13.4536 10.8608 12.349C10.8608 11.2444 11.7563 10.349 12.8608 10.349C13.556 10.349 14.1687 10.7033 14.5278 11.2434C14.6807 11.4734 14.9911 11.5358 15.221 11.383C15.451 11.2301 15.5134 10.9197 15.3605 10.6897C14.8239 9.88266 13.9048 9.349 12.8608 9.349C11.204 9.349 9.86084 10.6921 9.86084 12.349C9.86084 12.7733 9.94893 13.1771 10.1078 13.5429ZM13.2348 12.2949L12.7014 12.8283L12.5974 12.9323L12.5971 12.9324L12.1317 13.1345L12.3339 12.6688L12.4379 12.5649L12.9719 12.0319L12.9729 12.0309L13.2373 11.767L13.5016 11.501L13.5027 11.5L13.7662 11.7635L13.7652 11.7646L13.5008 12.029L13.5 12.0297L13.4998 12.0299L13.2359 12.2938L13.2348 12.2949ZM11.804 12.138L12.7064 11.2372L12.9708 10.9712C13.1113 10.8299 13.3023 10.7503 13.5016 10.75C13.7009 10.7497 13.8921 10.8288 14.033 10.9697L14.2965 11.2332C14.5894 11.5261 14.5894 12.001 14.2965 12.2938L14.0303 12.5601L13.1278 13.4626C13.0611 13.5293 12.9825 13.5827 12.8961 13.6203L12.4304 13.8224C12.1479 13.9451 11.8192 13.8826 11.6014 13.6648C11.3836 13.447 11.3211 13.1183 11.4438 12.8358L11.6459 12.3701C11.6836 12.2835 11.7372 12.2047 11.804 12.138ZM8.84384 4.2897C7.5713 4.2897 6.5397 5.3213 6.5397 6.59384C6.5397 7.27886 6.83784 7.89344 7.31347 8.3164C7.57142 8.54577 7.59458 8.94082 7.3652 9.19877C7.13583 9.45671 6.74078 9.47987 6.48283 9.25049C5.75175 8.60038 5.2897 7.65067 5.2897 6.59384C5.2897 4.63094 6.88094 3.0397 8.84384 3.0397C10.8067 3.0397 12.398 4.63094 12.398 6.59384C12.398 8.55674 10.8067 10.148 8.84384 10.148C8.49866 10.148 8.21884 9.86816 8.21884 9.52299C8.21884 9.17781 8.49866 8.89799 8.84384 8.89799C10.1164 8.89799 11.148 7.86638 11.148 6.59384C11.148 5.3213 10.1164 4.2897 8.84384 4.2897Z" fill="#252323"/>
<path d="M13.75 12.25L13.25 11.75L13.75 11.25L14.25 11.75L13.75 12.25Z" fill="#252323"/>
</g>
<defs>
<clipPath id="clip0_597_3035">
<rect width="18" height="18" fill="white"/>
</clipPath>
</defs>
</svg>
