<svg width="18" height="18" viewBox="0 0 18 18" fill="none" xmlns="http://www.w3.org/2000/svg">
<g clip-path="url(#clip0_597_2985)">
<path fill-rule="evenodd" clip-rule="evenodd" d="M10.5131 14.0389C10.2368 14.3903 9.94365 14.7605 9.63335 15.1524L9.63328 15.1524C9.38771 15.4626 9.13139 15.7862 8.86412 16.125C8.45321 15.592 8.06721 15.0964 7.70576 14.6322L7.70575 14.6322C4.88809 11.014 3.5625 9.31174 3.5625 6.80679C3.5625 3.98049 5.93612 1.68933 8.86412 1.68933C11.7921 1.68933 14.1657 3.98049 14.1657 6.80679C14.1657 7.77885 13.9761 8.63003 13.5768 9.5192C13.3348 9.45437 13.0794 9.41978 12.8145 9.41978C11.2224 9.41978 9.93172 10.7104 9.93172 12.3025C9.93172 12.9545 10.1482 13.556 10.5131 14.0389ZM12 6.56249C12 8.3229 10.5729 9.74999 8.8125 9.74999C7.05209 9.74999 5.625 8.3229 5.625 6.56249C5.625 4.80208 7.05209 3.37499 8.8125 3.37499C10.5729 3.37499 12 4.80208 12 6.56249Z" fill="#E05149"/>
<path fill-rule="evenodd" clip-rule="evenodd" d="M10.1077 13.5426C9.81253 13.9185 9.4964 14.3177 9.15835 14.7447L8.86816 15.1112C8.66775 14.8529 8.47356 14.603 8.28612 14.3617C7.99592 13.9882 7.72186 13.6355 7.46582 13.3046C7.25453 13.0318 6.86177 12.9821 6.58887 13.1932C6.316 13.4045 6.26633 13.7972 6.47754 14.0702C6.71208 14.3733 6.9563 14.6869 7.21219 15.0156L7.2125 15.016L7.213 15.0166C7.57339 15.4795 7.95692 15.9721 8.36914 16.5067C8.48667 16.6591 8.66791 16.7487 8.86035 16.7499C9.02906 16.7508 9.19014 16.6836 9.30762 16.5653L9.35449 16.5126C9.61992 16.1762 9.87539 15.8536 10.1209 15.5436L10.1214 15.543L10.1223 15.5418L10.1237 15.54C10.3841 15.2112 10.6334 14.8966 10.8714 14.5945C11.4009 15.0639 12.0976 15.349 12.8608 15.349C14.5177 15.349 15.8608 14.0059 15.8608 12.349C15.8608 12.0729 15.637 11.849 15.3608 11.849C15.0847 11.849 14.8608 12.0729 14.8608 12.349C14.8608 13.4536 13.9654 14.349 12.8608 14.349C11.7563 14.349 10.8608 13.4536 10.8608 12.349C10.8608 11.2444 11.7563 10.349 12.8608 10.349C13.556 10.349 14.1687 10.7034 14.5278 11.2435C14.6807 11.4734 14.9913 11.5361 15.2212 11.3832C15.4511 11.2303 15.5136 10.9197 15.3608 10.6898C14.8242 9.88274 13.9048 9.349 12.8608 9.349C11.204 9.349 9.86084 10.6921 9.86084 12.349C9.86084 12.7732 9.94888 13.1768 10.1077 13.5426ZM13.541 6.80652C13.5409 4.34621 11.4679 2.3144 8.86426 2.31433C6.26052 2.31433 4.18765 4.34617 4.1875 6.80652C4.1875 8.31496 4.71245 9.51549 5.94922 11.2762C6.14728 11.5586 6.07905 11.948 5.79688 12.1464C5.51441 12.3448 5.12418 12.2765 4.92578 11.994C3.62827 10.1467 2.9375 8.69026 2.9375 6.80652C2.93765 3.61453 5.61218 1.06433 8.86426 1.06433C12.1163 1.0644 14.7909 3.61458 14.791 6.80652C14.791 7.1516 14.5111 7.43137 14.166 7.43152C13.8208 7.43152 13.541 7.1517 13.541 6.80652ZM14.2968 12.2941C14.5896 12.0013 14.5894 11.5264 14.2968 11.2335L14.033 10.9697C13.8921 10.8288 13.7006 10.7498 13.5013 10.7501C13.3022 10.7504 13.1114 10.8299 12.971 10.9711L12.7051 11.2383L11.804 12.1381C11.7372 12.2047 11.6841 12.2836 11.6465 12.3701L11.4435 12.8355C11.3209 13.118 11.3839 13.4471 11.6016 13.6648C11.8194 13.8825 12.1479 13.9449 12.4303 13.8223L12.8964 13.6199C12.9826 13.5825 13.0613 13.5296 13.1277 13.4632L14.2968 12.2941ZM13.2368 11.7672L13.5027 11.5L13.7665 11.7638L12.5974 12.9329L12.132 13.1345L12.3336 12.6691L13.2368 11.7672ZM11.1481 6.59341C11.1479 5.32106 10.1158 4.2897 8.84341 4.2897C7.57121 4.28993 6.53993 5.32121 6.5397 6.59341C6.5397 7.27826 6.83771 7.89312 7.31313 8.31606C7.57108 8.54544 7.59427 8.94093 7.36489 9.19888C7.13554 9.45655 6.74093 9.47976 6.48305 9.25063C5.75197 8.60052 5.2897 7.65024 5.2897 6.59341C5.28993 4.63085 6.88085 3.03993 8.84341 3.0397C10.8062 3.0397 12.3979 4.63071 12.3981 6.59341C12.3981 8.55631 10.8063 10.1481 8.84341 10.1481C8.49846 10.1479 8.21847 9.86808 8.21841 9.52309C8.21841 9.17806 8.49843 8.89833 8.84341 8.89809C10.116 8.89809 11.1481 7.86595 11.1481 6.59341Z" fill="#332A2A"/>
<path d="M13.75 12.25L13.25 11.75L13.75 11.25L14.25 11.75L13.75 12.25Z" fill="#332A2A"/>
</g>
<defs>
<clipPath id="clip0_597_2985">
<rect width="18" height="18" fill="white"/>
</clipPath>
</defs>
</svg>
