<svg width="18" height="18" viewBox="0 0 18 18" fill="none" xmlns="http://www.w3.org/2000/svg">
<g clip-path="url(#clip0_1437_12788)">
<path d="M4.99937 11.9297L4.89789 12.1182C4.50324 12.8511 5.23288 13.6797 6.00981 13.3808C6.12697 13.3358 6.23336 13.2666 6.32212 13.1779L14.2762 5.22375L12.8025 3.75L5.15471 11.7164C5.09352 11.7802 5.04126 11.8519 4.99937 11.9297Z" fill="#E05149"/>
<path d="M2.625 8.37549C2.97018 8.37549 3.25 8.65531 3.25 9.00049V13.3755C3.25021 14.1347 3.86574 14.7505 4.625 14.7505H5.8125L5.93848 14.7632C6.22323 14.8215 6.4375 15.0735 6.4375 15.3755C6.43732 15.6773 6.22315 15.9295 5.93848 15.9878L5.8125 16.0005H4.625C3.17538 16.0005 2.00021 14.8251 2 13.3755V9.00049C2 8.65531 2.27982 8.37549 2.625 8.37549ZM15.375 12.3755C15.7202 12.3755 16 12.6553 16 13.0005V13.3755C15.9998 14.8251 14.8246 16.0005 13.375 16.0005H9C8.65495 16.0005 8.37521 15.7205 8.375 15.3755C8.375 15.0303 8.65482 14.7505 9 14.7505H13.375C14.1343 14.7505 14.7498 14.1347 14.75 13.3755V13.0005C14.75 12.6553 15.0298 12.3755 15.375 12.3755ZM8.48145 7.34912C8.72043 7.10018 9.11622 7.09172 9.36523 7.33057C9.61395 7.56953 9.62246 7.96539 9.38379 8.21436L5.61035 12.144L5.40137 12.771L5.89844 12.7163L7.76758 10.8491L7.86621 10.769C8.10879 10.609 8.43785 10.6356 8.65137 10.8491C8.89526 11.0932 8.89538 11.4889 8.65137 11.7329L6.75391 13.6313C6.59593 13.7892 6.39446 13.8958 6.17676 13.939L6.08203 13.9536L4.56934 14.1216C4.35761 14.1451 4.14767 14.0587 4.01367 13.8931C3.88004 13.7275 3.84017 13.5051 3.90723 13.3032L4.43359 11.7222L4.47949 11.606C4.53164 11.4931 4.60301 11.3895 4.68945 11.2993L8.48145 7.34912ZM15.375 8.00049C15.7202 8.00049 16 8.28031 16 8.62549V11.0005C15.9998 11.3455 15.7201 11.6255 15.375 11.6255C15.0299 11.6255 14.7502 11.3455 14.75 11.0005V8.62549C14.75 8.28031 15.0298 8.00049 15.375 8.00049ZM13.3438 2.29346C13.7553 1.9447 14.3598 1.93847 14.7783 2.27881L14.8652 2.35693L16.0049 3.49561C16.2488 3.7397 16.2489 4.13636 16.0049 4.38037L14.7178 5.6665L10.6738 9.71045L10.5762 9.79053C10.3336 9.95077 10.0037 9.92389 9.79004 9.71045C9.54602 9.46643 9.54615 9.07075 9.79004 8.82666L13.3916 5.22412L12.8105 4.64307L11.3184 6.19873L11.2217 6.28076C10.9825 6.44559 10.6524 6.42611 10.4346 6.21729C10.1856 5.9783 10.1781 5.58251 10.417 5.3335L12.3516 3.31787L13.2578 2.37354L13.3438 2.29346ZM9.12598 2.01318C9.41073 2.0715 9.625 2.32349 9.625 2.62549C9.62482 2.92734 9.41065 3.17953 9.12598 3.23779L9 3.25049H4.625C3.86561 3.25049 3.25 3.8661 3.25 4.62549V5.81299C3.24979 6.15799 2.97005 6.43799 2.625 6.43799C2.27995 6.43799 2.00021 6.15799 2 5.81299V4.62549C2 3.17574 3.17525 2.00049 4.625 2.00049H9L9.12598 2.01318ZM13.6768 3.74072L14.2754 4.34033L14.6777 3.93701L14.0713 3.33057L13.6768 3.74072Z" fill="#252323"/>
</g>
<defs>
<clipPath id="clip0_1437_12788">
<rect width="18" height="18" fill="white"/>
</clipPath>
</defs>
</svg>
