<svg width="23" height="23" viewBox="0 0 23 23" fill="none" xmlns="http://www.w3.org/2000/svg">
<g clip-path="url(#clip0_597_3034)">
<path d="M16.4729 12.1234C17.8924 12.1234 19.1425 12.8491 19.8723 13.9467C20.0633 14.234 19.9856 14.6217 19.6985 14.8129C19.4111 15.0038 19.0224 14.9264 18.8313 14.639C18.3233 13.8751 17.4565 13.3734 16.4729 13.3734C14.9106 13.3737 13.644 14.6402 13.6438 16.2025C13.6439 17.765 14.9105 19.0323 16.4729 19.0326C18.0356 19.0326 19.3029 17.7652 19.303 16.2025C19.3032 15.8576 19.583 15.5776 19.928 15.5775C20.2729 15.5776 20.5528 15.8576 20.553 16.2025C20.5529 18.4555 18.7259 20.2826 16.4729 20.2826C15.3141 20.2824 14.2692 19.798 13.5266 19.0219C13.3154 19.2891 13.0986 19.5648 12.8743 19.848C12.5643 20.2395 12.2416 20.6469 11.9065 21.0717C11.7777 21.2349 11.5803 21.3297 11.3723 21.3285C11.1643 21.3273 10.9681 21.2305 10.8411 21.0658C10.3145 20.3828 9.82334 19.7523 9.36255 19.1605C9.03535 18.7403 8.72334 18.3393 8.42407 17.9525C8.19593 17.6577 8.25033 17.2334 8.54517 17.0052C8.83997 16.7775 9.26341 16.8317 9.49146 17.1263C9.79779 17.5222 10.1241 17.9417 10.468 18.3842C10.7595 18.7592 11.0638 19.1509 11.3801 19.559C11.5416 19.3548 11.6994 19.1553 11.8538 18.9603C12.1625 18.5705 12.4558 18.1973 12.7366 17.8412C12.5163 17.3396 12.3938 16.7854 12.3938 16.2025C12.394 13.9498 14.2202 12.1237 16.4729 12.1234ZM17.259 14.0443C17.3795 14.0438 17.4951 14.092 17.5803 14.1771L18.5051 15.1019C18.6814 15.2784 18.6815 15.5652 18.5051 15.7416L16.4631 17.7826C16.3912 17.8546 16.2967 17.9007 16.1956 17.9125L15.1487 18.0336H15.0471C14.9464 18.0222 14.8507 17.9768 14.7776 17.9037C14.7046 17.8305 14.6589 17.735 14.6477 17.6342L14.6487 17.5326L14.7698 16.4867C14.7786 16.4107 14.8069 16.3384 14.8508 16.2767L14.8987 16.2191L16.6487 14.475L16.9387 14.1801C17.0232 14.0942 17.1386 14.0449 17.259 14.0443ZM15.6497 16.7474L15.6116 17.0697L15.9348 17.0326L17.2542 15.7133L16.9719 15.4301L15.6497 16.7474ZM11.3762 1.53357C15.4676 1.53363 18.8254 4.74101 18.8254 8.74744C18.8254 9.12011 18.5233 9.42211 18.1506 9.42224C17.7779 9.42224 17.4759 9.12019 17.4758 8.74744C17.4758 5.53119 14.7674 2.88324 11.3762 2.88318C7.98498 2.88318 5.27661 5.53115 5.27661 8.74744C5.27663 10.7119 5.96381 12.2704 7.55005 14.5287C7.76425 14.8336 7.69077 15.2548 7.38599 15.4691C7.081 15.6833 6.65988 15.6099 6.44556 15.3051C4.79345 12.953 3.92702 11.1174 3.927 8.74744C3.927 4.74097 7.28478 1.53357 11.3762 1.53357ZM11.3508 3.68787C13.9948 3.68825 16.1389 5.83187 16.1389 8.47595C16.1385 11.1197 13.9946 13.2637 11.3508 13.264C10.9782 13.264 10.6753 12.9609 10.675 12.5883C10.6752 12.2156 10.9782 11.9135 11.3508 11.9135C13.249 11.9131 14.7879 10.3741 14.7883 8.47595C14.7883 6.57746 13.2492 5.03786 11.3508 5.03748C9.4521 5.03748 7.91235 6.57722 7.91235 8.47595C7.91257 9.49758 8.35781 10.4147 9.06665 11.0453C9.3447 11.293 9.37054 11.72 9.12329 11.9984C8.8758 12.2767 8.44875 12.302 8.17017 12.0551C7.18519 11.1792 6.56296 9.89934 6.56274 8.47595C6.56274 5.83163 8.70651 3.68787 11.3508 3.68787Z" fill="#332A2A"/>
</g>
<defs>
<clipPath id="clip0_597_3034">
<rect width="23" height="23" fill="white"/>
</clipPath>
</defs>
</svg>
