<svg width="28" height="28" viewBox="0 0 28 28" fill="none" xmlns="http://www.w3.org/2000/svg">
<g clip-path="url(#clip0_1437_12814)">
<path d="M4.08301 13.2505C4.49722 13.2505 4.83301 13.5863 4.83301 14.0005V21.9165C4.83304 22.6067 5.39282 23.1663 6.08301 23.1665H9.04102L9.11816 23.1704C9.4962 23.2089 9.79085 23.5284 9.79102 23.9165C9.79099 24.3047 9.49625 24.6241 9.11816 24.6626L9.04102 24.6665H6.08301C4.56439 24.6663 3.33304 23.4352 3.33301 21.9165V14.0005C3.33301 13.5864 3.66894 13.2507 4.08301 13.2505ZM23.916 20.5415C24.3301 20.5415 24.6658 20.8774 24.666 21.2915V21.9165C24.666 23.4353 23.4348 24.6665 21.916 24.6665H14C13.586 24.6663 13.25 24.3306 13.25 23.9165C13.2502 23.5025 13.586 23.1667 14 23.1665H21.916C22.6064 23.1665 23.166 22.6068 23.166 21.9165V21.2915C23.1662 20.8777 23.5022 20.5419 23.916 20.5415ZM13.3535 11.5845C13.6403 11.2858 14.1152 11.2764 14.4141 11.563C14.6941 11.8318 14.7202 12.2655 14.4863 12.5649L14.4355 12.6235L8.48633 18.8198L7.45215 20.7397L9.20605 20.0649L12.2402 17.0317C12.533 16.7394 13.008 16.7394 13.3008 17.0317C13.5937 17.3246 13.5937 17.8004 13.3008 18.0933L10.2305 21.1636C10.1377 21.2564 10.0305 21.3337 9.91406 21.3931L9.79492 21.4458L7.36133 22.3823C6.27902 22.798 5.26272 21.6436 5.8125 20.6226L7.18164 18.0796L7.27246 17.936C7.30564 17.8905 7.34175 17.8469 7.38086 17.8062L13.3535 11.5845ZM23.916 12.6665C24.3301 12.6665 24.6658 13.0024 24.666 13.4165V18.6665C24.666 19.0807 24.3302 19.4165 23.916 19.4165C23.5021 19.4162 23.166 19.0805 23.166 18.6665V13.4165C23.1662 13.0027 23.5022 12.6669 23.916 12.6665ZM20.7588 3.88428C21.4446 3.30248 22.4768 3.3331 23.127 3.98291L24.7383 5.59424L24.832 5.7085C24.9135 5.83068 24.9579 5.97548 24.958 6.12451C24.958 6.27356 24.9134 6.41828 24.832 6.54053L24.7383 6.65479L16.4463 14.9468C16.1534 15.2396 15.6786 15.2397 15.3857 14.9468C15.0933 14.6539 15.093 14.179 15.3857 13.8862L21.1465 8.12549L19.9258 6.90479L17.4453 9.48779C17.1585 9.78646 16.6845 9.79603 16.3857 9.50928C16.0872 9.2224 16.0765 8.74744 16.3633 8.44873L19.374 5.31396L20.627 4.0083L20.7588 3.88428ZM14.0762 3.3374C14.4545 3.37573 14.75 3.69511 14.75 4.0835C14.75 4.47186 14.4544 4.79127 14.0762 4.82959L14 4.8335H6.08301C5.3928 4.83367 4.83301 5.39325 4.83301 6.0835V9.0415L4.8291 9.11865C4.79059 9.49673 4.47125 9.7915 4.08301 9.7915C3.69489 9.79134 3.37539 9.49666 3.33691 9.11865L3.33301 9.0415V6.0835C3.33301 4.56482 4.56437 3.33367 6.08301 3.3335H14L14.0762 3.3374ZM22.0664 5.04346C21.9797 4.95704 21.8451 4.94751 21.748 5.01416L21.709 5.04736L20.9648 5.82275L22.207 7.06494L23.1475 6.12451L22.0664 5.04346Z" fill="#252323"/>
</g>
<defs>
<clipPath id="clip0_1437_12814">
<rect width="28" height="28" fill="white"/>
</clipPath>
</defs>
</svg>
