<svg width="23" height="23" viewBox="0 0 23 23" fill="none" xmlns="http://www.w3.org/2000/svg">
<g clip-path="url(#clip0_597_2975)">
<path fill-rule="evenodd" clip-rule="evenodd" d="M13.4333 17.9386C13.0802 18.3876 12.7057 18.8606 12.3092 19.3613L12.3091 19.3614C11.9953 19.7577 11.6678 20.1713 11.3263 20.6041C10.8012 19.9231 10.308 19.2898 9.84617 18.6967L9.84616 18.6967C6.24581 14.0734 4.552 11.8983 4.552 8.69754C4.552 5.08617 7.58496 2.15857 11.3263 2.15857C15.0676 2.15857 18.1006 5.08617 18.1006 8.69754C18.1006 9.93962 17.8583 11.0272 17.348 12.1634C17.0389 12.0806 16.7125 12.0364 16.374 12.0364C14.3396 12.0364 12.6905 13.6855 12.6905 15.7199C12.6905 16.553 12.967 17.3215 13.4333 17.9386ZM15.3333 8.38538C15.3333 10.6348 13.5097 12.4583 11.2603 12.4583C9.01093 12.4583 7.18742 10.6348 7.18742 8.38538C7.18742 6.13597 9.01093 4.31246 11.2603 4.31246C13.5097 4.31246 15.3333 6.13597 15.3333 8.38538Z" fill="#E05149"/>
<path fill-rule="evenodd" clip-rule="evenodd" d="M11.3262 2.83364C7.93501 2.83364 5.22695 5.48133 5.22695 8.69762C5.22695 10.6622 5.9138 12.2208 7.50014 14.4792C7.71442 14.7843 7.64082 15.2053 7.33577 15.4196C7.03071 15.6338 6.60971 15.5602 6.39543 15.2552C4.7433 12.9031 3.87695 11.0677 3.87695 8.69762C3.87695 4.69115 7.23481 1.48364 11.3262 1.48364C15.4177 1.48364 18.7755 4.69115 18.7755 8.69762C18.7755 9.07041 18.4733 9.37262 18.1005 9.37262C17.7277 9.37262 17.4255 9.07041 17.4255 8.69762C17.4255 5.48133 14.7175 2.83364 11.3262 2.83364ZM12.6703 17.8163C12.3889 18.1732 12.0938 18.5459 11.7845 18.9366L11.7839 18.9373L11.7835 18.9377L11.7835 18.9379L11.332 19.5082C11.0002 19.0802 10.6812 18.6705 10.3765 18.2792L10.3759 18.2785C10.0474 17.8566 9.73538 17.4559 9.44179 17.0765C9.21365 16.7817 8.7897 16.7276 8.49487 16.9558C8.20003 17.1839 8.14597 17.6079 8.37411 17.9027C8.67443 18.2908 8.98775 18.6931 9.31624 19.115C9.7763 19.7057 10.2661 20.3347 10.7917 21.0164C10.9187 21.1811 11.1145 21.278 11.3225 21.2792C11.5304 21.2804 11.7273 21.1856 11.8562 21.0223C12.1952 20.5926 12.5214 20.1808 12.8347 19.7852L12.8347 19.7851L12.8351 19.7846L12.8353 19.7843C13.0552 19.5067 13.2688 19.237 13.476 18.9748C14.2153 19.7207 15.2406 20.1828 16.3738 20.1828C18.6268 20.1828 20.4533 18.3563 20.4533 16.1033C20.4533 15.7581 20.1734 15.4783 19.8283 15.4783C19.4831 15.4783 19.2033 15.7581 19.2033 16.1033C19.2033 17.666 17.9365 18.9328 16.3738 18.9328C14.8111 18.9328 13.5443 17.666 13.5443 16.1033C13.5443 14.5406 14.8111 13.2738 16.3738 13.2738C17.3573 13.2738 18.2241 13.7751 18.7321 14.5391C18.9232 14.8265 19.3111 14.9046 19.5986 14.7135C19.886 14.5224 19.9641 14.1344 19.773 13.847C19.0432 12.7494 17.7933 12.0238 16.3738 12.0238C14.1207 12.0238 12.2943 13.8502 12.2943 16.1033C12.2943 16.7151 12.429 17.2955 12.6703 17.8163ZM17.5305 14.1274C17.4452 14.0422 17.3294 13.9945 17.2088 13.9951C17.0882 13.9956 16.9729 14.0444 16.8884 14.1304L16.6011 14.4231L14.8498 16.169C14.7774 16.2411 14.7317 16.3356 14.7199 16.4371L14.5987 17.4828C14.5828 17.6199 14.6305 17.7568 14.7281 17.8544C14.8257 17.952 14.9626 17.9996 15.0997 17.9837L16.1454 17.8625C16.2466 17.8508 16.3409 17.8052 16.4129 17.7332L18.1633 15.9828L18.455 15.6911C18.6315 15.5146 18.6315 15.2284 18.455 15.0519L17.5305 14.1274ZM15.5996 16.6978L16.9214 15.3801L17.2045 15.6632L15.885 16.9828L15.5623 17.0202L15.5996 16.6978ZM11.3003 4.98751C9.40153 4.98751 7.8623 6.52674 7.8623 8.42548C7.8623 9.44761 8.3075 10.3649 9.01677 10.9956C9.29535 11.2433 9.32036 11.67 9.07264 11.9486C8.82491 12.2271 8.39826 12.2522 8.11968 12.0044C7.13453 11.1284 6.5123 9.84916 6.5123 8.42548C6.5123 5.78116 8.65594 3.63751 11.3003 3.63751C13.9446 3.63751 16.0882 5.78116 16.0882 8.42548C16.0882 11.0698 13.9446 13.2134 11.3003 13.2134C10.9275 13.2134 10.6253 12.9112 10.6253 12.5384C10.6253 12.1656 10.9275 11.8634 11.3003 11.8634C13.199 11.8634 14.7382 10.3242 14.7382 8.42548C14.7382 6.52674 13.199 4.98751 11.3003 4.98751Z" fill="#252323"/>
</g>
<defs>
<clipPath id="clip0_597_2975">
<rect width="23" height="23" fill="white"/>
</clipPath>
</defs>
</svg>
