<svg width="44" height="44" viewBox="0 0 44 44" fill="none" xmlns="http://www.w3.org/2000/svg">
<g clip-path="url(#clip0_597_3032)">
<path fill-rule="evenodd" clip-rule="evenodd" d="M9.45837 16.6389C9.45837 10.1691 14.8995 4.87952 21.6679 4.87952C28.4362 4.87952 33.8774 10.1691 33.8774 16.6389C33.8774 17.0531 34.2132 17.3889 34.6274 17.3889C35.0416 17.3889 35.3774 17.0531 35.3774 16.6389C35.3774 9.29115 29.2142 3.37952 21.6679 3.37952C14.1215 3.37952 7.95837 9.29115 7.95837 16.6389C7.95837 21.0103 9.54376 24.4106 12.678 28.8726C12.9161 29.2116 13.3838 29.2934 13.7228 29.0553C14.0617 28.8172 14.1435 28.3494 13.9054 28.0105C10.8443 23.6524 9.45837 20.5598 9.45837 16.6389ZM24.6349 34.4558C23.9318 33.2847 23.5276 31.9137 23.5276 30.4484C23.5276 26.1423 27.0183 22.6516 31.3243 22.6516C34.037 22.6516 36.4256 24.0376 37.8212 26.1365C38.0505 26.4814 37.9568 26.947 37.6119 27.1763C37.267 27.4056 36.8014 27.3119 36.5721 26.967C35.4427 25.2684 33.5138 24.1516 31.3243 24.1516C27.8467 24.1516 25.0276 26.9708 25.0276 30.4484C25.0276 33.926 27.8467 36.7451 31.3243 36.7451C34.8019 36.7451 37.6211 33.926 37.6211 30.4484C37.6211 30.0341 37.9569 29.6984 38.3711 29.6984C38.7853 29.6984 39.1211 30.0341 39.1211 30.4484C39.1211 34.7544 35.6304 38.2451 31.3243 38.2451C29.042 38.2451 26.9888 37.2645 25.5629 35.7016C25.1032 36.2838 24.6265 36.8857 24.1326 37.5094L24.1322 37.51C23.5324 38.2673 22.9073 39.0566 22.2567 39.8812C22.1136 40.0627 21.8948 40.168 21.6637 40.1667C21.4326 40.1654 21.215 40.0576 21.0739 39.8746C20.0705 38.5732 19.1321 37.3682 18.2518 36.2378L18.249 36.2341L18.2481 36.2331L18.2478 36.2326L18.2472 36.2318L18.247 36.2316C17.6188 35.4249 17.0201 34.6561 16.4484 33.9173C16.1949 33.5897 16.255 33.1187 16.5826 32.8652C16.9102 32.6117 17.3813 32.6718 17.6347 32.9994C18.1991 33.7286 18.7964 34.4957 19.4249 35.3028C20.1359 36.2158 20.8866 37.1798 21.6745 38.1982C22.1176 37.6375 22.5475 37.0947 22.9642 36.5685L22.9642 36.5684L22.9643 36.5683L22.9644 36.5682C23.5467 35.8329 24.1033 35.1299 24.6349 34.4558ZM21.6183 8.99998C17.687 8.99998 14.5 12.1869 14.5 16.1183C14.5 18.2347 15.4227 20.1346 16.8901 21.4395C17.1997 21.7148 17.2275 22.1888 16.9522 22.4984C16.677 22.8079 16.2029 22.8357 15.8934 22.5604C14.1194 20.9829 13 18.6808 13 16.1183C13 11.3585 16.8585 7.49998 21.6183 7.49998C26.378 7.49998 30.2365 11.3585 30.2365 16.1183C30.2365 20.878 26.378 24.7365 21.6183 24.7365C20.5284 24.7365 19.484 24.5339 18.5221 24.1635C18.1356 24.0146 17.9429 23.5806 18.0918 23.194C18.2406 22.8075 18.6746 22.6148 19.0612 22.7637C19.8538 23.0689 20.7156 23.2365 21.6183 23.2365C25.5496 23.2365 28.7365 20.0496 28.7365 16.1183C28.7365 12.1869 25.5496 8.99998 21.6183 8.99998Z" fill="#252323"/>
<path d="M34.3603 29.0293L35.0682 28.3213L33.6523 26.9055L32.9486 27.6176M34.3603 29.0293L30.1128 33.2767L27.9891 33.9846L28.697 31.8609L32.9486 27.6176M34.3603 29.0293L32.9486 27.6176" stroke="#252323" stroke-linecap="round" stroke-linejoin="round"/>
</g>
<defs>
<clipPath id="clip0_597_3032">
<rect width="44" height="44" fill="white"/>
</clipPath>
</defs>
</svg>
