<svg width="44" height="44" viewBox="0 0 44 44" fill="none" xmlns="http://www.w3.org/2000/svg">
<g clip-path="url(#clip0_1437_12813)">
<path d="M6.41699 21.25C6.83095 21.2502 7.16682 21.586 7.16699 22V35.584C7.16728 36.2741 7.72681 36.834 8.41699 36.834H14.209L14.2852 36.8379C14.6633 36.8764 14.959 37.1957 14.959 37.584C14.9587 37.972 14.6631 38.2916 14.2852 38.3301L14.209 38.334H8.41699C6.89839 38.334 5.66728 37.1025 5.66699 35.584V22C5.66717 21.5859 6.00289 21.25 6.41699 21.25ZM37.584 32.709C37.9979 32.7093 38.334 33.045 38.334 33.459V35.584C38.3337 37.1023 37.1023 38.3336 35.584 38.334H22C21.5861 38.3338 21.2503 37.9978 21.25 37.584C21.25 37.1699 21.5859 36.8342 22 36.834H35.584C36.2739 36.8336 36.8337 36.2739 36.834 35.584V33.459C36.834 33.0448 37.1698 32.709 37.584 32.709ZM21.2939 18.501C21.5808 18.2026 22.0558 18.1929 22.3545 18.4795C22.6532 18.7662 22.6624 19.2412 22.376 19.54L13.0107 29.2959L12.9707 29.3506L11.1064 32.8125C10.9969 33.0167 11.2006 33.2473 11.417 33.1641L14.6582 31.918L14.7041 31.8936C14.7185 31.8842 14.7329 31.8736 14.7451 31.8613L19.5381 27.0684C19.831 26.7759 20.3059 26.7757 20.5986 27.0684C20.8912 27.3611 20.8911 27.836 20.5986 28.1289L15.8057 32.9219C15.6758 33.0517 15.5261 33.1601 15.3633 33.2432L15.1963 33.3174L11.9551 34.5645C10.4397 35.1471 9.01674 33.5311 9.78613 32.1016L11.6504 28.6396L11.71 28.5371C11.7731 28.4368 11.8465 28.3425 11.9287 28.2568L21.2939 18.501ZM37.584 20.334C37.9979 20.3343 38.334 20.67 38.334 21.084V29.334C38.3337 29.7477 37.9977 30.0836 37.584 30.084C37.17 30.084 36.8343 29.748 36.834 29.334V21.084C36.834 20.6698 37.1698 20.334 37.584 20.334ZM32.6289 6.71582C33.7067 5.80243 35.3274 5.85007 36.3486 6.87109L38.5723 9.09473L38.624 9.15137C38.8641 9.44581 38.8464 9.88071 38.5723 10.1553L35.4277 13.2988L25.542 23.1855C25.2492 23.4784 24.7743 23.4783 24.4814 23.1855C24.1886 22.8927 24.1886 22.4179 24.4814 22.125L33.8369 12.7686L31.3057 10.2373L27.1064 14.6133C26.8196 14.9119 26.3446 14.9214 26.0459 14.6348C25.7472 14.3479 25.7376 13.873 26.0244 13.5742L30.7539 8.64648L32.4209 6.91113L32.6289 6.71582ZM22.0771 5.6709C22.4551 5.70953 22.75 6.02883 22.75 6.41699C22.7499 6.80507 22.4551 7.12448 22.0771 7.16309L22 7.16699H8.41699C7.72664 7.16699 7.16699 7.72664 7.16699 8.41699V14.209L7.16309 14.2852C7.12469 14.6632 6.80517 14.9588 6.41699 14.959C6.02869 14.959 5.70933 14.6633 5.6709 14.2852L5.66699 14.209V8.41699C5.66699 6.89821 6.89821 5.66699 8.41699 5.66699H22L22.0771 5.6709ZM35.2881 7.93164C34.824 7.46775 34.0875 7.44644 33.5977 7.86133L33.5029 7.9502L32.3447 9.15527L34.8975 11.708L36.9805 9.62402L35.2881 7.93164Z" fill="#252323"/>
</g>
<defs>
<clipPath id="clip0_1437_12813">
<rect width="44" height="44" fill="white"/>
</clipPath>
</defs>
</svg>
