<svg width="28" height="28" viewBox="0 0 28 28" fill="none" xmlns="http://www.w3.org/2000/svg">
<g clip-path="url(#clip0_597_2965)">
<path fill-rule="evenodd" clip-rule="evenodd" d="M16.3538 21.8384C15.924 22.3851 15.468 22.9609 14.9853 23.5704L14.9852 23.5706C14.6032 24.0529 14.2045 24.5565 13.7887 25.0834C13.1495 24.2544 12.5491 23.4833 11.9868 22.7613L11.9868 22.7613C7.60378 17.1329 5.54175 14.485 5.54175 10.5884C5.54175 6.19196 9.23404 2.62793 13.7887 2.62793C18.3434 2.62793 22.0357 6.19196 22.0357 10.5884C22.0357 12.1005 21.7407 13.4246 21.1195 14.8077C20.7431 14.7069 20.3458 14.6531 19.9337 14.6531C17.4571 14.6531 15.4494 16.6608 15.4494 19.1374C15.4494 20.1516 15.7861 21.0871 16.3538 21.8384ZM18.6667 10.2084C18.6667 12.9468 16.4468 15.1667 13.7084 15.1667C10.97 15.1667 8.75008 12.9468 8.75008 10.2084C8.75008 7.46998 10.97 5.25006 13.7084 5.25006C16.4468 5.25006 18.6667 7.46998 18.6667 10.2084Z" fill="#E05149"/>
<path fill-rule="evenodd" clip-rule="evenodd" d="M13.7887 3.37793C9.62304 3.37793 6.29175 6.63095 6.29175 10.5884C6.29175 13.0016 7.13744 14.9138 9.07214 17.6681C9.31023 18.0071 9.22846 18.4749 8.8895 18.713C8.55055 18.951 8.08277 18.8693 7.84469 18.5303C5.8369 15.6719 4.79175 13.4521 4.79175 10.5884C4.79175 5.75298 8.84504 1.87793 13.7887 1.87793C18.7324 1.87793 22.7857 5.75298 22.7857 10.5884C22.7857 11.0026 22.4499 11.3384 22.0357 11.3384C21.6215 11.3384 21.2857 11.0026 21.2857 10.5884C21.2857 6.63095 17.9544 3.37793 13.7887 3.37793ZM15.5269 21.676C15.1701 22.1287 14.7951 22.6023 14.4013 23.0997L14.4012 23.0998L14.3975 23.1045C14.2014 23.3522 14.0006 23.6057 13.7952 23.8655C13.3732 23.3209 12.9681 22.8007 12.5818 22.3046L12.5786 22.3005L12.5767 22.298L12.5765 22.2979L12.5753 22.2963C12.1754 21.7828 11.7956 21.295 11.4379 20.8327C11.1844 20.5052 10.7133 20.4451 10.3857 20.6986C10.0581 20.9521 9.99806 21.4231 10.2515 21.7507C10.6165 22.2223 10.9974 22.7115 11.3969 23.2245L11.3976 23.2253L11.3982 23.2261L11.3984 23.2263L11.3984 23.2264C11.9586 23.9457 12.5551 24.7117 13.1948 25.5413C13.3359 25.7243 13.5534 25.8321 13.7845 25.8334C14.0156 25.8347 14.2344 25.7294 14.3775 25.548C14.7905 25.0245 15.1877 24.523 15.5692 24.0413L15.5693 24.0412C15.8664 23.666 16.1539 23.3029 16.432 22.9509C17.3226 23.8573 18.5624 24.4195 19.9336 24.4195C22.6446 24.4195 24.8424 22.2217 24.8424 19.5106C24.8424 19.1222 24.5275 18.8073 24.139 18.8073C23.7506 18.8073 23.4357 19.1222 23.4357 19.5106C23.4357 21.4448 21.8677 23.0127 19.9336 23.0127C17.9994 23.0127 16.4315 21.4448 16.4315 19.5106C16.4315 17.5765 17.9994 16.0085 19.9336 16.0085C21.151 16.0085 22.2238 16.6292 22.8524 17.5746C23.0675 17.8981 23.5041 17.9859 23.8276 17.7709C24.1511 17.5558 24.2389 17.1192 24.0238 16.7957C23.1456 15.4748 21.6417 14.6018 19.9336 14.6018C17.2225 14.6018 15.0247 16.7996 15.0247 19.5106C15.0247 20.2878 15.2054 21.0229 15.5269 21.676ZM21.5833 17.1746C21.4982 17.0895 21.3827 17.0419 21.2624 17.0423C21.142 17.0426 21.0268 17.0909 20.9422 17.1765L20.5385 17.585L18.094 20.0247C18.0442 20.0744 18.0067 20.135 17.9845 20.2017L17.5773 21.4233C17.5232 21.5857 17.5654 21.7647 17.6865 21.8858C17.8075 22.0068 17.9866 22.0491 18.149 21.995L19.3706 21.5878C19.4372 21.5656 19.4976 21.5282 19.5473 21.4786L21.9905 19.0354L22.3977 18.6282C22.5742 18.4517 22.5742 18.1655 22.3977 17.989L21.5833 17.1746ZM18.8082 20.589L20.8585 18.5426L21.0317 18.7158L18.9835 20.764L18.7207 20.8516L18.8082 20.589ZM13.7571 6.00003C11.406 6.00003 9.5 7.90599 9.5 10.2571C9.5 11.5228 10.0514 12.6587 10.9295 13.4396C11.239 13.7148 11.2668 14.1889 10.9916 14.4984C10.7163 14.808 10.2423 14.8357 9.93274 14.5605C8.74808 13.507 8 11.969 8 10.2571C8 7.07757 10.5775 4.50003 13.7571 4.50003C16.9366 4.50003 19.5142 7.07757 19.5142 10.2571C19.5142 13.4367 16.9366 16.0142 13.7571 16.0142C13.3429 16.0142 13.0071 15.6784 13.0071 15.2642C13.0071 14.85 13.3429 14.5142 13.7571 14.5142C16.1082 14.5142 18.0142 12.6082 18.0142 10.2571C18.0142 7.90599 16.1082 6.00003 13.7571 6.00003Z" fill="#332A2A"/>
</g>
<defs>
<clipPath id="clip0_597_2965">
<rect width="28" height="28" fill="white"/>
</clipPath>
</defs>
</svg>
