<svg width="44" height="44" viewBox="0 0 44 44" fill="none" xmlns="http://www.w3.org/2000/svg">
<g clip-path="url(#clip0_1742_12544)">
<path d="M30.166 6.58301C31.1324 6.58301 31.9158 7.36666 31.916 8.33301V12.833C31.916 13.2472 31.5802 13.583 31.166 13.583C30.7521 13.5827 30.416 13.247 30.416 12.833V8.33301C30.4158 8.19509 30.304 8.08301 30.166 8.08301H13.833C13.6952 8.08318 13.5832 8.19519 13.583 8.33301V35.666C13.583 35.804 13.6951 35.9158 13.833 35.916H30.166C30.3041 35.916 30.416 35.8041 30.416 35.666V22C30.4162 21.5862 30.7522 21.2504 31.166 21.25C31.5801 21.25 31.9158 21.5859 31.916 22V35.666C31.916 36.6325 31.1325 37.416 30.166 37.416H13.833C12.8667 37.4158 12.083 36.6324 12.083 35.666V8.33301C12.0832 7.36677 12.8668 6.58318 13.833 6.58301H30.166ZM24.2168 23.084C25.4931 23.084 26.3402 24.406 25.8066 25.5654L23.4014 30.793C22.765 32.1749 20.789 32.1432 20.1982 30.7412L17.9971 25.5127C17.5115 24.3593 18.359 23.0842 19.6104 23.084H24.2168ZM19.6104 24.584C19.4317 24.5842 19.3105 24.766 19.3799 24.9307L21.5811 30.1582C21.6655 30.3583 21.947 30.3631 22.0381 30.166L24.4443 24.9385C24.5206 24.7728 24.3991 24.584 24.2168 24.584H19.6104ZM20.5791 13.6484C21.2308 12.273 23.2067 12.3279 23.7812 13.7373L25.9121 18.9648C26.3808 20.1156 25.5336 21.3748 24.291 21.375H19.6846C18.4 21.3749 17.5537 20.0369 18.1035 18.876L20.5791 13.6484ZM22.3926 14.3037C22.3105 14.1023 22.0277 14.0945 21.9346 14.291L19.459 19.5186C19.3807 19.6843 19.5012 19.8749 19.6846 19.875H24.291C24.4681 19.8748 24.5897 19.6954 24.5234 19.5312L22.3926 14.3037Z" fill="#332A2A"/>
</g>
<defs>
<clipPath id="clip0_1742_12544">
<rect width="44" height="44" fill="white"/>
</clipPath>
</defs>
</svg>
