<svg width="28" height="28" viewBox="0 0 28 28" fill="none" xmlns="http://www.w3.org/2000/svg">
<g clip-path="url(#clip0_1742_12605)">
<path d="M14.824 15.1665C15.558 15.1665 16.0422 15.9309 15.7283 16.5942L14.7517 18.6558C14.3792 19.4412 13.2511 19.4099 12.9226 18.605L12.0828 16.5435C11.8149 15.8858 12.2984 15.1665 13.0085 15.1665H14.824ZM13.1736 9.63623C13.546 8.85012 14.6753 8.88151 15.0037 9.68701L15.8435 11.7476C16.1113 12.4052 15.6269 13.1245 14.9167 13.1245H13.1013C12.3673 13.1245 11.8829 12.3602 12.197 11.6968L13.1736 9.63623Z" fill="#E05149"/>
<path d="M18.834 3.91699C19.8002 3.91734 20.584 4.70071 20.584 5.66699V8.16699C20.5838 8.58084 20.2478 8.91664 19.834 8.91699C19.4199 8.91699 19.0842 8.58106 19.084 8.16699V5.66699C19.084 5.52914 18.9718 5.41734 18.834 5.41699H9.16699C9.02892 5.41699 8.91699 5.52892 8.91699 5.66699V22.334C8.91734 22.4718 9.02914 22.584 9.16699 22.584H18.834C18.9715 22.5836 19.0836 22.4715 19.084 22.334V14C19.0842 13.5859 19.4199 13.25 19.834 13.25C20.2478 13.2504 20.5838 13.5862 20.584 14V22.334C20.5836 23.3 19.8 24.0836 18.834 24.084H9.16699C8.20071 24.084 7.41734 23.3002 7.41699 22.334V5.66699C7.41699 4.70049 8.2005 3.91699 9.16699 3.91699H18.834ZM15.624 14.666C16.5353 14.6662 17.1403 15.6115 16.7598 16.4395L15.0098 20.2402L14.9141 20.4141C14.383 21.2213 13.1183 21.142 12.7227 20.2031L11.1211 16.4014C10.7749 15.5778 11.38 14.6663 12.2734 14.666H15.624ZM13.8848 19.0986L15.2334 16.166H12.6494L13.8848 19.0986ZM12.9814 8.03906C13.447 7.0567 14.8581 7.09589 15.2686 8.10254L16.8184 11.9043C17.1527 12.7262 16.5477 13.626 15.6602 13.626H12.3105C11.3934 13.6258 10.7887 12.6698 11.1807 11.8408L12.9814 8.03906ZM12.7051 12.126H15.2891L14.0938 9.19434L12.7051 12.126Z" fill="#322B2B"/>
</g>
<defs>
<clipPath id="clip0_1742_12605">
<rect width="28" height="28" fill="white"/>
</clipPath>
</defs>
</svg>
