<svg width="23" height="23" viewBox="0 0 23 23" fill="none" xmlns="http://www.w3.org/2000/svg">
<g clip-path="url(#clip0_1742_12606)">
<path d="M11.8953 12.458C12.6292 12.4581 13.1126 13.2224 12.7986 13.8857L12.2917 14.957C11.9194 15.7431 10.79 15.7118 10.4617 14.9062L10.0251 13.8359C9.75709 13.1783 10.2408 12.4581 10.9509 12.458H11.8953ZM10.6472 8.28223C11.0195 7.49623 12.1488 7.52688 12.4773 8.33203L12.9138 9.40332C13.1819 10.061 12.6982 10.7811 11.988 10.7812H11.0437C10.3097 10.7811 9.82614 10.0159 10.1404 9.35254L10.6472 8.28223Z" fill="#E05149"/>
<path d="M15.791 3.1582C16.4398 3.1582 16.9666 3.68422 16.9668 4.33301V6.70801C16.9668 7.0808 16.6638 7.38281 16.291 7.38281C15.9185 7.38246 15.6162 7.08058 15.6162 6.70801V4.50781H7.38281V18.4912H15.6162V11.5C15.6164 11.1276 15.9186 10.8246 16.291 10.8242C16.6637 10.8242 16.9666 11.1274 16.9668 11.5V18.666C16.9668 19.315 16.4399 19.8418 15.791 19.8418H7.20801C6.55922 19.8416 6.0332 19.3148 6.0332 18.666V4.33301C6.03338 3.68433 6.55933 3.15838 7.20801 3.1582H15.791ZM12.6953 12.0322C13.5519 12.0327 14.1209 12.922 13.7627 13.7002L12.4688 16.5107L12.3779 16.6738C11.8787 17.4326 10.6901 17.3583 10.3184 16.4756L9.13379 13.6641C8.80794 12.8897 9.37666 12.0324 10.2168 12.0322H12.6953ZM11.4082 15.5859L12.4219 13.3828H10.4805L11.4082 15.5859ZM10.5234 6.7168C10.961 5.79315 12.288 5.83 12.6738 6.77637L13.8203 9.58789C14.1348 10.3605 13.5657 11.2069 12.7314 11.207H10.2539C9.39147 11.207 8.82342 10.3078 9.19238 9.52832L10.5234 6.7168ZM10.5303 9.85645H12.4707L11.5732 7.6543L10.5303 9.85645Z" fill="#332A2A"/>
</g>
<defs>
<clipPath id="clip0_1742_12606">
<rect width="23" height="23" fill="white"/>
</clipPath>
</defs>
</svg>
