<svg width="18" height="18" viewBox="0 0 18 18" fill="none" xmlns="http://www.w3.org/2000/svg">
<g clip-path="url(#clip0_1742_12587)">
<path d="M12.5 2.375C12.9832 2.375 13.375 2.76675 13.375 3.25V5.25C13.375 5.59518 13.0952 5.875 12.75 5.875C12.4048 5.875 12.125 5.59518 12.125 5.25V3.625H5.875V14.375H12.125V9C12.125 8.65482 12.4048 8.375 12.75 8.375C13.0952 8.375 13.375 8.65482 13.375 9V14.75C13.375 15.2332 12.9832 15.625 12.5 15.625H5.5C5.01675 15.625 4.625 15.2332 4.625 14.75V3.25C4.625 2.76675 5.01675 2.375 5.5 2.375H12.5ZM10.1553 9.375C10.7934 9.375 11.217 10.0365 10.9502 10.6162L9.71094 13.3086L9.64453 13.4297C9.27287 13.9949 8.38734 13.9394 8.11035 13.2822L6.97656 10.5898C6.73372 10.0131 7.15742 9.375 7.7832 9.375H10.1553ZM8.93262 12.0127L9.57031 10.625H8.34766L8.93262 12.0127ZM8.35449 4.75C8.70743 4.22628 9.50196 4.24836 9.8252 4.79102L9.88672 4.91504L10.9844 7.60742C11.2187 8.18287 10.7952 8.8125 10.1738 8.8125H7.80176C7.15941 8.8125 6.73576 8.14302 7.01074 7.5625L8.28613 4.87109L8.35449 4.75ZM8.39355 7.5625H9.61621L9.05078 6.1748L8.39355 7.5625Z" fill="#322B2B"/>
</g>
<defs>
<clipPath id="clip0_1742_12587">
<rect width="18" height="18" fill="white"/>
</clipPath>
</defs>
</svg>
