<svg width="18" height="18" viewBox="0 0 18 18" fill="none" xmlns="http://www.w3.org/2000/svg">
<g clip-path="url(#clip0_1217_13905)">
<path d="M14.7234 2.96741C15.6208 2.96741 16.3484 3.69494 16.3484 4.59241V8.91467C16.3484 9.25985 16.0686 9.53967 15.7234 9.53967C15.3782 9.53966 15.0984 9.25984 15.0984 8.91467V4.82776L14.2517 5.46643C13.976 5.67381 13.5843 5.61888 13.3767 5.34338C13.1693 5.06767 13.2241 4.675 13.4998 4.46741L13.8318 4.21741H3.8064L8.73315 7.63831C8.86497 7.7298 9.04054 7.72669 9.16968 7.63147L11.8376 5.66174C12.1152 5.45684 12.5066 5.51614 12.7117 5.79358C12.9166 6.07124 12.8574 6.46258 12.5798 6.6676L9.91284 8.63733C9.35314 9.05057 8.59178 9.06142 8.02026 8.66467L2.6521 4.93811V13.2369C2.6521 13.444 2.81999 13.6119 3.0271 13.6119H4.64038C4.98545 13.612 5.26534 13.8919 5.26538 14.2369C5.26538 14.5821 4.98548 14.8618 4.64038 14.8619H3.0271C2.12964 14.8619 1.4021 14.1344 1.4021 13.2369V4.59241C1.4021 3.69495 2.12964 2.96741 3.0271 2.96741H14.7234ZM15.7234 10.9508C16.0685 10.9508 16.3484 11.2307 16.3484 11.5758V13.2369C16.3484 14.1344 15.6209 14.8619 14.7234 14.8619H7.16284C6.81784 14.8617 6.53784 14.582 6.53784 14.2369C6.53788 13.8919 6.81786 13.6121 7.16284 13.6119H14.7234C14.9305 13.6119 15.0984 13.444 15.0984 13.2369V11.5758C15.0984 11.2307 15.3782 10.9508 15.7234 10.9508Z" fill="#332A2A"/>
</g>
<defs>
<clipPath id="clip0_1217_13905">
<rect width="18" height="18" fill="white"/>
</clipPath>
</defs>
</svg>
