<svg width="44" height="44" viewBox="0 0 44 44" fill="none" xmlns="http://www.w3.org/2000/svg">
<g clip-path="url(#clip0_1217_13926)">
<path d="M21.5 20.5L3 8L2.5 32.5L4 36.8086H39L40.5 35.5L41 9.5L40 7.5L21.5 20.5Z" fill="#E05149"/>
<path fill-rule="evenodd" clip-rule="evenodd" d="M3.53655 8.4487C3.51267 8.5452 3.5 8.64612 3.5 8.75V34.75C3.5 35.4404 4.05964 36 4.75 36H10C10.4142 36 10.75 36.3358 10.75 36.75C10.75 37.1642 10.4142 37.5 10 37.5H4.75C3.23122 37.5 2 36.2688 2 34.75V8.75C2 7.23122 3.23122 6 4.75 6H38.75C40.2688 6 41.5 7.23122 41.5 8.75V21.75C41.5 22.1642 41.1642 22.5 40.75 22.5C40.3358 22.5 40 22.1642 40 21.75V8.75C40 8.64584 39.9873 8.54466 39.9633 8.44792L36.0609 11.2353C35.7239 11.4761 35.2555 11.398 35.0147 11.0609C34.7739 10.7239 34.852 10.2555 35.1891 10.0147L38.7097 7.5H4.78805L21.8408 19.7135C21.9295 19.777 22.0491 19.7757 22.1364 19.7102L30.55 13.4C30.8814 13.1515 31.3515 13.2186 31.6 13.55C31.8485 13.8814 31.7814 14.3515 31.45 14.6L23.0364 20.9102C22.4255 21.3684 21.5882 21.3776 20.9674 20.933L3.53655 8.4487ZM41.5 29.25C41.5 28.8358 41.1642 28.5 40.75 28.5C40.3358 28.5 40 28.8358 40 29.25V34.75C40 35.4404 39.4404 36 38.75 36H21.75H17C16.5858 36 16.25 36.3358 16.25 36.75C16.25 37.1642 16.5858 37.5 17 37.5H21.75H38.75C40.2688 37.5 41.5 36.2688 41.5 34.75V29.25Z" fill="#252323"/>
</g>
<defs>
<clipPath id="clip0_1217_13926">
<rect width="44" height="44" fill="white"/>
</clipPath>
</defs>
</svg>
