<svg width="18" height="18" viewBox="0 0 18 18" fill="none" xmlns="http://www.w3.org/2000/svg">
<g clip-path="url(#clip0_1217_13929)">
<path d="M9.39133 8.60878L2.34773 3.88647L1.95654 13.3045L2.73915 14.4784H15.2609L15.8669 12.5218L15.8847 4.38626L15.6522 3.91313L9.39133 8.60878Z" fill="#E05149"/>
<path d="M14.7234 2.96729C15.6208 2.96729 16.3484 3.69482 16.3484 4.59229V8.91455C16.3484 9.25973 16.0686 9.53955 15.7234 9.53955C15.3782 9.53954 15.0984 9.25972 15.0984 8.91455V4.82764L14.2517 5.46631C13.976 5.67368 13.5843 5.61876 13.3767 5.34326C13.1693 5.06755 13.2241 4.67488 13.4998 4.46729L13.8318 4.21729H3.8064L8.73315 7.63818C8.86497 7.72968 9.04054 7.72656 9.16968 7.63135L11.8376 5.66162C12.1152 5.45672 12.5066 5.51601 12.7117 5.79346C12.9166 6.07112 12.8574 6.46245 12.5798 6.66748L9.91284 8.63721C9.35314 9.05045 8.59178 9.0613 8.02026 8.66455L2.6521 4.93799V13.2368C2.6521 13.4439 2.81999 13.6118 3.0271 13.6118H4.64038C4.98545 13.6119 5.26534 13.8917 5.26538 14.2368C5.26538 14.5819 4.98548 14.8617 4.64038 14.8618H3.0271C2.12964 14.8618 1.4021 14.1343 1.4021 13.2368V4.59229C1.4021 3.69482 2.12964 2.96729 3.0271 2.96729H14.7234ZM15.7234 10.9507C16.0685 10.9507 16.3484 11.2305 16.3484 11.5757V13.2368C16.3484 14.1343 15.6209 14.8618 14.7234 14.8618H7.16284C6.81784 14.8616 6.53784 14.5819 6.53784 14.2368C6.53788 13.8918 6.81786 13.612 7.16284 13.6118H14.7234C14.9305 13.6118 15.0984 13.4439 15.0984 13.2368V11.5757C15.0984 11.2305 15.3782 10.9507 15.7234 10.9507Z" fill="#332A2A"/>
</g>
<defs>
<clipPath id="clip0_1217_13929">
<rect width="18" height="18" fill="white"/>
</clipPath>
</defs>
</svg>
