<svg width="18" height="18" viewBox="0 0 18 18" fill="none" xmlns="http://www.w3.org/2000/svg">
<g clip-path="url(#clip0_1217_13929)">
<path d="M9.39133 8.60866L2.34773 3.88635L1.95654 13.3044L2.73915 14.4783H15.2609L15.8669 12.5217L15.8847 4.38614L15.6522 3.91301L9.39133 8.60866Z" fill="#E05149"/>
<path fill-rule="evenodd" clip-rule="evenodd" d="M2.7771 5.06308V13.362C2.7771 13.5691 2.94499 13.737 3.1521 13.737H4.76521C5.11039 13.737 5.39021 14.0168 5.39021 14.362C5.39021 14.7072 5.11039 14.987 4.76521 14.987H3.1521C2.25464 14.987 1.5271 14.2595 1.5271 13.362V4.71741C1.5271 3.81995 2.25464 3.09241 3.1521 3.09241H14.8484C15.7459 3.09241 16.4734 3.81994 16.4734 4.71741V9.03971C16.4734 9.38489 16.1936 9.66471 15.8484 9.66471C15.5032 9.66471 15.2234 9.38489 15.2234 9.03971V4.95431L14.3772 5.59163C14.1015 5.79929 13.7096 5.7441 13.5019 5.46837C13.2943 5.19265 13.3495 4.80078 13.6252 4.59313L13.9581 4.34241H3.93095L8.85855 7.76319C8.99044 7.85475 9.16598 7.85219 9.29514 7.75682L11.963 5.78709C12.2407 5.58207 12.632 5.64097 12.837 5.91866C13.042 6.19635 12.9831 6.58767 12.7054 6.7927L10.0376 8.76243C9.47791 9.17567 8.71723 9.18676 8.14572 8.79001L2.7771 5.06308ZM16.4734 11.7009C16.4734 11.3557 16.1936 11.0759 15.8484 11.0759C15.5032 11.0759 15.2234 11.3557 15.2234 11.7009V13.362C15.2234 13.5691 15.0555 13.737 14.8484 13.737H9.00026H7.28822C6.94304 13.737 6.66322 14.0168 6.66322 14.362C6.66322 14.7072 6.94304 14.987 7.28822 14.987H9.00026H14.8484C15.7459 14.987 16.4734 14.2595 16.4734 13.362V11.7009Z" fill="#252323"/>
</g>
<defs>
<clipPath id="clip0_1217_13929">
<rect width="18" height="18" fill="white"/>
</clipPath>
</defs>
</svg>
