<svg width="28" height="28" viewBox="0 0 28 28" fill="none" xmlns="http://www.w3.org/2000/svg">
<g clip-path="url(#clip0_1217_13927)">
<path d="M14 13.5L3 6.5V20.9999L3.88065 22.321H23.8807L25.4999 20.9999V7.49992L24.8181 6.04541L14 13.5Z" fill="#E05149"/>
<path fill-rule="evenodd" clip-rule="evenodd" d="M3.75503 7.10807C3.64134 7.2964 3.57593 7.51715 3.57593 7.75317V20.2523C3.57593 20.9427 4.13557 21.5023 4.82593 21.5023H7.13743C7.55165 21.5023 7.88743 21.8381 7.88743 22.2523C7.88743 22.6665 7.55165 23.0023 7.13743 23.0023H4.82593C3.30714 23.0023 2.07593 21.7711 2.07593 20.2523V7.75317C2.07593 6.23439 3.30715 5.00317 4.82593 5.00317H23.4242C24.9429 5.00317 26.1742 6.23439 26.1742 7.75317V14.0027C26.1742 14.417 25.8384 14.7527 25.4242 14.7527C25.0099 14.7527 24.6742 14.417 24.6742 14.0027V7.75317C24.6742 7.57896 24.6385 7.41308 24.5741 7.26241L22.8061 8.49867C22.4667 8.73603 21.9991 8.65327 21.7617 8.31381C21.5243 7.97435 21.6071 7.50674 21.9466 7.26938L23.0423 6.50317H5.51985L14.1302 12.4424C14.2158 12.5014 14.3291 12.5013 14.4146 12.442L19.1985 9.12391C19.5388 8.88784 20.0061 8.97237 20.2422 9.31273C20.4782 9.65309 20.3937 10.1204 20.0533 10.3564L15.2695 13.6745C14.671 14.0896 13.878 14.0907 13.2785 13.6771L3.75503 7.10807ZM26.1742 18.1275C26.1742 17.7133 25.8384 17.3775 25.4242 17.3775C25.0099 17.3775 24.6742 17.7133 24.6742 18.1275V20.2523C24.6742 20.9427 24.1145 21.5023 23.4242 21.5023H14.125H11.3003C10.8861 21.5023 10.5503 21.8381 10.5503 22.2523C10.5503 22.6665 10.8861 23.0023 11.3003 23.0023H14.125H23.4242C24.9429 23.0023 26.1742 21.7711 26.1742 20.2523V18.1275Z" fill="#252323"/>
</g>
<defs>
<clipPath id="clip0_1217_13927">
<rect width="28" height="28" fill="white"/>
</clipPath>
</defs>
</svg>
