<svg width="23" height="23" viewBox="0 0 23 23" fill="none" xmlns="http://www.w3.org/2000/svg">
<g clip-path="url(#clip0_1217_13904)">
<path d="M19.1514 4C20.0626 4.00007 20.8008 4.73917 20.8008 5.65039V11.4512C20.8007 11.8101 20.5103 12.1015 20.1514 12.1016C19.7924 12.1016 19.501 11.8101 19.501 11.4512V5.91016C19.47 5.94692 19.4365 5.98254 19.3965 6.0127L18.1826 6.92676C17.8961 7.14255 17.4886 7.08498 17.2725 6.79883C17.0565 6.51207 17.1136 6.10366 17.4004 5.8877L18.1797 5.30078H4.4502L11.2988 10.0557C11.4218 10.1408 11.5857 10.1385 11.7061 10.0498L15.2754 7.41504C15.5642 7.20205 15.9714 7.26305 16.1846 7.55176C16.3972 7.84041 16.3362 8.2478 16.0479 8.46094L12.4785 11.0957C11.9103 11.5151 11.1378 11.5256 10.5576 11.123L3.30078 6.08594V17.252C3.30084 17.4452 3.45713 17.6016 3.65039 17.6016H5.98926C6.34824 17.6016 6.63965 17.893 6.63965 18.252C6.63959 18.6109 6.3482 18.9014 5.98926 18.9014H3.65039C2.73916 18.9014 2.00006 18.1632 2 17.252V5.65039C2 4.73912 2.73912 4 3.65039 4H19.1514ZM20.1514 14.2012C20.5103 14.2012 20.8008 14.4926 20.8008 14.8516V17.252C20.8007 18.1631 20.0625 18.9013 19.1514 18.9014H9.21289C8.85409 18.9012 8.56354 18.6108 8.56348 18.252C8.56348 17.8931 8.85405 17.6017 9.21289 17.6016H19.1514C19.3446 17.6015 19.5009 17.4452 19.501 17.252V14.8516C19.501 14.4926 19.7924 14.2012 20.1514 14.2012Z" fill="#332A2A"/>
</g>
<defs>
<clipPath id="clip0_1217_13904">
<rect width="23" height="23" fill="white"/>
</clipPath>
</defs>
</svg>
