<svg width="23" height="23" viewBox="0 0 23 23" fill="none" xmlns="http://www.w3.org/2000/svg">
<g clip-path="url(#clip0_1217_13928)">
<path d="M12 11L2.99984 4.96594L2.5 17.0001L3.5 18.5001H19.5L20.2743 15.9999L20.2971 5.60456L20 5L12 11Z" fill="#E05149"/>
<path fill-rule="evenodd" clip-rule="evenodd" d="M3.4001 6.18536V17.3514C3.4001 17.5447 3.5568 17.7014 3.7501 17.7014H6.08907C6.44806 17.7014 6.73907 17.9924 6.73907 18.3514C6.73907 18.7104 6.44806 19.0014 6.08907 19.0014H3.7501C2.83883 19.0014 2.1001 18.2627 2.1001 17.3514V5.74998C2.1001 4.83871 2.83883 4.09998 3.7501 4.09998H19.2509C20.1622 4.09998 20.9009 4.83871 20.9009 5.74998V11.5507C20.9009 11.9097 20.6099 12.2007 20.2509 12.2007C19.892 12.2007 19.6009 11.9097 19.6009 11.5507V6.01245C19.5702 6.04869 19.5351 6.08211 19.4955 6.11188L18.2816 7.0261C17.9949 7.24207 17.5873 7.18468 17.3714 6.89792C17.1554 6.61116 17.2128 6.20363 17.4996 5.98766L18.2799 5.39998H4.54839L11.3981 10.1551C11.5212 10.2405 11.685 10.2382 11.8056 10.1491L15.3745 7.51413C15.6633 7.3009 16.0702 7.36216 16.2835 7.65096C16.4967 7.93976 16.4354 8.34673 16.1466 8.55996L12.5777 11.195C12.0094 11.6146 11.2371 11.6258 10.6567 11.223L3.4001 6.18536ZM20.9009 14.9511C20.9009 14.5921 20.6099 14.3011 20.2509 14.3011C19.892 14.3011 19.6009 14.5921 19.6009 14.9511V17.3514C19.6009 17.5447 19.4442 17.7014 19.2509 17.7014H11.5005H9.31291C8.95393 17.7014 8.66291 17.9924 8.66291 18.3514C8.66291 18.7104 8.95393 19.0014 9.31291 19.0014H11.5005H19.2509C20.1622 19.0014 20.9009 18.2627 20.9009 17.3514V14.9511Z" fill="#252323"/>
</g>
<defs>
<clipPath id="clip0_1217_13928">
<rect width="23" height="23" fill="white"/>
</clipPath>
</defs>
</svg>
