<svg width="44" height="44" viewBox="0 0 44 44" fill="none" xmlns="http://www.w3.org/2000/svg">
<g clip-path="url(#clip0_189_185)">
<path d="M37.7601 37.5833L6.28835 37.5833C5.52459 37.5833 5.04276 36.7617 5.41558 36.0952L21.6283 7.10804C22.0156 6.41559 23.0164 6.42831 23.3859 7.13037L38.645 36.1175C38.9955 36.7834 38.5126 37.5833 37.7601 37.5833Z" fill="#E05149"/>
<path fill-rule="evenodd" clip-rule="evenodd" d="M6.07023 36.4613C5.97703 36.6279 6.09748 36.8333 6.28842 36.8333L37.7602 36.8333C37.9483 36.8333 38.069 36.6334 37.9814 36.4669L36.6419 33.9223C36.4489 33.5557 36.5897 33.1022 36.9562 32.9092C37.3227 32.7163 37.7763 32.857 37.9692 33.2236L39.3087 35.7682C39.9222 36.9335 39.0771 38.3333 37.7602 38.3333H6.28842C4.95186 38.3333 4.10865 36.8956 4.76109 35.7291L12.901 21.1756L15.144 17.1651C15.3462 16.8036 15.8032 16.6745 16.1647 16.8767C16.5262 17.0789 16.6554 17.5358 16.4532 17.8974L14.2101 21.9078L6.07023 36.4613ZM17.6756 14.1754C17.314 13.9732 17.1849 13.5162 17.3871 13.1547L20.9738 6.74194C21.6516 5.53016 23.4029 5.55241 24.0497 6.78103L31.6359 21.1923L35.8581 29.2131C36.051 29.5797 35.9103 30.0332 35.5438 30.2262C35.1773 30.4191 34.7237 30.2784 34.5308 29.9118L30.3086 21.891L22.7224 7.47974C22.63 7.30423 22.3798 7.30105 22.2829 7.47416L18.6962 13.8869C18.494 14.2484 18.0371 14.3776 17.6756 14.1754ZM22.4207 13.75C20.6375 13.75 20.6376 29.3333 22.4207 29.3333C24.2038 29.3333 24.402 13.75 22.4207 13.75ZM22.4207 31.1667C20.6375 31.1667 20.6376 33.9167 22.4207 33.9167C24.2038 33.9167 24.402 31.1667 22.4207 31.1667Z" fill="#332A2A"/>
</g>
<defs>
<clipPath id="clip0_189_185">
<rect width="44" height="44" fill="white"/>
</clipPath>
</defs>
</svg>
