<svg width="23" height="23" viewBox="0 0 23 23" fill="none" xmlns="http://www.w3.org/2000/svg">
<g clip-path="url(#clip0_601_3494)">
<path d="M18.9476 19.6458L4.10085 19.6458C3.33709 19.6458 2.85526 18.8242 3.22808 18.1577L10.8764 4.48304C11.2637 3.79059 12.2645 3.80331 12.6341 4.50537L19.8325 18.18C20.183 18.8459 19.7001 19.6458 18.9476 19.6458Z" fill="#E05149"/>
<path fill-rule="evenodd" clip-rule="evenodd" d="M18.9536 17.9137C18.7801 17.5839 18.9062 17.1763 19.2358 17.0025C19.5656 16.8289 19.9742 16.9551 20.1479 17.2848L20.4799 17.9156C21.0671 19.031 20.258 20.3707 18.9975 20.3707H4.15084C2.87165 20.3707 2.06468 18.995 2.68893 17.8785L6.54635 10.9811L7.7192 8.88437C7.90123 8.55917 8.31285 8.44267 8.63814 8.62461C8.96343 8.80661 9.07889 9.21823 8.89693 9.54355L7.72506 11.6402L3.86764 18.5377C3.74663 18.7543 3.90269 19.0211 4.15084 19.0211L18.9975 19.0211C19.242 19.0211 19.3993 18.7609 19.2856 18.5445L18.9536 17.9137ZM9.15084 7.70664C8.82588 7.52456 8.71028 7.11385 8.89205 6.78867L10.3374 4.20371C10.9861 3.04387 12.6627 3.06489 13.2817 4.24082L16.8374 10.9957L19.0444 15.1891C19.2178 15.5189 19.091 15.9266 18.7612 16.1002C18.4315 16.2737 18.0238 16.1475 17.8501 15.818L15.643 11.6246L12.0864 4.86973C11.9662 4.64183 11.6409 4.63793 11.5151 4.86289L10.0698 7.44687C9.88781 7.77223 9.4762 7.88862 9.15084 7.70664ZM11.7698 7.23756C10.8377 7.23756 10.8377 15.3834 11.7698 15.3834C12.7019 15.3834 12.8055 7.23756 11.7698 7.23756ZM11.7698 16.3417C10.8377 16.3417 10.8377 17.7792 11.7698 17.7792C12.7019 17.7792 12.8055 16.3417 11.7698 16.3417Z" fill="#332A2A"/>
</g>
<defs>
<clipPath id="clip0_601_3494">
<rect width="23" height="23" fill="white"/>
</clipPath>
</defs>
</svg>
