<svg width="18" height="18" viewBox="0 0 18 18" fill="none" xmlns="http://www.w3.org/2000/svg">
<g clip-path="url(#clip0_601_3501)">
<path d="M14.4685 15.375L3.58009 15.375C2.81634 15.375 2.33451 14.5534 2.70733 13.8869L8.31651 3.85806C8.7038 3.16561 9.70459 3.17833 10.0742 3.88039L15.3534 13.9092C15.7039 14.5751 15.221 15.375 14.4685 15.375Z" fill="#E05149"/>
<path fill-rule="evenodd" clip-rule="evenodd" d="M14.5936 16.1249L3.70495 16.1249C2.4639 16.1249 1.68125 14.7901 2.28699 13.7069L5.12488 8.63273L6.04284 6.9921C6.21134 6.69084 6.59217 6.58239 6.89343 6.75089C7.19446 6.91934 7.30181 7.30032 7.13366 7.60148L6.2157 9.2421L3.37781 14.3173C3.23829 14.5672 3.41866 14.8749 3.70495 14.8749L14.5936 14.8749C14.8757 14.8747 15.057 14.5747 14.9257 14.3251L14.8329 14.1503C14.6723 13.8449 14.7902 13.4673 15.0956 13.3066C15.401 13.146 15.7786 13.2629 15.9393 13.5683L16.0311 13.7431C16.6007 14.8251 15.8164 16.1247 14.5936 16.1249ZM7.20007 6.20206C6.89904 6.03361 6.79169 5.65263 6.95984 5.35148L7.89636 3.67765C8.52578 2.55293 10.1512 2.57346 10.7518 3.71378L13.3485 8.6464L15.076 11.9276C15.2366 12.233 15.1187 12.6107 14.8134 12.7714C14.5079 12.9321 14.1304 12.8151 13.9696 12.5097L12.2421 9.22843L9.64636 4.29679C9.5078 4.03357 9.13249 4.02852 8.98718 4.288L8.05066 5.96085C7.88216 6.26211 7.50133 6.37056 7.20007 6.20206ZM9.29698 5.74991C8.56751 5.74991 8.56751 12.1249 9.29697 12.1249C10.0264 12.1249 10.1075 5.74991 9.29698 5.74991ZM9.29698 12.8749C8.56751 12.8749 8.56751 13.9999 9.29697 13.9999C10.0264 13.9999 10.1075 12.8749 9.29698 12.8749Z" fill="#332A2A"/>
</g>
<defs>
<clipPath id="clip0_601_3501">
<rect width="18" height="18" fill="white"/>
</clipPath>
</defs>
</svg>
