<svg width="18" height="18" viewBox="0 0 18 18" fill="none" xmlns="http://www.w3.org/2000/svg">
<g clip-path="url(#clip0_601_3501)">
<path d="M14.4685 15.375L3.58009 15.375C2.81634 15.375 2.33451 14.5534 2.70733 13.8869L8.31651 3.85806C8.7038 3.16561 9.70459 3.17833 10.0742 3.88039L15.3534 13.9092C15.7039 14.5751 15.221 15.375 14.4685 15.375Z" fill="#E05149"/>
<path fill-rule="evenodd" clip-rule="evenodd" d="M3.2527 14.1919C3.1129 14.4419 3.29358 14.75 3.57999 14.75L14.4684 14.75C14.7506 14.75 14.9317 14.45 14.8002 14.2003L14.7082 14.0255C14.5474 13.7201 14.6647 13.3421 14.9701 13.1813C15.2756 13.0205 15.6535 13.1378 15.8143 13.4432L15.9063 13.6181C16.476 14.7002 15.6913 16 14.4684 16L3.57999 16C2.33889 16 1.55592 14.6649 2.16175 13.5818L4.99987 8.5074L5.91749 6.86678C6.08598 6.56552 6.4668 6.45789 6.76805 6.62639C7.06931 6.79489 7.17694 7.1757 7.00844 7.47696L6.09083 9.11758L3.2527 14.1919ZM7.07549 6.07672C6.77423 5.90822 6.6666 5.52741 6.8351 5.22615L7.77093 3.55296C8.40028 2.42773 10.0266 2.4484 10.6271 3.58925L13.2234 8.52136L14.9507 11.8026C15.1115 12.1081 14.9942 12.486 14.6888 12.6468C14.3833 12.8076 14.0054 12.6903 13.8446 12.3849L12.1173 9.10362L9.521 4.17152C9.38241 3.90824 9.00712 3.90347 8.86189 4.16314L7.92606 5.83633C7.75756 6.13759 7.37675 6.24522 7.07549 6.07672ZM9.172 5.62499C8.44253 5.62499 8.44254 12 9.17199 12C9.90145 12 9.98255 5.62499 9.172 5.62499ZM9.172 12.75C8.44253 12.75 8.44253 13.875 9.17199 13.875C9.90145 13.875 9.98255 12.75 9.172 12.75Z" fill="#252323"/>
</g>
<defs>
<clipPath id="clip0_601_3501">
<rect width="18" height="18" fill="white"/>
</clipPath>
</defs>
</svg>
