<svg width="28" height="28" viewBox="0 0 28 28" fill="none" xmlns="http://www.w3.org/2000/svg">
<g clip-path="url(#clip0_601_3487)">
<path d="M23.4269 23.9167L4.62184 23.9167C3.85809 23.9167 3.37626 23.0951 3.74908 22.4285L13.4365 5.10808C13.8238 4.41563 14.8246 4.42835 15.1942 5.13041L24.3118 22.4509C24.6623 23.1168 24.1795 23.9167 23.4269 23.9167Z" fill="#E05149"/>
<path fill-rule="evenodd" clip-rule="evenodd" d="M4.40348 22.7946C4.31028 22.9613 4.43074 23.1667 4.62167 23.1667H23.4268C23.6149 23.1667 23.7356 22.9667 23.648 22.8002L23.0761 21.7139C22.8832 21.3474 23.0239 20.8939 23.3905 20.7009C23.757 20.508 24.2105 20.6487 24.4035 21.0152L24.9753 22.1015C25.5887 23.2668 24.7437 24.6667 23.4268 24.6667H4.62167C3.28511 24.6667 2.4419 23.2289 3.09434 22.0624L7.9716 13.3422L9.399 10.7901C9.6012 10.4286 10.0582 10.2995 10.4197 10.5017C10.7812 10.7039 10.9103 11.1608 10.7081 11.5224L9.28075 14.0744L4.40348 22.7946ZM11.1149 9.25873C10.7534 9.05654 10.6242 8.59956 10.8264 8.23805L12.7818 4.74194C13.4596 3.53016 15.2109 3.55241 15.8577 4.78103L20.3732 13.359L23.06 18.4631C23.253 18.8297 23.1123 19.2832 22.7457 19.4762C22.3792 19.6691 21.9257 19.5284 21.7327 19.1618L19.0458 14.0577L14.5304 5.47974C14.438 5.30423 14.1878 5.30105 14.0909 5.47416L12.1355 8.97027C11.9334 9.33178 11.4764 9.46093 11.1149 9.25873ZM14.2676 8.74999C13.1329 8.74999 13.1329 18.6667 14.2676 18.6667C15.4023 18.6667 15.5285 8.74999 14.2676 8.74999ZM14.2676 19.8333C13.1329 19.8333 13.1329 21.5833 14.2676 21.5833C15.4023 21.5833 15.5285 19.8333 14.2676 19.8333Z" fill="#252323"/>
</g>
<defs>
<clipPath id="clip0_601_3487">
<rect width="28" height="28" fill="white"/>
</clipPath>
</defs>
</svg>
