<svg width="23" height="23" viewBox="0 0 23 23" fill="none" xmlns="http://www.w3.org/2000/svg">
<g clip-path="url(#clip0_601_3528)">
<path fill-rule="evenodd" clip-rule="evenodd" d="M3.81736 18.4872C3.69619 18.7038 3.85279 18.9708 4.10101 18.9708L18.9478 18.9708C19.1923 18.9708 19.3493 18.7109 19.2353 18.4945L18.9034 17.8639C18.7298 17.534 18.8564 17.1258 19.1863 16.9522C19.5162 16.7785 19.9244 16.9052 20.098 17.2351L20.4299 17.8656C21.0171 18.981 20.2083 20.3208 18.9478 20.3208H4.10101C2.82173 20.3208 2.01466 18.9447 2.63913 17.8282L6.49683 10.9309L7.66933 8.83457C7.85131 8.50921 8.26258 8.39298 8.58794 8.57495C8.9133 8.75693 9.02954 9.1682 8.84756 9.49356L7.67506 11.5899L3.81736 18.4872ZM9.10146 7.65683C8.7761 7.47485 8.65986 7.06358 8.84184 6.73822L10.2875 4.15357C10.9362 2.99372 12.6125 3.01502 13.2315 4.19098L16.7874 10.946L18.9945 15.1387C19.1681 15.4686 19.0415 15.8768 18.7116 16.0504C18.3817 16.2241 17.9735 16.0974 17.7999 15.7676L15.5928 11.5748L12.0369 4.81982C11.9168 4.59165 11.5916 4.58751 11.4657 4.81256L10.0201 7.39721C9.83809 7.72257 9.42682 7.8388 9.10146 7.65683ZM11.72 7.1875C10.7879 7.1875 10.7879 15.3333 11.72 15.3333C12.6521 15.3333 12.7557 7.1875 11.72 7.1875ZM11.72 16.2917C10.7879 16.2917 10.7879 17.7292 11.72 17.7292C12.6521 17.7292 12.7557 16.2917 11.72 16.2917Z" fill="#252323"/>
</g>
<defs>
<clipPath id="clip0_601_3528">
<rect width="23" height="23" fill="white"/>
</clipPath>
</defs>
</svg>
