<svg width="44" height="44" viewBox="0 0 44 44" fill="none" xmlns="http://www.w3.org/2000/svg">
<g clip-path="url(#clip0_1742_12720)">
<path d="M12.5868 34.375H6.5C5.94772 34.375 5.5 33.9273 5.5 33.375V24.375C5.5 23.8227 5.94772 23.375 6.5 23.375H12.5868C12.7487 23.375 12.9082 23.3357 13.0516 23.2604L30.9484 13.8646C31.0918 13.7893 31.2513 13.75 31.4132 13.75L37.5 13.75C38.0523 13.75 38.5 14.1977 38.5 14.75V23.75C38.5 24.3023 38.0523 24.75 37.5 24.75H31.4132C31.2513 24.75 31.0918 24.7893 30.9484 24.8646L26.5833 27.1563L22 29.5625L13.0516 34.2604C12.9082 34.3357 12.7487 34.375 12.5868 34.375Z" fill="#E05149"/>
<path d="M20.8545 8.41699C22.5342 8.41717 23.8955 9.77923 23.8955 11.459C23.8953 12.354 23.506 13.1555 22.8906 13.7119C23.6427 14.3111 24.1249 15.2343 24.125 16.2705V16.5996L30.5996 13.2002C30.8505 13.0685 31.1298 13 31.4131 13H37.5C38.4665 13 39.25 13.7835 39.25 14.75V23.75C39.25 24.7165 38.4665 25.5 37.5 25.5H31.4131C31.3727 25.5 31.3327 25.5095 31.2969 25.5283L26.9316 27.8203C26.5649 28.0127 26.1114 27.8715 25.9189 27.5049C25.7266 27.1382 25.8679 26.6848 26.2344 26.4922L30.5996 24.2002C30.8505 24.0685 31.1298 24 31.4131 24H37.5C37.6381 24 37.75 23.8881 37.75 23.75V14.75C37.75 14.6119 37.6381 14.5 37.5 14.5H31.4131C31.3727 14.5 31.3327 14.5095 31.2969 14.5283L13.4004 23.9248C13.1495 24.0565 12.8702 24.125 12.5869 24.125H6.5C6.36193 24.125 6.25 24.2369 6.25 24.375V33.375C6.25 33.5131 6.36193 33.625 6.5 33.625H12.5869C12.6273 33.625 12.6673 33.6155 12.7031 33.5967L21.6514 28.8984C22.0181 28.7059 22.4715 28.8471 22.6641 29.2139C22.8566 29.5806 22.7154 30.034 22.3486 30.2266L13.4004 34.9248C13.1495 35.0565 12.8702 35.125 12.5869 35.125H6.5C5.5335 35.125 4.75 34.3415 4.75 33.375V24.375C4.75 23.4085 5.5335 22.625 6.5 22.625H12.5869C12.6273 22.625 12.6673 22.6155 12.7031 22.5967L17.583 20.0342V16.2705C17.5831 15.2344 18.0656 14.3111 18.8174 13.7119C18.202 13.1555 17.8127 12.3539 17.8125 11.459C17.8125 9.77912 19.1746 8.41699 20.8545 8.41699ZM20.8535 14.5C19.8759 14.5004 19.0832 15.2929 19.083 16.2705V19.2461L22.625 17.3867V16.2705C22.6248 15.2927 21.8314 14.5 20.8535 14.5ZM20.8545 9.91699C20.0031 9.91699 19.3125 10.6075 19.3125 11.459C19.3129 12.3101 20.0033 13 20.8545 13C21.7056 12.9998 22.3952 12.31 22.3955 11.459C22.3955 10.6077 21.7058 9.91717 20.8545 9.91699Z" fill="#332A2A"/>
</g>
<defs>
<clipPath id="clip0_1742_12720">
<rect width="44" height="44" fill="white"/>
</clipPath>
</defs>
</svg>
