<svg width="18" height="18" viewBox="0 0 18 18" fill="none" xmlns="http://www.w3.org/2000/svg">
<g clip-path="url(#clip0_1742_12689)">
<path d="M8.53125 3.125C9.3942 3.125 10.0938 3.82456 10.0938 4.6875C10.0938 5.02587 9.98455 5.33795 9.80176 5.59375C9.9667 5.79078 10.0853 6.02702 10.1445 6.28613L12.3506 5.12891L12.4746 5.07324C12.6016 5.02511 12.7365 5.00003 12.873 5H15.25C15.8713 5 16.375 5.50368 16.375 6.125V9.625C16.375 10.2463 15.8713 10.75 15.25 10.75H12.9033L11.165 11.6631C10.8595 11.8231 10.4816 11.7049 10.3213 11.3994C10.1612 11.0939 10.2795 10.716 10.585 10.5557L12.3506 9.62891L12.4746 9.57324C12.6016 9.52511 12.7365 9.50003 12.873 9.5H15.125V6.25H12.9033L5.64941 10.0586C5.48823 10.1432 5.30898 10.1875 5.12695 10.1875H2.875V13.4375H5.09668L8.70996 11.54C9.01549 11.38 9.39335 11.4983 9.55371 11.8037C9.71376 12.1092 9.59549 12.4871 9.29004 12.6475L5.64941 14.5586C5.48823 14.6432 5.30898 14.6875 5.12695 14.6875H2.75C2.12868 14.6875 1.625 14.1838 1.625 13.5625V10.0625C1.625 9.44118 2.12868 8.9375 2.75 8.9375H5.09668L6.875 8.00293V6.65625C6.875 6.25207 7.01925 5.88127 7.25977 5.59375C7.07718 5.33803 6.96875 5.02567 6.96875 4.6875C6.96875 3.82456 7.6683 3.125 8.53125 3.125ZM8.53125 6.25C8.30688 6.25 8.125 6.43188 8.125 6.65625V7.34668L8.9375 6.9209V6.65625C8.9375 6.43188 8.75562 6.25 8.53125 6.25ZM8.53125 4.375C8.35866 4.375 8.21875 4.51491 8.21875 4.6875C8.21875 4.86009 8.35866 5 8.53125 5C8.70384 5 8.84375 4.86009 8.84375 4.6875C8.84375 4.51491 8.70384 4.375 8.53125 4.375Z" fill="#322B2B"/>
</g>
<defs>
<clipPath id="clip0_1742_12689">
<rect width="18" height="18" fill="white"/>
</clipPath>
</defs>
</svg>
