<svg width="28" height="28" viewBox="0 0 28 28" fill="none" xmlns="http://www.w3.org/2000/svg">
<g clip-path="url(#clip0_1742_12675)">
<path d="M13.2705 5.08301C14.4899 5.08301 15.4791 6.07169 15.4795 7.29102C15.4795 7.83335 15.2825 8.32934 14.958 8.71387C15.3187 9.08495 15.5581 9.57406 15.6123 10.1182L19.2666 8.2002C19.5174 8.06857 19.7968 8 20.0801 8H23.5C24.4665 8 25.25 8.7835 25.25 9.75V14.75C25.25 15.7165 24.4665 16.5 23.5 16.5H20.0801C20.0397 16.5 19.9996 16.5096 19.9639 16.5283L17.2656 17.9453C16.8989 18.1378 16.4455 17.9965 16.2529 17.6299C16.0604 17.2631 16.2016 16.8097 16.5684 16.6172L19.2666 15.2002C19.5174 15.0686 19.7968 15 20.0801 15H23.5C23.6381 15 23.75 14.8881 23.75 14.75V9.75C23.75 9.61193 23.6381 9.5 23.5 9.5H20.0801C20.0397 9.5 19.9996 9.5096 19.9639 9.52832L8.7334 15.4248C8.48256 15.5564 8.2032 15.625 7.91992 15.625H4.5C4.36193 15.625 4.25 15.7369 4.25 15.875V20.875C4.25 21.0131 4.36193 21.125 4.5 21.125H7.91992C7.9603 21.125 8.00036 21.1154 8.03613 21.0967L13.6514 18.1484C14.0181 17.9559 14.4715 18.0971 14.6641 18.4639C14.8566 18.8306 14.7154 19.284 14.3486 19.4766L8.7334 22.4248C8.48256 22.5564 8.2032 22.625 7.91992 22.625H4.5C3.5335 22.625 2.75 21.8415 2.75 20.875V15.875C2.75 14.9085 3.5335 14.125 4.5 14.125H7.91992C7.9603 14.125 8.00036 14.1154 8.03613 14.0967L10.917 12.584V10.3545C10.917 9.71675 11.1711 9.13887 11.583 8.71484C11.2585 8.33029 11.0625 7.83345 11.0625 7.29102C11.0629 6.07179 12.0512 5.08318 13.2705 5.08301ZM13.2715 9.5C12.7997 9.5 12.417 9.88275 12.417 10.3545V11.7959L14.125 10.8994V10.3545C14.125 9.88297 13.7429 9.50035 13.2715 9.5ZM13.2705 6.58301C12.8797 6.58318 12.5629 6.90022 12.5625 7.29102C12.5625 7.68211 12.8795 7.99982 13.2705 8C13.6617 8 13.9795 7.68222 13.9795 7.29102C13.9791 6.90011 13.6615 6.58301 13.2705 6.58301Z" fill="#332A2A"/>
</g>
<defs>
<clipPath id="clip0_1742_12675">
<rect width="28" height="28" fill="white"/>
</clipPath>
</defs>
</svg>
