<svg width="23" height="23" viewBox="0 0 23 23" fill="none" xmlns="http://www.w3.org/2000/svg">
<g clip-path="url(#clip0_1742_12682)">
<path d="M10.9014 4.11719C11.9356 4.11736 12.7744 4.95596 12.7744 5.99023C12.7743 6.43157 12.6199 6.83611 12.3643 7.15625C12.6311 7.44541 12.8126 7.81243 12.8711 8.2207L15.8691 6.64746L15.998 6.58887C16.1309 6.53847 16.2722 6.5127 16.415 6.5127H19.625C20.2739 6.5127 20.7998 7.03857 20.7998 7.6875V12.4375C20.7998 13.0864 20.2739 13.6123 19.625 13.6123H16.459L14.21 14.793C13.8799 14.9663 13.4711 14.8389 13.2979 14.5088C13.1249 14.1788 13.2521 13.7709 13.582 13.5977L15.8691 12.3975L15.998 12.3389C16.1309 12.2885 16.2722 12.2627 16.415 12.2627H19.4502V7.8623H16.459L7.13086 12.7588C6.96243 12.8472 6.77517 12.8936 6.58496 12.8936H3.5498V17.2939H6.54102L11.1865 14.8555C11.5166 14.6824 11.9244 14.8097 12.0977 15.1396C12.2708 15.4697 12.1435 15.8775 11.8135 16.0508L7.13086 18.5088C6.96243 18.5972 6.77517 18.6436 6.58496 18.6436H3.375C2.72607 18.6436 2.2002 18.1177 2.2002 17.4688V12.7188C2.2002 12.0698 2.72607 11.5439 3.375 11.5439H6.54102L8.9082 10.3008V8.50488C8.90829 7.98416 9.10947 7.51115 9.43652 7.15625C9.1814 6.83625 9.02847 6.43117 9.02832 5.99023C9.02832 4.95585 9.86698 4.11719 10.9014 4.11719ZM10.9014 7.86328C10.8988 7.86328 10.8962 7.86232 10.8936 7.8623C10.5422 7.86632 10.258 8.15257 10.2578 8.50488V9.59277L11.543 8.91797V8.50488C11.5428 8.15225 11.2591 7.8658 10.9072 7.8623C10.9053 7.86231 10.9033 7.86328 10.9014 7.86328ZM10.9014 5.4668C10.6126 5.4668 10.3779 5.70144 10.3779 5.99023C10.3783 6.27873 10.6128 6.5127 10.9014 6.5127C11.1898 6.51252 11.4235 6.27863 11.4238 5.99023C11.4238 5.70154 11.19 5.46697 10.9014 5.4668Z" fill="#322B2B"/>
</g>
<defs>
<clipPath id="clip0_1742_12682">
<rect width="23" height="23" fill="white"/>
</clipPath>
</defs>
</svg>
