<svg width="18" height="18" viewBox="0 0 18 18" fill="none" xmlns="http://www.w3.org/2000/svg">
<g clip-path="url(#clip0_1054_12199)">
<path fill-rule="evenodd" clip-rule="evenodd" d="M2.5 9C2.5 5.41015 5.41015 2.5 9 2.5C9.34518 2.5 9.625 2.22018 9.625 1.875C9.625 1.52982 9.34518 1.25 9 1.25C4.71979 1.25 1.25 4.71979 1.25 9C1.25 10.6714 1.77978 12.2208 2.68051 13.4872C2.88058 13.7685 3.27079 13.8344 3.55208 13.6343C3.83336 13.4342 3.89921 13.044 3.69914 12.7628C2.94396 11.701 2.5 10.4033 2.5 9ZM11.9503 1.83149C11.6311 1.70001 11.2658 1.85215 11.1343 2.17131C11.0028 2.49046 11.155 2.85578 11.4741 2.98726C12.4319 3.38184 13.2755 3.99916 13.9399 4.77521C14.9129 5.91173 15.5 7.38651 15.5 9C15.5 10.9882 14.6081 12.7675 13.2004 13.9607C12.9371 14.1839 12.9045 14.5783 13.1277 14.8416C13.3509 15.1049 13.7453 15.1375 14.0086 14.9143C15.6846 13.4936 16.75 11.3709 16.75 9C16.75 7.07729 16.049 5.31671 14.8895 3.96229C14.0985 3.03838 13.0934 2.30245 11.9503 1.83149ZM4.79964 13.9607C4.53633 13.7375 4.14194 13.7701 3.91874 14.0334C3.69555 14.2967 3.72807 14.6911 3.99138 14.9143C5.34188 16.059 7.09105 16.75 9 16.75C9.93014 16.75 10.8233 16.5859 11.6513 16.2844C11.9757 16.1664 12.1429 15.8077 12.0248 15.4833C11.9067 15.159 11.548 14.9918 11.2237 15.1099C10.5308 15.3621 9.78219 15.5 9 15.5C7.39802 15.5 5.93281 14.9213 4.79964 13.9607ZM13.15 6.50051C13.2883 6.18427 13.1441 5.81576 12.8279 5.6774C12.5117 5.53905 12.1431 5.68325 12.0048 5.99949L11.9357 6.15744C11.743 6.59789 11.124 6.61376 10.909 6.18375C10.6347 5.63523 9.85197 5.63523 9.57772 6.18375L9.55508 6.22901C9.34342 6.65234 8.73528 6.64048 8.54028 6.20923C8.27898 5.63136 7.49398 5.64066 7.20937 6.16018C6.92976 6.67058 6.20511 6.63338 5.97378 6.14372L5.89788 5.98305C5.75043 5.67095 5.37789 5.53746 5.06579 5.68491C4.75369 5.83235 4.62021 6.20489 4.76765 6.51699L4.84356 6.67766C5.4148 7.88684 6.91963 8.09021 7.83883 7.32885C8.51367 7.9385 9.5762 7.9458 10.2579 7.33575C11.1329 8.06112 12.5716 7.82261 13.0809 6.65846L13.15 6.50051ZM13.15 8.99026C13.2883 8.67402 13.1441 8.3055 12.8279 8.16715C12.5117 8.02879 12.1431 8.173 12.0048 8.48923L11.9357 8.64718C11.743 9.08764 11.124 9.1035 10.909 8.67349C10.6347 8.12498 9.85197 8.12498 9.57772 8.67349L9.55508 8.71876C9.34342 9.14208 8.73528 9.13023 8.54028 8.69897C8.27898 8.12111 7.49398 8.13041 7.20937 8.64993C6.92976 9.16033 6.20511 9.12313 5.97378 8.63347L5.89788 8.47279C5.75043 8.16069 5.37789 8.02721 5.06579 8.17465C4.75369 8.3221 4.62021 8.69463 4.76765 9.00674L4.84356 9.16741C5.4148 10.3766 6.91963 10.58 7.83883 9.8186C8.51367 10.4282 9.5762 10.4355 10.2579 9.8255C11.1329 10.5509 12.5716 10.3124 13.0809 9.14821L13.15 8.99026ZM12.8279 10.6564C13.1441 10.7948 13.2883 11.1633 13.15 11.4795L13.0809 11.6375C12.5716 12.8016 11.1329 13.0401 10.2579 12.3148C9.5762 12.9248 8.51367 12.9175 7.83883 12.3079C6.91963 13.0692 5.4148 12.8658 4.84356 11.6567L4.76765 11.496C4.62021 11.1839 4.75369 10.8114 5.06579 10.6639C5.37789 10.5165 5.75043 10.6499 5.89788 10.9621L5.97378 11.1227C6.20511 11.6124 6.92976 11.6496 7.20937 11.1392C7.49398 10.6197 8.27898 10.6104 8.54028 11.1882C8.73528 11.6195 9.34342 11.6313 9.55508 11.208L9.57772 11.1628C9.85197 10.6142 10.6347 10.6142 10.909 11.1628C11.124 11.5928 11.743 11.5769 11.9357 11.1364L12.0048 10.9785C12.1431 10.6623 12.5117 10.5181 12.8279 10.6564Z" fill="#252323"/>
</g>
<defs>
<clipPath id="clip0_1054_12199">
<rect width="18" height="18" fill="white"/>
</clipPath>
</defs>
</svg>
