<svg width="28" height="28" viewBox="0 0 28 28" fill="none" xmlns="http://www.w3.org/2000/svg">
<g clip-path="url(#clip0_1054_12151)">
<circle cx="14.0001" cy="13.9998" r="11.0833" fill="#E05149"/>
<path fill-rule="evenodd" clip-rule="evenodd" d="M3.66675 13.9998C3.66675 8.29289 8.29314 3.6665 14.0001 3.6665C14.4143 3.6665 14.7501 3.33072 14.7501 2.9165C14.7501 2.50229 14.4143 2.1665 14.0001 2.1665C7.46471 2.1665 2.16675 7.46447 2.16675 13.9998C2.16675 16.5521 2.9756 18.9176 4.35086 20.8512C4.59093 21.1887 5.05919 21.2678 5.39673 21.0277C5.73428 20.7876 5.81329 20.3194 5.57321 19.9818C4.3726 18.2938 3.66675 16.2303 3.66675 13.9998ZM18.5047 3.05429C18.1217 2.89652 17.6834 3.07908 17.5256 3.46207C17.3678 3.84506 17.5504 4.28343 17.9334 4.44121C19.4562 5.06859 20.7972 6.04994 21.8532 7.28343C23.3999 9.09008 24.3334 11.435 24.3334 13.9998C24.3334 17.1606 22.9152 19.9894 20.6777 21.8861C20.3617 22.1539 20.3227 22.6272 20.5905 22.9431C20.8583 23.2591 21.3316 23.2981 21.6476 23.0303C24.2069 20.8608 25.8334 17.6199 25.8334 13.9998C25.8334 11.0639 24.7633 8.37606 22.9927 6.30791C21.7848 4.89702 20.2501 3.77332 18.5047 3.05429ZM7.32249 21.8861C7.00652 21.6182 6.53326 21.6572 6.26542 21.9732C5.99759 22.2892 6.03661 22.7625 6.35258 23.0303C8.41473 24.7783 11.0852 25.8332 14.0001 25.8332C15.4207 25.8332 16.7844 25.5825 18.0483 25.1224C18.4375 24.9807 18.6382 24.5503 18.4965 24.1611C18.3548 23.7718 17.9244 23.5712 17.5352 23.7129C16.4333 24.114 15.2431 24.3332 14.0001 24.3332C11.4535 24.3332 9.12385 23.413 7.32249 21.8861ZM20.876 9.41546C21.0272 9.06975 20.8696 8.66688 20.5239 8.51563C20.1782 8.36438 19.7753 8.52203 19.624 8.86774L19.506 9.13746C19.0465 10.1879 17.5703 10.2257 17.0575 9.2002C16.7307 8.54658 15.798 8.54659 15.4712 9.2002L15.4325 9.2775C14.9265 10.2896 13.4725 10.2613 13.0062 9.23019C12.6958 8.54366 11.7603 8.55203 11.4202 9.17273C10.798 10.3085 9.16064 10.2552 8.62631 9.12415L8.49669 8.84978C8.3355 8.50859 7.92824 8.36266 7.58705 8.52385C7.24586 8.68504 7.09994 9.0923 7.26112 9.43349L7.39074 9.70785C8.30589 11.645 10.8237 11.8747 12.1717 10.4459C13.2272 11.6908 15.2089 11.7064 16.2791 10.457C17.5439 11.8261 19.944 11.5456 20.758 9.68518L20.876 9.41546ZM20.876 13.6669C21.0272 13.3212 20.8696 12.9183 20.5239 12.7671C20.1782 12.6158 19.7753 12.7735 19.624 13.1192L19.506 13.3889C19.0465 14.4393 17.5703 14.4772 17.0575 13.4517C16.7307 12.798 15.798 12.798 15.4712 13.4517L15.4325 13.529C14.9265 14.5411 13.4725 14.5127 13.0062 13.4817C12.6958 12.7951 11.7603 12.8035 11.4202 13.4242C10.798 14.56 9.16064 14.5067 8.62631 13.3756L8.49669 13.1012C8.3355 12.7601 7.92824 12.6141 7.58705 12.7753C7.24586 12.9365 7.09994 13.3438 7.26112 13.685L7.39074 13.9593C8.30589 15.8965 10.8237 16.1261 12.1717 14.6973C13.2272 15.9422 15.2089 15.9579 16.2791 14.7084C17.5439 16.0776 19.944 15.7971 20.758 13.9366L20.876 13.6669ZM20.5239 17.0186C20.8696 17.1698 21.0272 17.5727 20.876 17.9184L20.758 18.1881C19.944 20.0485 17.5439 20.3291 16.2791 18.9599C15.2089 20.2093 13.2272 20.1937 12.1717 18.9488C10.8237 20.3776 8.30589 20.1479 7.39074 18.2108L7.26112 17.9364C7.09994 17.5952 7.24586 17.188 7.58705 17.0268C7.92824 16.8656 8.3355 17.0115 8.49669 17.3527L8.62631 17.6271C9.16064 18.7581 10.798 18.8115 11.4202 17.6757C11.7603 17.055 12.6958 17.0466 13.0062 17.7331C13.4725 18.7642 14.9265 18.7926 15.4325 17.7804L15.4712 17.7031C15.798 17.0495 16.7307 17.0495 17.0575 17.7031C17.5703 18.7286 19.0465 18.6908 19.506 17.6404L19.624 17.3707C19.7753 17.025 20.1782 16.8673 20.5239 17.0186Z" fill="#332A2A"/>
</g>
<defs>
<clipPath id="clip0_1054_12151">
<rect width="28" height="28" fill="white"/>
</clipPath>
</defs>
</svg>
