<svg width="44" height="44" viewBox="0 0 44 44" fill="none" xmlns="http://www.w3.org/2000/svg">
<g clip-path="url(#clip0_1054_12143)">
<circle cx="21.9999" cy="22.0002" r="17.4167" fill="#E05149"/>
<path fill-rule="evenodd" clip-rule="evenodd" d="M5.33325 22.0002C5.33325 12.7954 12.7952 5.3335 21.9999 5.3335C22.4141 5.3335 22.7499 4.99771 22.7499 4.5835C22.7499 4.16928 22.4141 3.8335 21.9999 3.8335C11.9667 3.8335 3.83325 11.967 3.83325 22.0002C3.83325 25.9189 5.07488 29.5498 7.1861 32.5182C7.42618 32.8557 7.89443 32.9347 8.23197 32.6947C8.56952 32.4546 8.64853 31.9863 8.40845 31.6488C6.47188 28.926 5.33325 25.5972 5.33325 22.0002ZM28.9154 5.19629C28.5324 5.03851 28.094 5.22108 27.9362 5.60406C27.7785 5.98705 27.961 6.42543 28.344 6.58321C30.8007 7.59526 32.9633 9.17806 34.6661 11.1671C37.1606 14.0808 38.6666 17.8637 38.6666 22.0002C38.6666 27.0984 36.3784 31.6614 32.7704 34.7197C32.4544 34.9875 32.4154 35.4608 32.6832 35.7768C32.9511 36.0928 33.4243 36.1318 33.7403 35.8639C37.6702 32.5328 40.1666 27.5576 40.1666 22.0002C40.1666 17.4926 38.524 13.3668 35.8056 10.1916C33.9509 8.02514 31.5945 6.3 28.9154 5.19629ZM11.2295 34.7197C10.9135 34.4519 10.4402 34.4909 10.1724 34.8069C9.90454 35.1228 9.94357 35.5961 10.2595 35.8639C13.4255 38.5476 17.5246 40.1668 21.9999 40.1668C24.1815 40.1668 26.2749 39.7819 28.2148 39.0757C28.604 38.934 28.8047 38.5036 28.663 38.1144C28.5213 37.7252 28.0909 37.5245 27.7017 37.6662C25.9239 38.3134 24.004 38.6668 21.9999 38.6668C17.893 38.6668 14.1347 37.1823 11.2295 34.7197ZM31.0349 15.1717C31.2009 14.7922 31.0279 14.35 30.6484 14.184C30.2689 14.018 29.8267 14.191 29.6607 14.5705L29.4929 14.9539C28.7645 16.6188 26.4247 16.6788 25.612 15.0533C25.229 14.2873 24.1358 14.2873 23.7528 15.0533L23.6978 15.1632C22.8952 16.7685 20.589 16.7235 19.8496 15.0882C19.4865 14.2852 18.39 14.2928 17.9907 15.0216C17.0228 16.7884 14.465 16.7184 13.6253 14.9408L13.441 14.5508C13.2641 14.1763 12.817 14.0161 12.4425 14.193C12.068 14.3699 11.9078 14.817 12.0848 15.1915L12.269 15.5815C13.5382 18.2682 17.1088 18.5163 18.8747 16.3799C20.2909 18.3139 23.2579 18.3385 24.697 16.3936C26.3378 18.4474 29.7392 18.1334 30.8672 15.5551L31.0349 15.1717ZM31.035 21.2146C31.201 20.8351 31.0279 20.3929 30.6485 20.2269C30.269 20.0609 29.8267 20.2339 29.6607 20.6134L29.493 20.9968C28.7646 22.6617 26.4248 22.7217 25.6121 21.0962C25.229 20.3302 24.1358 20.3302 23.7528 21.0962L23.6979 21.2061C22.8952 22.8114 20.5891 22.7664 19.8496 21.1311C19.4866 20.3282 18.39 20.3357 17.9908 21.0645C17.0229 22.8313 14.4651 22.7613 13.6253 20.9837L13.4411 20.5937C13.2641 20.2192 12.8171 20.059 12.4426 20.2359C12.0681 20.4128 11.9079 20.8599 12.0848 21.2344L12.269 21.6244C13.5383 24.3111 17.1088 24.5592 18.8748 22.4228C20.291 24.3568 23.258 24.3814 24.697 22.4366C26.3379 24.4903 29.7392 24.1763 30.8672 21.598L31.035 21.2146ZM30.6485 26.2698C31.0279 26.4358 31.201 26.878 31.035 27.2575L30.8672 27.6409C29.7392 30.2192 26.3379 30.5332 24.697 28.4795C23.258 30.4243 20.291 30.3997 18.8748 28.4657C17.1088 30.6021 13.5383 30.354 12.269 27.6673L12.0848 27.2773C11.9079 26.9028 12.0681 26.4558 12.4426 26.2788C12.8171 26.1019 13.2641 26.2621 13.4411 26.6366L13.6253 27.0266C14.4651 28.8042 17.0229 28.8742 17.9908 27.1074C18.39 26.3786 19.4866 26.3711 19.8496 27.174C20.5891 28.8093 22.8952 28.8543 23.6979 27.249L23.7528 27.1391C24.1358 26.3731 25.229 26.3731 25.6121 27.1391C26.4248 28.7646 28.7646 28.7046 29.493 27.0397L29.6607 26.6563C29.8267 26.2768 30.269 26.1038 30.6485 26.2698Z" fill="#252323"/>
</g>
<defs>
<clipPath id="clip0_1054_12143">
<rect width="44" height="44" fill="white"/>
</clipPath>
</defs>
</svg>
