<svg width="23" height="23" viewBox="0 0 23 23" fill="none" xmlns="http://www.w3.org/2000/svg">
<g clip-path="url(#clip0_1054_12166)">
<circle cx="11.4999" cy="11.5002" r="9.10417" fill="#E05149"/>
<path fill-rule="evenodd" clip-rule="evenodd" d="M3.07095 11.4999C3.07095 6.84457 6.84481 3.0707 11.5001 3.0707C11.8729 3.0707 12.1751 2.7685 12.1751 2.3957C12.1751 2.02291 11.8729 1.7207 11.5001 1.7207C6.09923 1.7207 1.72095 6.09899 1.72095 11.4999C1.72095 13.609 2.38941 15.564 3.52595 17.1619C3.74201 17.4657 4.16344 17.5368 4.46723 17.3208C4.77102 17.1047 4.84213 16.6833 4.62607 16.3795C3.64671 15.0025 3.07095 13.3194 3.07095 11.4999ZM15.2228 2.4544C14.8781 2.3124 14.4836 2.47671 14.3416 2.8214C14.1996 3.16609 14.3639 3.56063 14.7086 3.70263C15.9508 4.21437 17.0447 5.01489 17.9061 6.02114C19.1679 7.4949 19.9293 9.40761 19.9293 11.4999C19.9293 14.0782 18.7725 16.3857 16.9472 17.9329C16.6628 18.1739 16.6277 18.5999 16.8687 18.8842C17.1098 19.1686 17.5357 19.2037 17.8201 18.9627C19.9351 17.1699 21.2793 14.4915 21.2793 11.4999C21.2793 9.07365 20.3949 6.85228 18.9317 5.14318C17.9335 3.97726 16.6652 3.04863 15.2228 2.4544ZM6.05306 17.9329C5.76868 17.6918 5.34274 17.727 5.10169 18.0113C4.86064 18.2957 4.89576 18.7216 5.18014 18.9627C6.88429 20.4072 9.09126 21.279 11.5001 21.279C12.674 21.279 13.801 21.0719 14.8456 20.6916C15.1959 20.5641 15.3765 20.1767 15.249 19.8264C15.1214 19.4761 14.7341 19.2955 14.3838 19.4231C13.485 19.7503 12.5142 19.929 11.5001 19.929C9.42278 19.929 7.5225 19.1784 6.05306 17.9329ZM17.3751 7.86684C17.5261 7.52173 17.3687 7.11956 17.0236 6.96858C16.6785 6.81759 16.2763 6.97496 16.1253 7.32007L16.0286 7.54124C15.6931 8.30798 14.6156 8.33559 14.2413 7.58704C13.9285 6.9613 13.0355 6.9613 12.7226 7.58704L12.6909 7.65042C12.3218 8.38862 11.2613 8.36795 10.9213 7.61592C10.6237 6.95773 9.72811 6.96698 9.40298 7.56047C8.93866 8.40802 7.72287 8.36105 7.3289 7.52712L7.22262 7.30214C7.06171 6.96154 6.65516 6.81587 6.31456 6.97678C5.97396 7.13768 5.82829 7.54423 5.9892 7.88483L6.09549 8.10981C6.86446 9.73754 8.94149 9.96518 10.1214 8.84029C11.0228 9.78754 12.5849 9.79924 13.4974 8.84986C14.6119 9.92512 16.5938 9.65268 17.2783 8.08801L17.3751 7.86684ZM17.3751 11.3532C17.5261 11.0081 17.3687 10.6059 17.0236 10.4549C16.6785 10.3039 16.2763 10.4613 16.1253 10.8064L16.0286 11.0276C15.6931 11.7943 14.6156 11.8219 14.2413 11.0734C13.9285 10.4476 13.0355 10.4476 12.7226 11.0734L12.6909 11.1367C12.3218 11.875 11.2613 11.8543 10.9213 11.1022C10.6237 10.4441 9.72811 10.4533 9.40298 11.0468C8.93866 11.8943 7.72287 11.8474 7.3289 11.0134L7.22262 10.7885C7.06171 10.4479 6.65516 10.3022 6.31456 10.4631C5.97396 10.624 5.82829 11.0306 5.9892 11.3712L6.09549 11.5961C6.86446 13.2239 8.94149 13.4515 10.1214 12.3266C11.0228 13.2739 12.5849 13.2856 13.4974 12.3362C14.6119 13.4114 16.5938 13.139 17.2783 11.5743L17.3751 11.3532ZM17.0236 13.9407C17.3687 14.0917 17.5261 14.4939 17.3751 14.839L17.2783 15.0602C16.5938 16.6248 14.6119 16.8973 13.4974 15.822C12.5849 16.7714 11.0228 16.7597 10.1214 15.8125C8.94149 16.9374 6.86446 16.7097 6.09549 15.082L5.9892 14.857C5.82829 14.5164 5.97396 14.1098 6.31456 13.9489C6.65516 13.788 7.06171 13.9337 7.22262 14.2743L7.3289 14.4993C7.72287 15.3332 8.93866 15.3802 9.40298 14.5326C9.72811 13.9392 10.6237 13.9299 10.9213 14.5881C11.2613 15.3401 12.3218 15.3608 12.6909 14.6226L12.7226 14.5592C13.0355 13.9335 13.9285 13.9335 14.2413 14.5592C14.6156 15.3078 15.6931 15.2801 16.0286 14.5134L16.1253 14.2922C16.2763 13.9471 16.6785 13.7898 17.0236 13.9407Z" fill="#252323"/>
</g>
<defs>
<clipPath id="clip0_1054_12166">
<rect width="23" height="23" fill="white"/>
</clipPath>
</defs>
</svg>
