<svg width="23" height="23" viewBox="0 0 23 23" fill="none" xmlns="http://www.w3.org/2000/svg">
<g clip-path="url(#clip0_1051_11590)">
<path d="M5.02661 17.936C5.26772 17.652 5.69354 17.617 5.97778 17.8579C7.44722 19.1035 9.34773 19.854 11.425 19.854C12.439 19.854 13.4102 19.6753 14.3088 19.3481C14.659 19.2209 15.0455 19.4014 15.1731 19.7515C15.3006 20.1018 15.1201 20.4892 14.7698 20.6167C13.7254 20.9969 12.5987 21.2046 11.425 21.2046C9.01628 21.2046 6.80886 20.3326 5.10474 18.8882C4.82036 18.6471 4.78556 18.2204 5.02661 17.936ZM14.2659 2.74658C14.4079 2.40189 14.803 2.23739 15.1477 2.37939C16.59 2.97362 17.8586 3.90202 18.8567 5.06787C20.3199 6.77698 21.2043 8.99907 21.2043 11.4253C21.2042 14.4168 19.8593 17.0955 17.7444 18.8882C17.46 19.1289 17.0342 19.0933 16.7932 18.8091C16.5524 18.5248 16.5872 18.0989 16.8713 17.8579C18.6966 16.3108 19.8537 14.0035 19.8538 11.4253C19.8538 9.33303 19.092 7.41956 17.8303 5.9458C16.9689 4.93977 15.8751 4.13911 14.6331 3.62744C14.2886 3.48539 14.124 3.09116 14.2659 2.74658ZM11.425 1.646C11.7977 1.64617 12.0999 1.94812 12.0999 2.3208C12.0999 2.69348 11.7977 2.99543 11.425 2.99561C6.76975 2.99561 2.99536 6.76999 2.99536 11.4253C2.99543 13.2447 3.57177 14.9273 4.55103 16.3042C4.76707 16.6079 4.69553 17.0295 4.39185 17.2456C4.08812 17.4616 3.66655 17.391 3.45044 17.0874C2.31396 15.4895 1.64582 13.5343 1.64575 11.4253C1.64575 6.02441 6.02416 1.646 11.425 1.646ZM16.2161 15.063C16.5889 15.063 16.8918 15.365 16.8918 15.7378C16.8917 16.1104 16.5887 16.4126 16.2161 16.4126H6.63306C6.26037 16.4126 5.95843 16.1104 5.95825 15.7378C5.95825 15.365 6.26026 15.063 6.63306 15.063H16.2161ZM16.2161 12.188C16.5889 12.188 16.8918 12.49 16.8918 12.8628C16.8917 13.2354 16.5887 13.5376 16.2161 13.5376H6.63306C6.26037 13.5376 5.95843 13.2354 5.95825 12.8628C5.95825 12.49 6.26026 12.188 6.63306 12.188H16.2161ZM16.2161 9.31299C16.5889 9.31299 16.8918 9.615 16.8918 9.98779C16.8917 10.3604 16.5887 10.6626 16.2161 10.6626H6.63306C6.26037 10.6626 5.95843 10.3604 5.95825 9.98779C5.95825 9.615 6.26026 9.31299 6.63306 9.31299H16.2161ZM16.2161 6.43799C16.5889 6.43799 16.8918 6.74 16.8918 7.11279C16.8917 7.48544 16.5887 7.7876 16.2161 7.7876H6.63306C6.26037 7.7876 5.95843 7.48544 5.95825 7.11279C5.95825 6.74 6.26026 6.43799 6.63306 6.43799H16.2161Z" fill="#332A2A"/>
</g>
<defs>
<clipPath id="clip0_1051_11590">
<rect width="23" height="23" fill="white"/>
</clipPath>
</defs>
</svg>
