<svg width="44" height="44" viewBox="0 0 44 44" fill="none" xmlns="http://www.w3.org/2000/svg">
<g clip-path="url(#clip0_1054_12196)">
<path d="M10.1721 34.8071C10.4399 34.4912 10.9138 34.4515 11.2297 34.7192C14.1349 37.1818 17.8933 38.6665 22.0002 38.6665C24.0041 38.6665 25.9238 38.3136 27.7014 37.6665C28.0906 37.5248 28.5216 37.7255 28.6633 38.1147C28.8047 38.5038 28.604 38.9339 28.2151 39.0757C26.2753 39.7819 24.1817 40.1665 22.0002 40.1665C17.525 40.1665 13.426 38.5473 10.26 35.8638C9.94413 35.596 9.90454 35.1231 10.1721 34.8071ZM27.9358 5.604C28.0935 5.2211 28.5324 5.03821 28.9153 5.1958C31.5944 6.29951 33.9512 8.02546 35.8059 10.1919C38.5241 13.3671 40.1663 17.4931 40.1663 22.0005C40.1662 27.5577 37.6702 32.5327 33.7405 35.8638C33.4245 36.1316 32.9507 36.0928 32.6829 35.7769C32.4152 35.4609 32.4548 34.987 32.7708 34.7192C36.3785 31.661 38.6662 27.0983 38.6663 22.0005C38.6663 17.8641 37.1606 14.0812 34.6663 11.1675C32.9634 9.17848 30.8006 7.59556 28.344 6.5835C27.961 6.42573 27.7781 5.98697 27.9358 5.604ZM22.0002 3.8335C22.4143 3.83367 22.7502 4.16939 22.7502 4.5835C22.7502 4.9976 22.4143 5.33332 22.0002 5.3335C12.7955 5.3335 5.33325 12.7957 5.33325 22.0005C5.33332 25.5974 6.47193 28.9262 8.40845 31.6489C8.64845 31.9865 8.56921 32.4548 8.23169 32.6948C7.89416 32.9347 7.42581 32.8555 7.18579 32.5181C5.07473 29.5498 3.83332 25.919 3.83325 22.0005C3.83325 11.9673 11.9671 3.8335 22.0002 3.8335ZM29.6604 26.6558C29.8265 26.2766 30.2693 26.1032 30.6487 26.269C31.028 26.435 31.2012 26.8779 31.0354 27.2573L30.8674 27.6401C29.7389 30.2197 26.3355 30.5323 24.6956 28.4751C23.2563 30.4228 20.2901 30.3988 18.8743 28.4614C17.1089 30.6001 13.5384 30.354 12.2688 27.6665L12.0852 27.2769C11.9085 26.9024 12.0683 26.4557 12.4426 26.2788C12.817 26.1021 13.2636 26.2621 13.4407 26.6362L13.6252 27.0259C14.465 28.8035 17.0226 28.8736 17.9905 27.1069C18.3649 26.4239 19.3527 26.3747 19.7737 27.0327L19.8499 27.1733L19.9231 27.3218C20.7312 28.8102 22.9198 28.8038 23.6975 27.2485L23.7532 27.1392L23.8323 27.0044C24.2402 26.4178 25.1245 26.4178 25.5325 27.0044L25.6125 27.1392L25.6926 27.2866C26.5696 28.759 28.7878 28.6523 29.4934 27.0396L29.6604 26.6558ZM29.6604 20.6128C29.8265 20.2336 30.2694 20.0602 30.6487 20.2261C31.028 20.3921 31.2011 20.835 31.0354 21.2144L30.8674 21.5972C29.7389 24.1768 26.3355 24.4893 24.6956 22.4321C23.2563 24.3798 20.2901 24.3558 18.8743 22.4185C17.1089 24.5571 13.5384 24.3111 12.2688 21.6235L12.0852 21.2339C11.9086 20.8595 12.0683 20.4127 12.4426 20.2358C12.8169 20.0591 13.2636 20.2192 13.4407 20.5933L13.6252 20.9829C14.465 22.7605 17.0226 22.8307 17.9905 21.064C18.3649 20.381 19.3527 20.3318 19.7737 20.9897L19.8499 21.1304L19.9231 21.2788C20.7312 22.7672 22.9198 22.7608 23.6975 21.2056L23.7532 21.0962L23.8323 20.9614C24.2402 20.3749 25.1245 20.3749 25.5325 20.9614L25.6125 21.0962L25.6926 21.2437C26.5696 22.716 28.7878 22.6093 29.4934 20.9966L29.6604 20.6128ZM29.6604 14.5708C29.8264 14.1913 30.2692 14.0181 30.6487 14.1841C31.028 14.3502 31.2014 14.793 31.0354 15.1724L30.8674 15.5552C29.7387 18.1343 26.3355 18.4469 24.6956 16.3901C23.2564 18.3374 20.2902 18.3134 18.8743 16.3765C17.1089 18.5147 13.5386 18.2686 12.2688 15.5815L12.0852 15.1919C11.9083 14.8175 12.0683 14.3709 12.4426 14.1938C12.8171 14.0169 13.2637 14.1769 13.4407 14.5513L13.6252 14.9409C14.4652 16.718 17.0225 16.7882 17.9905 15.022C18.3648 14.3386 19.3527 14.2894 19.7737 14.9478L19.8499 15.0884L19.9231 15.2368C20.7313 16.7247 22.9197 16.7183 23.6975 15.1636L23.7532 15.0542L23.8323 14.9194C24.2402 14.3325 25.1245 14.3325 25.5325 14.9194L25.6125 15.0542L25.6926 15.2017C26.5696 16.6735 28.7877 16.5668 29.4934 14.9546L29.6604 14.5708Z" fill="#332A2A"/>
</g>
<defs>
<clipPath id="clip0_1054_12196">
<rect width="44" height="44" fill="white"/>
</clipPath>
</defs>
</svg>
