<svg width="18" height="18" viewBox="0 0 18 18" fill="none" xmlns="http://www.w3.org/2000/svg">
<g clip-path="url(#clip0_1054_12199)">
<path d="M3.79395 13.9082C4.01717 13.6451 4.41156 13.6128 4.6748 13.8359C5.80795 14.7964 7.27311 15.375 8.875 15.375C9.65719 15.375 10.4057 15.2366 11.0986 14.9844C11.4229 14.8664 11.7813 15.0341 11.8994 15.3584C12.0175 15.6827 11.8506 16.041 11.5264 16.1592C10.6984 16.4606 9.80514 16.625 8.875 16.625C6.96605 16.625 5.21671 15.9338 3.86621 14.7891C3.60308 14.5658 3.57081 14.1714 3.79395 13.9082ZM11.0098 2.0459C11.1414 1.72716 11.5063 1.57479 11.8252 1.70605C12.9683 2.17699 13.9737 2.91307 14.7646 3.83691C15.9242 5.19134 16.625 6.95229 16.625 8.875C16.625 11.2458 15.5596 13.3684 13.8838 14.7891C13.6205 15.0122 13.2262 14.9799 13.0029 14.7168C12.7798 14.4536 12.8121 14.0592 13.0752 13.8359C14.4829 12.6427 15.375 10.8632 15.375 8.875C15.375 7.26151 14.7874 5.78691 13.8145 4.65039C13.1501 3.8744 12.3064 3.25687 11.3486 2.8623C11.0297 2.73068 10.8783 2.36492 11.0098 2.0459ZM8.875 1.125C9.22018 1.125 9.5 1.40482 9.5 1.75C9.5 2.09518 9.22018 2.375 8.875 2.375C5.28515 2.375 2.375 5.28515 2.375 8.875C2.375 10.2783 2.81903 11.5759 3.57422 12.6377C3.77428 12.919 3.70804 13.3097 3.42676 13.5098C3.14554 13.7094 2.75565 13.6434 2.55566 13.3623C1.65494 12.0959 1.125 10.5464 1.125 8.875C1.125 4.59479 4.59479 1.125 8.875 1.125ZM11.8799 10.8535C12.0184 10.5375 12.387 10.3939 12.7031 10.5322C13.019 10.6707 13.1637 11.0394 13.0254 11.3555L12.9561 11.5127C12.4466 12.6766 11.0087 12.9139 10.1338 12.1885C9.45193 12.7997 8.38905 12.7921 7.71387 12.1816C6.79486 12.9435 5.29031 12.7412 4.71875 11.5322L4.64258 11.3711C4.49547 11.0591 4.62945 10.6864 4.94141 10.5391C5.25342 10.392 5.62606 10.5259 5.77344 10.8379L5.84863 10.998C6.08017 11.4872 6.80533 11.5246 7.08496 11.0146L7.14355 10.9229C7.44381 10.5247 8.07788 10.5207 8.36035 10.9619L8.41504 11.0635L8.45703 11.1396C8.68542 11.494 9.23211 11.4801 9.43066 11.084L9.45312 11.0381L9.50977 10.9414C9.8019 10.5216 10.4354 10.5216 10.7275 10.9414L10.7842 11.0381L10.8291 11.1133C11.075 11.4639 11.6298 11.4243 11.8105 11.0117L11.8799 10.8535ZM11.8799 8.36426C12.0184 8.04826 12.387 7.90466 12.7031 8.04297C13.019 8.18149 13.1637 8.55014 13.0254 8.86621L12.9561 9.02344C12.4466 10.1874 11.0087 10.4246 10.1338 9.69922C9.45193 10.3105 8.38905 10.3029 7.71387 9.69238C6.79486 10.4542 5.29031 10.2519 4.71875 9.04297L4.64258 8.88184C4.49547 8.56982 4.62945 8.19718 4.94141 8.0498C5.25342 7.9027 5.62606 8.03668 5.77344 8.34863L5.84863 8.50879C6.08017 8.9979 6.80533 9.03533 7.08496 8.52539L7.14355 8.43359C7.44381 8.03543 8.07788 8.03143 8.36035 8.47266L8.41504 8.57422L8.45703 8.65039C8.68542 9.00472 9.23211 8.99085 9.43066 8.59473L9.45312 8.54883L9.50977 8.45215C9.8019 8.03234 10.4354 8.03231 10.7275 8.45215L10.7842 8.54883L10.8291 8.62402C11.075 8.97467 11.6298 8.93501 11.8105 8.52246L11.8799 8.36426ZM11.8799 5.87402C12.0184 5.55808 12.387 5.41444 12.7031 5.55273C13.0191 5.69118 13.1636 6.05987 13.0254 6.37598L12.9561 6.5332C12.4467 7.6975 11.0088 7.93471 10.1338 7.20898C9.45185 7.82039 8.38908 7.81291 7.71387 7.20215C6.79477 7.96418 5.29019 7.76211 4.71875 6.55273L4.64258 6.3916C4.49547 6.07959 4.62945 5.70695 4.94141 5.55957C5.25338 5.4126 5.62609 5.54651 5.77344 5.8584L5.84863 6.01855C6.08001 6.50813 6.80537 6.54552 7.08496 6.03516L7.14355 5.94336C7.44385 5.54531 8.07791 5.54124 8.36035 5.98242L8.41504 6.08398L8.45703 6.16016C8.68534 6.51493 9.23217 6.50103 9.43066 6.10449L9.45312 6.05859L9.50977 5.96191C9.80194 5.54222 10.4355 5.54211 10.7275 5.96191L10.7842 6.05859L10.8291 6.13379C11.0749 6.48488 11.6299 6.4452 11.8105 6.03223L11.8799 5.87402Z" fill="#332A2A"/>
</g>
<defs>
<clipPath id="clip0_1054_12199">
<rect width="18" height="18" fill="white"/>
</clipPath>
</defs>
</svg>
