<svg width="23" height="23" viewBox="0 0 23 23" fill="none" xmlns="http://www.w3.org/2000/svg">
<g clip-path="url(#clip0_1054_12198)">
<path d="M5.02661 17.936C5.26772 17.652 5.69353 17.617 5.97778 17.8579C7.44722 19.1035 9.34773 19.854 11.425 19.854C12.439 19.854 13.4102 19.6753 14.3088 19.3481C14.659 19.2209 15.0455 19.4014 15.1731 19.7515C15.3006 20.1018 15.1201 20.4892 14.7698 20.6167C13.7254 20.9969 12.5987 21.2046 11.425 21.2046C9.01628 21.2046 6.80886 20.3326 5.10474 18.8882C4.82036 18.6471 4.78556 18.2204 5.02661 17.936ZM14.2659 2.74658C14.4079 2.40189 14.803 2.23739 15.1477 2.37939C16.59 2.97362 17.8586 3.90202 18.8567 5.06787C20.3199 6.77698 21.2043 8.99907 21.2043 11.4253C21.2042 14.4168 19.8593 17.0955 17.7444 18.8882C17.46 19.1289 17.0342 19.0933 16.7932 18.8091C16.5524 18.5248 16.5872 18.0989 16.8713 17.8579C18.6966 16.3108 19.8537 14.0035 19.8538 11.4253C19.8538 9.33303 19.092 7.41956 17.8303 5.9458C16.9689 4.93977 15.8751 4.1391 14.6331 3.62744C14.2886 3.48539 14.124 3.09116 14.2659 2.74658ZM11.425 1.646C11.7977 1.64617 12.0999 1.94812 12.0999 2.3208C12.0999 2.69348 11.7977 2.99543 11.425 2.99561C6.76975 2.99561 2.99536 6.76999 2.99536 11.4253C2.99543 13.2447 3.57177 14.9273 4.55103 16.3042C4.76707 16.6079 4.69553 17.0295 4.39185 17.2456C4.08812 17.4616 3.66655 17.391 3.45044 17.0874C2.31396 15.4895 1.64582 13.5343 1.64575 11.4253C1.64575 6.02441 6.02416 1.646 11.425 1.646ZM16.05 14.2173C16.2011 13.8722 16.6034 13.7147 16.9485 13.8657C17.2934 14.0168 17.4509 14.4191 17.3 14.7642L17.2034 14.9849C16.5187 16.5499 14.5364 16.8217 13.4221 15.7456C12.5093 16.6963 10.9477 16.6837 10.0461 15.7349C8.86654 16.8613 6.7891 16.6356 6.01978 15.0073L5.91333 14.7817C5.75279 14.4412 5.89906 14.0353 6.2395 13.8745C6.58008 13.7137 6.98681 13.8591 7.14771 14.1997L7.25317 14.4243C7.64714 15.2582 8.86307 15.3051 9.32739 14.4575L9.39478 14.353C9.73776 13.8979 10.4617 13.8945 10.7834 14.3979L10.8459 14.5132L10.9182 14.646C11.3164 15.2647 12.2695 15.2393 12.6155 14.5474L12.6477 14.4839L12.7122 14.3745C13.0454 13.8951 13.7676 13.8952 14.1008 14.3745L14.1663 14.4839L14.2444 14.6157C14.6724 15.2263 15.6388 15.1574 15.9534 14.439L16.05 14.2173ZM16.05 10.7319C16.2011 10.3869 16.6034 10.2294 16.9485 10.3804C17.2933 10.5315 17.4509 10.9338 17.3 11.2788L17.2034 11.4995C16.5186 13.064 14.5364 13.3359 13.4221 12.2603C12.5093 13.2106 10.9476 13.198 10.0461 12.2495C8.8666 13.3756 6.78919 13.1498 6.01978 11.522L5.91333 11.2964C5.75281 10.9559 5.8992 10.5501 6.2395 10.3892C6.58008 10.2283 6.98681 10.3738 7.14771 10.7144L7.25317 10.939C7.64728 11.7724 8.86299 11.8192 9.32739 10.9722L9.39478 10.8677C9.73776 10.4126 10.4617 10.4091 10.7834 10.9126L10.8459 11.0278L10.9182 11.1606C11.3165 11.7789 12.2694 11.7534 12.6155 11.062L12.6477 10.9985L12.7122 10.8892C13.0454 10.4098 13.7676 10.4098 14.1008 10.8892L14.1663 10.9985L14.2444 11.1304C14.6725 11.7405 15.6387 11.6715 15.9534 10.9536L16.05 10.7319ZM16.05 7.24561C16.2011 6.90056 16.6034 6.74307 16.9485 6.89404C17.2933 7.04515 17.4509 7.44752 17.3 7.79248L17.2034 8.01318C16.5186 9.57771 14.5364 9.84961 13.4221 8.77393C12.5093 9.72426 10.9476 9.71169 10.0461 8.76318C8.8666 9.88925 6.78919 9.66349 6.01978 8.03564L5.91333 7.81006C5.75281 7.46962 5.8992 7.06372 6.2395 6.90283C6.58008 6.74199 6.98681 6.88746 7.14771 7.22803L7.25317 7.45264C7.64728 8.28606 8.86299 8.33287 9.32739 7.48584L9.39478 7.38135C9.73776 6.92625 10.4617 6.92281 10.7834 7.42627L10.8459 7.5415L10.9182 7.67432C11.3165 8.29258 12.2694 8.26706 12.6155 7.57568L12.6477 7.51221L12.7122 7.40283C13.0454 6.92344 13.7676 6.9235 14.1008 7.40283L14.1663 7.51221L14.2444 7.64404C14.6725 8.25412 15.6387 8.18519 15.9534 7.46729L16.05 7.24561Z" fill="#332A2A"/>
</g>
<defs>
<clipPath id="clip0_1054_12198">
<rect width="23" height="23" fill="white"/>
</clipPath>
</defs>
</svg>
