<svg width="23" height="23" viewBox="0 0 23 23" fill="none" xmlns="http://www.w3.org/2000/svg">
<g clip-path="url(#clip0_1051_11546)">
<ellipse cx="11.4999" cy="11.5002" rx="9.10417" ry="9.10417" fill="#E05149"/>
<path fill-rule="evenodd" clip-rule="evenodd" d="M3.07095 11.4999C3.07095 6.84457 6.84481 3.0707 11.5001 3.0707C11.8729 3.0707 12.1751 2.7685 12.1751 2.3957C12.1751 2.02291 11.8729 1.7207 11.5001 1.7207C6.09923 1.7207 1.72095 6.09899 1.72095 11.4999C1.72095 13.609 2.38941 15.564 3.52595 17.1619C3.74201 17.4657 4.16344 17.5368 4.46723 17.3208C4.77102 17.1047 4.84213 16.6833 4.62607 16.3795C3.64671 15.0025 3.07095 13.3194 3.07095 11.4999ZM15.2228 2.4544C14.8781 2.3124 14.4836 2.47671 14.3416 2.8214C14.1996 3.16609 14.3639 3.56063 14.7086 3.70263C15.9508 4.21437 17.0447 5.01489 17.9061 6.02114C19.1679 7.4949 19.9293 9.40761 19.9293 11.4999C19.9293 14.0782 18.7725 16.3857 16.9472 17.9329C16.6628 18.1739 16.6277 18.5999 16.8687 18.8842C17.1098 19.1686 17.5357 19.2037 17.8201 18.9627C19.9351 17.1699 21.2793 14.4915 21.2793 11.4999C21.2793 9.07365 20.3949 6.85229 18.9317 5.14318C17.9335 3.97726 16.6652 3.04863 15.2228 2.4544ZM6.05306 17.9329C5.76868 17.6918 5.34274 17.727 5.10169 18.0113C4.86064 18.2957 4.89576 18.7216 5.18014 18.9627C6.88429 20.4072 9.09126 21.279 11.5001 21.279C12.674 21.279 13.801 21.0719 14.8456 20.6916C15.1959 20.5641 15.3765 20.1767 15.249 19.8264C15.1214 19.4761 14.7341 19.2955 14.3838 19.4231C13.485 19.7503 12.5142 19.929 11.5001 19.929C9.42278 19.929 7.5225 19.1784 6.05306 17.9329ZM6.03345 7.18737C6.03345 6.81458 6.33566 6.51237 6.70845 6.51237H11.7397H16.2918C16.6646 6.51237 16.9668 6.81458 16.9668 7.18737C16.9668 7.56016 16.6646 7.86237 16.2918 7.86237H11.7397H6.70845C6.33566 7.86237 6.03345 7.56016 6.03345 7.18737ZM6.03345 10.0624C6.03345 9.68958 6.33566 9.38737 6.70845 9.38737H11.5001H16.2918C16.6646 9.38737 16.9668 9.68958 16.9668 10.0624C16.9668 10.4352 16.6646 10.7374 16.2918 10.7374H11.5001H6.70845C6.33566 10.7374 6.03345 10.4352 6.03345 10.0624ZM6.70845 12.2624C6.33566 12.2624 6.03345 12.5646 6.03345 12.9374C6.03345 13.3102 6.33566 13.6124 6.70845 13.6124H11.5001H16.2918C16.6646 13.6124 16.9668 13.3102 16.9668 12.9374C16.9668 12.5646 16.6646 12.2624 16.2918 12.2624H11.5001H6.70845ZM6.03345 15.8124C6.03345 15.4396 6.33566 15.1374 6.70845 15.1374H11.5001H16.2918C16.6646 15.1374 16.9668 15.4396 16.9668 15.8124C16.9668 16.1852 16.6646 16.4874 16.2918 16.4874H11.5001H6.70845C6.33566 16.4874 6.03345 16.1852 6.03345 15.8124Z" fill="#252323"/>
</g>
<defs>
<clipPath id="clip0_1051_11546">
<rect width="23" height="23" fill="white"/>
</clipPath>
</defs>
</svg>
