<svg width="18" height="18" viewBox="0 0 18 18" fill="none" xmlns="http://www.w3.org/2000/svg">
<g clip-path="url(#clip0_603_3764)">
<path d="M9.1127 3.34748C10.7632 2.28187 12.3449 2.00875 13.6537 2.43048C15.0655 2.88553 16.0026 4.09991 16.2943 5.60822C16.8782 8.62794 14.9472 12.7935 9.39688 15.6248C9.21853 15.7158 9.00689 15.7158 8.82852 15.6248C6.22363 14.296 4.42467 12.6838 3.30216 11.0301C3.10833 10.7445 3.18264 10.3558 3.46817 10.1619C3.75378 9.9681 4.1425 10.0423 4.33634 10.3279C5.2831 11.7228 6.82095 13.1437 9.11173 14.3611C14.1344 11.6933 15.4994 8.08302 15.0668 5.84552C14.8461 4.70471 14.1752 3.91274 13.2699 3.62091C12.357 3.32683 11.0478 3.49197 9.47501 4.61213C9.25812 4.76648 8.96731 4.76643 8.7504 4.61213C6.93131 3.31651 5.46943 3.29601 4.54239 3.7967C3.60481 4.30335 2.9857 5.4632 3.09512 7.01349C3.11928 7.35767 2.85924 7.65614 2.51505 7.68048C2.17088 7.70464 1.87242 7.44555 1.84805 7.10138C1.71324 5.19138 2.47447 3.49231 3.94864 2.69611C5.3462 1.94134 7.18409 2.10283 9.1127 3.34748Z" fill="#332A2A"/>
</g>
<defs>
<clipPath id="clip0_603_3764">
<rect width="18" height="18" fill="white"/>
</clipPath>
</defs>
</svg>
