<svg width="18" height="18" viewBox="0 0 18 18" fill="none" xmlns="http://www.w3.org/2000/svg">
<g clip-path="url(#clip0_603_3745)">
<path d="M9.11256 4.10285C2.40515 -0.674125 -1.69381 9.55568 9.11255 15.0676C19.919 9.55568 15.82 -0.674125 9.11256 4.10285Z" fill="#E05149"/>
<path d="M9.11221 3.34765C10.7627 2.28205 12.3445 2.00893 13.6532 2.43066C15.065 2.8857 16.0021 4.10009 16.2939 5.60839C16.8778 8.62812 14.9467 12.7937 9.39639 15.625C9.21804 15.716 9.0064 15.7159 8.82804 15.625C6.22315 14.2962 4.42418 12.684 3.30167 11.0303C3.10784 10.7447 3.18215 10.356 3.46768 10.1621C3.75329 9.96827 4.14201 10.0425 4.33585 10.3281C5.28261 11.723 6.82046 13.1439 9.11124 14.3613C14.1339 11.6935 15.4989 8.08319 15.0663 5.8457C14.8456 4.70488 14.1748 3.91291 13.2694 3.62109C12.3566 3.327 11.0473 3.49215 9.47452 4.6123C9.25763 4.76665 8.96683 4.7666 8.74991 4.6123C6.93082 3.31668 5.46895 3.29619 4.5419 3.79687C3.60432 4.30353 2.98521 5.46338 3.09464 7.01367C3.11879 7.35785 2.85875 7.65632 2.51456 7.68066C2.17039 7.70481 1.87193 7.44573 1.84757 7.10156C1.71275 5.19155 2.47399 3.49249 3.94815 2.69629C5.34571 1.94152 7.1836 2.103 9.11221 3.34765Z" fill="#332A2A"/>
</g>
<defs>
<clipPath id="clip0_603_3745">
<rect width="18" height="18" fill="white"/>
</clipPath>
</defs>
</svg>
