<svg width="28" height="28" viewBox="0 0 28 28" fill="none" xmlns="http://www.w3.org/2000/svg">
<g clip-path="url(#clip0_603_3737)">
<path d="M14.1752 6.38221C3.74143 -1.04865 -2.63474 14.8644 14.1752 23.4384C30.9851 14.8644 24.6089 -1.04865 14.1752 6.38221Z" fill="#E05149"/>
<path d="M6.2481 4.39022C8.35722 3.25128 11.1751 3.49428 14.1749 5.4742C16.7484 3.77517 19.1852 3.35277 21.171 3.99276C23.2769 4.67159 24.6868 6.48534 25.128 8.76619C26.0109 13.3319 23.0974 19.7305 14.5157 24.108C14.3017 24.2171 14.048 24.2171 13.834 24.108C9.80915 22.0549 7.04119 19.5697 5.31939 17.0328C5.087 16.6901 5.17694 16.2234 5.51959 15.9908C5.86214 15.7586 6.32799 15.8478 6.5606 16.19C8.07121 18.4158 10.5256 20.6712 14.1739 22.5914C22.1239 18.4084 24.3563 12.677 23.6553 9.05135C23.2994 7.21149 22.2092 5.90352 20.711 5.42049C19.2037 4.93472 17.0938 5.22422 14.6104 6.99276C14.35 7.17821 14.0007 7.17817 13.7403 6.99276C10.8682 4.94721 8.50223 4.87748 6.96099 5.70955C5.40688 6.54894 4.41724 8.44973 4.59185 10.9254C4.62086 11.3384 4.30958 11.6969 3.89654 11.7262C3.48348 11.7552 3.12498 11.4439 3.09576 11.0308C2.8907 8.12381 4.05041 5.5772 6.2481 4.39022Z" fill="#332A2A"/>
</g>
<defs>
<clipPath id="clip0_603_3737">
<rect width="28" height="28" fill="white"/>
</clipPath>
</defs>
</svg>
