<svg width="23" height="23" viewBox="0 0 23 23" fill="none" xmlns="http://www.w3.org/2000/svg">
<g clip-path="url(#clip0_603_3741)">
<path d="M11.6439 5.24253C3.07329 -0.861386 -2.16428 12.21 11.6439 19.253C25.452 12.21 20.2145 -0.861386 11.6439 5.24253Z" fill="#E05149"/>
<path d="M11.6426 4.42581C13.7551 3.04087 15.7633 2.69354 17.4082 3.22366C19.1621 3.78896 20.3325 5.29847 20.6982 7.18948C21.4303 10.9748 19.0135 16.2526 11.9502 19.8555C11.7576 19.9536 11.5294 19.9536 11.3369 19.8555C8.0233 18.1653 5.74206 16.1169 4.32126 14.0235C4.11208 13.7151 4.19171 13.2953 4.49997 13.086C4.80842 12.8767 5.22911 12.9572 5.43845 13.2657C6.66936 15.0792 8.6688 16.9198 11.6435 18.4903C18.137 15.063 19.9412 10.3859 19.373 7.44632C19.084 5.95212 18.201 4.89788 16.9941 4.50882C15.7791 4.11722 14.0655 4.346 12.0351 5.79202C11.8008 5.95895 11.4863 5.95895 11.2519 5.79202C8.90381 4.11968 6.98479 4.07268 5.74509 4.74222C4.49402 5.4182 3.68877 6.95333 3.83103 8.96976C3.85727 9.34155 3.57681 9.6641 3.20505 9.69046C2.83335 9.7167 2.51084 9.43709 2.48435 9.06546C2.31462 6.66057 3.27304 4.54251 5.10349 3.55374C6.85324 2.60872 9.17866 2.81155 11.6426 4.42581Z" fill="#332A2A"/>
</g>
<defs>
<clipPath id="clip0_603_3741">
<rect width="23" height="23" fill="white"/>
</clipPath>
</defs>
</svg>
