<svg width="44" height="44" viewBox="0 0 44 44" fill="none" xmlns="http://www.w3.org/2000/svg">
<g clip-path="url(#clip0_603_3761)">
<path d="M22.2749 9.11508C26.3337 6.36119 30.1168 5.70965 33.1362 6.68246C36.2721 7.69314 38.3969 10.398 39.0659 13.8563C40.4043 20.7771 36.0005 30.6744 22.6157 37.5018C22.4018 37.6108 22.148 37.6108 21.934 37.5018C15.6627 34.3028 11.373 30.4415 8.71432 26.5243C8.48211 26.1816 8.5711 25.7148 8.91354 25.4823C9.25608 25.2498 9.7228 25.3393 9.95553 25.6815C12.4028 29.2873 16.3782 32.9199 22.2739 35.9872C35.0299 29.3521 38.7495 20.1206 37.5932 14.1414C37.0096 11.1239 35.2046 8.92408 32.6762 8.10922C30.1389 7.29184 26.6833 7.80922 22.7094 10.6395C22.4491 10.8248 22.0997 10.8249 21.8393 10.6395C17.2432 7.3663 13.3469 7.18422 10.7339 8.59555C8.10817 10.0141 6.50537 13.1848 6.78854 17.1981C6.81763 17.6112 6.5063 17.9696 6.09323 17.9989C5.68023 18.0278 5.3216 17.7166 5.29245 17.3036C4.97883 12.8587 6.75162 9.04136 10.021 7.27524C13.2059 5.55505 17.5568 5.9144 22.2749 9.11508Z" fill="#332A2A"/>
</g>
<defs>
<clipPath id="clip0_603_3761">
<rect width="44" height="44" fill="white"/>
</clipPath>
</defs>
</svg>
