<svg width="44" height="44" viewBox="0 0 44 44" fill="none" xmlns="http://www.w3.org/2000/svg">
<g clip-path="url(#clip0_189_274)">
<path d="M22.2753 10.0292C5.87942 -1.64787 -4.14027 23.3583 22.2753 36.8319C48.6909 23.3583 38.6712 -1.64787 22.2753 10.0292Z" fill="#E05149"/>
<path d="M22.2758 9.11509C26.3348 6.36119 30.1178 5.70946 33.1372 6.68247C36.2731 7.69315 38.3978 10.398 39.0669 13.8563C40.4053 20.7771 36.0013 30.6744 22.6167 37.5018C22.4027 37.6109 22.149 37.6109 21.935 37.5018C15.6635 34.3028 11.374 30.4416 8.7153 26.5243C8.48289 26.1816 8.57187 25.7148 8.91452 25.4823C9.25709 25.25 9.72387 25.3392 9.95651 25.6815C12.4038 29.2874 16.379 32.9199 22.2749 35.9872C35.0308 29.3521 38.7505 20.1205 37.5942 14.1415C37.0105 11.1239 35.2055 8.92409 32.6772 8.10923C30.1399 7.29165 26.6844 7.80919 22.7104 10.6395C22.45 10.8249 22.1007 10.825 21.8403 10.6395C17.2441 7.36618 13.348 7.18431 10.7348 8.59556C8.10901 10.0141 6.50636 13.1847 6.78952 17.1981C6.81861 17.6112 6.50724 17.9696 6.09421 17.9989C5.68102 18.028 5.32259 17.7168 5.29342 17.3036C4.97981 12.8587 6.75245 9.0413 10.0219 7.27525C13.2069 5.55514 17.5578 5.91427 22.2758 9.11509Z" fill="#332A2A"/>
</g>
<defs>
<clipPath id="clip0_189_274">
<rect width="44" height="44" fill="white"/>
</clipPath>
</defs>
</svg>
