<svg width="44" height="44" viewBox="0 0 44 44" fill="none" xmlns="http://www.w3.org/2000/svg">
<g clip-path="url(#clip0_1051_11671)">
<path d="M10.1721 34.8071C10.4399 34.4912 10.9138 34.4515 11.2297 34.7192C14.1349 37.1818 17.8933 38.6665 22.0002 38.6665C24.0041 38.6665 25.9238 38.3136 27.7014 37.6665C28.0906 37.5248 28.5216 37.7255 28.6633 38.1147C28.8047 38.5038 28.604 38.9339 28.2151 39.0757C26.2753 39.7819 24.1817 40.1665 22.0002 40.1665C17.525 40.1665 13.426 38.5473 10.26 35.8638C9.94413 35.596 9.90454 35.1231 10.1721 34.8071ZM27.9358 5.604C28.0935 5.2211 28.5324 5.03821 28.9153 5.1958C31.5944 6.29951 33.9512 8.02546 35.8059 10.1919C38.5241 13.3671 40.1663 17.4931 40.1663 22.0005C40.1662 27.5577 37.6702 32.5327 33.7405 35.8638C33.4245 36.1316 32.9507 36.0928 32.6829 35.7769C32.4152 35.4609 32.4548 34.987 32.7708 34.7192C36.3785 31.661 38.6662 27.0983 38.6663 22.0005C38.6663 17.8641 37.1606 14.0812 34.6663 11.1675C32.9634 9.17848 30.8006 7.59556 28.344 6.5835C27.961 6.42573 27.7781 5.98697 27.9358 5.604ZM22.0002 3.8335C22.4143 3.83367 22.7502 4.16939 22.7502 4.5835C22.7502 4.9976 22.4143 5.33332 22.0002 5.3335C12.7955 5.3335 5.33325 12.7957 5.33325 22.0005C5.33332 25.5974 6.47193 28.9262 8.40845 31.6489C8.64845 31.9865 8.56921 32.4548 8.23169 32.6948C7.89416 32.9347 7.42581 32.8555 7.18579 32.5181C5.07473 29.5498 3.83332 25.919 3.83325 22.0005C3.83325 11.9673 11.9671 3.8335 22.0002 3.8335ZM31.1663 28.5835C31.5805 28.5835 31.9163 28.9193 31.9163 29.3335C31.9163 29.7477 31.5805 30.0835 31.1663 30.0835H12.8333C12.419 30.0835 12.0833 29.7477 12.0833 29.3335C12.0833 28.9193 12.419 28.5835 12.8333 28.5835H31.1663ZM31.1663 21.2505C31.5805 21.2505 31.9163 21.5863 31.9163 22.0005C31.9161 22.4146 31.5804 22.7505 31.1663 22.7505H12.8333C12.4191 22.7505 12.0834 22.4146 12.0833 22.0005C12.0833 21.5863 12.419 21.2505 12.8333 21.2505H31.1663ZM31.1663 13.9165C31.5804 13.9165 31.9161 14.2524 31.9163 14.6665C31.9163 15.0807 31.5805 15.4165 31.1663 15.4165H12.8333C12.419 15.4165 12.0833 15.0807 12.0833 14.6665C12.0834 14.2524 12.4191 13.9165 12.8333 13.9165H31.1663Z" fill="#332A2A"/>
</g>
<defs>
<clipPath id="clip0_1051_11671">
<rect width="44" height="44" fill="white"/>
</clipPath>
</defs>
</svg>
