<svg width="28" height="28" viewBox="0 0 28 28" fill="none" xmlns="http://www.w3.org/2000/svg">
<g clip-path="url(#clip0_1051_11732)">
<circle cx="14.0001" cy="13.9998" r="11.0833" fill="#E05149"/>
<path fill-rule="evenodd" clip-rule="evenodd" d="M3.66675 13.9998C3.66675 8.29289 8.29314 3.6665 14.0001 3.6665C14.4143 3.6665 14.7501 3.33072 14.7501 2.9165C14.7501 2.50229 14.4143 2.1665 14.0001 2.1665C7.46471 2.1665 2.16675 7.46447 2.16675 13.9998C2.16675 16.5521 2.9756 18.9176 4.35086 20.8512C4.59093 21.1887 5.05919 21.2678 5.39673 21.0277C5.73428 20.7876 5.81329 20.3194 5.57321 19.9818C4.3726 18.2938 3.66675 16.2303 3.66675 13.9998ZM18.5047 3.05429C18.1217 2.89652 17.6834 3.07908 17.5256 3.46207C17.3678 3.84506 17.5504 4.28343 17.9334 4.44121C19.4562 5.06859 20.7972 6.04994 21.8532 7.28343C23.3999 9.09008 24.3334 11.435 24.3334 13.9998C24.3334 17.1606 22.9152 19.9894 20.6777 21.8861C20.3617 22.1539 20.3227 22.6272 20.5905 22.9431C20.8583 23.2591 21.3316 23.2981 21.6476 23.0303C24.2069 20.8608 25.8334 17.6199 25.8334 13.9998C25.8334 11.0639 24.7633 8.37606 22.9927 6.30791C21.7848 4.89702 20.2501 3.77332 18.5047 3.05429ZM7.32249 21.8861C7.00652 21.6182 6.53326 21.6572 6.26542 21.9732C5.99759 22.2892 6.03661 22.7625 6.35258 23.0303C8.41473 24.7783 11.0852 25.8332 14.0001 25.8332C15.4207 25.8332 16.7844 25.5825 18.0483 25.1224C18.4375 24.9807 18.6382 24.5503 18.4965 24.1611C18.3548 23.7718 17.9244 23.5712 17.5352 23.7129C16.4333 24.114 15.2431 24.3332 14.0001 24.3332C11.4535 24.3332 9.12385 23.413 7.32249 21.8861ZM8.16675 8.58317C7.75253 8.58317 7.41675 8.91896 7.41675 9.33317C7.41675 9.74738 7.75253 10.0832 8.16675 10.0832H14.2917H19.8334C20.2476 10.0832 20.5834 9.74738 20.5834 9.33317C20.5834 8.91896 20.2476 8.58317 19.8334 8.58317H14.2917H8.16675ZM7.41675 13.9998C7.41675 13.5856 7.75253 13.2498 8.16675 13.2498H14.0001H19.8334C20.2476 13.2498 20.5834 13.5856 20.5834 13.9998C20.5834 14.4141 20.2476 14.7498 19.8334 14.7498H14.0001H8.16675C7.75253 14.7498 7.41675 14.4141 7.41675 13.9998ZM8.16675 17.9165C7.75253 17.9165 7.41675 18.2523 7.41675 18.6665C7.41675 19.0807 7.75253 19.4165 8.16675 19.4165H14.0001H19.8334C20.2476 19.4165 20.5834 19.0807 20.5834 18.6665C20.5834 18.2523 20.2476 17.9165 19.8334 17.9165H14.0001H8.16675Z" fill="#332A2A"/>
</g>
<defs>
<clipPath id="clip0_1051_11732">
<rect width="28" height="28" fill="white"/>
</clipPath>
</defs>
</svg>
