<svg width="44" height="44" viewBox="0 0 44 44" fill="none" xmlns="http://www.w3.org/2000/svg">
<g clip-path="url(#clip0_1051_11731)">
<circle cx="21.9999" cy="22.0002" r="17.4167" fill="#E05149"/>
<path fill-rule="evenodd" clip-rule="evenodd" d="M5.33325 22.0002C5.33325 12.7954 12.7952 5.3335 21.9999 5.3335C22.4141 5.3335 22.7499 4.99771 22.7499 4.5835C22.7499 4.16928 22.4141 3.8335 21.9999 3.8335C11.9667 3.8335 3.83325 11.967 3.83325 22.0002C3.83325 25.9189 5.07488 29.5498 7.1861 32.5182C7.42618 32.8557 7.89443 32.9347 8.23197 32.6947C8.56952 32.4546 8.64853 31.9863 8.40845 31.6488C6.47188 28.926 5.33325 25.5972 5.33325 22.0002ZM28.9154 5.19629C28.5324 5.03851 28.094 5.22108 27.9362 5.60406C27.7785 5.98705 27.961 6.42543 28.344 6.58321C30.8007 7.59526 32.9633 9.17806 34.6661 11.1671C37.1606 14.0808 38.6666 17.8637 38.6666 22.0002C38.6666 27.0984 36.3784 31.6614 32.7704 34.7197C32.4544 34.9875 32.4154 35.4608 32.6832 35.7768C32.9511 36.0928 33.4243 36.1318 33.7403 35.8639C37.6702 32.5328 40.1666 27.5576 40.1666 22.0002C40.1666 17.4926 38.524 13.3668 35.8056 10.1916C33.9509 8.02514 31.5945 6.3 28.9154 5.19629ZM11.2295 34.7197C10.9135 34.4519 10.4402 34.4909 10.1724 34.8069C9.90454 35.1228 9.94357 35.5961 10.2595 35.8639C13.4255 38.5476 17.5246 40.1668 21.9999 40.1668C24.1815 40.1668 26.2749 39.7819 28.2148 39.0757C28.604 38.934 28.8047 38.5036 28.663 38.1144C28.5213 37.7252 28.0909 37.5245 27.7017 37.6662C25.9239 38.3134 24.004 38.6668 21.9999 38.6668C17.893 38.6668 14.1347 37.1823 11.2295 34.7197ZM12.8333 13.9168C12.419 13.9168 12.0833 14.2526 12.0833 14.6668C12.0833 15.081 12.419 15.4168 12.8333 15.4168H22.4583H31.1666C31.5808 15.4168 31.9166 15.081 31.9166 14.6668C31.9166 14.2526 31.5808 13.9168 31.1666 13.9168H22.4583H12.8333ZM12.0833 22.0002C12.0833 21.5859 12.419 21.2502 12.8333 21.2502H21.9999H31.1666C31.5808 21.2502 31.9166 21.5859 31.9166 22.0002C31.9166 22.4144 31.5808 22.7502 31.1666 22.7502H21.9999H12.8333C12.419 22.7502 12.0833 22.4144 12.0833 22.0002ZM12.8333 28.5835C12.419 28.5835 12.0833 28.9193 12.0833 29.3335C12.0833 29.7477 12.419 30.0835 12.8333 30.0835H21.9999H31.1666C31.5808 30.0835 31.9166 29.7477 31.9166 29.3335C31.9166 28.9193 31.5808 28.5835 31.1666 28.5835H21.9999H12.8333Z" fill="#252323"/>
</g>
<defs>
<clipPath id="clip0_1051_11731">
<rect width="44" height="44" fill="white"/>
</clipPath>
</defs>
</svg>
