<svg width="23" height="23" viewBox="0 0 23 23" fill="none" xmlns="http://www.w3.org/2000/svg">
<g clip-path="url(#clip0_1051_11734)">
<circle cx="11.4999" cy="11.5002" r="9.10417" fill="#E05149"/>
<path fill-rule="evenodd" clip-rule="evenodd" d="M3.02075 11.5002C3.02075 6.81725 6.817 3.021 11.4999 3.021C11.8451 3.021 12.1249 2.74117 12.1249 2.396C12.1249 2.05082 11.8451 1.771 11.4999 1.771C6.12665 1.771 1.77075 6.12689 1.77075 11.5002C1.77075 13.5985 2.43578 15.5435 3.5665 17.1332C3.76656 17.4145 4.15677 17.4804 4.43806 17.2803C4.71934 17.0802 4.78519 16.69 4.58512 16.4087C3.59995 15.0236 3.02075 13.3305 3.02075 11.5002ZM15.2036 2.50093C14.8844 2.36944 14.5191 2.52158 14.3876 2.84074C14.2561 3.1599 14.4083 3.52521 14.7274 3.65669C15.977 4.17149 17.0774 4.97675 17.9439 5.98892C19.2131 7.4714 19.9791 9.39553 19.9791 11.5002C19.9791 14.0938 18.8153 16.415 16.9793 17.9713C16.716 18.1945 16.6835 18.5889 16.9067 18.8522C17.1299 19.1155 17.5243 19.148 17.7876 18.9248C19.8918 17.1412 21.2291 14.4765 21.2291 11.5002C21.2291 9.08631 20.3492 6.87638 18.8935 5.17599C17.9004 4.01598 16.6386 3.0921 15.2036 2.50093ZM6.02053 17.9713C5.75722 17.7481 5.36283 17.7806 5.13964 18.0439C4.91644 18.3073 4.94896 18.7016 5.21227 18.9248C6.90773 20.362 9.10334 21.2293 11.4999 21.2293C12.6679 21.2293 13.7891 21.0232 14.8283 20.6449C15.1527 20.5268 15.3199 20.1682 15.2018 19.8438C15.0837 19.5195 14.7251 19.3523 14.4007 19.4703C13.4965 19.7995 12.5199 19.9793 11.4999 19.9793C9.41031 19.9793 7.49866 19.2243 6.02053 17.9713ZM6.70825 7.04183C6.36307 7.04183 6.08325 7.32165 6.08325 7.66683C6.08325 8.01201 6.36307 8.29183 6.70825 8.29183H11.7395H16.2916C16.6368 8.29183 16.9166 8.01201 16.9166 7.66683C16.9166 7.32165 16.6368 7.04183 16.2916 7.04183H11.7395H6.70825ZM6.08325 11.5002C6.08325 11.155 6.36307 10.8752 6.70825 10.8752H11.4999H16.2916C16.6368 10.8752 16.9166 11.155 16.9166 11.5002C16.9166 11.8453 16.6368 12.1252 16.2916 12.1252H11.4999H6.70825C6.36307 12.1252 6.08325 11.8453 6.08325 11.5002ZM6.70825 14.7085C6.36307 14.7085 6.08325 14.9883 6.08325 15.3335C6.08325 15.6787 6.36307 15.9585 6.70825 15.9585H11.4999H16.2916C16.6368 15.9585 16.9166 15.6787 16.9166 15.3335C16.9166 14.9883 16.6368 14.7085 16.2916 14.7085H11.4999H6.70825Z" fill="#252323"/>
</g>
<defs>
<clipPath id="clip0_1051_11734">
<rect width="23" height="23" fill="white"/>
</clipPath>
</defs>
</svg>
