<svg width="23" height="23" viewBox="0 0 23 23" fill="none" xmlns="http://www.w3.org/2000/svg">
<g clip-path="url(#clip0_1051_11716)">
<path d="M5.01489 17.9194C5.23809 17.6561 5.63244 17.623 5.89575 17.8462C7.37387 19.0991 9.28566 19.854 11.3752 19.854C12.3951 19.854 13.3716 19.6743 14.2756 19.3452C14.6 19.2271 14.9583 19.3949 15.0764 19.7192C15.1943 20.0435 15.0276 20.402 14.7034 20.52C13.6643 20.8983 12.5431 21.104 11.3752 21.104C8.97874 21.104 6.7826 20.2374 5.08716 18.8003C4.8239 18.5771 4.79184 18.1827 5.01489 17.9194ZM14.2629 2.71533C14.3945 2.3966 14.7594 2.2443 15.0784 2.37549C16.5134 2.96666 17.7757 3.89126 18.7688 5.05127C20.2244 6.75162 21.1038 8.96179 21.1038 11.3755C21.1037 14.3517 19.7665 17.0167 17.6624 18.8003C17.399 19.0232 17.0046 18.9902 16.7815 18.7271C16.5585 18.4637 16.5915 18.0693 16.8547 17.8462C18.6905 16.2899 19.8537 13.9688 19.8538 11.3755C19.8538 9.27086 19.0878 7.34625 17.8186 5.86377C16.9522 4.85181 15.8522 4.0465 14.6028 3.53174C14.2836 3.40026 14.1315 3.03449 14.2629 2.71533ZM11.3752 1.646C11.7203 1.64617 12.0002 1.92593 12.0002 2.271C12.0002 2.61607 11.7203 2.89582 11.3752 2.896C6.69233 2.896 2.89575 6.69257 2.89575 11.3755C2.89582 13.2057 3.47509 14.8986 4.46021 16.2837C4.66027 16.565 4.59403 16.9557 4.31274 17.1558C4.03153 17.3554 3.64164 17.2894 3.44165 17.0083C2.31099 15.4186 1.64582 13.4738 1.64575 11.3755C1.64575 6.00222 6.00197 1.646 11.3752 1.646ZM16.1663 14.5835C16.5114 14.5835 16.7913 14.8633 16.7913 15.2085C16.7913 15.5537 16.5114 15.8335 16.1663 15.8335H6.58325C6.23807 15.8335 5.95825 15.5537 5.95825 15.2085C5.95825 14.8633 6.23807 14.5835 6.58325 14.5835H16.1663ZM16.1663 10.7505C16.5114 10.7505 16.7913 11.0303 16.7913 11.3755C16.7911 11.7205 16.5113 12.0005 16.1663 12.0005H6.58325C6.23818 12.0005 5.95843 11.7205 5.95825 11.3755C5.95825 11.0303 6.23807 10.7505 6.58325 10.7505H16.1663ZM16.1663 6.9165C16.5113 6.9165 16.7911 7.19648 16.7913 7.5415C16.7913 7.88668 16.5114 8.1665 16.1663 8.1665H6.58325C6.23807 8.1665 5.95825 7.88668 5.95825 7.5415C5.95843 7.19648 6.23818 6.9165 6.58325 6.9165H16.1663Z" fill="#332A2A"/>
</g>
<defs>
<clipPath id="clip0_1051_11716">
<rect width="23" height="23" fill="white"/>
</clipPath>
</defs>
</svg>
