<svg width="18" height="18" viewBox="0 0 18 18" fill="none" xmlns="http://www.w3.org/2000/svg">
<g clip-path="url(#clip0_1051_11733)">
<circle cx="9" cy="9" r="7.125" fill="#E05149"/>
<path d="M3.79395 13.9082C4.01717 13.6451 4.41156 13.6128 4.6748 13.8359C5.80795 14.7964 7.27311 15.375 8.875 15.375C9.65719 15.375 10.4057 15.2366 11.0986 14.9844C11.4229 14.8664 11.7813 15.0341 11.8994 15.3584C12.0175 15.6827 11.8506 16.041 11.5264 16.1592C10.6984 16.4606 9.80514 16.625 8.875 16.625C6.96605 16.625 5.21671 15.9338 3.86621 14.7891C3.60308 14.5658 3.57081 14.1714 3.79395 13.9082ZM11.0098 2.0459C11.1414 1.72716 11.5063 1.57479 11.8252 1.70605C12.9683 2.17699 13.9737 2.91307 14.7646 3.83691C15.9242 5.19134 16.625 6.95229 16.625 8.875C16.625 11.2458 15.5596 13.3684 13.8838 14.7891C13.6205 15.0122 13.2262 14.9799 13.0029 14.7168C12.7798 14.4536 12.8121 14.0592 13.0752 13.8359C14.4829 12.6427 15.375 10.8632 15.375 8.875C15.375 7.26151 14.7874 5.78691 13.8145 4.65039C13.1501 3.8744 12.3064 3.25687 11.3486 2.8623C11.0297 2.73068 10.8783 2.36492 11.0098 2.0459ZM8.875 1.125C9.22018 1.125 9.5 1.40482 9.5 1.75C9.5 2.09518 9.22018 2.375 8.875 2.375C5.28515 2.375 2.375 5.28515 2.375 8.875C2.375 10.2783 2.81903 11.5759 3.57422 12.6377C3.77428 12.919 3.70804 13.3097 3.42676 13.5098C3.14554 13.7094 2.75565 13.6434 2.55566 13.3623C1.65494 12.0959 1.125 10.5464 1.125 8.875C1.125 4.59479 4.59479 1.125 8.875 1.125ZM12.625 11.25C12.9702 11.25 13.25 11.5298 13.25 11.875C13.25 12.2202 12.9702 12.5 12.625 12.5H5.125C4.77982 12.5 4.5 12.2202 4.5 11.875C4.5 11.5298 4.77982 11.25 5.125 11.25H12.625ZM12.625 8.25C12.9702 8.25 13.25 8.52982 13.25 8.875C13.25 9.22018 12.9702 9.5 12.625 9.5H5.125C4.77982 9.5 4.5 9.22018 4.5 8.875C4.5 8.52982 4.77982 8.25 5.125 8.25H12.625ZM12.625 5.25C12.9702 5.25 13.25 5.52982 13.25 5.875C13.25 6.22018 12.9702 6.5 12.625 6.5H5.125C4.77982 6.5 4.5 6.22018 4.5 5.875C4.5 5.52982 4.77982 5.25 5.125 5.25H12.625Z" fill="#332A2A"/>
</g>
<defs>
<clipPath id="clip0_1051_11733">
<rect width="18" height="18" fill="white"/>
</clipPath>
</defs>
</svg>
