<svg width="28" height="28" viewBox="0 0 28 28" fill="none" xmlns="http://www.w3.org/2000/svg">
<g clip-path="url(#clip0_666_9763)">
<path fill-rule="evenodd" clip-rule="evenodd" d="M12.9849 3.76856C12.65 3.68485 12.3107 3.88845 12.227 4.22332C12.1433 4.55819 12.3469 4.89752 12.6817 4.98124L13.375 5.15456V6.40101C12.88 6.15914 12.4748 5.76026 12.2257 5.26206C12.0713 4.95333 11.6959 4.82819 11.3871 4.98255C11.0784 5.13692 10.9533 5.51234 11.1076 5.82108C11.5553 6.71634 12.3402 7.39712 13.2898 7.71364L13.375 7.74205V8.91691L13.3027 8.90788C12.5668 8.8159 11.939 8.33135 11.6636 7.64279C11.5354 7.3223 11.1717 7.16641 10.8512 7.29461C10.5307 7.4228 10.3748 7.78653 10.503 8.10702C10.9474 9.21801 11.9603 9.99981 13.1477 10.1482L13.375 10.1766V11.6666C13.375 12.0117 13.6548 12.2916 14 12.2916C14.3452 12.2916 14.625 12.0117 14.625 11.6666V10.1766L14.8523 10.1482C16.0396 9.99981 17.0526 9.21801 17.497 8.10702C17.6251 7.78653 17.4693 7.4228 17.1488 7.29461C16.8283 7.16641 16.4646 7.3223 16.3364 7.64278C16.0609 8.33135 15.4331 8.8159 14.6973 8.90788L14.625 8.91692V7.74205L14.7102 7.71364C15.6598 7.39712 16.4447 6.71634 16.8923 5.82108C17.0467 5.51234 16.9216 5.13692 16.6128 4.98255C16.3041 4.82818 15.9287 4.95333 15.7743 5.26206C15.5252 5.76026 15.1199 6.15914 14.625 6.40101V5.15456L15.3182 4.98124C15.6531 4.89752 15.8567 4.55819 15.773 4.22332C15.6893 3.88845 15.3499 3.68485 15.0151 3.76856L14 4.02234L12.9849 3.76856ZM12.9849 24.1583C12.65 24.242 12.3107 24.0384 12.227 23.7036C12.1433 23.3687 12.3469 23.0294 12.6817 22.9456L13.375 22.7723V21.5259C12.88 21.7678 12.4748 22.1666 12.2257 22.6648C12.0713 22.9736 11.6959 23.0987 11.3871 22.9443C11.0784 22.79 10.9533 22.4145 11.1076 22.1058C11.5553 21.2105 12.3402 20.5298 13.2898 20.2132L13.375 20.1848V19.01L13.3027 19.019C12.5668 19.111 11.939 19.5955 11.6636 20.2841C11.5354 20.6046 11.1717 20.7605 10.8512 20.6323C10.5307 20.5041 10.3748 20.1404 10.503 19.8199C10.9474 18.7089 11.9603 17.9271 13.1477 17.7787L13.375 17.7502V16.3332C13.375 15.9881 13.6548 15.7082 14 15.7082C14.3452 15.7082 14.625 15.9881 14.625 16.3332V17.7502L14.8523 17.7787C16.0396 17.9271 17.0526 18.7089 17.497 19.8199C17.6251 20.1404 17.4693 20.5041 17.1488 20.6323C16.8283 20.7605 16.4646 20.6046 16.3364 20.2841C16.0609 19.5955 15.4331 19.111 14.6973 19.019L14.625 19.01V20.1848L14.7102 20.2132C15.6598 20.5298 16.4447 21.2105 16.8923 22.1058C17.0467 22.4145 16.9216 22.79 16.6128 22.9443C16.3041 23.0987 15.9287 22.9736 15.7743 22.6648C15.5252 22.1666 15.1199 21.7678 14.625 21.5259V22.7723L15.3182 22.9456C15.6531 23.0294 15.8567 23.3687 15.773 23.7036C15.6893 24.0384 15.3499 24.242 15.0151 24.1583L14 23.9046L12.9849 24.1583ZM23.4849 12.2269C23.8198 12.3106 24.0234 12.65 23.9397 12.9848L23.6859 13.9999L23.9397 15.015C24.0234 15.3499 23.8198 15.6892 23.4849 15.7729C23.15 15.8566 22.8107 15.653 22.727 15.3182L22.5537 14.6249H21.3072C21.5491 15.1198 21.948 15.5251 22.4462 15.7742C22.7549 15.9286 22.88 16.304 22.7257 16.6127C22.5713 16.9215 22.1959 17.0466 21.8871 16.8923C20.9919 16.4446 20.3111 15.6597 19.9946 14.7101L19.9662 14.6249H18.7913L18.8003 14.6972C18.8923 15.4331 19.3769 16.0608 20.0654 16.3363C20.3859 16.4645 20.5418 16.8282 20.4136 17.1487C20.2854 17.4692 19.9217 17.6251 19.6012 17.4969C18.4902 17.0525 17.7084 16.0395 17.56 14.8522L17.5316 14.6249H16.3333C15.9881 14.6249 15.7083 14.3451 15.7083 13.9999C15.7083 13.6547 15.9881 13.3749 16.3333 13.3749H17.5316L17.56 13.1476C17.7084 11.9603 18.4902 10.9473 19.6012 10.5029C19.9217 10.3747 20.2854 10.5306 20.4136 10.8511C20.5418 11.1716 20.3859 11.5353 20.0654 11.6635C19.3769 11.939 18.8923 12.5668 18.8003 13.3026L18.7913 13.3749H19.9662L19.9946 13.2897C20.3111 12.3401 20.9919 11.5552 21.8871 11.1076C22.1959 10.9532 22.5713 11.0783 22.7257 11.3871C22.88 11.6958 22.7549 12.0712 22.4462 12.2256C21.948 12.4747 21.5491 12.88 21.3072 13.3749H22.5537L22.727 12.6817C22.8107 12.3468 23.15 12.1432 23.4849 12.2269ZM4.06031 12.9848C3.97659 12.65 4.1802 12.3106 4.51507 12.2269C4.84994 12.1432 5.18927 12.3468 5.27299 12.6817L5.4463 13.3749H6.69275C6.45089 12.88 6.05201 12.4747 5.55381 12.2256C5.24507 12.0712 5.11993 11.6958 5.2743 11.3871C5.42867 11.0783 5.80409 10.9532 6.11283 11.1076C7.00809 11.5552 7.68887 12.3401 8.00539 13.2897L8.03379 13.3749H9.20866L9.19963 13.3026C9.10764 12.5668 8.6231 11.939 7.93453 11.6635C7.61404 11.5353 7.45816 11.1716 7.58635 10.8511C7.71455 10.5306 8.07828 10.3747 8.39877 10.5029C9.50976 10.9473 10.2916 11.9603 10.44 13.1476L10.4684 13.3749H11.6667C12.0118 13.3749 12.2917 13.6547 12.2917 13.9999C12.2917 14.3451 12.0118 14.6249 11.6667 14.6249H10.4684L10.44 14.8522C10.2916 16.0395 9.50976 17.0525 8.39877 17.4969C8.07828 17.6251 7.71455 17.4692 7.58635 17.1487C7.45816 16.8282 7.61404 16.4645 7.93453 16.3363C8.6231 16.0608 9.10764 15.4331 9.19963 14.6972L9.20866 14.6249H8.03379L8.00539 14.7101C7.68887 15.6597 7.00809 16.4446 6.11283 16.8923C5.80409 17.0466 5.42867 16.9215 5.2743 16.6127C5.11993 16.304 5.24507 15.9286 5.55381 15.7742C6.05201 15.5251 6.45089 15.1198 6.69275 14.6249H5.4463L5.27299 15.3182C5.18927 15.653 4.84994 15.8566 4.51507 15.7729C4.1802 15.6892 3.97659 15.3499 4.06031 15.015L4.31408 13.9999L4.06031 12.9848Z" fill="#332A2A"/>
<path fill-rule="evenodd" clip-rule="evenodd" d="M7.99105 7.60636C7.99105 7.37625 7.8045 7.1897 7.57438 7.1897C7.34426 7.1897 7.15771 7.37625 7.15771 7.60636C7.15771 7.83648 7.34426 8.02303 7.57438 8.02303C7.8045 8.02303 7.99105 7.83648 7.99105 7.60636ZM7.57438 5.6897C8.63293 5.6897 9.49105 6.54782 9.49105 7.60636C9.49105 7.87064 9.43756 8.12243 9.34082 8.35149L12.371 11.3817C12.8436 11.087 13.4019 10.9168 13.9999 10.9168C14.6606 10.9168 15.2728 11.1246 15.7746 11.4785L18.8408 8.41232C18.7083 8.16233 18.6333 7.87723 18.6333 7.5746C18.6333 6.58509 19.4354 5.78294 20.4249 5.78294C21.4145 5.78294 22.2166 6.58509 22.2166 7.57461C22.2166 8.56412 21.4145 9.36627 20.4249 9.36627C20.196 9.36627 19.9771 9.32333 19.7758 9.24506L16.6303 12.3906C16.9176 12.8591 17.0832 13.4103 17.0832 14.0001C17.0832 14.6631 16.8739 15.2773 16.5178 15.7801C17.5137 16.7762 18.5098 17.7722 19.5059 18.7681C19.7559 18.6356 20.041 18.5606 20.3436 18.5606C21.3331 18.5606 22.1353 19.3627 22.1353 20.3523C22.1353 21.3418 21.3331 22.1439 20.3436 22.1439C19.3541 22.1439 18.552 21.3418 18.552 20.3523C18.552 20.1233 18.5949 19.9044 18.6732 19.7032C17.65 18.6802 16.6269 17.6571 15.6039 16.6339C15.1366 16.9191 14.5874 17.0834 13.9999 17.0834C13.339 17.0834 12.7267 16.8755 12.2249 16.5216L9.16738 19.5791C9.29985 19.829 9.37488 20.1141 9.37488 20.4168C9.37488 21.4063 8.57272 22.2084 7.58321 22.2084C6.5937 22.2084 5.79155 21.4063 5.79155 20.4168C5.79155 19.4273 6.5937 18.6251 7.58321 18.6251C7.81216 18.6251 8.03108 18.668 8.23235 18.7463L11.3693 15.6094C11.0821 15.1409 10.9165 14.5898 10.9165 14.0001C10.9165 13.3474 11.1193 12.7421 11.4653 12.2438L8.5043 9.28273C8.2289 9.43583 7.91182 9.52303 7.57438 9.52303C6.51584 9.52303 5.65771 8.66491 5.65771 7.60636C5.65771 6.54782 6.51584 5.6897 7.57438 5.6897ZM13.9999 12.4168C13.1254 12.4168 12.4165 13.1257 12.4165 14.0001C12.4165 14.8746 13.1254 15.5834 13.9999 15.5834C14.8743 15.5834 15.5832 14.8746 15.5832 14.0001C15.5832 13.1257 14.8743 12.4168 13.9999 12.4168ZM20.9666 7.57461C20.9666 7.87376 20.7241 8.11627 20.4249 8.11627C20.1258 8.11627 19.8833 7.87376 19.8833 7.57461C19.8833 7.27545 20.1258 7.03294 20.4249 7.03294C20.7241 7.03294 20.9666 7.27545 20.9666 7.57461ZM7.58321 19.8751C7.28406 19.8751 7.04155 20.1176 7.04155 20.4168C7.04155 20.7159 7.28406 20.9584 7.58321 20.9584C7.88237 20.9584 8.12488 20.7159 8.12488 20.4168C8.12488 20.1176 7.88237 19.8751 7.58321 19.8751ZM20.3436 20.8939C20.0445 20.8939 19.802 20.6514 19.802 20.3523C19.802 20.0531 20.0445 19.8106 20.3436 19.8106C20.6428 19.8106 20.8853 20.0531 20.8853 20.3523C20.8853 20.6514 20.6428 20.8939 20.3436 20.8939Z" fill="#332A2A"/>
<path d="M11.5215 3.52304C8.60484 3.52304 8.46899 6.71907 8.46899 6.71907" stroke="#332A2A" stroke-width="1.25" stroke-linecap="round" stroke-linejoin="round"/>
<path d="M6.55348 8.35848C3.63682 8.35848 3.50098 11.5545 3.50098 11.5545" stroke="#332A2A" stroke-width="1.25" stroke-linecap="round" stroke-linejoin="round"/>
<path d="M24.5082 11.5217C24.5082 8.60509 21.3122 8.46924 21.3122 8.46924" stroke="#332A2A" stroke-width="1.25" stroke-linecap="round" stroke-linejoin="round"/>
<path d="M19.6728 6.55348C19.6728 3.63682 16.4767 3.50098 16.4767 3.50098" stroke="#332A2A" stroke-width="1.25" stroke-linecap="round" stroke-linejoin="round"/>
<path d="M3.49984 16.4692C3.49984 19.3859 6.69588 19.5217 6.69588 19.5217" stroke="#332A2A" stroke-width="1.25" stroke-linecap="round" stroke-linejoin="round"/>
<path d="M8.33529 21.4372C8.33529 24.3539 11.5313 24.4897 11.5313 24.4897" stroke="#332A2A" stroke-width="1.25" stroke-linecap="round" stroke-linejoin="round"/>
<path d="M16.3962 24.4352C19.3129 24.4352 19.4487 21.2392 19.4487 21.2392" stroke="#332A2A" stroke-width="1.25" stroke-linecap="round" stroke-linejoin="round"/>
<path d="M21.3642 19.5998C24.2809 19.5998 24.4167 16.4037 24.4167 16.4037" stroke="#332A2A" stroke-width="1.25" stroke-linecap="round" stroke-linejoin="round"/>
</g>
<defs>
<clipPath id="clip0_666_9763">
<rect width="28" height="28" fill="white"/>
</clipPath>
</defs>
</svg>
