<svg width="23" height="23" viewBox="0 0 23 23" fill="none" xmlns="http://www.w3.org/2000/svg">
<g clip-path="url(#clip0_666_9764)">
<path fill-rule="evenodd" clip-rule="evenodd" d="M12.1748 3.83345C12.1748 3.46066 11.8726 3.15845 11.4998 3.15845C11.127 3.15845 10.8248 3.46066 10.8248 3.83345V4.97828C10.5556 4.79596 10.3348 4.54628 10.1869 4.25033C10.0201 3.91689 9.61469 3.78174 9.28125 3.94846C8.94782 4.11518 8.81267 4.52063 8.97938 4.85407C9.35987 5.61503 10.0223 6.19669 10.8248 6.47591V7.13663C10.3321 7.03358 9.91964 6.69058 9.73068 6.21818C9.59223 5.87205 9.1994 5.70369 8.85327 5.84214C8.50714 5.98059 8.33878 6.37342 8.47723 6.71955C8.86412 7.68676 9.74596 8.36739 10.7796 8.4966L10.8248 8.50224V9.58345C10.8248 9.95624 11.127 10.2584 11.4998 10.2584C11.8726 10.2584 12.1748 9.95624 12.1748 9.58345V8.50224L12.2199 8.4966C13.2536 8.36739 14.1355 7.68676 14.5223 6.71955C14.6608 6.37342 14.4924 5.98059 14.1463 5.84214C13.8002 5.70369 13.4074 5.87205 13.2689 6.21818C13.0799 6.69058 12.6675 7.03358 12.1748 7.13663V6.47591C12.9773 6.19669 13.6397 5.61503 14.0202 4.85407C14.1869 4.52063 14.0518 4.11518 13.7183 3.94846C13.3849 3.78174 12.9794 3.91689 12.8127 4.25033C12.6647 4.54628 12.444 4.79596 12.1748 4.97828V3.83345ZM12.1748 19.1069C12.1748 19.4797 11.8726 19.7819 11.4998 19.7819C11.127 19.7819 10.8248 19.4797 10.8248 19.1069V17.9621C10.5556 18.1444 10.3348 18.3941 10.1869 18.69C10.0201 19.0234 9.61469 19.1586 9.28125 18.9919C8.94782 18.8252 8.81267 18.4197 8.97938 18.0863C9.35987 17.3253 10.0223 16.7436 10.8248 16.4644V15.8037C10.3321 15.9068 9.91964 16.2498 9.73068 16.7222C9.59223 17.0683 9.1994 17.2366 8.85327 17.0982C8.50714 16.9597 8.33878 16.5669 8.47723 16.2208C8.86412 15.2536 9.74596 14.5729 10.7796 14.4437L10.8248 14.4381V13.4168C10.8248 13.044 11.127 12.7418 11.4998 12.7418C11.8726 12.7418 12.1748 13.044 12.1748 13.4168V14.4381L12.2199 14.4437C13.2536 14.5729 14.1355 15.2536 14.5223 16.2208C14.6608 16.5669 14.4924 16.9597 14.1463 17.0982C13.8002 17.2366 13.4074 17.0683 13.2689 16.7222C13.0799 16.2498 12.6675 15.9068 12.1748 15.8037V16.4644C12.9773 16.7436 13.6397 17.3253 14.0202 18.0863C14.1869 18.4197 14.0518 18.8252 13.7183 18.9919C13.3849 19.1586 12.9794 19.0234 12.8127 18.69C12.6647 18.3941 12.444 18.1444 12.1748 17.9621V19.1069ZM19.6019 11.5001C19.6019 11.8729 19.2997 12.1751 18.9269 12.1751L17.782 12.1751C17.9644 12.4443 18.214 12.6651 18.51 12.813C18.8434 12.9798 18.9786 13.3852 18.8119 13.7186C18.6451 14.0521 18.2397 14.1872 17.9063 14.0205C17.1453 13.64 16.5636 12.9776 16.2844 12.1751H15.6237C15.7267 12.6678 16.0697 13.0803 16.5421 13.2692C16.8883 13.4077 17.0566 13.8005 16.9182 14.1466C16.7797 14.4928 16.3869 14.6611 16.0408 14.5227C15.0736 14.1358 14.3929 13.2539 14.2637 12.2203L14.2581 12.1751H13.4165C13.0437 12.1751 12.7415 11.8729 12.7415 11.5001C12.7415 11.1273 13.0437 10.8251 13.4165 10.8251L14.2581 10.8251L14.2637 10.78C14.3929 9.74628 15.0736 8.86444 16.0408 8.47756C16.3869 8.33911 16.7797 8.50746 16.9182 8.85359C17.0566 9.19972 16.8883 9.59255 16.5421 9.731C16.0697 9.91996 15.7267 10.3324 15.6237 10.8251H16.2844C16.5636 10.0226 17.1453 9.36019 17.9063 8.97971C18.2397 8.81299 18.6451 8.94814 18.8119 9.28158C18.9786 9.61501 18.8434 10.0205 18.51 10.1872C18.214 10.3352 17.9644 10.5559 17.782 10.8251H18.9269C19.2997 10.8251 19.6019 11.1273 19.6019 11.5001ZM4.07271 12.1751C3.69991 12.1751 3.39771 11.8729 3.39771 11.5001C3.39771 11.1273 3.69991 10.8251 4.07271 10.8251H5.21754C5.03522 10.5559 4.78554 10.3352 4.48959 10.1872C4.15615 10.0205 4.021 9.61501 4.18772 9.28158C4.35443 8.94814 4.75989 8.81299 5.09332 8.97971C5.85429 9.36019 6.43595 10.0226 6.71517 10.8251H7.37589C7.27283 10.3324 6.92983 9.91996 6.45743 9.731C6.1113 9.59255 5.94295 9.19972 6.0814 8.85359C6.21985 8.50746 6.61268 8.33911 6.95881 8.47756C7.92602 8.86444 8.60665 9.74628 8.73586 10.78L8.7415 10.8251L9.58312 10.8251C9.95591 10.8251 10.2581 11.1273 10.2581 11.5001C10.2581 11.8729 9.95591 12.1751 9.58312 12.1751H8.7415L8.73586 12.2203C8.60665 13.2539 7.92602 14.1358 6.95881 14.5227C6.61268 14.6611 6.21985 14.4928 6.0814 14.1466C5.94295 13.8005 6.1113 13.4077 6.45743 13.2692C6.92983 13.0803 7.27283 12.6678 7.37589 12.1751H6.71517C6.43595 12.9776 5.85429 13.64 5.09332 14.0205C4.75989 14.1872 4.35443 14.0521 4.18772 13.7186C4.021 13.3852 4.15615 12.9798 4.48959 12.813C4.78554 12.6651 5.03522 12.4443 5.21754 12.1751L4.07271 12.1751Z" fill="#252323"/>
<path fill-rule="evenodd" clip-rule="evenodd" d="M17.0609 6.22196C17.0609 6.37844 16.934 6.50529 16.7775 6.50529C16.6211 6.50529 16.4942 6.37844 16.4942 6.22196C16.4942 6.06548 16.6211 5.93862 16.7775 5.93862C16.934 5.93862 17.0609 6.06548 17.0609 6.22196ZM16.7775 7.85529C17.6796 7.85529 18.4109 7.12402 18.4109 6.22196C18.4109 5.31989 17.6796 4.58862 16.7775 4.58862C15.8755 4.58862 15.1442 5.31989 15.1442 6.22196C15.1442 6.45489 15.193 6.67644 15.2808 6.87695L12.8626 9.29519C12.4667 9.04995 11.9998 8.90838 11.4998 8.90838C11.0519 8.90838 10.6306 9.02197 10.2631 9.22193L7.78001 6.73886C7.82876 6.58394 7.85505 6.41906 7.85505 6.24804C7.85505 5.34598 7.12378 4.61471 6.22171 4.61471C5.31965 4.61471 4.58838 5.34598 4.58838 6.24804C4.58838 7.15011 5.31965 7.88138 6.22171 7.88138C6.45465 7.88138 6.6762 7.83262 6.87671 7.74474L9.28515 10.1532C9.04594 10.5457 8.90813 11.0068 8.90813 11.5C8.90813 11.941 9.01827 12.3563 9.21254 12.7198L6.71978 15.2126C6.56486 15.1638 6.39998 15.1375 6.22897 15.1375C5.3269 15.1375 4.59563 15.8688 4.59563 16.7709C4.59563 17.6729 5.3269 18.4042 6.22897 18.4042C7.13103 18.4042 7.8623 17.6729 7.8623 16.7709C7.8623 16.5379 7.81354 16.3164 7.72566 16.1159L10.1368 13.7048C10.5328 13.9501 10.9997 14.0917 11.4998 14.0917C11.939 14.0917 12.3526 13.9825 12.7151 13.7897L15.1524 16.2271C15.1037 16.382 15.0774 16.5469 15.0774 16.7179C15.0774 17.6199 15.8087 18.3512 16.7107 18.3512C17.6128 18.3512 18.3441 17.6199 18.3441 16.7179C18.3441 15.8158 17.6128 15.0845 16.7107 15.0845C16.4778 15.0845 16.2562 15.1333 16.0557 15.2212L13.7019 12.8673C13.9488 12.4704 14.0915 12.0019 14.0915 11.5C14.0915 11.059 13.9813 10.6436 13.7869 10.28L16.2867 7.78026C16.4416 7.82901 16.6065 7.85529 16.7775 7.85529ZM6.50505 6.24804C6.50505 6.09156 6.37819 5.96471 6.22171 5.96471C6.06523 5.96471 5.93838 6.09156 5.93838 6.24804C5.93838 6.40452 6.06523 6.53138 6.22171 6.53138C6.37819 6.53138 6.50505 6.40452 6.50505 6.24804ZM11.4998 10.2584C10.814 10.2584 10.2581 10.8143 10.2581 11.5C10.2581 12.1858 10.814 12.7417 11.4998 12.7417C12.1856 12.7417 12.7415 12.1858 12.7415 11.5C12.7415 10.8143 12.1856 10.2584 11.4998 10.2584ZM6.22897 16.4875C6.07248 16.4875 5.94563 16.6144 5.94563 16.7709C5.94563 16.9274 6.07248 17.0542 6.22897 17.0542C6.38545 17.0542 6.5123 16.9274 6.5123 16.7709C6.5123 16.6144 6.38545 16.4875 6.22897 16.4875ZM16.7107 17.0012C16.5543 17.0012 16.4274 16.8744 16.4274 16.7179C16.4274 16.5614 16.5543 16.4345 16.7107 16.4345C16.8672 16.4345 16.9941 16.5614 16.9941 16.7179C16.9941 16.8744 16.8672 17.0012 16.7107 17.0012Z" fill="#252323"/>
<path d="M9.46415 2.89398C7.06832 2.89398 6.95673 5.5193 6.95673 5.5193" stroke="#252323" stroke-width="1.35" stroke-linecap="round" stroke-linejoin="round"/>
<path d="M5.38309 6.86591C2.98727 6.86591 2.87568 9.49122 2.87568 9.49122" stroke="#252323" stroke-width="1.35" stroke-linecap="round" stroke-linejoin="round"/>
<path d="M20.1317 9.46415C20.1317 7.06832 17.5063 6.95674 17.5063 6.95674" stroke="#252323" stroke-width="1.35" stroke-linecap="round" stroke-linejoin="round"/>
<path d="M16.1597 5.38334C16.1597 2.98751 13.5344 2.87592 13.5344 2.87592" stroke="#252323" stroke-width="1.35" stroke-linecap="round" stroke-linejoin="round"/>
<path d="M2.87494 13.5283C2.87494 15.9241 5.50026 16.0357 5.50026 16.0357" stroke="#252323" stroke-width="1.35" stroke-linecap="round" stroke-linejoin="round"/>
<path d="M6.84686 17.6093C6.84686 20.0052 9.47218 20.1168 9.47218 20.1168" stroke="#252323" stroke-width="1.35" stroke-linecap="round" stroke-linejoin="round"/>
<path d="M13.4682 20.0718C15.864 20.0718 15.9756 17.4465 15.9756 17.4465" stroke="#252323" stroke-width="1.35" stroke-linecap="round" stroke-linejoin="round"/>
<path d="M17.5493 16.0999C19.9451 16.0999 20.0567 13.4746 20.0567 13.4746" stroke="#252323" stroke-width="1.35" stroke-linecap="round" stroke-linejoin="round"/>
</g>
<defs>
<clipPath id="clip0_666_9764">
<rect width="23" height="23" fill="white"/>
</clipPath>
</defs>
</svg>
