<svg width="23" height="23" viewBox="0 0 23 23" fill="none" xmlns="http://www.w3.org/2000/svg">
<g clip-path="url(#clip0_666_9615)">
<path fill-rule="evenodd" clip-rule="evenodd" d="M16.0521 6.94791L16.7708 7.18749L17.7292 6.94791C18.1285 7.02777 18.975 7.23541 19.1667 7.42708C19.4063 7.66666 20.3646 8.62499 20.125 9.34374C20.0381 9.60439 19.8164 9.98849 19.6082 10.3494C19.3793 10.7459 19.1667 11.1144 19.1667 11.2604C19.1667 11.9106 19.4099 12.281 19.6354 12.6246C19.9747 13.1414 20.2742 13.5975 19.6458 14.8542C18.8792 15.6208 18.0486 16.1319 17.7292 16.2917L17.0104 15.8125L16.0521 16.0521L15.8125 16.7708L16.0521 17.4896C15.9722 18.368 15.3813 20.125 13.6563 20.125C13.0406 20.125 12.7175 19.8515 12.4165 19.5968C12.1539 19.3746 11.9082 19.1667 11.5 19.1667C11.0918 19.1667 10.8461 19.3746 10.5835 19.5968C10.2825 19.8515 9.95935 20.125 9.34375 20.125C8.54514 19.9653 6.94792 19.3104 6.94792 17.9687C6.94792 17.4741 7.0296 17.2246 7.0918 17.0346C7.18023 16.7645 7.22924 16.6147 6.94792 16.0521C6.37292 15.8604 5.75 15.9722 5.51042 16.0521C4.63194 15.9722 2.875 15.3812 2.875 13.6562C2.875 12.9184 3.22816 12.63 3.55097 12.3663C3.8227 12.1444 4.07292 11.9401 4.07292 11.5C3.83627 11.0267 3.60415 10.7908 3.40821 10.5917C3.09556 10.2739 2.875 10.0498 2.875 9.10416C3.03472 8.22569 3.78542 6.56458 5.51042 6.94791C5.89375 7.13958 6.62847 7.02777 6.94792 6.94791C7.02778 6.78819 7.1875 6.325 7.1875 5.75C7.1875 5.66381 7.18061 5.56385 7.17303 5.45382C7.11737 4.64627 7.02435 3.29671 9.34375 2.875C9.95935 2.875 10.2825 3.14846 10.5835 3.40323C10.8461 3.62539 11.0918 3.83333 11.5 3.83333C11.9082 3.83333 12.1539 3.62539 12.4165 3.40323C12.7175 3.14846 13.0407 2.875 13.6563 2.875C14.4549 2.95486 16.0521 3.54584 16.0521 5.27083C15.9722 5.43056 15.8125 5.84583 15.8125 6.22917C15.8125 6.6125 15.9722 6.86805 16.0521 6.94791ZM11.5 13.4167C12.5585 13.4167 13.4167 12.5585 13.4167 11.5C13.4167 10.4415 12.5585 9.58333 11.5 9.58333C10.4415 9.58333 9.58333 10.4415 9.58333 11.5C9.58333 12.5585 10.4415 13.4167 11.5 13.4167Z" fill="#E05149"/>
<path fill-rule="evenodd" clip-rule="evenodd" d="M12.1748 3.83345C12.1748 3.46066 11.8726 3.15845 11.4998 3.15845C11.127 3.15845 10.8248 3.46066 10.8248 3.83345V4.97828C10.5556 4.79596 10.3348 4.54628 10.1869 4.25033C10.0201 3.91689 9.61469 3.78174 9.28125 3.94846C8.94782 4.11518 8.81267 4.52063 8.97938 4.85407C9.35987 5.61503 10.0223 6.19669 10.8248 6.47591V7.13663C10.3321 7.03358 9.91964 6.69058 9.73068 6.21818C9.59223 5.87205 9.1994 5.70369 8.85327 5.84214C8.50714 5.98059 8.33878 6.37342 8.47723 6.71955C8.86412 7.68676 9.74596 8.36739 10.7796 8.4966L10.8248 8.50224V9.58345C10.8248 9.95624 11.127 10.2584 11.4998 10.2584C11.8726 10.2584 12.1748 9.95624 12.1748 9.58345V8.50224L12.2199 8.4966C13.2536 8.36739 14.1355 7.68676 14.5223 6.71955C14.6608 6.37342 14.4924 5.98059 14.1463 5.84214C13.8002 5.70369 13.4074 5.87205 13.2689 6.21818C13.0799 6.69058 12.6675 7.03358 12.1748 7.13663V6.47591C12.9773 6.19669 13.6397 5.61503 14.0202 4.85407C14.1869 4.52063 14.0518 4.11518 13.7183 3.94846C13.3849 3.78174 12.9794 3.91689 12.8127 4.25033C12.6647 4.54628 12.444 4.79596 12.1748 4.97828V3.83345ZM12.1748 19.1069C12.1748 19.4797 11.8726 19.7819 11.4998 19.7819C11.127 19.7819 10.8248 19.4797 10.8248 19.1069V17.9621C10.5556 18.1444 10.3348 18.3941 10.1869 18.69C10.0201 19.0234 9.61469 19.1586 9.28125 18.9919C8.94782 18.8252 8.81267 18.4197 8.97938 18.0863C9.35987 17.3253 10.0223 16.7436 10.8248 16.4644V15.8037C10.3321 15.9068 9.91964 16.2498 9.73068 16.7222C9.59223 17.0683 9.1994 17.2366 8.85327 17.0982C8.50714 16.9597 8.33878 16.5669 8.47723 16.2208C8.86412 15.2536 9.74596 14.5729 10.7796 14.4437L10.8248 14.4381V13.4168C10.8248 13.044 11.127 12.7418 11.4998 12.7418C11.8726 12.7418 12.1748 13.044 12.1748 13.4168V14.4381L12.2199 14.4437C13.2536 14.5729 14.1355 15.2536 14.5223 16.2208C14.6608 16.5669 14.4924 16.9597 14.1463 17.0982C13.8002 17.2366 13.4074 17.0683 13.2689 16.7222C13.0799 16.2498 12.6675 15.9068 12.1748 15.8037V16.4644C12.9773 16.7436 13.6397 17.3253 14.0202 18.0863C14.1869 18.4197 14.0518 18.8252 13.7183 18.9919C13.3849 19.1586 12.9794 19.0234 12.8127 18.69C12.6647 18.3941 12.444 18.1444 12.1748 17.9621V19.1069ZM19.6019 11.5001C19.6019 11.8729 19.2997 12.1751 18.9269 12.1751L17.782 12.1751C17.9644 12.4443 18.214 12.6651 18.51 12.813C18.8434 12.9798 18.9786 13.3852 18.8119 13.7186C18.6451 14.0521 18.2397 14.1872 17.9063 14.0205C17.1453 13.64 16.5636 12.9776 16.2844 12.1751H15.6237C15.7267 12.6678 16.0697 13.0803 16.5421 13.2692C16.8883 13.4077 17.0566 13.8005 16.9182 14.1466C16.7797 14.4928 16.3869 14.6611 16.0408 14.5227C15.0736 14.1358 14.3929 13.2539 14.2637 12.2203L14.2581 12.1751H13.4165C13.0437 12.1751 12.7415 11.8729 12.7415 11.5001C12.7415 11.1273 13.0437 10.8251 13.4165 10.8251L14.2581 10.8251L14.2637 10.78C14.3929 9.74628 15.0736 8.86444 16.0408 8.47756C16.3869 8.33911 16.7797 8.50746 16.9182 8.85359C17.0566 9.19972 16.8883 9.59255 16.5421 9.731C16.0697 9.91996 15.7267 10.3324 15.6237 10.8251H16.2844C16.5636 10.0226 17.1453 9.36019 17.9063 8.97971C18.2397 8.81299 18.6451 8.94814 18.8119 9.28158C18.9786 9.61501 18.8434 10.0205 18.51 10.1872C18.214 10.3352 17.9644 10.5559 17.782 10.8251H18.9269C19.2997 10.8251 19.6019 11.1273 19.6019 11.5001ZM4.07271 12.1751C3.69991 12.1751 3.39771 11.8729 3.39771 11.5001C3.39771 11.1273 3.69991 10.8251 4.07271 10.8251H5.21754C5.03522 10.5559 4.78554 10.3352 4.48959 10.1872C4.15615 10.0205 4.021 9.61501 4.18772 9.28158C4.35443 8.94814 4.75989 8.81299 5.09332 8.97971C5.85429 9.36019 6.43595 10.0226 6.71517 10.8251H7.37589C7.27283 10.3324 6.92983 9.91996 6.45743 9.731C6.1113 9.59255 5.94295 9.19972 6.0814 8.85359C6.21985 8.50746 6.61268 8.33911 6.95881 8.47756C7.92602 8.86444 8.60665 9.74628 8.73586 10.78L8.7415 10.8251L9.58312 10.8251C9.95591 10.8251 10.2581 11.1273 10.2581 11.5001C10.2581 11.8729 9.95591 12.1751 9.58312 12.1751H8.7415L8.73586 12.2203C8.60665 13.2539 7.92602 14.1358 6.95881 14.5227C6.61268 14.6611 6.21985 14.4928 6.0814 14.1466C5.94295 13.8005 6.1113 13.4077 6.45743 13.2692C6.92983 13.0803 7.27283 12.6678 7.37589 12.1751H6.71517C6.43595 12.9776 5.85429 13.64 5.09332 14.0205C4.75989 14.1872 4.35443 14.0521 4.18772 13.7186C4.021 13.3852 4.15615 12.9798 4.48959 12.813C4.78554 12.6651 5.03522 12.4443 5.21754 12.1751L4.07271 12.1751Z" fill="#332A2A"/>
<path d="M16.8279 4.63867C17.7298 4.63885 18.4607 5.3705 18.4607 6.27246C18.4605 7.17427 17.7297 7.9051 16.8279 7.90527C16.6567 7.90526 16.4917 7.8789 16.3367 7.83008L13.8181 10.3477C13.9915 10.6954 14.0925 11.0861 14.0925 11.501C14.0924 12.0025 13.9458 12.4685 13.699 12.8652L16.1062 15.2715C16.3065 15.1837 16.5278 15.1348 16.7605 15.1348C17.6626 15.1348 18.3943 15.8665 18.3943 16.7686C18.394 17.6704 17.6624 18.4014 16.7605 18.4014C15.8588 18.4011 15.128 17.6703 15.1277 16.7686C15.1277 16.5971 15.1539 16.4316 15.2029 16.2764L12.7146 13.7891C12.3523 13.9818 11.9396 14.0927 11.5007 14.0928C11.0265 14.0928 10.5833 13.9627 10.2009 13.7402L7.77417 16.166C7.86219 16.3665 7.91274 16.5874 7.91284 16.8203C7.91284 17.7223 7.18101 18.454 6.27905 18.4541C5.37714 18.4539 4.64624 17.7223 4.64624 16.8203C4.64664 15.9187 5.37738 15.1877 6.27905 15.1875C6.44983 15.1875 6.61453 15.2141 6.76929 15.2627L9.24976 12.7822C9.03397 12.4041 8.90903 11.9674 8.90894 11.501C8.90894 11.0078 9.04865 10.5478 9.28784 10.1553L6.92554 7.79395C6.72533 7.88162 6.50475 7.9316 6.27222 7.93164C5.37015 7.93164 4.63843 7.19992 4.63843 6.29785C4.63863 5.39596 5.37028 4.66504 6.27222 4.66504C7.17401 4.66522 7.90483 5.39607 7.90503 6.29785C7.90503 6.46866 7.87846 6.6333 7.82983 6.78809L10.2634 9.22266C10.6311 9.02258 11.0528 8.90918 11.5007 8.90918C12.026 8.90929 12.5143 9.06627 12.9226 9.33496L15.3318 6.92578C15.2441 6.7256 15.1941 6.50497 15.1941 6.27246C15.1941 5.37045 15.9259 4.63876 16.8279 4.63867ZM6.27905 16.5371C6.12297 16.5373 5.99625 16.6643 5.99585 16.8203C5.99585 16.9767 6.12272 17.1033 6.27905 17.1035C6.43543 17.1034 6.56226 16.9767 6.56226 16.8203C6.56186 16.6643 6.43518 16.5372 6.27905 16.5371ZM16.7605 16.4854C16.6042 16.4856 16.4773 16.6122 16.4773 16.7686C16.4776 16.9247 16.6044 17.0515 16.7605 17.0518C16.9168 17.0518 17.0434 16.9248 17.0437 16.7686C17.0437 16.6121 16.917 16.4854 16.7605 16.4854ZM11.5007 10.2588C10.815 10.2588 10.2585 10.8152 10.2585 11.501C10.2588 12.1865 10.8152 12.7422 11.5007 12.7422C12.186 12.7419 12.7416 12.1863 12.7419 11.501C12.7419 10.8154 12.1862 10.2591 11.5007 10.2588ZM6.27222 6.01465C6.11586 6.01465 5.98921 6.14154 5.98901 6.29785C5.98901 6.45433 6.11574 6.58105 6.27222 6.58105C6.42855 6.58088 6.55542 6.45422 6.55542 6.29785C6.55522 6.14165 6.42842 6.01482 6.27222 6.01465ZM16.8279 5.98926C16.6715 5.98934 16.5447 6.11603 16.5447 6.27246C16.5449 6.42874 16.6716 6.55558 16.8279 6.55566C16.9841 6.55549 17.1109 6.42868 17.1111 6.27246C17.1111 6.11609 16.9842 5.98943 16.8279 5.98926Z" fill="#332A2A"/>
<path d="M9.46415 2.89398C7.06832 2.89398 6.95673 5.5193 6.95673 5.5193" stroke="#332A2A" stroke-width="1.35" stroke-linecap="round" stroke-linejoin="round"/>
<path d="M5.38309 6.86591C2.98727 6.86591 2.87568 9.49122 2.87568 9.49122" stroke="#332A2A" stroke-width="1.35" stroke-linecap="round" stroke-linejoin="round"/>
<path d="M20.1317 9.46415C20.1317 7.06832 17.5063 6.95674 17.5063 6.95674" stroke="#332A2A" stroke-width="1.35" stroke-linecap="round" stroke-linejoin="round"/>
<path d="M16.1597 5.38334C16.1597 2.98751 13.5344 2.87592 13.5344 2.87592" stroke="#332A2A" stroke-width="1.35" stroke-linecap="round" stroke-linejoin="round"/>
<path d="M2.87494 13.5283C2.87494 15.9241 5.50026 16.0357 5.50026 16.0357" stroke="#332A2A" stroke-width="1.35" stroke-linecap="round" stroke-linejoin="round"/>
<path d="M6.84686 17.6093C6.84686 20.0052 9.47218 20.1168 9.47218 20.1168" stroke="#332A2A" stroke-width="1.35" stroke-linecap="round" stroke-linejoin="round"/>
<path d="M13.4682 20.0718C15.864 20.0718 15.9756 17.4465 15.9756 17.4465" stroke="#332A2A" stroke-width="1.35" stroke-linecap="round" stroke-linejoin="round"/>
<path d="M17.5493 16.0999C19.9451 16.0999 20.0567 13.4746 20.0567 13.4746" stroke="#332A2A" stroke-width="1.35" stroke-linecap="round" stroke-linejoin="round"/>
</g>
<defs>
<clipPath id="clip0_666_9615">
<rect width="23" height="23" fill="white"/>
</clipPath>
</defs>
</svg>
