<svg width="44" height="44" viewBox="0 0 44 44" fill="none" xmlns="http://www.w3.org/2000/svg">
<g clip-path="url(#clip0_666_9762)">
<path fill-rule="evenodd" clip-rule="evenodd" d="M21.2498 15.7864V18.3333C21.2498 18.7474 21.5857 19.0831 21.9998 19.0833C22.414 19.0833 22.7498 18.7475 22.7498 18.3333V15.7864L23.3103 15.717C25.0923 15.4943 26.6131 14.321 27.28 12.6536C27.4338 12.2691 27.2465 11.8329 26.8621 11.679C26.4776 11.5252 26.0415 11.7117 25.8875 12.0959C25.4233 13.2564 24.3649 14.0737 23.1248 14.2288L22.7498 14.2756V11.9993L23.0427 11.9016C24.4765 11.4237 25.6618 10.395 26.3376 9.04321C26.5226 8.6728 26.3721 8.22253 26.0017 8.03735C25.6313 7.85241 25.181 8.00294 24.9958 8.37329C24.5267 9.31138 23.7242 10.037 22.7498 10.4124V7.85767C23.8511 7.34569 24.5836 6.23565 24.5837 4.9856V4.58325C24.5837 4.16915 24.2478 3.83343 23.8337 3.83325C23.4195 3.83325 23.0837 4.16904 23.0837 4.58325V4.9856C23.0836 5.6876 22.6448 6.30523 21.9998 6.54712C21.355 6.30508 20.9169 5.68739 20.9167 4.9856V4.58325C20.9167 4.16904 20.581 3.83325 20.1667 3.83325C19.7525 3.83325 19.4167 4.16904 19.4167 4.58325V4.9856C19.4169 6.23544 20.1487 7.34558 21.2498 7.85767V10.4124C20.2756 10.0369 19.4737 9.31113 19.0046 8.37329C18.8194 8.00281 18.3683 7.85211 17.9978 8.03735C17.6275 8.22259 17.4778 8.67282 17.6628 9.04321C18.3387 10.395 19.524 11.4237 20.9578 11.9016L21.2498 11.9983V14.2747L20.8757 14.2288C19.6355 14.0737 18.5772 13.2564 18.113 12.0959C17.9591 11.7116 17.5229 11.5252 17.1384 11.679C16.7538 11.8328 16.5666 12.269 16.7205 12.6536C17.3874 14.3208 18.9074 15.4942 20.6892 15.717L21.2498 15.7864ZM21.2498 28.0989V25.6663C21.2499 25.2523 21.5858 24.9164 21.9998 24.9163C22.4139 24.9163 22.7496 25.2522 22.7498 25.6663V28.0989L23.3103 28.1682C25.0923 28.391 26.6131 29.5643 27.28 31.2317C27.4338 31.6162 27.2465 32.0524 26.8621 32.2063C26.4776 32.3601 26.0415 32.1736 25.8875 31.7893C25.4233 30.6289 24.3649 29.8116 23.1248 29.6565L22.7498 29.6096V31.886L23.0427 31.9836C24.4765 32.4616 25.6618 33.4903 26.3376 34.842C26.5226 35.2125 26.3721 35.6627 26.0017 35.8479C25.6313 36.0328 25.181 35.8823 24.9958 35.512C24.5267 34.5739 23.7242 33.8483 22.7498 33.4729V36.0276C23.8511 36.5396 24.5836 37.6496 24.5837 38.8997V39.302C24.5837 39.7161 24.2478 40.0518 23.8337 40.052C23.4195 40.052 23.0837 39.7162 23.0837 39.302V38.8997C23.0836 38.1977 22.6448 37.58 21.9998 37.3381C21.355 37.5802 20.9169 38.1979 20.9167 38.8997V39.302C20.9167 39.7162 20.581 40.052 20.1667 40.052C19.7525 40.052 19.4167 39.7162 19.4167 39.302V38.8997C19.4169 37.6498 20.1487 36.5397 21.2498 36.0276V33.4729C20.2756 33.8483 19.4737 34.5741 19.0046 35.512C18.8194 35.8825 18.3683 36.0331 17.9978 35.8479C17.6275 35.6627 17.4778 35.2124 17.6628 34.842C18.3387 33.4903 19.524 32.4616 20.9578 31.9836L21.2498 31.887V29.6106L20.8757 29.6565C19.6355 29.8115 18.5772 30.6288 18.113 31.7893C17.9591 32.1736 17.5229 32.36 17.1384 32.2063C16.7538 32.0525 16.5666 31.6163 16.7205 31.2317C17.3874 29.5645 18.9074 28.3911 20.6892 28.1682L21.2498 28.0989ZM25.6664 21.2496H27.7553L27.8246 20.689C28.0475 18.9073 29.2209 17.3872 30.8881 16.7203C31.2727 16.5665 31.7089 16.7537 31.8627 17.1383C32.0165 17.5227 31.83 17.9589 31.4457 18.1129C30.2852 18.5771 29.4679 19.6353 29.3129 20.8756L29.267 21.2496H31.5434L31.6401 20.9576C32.118 19.5238 33.1467 18.3386 34.4985 17.6627C34.8688 17.4777 35.3191 17.6273 35.5043 17.9976C35.6896 18.3681 35.5389 18.8192 35.1684 19.0045C34.2305 19.4736 33.5047 20.2754 33.1293 21.2496H35.684C36.1961 20.1486 37.3062 19.4168 38.5561 19.4166H38.9584C39.3726 19.4166 39.7084 19.7524 39.7084 20.1666C39.7084 20.5808 39.3726 20.9166 38.9584 20.9166H38.5561C37.8543 20.9168 37.2366 21.3549 36.9945 21.9996C37.2364 22.6446 37.8541 23.0834 38.5561 23.0836H38.9584C39.3726 23.0836 39.7084 23.4194 39.7084 23.8336C39.7082 24.2476 39.3725 24.5836 38.9584 24.5836H38.5561C37.306 24.5834 36.196 23.8509 35.684 22.7496H33.1293C33.5047 23.7241 34.2303 24.5265 35.1684 24.9957C35.5387 25.1809 35.6893 25.6311 35.5043 26.0015C35.3191 26.3719 34.8689 26.5224 34.4985 26.3375C33.1467 25.6616 32.118 24.4763 31.6401 23.0426L31.5424 22.7496H29.266L29.3129 23.1246C29.468 24.3648 30.2853 25.4231 31.4457 25.8873C31.83 26.0413 32.0165 26.4775 31.8627 26.8619C31.7088 27.2463 31.2726 27.4337 30.8881 27.2799C29.2207 26.6129 28.0474 25.0921 27.8246 23.3101L27.7553 22.7496H25.6664C25.2524 22.7494 24.9164 22.4137 24.9164 21.9996C24.9166 21.5856 25.2525 21.2498 25.6664 21.2496ZM16.2449 21.2496H18.3337C18.7477 21.2498 19.0836 21.5856 19.0837 21.9996C19.0837 22.4137 18.7478 22.7494 18.3337 22.7496H16.2449L16.1755 23.3101C15.9528 25.0921 14.7794 26.6129 13.1121 27.2799C12.7275 27.4337 12.2914 27.2463 12.1375 26.8619C11.9837 26.4775 12.1702 26.0413 12.5544 25.8873C13.7149 25.4231 14.5322 24.3648 14.6873 23.1246L14.7341 22.7496H12.4578L12.3601 23.0426C11.8822 24.4763 10.8535 25.6616 9.50171 26.3375C9.1313 26.5224 8.68103 26.3719 8.49585 26.0015C8.31091 25.6311 8.46143 25.1809 8.83179 24.9957C9.76987 24.5265 10.4955 23.7241 10.8708 22.7496H8.31616C7.80419 23.8509 6.69414 24.5834 5.44409 24.5836H5.04175C4.62764 24.5836 4.29192 24.2476 4.29175 23.8336C4.29175 23.4194 4.62753 23.0836 5.04175 23.0836H5.44409C6.1461 23.0834 6.76373 22.6446 7.00562 21.9996C6.76357 21.3549 6.14589 20.9168 5.44409 20.9166H5.04175C4.62753 20.9166 4.29175 20.5808 4.29175 20.1666C4.29175 19.7524 4.62753 19.4166 5.04175 19.4166H5.44409C6.69394 19.4168 7.80408 20.1486 8.31616 21.2496H10.8708C10.4954 20.2754 9.76963 19.4736 8.83179 19.0045C8.4613 18.8192 8.31061 18.3681 8.49585 17.9976C8.68109 17.6273 9.13132 17.4777 9.50171 17.6627C10.8535 18.3386 11.8822 19.5238 12.3601 20.9576L12.4568 21.2496H14.7332L14.6873 20.8756C14.5322 19.6353 13.7149 18.5771 12.5544 18.1129C12.1701 17.9589 11.9837 17.5227 12.1375 17.1383C12.2913 16.7537 12.7275 16.5665 13.1121 16.7203C14.7793 17.3872 15.9527 18.9073 16.1755 20.689L16.2449 21.2496Z" fill="#332A2A"/>
<path d="M15.5403 27.1836C15.8332 26.8912 16.3081 26.891 16.6008 27.1836C16.8937 27.4764 16.8936 27.9522 16.6008 28.2451L14.1145 30.7305C14.3576 31.1242 14.5011 31.5864 14.5012 32.083C14.5012 33.5096 13.3438 34.6668 11.9172 34.667C10.4907 34.6668 9.33423 33.5096 9.33423 32.083C9.33451 30.6566 10.4908 29.5002 11.9172 29.5C12.2997 29.5001 12.6619 29.5852 12.9885 29.7344L15.5403 27.1836ZM27.0696 27.2988C27.3624 27.006 27.8372 27.0061 28.1301 27.2988L30.6155 29.7842C31.0093 29.541 31.4722 29.3985 31.969 29.3984C33.3957 29.3985 34.5529 30.5558 34.553 31.9824C34.5528 33.409 33.3956 34.5654 31.969 34.5654C30.5425 34.5653 29.3862 33.4089 29.386 31.9824C29.386 31.5996 29.4709 31.237 29.6204 30.9102L27.0696 28.3594C26.7769 28.0665 26.7769 27.5917 27.0696 27.2988ZM11.9172 31C11.3193 31.0002 10.8345 31.4851 10.8342 32.083C10.8342 32.6812 11.3191 33.1668 11.9172 33.167C12.5153 33.1668 13.0012 32.6812 13.0012 32.083C13.0009 31.4851 12.5152 31.0002 11.9172 31ZM31.969 30.8984C31.3709 30.8986 30.886 31.3842 30.886 31.9824C30.8862 32.5805 31.3709 33.0653 31.969 33.0654C32.5671 33.0654 33.0528 32.5805 33.053 31.9824C33.0529 31.3842 32.5672 30.8985 31.969 30.8984ZM17.1663 17C17.4591 16.7072 17.9349 16.7072 18.2278 17L19.551 18.3242C20.252 17.8561 21.0951 17.584 22.0012 17.584C23.0048 17.5842 23.9296 17.9193 24.6711 18.4834L25.9885 17.166C26.2813 16.8734 26.7562 16.8736 27.0491 17.166C27.3419 17.4589 27.3418 17.9346 27.0491 18.2275L25.6946 19.5811C26.1506 20.2762 26.4172 21.1075 26.4172 22.001C26.4171 23.0083 26.0779 23.9358 25.51 24.6787L26.7053 25.874C26.9981 26.1669 26.9982 26.6417 26.7053 26.9346C26.4125 27.2273 25.9376 27.2273 25.6448 26.9346L24.4104 25.7002C23.7175 26.1524 22.8904 26.4168 22.0012 26.417C20.9966 26.417 20.0705 26.0805 19.3284 25.5156L18.0256 26.8203C17.7327 27.1131 17.257 27.1132 16.9641 26.8203C16.6715 26.5276 16.6718 26.0527 16.9641 25.7598L18.3049 24.418C17.8496 23.7235 17.5844 22.8934 17.5842 22.001C17.5842 21.0094 17.9094 20.0927 18.4612 19.3555L17.1663 18.0605C16.8739 17.7676 16.8736 17.2927 17.1663 17ZM22.0012 19.084C20.3904 19.084 19.0842 20.3901 19.0842 22.001C19.0846 23.6115 20.3906 24.917 22.0012 24.917C23.6114 24.9166 24.9168 23.6112 24.9172 22.001C24.9172 20.3904 23.6117 19.0844 22.0012 19.084ZM32.0969 9.31934C33.5235 9.31951 34.6799 10.4767 34.6799 11.9033C34.6798 13.3298 33.5234 14.4862 32.0969 14.4863C31.714 14.4863 31.3516 14.4005 31.0247 14.251L28.4739 16.8027C28.181 17.0952 27.7061 17.0954 27.4133 16.8027C27.1206 16.51 27.1208 16.0351 27.4133 15.7422L29.8987 13.2559C29.6558 12.8622 29.513 12.3998 29.5129 11.9033C29.5129 10.4767 30.6704 9.31955 32.0969 9.31934ZM11.9036 9.36914C13.3299 9.36932 14.4862 10.5259 14.4866 11.9521C14.4866 12.3346 14.4004 12.6968 14.2512 13.0234L16.803 15.5762C17.0954 15.8691 17.0957 16.344 16.803 16.6367C16.5102 16.9294 16.0354 16.9292 15.7424 16.6367L13.2561 14.1504C12.8624 14.3934 12.4002 14.5361 11.9036 14.5361C10.4768 14.5361 9.31958 13.3789 9.31958 11.9521C9.31999 10.5258 10.4771 9.36914 11.9036 9.36914ZM11.9036 10.8691C11.3055 10.8691 10.82 11.3542 10.8196 11.9521C10.8196 12.5505 11.3053 13.0361 11.9036 13.0361C12.5017 13.036 12.9866 12.5503 12.9866 11.9521C12.9862 11.3543 12.5015 10.8693 11.9036 10.8691ZM32.0969 10.8193C31.4988 10.8195 31.0129 11.3051 31.0129 11.9033C31.0131 12.5014 31.4989 12.9861 32.0969 12.9863C32.695 12.9862 33.1798 12.5014 33.1799 11.9033C33.1799 11.3051 32.6951 10.8195 32.0969 10.8193Z" fill="#332A2A"/>
<path d="M18.1057 5.5362C13.5224 5.5362 13.3089 10.5585 13.3089 10.5585" stroke="#332A2A" stroke-width="1.5" stroke-linecap="round" stroke-linejoin="round"/>
<path d="M10.2986 13.1346C5.71525 13.1346 5.50178 18.1569 5.50178 18.1569" stroke="#332A2A" stroke-width="1.5" stroke-linecap="round" stroke-linejoin="round"/>
<path d="M38.5131 18.1055C38.5131 13.5221 33.4908 13.3087 33.4908 13.3087" stroke="#332A2A" stroke-width="1.5" stroke-linecap="round" stroke-linejoin="round"/>
<path d="M30.9145 10.2986C30.9145 5.71525 25.8921 5.50178 25.8921 5.50178" stroke="#332A2A" stroke-width="1.5" stroke-linecap="round" stroke-linejoin="round"/>
<path d="M5.50007 25.8801C5.50007 30.4635 10.5224 30.6769 10.5224 30.6769" stroke="#332A2A" stroke-width="1.5" stroke-linecap="round" stroke-linejoin="round"/>
<path d="M13.0987 33.6873C13.0987 38.2706 18.121 38.4841 18.121 38.4841" stroke="#332A2A" stroke-width="1.5" stroke-linecap="round" stroke-linejoin="round"/>
<path d="M25.7656 38.3984C30.349 38.3984 30.5624 33.376 30.5624 33.376" stroke="#332A2A" stroke-width="1.5" stroke-linecap="round" stroke-linejoin="round"/>
<path d="M33.5728 30.7997C38.1561 30.7997 38.3696 25.7774 38.3696 25.7774" stroke="#332A2A" stroke-width="1.5" stroke-linecap="round" stroke-linejoin="round"/>
</g>
<defs>
<clipPath id="clip0_666_9762">
<rect width="44" height="44" fill="white"/>
</clipPath>
</defs>
</svg>
