<svg width="44" height="44" viewBox="0 0 44 44" fill="none" xmlns="http://www.w3.org/2000/svg">
<g clip-path="url(#clip0_666_9762)">
<path fill-rule="evenodd" clip-rule="evenodd" d="M24.5834 4.58325C24.5834 4.16904 24.2476 3.83325 23.8334 3.83325C23.4192 3.83325 23.0834 4.16904 23.0834 4.58325V4.98516C23.0834 5.68747 22.6454 6.3072 22.0001 6.54905C21.3547 6.3072 20.9167 5.68747 20.9167 4.98516V4.58325C20.9167 4.16904 20.581 3.83325 20.1667 3.83325C19.7525 3.83325 19.4167 4.16904 19.4167 4.58325V4.98516C19.4167 6.23564 20.1483 7.34818 21.2501 7.86008V10.413C20.2755 10.0376 19.4734 9.31109 19.0042 8.37284C18.819 8.00236 18.3685 7.85219 17.998 8.03743C17.6275 8.22267 17.4774 8.67318 17.6626 9.04366C18.3385 10.3954 19.5237 11.4234 20.9575 11.9013L21.2501 11.9988V14.2753L20.8756 14.2285C19.6354 14.0735 18.5773 13.2569 18.1131 12.0964C17.9593 11.7118 17.5228 11.5247 17.1382 11.6786C16.7536 11.8324 16.5666 12.2689 16.7204 12.6535C17.3873 14.3208 18.9076 15.4942 20.6895 15.7169L21.2501 15.787V18.3333C21.2501 18.7475 21.5859 19.0833 22.0001 19.0833C22.4143 19.0833 22.7501 18.7475 22.7501 18.3333V15.787L23.3106 15.7169C25.0926 15.4942 26.6128 14.3208 27.2798 12.6535C27.4336 12.2689 27.2465 11.8324 26.862 11.6786C26.4774 11.5247 26.0409 11.7118 25.8871 12.0964C25.4229 13.2569 24.3648 14.0735 23.1246 14.2285L22.7501 14.2753V11.9988L23.0427 11.9013C24.4765 11.4234 25.6617 10.3954 26.3376 9.04366C26.5228 8.67318 26.3726 8.22267 26.0022 8.03743C25.6317 7.85219 25.1812 8.00236 24.9959 8.37284C24.5268 9.31109 23.7247 10.0376 22.7501 10.413V7.86008C23.8519 7.34818 24.5834 6.23564 24.5834 4.98516V4.58325ZM24.5834 39.302C24.5834 39.7162 24.2476 40.052 23.8334 40.052C23.4192 40.052 23.0834 39.7162 23.0834 39.302V38.9001C23.0834 38.1978 22.6454 37.5781 22.0001 37.3362C21.3547 37.5781 20.9167 38.1978 20.9167 38.9001V39.302C20.9167 39.7162 20.581 40.052 20.1667 40.052C19.7525 40.052 19.4167 39.7162 19.4167 39.302V38.9001C19.4167 37.6496 20.1483 36.5371 21.2501 36.0252V33.4722C20.2755 33.8477 19.4734 34.5742 19.0042 35.5124C18.819 35.8829 18.3685 36.0331 17.998 35.8478C17.6275 35.6626 17.4774 35.2121 17.6626 34.8416C18.3385 33.4898 19.5237 32.4619 20.9575 31.984L21.2501 31.8864V29.6099L20.8756 29.6567C19.6354 29.8118 18.5773 30.6284 18.1131 31.7889C17.9593 32.1735 17.5228 32.3605 17.1382 32.2067C16.7536 32.0529 16.5666 31.6164 16.7204 31.2318C17.3873 29.5644 18.9076 28.3911 20.6895 28.1683L21.2501 28.0983V25.6666C21.2501 25.2524 21.5859 24.9166 22.0001 24.9166C22.4143 24.9166 22.7501 25.2524 22.7501 25.6666V28.0983L23.3106 28.1683C25.0926 28.3911 26.6128 29.5644 27.2798 31.2318C27.4336 31.6164 27.2465 32.0529 26.862 32.2067C26.4774 32.3605 26.0409 32.1735 25.8871 31.7889C25.4229 30.6284 24.3648 29.8118 23.1246 29.6567L22.7501 29.6099V31.8864L23.0427 31.984C24.4765 32.4619 25.6617 33.4898 26.3376 34.8416C26.5228 35.2121 26.3726 35.6626 26.0022 35.8478C25.6317 36.0331 25.1812 35.8829 24.9959 35.5124C24.5268 34.5742 23.7247 33.8477 22.7501 33.4722V36.0252C23.8519 36.5371 24.5834 37.6496 24.5834 38.9001V39.302ZM39.7084 23.8333C39.7084 24.2475 39.3726 24.5833 38.9584 24.5833H38.5565C37.306 24.5833 36.1935 23.8517 35.6816 22.7499H33.1287C33.5041 23.7245 34.2306 24.5266 35.1688 24.9958C35.5393 25.181 35.6895 25.6315 35.5042 26.002C35.319 26.3725 34.8685 26.5226 34.498 26.3374C33.1462 25.6615 32.1183 24.4763 31.6404 23.0425L31.5428 22.7499H29.2663L29.3131 23.1244C29.4682 24.3646 30.2848 25.4227 31.4453 25.8869C31.8299 26.0407 32.0169 26.4772 31.8631 26.8618C31.7093 27.2464 31.2728 27.4334 30.8882 27.2796C29.2208 26.6127 28.0475 25.0924 27.8247 23.3105L27.7547 22.7499H25.6667C25.2525 22.7499 24.9167 22.4141 24.9167 21.9999C24.9167 21.5857 25.2525 21.2499 25.6667 21.2499H27.7547L27.8247 20.6894C28.0475 18.9074 29.2208 17.3872 30.8882 16.7202C31.2728 16.5664 31.7093 16.7535 31.8631 17.138C32.0169 17.5226 31.8299 17.9591 31.4453 18.1129C30.2848 18.5771 29.4682 19.6352 29.3131 20.8754L29.2663 21.2499H31.5428L31.6404 20.9573C32.1183 19.5235 33.1462 18.3383 34.498 17.6624C34.8685 17.4772 35.319 17.6274 35.5042 17.9978C35.6895 18.3683 35.5393 18.8188 35.1688 19.0041C34.2306 19.4732 33.5041 20.2754 33.1287 21.2499H35.6816C36.1935 20.1481 37.306 19.4166 38.5565 19.4166H38.9584C39.3726 19.4166 39.7084 19.7524 39.7084 20.1666C39.7084 20.5808 39.3726 20.9166 38.9584 20.9166H38.5565C37.8542 20.9166 37.2345 21.3546 36.9926 21.9999C37.2345 22.6453 37.8542 23.0833 38.5565 23.0833H38.9584C39.3726 23.0833 39.7084 23.419 39.7084 23.8333ZM5.04175 24.5833C4.62753 24.5833 4.29175 24.2475 4.29175 23.8333C4.29175 23.419 4.62753 23.0833 5.04175 23.0833H5.44366C6.14597 23.0833 6.7657 22.6453 7.00754 21.9999C6.7657 21.3546 6.14597 20.9166 5.44366 20.9166H5.04175C4.62753 20.9166 4.29175 20.5808 4.29175 20.1666C4.29175 19.7524 4.62753 19.4166 5.04175 19.4166H5.44366C6.69413 19.4166 7.80668 20.1481 8.31857 21.2499H10.8715C10.4961 20.2754 9.76959 19.4732 8.83134 19.0041C8.46085 18.8188 8.31069 18.3683 8.49593 17.9978C8.68117 17.6274 9.13167 17.4772 9.50216 17.6624C10.8539 18.3383 11.8818 19.5235 12.3598 20.9573L12.4573 21.2499H14.7338L14.687 20.8754C14.532 19.6352 13.7154 18.5771 12.5549 18.1129C12.1703 17.9591 11.9832 17.5226 12.1371 17.138C12.2909 16.7535 12.7274 16.5664 13.112 16.7202C14.7793 17.3872 15.9527 18.9074 16.1754 20.6894L16.2455 21.2499H18.3334C18.7476 21.2499 19.0834 21.5857 19.0834 21.9999C19.0834 22.4141 18.7476 22.7499 18.3334 22.7499H16.2455L16.1754 23.3105C15.9527 25.0924 14.7793 26.6127 13.112 27.2796C12.7274 27.4334 12.2909 27.2464 12.1371 26.8618C11.9832 26.4772 12.1703 26.0407 12.5549 25.8869C13.7154 25.4227 14.532 24.3646 14.687 23.1244L14.7338 22.7499H12.4573L12.3598 23.0425C11.8818 24.4763 10.8539 25.6615 9.50216 26.3374C9.13167 26.5226 8.68117 26.3725 8.49593 26.002C8.31069 25.6315 8.46085 25.181 8.83134 24.9958C9.76959 24.5266 10.4961 23.7245 10.8715 22.7499H8.31857C7.80668 23.8517 6.69413 24.5833 5.44366 24.5833H5.04175Z" fill="#252323"/>
<path fill-rule="evenodd" clip-rule="evenodd" d="M33.18 11.9027C33.18 12.501 32.695 12.986 32.0967 12.986C31.4984 12.986 31.0133 12.501 31.0133 11.9027C31.0133 11.3044 31.4984 10.8193 32.0967 10.8193C32.695 10.8193 33.18 11.3044 33.18 11.9027ZM32.0967 14.486C33.5234 14.486 34.68 13.3294 34.68 11.9027C34.68 10.4759 33.5234 9.31934 32.0967 9.31934C30.6699 9.31934 29.5133 10.4759 29.5133 11.9027C29.5133 12.3996 29.6537 12.8638 29.8969 13.2578L27.4132 15.7414C27.1204 16.0343 27.1204 16.5091 27.4132 16.802C27.7061 17.0949 28.181 17.0949 28.4739 16.802L31.023 14.253C31.3499 14.4026 31.7136 14.486 32.0967 14.486ZM12.9862 11.9526C12.9862 11.3543 12.5012 10.8692 11.9029 10.8692C11.3046 10.8692 10.8196 11.3543 10.8196 11.9526C10.8196 12.5509 11.3046 13.0359 11.9029 13.0359C12.5012 13.0359 12.9862 12.5509 12.9862 11.9526ZM11.9029 9.36924C13.3296 9.36924 14.4862 10.5258 14.4862 11.9526C14.4862 12.3357 14.4029 12.6993 14.2532 13.0263L16.8023 15.5753C17.0952 15.8682 17.0952 16.3431 16.8023 16.636C16.5094 16.9289 16.0345 16.9289 15.7416 16.636L13.258 14.1524C12.8641 14.3956 12.3999 14.5359 11.9029 14.5359C10.4762 14.5359 9.31958 13.3793 9.31958 11.9526C9.31958 10.5258 10.4762 9.36924 11.9029 9.36924ZM22.0001 19.0832C20.3893 19.0832 19.0835 20.389 19.0835 21.9999C19.0835 23.6107 20.3893 24.9165 22.0001 24.9165C23.611 24.9165 24.9168 23.6107 24.9168 21.9999C24.9168 20.389 23.611 19.0832 22.0001 19.0832ZM17.5835 21.9999C17.5835 21.0084 17.9102 20.0932 18.4618 19.3561L17.1665 18.0608C16.8736 17.7679 16.8736 17.2931 17.1665 17.0002C17.4594 16.7073 17.9342 16.7073 18.2271 17.0002L19.5509 18.324C20.2518 17.856 21.0941 17.5832 22.0001 17.5832C23.0042 17.5832 23.9301 17.9183 24.6719 18.4827L25.9884 17.1662C26.2813 16.8733 26.7562 16.8733 27.0491 17.1662C27.342 17.4591 27.342 17.934 27.0491 18.2269L25.6957 19.5803C26.1516 20.2753 26.4168 21.1066 26.4168 21.9999C26.4168 23.0075 26.0793 23.9364 25.5113 24.6796L26.7053 25.8736C26.9982 26.1665 26.9982 26.6413 26.7053 26.9342C26.4124 27.2271 25.9375 27.2271 25.6447 26.9342L24.4113 25.7009C23.7181 26.1535 22.8898 26.4165 22.0001 26.4165C20.9959 26.4165 20.0699 26.0814 19.3279 25.5168L18.025 26.8197C17.7322 27.1125 17.2573 27.1125 16.9644 26.8197C16.6715 26.5268 16.6715 26.0519 16.9644 25.759L18.3043 24.4191C17.8485 23.7242 17.5835 22.893 17.5835 21.9999ZM11.9168 30.9999C11.3185 30.9999 10.8335 31.4849 10.8335 32.0832C10.8335 32.6815 11.3185 33.1665 11.9168 33.1665C12.5151 33.1665 13.0001 32.6815 13.0001 32.0832C13.0001 31.4849 12.5151 30.9999 11.9168 30.9999ZM9.33346 32.0832C9.33346 30.6565 10.4901 29.4999 11.9168 29.4999C12.2999 29.4999 12.6635 29.5833 12.9905 29.7329L15.5395 27.1838C15.8324 26.8909 16.3073 26.8909 16.6002 27.1838C16.8931 27.4767 16.8931 27.9516 16.6002 28.2445L14.1166 30.7281C14.3598 31.1221 14.5001 31.5862 14.5001 32.0832C14.5001 33.5099 13.3435 34.6665 11.9168 34.6665C10.4901 34.6665 9.33346 33.5099 9.33346 32.0832ZM31.9689 33.0652C31.3706 33.0652 30.8855 32.5801 30.8855 31.9818C30.8855 31.3835 31.3706 30.8985 31.9689 30.8985C32.5672 30.8985 33.0522 31.3835 33.0522 31.9818C33.0522 32.5801 32.5672 33.0652 31.9689 33.0652ZM29.3855 31.9818C29.3855 33.4086 30.5421 34.5652 31.9689 34.5652C33.3956 34.5652 34.5522 33.4086 34.5522 31.9818C34.5522 30.5551 33.3956 29.3985 31.9689 29.3985C31.4719 29.3985 31.0077 29.5388 30.6138 29.782L28.1302 27.2984C27.8373 27.0055 27.3624 27.0055 27.0695 27.2984C26.7766 27.5913 26.7766 28.0662 27.0695 28.3591L29.6185 30.9081C29.4689 31.2351 29.3855 31.5987 29.3855 31.9818Z" fill="#252323"/>
<path d="M18.1057 5.5362C13.5224 5.5362 13.3089 10.5585 13.3089 10.5585" stroke="#252323" stroke-width="1.5" stroke-linecap="round" stroke-linejoin="round"/>
<path d="M10.2986 13.1346C5.71525 13.1346 5.50178 18.1569 5.50178 18.1569" stroke="#252323" stroke-width="1.5" stroke-linecap="round" stroke-linejoin="round"/>
<path d="M38.5131 18.1055C38.5131 13.5221 33.4908 13.3087 33.4908 13.3087" stroke="#252323" stroke-width="1.5" stroke-linecap="round" stroke-linejoin="round"/>
<path d="M30.9145 10.2986C30.9145 5.71525 25.8921 5.50178 25.8921 5.50178" stroke="#252323" stroke-width="1.5" stroke-linecap="round" stroke-linejoin="round"/>
<path d="M5.50007 25.8801C5.50007 30.4635 10.5224 30.6769 10.5224 30.6769" stroke="#252323" stroke-width="1.5" stroke-linecap="round" stroke-linejoin="round"/>
<path d="M13.0987 33.6873C13.0987 38.2706 18.121 38.4841 18.121 38.4841" stroke="#252323" stroke-width="1.5" stroke-linecap="round" stroke-linejoin="round"/>
<path d="M25.7656 38.3984C30.349 38.3984 30.5624 33.376 30.5624 33.376" stroke="#252323" stroke-width="1.5" stroke-linecap="round" stroke-linejoin="round"/>
<path d="M33.5728 30.7997C38.1561 30.7997 38.3696 25.7774 38.3696 25.7774" stroke="#252323" stroke-width="1.5" stroke-linecap="round" stroke-linejoin="round"/>
</g>
<defs>
<clipPath id="clip0_666_9762">
<rect width="44" height="44" fill="white"/>
</clipPath>
</defs>
</svg>
