<svg width="44" height="44" viewBox="0 0 44 44" fill="none" xmlns="http://www.w3.org/2000/svg">
<g clip-path="url(#clip0_1030_11629)">
<path fill-rule="evenodd" clip-rule="evenodd" d="M3.83325 11.9165C3.83325 11.5023 4.16904 11.1665 4.58325 11.1665H9.66376H13.9999C14.4141 11.1665 14.7499 11.5023 14.7499 11.9165C14.7499 12.3307 14.4141 12.6665 13.9999 12.6665H9.66376H4.58325C4.16904 12.6665 3.83325 12.3307 3.83325 11.9165ZM16.7499 11.9165C16.7499 11.5023 17.0857 11.1665 17.4999 11.1665H28.0228H39.4166C39.8308 11.1665 40.1666 11.5023 40.1666 11.9165C40.1666 12.3307 39.8308 12.6665 39.4166 12.6665H28.0228H17.4999C17.0857 12.6665 16.7499 12.3307 16.7499 11.9165ZM6.58325 13.9165C5.06447 13.9165 3.83325 15.1477 3.83325 16.6665V21.9998C3.83325 22.4141 4.16904 22.7498 4.58325 22.7498C4.99747 22.7498 5.33325 22.4141 5.33325 21.9998V16.6665C5.33325 15.9761 5.8929 15.4165 6.58325 15.4165H21.9999H37.4166C38.1069 15.4165 38.6666 15.9761 38.6666 16.6665V18.3332C38.6666 18.7474 39.0024 19.0832 39.4166 19.0832C39.8308 19.0832 40.1666 18.7474 40.1666 18.3332V16.6665C40.1666 15.1477 38.9354 13.9165 37.4166 13.9165H21.9999H6.58325ZM40.1666 21.9998C40.1666 21.5856 39.8308 21.2498 39.4166 21.2498C39.0024 21.2498 38.6666 21.5856 38.6666 21.9998V27.3332C38.6666 28.0235 38.1069 28.5832 37.4166 28.5832H13.2916H6.58325C5.8929 28.5832 5.33325 28.0235 5.33325 27.3332V25.6665C5.33325 25.2523 4.99747 24.9165 4.58325 24.9165C4.16904 24.9165 3.83325 25.2523 3.83325 25.6665V27.3332C3.83325 28.852 5.06447 30.0832 6.58325 30.0832H13.2916H37.4166C38.9354 30.0832 40.1666 28.852 40.1666 27.3332V21.9998ZM10.3138 17.7707C10.728 17.7707 11.0638 17.4349 11.0638 17.0207C11.0638 16.6065 10.728 16.2707 10.3138 16.2707C9.89961 16.2707 9.56382 16.6065 9.56382 17.0207C9.56382 17.4349 9.89961 17.7707 10.3138 17.7707ZM9.06242 19.5415C9.06242 19.9557 8.72663 20.2915 8.31242 20.2915C7.89821 20.2915 7.56242 19.9557 7.56242 19.5415C7.56242 19.1273 7.89821 18.7915 8.31242 18.7915C8.72663 18.7915 9.06242 19.1273 9.06242 19.5415ZM13.6458 19.5415C13.6458 19.9557 13.31 20.2915 12.8958 20.2915C12.4815 20.2915 12.1458 19.9557 12.1458 19.5415C12.1458 19.1273 12.4815 18.7915 12.8958 18.7915C13.31 18.7915 13.6458 19.1273 13.6458 19.5415ZM17.4791 20.2915C17.8933 20.2915 18.2291 19.9557 18.2291 19.5415C18.2291 19.1273 17.8933 18.7915 17.4791 18.7915C17.0649 18.7915 16.7291 19.1273 16.7291 19.5415C16.7291 19.9557 17.0649 20.2915 17.4791 20.2915ZM22.8124 19.5415C22.8124 19.9557 22.4766 20.2915 22.0624 20.2915C21.6482 20.2915 21.3124 19.9557 21.3124 19.5415C21.3124 19.1273 21.6482 18.7915 22.0624 18.7915C22.4766 18.7915 22.8124 19.1273 22.8124 19.5415ZM26.6458 20.2915C27.06 20.2915 27.3958 19.9557 27.3958 19.5415C27.3958 19.1273 27.06 18.7915 26.6458 18.7915C26.2315 18.7915 25.8958 19.1273 25.8958 19.5415C25.8958 19.9557 26.2315 20.2915 26.6458 20.2915ZM31.9791 19.5415C31.9791 19.9557 31.6433 20.2915 31.2291 20.2915C30.8149 20.2915 30.4791 19.9557 30.4791 19.5415C30.4791 19.1273 30.8149 18.7915 31.2291 18.7915C31.6433 18.7915 31.9791 19.1273 31.9791 19.5415ZM35.8124 20.2915C36.2266 20.2915 36.5624 19.9557 36.5624 19.5415C36.5624 19.1273 36.2266 18.7915 35.8124 18.7915C35.3982 18.7915 35.0624 19.1273 35.0624 19.5415C35.0624 19.9557 35.3982 20.2915 35.8124 20.2915ZM9.06242 24.5832C9.06242 24.9974 8.72663 25.3332 8.31242 25.3332C7.89821 25.3332 7.56242 24.9974 7.56242 24.5832C7.56242 24.169 7.89821 23.8332 8.31242 23.8332C8.72663 23.8332 9.06242 24.169 9.06242 24.5832ZM12.8958 25.3332C13.31 25.3332 13.6458 24.9974 13.6458 24.5832C13.6458 24.169 13.31 23.8332 12.8958 23.8332C12.4815 23.8332 12.1458 24.169 12.1458 24.5832C12.1458 24.9974 12.4815 25.3332 12.8958 25.3332ZM18.2291 24.5832C18.2291 24.9974 17.8933 25.3332 17.4791 25.3332C17.0649 25.3332 16.7291 24.9974 16.7291 24.5832C16.7291 24.169 17.0649 23.8332 17.4791 23.8332C17.8933 23.8332 18.2291 24.169 18.2291 24.5832ZM22.0624 25.3332C22.4766 25.3332 22.8124 24.9974 22.8124 24.5832C22.8124 24.169 22.4766 23.8332 22.0624 23.8332C21.6482 23.8332 21.3124 24.169 21.3124 24.5832C21.3124 24.9974 21.6482 25.3332 22.0624 25.3332ZM27.3958 24.5832C27.3958 24.9974 27.06 25.3332 26.6458 25.3332C26.2315 25.3332 25.8958 24.9974 25.8958 24.5832C25.8958 24.169 26.2315 23.8332 26.6458 23.8332C27.06 23.8332 27.3958 24.169 27.3958 24.5832ZM31.2291 25.3332C31.6433 25.3332 31.9791 24.9974 31.9791 24.5832C31.9791 24.169 31.6433 23.8332 31.2291 23.8332C30.8149 23.8332 30.4791 24.169 30.4791 24.5832C30.4791 24.9974 30.8149 25.3332 31.2291 25.3332ZM36.5624 24.5832C36.5624 24.9974 36.2266 25.3332 35.8124 25.3332C35.3982 25.3332 35.0624 24.9974 35.0624 24.5832C35.0624 24.169 35.3982 23.8332 35.8124 23.8332C36.2266 23.8332 36.5624 24.169 36.5624 24.5832ZM15.6472 17.0207C15.6472 17.4349 15.3114 17.7707 14.8972 17.7707C14.4829 17.7707 14.1472 17.4349 14.1472 17.0207C14.1472 16.6065 14.4829 16.2707 14.8972 16.2707C15.3114 16.2707 15.6472 16.6065 15.6472 17.0207ZM19.4805 17.7707C19.8947 17.7707 20.2305 17.4349 20.2305 17.0207C20.2305 16.6065 19.8947 16.2707 19.4805 16.2707C19.0663 16.2707 18.7305 16.6065 18.7305 17.0207C18.7305 17.4349 19.0663 17.7707 19.4805 17.7707ZM24.8138 17.0207C24.8138 17.4349 24.478 17.7707 24.0638 17.7707C23.6496 17.7707 23.3138 17.4349 23.3138 17.0207C23.3138 16.6065 23.6496 16.2707 24.0638 16.2707C24.478 16.2707 24.8138 16.6065 24.8138 17.0207ZM28.6472 17.7707C29.0614 17.7707 29.3972 17.4349 29.3972 17.0207C29.3972 16.6065 29.0614 16.2707 28.6472 16.2707C28.2329 16.2707 27.8972 16.6065 27.8972 17.0207C27.8972 17.4349 28.2329 17.7707 28.6472 17.7707ZM33.9805 17.0207C33.9805 17.4349 33.6447 17.7707 33.2305 17.7707C32.8163 17.7707 32.4805 17.4349 32.4805 17.0207C32.4805 16.6065 32.8163 16.2707 33.2305 16.2707C33.6447 16.2707 33.9805 16.6065 33.9805 17.0207ZM10.3138 22.8123C10.728 22.8123 11.0638 22.4766 11.0638 22.0623C11.0638 21.6481 10.728 21.3123 10.3138 21.3123C9.89961 21.3123 9.56382 21.6481 9.56382 22.0623C9.56382 22.4766 9.89961 22.8123 10.3138 22.8123ZM15.6472 22.0623C15.6472 22.4766 15.3114 22.8123 14.8972 22.8123C14.4829 22.8123 14.1472 22.4766 14.1472 22.0623C14.1472 21.6481 14.4829 21.3123 14.8972 21.3123C15.3114 21.3123 15.6472 21.6481 15.6472 22.0623ZM19.4805 22.8123C19.8947 22.8123 20.2305 22.4766 20.2305 22.0623C20.2305 21.6481 19.8947 21.3123 19.4805 21.3123C19.0663 21.3123 18.7305 21.6481 18.7305 22.0623C18.7305 22.4766 19.0663 22.8123 19.4805 22.8123ZM24.8138 22.0623C24.8138 22.4766 24.478 22.8123 24.0638 22.8123C23.6496 22.8123 23.3138 22.4766 23.3138 22.0623C23.3138 21.6481 23.6496 21.3123 24.0638 21.3123C24.478 21.3123 24.8138 21.6481 24.8138 22.0623ZM28.6472 22.8123C29.0614 22.8123 29.3972 22.4766 29.3972 22.0623C29.3972 21.6481 29.0614 21.3123 28.6472 21.3123C28.2329 21.3123 27.8972 21.6481 27.8972 22.0623C27.8972 22.4766 28.2329 22.8123 28.6472 22.8123ZM33.9805 22.0623C33.9805 22.4766 33.6447 22.8123 33.2305 22.8123C32.8163 22.8123 32.4805 22.4766 32.4805 22.0623C32.4805 21.6481 32.8163 21.3123 33.2305 21.3123C33.6447 21.3123 33.9805 21.6481 33.9805 22.0623ZM10.3138 27.854C10.728 27.854 11.0638 27.5182 11.0638 27.104C11.0638 26.6898 10.728 26.354 10.3138 26.354C9.89961 26.354 9.56382 26.6898 9.56382 27.104C9.56382 27.5182 9.89961 27.854 10.3138 27.854ZM15.6472 27.104C15.6472 27.5182 15.3114 27.854 14.8972 27.854C14.4829 27.854 14.1472 27.5182 14.1472 27.104C14.1472 26.6898 14.4829 26.354 14.8972 26.354C15.3114 26.354 15.6472 26.6898 15.6472 27.104ZM19.4805 27.854C19.8947 27.854 20.2305 27.5182 20.2305 27.104C20.2305 26.6898 19.8947 26.354 19.4805 26.354C19.0663 26.354 18.7305 26.6898 18.7305 27.104C18.7305 27.5182 19.0663 27.854 19.4805 27.854ZM24.8138 27.104C24.8138 27.5182 24.478 27.854 24.0638 27.854C23.6496 27.854 23.3138 27.5182 23.3138 27.104C23.3138 26.6898 23.6496 26.354 24.0638 26.354C24.478 26.354 24.8138 26.6898 24.8138 27.104ZM28.6472 27.854C29.0614 27.854 29.3972 27.5182 29.3972 27.104C29.3972 26.6898 29.0614 26.354 28.6472 26.354C28.2329 26.354 27.8972 26.6898 27.8972 27.104C27.8972 27.5182 28.2329 27.854 28.6472 27.854ZM33.9805 27.104C33.9805 27.5182 33.6447 27.854 33.2305 27.854C32.8163 27.854 32.4805 27.5182 32.4805 27.104C32.4805 26.6898 32.8163 26.354 33.2305 26.354C33.6447 26.354 33.9805 26.6898 33.9805 27.104ZM4.58325 31.3332C4.16904 31.3332 3.83325 31.669 3.83325 32.0832C3.83325 32.4974 4.16904 32.8332 4.58325 32.8332H4.63081H4.67823H4.72553H4.77269H4.81972H4.86662H4.91339H4.96003H5.00654H5.05292H5.09918H5.1453H5.1913H5.23718H5.28292H5.32854H5.37404H5.41941H5.46465H5.50977H5.55477H5.59965H5.6444H5.68903H5.73354H5.77792H5.82219H5.86634H5.91036H5.95427H5.99806H6.04173H6.08528H6.12871H6.17203H6.21523H6.25832H6.30129H6.34414H6.38688H6.42951H6.47202H6.51442H6.5567H6.59887H6.64093H6.68288H6.72472H6.76645H6.80807H6.84958H6.89098H6.93227H6.97345H7.01453H7.0555H7.09636H7.13712H7.17777H7.21831H7.25875H7.29908H7.33932H7.37944H7.41947H7.45939H7.49921H7.53893H7.57855H7.61806H7.65748H7.6968H7.73602H7.77513H7.81415H7.85308H7.8919H7.93063H7.96926H8.0078H8.04624H8.08459H8.12284H8.16099H8.19906H8.23703H8.2749H8.31269H8.35038H8.38799H8.4255H8.46292H8.50025H8.53749H8.57464H8.61171H8.64868H8.68557H8.72237H8.75909H8.79572H8.83226H8.86872H8.90509H8.94138H8.97758H9.0137H9.04974H9.0857H9.12157H9.15737H9.19308H9.22871H9.26426H9.29973H9.33512H9.37044H9.40567H9.44083H9.47591H9.51091H9.54584H9.58069H9.61547H9.65017H9.68479H9.71935H9.75382H9.78823H9.82256H9.85682H9.89101H9.92513H9.95918H9.99316H10.0271H10.0609H10.0947H10.1284H10.162H10.1956H10.2291H10.2625H10.2959H10.3292H10.3624H10.3956H10.4287H10.4617H10.4947H10.5276H10.5605H10.5933H10.626H10.6587H10.6913H10.7238H10.7563H10.7887H10.8211H10.8534H10.8857H10.9179H10.95H10.9821H11.0141H11.0461H11.078H11.1099H11.1417H11.1735H11.2052H11.2368H11.2684H11.3H11.3315H11.3629H11.3943H11.4257H11.457H11.4882H11.5194H11.5506H11.5817H11.6127H11.6437H11.6747H11.7056H11.7365H11.7673H11.7981H11.8289H11.8596H11.8902H11.9208H11.9514H11.9819H12.0124H12.0429H12.0733H12.1037H12.134H12.1643H12.1945H12.2248H12.2549H12.2851H12.3152H12.3453H12.3753H12.4053H12.4353H12.4652H12.4951H12.525H12.5548H12.5846H12.6144H12.6441H12.6738H12.7035H12.7332H12.7628H12.7924H12.822H12.8515H12.881H12.9105H12.9399H12.9694H12.9988H13.0282H13.0575H13.0868H13.1161H13.1454H13.1747H13.2039H13.2332H13.2624H13.2915H13.3207H13.3498H13.3789H13.408H13.4371H13.4662H13.4952H13.5242H13.5533H13.5823H13.6112H13.6402H13.6691H13.6981H13.727H13.7559H13.7848H13.8137H13.8426H13.8714H13.9003H13.9291H13.9579H13.9867H14.0156H14.0444H14.0732H14.1019H14.1307H14.1595H14.1882H14.217H14.2458H14.2745H14.3033H14.332H14.3607H14.3895H14.4182H14.4469H14.4757H14.5044H14.5331H14.5618H14.5906H14.6193H14.648H14.6767H14.7055H14.7342H14.7629H14.7917H14.8204H14.8492H14.8779H14.9067H14.9355H14.9642H14.993H15.0218H15.0506H15.0794H15.1082H15.137H15.1658H15.1947H15.2235H15.2524H15.2813H15.3101H15.339H15.368H15.3969H15.4258H15.4548H15.4837H15.5127H15.5417H15.5707H15.5997H15.6288H15.6579H15.6869H15.716H15.7452H15.7743H15.8035H15.8326H15.8618H15.8911H15.9203H15.9496H15.9789H16.0082H16.0375H16.0669H16.0962H16.1256H16.1551H16.1845H16.214H16.2435H16.2731H16.3026H16.3322H16.3619H16.3915H16.4212H16.4509H16.4807H16.5104H16.5402H16.5701H16.6H16.6299H16.6598H16.6898H16.7198H16.7498H16.7799H16.81H16.8402H16.8703H16.9006H16.9308H16.9611H16.9915H17.0218H17.0522H17.0827H17.1132H17.1437H17.1743H17.2049H17.2356H17.2663H17.297H17.3278H17.3587H17.3896H17.4205H17.4515H17.4825H17.5135H17.5446H17.5758H17.607H17.6383H17.6696H17.7009H17.7323H17.7638H17.7953H17.8268H17.8584H17.8901H17.9218H17.9536H17.9854H18.0173H18.0492H18.0812H18.1132H18.1453H18.1774H18.2096H18.2419H18.2742H18.3066H18.339H18.3715H18.4041H18.4367H18.4694H18.5021H18.5349H18.5678H18.6007H18.6337H18.6667H18.6999H18.733H18.7663H18.7996H18.833H18.8664H18.8999H18.9335H18.9671H19.0008H19.0346H19.0684H19.1024H19.1363H19.1704H19.2045H19.2387H19.273H19.3073H19.3417H19.3762H19.4108H19.4454H19.4801H19.5149H19.5498H19.5847H19.6197H19.6548H19.69H19.7252H19.7605H19.7959H19.8314H19.867H19.9026H19.9384H19.9742H20.01H20.046H20.082H20.1182H20.1544H20.1907H20.2271H20.2635H20.3001H20.3367H20.3735H20.4103H20.4472H20.4841H20.5212H20.5584H20.5956H20.633H20.6704H20.7079H20.7455H20.7832H20.821H20.8589H20.8969H20.935H20.9732H21.0114H21.0498H21.0882H21.1268H21.1654H21.2041H21.243H21.2819H21.321H21.3601H21.3993H21.4386H21.4781H21.5176H21.5572H21.597H21.6368H21.6767H21.7168H21.7569H21.7971H21.8375H21.8779H21.9185H21.9592H21.9999H26.9999C27.4141 32.8332 27.7499 32.4974 27.7499 32.0832C27.7499 31.669 27.4141 31.3332 26.9999 31.3332H21.9999H21.9592H21.9185H21.8779H21.8375H21.7971H21.7569H21.7168H21.6767H21.6368H21.597H21.5572H21.5176H21.4781H21.4386H21.3993H21.3601H21.321H21.2819H21.243H21.2041H21.1654H21.1268H21.0882H21.0498H21.0114H20.9732H20.935H20.8969H20.8589H20.821H20.7832H20.7455H20.7079H20.6704H20.633H20.5956H20.5584H20.5212H20.4841H20.4472H20.4103H20.3735H20.3367H20.3001H20.2635H20.2271H20.1907H20.1544H20.1182H20.082H20.046H20.01H19.9742H19.9384H19.9026H19.867H19.8314H19.7959H19.7605H19.7252H19.69H19.6548H19.6197H19.5847H19.5498H19.5149H19.4801H19.4454H19.4108H19.3762H19.3417H19.3073H19.273H19.2387H19.2045H19.1704H19.1363H19.1024H19.0684H19.0346H19.0008H18.9671H18.9335H18.8999H18.8664H18.833H18.7996H18.7663H18.733H18.6999H18.6667H18.6337H18.6007H18.5678H18.5349H18.5021H18.4694H18.4367H18.4041H18.3715H18.339H18.3066H18.2742H18.2419H18.2096H18.1774H18.1453H18.1132H18.0812H18.0492H18.0173H17.9854H17.9536H17.9218H17.8901H17.8584H17.8268H17.7953H17.7638H17.7323H17.7009H17.6696H17.6383H17.607H17.5758H17.5446H17.5135H17.4825H17.4515H17.4205H17.3896H17.3587H17.3278H17.297H17.2663H17.2356H17.2049H17.1743H17.1437H17.1132H17.0827H17.0522H17.0218H16.9915H16.9611H16.9308H16.9006H16.8703H16.8402H16.81H16.7799H16.7498H16.7198H16.6898H16.6598H16.6299H16.6H16.5701H16.5402H16.5104H16.4807H16.4509H16.4212H16.3915H16.3619H16.3322H16.3026H16.2731H16.2435H16.214H16.1845H16.1551H16.1256H16.0962H16.0669H16.0375H16.0082H15.9789H15.9496H15.9203H15.8911H15.8618H15.8326H15.8035H15.7743H15.7452H15.716H15.6869H15.6579H15.6288H15.5997H15.5707H15.5417H15.5127H15.4837H15.4548H15.4258H15.3969H15.368H15.339H15.3101H15.2813H15.2524H15.2235H15.1947H15.1658H15.137H15.1082H15.0794H15.0506H15.0218H14.993H14.9642H14.9355H14.9067H14.8779H14.8492H14.8204H14.7917H14.7629H14.7342H14.7055H14.6767H14.648H14.6193H14.5906H14.5618H14.5331H14.5044H14.4757H14.4469H14.4182H14.3895H14.3607H14.332H14.3033H14.2745H14.2458H14.217H14.1882H14.1595H14.1307H14.1019H14.0732H14.0444H14.0156H13.9867H13.9579H13.9291H13.9003H13.8714H13.8426H13.8137H13.7848H13.7559H13.727H13.6981H13.6691H13.6402H13.6112H13.5823H13.5533H13.5242H13.4952H13.4662H13.4371H13.408H13.3789H13.3498H13.3207H13.2915H13.2624H13.2332H13.2039H13.1747H13.1454H13.1161H13.0868H13.0575H13.0282H12.9988H12.9694H12.9399H12.9105H12.881H12.8515H12.822H12.7924H12.7628H12.7332H12.7035H12.6738H12.6441H12.6144H12.5846H12.5548H12.525H12.4951H12.4652H12.4353H12.4053H12.3753H12.3453H12.3152H12.2851H12.2549H12.2248H12.1945H12.1643H12.134H12.1037H12.0733H12.0429H12.0124H11.9819H11.9514H11.9208H11.8902H11.8596H11.8289H11.7981H11.7673H11.7365H11.7056H11.6747H11.6437H11.6127H11.5817H11.5506H11.5194H11.4882H11.457H11.4257H11.3943H11.3629H11.3315H11.3H11.2684H11.2368H11.2052H11.1735H11.1417H11.1099H11.078H11.0461H11.0141H10.9821H10.95H10.9179H10.8857H10.8534H10.8211H10.7887H10.7563H10.7238H10.6913H10.6587H10.626H10.5933H10.5605H10.5276H10.4947H10.4617H10.4287H10.3956H10.3624H10.3292H10.2959H10.2625H10.2291H10.1956H10.162H10.1284H10.0947H10.0609H10.0271H9.99316H9.95918H9.92513H9.89101H9.85682H9.82256H9.78823H9.75382H9.71935H9.68479H9.65017H9.61547H9.58069H9.54584H9.51091H9.47591H9.44083H9.40567H9.37044H9.33512H9.29973H9.26426H9.22871H9.19308H9.15737H9.12157H9.0857H9.04974H9.0137H8.97758H8.94138H8.90509H8.86872H8.83226H8.79572H8.75909H8.72237H8.68557H8.64868H8.61171H8.57464H8.53749H8.50025H8.46292H8.4255H8.38799H8.35038H8.31269H8.2749H8.23703H8.19906H8.16099H8.12284H8.08459H8.04624H8.0078H7.96926H7.93063H7.8919H7.85308H7.81415H7.77513H7.73602H7.6968H7.65748H7.61806H7.57855H7.53893H7.49921H7.45939H7.41947H7.37944H7.33932H7.29908H7.25875H7.21831H7.17777H7.13712H7.09636H7.0555H7.01453H6.97345H6.93227H6.89098H6.84958H6.80807H6.76645H6.72472H6.68288H6.64093H6.59887H6.5567H6.51442H6.47202H6.42951H6.38688H6.34414H6.30129H6.25832H6.21523H6.17203H6.12871H6.08528H6.04173H5.99806H5.95427H5.91036H5.86634H5.82219H5.77792H5.73354H5.68903H5.6444H5.59965H5.55477H5.50977H5.46465H5.41941H5.37404H5.32854H5.28292H5.23718H5.1913H5.1453H5.09918H5.05292H5.00654H4.96003H4.91339H4.86662H4.81972H4.77269H4.72553H4.67823H4.63081H4.58325ZM31.9999 31.3332C31.5857 31.3332 31.2499 31.669 31.2499 32.0832C31.2499 32.4974 31.5857 32.8332 31.9999 32.8332H32.0116H32.0234H32.0352H32.047H32.0588H32.0706H32.0824H32.0942H32.106H32.1178H32.1297H32.1415H32.1534H32.1652H32.1771H32.1889H32.2008H32.2127H32.2245H32.2364H32.2483H32.2602H32.2721H32.2841H32.296H32.3079H32.3198H32.3318H32.3437H32.3557H32.3677H32.3796H32.3916H32.4036H32.4156H32.4276H32.4396H32.4516H32.4636H32.4756H32.4877H32.4997H32.5117H32.5238H32.5359H32.5479H32.56H32.5721H32.5842H32.5963H32.6084H32.6205H32.6326H32.6447H32.6569H32.669H32.6812H32.6933H32.7055H32.7177H32.7298H32.742H32.7542H32.7664H32.7786H32.7909H32.8031H32.8153H32.8276H32.8398H32.8521H32.8643H32.8766H32.8889H32.9012H32.9135H32.9258H32.9381H32.9504H32.9628H32.9751H32.9874H32.9998H33.0122H33.0245H33.0369H33.0493H33.0617H33.0741H33.0865H33.0989H33.1114H33.1238H33.1363H33.1487H33.1612H33.1737H33.1861H33.1986H33.2111H33.2236H33.2362H33.2487H33.2612H33.2738H33.2863H33.2989H33.3115H33.324H33.3366H33.3492H33.3618H33.3744H33.3871H33.3997H33.4123H33.425H33.4377H33.4503H33.463H33.4757H33.4884H33.5011H33.5138H33.5265H33.5393H33.552H33.5648H33.5775H33.5903H33.6031H33.6159H33.6287H33.6415H33.6543H33.6672H33.68H33.6928H33.7057H33.7186H33.7315H33.7443H33.7572H33.7702H33.7831H33.796H33.8089H33.8219H33.8348H33.8478H33.8608H33.8738H33.8868H33.8998H33.9128H33.9258H33.9389H33.9519H33.965H33.9781H33.9911H34.0042H34.0173H34.0305H34.0436H34.0567H34.0699H34.083H34.0962H34.1094H34.1225H34.1357H34.1489H34.1622H34.1754H34.1886H34.2019H34.2151H34.2284H34.2417H34.255H34.2683H34.2816H34.2949H34.3083H34.3216H34.335H34.3484H34.3617H34.3751H34.3885H34.4019H34.4154H34.4288H34.4423H34.4557H34.4692H34.4827H34.4962H34.5097H34.5232H34.5367H34.5503H34.5638H34.5774H34.5909H34.6045H34.6181H34.6317H34.6454H34.659H34.6726H34.6863H34.7H34.7136H34.7273H34.741H34.7547H34.7685H34.7822H34.796H34.8097H34.8235H34.8373H34.8511H34.8649H34.8787H34.8926H34.9064H34.9203H34.9341H34.948H34.9619H34.9758H34.9897H35.0037H35.0176H35.0316H35.0456H35.0595H35.0735H35.0875H35.1016H35.1156H35.1296H35.1437H35.1578H35.1719H35.186H35.2001H35.2142H35.2283H35.2425H35.2566H35.2708H35.285H35.2992H35.3134H35.3276H35.3419H35.3561H35.3704H35.3846H35.3989H35.4132H35.4276H35.4419H35.4562H35.4706H35.485H35.4993H35.5137H35.5281H35.5426H35.557H35.5715H35.5859H35.6004H35.6149H35.6294H35.6439H35.6584H35.673H35.6875H35.7021H35.7167H35.7313H35.7459H35.7605H35.7752H35.7898H35.8045H35.8192H35.8339H35.8486H35.8633H35.878H35.8928H35.9076H35.9223H35.9371H35.9519H35.9668H35.9816H35.9964H36.0113H36.0262H36.0411H36.056H36.0709H36.0858H36.1008H36.1158H36.1307H36.1457H36.1608H36.1758H36.1908H36.2059H36.2209H36.236H36.2511H36.2662H36.2813H36.2965H36.3116H36.3268H36.342H36.3572H36.3724H36.3876H36.4029H36.4181H36.4334H36.4487H36.464H36.4793H36.4947H36.51H36.5254H36.5408H36.5561H36.5716H36.587H36.6024H36.6179H36.6334H36.6488H36.6643H36.6799H36.6954H36.7109H36.7265H36.7421H36.7577H36.7733H36.7889H36.8046H36.8202H36.8359H36.8516H36.8673H36.883H36.8987H36.9145H36.9303H36.946H36.9618H36.9777H36.9935H37.0093H37.0252H37.0411H37.057H37.0729H37.0888H37.1048H37.1207H37.1367H37.1527H37.1687H37.1847H37.2008H37.2168H37.2329H37.249H37.2651H37.2812H37.2974H37.3135H37.3297H37.3459H37.3621H37.3783H37.3945H37.4108H37.4271H37.4434H37.4597H37.476H37.4923H37.5087H37.525H37.5414H37.5578H37.5743H37.5907H37.6072H37.6236H37.6401H37.6566H37.6732H37.6897H37.7063H37.7228H37.7394H37.7561H37.7727H37.7893H37.806H37.8227H37.8394H37.8561H37.8728H37.8896H37.9063H37.9231H37.9399H37.9567H37.9736H37.9904H38.0073H38.0242H38.0411H38.058H38.075H38.0919H38.1089H38.1259H38.1429H38.16H38.177H38.1941H38.2112H38.2283H38.2454H38.2625H38.2797H38.2969H38.3141H38.3313H38.3485H38.3658H38.383H38.4003H38.4176H38.4349H38.4523H38.4696H38.487H38.5044H38.5218H38.5392H38.5567H38.5742H38.5917H38.6092H38.6267H38.6442H38.6618H38.6794H38.697H38.7146H38.7322H38.7499H38.7676H38.7853H38.803H38.8207H38.8384H38.8562H38.874H38.8918H38.9096H38.9275H38.9453H38.9632H38.9811H38.9991H39.017H39.035H39.0529H39.0709H39.0889H39.107H39.125H39.1431H39.1612H39.1793H39.1975H39.2156H39.2338H39.252H39.2702H39.2884H39.3067H39.3249H39.3432H39.3615H39.3799H39.3982H39.4166C39.8308 32.8332 40.1666 32.4974 40.1666 32.0832C40.1666 31.669 39.8308 31.3332 39.4166 31.3332H39.3982H39.3799H39.3615H39.3432H39.3249H39.3067H39.2884H39.2702H39.252H39.2338H39.2156H39.1975H39.1793H39.1612H39.1431H39.125H39.107H39.0889H39.0709H39.0529H39.035H39.017H38.9991H38.9811H38.9632H38.9453H38.9275H38.9096H38.8918H38.874H38.8562H38.8384H38.8207H38.803H38.7853H38.7676H38.7499H38.7322H38.7146H38.697H38.6794H38.6618H38.6442H38.6267H38.6092H38.5917H38.5742H38.5567H38.5392H38.5218H38.5044H38.487H38.4696H38.4523H38.4349H38.4176H38.4003H38.383H38.3658H38.3485H38.3313H38.3141H38.2969H38.2797H38.2625H38.2454H38.2283H38.2112H38.1941H38.177H38.16H38.1429H38.1259H38.1089H38.0919H38.075H38.058H38.0411H38.0242H38.0073H37.9904H37.9736H37.9567H37.9399H37.9231H37.9063H37.8896H37.8728H37.8561H37.8394H37.8227H37.806H37.7893H37.7727H37.7561H37.7394H37.7228H37.7063H37.6897H37.6732H37.6566H37.6401H37.6236H37.6072H37.5907H37.5743H37.5578H37.5414H37.525H37.5087H37.4923H37.476H37.4597H37.4434H37.4271H37.4108H37.3945H37.3783H37.3621H37.3459H37.3297H37.3135H37.2974H37.2812H37.2651H37.249H37.2329H37.2168H37.2008H37.1847H37.1687H37.1527H37.1367H37.1207H37.1048H37.0888H37.0729H37.057H37.0411H37.0252H37.0093H36.9935H36.9777H36.9618H36.946H36.9303H36.9145H36.8987H36.883H36.8673H36.8516H36.8359H36.8202H36.8046H36.7889H36.7733H36.7577H36.7421H36.7265H36.7109H36.6954H36.6799H36.6643H36.6488H36.6334H36.6179H36.6024H36.587H36.5716H36.5561H36.5408H36.5254H36.51H36.4947H36.4793H36.464H36.4487H36.4334H36.4181H36.4029H36.3876H36.3724H36.3572H36.342H36.3268H36.3116H36.2965H36.2813H36.2662H36.2511H36.236H36.2209H36.2059H36.1908H36.1758H36.1608H36.1457H36.1307H36.1158H36.1008H36.0858H36.0709H36.056H36.0411H36.0262H36.0113H35.9964H35.9816H35.9668H35.9519H35.9371H35.9223H35.9076H35.8928H35.878H35.8633H35.8486H35.8339H35.8192H35.8045H35.7898H35.7752H35.7605H35.7459H35.7313H35.7167H35.7021H35.6875H35.673H35.6584H35.6439H35.6294H35.6149H35.6004H35.5859H35.5715H35.557H35.5426H35.5281H35.5137H35.4993H35.485H35.4706H35.4562H35.4419H35.4276H35.4132H35.3989H35.3846H35.3704H35.3561H35.3419H35.3276H35.3134H35.2992H35.285H35.2708H35.2566H35.2425H35.2283H35.2142H35.2001H35.186H35.1719H35.1578H35.1437H35.1296H35.1156H35.1016H35.0875H35.0735H35.0595H35.0456H35.0316H35.0176H35.0037H34.9897H34.9758H34.9619H34.948H34.9341H34.9203H34.9064H34.8926H34.8787H34.8649H34.8511H34.8373H34.8235H34.8097H34.796H34.7822H34.7685H34.7547H34.741H34.7273H34.7136H34.7H34.6863H34.6726H34.659H34.6454H34.6317H34.6181H34.6045H34.5909H34.5774H34.5638H34.5503H34.5367H34.5232H34.5097H34.4962H34.4827H34.4692H34.4557H34.4423H34.4288H34.4154H34.4019H34.3885H34.3751H34.3617H34.3484H34.335H34.3216H34.3083H34.2949H34.2816H34.2683H34.255H34.2417H34.2284H34.2151H34.2019H34.1886H34.1754H34.1622H34.1489H34.1357H34.1225H34.1094H34.0962H34.083H34.0699H34.0567H34.0436H34.0305H34.0173H34.0042H33.9911H33.9781H33.965H33.9519H33.9389H33.9258H33.9128H33.8998H33.8868H33.8738H33.8608H33.8478H33.8348H33.8219H33.8089H33.796H33.7831H33.7702H33.7572H33.7443H33.7315H33.7186H33.7057H33.6928H33.68H33.6672H33.6543H33.6415H33.6287H33.6159H33.6031H33.5903H33.5775H33.5648H33.552H33.5393H33.5265H33.5138H33.5011H33.4884H33.4757H33.463H33.4503H33.4377H33.425H33.4123H33.3997H33.3871H33.3744H33.3618H33.3492H33.3366H33.324H33.3115H33.2989H33.2863H33.2738H33.2612H33.2487H33.2362H33.2236H33.2111H33.1986H33.1861H33.1737H33.1612H33.1487H33.1363H33.1238H33.1114H33.0989H33.0865H33.0741H33.0617H33.0493H33.0369H33.0245H33.0122H32.9998H32.9874H32.9751H32.9628H32.9504H32.9381H32.9258H32.9135H32.9012H32.8889H32.8766H32.8643H32.8521H32.8398H32.8276H32.8153H32.8031H32.7909H32.7786H32.7664H32.7542H32.742H32.7298H32.7177H32.7055H32.6933H32.6812H32.669H32.6569H32.6447H32.6326H32.6205H32.6084H32.5963H32.5842H32.5721H32.56H32.5479H32.5359H32.5238H32.5117H32.4997H32.4877H32.4756H32.4636H32.4516H32.4396H32.4276H32.4156H32.4036H32.3916H32.3796H32.3677H32.3557H32.3437H32.3318H32.3198H32.3079H32.296H32.2841H32.2721H32.2602H32.2483H32.2364H32.2245H32.2127H32.2008H32.1889H32.1771H32.1652H32.1534H32.1415H32.1297H32.1178H32.106H32.0942H32.0824H32.0706H32.0588H32.047H32.0352H32.0234H32.0116H31.9999Z" fill="#332A2A"/>
</g>
<defs>
<clipPath id="clip0_1030_11629">
<rect width="44" height="44" fill="white"/>
</clipPath>
</defs>
</svg>
