<svg width="28" height="28" viewBox="0 0 28 28" fill="none" xmlns="http://www.w3.org/2000/svg">
<g clip-path="url(#clip0_1030_11670)">
<path fill-rule="evenodd" clip-rule="evenodd" d="M2.16675 6.5835C2.16675 6.16928 2.50253 5.8335 2.91675 5.8335H2.93116H2.9456H2.96006H2.97455H2.98907H3.00361H3.01818H3.03278H3.0474H3.06204H3.07671H3.09141H3.10613H3.12087H3.13564H3.15044H3.16526H3.1801H3.19497H3.20986H3.22477H3.23971H3.25467H3.26966H3.28466H3.2997H3.31475H3.32983H3.34493H3.36005H3.37519H3.39036H3.40555H3.42076H3.43599H3.45124H3.46652H3.48181H3.49713H3.51247H3.52783H3.5432H3.5586H3.57403H3.58947H3.60493H3.62041H3.63591H3.65143H3.66697H3.68253H3.6981H3.7137H3.72932H3.74495H3.7606H3.77628H3.79197H3.80767H3.8234H3.83915H3.85491H3.87069H3.88648H3.9023H3.91813H3.93398H3.94984H3.96572H3.98162H3.99754H4.01347H4.02942H4.04538H4.06136H4.07735H4.09336H4.10939H4.12543H4.14148H4.15756H4.17364H4.18974H4.20586H4.22199H4.23813H4.25429H4.27046H4.28664H4.30284H4.31905H4.33528H4.35152H4.36777H4.38403H4.40031H4.4166H4.4329H4.44922H4.46554H4.48188H4.49823H4.51459H4.53097H4.54735H4.56375H4.58016H4.59658H4.613H4.62944H4.6459H4.66236H4.67883H4.69531H4.7118H4.7283H4.74481H4.76133H4.77786H4.7944H4.81095H4.8275H4.84407H4.86064H4.87723H4.89382H4.91042H4.92702H4.94364H4.96026H4.97689H4.99353H5.01017H5.02682H5.04348H5.06015H5.07682H5.0935H5.11019H5.12688H5.14358H5.16028H5.17699H5.19371H5.21043H5.22715H5.24389H5.26062H5.27736H5.29411H5.31086H5.32762H5.34438H5.36114H5.37791H5.39468H5.41146H5.42824H5.44502H5.46181H5.4786H5.49539H5.51218H5.52898H5.54578H5.56259H5.57939H5.5962H5.61301H5.62982H5.64663H5.66345H5.68026H5.69708H5.7139H5.73072H5.74754H5.76436H5.78118H5.79801H5.81483H5.83165H5.84847H5.86529H5.88212H5.89894H5.91576H5.93258H5.9494H5.96621H5.98303H5.99985H6.01666H6.03347H6.05028H6.06709H6.0839H6.1007H6.1175H6.1343H6.1511H6.16789H6.18468H6.20147H6.21825H6.23503H6.25181H6.26858H6.28535H6.30212H6.31888H6.33564H6.35239H6.36914H6.38588H6.40262H6.41935H6.43608H6.4528H6.46952H6.48623H6.50294H6.51964H6.53633H6.55302H6.5697H6.58637H6.60304H6.6197H6.63635H6.653H6.66964H6.68627H6.7029H6.71952H6.73612H6.75273H6.76932H6.7859H6.80248H6.81905H6.83561H6.85216H6.8687H6.88523H6.90175H6.91827H6.93477H6.95127H6.96775H6.98422H7.00069H7.01714H7.03358H7.05002H7.06644H7.08285H7.09925H7.11564H7.13201H7.14838H7.16473H7.18108H7.19741H7.21372H7.23003H7.24632H7.2626H7.27887H7.29513H7.31137H7.3276H7.34381H7.36002H7.37621H7.39238H7.40854H7.42469H7.44082H7.45694H7.47305H7.48914H7.50521H7.52127H7.53732H7.55335H7.56936H7.58536H7.60134H7.61731H7.63326H7.6492H7.66512H7.68102H7.69691H7.71278H7.72863H7.74447H7.76029H7.77609H7.79187H7.80764H7.82339H7.83912H7.85483H7.87053H7.88621H7.90187H7.91751H7.93313H7.94873H7.96431H7.97988H7.99542H8.01095H8.02645H8.04194H8.05741H8.07285H8.08828H8.10369H8.11907H8.13444H8.14978H8.1651H8.1804H8.19569H8.21094H8.22618H8.2414H8.25659H8.27177H8.28692H8.30204H8.31715H8.33223H8.34729H8.36233H8.37735H8.39234H8.40731H8.42225H8.43717H8.45207H8.46695H8.48179H8.49662H8.51142H8.5262H8.54095H8.55568H8.57038H8.58506H8.59971H8.61434H8.62894H8.64352H8.65807H8.67259H8.68709H8.70156H8.71601H8.73043H8.74482H8.75919H8.77353H8.78784H8.80212H8.81638H8.83061H8.84481H8.85899H8.87313H8.88725H8.90134H8.9154H8.92943H8.94344H8.95741H8.97136H8.98528H8.99917H9.01302H9.02685H9.04065H9.05442H9.06816H9.08187H9.09555H9.1092H9.12281H9.1364H9.14996H9.16348H9.17698H9.19044H9.20387H9.21727H9.23064H9.24397H9.25727H9.27055H9.28378H9.29699H9.31016H9.32331H9.33641H9.34949H9.36253H9.37554H9.38851H9.40145H9.41436H9.42723H9.44007H9.45288H9.46565H9.47838H9.49108H9.50375H9.51638H9.52898H9.54154H9.55406H9.56655H9.579H9.59142H9.6038H9.61615H9.62846H9.64073H9.65297H9.66517H9.67733H9.68945H9.70154H9.71359H9.7256H9.73758H9.74952H9.76142H9.77328H9.7851H9.79689H9.80863H9.82034H9.83201H9.84364H9.85523H9.86678H9.87829H9.88977H9.9012H9.91259H9.92394H9.93526H9.94653H9.95776H9.96895H9.9801H9.99121H10.0023H10.0133H10.0243H10.0352H10.0461H10.057H10.0678H10.0786H10.0893H10.1H10.1107H10.1213H10.1318H10.1424H10.1528H10.1633H10.1737H10.184H10.1943H10.2046H10.2148H10.225H10.2351H10.2452H10.2552H10.2652H10.2752H10.2851H10.2949H10.3048H10.3145H10.3242H10.3339H10.3436H10.3531H10.3627H10.3722H10.3816H10.391H10.4004H10.4097H10.4189H10.4281H10.4373H10.4464H10.4555H10.4645H10.4735H10.4824H10.4913H10.5001C10.9143 5.8335 11.2501 6.16928 11.2501 6.5835C11.2501 6.99771 10.9143 7.3335 10.5001 7.3335H10.4913H10.4824H10.4735H10.4645H10.4555H10.4464H10.4373H10.4281H10.4189H10.4097H10.4004H10.391H10.3816H10.3722H10.3627H10.3531H10.3436H10.3339H10.3242H10.3145H10.3048H10.2949H10.2851H10.2752H10.2652H10.2552H10.2452H10.2351H10.225H10.2148H10.2046H10.1943H10.184H10.1737H10.1633H10.1528H10.1424H10.1318H10.1213H10.1107H10.1H10.0893H10.0786H10.0678H10.057H10.0461H10.0352H10.0243H10.0133H10.0023H9.99121H9.9801H9.96895H9.95776H9.94653H9.93526H9.92394H9.91259H9.9012H9.88977H9.87829H9.86678H9.85523H9.84364H9.83201H9.82034H9.80863H9.79689H9.7851H9.77328H9.76142H9.74952H9.73758H9.7256H9.71359H9.70154H9.68945H9.67733H9.66517H9.65297H9.64073H9.62846H9.61615H9.6038H9.59142H9.579H9.56655H9.55406H9.54154H9.52898H9.51638H9.50375H9.49108H9.47838H9.46565H9.45288H9.44007H9.42723H9.41436H9.40145H9.38851H9.37554H9.36253H9.34949H9.33641H9.32331H9.31016H9.29699H9.28378H9.27055H9.25727H9.24397H9.23064H9.21727H9.20387H9.19044H9.17698H9.16348H9.14996H9.1364H9.12281H9.1092H9.09555H9.08187H9.06816H9.05442H9.04065H9.02685H9.01302H8.99917H8.98528H8.97136H8.95741H8.94344H8.92943H8.9154H8.90134H8.88725H8.87313H8.85899H8.84481H8.83061H8.81638H8.80212H8.78784H8.77353H8.75919H8.74482H8.73043H8.71601H8.70156H8.68709H8.67259H8.65807H8.64352H8.62894H8.61434H8.59971H8.58506H8.57038H8.55568H8.54095H8.5262H8.51142H8.49662H8.48179H8.46695H8.45207H8.43717H8.42225H8.40731H8.39234H8.37735H8.36233H8.34729H8.33223H8.31715H8.30204H8.28692H8.27177H8.25659H8.2414H8.22618H8.21094H8.19569H8.1804H8.1651H8.14978H8.13444H8.11907H8.10369H8.08828H8.07285H8.05741H8.04194H8.02645H8.01095H7.99542H7.97988H7.96431H7.94873H7.93313H7.91751H7.90187H7.88621H7.87053H7.85483H7.83912H7.82339H7.80764H7.79187H7.77609H7.76029H7.74447H7.72863H7.71278H7.69691H7.68102H7.66512H7.6492H7.63326H7.61731H7.60134H7.58536H7.56936H7.55335H7.53732H7.52127H7.50521H7.48914H7.47305H7.45694H7.44082H7.42469H7.40854H7.39238H7.37621H7.36002H7.34381H7.3276H7.31137H7.29513H7.27887H7.2626H7.24632H7.23003H7.21372H7.19741H7.18108H7.16473H7.14838H7.13201H7.11564H7.09925H7.08285H7.06644H7.05002H7.03358H7.01714H7.00069H6.98422H6.96775H6.95127H6.93477H6.91827H6.90175H6.88523H6.8687H6.85216H6.83561H6.81905H6.80248H6.7859H6.76932H6.75273H6.73612H6.71952H6.7029H6.68627H6.66964H6.653H6.63635H6.6197H6.60304H6.58637H6.5697H6.55302H6.53633H6.51964H6.50294H6.48623H6.46952H6.4528H6.43608H6.41935H6.40262H6.38588H6.36914H6.35239H6.33564H6.31888H6.30212H6.28535H6.26858H6.25181H6.23503H6.21825H6.20147H6.18468H6.16789H6.1511H6.1343H6.1175H6.1007H6.0839H6.06709H6.05028H6.03347H6.01666H5.99985H5.98303H5.96621H5.9494H5.93258H5.91576H5.89894H5.88212H5.86529H5.84847H5.83165H5.81483H5.79801H5.78118H5.76436H5.74754H5.73072H5.7139H5.69708H5.68026H5.66345H5.64663H5.62982H5.61301H5.5962H5.57939H5.56259H5.54578H5.52898H5.51218H5.49539H5.4786H5.46181H5.44502H5.42824H5.41146H5.39468H5.37791H5.36114H5.34438H5.32762H5.31086H5.29411H5.27736H5.26062H5.24389H5.22715H5.21043H5.19371H5.17699H5.16028H5.14358H5.12688H5.11019H5.0935H5.07682H5.06015H5.04348H5.02682H5.01017H4.99353H4.97689H4.96026H4.94364H4.92702H4.91042H4.89382H4.87723H4.86064H4.84407H4.8275H4.81095H4.7944H4.77786H4.76133H4.74481H4.7283H4.7118H4.69531H4.67883H4.66236H4.6459H4.62944H4.613H4.59658H4.58016H4.56375H4.54735H4.53097H4.51459H4.49823H4.48188H4.46554H4.44922H4.4329H4.4166H4.40031H4.38403H4.36777H4.35152H4.33528H4.31905H4.30284H4.28664H4.27046H4.25429H4.23813H4.22199H4.20586H4.18974H4.17364H4.15756H4.14148H4.12543H4.10939H4.09336H4.07735H4.06136H4.04538H4.02942H4.01347H3.99754H3.98162H3.96572H3.94984H3.93398H3.91813H3.9023H3.88648H3.87069H3.85491H3.83915H3.8234H3.80767H3.79197H3.77628H3.7606H3.74495H3.72932H3.7137H3.6981H3.68253H3.66697H3.65143H3.63591H3.62041H3.60493H3.58947H3.57403H3.5586H3.5432H3.52783H3.51247H3.49713H3.48181H3.46652H3.45124H3.43599H3.42076H3.40555H3.39036H3.37519H3.36005H3.34493H3.32983H3.31475H3.2997H3.28466H3.26966H3.25467H3.23971H3.22477H3.20986H3.19497H3.1801H3.16526H3.15044H3.13564H3.12087H3.10613H3.09141H3.07671H3.06204H3.0474H3.03278H3.01818H3.00361H2.98907H2.97455H2.96006H2.9456H2.93116H2.91675C2.50253 7.3335 2.16675 6.99771 2.16675 6.5835ZM13.2501 6.5835C13.2501 6.16928 13.5859 5.8335 14.0001 5.8335H14.026H14.0519H14.0777H14.1034H14.1291H14.1547H14.1803H14.2058H14.2312H14.2565H14.2818H14.307H14.3322H14.3573H14.3823H14.4073H14.4322H14.457H14.4818H14.5065H14.5311H14.5557H14.5803H14.6047H14.6291H14.6535H14.6778H14.702H14.7262H14.7503H14.7743H14.7983H14.8223H14.8461H14.87H14.8937H14.9174H14.9411H14.9647H14.9882H15.0117H15.0351H15.0585H15.0818H15.105H15.1283H15.1514H15.1745H15.1976H15.2205H15.2435H15.2664H15.2892H15.312H15.3347H15.3574H15.38H15.4026H15.4251H15.4476H15.47H15.4924H15.5147H15.537H15.5593H15.5814H15.6036H15.6257H15.6477H15.6697H15.6916H15.7135H15.7354H15.7572H15.779H15.8007H15.8224H15.844H15.8656H15.8871H15.9086H15.93H15.9515H15.9728H15.9941H16.0154H16.0367H16.0579H16.079H16.1001H16.1212H16.1422H16.1632H16.1842H16.2051H16.2259H16.2468H16.2676H16.2883H16.309H16.3297H16.3504H16.371H16.3915H16.4121H16.4326H16.453H16.4734H16.4938H16.5142H16.5345H16.5548H16.575H16.5952H16.6154H16.6356H16.6557H16.6758H16.6958H16.7158H16.7358H16.7558H16.7757H16.7956H16.8154H16.8353H16.8551H16.8748H16.8946H16.9143H16.9339H16.9536H16.9732H16.9928H17.0124H17.0319H17.0514H17.0709H17.0904H17.1098H17.1292H17.1486H17.168H17.1873H17.2066H17.2259H17.2451H17.2644H17.2836H17.3028H17.3219H17.3411H17.3602H17.3793H17.3983H17.4174H17.4364H17.4554H17.4744H17.4934H17.5123H17.5313H17.5502H17.5691H17.5879H17.6068H17.6256H17.6444H17.6632H17.682H17.7008H17.7195H17.7383H17.757H17.7757H17.7944H17.813H17.8317H17.8503H17.8689H17.8875H17.9061H17.9247H17.9433H17.9618H17.9804H17.9989H18.0174H18.0359H18.0544H18.0729H18.0914H18.1099H18.1283H18.1467H18.1652H18.1836H18.202H18.2204H18.2388H18.2572H18.2756H18.294H18.3123H18.3307H18.349H18.3674H18.3857H18.4041H18.4224H18.4407H18.459H18.4773H18.4956H18.514H18.5323H18.5506H18.5688H18.5871H18.6054H18.6237H18.642H18.6603H18.6786H18.6968H18.7151H18.7334H18.7517H18.77H18.7882H18.8065H18.8248H18.8431H18.8614H18.8797H18.898H18.9162H18.9345H18.9528H18.9711H18.9894H19.0078H19.0261H19.0444H19.0627H19.081H19.0994H19.1177H19.1361H19.1544H19.1728H19.1911H19.2095H19.2279H19.2463H19.2647H19.2831H19.3015H19.3199H19.3383H19.3568H19.3752H19.3937H19.4122H19.4306H19.4491H19.4676H19.4862H19.5047H19.5232H19.5418H19.5604H19.5789H19.5975H19.6161H19.6348H19.6534H19.672H19.6907H19.7094H19.7281H19.7468H19.7655H19.7843H19.803H19.8218H19.8406H19.8594H19.8783H19.8971H19.916H19.9349H19.9538H19.9727H19.9916H20.0106H20.0296H20.0486H20.0676H20.0867H20.1057H20.1248H20.144H20.1631H20.1822H20.2014H20.2206H20.2399H20.2591H20.2784H20.2977H20.317H20.3364H20.3558H20.3752H20.3946H20.414H20.4335H20.453H20.4726H20.4921H20.5117H20.5313H20.551H20.5707H20.5904H20.6101H20.6299H20.6497H20.6695H20.6894H20.7092H20.7292H20.7491H20.7691H20.7891H20.8091H20.8292H20.8493H20.8695H20.8896H20.9099H20.9301H20.9504H20.9707H20.991H21.0114H21.0318H21.0523H21.0728H21.0933H21.1139H21.1345H21.1551H21.1758H21.1965H21.2172H21.238H21.2589H21.2797H21.3006H21.3216H21.3426H21.3636H21.3847H21.4058H21.4269H21.4481H21.4693H21.4906H21.5119H21.5333H21.5547H21.5761H21.5976H21.6192H21.6407H21.6624H21.684H21.7057H21.7275H21.7493H21.7712H21.793H21.815H21.837H21.859H21.8811H21.9032H21.9254H21.9476H21.9699H21.9922H22.0146H22.037H22.0595H22.082H22.1046H22.1272H22.1499H22.1726H22.1954H22.2182H22.2411H22.264H22.287H22.3101H22.3332H22.3563H22.3795H22.4028H22.4261H22.4494H22.4728H22.4963H22.5199H22.5434H22.5671H22.5908H22.6145H22.6383H22.6622H22.6861H22.7101H22.7342H22.7583H22.7824H22.8067H22.831H22.8553H22.8797H22.9042H22.9287H22.9533H22.9779H23.0026H23.0274H23.0522H23.0771H23.1021H23.1271H23.1522H23.1773H23.2025H23.2278H23.2531H23.2785H23.304H23.3296H23.3552H23.3808H23.4066H23.4324H23.4582H23.4842H23.5102H23.5362H23.5624H23.5886H23.6149H23.6412H23.6676H23.6941H23.7207H23.7473H23.774H23.8007H23.8276H23.8545H23.8815H23.9085H23.9357H23.9628H23.9901H24.0175H24.0449H24.0724H24.0999H24.1276H24.1553H24.1831H24.2109H24.2389H24.2669H24.295H24.3232H24.3514H24.3797H24.4081H24.4366H24.4652H24.4938H24.5225H24.5513H24.5802H24.6091H24.6382H24.6673H24.6965H24.7257H24.7551H24.7845H24.814H24.8436H24.8733H24.9031H24.9329H24.9629H24.9929H25.023H25.0532H25.0834C25.4976 5.8335 25.8334 6.16928 25.8334 6.5835C25.8334 6.99771 25.4976 7.3335 25.0834 7.3335H25.0532H25.023H24.9929H24.9629H24.9329H24.9031H24.8733H24.8436H24.814H24.7845H24.7551H24.7257H24.6965H24.6673H24.6382H24.6091H24.5802H24.5513H24.5225H24.4938H24.4652H24.4366H24.4081H24.3797H24.3514H24.3232H24.295H24.2669H24.2389H24.2109H24.1831H24.1553H24.1276H24.0999H24.0724H24.0449H24.0175H23.9901H23.9628H23.9357H23.9085H23.8815H23.8545H23.8276H23.8007H23.774H23.7473H23.7207H23.6941H23.6676H23.6412H23.6149H23.5886H23.5624H23.5362H23.5102H23.4842H23.4582H23.4324H23.4066H23.3808H23.3552H23.3296H23.304H23.2785H23.2531H23.2278H23.2025H23.1773H23.1522H23.1271H23.1021H23.0771H23.0522H23.0274H23.0026H22.9779H22.9533H22.9287H22.9042H22.8797H22.8553H22.831H22.8067H22.7824H22.7583H22.7342H22.7101H22.6861H22.6622H22.6383H22.6145H22.5908H22.5671H22.5434H22.5199H22.4963H22.4728H22.4494H22.4261H22.4028H22.3795H22.3563H22.3332H22.3101H22.287H22.264H22.2411H22.2182H22.1954H22.1726H22.1499H22.1272H22.1046H22.082H22.0595H22.037H22.0146H21.9922H21.9699H21.9476H21.9254H21.9032H21.8811H21.859H21.837H21.815H21.793H21.7712H21.7493H21.7275H21.7057H21.684H21.6624H21.6407H21.6192H21.5976H21.5761H21.5547H21.5333H21.5119H21.4906H21.4693H21.4481H21.4269H21.4058H21.3847H21.3636H21.3426H21.3216H21.3006H21.2797H21.2589H21.238H21.2172H21.1965H21.1758H21.1551H21.1345H21.1139H21.0933H21.0728H21.0523H21.0318H21.0114H20.991H20.9707H20.9504H20.9301H20.9099H20.8896H20.8695H20.8493H20.8292H20.8091H20.7891H20.7691H20.7491H20.7292H20.7092H20.6894H20.6695H20.6497H20.6299H20.6101H20.5904H20.5707H20.551H20.5313H20.5117H20.4921H20.4726H20.453H20.4335H20.414H20.3946H20.3752H20.3558H20.3364H20.317H20.2977H20.2784H20.2591H20.2399H20.2206H20.2014H20.1822H20.1631H20.144H20.1248H20.1057H20.0867H20.0676H20.0486H20.0296H20.0106H19.9916H19.9727H19.9538H19.9349H19.916H19.8971H19.8783H19.8594H19.8406H19.8218H19.803H19.7843H19.7655H19.7468H19.7281H19.7094H19.6907H19.672H19.6534H19.6348H19.6161H19.5975H19.5789H19.5604H19.5418H19.5232H19.5047H19.4862H19.4676H19.4491H19.4306H19.4122H19.3937H19.3752H19.3568H19.3383H19.3199H19.3015H19.2831H19.2647H19.2463H19.2279H19.2095H19.1911H19.1728H19.1544H19.1361H19.1177H19.0994H19.081H19.0627H19.0444H19.0261H19.0078H18.9894H18.9711H18.9528H18.9345H18.9162H18.898H18.8797H18.8614H18.8431H18.8248H18.8065H18.7882H18.77H18.7517H18.7334H18.7151H18.6968H18.6786H18.6603H18.642H18.6237H18.6054H18.5871H18.5688H18.5506H18.5323H18.514H18.4956H18.4773H18.459H18.4407H18.4224H18.4041H18.3857H18.3674H18.349H18.3307H18.3123H18.294H18.2756H18.2572H18.2388H18.2204H18.202H18.1836H18.1652H18.1467H18.1283H18.1099H18.0914H18.0729H18.0544H18.0359H18.0174H17.9989H17.9804H17.9618H17.9433H17.9247H17.9061H17.8875H17.8689H17.8503H17.8317H17.813H17.7944H17.7757H17.757H17.7383H17.7195H17.7008H17.682H17.6632H17.6444H17.6256H17.6068H17.5879H17.5691H17.5502H17.5313H17.5123H17.4934H17.4744H17.4554H17.4364H17.4174H17.3983H17.3793H17.3602H17.3411H17.3219H17.3028H17.2836H17.2644H17.2451H17.2259H17.2066H17.1873H17.168H17.1486H17.1292H17.1098H17.0904H17.0709H17.0514H17.0319H17.0124H16.9928H16.9732H16.9536H16.9339H16.9143H16.8946H16.8748H16.8551H16.8353H16.8154H16.7956H16.7757H16.7558H16.7358H16.7158H16.6958H16.6758H16.6557H16.6356H16.6154H16.5952H16.575H16.5548H16.5345H16.5142H16.4938H16.4734H16.453H16.4326H16.4121H16.3915H16.371H16.3504H16.3297H16.309H16.2883H16.2676H16.2468H16.2259H16.2051H16.1842H16.1632H16.1422H16.1212H16.1001H16.079H16.0579H16.0367H16.0154H15.9941H15.9728H15.9515H15.93H15.9086H15.8871H15.8656H15.844H15.8224H15.8007H15.779H15.7572H15.7354H15.7135H15.6916H15.6697H15.6477H15.6257H15.6036H15.5814H15.5593H15.537H15.5147H15.4924H15.47H15.4476H15.4251H15.4026H15.38H15.3574H15.3347H15.312H15.2892H15.2664H15.2435H15.2205H15.1976H15.1745H15.1514H15.1283H15.105H15.0818H15.0585H15.0351H15.0117H14.9882H14.9647H14.9411H14.9174H14.8937H14.87H14.8461H14.8223H14.7983H14.7743H14.7503H14.7262H14.702H14.6778H14.6535H14.6291H14.6047H14.5803H14.5557H14.5311H14.5065H14.4818H14.457H14.4322H14.4073H14.3823H14.3573H14.3322H14.307H14.2818H14.2565H14.2312H14.2058H14.1803H14.1547H14.1291H14.1034H14.0777H14.0519H14.026H14.0001C13.5859 7.3335 13.2501 6.99771 13.2501 6.5835ZM3.91675 8.5835C2.95025 8.5835 2.16675 9.367 2.16675 10.3335V13C2.16675 13.4142 2.50253 13.75 2.91675 13.75C3.33096 13.75 3.66675 13.4142 3.66675 13V10.3335C3.66675 10.1954 3.77868 10.0835 3.91675 10.0835H24.0834C24.2215 10.0835 24.3334 10.1954 24.3334 10.3335V11.6668C24.3334 12.081 24.6692 12.4168 25.0834 12.4168C25.4976 12.4168 25.8334 12.081 25.8334 11.6668V10.3335C25.8334 9.367 25.0499 8.5835 24.0834 8.5835H3.91675ZM25.8334 14.0002C25.8334 13.5859 25.4976 13.2502 25.0834 13.2502C24.6692 13.2502 24.3334 13.5859 24.3334 14.0002V17.6668C24.3334 17.8049 24.2215 17.9168 24.0834 17.9168H3.91675C3.77868 17.9168 3.66675 17.8049 3.66675 17.6668V16.3335C3.66675 15.9193 3.33096 15.5835 2.91675 15.5835C2.50253 15.5835 2.16675 15.9193 2.16675 16.3335V17.6668C2.16675 18.6333 2.95025 19.4168 3.91675 19.4168H24.0834C25.0499 19.4168 25.8334 18.6333 25.8334 17.6668V14.0002ZM6.94153 12.5C7.35574 12.5 7.69153 12.1642 7.69153 11.75C7.69153 11.3358 7.35574 11 6.94153 11C6.52731 11 6.19153 11.3358 6.19153 11.75C6.19153 12.1642 6.52731 12.5 6.94153 12.5ZM5.75012 14.7503C6.16434 14.7503 6.50012 14.4146 6.50012 14.0003C6.50012 13.5861 6.16434 13.2503 5.75012 13.2503C5.33591 13.2503 5.00012 13.5861 5.00012 14.0003C5.00012 14.4146 5.33591 14.7503 5.75012 14.7503ZM8.47826 14.7503C8.89247 14.7503 9.22826 14.4146 9.22826 14.0003C9.22826 13.5861 8.89247 13.2503 8.47826 13.2503C8.06404 13.2503 7.72826 13.5861 7.72826 14.0003C7.72826 14.4146 8.06404 14.7503 8.47826 14.7503ZM11.9565 14.0003C11.9565 14.4146 11.6207 14.7503 11.2065 14.7503C10.7923 14.7503 10.4565 14.4146 10.4565 14.0003C10.4565 13.5861 10.7923 13.2503 11.2065 13.2503C11.6207 13.2503 11.9565 13.5861 11.9565 14.0003ZM13.9346 14.7503C14.3489 14.7503 14.6846 14.4146 14.6846 14.0003C14.6846 13.5861 14.3489 13.2503 13.9346 13.2503C13.5204 13.2503 13.1846 13.5861 13.1846 14.0003C13.1846 14.4146 13.5204 14.7503 13.9346 14.7503ZM17.4128 14.0003C17.4128 14.4146 17.077 14.7503 16.6628 14.7503C16.2486 14.7503 15.9128 14.4146 15.9128 14.0003C15.9128 13.5861 16.2486 13.2503 16.6628 13.2503C17.077 13.2503 17.4128 13.5861 17.4128 14.0003ZM19.391 14.7503C19.8052 14.7503 20.141 14.4146 20.141 14.0003C20.141 13.5861 19.8052 13.2503 19.391 13.2503C18.9768 13.2503 18.641 13.5861 18.641 14.0003C18.641 14.4146 18.9768 14.7503 19.391 14.7503ZM22.8692 14.0003C22.8692 14.4146 22.5334 14.7503 22.1192 14.7503C21.705 14.7503 21.3692 14.4146 21.3692 14.0003C21.3692 13.5861 21.705 13.2503 22.1192 13.2503C22.5334 13.2503 22.8692 13.5861 22.8692 14.0003ZM10.4197 11.75C10.4197 12.1642 10.0839 12.5 9.66968 12.5C9.25546 12.5 8.91968 12.1642 8.91968 11.75C8.91968 11.3358 9.25546 11 9.66968 11C10.0839 11 10.4197 11.3358 10.4197 11.75ZM12.3977 12.5C12.8119 12.5 13.1477 12.1642 13.1477 11.75C13.1477 11.3358 12.8119 11 12.3977 11C11.9835 11 11.6477 11.3358 11.6477 11.75C11.6477 12.1642 11.9835 12.5 12.3977 12.5ZM15.876 11.75C15.876 12.1642 15.5402 12.5 15.126 12.5C14.7118 12.5 14.376 12.1642 14.376 11.75C14.376 11.3358 14.7118 11 15.126 11C15.5402 11 15.876 11.3358 15.876 11.75ZM17.8541 12.5C18.2683 12.5 18.6041 12.1642 18.6041 11.75C18.6041 11.3358 18.2683 11 17.8541 11C17.4399 11 17.1041 11.3358 17.1041 11.75C17.1041 12.1642 17.4399 12.5 17.8541 12.5ZM21.3323 11.75C21.3323 12.1642 20.9965 12.5 20.5823 12.5C20.1681 12.5 19.8323 12.1642 19.8323 11.75C19.8323 11.3358 20.1681 11 20.5823 11C20.9965 11 21.3323 11.3358 21.3323 11.75ZM6.94153 17.0005C7.35574 17.0005 7.69153 16.6647 7.69153 16.2505C7.69153 15.8363 7.35574 15.5005 6.94153 15.5005C6.52731 15.5005 6.19153 15.8363 6.19153 16.2505C6.19153 16.6647 6.52731 17.0005 6.94153 17.0005ZM10.4197 16.2505C10.4197 16.6647 10.0839 17.0005 9.66968 17.0005C9.25546 17.0005 8.91968 16.6647 8.91968 16.2505C8.91968 15.8363 9.25546 15.5005 9.66968 15.5005C10.0839 15.5005 10.4197 15.8363 10.4197 16.2505ZM12.3977 17.0005C12.8119 17.0005 13.1477 16.6647 13.1477 16.2505C13.1477 15.8363 12.8119 15.5005 12.3977 15.5005C11.9835 15.5005 11.6477 15.8363 11.6477 16.2505C11.6477 16.6647 11.9835 17.0005 12.3977 17.0005ZM15.876 16.2505C15.876 16.6647 15.5402 17.0005 15.126 17.0005C14.7118 17.0005 14.376 16.6647 14.376 16.2505C14.376 15.8363 14.7118 15.5005 15.126 15.5005C15.5402 15.5005 15.876 15.8363 15.876 16.2505ZM17.8541 17.0005C18.2683 17.0005 18.6041 16.6647 18.6041 16.2505C18.6041 15.8363 18.2683 15.5005 17.8541 15.5005C17.4399 15.5005 17.1041 15.8363 17.1041 16.2505C17.1041 16.6647 17.4399 17.0005 17.8541 17.0005ZM21.3323 16.2505C21.3323 16.6647 20.9965 17.0005 20.5823 17.0005C20.1681 17.0005 19.8323 16.6647 19.8323 16.2505C19.8323 15.8363 20.1681 15.5005 20.5823 15.5005C20.9965 15.5005 21.3323 15.8363 21.3323 16.2505ZM2.91675 20.667C2.50253 20.667 2.16675 21.0028 2.16675 21.417C2.16675 21.8312 2.50253 22.167 2.91675 22.167H2.94701H2.97719H3.00729H3.0373H3.06723H3.09707H3.12684H3.15652H3.18611H3.21563H3.24506H3.27442H3.30369H3.33288H3.36199H3.39102H3.41997H3.44885H3.47764H3.50635H3.53499H3.56354H3.59202H3.62042H3.64875H3.67699H3.70516H3.73326H3.76127H3.78921H3.81708H3.84487H3.87258H3.90022H3.92779H3.95528H3.9827H4.01004H4.03731H4.06451H4.09164H4.11869H4.14567H4.17258H4.19942H4.22618H4.25288H4.2795H4.30606H4.33254H4.35896H4.3853H4.41158H4.43779H4.46392H4.49H4.516H4.54193H4.5678H4.5936H4.61934H4.645H4.67061H4.69614H4.72161H4.74702H4.77236H4.79763H4.82284H4.84799H4.87308H4.8981H4.92305H4.94795H4.97278H4.99755H5.02225H5.0469H5.07148H5.09601H5.12047H5.14487H5.16921H5.19349H5.21772H5.24188H5.26598H5.29003H5.31401H5.33794H5.36181H5.38563H5.40938H5.43308H5.45672H5.48031H5.50384H5.52731H5.55073H5.5741H5.59741H5.62066H5.64386H5.66701H5.6901H5.71314H5.73613H5.75906H5.78194H5.80477H5.82755H5.85027H5.87295H5.89557H5.91814H5.94067H5.96314H5.98556H6.00793H6.03026H6.05253H6.07476H6.09694H6.11907H6.14115H6.16318H6.18517H6.20711H6.22901H6.25086H6.27266H6.29441H6.31613H6.33779H6.35941H6.38099H6.40252H6.42401H6.44546H6.46686H6.48822H6.50954H6.53081H6.55205H6.57324H6.59439H6.61549H6.63656H6.65759H6.67858H6.69952H6.72043H6.7413H6.76212H6.78291H6.80367H6.82438H6.84505H6.86569H6.88629H6.90685H6.92738H6.94787H6.96833H6.98874H7.00913H7.02947H7.04979H7.07006H7.09031H7.11052H7.13069H7.15084H7.17095H7.19102H7.21107H7.23108H7.25106H7.27101H7.29092H7.31081H7.33066H7.35049H7.37028H7.39005H7.40978H7.42949H7.44916H7.46881H7.48843H7.50802H7.52759H7.54712H7.56663H7.58612H7.60557H7.625H7.6444H7.66378H7.68313H7.70246H7.72176H7.74104H7.7603H7.77953H7.79873H7.81791H7.83707H7.85621H7.87533H7.89442H7.91349H7.93254H7.95157H7.97057H7.98956H8.00853H8.02747H8.0464H8.0653H8.08419H8.10306H8.12191H8.14074H8.15956H8.17835H8.19713H8.21589H8.23464H8.25337H8.27208H8.29078H8.30946H8.32812H8.34677H8.36541H8.38403H8.40264H8.42123H8.43981H8.45838H8.47693H8.49547H8.514H8.53252H8.55102H8.56952H8.588H8.60647H8.62493H8.64339H8.66183H8.68026H8.69868H8.71709H8.7355H8.75389H8.77228H8.79066H8.80903H8.8274H8.84576H8.86411H8.88245H8.90079H8.91913H8.93745H8.95578H8.97409H8.99241H9.01071H9.02902H9.04732H9.06562H9.08391H9.1022H9.12049H9.13878H9.15707H9.17535H9.19363H9.21191H9.23019H9.24847H9.26675H9.28503H9.30331H9.32159H9.33988H9.35816H9.37645H9.39473H9.41302H9.43131H9.44961H9.46791H9.48621H9.50451H9.52282H9.54114H9.55945H9.57778H9.59611H9.61444H9.63278H9.65112H9.66948H9.68784H9.7062H9.72457H9.74296H9.76134H9.77974H9.79815H9.81656H9.83498H9.85342H9.87186H9.89031H9.90877H9.92725H9.94573H9.96422H9.98273H10.0012H10.0198H10.0383H10.0569H10.0754H10.094H10.1126H10.1312H10.1499H10.1685H10.1871H10.2058H10.2245H10.2432H10.2619H10.2806H10.2994H10.3181H10.3369H10.3557H10.3745H10.3934H10.4122H10.4311H10.45H10.4689H10.4878H10.5068H10.5257H10.5447H10.5637H10.5828H10.6018H10.6209H10.64H10.6591H10.6782H10.6974H10.7166H10.7358H10.755H10.7743H10.7936H10.8129H10.8322H10.8516H10.8709H10.8904H10.9098H10.9292H10.9487H10.9682H10.9878H11.0073H11.0269H11.0466H11.0662H11.0859H11.1056H11.1253H11.1451H11.1649H11.1847H11.2046H11.2245H11.2444H11.2644H11.2843H11.3044H11.3244H11.3445H11.3646H11.3847H11.4049H11.4251H11.4454H11.4657H11.486H11.5063H11.5267H11.5471H11.5676H11.5881H11.6086H11.6292H11.6498H11.6704H11.6911H11.7118H11.7326H11.7534H11.7742H11.7951H11.816H11.8369H11.8579H11.879H11.9H11.9212H11.9423H11.9635H11.9847H12.006H12.0273H12.0487H12.0701H12.0916H12.1131H12.1346H12.1562H12.1778H12.1995H12.2212H12.243H12.2648H12.2866H12.3085H12.3305H12.3525H12.3745H12.3966H12.4187H12.4409H12.4631H12.4854H12.5077H12.5301H12.5526H12.575H12.5976H12.6201H12.6428H12.6654H12.6882H12.711H12.7338H12.7567H12.7796H12.8026H12.8257H12.8488H12.8719H12.8951H12.9184H12.9417H12.9651H12.9885H13.012H13.0355H13.0591H13.0827H13.1064H13.1302H13.154H13.1779H13.2018H13.2258H13.2499H13.274H13.2982H13.3224H13.3467H13.371H13.3954H13.4199H13.4444H13.469H13.4937H13.5184H13.5432H13.568H13.5929H13.6179H13.6429H13.668H13.6931H13.7184H13.7436H13.769H13.7944H13.8199H13.8454H13.871H13.8967H13.9225H13.9483H13.9741H14.0001H17.3517C17.7659 22.167 18.1017 21.8312 18.1017 21.417C18.1017 21.0028 17.7659 20.667 17.3517 20.667H14.0001H13.9741H13.9483H13.9225H13.8967H13.871H13.8454H13.8199H13.7944H13.769H13.7436H13.7184H13.6931H13.668H13.6429H13.6179H13.5929H13.568H13.5432H13.5184H13.4937H13.469H13.4444H13.4199H13.3954H13.371H13.3467H13.3224H13.2982H13.274H13.2499H13.2258H13.2018H13.1779H13.154H13.1302H13.1064H13.0827H13.0591H13.0355H13.012H12.9885H12.9651H12.9417H12.9184H12.8951H12.8719H12.8488H12.8257H12.8026H12.7796H12.7567H12.7338H12.711H12.6882H12.6654H12.6428H12.6201H12.5976H12.575H12.5526H12.5301H12.5077H12.4854H12.4631H12.4409H12.4187H12.3966H12.3745H12.3525H12.3305H12.3085H12.2866H12.2648H12.243H12.2212H12.1995H12.1778H12.1562H12.1346H12.1131H12.0916H12.0701H12.0487H12.0273H12.006H11.9847H11.9635H11.9423H11.9212H11.9H11.879H11.8579H11.8369H11.816H11.7951H11.7742H11.7534H11.7326H11.7118H11.6911H11.6704H11.6498H11.6292H11.6086H11.5881H11.5676H11.5471H11.5267H11.5063H11.486H11.4657H11.4454H11.4251H11.4049H11.3847H11.3646H11.3445H11.3244H11.3044H11.2843H11.2644H11.2444H11.2245H11.2046H11.1847H11.1649H11.1451H11.1253H11.1056H11.0859H11.0662H11.0466H11.0269H11.0073H10.9878H10.9682H10.9487H10.9292H10.9098H10.8904H10.8709H10.8516H10.8322H10.8129H10.7936H10.7743H10.755H10.7358H10.7166H10.6974H10.6782H10.6591H10.64H10.6209H10.6018H10.5828H10.5637H10.5447H10.5257H10.5068H10.4878H10.4689H10.45H10.4311H10.4122H10.3934H10.3745H10.3557H10.3369H10.3181H10.2994H10.2806H10.2619H10.2432H10.2245H10.2058H10.1871H10.1685H10.1499H10.1312H10.1126H10.094H10.0754H10.0569H10.0383H10.0198H10.0012H9.98273H9.96422H9.94573H9.92725H9.90877H9.89031H9.87186H9.85342H9.83498H9.81656H9.79815H9.77974H9.76134H9.74296H9.72457H9.7062H9.68784H9.66948H9.65112H9.63278H9.61444H9.59611H9.57778H9.55945H9.54114H9.52282H9.50451H9.48621H9.46791H9.44961H9.43131H9.41302H9.39473H9.37645H9.35816H9.33988H9.32159H9.30331H9.28503H9.26675H9.24847H9.23019H9.21191H9.19363H9.17535H9.15707H9.13878H9.12049H9.1022H9.08391H9.06562H9.04732H9.02902H9.01071H8.99241H8.97409H8.95578H8.93745H8.91913H8.90079H8.88245H8.86411H8.84576H8.8274H8.80903H8.79066H8.77228H8.75389H8.7355H8.71709H8.69868H8.68026H8.66183H8.64339H8.62493H8.60647H8.588H8.56952H8.55102H8.53252H8.514H8.49547H8.47693H8.45838H8.43981H8.42123H8.40264H8.38403H8.36541H8.34677H8.32812H8.30946H8.29078H8.27208H8.25337H8.23464H8.21589H8.19713H8.17835H8.15956H8.14074H8.12191H8.10306H8.08419H8.0653H8.0464H8.02747H8.00853H7.98956H7.97057H7.95157H7.93254H7.91349H7.89442H7.87533H7.85621H7.83707H7.81791H7.79873H7.77953H7.7603H7.74104H7.72176H7.70246H7.68313H7.66378H7.6444H7.625H7.60557H7.58612H7.56663H7.54712H7.52759H7.50802H7.48843H7.46881H7.44916H7.42949H7.40978H7.39005H7.37028H7.35049H7.33066H7.31081H7.29092H7.27101H7.25106H7.23108H7.21107H7.19102H7.17095H7.15084H7.13069H7.11052H7.09031H7.07006H7.04979H7.02947H7.00913H6.98874H6.96833H6.94787H6.92738H6.90685H6.88629H6.86569H6.84505H6.82438H6.80367H6.78291H6.76212H6.7413H6.72043H6.69952H6.67858H6.65759H6.63656H6.61549H6.59439H6.57324H6.55205H6.53081H6.50954H6.48822H6.46686H6.44546H6.42401H6.40252H6.38099H6.35941H6.33779H6.31613H6.29441H6.27266H6.25086H6.22901H6.20711H6.18517H6.16318H6.14115H6.11907H6.09694H6.07476H6.05253H6.03026H6.00793H5.98556H5.96314H5.94067H5.91814H5.89557H5.87295H5.85027H5.82755H5.80477H5.78194H5.75906H5.73613H5.71314H5.6901H5.66701H5.64386H5.62066H5.59741H5.5741H5.55073H5.52731H5.50384H5.48031H5.45672H5.43308H5.40938H5.38563H5.36181H5.33794H5.31401H5.29003H5.26598H5.24188H5.21772H5.19349H5.16921H5.14487H5.12047H5.09601H5.07148H5.0469H5.02225H4.99755H4.97278H4.94795H4.92305H4.8981H4.87308H4.84799H4.82284H4.79763H4.77236H4.74702H4.72161H4.69614H4.67061H4.645H4.61934H4.5936H4.5678H4.54193H4.516H4.49H4.46392H4.43779H4.41158H4.3853H4.35896H4.33254H4.30606H4.2795H4.25288H4.22618H4.19942H4.17258H4.14567H4.11869H4.09164H4.06451H4.03731H4.01004H3.9827H3.95528H3.92779H3.90022H3.87258H3.84487H3.81708H3.78921H3.76127H3.73326H3.70516H3.67699H3.64875H3.62042H3.59202H3.56354H3.53499H3.50635H3.47764H3.44885H3.41997H3.39102H3.36199H3.33288H3.30369H3.27442H3.24506H3.21563H3.18611H3.15652H3.12684H3.09707H3.06723H3.0373H3.00729H2.97719H2.94701H2.91675ZM20.7033 20.667C20.2891 20.667 19.9533 21.0028 19.9533 21.417C19.9533 21.8312 20.2891 22.167 20.7033 22.167H20.7103H20.7173H20.7243H20.7313H20.7384H20.7454H20.7524H20.7594H20.7665H20.7735H20.7806H20.7876H20.7947H20.8017H20.8088H20.8159H20.8229H20.83H20.8371H20.8442H20.8513H20.8583H20.8654H20.8725H20.8796H20.8867H20.8939H20.901H20.9081H20.9152H20.9223H20.9295H20.9366H20.9438H20.9509H20.958H20.9652H20.9724H20.9795H20.9867H20.9939H21.001H21.0082H21.0154H21.0226H21.0298H21.037H21.0442H21.0514H21.0586H21.0658H21.073H21.0803H21.0875H21.0947H21.102H21.1092H21.1164H21.1237H21.131H21.1382H21.1455H21.1528H21.16H21.1673H21.1746H21.1819H21.1892H21.1965H21.2038H21.2111H21.2184H21.2257H21.233H21.2404H21.2477H21.255H21.2624H21.2697H21.2771H21.2844H21.2918H21.2992H21.3065H21.3139H21.3213H21.3287H21.3361H21.3435H21.3509H21.3583H21.3657H21.3731H21.3805H21.3879H21.3954H21.4028H21.4102H21.4177H21.4251H21.4326H21.4401H21.4475H21.455H21.4625H21.4699H21.4774H21.4849H21.4924H21.4999H21.5074H21.515H21.5225H21.53H21.5375H21.5451H21.5526H21.5601H21.5677H21.5753H21.5828H21.5904H21.598H21.6055H21.6131H21.6207H21.6283H21.6359H21.6435H21.6511H21.6587H21.6664H21.674H21.6816H21.6893H21.6969H21.7045H21.7122H21.7199H21.7275H21.7352H21.7429H21.7506H21.7583H21.766H21.7737H21.7814H21.7891H21.7968H21.8045H21.8122H21.82H21.8277H21.8355H21.8432H21.851H21.8587H21.8665H21.8743H21.8821H21.8899H21.8977H21.9055H21.9133H21.9211H21.9289H21.9367H21.9445H21.9524H21.9602H21.9681H21.9759H21.9838H21.9917H21.9995H22.0074H22.0153H22.0232H22.0311H22.039H22.0469H22.0548H22.0627H22.0707H22.0786H22.0865H22.0945H22.1024H22.1104H22.1184H22.1263H22.1343H22.1423H22.1503H22.1583H22.1663H22.1743H22.1823H22.1903H22.1984H22.2064H22.2144H22.2225H22.2305H22.2386H22.2467H22.2547H22.2628H22.2709H22.279H22.2871H22.2952H22.3033H22.3114H22.3196H22.3277H22.3358H22.344H22.3521H22.3603H22.3685H22.3767H22.3848H22.393H22.4012H22.4094H22.4176H22.4258H22.4341H22.4423H22.4505H22.4588H22.467H22.4753H22.4835H22.4918H22.5001H22.5084H22.5166H22.5249H22.5332H22.5416H22.5499H22.5582H22.5665H22.5749H22.5832H22.5916H22.5999H22.6083H22.6167H22.625H22.6334H22.6418H22.6502H22.6586H22.6671H22.6755H22.6839H22.6924H22.7008H22.7093H22.7177H22.7262H22.7347H22.7431H22.7516H22.7601H22.7686H22.7771H22.7857H22.7942H22.8027H22.8113H22.8198H22.8284H22.8369H22.8455H22.8541H22.8627H22.8712H22.8798H22.8885H22.8971H22.9057H22.9143H22.923H22.9316H22.9403H22.9489H22.9576H22.9663H22.9749H22.9836H22.9923H23.001H23.0098H23.0185H23.0272H23.0359H23.0447H23.0534H23.0622H23.071H23.0797H23.0885H23.0973H23.1061H23.1149H23.1237H23.1326H23.1414H23.1502H23.1591H23.1679H23.1768H23.1857H23.1945H23.2034H23.2123H23.2212H23.2301H23.2391H23.248H23.2569H23.2659H23.2748H23.2838H23.2927H23.3017H23.3107H23.3197H23.3287H23.3377H23.3467H23.3557H23.3648H23.3738H23.3828H23.3919H23.401H23.41H23.4191H23.4282H23.4373H23.4464H23.4555H23.4647H23.4738H23.4829H23.4921H23.5012H23.5104H23.5196H23.5287H23.5379H23.5471H23.5563H23.5656H23.5748H23.584H23.5933H23.6025H23.6118H23.621H23.6303H23.6396H23.6489H23.6582H23.6675H23.6768H23.6861H23.6955H23.7048H23.7142H23.7235H23.7329H23.7423H23.7517H23.7611H23.7705H23.7799H23.7893H23.7987H23.8082H23.8176H23.8271H23.8366H23.846H23.8555H23.865H23.8745H23.884H23.8935H23.9031H23.9126H23.9222H23.9317H23.9413H23.9509H23.9604H23.97H23.9796H23.9892H23.9989H24.0085H24.0181H24.0278H24.0374H24.0471H24.0568H24.0665H24.0762H24.0859H24.0956H24.1053H24.115H24.1248H24.1345H24.1443H24.154H24.1638H24.1736H24.1834H24.1932H24.203H24.2128H24.2227H24.2325H24.2424H24.2522H24.2621H24.272H24.2819H24.2918H24.3017H24.3116H24.3215H24.3314H24.3414H24.3513H24.3613H24.3713H24.3813H24.3913H24.4013H24.4113H24.4213H24.4313H24.4414H24.4514H24.4615H24.4716H24.4816H24.4917H24.5018H24.5119H24.5221H24.5322H24.5423H24.5525H24.5626H24.5728H24.583H24.5932H24.6034H24.6136H24.6238H24.634H24.6443H24.6545H24.6648H24.675H24.6853H24.6956H24.7059H24.7162H24.7265H24.7369H24.7472H24.7576H24.7679H24.7783H24.7887H24.799H24.8094H24.8199H24.8303H24.8407H24.8511H24.8616H24.8721H24.8825H24.893H24.9035H24.914H24.9245H24.935H24.9456H24.9561H24.9667H24.9772H24.9878H24.9984H25.009H25.0196H25.0302H25.0408H25.0514H25.0621H25.0727H25.0834C25.4976 22.167 25.8334 21.8312 25.8334 21.417C25.8334 21.0028 25.4976 20.667 25.0834 20.667H25.0727H25.0621H25.0514H25.0408H25.0302H25.0196H25.009H24.9984H24.9878H24.9772H24.9667H24.9561H24.9456H24.935H24.9245H24.914H24.9035H24.893H24.8825H24.8721H24.8616H24.8511H24.8407H24.8303H24.8199H24.8094H24.799H24.7887H24.7783H24.7679H24.7576H24.7472H24.7369H24.7265H24.7162H24.7059H24.6956H24.6853H24.675H24.6648H24.6545H24.6443H24.634H24.6238H24.6136H24.6034H24.5932H24.583H24.5728H24.5626H24.5525H24.5423H24.5322H24.5221H24.5119H24.5018H24.4917H24.4816H24.4716H24.4615H24.4514H24.4414H24.4313H24.4213H24.4113H24.4013H24.3913H24.3813H24.3713H24.3613H24.3513H24.3414H24.3314H24.3215H24.3116H24.3017H24.2918H24.2819H24.272H24.2621H24.2522H24.2424H24.2325H24.2227H24.2128H24.203H24.1932H24.1834H24.1736H24.1638H24.154H24.1443H24.1345H24.1248H24.115H24.1053H24.0956H24.0859H24.0762H24.0665H24.0568H24.0471H24.0374H24.0278H24.0181H24.0085H23.9989H23.9892H23.9796H23.97H23.9604H23.9509H23.9413H23.9317H23.9222H23.9126H23.9031H23.8935H23.884H23.8745H23.865H23.8555H23.846H23.8366H23.8271H23.8176H23.8082H23.7987H23.7893H23.7799H23.7705H23.7611H23.7517H23.7423H23.7329H23.7235H23.7142H23.7048H23.6955H23.6861H23.6768H23.6675H23.6582H23.6489H23.6396H23.6303H23.621H23.6118H23.6025H23.5933H23.584H23.5748H23.5656H23.5563H23.5471H23.5379H23.5287H23.5196H23.5104H23.5012H23.4921H23.4829H23.4738H23.4647H23.4555H23.4464H23.4373H23.4282H23.4191H23.41H23.401H23.3919H23.3828H23.3738H23.3648H23.3557H23.3467H23.3377H23.3287H23.3197H23.3107H23.3017H23.2927H23.2838H23.2748H23.2659H23.2569H23.248H23.2391H23.2301H23.2212H23.2123H23.2034H23.1945H23.1857H23.1768H23.1679H23.1591H23.1502H23.1414H23.1326H23.1237H23.1149H23.1061H23.0973H23.0885H23.0797H23.071H23.0622H23.0534H23.0447H23.0359H23.0272H23.0185H23.0098H23.001H22.9923H22.9836H22.9749H22.9663H22.9576H22.9489H22.9403H22.9316H22.923H22.9143H22.9057H22.8971H22.8885H22.8798H22.8712H22.8627H22.8541H22.8455H22.8369H22.8284H22.8198H22.8113H22.8027H22.7942H22.7857H22.7771H22.7686H22.7601H22.7516H22.7431H22.7347H22.7262H22.7177H22.7093H22.7008H22.6924H22.6839H22.6755H22.6671H22.6586H22.6502H22.6418H22.6334H22.625H22.6167H22.6083H22.5999H22.5916H22.5832H22.5749H22.5665H22.5582H22.5499H22.5416H22.5332H22.5249H22.5166H22.5084H22.5001H22.4918H22.4835H22.4753H22.467H22.4588H22.4505H22.4423H22.4341H22.4258H22.4176H22.4094H22.4012H22.393H22.3848H22.3767H22.3685H22.3603H22.3521H22.344H22.3358H22.3277H22.3196H22.3114H22.3033H22.2952H22.2871H22.279H22.2709H22.2628H22.2547H22.2467H22.2386H22.2305H22.2225H22.2144H22.2064H22.1984H22.1903H22.1823H22.1743H22.1663H22.1583H22.1503H22.1423H22.1343H22.1263H22.1184H22.1104H22.1024H22.0945H22.0865H22.0786H22.0707H22.0627H22.0548H22.0469H22.039H22.0311H22.0232H22.0153H22.0074H21.9995H21.9917H21.9838H21.9759H21.9681H21.9602H21.9524H21.9445H21.9367H21.9289H21.9211H21.9133H21.9055H21.8977H21.8899H21.8821H21.8743H21.8665H21.8587H21.851H21.8432H21.8355H21.8277H21.82H21.8122H21.8045H21.7968H21.7891H21.7814H21.7737H21.766H21.7583H21.7506H21.7429H21.7352H21.7275H21.7199H21.7122H21.7045H21.6969H21.6893H21.6816H21.674H21.6664H21.6587H21.6511H21.6435H21.6359H21.6283H21.6207H21.6131H21.6055H21.598H21.5904H21.5828H21.5753H21.5677H21.5601H21.5526H21.5451H21.5375H21.53H21.5225H21.515H21.5074H21.4999H21.4924H21.4849H21.4774H21.4699H21.4625H21.455H21.4475H21.4401H21.4326H21.4251H21.4177H21.4102H21.4028H21.3954H21.3879H21.3805H21.3731H21.3657H21.3583H21.3509H21.3435H21.3361H21.3287H21.3213H21.3139H21.3065H21.2992H21.2918H21.2844H21.2771H21.2697H21.2624H21.255H21.2477H21.2404H21.233H21.2257H21.2184H21.2111H21.2038H21.1965H21.1892H21.1819H21.1746H21.1673H21.16H21.1528H21.1455H21.1382H21.131H21.1237H21.1164H21.1092H21.102H21.0947H21.0875H21.0803H21.073H21.0658H21.0586H21.0514H21.0442H21.037H21.0298H21.0226H21.0154H21.0082H21.001H20.9939H20.9867H20.9795H20.9724H20.9652H20.958H20.9509H20.9438H20.9366H20.9295H20.9223H20.9152H20.9081H20.901H20.8939H20.8867H20.8796H20.8725H20.8654H20.8583H20.8513H20.8442H20.8371H20.83H20.8229H20.8159H20.8088H20.8017H20.7947H20.7876H20.7806H20.7735H20.7665H20.7594H20.7524H20.7454H20.7384H20.7313H20.7243H20.7173H20.7103H20.7033Z" fill="#252323"/>
</g>
<defs>
<clipPath id="clip0_1030_11670">
<rect width="28" height="28" fill="white"/>
</clipPath>
</defs>
</svg>
