<svg width="28" height="28" viewBox="0 0 28 28" fill="none" xmlns="http://www.w3.org/2000/svg">
<g clip-path="url(#clip0_1244_16560)">
<path fill-rule="evenodd" clip-rule="evenodd" d="M17.669 5.21205C18.0249 4.19794 19.5013 4.33426 19.6655 5.39638C19.7708 6.07751 20.5022 6.46609 21.1251 6.17114L21.2087 6.13153C22.163 5.67969 23.0804 6.81441 22.441 7.6546C22.0242 8.20233 22.2677 8.99806 22.92 9.21783C23.9249 9.55643 23.7899 11.0185 22.74 11.1674C22.0585 11.264 21.6734 12.0017 21.9829 12.6165C22.4576 13.5595 21.3479 14.5071 20.4925 13.8882L20.4176 13.8339C19.8592 13.4299 19.069 13.678 18.8408 14.3283C18.4849 15.3424 17.0085 15.2061 16.8443 14.144C16.739 13.4628 16.0076 13.0743 15.3847 13.3692L15.301 13.4088C14.3468 13.8607 13.4293 12.7259 14.0687 11.8858C14.4856 11.338 14.2421 10.5423 13.5898 10.3225C12.5848 9.98391 12.7198 8.52184 13.7698 8.37297C14.4513 8.27635 14.8364 7.53866 14.5269 6.92386C14.0521 5.9808 15.1618 5.03326 16.0172 5.65219L16.0922 5.70644C16.6506 6.11046 17.4408 5.86238 17.669 5.21205ZM19.9249 9.92433C19.842 10.8219 19.0271 11.4805 18.1048 11.3954C17.1825 11.3102 16.502 10.5135 16.5848 9.61594C16.6677 8.71836 17.4826 8.05976 18.4049 8.14492C19.3273 8.23008 20.0078 9.02675 19.9249 9.92433ZM8.60674 7.46207C8.40958 6.65327 7.25944 6.65327 7.06228 7.46207C6.93494 7.98444 6.33652 8.23231 5.87711 7.95298C5.16579 7.52049 4.35252 8.33376 4.78501 9.04508C5.06434 9.50449 4.81647 10.1029 4.2941 10.2302C3.4853 10.4274 3.4853 11.5776 4.2941 11.7747C4.81647 11.902 5.06434 12.5005 4.78501 12.9599C4.35252 13.6712 5.16579 14.4845 5.87711 14.052C6.33652 13.7726 6.93494 14.0205 7.06228 14.5429C7.25944 15.3517 8.40958 15.3517 8.60674 14.5429C8.73408 14.0205 9.3325 13.7726 9.79191 14.052C10.5032 14.4845 11.3165 13.6712 10.884 12.9599C10.6047 12.5005 10.8525 11.902 11.3749 11.7747C12.1837 11.5776 12.1837 10.4274 11.3749 10.2302C10.8525 10.1029 10.6047 9.50449 10.884 9.04508C11.3165 8.33376 10.5032 7.52049 9.79191 7.95298C9.3325 8.23231 8.73407 7.98444 8.60674 7.46207ZM7.8345 12.2925C8.54699 12.2925 9.12457 11.715 9.12457 11.0025C9.12457 10.29 8.54699 9.71241 7.8345 9.71241C7.12202 9.71241 6.54444 10.29 6.54444 11.0025C6.54444 11.715 7.12202 12.2925 7.8345 12.2925ZM13.8696 15.1298C13.5656 14.2391 12.2707 14.3558 12.1307 15.2864C12.0403 15.8874 11.3917 16.2272 10.8461 15.9593C10.0014 15.5444 9.16825 16.5426 9.72732 17.2996C10.0884 17.7885 9.87001 18.4874 9.29479 18.6837C8.40418 18.9877 8.52081 20.2826 9.45141 20.4226C10.0524 20.513 10.3922 21.1616 10.1243 21.7071C9.70949 22.5519 10.7076 23.385 11.4646 22.826C11.9535 22.4649 12.6524 22.6833 12.8487 23.2585C13.1527 24.1491 14.4477 24.0325 14.5876 23.1019C14.678 22.5008 15.3266 22.1611 15.8722 22.429C16.7169 22.8438 17.5501 21.8457 16.991 21.0887C16.6299 20.5998 16.8483 19.9009 17.4235 19.7046C18.3142 19.4006 18.1975 18.1056 17.2669 17.9657C16.6659 17.8753 16.3261 17.2267 16.594 16.6811C17.0088 15.8364 16.0107 15.0032 15.2537 15.5623C14.7648 15.9234 14.0659 15.705 13.8696 15.1298ZM13.49 20.6466C14.2921 20.5743 14.8839 19.8655 14.8116 19.0633C14.7394 18.2612 14.0305 17.6694 13.2283 17.7417C12.4262 17.8139 11.8345 18.5228 11.9067 19.325C11.979 20.1271 12.6878 20.7188 13.49 20.6466Z" fill="#E05149"/>
<path d="M11.9067 19.575C11.9789 20.3772 12.6878 20.9689 13.49 20.8967C14.2921 20.8244 14.8839 20.1155 14.8116 19.3134C14.7394 18.5112 14.0305 17.9195 13.2283 17.9917" stroke="#332A2A" stroke-width="1.5" stroke-linecap="round"/>
<path d="M7.06208 7.46236C7.25924 6.65356 8.40938 6.65356 8.60654 7.46236V7.46236C8.73388 7.98473 9.3323 8.2326 9.79171 7.95327V7.95327C10.503 7.52077 11.3163 8.33405 10.8838 9.04537V9.04537C10.6045 9.50478 10.8523 10.1032 11.3747 10.2305V10.2305C12.1835 10.4277 12.1835 11.5778 11.3747 11.775V11.775C10.8523 11.9023 10.6045 12.5008 10.8838 12.9602V12.9602C11.3163 13.6715 10.503 14.4848 9.79171 14.0523V14.0523C9.3323 13.7729 8.73388 14.0208 8.60654 14.5432V14.5432C8.40938 15.352 7.25924 15.352 7.06208 14.5432V14.5432C6.93474 14.0208 6.33632 13.7729 5.87691 14.0523V14.0523C5.16559 14.4848 4.35232 13.6715 4.78481 12.9602V12.9602C5.06415 12.5008 4.81627 11.9023 4.2939 11.775V11.775C3.4851 11.5778 3.4851 10.4277 4.2939 10.2305V10.2305C4.81627 10.1032 5.06415 9.50478 4.78481 9.04537V9.04537C4.35232 8.33405 5.16559 7.52077 5.87691 7.95327V7.95327C6.33632 8.2326 6.93474 7.98473 7.06208 7.46236V7.46236Z" stroke="#332A2A" stroke-width="1.5"/>
<path d="M9.12432 11.003C9.12432 10.2905 8.54674 9.71289 7.83425 9.71289C7.12177 9.71289 6.54419 10.2905 6.54419 11.003C6.54419 11.7154 7.12177 12.293 7.83425 12.293" stroke="#332A2A" stroke-width="1.5" stroke-linecap="round"/>
<path d="M12.1305 15.536C12.2705 14.6054 13.5654 14.4888 13.8694 15.3794V15.3794C14.0657 15.9546 14.7646 16.173 15.2535 15.812V15.812C16.0105 15.2529 17.0087 16.0861 16.5939 16.9308V16.9308C16.326 17.4763 16.6657 18.125 17.2667 18.2154V18.2154C18.1973 18.3553 18.314 19.6502 17.4234 19.9542V19.9542C16.8481 20.1506 16.6298 20.8495 16.9908 21.3384V21.3384C17.5499 22.0954 16.7167 23.0935 15.872 22.6787V22.6787C15.3264 22.4108 14.6778 22.7505 14.5874 23.3516V23.3516C14.4475 24.2822 13.1525 24.3988 12.8486 23.5082V23.5082C12.6522 22.933 11.9533 22.7146 11.4644 23.0756V23.0756C10.7074 23.6347 9.7093 22.8015 10.1241 21.9568V21.9568C10.392 21.4113 10.0523 20.7626 9.45122 20.6722V20.6722C8.52062 20.5323 8.40399 19.2374 9.29461 18.9334V18.9334C9.86982 18.737 10.0882 18.0382 9.72714 17.5492V17.5492C9.16807 16.7922 10.0013 15.7941 10.846 16.2089V16.2089C11.3915 16.4768 12.0401 16.1371 12.1305 15.536V15.536Z" stroke="#332A2A" stroke-width="1.5"/>
<path d="M18.213 5.0859C18.5576 4.10406 19.9859 4.23594 20.1449 5.26427L20.1717 5.43749C20.2738 6.09842 20.9834 6.47473 21.5879 6.18853L21.7382 6.11734C22.6849 5.66909 23.5764 6.81935 22.9421 7.65287V7.65287C22.5277 8.19729 22.7715 8.99925 23.4198 9.2177V9.2177C24.4187 9.55425 24.2834 11.0193 23.2398 11.1672V11.1672C22.5624 11.2633 22.176 12.007 22.4836 12.6181V12.6181C22.9546 13.5537 21.8676 14.5213 21.019 13.9073L20.8842 13.8098C20.3424 13.4177 19.5759 13.6577 19.3544 14.2888L19.2964 14.4542C18.9518 15.436 17.5235 15.3041 17.3645 14.2758L17.3377 14.1026C17.2356 13.4416 16.526 13.0653 15.9215 13.3515L15.7712 13.4227C14.8245 13.871 13.933 12.7207 14.5674 11.8872V11.8872C14.9817 11.3428 14.7379 10.5408 14.0896 10.3224V10.3224C13.0907 9.98582 13.226 8.5208 14.2696 8.37284V8.37284C14.947 8.27679 15.3334 7.53303 15.0258 6.92194V6.92194C14.5548 5.98637 15.6419 5.01879 16.4905 5.6328L16.6252 5.73031C17.167 6.12235 17.9335 5.88233 18.155 5.25129L18.213 5.0859Z" stroke="#332A2A" stroke-width="1.5"/>
<path d="M20.4249 9.92385C20.342 10.8214 19.5271 11.48 18.6048 11.3949C17.6824 11.3097 17.0019 10.513 17.0848 9.61545C17.1677 8.71787 17.9826 8.05927 18.9049 8.14443" stroke="#332A2A" stroke-width="1.5" stroke-linecap="round"/>
</g>
<defs>
<clipPath id="clip0_1244_16560">
<rect width="28" height="28" fill="white"/>
</clipPath>
</defs>
</svg>
