<svg width="23" height="23" viewBox="0 0 23 23" fill="none" xmlns="http://www.w3.org/2000/svg">
<g clip-path="url(#clip0_1244_16561)">
<path fill-rule="evenodd" clip-rule="evenodd" d="M15.0585 4.03103C15.3508 3.19801 16.5635 3.30998 16.6984 4.18245C16.7849 4.74194 17.3857 5.06113 17.8974 4.81885L17.9661 4.78632C18.7499 4.41516 19.5036 5.34725 18.9783 6.03741C18.6359 6.48733 18.836 7.14097 19.3718 7.3215C20.1973 7.59963 20.0864 8.80062 19.2239 8.9229C18.6641 9.00227 18.3478 9.60823 18.602 10.1132C18.992 10.8879 18.0804 11.6662 17.3778 11.1578L17.3162 11.1133C16.8575 10.7814 16.2084 10.9852 16.021 11.5194C15.7286 12.3524 14.5159 12.2404 14.381 11.368C14.2945 10.8085 13.6937 10.4893 13.1821 10.7316L13.1133 10.7641C12.3295 11.1352 11.5759 10.2032 12.1011 9.513C12.4435 9.06307 12.2435 8.40944 11.7077 8.22891C10.8822 7.95077 10.9931 6.74979 11.8555 6.6275C12.4153 6.54813 12.7317 5.94218 12.4774 5.43716C12.0875 4.66251 12.999 3.88417 13.7016 4.39257L13.7632 4.43714C14.2219 4.76901 14.871 4.56523 15.0585 4.03103ZM16.9115 7.90183C16.8434 8.63913 16.1741 9.18012 15.4164 9.11017C14.6588 9.04022 14.0998 8.38581 14.1679 7.64851C14.236 6.91121 14.9053 6.37022 15.663 6.44017C16.4206 6.51013 16.9796 7.16454 16.9115 7.90183ZM7.27518 5.83492C7.11323 5.17055 6.16847 5.17055 6.00652 5.83492C5.90192 6.26401 5.41036 6.46762 5.03298 6.23817C4.44869 5.88291 3.78064 6.55096 4.1359 7.13525C4.36535 7.51263 4.16174 8.00419 3.73265 8.10878C3.06828 8.27073 3.06828 9.2155 3.73265 9.37745C4.16174 9.48204 4.36535 9.97361 4.1359 10.351C3.78064 10.9353 4.44869 11.6033 5.03298 11.2481C5.41036 11.0186 5.90192 11.2222 6.00652 11.6513C6.16847 12.3157 7.11323 12.3157 7.27518 11.6513C7.37978 11.2222 7.87134 11.0186 8.24871 11.2481C8.83301 11.6033 9.50105 10.9353 9.14579 10.351C8.91634 9.97361 9.11995 9.48204 9.54904 9.37745C10.2134 9.2155 10.2134 8.27073 9.54904 8.10878C9.11995 8.00419 8.91634 7.51263 9.14579 7.13525C9.50105 6.55096 8.83301 5.88291 8.24871 6.23817C7.87134 6.46762 7.37978 6.26401 7.27518 5.83492ZM6.64084 9.80281C7.2261 9.80281 7.70054 9.32836 7.70054 8.74311C7.70054 8.15786 7.2261 7.68341 6.64084 7.68341C6.05559 7.68341 5.58115 8.15786 5.58115 8.74311C5.58115 9.32836 6.05559 9.80281 6.64084 9.80281ZM11.4375 12.6778C11.1878 11.9463 10.1241 12.0421 10.0091 12.8065C9.93489 13.3002 9.4021 13.5793 8.95395 13.3592C8.26008 13.0185 7.57569 13.8384 8.03492 14.4602C8.33152 14.8618 8.15212 15.4359 7.67963 15.5971C6.94805 15.8469 7.04385 16.9105 7.80827 17.0255C8.30198 17.0998 8.58107 17.6326 8.361 18.0807C8.02027 18.7746 8.84015 19.459 9.46197 18.9997C9.86358 18.7031 10.4377 18.8825 10.5989 19.355C10.8486 20.0866 11.9123 19.9908 12.0273 19.2264C12.1016 18.7327 12.6343 18.4536 13.0825 18.6736C13.7764 19.0144 14.4608 18.1945 14.0015 17.5727C13.7049 17.1711 13.8843 16.597 14.3568 16.4357C15.0884 16.186 14.9926 15.1223 14.2282 15.0073C13.7345 14.9331 13.4554 14.4003 13.6754 13.9522C14.0162 13.2583 13.1963 12.5739 12.5745 13.0331C12.1729 13.3297 11.5988 13.1503 11.4375 12.6778ZM11.1257 17.2095C11.7846 17.1502 12.2706 16.5679 12.2113 15.909C12.152 15.2501 11.5697 14.764 10.9108 14.8233C10.2518 14.8827 9.76578 15.465 9.82513 16.1239C9.88447 16.7828 10.4667 17.2689 11.1257 17.2095Z" fill="#E05149"/>
<path d="M6.00646 5.83513C6.16841 5.17076 7.11317 5.17076 7.27512 5.83513V5.83513C7.37972 6.26422 7.87128 6.46783 8.24865 6.23838V6.23838C8.83295 5.88312 9.501 6.55117 9.14573 7.13546V7.13546C8.91628 7.51284 9.11989 8.0044 9.54898 8.109V8.109C10.2134 8.27095 10.2134 9.21571 9.54898 9.37766V9.37766C9.11989 9.48226 8.91628 9.97382 9.14573 10.3512V10.3512C9.501 10.9355 8.83295 11.6035 8.24865 11.2483V11.2483C7.87128 11.0188 7.37972 11.2224 7.27512 11.6515V11.6515C7.11317 12.3159 6.16841 12.3159 6.00646 11.6515V11.6515C5.90186 11.2224 5.4103 11.0188 5.03292 11.2483V11.2483C4.44863 11.6035 3.78058 10.9355 4.13584 10.3512V10.3512C4.3653 9.97382 4.16168 9.48226 3.73259 9.37766V9.37766C3.06822 9.21571 3.06822 8.27095 3.73259 8.109V8.109C4.16168 8.0044 4.3653 7.51284 4.13584 7.13546V7.13546C3.78058 6.55117 4.44863 5.88312 5.03292 6.23838V6.23838C5.4103 6.46783 5.90186 6.26422 6.00646 5.83513V5.83513Z" stroke="#332A2A" stroke-width="1.35"/>
<path d="M7.70045 8.74329C7.70045 8.15804 7.226 7.68359 6.64075 7.68359C6.0555 7.68359 5.58105 8.15804 5.58105 8.74329C5.58105 9.32854 6.0555 9.80298 6.64075 9.80298" stroke="#332A2A" stroke-width="1.35" stroke-linecap="round"/>
<path d="M10.0091 12.8064C10.1241 12.042 11.1878 11.9462 11.4375 12.6778V12.6778C11.5988 13.1503 12.1728 13.3297 12.5744 13.0331V13.0331C13.1963 12.5738 14.0162 13.2582 13.6754 13.9521V13.9521C13.4553 14.4003 13.7344 14.933 14.2281 15.0073V15.0073C14.9926 15.1223 15.0884 16.1859 14.3568 16.4357V16.4357C13.8843 16.5969 13.7049 17.171 14.0015 17.5726V17.5726C14.4607 18.1944 13.7763 19.0143 13.0825 18.6736V18.6736C12.6343 18.4535 12.1015 18.7326 12.0273 19.2263V19.2263C11.9123 19.9907 10.8486 20.0865 10.5989 19.355V19.355C10.4376 18.8825 9.86356 18.7031 9.46195 18.9997V18.9997C8.84013 19.4589 8.02025 18.7745 8.36098 18.0806V18.0806C8.58105 17.6325 8.30196 17.0997 7.80825 17.0255V17.0255C7.04383 16.9105 6.94803 15.8468 7.67961 15.5971V15.5971C8.1521 15.4358 8.3315 14.8617 8.0349 14.4601V14.4601C7.57566 13.8383 8.26006 13.0184 8.95393 13.3592V13.3592C9.40208 13.5792 9.93487 13.3001 10.0091 12.8064V12.8064Z" stroke="#332A2A" stroke-width="1.35"/>
<path d="M9.82523 16.1238C9.88458 16.7827 10.4668 17.2687 11.1258 17.2094C11.7847 17.15 12.2708 16.5678 12.2114 15.9088C12.1521 15.2499 11.5698 14.7639 10.9109 14.8232" stroke="#332A2A" stroke-width="1.35" stroke-linecap="round"/>
<path d="M15.0586 4.03126C15.3509 3.19824 16.5637 3.31022 16.6985 4.18268V4.18268C16.785 4.74218 17.3858 5.06137 17.8975 4.81909L17.9662 4.78655C18.7501 4.4154 19.5037 5.34749 18.9785 6.03764V6.03764C18.636 6.48757 18.8361 7.1412 19.3719 7.32173V7.32173C20.1974 7.59987 20.0865 8.80085 19.224 8.92314V8.92314C18.6642 9.00251 18.3479 9.60846 18.6021 10.1135V10.1135C18.9921 10.8881 18.0805 11.6665 17.3779 11.1581L17.3163 11.1135C16.8576 10.7816 16.2086 10.9854 16.0211 11.5196V11.5196C15.7288 12.3526 14.516 12.2407 14.3811 11.3682V11.3682C14.2947 10.8087 13.6939 10.4895 13.1822 10.7318L13.1135 10.7643C12.3296 11.1355 11.576 10.2034 12.1012 9.51323V9.51323C12.4436 9.06331 12.2436 8.40967 11.7078 8.22914V8.22914C10.8823 7.95101 10.9932 6.75002 11.8556 6.62774V6.62774C12.4154 6.54837 12.7318 5.94241 12.4775 5.4374V5.4374C12.0876 4.66274 12.9991 3.8844 13.7018 4.39281L13.7634 4.43737C14.222 4.76925 14.8711 4.56546 15.0586 4.03126V4.03126Z" stroke="#332A2A" stroke-width="1.35"/>
<path d="M16.9114 7.90229C16.8433 8.63959 16.1739 9.18058 15.4163 9.11062C14.6587 9.04067 14.0997 8.38626 14.1678 7.64896C14.2358 6.91166 14.9052 6.37067 15.6628 6.44063" stroke="#332A2A" stroke-width="1.35" stroke-linecap="round"/>
</g>
<defs>
<clipPath id="clip0_1244_16561">
<rect width="23" height="23" fill="white"/>
</clipPath>
</defs>
</svg>
