<svg width="28" height="28" viewBox="0 0 28 28" fill="none" xmlns="http://www.w3.org/2000/svg">
<g clip-path="url(#clip0_1244_16502)">
<path d="M11.9067 19.575C11.9789 20.3772 12.6878 20.9689 13.49 20.8967C14.2921 20.8244 14.8839 20.1155 14.8116 19.3134C14.7394 18.5112 14.0305 17.9195 13.2283 17.9917" stroke="#332A2A" stroke-width="1.5" stroke-linecap="round"/>
<path d="M7.06208 7.46236C7.25924 6.65356 8.40938 6.65356 8.60654 7.46236V7.46236C8.73388 7.98473 9.3323 8.2326 9.79171 7.95327V7.95327C10.503 7.52077 11.3163 8.33405 10.8838 9.04537V9.04537C10.6045 9.50478 10.8523 10.1032 11.3747 10.2305V10.2305C12.1835 10.4277 12.1835 11.5778 11.3747 11.775V11.775C10.8523 11.9023 10.6045 12.5008 10.8838 12.9602V12.9602C11.3163 13.6715 10.503 14.4848 9.79171 14.0523V14.0523C9.3323 13.7729 8.73388 14.0208 8.60654 14.5432V14.5432C8.40938 15.352 7.25924 15.352 7.06208 14.5432V14.5432C6.93474 14.0208 6.33632 13.7729 5.87691 14.0523V14.0523C5.16559 14.4848 4.35232 13.6715 4.78481 12.9602V12.9602C5.06415 12.5008 4.81627 11.9023 4.2939 11.775V11.775C3.4851 11.5778 3.4851 10.4277 4.2939 10.2305V10.2305C4.81627 10.1032 5.06415 9.50478 4.78481 9.04537V9.04537C4.35232 8.33405 5.16559 7.52077 5.87691 7.95327V7.95327C6.33632 8.2326 6.93474 7.98473 7.06208 7.46236V7.46236Z" stroke="#332A2A" stroke-width="1.5"/>
<path d="M9.12432 11.003C9.12432 10.2905 8.54674 9.71289 7.83425 9.71289C7.12177 9.71289 6.54419 10.2905 6.54419 11.003C6.54419 11.7154 7.12177 12.293 7.83425 12.293" stroke="#332A2A" stroke-width="1.5" stroke-linecap="round"/>
<path d="M12.1305 15.536C12.2705 14.6054 13.5654 14.4888 13.8694 15.3794V15.3794C14.0657 15.9546 14.7646 16.173 15.2535 15.812V15.812C16.0105 15.2529 17.0087 16.0861 16.5939 16.9308V16.9308C16.326 17.4763 16.6657 18.125 17.2667 18.2154V18.2154C18.1973 18.3553 18.314 19.6502 17.4234 19.9542V19.9542C16.8481 20.1506 16.6298 20.8495 16.9908 21.3384V21.3384C17.5499 22.0954 16.7167 23.0935 15.872 22.6787V22.6787C15.3264 22.4108 14.6778 22.7505 14.5874 23.3516V23.3516C14.4475 24.2822 13.1525 24.3988 12.8486 23.5082V23.5082C12.6522 22.933 11.9533 22.7146 11.4644 23.0756V23.0756C10.7074 23.6347 9.7093 22.8015 10.1241 21.9568V21.9568C10.392 21.4113 10.0523 20.7626 9.45122 20.6722V20.6722C8.52062 20.5323 8.40399 19.2374 9.29461 18.9334V18.9334C9.86982 18.737 10.0882 18.0382 9.72714 17.5492V17.5492C9.16807 16.7922 10.0013 15.7941 10.846 16.2089V16.2089C11.3915 16.4768 12.0401 16.1371 12.1305 15.536V15.536Z" stroke="#332A2A" stroke-width="1.5"/>
<path d="M18.213 5.0859C18.5576 4.10406 19.9859 4.23594 20.1449 5.26427L20.1717 5.43749C20.2738 6.09842 20.9834 6.47473 21.5879 6.18853L21.7382 6.11734C22.6849 5.66909 23.5764 6.81935 22.9421 7.65287V7.65287C22.5277 8.19729 22.7715 8.99925 23.4198 9.2177V9.2177C24.4187 9.55425 24.2834 11.0193 23.2398 11.1672V11.1672C22.5624 11.2633 22.176 12.007 22.4836 12.6181V12.6181C22.9546 13.5537 21.8676 14.5213 21.019 13.9073L20.8842 13.8098C20.3424 13.4177 19.5759 13.6577 19.3544 14.2888L19.2964 14.4542C18.9518 15.436 17.5235 15.3041 17.3645 14.2758L17.3377 14.1026C17.2356 13.4416 16.526 13.0653 15.9215 13.3515L15.7712 13.4227C14.8245 13.871 13.933 12.7207 14.5674 11.8872V11.8872C14.9817 11.3428 14.7379 10.5408 14.0896 10.3224V10.3224C13.0907 9.98582 13.226 8.5208 14.2696 8.37284V8.37284C14.947 8.27679 15.3334 7.53303 15.0258 6.92194V6.92194C14.5548 5.98637 15.6419 5.01879 16.4905 5.6328L16.6252 5.73031C17.167 6.12235 17.9335 5.88233 18.155 5.25129L18.213 5.0859Z" stroke="#332A2A" stroke-width="1.5"/>
<path d="M20.4249 9.92385C20.342 10.8214 19.5271 11.48 18.6048 11.3949C17.6824 11.3097 17.0019 10.513 17.0848 9.61545C17.1677 8.71787 17.9826 8.05927 18.9049 8.14443" stroke="#332A2A" stroke-width="1.5" stroke-linecap="round"/>
</g>
<defs>
<clipPath id="clip0_1244_16502">
<rect width="28" height="28" fill="white"/>
</clipPath>
</defs>
</svg>
