<svg width="44" height="44" viewBox="0 0 44 44" fill="none" xmlns="http://www.w3.org/2000/svg">
<g clip-path="url(#clip0_1244_16559)">
<path fill-rule="evenodd" clip-rule="evenodd" d="M27.3727 8.18994C27.932 6.59634 30.252 6.81055 30.51 8.47961C30.6755 9.54995 31.8248 10.1606 32.8037 9.69708L32.9351 9.63484C34.4347 8.92481 35.8764 10.7079 34.8716 12.0282C34.2166 12.889 34.5993 14.1394 35.6243 14.4847C37.2035 15.0168 36.9913 17.3144 35.3414 17.5483C34.2705 17.7001 33.6653 18.8594 34.1517 19.8255C34.8977 21.3074 33.1539 22.7964 31.8097 21.8238L31.6919 21.7386C30.8144 21.1037 29.5727 21.4935 29.2141 22.5155C28.6548 24.1091 26.3348 23.8949 26.0768 22.2258C25.9113 21.1555 24.762 20.5448 23.7831 21.0083L23.6516 21.0706C22.1521 21.7806 20.7104 19.9975 21.7152 18.6772C22.3702 17.8165 21.9875 16.566 20.9625 16.2207C19.3833 15.6886 19.5955 13.391 21.2454 13.1571C22.3163 13.0053 22.9215 11.8461 22.4351 10.8799C21.6891 9.39799 23.4329 7.90899 24.7771 8.88159L24.8949 8.96685C25.7724 9.60174 27.0141 9.21189 27.3727 8.18994ZM30.9177 15.595C30.7875 17.0054 29.5069 18.0404 28.0575 17.9066C26.6082 17.7727 25.5388 16.5208 25.669 15.1103C25.7992 13.6999 27.0798 12.6649 28.5292 12.7987C29.9785 12.9326 31.0479 14.1845 30.9177 15.595ZM13.9177 12.1188C13.6079 10.8479 11.8005 10.8479 11.4907 12.1188C11.2906 12.9397 10.3502 13.3292 9.62831 12.8903C8.51053 12.2106 7.23253 13.4886 7.91216 14.6064C8.35111 15.3284 7.9616 16.2687 7.14073 16.4688C5.86976 16.7787 5.86976 18.586 7.14073 18.8958C7.96159 19.0959 8.35111 20.0363 7.91216 20.7583C7.23253 21.876 8.51053 23.154 9.62831 22.4744C10.3502 22.0355 11.2906 22.425 11.4907 23.2458C11.8005 24.5168 13.6079 24.5168 13.9177 23.2458C14.1178 22.425 15.0582 22.0355 15.7801 22.4744C16.8979 23.154 18.1759 21.876 17.4963 20.7583C17.0573 20.0363 17.4469 19.0959 18.2677 18.8958C19.5387 18.586 19.5387 16.7787 18.2677 16.4688C17.4469 16.2687 17.0573 15.3284 17.4963 14.6064C18.1759 13.4886 16.8979 12.2106 15.7801 12.8903C15.0582 13.3292 14.1178 12.9397 13.9177 12.1188ZM12.7042 19.7096C13.8238 19.7096 14.7315 18.8019 14.7315 17.6823C14.7315 16.5627 13.8238 15.6551 12.7042 15.6551C11.5846 15.6551 10.677 16.5627 10.677 17.6823C10.677 18.8019 11.5846 19.7096 12.7042 19.7096ZM21.4022 23.7749C20.9245 22.3754 18.8896 22.5586 18.6697 24.021C18.5277 24.9655 17.5084 25.4994 16.6511 25.0784C15.3237 24.4266 14.0144 25.995 14.8929 27.1846C15.4603 27.9529 15.1172 29.0512 14.2132 29.3597C12.8137 29.8374 12.997 31.8723 14.4594 32.0922C15.4038 32.2342 15.9377 33.2535 15.5167 34.1108C14.8649 35.4382 16.4334 36.7475 17.6229 35.869C18.3912 35.3016 19.4895 35.6447 19.798 36.5487C20.2757 37.9482 22.3106 37.7649 22.5305 36.3025C22.6726 35.3581 23.6918 34.8242 24.5492 35.2452C25.8766 35.897 27.1858 34.3285 26.3073 33.139C25.7399 32.3707 26.0831 31.2724 26.987 30.9639C28.3865 30.4862 28.2033 28.4513 26.7409 28.2314C25.7964 28.0893 25.2625 27.0701 25.6835 26.2127C26.3353 24.8853 24.7669 23.5761 23.5773 24.4546C22.809 25.022 21.7107 24.6788 21.4022 23.7749ZM20.8057 32.4442C22.0662 32.3307 22.9961 31.2168 22.8825 29.9562C22.769 28.6957 21.6551 27.7658 20.3945 27.8794C19.134 27.9929 18.2041 29.1068 18.3177 30.3674C18.4312 31.6279 19.5451 32.5578 20.8057 32.4442Z" fill="#E05149"/>
<path fill-rule="evenodd" clip-rule="evenodd" d="M26.6651 7.94226C27.4828 5.61228 30.874 5.9254 31.2513 8.36571C31.3402 8.94118 31.958 9.26838 32.4828 9.0199L32.6142 8.95766C34.8281 7.90939 36.9461 10.5415 35.4685 12.4831C35.1237 12.9361 35.3258 13.5934 35.8638 13.7747C38.1921 14.5592 37.8794 17.9466 35.4467 18.2915C34.8846 18.3713 34.5657 18.9804 34.8216 19.4889C35.9188 21.6683 33.3546 23.868 31.3701 22.4321L31.2523 22.3469C30.7819 22.0065 30.1146 22.215 29.9218 22.7645C29.1041 25.0945 25.7128 24.7814 25.3356 22.3411C25.2467 21.7656 24.6289 21.4384 24.1041 21.6869L23.9726 21.7491C21.7588 22.7974 19.6408 20.1653 21.1184 18.2237C21.4631 17.7706 21.2611 17.1134 20.7231 16.9321C18.3947 16.1476 18.7075 12.7601 21.1401 12.4152C21.7023 12.3355 22.0212 11.7263 21.7652 11.2178C20.6681 9.0385 23.2323 6.83872 25.2168 8.27464L25.3346 8.3599C25.805 8.70026 26.4723 8.49171 26.6651 7.94226ZM29.7689 8.59486C29.6301 7.69705 28.3813 7.58174 28.0805 8.43896C27.556 9.9334 25.7398 10.5046 24.4553 9.57514L24.3375 9.48988C23.6336 8.9806 22.7101 9.75882 23.1051 10.5434C23.8218 11.9671 22.9304 13.6764 21.3507 13.9004C20.4835 14.0233 20.372 15.2309 21.202 15.5106C22.714 16.02 23.2773 17.8636 22.312 19.1321C21.7801 19.831 22.5455 20.7652 23.3307 20.3934L23.4622 20.3312C24.8951 19.6526 26.5761 20.5467 26.818 22.1119C26.9568 23.0097 28.2056 23.125 28.5064 22.2678C29.0309 20.7734 30.8471 20.2022 32.1316 21.1316L32.2494 21.2169C32.9533 21.7262 33.8768 20.9479 33.4818 20.1634C32.7651 18.7396 33.6565 17.0304 35.2362 16.8064C36.1034 16.6834 36.2149 15.4758 35.3848 15.1962C33.8729 14.6867 33.3095 12.8431 34.2748 11.5747C34.8068 10.8757 34.0414 9.94157 33.2562 10.3134L33.1247 10.3756C31.6917 11.0541 30.0108 10.1601 29.7689 8.59486ZM14.6464 11.9421C14.1505 9.90794 11.2579 9.90793 10.7621 11.9421C10.6821 12.27 10.3064 12.4257 10.018 12.2503C8.22899 11.1626 6.18359 13.208 7.27132 14.9969C7.4467 15.2854 7.29107 15.6611 6.9631 15.741C4.92897 16.2369 4.92896 19.1295 6.9631 19.6254C7.29107 19.7053 7.4467 20.081 7.27132 20.3695C6.18359 22.1584 8.22899 24.2038 10.018 23.1161C10.3064 22.9407 10.6821 23.0964 10.7621 23.4243C11.2579 25.4585 14.1505 25.4585 14.6464 23.4243C14.7263 23.0964 15.1021 22.9407 15.3905 23.1161C17.1795 24.2038 19.2249 22.1584 18.1371 20.3695C17.9618 20.081 18.1174 19.7053 18.4454 19.6254C20.4795 19.1295 20.4795 16.2369 18.4454 15.741C18.1174 15.6611 17.9618 15.2854 18.1371 14.9969C19.2249 13.208 17.1795 11.1626 15.3905 12.2503C15.1021 12.4257 14.7263 12.27 14.6464 11.9421ZM12.2194 12.2973C12.3432 11.7895 13.0653 11.7895 13.1891 12.2973C13.5093 13.6111 15.0144 14.2345 16.1698 13.532C16.6164 13.2604 17.127 13.771 16.8555 14.2176C16.1529 15.3731 16.7763 16.8781 18.0901 17.1984C18.5979 17.3221 18.5979 18.0443 18.0901 18.168C16.7763 18.4883 16.1529 19.9933 16.8555 21.1488C17.127 21.5954 16.6164 22.106 16.1698 21.8344C15.0144 21.1319 13.5093 21.7553 13.1891 23.0691C13.0653 23.5769 12.3432 23.5769 12.2194 23.0691C11.8991 21.7553 10.3941 21.1319 9.23867 21.8344C8.79207 22.106 8.28146 21.5954 8.553 21.1488C9.25553 19.9933 8.63212 18.4883 7.31835 18.168C6.81055 18.0443 6.81055 17.3221 7.31835 17.1984C8.63212 16.8781 9.25553 15.3731 8.553 14.2176C8.28146 13.771 8.79207 13.2604 9.23867 13.532C10.3941 14.2345 11.8991 13.6111 12.2194 12.2973ZM11.427 17.6833C11.427 16.9779 11.9988 16.4061 12.7042 16.4061C13.4096 16.4061 13.9815 16.9779 13.9815 17.6833C13.9815 18.0975 14.3172 18.4333 14.7315 18.4333C15.1457 18.4333 15.4815 18.0975 15.4815 17.6833C15.4815 16.1495 14.238 14.9061 12.7042 14.9061C11.1704 14.9061 9.92698 16.1495 9.92698 17.6833C9.92698 19.2171 11.1704 20.4605 12.7042 20.4605C13.1184 20.4605 13.4542 20.1248 13.4542 19.7105C13.4542 19.2963 13.1184 18.9605 12.7042 18.9605C11.9988 18.9605 11.427 18.3887 11.427 17.6833ZM17.9281 23.9099C18.2648 21.6708 21.3806 21.3901 22.112 23.5331C22.2567 23.9569 22.7716 24.1177 23.1318 23.8517C24.9532 22.5065 27.3548 24.5113 26.3567 26.5438C26.1594 26.9457 26.4097 27.4236 26.8525 27.4902C29.0916 27.8269 29.3722 30.9427 27.2293 31.6741C26.8055 31.8188 26.6446 32.3336 26.9106 32.6938C28.2558 34.5153 26.2511 36.9169 24.2186 35.9188C23.8167 35.7214 23.3388 35.9717 23.2722 36.4145C22.9355 38.6537 19.8197 38.9343 19.0883 36.7914C18.9436 36.3676 18.4287 36.2067 18.0685 36.4727C16.2471 37.8179 13.8455 35.8132 14.8436 33.7807C15.0409 33.3787 14.7906 32.9009 14.3478 32.8343C12.1087 32.4975 11.8281 29.3818 13.971 28.6503C14.3948 28.5057 14.5557 27.9908 14.2897 27.6306C12.9445 25.8092 14.9492 23.4076 16.9817 24.4056C17.3836 24.603 17.8615 24.3527 17.9281 23.9099ZM20.6925 24.0176C20.4685 23.3615 19.5145 23.4474 19.4114 24.133C19.1939 25.5792 17.6332 26.3967 16.3205 25.7521C15.6982 25.4465 15.0844 26.1818 15.4963 26.7395C16.3651 27.9159 15.8396 29.5975 14.4555 30.0699C13.7994 30.2939 13.8853 31.2479 14.5709 31.351C16.0171 31.5685 16.8346 33.1291 16.19 34.4418C15.8844 35.0642 16.6197 35.678 17.1774 35.2661C18.3538 34.3973 20.0354 34.9228 20.5078 36.3068C20.7318 36.963 21.6858 36.877 21.7889 36.1914C22.0064 34.7453 23.5671 33.9278 24.8798 34.5724C25.5021 34.878 26.1159 34.1427 25.704 33.585C24.8352 32.4086 25.3607 30.7269 26.7447 30.2545C27.4009 30.0306 27.315 29.0766 26.6294 28.9735C25.1832 28.756 24.3657 27.1953 25.0103 25.8826C25.3159 25.2603 24.5806 24.6465 24.0229 25.0583C22.8465 25.9272 21.1649 25.4017 20.6925 24.0176ZM20.3273 27.1331C19.9147 27.1703 19.6104 27.5348 19.6476 27.9474C19.6847 28.3599 20.0493 28.6642 20.4618 28.6271C21.3098 28.5507 22.0592 29.1762 22.1356 30.0242C22.212 30.8722 21.5864 31.6216 20.7384 31.698C19.8904 31.7743 19.1411 31.1488 19.0647 30.3008C19.0275 29.8883 18.663 29.584 18.2504 29.6211C17.8379 29.6583 17.5336 30.0228 17.5707 30.4354C17.7214 32.1085 19.1999 33.3426 20.873 33.1919C22.5461 33.0412 23.7802 31.5628 23.6295 29.8897C23.4788 28.2166 22.0004 26.9824 20.3273 27.1331ZM26.4159 15.1798C26.5063 14.2008 27.4041 13.4485 28.4603 13.5461C28.8728 13.5842 29.238 13.2807 29.2761 12.8682C29.3142 12.4557 29.0107 12.0905 28.5982 12.0524C26.7557 11.8823 25.0924 13.1999 24.9223 15.0419C24.7522 16.8839 26.1461 18.4838 27.9887 18.6539C29.8313 18.824 31.4945 17.5064 31.6646 15.6644C31.7027 15.252 31.3992 14.8867 30.9868 14.8486C30.5743 14.8106 30.2091 15.1141 30.171 15.5265C30.0806 16.5055 29.1828 17.2578 28.1266 17.1602C27.0704 17.0627 26.3255 16.1588 26.4159 15.1798Z" fill="#332A2A"/>
</g>
<defs>
<clipPath id="clip0_1244_16559">
<rect width="44" height="44" fill="white"/>
</clipPath>
</defs>
</svg>
