<svg width="28" height="28" viewBox="0 0 28 28" fill="none" xmlns="http://www.w3.org/2000/svg">
<g clip-path="url(#clip0_661_6104)">
<path fill-rule="evenodd" clip-rule="evenodd" d="M10.7001 6.95879C9.88979 6.73307 9.23842 6.36876 8.85872 5.97229H4.98608C3.88151 5.97229 2.98608 6.86772 2.98608 7.97229V20.3056C2.98608 21.4102 3.88151 22.3056 4.98608 22.3056H23.1528C24.2573 22.3056 25.1528 21.4102 25.1528 20.3056V7.97229C25.1528 6.86772 24.2573 5.97229 23.1528 5.97229H19.2801C18.9004 6.36876 18.249 6.73307 17.4388 6.95879C17.127 7.04565 16.816 7.10521 16.5158 7.13896H16.6944C17.4833 9.7029 19.2308 9.59953 20.8095 9.50615C21.0986 9.48905 21.3819 9.47229 21.6527 9.47229L20.7777 10.3473L21.9444 10.639C17.8611 13.264 14.0694 8.59729 14.0694 6.84729L14.7414 6.98168C14.4324 6.86172 14.2057 6.68717 14.0995 6.46368C14.0879 6.4393 14.0779 6.41467 14.0694 6.38981C14.061 6.41467 14.051 6.4393 14.0394 6.46367C13.9602 6.63022 13.8141 6.76959 13.617 6.87945L13.7778 6.84729C13.7778 8.59729 9.98608 13.264 5.90275 10.639L7.06942 10.3473L6.19442 9.47229C6.46522 9.47229 6.74859 9.48905 7.03762 9.50615C8.61637 9.59953 10.3638 9.7029 11.1528 7.13896H11.6231C11.3229 7.10521 11.0119 7.04565 10.7001 6.95879Z" fill="#E05149"/>
<path fill-rule="evenodd" clip-rule="evenodd" d="M13.7608 3.66647C13.6633 3.78836 13.5834 3.9848 13.5834 4.22915C13.5834 4.47349 13.6633 4.66993 13.7608 4.79182C13.8572 4.91233 13.9466 4.93748 14.0001 4.93748C14.0536 4.93748 14.143 4.91233 14.2394 4.79182C14.3369 4.66993 14.4167 4.47349 14.4167 4.22915C14.4167 3.9848 14.3369 3.78836 14.2394 3.66647C14.143 3.54596 14.0536 3.52081 14.0001 3.52081C13.9466 3.52081 13.8572 3.54596 13.7608 3.66647ZM12.1584 3.62768C12.3704 2.77876 13.0224 2.02081 14.0001 2.02081C14.9777 2.02081 15.6298 2.77874 15.8417 3.62764C15.8445 3.62685 15.8474 3.62606 15.8502 3.62528C16.5002 3.4442 17.3407 3.35023 18.1036 3.42283C18.4848 3.45911 18.8946 3.54135 19.2656 3.70875C19.6468 3.88069 20.0285 4.1642 20.2341 4.59644C20.3139 4.7642 20.3553 4.92779 20.3667 5.08537L23.9367 5.08381C24.9841 5.08336 25.8334 5.9323 25.8334 6.97968V21.0208C25.8334 22.0678 24.9846 22.9166 23.9375 22.9166H19.649C19.2348 22.9166 18.899 22.5809 18.899 22.1666C18.899 21.7524 19.2348 21.4166 19.649 21.4166H23.9375C24.1562 21.4166 24.3334 21.2394 24.3334 21.0208V19.1772H3.66675V21.0208C3.66675 21.2394 3.84398 21.4166 4.06261 21.4166H14.2146C14.6288 21.4166 14.9646 21.7524 14.9646 22.1666C14.9646 22.5809 14.6288 22.9166 14.2146 22.9166H4.06261C3.01555 22.9166 2.16675 22.0678 2.16675 21.0208V6.97918C2.16675 5.93212 3.01556 5.08331 4.06261 5.08331H7.63345C7.64503 4.92636 7.6865 4.76346 7.76593 4.59644C8.23937 3.60088 9.31012 3.35933 10.0601 3.3342C10.8373 3.30816 11.6365 3.48227 12.1498 3.62527C12.1527 3.62607 12.1556 3.62687 12.1584 3.62768ZM8.43481 6.58331H4.06261C3.84398 6.58331 3.66675 6.76055 3.66675 6.97918V15.1667H24.3334V6.97968C24.3334 6.76098 24.1561 6.58372 23.9374 6.58381L19.5622 6.58572C19.089 6.97029 18.4363 7.28963 17.6915 7.49713C17.6735 7.50212 17.6556 7.50705 17.6376 7.51189C17.7752 7.77204 17.9228 7.96332 18.0698 8.10607C18.3256 8.35431 18.6204 8.49515 18.9632 8.57257C19.3186 8.65283 19.7182 8.66333 20.1728 8.64585C20.319 8.64022 20.4838 8.63062 20.6557 8.62061C20.9643 8.60263 21.2958 8.58331 21.5834 8.58331C21.8868 8.58331 22.1602 8.76605 22.2763 9.0463C22.3827 9.30322 22.3377 9.59573 22.1642 9.80791C22.4003 9.90647 22.5727 10.1206 22.6151 10.3781C22.6637 10.6733 22.5323 10.9691 22.2806 11.1309C20.7382 12.1224 19.1921 12.2169 17.8335 11.8004C17.4375 11.679 17.2149 11.2595 17.3363 10.8635C17.4577 10.4675 17.8772 10.2448 18.2732 10.3663C18.8139 10.532 19.3954 10.5884 20.0066 10.4727C19.9987 10.4518 19.9917 10.4303 19.9856 10.4085C19.9622 10.3238 19.9541 10.2371 19.9605 10.1521C19.5389 10.1584 19.0835 10.1375 18.6328 10.0357C18.0715 9.90897 17.5131 9.65607 17.0251 9.18244C16.6733 8.84098 16.3802 8.40627 16.1461 7.86838L15.102 8.09005C15.2576 8.24548 15.4374 8.40679 15.6544 8.60149C15.8302 8.75916 16.0304 8.93873 16.2619 9.15481C16.5646 9.43746 16.581 9.91205 16.2983 10.2148C16.0157 10.5176 15.5411 10.534 15.2383 10.2513C15.0688 10.0932 14.8956 9.93724 14.7274 9.78587L14.7274 9.78585C14.4104 9.50062 14.1113 9.23152 13.8894 8.99374C13.8187 8.918 13.7489 8.83863 13.6823 8.75509C13.4016 9.252 13.0005 9.75629 12.4702 10.2513C12.1674 10.534 11.6928 10.5176 11.4102 10.2148C11.1275 9.91205 11.1438 9.43746 11.4466 9.15481C11.8594 8.76953 12.1444 8.4095 12.3361 8.08716L11.5526 7.89077C11.3202 8.41835 11.0303 8.84574 10.6834 9.18244C10.1954 9.65607 9.63703 9.90897 9.07569 10.0357C8.625 10.1375 8.16963 10.1584 7.74799 10.1521C7.75438 10.2371 7.74633 10.3238 7.72287 10.4085C7.71682 10.4304 7.70982 10.4518 7.70193 10.4727C8.21414 10.5696 8.70388 10.5454 9.16466 10.439C9.56826 10.3458 9.97099 10.5974 10.0642 11.001C10.1574 11.4046 9.90576 11.8073 9.50216 11.9005C8.231 12.1941 6.82529 12.0292 5.42785 11.1309C5.17622 10.9691 5.04478 10.6733 5.09338 10.3781C5.13579 10.1206 5.30823 9.90647 5.54432 9.80791C5.37082 9.59573 5.32575 9.30322 5.43217 9.0463C5.54826 8.76605 5.82173 8.58331 6.12508 8.58331C6.41266 8.58331 6.74417 8.60263 7.05281 8.62061C7.2247 8.63062 7.3895 8.64022 7.53568 8.64585C7.99031 8.66333 8.38986 8.65283 8.7453 8.57257C9.08813 8.49515 9.38289 8.35431 9.63866 8.10607C9.79931 7.95015 9.96048 7.73633 10.1088 7.4381C9.44556 7.23084 8.86559 6.93414 8.43481 6.58331ZM12.3204 5.28794C12.495 5.66105 12.7624 5.98665 13.1107 6.19515C13.029 6.22886 12.9038 6.26632 12.7154 6.29425C12.2557 6.3624 11.6238 6.32943 10.9528 6.1425C10.2817 5.95557 9.76992 5.66993 9.47503 5.39158C9.21433 5.1455 9.21617 5.0102 9.21645 4.98981L9.21646 4.9878C9.26436 4.8955 9.38791 4.76398 9.91293 4.74639C10.4323 4.72898 11.0441 4.85133 11.5056 4.9799C11.8123 5.06533 12.0857 5.17139 12.3204 5.28794ZM16.5677 6.25211C16.724 6.22413 16.8845 6.18784 17.0473 6.1425C17.7183 5.95557 18.2301 5.66993 18.525 5.39158C18.7641 5.16588 18.7823 5.03337 18.7835 4.99724C18.7711 4.98782 18.7477 4.97304 18.7061 4.95427C18.5921 4.90287 18.4044 4.853 18.1413 4.82796C17.6155 4.77793 16.9805 4.84449 16.4944 4.9799C16.1878 5.06531 15.9144 5.17133 15.6798 5.28784C15.5052 5.66101 15.2378 5.98667 14.8894 6.19519C14.9711 6.22889 15.0963 6.26633 15.2846 6.29425C15.5992 6.3409 15.9946 6.34017 16.4279 6.27513L16.4693 6.26633C16.5022 6.25935 16.5351 6.25464 16.5677 6.25211ZM18.7958 5.00887C18.7956 5.00892 18.794 5.00748 18.7921 5.0044C18.7951 5.00728 18.7961 5.00882 18.7958 5.00887Z" fill="#332A2A"/>
</g>
<defs>
<clipPath id="clip0_661_6104">
<rect width="28" height="28" fill="white"/>
</clipPath>
</defs>
</svg>
