<svg width="20" height="20" viewBox="0 0 20 20" fill="none" xmlns="http://www.w3.org/2000/svg">
<path fill-rule="evenodd" clip-rule="evenodd" d="M7.8881 5.46913C7.36751 5.32296 6.94925 5.08791 6.70568 4.83254L4.93042 4.82891C3.82585 4.82666 2.92859 5.72026 2.92634 6.82482L2.91307 13.3248C2.91081 14.4294 3.80441 15.3266 4.90898 15.3289L15.159 15.3498C16.2635 15.3521 17.1608 14.4585 17.163 13.3539L17.1763 6.85392C17.1786 5.74935 16.285 4.85209 15.1804 4.84984L13.4051 4.84621C13.1605 5.10059 12.7413 5.33394 12.2201 5.47798C12.0196 5.5334 11.8196 5.57128 11.6265 5.59258L11.7414 5.59282C12.2452 7.2421 13.3687 7.17794 14.3837 7.11998C14.5695 7.10937 14.7517 7.09897 14.9258 7.09932L14.3622 7.66067L15.1118 7.84971C12.4833 9.53184 10.052 6.52687 10.0543 5.40187L10.486 5.48915C10.2876 5.41162 10.1421 5.29912 10.0741 5.15531C10.0667 5.13962 10.0603 5.12377 10.0549 5.10778C10.0494 5.12375 10.0429 5.13957 10.0354 5.15522C9.98431 5.26219 9.89023 5.35159 9.76335 5.42195L9.86676 5.40149C9.86446 6.52649 7.42084 9.52151 4.79929 7.82865L5.54967 7.64268L4.98832 7.07904C5.16241 7.07939 5.34455 7.09054 5.53034 7.10191C6.54512 7.16401 7.66836 7.23276 8.17888 5.58555L8.48123 5.58616C8.28829 5.56407 8.08843 5.52538 7.8881 5.46913Z" fill="#E05149"/>
<path fill-rule="evenodd" clip-rule="evenodd" d="M9.97118 3.4462C9.93003 3.49742 9.88817 3.59159 9.88791 3.71851C9.88765 3.84542 9.92913 3.93976 9.97006 3.99115C9.98991 4.01606 10.0046 4.02614 10.0123 4.02996C10.02 4.02617 10.0347 4.01616 10.0546 3.99133C10.0958 3.9401 10.1376 3.84593 10.1379 3.71902C10.1382 3.5921 10.0967 3.49776 10.0558 3.44637C10.0359 3.42146 10.0212 3.41138 10.0135 3.40756C10.0058 3.41135 9.99112 3.42137 9.97118 3.4462ZM10.0197 3.40548C10.0197 3.40559 10.0188 3.40592 10.0169 3.40611C10.0187 3.40546 10.0196 3.40536 10.0197 3.40548ZM10.0102 3.4061C10.0083 3.40589 10.0074 3.40556 10.0074 3.40545C10.0075 3.40534 10.0084 3.40544 10.0102 3.4061ZM10.0062 4.03205C10.0061 4.03193 10.007 4.03161 10.0089 4.03141C10.0071 4.03206 10.0062 4.03216 10.0062 4.03205ZM10.0156 4.03143C10.0175 4.03163 10.0184 4.03196 10.0184 4.03207C10.0184 4.03219 10.0174 4.03208 10.0156 4.03143ZM8.73236 3.15831C8.91498 2.62039 9.35745 2.15492 10.0161 2.15626C10.6753 2.15761 11.1161 2.62568 11.2962 3.16492C11.7038 3.07124 12.1947 3.02784 12.6486 3.07197C12.9049 3.09689 13.1893 3.15342 13.4521 3.27262C13.7233 3.39562 14.0055 3.60336 14.1577 3.92501C14.1914 3.99636 14.2158 4.06641 14.232 4.13489L15.9904 4.13772C16.9688 4.13929 17.7604 4.93387 17.7584 5.91219L17.7417 14.1199C17.7397 15.098 16.9452 15.8892 15.9672 15.8872L13.6195 15.8824C13.2743 15.8817 12.9951 15.6013 12.9958 15.2561C12.9965 14.9109 13.2769 14.6317 13.6221 14.6324L15.9698 14.6372C16.2574 14.6378 16.4911 14.4051 16.4917 14.1174L16.4933 13.3415L3.4933 13.3149L3.49172 14.0909C3.49113 14.3785 3.72385 14.6122 4.01152 14.6128L10.1285 14.6253C10.4737 14.626 10.753 14.9064 10.7522 15.2515C10.7515 15.5967 10.4712 15.876 10.126 15.8753L4.00897 15.8628C3.03095 15.8608 2.23972 15.0663 2.24172 14.0883L2.25848 5.88005C2.26048 4.90203 3.05494 4.11081 4.03295 4.1128L5.79232 4.1164C5.80882 4.04838 5.83339 3.97886 5.86723 3.90808C6.21396 3.18277 6.994 3.01959 7.49555 3.00381C7.94553 2.98965 8.40073 3.07454 8.73236 3.15831ZM6.37086 5.36758L4.0304 5.3628C3.74274 5.36221 3.50906 5.59494 3.50848 5.8826L3.49857 10.7367L16.4985 10.7633L16.5084 5.90964C16.509 5.62189 16.2762 5.38818 15.9884 5.38772L13.6461 5.38396C13.3576 5.60533 12.9833 5.78947 12.563 5.91851C12.6168 5.99875 12.671 6.06267 12.7238 6.11409C12.8658 6.25251 13.03 6.33271 13.2295 6.37818C13.4395 6.42605 13.6815 6.43391 13.9701 6.4234C14.0578 6.42021 14.1605 6.41446 14.2694 6.40836C14.4712 6.39706 14.6943 6.38457 14.8825 6.38496C15.1353 6.38547 15.3628 6.53822 15.4591 6.77196C15.5259 6.93409 15.5203 7.11304 15.4509 7.26701C15.5731 7.36208 15.6582 7.50121 15.6841 7.66006C15.7241 7.90611 15.614 8.15239 15.4041 8.28676C14.9468 8.57939 14.3342 8.68755 13.7455 8.69545C13.1397 8.70359 12.4761 8.60676 11.8573 8.41513C11.2426 8.22475 10.6344 7.92903 10.1683 7.51258C10.1233 7.47236 10.0794 7.43073 10.0367 7.38771C9.9938 7.43055 9.94968 7.472 9.9045 7.51204C9.4367 7.92658 8.82735 8.21982 8.21182 8.40769C7.59229 8.59679 6.9283 8.69091 6.32249 8.6803C5.73384 8.66999 5.12168 8.55933 4.66564 8.26484C4.45623 8.12961 4.3472 7.88288 4.3882 7.637C4.41467 7.47826 4.5004 7.33947 4.62295 7.2449C4.55416 7.09065 4.54935 6.91168 4.61678 6.74982C4.714 6.51648 4.94221 6.36466 5.19499 6.36518C5.3832 6.36556 5.60616 6.37896 5.8079 6.39108L5.80791 6.39108L5.80792 6.39108L5.80792 6.39108C5.9168 6.39763 6.0195 6.4038 6.10721 6.40735C6.39577 6.41904 6.63777 6.41217 6.84796 6.36515C7.04763 6.3205 7.21218 6.24096 7.35477 6.10313C7.40423 6.05532 7.45504 5.99661 7.50558 5.92388C7.06376 5.7922 6.67054 5.59994 6.37086 5.36758ZM8.67694 4.92024L8.51532 4.88558C8.45933 4.87358 8.40336 4.86948 8.34862 4.87259C8.27166 4.85713 8.19292 4.83832 8.11302 4.81588C7.69823 4.69942 7.38983 4.52395 7.21826 4.36134C7.15155 4.29811 7.11857 4.25192 7.10243 4.22239C7.14554 4.20552 7.2306 4.18477 7.37049 4.18037C7.67981 4.17064 8.05513 4.24512 8.34673 4.327C8.52816 4.37794 8.68922 4.44016 8.82739 4.50767C8.90418 4.65988 9.00369 4.80048 9.1248 4.91887C8.99572 4.9332 8.84378 4.93492 8.67694 4.92024ZM11.6757 4.87873C11.7516 4.8637 11.8294 4.84543 11.9082 4.82363C12.3235 4.70887 12.6326 4.53465 12.8048 4.37275C12.8444 4.33552 12.8722 4.3042 12.8917 4.27872C12.8382 4.2649 12.7674 4.2517 12.6776 4.24298C12.3623 4.21232 11.9735 4.2517 11.6765 4.3338C11.4949 4.38398 11.3336 4.44553 11.1952 4.51244C11.1178 4.66437 11.0177 4.80458 10.8961 4.9225C11.0574 4.94107 11.2546 4.94006 11.4721 4.91202L11.5682 4.89182C11.6042 4.88426 11.6401 4.87996 11.6757 4.87873ZM12.0055 7.14638C11.5979 6.99729 11.2498 6.80254 11.0012 6.58044C10.9102 6.49921 10.8358 6.41758 10.7765 6.33552L11.3049 6.22447C11.4527 6.53705 11.6344 6.79789 11.8514 7.00929C11.9017 7.05836 11.9532 7.10398 12.0055 7.14638ZM9.07547 6.57651C8.82598 6.79759 8.47704 6.99092 8.06882 7.13834C8.12136 7.09615 8.17298 7.05074 8.22353 7.00188C8.44131 6.79137 8.62412 6.53127 8.77321 6.2193L9.30116 6.33251C9.24153 6.41432 9.16672 6.49565 9.07547 6.57651ZM7.08785 4.18691C7.0873 4.18421 7.08729 4.18286 7.08743 4.18287C7.08756 4.18287 7.08784 4.18422 7.08785 4.18691ZM12.9364 4.19481C12.9365 4.19481 12.9365 4.19615 12.9359 4.19885C12.936 4.19616 12.9362 4.19481 12.9364 4.19481Z" fill="#252323"/>
</svg>
