<svg width="44" height="44" viewBox="0 0 44 44" fill="none" xmlns="http://www.w3.org/2000/svg">
<g clip-path="url(#clip0_214_547)">
<path fill-rule="evenodd" clip-rule="evenodd" d="M16.7052 10.7169C15.4319 10.3622 14.4084 9.78971 13.8117 9.16669H6.58325C5.47868 9.16669 4.58325 10.0621 4.58325 11.1667V32.8334C4.58325 33.9379 5.47868 34.8334 6.58325 34.8334H37.4166C38.5212 34.8334 39.4166 33.9379 39.4166 32.8334V11.1667C39.4166 10.0621 38.5212 9.16669 37.4166 9.16669H30.1881C29.5915 9.78971 28.5679 10.3622 27.2946 10.7169C26.8046 10.8534 26.3159 10.947 25.8442 11H26.1249C27.3646 15.0291 30.1107 14.8666 32.5915 14.7199L32.5916 14.7199C33.0457 14.693 33.491 14.6667 33.9166 14.6667L32.5416 16.0417L34.3749 16.5C27.9583 20.625 21.9999 13.2917 21.9999 10.5417L23.0558 10.7529C22.5703 10.5644 22.2141 10.2901 22.0471 9.93886C22.0289 9.90057 22.0132 9.86186 21.9999 9.8228C21.9866 9.86186 21.9709 9.90056 21.9527 9.93886C21.8282 10.2006 21.5987 10.4196 21.2889 10.5922L21.5416 10.5417C21.5416 13.2917 15.5833 20.625 9.16658 16.5L10.9999 16.0417L9.62492 14.6667C10.0505 14.6667 10.4958 14.693 10.9499 14.7199H10.95C13.4309 14.8666 16.1769 15.0291 17.4166 11H18.1557C17.6839 10.947 17.1952 10.8534 16.7052 10.7169Z" fill="#E05149"/>
<path fill-rule="evenodd" clip-rule="evenodd" d="M21.9999 5.10419C21.5491 5.10419 20.9166 5.62959 20.9166 6.64585C20.9166 7.66212 21.5491 8.18752 21.9999 8.18752C22.4507 8.18752 23.0833 7.66212 23.0833 6.64585C23.0833 5.62959 22.4507 5.10419 21.9999 5.10419ZM19.4396 6.24794C19.598 4.87473 20.5637 3.60419 21.9999 3.60419C23.4361 3.60419 24.4018 4.87469 24.5603 6.24787C24.7329 6.18917 24.9101 6.13442 25.0913 6.08395C26.4284 5.71148 27.7985 5.62371 28.9277 5.82206C29.3636 5.89862 29.6933 6.27089 29.6641 6.65354C29.6348 7.03619 29.2578 7.28432 28.8219 7.20776C28.007 7.06463 26.8958 7.11534 25.7355 7.43858C25.2034 7.5868 24.7268 7.77403 24.3179 7.98284C24.03 8.67979 23.5193 9.26104 22.8429 9.52885C22.8359 9.61486 22.8221 9.70175 22.8008 9.78935C22.9106 9.94101 23.2336 10.1752 24.0021 10.2892C24.8071 10.4085 25.8689 10.347 26.9724 10.0396C28.0759 9.73219 28.941 9.25697 29.4574 8.76952C30.011 8.24699 30.0069 7.88465 29.9384 7.74057C29.7605 7.3665 29.9397 6.97315 30.3388 6.86199C30.7378 6.75084 31.2055 6.96397 31.3834 7.33804C31.5609 7.71133 31.5913 8.07639 31.5225 8.42013L38.2699 8.41719C39.3173 8.41673 40.1666 9.26567 40.1666 10.3131V33.6875C40.1666 34.7345 39.3178 35.5834 38.2707 35.5834H30.8768C30.4626 35.5834 30.1268 35.2476 30.1268 34.8334C30.1268 34.4191 30.4626 34.0834 30.8768 34.0834H38.2707C38.4893 34.0834 38.6666 33.9061 38.6666 33.6875V30.1356H5.33325V33.6875C5.33325 33.9061 5.51049 34.0834 5.72912 34.0834H22.337C22.7512 34.0834 23.087 34.4191 23.087 34.8334C23.087 35.2476 22.7512 35.5834 22.337 35.5834H5.72912C4.68206 35.5834 3.83325 34.7345 3.83325 33.6875V10.3126C3.83325 9.2655 4.68206 8.41669 5.72912 8.41669H12.4764C12.4085 8.07395 12.4393 7.71008 12.6163 7.33803C12.8656 6.81365 13.3379 6.43868 13.859 6.19247C14.3751 5.94862 14.9791 5.80936 15.604 5.75131C16.0407 5.71073 16.3854 5.99247 16.3739 6.38059C16.3624 6.76871 15.999 7.11624 15.5623 7.15681C15.0811 7.20152 14.7069 7.30209 14.4493 7.42378C14.1968 7.5431 14.0998 7.65938 14.0612 7.74056C13.9927 7.88464 13.9887 8.24699 14.5422 8.76952C15.0586 9.25697 15.9237 9.73218 17.0272 10.0396C18.1307 10.347 19.1925 10.4085 19.9975 10.2892C20.766 10.1752 21.089 9.94101 21.1988 9.78935C21.1775 9.70172 21.1637 9.6148 21.1567 9.52875C20.4805 9.26092 19.9699 8.67979 19.682 7.98298C19.2731 7.77412 18.7963 7.58683 18.2641 7.43857C17.8651 7.32742 17.6858 6.93406 17.8637 6.55999C18.0416 6.18592 18.5093 5.97279 18.9083 6.08394C19.0896 6.13443 19.2668 6.18921 19.4396 6.24794ZM13.4464 9.91669H5.72912C5.51049 9.91669 5.33325 10.0939 5.33325 10.3126V23.8334H38.6666V10.3131C38.6666 10.0944 38.4892 9.91709 38.2705 9.91719L30.5488 9.92056C29.8469 10.5351 28.8195 11.0591 27.6166 11.3942C27.4478 11.4412 27.2784 11.4837 27.1092 11.5217C27.4003 12.2132 27.74 12.6994 28.0968 13.0457C28.565 13.5002 29.1035 13.7535 29.7047 13.8893C30.3185 14.0279 30.9909 14.0425 31.7164 14.0146C31.9653 14.0051 32.2334 13.9894 32.5075 13.9733L32.5077 13.9733C32.982 13.9455 33.4745 13.9167 33.9166 13.9167C34.2199 13.9167 34.4934 14.0994 34.6095 14.3797C34.7256 14.6599 34.6614 14.9825 34.4469 15.197L34.0086 15.6354L34.5568 15.7724C34.847 15.845 35.0664 16.083 35.115 16.3782C35.1636 16.6733 35.0321 16.9691 34.7805 17.1309C32.468 18.6175 30.17 18.7532 28.1495 18.1337C27.7535 18.0123 27.5309 17.5929 27.6523 17.1968C27.7737 16.8008 28.1932 16.5782 28.5892 16.6996C29.7036 17.0413 30.9211 17.1048 32.1985 16.7087C32.0146 16.6141 31.8754 16.4461 31.8188 16.2419C31.7467 15.9815 31.8202 15.7024 32.0113 15.5114L32.0197 15.5029C31.9393 15.5067 31.8575 15.5103 31.7741 15.5135C31.0099 15.5429 30.1814 15.5347 29.3743 15.3524C28.5546 15.1673 27.7525 14.8019 27.052 14.1221C26.4741 13.5611 25.9941 12.814 25.6222 11.8435L23.3137 12.2257C23.3383 12.2708 23.3637 12.3165 23.3901 12.3627C23.8271 13.1294 24.467 13.9577 25.2617 14.6995C25.5645 14.9821 25.5808 15.4567 25.2982 15.7595C25.0155 16.0623 24.5409 16.0786 24.2381 15.796C23.3357 14.9536 22.6006 14.0068 22.0869 13.1055C21.9112 12.7973 21.7559 12.4848 21.6283 12.1758C21.3485 13.3053 20.641 14.5474 19.3034 15.796C19.0006 16.0786 18.526 16.0623 18.2433 15.7595C17.9607 15.4567 17.977 14.9821 18.2798 14.6995C19.2632 13.7816 19.7952 12.9283 20.0565 12.1961L17.9194 11.8432C17.5475 12.8139 17.0675 13.5611 16.4895 14.1221C15.789 14.8019 14.9869 15.1673 14.1672 15.3524C13.3601 15.5347 12.5316 15.5429 11.7674 15.5135C11.684 15.5103 11.6022 15.5067 11.5218 15.5029L11.5302 15.5114C11.7213 15.7024 11.7948 15.9815 11.7227 16.2419C11.6661 16.4461 11.5268 16.6141 11.3429 16.7087C12.4514 17.0525 13.5125 17.0493 14.4978 16.8218C14.9014 16.7286 15.3042 16.9802 15.3974 17.3838C15.4906 17.7874 15.2389 18.1901 14.8353 18.2833C12.9484 18.719 10.8581 18.479 8.76102 17.1309C8.50939 16.9691 8.37795 16.6733 8.42655 16.3782C8.47514 16.083 8.69448 15.845 8.98468 15.7724L9.53292 15.6354L9.09459 15.197C8.88009 14.9825 8.81592 14.6599 8.93201 14.3797C9.04809 14.0994 9.32157 13.9167 9.62492 13.9167C10.067 13.9167 10.5594 13.9455 11.0337 13.9733L11.0338 13.9733H11.0338C11.308 13.9894 11.5762 14.0051 11.8251 14.0146C12.5506 14.0425 13.223 14.0279 13.8368 13.8893C14.438 13.7535 14.9765 13.5002 15.4447 13.0457C15.8189 12.6826 16.1743 12.1656 16.4745 11.4192C16.444 11.411 16.4135 11.4027 16.383 11.3942C15.1775 11.0584 14.1484 10.5329 13.4464 9.91669Z" fill="#252323"/>
</g>
<defs>
<clipPath id="clip0_214_547">
<rect width="44" height="44" fill="white"/>
</clipPath>
</defs>
</svg>
