<svg width="19" height="19" viewBox="0 0 19 19" fill="none" xmlns="http://www.w3.org/2000/svg">
<g clip-path="url(#clip0_661_6158)">
<path fill-rule="evenodd" clip-rule="evenodd" d="M6.90641 4.4875C6.38582 4.34133 5.96756 4.10628 5.72399 3.85091L3.94873 3.84728C2.84416 3.84503 1.9469 4.73863 1.94465 5.8432L1.93138 12.3432C1.92912 13.4478 2.82272 14.345 3.92729 14.3473L14.1773 14.3682C15.2818 14.3704 16.1791 13.4768 16.1813 12.3723L16.1946 5.87229C16.1969 4.76772 15.3033 3.87047 14.1987 3.86821L12.4234 3.86459C12.1788 4.11896 11.7596 4.35231 11.2384 4.49635C11.0379 4.55177 10.8379 4.58965 10.6448 4.61096L10.7597 4.61119C11.2635 6.26047 12.387 6.19632 13.402 6.13836C13.5878 6.12774 13.77 6.11734 13.9441 6.1177L13.3805 6.67905L14.1301 6.86808C11.5016 8.55021 9.07027 5.54524 9.07257 4.42025L9.50435 4.50752C9.30589 4.43 9.16041 4.31749 9.09238 4.17368C9.08496 4.15799 9.07857 4.14215 9.07317 4.12615C9.0677 4.14212 9.06124 4.15794 9.05375 4.1736C9.00262 4.28056 8.90854 4.36996 8.78166 4.44032L8.88507 4.41986C8.88277 5.54486 6.43915 8.53988 3.8176 6.84702L4.56798 6.66105L4.00663 6.09741C4.18072 6.09776 4.36287 6.10891 4.54865 6.12028C5.56344 6.18239 6.68667 6.25113 7.19719 4.60392L7.49954 4.60453C7.3066 4.58245 7.10674 4.54375 6.90641 4.4875Z" fill="#E05149"/>
<path fill-rule="evenodd" clip-rule="evenodd" d="M8.98949 2.46457C8.94834 2.51579 8.90648 2.60996 8.90622 2.73688C8.90596 2.86379 8.94744 2.95814 8.98838 3.00952C9.00822 3.03444 9.02289 3.04451 9.03058 3.04834C9.0383 3.04454 9.053 3.03453 9.07295 3.0097C9.1141 2.95848 9.15596 2.8643 9.15622 2.73739C9.15648 2.61047 9.115 2.51613 9.07406 2.46474C9.05422 2.43983 9.03955 2.42975 9.03185 2.42593C9.02414 2.42972 9.00944 2.43974 8.98949 2.46457ZM9.03797 2.42385C9.03799 2.42396 9.03709 2.42429 9.0352 2.42448C9.037 2.42383 9.03794 2.42373 9.03797 2.42385ZM9.02851 2.42447C9.02662 2.42427 9.02573 2.42394 9.02575 2.42382C9.02577 2.42371 9.02672 2.42381 9.02851 2.42447ZM9.02447 3.05042C9.02445 3.0503 9.02534 3.04998 9.02723 3.04978C9.02544 3.05044 9.02449 3.05053 9.02447 3.05042ZM9.03393 3.0498C9.03581 3.05 9.03671 3.05033 9.03669 3.05044C9.03666 3.05056 9.03572 3.05046 9.03393 3.0498ZM7.75067 2.17668C7.93329 1.63876 8.37576 1.17329 9.03441 1.17464C9.69362 1.17598 10.1344 1.64405 10.3145 2.18329C10.7221 2.08961 11.213 2.04621 11.6669 2.09035C11.9232 2.11526 12.2076 2.17179 12.4704 2.29099C12.7416 2.41399 13.0238 2.62173 13.176 2.94338C13.2098 3.01473 13.2341 3.08478 13.2504 3.15327L15.0087 3.15609C15.9871 3.15766 16.7788 3.95224 16.7768 4.93057L16.76 13.1383C16.758 14.1163 15.9635 14.9076 14.9855 14.9056L12.6378 14.9008C12.2927 14.9001 12.0134 14.6197 12.0141 14.2745C12.0148 13.9293 12.2952 13.6501 12.6404 13.6508L14.9881 13.6556C15.2757 13.6562 15.5094 13.4234 15.51 13.1358L15.5116 12.3598L2.51161 12.3333L2.51003 13.1092C2.50944 13.3969 2.74216 13.6306 3.02983 13.6312L9.14683 13.6436C9.49201 13.6443 9.77126 13.9247 9.77056 14.2699C9.76985 14.6151 9.48946 14.8943 9.14428 14.8936L3.02728 14.8812C2.04926 14.8792 1.25803 14.0847 1.26003 13.1067L1.27679 4.89842C1.27879 3.9204 2.07325 3.12918 3.05126 3.13118L4.81063 3.13477C4.82713 3.06675 4.8517 2.99723 4.88554 2.92645C5.23227 2.20115 6.01231 2.03796 6.51386 2.02218C6.96384 2.00802 7.41904 2.09291 7.75067 2.17668ZM5.38917 4.38595L3.04871 4.38117C2.76105 4.38059 2.52737 4.61331 2.52679 4.90097L2.51688 9.7551L15.5168 9.78165L15.5268 4.92801C15.5273 4.64026 15.2945 4.40655 15.0067 4.40609L12.6644 4.40233C12.3759 4.6237 12.0016 4.80784 11.5813 4.93688C11.6351 5.01713 11.6893 5.08105 11.7421 5.13247C11.8841 5.27088 12.0483 5.35108 12.2478 5.39655C12.4578 5.44442 12.6998 5.45228 12.9884 5.44177C13.0761 5.43858 13.1789 5.43283 13.2878 5.42673C13.4895 5.41543 13.7126 5.40295 13.9008 5.40333C14.1536 5.40385 14.3812 5.55659 14.4774 5.79033C14.5442 5.95246 14.5387 6.13141 14.4692 6.28538C14.5914 6.38045 14.6766 6.51958 14.7024 6.67843C14.7424 6.92448 14.6323 7.17077 14.4224 7.30514C13.9651 7.59776 13.3525 7.70592 12.7638 7.71383C12.158 7.72196 11.4944 7.62513 10.8756 7.43351C10.2609 7.24312 9.65274 6.9474 9.18664 6.53095C9.14162 6.49073 9.09766 6.4491 9.05498 6.40608C9.01211 6.44893 8.96799 6.49037 8.92281 6.53041C8.45501 6.94495 7.84566 7.23819 7.23013 7.42606C6.6106 7.61516 5.94661 7.70928 5.3408 7.69867C4.75215 7.68836 4.13999 7.5777 3.68395 7.28321C3.47454 7.14799 3.36551 6.90125 3.40651 6.65537C3.43298 6.49663 3.51871 6.35784 3.64127 6.26327C3.57247 6.10902 3.56766 5.93005 3.63509 5.7682C3.73231 5.53485 3.96052 5.38304 4.2133 5.38355C4.40151 5.38394 4.62447 5.39733 4.82621 5.40945L4.82622 5.40945L4.82623 5.40945L4.82623 5.40945C4.93511 5.416 5.03781 5.42217 5.12552 5.42572C5.41408 5.43741 5.65608 5.43054 5.86627 5.38353C6.06594 5.33887 6.23049 5.25934 6.37308 5.1215C6.42254 5.07369 6.47335 5.01498 6.52389 4.94225C6.08207 4.81057 5.68885 4.61831 5.38917 4.38595ZM7.69525 3.93861L7.53363 3.90395C7.47764 3.89195 7.42167 3.88786 7.36693 3.89096C7.28997 3.8755 7.21123 3.85669 7.13133 3.83426C6.71654 3.71779 6.40814 3.54232 6.23658 3.37971C6.16986 3.31648 6.13688 3.27029 6.12074 3.24076C6.16385 3.22389 6.24891 3.20314 6.3888 3.19874C6.69812 3.18901 7.07344 3.2635 7.36505 3.34537C7.54647 3.39631 7.70753 3.45854 7.8457 3.52604C7.92249 3.67826 8.022 3.81885 8.14311 3.93725C8.01403 3.95157 7.86209 3.95329 7.69525 3.93861ZM10.694 3.8971C10.77 3.88207 10.8477 3.8638 10.9265 3.84201C11.3418 3.72724 11.6509 3.55302 11.8231 3.39112C11.8627 3.35389 11.8905 3.32257 11.91 3.29709C11.8566 3.28327 11.7857 3.27007 11.6959 3.26135C11.3806 3.23069 10.9918 3.27008 10.6948 3.35217C10.5132 3.40235 10.3519 3.4639 10.2135 3.53081C10.1361 3.68274 10.036 3.82295 9.91441 3.94087C10.0757 3.95944 10.2729 3.95843 10.4904 3.9304L10.5865 3.91019C10.6225 3.90263 10.6584 3.89833 10.694 3.8971ZM11.0238 6.16475C10.6162 6.01566 10.2681 5.82091 10.0195 5.59881C9.92856 5.51758 9.85408 5.43595 9.79479 5.3539L10.3232 5.24284C10.471 5.55542 10.6528 5.81626 10.8697 6.02766C10.92 6.07673 10.9715 6.12235 11.0238 6.16475ZM8.09378 5.59488C7.84429 5.81597 7.49535 6.00929 7.08713 6.15671C7.13967 6.11453 7.19129 6.06911 7.24184 6.02026C7.45962 5.80974 7.64243 5.54965 7.79152 5.23767L8.31947 5.35088C8.25984 5.43269 8.18503 5.51402 8.09378 5.59488ZM6.10616 3.20528C6.10561 3.20258 6.1056 3.20124 6.10574 3.20124C6.10587 3.20124 6.10615 3.20259 6.10616 3.20528ZM11.9547 3.21318C11.9548 3.21318 11.9548 3.21453 11.9542 3.21723C11.9543 3.21454 11.9546 3.21319 11.9547 3.21318Z" fill="#332A2A"/>
</g>
<defs>
<clipPath id="clip0_661_6158">
<rect width="18" height="18" fill="white" transform="translate(0.0368652) rotate(0.116977)"/>
</clipPath>
</defs>
</svg>
