<svg width="23" height="23" viewBox="0 0 23 23" fill="none" xmlns="http://www.w3.org/2000/svg">
<g clip-path="url(#clip0_661_6131)">
<path fill-rule="evenodd" clip-rule="evenodd" d="M8.78936 5.71616C8.12378 5.53075 7.58873 5.23149 7.27683 4.90582H4.45288C3.34831 4.90582 2.45288 5.80125 2.45288 6.90582V16.3225C2.45288 17.4271 3.34831 18.3225 4.45288 18.3225H18.6612C19.7658 18.3225 20.6612 17.4271 20.6612 16.3225V6.90582C20.6612 5.80125 19.7658 4.90582 18.6612 4.90582H15.8373C15.5254 5.2315 14.9903 5.53075 14.3247 5.71616C14.0686 5.78751 13.8132 5.83643 13.5666 5.86416H13.7133C14.3613 7.97025 15.7967 7.88534 17.0936 7.80863C17.331 7.79459 17.5638 7.78082 17.7862 7.78082L17.0675 8.49957L18.0258 8.73916C14.6716 10.8954 11.557 7.06207 11.557 5.62457L12.109 5.73496C11.8552 5.63642 11.669 5.49304 11.5817 5.30946C11.5722 5.28944 11.564 5.26921 11.557 5.24879C11.5501 5.26921 11.5419 5.28944 11.5324 5.30946C11.4673 5.44627 11.3473 5.56075 11.1854 5.65099L11.3175 5.62457C11.3175 7.06207 8.20288 10.8954 4.84871 8.73916L5.80705 8.49957L5.0883 7.78082C5.31074 7.78082 5.54351 7.79459 5.78093 7.80863C7.07776 7.88534 8.51318 7.97025 9.16121 5.86416H9.54755C9.30096 5.83643 9.04549 5.78751 8.78936 5.71616Z" fill="#E05149"/>
<path fill-rule="evenodd" clip-rule="evenodd" d="M11.3496 3.04854C11.2784 3.13751 11.2168 3.28566 11.2168 3.47393C11.2168 3.6622 11.2784 3.81035 11.3496 3.89932C11.4197 3.98704 11.4773 3.99685 11.5001 3.99685C11.523 3.99685 11.5805 3.98704 11.6507 3.89932C11.7218 3.81035 11.7834 3.6622 11.7834 3.47393C11.7834 3.28566 11.7218 3.13751 11.6507 3.04854C11.5805 2.96082 11.523 2.95101 11.5001 2.95101C11.4773 2.95101 11.4197 2.96082 11.3496 3.04854ZM9.94563 2.90824C10.1396 2.21444 10.6842 1.60101 11.5001 1.60101C12.316 1.60101 12.8607 2.21453 13.0546 2.90841C13.5861 2.76859 14.2568 2.6981 14.8694 2.7564C15.1871 2.78664 15.5325 2.85546 15.8474 2.99753C16.1713 3.14368 16.5003 3.38684 16.6777 3.75982C16.736 3.88247 16.7705 4.00229 16.7857 4.11831L19.4576 4.11714C20.4636 4.1167 21.2793 4.93206 21.2793 5.938V17.0624C21.2793 18.0681 20.4641 18.8833 19.4584 18.8833H16.1403C15.7675 18.8833 15.4653 18.5811 15.4653 18.2083C15.4653 17.8355 15.7675 17.5333 16.1403 17.5333H19.4584C19.7185 17.5333 19.9293 17.3225 19.9293 17.0624V15.7527H3.07095V17.0624C3.07095 17.3225 3.28176 17.5333 3.54181 17.5333H11.6763C12.0491 17.5333 12.3513 17.8355 12.3513 18.2083C12.3513 18.5811 12.0491 18.8833 11.6763 18.8833H3.54181C2.53617 18.8833 1.72095 18.0681 1.72095 17.0624V5.9375C1.72095 4.93187 2.53618 4.11664 3.54181 4.11664H6.21464C6.22991 4.00114 6.26439 3.88188 6.32244 3.75982C6.72821 2.90656 7.64544 2.70423 8.2695 2.68332C8.88825 2.66259 9.52086 2.79366 9.94563 2.90824ZM6.90312 5.46664H3.54181C3.28176 5.46664 3.07095 5.67745 3.07095 5.9375V12.4583H19.9293V5.938C19.9293 5.67787 19.7183 5.46703 19.4582 5.46714L16.0945 5.46861C15.7046 5.77981 15.1755 6.0373 14.5751 6.20666C14.6753 6.3832 14.7804 6.51558 14.8842 6.61626C15.0851 6.81132 15.3169 6.92261 15.5899 6.98426C15.8743 7.04847 16.1964 7.05735 16.5683 7.04305C16.6858 7.03853 16.8198 7.03073 16.9603 7.02256L16.9604 7.02255L16.9604 7.02255C17.2154 7.00772 17.4917 6.99164 17.7293 6.99164C18.0023 6.99164 18.2484 7.1561 18.3529 7.40833C18.4391 7.61636 18.4149 7.8503 18.2955 8.03421C18.4735 8.13265 18.6008 8.30839 18.6349 8.51531C18.6786 8.78096 18.5603 9.04719 18.3339 9.19277C17.0516 10.0171 15.7635 10.0965 14.6317 9.74949C14.2753 9.64021 14.075 9.2627 14.1842 8.90628C14.2935 8.54986 14.671 8.34951 15.0275 8.45879C15.4433 8.58629 15.889 8.63365 16.3575 8.55629C16.3439 8.50422 16.3367 8.4514 16.3356 8.39885C16.0039 8.40113 15.647 8.38113 15.2926 8.3011C14.8229 8.19505 14.3539 7.9829 13.9439 7.58499C13.6583 7.30778 13.4199 6.95847 13.2284 6.53088L12.5251 6.68019C12.6326 6.78324 12.754 6.89214 12.8955 7.01901L12.8955 7.01905C13.04 7.14862 13.2054 7.29694 13.3982 7.47694C13.6707 7.73132 13.6854 8.15845 13.431 8.43097C13.1767 8.70348 12.7495 8.71819 12.477 8.46381C12.34 8.33594 12.1989 8.2089 12.0612 8.08498L12.0612 8.08498C11.7993 7.84933 11.5501 7.62501 11.3661 7.42791C11.3262 7.38512 11.2864 7.34077 11.2475 7.29473C11.0162 7.68487 10.6966 8.07836 10.2836 8.46381C10.0111 8.71819 9.58398 8.70348 9.3296 8.43097C9.07522 8.15845 9.08992 7.73132 9.36244 7.47694C9.66928 7.19051 9.88799 6.92249 10.041 6.68065L9.52326 6.55087C9.33325 6.96937 9.09786 7.31211 8.81672 7.58499C8.40675 7.9829 7.93774 8.19505 7.46806 8.3011C7.11364 8.38113 6.75669 8.40113 6.42499 8.39885C6.42395 8.4514 6.41675 8.50423 6.40312 8.5563C6.79206 8.6205 7.16402 8.59848 7.51491 8.51746C7.87814 8.43358 8.24059 8.66004 8.32447 9.02327C8.40835 9.38651 8.18189 9.74896 7.81866 9.83284C6.75928 10.0775 5.58827 9.93945 4.42677 9.19277C4.20031 9.04719 4.08201 8.78096 4.12575 8.51531C4.15982 8.30839 4.28712 8.13265 4.46518 8.03421C4.34576 7.8503 4.32158 7.61636 4.40775 7.40833C4.51222 7.1561 4.75835 6.99164 5.03136 6.99164C5.26894 6.99164 5.54526 7.00772 5.80019 7.02255L5.80021 7.02255L5.80024 7.02255L5.8003 7.02255C5.94084 7.03073 6.07488 7.03853 6.19233 7.04305C6.56427 7.05735 6.88633 7.04847 7.17071 6.98426C7.44374 6.92261 7.6755 6.81132 7.87648 6.61626C7.99205 6.50408 8.10939 6.35254 8.21969 6.14443C7.70284 5.97663 7.24823 5.74271 6.90312 5.46664ZM10.0771 4.3891C10.2079 4.66106 10.3976 4.90285 10.6406 5.07545C10.5883 5.08963 10.5232 5.10357 10.4426 5.11552C10.0764 5.16982 9.56672 5.14406 9.02226 4.99239C8.4778 4.84072 8.06574 4.60971 7.83081 4.38795C7.65546 4.22243 7.63601 4.12711 7.63346 4.10221C7.66373 4.05305 7.75549 3.96707 8.13703 3.95428C8.55351 3.94033 9.0487 4.03879 9.42579 4.14384C9.67114 4.21218 9.8896 4.29664 10.0771 4.3891ZM13.6178 5.076C13.7352 5.05413 13.8557 5.02644 13.9778 4.9924C14.5223 4.84073 14.9344 4.60971 15.1693 4.38795C15.3081 4.25692 15.3492 4.16988 15.3616 4.12694C15.3564 4.12435 15.3505 4.12153 15.3438 4.1185C15.2603 4.08083 15.1148 4.04114 14.9033 4.02101C14.4807 3.9808 13.9672 4.0344 13.5743 4.14384C13.329 4.21217 13.1106 4.2966 12.9232 4.38903C12.7924 4.66103 12.6026 4.90286 12.3596 5.07548C12.4119 5.08965 12.477 5.10358 12.5575 5.11552C12.8022 5.1518 13.1109 5.15234 13.4513 5.10347L13.5162 5.08969C13.5501 5.08248 13.5841 5.07797 13.6178 5.076ZM15.3952 4.14722C15.3951 4.14724 15.3941 4.14649 15.3925 4.1449C15.3945 4.1464 15.3953 4.1472 15.3952 4.14722Z" fill="#252323"/>
</g>
<defs>
<clipPath id="clip0_661_6131">
<rect width="23" height="23" fill="white"/>
</clipPath>
</defs>
</svg>
