<svg width="18" height="18" viewBox="0 0 18 18" fill="none" xmlns="http://www.w3.org/2000/svg">
<g clip-path="url(#clip0_661_6318)">
<path fill-rule="evenodd" clip-rule="evenodd" d="M8.95771 2.44627C8.91667 2.49758 8.875 2.59184 8.875 2.71875C8.875 2.84566 8.91667 2.93992 8.95771 2.99123C8.97761 3.0161 8.9923 3.02615 9 3.02995C9.00771 3.02615 9.02239 3.0161 9.04229 2.99123C9.08333 2.93992 9.125 2.84566 9.125 2.71875C9.125 2.59184 9.08333 2.49758 9.04229 2.44627C9.02239 2.4214 9.00771 2.41135 9 2.40755C8.9923 2.41135 8.97761 2.4214 8.95771 2.44627ZM9.00611 2.40545C9.00613 2.40557 9.00524 2.40589 9.00335 2.40609C9.00514 2.40544 9.00609 2.40534 9.00611 2.40545ZM8.99666 2.40609C8.99477 2.40589 8.99387 2.40557 8.99389 2.40545C8.99392 2.40534 8.99486 2.40544 8.99666 2.40609ZM8.99389 3.03205C8.99387 3.03193 8.99477 3.03161 8.99666 3.03141C8.99486 3.03206 8.99392 3.03216 8.99389 3.03205ZM9.00335 3.03141C9.00524 3.03161 9.00613 3.03193 9.00611 3.03205C9.00609 3.03216 9.00514 3.03206 9.00335 3.03141ZM7.71831 2.16091C7.89983 1.62262 8.34135 1.15625 9 1.15625C9.65921 1.15625 10.1009 1.62341 10.2822 2.16229C10.6895 2.06778 11.1803 2.02337 11.6344 2.06658C11.8907 2.09097 12.1753 2.14692 12.4383 2.26559C12.7097 2.38804 12.9924 2.5952 13.1452 2.91653C13.1791 2.98782 13.2036 3.05782 13.22 3.12627L14.9784 3.1255C15.9567 3.12507 16.75 3.91804 16.75 4.89636V13.1041C16.75 14.0822 15.9572 14.875 14.9791 14.875H12.6314C12.2863 14.875 12.0064 14.5952 12.0064 14.25C12.0064 13.9048 12.2863 13.625 12.6314 13.625H14.9791C15.2668 13.625 15.5 13.3918 15.5 13.1041V12.3282H2.5V13.1041C2.5 13.3918 2.7332 13.625 3.02087 13.625H9.13788C9.48306 13.625 9.76288 13.9048 9.76288 14.25C9.76288 14.5952 9.48306 14.875 9.13788 14.875H3.02087C2.04285 14.875 1.25 14.0822 1.25 13.1041V4.89586C1.25 3.91784 2.04284 3.125 3.02086 3.125H4.78023C4.7966 3.05695 4.82102 2.98738 4.85472 2.91653C5.19997 2.19052 5.97967 2.02574 6.48118 2.00894C6.93114 1.99386 7.38651 2.07782 7.71831 2.16091ZM5.36132 4.375H3.02086C2.7332 4.375 2.5 4.6082 2.5 4.89586V9.75001H15.5V4.89636C15.5 4.60861 15.2667 4.37538 14.9789 4.3755L12.6366 4.37652C12.3485 4.59849 11.9746 4.78339 11.5546 4.91328C11.6085 4.99342 11.6629 5.05723 11.7158 5.10854C11.8581 5.24667 12.0225 5.32653 12.222 5.3716C12.4321 5.41904 12.6741 5.4264 12.9627 5.41531C13.0504 5.41193 13.1531 5.40597 13.262 5.39965C13.4638 5.38794 13.6868 5.375 13.875 5.375C14.1278 5.375 14.3557 5.52728 14.4524 5.76082C14.5195 5.92281 14.5144 6.10178 14.4452 6.25588C14.5676 6.3507 14.6531 6.48967 14.6792 6.64847C14.7197 6.89443 14.6102 7.14094 14.4005 7.27574C13.9438 7.56929 13.3315 7.67871 12.7428 7.68781C12.1369 7.69718 11.4732 7.60171 10.854 7.41135C10.2389 7.22222 9.63012 6.92774 9.16317 6.51224C9.11807 6.47211 9.07402 6.43057 9.03125 6.38764C8.98847 6.43057 8.94443 6.47211 8.89933 6.51224C8.43238 6.92774 7.82363 7.22222 7.20849 7.41135C6.58934 7.60171 5.92555 7.69718 5.31972 7.68781C4.73105 7.67871 4.11867 7.56929 3.66203 7.27574C3.45234 7.14094 3.34281 6.89443 3.3833 6.64847C3.40945 6.48967 3.4949 6.3507 3.61726 6.25588C3.54814 6.10178 3.54298 5.92281 3.61008 5.76082C3.70681 5.52728 3.93471 5.375 4.1875 5.375C4.3757 5.375 4.59869 5.38794 4.80046 5.39965H4.80047H4.80048H4.80048C4.90937 5.40597 5.01208 5.41193 5.0998 5.41531C5.38839 5.4264 5.63037 5.41904 5.84046 5.3716C6.04004 5.32653 6.20443 5.24667 6.34673 5.10854C6.3961 5.06063 6.44679 5.00181 6.49718 4.92898C6.0551 4.7982 5.66148 4.60675 5.36132 4.375ZM7.66648 3.92295L7.5048 3.88863C7.44878 3.87673 7.39281 3.87276 7.33807 3.87598C7.26108 3.86067 7.1823 3.84202 7.10236 3.81975C6.68733 3.70413 6.37857 3.52929 6.20668 3.36703C6.13984 3.30394 6.10676 3.25782 6.09055 3.22832C6.13364 3.21136 6.21865 3.19044 6.35853 3.18575C6.66783 3.17539 7.0433 3.24911 7.33507 3.33039C7.5166 3.38096 7.67779 3.44285 7.8161 3.51007C7.8932 3.66213 7.99299 3.80252 8.11434 3.92067C7.9853 3.93526 7.83335 3.93729 7.66648 3.92295ZM10.6651 3.87532C10.7411 3.86014 10.8187 3.84171 10.8975 3.81975C11.3126 3.70414 11.6213 3.52929 11.7932 3.36704C11.8328 3.32972 11.8605 3.29835 11.8799 3.27283C11.8264 3.25912 11.7555 3.24607 11.6658 3.23752C11.3504 3.20751 10.9617 3.24769 10.6648 3.33039C10.4834 3.38094 10.3222 3.44282 10.1839 3.51002C10.1068 3.6621 10.007 3.80252 9.88564 3.92069C10.047 3.93892 10.2442 3.93751 10.4616 3.90903L10.5577 3.88863C10.5936 3.881 10.6295 3.87663 10.6651 3.87532ZM10.9996 6.14229C10.5917 5.99404 10.2431 5.8 9.9941 5.5784C9.90302 5.49736 9.82837 5.41588 9.76891 5.33395L10.2971 5.22181C10.4455 5.53409 10.6278 5.79456 10.8452 6.00552C10.8956 6.05448 10.9472 6.1 10.9996 6.14229ZM8.0684 5.5784C7.81936 5.8 7.47082 5.99404 7.0629 6.14229C7.11535 6.1 7.16688 6.05448 7.21733 6.00552C7.43468 5.79456 7.61696 5.53409 7.76541 5.22181L8.29359 5.33395C8.23413 5.41588 8.15948 5.49736 8.0684 5.5784ZM6.07591 3.19287C6.07535 3.19017 6.07534 3.18883 6.07547 3.18883C6.07561 3.18883 6.07588 3.19018 6.07591 3.19287ZM11.9244 3.18883C11.9246 3.18883 11.9246 3.19017 11.924 3.19287C11.924 3.19018 11.9243 3.18883 11.9244 3.18883Z" fill="#252323"/>
</g>
<defs>
<clipPath id="clip0_661_6318">
<rect width="18" height="18" fill="white"/>
</clipPath>
</defs>
</svg>
