<svg width="44" height="44" viewBox="0 0 44 44" fill="none" xmlns="http://www.w3.org/2000/svg">
<g clip-path="url(#clip0_214_547)">
<path fill-rule="evenodd" clip-rule="evenodd" d="M16.7052 10.7169C15.4319 10.3622 14.4084 9.78971 13.8117 9.16669H6.58325C5.47868 9.16669 4.58325 10.0621 4.58325 11.1667V32.8334C4.58325 33.9379 5.47868 34.8334 6.58325 34.8334H37.4166C38.5212 34.8334 39.4166 33.9379 39.4166 32.8334V11.1667C39.4166 10.0621 38.5212 9.16669 37.4166 9.16669H30.1881C29.5915 9.78971 28.5679 10.3622 27.2946 10.7169C26.8056 10.8531 26.3179 10.9466 25.8471 10.9997H26.1246C27.3643 15.0289 30.1108 14.8665 32.5918 14.7199C33.0459 14.693 33.4911 14.6667 33.9166 14.6667L32.5416 16.0417L34.3746 16.4997C27.958 20.6246 21.9996 13.2917 21.9996 10.5417L23.0552 10.7526C22.57 10.5641 22.2141 10.2899 22.0471 9.93886C22.0289 9.90057 22.0132 9.86186 21.9999 9.8228C21.9866 9.86186 21.9709 9.90056 21.9527 9.93886C21.8283 10.2005 21.5988 10.4195 21.289 10.5922L21.5416 10.5417C21.5416 13.2917 15.5833 20.6247 9.16658 16.4997L10.9996 16.0417L9.62459 14.6667C10.05 14.6667 10.4953 14.693 10.9494 14.7199C13.4304 14.8665 16.1768 15.0289 17.4166 10.9997H18.1528C17.6819 10.9466 17.1942 10.8531 16.7052 10.7169Z" fill="#E05149"/>
<path d="M21.9993 3.60419C23.4358 3.60419 24.3998 4.87602 24.5579 6.24969C24.7313 6.19068 24.909 6.13439 25.0911 6.08368C26.4281 5.71123 27.7988 5.62363 28.928 5.82196C29.3637 5.89863 29.6935 6.27142 29.6643 6.65399C29.6348 7.0364 29.2573 7.28424 28.8215 7.2077C28.0068 7.06467 26.8956 7.11509 25.7356 7.43817C25.2021 7.58681 24.7242 7.77546 24.3147 7.98505C24.0262 8.68093 23.5171 9.26087 22.8411 9.52802C22.8342 9.61409 22.8214 9.70109 22.8 9.78876C22.9096 9.94042 23.2329 10.1756 24.0022 10.2897C24.807 10.409 25.8687 10.347 26.9719 10.0397C28.0754 9.73233 28.9418 9.25668 29.4583 8.76923C30.0108 8.24738 30.0061 7.88516 29.9377 7.74091C29.7601 7.36711 29.9396 6.97338 30.3381 6.862C30.7372 6.75084 31.2052 6.96449 31.3831 7.33856C31.5604 7.71168 31.5886 8.07605 31.5198 8.41962L38.2698 8.41766C39.3172 8.41721 40.1663 9.26579 40.1663 10.3132V33.6872C40.1663 34.7342 39.3178 35.5837 38.2708 35.5837H30.8772C30.4631 35.5837 30.1274 35.2477 30.1272 34.8337C30.1272 34.4195 30.463 34.0837 30.8772 34.0837H38.2708C38.4894 34.0837 38.6663 33.9058 38.6663 33.6872V30.1354H5.33325V33.6872C5.33325 33.9057 5.51029 34.0835 5.72876 34.0837H22.3372C22.7513 34.0838 23.0872 34.4195 23.0872 34.8337C23.087 35.2477 22.7512 35.5836 22.3372 35.5837H5.72876C4.68187 35.5835 3.83325 34.7341 3.83325 33.6872V10.3122C3.83344 9.26542 4.68199 8.41688 5.72876 8.41669H12.4778C12.4097 8.07399 12.4396 7.71058 12.6165 7.33856C12.8658 6.81422 13.3376 6.4383 13.8586 6.19208C14.3747 5.94827 14.979 5.80972 15.6038 5.75165C16.0404 5.71112 16.3857 5.99256 16.3743 6.38055C16.3626 6.7686 15.9984 7.11537 15.5618 7.15594C15.081 7.20066 14.7069 7.30192 14.4495 7.42352C14.1969 7.54284 14.0994 7.65973 14.0608 7.74091C13.9925 7.88529 13.9892 8.24822 14.5422 8.7702C15.0587 9.2575 15.9244 9.7324 17.0276 10.0397C18.1307 10.347 19.1925 10.409 19.9973 10.2897C20.7663 10.1757 21.0889 9.94048 21.1985 9.78876C21.1771 9.70076 21.1634 9.61343 21.1565 9.52704C20.4814 9.25946 19.9718 8.68045 19.6838 7.98505C19.2743 7.77558 18.7971 7.5867 18.2639 7.43817C17.8652 7.32693 17.6859 6.93414 17.8635 6.56024C18.0414 6.18624 18.5095 5.97265 18.9084 6.08368C19.0905 6.1344 19.2682 6.19066 19.4417 6.24969C19.5996 4.8762 20.563 3.60457 21.9993 3.60419ZM5.72876 9.91669C5.51041 9.91688 5.33344 10.0938 5.33325 10.3122V23.8337H38.6663V10.3132C38.6663 10.0945 38.4894 9.91768 38.2708 9.91766L30.5422 9.92059C29.8405 10.5338 28.8173 11.0597 27.6165 11.3942C27.4476 11.4413 27.2779 11.4823 27.1086 11.5202C27.3998 12.2124 27.74 12.6992 28.0969 13.0456C28.5652 13.5 29.1042 13.7536 29.7053 13.8893C30.3189 14.0278 30.9918 14.0422 31.717 14.0143C32.3964 13.9882 33.2197 13.9167 33.9172 13.9167C34.2203 13.9169 34.4936 14.0996 34.6096 14.3796C34.7256 14.6597 34.6617 14.9825 34.4475 15.197L34.01 15.6345L34.5569 15.7722C34.8469 15.8448 35.0669 16.0835 35.1155 16.3786C35.1638 16.6735 35.0318 16.9689 34.7805 17.1306C32.4681 18.6171 30.17 18.7528 28.1497 18.1335C27.7538 18.012 27.5313 17.5929 27.6526 17.197C27.774 16.8011 28.1932 16.5787 28.5891 16.6999C29.7042 17.0417 30.9232 17.1047 32.2014 16.7077C32.0168 16.6133 31.8763 16.4466 31.8196 16.2419C31.7475 15.9815 31.8209 15.7025 32.012 15.5114L32.0237 15.4997C31.9423 15.5036 31.8592 15.5101 31.7747 15.5134C31.0106 15.5428 30.1812 15.5344 29.3743 15.3522C28.5548 15.1671 27.7523 14.8014 27.052 14.1218C26.4743 13.5609 25.9979 12.8126 25.6262 11.8425L23.3167 12.2243C23.3412 12.2694 23.3646 12.3168 23.3909 12.363C23.8279 13.1295 24.4674 13.9582 25.262 14.6999C25.5644 14.9825 25.5805 15.4568 25.2981 15.7595C25.0155 16.062 24.5413 16.078 24.2385 15.7956C23.3362 14.9533 22.6008 14.0063 22.0872 13.1052C21.9106 12.7954 21.7551 12.481 21.6272 12.1706C21.348 13.3013 20.6424 14.5453 19.303 15.7956C19.0003 16.0781 18.5261 16.0619 18.2434 15.7595C17.9611 15.4567 17.9769 14.9815 18.2795 14.6989C19.2631 13.7808 19.7946 12.9272 20.0559 12.195L17.9153 11.8425C17.5435 12.8126 17.0672 13.561 16.4895 14.1218C15.7891 14.8016 14.9868 15.1671 14.1672 15.3522C13.3603 15.5344 12.5309 15.5428 11.7668 15.5134C11.6823 15.5101 11.5992 15.5036 11.5178 15.4997L11.5295 15.5114C11.7206 15.7024 11.7939 15.9815 11.7219 16.2419C11.6654 16.4454 11.5261 16.6111 11.343 16.7057C12.4515 17.0496 13.512 17.0485 14.4973 16.821C14.9008 16.7278 15.3033 16.9801 15.3967 17.3835C15.4899 17.787 15.2387 18.1896 14.8352 18.2829C12.9484 18.7185 10.8579 18.4785 8.76099 17.1306C8.50961 16.9687 8.37745 16.6726 8.42603 16.3776C8.47476 16.0828 8.69468 15.8447 8.98462 15.7722L9.53149 15.6345L9.09399 15.197C8.87979 14.9825 8.81593 14.6597 8.93188 14.3796C9.04793 14.0996 9.32124 13.9169 9.62427 13.9167C10.3218 13.9167 11.1451 13.9882 11.8245 14.0143C12.5497 14.0422 13.2226 14.0278 13.8362 13.8893C14.4373 13.7536 14.9763 13.5001 15.4446 13.0456C15.8189 12.6823 16.1717 12.1638 16.4719 11.4167C16.4424 11.4088 16.4125 11.4024 16.3831 11.3942C15.1796 11.059 14.1542 10.5316 13.4524 9.91669H5.72876ZM21.9993 5.10419C21.5485 5.10469 20.9163 5.63041 20.9163 6.64618C20.9164 7.66174 21.5486 8.18669 21.9993 8.18719C22.45 8.18719 23.0831 7.66223 23.0833 6.64618C23.0833 5.62992 22.4501 5.10419 21.9993 5.10419Z" fill="#332A2A"/>
</g>
<defs>
<clipPath id="clip0_214_547">
<rect width="44" height="44" fill="white"/>
</clipPath>
</defs>
</svg>
