<svg width="23" height="23" viewBox="0 0 23 23" fill="none" xmlns="http://www.w3.org/2000/svg">
<g clip-path="url(#clip0_661_6317)">
<path d="M11.4241 1.65106C12.2399 1.65106 12.7837 2.26489 12.9778 2.95868C13.5094 2.81861 14.1811 2.74801 14.7942 2.80634C15.1116 2.83658 15.4571 2.90572 15.7717 3.04755C16.0955 3.19369 16.4255 3.4366 16.6028 3.80927C16.6611 3.93183 16.6951 4.05169 16.7102 4.16766L19.3821 4.16669C20.388 4.16625 21.2043 4.98203 21.2043 5.98798V17.112C21.2043 18.1176 20.3887 18.9333 19.3831 18.9333H16.0647C15.6921 18.9332 15.3901 18.6311 15.3899 18.2585C15.3899 17.8858 15.692 17.5828 16.0647 17.5827H19.3831C19.6431 17.5827 19.8538 17.372 19.8538 17.112V15.8522H2.99536V17.112C2.99536 17.3719 3.20618 17.5825 3.46606 17.5827H11.6008C11.9736 17.5827 12.2756 17.8857 12.2756 18.2585C12.2755 18.6311 11.9735 18.9333 11.6008 18.9333H3.46606C2.46059 18.9331 1.64575 18.1175 1.64575 17.112V5.987C1.64595 4.98165 2.46071 4.16688 3.46606 4.16669H6.13989C6.15515 4.05107 6.18921 3.93144 6.24731 3.80927C6.65318 2.95635 7.57062 2.754 8.19458 2.73309C8.8139 2.71241 9.44667 2.84497 9.87134 2.95966C10.065 2.26562 10.6082 1.65139 11.4241 1.65106ZM3.46606 5.5163C3.2063 5.51649 2.99555 5.72723 2.99536 5.987V12.5583H19.8538V5.98798C19.8538 5.72792 19.6431 5.51729 19.3831 5.51727L16.0178 5.51825C15.6243 5.83221 15.0898 6.09223 14.4827 6.26141C14.4589 6.26802 14.4342 6.2727 14.4104 6.27899C14.5149 6.469 14.6248 6.60981 14.7336 6.71552C14.9346 6.91057 15.1667 7.02203 15.4397 7.08368C15.724 7.14784 16.0464 7.15657 16.4182 7.14227C16.7487 7.12954 17.2109 7.09052 17.5793 7.09052C17.852 7.09078 18.0979 7.25569 18.2024 7.50751C18.2887 7.71579 18.2626 7.94947 18.1428 8.13348C18.3217 8.2317 18.4504 8.40745 18.4846 8.61493C18.5282 8.8802 18.4097 9.14605 18.1838 9.29169C16.9017 10.1159 15.6133 10.1961 14.4817 9.8493C14.1253 9.74003 13.9251 9.36197 14.0344 9.00555C14.1439 8.64949 14.521 8.44907 14.8772 8.55829C15.2934 8.68584 15.7394 8.73162 16.2083 8.65399C16.1948 8.60227 16.1868 8.54992 16.1858 8.49774C15.8541 8.50004 15.4963 8.4801 15.1418 8.40009C14.6723 8.29399 14.203 8.08202 13.7932 7.68427C13.5078 7.40716 13.2718 7.0569 13.0803 6.62958L12.3762 6.77899C12.5935 6.98719 12.8669 7.21987 13.2483 7.57587C13.5207 7.83013 13.5345 8.25744 13.2805 8.52997C13.0261 8.80248 12.5989 8.81754 12.3264 8.56317C11.929 8.19218 11.4967 7.82774 11.2161 7.52704C11.1758 7.48391 11.1352 7.43969 11.0959 7.39325C10.8646 7.7835 10.546 8.17765 10.1331 8.56317C9.86054 8.81754 9.43333 8.80248 9.17896 8.52997C8.92494 8.25744 8.9388 7.83013 9.21118 7.57587C9.51809 7.28938 9.73588 7.02088 9.88892 6.77899L9.37036 6.64911C9.1804 7.06755 8.94732 7.4114 8.66626 7.68427C8.25645 8.08202 7.78713 8.29399 7.31763 8.40009C6.96314 8.4801 6.60542 8.50004 6.27368 8.49774C6.27267 8.55023 6.26479 8.60295 6.25122 8.65497C6.64029 8.71933 7.01252 8.69785 7.36353 8.61688C7.72663 8.53303 8.08905 8.75973 8.1731 9.12274C8.25692 9.48583 8.0312 9.84826 7.66821 9.93231C6.6089 10.1769 5.43705 10.0383 4.27563 9.29169C4.04972 9.14605 3.93129 8.8802 3.97485 8.61493C4.0091 8.40745 4.13776 8.2317 4.31665 8.13348C4.19685 7.94947 4.17081 7.71579 4.25708 7.50751C4.36156 7.25569 4.60751 7.09078 4.88013 7.09052C5.24853 7.09052 5.71075 7.12954 6.04126 7.14227C6.41307 7.15657 6.73547 7.14784 7.01978 7.08368C7.2928 7.02203 7.52486 6.91057 7.72583 6.71552C7.85277 6.59226 7.9814 6.42146 8.10083 6.18036C7.60176 6.0136 7.16284 5.78477 6.82739 5.5163H3.46606ZM8.06177 4.00458C7.67981 4.01738 7.58998 4.10388 7.55981 4.15302C7.56289 4.17973 7.5837 4.27442 7.7561 4.43719C7.99099 4.65884 8.40246 4.89005 8.94653 5.04169C9.49096 5.19335 10.0012 5.21902 10.3674 5.16473C10.4479 5.15279 10.5126 5.13799 10.5647 5.12372C10.3233 4.95173 10.1356 4.71147 10.0051 4.4411C9.81682 4.34786 9.59682 4.26185 9.34985 4.19305C8.97289 4.08809 8.47796 3.99066 8.06177 4.00458ZM14.8274 4.07098C14.4049 4.03086 13.891 4.08464 13.4983 4.19403C13.2516 4.2628 13.0321 4.34796 12.844 4.4411C12.7131 4.71209 12.5248 4.95266 12.2825 5.12469C12.3349 5.139 12.4004 5.15267 12.4817 5.16473C12.8479 5.21903 13.3582 5.19332 13.9026 5.04169C14.4467 4.89004 14.8581 4.65886 15.093 4.43719C15.2309 4.30701 15.2727 4.22065 15.2854 4.17743L15.2786 4.17352C15.2753 4.17165 15.2716 4.16936 15.2678 4.16766C15.1842 4.13009 15.0383 4.09105 14.8274 4.07098ZM11.4241 3.00067C11.4008 3.00086 11.3432 3.01143 11.2737 3.09833C11.2026 3.18731 11.1409 3.33598 11.1409 3.52411C11.1409 3.71195 11.2027 3.85996 11.2737 3.94891C11.3432 4.03581 11.4008 4.04638 11.4241 4.04657C11.4469 4.04657 11.5053 4.03649 11.5754 3.94891C11.6464 3.85996 11.7072 3.71195 11.7073 3.52411C11.7073 3.33598 11.6465 3.18731 11.5754 3.09833C11.5053 3.01075 11.4469 3.00067 11.4241 3.00067Z" fill="#332A2A"/>
</g>
<defs>
<clipPath id="clip0_661_6317">
<rect width="23" height="23" fill="white"/>
</clipPath>
</defs>
</svg>
