<svg width="18" height="18" viewBox="0 0 18 18" fill="none" xmlns="http://www.w3.org/2000/svg">
<g clip-path="url(#clip0_1138_12836)">
<path fill-rule="evenodd" clip-rule="evenodd" d="M8.83557 4.02221C9.6098 2.51102 11.2316 1.65629 12.6984 2.1242C13.0272 2.22911 13.2088 2.58074 13.1039 2.90959C12.999 3.23844 12.6473 3.41998 12.3185 3.31507C11.4123 3.02598 9.99268 3.76906 9.68507 5.32762C10.6607 5.30977 11.714 5.24255 12.4777 5.0243C12.9667 4.88453 13.1934 4.72109 13.2706 4.60489C13.2979 4.56383 13.3849 4.42995 13.1476 4.02327C12.9737 3.72511 13.0744 3.34241 13.3726 3.16849C13.6707 2.99456 14.0534 3.09527 14.2274 3.39343C14.606 4.04259 14.6963 4.71788 14.3117 5.29667C14.2939 5.32344 14.2754 5.34954 14.2562 5.37498H14.5625C15.46 5.37498 16.1875 6.10252 16.1875 6.99998V7.45835C16.1875 7.66855 16.0837 7.85451 15.9246 7.9678C15.9736 8.12258 16 8.28738 16 8.45835V11.3959C16 11.741 15.7202 12.0209 15.375 12.0209C15.0298 12.0209 14.75 11.741 14.75 11.3959V8.45835C14.75 8.25124 14.5821 8.08335 14.375 8.08335H10.375V14.7084H14.375C14.5821 14.7084 14.75 14.5405 14.75 14.3334V13.3646C14.75 13.0194 15.0298 12.7396 15.375 12.7396C15.7202 12.7396 16 13.0194 16 13.3646V14.3334C16 15.2308 15.2725 15.9584 14.375 15.9584H9.75H7.875H6.5625C6.21732 15.9584 5.9375 15.6785 5.9375 15.3334C5.9375 14.9882 6.21732 14.7084 6.5625 14.7084H7.25V8.08335H3.625C3.41789 8.08335 3.25 8.25124 3.25 8.45835V9.4271C3.25 9.77228 2.97018 10.0521 2.625 10.0521C2.27982 10.0521 2 9.77228 2 9.4271V8.45835C2 8.28738 2.0264 8.12258 2.07535 7.9678C1.91626 7.8545 1.8125 7.66854 1.8125 7.45835V6.99999C1.8125 6.14402 2.47431 5.44263 3.31416 5.3796C3.285 5.33479 3.25793 5.28802 3.23317 5.23918C2.93711 4.655 3.08089 4.00809 3.43944 3.39343C3.61336 3.09527 3.99606 2.99456 4.29422 3.16849C4.59238 3.34241 4.69309 3.72511 4.51916 4.02327C4.26181 4.46445 4.32678 4.63192 4.34816 4.6741C4.39009 4.75685 4.54099 4.90758 4.97769 5.04446C5.70039 5.27098 6.79284 5.33587 7.98238 5.33809C7.71898 4.00533 6.63081 3.23301 5.74786 3.25031C5.40275 3.25706 5.11751 2.98277 5.11075 2.63766C5.10399 2.29255 5.37828 2.0073 5.72339 2.00055C6.96037 1.97632 8.1928 2.76363 8.83557 4.02221ZM8.5 6.83335V6.62499L9.125 6.62499V6.83335H8.5ZM7.25 6.83335V6.62499L3.4375 6.62499C3.29025 6.62499 3.16282 6.70986 3.10146 6.83335H3.625H7.25ZM8.5 14.7084H9.125V8.08335H8.5V14.7084ZM14.375 6.83335H14.8985C14.8372 6.70986 14.7098 6.62498 14.5625 6.62498H14.1094H10.375V6.83335H14.375ZM3.25 11.3959C3.25 11.0507 2.97018 10.7709 2.625 10.7709C2.27982 10.7709 2 11.0507 2 11.3959V14.3334C2 15.2308 2.72754 15.9584 3.625 15.9584H4.6875C5.03268 15.9584 5.3125 15.6785 5.3125 15.3334C5.3125 14.9882 5.03268 14.7084 4.6875 14.7084H3.625C3.41789 14.7084 3.25 14.5405 3.25 14.3334V11.3959Z" fill="#252323"/>
</g>
<defs>
<clipPath id="clip0_1138_12836">
<rect width="18" height="18" fill="white"/>
</clipPath>
</defs>
</svg>
