<svg width="23" height="23" viewBox="0 0 23 23" fill="none" xmlns="http://www.w3.org/2000/svg">
<g clip-path="url(#clip0_1138_12823)">
<path fill-rule="evenodd" clip-rule="evenodd" d="M11.3392 5.47369C12.2539 3.44693 14.3634 2.28408 16.2381 2.88215C16.5932 2.9955 16.7889 3.37567 16.6756 3.73078C16.5623 4.08575 16.183 4.28137 15.828 4.16828C14.554 3.76187 12.6233 4.83321 12.2792 6.9798C13.5686 6.96107 14.997 6.88356 16.0272 6.58918C16.6582 6.40884 16.9849 6.18994 17.1092 6.00324C17.1794 5.8976 17.273 5.67282 16.9559 5.12922C16.7681 4.80721 16.8771 4.39323 17.1991 4.20539C17.521 4.0177 17.934 4.12684 18.1219 4.44855C18.5918 5.25406 18.6903 6.06392 18.2342 6.75031C18.1642 6.8557 18.0842 6.95277 17.9961 7.04227H18.9348C19.8599 7.04227 20.6106 7.79199 20.6106 8.71707V9.58035C20.6106 9.81347 20.4921 10.0189 20.3122 10.1401C20.3503 10.2805 20.3707 10.4281 20.3707 10.5805V14.6118C20.3707 14.9845 20.0685 15.2864 19.6959 15.2866C19.3231 15.2866 19.0201 14.9846 19.0201 14.6118V10.5805C19.0201 10.4012 18.8752 10.2555 18.6959 10.2553H13.1832V18.9682H18.6959C18.8752 18.9681 19.0201 18.8224 19.0201 18.643V17.1274C19.0201 16.7546 19.3231 16.4526 19.6959 16.4526C20.0685 16.4528 20.3707 16.7547 20.3707 17.1274V18.643C20.3707 19.568 19.6208 20.3177 18.6959 20.3178H8.43514C8.06235 20.3178 7.76033 20.0158 7.76033 19.643C7.76033 19.2702 8.06235 18.9682 8.43514 18.9682H9.43709V10.2553H4.40389C4.2244 10.2553 4.07869 10.401 4.07869 10.5805V12.0962C4.07869 12.469 3.77668 12.771 3.40389 12.771C3.0311 12.771 2.72909 12.469 2.72909 12.0962V10.5805C2.72909 10.4282 2.74942 10.2806 2.78753 10.1403C2.60772 10.0191 2.4895 9.81359 2.4895 9.58035V8.71707C2.4895 7.79199 3.23923 7.04227 4.16431 7.04227H4.52627C4.43603 6.9353 4.3568 6.81786 4.29138 6.68879C3.94035 5.99598 4.10304 5.21674 4.55115 4.44855C4.73901 4.1266 5.15299 4.01756 5.47498 4.20539C5.79686 4.39327 5.90497 4.80726 5.71717 5.12922C5.37876 5.70947 5.44105 5.97081 5.49549 6.07843C5.57217 6.22974 5.80595 6.43572 6.37342 6.61359C7.345 6.91809 8.81744 6.99573 10.3949 6.99347C10.1003 5.14942 8.61977 4.05644 7.39197 4.08039C7.01925 4.08769 6.71079 3.791 6.70349 3.41828C6.69624 3.04559 6.99291 2.7371 7.3656 2.7298C8.9658 2.69858 10.5742 3.77138 11.3392 5.47369ZM18.9348 8.39188C19.1143 8.39188 19.26 8.53758 19.26 8.71707V8.90555H13.1829V8.39188H18.9348ZM11.8333 8.90555H10.7874V8.39188H11.8333V8.90555ZM9.43677 8.90555H3.83911V8.71707C3.83911 8.53758 3.98481 8.39188 4.16431 8.39188H9.43677V8.90555ZM2.72909 14.6118V18.643C2.72909 19.5681 3.47881 20.3178 4.40389 20.3178H6.03963C6.41227 20.3177 6.71444 20.0157 6.71444 19.643C6.71444 19.2704 6.41227 18.9684 6.03963 18.9682H4.40389C4.2244 18.9682 4.07869 18.8225 4.07869 18.643V14.6118C4.07869 14.239 3.77668 13.937 3.40389 13.937C3.0311 13.937 2.72909 14.239 2.72909 14.6118ZM11.8326 18.9682H10.7877V10.2553H11.8326V18.9682Z" fill="#332A2A"/>
</g>
<defs>
<clipPath id="clip0_1138_12823">
<rect width="23" height="23" fill="white"/>
</clipPath>
</defs>
</svg>
