<svg xmlns="http://www.w3.org/2000/svg" width="23" height="23" fill="none" viewBox="0 0 23 23">
  <path fill="#252323" fill-rule="evenodd" d="M11.289 5.548c.88-2.072 3.007-3.267 4.884-2.668a.625.625 0 0 1-.38 1.19c-1.323-.421-3.303.702-3.624 2.914 1.306-.017 2.77-.096 3.822-.397.634-.181.976-.405 1.11-.607.085-.127.171-.373-.151-.927a.625.625 0 0 1 1.08-.63c.464.796.554 1.584.112 2.249-.09.137-.199.26-.32.37h1.063c.898 0 1.625.727 1.625 1.625v.863a.625.625 0 0 1-.306.538c.043.146.067.302.067.462v4.031a.625.625 0 0 1-1.25 0v-4.03a.375.375 0 0 0-.375-.376h-5.563v8.813h5.563a.375.375 0 0 0 .375-.375v-1.516a.625.625 0 1 1 1.25 0v1.516c0 .897-.728 1.625-1.625 1.625H8.385a.625.625 0 1 1 0-1.25h1.052v-8.813H4.354a.375.375 0 0 0-.375.375v1.516a.625.625 0 1 1-1.25 0V10.53c0-.16.023-.316.067-.462a.625.625 0 0 1-.306-.538v-.863c0-.898.727-1.625 1.624-1.625h.474a1.804 1.804 0 0 1-.302-.426c-.34-.671-.185-1.431.259-2.192a.625.625 0 1 1 1.08.63c-.343.587-.29.868-.224.997.086.17.336.381.907.56.992.311 2.497.388 4.097.384-.275-1.903-1.795-3.04-3.064-3.015a.625.625 0 0 1-.024-1.25c1.61-.032 3.234 1.072 3.972 2.818Zm-.602 3.357v-.613h1.146v.613h-1.146Zm-1.25 0v-.613H4.115a.375.375 0 0 0-.376.375v.238h5.698Zm1.25 10.063h1.146v-8.813h-1.146v8.813Zm7.959-10.063h.614v-.238a.375.375 0 0 0-.375-.375h-5.802v.613h5.563ZM3.979 14.561a.625.625 0 0 0-1.25 0v4.032c0 .897.728 1.625 1.625 1.625H5.99a.625.625 0 1 0 0-1.25H4.354a.375.375 0 0 1-.375-.375V14.56Z" clip-rule="evenodd"/>
</svg>
