<svg xmlns="http://www.w3.org/2000/svg" width="28" height="28" fill="none" viewBox="0 0 28 28">
  <path fill="#E05149" d="M4.083 9.333h8.167v14.584H5.083a1 1 0 0 1-1-1V9.333Zm11.084-.025 8.75.025V22.94a1 1 0 0 1-1.003 1l-7.747-.022V9.308Z"/>
  <path fill="#252323" fill-rule="evenodd" d="M13.743 6.781c1.063-2.531 3.658-3.994 5.943-3.265a.75.75 0 1 1-.456 1.429c-1.62-.517-4.042.862-4.427 3.569 1.593-.02 3.381-.117 4.668-.485.772-.22 1.191-.493 1.357-.743.106-.16.21-.464-.184-1.14a.75.75 0 1 1 1.296-.755c.563.966.672 1.92.138 2.725a2.41 2.41 0 0 1-.41.467h1.54c.967 0 1.75.784 1.75 1.75v1.269a.75.75 0 0 1-.332.623c.027.121.04.247.04.377v5.125a.75.75 0 1 1-1.5 0v-5.125a.25.25 0 0 0-.25-.25h-7v10.75h6c.691 0 1.25-.56 1.25-1.25v-1.063a.75.75 0 0 1 1.5 0v1.063a2.75 2.75 0 0 1-2.75 2.75H10.209a.75.75 0 0 1 0-1.5H11.5v-10.75H5.083a.25.25 0 0 0-.25.25v2.062a.75.75 0 0 1-1.5 0v-2.062c0-.13.014-.256.041-.377a.75.75 0 0 1-.332-.623v-1.269c0-.966.783-1.75 1.75-1.75h.819a2.192 2.192 0 0 1-.383-.534c-.412-.812-.225-1.733.314-2.658a.75.75 0 1 1 1.296.755c-.418.718-.354 1.063-.272 1.225.106.21.414.47 1.11.688 1.212.38 3.05.473 5.004.467-.331-2.328-2.19-3.723-3.743-3.692a.75.75 0 0 1-.03-1.5c1.963-.038 3.944 1.312 4.836 3.447ZM13 10.851v-.768h1.417v.769H13Zm-1.5 0v-.768H4.792a.25.25 0 0 0-.25.25v.519H11.5Zm1.5 12.25h1.417v-10.75H13v10.75Zm9.918-12.25h.54v-.518a.25.25 0 0 0-.25-.25h-7.291v.769h7.001ZM4.833 17.728a.75.75 0 0 0-1.5 0v4.125a2.75 2.75 0 0 0 2.75 2.75h1.209a.75.75 0 0 0 0-1.5H6.083c-.69 0-1.25-.56-1.25-1.25v-4.125Z" clip-rule="evenodd"/>
</svg>
