<svg width="44" height="44" viewBox="0 0 44 44" fill="none" xmlns="http://www.w3.org/2000/svg">
<g clip-path="url(#clip0_1138_12803)">
<path d="M6.41675 14.6668H19.2501V37.5834H7.41675C6.86446 37.5834 6.41675 37.1357 6.41675 36.5834V14.6668Z" fill="#E05149"/>
<path d="M23.8334 14.6275L37.5834 14.6668V36.6199C37.5834 37.1733 37.134 37.6215 36.5806 37.6199L23.8334 37.5834V14.6275Z" fill="#E05149"/>
<path fill-rule="evenodd" clip-rule="evenodd" d="M21.594 11.9663C22.8283 7.45791 27.1533 4.76894 30.8041 5.93356C31.1987 6.05945 31.4165 6.4814 31.2906 6.87602C31.1648 7.27064 30.7428 7.48849 30.3482 7.36261C27.386 6.41763 23.1848 9.03787 22.7814 13.8123C25.4028 13.7934 28.5023 13.6618 30.7146 13.0295C31.9515 12.676 32.738 12.212 33.0869 11.6869C33.3759 11.252 33.4783 10.5878 32.8104 9.44283C32.6017 9.08504 32.7225 8.6258 33.0803 8.41709C33.4381 8.20838 33.8974 8.32924 34.1061 8.68703C34.9437 10.123 35.0541 11.4368 34.3363 12.5171C33.9376 13.1171 33.327 13.5696 32.6146 13.9167H34.4895H36.0416C37.5604 13.9167 38.7916 15.1479 38.7916 16.6667V18.2316C38.7916 18.552 38.5906 18.8255 38.3079 18.933C38.3246 19.03 38.3333 19.1298 38.3333 19.2316V27.8566C38.3333 28.2708 37.9975 28.6066 37.5833 28.6066C37.169 28.6066 36.8333 28.2708 36.8333 27.8566V19.2316C36.8333 19.0935 36.7213 18.9816 36.5833 18.9816H24.5833V36.7316H35.5833C36.2736 36.7316 36.8333 36.172 36.8333 35.4816V32.6691C36.8333 32.2549 37.169 31.9191 37.5833 31.9191C37.9975 31.9191 38.3333 32.2549 38.3333 32.6691V35.4816C38.3333 37.0004 37.102 38.2316 35.5833 38.2316H23.8333H19.2499H16.0416C15.6274 38.2316 15.2916 37.8958 15.2916 37.4816C15.2916 37.0674 15.6274 36.7316 16.0416 36.7316H18.4999V18.9816H7.41658C7.27851 18.9816 7.16659 19.0935 7.16659 19.2316V23.0441C7.16659 23.4583 6.8308 23.7941 6.41659 23.7941C6.00237 23.7941 5.66659 23.4583 5.66659 23.0441V19.2316C5.66659 19.1298 5.67528 19.03 5.69197 18.933C5.40921 18.8255 5.20825 18.552 5.20825 18.2316V16.6667C5.20825 15.1479 6.43947 13.9167 7.95825 13.9167L10.0877 13.9167C9.44513 13.5545 8.91432 13.0815 8.597 12.4553C8.04421 11.3646 8.26577 10.0816 9.07927 8.68703C9.28798 8.32924 9.74721 8.20838 10.105 8.41709C10.4628 8.6258 10.5836 9.08504 10.3749 9.44283C9.68287 10.6292 9.71181 11.3369 9.93498 11.7773C10.1828 12.2663 10.808 12.7199 11.935 13.0731C14.0066 13.7225 17.161 13.8494 20.4046 13.8238C20.0565 9.68844 16.8291 7.11292 14.035 7.16764C13.6209 7.17575 13.2786 6.8466 13.2705 6.43247C13.2624 6.01834 13.5915 5.67604 14.0057 5.66793C17.2221 5.60494 20.5414 8.09836 21.594 11.9663ZM19.9999 17.4816V15.4167L23.0833 15.4167V17.4816H19.9999ZM18.4999 17.4816V15.4167L7.95825 15.4167C7.2679 15.4167 6.70825 15.9764 6.70825 16.6667V17.4816H7.41658H18.4999ZM19.9999 36.7316H23.0833V18.9816H19.9999V36.7316ZM36.5833 17.4816H37.2916V16.6667C37.2916 15.9763 36.7319 15.4167 36.0416 15.4167H34.4895H24.5833V17.4816H36.5833ZM7.16659 27.8566C7.16659 27.4424 6.8308 27.1066 6.41659 27.1066C6.00237 27.1066 5.66659 27.4424 5.66659 27.8566V35.4816C5.66659 37.0004 6.8978 38.2316 8.41659 38.2316H11.4583C11.8725 38.2316 12.2083 37.8958 12.2083 37.4816C12.2083 37.0674 11.8725 36.7316 11.4583 36.7316H8.41659C7.72623 36.7316 7.16659 36.172 7.16659 35.4816V27.8566Z" fill="#252323"/>
</g>
<defs>
<clipPath id="clip0_1138_12803">
<rect width="44" height="44" fill="white"/>
</clipPath>
</defs>
</svg>
