<svg xmlns="http://www.w3.org/2000/svg" width="44" height="44" fill="none" viewBox="0 0 44 44">
  <path fill="#252323" fill-rule="evenodd" d="M21.594 11.966c1.234-4.508 5.56-7.197 9.21-6.032a.75.75 0 0 1-.456 1.429c-2.962-.945-7.163 1.675-7.567 6.45 2.622-.02 5.721-.151 7.934-.784 1.236-.353 2.023-.817 2.372-1.342.289-.435.391-1.1-.277-2.244a.75.75 0 1 1 1.296-.756c.838 1.436.948 2.75.23 3.83-.398.6-1.009 1.053-1.721 1.4h3.427a2.75 2.75 0 0 1 2.75 2.75v1.565a.75.75 0 0 1-.484.701c.017.097.025.197.025.299v8.625a.75.75 0 0 1-1.5 0v-8.625a.25.25 0 0 0-.25-.25h-12v17.75h11c.69 0 1.25-.56 1.25-1.25v-2.813a.75.75 0 1 1 1.5 0v2.813a2.75 2.75 0 0 1-2.75 2.75H16.042a.75.75 0 0 1 0-1.5H18.5v-17.75H7.417a.25.25 0 0 0-.25.25v3.812a.75.75 0 0 1-1.5 0v-3.812c0-.102.008-.202.025-.299a.75.75 0 0 1-.484-.701v-1.565a2.75 2.75 0 0 1 2.75-2.75h2.13c-.643-.362-1.174-.835-1.491-1.462-.553-1.09-.331-2.373.482-3.768a.75.75 0 1 1 1.296.756c-.692 1.186-.663 1.894-.44 2.334.248.49.873.943 2 1.296 2.072.65 5.226.776 8.47.75-.349-4.135-3.576-6.71-6.37-6.655a.75.75 0 1 1-.03-1.5c3.217-.063 6.536 2.43 7.589 6.298ZM20 17.482v-2.065h3.083v2.065H20Zm-1.5 0v-2.065H7.958c-.69 0-1.25.56-1.25 1.25v.815H18.5Zm1.5 19.25h3.083v-17.75H20v17.75Zm16.583-19.25h.709v-.815c0-.69-.56-1.25-1.25-1.25H24.583v2.065h12ZM7.167 27.857a.75.75 0 0 0-1.5 0v7.625a2.75 2.75 0 0 0 2.75 2.75h3.041a.75.75 0 0 0 0-1.5H8.417c-.69 0-1.25-.56-1.25-1.25v-7.625Z" clip-rule="evenodd"/>
</svg>
