<svg width="28" height="28" viewBox="0 0 28 28" fill="none" xmlns="http://www.w3.org/2000/svg">
<g clip-path="url(#clip0_1138_12810)">
<path fill-rule="evenodd" clip-rule="evenodd" d="M13.7432 6.78146C14.8058 4.24977 17.4005 2.78702 19.6856 3.51597C20.0802 3.64186 20.2981 4.06381 20.1722 4.45843C20.0463 4.85306 19.6243 5.07091 19.2297 4.94502C17.6092 4.42806 15.1879 5.80705 14.8026 8.51372C16.396 8.49332 18.1843 8.39687 19.4709 8.02919C20.2434 7.80839 20.6624 7.53572 20.8283 7.28609C20.9343 7.12663 21.0381 6.82211 20.6439 6.14639C20.4352 5.7886 20.556 5.32936 20.9138 5.12065C21.2716 4.91194 21.7309 5.0328 21.9396 5.39059C22.5035 6.35729 22.6124 7.31149 22.0777 8.11623C21.9623 8.28987 21.8237 8.44476 21.6678 8.58326H21.948H23.2084C24.1749 8.58326 24.9584 9.36676 24.9584 10.3333V11.6018C24.9584 11.8614 24.8265 12.0903 24.626 12.2249C24.6527 12.3463 24.6667 12.4724 24.6667 12.6018V17.7268C24.6667 18.141 24.331 18.4768 23.9167 18.4768C23.5025 18.4768 23.1667 18.141 23.1667 17.7268V12.6018C23.1667 12.4638 23.0548 12.3518 22.9167 12.3518H15.9167V23.1018H21.9167C22.6071 23.1018 23.1667 22.5422 23.1667 21.8518V20.7893C23.1667 20.3751 23.5025 20.0393 23.9167 20.0393C24.331 20.0393 24.6667 20.3751 24.6667 20.7893V21.8518C24.6667 23.3706 23.4355 24.6018 21.9167 24.6018H15.1667H12.2501H10.2084C9.7942 24.6018 9.45841 24.266 9.45841 23.8518C9.45841 23.4376 9.7942 23.1018 10.2084 23.1018H11.5001V12.3518H5.08341C4.94534 12.3518 4.83341 12.4638 4.83341 12.6018V14.6643C4.83341 15.0785 4.49763 15.4143 4.08341 15.4143C3.6692 15.4143 3.33341 15.0785 3.33341 14.6643V12.6018C3.33341 12.4724 3.34746 12.3463 3.37411 12.2249C3.17366 12.0903 3.04175 11.8614 3.04175 11.6018V10.3333C3.04175 9.36676 3.82525 8.58326 4.79175 8.58326L5.61081 8.58326C5.4594 8.42666 5.32924 8.24972 5.22768 8.04932C4.81597 7.23696 5.00252 6.31588 5.54227 5.39059C5.75098 5.0328 6.21022 4.91194 6.56801 5.12065C6.9258 5.32936 7.04665 5.7886 6.83794 6.14639C6.41962 6.86352 6.48357 7.20926 6.56566 7.37122C6.67242 7.58188 6.98037 7.84068 7.67669 8.05893C8.88809 8.43864 10.7266 8.5315 12.68 8.52575C12.3486 6.19794 10.4905 4.80337 8.93685 4.8338C8.52272 4.84191 8.18042 4.51276 8.17231 4.09863C8.1642 3.68449 8.49335 3.3422 8.90748 3.33409C10.8698 3.29566 12.8512 4.64622 13.7432 6.78146ZM13.0001 10.8518V10.0833L14.4167 10.0833V10.8518H13.0001ZM11.5001 10.8518V10.0833L4.79175 10.0833C4.65368 10.0833 4.54175 10.1952 4.54175 10.3333V10.8518H5.08211L5.08341 10.8518L11.5001 10.8518ZM13.0001 23.1018H14.4167V12.3518H13.0001V23.1018ZM22.9181 10.8518H23.4584V10.3333C23.4584 10.1952 23.3465 10.0833 23.2084 10.0833H21.948H15.9167V10.8518L22.9167 10.8518L22.9181 10.8518ZM4.83341 17.7268C4.83341 17.3126 4.49763 16.9768 4.08341 16.9768C3.6692 16.9768 3.33341 17.3126 3.33341 17.7268V21.8518C3.33341 23.3706 4.56463 24.6018 6.08341 24.6018H7.29175C7.70596 24.6018 8.04175 24.266 8.04175 23.8518C8.04175 23.4376 7.70596 23.1018 7.29175 23.1018H6.08341C5.39306 23.1018 4.83341 22.5422 4.83341 21.8518V17.7268Z" fill="#332A2A"/>
</g>
<defs>
<clipPath id="clip0_1138_12810">
<rect width="28" height="28" fill="white"/>
</clipPath>
</defs>
</svg>
