<svg width="18" height="18" viewBox="0 0 18 18" fill="none" xmlns="http://www.w3.org/2000/svg">
<g clip-path="url(#clip0_1138_12875)">
<path d="M2.625 5.99997H7.875V15.375H3.625C3.07272 15.375 2.625 14.9273 2.625 14.375V5.99997Z" fill="#E05149"/>
<path d="M9.75 5.98389L15.375 5.99998V14.3882C15.375 14.9416 14.9255 15.3898 14.3721 15.3882L9.75 15.375V5.98389Z" fill="#E05149"/>
<path fill-rule="evenodd" clip-rule="evenodd" d="M8.9609 4.14852C9.73505 2.63716 11.3569 1.78224 12.8237 2.25017C13.1523 2.35513 13.3336 2.70667 13.229 3.03533C13.1241 3.36404 12.7726 3.5462 12.4438 3.44158C11.5381 3.15265 10.1207 3.89462 9.81199 5.45134C10.7871 5.43343 11.8398 5.36867 12.603 5.15056C13.0919 5.01081 13.3188 4.84681 13.396 4.73064C13.4236 4.68907 13.5091 4.55459 13.2729 4.14958C13.0991 3.8515 13.1996 3.46908 13.4975 3.29509C13.7957 3.12117 14.1781 3.22157 14.352 3.5197C14.7307 4.16887 14.8216 4.84423 14.437 5.42302C14.4193 5.44971 14.4008 5.47574 14.3816 5.50112H14.6875C15.585 5.50112 16.3125 6.22866 16.3125 7.12612V7.58413C16.3125 7.79436 16.2087 7.98035 16.0495 8.09364C16.0986 8.24851 16.125 8.41341 16.125 8.58449V11.522C16.125 11.8672 15.8452 12.147 15.5 12.147C15.1548 12.147 14.875 11.8672 14.875 11.522V8.58449C14.875 8.37738 14.7071 8.20949 14.5 8.20949H10.5V14.8345H14.5C14.7071 14.8345 14.875 14.6666 14.875 14.4595V13.4907C14.875 13.1456 15.1548 12.8657 15.5 12.8657C15.8452 12.8657 16.125 13.1456 16.125 13.4907V14.4595C16.125 15.3569 15.3975 16.0845 14.5 16.0845H6.6875C6.34232 16.0845 6.0625 15.8047 6.0625 15.4595C6.0625 15.1143 6.34232 14.8345 6.6875 14.8345H7.375V8.20949H3.75C3.54289 8.20949 3.375 8.37738 3.375 8.58449V9.55324C3.375 9.89841 3.09518 10.1782 2.75 10.1782C2.40482 10.1782 2.125 9.89841 2.125 9.55324V8.58449C2.125 8.41341 2.15144 8.24851 2.20045 8.09364C2.0413 7.98035 1.9375 7.79436 1.9375 7.58413V7.12612C1.9375 6.27003 2.5995 5.56856 3.43951 5.5057C3.41037 5.46093 3.38332 5.4142 3.35858 5.3654C3.06252 4.78124 3.20609 4.13435 3.56464 3.5197C3.73856 3.22154 4.12097 3.12117 4.41913 3.29509C4.71718 3.46905 4.81764 3.85147 4.64374 4.14958C4.38727 4.58938 4.4513 4.75726 4.47284 4.79997C4.51478 4.88273 4.66602 5.03419 5.10272 5.17107C5.82508 5.39744 6.91687 5.46078 8.10565 5.46306C7.84179 4.13137 6.75579 3.35909 5.87323 3.37615C5.52813 3.38291 5.24231 3.10893 5.23553 2.76384C5.22878 2.41873 5.5037 2.13388 5.84882 2.12712C7.08568 2.10308 8.31811 2.89017 8.9609 4.14852ZM15.0215 6.95913H10.5V6.75112H14.6875C14.8343 6.75112 14.9599 6.83623 15.0215 6.95913ZM9.25 6.95913H8.625V6.75112H9.25V6.95913ZM3.22852 6.95913C3.29008 6.83623 3.41569 6.75112 3.5625 6.75112H7.375V6.95913H3.22852ZM2.125 11.522V14.4595C2.125 15.3569 2.85254 16.0845 3.75 16.0845H4.8125C5.15768 16.0845 5.4375 15.8047 5.4375 15.4595C5.4375 15.1143 5.15768 14.8345 4.8125 14.8345H3.75C3.54289 14.8345 3.375 14.6666 3.375 14.4595V11.522C3.375 11.1768 3.09518 10.897 2.75 10.897C2.40482 10.897 2.125 11.1768 2.125 11.522ZM9.25 14.8345H8.625V8.20949H9.25V14.8345Z" fill="#332A2A"/>
</g>
<defs>
<clipPath id="clip0_1138_12875">
<rect width="18" height="18" fill="white"/>
</clipPath>
</defs>
</svg>
