<svg xmlns="http://www.w3.org/2000/svg" width="18" height="18" fill="none" viewBox="0 0 18 18">
  <path fill="#E05149" d="M2.625 6h5.25v9.375h-4.25a1 1 0 0 1-1-1V6Zm7.125-.016L15.375 6v8.388a1 1 0 0 1-1.003 1l-4.622-.013V5.984Z"/>
  <path fill="#252323" fill-rule="evenodd" d="M8.835 4.314c.696-1.61 2.357-2.54 3.825-2.07a.5.5 0 0 1-.303.952c-1.025-.327-2.565.541-2.82 2.259 1.018-.014 2.156-.076 2.975-.31.496-.142.76-.316.863-.471.063-.095.132-.283-.12-.714a.5.5 0 0 1 .864-.504c.365.625.437 1.246.089 1.771-.067.1-.145.191-.233.273h.588a1.5 1.5 0 0 1 1.5 1.5v.458a.5.5 0 0 1-.29.454c.066.17.102.354.102.546v2.938a.5.5 0 0 1-1 0V8.458a.5.5 0 0 0-.5-.5H10.25v6.875h4.125a.5.5 0 0 0 .5-.5v-.969a.5.5 0 0 1 1 0v.97a1.5 1.5 0 0 1-1.5 1.5H6.562a.5.5 0 0 1 0-1h.813V7.957h-3.75a.5.5 0 0 0-.5.5v.969a.5.5 0 0 1-1 0v-.969c0-.192.036-.377.103-.546a.5.5 0 0 1-.29-.454V7a1.5 1.5 0 0 1 1.5-1.5h.128a1.417 1.417 0 0 1-.221-.317c-.269-.53-.146-1.13.202-1.727a.5.5 0 0 1 .864.504c-.267.459-.223.674-.174.77.065.13.257.294.703.434.772.242 1.943.302 3.19.299-.219-1.476-1.4-2.357-2.385-2.338a.5.5 0 0 1-.02-1c1.259-.024 2.526.833 3.11 2.189Zm-.46 2.644V6.5h.875v.458h-.875Zm-1 0V6.5H3.437a.5.5 0 0 0-.498.458h4.436Zm1 7.875h.875V7.958h-.875v6.875Zm6-7.875h.686a.5.5 0 0 0-.498-.458H10.25v.458h4.125Zm-11.25 4.438a.5.5 0 1 0-1 0v2.937a1.5 1.5 0 0 0 1.5 1.5h1.063a.5.5 0 0 0 0-1H3.625a.5.5 0 0 1-.5-.5v-2.937Z" clip-rule="evenodd"/>
</svg>
