<svg width="44" height="44" viewBox="0 0 44 44" fill="none" xmlns="http://www.w3.org/2000/svg">
<g clip-path="url(#clip0_1127_12791)">
<path fill-rule="evenodd" clip-rule="evenodd" d="M21.5938 11.9656C22.8286 7.45768 27.1536 4.76884 30.8041 5.93338C31.1987 6.05925 31.4162 6.48119 31.2905 6.87576C31.1646 7.27037 30.7427 7.48893 30.3481 7.36306C27.3863 6.41824 23.1902 9.03738 22.7856 13.8103C25.406 13.7913 28.5032 13.6609 30.7143 13.0291C31.951 12.6756 32.7384 12.2124 33.0873 11.6873C33.3763 11.2523 33.4779 10.5881 32.81 9.44314C32.6013 9.08535 32.7227 8.62548 33.0805 8.41677C33.4382 8.20828 33.8972 8.32958 34.1059 8.68728C34.9435 10.1232 35.0541 11.4372 34.3364 12.5174C33.9376 13.1174 33.3266 13.5697 32.6141 13.9167H36.0413C37.56 13.9167 38.7913 15.1479 38.7913 16.6667V18.2312C38.7913 18.5514 38.5906 18.8248 38.3081 18.9323C38.3248 19.0296 38.3336 19.1296 38.3336 19.2316V27.8566C38.3336 28.2707 37.9976 28.6064 37.5836 28.6066C37.1694 28.6066 36.8336 28.2708 36.8336 27.8566V19.2316C36.8336 19.0936 36.7215 18.9818 36.5836 18.9816H24.5836V36.7316H35.5836C36.2738 36.7314 36.8336 36.1719 36.8336 35.4816V32.6691C36.8336 32.2549 37.1694 31.9191 37.5836 31.9191C37.9976 31.9193 38.3336 32.255 38.3336 32.6691V35.4816C38.3336 37.0003 37.1022 38.2314 35.5836 38.2316H16.0416C15.6274 38.2316 15.2916 37.8958 15.2916 37.4816C15.2916 37.0674 15.6274 36.7316 16.0416 36.7316H18.4996V18.9816H7.41659C7.27852 18.9816 7.16659 19.0935 7.16659 19.2316V23.0441C7.16659 23.4583 6.8308 23.7941 6.41659 23.7941C6.00237 23.7941 5.66659 23.4583 5.66659 23.0441V19.2316C5.66659 19.1296 5.6753 19.0297 5.69204 18.9325C5.40924 18.8251 5.20825 18.5516 5.20825 18.2312V16.6667C5.20825 15.1479 6.43947 13.9167 7.95825 13.9167H10.0876C9.4449 13.5543 8.91395 13.081 8.59661 12.4549C8.04421 11.3643 8.26582 10.0815 9.07903 8.68728C9.28774 8.32949 9.74761 8.20806 10.1054 8.41677C10.4631 8.62553 10.5836 9.08541 10.3749 9.44314C9.68316 10.6291 9.71148 11.3368 9.9345 11.7771C10.1823 12.2661 10.8078 12.7198 11.9345 13.073C14.0056 13.7222 17.1595 13.8476 20.4023 13.822C20.0534 9.68786 16.8287 7.11308 14.0351 7.16775C13.621 7.17586 13.2786 6.84653 13.2704 6.4324C13.2624 6.0183 13.5917 5.67586 14.0058 5.66775C17.2219 5.60484 20.5409 8.09815 21.5938 11.9656ZM36.0413 15.4167C36.7316 15.4167 37.2913 15.9763 37.2913 16.6667V17.4812H24.5833V15.4167H36.0413ZM23.0833 17.4812H20.0002V15.4167H23.0833V17.4812ZM18.5002 17.4812H6.70825V16.6667C6.70825 15.9764 7.2679 15.4167 7.95825 15.4167H18.5002V17.4812ZM5.66659 27.8566V35.4816C5.66659 37.0004 6.8978 38.2316 8.41659 38.2316H11.4586C11.8726 38.2314 12.2086 37.8957 12.2086 37.4816C12.2086 37.0675 11.8726 36.7318 11.4586 36.7316H8.41659C7.72623 36.7316 7.16659 36.172 7.16659 35.4816V27.8566C7.16659 27.4424 6.8308 27.1066 6.41659 27.1066C6.00237 27.1066 5.66659 27.4424 5.66659 27.8566ZM23.0836 36.7316H19.9996V18.9816H23.0836V36.7316Z" fill="#332A2A"/>
</g>
<defs>
<clipPath id="clip0_1127_12791">
<rect width="44" height="44" fill="white"/>
</clipPath>
</defs>
</svg>
