<svg width="23" height="23" viewBox="0 0 23 23" fill="none" xmlns="http://www.w3.org/2000/svg">
<g clip-path="url(#clip0_1138_12823)">
<path fill-rule="evenodd" clip-rule="evenodd" d="M11.2894 5.42345C12.2041 3.39675 14.3135 2.23404 16.1883 2.83211C16.5434 2.94541 16.7395 3.32517 16.6262 3.68033C16.5129 4.03549 16.1331 4.23155 15.778 4.11825C14.5031 3.71157 12.5701 4.78416 12.2278 6.93367C13.5178 6.91499 14.9471 6.83344 15.9778 6.53887C16.6092 6.35841 16.9358 6.13931 17.0599 5.95253C17.1301 5.84689 17.2238 5.62227 16.9066 5.07865C16.7188 4.75664 16.8276 4.34332 17.1496 4.15548C17.4716 3.96764 17.8849 4.07641 18.0727 4.39842C18.5426 5.20393 18.6404 6.01326 18.1843 6.69965C18.1143 6.80508 18.0343 6.90219 17.9462 6.99174H18.0288H18.8855C19.8106 6.99174 20.5605 7.74166 20.5605 8.66674V9.5302C20.5605 9.76336 20.4423 9.96891 20.2625 10.0902C20.3006 10.2304 20.3209 10.3779 20.3209 10.5302V14.5615C20.3209 14.9342 20.0187 15.2365 19.6459 15.2365C19.2732 15.2365 18.9709 14.9342 18.9709 14.5615V10.5302C18.9709 10.3507 18.8254 10.2052 18.6459 10.2052H13.1334V18.9177H18.6459C18.8254 18.9177 18.9709 18.7722 18.9709 18.5927V17.0771C18.9709 16.7043 19.2732 16.4021 19.6459 16.4021C20.0187 16.4021 20.3209 16.7043 20.3209 17.0771V18.5927C20.3209 19.5178 19.571 20.2677 18.6459 20.2677H12.4584H10.0626H8.38553C8.01274 20.2677 7.71053 19.9655 7.71053 19.5927C7.71053 19.2199 8.01274 18.9177 8.38553 18.9177H9.38761V10.2052H4.35428C4.17479 10.2052 4.02928 10.3507 4.02928 10.5302V12.0458C4.02928 12.4186 3.72707 12.7208 3.35428 12.7208C2.98149 12.7208 2.67928 12.4186 2.67928 12.0458V10.5302C2.67928 10.3779 2.6996 10.2304 2.73768 10.0902C2.55791 9.96891 2.4397 9.76336 2.4397 9.5302V8.66674C2.4397 7.74166 3.18962 6.99174 4.1147 6.99174L4.47623 6.99174C4.38612 6.88491 4.30699 6.76763 4.24165 6.63871C3.89051 5.94586 4.05359 5.16666 4.50173 4.39842C4.68956 4.07641 5.10288 3.96764 5.42489 4.15548C5.7469 4.34332 5.85567 4.75664 5.66783 5.07865C5.32897 5.65954 5.39135 5.92093 5.44583 6.02843C5.52252 6.17974 5.75606 6.38587 6.32352 6.56374C7.29552 6.8684 8.76902 6.94697 10.3473 6.94464C10.0534 5.09943 8.57042 4.00562 7.34219 4.02967C6.96947 4.03697 6.6614 3.74074 6.6541 3.36802C6.6468 2.9953 6.94303 2.68723 7.31575 2.67993C8.91603 2.64859 10.5244 3.72118 11.2894 5.42345ZM10.7376 8.8552V8.34174L11.7834 8.34174V8.8552H10.7376ZM9.38761 8.8552V8.34174L4.1147 8.34174C3.93521 8.34174 3.7897 8.48724 3.7897 8.66674V8.8552H4.353L4.35428 8.8552L9.38761 8.8552ZM10.7376 10.2052V18.9177H11.7834V10.2052H10.7376ZM18.6472 8.8552H19.2105V8.66674C19.2105 8.48724 19.065 8.34174 18.8855 8.34174H18.0288H13.1334V8.8552L18.6459 8.8552L18.6472 8.8552ZM4.02928 14.5615C4.02928 14.1887 3.72707 13.8865 3.35428 13.8865C2.98149 13.8865 2.67928 14.1887 2.67928 14.5615V18.5927C2.67928 19.5178 3.4292 20.2677 4.35428 20.2677H5.9897C6.36249 20.2677 6.6647 19.9655 6.6647 19.5927C6.6647 19.2199 6.36249 18.9177 5.9897 18.9177H4.35428C4.17479 18.9177 4.02928 18.7722 4.02928 18.5927V14.5615Z" fill="#252323"/>
</g>
<defs>
<clipPath id="clip0_1138_12823">
<rect width="23" height="23" fill="white"/>
</clipPath>
</defs>
</svg>
