<svg width="44" height="44" viewBox="0 0 44 44" fill="none" xmlns="http://www.w3.org/2000/svg">
<g clip-path="url(#clip0_1631_12634)">
<path d="M39.875 23.083C40.289 23.0832 40.6248 23.4191 40.625 23.833C40.625 24.2471 40.2891 24.5828 39.875 24.583H27.79C27.7879 25.8695 27.7746 27.0031 27.6855 27.9785C27.5796 29.1386 27.3618 30.1597 26.8721 31.0039C25.8463 32.7717 23.8396 33.4416 20.5498 33.6611C20.1367 33.6885 19.7785 33.3761 19.751 32.9629C19.7236 32.55 20.0364 32.193 20.4492 32.165C23.7008 31.9481 24.9655 31.3018 25.5752 30.251C25.9031 29.6857 26.0939 28.9204 26.1924 27.8418C26.2688 27.0049 26.286 26.0292 26.29 24.875C26.1928 24.9035 26.0892 24.9365 25.9785 24.9668C25.1033 25.2061 23.8061 25.4929 22.0879 25.6963C20.776 25.8516 19.2181 25.958 17.416 25.958C14.1543 25.958 11.5839 25.6084 9.82129 25.2559C9.10876 25.1133 8.52799 24.9693 8.08691 24.8486C8.08969 25.9954 8.09905 26.9643 8.1543 27.793C8.22545 28.8597 8.3649 29.6247 8.60645 30.1914C8.8357 30.7291 9.1626 31.1025 9.66797 31.3857C9.68141 31.3933 9.69621 31.3998 9.70996 31.4072C9.27608 30.6365 9.00794 29.6314 9.26367 28.3525C9.34497 27.9467 9.74061 27.6828 10.1465 27.7637C10.5525 27.8449 10.8163 28.2405 10.7354 28.6465C10.3661 30.4929 11.5222 31.3914 12.3115 32.0625C13.0029 32.1387 13.806 32.189 14.7412 32.2168C15.1551 32.2291 15.4809 32.5754 15.4688 32.9893C15.4564 33.4031 15.1111 33.7289 14.6973 33.7168C13.6372 33.6853 12.7111 33.6275 11.9072 33.5283C10.7014 33.3795 9.71507 33.1309 8.93555 32.6943C8.12903 32.2424 7.58048 31.6094 7.22656 30.7793C6.88514 29.9781 6.73187 29.0117 6.65723 27.8926C6.58232 26.7689 6.58301 25.4194 6.58301 23.833L6.58887 23.7412C6.61489 23.5307 6.72961 23.3393 6.90625 23.2168C7.10827 23.0769 7.36654 23.0447 7.59668 23.1309L7.5957 23.1318C7.59647 23.1321 7.59856 23.1322 7.60059 23.1328C7.60549 23.1346 7.61433 23.1375 7.62598 23.1416C7.64997 23.1501 7.68858 23.1634 7.74023 23.1807C7.84384 23.2152 8.003 23.2656 8.21484 23.3271C8.6394 23.4504 9.27818 23.6177 10.1152 23.7852C11.7898 24.1201 14.2617 24.458 17.416 24.458C19.1587 24.458 20.6574 24.3545 21.9111 24.2061C23.5534 24.0116 24.7776 23.7398 25.583 23.5195C25.9854 23.4095 26.2837 23.3122 26.4775 23.2441C26.5743 23.2102 26.6457 23.1834 26.6904 23.166C26.7122 23.1575 26.728 23.1513 26.7373 23.1475C26.7409 23.146 26.7444 23.1452 26.7461 23.1445V23.1436C26.8392 23.1037 26.9398 23.0831 27.041 23.083H39.875ZM17.1426 21.8428C17.6809 21.8428 18.1179 22.2791 18.1182 22.8174C18.1182 23.3559 17.6811 23.793 17.1426 23.793C16.6041 23.7929 16.168 23.3559 16.168 22.8174C16.1682 22.2791 16.6043 21.8428 17.1426 21.8428ZM14.2178 21.6133C14.7561 21.6135 15.1924 22.0505 15.1924 22.5889C15.1923 23.1272 14.7561 23.5633 14.2178 23.5635C13.6793 23.5634 13.2423 23.1273 13.2422 22.5889C13.2422 22.0504 13.6793 21.6133 14.2178 21.6133ZM20.0684 21.6133C20.6067 21.6135 21.043 22.0505 21.043 22.5889C21.0429 23.1272 20.6066 23.5632 20.0684 23.5635C19.5299 23.5634 19.0929 23.1273 19.0928 22.5889C19.0928 22.0504 19.5299 21.6133 20.0684 21.6133ZM11.292 21.3848C11.8305 21.3848 12.2675 21.8209 12.2676 22.3594C12.2676 22.8979 11.8305 23.335 11.292 23.335C10.7535 23.3349 10.3174 22.8978 10.3174 22.3594C10.3175 21.821 10.7536 21.3849 11.292 21.3848ZM22.9932 21.3848C23.5316 21.3848 23.9677 21.8209 23.9678 22.3594C23.9678 22.8979 23.5317 23.335 22.9932 23.335C22.4547 23.3349 22.0176 22.8979 22.0176 22.3594C22.0177 21.8209 22.4547 21.3848 22.9932 21.3848ZM8.85449 21.3848C9.12371 21.3848 9.3418 21.6028 9.3418 21.8721C9.34175 22.1413 9.12368 22.3593 8.85449 22.3594C8.58528 22.3593 8.36723 22.1413 8.36719 21.8721C8.36719 21.6028 8.58526 21.3848 8.85449 21.3848ZM25.4307 21.3848C25.6999 21.3848 25.918 21.6028 25.918 21.8721C25.9179 22.1413 25.6999 22.3594 25.4307 22.3594C25.1616 22.3592 24.9434 22.1412 24.9434 21.8721C24.9434 21.6029 25.1615 21.3849 25.4307 21.3848ZM15.6797 18.9316C16.2182 18.9316 16.6553 19.3687 16.6553 19.9072C16.6552 20.4457 16.2182 20.8818 15.6797 20.8818C15.1414 20.8816 14.7051 20.4456 14.7051 19.9072C14.7051 19.3688 15.1413 18.9318 15.6797 18.9316ZM18.6055 18.9316C19.1439 18.9317 19.5801 19.3688 19.5801 19.9072C19.58 20.4457 19.1439 20.8817 18.6055 20.8818C18.067 20.8818 17.6299 20.4457 17.6299 19.9072C17.6299 19.3687 18.067 18.9317 18.6055 18.9316ZM12.7549 18.7031C13.2933 18.7032 13.7293 19.1394 13.7295 19.6777C13.7295 20.2162 13.2933 20.6532 12.7549 20.6533C12.2164 20.6533 11.7793 20.2162 11.7793 19.6777C11.7794 19.1393 12.2165 18.7032 12.7549 18.7031ZM21.5303 18.7031C22.0687 18.7031 22.5057 19.1393 22.5059 19.6777C22.5059 20.2163 22.0688 20.6533 21.5303 20.6533C20.9919 20.6532 20.5557 20.2162 20.5557 19.6777C20.5558 19.1394 20.992 18.7033 21.5303 18.7031ZM10.542 19.25C10.7949 19.2502 10.9998 19.4551 11 19.708C11 19.961 10.795 20.1668 10.542 20.167C10.2889 20.167 10.083 19.9611 10.083 19.708C10.0832 19.455 10.289 19.25 10.542 19.25ZM24.292 19.25C24.5449 19.2502 24.7498 19.4551 24.75 19.708C24.75 19.961 24.545 20.1668 24.292 20.167C24.0389 20.167 23.833 19.9611 23.833 19.708C23.8332 19.455 24.039 19.25 24.292 19.25ZM17.1426 16.4941C17.6811 16.4941 18.1182 16.9312 18.1182 17.4697C18.118 18.0081 17.681 18.4443 17.1426 18.4443C16.6042 18.4443 16.1681 18.0081 16.168 17.4697C16.168 16.9312 16.6041 16.4942 17.1426 16.4941ZM14.2178 16.2656C14.7561 16.2658 15.1923 16.7019 15.1924 17.2402C15.1924 17.7786 14.7561 18.2156 14.2178 18.2158C13.6793 18.2158 13.2422 17.7787 13.2422 17.2402C13.2422 16.7018 13.6793 16.2657 14.2178 16.2656ZM20.0684 16.2656C20.6066 16.2659 21.0429 16.7019 21.043 17.2402C21.043 17.7786 20.6067 18.2156 20.0684 18.2158C19.5299 18.2158 19.0928 17.7787 19.0928 17.2402C19.0928 16.7018 19.5299 16.2657 20.0684 16.2656ZM11.7793 16.5088C12.0484 16.5088 12.2673 16.727 12.2676 16.9961C12.2676 17.2654 12.0486 17.4844 11.7793 17.4844C11.5102 17.4842 11.292 17.2652 11.292 16.9961C11.2922 16.7272 11.5104 16.509 11.7793 16.5088ZM22.5059 16.5088C22.7749 16.5089 22.9929 16.7271 22.9932 16.9961C22.9932 17.2653 22.775 17.4842 22.5059 17.4844C22.2366 17.4843 22.0186 17.2653 22.0186 16.9961C22.0188 16.7271 22.2368 16.5088 22.5059 16.5088ZM15.6797 13.8125C16.2182 13.8125 16.6553 14.2496 16.6553 14.7881C16.6552 15.3266 16.2182 15.7627 15.6797 15.7627C15.1414 15.7625 14.7051 15.3264 14.7051 14.7881C14.7051 14.2497 15.1413 13.8127 15.6797 13.8125ZM18.6055 13.8125C19.1439 13.8126 19.5801 14.2496 19.5801 14.7881C19.58 15.3265 19.1439 15.7626 18.6055 15.7627C18.067 15.7627 17.6299 15.3266 17.6299 14.7881C17.6299 14.2496 18.067 13.8125 18.6055 13.8125ZM11.7793 14.5586C12.0486 14.5586 12.2676 14.7776 12.2676 15.0469C12.2673 15.3159 12.0484 15.5342 11.7793 15.5342C11.5104 15.534 11.2923 15.3158 11.292 15.0469C11.292 14.7777 11.5102 14.5588 11.7793 14.5586ZM22.5059 14.5586C22.775 14.5587 22.9932 14.7777 22.9932 15.0469C22.9929 15.3158 22.7748 15.534 22.5059 15.5342C22.2368 15.5341 22.0188 15.3159 22.0186 15.0469C22.0186 14.7776 22.2366 14.5586 22.5059 14.5586ZM13.7295 13.584C13.9988 13.584 14.2178 13.802 14.2178 14.0713C14.2178 14.3405 13.9987 14.5586 13.7295 14.5586C13.4604 14.5584 13.2422 14.3404 13.2422 14.0713C13.2422 13.8022 13.4604 13.5842 13.7295 13.584ZM20.5557 13.584C20.8248 13.5841 21.043 13.8021 21.043 14.0713C21.0429 14.3405 20.8248 14.5585 20.5557 14.5586C20.2864 14.5586 20.0684 14.3405 20.0684 14.0713C20.0684 13.802 20.2864 13.584 20.5557 13.584ZM17.1426 11.1172C17.6811 11.1172 18.1181 11.5533 18.1182 12.0918C18.1182 12.6303 17.6811 13.0674 17.1426 13.0674C16.6041 13.0673 16.168 12.6303 16.168 12.0918C16.168 11.5533 16.6041 11.1172 17.1426 11.1172ZM14.7051 11.6338C14.9743 11.6339 15.1924 11.8519 15.1924 12.1211C15.1924 12.3903 14.9743 12.6083 14.7051 12.6084C14.4358 12.6084 14.2178 12.3903 14.2178 12.1211C14.2178 11.8519 14.4358 11.6338 14.7051 11.6338ZM19.5801 11.6338C19.8493 11.6338 20.0684 11.8518 20.0684 12.1211C20.0684 12.3904 19.8493 12.6084 19.5801 12.6084C19.311 12.6082 19.0928 12.3902 19.0928 12.1211C19.0928 11.8519 19.311 11.634 19.5801 11.6338ZM15.6797 9.68359C15.9489 9.68359 16.1679 9.90166 16.168 10.1709C16.168 10.4402 15.9489 10.6582 15.6797 10.6582C15.4106 10.658 15.1924 10.44 15.1924 10.1709C15.1924 9.90179 15.4106 9.6838 15.6797 9.68359ZM18.6055 9.68359C18.8746 9.6837 19.0927 9.90172 19.0928 10.1709C19.0928 10.4401 18.8746 10.6581 18.6055 10.6582C18.3362 10.6582 18.1182 10.4401 18.1182 10.1709C18.1182 9.90168 18.3362 9.68362 18.6055 9.68359ZM17.1426 8.70801C17.4118 8.70801 17.6299 8.92703 17.6299 9.19629C17.6297 9.46536 17.4117 9.68359 17.1426 9.68359C16.8735 9.68353 16.6555 9.46532 16.6553 9.19629C16.6553 8.92706 16.8734 8.70807 17.1426 8.70801Z" fill="#322B2B"/>
</g>
<defs>
<clipPath id="clip0_1631_12634">
<rect width="44" height="44" fill="white"/>
</clipPath>
</defs>
</svg>
