<svg width="28" height="28" viewBox="0 0 28 28" fill="none" xmlns="http://www.w3.org/2000/svg">
<g clip-path="url(#clip0_1631_12779)">
<path d="M11.0834 20.9998C16.4813 20.9998 17.1221 20.0937 17.1982 16.6845C17.2142 15.9668 16.4557 15.4331 15.7545 15.5872C14.7343 15.8114 13.1773 16.0415 11.0834 16.0415C8.85528 16.0415 7.14821 15.781 6.05698 15.5442C5.37465 15.3962 4.66287 15.9134 4.67325 16.6116C4.7315 20.5278 5.31135 20.9998 11.0834 20.9998Z" fill="#E05149"/>
<path d="M25.375 14.417C25.7891 14.4171 26.125 14.7529 26.125 15.167C26.1248 15.581 25.789 15.9168 25.375 15.917H17.9541C17.951 16.6269 17.942 17.268 17.8906 17.8301C17.8218 18.583 17.678 19.2793 17.3369 19.8672C16.6085 21.1224 15.1961 21.5532 13.0957 21.6934C12.6825 21.7209 12.3246 21.4082 12.2969 20.9951C12.2693 20.5818 12.5828 20.2248 12.9961 20.1973C15.0577 20.0597 15.7277 19.6525 16.04 19.1143C16.2192 18.8053 16.3352 18.3647 16.3965 17.6934C16.436 17.2601 16.447 16.765 16.4521 16.1895C15.8892 16.336 15.1016 16.5031 14.0889 16.623C13.2436 16.7231 12.2414 16.792 11.084 16.792C8.98897 16.792 7.33501 16.5674 6.19727 16.3398C5.9039 16.2812 5.64445 16.2213 5.4209 16.166C5.42453 16.7409 5.43306 17.2363 5.46191 17.6689C5.50658 18.3382 5.59294 18.7885 5.72852 19.1064C5.84957 19.3901 6.01382 19.5783 6.27246 19.7266C6.25624 19.5105 6.25001 19.2699 6.25 19.001C6.25 18.5868 6.5859 18.2511 7 18.251C7.41409 18.2511 7.75 18.5869 7.75 19.001C7.75004 19.7567 7.81108 19.9742 7.84082 20.0391C7.85502 20.0702 7.83055 20.0431 7.94727 20.1416C8.3588 20.184 8.83562 20.2131 9.38965 20.2295C9.8035 20.242 10.1295 20.588 10.1172 21.002C10.1046 21.4156 9.75843 21.7416 9.34473 21.7295C8.66602 21.7094 8.06805 21.6719 7.54492 21.6074C6.76312 21.511 6.09472 21.3468 5.55371 21.0439C4.9857 20.7258 4.59656 20.2756 4.34863 19.6943C4.11312 19.1419 4.013 18.4903 3.96484 17.7686C3.91642 17.0425 3.91699 16.1733 3.91699 15.167C3.91699 14.921 4.03805 14.6909 4.24023 14.5508C4.44198 14.4111 4.69882 14.3792 4.92871 14.4648H4.93066C4.93311 14.4657 4.93798 14.4675 4.94434 14.4697C4.9581 14.4746 4.98158 14.4828 5.0127 14.4932C5.07546 14.5141 5.17353 14.5449 5.30469 14.583C5.56791 14.6594 5.96659 14.7642 6.49121 14.8691C7.54094 15.0791 9.09626 15.292 11.084 15.292C12.182 15.292 13.1249 15.227 13.9121 15.1338C14.9433 15.0117 15.7092 14.8408 16.209 14.7041C16.4587 14.6358 16.6425 14.5763 16.7598 14.5352C16.8182 14.5147 16.8602 14.4983 16.8857 14.4883C16.8983 14.4834 16.9076 14.4804 16.9121 14.4785H16.9131C17.0064 14.4385 17.1075 14.417 17.209 14.417H25.375ZM10.9092 13.6504C11.2518 13.6505 11.5293 13.9279 11.5293 14.2705C11.5293 14.6131 11.2518 14.8905 10.9092 14.8906C10.5665 14.8906 10.2881 14.6132 10.2881 14.2705C10.2881 13.9278 10.5665 13.6504 10.9092 13.6504ZM9.04785 13.5039C9.39035 13.5041 9.66797 13.7824 9.66797 14.125C9.66776 14.4674 9.39022 14.7449 9.04785 14.7451C8.70528 14.7451 8.42696 14.4675 8.42676 14.125C8.42676 13.7823 8.70515 13.5039 9.04785 13.5039ZM12.7705 13.5039C13.1132 13.5039 13.3906 13.7823 13.3906 14.125C13.3904 14.4675 13.1131 14.7451 12.7705 14.7451C12.4279 14.7451 12.1506 14.4675 12.1504 14.125C12.1504 13.7823 12.4278 13.5039 12.7705 13.5039ZM7.18555 13.3584C7.52816 13.3584 7.8065 13.6359 7.80664 13.9785C7.80664 14.3212 7.52824 14.5996 7.18555 14.5996C6.84301 14.5994 6.56543 14.3211 6.56543 13.9785C6.56558 13.6361 6.8431 13.3586 7.18555 13.3584ZM14.6318 13.3584C14.9744 13.3584 15.2528 13.6359 15.2529 13.9785C15.2529 14.3212 14.9745 14.5996 14.6318 14.5996C14.2892 14.5995 14.0117 14.3212 14.0117 13.9785C14.0119 13.636 14.2893 13.3585 14.6318 13.3584ZM5.63477 13.3584C5.80604 13.3585 5.94531 13.4976 5.94531 13.6689C5.94509 13.8401 5.80591 13.9784 5.63477 13.9785C5.46355 13.9785 5.32444 13.8401 5.32422 13.6689C5.32422 13.4976 5.46342 13.3584 5.63477 13.3584ZM16.1836 13.3584C16.3548 13.3586 16.4932 13.4977 16.4932 13.6689C16.4929 13.84 16.3547 13.9783 16.1836 13.9785C16.0124 13.9785 15.8733 13.8401 15.873 13.6689C15.873 13.4976 16.0122 13.3584 16.1836 13.3584ZM9.97852 11.7979C10.321 11.798 10.5985 12.0755 10.5986 12.418C10.5986 12.7606 10.3211 13.0389 9.97852 13.0391C9.63582 13.0391 9.35742 12.7607 9.35742 12.418C9.35754 12.0754 9.63589 11.7979 9.97852 11.7979ZM11.8398 11.7979C12.1824 11.7979 12.4598 12.0754 12.46 12.418C12.46 12.7606 12.1825 13.039 11.8398 13.0391C11.4971 13.0391 11.2188 12.7607 11.2188 12.418C11.2189 12.0754 11.4972 11.7979 11.8398 11.7979ZM8.11621 11.6514C8.45891 11.6514 8.7373 11.9298 8.7373 12.2725C8.73725 12.6151 8.45888 12.8926 8.11621 12.8926C7.77375 12.8923 7.49615 12.615 7.49609 12.2725C7.49609 11.9299 7.77372 11.6516 8.11621 11.6514ZM13.7012 11.6514C14.0439 11.6514 14.3213 11.9298 14.3213 12.2725C14.3212 12.6151 14.0438 12.8926 13.7012 12.8926C13.3585 12.8925 13.0811 12.6151 13.0811 12.2725C13.0811 11.9298 13.3585 11.6514 13.7012 11.6514ZM6.70801 12C6.86909 12 7 12.1309 7 12.292C6.99982 12.4529 6.86898 12.583 6.70801 12.583C6.54719 12.5828 6.41717 12.4528 6.41699 12.292C6.41699 12.131 6.54708 12.0002 6.70801 12ZM15.458 12C15.6191 12 15.75 12.1309 15.75 12.292C15.7498 12.4529 15.619 12.583 15.458 12.583C15.2972 12.5828 15.1672 12.4528 15.167 12.292C15.167 12.131 15.2971 12.0002 15.458 12ZM10.9092 10.2461C11.2518 10.2462 11.5293 10.5246 11.5293 10.8672C11.5292 11.2097 11.2517 11.4872 10.9092 11.4873C10.5666 11.4873 10.2882 11.2098 10.2881 10.8672C10.2881 10.5245 10.5665 10.2461 10.9092 10.2461ZM9.04785 10.1006C9.39022 10.1008 9.66775 10.3783 9.66797 10.7207C9.66797 11.0633 9.39035 11.3416 9.04785 11.3418C8.70515 11.3418 8.42676 11.0634 8.42676 10.7207C8.42697 10.3782 8.70529 10.1006 9.04785 10.1006ZM12.7705 10.1006C13.1131 10.1006 13.3904 10.3782 13.3906 10.7207C13.3906 11.0634 13.1132 11.3418 12.7705 11.3418C12.4278 11.3418 12.1504 11.0634 12.1504 10.7207C12.1506 10.3782 12.4279 10.1006 12.7705 10.1006ZM7.49609 10.2559C7.66744 10.2559 7.80664 10.3951 7.80664 10.5664C7.80641 10.7376 7.6673 10.876 7.49609 10.876C7.32491 10.876 7.18578 10.7375 7.18555 10.5664C7.18555 10.3951 7.32477 10.2559 7.49609 10.2559ZM14.3213 10.2559C14.4926 10.2559 14.6318 10.3951 14.6318 10.5664C14.6316 10.7376 14.4925 10.876 14.3213 10.876C14.1503 10.8757 14.0119 10.7374 14.0117 10.5664C14.0117 10.3952 14.1502 10.2561 14.3213 10.2559ZM9.97852 8.54004C10.3209 8.54022 10.5984 8.81775 10.5986 9.16016C10.5986 9.50275 10.3211 9.78107 9.97852 9.78125C9.63582 9.78125 9.35742 9.50285 9.35742 9.16016C9.35764 8.81764 9.63595 8.54004 9.97852 8.54004ZM11.8398 8.54004C12.1824 8.54011 12.4597 8.81768 12.46 9.16016C12.46 9.50281 12.1825 9.78118 11.8398 9.78125C11.4971 9.78125 11.2188 9.50285 11.2188 9.16016C11.219 8.81764 11.4973 8.54004 11.8398 8.54004ZM7.49609 9.01465C7.66744 9.01465 7.80664 9.15385 7.80664 9.3252C7.80652 9.49644 7.66737 9.63477 7.49609 9.63477C7.32484 9.63474 7.18567 9.49643 7.18555 9.3252C7.18555 9.15386 7.32477 9.01467 7.49609 9.01465ZM14.3213 9.01465C14.4926 9.01465 14.6318 9.15385 14.6318 9.3252C14.6317 9.49644 14.4926 9.63477 14.3213 9.63477C14.1502 9.63451 14.0118 9.49629 14.0117 9.3252C14.0117 9.154 14.1502 9.0149 14.3213 9.01465ZM8.7373 8.39453C8.90848 8.39461 9.04767 8.53295 9.04785 8.7041C9.04785 8.8754 8.90859 9.01457 8.7373 9.01465C8.56596 9.01465 8.42676 8.87545 8.42676 8.7041C8.42694 8.53291 8.56607 8.39453 8.7373 8.39453ZM13.0811 8.39453C13.2521 8.39471 13.3904 8.53301 13.3906 8.7041C13.3906 8.87534 13.2523 9.01447 13.0811 9.01465C12.9097 9.01465 12.7705 8.87545 12.7705 8.7041C12.7707 8.53291 12.9098 8.39453 13.0811 8.39453ZM10.9092 6.82422C11.2518 6.82435 11.5293 7.10269 11.5293 7.44531C11.529 7.78771 11.2516 8.0653 10.9092 8.06543C10.5666 8.06543 10.2883 7.78779 10.2881 7.44531C10.2881 7.10261 10.5665 6.82422 10.9092 6.82422ZM9.35742 7.15332C9.52877 7.15332 9.66797 7.29252 9.66797 7.46387C9.66773 7.63501 9.52862 7.77344 9.35742 7.77344C9.18633 7.7733 9.04809 7.63493 9.04785 7.46387C9.04785 7.2926 9.18619 7.15345 9.35742 7.15332ZM12.46 7.15332C12.6313 7.15332 12.7705 7.29252 12.7705 7.46387C12.7703 7.63501 12.6312 7.77344 12.46 7.77344C12.2889 7.77329 12.1506 7.63493 12.1504 7.46387C12.1504 7.29261 12.2887 7.15346 12.46 7.15332ZM9.97852 5.91211C10.1497 5.91228 10.2881 6.05142 10.2881 6.22266C10.288 6.39379 10.1496 6.53205 9.97852 6.53223C9.80725 6.53223 9.6681 6.3939 9.66797 6.22266C9.66797 6.05131 9.80717 5.91211 9.97852 5.91211ZM11.8398 5.91211C12.0111 5.91218 12.1504 6.05135 12.1504 6.22266C12.1503 6.39386 12.0111 6.53216 11.8398 6.53223C11.6686 6.53223 11.5294 6.3939 11.5293 6.22266C11.5293 6.05131 11.6685 5.91211 11.8398 5.91211ZM10.9092 5.29199C11.0803 5.29212 11.2186 5.43045 11.2188 5.60156C11.2188 5.77283 11.0804 5.91198 10.9092 5.91211C10.7378 5.91211 10.5986 5.77291 10.5986 5.60156C10.5988 5.43038 10.7379 5.29199 10.9092 5.29199Z" fill="#332A2A"/>
</g>
<defs>
<clipPath id="clip0_1631_12779">
<rect width="28" height="28" fill="white"/>
</clipPath>
</defs>
</svg>
