<svg width="18" height="18" viewBox="0 0 18 18" fill="none" xmlns="http://www.w3.org/2000/svg">
<g clip-path="url(#clip0_1631_12781)">
<path d="M7.125 13.5C10.2901 13.5 10.911 13.0154 11.0328 11.2671C11.0827 10.5509 10.3041 10.0045 9.59603 10.1228C8.97171 10.2271 8.14803 10.3125 7.125 10.3125C6.0002 10.3125 5.08196 10.2092 4.39978 10.0912C3.7118 9.97212 2.98653 10.4969 3.01885 11.1943C3.11359 13.2391 3.68452 13.5 7.125 13.5Z" fill="#E05149"/>
<path d="M16.3125 9.125C16.6577 9.125 16.9375 9.40482 16.9375 9.75C16.9375 10.0952 16.6577 10.375 16.3125 10.375H11.6846C11.6814 10.7771 11.6735 11.146 11.6436 11.4746C11.5986 11.9664 11.5032 12.4383 11.2686 12.8428C10.7606 13.7182 9.78193 13.9976 8.42773 14.0879C8.08341 14.1107 7.78567 13.8502 7.7627 13.5059C7.73988 13.1616 8.00044 12.8638 8.34473 12.8408C9.66665 12.7526 10.0264 12.4936 10.1875 12.2158C10.2873 12.0438 10.3597 11.7852 10.3984 11.3613C10.4191 11.1347 10.428 10.8806 10.4326 10.5908C10.0833 10.6741 9.63018 10.7622 9.07324 10.8281C8.52425 10.8931 7.87476 10.9375 7.125 10.9375C5.76778 10.9375 4.69487 10.7925 3.95508 10.6445C3.83734 10.621 3.72863 10.5944 3.62793 10.5713C3.63121 10.8634 3.63808 11.12 3.65332 11.3486C3.68169 11.774 3.73583 12.0444 3.81348 12.2266C3.83242 12.271 3.85412 12.3099 3.87695 12.3457C3.87641 12.303 3.875 12.2594 3.875 12.2148C3.875 11.8697 4.15485 11.5899 4.5 11.5898C4.84515 11.5899 5.125 11.8697 5.125 12.2148C5.12501 12.444 5.13298 12.5953 5.14551 12.6973C5.15274 12.756 5.16218 12.7902 5.16699 12.8076C5.41693 12.8319 5.70527 12.8524 6.04004 12.8623C6.385 12.8725 6.6566 13.1599 6.64648 13.5049C6.63625 13.8499 6.34796 14.1216 6.00293 14.1113C5.56422 14.0983 5.17452 14.0745 4.83203 14.0322C4.32185 13.9692 3.87128 13.8603 3.5 13.6523C3.10624 13.4317 2.8353 13.1183 2.66406 12.7168C2.5031 12.3393 2.43754 11.9007 2.40625 11.4316C2.37475 10.9591 2.375 10.3952 2.375 9.75C2.375 9.54516 2.47529 9.35311 2.64355 9.23633C2.81187 9.11969 3.02696 9.09334 3.21875 9.16504V9.16406C3.21991 9.16449 3.22268 9.16561 3.22656 9.16699C3.23458 9.16983 3.24848 9.17527 3.26758 9.18164C3.30613 9.19449 3.36705 9.21344 3.44922 9.2373C3.61474 9.28536 3.86796 9.35132 4.20117 9.41797C4.8676 9.55123 5.85751 9.6875 7.125 9.6875C7.82538 9.6875 8.42616 9.64618 8.92676 9.58691C9.5823 9.50929 10.0672 9.40049 10.3818 9.31445C10.5391 9.27144 10.6542 9.23438 10.7266 9.20898C10.7627 9.1963 10.7888 9.18649 10.8037 9.18066L10.8174 9.1748L10.8164 9.17578C10.8942 9.14245 10.9779 9.12501 11.0625 9.125H16.3125ZM7.0127 8.77539C7.23299 8.77539 7.41209 8.95354 7.41211 9.17383C7.41211 9.39413 7.233 9.57324 7.0127 9.57324C6.79249 9.57312 6.61426 9.39406 6.61426 9.17383C6.61428 8.95361 6.7925 8.77551 7.0127 8.77539ZM5.81641 8.68164C6.03661 8.68174 6.21483 8.85985 6.21484 9.08008C6.21484 9.30032 6.03662 9.47939 5.81641 9.47949C5.5961 9.47949 5.41699 9.30038 5.41699 9.08008C5.41701 8.85979 5.59611 8.68164 5.81641 8.68164ZM8.20996 8.68164C8.43009 8.68183 8.60838 8.8599 8.6084 9.08008C8.6084 9.30027 8.43011 9.4793 8.20996 9.47949C7.98966 9.47949 7.81055 9.30038 7.81055 9.08008C7.81056 8.85979 7.98967 8.68164 8.20996 8.68164ZM4.61914 8.58789C4.83944 8.58789 5.01854 8.76604 5.01855 8.98633C5.01855 9.20663 4.83945 9.38574 4.61914 9.38574C4.39901 9.38554 4.2207 9.20651 4.2207 8.98633C4.22072 8.76616 4.39902 8.5881 4.61914 8.58789ZM9.40625 8.58789C9.62654 8.58789 9.80565 8.76604 9.80566 8.98633C9.80566 9.20663 9.62656 9.38574 9.40625 9.38574C9.18597 9.38571 9.00781 9.20661 9.00781 8.98633C9.00783 8.76606 9.18598 8.58792 9.40625 8.58789ZM3.62207 8.58789C3.73222 8.58789 3.82129 8.67696 3.82129 8.78711C3.82118 8.89717 3.73216 8.98633 3.62207 8.98633C3.51208 8.98622 3.42296 8.89711 3.42285 8.78711C3.42285 8.67702 3.51201 8.588 3.62207 8.58789ZM10.4033 8.58789C10.5135 8.58789 10.6025 8.67696 10.6025 8.78711C10.6024 8.89717 10.5134 8.98633 10.4033 8.98633C10.2933 8.9862 10.2042 8.89709 10.2041 8.78711C10.2041 8.67704 10.2933 8.58802 10.4033 8.58789ZM6.41504 7.58398C6.63513 7.58424 6.81348 7.76325 6.81348 7.9834C6.81333 8.20342 6.63504 8.38158 6.41504 8.38184C6.19483 8.38183 6.01577 8.20358 6.01562 7.9834C6.01562 7.76309 6.19473 7.58399 6.41504 7.58398ZM7.61133 7.58398C7.83161 7.58402 8.00977 7.76311 8.00977 7.9834C8.00962 8.20356 7.83152 8.3818 7.61133 8.38184C7.39111 8.38183 7.21206 8.20358 7.21191 7.9834C7.21191 7.76309 7.39102 7.58399 7.61133 7.58398ZM5.21777 7.49023C5.43808 7.49023 5.61719 7.66934 5.61719 7.88965C5.61704 8.10983 5.43799 8.28809 5.21777 8.28809C4.99761 8.28803 4.81948 8.1098 4.81934 7.88965C4.81934 7.66938 4.99751 7.49029 5.21777 7.49023ZM8.80762 7.49023C9.02792 7.49023 9.20703 7.66934 9.20703 7.88965C9.20688 8.10983 9.02783 8.28809 8.80762 8.28809C8.58756 8.2879 8.40933 8.10971 8.40918 7.88965C8.40918 7.66946 8.58747 7.49042 8.80762 7.49023ZM4.3125 7.71387C4.41591 7.71387 4.49977 7.79801 4.5 7.90137C4.5 8.00492 4.41605 8.08887 4.3125 8.08887C4.20896 8.08885 4.125 8.00491 4.125 7.90137C4.12523 7.79802 4.2091 7.71388 4.3125 7.71387ZM9.9375 7.71387C10.0409 7.71387 10.1248 7.79801 10.125 7.90137C10.125 8.00492 10.0411 8.08887 9.9375 8.08887C9.83396 8.08885 9.75 8.00491 9.75 7.90137C9.75023 7.79801 9.8341 7.71388 9.9375 7.71387ZM7.0127 6.58691C7.233 6.58691 7.41211 6.76602 7.41211 6.98633C7.41187 7.20643 7.23285 7.38477 7.0127 7.38477C6.79264 7.38465 6.6145 7.20636 6.61426 6.98633C6.61426 6.7661 6.79249 6.58703 7.0127 6.58691ZM5.81641 6.49316C6.03662 6.49327 6.21484 6.67234 6.21484 6.89258C6.21461 7.11262 6.03648 7.29091 5.81641 7.29102C5.59625 7.29101 5.41723 7.11268 5.41699 6.89258C5.41699 6.67227 5.5961 6.49317 5.81641 6.49316ZM8.20996 6.49316C8.43011 6.49335 8.6084 6.67239 8.6084 6.89258C8.60816 7.11256 8.42996 7.29083 8.20996 7.29102C7.9898 7.29101 7.81078 7.11268 7.81055 6.89258C7.81055 6.67227 7.98966 6.49317 8.20996 6.49316ZM4.81934 6.59277C4.92918 6.59297 5.01833 6.68216 5.01855 6.79199C5.01855 6.90202 4.92932 6.99199 4.81934 6.99219C4.70918 6.99219 4.61914 6.90214 4.61914 6.79199C4.61937 6.68203 4.70933 6.59278 4.81934 6.59277ZM9.20703 6.59277C9.31696 6.59287 9.40602 6.68209 9.40625 6.79199C9.40625 6.90209 9.31711 6.9921 9.20703 6.99219C9.09688 6.99219 9.00781 6.90214 9.00781 6.79199C9.00804 6.68204 9.09702 6.59278 9.20703 6.59277ZM6.41504 5.49023C6.63504 5.49049 6.81334 5.66864 6.81348 5.88867C6.81348 6.10882 6.63513 6.28783 6.41504 6.28809C6.19473 6.28808 6.01562 6.10898 6.01562 5.88867C6.01576 5.66848 6.19482 5.49024 6.41504 5.49023ZM7.61133 5.49023C7.83152 5.49027 8.00963 5.6685 8.00977 5.88867C8.00977 6.10896 7.83161 6.28805 7.61133 6.28809C7.39102 6.28808 7.21191 6.10898 7.21191 5.88867C7.21205 5.66848 7.39111 5.49024 7.61133 5.49023ZM4.81934 5.79492C4.92916 5.79512 5.01829 5.88433 5.01855 5.99414C5.01855 6.10417 4.92932 6.19414 4.81934 6.19434C4.70918 6.19433 4.61914 6.10429 4.61914 5.99414C4.6194 5.88421 4.70935 5.79492 4.81934 5.79492ZM9.20703 5.79492C9.31694 5.79501 9.40599 5.88427 9.40625 5.99414C9.40625 6.10424 9.31711 6.19424 9.20703 6.19434C9.09688 6.19433 9.00781 6.10429 9.00781 5.99414C9.00807 5.88421 9.09704 5.79492 9.20703 5.79492ZM5.61719 5.39648C5.72715 5.39671 5.8164 5.48569 5.81641 5.5957C5.81641 5.70572 5.72715 5.7947 5.61719 5.79492C5.50704 5.79492 5.41699 5.70585 5.41699 5.5957C5.41699 5.48555 5.50704 5.39649 5.61719 5.39648ZM8.40918 5.39648C8.51928 5.39655 8.6084 5.48559 8.6084 5.5957C8.6084 5.70582 8.51928 5.79486 8.40918 5.79492C8.29903 5.79492 8.20996 5.70585 8.20996 5.5957C8.20996 5.48555 8.29903 5.39649 8.40918 5.39648ZM7.0127 4.38672C7.233 4.38672 7.41211 4.56583 7.41211 4.78613C7.41202 5.00636 7.23295 5.18457 7.0127 5.18457C6.79255 5.18445 6.61435 5.00629 6.61426 4.78613C6.61426 4.5659 6.79249 4.38684 7.0127 4.38672ZM6.01562 4.59863C6.12576 4.59863 6.21481 4.68773 6.21484 4.79785C6.21484 4.908 6.12578 4.99707 6.01562 4.99707C5.90549 4.99705 5.81641 4.90799 5.81641 4.79785C5.81644 4.68774 5.90551 4.59866 6.01562 4.59863ZM8.00977 4.59863C8.1199 4.59863 8.20993 4.68773 8.20996 4.79785C8.20996 4.908 8.11992 4.99707 8.00977 4.99707C7.8998 4.99685 7.81055 4.90787 7.81055 4.79785C7.81058 4.68786 7.89982 4.59885 8.00977 4.59863ZM6.41504 3.80078C6.52494 3.80103 6.61419 3.89006 6.61426 4C6.61426 4.11 6.52498 4.19897 6.41504 4.19922C6.30489 4.19922 6.21484 4.11015 6.21484 4C6.21491 3.88991 6.30493 3.80078 6.41504 3.80078ZM7.61133 3.80078C7.72141 3.80081 7.81048 3.88993 7.81055 4C7.81055 4.11013 7.72145 4.19919 7.61133 4.19922C7.50118 4.19922 7.41211 4.11015 7.41211 4C7.41218 3.88991 7.50122 3.80078 7.61133 3.80078ZM7.0127 3.40137C7.12285 3.40137 7.21191 3.49141 7.21191 3.60156C7.21173 3.71156 7.12274 3.80078 7.0127 3.80078C6.90276 3.80066 6.81366 3.71149 6.81348 3.60156C6.81348 3.49148 6.90264 3.40149 7.0127 3.40137Z" fill="#322B2B"/>
</g>
<defs>
<clipPath id="clip0_1631_12781">
<rect width="18" height="18" fill="white"/>
</clipPath>
</defs>
</svg>
