<svg width="23" height="23" viewBox="0 0 23 23" fill="none" xmlns="http://www.w3.org/2000/svg">
<g clip-path="url(#clip0_1631_12636)">
<path d="M20.8438 11.7832C21.2163 11.7834 21.5184 12.0855 21.5186 12.458C21.5186 12.8307 21.2164 13.1326 20.8438 13.1328H14.8066C14.8036 13.6931 14.7948 14.202 14.7539 14.6504C14.6971 15.2721 14.5775 15.8547 14.291 16.3486C13.6763 17.4077 12.4875 17.7627 10.7607 17.8779C10.3889 17.9025 10.0668 17.6209 10.042 17.249C10.0175 16.8774 10.2993 16.5562 10.6709 16.5312C12.3631 16.4183 12.8838 16.0849 13.124 15.6709C13.2649 15.4281 13.3591 15.0766 13.4092 14.5283C13.4397 14.1935 13.4493 13.8128 13.4541 13.373C12.9951 13.4891 12.3703 13.6192 11.5791 13.7129C10.8824 13.7954 10.0566 13.8516 9.10352 13.8516C7.37844 13.8515 6.01605 13.6671 5.07812 13.4795C4.86734 13.4373 4.67802 13.3929 4.51074 13.3525C4.51413 13.7924 4.5226 14.1737 4.54492 14.5088C4.58144 15.0564 4.65142 15.4189 4.75879 15.6709C4.83742 15.8553 4.93984 15.9847 5.08691 16.0898C5.07906 15.9417 5.07422 15.7812 5.07422 15.6074C5.07439 15.2349 5.37749 14.9318 5.75 14.9316C6.1225 14.9319 6.42463 15.2349 6.4248 15.6074C6.42483 16.2261 6.47452 16.3943 6.49316 16.4355L6.50684 16.4492C6.51744 16.4592 6.5313 16.4708 6.55078 16.4873C6.88286 16.5209 7.26739 16.5444 7.71387 16.5576C8.08639 16.5687 8.38002 16.8804 8.36914 17.2529C8.35788 17.6254 8.04632 17.9183 7.67383 17.9072C7.11532 17.8907 6.62171 17.86 6.18945 17.8066C5.54414 17.727 4.98628 17.5913 4.53223 17.3369C4.05396 17.0689 3.72508 16.6892 3.5166 16.2002C3.31934 15.7372 3.23694 15.1935 3.19727 14.5986C3.15737 13.9999 3.1582 13.2837 3.1582 12.458C3.15831 12.2369 3.26658 12.0294 3.44824 11.9033C3.62992 11.7774 3.86229 11.7489 4.06934 11.8262H4.07031C4.07218 11.8269 4.07624 11.8284 4.08105 11.8301C4.09196 11.8339 4.11079 11.8403 4.13574 11.8486C4.1865 11.8655 4.26623 11.8909 4.37305 11.9219C4.58763 11.9842 4.91368 12.0694 5.34277 12.1553C6.20147 12.327 7.4751 12.5019 9.10352 12.502C10.0031 12.502 10.7756 12.4483 11.4199 12.3721C12.2637 12.2722 12.89 12.133 13.2979 12.0215C13.5016 11.9658 13.6519 11.9162 13.7471 11.8828C13.7942 11.8663 13.8282 11.8536 13.8486 11.8457C13.8585 11.8419 13.8656 11.8393 13.8691 11.8379C13.9529 11.802 14.0436 11.7833 14.1348 11.7832H20.8438ZM8.96094 11.2129C9.24228 11.2129 9.47045 11.4404 9.4707 11.7217C9.4707 12.0032 9.24244 12.2314 8.96094 12.2314C8.67944 12.2314 8.45117 12.0032 8.45117 11.7217C8.45143 11.4404 8.6796 11.2129 8.96094 11.2129ZM7.43164 11.0928C7.71314 11.0928 7.94141 11.321 7.94141 11.6025C7.94131 11.884 7.71308 12.1123 7.43164 12.1123C7.15028 12.1122 6.92197 11.8839 6.92188 11.6025C6.92188 11.3211 7.15022 11.0929 7.43164 11.0928ZM10.4902 11.0928C10.7716 11.0929 11 11.3211 11 11.6025C10.9999 11.8839 10.7716 12.1122 10.4902 12.1123C10.2088 12.1123 9.98056 11.884 9.98047 11.6025C9.98047 11.321 10.2087 11.0928 10.4902 11.0928ZM5.90234 10.9727C6.1838 10.9727 6.41203 11.201 6.41211 11.4824C6.41211 11.7639 6.18385 11.9922 5.90234 11.9922C5.62101 11.992 5.39258 11.7638 5.39258 11.4824C5.39266 11.2011 5.62106 10.9729 5.90234 10.9727ZM12.0195 10.9727C12.3008 10.9729 12.5292 11.2011 12.5293 11.4824C12.5293 11.7638 12.3009 11.992 12.0195 11.9922C11.738 11.9922 11.5098 11.7639 11.5098 11.4824C11.5098 11.201 11.7381 10.9727 12.0195 10.9727ZM4.62891 10.9727C4.76938 10.9729 4.88271 11.087 4.88281 11.2275C4.88281 11.3681 4.76944 11.4822 4.62891 11.4824C4.48816 11.4824 4.37402 11.3683 4.37402 11.2275C4.37412 11.0869 4.48822 10.9727 4.62891 10.9727ZM13.293 10.9727C13.4337 10.9727 13.5478 11.0869 13.5479 11.2275C13.5479 11.3683 13.4337 11.4824 13.293 11.4824C13.1524 11.4822 13.0381 11.3681 13.0381 11.2275C13.0382 11.087 13.1525 10.9729 13.293 10.9727ZM8.19629 9.69141C8.47764 9.69141 8.7058 9.91891 8.70605 10.2002C8.70605 10.4817 8.47779 10.71 8.19629 10.71C7.91483 10.7099 7.68652 10.4817 7.68652 10.2002C7.68678 9.91894 7.91498 9.69146 8.19629 9.69141ZM9.72559 9.69141C10.0069 9.69146 10.2351 9.91894 10.2354 10.2002C10.2354 10.4817 10.007 10.7099 9.72559 10.71C9.44408 10.71 9.21582 10.4817 9.21582 10.2002C9.21607 9.91891 9.44424 9.69141 9.72559 9.69141ZM6.66699 9.57129C6.94849 9.57129 7.17676 9.79955 7.17676 10.0811C7.17666 10.3625 6.94843 10.5908 6.66699 10.5908C6.38568 10.5907 6.15733 10.3624 6.15723 10.0811C6.15723 9.79964 6.38562 9.57144 6.66699 9.57129ZM11.2549 9.57129C11.5363 9.57144 11.7646 9.79964 11.7646 10.0811C11.7645 10.3624 11.5362 10.5907 11.2549 10.5908C10.9734 10.5908 10.7452 10.3625 10.7451 10.0811C10.7451 9.79955 10.9734 9.57129 11.2549 9.57129ZM5.51074 9.85742C5.6429 9.85759 5.74997 9.96449 5.75 10.0967C5.75 10.2289 5.64292 10.3358 5.51074 10.3359C5.37842 10.3359 5.27051 10.229 5.27051 10.0967C5.27053 9.96438 5.37844 9.85742 5.51074 9.85742ZM12.6982 9.85742C12.8304 9.85759 12.9375 9.96449 12.9375 10.0967C12.9375 10.2289 12.8304 10.3358 12.6982 10.3359C12.5659 10.3359 12.458 10.229 12.458 10.0967C12.458 9.96438 12.5659 9.85742 12.6982 9.85742ZM8.96094 8.41699C9.24244 8.417 9.4707 8.64526 9.4707 8.92676C9.47052 9.2081 9.24232 9.43652 8.96094 9.43652C8.67955 9.43652 8.45136 9.2081 8.45117 8.92676C8.45117 8.64526 8.67944 8.41699 8.96094 8.41699ZM7.43164 8.29688C7.71314 8.29688 7.94141 8.52514 7.94141 8.80664C7.9414 9.08813 7.71314 9.31641 7.43164 9.31641C7.15023 9.31631 6.92189 9.08807 6.92188 8.80664C6.92188 8.5252 7.15022 8.29697 7.43164 8.29688ZM10.4902 8.29688C10.7716 8.29698 11 8.5252 11 8.80664C11 9.08807 10.7716 9.3163 10.4902 9.31641C10.2087 9.31641 9.98048 9.08813 9.98047 8.80664C9.98047 8.52514 10.2087 8.29688 10.4902 8.29688ZM6.15723 8.4248C6.29781 8.4248 6.41185 8.53818 6.41211 8.67871C6.41211 8.81946 6.29798 8.93359 6.15723 8.93359C6.01663 8.93342 5.90234 8.81935 5.90234 8.67871C5.90261 8.53829 6.01679 8.42498 6.15723 8.4248ZM11.7646 8.4248C11.9051 8.42499 12.0193 8.5383 12.0195 8.67871C12.0195 8.81935 11.9052 8.93341 11.7646 8.93359C11.6239 8.93359 11.5098 8.81946 11.5098 8.67871C11.51 8.53819 11.6241 8.42481 11.7646 8.4248ZM8.19629 7.01465C8.47768 7.01465 8.70588 7.24306 8.70605 7.52441C8.70605 7.80592 8.47779 8.03418 8.19629 8.03418C7.91483 8.03413 7.68652 7.80589 7.68652 7.52441C7.6867 7.24309 7.91494 7.0147 8.19629 7.01465ZM9.72559 7.01465C10.0069 7.0147 10.2352 7.24309 10.2354 7.52441C10.2354 7.80588 10.007 8.03413 9.72559 8.03418C9.44408 8.03418 9.21582 7.80592 9.21582 7.52441C9.216 7.24306 9.44419 7.01465 9.72559 7.01465ZM6.15723 7.40527C6.29798 7.40527 6.41211 7.51941 6.41211 7.66016C6.41192 7.80074 6.29786 7.91504 6.15723 7.91504C6.01675 7.91486 5.90254 7.80063 5.90234 7.66016C5.90234 7.51952 6.01663 7.40545 6.15723 7.40527ZM11.7646 7.40527C11.9052 7.40546 12.0195 7.51952 12.0195 7.66016C12.0193 7.80063 11.9051 7.91486 11.7646 7.91504C11.624 7.91504 11.51 7.80074 11.5098 7.66016C11.5098 7.51941 11.6239 7.40527 11.7646 7.40527ZM7.17676 6.89551C7.31751 6.89551 7.43164 7.00964 7.43164 7.15039C7.43147 7.29099 7.3174 7.40527 7.17676 7.40527C7.03621 7.40516 6.92205 7.29092 6.92188 7.15039C6.92188 7.00971 7.0361 6.89562 7.17676 6.89551ZM10.7451 6.89551C10.8858 6.89563 11 7.00971 11 7.15039C10.9998 7.29092 10.8857 7.40515 10.7451 7.40527C10.6045 7.40527 10.4904 7.29099 10.4902 7.15039C10.4902 7.00964 10.6044 6.89551 10.7451 6.89551ZM8.96094 5.60547C9.24238 5.60547 9.47061 5.83381 9.4707 6.11523C9.4707 6.39673 9.24244 6.625 8.96094 6.625C8.67944 6.625 8.45117 6.39674 8.45117 6.11523C8.45126 5.83381 8.67949 5.60547 8.96094 5.60547ZM7.68652 5.87598C7.82727 5.87598 7.94141 5.99011 7.94141 6.13086C7.94131 6.27152 7.82721 6.38574 7.68652 6.38574C7.5459 6.38566 7.43174 6.27148 7.43164 6.13086C7.43164 5.99016 7.54584 5.87606 7.68652 5.87598ZM10.2354 5.87598C10.376 5.87606 10.4902 5.99016 10.4902 6.13086C10.4901 6.27147 10.376 6.38566 10.2354 6.38574C10.0947 6.38574 9.98057 6.27152 9.98047 6.13086C9.98047 5.99011 10.0946 5.87598 10.2354 5.87598ZM8.19629 4.85645C8.33704 4.85645 8.45117 4.97058 8.45117 5.11133C8.45114 5.25205 8.33702 5.36621 8.19629 5.36621C8.0556 5.36616 7.94144 5.25202 7.94141 5.11133C7.94141 4.97061 8.05558 4.8565 8.19629 4.85645ZM9.72559 4.85645C9.8663 4.85649 9.98047 4.97061 9.98047 5.11133C9.98044 5.25202 9.86628 5.36616 9.72559 5.36621C9.58485 5.36621 9.47073 5.25205 9.4707 5.11133C9.4707 4.97058 9.58484 4.85645 9.72559 4.85645ZM8.96094 4.34668C9.10168 4.34668 9.21581 4.46082 9.21582 4.60156C9.21582 4.74231 9.10169 4.85644 8.96094 4.85645C8.82019 4.85644 8.70605 4.74231 8.70605 4.60156C8.70606 4.46082 8.82019 4.34668 8.96094 4.34668Z" fill="#322B2B"/>
</g>
<defs>
<clipPath id="clip0_1631_12636">
<rect width="23" height="23" fill="white"/>
</clipPath>
</defs>
</svg>
