<svg width="28" height="28" viewBox="0 0 28 28" fill="none" xmlns="http://www.w3.org/2000/svg">
<g clip-path="url(#clip0_1894_12848)">
<path d="M22.2529 5.7207C22.5632 5.44681 23.0373 5.47625 23.3115 5.78613C25.243 7.97445 26.4159 10.8516 26.416 14C26.4158 20.8573 20.8573 26.4158 14 26.416C9.747 26.4159 5.99336 24.277 3.75684 21.0195C3.52274 20.6781 3.6089 20.2109 3.9502 19.9766C4.29149 19.7423 4.7586 19.8289 4.99316 20.1699C6.96187 23.0376 10.2619 24.9159 14 24.916C20.0289 24.9158 24.9158 20.0289 24.916 14C24.9159 11.2311 23.8862 8.70407 22.1875 6.7793C21.9139 6.46888 21.9429 5.99476 22.2529 5.7207ZM20.3838 20.8369C20.7617 20.8754 21.0565 21.1949 21.0566 21.583C21.0566 21.9894 20.7335 22.3187 20.3301 22.3311C20.3103 22.3467 20.2431 22.4076 20.1025 22.6035C20.0206 22.7178 19.8774 22.9303 19.7178 23.0928C19.5469 23.2666 19.2487 23.5 18.8193 23.5C18.402 23.4999 18.0875 23.3232 17.8643 23.1094C17.6767 22.9296 17.5303 22.6956 17.4561 22.585C17.2657 22.3016 17.2435 22.3328 17.1992 22.333C17.177 22.333 17.1625 22.3346 17.1553 22.3359C17.1321 22.3569 17.0986 22.4007 17.001 22.5596C16.9231 22.6863 16.7754 22.9373 16.5449 23.1357C16.2791 23.3646 15.9402 23.5 15.5254 23.5C15.5165 23.5 15.5078 23.4984 15.499 23.498C15.4904 23.4983 15.4814 23.5 15.4727 23.5C15.0554 23.4999 14.7408 23.3231 14.5176 23.1094C14.3301 22.9296 14.1837 22.6956 14.1094 22.585C13.9185 22.3008 13.8961 22.333 13.8516 22.333C13.8288 22.333 13.8145 22.3346 13.8076 22.3359C13.7845 22.357 13.7514 22.4016 13.6543 22.5596C13.5764 22.6862 13.4288 22.9372 13.1982 23.1357C12.9324 23.3646 12.5935 23.5 12.1787 23.5C11.7614 23.4999 11.4469 23.3232 11.2236 23.1094C11.0361 22.9296 10.8897 22.6956 10.8154 22.585C10.6589 22.352 10.6159 22.3316 10.5811 22.332C10.5605 22.3484 10.4935 22.4097 10.3545 22.6035C10.2725 22.7178 10.1285 22.9302 9.96875 23.0928C9.7979 23.2666 9.49976 23.5 9.07031 23.5C8.65549 23.4999 8.3098 23.359 8.04883 23.1006C7.82988 22.8835 7.70836 22.6115 7.65039 22.4902C7.61366 22.4134 7.59157 22.3686 7.57031 22.332C7.16212 22.3251 6.83301 21.9929 6.83301 21.583C6.83318 21.1691 7.16905 20.8332 7.58301 20.833C7.99794 20.833 8.34344 20.9741 8.60449 21.2324C8.82351 21.4494 8.94489 21.7213 9.00293 21.8428C9.00996 21.8575 9.01739 21.8713 9.02344 21.8838C9.05339 21.8423 9.08977 21.7922 9.13477 21.7295C9.30895 21.4866 9.7513 20.8332 10.5586 20.833L10.7188 20.8398C11.4941 20.9086 11.8723 21.4678 12.0605 21.748C12.1491 21.8798 12.1962 21.9449 12.2295 21.9863C12.2527 21.9619 12.2902 21.913 12.376 21.7734C12.4538 21.6469 12.6015 21.3958 12.832 21.1973C13.0978 20.9684 13.4369 20.8332 13.8516 20.833C14.7363 20.833 15.1537 21.4491 15.3545 21.748C15.4525 21.8939 15.4986 21.9587 15.5332 21.999C15.5507 21.9984 15.5618 21.9963 15.5684 21.9951C15.5915 21.974 15.6265 21.9314 15.7236 21.7734C15.8015 21.6468 15.9485 21.3957 16.1787 21.1973C16.4445 20.9684 16.7844 20.8331 17.1992 20.833C18.0836 20.8332 18.5004 21.4491 18.7012 21.748C18.7333 21.7959 18.7601 21.8356 18.7822 21.8682C18.8099 21.8297 18.844 21.7849 18.8838 21.7295C19.0579 21.4867 19.4995 20.8333 20.3066 20.833L20.3838 20.8369ZM14.084 3.6543C14.3351 3.38707 14.7274 3.30405 15.0752 3.45898C15.635 3.70869 16.3018 4.3463 16.7549 5.0957C17.2163 5.8591 17.5617 6.91588 17.1934 7.99902C17.1581 8.10253 17.1513 8.21906 17.1709 8.31445C17.19 8.40704 17.2255 8.4476 17.2451 8.46289C18.6375 9.54167 19.6195 11.1541 19.5742 12.6504C20.0134 13.6038 19.9953 14.7346 19.6982 15.71C19.3802 16.7539 18.6975 17.7669 17.6875 18.2705C17.3169 18.4552 16.8665 18.305 16.6816 17.9346C16.4971 17.5639 16.6479 17.1134 17.0186 16.9287C17.5582 16.6596 18.027 16.046 18.2627 15.2725C18.3011 15.1464 18.3289 15.0192 18.3525 14.8936C17.9082 15.2534 17.3927 15.5533 16.9512 15.8145C16.4102 16.1344 15.9719 16.4012 15.6592 16.6992C15.4288 16.9189 15.3075 17.1178 15.2666 17.3281C15.2833 17.3288 15.2998 17.333 15.3164 17.333C15.7305 17.333 16.0662 17.6689 16.0664 18.083C16.0664 18.4972 15.7306 18.833 15.3164 18.833C15.1353 18.833 14.9493 18.8121 14.7637 18.7734C15.0597 18.9764 15.2413 19.2465 15.3545 19.415C15.4526 19.5611 15.4985 19.6257 15.5332 19.666C15.5506 19.6654 15.5618 19.6633 15.5684 19.6621C15.5915 19.641 15.6266 19.5983 15.7236 19.4404C15.8014 19.3139 15.9485 19.0627 16.1787 18.8643C16.4445 18.6353 16.7844 18.5001 17.1992 18.5C18.0838 18.5002 18.5004 19.1162 18.7012 19.415C18.7334 19.463 18.7601 19.5026 18.7822 19.5352C18.8099 19.4967 18.8441 19.4518 18.8838 19.3965C19.0579 19.1537 19.4994 18.5003 20.3066 18.5L20.3838 18.5039C20.7618 18.5424 21.0566 18.8618 21.0566 19.25C21.0566 19.6564 20.7335 19.9857 20.3301 19.998C20.3101 20.0139 20.2427 20.0751 20.1025 20.2705C20.0205 20.3849 19.8773 20.5974 19.7178 20.7598C19.5469 20.9336 19.2486 21.167 18.8193 21.167C18.402 21.1669 18.0875 20.9902 17.8643 20.7764C17.6767 20.5965 17.5304 20.3626 17.4561 20.252C17.2655 19.9683 17.2435 19.9998 17.1992 20C17.177 20 17.1625 20.0016 17.1553 20.0029C17.1321 20.0239 17.0984 20.0681 17.001 20.2266C16.9231 20.3533 16.7753 20.6044 16.5449 20.8027C16.2791 21.0315 15.9402 21.167 15.5254 21.167C15.5165 21.167 15.5078 21.1653 15.499 21.165C15.4904 21.1653 15.4814 21.167 15.4727 21.167C15.0554 21.1669 14.7408 20.9901 14.5176 20.7764C14.33 20.5966 14.1837 20.3626 14.1094 20.252C13.9183 19.9676 13.8961 20 13.8516 20C13.8288 20 13.8145 20.0016 13.8076 20.0029C13.7845 20.0241 13.7512 20.0689 13.6543 20.2266C13.5764 20.3533 13.4287 20.6043 13.1982 20.8027C12.9324 21.0315 12.5935 21.1669 12.1787 21.167C11.7614 21.1669 11.4469 20.9901 11.2236 20.7764C11.036 20.5966 10.8897 20.3626 10.8154 20.252C10.6588 20.0188 10.6159 19.9986 10.5811 19.999C10.5603 20.0156 10.4932 20.0772 10.3545 20.2705C10.2725 20.3848 10.1284 20.5973 9.96875 20.7598C9.79788 20.9336 9.49963 21.167 9.07031 21.167C8.65549 21.1669 8.3098 21.026 8.04883 20.7676C7.82978 20.5505 7.70837 20.2785 7.65039 20.1572C7.61359 20.0803 7.5916 20.0356 7.57031 19.999C7.16211 19.9921 6.83301 19.6599 6.83301 19.25C6.83301 18.8359 7.16894 18.5002 7.58301 18.5C7.99802 18.5 8.34342 18.6409 8.60449 18.8994C8.82367 19.1166 8.94494 19.3885 9.00293 19.5098C9.01001 19.5246 9.01737 19.5382 9.02344 19.5508C9.05338 19.5094 9.0898 19.4592 9.13477 19.3965C9.30892 19.1537 9.75123 18.5002 10.5586 18.5L10.7188 18.5068C11.4944 18.5757 11.8724 19.1349 12.0605 19.415C12.1492 19.547 12.1962 19.6119 12.2295 19.6533C12.2527 19.6289 12.2903 19.5799 12.376 19.4404C12.4537 19.3139 12.6016 19.0629 12.832 18.8643C13.0978 18.6354 13.4369 18.5002 13.8516 18.5C13.9168 18.5 13.9798 18.5034 14.04 18.5098C13.9384 18.4546 13.8387 18.3943 13.7451 18.3242C13.2637 17.964 12.9054 17.398 12.9053 16.6631C12.9054 16.249 13.2412 15.9131 13.6553 15.9131C13.8606 15.9131 14.0462 15.9962 14.1816 16.1299C14.3117 15.9396 14.4627 15.7681 14.624 15.6143C15.0836 15.1762 15.6795 14.8239 16.1875 14.5234C16.7306 14.2023 17.1922 13.9297 17.541 13.6162C17.8745 13.3165 18.0368 13.0388 18.0693 12.7295C18.1588 11.8765 17.5609 10.6044 16.3271 9.64844C15.6186 9.09936 15.5545 8.16055 15.7734 7.5166C15.939 7.02969 15.8167 6.46607 15.4961 5.91699C15.4949 5.92882 15.4945 5.9414 15.4932 5.95312C15.4368 6.45643 15.273 6.81207 15.0938 7.10156C15.0154 7.22798 14.9231 7.35859 14.8662 7.44238C14.8016 7.53767 14.7533 7.6134 14.7148 7.69043C14.6474 7.82576 14.585 8.01108 14.585 8.34375C14.585 8.62398 14.6573 8.73766 14.7305 8.82031C14.861 8.96763 14.9994 9.0391 15.3359 9.28906C15.6316 9.50876 15.9915 9.81855 16.2383 10.3291C16.4831 10.8358 16.5796 11.4614 16.5137 12.2607C16.4428 13.1187 16.1498 13.7582 15.6943 14.2256C15.2563 14.6749 14.7242 14.9049 14.2988 15.0576C14.1038 15.1276 13.859 15.2055 13.7148 15.2549C13.5414 15.3143 13.4229 15.3616 13.3379 15.4082C13.2877 15.4357 13.2631 15.4554 13.2529 15.4648C13.2519 15.4711 13.25 15.4828 13.25 15.5C13.2497 15.914 12.9141 16.25 12.5 16.25C12.0859 16.25 11.7503 15.914 11.75 15.5C11.7501 15.1769 11.8349 14.876 12.0137 14.6172C12.1853 14.3688 12.4114 14.2056 12.6172 14.0928C12.8199 13.9817 13.0387 13.9 13.2285 13.835C13.4478 13.7599 13.5935 13.7177 13.792 13.6465C14.1536 13.5167 14.424 13.3799 14.6201 13.1787C14.7987 12.9954 14.9721 12.6992 15.0186 12.1377C15.0697 11.5173 14.9829 11.1784 14.8877 10.9814C14.7945 10.7887 14.6575 10.6537 14.4414 10.4932C14.2659 10.3628 13.8766 10.1171 13.6084 9.81445C13.283 9.44697 13.085 8.97625 13.085 8.34375C13.085 7.78837 13.1975 7.37243 13.373 7.02051C13.456 6.85435 13.547 6.71417 13.624 6.60059C13.7088 6.47559 13.7617 6.40292 13.8184 6.31152C13.9095 6.16428 13.9768 6.01956 14.0029 5.78613C14.0314 5.53153 14.0148 5.13455 13.8652 4.48828C13.8015 4.21268 13.8608 3.89189 14.084 3.6543ZM14 1.58301C16.133 1.58306 18.1433 2.12219 19.8984 3.07129C20.2623 3.26835 20.3977 3.72279 20.2012 4.08691C20.0042 4.45122 19.5489 4.58757 19.1846 4.39062C17.6431 3.5571 15.8778 3.08306 14 3.08301C7.97115 3.08318 3.08318 7.97115 3.08301 14C3.08305 15.3453 3.32664 16.6323 3.77051 17.8203C3.91548 18.2083 3.718 18.6401 3.33008 18.7852C2.94219 18.93 2.51028 18.7335 2.36523 18.3457C1.85955 16.9923 1.58305 15.5273 1.58301 14C1.58318 7.14272 7.14272 1.58318 14 1.58301ZM8.36816 10.1328C8.72466 9.92223 9.18472 10.0411 9.39551 10.3975C10.2125 11.78 10.0282 13.0168 9.82422 13.9697C9.7175 14.4683 9.62591 14.8137 9.59961 15.1533C9.57603 15.4585 9.61623 15.6756 9.7334 15.8721C9.8939 16.1408 10.254 16.3947 10.6133 16.4912C10.7501 16.5279 10.845 16.5269 10.8975 16.5215C11.0705 16.1854 11.4732 16.027 11.834 16.166C12.2203 16.3151 12.4125 16.7494 12.2637 17.1357C12.0851 17.5983 11.7119 17.8637 11.3164 17.9688C10.9471 18.0668 10.5597 18.0303 10.2246 17.9404C9.56425 17.7631 8.84251 17.3067 8.44531 16.6416C8.12121 16.0987 8.06542 15.5442 8.10449 15.0381C8.14101 14.5663 8.27124 14.0588 8.35742 13.6562C8.53926 12.8067 8.62644 12.0433 8.10449 11.1602C7.89396 10.8036 8.01173 10.3435 8.36816 10.1328ZM11.1484 4.42285C11.6712 3.61938 12.9371 4.06064 12.8564 5.02441C12.7016 6.85852 12.757 7.91102 12.9326 8.62793C13.0995 9.30879 13.3852 9.73287 13.8428 10.3145C13.9781 10.4865 14.1471 10.697 14.2861 10.9043C14.4237 11.1095 14.5767 11.3764 14.6436 11.6826C14.7168 12.0185 14.6819 12.3877 14.4658 12.7344C14.2667 13.0536 13.9541 13.2891 13.5986 13.4736C13.231 13.6644 12.7777 13.5209 12.5869 13.1533C12.3963 12.7857 12.5397 12.3324 12.9072 12.1416C13.0183 12.0839 13.0914 12.0344 13.1367 11.9971C13.1492 11.9867 13.1572 11.9754 13.165 11.9678C13.1485 11.9243 13.1142 11.8499 13.04 11.7393C12.9414 11.5922 12.8183 11.4395 12.6631 11.2422C12.1618 10.6051 11.719 9.97783 11.4756 8.98438C11.3999 8.67538 11.3472 8.3358 11.3125 7.95508C11.2802 8.10283 11.2545 8.24031 11.2383 8.36914C11.1524 9.0533 11.2662 9.53574 11.4434 10.0439C11.6159 10.5388 11.9171 11.2042 12.041 12.0117C12.1707 12.8574 12.1193 13.861 11.7188 15.2129C11.6009 15.6097 11.1841 15.8363 10.7871 15.7188C10.39 15.601 10.1636 15.1832 10.2812 14.7861C10.6313 13.6045 10.6478 12.827 10.5576 12.2393C10.4615 11.6133 10.2549 11.1905 10.0273 10.5381C9.80453 9.89916 9.62569 9.17334 9.75 8.18262C9.87108 7.21851 10.2727 6.05518 11.1006 4.50488L11.1484 4.42285Z" fill="#332A2A"/>
</g>
<defs>
<clipPath id="clip0_1894_12848">
<rect width="28" height="28" fill="white"/>
</clipPath>
</defs>
</svg>
