<svg width="28" height="28" viewBox="0 0 28 28" fill="none" xmlns="http://www.w3.org/2000/svg">
<g clip-path="url(#clip0_1894_12836)">
<path d="M12.5483 20.8478C12.5483 17.1957 15.9549 19.9348 16.2646 15.6739C16.5743 11.413 13.7144 12.6304 13.7144 9.8913C13.7144 7.21565 15.5817 8.02486 14.7102 3.80868C14.6777 3.65177 14.7968 3.51503 14.9403 3.58635C15.971 4.09879 18.059 6.80125 17.1316 9.24921C16.9242 9.7967 17.0279 10.4636 17.4754 10.8411C19.3398 12.4136 20.4623 14.7312 20.2906 16.587M20.2906 16.587C20.0091 19.6304 18.1227 19.8131 16.884 20.5435C16.3678 20.8478 15.3355 21.7609 15.3355 22.6739M20.2906 16.587C21.0902 18.2508 21.1436 19.7917 19.882 21.5187C19.7652 21.6786 19.6927 21.8672 19.6623 22.0629C19.5102 23.0443 19.0414 23.3889 18.3598 23.7748M15.6714 24.5C14.6435 24.5 13.4774 23.7748 13.4774 22.3696M12.1659 17.8043C13.7144 16.8913 14.2906 14.9652 13.3058 13.5435C12.038 11.7132 11.0682 10.3879 11.4418 4.80357C11.4602 4.52862 11.0861 4.43006 10.969 4.67954C6.69558 13.7893 11.5635 13.2487 9.58123 20.8478M7 13.5435C8.7685 16.9426 6.28175 19.5417 7.44841 21.7609C8.18487 23.1618 10.3029 23.8913 10.7163 22.6739" stroke="#332A2A" stroke-width="1.5" stroke-linecap="round" stroke-linejoin="round"/>
</g>
<defs>
<clipPath id="clip0_1894_12836">
<rect width="28" height="28" fill="white"/>
</clipPath>
</defs>
</svg>
