<svg width="44" height="44" viewBox="0 0 44 44" fill="none" xmlns="http://www.w3.org/2000/svg">
<g clip-path="url(#clip0_1894_12847)">
<path d="M35.2539 9.31152C35.5644 9.03753 36.0384 9.06667 36.3125 9.37695C39.281 12.7405 41.0839 17.1611 41.084 22C41.0838 32.5392 32.5392 41.0838 22 41.084C15.4638 41.0839 9.6949 37.7966 6.25684 32.7891C6.0224 32.4476 6.10969 31.9805 6.45117 31.7461C6.79252 31.5119 7.25868 31.5983 7.49316 31.9395C10.6634 36.557 15.9788 39.5839 22 39.584C31.7107 39.5838 39.5838 31.7107 39.584 22C39.5839 17.5406 37.9243 13.4701 35.1885 10.3701C34.9144 10.0596 34.9435 9.58564 35.2539 9.31152ZM31.9111 33.167C32.3253 33.167 32.6611 33.5028 32.6611 33.917C32.661 34.3311 32.3252 34.667 31.9111 34.667C31.7625 34.6671 31.6057 34.7638 31.2422 35.2705C31.1004 35.4682 30.8998 35.7643 30.6787 35.9893C30.4464 36.2255 30.0821 36.5 29.5732 36.5C29.0497 36.4999 28.6576 36.2821 28.3691 36.0059C28.1161 35.7634 27.9174 35.4459 27.7871 35.252C27.4841 34.8008 27.3374 34.667 27.0273 34.667C26.8282 34.667 26.7442 34.7194 26.6836 34.7715C26.5878 34.8541 26.5041 34.9784 26.3516 35.2266C26.2225 35.4365 26.0237 35.7712 25.7207 36.0322C25.3823 36.3236 24.9489 36.5 24.3975 36.5C24.3833 36.5 24.3694 36.4978 24.3555 36.4971C24.3419 36.4978 24.3282 36.5 24.3145 36.5C23.7909 36.5 23.3988 36.282 23.1104 36.0059C22.8575 35.7635 22.6586 35.4459 22.5283 35.252C22.2255 34.801 22.0783 34.6672 21.7686 34.667C21.5688 34.667 21.4845 34.7192 21.4238 34.7715C21.3279 34.8541 21.2445 34.9782 21.0918 35.2266C20.9627 35.4365 20.764 35.7712 20.4609 36.0322C20.1226 36.3235 19.6899 36.4999 19.1387 36.5C18.6149 36.5 18.2221 36.2822 17.9336 36.0059C17.6808 35.7636 17.4828 35.4459 17.3525 35.252C17.0496 34.8009 16.9017 34.6671 16.5918 34.667C16.4432 34.6671 16.2863 34.7638 15.9229 35.2705C15.7811 35.4681 15.5815 35.7642 15.3604 35.9893C15.1282 36.2255 14.7637 36.4998 14.2549 36.5C13.7071 36.5 13.2744 36.318 12.9502 35.9971C12.6679 35.7174 12.507 35.3618 12.4092 35.1572C12.288 34.9038 12.2294 34.8003 12.165 34.7363C12.1422 34.7137 12.0989 34.667 11.917 34.667C11.5029 34.667 11.1672 34.3311 11.167 33.917C11.167 33.5028 11.5028 33.167 11.917 33.167C12.4648 33.1671 12.8966 33.3498 13.2207 33.6709C13.5029 33.9506 13.665 34.3053 13.7627 34.5098C13.8837 34.7628 13.9415 34.8668 14.0059 34.9307C14.0272 34.9518 14.0673 34.9915 14.2197 34.9971C14.2333 34.9872 14.2578 34.9713 14.29 34.9385C14.4066 34.8199 14.5172 34.657 14.7041 34.3965C14.9978 33.987 15.5719 33.1672 16.5918 33.167C17.7422 33.1671 18.285 33.9496 18.5977 34.415C18.7749 34.6789 18.8662 34.8207 18.9717 34.9219C19.0416 34.9888 19.0784 35 19.1387 35C19.338 34.9999 19.4218 34.9477 19.4824 34.8955C19.5783 34.8129 19.6618 34.6888 19.8145 34.4404C19.9435 34.2305 20.1422 33.8958 20.4453 33.6348C20.7838 33.3434 21.2171 33.167 21.7686 33.167C22.9187 33.1673 23.4608 33.9496 23.7734 34.415C23.9506 34.6788 24.0421 34.8207 24.1475 34.9219C24.2174 34.9888 24.2542 35 24.3145 35C24.3282 35 24.3419 35.0012 24.3555 35.002C24.3694 35.0012 24.3833 35 24.3975 35C24.5967 35 24.6806 34.9476 24.7412 34.8955C24.8371 34.8129 24.9207 34.6886 25.0732 34.4404C25.2022 34.2306 25.4011 33.8958 25.7041 33.6348C26.0425 33.3434 26.4759 33.167 27.0273 33.167C28.1777 33.167 28.7196 33.9496 29.0322 34.415C29.2097 34.6793 29.3016 34.8206 29.4072 34.9219C29.4625 34.9748 29.4966 34.9928 29.5381 34.998C29.5516 34.9883 29.5764 34.972 29.6094 34.9385C29.7259 34.8199 29.8366 34.6569 30.0234 34.3965C30.3172 33.987 30.8913 33.1671 31.9111 33.167ZM31.9111 29.5C32.3253 29.5 32.6611 29.8358 32.6611 30.25C32.6611 30.6642 32.3253 31 31.9111 31C31.7625 31.0001 31.6057 31.0968 31.2422 31.6035C31.1004 31.8012 30.8999 32.0972 30.6787 32.3223C30.4464 32.5586 30.0823 32.833 29.5732 32.833C29.0497 32.8329 28.6576 32.6152 28.3691 32.3389C28.1161 32.0964 27.9173 31.7788 27.7871 31.585C27.4841 31.1339 27.3374 31 27.0273 31C26.8282 31 26.7442 31.0524 26.6836 31.1045C26.5877 31.1871 26.5042 31.3113 26.3516 31.5596C26.2225 31.7695 26.0238 32.1041 25.7207 32.3652C25.3822 32.6567 24.949 32.833 24.3975 32.833C24.3833 32.833 24.3694 32.8309 24.3555 32.8301C24.3419 32.8308 24.3282 32.833 24.3145 32.833C23.7908 32.833 23.3988 32.6151 23.1104 32.3389C22.8574 32.0965 22.6586 31.7789 22.5283 31.585C22.2255 31.1341 22.0783 31.0002 21.7686 31C21.569 31 21.4845 31.0523 21.4238 31.1045C21.3279 31.1871 21.2444 31.3113 21.0918 31.5596C20.9628 31.7695 20.7639 32.1042 20.4609 32.3652C20.1226 32.6565 19.6899 32.8329 19.1387 32.833C18.6148 32.833 18.2221 32.6153 17.9336 32.3389C17.6807 32.0965 17.4828 31.7789 17.3525 31.585C17.0496 31.1339 16.9017 31.0001 16.5918 31C16.4432 31.0002 16.2862 31.0969 15.9229 31.6035C15.7812 31.8011 15.5814 32.0972 15.3604 32.3223C15.1282 32.5585 14.7637 32.8328 14.2549 32.833C13.707 32.833 13.2744 32.6512 12.9502 32.3301C12.6678 32.0503 12.507 31.6947 12.4092 31.4902C12.2879 31.2366 12.2295 31.1333 12.165 31.0693C12.1422 31.0467 12.0989 31.0001 11.917 31C11.5028 31 11.167 30.6642 11.167 30.25C11.167 29.8358 11.5028 29.5 11.917 29.5C12.4648 29.5001 12.8966 29.6828 13.2207 30.0039C13.503 30.2836 13.6649 30.6383 13.7627 30.8428C13.8838 31.096 13.9415 31.1997 14.0059 31.2637C14.0272 31.2848 14.0669 31.3245 14.2197 31.3301C14.2334 31.3202 14.2579 31.3042 14.29 31.2715C14.4066 31.1529 14.5173 30.99 14.7041 30.7295C14.9978 30.32 15.5721 29.5002 16.5918 29.5C17.7422 29.5001 18.285 30.2826 18.5977 30.748C18.775 31.0121 18.8662 31.1537 18.9717 31.2549C19.0417 31.322 19.0783 31.333 19.1387 31.333C19.338 31.3329 19.4218 31.2807 19.4824 31.2285C19.5783 31.1459 19.6618 31.0217 19.8145 30.7734C19.9435 30.5635 20.1423 30.2287 20.4453 29.9678C20.7837 29.6765 21.2172 29.5 21.7686 29.5C22.9187 29.5003 23.4608 30.2826 23.7734 30.748C23.9507 31.012 24.042 31.1537 24.1475 31.2549C24.2175 31.322 24.2541 31.333 24.3145 31.333C24.3282 31.333 24.3419 31.3342 24.3555 31.335C24.3694 31.3342 24.3834 31.333 24.3975 31.333C24.5969 31.333 24.6806 31.2807 24.7412 31.2285C24.8371 31.1459 24.9206 31.0218 25.0732 30.7734C25.2023 30.5635 25.401 30.2288 25.7041 29.9678C26.0425 29.6764 26.4759 29.5 27.0273 29.5C28.1777 29.5 28.7196 30.2826 29.0322 30.748C29.2097 31.0123 29.3017 31.1536 29.4072 31.2549C29.4625 31.3079 29.4966 31.3258 29.5381 31.3311C29.5516 31.3213 29.5763 31.3051 29.6094 31.2715C29.726 31.1529 29.8365 30.9901 30.0234 30.7295C30.3172 30.32 30.8913 29.5001 31.9111 29.5ZM21.458 25.4355C21.8722 25.4355 22.208 25.7713 22.208 26.1855C22.2082 26.6544 22.4179 27.0015 22.7539 27.2529C23.1086 27.5182 23.5993 27.667 24.0693 27.667C24.4835 27.667 24.8193 28.0028 24.8193 28.417C24.8192 28.831 24.4834 29.167 24.0693 29.167C23.3162 29.167 22.5004 28.9366 21.8555 28.4541C21.1923 27.9579 20.7083 27.1881 20.708 26.1855C20.708 25.7714 21.0439 25.4357 21.458 25.4355ZM22 2.91699C25.2792 2.91705 28.3682 3.74453 31.0654 5.20312C31.4294 5.40025 31.565 5.85553 31.3682 6.21973C31.1712 6.58386 30.7158 6.72014 30.3516 6.52344C27.868 5.18037 25.024 4.41705 22 4.41699C12.2893 4.41717 4.41717 12.2893 4.41699 22C4.41703 24.1662 4.80816 26.2401 5.52344 28.1543C5.66809 28.542 5.47155 28.974 5.08398 29.1191C4.6962 29.264 4.26438 29.0672 4.11914 28.6797C3.34199 26.6 2.91703 24.3483 2.91699 22C2.91717 11.4608 11.4608 2.91717 22 2.91699ZM23.1855 5.7168L23.3213 5.75098L23.4932 5.81738C23.8973 5.99296 24.3264 6.31019 24.7158 6.67871C25.1763 7.11452 25.6432 7.68006 26.0205 8.32715C26.7659 9.60567 27.2337 11.3466 26.3613 13.0205C26.3312 13.0784 26.3211 13.1502 26.333 13.2119C26.3443 13.27 26.3685 13.2945 26.3818 13.3037C28.8046 14.9836 30.4558 17.6383 30.3301 19.9766C30.9882 21.3451 30.9771 23.0448 30.5303 24.5352C30.0605 26.1017 29.0607 27.6017 27.6035 28.3281C27.233 28.5127 26.7826 28.3624 26.5977 27.9922C26.413 27.6217 26.5633 27.1713 26.9336 26.9863C27.909 26.5002 28.7008 25.4112 29.0928 24.1045C29.2177 23.6878 29.296 23.265 29.3291 22.8525C29.0538 23.2019 28.7369 23.4879 28.3916 23.7256C27.9308 24.0428 27.4418 24.2625 27.0078 24.4424C26.5489 24.6326 26.1879 24.766 25.8574 24.9375C25.6195 25.0611 25.2252 25.3317 24.9004 25.6689C24.553 26.0297 24.4199 26.326 24.4199 26.5039C24.4197 26.9179 24.0839 27.2537 23.6699 27.2539C23.2558 27.2539 22.9201 26.918 22.9199 26.5039C22.9199 25.7256 23.4002 25.0652 23.8203 24.6289C24.2631 24.1693 24.7906 23.8018 25.167 23.6064C25.5735 23.3954 26.0466 23.218 26.4336 23.0576C26.8454 22.8869 27.2146 22.7149 27.541 22.4902C28.1426 22.0761 28.675 21.431 28.8203 20.0488C28.9933 18.4023 27.7741 16.0941 25.5273 14.5361C24.7711 14.0118 24.6704 13.0198 25.0312 12.3271C25.5697 11.294 25.3359 10.1316 24.7246 9.08301C24.4854 8.67266 24.1971 8.30289 23.9072 7.99512C23.958 8.46812 23.9635 8.87966 23.9277 9.24512C23.8561 9.97629 23.6288 10.4858 23.3691 10.9102C23.25 11.1048 23.1157 11.2943 23.0156 11.4414C22.9083 11.599 22.8197 11.7378 22.7451 11.8857C22.6059 12.1621 22.4903 12.5202 22.4902 13.1123C22.4903 13.6534 22.641 13.9333 22.8281 14.1445C23.0725 14.4204 23.3609 14.5827 23.8438 14.9414C24.2858 15.2698 24.7879 15.7062 25.1318 16.418C25.4739 17.1258 25.622 18.0271 25.5225 19.2324C25.4203 20.4694 25.0499 21.3203 24.4502 21.9014C23.8731 22.4603 23.1656 22.6802 22.6416 22.8379C22.0537 23.0148 21.7223 23.1141 21.4863 23.3213C21.3126 23.474 21.1026 23.7743 21.1025 24.5908C21.1024 25.0049 20.7666 25.3408 20.3525 25.3408C19.9385 25.3407 19.6027 25.0048 19.6025 24.5908C19.6026 23.4953 19.8995 22.7192 20.4971 22.1943C21.0327 21.724 21.7385 21.5432 22.21 21.4014C22.7451 21.2403 23.1207 21.1017 23.4072 20.8242C23.6711 20.5685 23.9451 20.1033 24.0273 19.1094C24.1121 18.0832 23.9736 17.4684 23.7812 17.0703C23.5909 16.6766 23.3116 16.4147 22.9492 16.1455C22.6275 15.9065 22.0872 15.5709 21.7051 15.1396C21.2657 14.6436 20.9903 14.0056 20.9902 13.1123C20.9903 12.2947 21.1567 11.7044 21.4053 11.2109C21.5246 10.9741 21.6573 10.7712 21.7754 10.5977C21.9005 10.4138 21.9958 10.2805 22.0898 10.127C22.2569 9.85392 22.3894 9.55981 22.4346 9.09863C22.4818 8.61526 22.4361 7.91318 22.1758 6.83105C22.1081 6.54929 22.1724 6.23916 22.373 6.00781C22.5652 5.78639 22.8684 5.66213 23.1855 5.7168ZM13.3682 16.293C13.7248 16.0822 14.1848 16.201 14.3955 16.5576C15.595 18.5876 15.3328 20.3953 15.0186 21.8633C14.8567 22.6194 14.7024 23.2086 14.6582 23.7803C14.6167 24.3174 14.6842 24.7552 14.9277 25.1631C15.2477 25.6984 15.916 26.1554 16.5664 26.3301C16.8866 26.416 17.1353 26.4146 17.2881 26.374C17.4143 26.3405 17.4499 26.293 17.4727 26.2344C17.6217 25.8479 18.0559 25.6556 18.4424 25.8047C18.8286 25.9538 19.0209 26.3871 18.8721 26.7734C18.6488 27.352 18.1844 27.6884 17.6729 27.8242C17.1875 27.953 16.6584 27.9074 16.1777 27.7783C15.2261 27.5228 14.1962 26.8635 13.6396 25.9316C13.1893 25.1774 13.1061 24.4022 13.1631 23.6641C13.2175 22.9604 13.4105 22.2098 13.5518 21.5498C13.8439 20.1852 14.009 18.8509 13.1045 17.3203C12.8938 16.9638 13.0118 16.5038 13.3682 16.293ZM18.0664 6.8291C18.5518 5.9481 19.911 6.34678 19.8223 7.36328C19.5526 10.4533 19.7178 12.2614 20.0967 13.5098C20.47 14.7395 21.0643 15.484 21.8438 16.4746C22.5891 17.422 22.7485 18.559 22.4219 19.5957C22.0995 20.6186 21.3189 21.51 20.2432 22.0684C19.8757 22.2589 19.4234 22.1153 19.2324 21.748C19.0417 21.3806 19.1846 20.9283 19.5518 20.7373C20.3184 20.3394 20.8028 19.7426 20.9912 19.1455C21.1751 18.562 21.0914 17.9443 20.665 17.4023C19.8951 16.4239 19.1264 15.4781 18.6611 13.9453C18.3485 12.9152 18.1797 11.6472 18.1904 9.94434C17.6306 11.2238 17.3209 12.2572 17.1729 13.1279C16.9455 14.4655 17.0881 15.461 17.3291 16.4385C17.5639 17.3905 17.9508 18.4964 18.0986 19.7852C18.2519 21.1226 18.1655 22.6962 17.541 24.8037C17.4232 25.2006 17.0054 25.4272 16.6084 25.3096C16.2116 25.1918 15.9852 24.7748 16.1025 24.3779C16.6759 22.4428 16.7364 21.0724 16.6084 19.9561C16.4748 18.791 16.1516 17.9305 15.8721 16.7969C15.5989 15.6888 15.4222 14.4764 15.6943 12.876C15.9633 11.2949 16.6629 9.37741 18.0664 6.8291Z" fill="#332A2A"/>
</g>
<defs>
<clipPath id="clip0_1894_12847">
<rect width="44" height="44" fill="white"/>
</clipPath>
</defs>
</svg>
