<svg width="44" height="44" viewBox="0 0 44 44" fill="none" xmlns="http://www.w3.org/2000/svg">
<g clip-path="url(#clip0_1894_12835)">
<path d="M19.7187 32.7609C19.7187 27.0217 25.072 31.3261 25.5587 24.6304C26.0453 17.9348 21.5512 19.8478 21.5512 15.5435C21.5511 11.3026 24.5364 12.6328 23.0796 5.81182C23.0461 5.65513 23.165 5.50811 23.3151 5.56439C24.9379 6.17323 28.7753 10.9853 26.6687 15.1032C26.402 15.6244 26.5122 16.2904 26.977 16.6465C30.1948 19.1119 32.1696 22.9917 31.8852 26.0652M31.8852 26.0652C31.4428 30.8478 28.4786 31.1348 26.532 32.2826C25.7209 32.7609 24.0987 34.1957 24.0987 35.6304M31.8852 26.0652C33.1634 28.7247 33.2283 31.1843 31.1393 33.955C31.02 34.1132 30.9466 34.302 30.922 34.4985C30.7118 36.1733 29.9611 36.732 28.8511 37.3604M24.6265 38.5C23.0111 38.5 21.1787 37.3604 21.1787 35.1522M19.1179 27.9783C21.5512 26.5435 22.4567 23.5167 20.9091 21.2826C18.8618 18.327 17.3091 16.2095 18.0335 6.80634C18.0547 6.5316 17.679 6.43082 17.5588 6.67881C10.2826 21.6982 18.2194 20.6348 15.0562 32.7609M11 21.2826C13.7791 26.6241 9.87132 30.7083 11.7046 34.1957C12.8619 36.3971 16.1903 37.5435 16.8399 35.6304" stroke="#332A2A" stroke-width="1.5" stroke-linecap="round" stroke-linejoin="round"/>
</g>
<defs>
<clipPath id="clip0_1894_12835">
<rect width="44" height="44" fill="white"/>
</clipPath>
</defs>
</svg>
