<svg width="18" height="18" viewBox="0 0 18 18" fill="none" xmlns="http://www.w3.org/2000/svg">
<g clip-path="url(#clip0_1894_12838)">
<path d="M8.06676 13.4022C8.06676 11.0543 10.2567 12.8152 10.4558 10.0761C10.6549 7.33696 8.81639 8.11957 8.81638 6.3587C8.81637 4.66203 9.9844 5.1451 9.47843 2.55723C9.44768 2.39999 9.56668 2.27504 9.7019 2.36098C10.3321 2.76152 11.3882 4.18246 11.1191 5.5727C11.0078 6.1475 11.1022 6.82217 11.5222 7.23009C12.5466 8.22514 13.1452 9.56895 13.044 10.663M13.044 10.663C12.863 12.6196 11.6503 12.737 10.854 13.2065C10.5222 13.4022 9.85855 13.9891 9.85855 14.5761M13.044 10.663C13.5444 11.7042 13.5902 12.6705 12.8442 13.7452C12.7312 13.9079 12.6611 14.0962 12.6208 14.2902C12.5064 14.8403 12.2152 15.0503 11.8027 15.2838M10.0745 15.75C9.41365 15.75 8.66403 15.2838 8.66403 14.3804M8.06676 10.8092C9 10.6462 9.60748 9.41304 8.55374 8.70652C7.61441 8.07671 7.13464 6.85956 7.32358 3.55365C7.33931 3.27854 6.97144 3.17646 6.85974 3.42836C4.45523 8.85063 7.40241 8.63689 6.15936 13.4022M4.5 8.70652C5.63689 10.8917 4.03827 12.5625 4.78826 13.9891C5.2617 14.8897 6.6233 15.3587 6.88906 14.5761" stroke="#332A2A" stroke-width="1.25" stroke-linecap="round" stroke-linejoin="round"/>
</g>
<defs>
<clipPath id="clip0_1894_12838">
<rect width="18" height="18" fill="white"/>
</clipPath>
</defs>
</svg>
