<svg width="23" height="23" viewBox="0 0 23 23" fill="none" xmlns="http://www.w3.org/2000/svg">
<g clip-path="url(#clip0_1894_12837)">
<path d="M10.3075 17.125C10.3075 14.125 13.1058 16.375 13.3602 12.875C13.6146 9.375 11.5 9.75 11.5 7.5C11.5 5.31378 12.7962 6.54996 12.0951 3.18172C12.0624 3.02486 12.1812 2.89385 12.3212 2.97169C13.1563 3.43581 14.7193 5.49188 14.135 7.41403C13.9647 7.97418 14.0646 8.64279 14.5015 9.03248C15.9448 10.3197 16.8037 12.15 16.6673 13.625M16.6673 13.625C16.436 16.125 14.8865 16.275 13.869 16.875C13.445 17.125 12.597 17.875 12.597 18.625M16.6673 13.625C17.3174 14.9776 17.367 16.2313 16.3634 17.6322C16.248 17.7932 16.1764 17.9817 16.1424 18.1768C16.0088 18.942 15.6286 19.2194 15.0812 19.5293M12.8729 20.125C12.0285 20.125 11.0707 19.5293 11.0707 18.375M10 14C11.4138 13.625 11.7387 12.2928 10.9298 11.125C9.90621 9.64737 9.11918 8.57045 9.3838 4.17906C9.40038 3.904 9.02646 3.80636 8.91145 4.05677C5.57603 11.319 9.48299 10.9426 7.87029 17.125M5.75 11.125C7.20269 13.9172 5.16001 16.0521 6.11834 17.875C6.72329 19.0257 8.46311 19.625 8.80268 18.625" stroke="#332A2A" stroke-width="1.35" stroke-linecap="round" stroke-linejoin="round"/>
</g>
<defs>
<clipPath id="clip0_1894_12837">
<rect width="23" height="23" fill="white"/>
</clipPath>
</defs>
</svg>
