<svg width="44" height="44" viewBox="0 0 44 44" fill="none" xmlns="http://www.w3.org/2000/svg">
<g clip-path="url(#clip0_189_559)">
<path fill-rule="evenodd" clip-rule="evenodd" d="M24.7415 9.08015C24.901 9.00622 25.0814 8.99068 25.2512 9.03624L34.2143 11.4412C34.542 11.5291 34.7699 11.8262 34.7699 12.1656V27.0763C34.7699 27.3684 34.6003 27.6339 34.3353 27.7568L18.7678 34.9716C18.6083 35.0455 18.4279 35.0611 18.2581 35.0155L9.29501 32.6106C8.96725 32.5226 8.73938 32.2255 8.73938 31.8862V16.9755C8.73938 16.6834 8.90898 16.4178 9.17401 16.295L24.7415 9.08015ZM25.1253 10.5555L11.6802 16.7868L18.384 18.5855L31.8291 12.3543L25.1253 10.5555ZM33.2699 13.3398L19.2025 19.8595V26.8358V33.1169L33.2699 26.5972V13.3398ZM17.7025 33.3134V26.8358V19.9557L10.2394 17.9532V31.3109L17.7025 33.3134ZM5.58239 14.8982C5.83942 14.9043 6.0754 15.0416 6.20767 15.2621L7.6795 17.7151C7.89261 18.0703 7.77744 18.531 7.42226 18.7441C7.06707 18.9572 6.60637 18.8421 6.39326 18.4869L6.31455 18.3557V29.6527C6.66162 29.5397 7.04842 29.6945 7.21659 30.0309C7.40184 30.4013 7.25167 30.8518 6.88118 31.0371L5.89996 31.5277C5.56165 31.6968 5.15033 31.5876 4.94051 31.2729L3.95929 29.8011C3.72953 29.4564 3.82266 28.9908 4.16731 28.761C4.36565 28.6288 4.60408 28.6035 4.81455 28.6715V17.8333C4.60408 17.9013 4.36565 17.8761 4.16731 17.7438C3.82266 17.5141 3.72953 17.0484 3.95929 16.7038L4.94051 15.2319C5.08313 15.018 5.32537 14.8921 5.58239 14.8982ZM38.588 13.2996C38.4557 13.0792 38.2197 12.9418 37.9627 12.9357C37.7057 12.9296 37.4634 13.0555 37.3208 13.2695L36.3396 14.7413C36.1098 15.0859 36.203 15.5516 36.5476 15.7814C36.746 15.9136 36.9844 15.9389 37.1949 15.8708V25.7279C36.9844 25.6598 36.746 25.6851 36.5476 25.8173C36.203 26.0471 36.1098 26.5127 36.3396 26.8574L37.3208 28.3292C37.4455 28.5162 37.6474 28.6374 37.871 28.6595C38.0946 28.6817 38.3163 28.6024 38.4752 28.4435L39.4564 27.4623C39.7493 27.1694 39.7493 26.6945 39.4564 26.4016C39.2504 26.1956 38.9543 26.1345 38.6949 26.2183V16.3932L38.7736 16.5244C38.9867 16.8796 39.4474 16.9948 39.8026 16.7817C40.1577 16.5686 40.2729 16.1079 40.0598 15.7527L38.588 13.2996Z" fill="#252323"/>
</g>
<defs>
<clipPath id="clip0_189_559">
<rect width="44" height="44" fill="white"/>
</clipPath>
</defs>
</svg>
