<svg width="18" height="18" viewBox="0 0 18 18" fill="none" xmlns="http://www.w3.org/2000/svg">
<g clip-path="url(#clip0_607_3571)">
<path fill-rule="evenodd" clip-rule="evenodd" d="M10.0402 3.53927C10.1465 3.48999 10.2668 3.47963 10.38 3.51L14.0467 4.49385C14.2652 4.55248 14.4171 4.75053 14.4171 4.97676V11.0766C14.4171 11.2713 14.3041 11.4484 14.1274 11.5302L7.75888 14.4818C7.65254 14.5311 7.53226 14.5414 7.41906 14.5111L3.75235 13.5272C3.53384 13.4686 3.38192 13.2705 3.38192 13.0443V6.94445C3.38192 6.74971 3.49499 6.57269 3.67167 6.49081L10.0402 3.53927ZM10.2961 4.52285L5.34244 6.81865L7.50299 7.39836L12.4566 5.10257L10.2961 4.52285ZM13.4171 5.75958L8.04863 8.24766V10.9782V13.2453L13.4171 10.7572V5.75958ZM7.04863 13.3763V10.9782V8.31182L4.38192 7.5963V12.6608L7.04863 13.3763ZM2.0411 5.77654C2.25529 5.78164 2.45193 5.89609 2.56216 6.07981L3.16428 7.08333C3.34187 7.37932 3.24589 7.76323 2.9499 7.94082C2.85606 7.99713 2.75337 8.02593 2.65123 8.02958V11.8389C2.79206 11.8928 2.91391 11.9975 2.98666 12.143C3.14102 12.4517 3.01588 12.8271 2.70715 12.9815L2.30574 13.1822C2.02381 13.3232 1.68104 13.2322 1.5062 12.9699L1.10479 12.3678C0.913321 12.0806 0.990929 11.6925 1.27813 11.5011C1.31753 11.4748 1.35881 11.4536 1.40123 11.4373V7.58726C1.35881 7.57097 1.31753 7.54977 1.27813 7.52351C0.990929 7.33204 0.913321 6.944 1.10479 6.65679L1.5062 6.05468C1.62504 5.87642 1.82691 5.77145 2.0411 5.77654ZM16.0587 5.27699C15.9485 5.09327 15.7519 4.97882 15.5377 4.97373C15.3235 4.96863 15.1216 5.0736 15.0028 5.25186L14.6014 5.85397C14.4099 6.14118 14.4875 6.52922 14.7747 6.72069C14.8141 6.74695 14.8554 6.76815 14.8978 6.78444V10.2331C14.8554 10.2494 14.8141 10.2706 14.7747 10.2968C14.4875 10.4883 14.4099 10.8763 14.6014 11.1635L15.0028 11.7657C15.1066 11.9215 15.2749 12.0225 15.4612 12.0409C15.6475 12.0594 15.8323 11.9933 15.9647 11.8609L16.3661 11.4595C16.6102 11.2154 16.6102 10.8197 16.3661 10.5756C16.302 10.5115 16.2274 10.4642 16.1478 10.4338V7.22677C16.2499 7.22312 16.3526 7.19431 16.4465 7.138C16.7425 6.96041 16.8384 6.5765 16.6608 6.28051L16.0587 5.27699Z" fill="#332A2A"/>
</g>
<defs>
<clipPath id="clip0_607_3571">
<rect width="18" height="18" fill="white"/>
</clipPath>
</defs>
</svg>
