<svg width="23" height="23" viewBox="0 0 23 23" fill="none" xmlns="http://www.w3.org/2000/svg">
<g clip-path="url(#clip0_607_3584)">
<path fill-rule="evenodd" clip-rule="evenodd" d="M12.8352 4.53511C12.9681 4.47351 13.1184 4.46056 13.2599 4.49853L17.9452 5.75566C18.2183 5.82895 18.4082 6.07651 18.4082 6.35931V14.1535C18.4082 14.397 18.2669 14.6182 18.046 14.7206L9.90848 18.492C9.77556 18.5536 9.62521 18.5666 9.48371 18.5286L4.79846 17.2715C4.52533 17.1982 4.33543 16.9506 4.33543 16.6678V8.87358C4.33543 8.63015 4.47677 8.40887 4.69762 8.30652L12.8352 4.53511ZM13.155 5.76459L6.78608 8.71632L9.58862 9.46829L15.9576 6.51656L13.155 5.76459ZM17.1582 7.33783L10.2707 10.5299V14.0278V16.9464L17.1582 13.7543V7.33783ZM9.02068 17.1101V14.0278V10.6101L5.58543 9.68838V16.1884L9.02068 17.1101ZM2.66798 7.29925C2.88217 7.30435 3.07882 7.4188 3.18905 7.60252L3.95841 8.88479C4.13601 9.18078 4.04003 9.5647 3.74404 9.74229C3.59834 9.82971 3.43133 9.85084 3.27811 9.81445V15.0028C3.46477 15.037 3.63365 15.1554 3.72504 15.3382C3.87941 15.647 3.75427 16.0224 3.44553 16.1768L2.93262 16.4332C2.6507 16.5742 2.30793 16.4831 2.13308 16.2209L1.62017 15.4515C1.4287 15.1643 1.50631 14.7763 1.79352 14.5848C1.8668 14.5359 1.94664 14.5046 2.02811 14.4898V9.30847C1.94664 9.29367 1.8668 9.26233 1.79352 9.21348C1.50631 9.02201 1.4287 8.63396 1.62017 8.34676L2.13308 7.57739C2.25193 7.39913 2.4538 7.29416 2.66798 7.29925ZM20.3708 6.83225C20.2606 6.64854 20.0639 6.53408 19.8498 6.52899C19.6356 6.52389 19.4337 6.62886 19.3149 6.80712L18.8019 7.57649C18.6105 7.86369 18.6881 8.25174 18.9753 8.44321C19.0486 8.49206 19.1284 8.5234 19.2099 8.53821V13.2066C19.1284 13.2214 19.0486 13.2528 18.9753 13.3016C18.6881 13.4931 18.6105 13.8811 18.8019 14.1683L19.3149 14.9377C19.4187 15.0935 19.587 15.1945 19.7733 15.213C19.9596 15.2314 20.1444 15.1654 20.2768 15.033L20.7897 14.52C21.0338 14.276 21.0338 13.8802 20.7897 13.6362C20.6963 13.5428 20.5807 13.4851 20.4599 13.4632V9.04419C20.6131 9.08057 20.7801 9.05944 20.9258 8.97202C21.2218 8.79443 21.3178 8.41052 21.1402 8.11453L20.3708 6.83225Z" fill="#332A2A"/>
</g>
<defs>
<clipPath id="clip0_607_3584">
<rect width="23" height="23" fill="white"/>
</clipPath>
</defs>
</svg>
