<svg width="28" height="28" viewBox="0 0 28 28" fill="none" xmlns="http://www.w3.org/2000/svg">
<g clip-path="url(#clip0_607_3558)">
<path fill-rule="evenodd" clip-rule="evenodd" d="M15.6298 5.53083C15.7893 5.4569 15.9697 5.44136 16.1395 5.48693L21.8433 7.01735C22.1711 7.1053 22.3989 7.40237 22.3989 7.74173V17.2304C22.3989 17.5225 22.2293 17.788 21.9643 17.9108L12.0578 22.5021C11.8982 22.576 11.7178 22.5916 11.548 22.546L5.84425 21.0156C5.51648 20.9276 5.28861 20.6306 5.28861 20.2912V10.8026C5.28861 10.5105 5.45821 10.2449 5.72324 10.1221L15.6298 5.53083ZM16.0136 7.0062L8.22939 10.6139L11.6739 11.5381L19.4582 7.93043L16.0136 7.0062ZM20.8989 8.91595L12.4924 12.812V17.0773V20.6474L20.8989 16.7513V8.91595ZM10.9924 20.8439V17.0773V12.9083L6.78861 11.7803V19.7159L10.9924 20.8439ZM3.55884 9.208C3.81586 9.21412 4.05184 9.35146 4.18412 9.57192L5.12074 11.133C5.33385 11.4881 5.21867 11.9488 4.86349 12.1619C4.68439 12.2694 4.47848 12.2934 4.291 12.2452V18.5845C4.51851 18.6234 4.7251 18.7663 4.83623 18.9886C5.02147 19.3591 4.8713 19.8096 4.50082 19.9948L3.87641 20.307C3.5381 20.4762 3.12677 20.3669 2.91696 20.0522L2.29255 19.1156C2.06278 18.771 2.15591 18.3053 2.50056 18.0755C2.59117 18.0151 2.69014 17.977 2.791 17.96V11.634C2.69014 11.6169 2.59117 11.5789 2.50056 11.5184C2.15591 11.2887 2.06278 10.823 2.29255 10.4784L2.91696 9.54176C3.05957 9.32785 3.30182 9.20189 3.55884 9.208ZM24.7898 8.32308C24.6575 8.10262 24.4215 7.96528 24.1645 7.95916C23.9075 7.95305 23.6652 8.07901 23.5226 8.29292L22.8982 9.22954C22.6684 9.57419 22.7616 10.0398 23.1062 10.2696C23.1968 10.33 23.2958 10.3681 23.3966 10.3852V16.0867C23.2958 16.1038 23.1968 16.1419 23.1062 16.2023C22.7616 16.432 22.6684 16.8977 22.8982 17.2423L23.5226 18.179C23.6472 18.3659 23.8491 18.4871 24.0727 18.5093C24.2963 18.5314 24.5181 18.4522 24.677 18.2933L25.3014 17.6689C25.5943 17.376 25.5943 16.9011 25.3014 16.6082C25.187 16.4938 25.0449 16.4241 24.8966 16.3991V10.9964C25.0841 11.0445 25.29 11.0206 25.4691 10.9131C25.8243 10.7 25.9395 10.2393 25.7264 9.88411L24.7898 8.32308Z" fill="#332A2A"/>
</g>
<defs>
<clipPath id="clip0_607_3558">
<rect width="28" height="28" fill="white"/>
</clipPath>
</defs>
</svg>
