<svg width="18" height="18" viewBox="0 0 18 18" fill="none" xmlns="http://www.w3.org/2000/svg">
<g clip-path="url(#clip0_597_3269)">
<path fill-rule="evenodd" clip-rule="evenodd" d="M9 2.375C5.34111 2.375 2.375 5.34111 2.375 9C2.375 10.4301 2.82754 11.753 3.59728 12.8352C3.75733 13.0602 3.70466 13.3724 3.47963 13.5325C3.2546 13.6925 2.94243 13.6398 2.78238 13.4148C1.8962 12.1688 1.375 10.6445 1.375 9C1.375 4.78883 4.78883 1.375 9 1.375C9.27614 1.375 9.5 1.59886 9.5 1.875C9.5 2.15114 9.27614 2.375 9 2.375ZM11.2499 2.21892C11.3551 1.9636 11.6473 1.84188 11.9026 1.94707C13.0273 2.41039 14.0162 3.13446 14.7945 4.04358C15.9354 5.37621 16.625 7.10821 16.625 9C16.625 11.3327 15.5769 13.421 13.9278 14.8189C13.7171 14.9975 13.4016 14.9715 13.2231 14.7608C13.0445 14.5502 13.0705 14.2346 13.2812 14.0561C14.7158 12.8401 15.625 11.0265 15.625 9C15.625 7.35559 15.0265 5.85223 14.0349 4.69392C13.3578 3.90308 12.4981 3.2739 11.5217 2.87168C11.2664 2.7665 11.1447 2.47424 11.2499 2.21892ZM4.0141 14.1142C4.19265 13.9035 4.50816 13.8775 4.71881 14.0561C5.87372 15.035 7.36732 15.625 9 15.625C9.79698 15.625 10.56 15.4845 11.2665 15.2273C11.5259 15.1329 11.8129 15.2666 11.9073 15.5261C12.0018 15.7856 11.868 16.0725 11.6085 16.167C10.7941 16.4635 9.91534 16.625 9 16.625C7.12175 16.625 5.40098 15.9452 4.07221 14.8189C3.86156 14.6404 3.83554 14.3248 4.0141 14.1142ZM7.07812 6.00138C7.19822 5.87533 7.32993 5.7558 7.47327 5.64278C7.62048 5.52977 7.77931 5.4298 7.94977 5.34286C8.1241 5.25593 8.31005 5.18855 8.50762 5.14074C8.70906 5.08858 8.92601 5.0625 9.15844 5.0625C9.46449 5.0625 9.74729 5.11249 10.0068 5.21246C10.2703 5.31243 10.4969 5.4537 10.6867 5.63626C10.8765 5.81882 11.0257 6.0405 11.1342 6.3013C11.2426 6.56211 11.2969 6.85551 11.2969 7.18151C11.2969 7.51185 11.2523 7.79656 11.1632 8.03563C11.078 8.2747 10.9676 8.48551 10.832 8.66807C10.7003 8.84629 10.555 9.00277 10.3962 9.13751C10.2373 9.26791 10.0882 9.39179 9.94873 9.50915C9.81315 9.62651 9.69499 9.74388 9.59427 9.86124C9.49742 9.9786 9.44125 10.109 9.42575 10.2524V10.8084C9.42575 11.0523 9.22802 11.25 8.98412 11.25C8.74021 11.25 8.54248 11.0523 8.54248 10.8084V10.1677V10.096C8.54248 9.91339 8.5851 9.75257 8.67033 9.61347C8.75943 9.47003 8.86983 9.33746 9.00155 9.21575C9.13714 9.0897 9.28047 8.96582 9.43156 8.84411C9.58652 8.71806 9.72986 8.58114 9.86157 8.43335C9.99716 8.28122 10.1076 8.10952 10.1928 7.91827C10.2819 7.72702 10.3264 7.50099 10.3264 7.24019C10.3264 7.05328 10.2935 6.88376 10.2277 6.73163C10.1618 6.57949 10.0727 6.45126 9.96036 6.34694C9.84801 6.23828 9.71436 6.15569 9.5594 6.09918C9.40832 6.04268 9.24561 6.01442 9.07128 6.01442C8.83497 6.01442 8.63159 6.04702 8.46113 6.11222C8.29455 6.17742 8.15315 6.24914 8.03693 6.32738C7.92071 6.40562 7.8258 6.47734 7.7522 6.54255C7.68246 6.60775 7.62435 6.64035 7.57787 6.64035C7.48102 6.64035 7.40548 6.59036 7.35124 6.49039L7.07812 6.00138ZM9.04688 12.9375C9.35754 12.9375 9.60938 12.6857 9.60938 12.375C9.60938 12.0643 9.35754 11.8125 9.04688 11.8125C8.73621 11.8125 8.48438 12.0643 8.48438 12.375C8.48438 12.6857 8.73621 12.9375 9.04688 12.9375Z" fill="#252323"/>
</g>
<defs>
<clipPath id="clip0_597_3269">
<rect width="18" height="18" fill="white"/>
</clipPath>
</defs>
</svg>
