<svg width="23" height="23" viewBox="0 0 23 23" fill="none" xmlns="http://www.w3.org/2000/svg">
<g clip-path="url(#clip0_597_3268)">
<path d="M5.12671 18.0359C5.36782 17.7519 5.79363 17.7168 6.07788 17.9578C7.54731 19.2033 9.44783 19.9539 11.5251 19.9539C12.5391 19.9538 13.5103 19.7752 14.4089 19.448C14.7591 19.3208 15.1467 19.5011 15.2742 19.8513C15.4016 20.2016 15.2201 20.589 14.8699 20.7166C13.8255 21.0967 12.6988 21.3044 11.5251 21.3044C9.11638 21.3044 6.90896 20.4325 5.20483 18.988C4.92046 18.747 4.88566 18.3203 5.12671 18.0359ZM14.366 2.84644C14.508 2.50175 14.9031 2.33725 15.2478 2.47925C16.6901 3.07347 17.9587 4.00187 18.9568 5.16772C20.42 6.87683 21.3044 9.09893 21.3044 11.5251C21.3043 14.5167 19.9594 17.1953 17.8445 18.988C17.5601 19.2287 17.1343 19.1932 16.8933 18.9089C16.6525 18.6246 16.6873 18.1988 16.9714 17.9578C18.7967 16.4106 19.9538 14.1033 19.9539 11.5251C19.9539 9.43289 19.1921 7.51942 17.9304 6.04565C17.069 5.03962 15.9752 4.23896 14.7332 3.72729C14.3887 3.58525 14.2241 3.19101 14.366 2.84644ZM11.5251 1.74585C11.8978 1.74603 12.2 2.04797 12.2 2.42065C12.2 2.79334 11.8978 3.09528 11.5251 3.09546C6.86985 3.09546 3.09546 6.86985 3.09546 11.5251C3.09553 13.3445 3.67186 15.0272 4.65112 16.4041C4.86716 16.7078 4.79563 17.1294 4.49194 17.3455C4.18822 17.5615 3.76665 17.4909 3.55054 17.1873C2.41406 15.5894 1.74592 13.6341 1.74585 11.5251C1.74585 6.12426 6.12426 1.74585 11.5251 1.74585ZM11.5671 15.5359C12.0037 15.536 12.3572 15.8903 12.3572 16.3269C12.3572 16.7635 12.0037 17.1178 11.5671 17.1179C11.1305 17.1179 10.7761 16.7636 10.7761 16.3269C10.7761 15.8903 11.1305 15.5359 11.5671 15.5359ZM11.7234 5.99585C12.1534 5.99585 12.551 6.06636 12.9158 6.20679C13.286 6.34731 13.605 6.54589 13.8718 6.80249C14.1386 7.05905 14.3483 7.37057 14.5007 7.73706C14.6532 8.10361 14.7292 8.51619 14.7292 8.97437C14.7292 9.43849 14.6669 9.83863 14.5417 10.1746C14.422 10.5106 14.2665 10.8076 14.0759 11.0642C13.8909 11.3145 13.6867 11.5341 13.4636 11.7234C13.2405 11.9066 13.0307 12.081 12.8347 12.2458C12.6442 12.4107 12.4782 12.5761 12.3367 12.741C12.2006 12.9059 12.1212 13.0892 12.0994 13.2908V14.072C12.0994 14.4148 11.8211 14.6931 11.4783 14.6931C11.1356 14.6929 10.8582 14.4147 10.8582 14.072V13.071C10.8582 12.8144 10.9181 12.5878 11.0378 12.3923C11.163 12.191 11.3178 12.0046 11.5027 11.8337C11.6932 11.6566 11.8949 11.4823 12.1072 11.3113C12.3249 11.1342 12.5266 10.9418 12.7117 10.7341C12.9022 10.5203 13.0577 10.2783 13.1775 10.0095C13.3026 9.74089 13.3649 9.42358 13.365 9.05737C13.365 8.79478 13.3188 8.55629 13.2263 8.34253C13.1338 8.1287 13.0082 7.94814 12.8503 7.80151C12.6925 7.64887 12.5046 7.53227 12.2869 7.45288C12.0747 7.37358 11.8461 7.33376 11.6013 7.33374C11.2693 7.33374 10.9834 7.37987 10.7439 7.47144C10.5098 7.56308 10.3106 7.6642 10.1472 7.77417C9.98398 7.88407 9.85024 7.98433 9.74683 8.07593C9.64881 8.16757 9.56705 8.21362 9.50171 8.21362C9.36577 8.21349 9.25951 8.14307 9.18335 8.00269L8.79956 7.31616C8.96836 7.13899 9.15376 6.97013 9.35522 6.81128C9.56206 6.65252 9.78567 6.51251 10.0251 6.39038C10.2701 6.26823 10.5317 6.17339 10.8093 6.1062C11.0923 6.03297 11.3969 5.99587 11.7234 5.99585Z" fill="#332A2A"/>
</g>
<defs>
<clipPath id="clip0_597_3268">
<rect width="23" height="23" fill="white"/>
</clipPath>
</defs>
</svg>
