<svg width="23" height="23" viewBox="0 0 23 23" fill="none" xmlns="http://www.w3.org/2000/svg">
<g clip-path="url(#clip0_597_3240)">
<circle cx="11.4999" cy="11.5" r="9.10417" fill="#E05149"/>
<path fill-rule="evenodd" clip-rule="evenodd" d="M11.5 3.04585C6.83091 3.04585 3.04585 6.83091 3.04585 11.5C3.04585 13.3249 3.62333 15.0131 4.6056 16.3941C4.81366 16.6867 4.74518 17.0925 4.45265 17.3005C4.16011 17.5086 3.75429 17.4401 3.54622 17.1476C2.41259 15.5537 1.74585 13.6038 1.74585 11.5C1.74585 6.11294 6.11294 1.74585 11.5 1.74585C11.859 1.74585 12.15 2.03686 12.15 2.39585C12.15 2.75483 11.859 3.04585 11.5 3.04585ZM14.3646 2.83107C14.5013 2.49915 14.8813 2.34092 15.2132 2.47766C16.6519 3.07036 17.9169 3.99662 18.9126 5.15959C20.372 6.86433 21.2542 9.07998 21.2542 11.5C21.2542 14.484 19.9134 17.1556 17.8038 18.9438C17.53 19.1759 17.1198 19.1421 16.8877 18.8682C16.6556 18.5944 16.6894 18.1842 16.9632 17.9521C18.7939 16.4003 19.9542 14.086 19.9542 11.5C19.9542 9.40157 19.1905 7.48315 17.925 6.00503C17.061 4.99582 15.9639 4.19293 14.718 3.67966C14.3861 3.54292 14.2278 3.16299 14.3646 2.83107ZM5.12066 18.0276C5.35279 17.7538 5.76295 17.72 6.03679 17.9521C7.51058 19.2013 9.41654 19.9542 11.5 19.9542C12.5171 19.9542 13.4908 19.7749 14.3922 19.4467C14.7296 19.3239 15.1026 19.4978 15.2254 19.8351C15.3482 20.1725 15.1743 20.5455 14.837 20.6683C13.7951 21.0476 12.6709 21.2542 11.5 21.2542C9.0973 21.2542 6.89601 20.3846 5.19621 18.9438C4.92236 18.7116 4.88854 18.3015 5.12066 18.0276ZM9.04429 7.67644C9.19774 7.51537 9.36604 7.36263 9.54919 7.21822C9.7373 7.07382 9.94025 6.94607 10.1581 6.83499C10.3808 6.72391 10.6184 6.63782 10.8709 6.57673C11.1283 6.51008 11.4055 6.47675 11.7025 6.47675C12.0935 6.47675 12.4549 6.54062 12.7865 6.66837C13.1231 6.79611 13.4127 6.97662 13.6553 7.20989C13.8978 7.44316 14.0884 7.72642 14.227 8.05967C14.3656 8.39291 14.4349 8.76782 14.4349 9.18437C14.4349 9.60648 14.378 9.97028 14.2641 10.2758C14.1552 10.5812 14.0142 10.8506 13.8409 11.0839C13.6726 11.3116 13.487 11.5115 13.284 11.6837C13.0811 11.8503 12.8905 12.0086 12.7123 12.1586C12.539 12.3085 12.3881 12.4585 12.2594 12.6085C12.1356 12.7584 12.0638 12.9251 12.044 13.1083V13.8187C12.044 14.1304 11.7914 14.383 11.4797 14.383C11.1681 14.383 10.9154 14.1304 10.9154 13.8187V13V12.9084C10.9154 12.6751 10.9699 12.4696 11.0788 12.2919C11.1926 12.1086 11.3337 11.9392 11.502 11.7837C11.6752 11.6226 11.8584 11.4643 12.0515 11.3088C12.2495 11.1477 12.4326 10.9728 12.6009 10.784C12.7742 10.5896 12.9152 10.3702 13.0241 10.1258C13.138 9.88141 13.1949 9.5926 13.1949 9.25935C13.1949 9.02053 13.1528 8.80392 13.0687 8.60952C12.9845 8.41513 12.8707 8.25128 12.7271 8.11799C12.5836 7.97913 12.4128 7.87361 12.2148 7.8014C12.0218 7.7292 11.8139 7.6931 11.5911 7.6931C11.2891 7.6931 11.0293 7.73475 10.8115 7.81807C10.5986 7.90138 10.4179 7.99302 10.2694 8.09299C10.1209 8.19297 9.99965 8.28461 9.9056 8.36792C9.8165 8.45123 9.74225 8.49289 9.68285 8.49289C9.55909 8.49289 9.46257 8.42902 9.39327 8.30127L9.04429 7.67644ZM11.5599 16.5872C11.9569 16.5872 12.2787 16.2654 12.2787 15.8684C12.2787 15.4715 11.9569 15.1497 11.5599 15.1497C11.163 15.1497 10.8412 15.4715 10.8412 15.8684C10.8412 16.2654 11.163 16.5872 11.5599 16.5872Z" fill="#252323"/>
</g>
<defs>
<clipPath id="clip0_597_3240">
<rect width="23" height="23" fill="white"/>
</clipPath>
</defs>
</svg>
