<svg width="18" height="18" viewBox="0 0 18 18" fill="none" xmlns="http://www.w3.org/2000/svg">
<g clip-path="url(#clip0_597_3253)">
<circle cx="9" cy="9" r="7.125" fill="#E05149"/>
<path fill-rule="evenodd" clip-rule="evenodd" d="M9 2.5C5.41015 2.5 2.5 5.41015 2.5 9C2.5 10.4033 2.94396 11.701 3.69914 12.7628C3.89921 13.044 3.83336 13.4343 3.55208 13.6343C3.27079 13.8344 2.88058 13.7685 2.68051 13.4872C1.77978 12.2208 1.25 10.6714 1.25 9C1.25 4.71979 4.71979 1.25 9 1.25C9.34518 1.25 9.625 1.52982 9.625 1.875C9.625 2.22018 9.34518 2.5 9 2.5ZM11.1343 2.17131C11.2658 1.85215 11.6311 1.70001 11.9503 1.83149C13.0934 2.30245 14.0985 3.03838 14.8895 3.96229C16.049 5.31671 16.75 7.07729 16.75 9C16.75 11.3709 15.6846 13.4936 14.0086 14.9143C13.7453 15.1375 13.3509 15.1049 13.1277 14.8416C12.9045 14.5783 12.9371 14.1839 13.2004 13.9607C14.6081 12.7675 15.5 10.9882 15.5 9C15.5 7.38651 14.9129 5.91173 13.9399 4.77521C13.2755 3.99916 12.4319 3.38184 11.4741 2.98726C11.155 2.85578 11.0028 2.49046 11.1343 2.17131ZM3.91874 14.0334C4.14194 13.7701 4.53633 13.7375 4.79964 13.9607C5.93281 14.9213 7.39802 15.5 9 15.5C9.78219 15.5 10.5308 15.3621 11.2237 15.1099C11.548 14.9918 11.9067 15.159 12.0248 15.4833C12.1429 15.8077 11.9757 16.1664 11.6513 16.2844C10.8233 16.5859 9.93014 16.75 9 16.75C7.09105 16.75 5.34188 16.059 3.99138 14.9143C3.72807 14.6911 3.69555 14.2967 3.91874 14.0334ZM6.86719 5.70152C6.99929 5.56286 7.14418 5.43138 7.30185 5.30706C7.46378 5.18275 7.63849 5.07277 7.82599 4.97715C8.01776 4.88152 8.2223 4.80741 8.43963 4.75481C8.66122 4.69744 8.89986 4.66875 9.15554 4.66875C9.49219 4.66875 9.80327 4.72374 10.0888 4.83371C10.3786 4.94368 10.6278 5.09907 10.8366 5.29989C11.0455 5.50071 11.2095 5.74455 11.3288 6.03143C11.4482 6.31832 11.5078 6.64106 11.5078 6.99966C11.5078 7.36304 11.4588 7.67622 11.3608 7.93919C11.267 8.20217 11.1456 8.43406 10.9964 8.63488C10.8516 8.83091 10.6918 9.00304 10.517 9.15126C10.3423 9.29471 10.1783 9.43097 10.0249 9.56007C9.87571 9.68917 9.74574 9.81826 9.63494 9.94736C9.52841 10.0765 9.46662 10.2199 9.44957 10.3777V10.9892C9.44957 11.2575 9.23208 11.475 8.96378 11.475C8.69548 11.475 8.47798 11.2575 8.47798 10.9892V10.2844V10.2056C8.47798 10.0047 8.52486 9.82783 8.61861 9.67482C8.71662 9.51704 8.83807 9.37121 8.98295 9.23733C9.1321 9.09867 9.28977 8.9624 9.45597 8.82852C9.62642 8.68986 9.78409 8.53925 9.92898 8.37669C10.0781 8.20934 10.1996 8.02048 10.2933 7.8101C10.3913 7.59972 10.4403 7.35109 10.4403 7.06421C10.4403 6.85861 10.4041 6.67214 10.3317 6.50479C10.2592 6.33744 10.1612 6.19639 10.0376 6.08164C9.91406 5.96211 9.76705 5.87126 9.59659 5.8091C9.4304 5.74694 9.25142 5.71587 9.05966 5.71587C8.79972 5.71587 8.57599 5.75173 8.38849 5.82345C8.20526 5.89517 8.04972 5.97406 7.92188 6.06012C7.79403 6.14619 7.68963 6.22508 7.60866 6.2968C7.53196 6.36852 7.46804 6.40438 7.4169 6.40438C7.31037 6.40438 7.22727 6.34939 7.16761 6.23942L6.86719 5.70152ZM9.03281 13.3313C9.37454 13.3313 9.65156 13.0542 9.65156 12.7125C9.65156 12.3708 9.37454 12.0938 9.03281 12.0938C8.69109 12.0938 8.41406 12.3708 8.41406 12.7125C8.41406 13.0542 8.69109 13.3313 9.03281 13.3313Z" fill="#332A2A"/>
</g>
<defs>
<clipPath id="clip0_597_3253">
<rect width="18" height="18" fill="white"/>
</clipPath>
</defs>
</svg>
