<svg width="28" height="28" viewBox="0 0 28 28" fill="none" xmlns="http://www.w3.org/2000/svg">
<g clip-path="url(#clip0_597_3267)">
<path fill-rule="evenodd" clip-rule="evenodd" d="M13.9998 3.66669C8.29289 3.66669 3.6665 8.29308 3.6665 14C3.6665 16.2305 4.37236 18.2939 5.57297 19.982C5.81305 20.3195 5.73403 20.7878 5.39649 21.0279C5.05894 21.2679 4.59069 21.1889 4.35061 20.8514C2.97535 18.9178 2.1665 16.5522 2.1665 14C2.1665 7.46465 7.46447 2.16669 13.9998 2.16669C14.4141 2.16669 14.7498 2.50247 14.7498 2.91669C14.7498 3.3309 14.4141 3.66669 13.9998 3.66669ZM17.5253 3.46225C17.6831 3.07927 18.1215 2.8967 18.5045 3.05448C20.2498 3.7735 21.7845 4.8972 22.9924 6.3081C24.763 8.37624 25.8332 11.0641 25.8332 14C25.8332 17.6201 24.2067 20.861 21.6473 23.0305C21.3314 23.2983 20.8581 23.2593 20.5903 22.9433C20.3224 22.6273 20.3615 22.1541 20.6774 21.8862C22.9149 19.9896 24.3332 17.1608 24.3332 14C24.3332 11.4352 23.3997 9.09026 21.853 7.28361C20.797 6.05013 19.456 5.06877 17.9331 4.4414C17.5501 4.28362 17.3676 3.84524 17.5253 3.46225ZM6.26518 21.9734C6.53301 21.6574 7.00628 21.6184 7.32225 21.8862C9.1236 23.4132 11.4533 24.3334 13.9998 24.3334C15.2429 24.3334 16.4331 24.1142 17.5349 23.7131C17.9242 23.5714 18.3546 23.772 18.4963 24.1612C18.638 24.5505 18.4373 24.9809 18.0481 25.1226C16.7841 25.5827 15.4204 25.8334 13.9998 25.8334C11.0849 25.8334 8.41449 24.7784 6.35234 23.0305C6.03637 22.7626 5.99734 22.2894 6.26518 21.9734ZM11.0103 9.33554C11.1971 9.13945 11.402 8.95351 11.6249 8.77771C11.8539 8.60191 12.101 8.4464 12.3662 8.31117C12.6373 8.17594 12.9266 8.07113 13.2339 7.99676C13.5473 7.91562 13.8848 7.87505 14.2463 7.87505C14.7224 7.87505 15.1623 7.95281 15.5661 8.10832C15.9758 8.26384 16.3284 8.48359 16.6237 8.76757C16.9189 9.05155 17.1509 9.39639 17.3197 9.80208C17.4884 10.2078 17.5728 10.6642 17.5728 11.1713C17.5728 11.6852 17.5035 12.128 17.3649 12.4999C17.2323 12.8718 17.0605 13.1997 16.8496 13.4837C16.6447 13.7609 16.4188 14.0044 16.1717 14.214C15.9246 14.4168 15.6926 14.6095 15.4757 14.7921C15.2647 14.9746 15.081 15.1572 14.9243 15.3398C14.7736 15.5223 14.6862 15.7252 14.6621 15.9483V16.8131C14.6621 17.1925 14.3546 17.5001 13.9751 17.5001C13.5957 17.5001 13.2882 17.1925 13.2882 16.8131V15.8164V15.7049C13.2882 15.4209 13.3545 15.1707 13.487 14.9543C13.6256 14.7312 13.7974 14.525 14.0023 14.3357C14.2132 14.1396 14.4362 13.9469 14.6712 13.7576C14.9122 13.5615 15.1352 13.3485 15.3401 13.1186C15.551 12.8819 15.7227 12.6149 15.8553 12.3174C15.9939 12.0199 16.0632 11.6683 16.0632 11.2626C16.0632 10.9718 16.012 10.7081 15.9096 10.4715C15.8071 10.2348 15.6685 10.0354 15.4937 9.87307C15.319 9.70404 15.1111 9.57557 14.87 9.48767C14.635 9.39977 14.3819 9.35582 14.1107 9.35582C13.7431 9.35582 13.4268 9.40653 13.1616 9.50795C12.9025 9.60938 12.6825 9.72094 12.5017 9.84265C12.321 9.96435 12.1733 10.0759 12.0588 10.1773C11.9504 10.2788 11.86 10.3295 11.7876 10.3295C11.637 10.3295 11.5195 10.2517 11.4351 10.0962L11.0103 9.33554ZM14.0727 20.125C14.556 20.125 14.9477 19.7333 14.9477 19.25C14.9477 18.7668 14.556 18.375 14.0727 18.375C13.5895 18.375 13.1977 18.7668 13.1977 19.25C13.1977 19.7333 13.5895 20.125 14.0727 20.125Z" fill="#332A2A"/>
<path d="M12 9.5C13 8.5 15.5 7.99999 16.5 10C18 13 14 14.5 14 15.5C14 16.5 14 16.25 14 16.75" stroke="#332A2A" stroke-width="1.5" stroke-linecap="round" stroke-linejoin="round"/>
</g>
<defs>
<clipPath id="clip0_597_3267">
<rect width="28" height="28" fill="white"/>
</clipPath>
</defs>
</svg>
