<svg width="44" height="44" viewBox="0 0 44 44" fill="none" xmlns="http://www.w3.org/2000/svg">
<g clip-path="url(#clip0_597_3266)">
<path fill-rule="evenodd" clip-rule="evenodd" d="M21.9999 5.33331C12.7952 5.33331 5.33325 12.7952 5.33325 22C5.33325 25.597 6.47188 28.9258 8.40845 31.6486C8.64853 31.9862 8.56952 32.4544 8.23197 32.6945C7.89443 32.9346 7.42618 32.8556 7.1861 32.518C5.07488 29.5497 3.83325 25.9187 3.83325 22C3.83325 11.9668 11.9667 3.83331 21.9999 3.83331C22.4141 3.83331 22.7499 4.1691 22.7499 4.58331C22.7499 4.99753 22.4141 5.33331 21.9999 5.33331ZM27.9362 5.60388C28.094 5.22089 28.5324 5.03833 28.9154 5.1961C31.5945 6.29981 33.9509 8.02495 35.8056 10.1914C38.524 13.3666 40.1666 17.4924 40.1666 22C40.1666 27.5574 37.6702 32.5326 33.7403 35.8638C33.4243 36.1316 32.9511 36.0926 32.6832 35.7766C32.4154 35.4606 32.4544 34.9874 32.7704 34.7195C36.3784 31.6612 38.6666 27.0982 38.6666 22C38.6666 17.8635 37.1606 14.0806 34.6661 11.1669C32.9633 9.17788 30.8007 7.59508 28.344 6.58302C27.961 6.42524 27.7785 5.98687 27.9362 5.60388ZM10.1724 34.8067C10.4402 34.4907 10.9135 34.4517 11.2295 34.7195C14.1347 37.1821 17.893 38.6666 21.9999 38.6666C24.004 38.6666 25.9239 38.3133 27.7017 37.666C28.0909 37.5243 28.5213 37.725 28.663 38.1142C28.8047 38.5035 28.604 38.9339 28.2148 39.0755C26.2749 39.7818 24.1815 40.1666 21.9999 40.1666C17.5246 40.1666 13.4255 38.5474 10.2595 35.8638C9.94357 35.5959 9.90454 35.1227 10.1724 34.8067ZM17.3021 14.6701C17.5956 14.3619 17.9176 14.0697 18.268 13.7935C18.6278 13.5172 19.0161 13.2728 19.4327 13.0603C19.8589 12.8478 20.3134 12.6831 20.7964 12.5663C21.2888 12.4388 21.8191 12.375 22.3873 12.375C23.1354 12.375 23.8267 12.4972 24.4611 12.7416C25.1051 12.986 25.6591 13.3313 26.1231 13.7775C26.5871 14.2238 26.9517 14.7657 27.2168 15.4032C27.482 16.0407 27.6145 16.7579 27.6145 17.5548C27.6145 18.3623 27.5056 19.0583 27.2878 19.6427C27.0795 20.227 26.8096 20.7424 26.4782 21.1886C26.1562 21.6243 25.8011 22.0068 25.4128 22.3361C25.0246 22.6549 24.66 22.9577 24.3191 23.2446C23.9877 23.5315 23.6988 23.8184 23.4526 24.1052C23.2159 24.3921 23.0786 24.7109 23.0407 25.0615V26.4205C23.0407 27.0167 22.5574 27.5 21.9611 27.5C21.3649 27.5 20.8816 27.0167 20.8816 26.4205V24.8543V24.679C20.8816 24.2327 20.9858 23.8396 21.1941 23.4996C21.4119 23.149 21.6818 22.8249 22.0038 22.5274C22.3352 22.2193 22.6856 21.9164 23.0549 21.6189C23.4337 21.3108 23.7841 20.9761 24.106 20.6149C24.4375 20.243 24.7074 19.8233 24.9157 19.3558C25.1335 18.8883 25.2424 18.3358 25.2424 17.6982C25.2424 17.2414 25.1619 16.827 25.0009 16.4551C24.8399 16.0832 24.6221 15.7698 24.3475 15.5148C24.0729 15.2491 23.7462 15.0472 23.3674 14.9091C22.9981 14.771 22.6003 14.7019 22.1742 14.7019C21.5966 14.7019 21.0994 14.7816 20.6827 14.941C20.2755 15.1004 19.9299 15.2757 19.6458 15.4669C19.3617 15.6582 19.1297 15.8335 18.9498 15.9929C18.7793 16.1523 18.6373 16.232 18.5236 16.232C18.2869 16.232 18.1022 16.1098 17.9697 15.8654L17.3021 14.6701ZM22.1145 31.625C22.8739 31.625 23.4895 31.0093 23.4895 30.25C23.4895 29.4906 22.8739 28.875 22.1145 28.875C21.3552 28.875 20.7395 29.4906 20.7395 30.25C20.7395 31.0093 21.3552 31.625 22.1145 31.625Z" fill="#252323"/>
</g>
<defs>
<clipPath id="clip0_597_3266">
<rect width="44" height="44" fill="white"/>
</clipPath>
</defs>
</svg>
