<svg width="44" height="44" viewBox="0 0 44 44" fill="none" xmlns="http://www.w3.org/2000/svg">
<g clip-path="url(#clip0_2123_13218)">
<path d="M15.7018 24.1114C17.5993 24.624 20.2704 25.3518 21.9257 25.804L29.1753 22.6519L27.3427 22.2114C26.4438 21.9954 25.8101 21.1914 25.8101 20.2668V16.9333C25.8101 16.1439 26.2744 15.4284 26.9953 15.1068L27.6339 14.8219C28.0553 14.6339 28.5287 14.5974 28.9739 14.7186L40.3198 17.8064V27.2445C40.3198 28.0357 39.8533 28.7525 39.1299 29.073L21.9257 36.6957L14.7347 34.6771C13.8564 34.4306 13.2562 33.621 13.2756 32.709L13.4221 25.8278C13.448 24.6099 14.5257 23.7936 15.7018 24.1114Z" fill="#E05149"/>
<path d="M23.2315 7.1722C23.3387 6.77219 23.7504 6.53479 24.1504 6.64193L36.8125 10.0345C37.1402 10.1225 37.3681 10.4198 37.3682 10.7591V16.1702L40.5772 17.0306C40.9047 17.1186 41.1326 17.4151 41.1329 17.7542V28.5941C41.1326 28.8922 40.956 29.1625 40.6827 29.2816L22.2999 37.2894C22.1443 37.3571 21.9696 37.3694 21.8057 37.3255L16.4678 35.8949L13.8165 37.0726C13.6371 37.3052 13.3298 37.4208 13.0284 37.3402L3.58989 34.8118C3.18996 34.7046 2.95264 34.2929 3.05962 33.8929C3.16682 33.4928 3.57846 33.2554 3.97856 33.3626L12.4727 35.638V21.7279L3.58989 19.349C3.18996 19.2417 2.95257 18.83 3.05962 18.43C3.16688 18.03 3.57851 17.7925 3.97856 17.8997L13.1592 20.3597L18.5723 17.9398C18.9503 17.7708 19.3944 17.9398 19.5635 18.3177C19.7323 18.6957 19.5626 19.1399 19.1846 19.3089L13.9727 21.639V22.8743L18.9053 24.1956L25.1622 21.471V16.5892L24.1788 17.0033C23.797 17.1637 23.357 16.9835 23.1963 16.6019C23.036 16.2201 23.2159 15.7809 23.5977 15.6204L27.9219 13.8021L34.375 10.9339L23.7627 8.09115C23.3627 7.98396 23.1245 7.57221 23.2315 7.1722ZM13.9727 33.6732L21.25 35.6234V26.3783L13.9727 24.4281V33.6732ZM22.75 26.2533V35.4554L39.6329 28.1019V18.8997L22.75 26.2533ZM13.9727 35.3626L14.1631 35.2777L13.9727 35.2269V35.3626ZM33.2959 25.7083C33.6786 25.5506 34.1173 25.732 34.2754 26.1146C34.4333 26.4972 34.2506 26.9358 33.8682 27.0941L30.0333 28.6781C29.6505 28.836 29.2119 28.6535 29.0538 28.2708C28.8957 27.888 29.0781 27.4494 29.461 27.2913L33.2959 25.7083ZM21.2315 24.8197L21.8829 24.9945L26.6329 22.9251L25.9815 22.7503L21.2315 24.8197ZM3.59282 8.00325C3.70013 7.6033 4.11175 7.3658 4.51177 7.47298L19.212 11.4124C20.8511 11.8519 21.9913 13.3375 21.9913 15.0345V19.2288L22.0362 19.1615C22.2644 18.8579 22.6902 18.7708 23.0225 18.971C23.3769 19.185 23.4912 19.6457 23.2774 20.0003L21.8829 22.3128C21.7729 22.4948 21.5907 22.6214 21.3819 22.6615C21.173 22.7014 20.9566 22.6514 20.7872 22.5228L19.3926 21.4632C19.0629 21.2127 18.9988 20.7423 19.2491 20.4124C19.4996 20.0826 19.97 20.0183 20.2999 20.2689L20.4913 20.4134V15.0345C20.4913 14.0162 19.8068 13.1243 18.8233 12.8607L4.12309 8.9222C3.7232 8.81494 3.48581 8.4032 3.59282 8.00325ZM26.6622 15.9583V21.3792L28.8399 21.9632L38.1153 17.9232L36.4239 17.4701L32.9532 16.5404L28.2657 15.2835L26.6622 15.9583ZM30.4551 14.3177L33.3418 15.0911L35.8682 15.7679V11.9124L30.4551 14.3177Z" fill="#332A2A"/>
</g>
<defs>
<clipPath id="clip0_2123_13218">
<rect width="44" height="44" fill="white"/>
</clipPath>
</defs>
</svg>
