<svg width="28" height="28" viewBox="0 0 28 28" fill="none" xmlns="http://www.w3.org/2000/svg">
<g clip-path="url(#clip0_2123_13237)">
<path d="M14.5203 4.49336C14.6276 4.09363 15.0385 3.85627 15.4383 3.96309L23.4959 6.12227C23.8238 6.21012 24.0516 6.50742 24.0516 6.84688V10.0803L25.8914 10.5734C26.2192 10.6613 26.4479 10.9587 26.4481 11.298V18.1955C26.4479 18.4938 26.2703 18.7649 25.9969 18.884L14.2986 23.9797C14.1433 24.0471 13.9691 24.0597 13.8055 24.0158L10.5008 23.1301L8.95001 23.8195C8.76687 24.0084 8.49261 24.0983 8.22051 24.0256L2.21368 22.4162C1.81371 22.309 1.57634 21.8973 1.6834 21.4973C1.79061 21.0972 2.20225 20.8598 2.60235 20.967L7.66387 22.3225V14.0363L2.21368 12.5764C1.81371 12.4691 1.57634 12.0574 1.6834 11.6574C1.79061 11.2573 2.20225 11.0199 2.60235 11.1271L8.35919 12.6691L11.3123 11.424C11.6939 11.2631 12.1337 11.4419 12.2947 11.8234C12.4556 12.205 12.2768 12.6448 11.8953 12.8059L9.16387 13.9582V14.3469L12.0086 15.1096L15.7391 13.4846V10.967L15.492 11.0715C15.1102 11.232 14.6702 11.0518 14.5096 10.6701C14.3493 10.2884 14.5292 9.84915 14.9109 9.68867L17.6453 8.53828C17.6463 8.53786 17.6473 8.53772 17.6482 8.53731L21.0584 7.02168L15.0506 5.41231C14.6508 5.30502 14.4135 4.8932 14.5203 4.49336ZM9.16387 21.2189L13.2498 22.3137V16.9953L9.16387 15.9006V21.2189ZM19.6522 14.7482C19.525 15.1171 19.1334 15.33 18.7508 15.2277L18.6268 15.1945L14.7498 16.884V22.1457L24.9481 17.7033V12.4416L19.6522 14.7482ZM21.6375 16.1291C22.0201 15.9714 22.4589 16.1539 22.617 16.5363C22.775 16.9191 22.5924 17.3577 22.2098 17.5158L19.7693 18.5236C19.3865 18.6816 18.9479 18.4991 18.7898 18.1164C18.6321 17.7336 18.8143 17.2949 19.1971 17.1369L21.6375 16.1291ZM2.02227 5.02266C2.12945 4.62266 2.54121 4.38538 2.94122 4.49238L11.4871 6.78242C13.1265 7.22177 14.2664 8.70728 14.2664 10.4045V11.7463C14.4791 11.7066 14.7068 11.7566 14.8856 11.9064C15.2028 12.1727 15.2445 12.6458 14.9783 12.9631L14.0906 14.0207C13.8991 14.2484 13.591 14.3417 13.3055 14.258L12.4178 13.9973C12.0207 13.8806 11.7927 13.4638 11.909 13.0666C12.0185 12.6939 12.3926 12.4702 12.7664 12.5402V10.4045C12.7664 9.38613 12.0821 8.49424 11.0984 8.23067L2.55255 5.94063C2.15305 5.83322 1.91558 5.42233 2.02227 5.02266ZM17.2391 10.3361V13.2688L18.5096 13.6096L23.4305 11.467L23.1082 11.3811L20.8992 10.7893L18.0066 10.0139L17.2391 10.3361ZM20.1951 9.04707L21.2869 9.34004L22.5516 9.67793V8.0002L20.1951 9.04707Z" fill="#332A2A"/>
</g>
<defs>
<clipPath id="clip0_2123_13237">
<rect width="28" height="28" fill="white"/>
</clipPath>
</defs>
</svg>
