<svg width="18" height="18" viewBox="0 0 18 18" fill="none" xmlns="http://www.w3.org/2000/svg">
<g clip-path="url(#clip0_611_6603)">
<path d="M3.70996 5.03125C4.05506 5.03134 4.33496 5.31113 4.33496 5.65625C4.33496 5.87991 4.21666 6.07511 4.04004 6.18555H5.18359C5.00676 6.07515 4.88867 5.88007 4.88867 5.65625C4.88867 5.31107 5.16849 5.03125 5.51367 5.03125H15.7578C16.4216 5.03145 16.96 5.5696 16.96 6.2334C16.96 6.88114 16.4472 7.40727 15.8057 7.43262V12.582C15.8056 12.927 15.5256 13.2069 15.1807 13.207C14.8355 13.207 14.5558 12.9271 14.5557 12.582V7.43555H12.7275C12.3824 7.43555 12.1026 7.15571 12.1025 6.81055C12.1025 6.58682 12.2208 6.39167 12.3975 6.28125H11.2539C11.4306 6.39166 11.5488 6.5868 11.5488 6.81055C11.5488 7.15571 11.269 7.43555 10.9238 7.43555H8.30273V12.582C8.30263 12.9271 8.02278 13.2069 7.67773 13.207C7.33262 13.207 7.05283 12.9271 7.05273 12.582V12.0527H3.68555V12.582C3.68545 12.9271 3.40566 13.207 3.06055 13.207C2.71543 13.207 2.43565 12.9271 2.43555 12.582V11.1387C2.43575 10.7937 2.71549 10.5137 3.06055 10.5137C3.28185 10.5137 3.47586 10.6291 3.58691 10.8027H7.05273V9.16699H3.68555V9.69629C3.68549 10.0414 3.40568 10.3213 3.06055 10.3213C2.71541 10.3213 2.43561 10.0414 2.43555 9.69629V7.43262C1.83497 7.40907 1.34713 6.94694 1.28711 6.35645L1.28125 6.2334L1.28711 6.11035C1.34871 5.50421 1.861 5.03125 2.4834 5.03125H3.70996ZM5.94629 9.35938C6.2913 9.35943 6.57109 9.6394 6.57129 9.98438C6.57129 10.3295 6.29142 10.6093 5.94629 10.6094H4.79199C4.44681 10.6094 4.16699 10.3296 4.16699 9.98438C4.16719 9.63937 4.44694 9.35937 4.79199 9.35938H5.94629ZM3.68555 7.91699H7.05273V7.43555H3.68555V7.91699Z" fill="#332A2A"/>
</g>
<defs>
<clipPath id="clip0_611_6603">
<rect width="18" height="18" fill="white"/>
</clipPath>
</defs>
</svg>
