<svg width="18" height="18" viewBox="0 0 18 18" fill="none" xmlns="http://www.w3.org/2000/svg">
<g clip-path="url(#clip0_1217_13953)">
<path d="M9.08496 12.8916C9.43 12.8918 9.70996 13.1715 9.70996 13.5166V15.665H11.5508C11.8958 15.6652 12.1758 15.945 12.1758 16.29C12.1757 16.635 11.8957 16.9148 11.5508 16.915H6.61914C6.27404 16.915 5.99426 16.6351 5.99414 16.29C5.99414 15.9449 6.27396 15.665 6.61914 15.665H8.45996V13.5166C8.45996 13.1714 8.73978 12.8916 9.08496 12.8916ZM10.1104 1.28125C10.7258 1.28125 11.2882 1.62919 11.5635 2.17969L11.6982 2.44824C11.8526 2.75694 11.7276 3.13271 11.4189 3.28711C11.1102 3.44141 10.7344 3.31651 10.5801 3.00781L10.4453 2.73828C10.3817 2.61149 10.2522 2.53125 10.1104 2.53125H8.05859C7.91678 2.53135 7.78718 2.61151 7.72363 2.73828L6.80762 4.56934H11.3711C11.2735 4.27867 11.3996 3.95356 11.6816 3.8125C11.9903 3.65822 12.3661 3.7841 12.5205 4.09277L12.9316 4.91406C12.9346 4.91995 12.9357 4.92669 12.9385 4.93262C12.9468 4.95066 12.9533 4.96936 12.96 4.98828C12.9676 5.01006 12.9744 5.03161 12.9795 5.05371C12.983 5.06912 12.9849 5.08477 12.9873 5.10059C12.9912 5.12611 12.9945 5.15124 12.9951 5.17676C12.9953 5.18248 12.9971 5.18858 12.9971 5.19434C12.9971 5.20553 12.9938 5.21649 12.9932 5.22754C12.9918 5.25123 12.9903 5.27457 12.9863 5.29785C12.9828 5.31858 12.9772 5.33841 12.9717 5.3584C12.9669 5.37586 12.9624 5.39318 12.9561 5.41016C12.9486 5.4303 12.9401 5.44965 12.9307 5.46875C12.9214 5.48749 12.9115 5.50564 12.9004 5.52344C12.8913 5.538 12.8813 5.5517 12.8711 5.56543C12.8573 5.584 12.8431 5.60208 12.8271 5.61914C12.815 5.63214 12.8023 5.64433 12.7891 5.65625C12.7726 5.67107 12.7555 5.68507 12.7373 5.69824C12.7208 5.71021 12.7032 5.72013 12.6855 5.73047C12.6739 5.73727 12.6636 5.74681 12.6514 5.75293C12.6455 5.75588 12.6388 5.75702 12.6328 5.75977C12.6123 5.76922 12.5909 5.77598 12.5693 5.7832C12.552 5.78904 12.5352 5.79557 12.5176 5.7998C12.4943 5.80538 12.4705 5.80864 12.4463 5.81152C12.4293 5.81356 12.4125 5.81578 12.3955 5.81641C12.3877 5.81669 12.3799 5.81934 12.3721 5.81934H9.70996V11.5625C9.70974 11.9074 9.42986 12.1873 9.08496 12.1875C8.73992 12.1875 8.46018 11.9075 8.45996 11.5625V5.81934H8.39062V6.875C8.39062 7.22018 8.1108 7.5 7.76562 7.5C7.42047 7.49997 7.14062 7.22016 7.14062 6.875V5.81934H5.79688C5.78867 5.81933 5.78059 5.81672 5.77246 5.81641C5.75546 5.81575 5.7387 5.8136 5.72168 5.81152C5.69744 5.8086 5.6737 5.80542 5.65039 5.7998C5.63283 5.79554 5.61599 5.78907 5.59863 5.7832C5.57705 5.77594 5.55561 5.76925 5.53516 5.75977C5.52951 5.75715 5.52318 5.75573 5.51758 5.75293C5.50612 5.7472 5.4963 5.73875 5.48535 5.73242C5.46585 5.72111 5.44681 5.70958 5.42871 5.69629C5.41211 5.68413 5.39695 5.67077 5.38184 5.65723C5.36772 5.64457 5.35374 5.63205 5.34082 5.61816C5.32687 5.60314 5.31406 5.58748 5.30176 5.57129C5.28825 5.55359 5.27526 5.53571 5.26367 5.5166C5.25559 5.5032 5.24825 5.48952 5.24121 5.47559C5.23027 5.45403 5.22034 5.43208 5.21191 5.40918C5.20615 5.39348 5.20176 5.37744 5.19727 5.36133C5.19093 5.33859 5.18539 5.3157 5.18164 5.29199C5.17894 5.27514 5.1771 5.25828 5.17578 5.24121C5.17462 5.22569 5.17189 5.21016 5.17188 5.19434C5.17188 5.18595 5.1735 5.17725 5.17383 5.16895C5.17451 5.15165 5.17657 5.1345 5.17871 5.11719C5.1816 5.09363 5.18499 5.07052 5.19043 5.04785C5.19423 5.03209 5.19901 5.01658 5.2041 5.00098C5.21236 4.97558 5.22111 4.95061 5.23242 4.92676C5.23441 4.92256 5.23619 4.91824 5.23828 4.91406L6.60547 2.17969C6.88069 1.62924 7.44319 1.28135 8.05859 1.28125H10.1104Z" fill="#332A2A"/>
</g>
<defs>
<clipPath id="clip0_1217_13953">
<rect width="18" height="18" fill="white"/>
</clipPath>
</defs>
</svg>
