<svg width="44" height="44" viewBox="0 0 44 44" fill="none" xmlns="http://www.w3.org/2000/svg">
<g clip-path="url(#clip0_611_6600)">
<path fill-rule="evenodd" clip-rule="evenodd" d="M5.35425 14.2708C5.21618 14.2708 5.10425 14.3827 5.10425 14.5208V15.3423C5.10425 15.4804 5.21618 15.5923 5.35425 15.5923H7.17364L7.17582 15.5923L7.178 15.5923H18.4598L18.4619 15.5923L18.4641 15.5923H21.9889H26.3975C26.8117 15.5923 27.1475 15.9281 27.1475 16.3423C27.1475 16.7565 26.8117 17.0923 26.3975 17.0923H21.9889H19.2119V20.5746V27.6284V30.45C19.2119 30.8642 18.8762 31.2 18.4619 31.2C18.0477 31.2 17.7119 30.8642 17.7119 30.45V28.3784L7.92582 28.3784V30.45C7.92582 30.8642 7.59003 31.2 7.17582 31.2C6.76161 31.2 6.42582 30.8642 6.42582 30.45V27.6364L6.42578 27.6284L6.42582 27.6205V26.9231C6.42582 26.5088 6.76161 26.1731 7.17582 26.1731C7.57506 26.1731 7.90143 26.485 7.92452 26.8784L17.7119 26.8784V21.3246H7.92582V23.3961C7.92582 23.8104 7.59003 24.1461 7.17582 24.1461C6.76161 24.1461 6.42582 23.8104 6.42582 23.3961V20.5826L6.42578 20.5746L6.42582 20.5666V17.0923H5.35425C4.38775 17.0923 3.60425 16.3088 3.60425 15.3423V14.5208C3.60425 13.5543 4.38775 12.7708 5.35425 12.7708H8.7629C9.17712 12.7708 9.5129 13.1065 9.5129 13.5208C9.5129 13.935 9.17712 14.2708 8.7629 14.2708H5.35425ZM7.92582 19.8246L17.7119 19.8246V17.0923H7.92582V19.8246ZM12.4216 13.5208C12.4216 13.1065 12.7573 12.7708 13.1716 12.7708H21.9889H38.6235C39.59 12.7708 40.3735 13.5543 40.3735 14.5208V15.3423C40.3735 16.3088 39.59 17.0923 38.6235 17.0923H37.552V19.8692V23.3961V26.9231V30.45C37.552 30.8642 37.2163 31.2 36.802 31.2C36.3878 31.2 36.052 30.8642 36.052 30.45V26.9231V23.3961V19.8692V17.0923H30.8062C30.392 17.0923 30.0562 16.7565 30.0562 16.3423C30.0562 15.9281 30.392 15.5923 30.8062 15.5923H36.7999L36.802 15.5923L36.8042 15.5923H38.6235C38.7616 15.5923 38.8735 15.4804 38.8735 15.3423V14.5208C38.8735 14.3827 38.7616 14.2708 38.6235 14.2708H21.9889H13.1716C12.7573 14.2708 12.4216 13.935 12.4216 13.5208ZM11.4081 23.3515C10.9939 23.3515 10.6581 23.6873 10.6581 24.1015C10.6581 24.5157 10.9939 24.8515 11.4081 24.8515H14.2297C14.6439 24.8515 14.9797 24.5157 14.9797 24.1015C14.9797 23.6873 14.6439 23.3515 14.2297 23.3515H11.4081Z" fill="#252323"/>
</g>
<defs>
<clipPath id="clip0_611_6600">
<rect width="44" height="44" fill="white"/>
</clipPath>
</defs>
</svg>
