<svg width="23" height="23" viewBox="0 0 23 23" fill="none" xmlns="http://www.w3.org/2000/svg">
<g clip-path="url(#clip0_611_6550)">
<path fill-rule="evenodd" clip-rule="evenodd" d="M3.01357 8.54252H11.4942H13.7987H16.1033H19.9749C20.3822 8.54252 20.7123 8.21236 20.7123 7.80507C20.7123 7.39779 20.3822 7.06763 19.9749 7.06763H11.4942H6.88517H4.58065H3.01357C2.60629 7.06763 2.27612 7.39779 2.27612 7.80507C2.27612 8.21236 2.60629 8.54252 3.01357 8.54252ZM9.58342 10.7812V14.3749H3.83341V10.7812H9.58342Z" fill="#E05149"/>
<path fill-rule="evenodd" clip-rule="evenodd" d="M3.01352 7.74282C2.97903 7.74282 2.95107 7.77078 2.95107 7.80527C2.95107 7.83976 2.97903 7.86772 3.01352 7.86772H3.74953L3.75099 7.86772L3.75245 7.86772H9.64909L9.65055 7.86772L9.65201 7.86772H11.4942H13.7987C14.1715 7.86772 14.4737 8.16993 14.4737 8.54272C14.4737 8.91551 14.1715 9.21772 13.7987 9.21772H11.4942H10.3255V10.7551V14.4423V15.9172C10.3255 16.29 10.0233 16.5922 9.65055 16.5922C9.27776 16.5922 8.97555 16.29 8.97555 15.9172V15.1173H4.42599V15.9172C4.42599 16.29 4.12378 16.5922 3.75099 16.5922C3.37819 16.5922 3.07599 16.29 3.07599 15.9172V14.4477L3.07597 14.4423L3.07599 14.4369V14.0736C3.07599 13.7008 3.37819 13.3986 3.75099 13.3986C4.01351 13.3986 4.24104 13.5484 4.35266 13.7673L8.97555 13.7673V11.4301L4.42599 11.4301V12.23C4.42599 12.6027 4.12378 12.905 3.75099 12.905C3.37819 12.905 3.07599 12.6027 3.07599 12.23V10.7605L3.07597 10.7551L3.07599 10.7496V9.21772H3.01352C2.23345 9.21772 1.60107 8.58534 1.60107 7.80527C1.60107 7.0252 2.23345 6.39282 3.01352 6.39282H4.5806C4.95339 6.39282 5.2556 6.69503 5.2556 7.06782C5.2556 7.44061 4.95339 7.74282 4.5806 7.74282H3.01352ZM4.42599 10.0801L8.97555 10.0801V9.21772H4.42599V10.0801ZM6.21012 7.06782C6.21012 6.69503 6.51233 6.39282 6.88512 6.39282H11.4942H19.9748C20.7549 6.39282 21.3873 7.0252 21.3873 7.80527C21.3873 8.58534 20.7549 9.21772 19.9748 9.21772H19.9124V10.3863V12.23V14.0736V15.9172C19.9124 16.29 19.6102 16.5922 19.2374 16.5922C18.8646 16.5922 18.5624 16.29 18.5624 15.9172V14.0736V12.23V10.3863V9.21772H16.1032C15.7304 9.21772 15.4282 8.91551 15.4282 8.54272C15.4282 8.16993 15.7304 7.86772 16.1032 7.86772H19.236L19.2374 7.86772L19.2389 7.86772H19.9748C20.0093 7.86772 20.0373 7.83976 20.0373 7.80527C20.0373 7.77078 20.0093 7.74282 19.9748 7.74282H11.4942H6.88512C6.51233 7.74282 6.21012 7.44061 6.21012 7.06782ZM5.96333 11.9237C5.59053 11.9237 5.28833 12.2259 5.28833 12.5987C5.28833 12.9715 5.59053 13.2737 5.96333 13.2737H7.43822C7.81101 13.2737 8.11322 12.9715 8.11322 12.5987C8.11322 12.2259 7.81101 11.9237 7.43822 11.9237H5.96333Z" fill="#252323"/>
</g>
<defs>
<clipPath id="clip0_611_6550">
<rect width="23" height="23" fill="white"/>
</clipPath>
</defs>
</svg>
