<svg width="44" height="44" viewBox="0 0 44 44" fill="none" xmlns="http://www.w3.org/2000/svg">
<g clip-path="url(#clip0_1217_13986)">
<path d="M25.6667 4.58325H17.875L13.9272 11.9166H29.5104L25.6667 4.58325Z" fill="#E05149"/>
<path fill-rule="evenodd" clip-rule="evenodd" d="M16.9357 4.57162C17.2322 3.97875 17.8381 3.60425 18.501 3.60425H25.3014C25.9643 3.60425 26.5702 3.97875 26.8667 4.57162L27.5948 6.02797C27.7801 6.39845 27.6299 6.84896 27.2594 7.0342C26.889 7.21944 26.4384 7.06927 26.2532 6.69879L25.525 5.24245C25.4827 5.15775 25.3961 5.10425 25.3014 5.10425H18.501C18.4063 5.10425 18.3197 5.15775 18.2774 5.24244L15.0782 11.6408H28.7242L27.2578 8.70792C27.0725 8.33744 27.2227 7.88693 27.5932 7.70169C27.9637 7.51645 28.4142 7.66662 28.5994 8.0371L30.6018 12.0419C30.6309 12.0971 30.6532 12.1563 30.6679 12.2185C30.6888 12.3069 30.693 12.3968 30.682 12.4843C30.6553 12.6952 30.5395 12.8913 30.354 13.0148C30.2808 13.0637 30.1986 13.1 30.1103 13.1208C30.0481 13.1356 29.985 13.1421 29.9226 13.1408H22.6512V27.9584C22.6512 28.3726 22.3154 28.7084 21.9012 28.7084C21.487 28.7084 21.1512 28.3726 21.1512 27.9584V13.1408H19.427V16.5001C19.427 16.9143 19.0912 17.2501 18.677 17.2501C18.2628 17.2501 17.927 16.9143 17.927 16.5001V13.1408H13.8798C13.8174 13.1421 13.7544 13.1356 13.6922 13.1209C13.6038 13.1001 13.5215 13.0636 13.4482 13.0146C13.3565 12.9536 13.2818 12.8747 13.2265 12.7851C13.1238 12.6184 13.0881 12.4145 13.1346 12.2184C13.1492 12.1562 13.1716 12.097 13.2006 12.0419L16.9357 4.57162ZM21.9012 31.9832C22.3154 31.9832 22.6512 32.319 22.6512 32.7332V38.7641H27.9286C28.3428 38.7641 28.6786 39.0998 28.6786 39.5141C28.6786 39.9283 28.3428 40.2641 27.9286 40.2641H21.9036L21.9012 40.2641L21.8988 40.2641H15.8738C15.4596 40.2641 15.1238 39.9283 15.1238 39.5141C15.1238 39.0998 15.4596 38.7641 15.8738 38.7641H21.1512V32.7332C21.1512 32.319 21.487 31.9832 21.9012 31.9832Z" fill="#252323"/>
</g>
<defs>
<clipPath id="clip0_1217_13986">
<rect width="44" height="44" fill="white"/>
</clipPath>
</defs>
</svg>
