<svg width="28" height="28" viewBox="0 0 28 28" fill="none" xmlns="http://www.w3.org/2000/svg">
<g clip-path="url(#clip0_1217_13987)">
<path d="M16.3334 2.91675H11.375L8.86274 7.58342H18.7793L16.3334 2.91675Z" fill="#E05149"/>
<path fill-rule="evenodd" clip-rule="evenodd" d="M10.4328 2.98813C10.7292 2.39526 11.3352 2.02075 11.998 2.02075H15.8761C16.539 2.02075 17.1449 2.39526 17.4414 2.98813L17.8042 3.71388C17.9895 4.08436 17.8393 4.53487 17.4688 4.72011C17.0983 4.90535 16.6478 4.75518 16.4626 4.3847L16.0997 3.65895C16.0574 3.57425 15.9708 3.52075 15.8761 3.52075H11.998C11.9033 3.52075 11.8168 3.57425 11.7744 3.65895L10.0364 7.13491H17.8377L17.7411 6.94178C17.5559 6.57129 17.7061 6.12079 18.0765 5.93555C18.447 5.75031 18.8975 5.90047 19.0828 6.27096L19.7153 7.536C19.7444 7.59119 19.7667 7.65045 19.7814 7.7127C19.8023 7.80099 19.8065 7.89088 19.7955 7.97825C19.7688 8.18916 19.6531 8.38535 19.4676 8.5088C19.3944 8.55775 19.3121 8.59416 19.2238 8.61496C19.1615 8.62973 19.0985 8.63622 19.0361 8.63491H14.6871V17.7916C14.6871 18.2058 14.3513 18.5416 13.9371 18.5416C13.5229 18.5416 13.1871 18.2058 13.1871 17.7916V8.63491H12.6353V10.4999C12.6353 10.9141 12.2995 11.2499 11.8853 11.2499C11.4711 11.2499 11.1353 10.9141 11.1353 10.4999L11.1353 8.63491H8.83803C8.77563 8.63622 8.71259 8.62973 8.65035 8.61496C8.56204 8.59416 8.47976 8.55776 8.40657 8.50883C8.31478 8.44774 8.24007 8.36884 8.18478 8.27915C8.08204 8.11251 8.04637 7.90863 8.0928 7.71262C8.10743 7.6504 8.1298 7.59116 8.15885 7.53599L10.4328 2.98813ZM13.9371 20.0801C14.3513 20.0801 14.6871 20.4159 14.6871 20.8301L14.6871 24.3952H17.7727C18.1869 24.3952 18.5227 24.731 18.5227 25.1452C18.5227 25.5594 18.1869 25.8952 17.7727 25.8952L13.9371 25.8952L10.1015 25.8952C9.68724 25.8952 9.35146 25.5594 9.35146 25.1452C9.35146 24.731 9.68724 24.3952 10.1015 24.3952H13.1871L13.1871 20.8301C13.1871 20.4159 13.5229 20.0801 13.9371 20.0801Z" fill="#252323"/>
</g>
<defs>
<clipPath id="clip0_1217_13987">
<rect width="28" height="28" fill="white"/>
</clipPath>
</defs>
</svg>
