<svg width="23" height="23" viewBox="0 0 23 23" fill="none" xmlns="http://www.w3.org/2000/svg">
<g clip-path="url(#clip0_1217_13952)">
<path fill-rule="evenodd" clip-rule="evenodd" d="M8.5125 2.5494C8.78776 1.99888 9.35044 1.65112 9.96594 1.65112H12.9308C13.5463 1.65112 14.109 1.99888 14.3842 2.5494L14.633 3.04684C14.7873 3.35558 14.6622 3.731 14.3534 3.88537C14.0447 4.03974 13.6693 3.9146 13.5149 3.60586L13.2662 3.10842C13.2027 2.98137 13.0728 2.90112 12.9308 2.90112H9.96594C9.8239 2.90112 9.69405 2.98137 9.63053 3.10842L8.25872 5.85204L11.4484 5.85204L14.638 5.85204L14.5651 5.70632C14.4108 5.39758 14.5359 5.02216 14.8447 4.86779C15.1534 4.71342 15.5288 4.83856 15.6832 5.1473L16.2027 6.18629C16.2269 6.23221 16.2455 6.2815 16.2577 6.33328C16.2751 6.40689 16.2787 6.48184 16.2695 6.55468C16.2473 6.73056 16.1508 6.89416 15.9961 6.99706C15.9351 7.0378 15.8666 7.06811 15.793 7.08542C15.7412 7.09772 15.6887 7.10313 15.6367 7.10204H12.0734V14.6147C12.0734 14.9598 11.7935 15.2397 11.4484 15.2397C11.1032 15.2397 10.8234 14.9598 10.8234 14.6147V7.10204H9.82489L9.82489 8.62508C9.82489 8.97026 9.54507 9.25008 9.19989 9.25008C8.85471 9.25008 8.57489 8.97026 8.57489 8.62508L8.57489 7.10204H7.26003C7.20807 7.10313 7.15556 7.09772 7.10371 7.08543C7.03015 7.06812 6.96161 7.03781 6.90063 6.99706C6.8241 6.94616 6.76182 6.88041 6.71572 6.80566C6.63006 6.66676 6.60031 6.4968 6.63903 6.33341C6.65122 6.28158 6.66986 6.23224 6.69406 6.18628L8.5125 2.5494ZM11.4484 16.4856C11.7935 16.4856 12.0734 16.7654 12.0734 17.1106L12.0734 20.0301H14.599C14.9442 20.0301 15.224 20.3099 15.224 20.6551C15.224 21.0003 14.9442 21.2801 14.599 21.2801H11.4499L11.4484 21.2801L11.4468 21.2801H8.29768C7.9525 21.2801 7.67268 21.0003 7.67268 20.6551C7.67268 20.3099 7.9525 20.0301 8.29768 20.0301H10.8234L10.8234 17.1106C10.8234 16.7654 11.1032 16.4856 11.4484 16.4856Z" fill="#252323"/>
</g>
<defs>
<clipPath id="clip0_1217_13952">
<rect width="23" height="23" fill="white"/>
</clipPath>
</defs>
</svg>
