<svg width="28" height="28" viewBox="0 0 28 28" fill="none" xmlns="http://www.w3.org/2000/svg">
<g clip-path="url(#clip0_611_6525)">
<path fill-rule="evenodd" clip-rule="evenodd" d="M3.66851 10.3998H13.9928H16.7983H19.6038H24.3171C24.8129 10.3998 25.2148 9.99783 25.2148 9.50201C25.2148 9.00619 24.8129 8.60425 24.3171 8.60425H13.9928H8.38177H5.57626H3.66851C3.17269 8.60425 2.77075 9.00619 2.77075 9.50201C2.77075 9.99783 3.17269 10.3998 3.66851 10.3998ZM11.6666 13.1251V17.5001H4.66659V13.1251H11.6666Z" fill="#E05149"/>
<path fill-rule="evenodd" clip-rule="evenodd" d="M3.66851 9.35425C3.58691 9.35425 3.52075 9.4204 3.52075 9.50201C3.52075 9.58362 3.58691 9.64977 3.66851 9.64977H4.56444L4.5663 9.64977L4.56816 9.64977H11.7465L11.7484 9.64977L11.7502 9.64977H13.9928H16.7983C17.2125 9.64977 17.5483 9.98556 17.5483 10.3998C17.5483 10.814 17.2125 11.1498 16.7983 11.1498H13.9928H12.4984V13.0931V17.5819V19.3774C12.4984 19.7916 12.1626 20.1274 11.7484 20.1274C11.3342 20.1274 10.9984 19.7916 10.9984 19.3774V18.3319L5.3163 18.3319V19.3774C5.3163 19.7916 4.98051 20.1274 4.5663 20.1274C4.15208 20.1274 3.8163 19.7916 3.8163 19.3774V17.5882L3.81627 17.5819L3.8163 17.5755V17.133C3.8163 16.7188 4.15208 16.383 4.5663 16.383C4.87341 16.383 5.13741 16.5676 5.2534 16.8319L10.9984 16.8319V13.8431L5.3163 13.8431V14.8886C5.3163 15.3028 4.98051 15.6386 4.5663 15.6386C4.15208 15.6386 3.8163 15.3028 3.8163 14.8886V13.0994L3.81627 13.0931L3.8163 13.0867V11.1498H3.66851C2.75848 11.1498 2.02075 10.412 2.02075 9.50201C2.02075 8.59198 2.75848 7.85425 3.66851 7.85425H5.57626C5.99047 7.85425 6.32626 8.19003 6.32626 8.60425C6.32626 9.01846 5.99047 9.35425 5.57626 9.35425H3.66851ZM5.3163 12.3431L10.9984 12.3431V11.1498H5.3163V12.3431ZM7.63177 8.60425C7.63177 8.19003 7.96755 7.85425 8.38177 7.85425H13.9928H24.3171C25.2271 7.85425 25.9648 8.59198 25.9648 9.50201C25.9648 10.412 25.2271 11.1498 24.3171 11.1498H24.1693V12.6442V14.8886V17.133V19.3774C24.1693 19.7916 23.8336 20.1274 23.4193 20.1274C23.0051 20.1274 22.6693 19.7916 22.6693 19.3774V17.133V14.8886V12.6442V11.1498H19.6038C19.1896 11.1498 18.8538 10.814 18.8538 10.3998C18.8538 9.98556 19.1896 9.64977 19.6038 9.64977H23.4175L23.4193 9.64977L23.4212 9.64977H24.3171C24.3987 9.64977 24.4648 9.58362 24.4648 9.50201C24.4648 9.4204 24.3987 9.35425 24.3171 9.35425H13.9928H8.38177C7.96755 9.35425 7.63177 9.01846 7.63177 8.60425ZM7.25958 14.5875C6.84537 14.5875 6.50958 14.9233 6.50958 15.3375C6.50958 15.7517 6.84537 16.0875 7.25958 16.0875H9.05511C9.46932 16.0875 9.80511 15.7517 9.80511 15.3375C9.80511 14.9233 9.46932 14.5875 9.05511 14.5875H7.25958Z" fill="#332A2A"/>
</g>
<defs>
<clipPath id="clip0_611_6525">
<rect width="28" height="28" fill="white"/>
</clipPath>
</defs>
</svg>
