<svg width="23" height="23" viewBox="0 0 23 23" fill="none" xmlns="http://www.w3.org/2000/svg">
<g clip-path="url(#clip0_611_6550)">
<path fill-rule="evenodd" clip-rule="evenodd" d="M3.01357 8.54252H11.4942H13.7987H16.1033H19.9749C20.3822 8.54252 20.7123 8.21236 20.7123 7.80507C20.7123 7.39779 20.3822 7.06763 19.9749 7.06763H11.4942H6.88517H4.58065H3.01357C2.60629 7.06763 2.27612 7.39779 2.27612 7.80507C2.27612 8.21236 2.60629 8.54252 3.01357 8.54252ZM9.58342 10.7812V14.3749H3.83341V10.7812H9.58342Z" fill="#E05149"/>
<path d="M4.63062 6.44263C5.00333 6.44272 5.30542 6.74469 5.30542 7.11743C5.30542 7.49017 5.00333 7.79215 4.63062 7.79224H3.06323C3.02886 7.79231 3.00081 7.82036 3.00073 7.85474C3.00073 7.88918 3.02881 7.91716 3.06323 7.91724H13.8484C14.2211 7.91724 14.523 8.21938 14.5232 8.59204C14.5232 8.96483 14.2212 9.26685 13.8484 9.26685H10.3748V15.9661C10.3748 16.3389 10.0727 16.6418 9.69995 16.6418C9.32737 16.6416 9.02515 16.3387 9.02515 15.9661V15.1663H4.47534V15.9661C4.47534 16.3389 4.17333 16.6418 3.80054 16.6418C3.42788 16.6417 3.12573 16.3388 3.12573 15.9661V14.1233C3.12589 13.7507 3.42798 13.4477 3.80054 13.4475C4.06223 13.4475 4.28625 13.5987 4.39819 13.8167H9.02515V11.4797H4.47534V12.2795C4.4752 12.6522 4.17324 12.9543 3.80054 12.9543C3.42797 12.9542 3.12587 12.6521 3.12573 12.2795V9.26685H3.06323C2.28322 9.26677 1.65112 8.63476 1.65112 7.85474C1.6512 7.07478 2.28327 6.4427 3.06323 6.44263H4.63062ZM20.0251 6.44263C20.805 6.44288 21.4372 7.07489 21.4373 7.85474C21.4373 8.63465 20.805 9.26659 20.0251 9.26685H19.9617V15.9661C19.9617 16.3389 19.6597 16.6418 19.2869 16.6418C18.9143 16.6416 18.6121 16.3387 18.6121 15.9661V9.26685H16.1531C15.7803 9.26685 15.4783 8.96483 15.4783 8.59204C15.4784 8.21938 15.7804 7.91724 16.1531 7.91724H20.0251C20.0594 7.91698 20.0867 7.88907 20.0867 7.85474C20.0866 7.82047 20.0594 7.79249 20.0251 7.79224H6.9353C6.56251 7.79224 6.25952 7.49022 6.25952 7.11743C6.25952 6.74464 6.56251 6.44263 6.9353 6.44263H20.0251ZM7.48804 11.9739C7.86072 11.974 8.16284 12.276 8.16284 12.6487C8.16263 13.0212 7.86058 13.3234 7.48804 13.3235H6.01343C5.64077 13.3235 5.33884 13.0213 5.33862 12.6487C5.33862 12.2759 5.64064 11.9739 6.01343 11.9739H7.48804ZM4.47534 10.1301H9.02515V9.26685H4.47534V10.1301Z" fill="#332A2A"/>
</g>
<defs>
<clipPath id="clip0_611_6550">
<rect width="23" height="23" fill="white"/>
</clipPath>
</defs>
</svg>
