<svg width="18" height="18" viewBox="0 0 18 18" fill="none" xmlns="http://www.w3.org/2000/svg">
<g clip-path="url(#clip0_1217_13989)">
<path d="M10.5 1.875H7.31252L5.69748 4.875H12.0724L10.5 1.875Z" fill="#E05149"/>
<path fill-rule="evenodd" clip-rule="evenodd" d="M6.59221 2.11043C6.8463 1.60225 7.3657 1.28125 7.93385 1.28125H9.98546C10.5536 1.28125 11.073 1.60225 11.3271 2.11043L11.4617 2.37956C11.5852 2.62655 11.485 2.92689 11.2381 3.05038C10.9911 3.17388 10.6907 3.07376 10.5672 2.82677L10.4327 2.55764C10.348 2.38825 10.1748 2.28125 9.98546 2.28125H7.93385C7.74447 2.28125 7.57134 2.38825 7.48664 2.55764L6.481 4.56892H8.95965H11.4383L11.3892 4.47061C11.2657 4.22362 11.3658 3.92328 11.6128 3.79979C11.8598 3.6763 12.1601 3.77641 12.2836 4.0234L12.69 4.83631C12.7094 4.87308 12.7243 4.91255 12.7341 4.95402C12.7479 5.01256 12.7508 5.07215 12.7436 5.13009C12.7255 5.27834 12.6426 5.40655 12.524 5.48547C12.4754 5.51782 12.4208 5.54188 12.3622 5.55566C12.3208 5.56548 12.2788 5.56979 12.2373 5.56892H9.45965V11.4375C9.45965 11.7136 9.23579 11.9375 8.95965 11.9375C8.68351 11.9375 8.45965 11.7136 8.45965 11.4375V5.56892H8.14067L8.14067 6.75C8.14067 7.02614 7.91682 7.25 7.64067 7.25C7.36453 7.25 7.14067 7.02614 7.14067 6.75L7.14067 5.56892H5.68203C5.64049 5.56979 5.59852 5.56548 5.55708 5.55566C5.49852 5.54188 5.44393 5.51782 5.39533 5.48547C5.33374 5.44468 5.28364 5.39188 5.2466 5.33182C5.17807 5.2207 5.15427 5.08473 5.18525 4.95402C5.195 4.91256 5.20991 4.87309 5.22927 4.83632L6.59221 2.11043ZM8.95965 12.8908C9.23579 12.8908 9.45965 13.1147 9.45965 13.3908L9.45965 15.6648H11.4254C11.7016 15.6648 11.9254 15.8887 11.9254 16.1648C11.9254 16.441 11.7016 16.6648 11.4254 16.6648H8.96104L8.95965 16.6648L8.95825 16.6648H6.4939C6.21776 16.6648 5.9939 16.441 5.9939 16.1648C5.9939 15.8887 6.21776 15.6648 6.4939 15.6648H8.45965L8.45965 13.3908C8.45965 13.1147 8.68351 12.8908 8.95965 12.8908Z" fill="#252323"/>
</g>
<defs>
<clipPath id="clip0_1217_13989">
<rect width="18" height="18" fill="white"/>
</clipPath>
</defs>
</svg>
