<svg width="23" height="23" viewBox="0 0 23 23" fill="none" xmlns="http://www.w3.org/2000/svg">
<g clip-path="url(#clip0_1217_13952)">
<path d="M11.4983 16.4861C11.871 16.4862 12.1731 16.7881 12.1731 17.1609V20.03H14.6497C15.0221 20.0305 15.3244 20.3323 15.3245 20.7048C15.3245 21.0774 15.0221 21.3792 14.6497 21.3796H11.5081C11.5048 21.3797 11.5016 21.3806 11.4983 21.3806C11.4951 21.3806 11.4917 21.3797 11.4885 21.3796H8.3479C7.97511 21.3796 7.6731 21.0776 7.6731 20.7048C7.67314 20.3321 7.97514 20.03 8.3479 20.03H10.8235V17.1609C10.8235 16.7881 11.1255 16.4861 11.4983 16.4861ZM12.9807 1.65112C13.615 1.65122 14.1951 2.00955 14.4788 2.5769L14.7278 3.07397C14.8945 3.40741 14.7585 3.81351 14.425 3.98022C14.0918 4.14644 13.6865 4.01148 13.5198 3.67847L13.2708 3.18042C13.2157 3.07059 13.1036 3.00083 12.9807 3.00073H10.0159C9.89286 3.00078 9.7799 3.07042 9.72485 3.18042L8.38892 5.85229H14.6077L14.5706 5.77808C14.404 5.44471 14.539 5.03952 14.8723 4.8728C15.2056 4.70636 15.6109 4.84137 15.7776 5.17456L16.303 6.22534C16.3055 6.2303 16.3065 6.23598 16.3088 6.24097C16.3201 6.2649 16.3287 6.28981 16.3372 6.31519C16.3435 6.33414 16.3502 6.35265 16.3547 6.37183C16.3594 6.39166 16.3616 6.4119 16.3645 6.43237C16.3681 6.45756 16.3716 6.4824 16.3723 6.50757C16.3725 6.51399 16.3743 6.52064 16.3743 6.5271C16.3743 6.54095 16.3702 6.55447 16.3694 6.56812C16.368 6.59081 16.3662 6.61315 16.3625 6.6355C16.3584 6.66087 16.3528 6.68538 16.3459 6.70972C16.3414 6.72583 16.337 6.74184 16.3313 6.75757C16.3228 6.78092 16.312 6.80289 16.301 6.82495C16.2913 6.84461 16.2814 6.86389 16.2698 6.88257C16.2594 6.89912 16.2483 6.91487 16.2366 6.93042C16.222 6.94986 16.2064 6.96819 16.1897 6.98608C16.1766 7.00008 16.163 7.01328 16.1487 7.02612C16.1315 7.04157 16.1139 7.05628 16.095 7.07007C16.0768 7.0833 16.0578 7.0948 16.0383 7.1062C16.0257 7.1136 16.0145 7.12396 16.0012 7.13062C15.9932 7.13462 15.9839 7.13575 15.9758 7.1394C15.9596 7.14676 15.9429 7.15286 15.926 7.15894C15.9007 7.16806 15.8756 7.17643 15.8499 7.18237C15.8322 7.18642 15.8143 7.18853 15.7961 7.19116C15.7696 7.19503 15.7436 7.19927 15.717 7.19995C15.7109 7.20012 15.7047 7.2019 15.6985 7.2019H12.1731V14.6648C12.1729 15.0374 11.8709 15.3395 11.4983 15.3396C11.1256 15.3396 10.8237 15.0374 10.8235 14.6648V7.2019H9.92407V8.67554C9.92372 9.04803 9.62184 9.35034 9.24927 9.35034C8.87689 9.35011 8.57481 9.04789 8.57446 8.67554V7.2019H7.29712C7.29057 7.2019 7.28409 7.20014 7.27759 7.19995C7.25178 7.19922 7.22626 7.1959 7.20044 7.19214C7.18128 7.18938 7.1624 7.18671 7.1438 7.18237C7.12034 7.17686 7.09758 7.16904 7.07446 7.16089C7.05485 7.154 7.03558 7.14703 7.01685 7.13843C7.01001 7.13529 7.00214 7.13401 6.99536 7.13062C6.98244 7.12415 6.97155 7.11434 6.95923 7.10718C6.93873 7.09521 6.91871 7.08308 6.89966 7.06909C6.88285 7.05679 6.8672 7.04365 6.85181 7.03003C6.8345 7.0147 6.81765 6.99919 6.802 6.98218C6.78733 6.96621 6.77395 6.94955 6.76099 6.93237C6.74869 6.91614 6.73664 6.8999 6.72583 6.88257C6.71401 6.86353 6.70344 6.84402 6.6936 6.82397C6.68337 6.80322 6.67338 6.78239 6.66528 6.7605C6.65892 6.74325 6.6546 6.72547 6.64966 6.70776C6.64305 6.68404 6.63706 6.66019 6.63306 6.6355C6.6294 6.61318 6.62763 6.59078 6.62622 6.56812C6.6254 6.5545 6.62232 6.54092 6.62231 6.5271C6.62231 6.52065 6.62311 6.51398 6.62329 6.50757C6.624 6.48244 6.62752 6.45752 6.6311 6.43237C6.63397 6.41194 6.63621 6.39163 6.64087 6.37183C6.64541 6.35269 6.65215 6.33411 6.65845 6.31519C6.66684 6.28983 6.67555 6.26488 6.68677 6.24097C6.68917 6.23584 6.69106 6.23044 6.6936 6.22534L8.51782 2.5769C8.80155 2.00954 9.38152 1.65117 10.0159 1.65112H12.9807Z" fill="#332A2A"/>
</g>
<defs>
<clipPath id="clip0_1217_13952">
<rect width="23" height="23" fill="white"/>
</clipPath>
</defs>
</svg>
