<svg width="18" height="18" viewBox="0 0 18 18" fill="none" xmlns="http://www.w3.org/2000/svg">
<g clip-path="url(#clip0_611_6603)">
<path fill-rule="evenodd" clip-rule="evenodd" d="M3.91736 6.06052C4.09305 5.94989 4.20979 5.7542 4.20979 5.53125C4.20979 5.18607 3.92997 4.90625 3.58479 4.90625H2.35838C1.69446 4.90625 1.15625 5.44446 1.15625 6.10838C1.15625 6.75628 1.66879 7.28446 2.31053 7.30958V8.41236L2.31051 8.41691L2.31053 8.42146V9.57118C2.31053 9.91636 2.59035 10.1962 2.93553 10.1962C3.28071 10.1962 3.56053 9.91636 3.56053 9.57118V9.04191L6.92758 9.04191V10.6776L3.46235 10.6776C3.35129 10.504 3.15684 10.389 2.93553 10.389C2.59035 10.389 2.31053 10.6688 2.31053 11.014V11.298L2.31051 11.3026L2.31053 11.3071V12.4568C2.31053 12.802 2.59035 13.0818 2.93553 13.0818C3.28071 13.0818 3.56053 12.802 3.56053 12.4568V11.9276L6.92758 11.9276V12.4568C6.92758 12.802 7.2074 13.0818 7.55258 13.0818C7.89776 13.0818 8.17758 12.802 8.17758 12.4568V11.3026V8.41691V7.31052H8.99541H10.799C11.1441 7.31052 11.424 7.03069 11.424 6.68552C11.424 6.46256 11.3072 6.26688 11.1315 6.15625H12.2699C12.0942 6.26688 11.9775 6.46256 11.9775 6.68552C11.9775 7.03069 12.2573 7.31052 12.6025 7.31052H14.4303V8.12835V9.57118V11.014V12.4568C14.4303 12.802 14.7102 13.0818 15.0553 13.0818C15.4005 13.0818 15.6803 12.802 15.6803 12.4568V11.014V9.57118V8.12835V7.30958C16.3221 7.28443 16.8346 6.75626 16.8346 6.10838C16.8346 5.44446 16.2964 4.90625 15.6324 4.90625H8.99541H5.38833C5.04315 4.90625 4.76333 5.18607 4.76333 5.53125C4.76333 5.7542 4.88007 5.94989 5.05576 6.06052H3.91736ZM6.92758 7.79191V7.31052H3.56053V7.79191L6.92758 7.79191ZM4.66693 9.23475C4.32175 9.23475 4.04193 9.51457 4.04193 9.85975C4.04193 10.2049 4.32175 10.4847 4.66693 10.4847H5.82119C6.16637 10.4847 6.44619 10.2049 6.44619 9.85975C6.44619 9.51457 6.16637 9.23475 5.82119 9.23475H4.66693Z" fill="#252323"/>
</g>
<defs>
<clipPath id="clip0_611_6603">
<rect width="18" height="18" fill="white"/>
</clipPath>
</defs>
</svg>
