<svg width="44" height="44" viewBox="0 0 44 44" fill="none" xmlns="http://www.w3.org/2000/svg">
<g clip-path="url(#clip0_960_10854)">
<path d="M35.75 16.5V25.3682C34.9165 24.9721 33.9842 24.75 33 24.75C32.016 24.75 31.0834 24.9713 30.25 25.3672V24.75H25.208V31.625H26.5996C26.7309 33.4829 27.6537 35.1216 29.0322 36.208H8.25V16.042L21.542 6.875L35.75 16.5ZM33.7197 27.8818C33.8353 27.8819 33.9479 27.9183 34.042 27.9854L35.0898 28.7334C35.1839 28.8005 35.2966 28.8368 35.4121 28.8369H36.3018C36.6085 28.8369 36.8574 29.0858 36.8574 29.3926V33.5332C36.8572 33.8399 36.6085 34.0889 36.3018 34.0889H30.1562C29.8496 34.0888 29.6008 33.8398 29.6006 33.5332V29.3926C29.6007 29.0859 29.8495 28.837 30.1562 28.8369H30.8545C30.9702 28.8369 31.0835 28.8006 31.1777 28.7334L32.2246 27.9854C32.3188 27.9181 32.4321 27.8819 32.5479 27.8818H33.7197ZM33.2295 29.3711C32.2805 29.3712 31.511 30.1409 31.5107 31.0898C31.5107 32.039 32.2803 32.8085 33.2295 32.8086C33.6906 32.8085 34.1094 32.6267 34.418 32.3311C34.7444 32.0182 34.9482 31.5777 34.9482 31.0898C34.948 30.141 34.1784 29.3713 33.2295 29.3711ZM14.208 31.625H19.25V24.75H14.208V31.625ZM22 13.292C19.7084 13.2922 16.5002 15.1254 16.5 19.25H27.041C27.0409 16.5001 26.0329 13.2922 22 13.292Z" fill="#E05149"/>
<path fill-rule="evenodd" clip-rule="evenodd" d="M13.7886 11.3034C14.1272 11.0648 14.5949 11.1464 14.8336 11.485C15.0721 11.8236 14.9914 12.2914 14.6529 12.5299L8.9999 16.5136V17.3252H9.6249C10.039 17.3252 10.3747 17.6611 10.3749 18.0752C10.3749 18.4894 10.0391 18.8252 9.6249 18.8252H8.9999V21.542C8.99972 21.9561 8.664 22.292 8.2499 22.292C7.83579 22.292 7.50007 21.9561 7.4999 21.542V17.5707L6.84821 18.03C6.50966 18.2682 6.04181 18.1868 5.80328 17.8483C5.565 17.5098 5.64647 17.0419 5.98493 16.8034L13.7886 11.3034ZM20.439 6.61686C21.3902 5.94652 22.6607 5.94712 23.6109 6.61882L28.1249 9.81053V8.79167C28.1249 7.82517 28.9084 7.04167 29.8749 7.04167H31.9999C32.9664 7.04167 33.7499 7.82517 33.7499 8.79167V10.0837C33.7497 10.4977 33.414 10.8337 32.9999 10.8337C32.5858 10.8337 32.2501 10.4977 32.2499 10.0837V8.79167C32.2499 8.6536 32.138 8.54167 31.9999 8.54167H29.8749C29.7368 8.54167 29.6249 8.6536 29.6249 8.79167V10.8711L32.2499 12.7272V11.9167C32.2499 11.5025 32.5857 11.1667 32.9999 11.1667C33.4141 11.1667 33.7499 11.5025 33.7499 11.9167V13.7497C33.7499 13.7622 33.7496 13.7747 33.749 13.7872L38.0162 16.8044C38.3543 17.0434 38.4347 17.5111 38.1959 17.8493C37.9567 18.1875 37.4882 18.2681 37.15 18.029L36.4999 17.5694V24.8301C36.4999 24.8488 36.4992 24.8673 36.4978 24.8856C37.5213 25.4478 38.393 26.2513 39.0364 27.2188C39.2657 27.5637 39.1723 28.0295 38.8274 28.2588C38.4824 28.4881 38.0167 28.3947 37.7873 28.0498C36.7645 26.5115 35.018 25.5 33.0354 25.5C29.8862 25.5 27.3333 28.053 27.3332 31.2022C27.3332 34.3514 29.8862 36.9043 33.0354 36.9043C36.1846 36.9043 38.7375 34.3514 38.7375 31.2022C38.7375 30.788 39.0734 30.4522 39.4875 30.4522C39.9017 30.4522 40.2375 30.788 40.2375 31.2022C40.2375 35.1798 37.013 38.4043 33.0354 38.4043C31.7067 38.4043 30.462 38.0445 29.3935 37.417H10.2499C8.73122 37.417 7.50007 36.1856 7.4999 34.667V26.583C7.50007 26.169 7.83579 25.833 8.2499 25.833C8.664 25.833 8.99972 26.169 8.9999 26.583V34.667C9.00007 35.3572 9.55965 35.917 10.2499 35.917H27.5909C26.69 34.8777 26.0818 33.5778 25.8945 32.1455H25.7499C24.7834 32.1455 23.9999 31.362 23.9999 30.3955V25.0625C23.9999 24.096 24.7834 23.3125 25.7499 23.3125H29.2499C29.9586 23.3125 30.5688 23.7337 30.844 24.3395C31.535 24.119 32.2713 24 33.0354 24C33.7165 24 34.3755 24.0946 34.9999 24.2713V20.6592H33.9169C33.5028 20.6592 33.1671 20.3233 33.1669 19.9092C33.1669 19.495 33.5027 19.1592 33.9169 19.1592H34.9999V18.8252H32.0829C31.6688 18.825 31.3329 18.4893 31.3329 18.0752C31.3331 17.6613 31.669 17.3254 32.0829 17.3252H34.9999V16.5089L22.7447 7.8444C22.3128 7.53902 21.7357 7.5387 21.3033 7.84343L18.5552 9.77995C18.2167 10.0186 17.7489 9.93689 17.5103 9.59831C17.2718 9.25974 17.3524 8.79198 17.691 8.55339L20.439 6.61686ZM29.4697 24.9432C29.4273 24.8654 29.3448 24.8125 29.2499 24.8125H25.7499C25.6118 24.8125 25.4999 24.9244 25.4999 25.0625V30.3955C25.4999 30.5336 25.6118 30.6455 25.7499 30.6455H25.8544C26.0413 28.2003 27.4493 26.0968 29.4697 24.9432ZM37.4824 33.4856C37.4822 34.1375 36.9536 34.6663 36.3017 34.6663H30.1562C29.5043 34.6663 28.9757 34.1375 28.9756 33.4856V32.0833C28.9756 31.7381 29.2554 31.4583 29.6006 31.4583C29.9457 31.4583 30.2255 31.7381 30.2256 32.0833V33.4163H36.2324V32.7278C36.2325 32.3827 36.5123 32.1029 36.8574 32.1028C37.2025 32.1028 37.4823 32.3827 37.4824 32.7278V33.4856ZM37.4824 31.1663C37.4824 31.5114 37.2026 31.7913 36.8574 31.7913C36.5123 31.7912 36.2324 31.5114 36.2324 31.1663V29.4143H35.4121C35.1663 29.4143 34.9266 29.3374 34.7265 29.1946L33.6963 28.4592H32.5703L31.541 29.1946C31.3408 29.3375 31.1004 29.4143 30.8545 29.4143H30.2256V30.1018C30.2256 30.447 29.9457 30.7268 29.6006 30.7268C29.2554 30.7268 28.9756 30.447 28.9756 30.1018V29.345C28.9756 28.693 29.5042 28.1643 30.1562 28.1643H30.832L31.8613 27.429L32.0185 27.3342C32.182 27.2523 32.3633 27.2092 32.5478 27.2092H33.7197C33.904 27.2093 34.0848 27.2525 34.248 27.3342L34.4052 27.429L34.8417 27.7405C35.0151 27.5663 35.2552 27.4584 35.5204 27.4583C35.9656 27.4583 36.3403 27.7619 36.4482 28.1733C37.0311 28.2454 37.4824 28.7426 37.4824 29.345V31.1663ZM34.1041 31.1667C34.1041 30.6834 33.7123 30.2917 33.2291 30.2917C32.7458 30.2917 32.3541 30.6834 32.3541 31.1667C32.3541 31.6499 32.7458 32.0417 33.2291 32.0417C33.4641 32.0417 33.6769 31.9495 33.8345 31.7985C34.0013 31.6386 34.1041 31.4151 34.1041 31.1667ZM35.1041 31.1667C35.1041 31.699 34.8816 32.1805 34.5259 32.5212C34.1897 32.8432 33.7319 33.0417 33.2291 33.0417C32.1935 33.0417 31.3541 32.2022 31.3541 31.1667C31.3541 30.1311 32.1935 29.2917 33.2291 29.2917C34.2646 29.2917 35.1041 30.1311 35.1041 31.1667ZM26.2912 18.1038C26.2911 17.4416 25.8791 16.474 25.0715 15.6497C24.4492 15.0147 23.6493 14.5268 22.7502 14.347V18.7288H26.2912V18.1038ZM17.7082 18.7288H21.2502V14.346C20.3507 14.5257 19.5504 15.0145 18.928 15.6497C18.1203 16.474 17.7084 17.4416 17.7082 18.1038V18.7288ZM27.7912 19.4788C27.7912 19.8931 27.4555 20.2288 27.0412 20.2288H16.9582C16.544 20.2288 16.2082 19.8931 16.2082 19.4788V18.1038C16.2084 16.9329 16.8681 15.6088 17.8567 14.5999C18.8623 13.5737 20.3064 12.7708 22.0002 12.7708C23.6939 12.7709 25.1373 13.5738 26.1428 14.5999C27.1314 15.6088 27.7911 16.9329 27.7912 18.1038V19.4788ZM18.2499 25.0417C18.388 25.0417 18.4999 25.1536 18.4999 25.2917V30.6247C18.4999 30.7627 18.388 30.8747 18.2499 30.8747H14.7499C14.6118 30.8747 14.4999 30.7627 14.4999 30.6247V25.2917C14.4999 25.1536 14.6118 25.0417 14.7499 25.0417H18.2499ZM18.2499 32.3747C19.2164 32.3747 19.9999 31.5912 19.9999 30.6247V25.2917C19.9999 24.3252 19.2164 23.5417 18.2499 23.5417H14.7499C13.7834 23.5417 12.9999 24.3252 12.9999 25.2917V30.6247C12.9999 31.5912 13.7834 32.3747 14.7499 32.3747H18.2499Z" fill="#332A2A"/>
</g>
<defs>
<clipPath id="clip0_960_10854">
<rect width="44" height="44" fill="white"/>
</clipPath>
</defs>
</svg>
