<svg width="28" height="28" viewBox="0 0 28 28" fill="none" xmlns="http://www.w3.org/2000/svg">
<g clip-path="url(#clip0_2258_13293)">
<path d="M12.3147 3.62248C13.3363 2.9027 14.7005 2.90301 15.721 3.62444L18.0706 5.28557V5.05315C18.0708 4.22488 18.7423 3.55315 19.5706 3.55315H20.9622C21.7903 3.5534 22.462 4.22503 22.4622 5.05315V5.90959C22.4622 6.18399 22.313 6.42143 22.0931 6.55217C22.3131 6.6827 22.4619 6.92043 22.4622 7.19475V8.39006L25.3587 10.4389C25.6968 10.678 25.7774 11.1466 25.5384 11.4848C25.2992 11.8229 24.8307 11.9026 24.4925 11.6635L24.3899 11.5903V22.3442C24.3899 23.9753 23.0679 25.2972 21.4368 25.2973H6.28739C4.80854 25.2971 3.60966 24.0985 3.60966 22.6196V17.478C3.60994 17.064 3.94567 16.728 4.35966 16.728C4.7737 16.728 5.10937 17.064 5.10966 17.478V22.6196C5.10966 23.27 5.63697 23.7971 6.28739 23.7973H21.4368C22.2395 23.7972 22.8899 23.1468 22.8899 22.3442V13.5483H22.3548C21.9406 13.5482 21.6048 13.2124 21.6048 12.7983C21.605 12.5886 21.6915 12.3991 21.8304 12.2631H21.0696C20.6555 12.263 20.3196 11.9273 20.3196 11.5131C20.3199 11.0992 20.6556 10.7632 21.0696 10.7631H22.8899V10.5297L14.8548 4.85002C14.3526 4.49498 13.6808 4.49385 13.178 4.84807L11.7142 5.88029C11.3757 6.11883 10.9079 6.03795 10.6692 5.69963C10.4307 5.36113 10.5115 4.89335 10.8499 4.65471L12.3147 3.62248ZM11.3225 15.1215C12.1506 15.1218 12.8224 15.7934 12.8225 16.6215V20.2631C12.8225 21.0913 12.1507 21.7628 11.3225 21.7631H8.9661C8.13773 21.7631 7.46618 21.0915 7.4661 20.2631V16.6215C7.46625 15.7932 8.13777 15.1215 8.9661 15.1215H11.3225ZM19.0345 14.9613C19.8627 14.9615 20.5345 15.633 20.5345 16.4613V20.103C20.5343 20.9311 19.8626 21.6028 19.0345 21.603H16.678C15.8497 21.6029 15.1782 20.9312 15.178 20.103V16.4613C15.178 15.6329 15.8496 14.9614 16.678 14.9613H19.0345ZM8.9661 20.2631H11.3225V16.6215H8.9661V20.2631ZM16.678 20.103H19.0345V16.4613H16.678V20.103ZM8.11454 6.58244C8.45306 6.34418 8.92092 6.42474 9.15946 6.76311C9.39804 7.10164 9.31628 7.56938 8.97782 7.80803L5.10966 10.5336V10.7631H5.32353C5.73758 10.7631 6.07327 11.0991 6.07353 11.5131C6.07353 11.9273 5.73774 12.2631 5.32353 12.2631H5.10966V13.9438C5.10944 14.3578 4.77374 14.6938 4.35966 14.6938C3.94563 14.6937 3.60988 14.3578 3.60966 13.9438V11.5912L3.50614 11.6645C3.16761 11.9028 2.69979 11.8222 2.46122 11.4838C2.22268 11.1452 2.30431 10.6775 2.64286 10.4389L8.11454 6.58244ZM14.0003 7.57072C15.2609 7.57085 16.3277 8.16816 17.0647 8.92033C17.7848 9.65531 18.2845 10.6376 18.2845 11.5346V12.4985C18.284 12.9123 17.9484 13.2485 17.5345 13.2485H10.4651C10.0512 13.2484 9.71554 12.9123 9.71513 12.4985V11.5346C9.71513 10.6376 10.2148 9.6553 10.9349 8.92033C11.672 8.16806 12.7395 7.57076 14.0003 7.57072ZM13.2503 9.18791C12.7783 9.33655 12.3527 9.61643 12.0061 9.97014C11.4671 10.5204 11.2151 11.1464 11.2151 11.5346C11.2151 11.6036 11.2151 11.6758 11.2151 11.7485H13.2503V9.18791ZM14.7503 11.7485H16.7845C16.7845 11.6853 16.7845 11.6142 16.7845 11.5346C16.7845 11.1464 16.5326 10.5205 15.9934 9.97014C15.6471 9.61666 15.2219 9.33758 14.7503 9.18889V11.7485ZM19.5706 6.34612L20.9622 7.32951V7.19475C20.9625 6.92064 21.1116 6.68277 21.3313 6.55217C21.1115 6.4214 20.9622 6.18391 20.9622 5.90959V5.05315H19.5706V6.34612Z" fill="#332A2A"/>
</g>
<defs>
<clipPath id="clip0_2258_13293">
<rect width="28" height="28" fill="white"/>
</clipPath>
</defs>
</svg>
