<svg width="23" height="23" viewBox="0 0 23 23" fill="none" xmlns="http://www.w3.org/2000/svg">
<g clip-path="url(#clip0_960_11050)">
<path fill-rule="evenodd" clip-rule="evenodd" d="M18.6875 13.2603C18.2518 13.0533 17.7644 12.9375 17.25 12.9375C16.7356 12.9375 16.2482 13.0533 15.8125 13.2603V12.9375H13.1771V16.5312H13.9043C13.9728 17.5022 14.4546 18.3591 15.1749 18.9271H4.3125V13.776V11.2005V8.38542L11.2604 3.59375L18.6875 8.62497V13.2603ZM11.5 6.94792C10.3021 6.94792 8.625 7.90625 8.625 10.0625H14.1354C14.1354 8.625 13.6083 6.94792 11.5 6.94792ZM7.42708 12.9375V16.5312H10.0625V12.9375H7.42708ZM16.3667 14.9703L16.7757 14.6781C16.8699 14.6108 16.9828 14.5747 17.0986 14.5747H17.5412C17.6569 14.5747 17.7698 14.6108 17.8641 14.6781L18.2731 14.9703C18.3673 15.0376 18.4802 15.0738 18.596 15.0738H18.7109C19.0178 15.0738 19.2665 15.3225 19.2665 15.6294V16.4464V17.1327V17.2635C19.2665 17.5703 19.0178 17.819 18.7109 17.819H16.0287C15.7218 17.819 15.4731 17.5703 15.4731 17.2635V16.4464V15.7601V15.6294C15.4731 15.3225 15.7218 15.0738 16.0287 15.0738H16.0438C16.1596 15.0738 16.2724 15.0376 16.3667 14.9703ZM18.2682 16.2517C18.2682 16.5068 18.1619 16.7371 17.9912 16.9006C17.8298 17.0552 17.6109 17.1502 17.3698 17.1502C16.8736 17.1502 16.4714 16.7479 16.4714 16.2517C16.4714 15.7556 16.8736 15.3533 17.3698 15.3533C17.866 15.3533 18.2682 15.7556 18.2682 16.2517Z" fill="#E05149"/>
<path fill-rule="evenodd" clip-rule="evenodd" d="M9.97046 3.61563C10.8958 2.96352 12.1314 2.96447 13.0557 3.61799L14.4188 4.58175V4.57287C14.4188 3.92394 14.9449 3.39787 15.5938 3.39787H16.7501C17.399 3.39787 17.9251 3.92393 17.9251 4.57287V5.27079V6.22913V7.06077L20.0356 8.55296C20.34 8.76818 20.4123 9.18941 20.1971 9.4938C20.006 9.76407 19.6525 9.85136 19.3626 9.71691V10.4069V12.9791C19.3626 13.0029 19.3614 13.0264 19.359 13.0496C19.811 13.34 20.1987 13.7217 20.4956 14.1684C20.6485 14.3983 20.5861 14.7087 20.3561 14.8616C20.1262 15.0144 19.8158 14.952 19.6629 14.722C19.1474 13.9467 18.2674 13.4375 17.2687 13.4375C15.6821 13.4375 14.3959 14.7236 14.3959 16.3102C14.3959 17.8968 15.6821 19.1829 17.2687 19.1829C18.8552 19.1829 20.1414 17.8968 20.1414 16.3102C20.1414 16.0341 20.3652 15.8102 20.6414 15.8102C20.9175 15.8102 21.1414 16.0341 21.1414 16.3102C21.1414 18.449 19.4075 20.1829 17.2687 20.1829C16.7012 20.1829 16.1623 20.0609 15.6767 19.8416H12.4584H5.75009C4.58339 19.8416 3.63759 18.8958 3.63759 17.7291V16.5312V13.8958C3.63759 13.523 3.9398 13.2208 4.31259 13.2208C4.68538 13.2208 4.98759 13.523 4.98759 13.8958V16.5312V17.7291C4.98759 18.1502 5.32897 18.4916 5.75009 18.4916H12.4584H14.0683C13.7707 18.0559 13.5598 17.5562 13.4604 17.0174C12.7678 16.812 12.2626 16.1707 12.2626 15.4114V14.4948V13.5781C12.2626 12.653 13.0125 11.9031 13.9376 11.9031H14.3751H14.8126C15.3707 11.9031 15.865 12.176 16.1694 12.5957C16.5179 12.4927 16.8868 12.4375 17.2687 12.4375C17.5231 12.4375 17.7718 12.462 18.0126 12.5089V11.0819H17.7293C17.3565 11.0819 17.0543 10.7797 17.0543 10.4069C17.0543 10.3057 17.0765 10.2097 17.1164 10.1235H16.7709C16.3981 10.1235 16.0959 9.82132 16.0959 9.44853C16.0959 9.07574 16.3981 8.77353 16.7709 8.77353H18.0091L12.2764 4.7203C11.8185 4.39659 11.2065 4.39612 10.7481 4.71913L9.86237 5.34337C9.55765 5.55812 9.13653 5.48518 8.92178 5.18046C8.70703 4.87574 8.77997 4.45462 9.08469 4.23987L9.97046 3.61563ZM14.8816 13.2604C14.8593 13.2556 14.8363 13.2531 14.8126 13.2531H14.3751H13.9376C13.7581 13.2531 13.6126 13.3986 13.6126 13.5781V14.4948V15.0298C13.8596 14.3245 14.3048 13.7125 14.8816 13.2604ZM16.5751 6.10628V5.27079V4.74787H15.7688V5.53624L16.5751 6.10628ZM7.98552 5.84028C8.20027 6.145 8.12734 6.56612 7.82261 6.78087L4.99511 8.77353H5.03134C5.40413 8.77353 5.70634 9.07574 5.70634 9.44853C5.70634 9.82132 5.40413 10.1235 5.03134 10.1235H4.98759V11.2604C4.98759 11.6332 4.68538 11.9354 4.31259 11.9354C3.9398 11.9354 3.63759 11.6332 3.63759 11.2604V9.7169C3.34729 9.85154 2.99338 9.7638 2.80251 9.49296C2.58775 9.18824 2.66069 8.76712 2.96541 8.55237L7.04493 5.67737C7.34966 5.46262 7.77077 5.53556 7.98552 5.84028ZM17.0987 14.9497C17.0663 14.9497 17.0346 14.9598 17.0083 14.9786L16.5992 15.2708C16.4372 15.3866 16.243 15.4488 16.0438 15.4488H16.0287C15.9428 15.4488 15.8732 15.5184 15.8732 15.6044V15.7351C15.8732 15.956 15.6941 16.1351 15.4732 16.1351C15.2522 16.1351 15.0732 15.956 15.0732 15.7351V15.6044C15.0732 15.0766 15.501 14.6488 16.0287 14.6488H16.0438C16.0762 14.6488 16.1079 14.6387 16.1342 14.6198L16.5433 14.3277C16.7053 14.2119 16.8995 14.1497 17.0987 14.1497H17.5412C17.7404 14.1497 17.9346 14.2119 18.0966 14.3277L18.2796 14.4583C18.3604 14.3993 18.46 14.3645 18.5678 14.3645C18.7861 14.3645 18.9711 14.5075 19.0342 14.7048C19.4029 14.8373 19.6666 15.19 19.6666 15.6044V16.2916C19.6666 16.5125 19.4875 16.6916 19.2666 16.6916C19.0456 16.6916 18.8666 16.5125 18.8666 16.2916V15.6044C18.8666 15.5184 18.7969 15.4488 18.711 15.4488H18.5961C18.3969 15.4488 18.2027 15.3866 18.0407 15.2708L17.6316 14.9786C17.6052 14.9598 17.5736 14.9497 17.5412 14.9497H17.0987ZM15.4732 16.3708C15.6941 16.3708 15.8732 16.5499 15.8732 16.7708V17.2385C15.8732 17.3244 15.9428 17.394 16.0287 17.394H18.711C18.7969 17.394 18.8666 17.3244 18.8666 17.2385V17.1077C18.8666 16.8868 19.0456 16.7077 19.2666 16.7077C19.4875 16.7077 19.6666 16.8868 19.6666 17.1077V17.2385C19.6666 17.7662 19.2387 18.194 18.711 18.194H16.0287C15.501 18.194 15.0732 17.7662 15.0732 17.2385V16.7708C15.0732 16.5499 15.2522 16.3708 15.4732 16.3708ZM17.3699 15.8229C17.111 15.8229 16.9011 16.0327 16.9011 16.2916C16.9011 16.5505 17.111 16.7604 17.3699 16.7604C17.4958 16.7604 17.6096 16.7111 17.6941 16.6302C17.7835 16.5446 17.8386 16.4247 17.8386 16.2916C17.8386 16.0327 17.6288 15.8229 17.3699 15.8229ZM16.4011 16.2916C16.4011 15.7566 16.8349 15.3229 17.3699 15.3229C17.9049 15.3229 18.3386 15.7566 18.3386 16.2916C18.3386 16.5666 18.2237 16.8152 18.04 16.9913C17.8662 17.1577 17.6298 17.2604 17.3699 17.2604C16.8349 17.2604 16.4011 16.8267 16.4011 16.2916ZM9.13223 7.43379C9.69843 6.85595 10.5222 6.39266 11.5001 6.39266C12.478 6.39266 13.3018 6.85595 13.868 7.43379C14.4189 7.99604 14.8105 8.75537 14.8105 9.46349L14.8105 9.92907L14.8105 10.1822C14.8105 10.555 14.5083 10.8572 14.1355 10.8572H11.5001H8.86468C8.49188 10.8572 8.18968 10.555 8.18968 10.1822L8.18967 9.83924L8.18967 9.46349C8.18967 8.75536 8.5813 7.99604 9.13223 7.43379ZM10.0965 8.37862C9.70838 8.7747 9.53967 9.21329 9.53967 9.46349V9.50724H10.8251V7.87908C10.5533 7.9908 10.3058 8.165 10.0965 8.37862ZM12.1751 7.87908V9.50724H13.4605V9.46349C13.4605 9.21329 13.2918 8.7747 12.9037 8.37862C12.6944 8.165 12.4469 7.9908 12.1751 7.87908ZM8.18759 12.0229C7.26251 12.0229 6.51259 12.7728 6.51259 13.6979V14.6145V15.5312C6.51259 16.4563 7.26251 17.2062 8.18759 17.2062H8.62509H9.06259C9.98767 17.2062 10.7376 16.4563 10.7376 15.5312V14.6145V13.6979C10.7376 12.7728 9.98767 12.0229 9.06259 12.0229H8.62509H8.18759ZM7.86259 13.6979C7.86259 13.5184 8.0081 13.3729 8.18759 13.3729H8.62509H9.06259C9.24208 13.3729 9.38759 13.5184 9.38759 13.6979V14.6145V15.5312C9.38759 15.7107 9.24208 15.8562 9.06259 15.8562H8.62509H8.18759C8.0081 15.8562 7.86259 15.7107 7.86259 15.5312V14.6145V13.6979Z" fill="#252323"/>
</g>
<defs>
<clipPath id="clip0_960_11050">
<rect width="23" height="23" fill="white"/>
</clipPath>
</defs>
</svg>
