<svg width="18" height="18" viewBox="0 0 18 18" fill="none" xmlns="http://www.w3.org/2000/svg">
<g clip-path="url(#clip0_960_10938)">
<path fill-rule="evenodd" clip-rule="evenodd" d="M8.36185 2.31748C8.751 2.04323 9.27065 2.04362 9.65939 2.31847L11.2192 3.42133C11.3388 2.9285 11.7829 2.56254 12.3126 2.56254H13.0001C13.6214 2.56254 14.1251 3.06622 14.1251 3.68754V4.12504V4.87505V5.47582L15.7359 6.61471C16.0177 6.81399 16.0847 7.20401 15.8854 7.48586C15.7378 7.69463 15.4855 7.78549 15.2501 7.73757V8.14458V10.148C15.5991 10.3799 15.8989 10.6797 16.1306 11.0282C16.2835 11.2581 16.221 11.5685 15.991 11.7214C15.7611 11.8743 15.4507 11.8118 15.2978 11.5818C14.9137 11.0041 14.2583 10.625 13.5146 10.625C12.333 10.625 11.3751 11.5829 11.3751 12.7646C11.3751 13.9462 12.333 14.9041 13.5146 14.9041C14.6962 14.9041 15.6541 13.9462 15.6541 12.7646C15.6541 12.4884 15.878 12.2646 16.1541 12.2646C16.4303 12.2646 16.6541 12.4884 16.6541 12.7646C16.6541 14.4985 15.2485 15.9041 13.5146 15.9041C13.0525 15.9041 12.6138 15.8043 12.2187 15.625H9.75005H3.87505C3.25373 15.625 2.75005 15.1214 2.75005 14.5V13.875V12.9375V10.875C2.75005 10.5299 3.02987 10.25 3.37505 10.25C3.72023 10.25 4.00005 10.5299 4.00005 10.875V12.9375V13.875V14.375H9.75005H10.819C10.6508 14.094 10.5252 13.7845 10.4513 13.4555C9.91249 13.3719 9.50005 12.906 9.50005 12.3438V11.3438V10.3438C9.50005 9.72248 10.0037 9.2188 10.6251 9.2188H11.2501H11.8751C12.2597 9.2188 12.5992 9.4118 12.8021 9.70625C13.031 9.65313 13.2695 9.62505 13.5146 9.62505C13.6797 9.62505 13.8418 9.6378 14.0001 9.66238V8.76958H13.8751C13.5299 8.76958 13.2501 8.48976 13.2501 8.14458C13.2501 8.10177 13.2544 8.05997 13.2626 8.01958H13.1251C12.7799 8.01958 12.5001 7.73976 12.5001 7.39458C12.5001 7.0494 12.7799 6.76958 13.1251 6.76958H13.7897L9.0098 3.39007L7.77409 4.26092C7.49194 4.45976 7.10201 4.39223 6.90317 4.11008C6.70433 3.82793 6.77186 3.438 7.05401 3.23916L8.36185 2.31748ZM11.3731 10.4688H11.2501H10.7501V11.2753C10.9131 10.9733 11.1242 10.7011 11.3731 10.4688ZM12.8751 4.59203V4.12504V3.81254H12.4376V4.28271L12.8751 4.59203ZM6.3286 4.515C6.52744 4.79715 6.45991 5.18708 6.17776 5.38592L4.15778 6.80948C4.39429 6.89855 4.56255 7.12691 4.56255 7.39458C4.56255 7.71866 4.31588 7.98513 4.00005 8.01649V8.81255C4.00005 9.15772 3.72023 9.43755 3.37505 9.43755C3.02987 9.43755 2.75005 9.15772 2.75005 8.81255V7.73757C2.51427 7.78556 2.26166 7.69436 2.11417 7.48508C1.91533 7.20293 1.98286 6.813 2.26501 6.61416L5.45768 4.36416C5.73983 4.16532 6.12975 4.23285 6.3286 4.515ZM13.4025 11.6368C13.3504 11.6368 13.2995 11.6531 13.2571 11.6833L12.9564 11.8982C12.8387 11.9822 12.6977 12.0274 12.5531 12.0274C12.4461 12.0274 12.3594 12.1141 12.3594 12.2211V12.3145C12.3594 12.4526 12.2475 12.5645 12.1094 12.5645C11.9713 12.5645 11.8594 12.4526 11.8594 12.3145V12.2211C11.8594 11.838 12.17 11.5274 12.5531 11.5274C12.5935 11.5274 12.6329 11.5148 12.6658 11.4913L12.9665 11.2765C13.0937 11.1856 13.2461 11.1368 13.4025 11.1368H13.707C13.8633 11.1368 14.0157 11.1856 14.1429 11.2765L14.2121 11.3259C14.2919 11.2407 14.4054 11.1875 14.5313 11.1875C14.7729 11.1875 14.9688 11.3834 14.9688 11.625L14.9687 11.6308L14.9685 11.6382C15.1834 11.7698 15.3282 12.0062 15.3282 12.2774V12.75C15.3282 12.8881 15.2162 13 15.0782 13C14.9401 13 14.8282 12.8881 14.8282 12.75V12.2774C14.8282 12.1412 14.7152 12.0274 14.5753 12.0274C14.4194 12.0274 14.266 11.9788 14.1384 11.8877L13.8523 11.6833C13.8099 11.6531 13.7591 11.6368 13.707 11.6368H13.4025ZM12.1094 12.8751C12.2475 12.8751 12.3594 12.987 12.3594 13.1251V13.4258C12.3594 13.5639 12.4713 13.6758 12.6094 13.6758H14.5782C14.7162 13.6758 14.8282 13.5639 14.8282 13.4258V13.3887C14.8282 13.2507 14.9401 13.1387 15.0782 13.1387C15.2162 13.1387 15.3282 13.2507 15.3282 13.3887V13.4258C15.3282 13.8401 14.9924 14.1758 14.5782 14.1758H12.6094C12.1952 14.1758 11.8594 13.8401 11.8594 13.4258V13.1251C11.8594 12.987 11.9713 12.8751 12.1094 12.8751ZM13.5938 12.4375C13.4212 12.4375 13.2813 12.5775 13.2813 12.75C13.2813 12.9226 13.4212 13.0625 13.5938 13.0625C13.6778 13.0625 13.7536 13.0298 13.8099 12.9758C13.8696 12.9186 13.9063 12.8388 13.9063 12.75C13.9063 12.5775 13.7664 12.4375 13.5938 12.4375ZM12.7813 12.75C12.7813 12.3013 13.1451 11.9375 13.5938 11.9375C14.0425 11.9375 14.4063 12.3013 14.4063 12.75C14.4063 12.9807 14.3099 13.1892 14.1558 13.3368C14.0101 13.4764 13.8117 13.5625 13.5938 13.5625C13.1451 13.5625 12.7813 13.1988 12.7813 12.75ZM7.07785 5.75012C7.53481 5.28376 8.20315 4.90629 9.00005 4.90629C9.79696 4.90629 10.4653 5.28376 10.9223 5.75012C11.3651 6.20205 11.6876 6.81929 11.6876 7.40629L11.6876 7.77065L11.6876 7.96879C11.6876 8.31397 11.4077 8.59379 11.0626 8.59379H9.00005H6.93755C6.59238 8.59379 6.31255 8.31397 6.31255 7.96879L6.31255 7.70035L6.31255 7.40629C6.31255 6.81929 6.63502 6.20205 7.07785 5.75012ZM7.56729 7.34379H8.37505V6.3188C8.22752 6.39765 8.09112 6.50205 7.97068 6.62496C7.71235 6.8886 7.59171 7.1696 7.56729 7.34379ZM9.62505 6.3188V7.34379H10.4328C10.4084 7.1696 10.2878 6.8886 10.0294 6.62496C9.90899 6.50205 9.77259 6.39765 9.62505 6.3188ZM6.12505 9.31254C5.50373 9.31254 5.00005 9.81622 5.00005 10.4375V11.4375V12.4375C5.00005 13.0589 5.50373 13.5625 6.12505 13.5625H6.75005H7.37505C7.99637 13.5625 8.50005 13.0589 8.50005 12.4375V11.4375V10.4375C8.50005 9.81622 7.99637 9.31254 7.37505 9.31254H6.75005H6.12505ZM6.25005 11.4375V10.5625H6.75005H7.25005V11.4375V12.3125H6.75005H6.25005V11.4375Z" fill="#252323"/>
</g>
<defs>
<clipPath id="clip0_960_10938">
<rect width="18" height="18" fill="white"/>
</clipPath>
</defs>
</svg>
