<svg width="44" height="44" viewBox="0 0 44 44" fill="none" xmlns="http://www.w3.org/2000/svg">
<g clip-path="url(#clip0_960_10826)">
<path fill-rule="evenodd" clip-rule="evenodd" d="M20.4391 6.61688C21.3904 5.94648 22.6606 5.94745 23.6109 6.6193L28.1249 9.81084V8.79167C28.1249 7.82517 28.9084 7.04167 29.8749 7.04167H31.9999C32.9664 7.04167 33.7499 7.82517 33.7499 8.79167V10.0833C33.7499 10.4975 33.4141 10.8333 32.9999 10.8333C32.5857 10.8333 32.2499 10.4975 32.2499 10.0833V8.79167C32.2499 8.6536 32.138 8.54167 31.9999 8.54167H29.8749C29.7368 8.54167 29.6249 8.6536 29.6249 8.79167V10.8714L32.2499 12.7273V11.9167C32.2499 11.5025 32.5857 11.1667 32.9999 11.1667C33.4141 11.1667 33.7499 11.5025 33.7499 11.9167V13.75C33.7499 13.7625 33.7496 13.7749 33.749 13.7872L38.0162 16.8043C38.3544 17.0434 38.4348 17.5114 38.1956 17.8496C37.9565 18.1879 37.4885 18.2682 37.1503 18.0291L36.4999 17.5692V18.0755V19.9089V24.8297C36.4999 24.8485 36.4992 24.8671 36.4978 24.8855C37.5215 25.4478 38.3934 26.2515 39.0368 27.2191C39.2661 27.564 39.1724 28.0296 38.8275 28.2589C38.4826 28.4883 38.017 28.3946 37.7877 28.0496C36.7649 26.5113 35.0181 25.5 33.0354 25.5C29.8862 25.5 27.3332 28.053 27.3332 31.2022C27.3332 34.3514 29.8862 36.9044 33.0354 36.9044C36.1847 36.9044 38.7376 34.3514 38.7376 31.2022C38.7376 30.788 39.0734 30.4522 39.4876 30.4522C39.9018 30.4522 40.2376 30.788 40.2376 31.2022C40.2376 35.1799 37.0131 38.4044 33.0354 38.4044C31.7064 38.4044 30.4615 38.0444 29.3928 37.4167H23.8332H10.2499C8.73112 37.4167 7.4999 36.1855 7.4999 34.6667V33.9167V31.625V26.5834C7.4999 26.1691 7.83568 25.8334 8.2499 25.8334C8.66411 25.8334 8.9999 26.1691 8.9999 26.5834V31.625V33.9167V34.6667C8.9999 35.357 9.55954 35.9167 10.2499 35.9167H23.8332H27.5905C26.6899 34.8775 26.0819 33.5778 25.8945 32.1459H25.7499C24.7834 32.1459 23.9999 31.3623 23.9999 30.3959V27.7292V25.0625C23.9999 24.096 24.7834 23.3125 25.7499 23.3125H27.4999H29.2499C29.9586 23.3125 30.5688 23.7337 30.844 24.3395C31.535 24.119 32.2713 24 33.0354 24C33.7165 24 34.3755 24.0946 34.9999 24.2713V20.6589H33.9166C33.5024 20.6589 33.1666 20.3231 33.1666 19.9089C33.1666 19.4947 33.5024 19.1589 33.9166 19.1589H34.9999V18.8255H32.0832C31.669 18.8255 31.3332 18.4898 31.3332 18.0755C31.3332 17.6613 31.669 17.3255 32.0832 17.3255H34.9999V16.5087L22.7449 7.84409C22.313 7.5387 21.7356 7.53826 21.3032 7.84299L18.5551 9.77972C18.2165 10.0183 17.7486 9.93729 17.51 9.59871C17.2713 9.26013 17.3524 8.79222 17.691 8.55361L20.4391 6.61688ZM29.4697 24.9432C29.4273 24.8654 29.3448 24.8125 29.2499 24.8125H27.4999H25.7499C25.6118 24.8125 25.4999 24.9244 25.4999 25.0625V27.7292V30.3959C25.4999 30.5339 25.6118 30.6459 25.7499 30.6459H25.8544C26.0412 28.2005 27.4492 26.0968 29.4697 24.9432ZM14.8339 11.4846C15.0725 11.8232 14.9915 12.2911 14.6529 12.5297L8.9999 16.5136V17.3255H9.6249C10.0391 17.3255 10.3749 17.6613 10.3749 18.0755C10.3749 18.4898 10.0391 18.8255 9.6249 18.8255H8.9999V21.5417C8.9999 21.9559 8.66411 22.2917 8.2499 22.2917C7.83568 22.2917 7.4999 21.9559 7.4999 21.5417V18.0755V17.5707L6.84861 18.0297C6.51003 18.2683 6.04212 18.1873 5.80351 17.8487C5.5649 17.5101 5.64594 17.0422 5.98452 16.8036L13.7888 11.3036C14.1274 11.065 14.5953 11.146 14.8339 11.4846ZM32.5699 28.4592L31.541 29.1942C31.3408 29.3372 31.1009 29.4141 30.8548 29.4141H30.2256V30.102C30.2256 30.4472 29.9457 30.727 29.6006 30.727C29.2554 30.727 28.9756 30.4472 28.9756 30.102V29.3447C28.9756 28.6927 29.5041 28.1641 30.1561 28.1641H30.8326L31.8615 27.4291C32.0617 27.2861 32.3016 27.2092 32.5477 27.2092H33.7194C33.9655 27.2092 34.2054 27.2861 34.4056 27.4291L34.8416 27.7406C35.0151 27.5662 35.2553 27.4583 35.5207 27.4583C35.9658 27.4583 36.34 27.7617 36.4478 28.173C37.031 28.2449 37.4825 28.742 37.4825 29.3447V31.1667C37.4825 31.5118 37.2027 31.7917 36.8575 31.7917C36.5123 31.7917 36.2325 31.5118 36.2325 31.1667V29.4141H35.4123C35.1662 29.4141 34.9263 29.3372 34.7261 29.1942L33.6971 28.4592H32.5699ZM29.6006 31.4584C29.9457 31.4584 30.2256 31.7382 30.2256 32.0834V33.4158H36.2325V32.7279C36.2325 32.3827 36.5123 32.1029 36.8575 32.1029C37.2027 32.1029 37.4825 32.3827 37.4825 32.7279V33.4853C37.4825 34.1373 36.9539 34.6658 36.3019 34.6658H30.1561C29.5041 34.6658 28.9756 34.1373 28.9756 33.4853V32.0834C28.9756 31.7382 29.2554 31.4584 29.6006 31.4584ZM33.2291 30.2917C32.7458 30.2917 32.3541 30.6834 32.3541 31.1667C32.3541 31.6499 32.7458 32.0417 33.2291 32.0417C33.4641 32.0417 33.6766 31.9497 33.8342 31.7987C34.0011 31.6388 34.1041 31.4152 34.1041 31.1667C34.1041 30.6834 33.7123 30.2917 33.2291 30.2917ZM31.3541 31.1667C31.3541 30.1311 32.1935 29.2917 33.2291 29.2917C34.2646 29.2917 35.1041 30.1311 35.1041 31.1667C35.1041 31.699 34.8816 32.1801 34.526 32.5208C34.1897 32.843 33.7321 33.0417 33.2291 33.0417C32.1935 33.0417 31.3541 32.2022 31.3541 31.1667ZM17.8567 14.6001C18.8623 13.5738 20.306 12.7708 21.9999 12.7708C23.6938 12.7708 25.1375 13.5738 26.1431 14.6001C27.1317 15.6091 27.7916 16.9331 27.7916 18.1042L27.7916 18.9948L27.7916 19.4792C27.7916 19.8934 27.4558 20.2292 27.0416 20.2292H21.9999H16.9582C16.544 20.2292 16.2082 19.8934 16.2082 19.4792L16.2082 18.823L16.2082 18.1042C16.2082 16.9331 16.8681 15.6091 17.8567 14.6001ZM18.9281 15.6499C18.1204 16.4743 17.7082 17.4419 17.7082 18.1042L17.7082 18.7292H21.2499V14.3453C20.3505 14.525 19.5506 15.0147 18.9281 15.6499ZM22.7499 14.3453V18.7292H26.2916L26.2916 18.1042C26.2916 17.4419 25.8794 16.4743 25.0717 15.6499C24.4492 15.0147 23.6494 14.525 22.7499 14.3453ZM14.7499 23.5417C13.7834 23.5417 12.9999 24.3252 12.9999 25.2917V27.9583V30.625C12.9999 31.5915 13.7834 32.375 14.7499 32.375H16.4999H18.2499C19.2164 32.375 19.9999 31.5915 19.9999 30.625V27.9583V25.2917C19.9999 24.3252 19.2164 23.5417 18.2499 23.5417H16.4999H14.7499ZM14.4999 25.2917C14.4999 25.1536 14.6118 25.0417 14.7499 25.0417H16.4999H18.2499C18.388 25.0417 18.4999 25.1536 18.4999 25.2917V27.9583V30.625C18.4999 30.7631 18.388 30.875 18.2499 30.875H16.4999H14.7499C14.6118 30.875 14.4999 30.7631 14.4999 30.625V27.9583V25.2917Z" fill="#252323"/>
</g>
<defs>
<clipPath id="clip0_960_10826">
<rect width="44" height="44" fill="white"/>
</clipPath>
</defs>
</svg>
