<svg width="23" height="23" viewBox="0 0 23 23" fill="none" xmlns="http://www.w3.org/2000/svg">
<g clip-path="url(#clip0_2258_13174)">
<path d="M19.4192 8.55029V19.9009H3.5813V8.28662L11.2366 3.00732L19.4192 8.55029ZM7.01294 17.2612H9.91626V13.3013H7.01294V17.2612ZM13.3479 17.2612H16.2512V13.3013H13.3479V17.2612ZM11.5002 6.70264C10.1805 6.70274 8.3324 7.75894 8.33228 10.1343H14.4036C14.4035 8.55067 13.8226 6.70284 11.5002 6.70264Z" fill="#E05149"/>
<path d="M9.85462 3.08775C10.8502 2.38616 12.1794 2.38672 13.174 3.0897L14.7843 4.2274V3.78502C14.7843 3.27422 15.1983 2.86032 15.7091 2.86021H17.5851C18.0958 2.8604 18.5099 3.27427 18.5099 3.78502V4.85435C18.5098 5.06946 18.4069 5.25911 18.2501 5.38267C18.407 5.50627 18.5099 5.69577 18.5099 5.91099V6.86216L20.8644 8.5272C21.1685 8.74248 21.2406 9.16334 21.0255 9.46763C20.8122 9.76915 20.3975 9.84167 20.0939 9.63365V18.1874C20.0939 19.6516 18.9068 20.8386 17.4425 20.8387H5.16517C3.91769 20.8387 2.90638 19.8274 2.90638 18.5799V14.3563C2.90682 13.9839 3.20867 13.6815 3.58118 13.6815C3.9537 13.6815 4.25555 13.9839 4.25599 14.3563V18.5799C4.25599 19.0818 4.66328 19.4891 5.16517 19.4891H17.4425C18.1612 19.489 18.7433 18.906 18.7433 18.1874V11.1883H18.3624C17.9898 11.1881 17.6876 10.8852 17.6876 10.5126C17.6878 10.3714 17.7316 10.24 17.8058 10.1317H17.3068C16.9341 10.1315 16.632 9.82959 16.632 9.45689C16.6322 9.08442 16.9343 8.78223 17.3068 8.78209H18.7433V8.67955L12.3947 4.19224C11.8666 3.81896 11.1606 3.81875 10.632 4.19127L9.65638 4.87877C9.35177 5.09343 8.93077 5.02012 8.71595 4.71568C8.5013 4.4111 8.57369 3.99009 8.87806 3.77525L9.85462 3.08775ZM9.41712 12.3622C10.0655 12.3627 10.5917 12.8885 10.5919 13.537V16.7606C10.5918 17.4091 10.0655 17.9349 9.41712 17.9354H7.24915C6.60032 17.9354 6.07451 17.4094 6.07435 16.7606V13.537C6.07455 12.8882 6.60034 12.3622 7.24915 12.3622H9.41712ZM15.7521 12.2303C16.4005 12.2308 16.9268 12.7566 16.9269 13.4051V16.6288C16.9267 17.2773 16.4005 17.8031 15.7521 17.8036H13.5841C12.9353 17.8036 12.4095 17.2776 12.4093 16.6288V13.4051C12.4094 12.7563 12.9353 12.2303 13.5841 12.2303H15.7521ZM7.42396 16.5848H9.24134V13.7118H7.42396V16.5848ZM13.7589 16.453H15.5763V13.5799H13.7589V16.453ZM6.63099 5.35923C6.93556 5.14465 7.35659 5.21701 7.57142 5.52134C7.78602 5.82602 7.7139 6.24801 7.40931 6.46275L4.25599 8.68345V8.78209H4.37318C4.74575 8.78215 5.04771 9.08437 5.04798 9.45689C5.04798 9.82964 4.74591 10.1316 4.37318 10.1317H4.25599V11.453C4.25599 11.8258 3.95397 12.1278 3.58118 12.1278C3.20839 12.1278 2.90638 11.8258 2.90638 11.453V9.63365C2.6023 9.84226 2.18688 9.76889 1.97376 9.46666C1.75914 9.16194 1.83218 8.74094 2.13685 8.52623L6.63099 5.35923ZM11.5001 6.15904C12.5547 6.15917 13.4458 6.65867 14.0597 7.28502C14.6583 7.8959 15.0791 8.71674 15.0792 9.47349V10.2655C15.0791 10.6381 14.776 10.9401 14.4035 10.9403H8.59681C8.22408 10.9403 7.9221 10.6382 7.92201 10.2655V9.47349C7.92217 8.71673 8.34198 7.8959 8.94056 7.28502C9.55446 6.65872 10.4456 6.15911 11.5001 6.15904ZM10.8253 7.62779C10.4788 7.75162 10.1644 7.96513 9.90443 8.23033C9.46901 8.67485 9.27181 9.17456 9.27161 9.47349C9.27161 9.51155 9.27161 9.55105 9.27161 9.59068H10.8253V7.62779ZM12.1749 9.59068H13.7286C13.7286 9.55456 13.7286 9.51531 13.7286 9.47349C13.7284 9.17451 13.5314 8.67491 13.0958 8.23033C12.8357 7.96489 12.5217 7.75167 12.1749 7.62779V9.59068ZM16.1339 5.18248L17.1593 5.90709C17.1605 5.69384 17.2627 5.50559 17.4181 5.38267C17.2618 5.25909 17.1594 5.06909 17.1593 4.85435V4.20982H16.1339V5.18248Z" fill="#332A2A"/>
</g>
<defs>
<clipPath id="clip0_2258_13174">
<rect width="23" height="23" fill="white"/>
</clipPath>
</defs>
</svg>
