<svg width="44" height="44" viewBox="0 0 44 44" fill="none" xmlns="http://www.w3.org/2000/svg">
<g clip-path="url(#clip0_2258_13172)">
<path d="M37.1487 16.3569V38.0708H6.85083V15.8521L21.4954 5.75244L37.1487 16.3569ZM13.4153 33.021H18.97V25.4458H13.4153V33.021ZM25.5344 33.021H31.0891V25.4458H25.5344V33.021ZM22.0002 12.8218C19.4756 12.8219 15.941 14.8422 15.9407 19.3862H27.554C27.5538 16.3567 26.4432 12.822 22.0002 12.8218Z" fill="#E05149"/>
<path d="M20.3246 5.53119C21.3461 4.81127 22.7103 4.81182 23.7308 5.53314L28.8246 9.13373V7.8642C28.8247 6.84165 29.6536 6.01273 30.6761 6.01264H33.0179C34.0403 6.01292 34.8694 6.84176 34.8695 7.8642V9.28705C34.8694 9.70105 34.5335 10.0369 34.1195 10.037C33.7054 10.037 33.3696 9.70116 33.3695 9.28705V7.8642C33.3694 7.67019 33.2119 7.51292 33.0179 7.51264H30.6761C30.482 7.51273 30.3247 7.67008 30.3246 7.8642V10.1953L33.3695 12.3476V11.3076C33.3695 10.8933 33.7053 10.5576 34.1195 10.5576C34.5336 10.5577 34.8695 10.8935 34.8695 11.3076V13.3271C34.8695 13.3535 34.8673 13.3795 34.8646 13.4052L39.6019 16.7548C39.9397 16.9939 40.0204 17.4617 39.7816 17.7997C39.5425 18.1377 39.0738 18.2182 38.7357 17.9794L37.8988 17.3876V36.371C37.8988 38.0021 36.5767 39.325 34.9457 39.3251H9.05407C7.42313 39.3249 6.10094 38.002 6.10094 36.371V27.4658C6.10115 27.0518 6.43691 26.7158 6.85094 26.7158C7.26503 26.7158 7.60074 27.0517 7.60094 27.4658V36.371C7.60094 37.1736 8.25155 37.8249 9.05407 37.8251H34.9457C35.7483 37.825 36.3988 37.1737 36.3988 36.371V20.8622H35.1293C34.7152 20.8622 34.3794 20.5263 34.3793 20.1122C34.3795 19.6982 34.7152 19.3623 35.1293 19.3622H36.3988V18.8417H33.1088C32.6948 18.8415 32.3588 18.5058 32.3588 18.0917C32.3592 17.6781 32.695 17.342 33.1088 17.3417H36.3988V16.3564C36.3988 16.3469 36.3994 16.3375 36.3998 16.3281L22.8646 6.75873C22.3625 6.40377 21.6915 6.40264 21.1888 6.75678L18.1605 8.89057C17.8221 9.12888 17.3542 9.04807 17.1156 8.7099C16.877 8.37135 16.9587 7.9036 17.2972 7.66498L20.3246 5.53119ZM17.8685 24.1913C18.8911 24.1914 19.72 25.0204 19.7201 26.0429V31.9189C19.72 32.9414 18.8911 33.7704 17.8685 33.7704H14.0121C12.9896 33.7703 12.1606 32.9414 12.1605 31.9189V26.0429C12.1606 25.0204 12.9896 24.1915 14.0121 24.1913H17.8685ZM29.9877 23.9384C31.0101 23.9385 31.839 24.7676 31.8392 25.79V31.666C31.8392 32.6886 31.0103 33.5174 29.9877 33.5175H26.1312C25.1087 33.5173 24.2797 32.6885 24.2797 31.666V25.79C24.2799 24.7676 25.1088 23.9386 26.1312 23.9384H29.9877ZM14.0121 25.6913C13.818 25.6915 13.6606 25.8488 13.6605 26.0429V31.9189C13.6606 32.113 13.818 32.2703 14.0121 32.2704H17.8685C18.0626 32.2704 18.22 32.113 18.2201 31.9189V26.0429C18.22 25.8488 18.0626 25.6914 17.8685 25.6913H14.0121ZM26.1312 25.4384C25.9373 25.4386 25.7799 25.596 25.7797 25.79V31.666C25.7797 31.8601 25.9371 32.0173 26.1312 32.0175H29.9877C30.1818 32.0174 30.3392 31.8602 30.3392 31.666V25.79C30.339 25.596 30.1817 25.4385 29.9877 25.4384H26.1312ZM12.9974 10.6943C13.336 10.4557 13.8037 10.5373 14.0424 10.8759C14.2806 11.2145 14.2001 11.6823 13.8617 11.9208L7.59899 16.3329C7.59923 16.3407 7.60094 16.3485 7.60094 16.3564V17.3417H8.36559C8.77953 17.3417 9.11514 17.6779 9.11559 18.0917C9.11559 18.506 8.77981 18.8417 8.36559 18.8417H7.60094V21.9111C7.6009 22.3253 7.26513 22.6611 6.85094 22.6611C6.43681 22.661 6.10099 22.3252 6.10094 21.9111V17.3896L5.26305 17.9804C4.92464 18.2185 4.45672 18.1369 4.21813 17.7988C3.97987 17.4602 4.06139 16.9924 4.39977 16.7538L12.9974 10.6943ZM22.0004 12.3242C23.8413 12.3243 25.4132 13.197 26.5101 14.3163C27.5901 15.4185 28.3049 16.8597 28.305 18.124V19.6386C28.305 20.0527 27.9691 20.3884 27.555 20.3886H16.4457C16.0315 20.3886 15.6957 20.0528 15.6957 19.6386V18.124C15.6958 16.8597 16.4097 15.4185 17.4896 14.3163C18.5866 13.1969 20.1592 12.3242 22.0004 12.3242ZM21.2504 13.8906C20.2049 14.0763 19.2771 14.6365 18.5619 15.3662C17.6629 16.2836 17.1958 17.3685 17.1957 18.124C17.1957 18.3677 17.1957 18.6331 17.1957 18.8886H21.2504V13.8906ZM22.7504 18.8886H26.805C26.805 18.7083 26.805 18.4698 26.805 18.124C26.8049 17.3685 26.3378 16.2836 25.4388 15.3662C24.7237 14.6364 23.7958 14.0764 22.7504 13.8906V18.8886Z" fill="#332A2A"/>
</g>
<defs>
<clipPath id="clip0_2258_13172">
<rect width="44" height="44" fill="white"/>
</clipPath>
</defs>
</svg>
