<svg width="18" height="18" viewBox="0 0 18 18" fill="none" xmlns="http://www.w3.org/2000/svg">
<g clip-path="url(#clip0_2258_13175)">
<path d="M15.1975 6.69189V15.5747H2.80298V6.48486L8.79321 2.354L15.1975 6.69189ZM5.48853 13.5083H7.76001V10.4097H5.48853V13.5083ZM10.4456 13.5083H12.718V10.4097H10.4456V13.5083ZM9.00024 5.24561C7.96742 5.24571 6.52088 6.07225 6.52075 7.93115H11.2717C11.2717 6.69183 10.8177 5.2458 9.00024 5.24561Z" fill="#E05149"/>
<path d="M7.37977 2.5313C8.35813 1.84189 9.66516 1.8433 10.6425 2.53423L11.4735 3.12114V3.01665C11.4735 2.53345 11.8653 2.14173 12.3485 2.14165H13.7079C14.1911 2.14175 14.5829 2.53346 14.5829 3.01665V3.79985C14.5828 3.95879 14.5206 4.10174 14.4227 4.21196C14.5211 4.3224 14.5829 4.46651 14.5829 4.62603V5.31939L16.3846 6.5938C16.6664 6.79298 16.733 7.18308 16.5341 7.46489C16.3701 7.69687 16.0779 7.78025 15.8221 7.69243V14.2344C15.8219 15.4337 14.8496 16.4063 13.6503 16.4063H4.04188C3.01231 16.4061 2.17763 15.5707 2.17762 14.5411V11.2364C2.17762 10.8912 2.45749 10.6114 2.80262 10.6114C3.1478 10.6114 3.42762 10.8912 3.42762 11.2364V14.5411C3.42763 14.8803 3.70267 15.1561 4.04188 15.1563H13.6503C14.1592 15.1563 14.5719 14.7433 14.5721 14.2344V8.85259H14.371C14.0259 8.85253 13.746 8.57272 13.746 8.22759C13.746 8.15688 13.7604 8.08979 13.7821 8.02642H13.5448C13.1997 8.02636 12.9198 7.74655 12.9198 7.40142C12.9199 7.05634 13.1997 6.77647 13.5448 6.77642H14.4774L9.92078 3.55474C9.37544 3.16922 8.64644 3.16914 8.10047 3.55376L7.61317 3.89653C7.33108 4.09533 6.94096 4.02812 6.74207 3.74614C6.54336 3.46403 6.61043 3.07388 6.89246 2.87505L7.37977 2.5313ZM7.51063 9.57817C7.99364 9.57843 8.38559 9.97011 8.38563 10.4532V13.2588C8.38539 13.7417 7.99352 14.1336 7.51063 14.1338H5.53211C5.04901 14.1338 4.65735 13.7419 4.65711 13.2588V10.4532C4.65714 9.96996 5.04888 9.57817 5.53211 9.57817H7.51063ZM12.4677 9.47466C12.9508 9.47466 13.3425 9.86655 13.3427 10.3497V13.1553C13.3424 13.6384 12.9508 14.0303 12.4677 14.0303H10.4891C10.0062 14.0301 9.61438 13.6383 9.61414 13.1553V10.3497C9.6143 9.86666 10.0061 9.47484 10.4891 9.47466H12.4677ZM5.90711 12.8838H7.13563V10.8282H5.90711V12.8838ZM10.8641 12.7803H12.0927V10.7247H10.8641V12.7803ZM5.13367 4.11431C5.41577 3.9156 5.80592 3.98367 6.00477 4.26567C6.20344 4.54775 6.13633 4.93792 5.85438 5.13677L3.51356 6.78521C3.81541 6.82946 4.04766 7.08736 4.04774 7.40142C4.04772 7.74482 3.77036 8.0226 3.42762 8.02544V8.96392C3.42754 9.30903 3.14775 9.58892 2.80262 9.58892C2.45754 9.58886 2.1777 9.30899 2.17762 8.96392V7.69341C1.92171 7.78084 1.62944 7.69686 1.4657 7.46489C1.26706 7.18287 1.33429 6.79269 1.6161 6.5938L5.13367 4.11431ZM8.99988 4.72368C9.85686 4.72372 10.5778 5.1295 11.0721 5.63384C11.5523 6.12384 11.8972 6.78906 11.8973 7.41411V8.03423C11.8973 8.3793 11.6174 8.6591 11.2723 8.65923H6.72742C6.38238 8.65909 6.10245 8.3793 6.10242 8.03423V7.41411C6.10255 6.78911 6.44756 6.12382 6.92762 5.63384C7.42191 5.12952 8.14297 4.72376 8.99988 4.72368ZM8.37488 6.11431C8.16991 6.20819 7.98165 6.34409 7.8202 6.50884C7.49366 6.84214 7.35478 7.20701 7.35242 7.40923H8.37488V6.11431ZM9.62488 7.40923H10.6473C10.645 7.20698 10.5062 6.84217 10.1796 6.50884C10.0181 6.34409 9.82986 6.20818 9.62488 6.11431V7.40923ZM12.7235 4.00493L13.3593 4.45513C13.3855 4.36409 13.4298 4.28102 13.4911 4.21196C13.3937 4.10184 13.333 3.95841 13.3329 3.79985V3.39165H12.7235V4.00493Z" fill="#332A2A"/>
</g>
<defs>
<clipPath id="clip0_2258_13175">
<rect width="18" height="18" fill="white"/>
</clipPath>
</defs>
</svg>
