<svg width="18" height="18" viewBox="0 0 18 18" fill="none" xmlns="http://www.w3.org/2000/svg">
<g clip-path="url(#clip0_2258_13295)">
<path d="M7.3795 2.53186C8.35791 1.84235 9.66484 1.84377 10.6422 2.53479L11.4732 3.1217V3.01623C11.4733 2.53317 11.8652 2.14139 12.3482 2.14123H13.7076C14.1907 2.14134 14.5825 2.53314 14.5826 3.01623V3.79944C14.5825 3.95844 14.5203 4.10128 14.4225 4.21155C14.5208 4.32194 14.5826 4.46616 14.5826 4.62561V5.31995L16.3844 6.59436C16.666 6.7936 16.7328 7.18366 16.5338 7.46545C16.3697 7.69726 16.0776 7.77993 15.8219 7.69202V14.234C15.8217 15.4333 14.8493 16.4059 13.65 16.4059H4.04161C3.0121 16.4056 2.17735 15.5702 2.17735 14.5406V11.236C2.17753 10.891 2.4574 10.6111 2.80235 10.611C3.14741 10.611 3.42716 10.8909 3.42735 11.236V14.5406C3.42735 14.8799 3.70246 15.1556 4.04161 15.1559H13.65C14.159 15.1559 14.5717 14.7429 14.5719 14.234V8.85217H14.3707C14.0256 8.85204 13.7457 8.57227 13.7457 8.22717C13.7458 8.15657 13.7602 8.08929 13.7818 8.026H13.5445C13.1995 8.02587 12.9195 7.7461 12.9195 7.401C12.9198 7.05613 13.1996 6.77613 13.5445 6.776H14.4762L9.92051 3.5553C9.37512 3.16969 8.64621 3.16959 8.1002 3.55432L7.61289 3.89709C7.3309 4.09561 6.94067 4.02842 6.7418 3.7467C6.54304 3.46467 6.61034 3.07453 6.89219 2.87561L7.3795 2.53186ZM7.51036 9.57776C7.99331 9.57793 8.38512 9.96981 8.38536 10.4528V13.2584C8.38512 13.7414 7.99331 14.1332 7.51036 14.1334H5.53184C5.04874 14.1334 4.65708 13.7415 4.65684 13.2584V10.4528C4.65707 9.96971 5.04873 9.57776 5.53184 9.57776H7.51036ZM12.4674 9.47522C12.9506 9.47522 13.3424 9.86697 13.3424 10.3502V13.1559C13.342 13.6388 12.9504 14.0309 12.4674 14.0309H10.4889C10.0061 14.0306 9.61428 13.6386 9.61387 13.1559V10.3502C9.61387 9.86713 10.0058 9.47548 10.4889 9.47522H12.4674ZM5.90684 12.8834H7.13536V10.8278H5.90684V12.8834ZM10.8639 12.7809H12.0924V10.7252H10.8639V12.7809ZM5.1334 4.11487C5.41555 3.91602 5.80565 3.98408 6.0045 4.26623C6.20301 4.54834 6.13608 4.93856 5.85411 5.13733L3.51426 6.78479C3.81563 6.82935 4.04722 7.08736 4.04746 7.401C4.04746 7.74442 3.77009 8.02219 3.42735 8.02502V8.9635C3.42728 9.30862 3.14749 9.5885 2.80235 9.5885C2.45732 9.58837 2.17741 9.30854 2.17735 8.9635V7.69299C1.92152 7.78039 1.62919 7.69726 1.46543 7.46545C1.26674 7.18351 1.3342 6.79334 1.61582 6.59436L5.1334 4.11487ZM8.99961 4.72327C9.85644 4.7233 10.5776 5.1292 11.0719 5.63342C11.5519 6.12332 11.8968 6.78874 11.8971 7.4137V8.03381C11.897 8.37889 11.6171 8.65868 11.2721 8.65881H6.72715C6.38218 8.6586 6.10218 8.37883 6.10215 8.03381V7.4137C6.10241 6.78875 6.44732 6.12332 6.92735 5.63342C7.42161 5.12914 8.14276 4.72339 8.99961 4.72327ZM8.37461 6.11389C8.16963 6.20777 7.98139 6.34367 7.81993 6.50842C7.49351 6.84156 7.35467 7.20649 7.35215 7.40881H8.37461V6.11389ZM9.62461 7.40881H10.6471C10.6446 7.20649 10.5057 6.84155 10.1793 6.50842C10.0179 6.34379 9.82949 6.20772 9.62461 6.11389V7.40881ZM12.7232 4.00549L13.359 4.45569C13.3852 4.36435 13.4294 4.28079 13.4908 4.21155C13.3935 4.10141 13.3327 3.95794 13.3326 3.79944V3.39123H12.7232V4.00549Z" fill="#332A2A"/>
</g>
<defs>
<clipPath id="clip0_2258_13295">
<rect width="18" height="18" fill="white"/>
</clipPath>
</defs>
</svg>
