<svg width="18" height="18" viewBox="0 0 18 18" fill="none" xmlns="http://www.w3.org/2000/svg">
<g clip-path="url(#clip0_960_11049)">
<path fill-rule="evenodd" clip-rule="evenodd" d="M14.625 10.3776C14.284 10.2156 13.9026 10.125 13.5 10.125C13.0974 10.125 12.716 10.2156 12.375 10.3776V10.125H10.3125V12.9375H10.8816C10.9352 13.6974 11.3123 14.368 11.876 14.8125H3.375V10.7812V8.76562V6.5625L8.8125 2.8125L14.625 6.74998V10.3776ZM9 5.4375C8.0625 5.4375 6.75 6.1875 6.75 7.875H11.0625C11.0625 6.75 10.65 5.4375 9 5.4375ZM5.8125 10.125V12.9375H7.875V10.125H5.8125ZM12.811 11.7142L13.0973 11.5097C13.1915 11.4424 13.3044 11.4063 13.4202 11.4063H13.6892C13.8049 11.4063 13.9178 11.4424 14.0121 11.5097L14.2829 11.7032C14.3682 11.7641 14.4704 11.7969 14.5752 11.7969C14.853 11.7969 15.0781 12.022 15.0781 12.2998V12.8711V13.4082C15.0781 13.7048 14.8377 13.9453 14.541 13.9453H12.6649C12.3581 13.9453 12.1094 13.6966 12.1094 13.3898V12.8711V12.334V12.2406C12.1094 11.9956 12.3081 11.7969 12.5531 11.7969C12.6456 11.7969 12.7358 11.768 12.811 11.7142ZM14.2969 12.7188C14.2969 12.9184 14.2137 13.0986 14.0801 13.2266C13.9538 13.3476 13.7824 13.4219 13.5938 13.4219C13.2054 13.4219 12.8906 13.1071 12.8906 12.7188C12.8906 12.3304 13.2054 12.0156 13.5938 12.0156C13.9821 12.0156 14.2969 12.3304 14.2969 12.7188Z" fill="#E05149"/>
<path fill-rule="evenodd" clip-rule="evenodd" d="M5.58298 4.48906C5.86498 4.29048 6.25421 4.35771 6.4531 4.63945C6.65192 4.92158 6.58479 5.31168 6.30271 5.51055L4.28027 6.93596C4.518 7.0238 4.68747 7.25086 4.68747 7.51934C4.68747 7.8433 4.44063 8.10598 4.12497 8.13751V8.93731C4.12497 9.28249 3.84515 9.56231 3.49997 9.56231C3.1548 9.56231 2.87497 9.28249 2.87497 8.93731V7.86228C2.63926 7.91018 2.38669 7.81916 2.23923 7.61016C2.04045 7.3281 2.1077 6.93796 2.38962 6.73906L5.58298 4.48906ZM8.63865 2.35234C8.95187 2.19826 9.31983 2.19868 9.63279 2.35332L9.78415 2.44316L11.3442 3.5461C11.4637 3.05326 11.9079 2.6873 12.4375 2.6873H13.125C13.7463 2.6873 14.25 3.19098 14.25 3.8123V5.60053L15.8603 6.73906C16.142 6.93822 16.2096 7.32835 16.0107 7.61016C15.8631 7.81894 15.6106 7.91008 15.375 7.8623V10.2728C15.7241 10.5047 16.0241 10.8046 16.2558 11.1531C16.4085 11.3831 16.346 11.6937 16.1162 11.8465C15.8863 11.9993 15.5758 11.9366 15.4228 11.7068C15.0387 11.1291 14.3833 10.7499 13.6396 10.7498C12.458 10.7498 11.5 11.7078 11.5 12.8895C11.5 14.071 12.458 15.0291 13.6396 15.0291C14.8212 15.029 15.7792 14.071 15.7793 12.8895C15.7793 12.6133 16.0031 12.3895 16.2793 12.3895C16.5553 12.3896 16.7793 12.6134 16.7793 12.8895C16.7792 14.6233 15.3734 16.029 13.6396 16.0291C13.1774 16.0291 12.7385 15.9292 12.3433 15.7498H3.99997C3.37865 15.7498 2.87497 15.2461 2.87497 14.6248V10.9998C2.87497 10.6546 3.1548 10.3748 3.49997 10.3748C3.84515 10.3748 4.12497 10.6546 4.12497 10.9998V14.4998H10.9439C10.7757 14.2188 10.6501 13.9093 10.5762 13.5802C10.0374 13.4967 9.62497 13.0308 9.62497 12.4686V10.4686C9.62497 9.84724 10.1287 9.34356 10.75 9.34356H12C12.3846 9.34356 12.7241 9.53658 12.927 9.83104C13.156 9.7779 13.3945 9.74981 13.6396 9.74981C13.8047 9.74982 13.9668 9.76258 14.125 9.78715V8.89434H14C13.6548 8.89434 13.375 8.61452 13.375 8.26934C13.375 8.22652 13.3795 8.18474 13.3877 8.14434H13.25C12.9048 8.14434 12.625 7.86452 12.625 7.51934C12.625 7.17416 12.9048 6.89434 13.25 6.89434H13.9144L9.13376 3.51445L7.89939 4.38555C7.61734 4.58432 7.2272 4.51705 7.02829 4.23516C6.8295 3.95308 6.89673 3.56296 7.17868 3.36406L8.4863 2.44219L8.63865 2.35234ZM11.4981 10.5936H10.875V11.4002C11.038 11.0982 11.2492 10.8259 11.4981 10.5936ZM13 4.71677V3.9373H12.5625V4.40746L13 4.71677ZM11.9843 13.5506V13.2498C11.9843 13.1118 12.0963 12.9998 12.2343 12.9998C12.3724 12.9998 12.4843 13.1118 12.4843 13.2498V13.5506C12.4843 13.6887 12.5963 13.8006 12.7343 13.8006H14.7031C14.8412 13.8006 14.9531 13.6887 14.9531 13.5506V13.5135C14.9531 13.3754 15.065 13.2635 15.2031 13.2635C15.3412 13.2635 15.4531 13.3754 15.4531 13.5135V13.5506C15.4531 13.9648 15.1173 14.3006 14.7031 14.3006H12.7343C12.3201 14.3006 11.9843 13.9648 11.9843 13.5506ZM11.9843 12.4393V12.3455C11.9845 11.9627 12.2949 11.6524 12.6777 11.6522C12.7181 11.6522 12.7581 11.6395 12.791 11.616L13.0918 11.4012C13.2189 11.3104 13.3711 11.2616 13.5273 11.2615H13.832C13.9882 11.2616 14.1404 11.3104 14.2675 11.4012L14.3369 11.4507C14.4168 11.3655 14.5303 11.3123 14.6562 11.3123C14.8978 11.3123 15.0937 11.5082 15.0937 11.7498L15.0937 11.753L15.0934 11.763C15.3084 11.8946 15.4531 12.1309 15.4531 12.4022V12.8748C15.4531 13.0129 15.3411 13.1248 15.2031 13.1248C15.065 13.1248 14.9531 13.0129 14.9531 12.8748V12.4022C14.9531 12.266 14.8401 12.1522 14.7002 12.1522C14.5444 12.1522 14.3912 12.1035 14.2636 12.0125L13.9775 11.8084C13.9351 11.7781 13.8841 11.7616 13.832 11.7615H13.5273C13.4752 11.7616 13.4242 11.7781 13.3818 11.8084L13.081 12.0233C12.9634 12.1071 12.8221 12.1522 12.6777 12.1522C12.571 12.1524 12.4845 12.2388 12.4843 12.3455V12.4393C12.4843 12.5773 12.3724 12.6893 12.2343 12.6893C12.0963 12.6893 11.9843 12.5773 11.9843 12.4393ZM14.0312 12.8748C14.0312 12.7022 13.8913 12.5623 13.7187 12.5623C13.5461 12.5623 13.4062 12.7022 13.4062 12.8748C13.4062 13.0474 13.5461 13.1873 13.7187 13.1873C13.8026 13.1873 13.8782 13.1543 13.9345 13.1004C13.9942 13.0432 14.0312 12.9636 14.0312 12.8748ZM14.5312 12.8748C14.5312 13.1055 14.4343 13.3141 14.2802 13.4617C14.1346 13.6011 13.9365 13.6873 13.7187 13.6873C13.27 13.6873 12.9062 13.3235 12.9062 12.8748C12.9062 12.4261 13.27 12.0623 13.7187 12.0623C14.1675 12.0623 14.5312 12.4261 14.5312 12.8748ZM9.12497 5.03105C9.92176 5.03105 10.5899 5.40854 11.0468 5.8748C11.4897 6.32673 11.8125 6.94405 11.8125 7.53105V8.09355C11.8125 8.43873 11.5327 8.71855 11.1875 8.71855H7.06247C6.7173 8.71855 6.43747 8.43873 6.43747 8.09355V7.53105C6.43747 6.94405 6.76027 6.32673 7.2031 5.8748C7.66006 5.40854 8.32818 5.03105 9.12497 5.03105ZM9.74997 7.46855H10.5576C10.5332 7.29436 10.4126 7.01343 10.1543 6.7498C10.034 6.62707 9.89726 6.52392 9.74997 6.44512V7.46855ZM8.49997 6.44512C8.35269 6.52392 8.21594 6.62707 8.09568 6.7498C7.83736 7.01343 7.71678 7.29437 7.69236 7.46855H8.49997V6.44512ZM6.37497 10.6873H7.37497V12.4373H6.37497V10.6873ZM7.49997 13.6873C8.12129 13.6873 8.62497 13.1836 8.62497 12.5623V10.5623C8.62497 9.94098 8.12129 9.4373 7.49997 9.4373H6.24997C5.62865 9.4373 5.12497 9.94098 5.12497 10.5623V12.5623C5.12497 13.1836 5.62865 13.6873 6.24997 13.6873H7.49997Z" fill="#332A2A"/>
</g>
<defs>
<clipPath id="clip0_960_11049">
<rect width="18" height="18" fill="white"/>
</clipPath>
</defs>
</svg>
