<svg width="44" height="44" viewBox="0 0 44 44" fill="none" xmlns="http://www.w3.org/2000/svg">
<g clip-path="url(#clip0_2258_13292)">
<path d="M20.3243 5.53066C21.3459 4.81082 22.7101 4.81133 23.7306 5.53261L28.8243 9.1332V7.86366C28.8246 6.8413 29.6535 6.01221 30.6759 6.0121H33.0177C34.04 6.01233 34.869 6.84137 34.8693 7.86366V9.28652C34.8693 9.70065 34.5334 10.0364 34.1193 10.0365C33.7051 10.0365 33.3693 9.70072 33.3693 9.28652V7.86366C33.369 7.6698 33.2116 7.51233 33.0177 7.5121H30.6759C30.4819 7.51221 30.3246 7.66973 30.3243 7.86366V10.1947L33.3693 12.3471V11.307C33.3695 10.893 33.7052 10.557 34.1193 10.557C34.5332 10.5572 34.8691 10.8931 34.8693 11.307V13.3266C34.8693 13.3528 34.867 13.3791 34.8644 13.4047L39.6017 16.7543C39.9397 16.9933 40.0201 17.461 39.7814 17.7992C39.5422 18.1374 39.0737 18.218 38.7355 17.9789L37.8986 17.3871V36.3715C37.8985 38.0025 36.5764 39.3254 34.9454 39.3256H9.05382C7.42294 39.3252 6.1007 38.0024 6.1007 36.3715V27.4662C6.1007 27.0521 6.4366 26.7163 6.8507 26.7162C7.26491 26.7162 7.6007 27.052 7.6007 27.4662V36.3715C7.6007 37.174 8.25137 37.8252 9.05382 37.8256H34.9454C35.748 37.8254 36.3985 37.1741 36.3986 36.3715V20.8627H35.129C34.715 20.8625 34.3791 20.5267 34.379 20.1127C34.379 19.6986 34.7149 19.3628 35.129 19.3627H36.3986V18.8422H33.1085C32.6946 18.8419 32.3585 18.5062 32.3585 18.0922C32.3588 17.6784 32.6947 17.3425 33.1085 17.3422H36.3986V16.3568C36.3986 16.347 36.3992 16.3373 36.3995 16.3275L22.8644 6.7582C22.3623 6.40328 21.6913 6.40218 21.1886 6.75624L18.1603 8.89003C17.8217 9.12851 17.3539 9.0479 17.1153 8.70937C16.8768 8.3708 16.9584 7.90303 17.297 7.66445L20.3243 5.53066ZM17.8683 24.1908C18.8907 24.1909 19.7195 25.02 19.7198 26.0424V31.9184C19.7198 32.941 18.8909 33.7698 17.8683 33.7699H14.0118C12.9893 33.7697 12.1603 32.9409 12.1603 31.9184V26.0424C12.1606 25.0201 12.9895 24.1911 14.0118 24.1908H17.8683ZM29.9874 23.9389C31.01 23.939 31.8389 24.7679 31.839 25.7904V31.6664C31.8389 32.689 31.01 33.5179 29.9874 33.518H26.131C25.1085 33.5177 24.2795 32.6889 24.2794 31.6664V25.7904C24.2795 24.768 25.1086 23.9391 26.131 23.9389H29.9874ZM14.0118 25.6908C13.818 25.6911 13.6606 25.8485 13.6603 26.0424V31.9184C13.6603 32.1125 13.8178 32.2697 14.0118 32.2699H17.8683C18.0625 32.2698 18.2198 32.1126 18.2198 31.9184V26.0424C18.2195 25.8484 18.0623 25.6909 17.8683 25.6908H14.0118ZM26.131 25.4389C25.937 25.4391 25.7795 25.5964 25.7794 25.7904V31.6664C25.7795 31.8605 25.937 32.0177 26.131 32.018H29.9874C30.1816 32.0179 30.3389 31.8606 30.339 31.6664V25.7904C30.3389 25.5963 30.1815 25.439 29.9874 25.4389H26.131ZM12.9972 10.6937C13.3357 10.4552 13.8035 10.5369 14.0421 10.8754C14.2806 11.2139 14.1999 11.6817 13.8614 11.9203L7.59875 16.3324C7.59901 16.3405 7.6007 16.3486 7.6007 16.3568V17.3422H8.36535C8.77941 17.3422 9.1151 17.6782 9.11535 18.0922C9.11534 18.5064 8.77956 18.8422 8.36535 18.8422H7.6007V21.9115C7.60065 22.3257 7.26489 22.6615 6.8507 22.6615C6.43663 22.6614 6.10074 22.3256 6.1007 21.9115V17.3891L5.26281 17.9799C4.92426 18.2182 4.45641 18.1367 4.21789 17.7982C3.97966 17.4597 4.06109 16.9918 4.39953 16.7533L12.9972 10.6937ZM22.0001 12.3246C23.8411 12.3247 25.4129 13.1974 26.5099 14.3168C27.5899 15.419 28.3048 16.8601 28.3048 18.1244V19.6391C28.3048 20.0531 27.9689 20.3889 27.5548 20.3891H16.4454C16.0312 20.389 15.6955 20.0532 15.6954 19.6391V18.1244C15.6954 16.8601 16.4094 15.419 17.4894 14.3168C18.5864 13.1972 20.1588 12.3246 22.0001 12.3246ZM21.2501 13.891C20.2045 14.0768 19.2769 14.6368 18.5616 15.3666C17.6625 16.2842 17.1954 17.3689 17.1954 18.1244C17.1954 18.3682 17.1954 18.6335 17.1954 18.8891H21.2501V13.891ZM22.7501 18.8891H26.8048C26.8048 18.7087 26.8048 18.4704 26.8048 18.1244C26.8048 17.3689 26.3376 16.2842 25.4386 15.3666C24.7234 14.6368 23.7956 14.0768 22.7501 13.891V18.8891Z" fill="#332A2A"/>
</g>
<defs>
<clipPath id="clip0_2258_13292">
<rect width="44" height="44" fill="white"/>
</clipPath>
</defs>
</svg>
