<svg width="23" height="23" viewBox="0 0 23 23" fill="none" xmlns="http://www.w3.org/2000/svg">
<g clip-path="url(#clip0_2258_13294)">
<path d="M9.85486 3.08826C10.8505 2.38663 12.1796 2.38721 13.1742 3.09022L14.7845 4.22791V3.78455C14.7848 3.2739 15.1987 2.85979 15.7094 2.85975H17.5853C18.0959 2.85994 18.5099 3.27399 18.5101 3.78455V4.85389C18.5101 5.06902 18.4071 5.25861 18.2504 5.38221C18.4072 5.50573 18.51 5.69547 18.5101 5.91053V6.86268L20.8646 8.52772C21.1685 8.74305 21.2408 9.16394 21.0258 9.46815C20.8125 9.76944 20.3977 9.84193 20.0941 9.63416V18.1879C20.0941 19.6521 18.9069 20.839 17.4428 20.8392H5.16541C3.91794 20.8392 2.90662 19.8279 2.90662 18.5805V14.3568C2.90686 13.9842 3.20878 13.682 3.58142 13.682C3.954 13.6821 4.25598 13.9843 4.25623 14.3568V18.5805C4.25623 19.0823 4.66352 19.4896 5.16541 19.4896H17.4428C18.1613 19.4894 18.7435 18.9065 18.7435 18.1879V11.1888H18.3627C17.9901 11.1886 17.6879 10.8857 17.6879 10.5131C17.6879 10.3717 17.7317 10.2406 17.806 10.1322H17.307C16.9343 10.1321 16.6322 9.8301 16.6322 9.4574C16.6323 9.08476 16.9344 8.78275 17.307 8.7826H18.7435V8.68006L12.3949 4.19276C11.8668 3.81946 11.1609 3.81921 10.6322 4.19178L9.65662 4.87928C9.35211 5.09386 8.93107 5.02037 8.71619 4.71619C8.50154 4.41162 8.57395 3.99061 8.8783 3.77576L9.85486 3.08826ZM9.41638 12.3627C10.0651 12.3629 10.5912 12.8887 10.5912 13.5375V16.7611C10.591 17.4098 10.065 17.9357 9.41638 17.9359H7.24841C6.59976 17.9357 6.07377 17.4098 6.07361 16.7611V13.5375C6.07361 12.8887 6.59966 12.3629 7.24841 12.3627H9.41638ZM15.7513 12.2308C16.4001 12.2311 16.9261 12.7569 16.9261 13.4056V16.6293C16.9259 17.2779 16.3999 17.8038 15.7513 17.8041H13.5834C12.9348 17.8039 12.4088 17.2779 12.4086 16.6293V13.4056C12.4086 12.7569 12.9346 12.2311 13.5834 12.2308H15.7513ZM7.42322 16.5853H9.2406V13.7123H7.42322V16.5853ZM13.7582 16.4535H15.5756V13.5805H13.7582V16.4535ZM6.63123 5.35975C6.93581 5.1451 7.35681 5.2175 7.57166 5.52186C7.78601 5.82654 7.71409 6.24861 7.40955 6.46326L4.25623 8.68397V8.7826H4.37341C4.74605 8.78273 5.04815 9.08476 5.04822 9.4574C5.04822 9.83011 4.74609 10.1321 4.37341 10.1322H4.25623V11.4535C4.25622 11.8262 3.95415 12.1282 3.58142 12.1283C3.20863 12.1283 2.90662 11.8263 2.90662 11.4535V9.63416C2.60265 9.84263 2.18716 9.76912 1.974 9.46717C1.75938 9.16246 1.83243 8.74146 2.13709 8.52674L6.63123 5.35975ZM11.4994 6.15955C12.554 6.15955 13.445 6.65921 14.059 7.28553C14.6576 7.89651 15.0785 8.71715 15.0785 9.47401V10.266C15.0784 10.6387 14.7754 10.9408 14.4027 10.9408H8.59607C8.22354 10.9406 7.92136 10.6386 7.92127 10.266V9.47401C7.92129 8.71722 8.34124 7.89649 8.93982 7.28553C9.55366 6.65912 10.4448 6.15976 11.4994 6.15955ZM10.8246 7.6283C10.478 7.75222 10.1636 7.96554 9.90369 8.23084C9.46821 8.67551 9.27091 9.17516 9.27088 9.47401C9.27088 9.51218 9.27088 9.55144 9.27088 9.59119H10.8246V7.6283ZM12.1742 9.59119H13.7279C13.7279 9.55497 13.7279 9.51597 13.7279 9.47401C13.7279 9.17507 13.5308 8.67561 13.0951 8.23084C12.835 7.96546 12.5209 7.75214 12.1742 7.6283V9.59119ZM16.1342 5.18299L17.1595 5.9076C17.1606 5.6941 17.2627 5.50519 17.4183 5.38221C17.2621 5.25858 17.1595 5.06862 17.1595 4.85389V4.20936H16.1342V5.18299Z" fill="#332A2A"/>
</g>
<defs>
<clipPath id="clip0_2258_13294">
<rect width="23" height="23" fill="white"/>
</clipPath>
</defs>
</svg>
