<svg width="28" height="28" viewBox="0 0 28 28" fill="none" xmlns="http://www.w3.org/2000/svg">
<g clip-path="url(#clip0_2258_13173)">
<path d="M23.6399 10.4087V24.2271H4.35962V10.0874L13.679 3.66064L23.6399 10.4087ZM8.53735 21.0132H12.0715V16.1929H8.53735V21.0132ZM16.2493 21.0132H19.7844V16.1929H16.2493V21.0132ZM14.0002 8.15967C12.3936 8.15977 10.1439 9.44562 10.1438 12.3374H17.5344C17.5344 10.4095 16.8276 8.15988 14.0002 8.15967Z" fill="#E05149"/>
<path d="M12.3147 3.62303C13.3363 2.90314 14.7005 2.90351 15.721 3.62499L18.0706 5.28612V5.0537C18.0706 4.22527 18.7422 3.5537 19.5706 3.5537H20.9622C21.7904 3.55393 22.4622 4.22541 22.4622 5.0537V5.91014C22.4621 6.18456 22.313 6.42205 22.093 6.55272C22.313 6.68333 22.462 6.92093 22.4622 7.1953V8.39061L25.3587 10.4394C25.6967 10.6786 25.7774 11.1472 25.5384 11.4853C25.2992 11.8232 24.8306 11.9029 24.4925 11.664L24.3899 11.5908V22.3447C24.3898 23.9757 23.0678 25.2977 21.4368 25.2978H6.28738C4.80862 25.2976 3.60976 24.0989 3.60965 22.6201V17.4785C3.60974 17.0644 3.94556 16.7286 4.35965 16.7285C4.77381 16.7285 5.10956 17.0644 5.10965 17.4785V22.6201C5.10976 23.2705 5.63705 23.7976 6.28738 23.7978H21.4368C22.2394 23.7977 22.8898 23.1473 22.8899 22.3447V13.5488H22.3548C21.9407 13.5487 21.6049 13.2129 21.6048 12.7988C21.6049 12.5891 21.6915 12.3997 21.8304 12.2637H21.0696C20.6555 12.2636 20.3197 11.9277 20.3196 11.5137C20.3197 11.0995 20.6555 10.7637 21.0696 10.7637H22.8899V10.5303L14.8548 4.85057C14.3525 4.49548 13.6808 4.49429 13.178 4.84862L11.7141 5.88085C11.3758 6.1192 10.9079 6.03822 10.6692 5.70018C10.4307 5.36173 10.5116 4.89395 10.8499 4.65526L12.3147 3.62303ZM11.3225 15.1221C12.1507 15.1224 12.8225 15.7938 12.8225 16.6221V20.2637C12.8223 21.0917 12.1506 21.7634 11.3225 21.7637H8.96609C8.13781 21.7637 7.46633 21.0919 7.46609 20.2637V16.6221C7.46609 15.7936 8.13767 15.1221 8.96609 15.1221H11.3225ZM19.0345 14.9609C19.8627 14.9611 20.5344 15.6327 20.5345 16.4609V20.1025C20.5344 20.9308 19.8627 21.6023 19.0345 21.6025H16.678C15.8497 21.6025 15.1781 20.9309 15.178 20.1025V16.4609C15.1781 15.6326 15.8497 14.961 16.678 14.9609H19.0345ZM8.96609 20.2637H11.3225V16.6221H8.96609V20.2637ZM16.678 20.1025H19.0345V16.4609H16.678V20.1025ZM8.11453 6.58299C8.45309 6.34459 8.92089 6.42518 9.15945 6.76366C9.39783 7.10222 9.3163 7.57003 8.97781 7.80858L5.10965 10.5342V10.7637H5.32352C5.73769 10.7637 6.07345 11.0995 6.07352 11.5137C6.07341 11.9278 5.73766 12.2637 5.32352 12.2637H5.10965V13.9443C5.10932 14.3583 4.77366 14.6943 4.35965 14.6943C3.94571 14.6942 3.60998 14.3582 3.60965 13.9443V11.5918L3.50613 11.665C3.16771 11.9032 2.69981 11.8225 2.46121 11.4844C2.22263 11.1458 2.30439 10.6781 2.64285 10.4394L8.11453 6.58299ZM14.0003 7.5703C15.2608 7.57042 16.3277 8.16775 17.0647 8.91991C17.7849 9.65491 18.2845 10.6371 18.2845 11.5342V12.498C18.2843 12.9121 17.9485 13.248 17.5345 13.248H10.4651C10.0511 13.2479 9.71531 12.912 9.71512 12.498V11.5342C9.71512 10.6371 10.2147 9.65489 10.9348 8.91991C11.672 8.16764 12.7395 7.57035 14.0003 7.5703ZM13.2503 9.18749C12.7783 9.33612 12.3527 9.61598 12.0061 9.96971C11.4669 10.5201 11.2151 11.1459 11.2151 11.5342C11.2151 11.6033 11.2151 11.6752 11.2151 11.748H13.2503V9.18749ZM14.7503 11.748H16.7845C16.7845 11.6848 16.7845 11.6139 16.7845 11.5342C16.7845 11.1459 16.5327 10.5201 15.9934 9.96971C15.6471 9.61625 15.2219 9.33714 14.7503 9.18846V11.748ZM19.5706 6.34667L20.9622 7.33006V7.1953C20.9624 6.92104 21.1115 6.68337 21.3313 6.55272C21.1116 6.42199 20.9623 6.18437 20.9622 5.91014V5.0537H19.5706V6.34667Z" fill="#332A2A"/>
</g>
<defs>
<clipPath id="clip0_2258_13173">
<rect width="28" height="28" fill="white"/>
</clipPath>
</defs>
</svg>
