<svg width="23" height="23" viewBox="0 0 23 23" fill="none" xmlns="http://www.w3.org/2000/svg">
<g clip-path="url(#clip0_960_11050)">
<path d="M18.6875 8.625V13.2607C18.2518 13.0537 17.7645 12.9375 17.25 12.9375C16.7356 12.9375 16.2482 13.0538 15.8125 13.2607V12.9375H13.1768V16.5312H13.9043C13.973 17.5023 14.4553 18.3588 15.1758 18.9268H4.3125V8.38574L11.2607 3.59375L18.6875 8.625ZM17.541 14.5742C17.6568 14.5742 17.77 14.6105 17.8643 14.6777L18.2734 14.9707C18.3675 15.0378 18.4802 15.0742 18.5957 15.0742H18.7109C19.0176 15.0742 19.2664 15.3223 19.2666 15.6289V17.2637C19.2665 17.5704 19.0177 17.8193 18.7109 17.8193H16.0283C15.7217 17.8192 15.4728 17.5703 15.4727 17.2637V15.6289C15.4729 15.3224 15.7218 15.0744 16.0283 15.0742H16.0439C16.1595 15.0742 16.2721 15.0377 16.3662 14.9707L16.7754 14.6777C16.8696 14.6104 16.9828 14.5742 17.0986 14.5742H17.541ZM17.3701 15.3535C16.8739 15.3535 16.4717 15.7558 16.4717 16.252C16.4718 16.7481 16.874 17.1504 17.3701 17.1504C17.6111 17.1503 17.8299 17.0549 17.9912 16.9004C18.1618 16.7369 18.2685 16.5069 18.2686 16.252C18.2686 15.7559 17.8662 15.3537 17.3701 15.3535ZM7.42676 12.9375V16.5312H10.0625V12.9375H7.42676ZM11.5 6.94824C10.3021 6.94824 8.625 7.90625 8.625 10.0625H14.1357C14.1357 8.625 13.6083 6.94824 11.5 6.94824Z" fill="#E05149"/>
<path fill-rule="evenodd" clip-rule="evenodd" d="M7.21938 5.8523C7.52408 5.63757 7.94505 5.71073 8.15981 6.01539C8.3745 6.32003 8.30221 6.74101 7.9977 6.95582L5.17 8.94834H5.20604C5.57872 8.94834 5.88067 9.2505 5.88084 9.62315C5.88084 9.99594 5.57883 10.2989 5.20604 10.2989H5.16209V11.4356C5.16192 11.8083 4.85997 12.1105 4.48729 12.1105C4.1146 12.1105 3.81266 11.8083 3.81248 11.4356V9.89166C3.52214 10.0264 3.16813 9.93866 2.9772 9.66773C2.76255 9.36302 2.8356 8.94203 3.14028 8.7273L7.21938 5.8523ZM10.1452 3.79078C11.0704 3.13874 12.3058 3.13941 13.2301 3.79273L14.5937 4.75687V4.74781C14.5937 4.09888 15.1196 3.57301 15.7685 3.57301H16.9248C17.5737 3.57301 18.0996 4.09888 18.0996 4.74781V7.2357L20.2106 8.72828C20.5147 8.94358 20.5869 9.36444 20.3717 9.66871C20.1805 9.93912 19.827 10.0261 19.5371 9.89122V13.1544C19.5371 13.178 19.5359 13.2013 19.5335 13.2243C19.9856 13.5146 20.3732 13.8963 20.6702 14.3429C20.8231 14.5728 20.7605 14.8833 20.5306 15.0362C20.3006 15.1891 19.9901 15.1265 19.8372 14.8966C19.3217 14.1216 18.4421 13.6125 17.4437 13.6124C15.8571 13.6124 14.5706 14.8989 14.5706 16.4855C14.5708 18.0719 15.8572 19.3575 17.4437 19.3575C19.03 19.3574 20.3156 18.0718 20.3157 16.4855C20.3157 16.2094 20.5398 15.9856 20.8157 15.9855C21.0919 15.9855 21.3157 16.2093 21.3157 16.4855C21.3156 18.6241 19.5823 20.3574 17.4437 20.3575C16.8766 20.3575 16.338 20.2357 15.8525 20.0167H5.92479C4.75819 20.0167 3.81266 19.0709 3.81248 17.9044V14.0704C3.81266 13.6978 4.1146 13.3956 4.48729 13.3956C4.85997 13.3956 5.16192 13.6978 5.16209 14.0704V17.9044C5.16227 18.3254 5.50378 18.6661 5.92479 18.6661H14.2429C13.9454 18.2306 13.7346 17.7312 13.6351 17.1928C12.9426 16.9871 12.4375 16.3453 12.4375 15.586V13.753C12.4375 12.828 13.1872 12.0782 14.1123 12.0782H14.9873C15.5454 12.0782 16.0397 12.3511 16.344 12.7708C16.6926 12.6677 17.0617 12.6124 17.4437 12.6124C17.6981 12.6124 17.9468 12.637 18.1875 12.6838V11.2569H17.9043C17.5316 11.2569 17.2287 10.9548 17.2285 10.5821C17.2285 10.4808 17.253 10.3852 17.293 10.2989H16.9453C16.5727 10.2988 16.2705 9.99583 16.2705 9.62315C16.2707 9.25061 16.5728 8.94852 16.9453 8.94834H18.1843L12.4508 4.89527C11.993 4.57166 11.3808 4.57132 10.9225 4.8943L10.0368 5.51832C9.73206 5.73289 9.31104 5.65989 9.09634 5.35523C8.88174 5.05053 8.95476 4.62951 9.25942 4.4148L10.1452 3.79078ZM15.0567 13.4353C15.0343 13.4304 15.0111 13.4278 14.9873 13.4278H14.1123C13.9328 13.4278 13.7871 13.5735 13.7871 13.753V15.2057C14.0341 14.5 14.4796 13.8875 15.0567 13.4353ZM16.75 6.28145V4.92262H15.9433V5.71112L16.75 6.28145ZM15.2475 17.4131V16.9453C15.2477 16.7246 15.4271 16.5459 15.6479 16.5459C15.8686 16.5459 16.048 16.7246 16.0482 16.9453V17.4131C16.0482 17.499 16.1176 17.5693 16.2035 17.5693H18.8861C18.9718 17.5691 19.0414 17.4989 19.0414 17.4131V17.2822C19.0416 17.0617 19.2203 16.883 19.4408 16.8828C19.6616 16.8828 19.841 17.0615 19.8412 17.2822V17.4131C19.8412 17.9407 19.4137 18.3689 18.8861 18.3691H16.2035C15.6758 18.3691 15.2475 17.9408 15.2475 17.4131ZM19.0414 16.4668V15.7793C19.0414 15.6935 18.9718 15.6243 18.8861 15.624H18.7709C18.5717 15.624 18.3773 15.5611 18.2152 15.4453L17.8061 15.1533C17.7798 15.1347 17.7484 15.1251 17.7162 15.125H17.2738C17.2415 15.125 17.2094 15.1346 17.183 15.1533L16.7738 15.4453C16.6118 15.5611 16.4173 15.624 16.2182 15.624H16.2035C16.1176 15.624 16.0482 15.6934 16.0482 15.7793V15.9102C16.0482 16.131 15.8687 16.3096 15.6479 16.3096C15.427 16.3096 15.2475 16.131 15.2475 15.9102V15.7793C15.2475 15.2516 15.6758 14.8242 16.2035 14.8242H16.2182C16.2506 14.8242 16.2826 14.8138 16.309 14.7949L16.7182 14.5029C16.8802 14.3872 17.0747 14.3242 17.2738 14.3242H17.7162C17.9152 14.3243 18.1089 14.3873 18.2709 14.5029L18.4539 14.6335C18.5348 14.5744 18.6344 14.5396 18.7422 14.5395C18.9607 14.5395 19.1462 14.6827 19.2093 14.8804C19.5778 15.0128 19.8412 15.3652 19.8412 15.7793V16.4668C19.8411 16.6876 19.6617 16.8662 19.4408 16.8662C19.2202 16.866 19.0415 16.6875 19.0414 16.4668ZM18.0133 16.4666C18.0133 16.2077 17.8035 15.9978 17.5446 15.9978C17.2857 15.9978 17.0758 16.2077 17.0758 16.4666C17.0758 16.7255 17.2857 16.9353 17.5446 16.9353C17.6704 16.9353 17.7844 16.8862 17.8688 16.8054C17.9582 16.7198 18.0133 16.5997 18.0133 16.4666ZM18.5133 16.4666C18.5133 16.7415 18.3982 16.9898 18.2145 17.1658C18.0407 17.3322 17.8045 17.4353 17.5446 17.4353C17.0096 17.4353 16.5758 17.0016 16.5758 16.4666C16.5758 15.9315 17.0096 15.4978 17.5446 15.4978C18.0796 15.4978 18.5133 15.9315 18.5133 16.4666ZM13.6351 9.63811C13.6349 9.38785 13.4664 8.94906 13.0784 8.55315C12.8695 8.33993 12.6212 8.16876 12.3499 8.05706V9.68206H13.6351V9.63811ZM9.71417 9.68206H10.9993V8.05706C10.7281 8.16879 10.4797 8.33993 10.2708 8.55315C9.88288 8.94906 9.71432 9.38785 9.71417 9.63811V9.68206ZM14.9857 10.3569C14.9857 10.7297 14.6827 11.0326 14.3099 11.0326H9.03937C8.66658 11.0326 8.36457 10.7297 8.36457 10.3569V9.63811C8.36469 8.93009 8.75612 8.17098 9.30695 7.60881C9.87315 7.03098 10.6972 6.5678 11.6751 6.5678C12.6528 6.5679 13.4762 7.0311 14.0423 7.60881C14.5931 8.17098 14.9855 8.93008 14.9857 9.63811V10.3569ZM9.23729 13.5476C9.41678 13.5476 9.56248 13.6933 9.56248 13.8728V15.7058C9.56248 15.8853 9.41678 16.031 9.23729 16.031H8.36229C8.18279 16.031 8.03709 15.8853 8.03709 15.7058V13.8728C8.03709 13.6933 8.1828 13.5476 8.36229 13.5476H9.23729ZM9.23729 17.3816C10.1624 17.3816 10.9121 16.6309 10.9121 15.7058V13.8728C10.9121 12.9477 10.1624 12.198 9.23729 12.198H8.36229C7.43721 12.198 6.68748 12.9477 6.68748 13.8728V15.7058C6.68748 16.6309 7.43721 17.3816 8.36229 17.3816H9.23729Z" fill="#332A2A"/>
</g>
<defs>
<clipPath id="clip0_960_11050">
<rect width="23" height="23" fill="white"/>
</clipPath>
</defs>
</svg>
