<svg width="28" height="28" viewBox="0 0 28 28" fill="none" xmlns="http://www.w3.org/2000/svg">
<g clip-path="url(#clip0_960_11048)">
<path d="M22.75 10.5V16.1426C22.2196 15.8907 21.6262 15.75 21 15.75C20.3738 15.75 19.7803 15.8906 19.25 16.1426V15.75H16.042V20.125H16.9277C17.0113 21.3075 17.5981 22.3507 18.4756 23.042H5.25V10.208L13.708 4.375L22.75 10.5ZM21.3936 17.7432C21.5092 17.7432 21.6217 17.7795 21.7158 17.8467L22.2773 18.2471C22.3715 18.3142 22.484 18.3505 22.5996 18.3506H22.8994C23.2062 18.3506 23.4551 18.5995 23.4551 18.9062V21.1367C23.4551 21.4435 23.2062 21.6923 22.8994 21.6924H19.3926C19.0858 21.6924 18.8369 21.4435 18.8369 21.1367V18.9062C18.8369 18.5994 19.0858 18.3506 19.3926 18.3506H19.5703C19.6861 18.3506 19.7994 18.3144 19.8936 18.2471L20.4541 17.8467C20.5483 17.7794 20.6616 17.7432 20.7773 17.7432H21.3936ZM21.1455 18.6914C20.5416 18.6916 20.0518 19.1812 20.0518 19.7852C20.052 20.3889 20.5417 20.8787 21.1455 20.8789C21.439 20.8789 21.7059 20.7624 21.9023 20.5742C22.11 20.3752 22.2391 20.0954 22.2393 19.7852C22.2393 19.1811 21.7496 18.6914 21.1455 18.6914ZM9.04199 15.75V20.125H12.25V15.75H9.04199ZM14 8.45801C12.5417 8.45801 10.5 9.625 10.5 12.25H17.208C17.208 10.5 16.5667 8.45801 14 8.45801Z" fill="#E05149"/>
<path fill-rule="evenodd" clip-rule="evenodd" d="M12.43 4.28362C13.3813 3.61323 14.6515 3.6142 15.6018 4.28605L17.625 5.71651V5.45842C17.625 4.76806 18.1846 4.20842 18.875 4.20842H20.5C21.1903 4.20842 21.75 4.76806 21.75 5.45842V6.41675V7.58343V8.633L24.3496 10.471C24.6878 10.7102 24.7682 11.1782 24.529 11.5164C24.2937 11.8492 23.8368 11.9323 23.5 11.707V12.6694V15.8008C23.5 15.8088 23.4999 15.8168 23.4996 15.8247C24.0847 16.185 24.5852 16.6689 24.9647 17.2395C25.1558 17.527 25.0777 17.9149 24.7902 18.106C24.5028 18.2972 24.1149 18.2191 23.9237 17.9316C23.2991 16.9921 22.2327 16.3751 21.0226 16.3751C19.1001 16.3751 17.5416 17.9336 17.5416 19.856C17.5416 21.7785 19.1001 23.337 21.0226 23.337C22.9451 23.337 24.5035 21.7785 24.5035 19.856C24.5035 19.5109 24.7833 19.231 25.1285 19.231C25.4737 19.231 25.7535 19.5109 25.7535 19.856C25.7535 22.4689 23.6354 24.587 21.0226 24.587C20.2579 24.587 19.5356 24.4056 18.8964 24.0834H15.1666H6.99998C5.61927 24.0834 4.49998 22.9641 4.49998 21.5834V20.1251V16.9168C4.49998 16.5025 4.83577 16.1668 5.24998 16.1668C5.66419 16.1668 5.99998 16.5025 5.99998 16.9168V20.1251V21.5834C5.99998 22.1357 6.4477 22.5834 6.99998 22.5834H15.1666H17.1565C16.7637 22.0277 16.4877 21.3835 16.3643 20.6866C15.5834 20.511 15 19.8132 15 18.9793V17.6459V16.3126C15 15.3461 15.7835 14.5626 16.75 14.5626H17.5H18.25C18.8461 14.5626 19.3725 14.8606 19.6885 15.3158C20.1116 15.1917 20.5593 15.1251 21.0226 15.1251C21.3577 15.1251 21.6846 15.16 22 15.2262V13.4194H21.5833C21.1691 13.4194 20.8333 13.0836 20.8333 12.6694C20.8333 12.5152 20.8798 12.3719 20.9596 12.2527H20.4166C20.0024 12.2527 19.6666 11.9169 19.6666 11.5027C19.6666 11.0885 20.0024 10.7527 20.4166 10.7527H22V10.6468L14.7358 5.51084C14.3039 5.20545 13.7265 5.20501 13.2941 5.50973L11.9649 6.44647C11.6263 6.68508 11.1584 6.60404 10.9198 6.26546C10.6812 5.92688 10.7622 5.45897 11.1008 5.22036L12.43 4.28362ZM18.1952 16.0626H17.5H16.75C16.6119 16.0626 16.5 16.1745 16.5 16.3126V17.6459V18.4633C16.7984 17.4931 17.4004 16.6559 18.1952 16.0626ZM20.25 7.57246V6.41675V5.70842H19.125V6.77705L20.25 7.57246ZM9.66274 7.15137C9.90135 7.48995 9.82031 7.95786 9.48173 8.19647L5.99998 10.6502V10.7527H6.12498C6.53919 10.7527 6.87498 11.0885 6.87498 11.5027C6.87498 11.9169 6.53919 12.2527 6.12498 12.2527H5.99998V13.7084C5.99998 14.1226 5.66419 14.4584 5.24998 14.4584C4.83577 14.4584 4.49998 14.1226 4.49998 13.7084V11.707C4.16274 11.9326 3.70528 11.8489 3.47026 11.5155C3.23165 11.1769 3.31269 10.709 3.65127 10.4704L8.61764 6.97036C8.95622 6.73175 9.42413 6.81279 9.66274 7.15137ZM21.899 18.4387C21.9776 18.5539 22.103 18.6346 22.2478 18.6533C22.3592 18.6975 22.4786 18.7205 22.5998 18.7205H22.8992C22.9851 18.7205 23.0547 18.7902 23.0547 18.8761V19.8335C23.0547 20.0544 23.2338 20.2335 23.4547 20.2335C23.6756 20.2335 23.8547 20.0544 23.8547 19.8335V18.8761C23.8547 18.5301 23.6708 18.2271 23.3955 18.0594C23.3828 17.6333 23.0333 17.2917 22.6042 17.2917C22.375 17.2917 22.1685 17.3892 22.0239 17.5448L21.9484 17.4909C21.7864 17.3751 21.5922 17.3129 21.393 17.3129H20.7769C20.5777 17.3129 20.3835 17.3751 20.2215 17.4909L19.6605 17.8916C19.6341 17.9104 19.6025 17.9205 19.5701 17.9205H19.3922C18.8645 17.9205 18.4367 18.3483 18.4367 18.8761V19.156C18.4367 19.3769 18.6158 19.556 18.8367 19.556C19.0576 19.556 19.2367 19.3769 19.2367 19.156V18.8761C19.2367 18.7902 19.3063 18.7205 19.3922 18.7205H19.5701C19.7693 18.7205 19.9634 18.6583 20.1255 18.5425L20.6864 18.1419C20.7128 18.123 20.7444 18.1129 20.7769 18.1129H21.393C21.4254 18.1129 21.457 18.123 21.4834 18.1419L21.899 18.4387ZM18.8367 20.0169C19.0576 20.0169 19.2367 20.196 19.2367 20.4169V21.107C19.2367 21.1929 19.3063 21.2625 19.3922 21.2625H22.8992C22.9851 21.2625 23.0547 21.1929 23.0547 21.107V20.827C23.0547 20.6061 23.2338 20.427 23.4547 20.427C23.6756 20.427 23.8547 20.6061 23.8547 20.827V21.107C23.8547 21.6347 23.4269 22.0625 22.8992 22.0625H19.3922C18.8645 22.0625 18.4367 21.6347 18.4367 21.107V20.4169C18.4367 20.196 18.6158 20.0169 18.8367 20.0169ZM21.1458 19.3585C20.8834 19.3585 20.6708 19.5712 20.6708 19.8335C20.6708 20.0958 20.8834 20.3085 21.1458 20.3085C21.2734 20.3085 21.3886 20.2587 21.4743 20.1766C21.565 20.0896 21.6208 19.9684 21.6208 19.8335C21.6208 19.5712 21.4081 19.3585 21.1458 19.3585ZM19.8708 19.8335C19.8708 19.1293 20.4416 18.5585 21.1458 18.5585C21.8499 18.5585 22.4208 19.1293 22.4208 19.8335C22.4208 20.1954 22.2694 20.5227 22.0277 20.7543C21.799 20.9733 21.4878 21.1085 21.1458 21.1085C20.4416 21.1085 19.8708 20.5377 19.8708 19.8335ZM11.1686 9.10018C11.8476 8.40721 12.8329 7.85425 14 7.85425C15.167 7.85425 16.1524 8.40721 16.8314 9.10018C17.4934 9.77583 17.9583 10.6832 17.9583 11.5209L17.9583 12.0877L17.9583 12.3959C17.9583 12.8101 17.6225 13.1459 17.2083 13.1459H14H10.7917C10.3774 13.1459 10.0417 12.8101 10.0417 12.3959L10.0416 11.9783L10.0416 11.5209C10.0416 10.6832 10.5066 9.77583 11.1686 9.10018ZM12.24 10.15C11.7589 10.641 11.5416 11.192 11.5416 11.5209L11.5416 11.6459H13.25V9.48753C12.8698 9.62447 12.5256 9.85852 12.24 10.15ZM14.75 9.48753V11.6459H16.4583L16.4583 11.5209C16.4583 11.192 16.2411 10.641 15.76 10.15C15.4744 9.85852 15.1302 9.62448 14.75 9.48753ZM9.74998 14.7084C8.78348 14.7084 7.99998 15.4919 7.99998 16.4584V17.7917V19.1251C7.99998 20.0916 8.78348 20.8751 9.74998 20.8751H10.5H11.25C12.2165 20.8751 13 20.0916 13 19.1251V17.7917V16.4584C13 15.4919 12.2165 14.7084 11.25 14.7084H10.5H9.74998ZM9.49998 16.4584C9.49998 16.3203 9.61191 16.2084 9.74998 16.2084H10.5H11.25C11.3881 16.2084 11.5 16.3203 11.5 16.4584V17.7917V19.1251C11.5 19.2632 11.3881 19.3751 11.25 19.3751H10.5H9.74998C9.61191 19.3751 9.49998 19.2632 9.49998 19.1251V17.7917V16.4584Z" fill="#332A2A"/>
</g>
<defs>
<clipPath id="clip0_960_11048">
<rect width="28" height="28" fill="white"/>
</clipPath>
</defs>
</svg>
