<svg width="44" height="44" viewBox="0 0 44 44" fill="none" xmlns="http://www.w3.org/2000/svg">
<g clip-path="url(#clip0_1042_11387)">
<path fill-rule="evenodd" clip-rule="evenodd" d="M35.75 6.5835C36.1642 6.5835 36.5 6.91928 36.5 7.3335C36.5 7.74771 36.1642 8.0835 35.75 8.0835H35.7125H35.675H35.6377H35.6004H35.5633H35.5263H35.4894H35.4525H35.4158H35.3792H35.3427H35.3063H35.27H35.2337H35.1976H35.1616H35.1257H35.0899H35.0542H35.0185H34.983H34.9476H34.9123H34.877H34.8419H34.8068H34.7719H34.737H34.7023H34.6676H34.633H34.5986H34.5642H34.5299H34.4957H34.4616H34.4276H34.3937H34.3598H34.3261H34.2924H34.2589H34.2254H34.192H34.1587H34.1255H34.0924H34.0594H34.0264H33.9936H33.9608H33.9281H33.8955H33.863H33.8306H33.7982H33.766H33.7338H33.7017H33.6697H33.6378H33.6059H33.5742H33.5425H33.5109H33.4794H33.4479H33.4166H33.3853H33.3541H33.323H33.2919H33.261H33.2301H33.1993H33.1686H33.1379H33.1073H33.0768H33.0464H33.0161H32.9858H32.9556H32.9255H32.8954H32.8654H32.8355H32.8057H32.7759H32.7463H32.7166H32.6871H32.6576H32.6282H32.5989H32.5696H32.5404H32.5113H32.4823H32.4533H32.4244H32.3955H32.3667H32.338H32.3094H32.2808H32.2523H32.2238H32.1954H32.1671H32.1389H32.1107H32.0825H32.0545H32.0265H31.9985H31.9706H31.9428H31.9151H31.8874H31.8597H31.8322H31.8047H31.7772H31.7498H31.7225H31.6952H31.668H31.6408H31.6137H31.5867H31.5597H31.5327H31.5058H31.479H31.4523H31.4255H31.3989H31.3723H31.3457H31.3192H31.2928H31.2664H31.24H31.2138H31.1875H31.1613H31.1352H31.1091H31.0831H31.0571H31.0311H31.0053H30.9794H30.9536H30.9279H30.9022H30.8765H30.8509H30.8254H30.7999H30.7744H30.749H30.7236H30.6983H30.673H30.6477H30.6225H30.5974H30.5723H30.5472H30.5222H30.4972H30.4722H30.4473H30.4225H30.3976H30.3728H30.3481H30.3234H30.2987H30.2741H30.2495H30.2249H30.2004H30.1759H30.1515H30.1271H30.1027H30.0784H30.0541H30.0298H30.0055H29.9813H29.9572H29.933H29.9089H29.8849H29.8608H29.8368H29.8128H29.7889H29.765H29.7411H29.7172H29.6934H29.6696H29.6458H29.6221H29.5984H29.5747H29.551H29.5274H29.5038H29.4802H29.4567H29.4331H29.4096H29.3861H29.3627H29.3393H29.3159H29.2925H29.2691H29.2458H29.2224H29.1991H29.1759H29.1526H29.1294H29.1062H29.083H29.0598H29.0366H29.0135H28.9904H28.9673H28.9442H28.9211H28.8981H28.875H28.852H28.829H28.806H28.7831H28.7601H28.7372H28.7142H28.6913H28.6684H28.6455H28.6226H28.5998H28.5769H28.5541H28.5312H28.5084H28.4856H28.4628H28.44H28.4172H28.3945H28.3717H28.3489H28.3262H28.3034H28.2807H28.258H28.2352H28.2125H28.1898H28.1671H28.1444H28.1217H28.099H28.0763H28.0536H28.0309H28.0083H27.9856H27.9629H27.9402H27.9175H27.8949H27.8722H27.8495H27.8268H27.8041H27.7815H27.7588H27.7361H27.7134H27.6907H27.668H27.6453H27.6226H27.5999H27.5772H27.5545H27.5318H27.509H27.4863H27.4636H27.4408H27.4181H27.3953H27.3726H27.3498H27.327H27.3042H27.2814H27.2586H27.2358H27.2129H27.1901H27.1672H27.1444H27.1215H27.0986H27.0757H27.0528H27.0298H27.0069H26.9839H26.961H26.938H26.915H26.8919H26.8689H26.8459H26.8228H26.7997H26.7766H26.7535H26.7303H26.7072H26.684H26.6608H26.6376H26.6143H26.5911H26.5678H26.5445H26.5212H26.4978H26.4745H26.4511H26.4277H26.4042H26.3808H26.3573H26.3338H26.3103H26.2867H26.2631H26.2395H26.2159H26.1922H26.1685H26.1448H26.1211H26.0973H26.0735H26.0497H26.0258H26.0019H25.978H25.954H25.9301H25.9061H25.882H25.8579H25.8338H25.8097H25.7855H25.7613H25.7371H25.7128H25.6885H25.6641H25.6398H25.6153H25.5909H25.5664H25.5419H25.5173H25.4927H25.4681H25.4434H25.4187H25.3939H25.3692H25.3443H25.3195H25.2945H25.2696H25.2446H25.2196H25.1945H25.1694H25.1442H25.119H25.0938H25.0685H25.0431H25.0177H24.9923H24.9668H24.9413H24.9158H24.8902H24.8645H24.8388H24.8131H24.7873H24.7614H24.7355H24.7096H24.6836H24.6575H24.6315H24.6053H24.5791H24.5529H24.5266H24.5002H24.4738H24.4474H24.4209H24.3943H24.3677H24.341H24.3143H24.2875H24.2607H24.2338H24.2069H24.1799H24.1528H24.1257H24.0986H24.0713H24.044H24.0167H23.9893H23.9618H23.9343H23.9067H23.8791H23.8514H23.8236H23.7958H23.7679H23.74H23.712H23.6839H23.6558H23.6276H23.5993H23.571H23.5426H23.5141H23.4856H23.457H23.4283H23.3996H23.3708H23.342H23.313H23.284H23.255H23.2259H23.1967H23.1674H23.1381H23.1086H23.0792H23.0496H23.02H22.9903H22.9605H22.9307H22.9008H22.8708H22.8407H22.8106H22.7804H22.7501H22.7198H22.6893H22.6588H22.6282H22.5976H22.5668H22.536H22.5051H22.4742H22.4431H22.412H22.3808H22.3495H22.3181H22.2867H22.2552H22.2236H22.1919H22.1601H22.1282H22.0963H22.0643H22.0322H22H18.0526C17.6384 8.0835 17.3026 7.74771 17.3026 7.3335C17.3026 6.91928 17.6384 6.5835 18.0526 6.5835H22H22.0322H22.0643H22.0963H22.1282H22.1601H22.1919H22.2236H22.2552H22.2867H22.3181H22.3495H22.3808H22.412H22.4431H22.4742H22.5051H22.536H22.5668H22.5976H22.6282H22.6588H22.6893H22.7198H22.7501H22.7804H22.8106H22.8407H22.8708H22.9008H22.9307H22.9605H22.9903H23.02H23.0496H23.0792H23.1086H23.1381H23.1674H23.1967H23.2259H23.255H23.284H23.313H23.342H23.3708H23.3996H23.4283H23.457H23.4856H23.5141H23.5426H23.571H23.5993H23.6276H23.6558H23.6839H23.712H23.74H23.7679H23.7958H23.8236H23.8514H23.8791H23.9067H23.9343H23.9618H23.9893H24.0167H24.044H24.0713H24.0986H24.1257H24.1528H24.1799H24.2069H24.2338H24.2607H24.2875H24.3143H24.341H24.3677H24.3943H24.4209H24.4474H24.4738H24.5002H24.5266H24.5529H24.5791H24.6053H24.6315H24.6575H24.6836H24.7096H24.7355H24.7614H24.7873H24.8131H24.8388H24.8645H24.8902H24.9158H24.9413H24.9668H24.9923H25.0177H25.0431H25.0685H25.0938H25.119H25.1442H25.1694H25.1945H25.2196H25.2446H25.2696H25.2945H25.3195H25.3443H25.3692H25.3939H25.4187H25.4434H25.4681H25.4927H25.5173H25.5419H25.5664H25.5909H25.6153H25.6398H25.6641H25.6885H25.7128H25.7371H25.7613H25.7855H25.8097H25.8338H25.8579H25.882H25.9061H25.9301H25.954H25.978H26.0019H26.0258H26.0497H26.0735H26.0973H26.1211H26.1448H26.1685H26.1922H26.2159H26.2395H26.2631H26.2867H26.3103H26.3338H26.3573H26.3808H26.4042H26.4277H26.4511H26.4745H26.4978H26.5212H26.5445H26.5678H26.5911H26.6143H26.6376H26.6608H26.684H26.7072H26.7303H26.7535H26.7766H26.7997H26.8228H26.8459H26.8689H26.8919H26.915H26.938H26.961H26.9839H27.0069H27.0298H27.0528H27.0757H27.0986H27.1215H27.1444H27.1672H27.1901H27.2129H27.2358H27.2586H27.2814H27.3042H27.327H27.3498H27.3726H27.3953H27.4181H27.4408H27.4636H27.4863H27.509H27.5318H27.5545H27.5772H27.5999H27.6226H27.6453H27.668H27.6907H27.7134H27.7361H27.7588H27.7815H27.8041H27.8268H27.8495H27.8722H27.8949H27.9175H27.9402H27.9629H27.9856H28.0083H28.0309H28.0536H28.0763H28.099H28.1217H28.1444H28.1671H28.1898H28.2125H28.2352H28.258H28.2807H28.3034H28.3262H28.3489H28.3717H28.3945H28.4172H28.44H28.4628H28.4856H28.5084H28.5312H28.5541H28.5769H28.5998H28.6226H28.6455H28.6684H28.6913H28.7142H28.7372H28.7601H28.7831H28.806H28.829H28.852H28.875H28.8981H28.9211H28.9442H28.9673H28.9904H29.0135H29.0366H29.0598H29.083H29.1062H29.1294H29.1526H29.1759H29.1991H29.2224H29.2458H29.2691H29.2925H29.3159H29.3393H29.3627H29.3861H29.4096H29.4331H29.4567H29.4802H29.5038H29.5274H29.551H29.5747H29.5984H29.6221H29.6458H29.6696H29.6934H29.7172H29.7411H29.765H29.7889H29.8128H29.8368H29.8608H29.8849H29.9089H29.933H29.9572H29.9813H30.0055H30.0298H30.0541H30.0784H30.1027H30.1271H30.1515H30.1759H30.2004H30.2249H30.2495H30.2741H30.2987H30.3234H30.3481H30.3728H30.3976H30.4225H30.4473H30.4722H30.4972H30.5222H30.5472H30.5723H30.5974H30.6225H30.6477H30.673H30.6983H30.7236H30.749H30.7744H30.7999H30.8254H30.8509H30.8765H30.9022H30.9279H30.9536H30.9794H31.0053H31.0311H31.0571H31.0831H31.1091H31.1352H31.1613H31.1875H31.2138H31.24H31.2664H31.2928H31.3192H31.3457H31.3723H31.3989H31.4255H31.4523H31.479H31.5058H31.5327H31.5597H31.5867H31.6137H31.6408H31.668H31.6952H31.7225H31.7498H31.7772H31.8047H31.8322H31.8597H31.8874H31.9151H31.9428H31.9706H31.9985H32.0265H32.0545H32.0825H32.1107H32.1389H32.1671H32.1954H32.2238H32.2523H32.2808H32.3094H32.338H32.3667H32.3955H32.4244H32.4533H32.4823H32.5113H32.5404H32.5696H32.5989H32.6282H32.6576H32.6871H32.7166H32.7463H32.7759H32.8057H32.8355H32.8654H32.8954H32.9255H32.9556H32.9858H33.0161H33.0464H33.0768H33.1073H33.1379H33.1686H33.1993H33.2301H33.261H33.2919H33.323H33.3541H33.3853H33.4166H33.4479H33.4794H33.5109H33.5425H33.5742H33.6059H33.6378H33.6697H33.7017H33.7338H33.766H33.7982H33.8306H33.863H33.8955H33.9281H33.9608H33.9936H34.0264H34.0594H34.0924H34.1255H34.1587H34.192H34.2254H34.2589H34.2924H34.3261H34.3598H34.3937H34.4276H34.4616H34.4957H34.5299H34.5642H34.5986H34.633H34.6676H34.7023H34.737H34.7719H34.8068H34.8419H34.877H34.9123H34.9476H34.983H35.0185H35.0542H35.0899H35.1257H35.1616H35.1976H35.2337H35.27H35.3063H35.3427H35.3792H35.4158H35.4525H35.4894H35.5263H35.5633H35.6004H35.6377H35.675H35.7125H35.75ZM14.1053 6.5835C14.5195 6.5835 14.8553 6.91928 14.8553 7.3335C14.8553 7.74771 14.5195 8.0835 14.1053 8.0835H14.096H14.0867H14.0774H14.0681H14.0588H14.0495H14.0402H14.0308H14.0215H14.0122H14.0028H13.9935H13.9841H13.9748H13.9654H13.9561H13.9467H13.9373H13.9279H13.9185H13.9091H13.8998H13.8904H13.8809H13.8715H13.8621H13.8527H13.8433H13.8338H13.8244H13.8149H13.8055H13.796H13.7866H13.7771H13.7676H13.7582H13.7487H13.7392H13.7297H13.7202H13.7107H13.7012H13.6917H13.6821H13.6726H13.6631H13.6536H13.644H13.6345H13.6249H13.6153H13.6058H13.5962H13.5866H13.577H13.5674H13.5578H13.5482H13.5386H13.529H13.5194H13.5098H13.5001H13.4905H13.4808H13.4712H13.4615H13.4519H13.4422H13.4325H13.4228H13.4131H13.4034H13.3937H13.384H13.3743H13.3646H13.3549H13.3451H13.3354H13.3256H13.3159H13.3061H13.2964H13.2866H13.2768H13.267H13.2572H13.2474H13.2376H13.2278H13.218H13.2081H13.1983H13.1885H13.1786H13.1688H13.1589H13.149H13.1392H13.1293H13.1194H13.1095H13.0996H13.0897H13.0798H13.0698H13.0599H13.05H13.04H13.0301H13.0201H13.0101H13.0002H12.9902H12.9802H12.9702H12.9602H12.9502H12.9402H12.9302H12.9201H12.9101H12.9H12.89H12.8799H12.8699H12.8598H12.8497H12.8396H12.8295H12.8194H12.8093H12.7992H12.789H12.7789H12.7687H12.7586H12.7484H12.7383H12.7281H12.7179H12.7077H12.6975H12.6873H12.6771H12.6669H12.6566H12.6464H12.6361H12.6259H12.6156H12.6054H12.5951H12.5848H12.5745H12.5642H12.5539H12.5436H12.5332H12.5229H12.5126H12.5022H12.4918H12.4815H12.4711H12.4607H12.4503H12.4399H12.4295H12.4191H12.4087H12.3982H12.3878H12.3773H12.3669H12.3564H12.3459H12.3354H12.3249H12.3144H12.3039H12.2934H12.2829H12.2723H12.2618H12.2512H12.2407H12.2301H12.2195H12.2089H12.1983H12.1877H12.1771H12.1665H12.1558H12.1452H12.1345H12.1239H12.1132H12.1025H12.0918H12.0811H12.0704H12.0597H12.049H12.0383H12.0275H12.0168H12.006H11.9952H11.9844H11.9736H11.9629H11.952H11.9412H11.9304H11.9196H11.9087H11.8979H11.887H11.8761H11.8652H11.8543H11.8434H11.8325H11.8216H11.8107H11.7997H11.7888H11.7778H11.7668H11.7559H11.7449H11.7339H11.7229H11.7118H11.7008H11.6898H11.6787H11.6677H11.6566H11.6455H11.6344H11.6233H11.6122H11.6011H11.59H11.5788H11.5677H11.5565H11.5454H11.5342H11.523H11.5118H11.5006H11.4894H11.4781H11.4669H11.4556H11.4444H11.4331H11.4218H11.4105H11.3992H11.3879H11.3766H11.3653H11.3539H11.3426H11.3312H11.3198H11.3084H11.297H11.2856H11.2742H11.2628H11.2513H11.2399H11.2284H11.217H11.2055H11.194H11.1825H11.171H11.1594H11.1479H11.1364H11.1248H11.1132H11.1017H11.0901H11.0785H11.0668H11.0552H11.0436H11.0319H11.0203H11.0086H10.9969H10.9852H10.9735H10.9618H10.9501H10.9384H10.9266H10.9149H10.9031H10.8913H10.8795H10.8677H10.8559H10.8441H10.8322H10.8204H10.8085H10.7967H10.7848H10.7729H10.761H10.7491H10.7371H10.7252H10.7132H10.7013H10.6893H10.6773H10.6653H10.6533H10.6413H10.6292H10.6172H10.6051H10.5931H10.581H10.5689H10.5568H10.5447H10.5325H10.5204H10.5082H10.4961H10.4839H10.4717H10.4595H10.4473H10.4351H10.4228H10.4106H10.3983H10.386H10.3737H10.3614H10.3491H10.3368H10.3245H10.3121H10.2998H10.2874H10.275H10.2626H10.2502H10.2378H10.2253H10.2129H10.2004H10.188H10.1755H10.163H10.1505H10.1379H10.1254H10.1129H10.1003H10.0877H10.0751H10.0625H10.0499H10.0373H10.0247H10.012H9.99933H9.98666H9.97397H9.96127H9.94855H9.93582H9.92308H9.91032H9.89756H9.88478H9.87198H9.85917H9.84635H9.83352H9.82067H9.80781H9.79494H9.78205H9.76916H9.75624H9.74332H9.73038H9.71742H9.70446H9.69148H9.67849H9.66548H9.65246H9.63943H9.62638H9.61332H9.60025H9.58716H9.57406H9.56095H9.54782H9.53468H9.52152H9.50835H9.49517H9.48197H9.46876H9.45554H9.4423H9.42905H9.41579H9.40251H9.38921H9.37591H9.36259H9.34925H9.3359H9.32254H9.30917H9.29577H9.28237H9.26895H9.25552H9.24207H9.22861H9.21514H9.20165H9.18814H9.17463H9.16109H9.14755H9.13399H9.12041H9.10682H9.09322H9.0796H9.06597H9.05232H9.03866H9.02499H9.0113H8.99759H8.98388H8.97014H8.9564H8.94263H8.92886H8.91507H8.90126H8.88744H8.8736H8.85975H8.84589H8.83201H8.81812H8.8042H8.79028H8.77634H8.76239H8.74842H8.73444H8.72044H8.70643H8.6924H8.67835H8.6643H8.65022H8.63614H8.62203H8.60791H8.59378H8.57963H8.56547H8.55129H8.5371H8.52289H8.50866H8.49442H8.48017H8.4659H8.45161H8.43731H8.423H8.40867H8.39432H8.37996H8.36558H8.35119H8.33678H8.32235H8.30791H8.29346H8.27899H8.2645H8.25C7.83579 8.0835 7.5 7.74771 7.5 7.3335C7.5 6.91928 7.83579 6.5835 8.25 6.5835H8.2645H8.27899H8.29346H8.30791H8.32235H8.33678H8.35119H8.36558H8.37996H8.39432H8.40867H8.423H8.43731H8.45161H8.4659H8.48017H8.49442H8.50866H8.52289H8.5371H8.55129H8.56547H8.57963H8.59378H8.60791H8.62203H8.63614H8.65022H8.6643H8.67835H8.6924H8.70643H8.72044H8.73444H8.74842H8.76239H8.77634H8.79028H8.8042H8.81812H8.83201H8.84589H8.85975H8.8736H8.88744H8.90126H8.91507H8.92886H8.94263H8.9564H8.97014H8.98388H8.99759H9.0113H9.02499H9.03866H9.05232H9.06597H9.0796H9.09322H9.10682H9.12041H9.13399H9.14755H9.16109H9.17463H9.18814H9.20165H9.21514H9.22861H9.24207H9.25552H9.26895H9.28237H9.29577H9.30917H9.32254H9.3359H9.34925H9.36259H9.37591H9.38921H9.40251H9.41579H9.42905H9.4423H9.45554H9.46876H9.48197H9.49517H9.50835H9.52152H9.53468H9.54782H9.56095H9.57406H9.58716H9.60025H9.61332H9.62638H9.63943H9.65246H9.66548H9.67849H9.69148H9.70446H9.71742H9.73038H9.74332H9.75624H9.76916H9.78205H9.79494H9.80781H9.82067H9.83352H9.84635H9.85917H9.87198H9.88478H9.89756H9.91032H9.92308H9.93582H9.94855H9.96127H9.97397H9.98666H9.99933H10.012H10.0247H10.0373H10.0499H10.0625H10.0751H10.0877H10.1003H10.1129H10.1254H10.1379H10.1505H10.163H10.1755H10.188H10.2004H10.2129H10.2253H10.2378H10.2502H10.2626H10.275H10.2874H10.2998H10.3121H10.3245H10.3368H10.3491H10.3614H10.3737H10.386H10.3983H10.4106H10.4228H10.4351H10.4473H10.4595H10.4717H10.4839H10.4961H10.5082H10.5204H10.5325H10.5447H10.5568H10.5689H10.581H10.5931H10.6051H10.6172H10.6292H10.6413H10.6533H10.6653H10.6773H10.6893H10.7013H10.7132H10.7252H10.7371H10.7491H10.761H10.7729H10.7848H10.7967H10.8085H10.8204H10.8322H10.8441H10.8559H10.8677H10.8795H10.8913H10.9031H10.9149H10.9266H10.9384H10.9501H10.9618H10.9735H10.9852H10.9969H11.0086H11.0203H11.0319H11.0436H11.0552H11.0668H11.0785H11.0901H11.1017H11.1132H11.1248H11.1364H11.1479H11.1594H11.171H11.1825H11.194H11.2055H11.217H11.2284H11.2399H11.2513H11.2628H11.2742H11.2856H11.297H11.3084H11.3198H11.3312H11.3426H11.3539H11.3653H11.3766H11.3879H11.3992H11.4105H11.4218H11.4331H11.4444H11.4556H11.4669H11.4781H11.4894H11.5006H11.5118H11.523H11.5342H11.5454H11.5565H11.5677H11.5788H11.59H11.6011H11.6122H11.6233H11.6344H11.6455H11.6566H11.6677H11.6787H11.6898H11.7008H11.7118H11.7229H11.7339H11.7449H11.7559H11.7668H11.7778H11.7888H11.7997H11.8107H11.8216H11.8325H11.8434H11.8543H11.8652H11.8761H11.887H11.8979H11.9087H11.9196H11.9304H11.9412H11.952H11.9629H11.9736H11.9844H11.9952H12.006H12.0168H12.0275H12.0383H12.049H12.0597H12.0704H12.0811H12.0918H12.1025H12.1132H12.1239H12.1345H12.1452H12.1558H12.1665H12.1771H12.1877H12.1983H12.2089H12.2195H12.2301H12.2407H12.2512H12.2618H12.2723H12.2829H12.2934H12.3039H12.3144H12.3249H12.3354H12.3459H12.3564H12.3669H12.3773H12.3878H12.3982H12.4087H12.4191H12.4295H12.4399H12.4503H12.4607H12.4711H12.4815H12.4918H12.5022H12.5126H12.5229H12.5332H12.5436H12.5539H12.5642H12.5745H12.5848H12.5951H12.6054H12.6156H12.6259H12.6361H12.6464H12.6566H12.6669H12.6771H12.6873H12.6975H12.7077H12.7179H12.7281H12.7383H12.7484H12.7586H12.7687H12.7789H12.789H12.7992H12.8093H12.8194H12.8295H12.8396H12.8497H12.8598H12.8699H12.8799H12.89H12.9H12.9101H12.9201H12.9302H12.9402H12.9502H12.9602H12.9702H12.9802H12.9902H13.0002H13.0101H13.0201H13.0301H13.04H13.05H13.0599H13.0698H13.0798H13.0897H13.0996H13.1095H13.1194H13.1293H13.1392H13.149H13.1589H13.1688H13.1786H13.1885H13.1983H13.2081H13.218H13.2278H13.2376H13.2474H13.2572H13.267H13.2768H13.2866H13.2964H13.3061H13.3159H13.3256H13.3354H13.3451H13.3549H13.3646H13.3743H13.384H13.3937H13.4034H13.4131H13.4228H13.4325H13.4422H13.4519H13.4615H13.4712H13.4808H13.4905H13.5001H13.5098H13.5194H13.529H13.5386H13.5482H13.5578H13.5674H13.577H13.5866H13.5962H13.6058H13.6153H13.6249H13.6345H13.644H13.6536H13.6631H13.6726H13.6821H13.6917H13.7012H13.7107H13.7202H13.7297H13.7392H13.7487H13.7582H13.7676H13.7771H13.7866H13.796H13.8055H13.8149H13.8244H13.8338H13.8433H13.8527H13.8621H13.8715H13.8809H13.8904H13.8998H13.9091H13.9185H13.9279H13.9373H13.9467H13.9561H13.9654H13.9748H13.9841H13.9935H14.0028H14.0122H14.0215H14.0308H14.0402H14.0495H14.0588H14.0681H14.0774H14.0867H14.096H14.1053ZM13.2917 12.146C13.2917 12.5257 12.9839 12.8335 12.6042 12.8335C12.2245 12.8335 11.9167 12.5257 11.9167 12.146C11.9167 11.7663 12.2245 11.4585 12.6042 11.4585C12.9839 11.4585 13.2917 11.7663 13.2917 12.146ZM10.5417 15.5835C10.9214 15.5835 11.2292 15.2757 11.2292 14.896C11.2292 14.5163 10.9214 14.2085 10.5417 14.2085C10.162 14.2085 9.85417 14.5163 9.85417 14.896C9.85417 15.2757 10.162 15.5835 10.5417 15.5835ZM15.125 15.5835C15.5047 15.5835 15.8125 15.2757 15.8125 14.896C15.8125 14.5163 15.5047 14.2085 15.125 14.2085C14.7453 14.2085 14.4375 14.5163 14.4375 14.896C14.4375 15.2757 14.7453 15.5835 15.125 15.5835ZM20.3958 14.896C20.3958 15.2757 20.088 15.5835 19.7083 15.5835C19.3286 15.5835 19.0208 15.2757 19.0208 14.896C19.0208 14.5163 19.3286 14.2085 19.7083 14.2085C20.088 14.2085 20.3958 14.5163 20.3958 14.896ZM24.2917 15.5835C24.6714 15.5835 24.9792 15.2757 24.9792 14.896C24.9792 14.5163 24.6714 14.2085 24.2917 14.2085C23.912 14.2085 23.6042 14.5163 23.6042 14.896C23.6042 15.2757 23.912 15.5835 24.2917 15.5835ZM29.5625 14.896C29.5625 15.2757 29.2547 15.5835 28.875 15.5835C28.4953 15.5835 28.1875 15.2757 28.1875 14.896C28.1875 14.5163 28.4953 14.2085 28.875 14.2085C29.2547 14.2085 29.5625 14.5163 29.5625 14.896ZM33.4583 15.5835C33.838 15.5835 34.1458 15.2757 34.1458 14.896C34.1458 14.5163 33.838 14.2085 33.4583 14.2085C33.0786 14.2085 32.7708 14.5163 32.7708 14.896C32.7708 15.2757 33.0786 15.5835 33.4583 15.5835ZM17.1875 12.8335C17.5672 12.8335 17.875 12.5257 17.875 12.146C17.875 11.7663 17.5672 11.4585 17.1875 11.4585C16.8078 11.4585 16.5 11.7663 16.5 12.146C16.5 12.5257 16.8078 12.8335 17.1875 12.8335ZM22.4583 12.146C22.4583 12.5257 22.1505 12.8335 21.7708 12.8335C21.3911 12.8335 21.0833 12.5257 21.0833 12.146C21.0833 11.7663 21.3911 11.4585 21.7708 11.4585C22.1505 11.4585 22.4583 11.7663 22.4583 12.146ZM26.3542 12.8335C26.7339 12.8335 27.0417 12.5257 27.0417 12.146C27.0417 11.7663 26.7339 11.4585 26.3542 11.4585C25.9745 11.4585 25.6667 11.7663 25.6667 12.146C25.6667 12.5257 25.9745 12.8335 26.3542 12.8335ZM31.625 12.146C31.625 12.5257 31.3172 12.8335 30.9375 12.8335C30.5578 12.8335 30.25 12.5257 30.25 12.146C30.25 11.7663 30.5578 11.4585 30.9375 11.4585C31.3172 11.4585 31.625 11.7663 31.625 12.146ZM28.8384 20.0362C28.4439 20.0362 28.1241 20.356 28.1241 20.7505C28.1241 21.2696 28.3891 21.7062 28.7749 22.023C28.4194 22.358 28.2124 22.8045 28.2517 23.3057C28.2988 23.9063 28.6859 24.3977 29.1905 24.7143C29.7 25.0339 30.3755 25.2131 31.1621 25.2141C31.1713 25.2144 31.1807 25.2146 31.19 25.2146L31.2312 25.2145C31.9102 25.2225 32.3479 25.3599 32.5915 25.5046C32.7149 25.5778 32.776 25.6451 32.8034 25.6864C32.8169 25.7066 32.8225 25.7208 32.8249 25.7284C32.826 25.732 32.8266 25.7347 32.8269 25.7369C32.8272 25.7391 32.8273 25.7406 32.8272 25.7416V25.7417C32.8273 25.7427 32.8275 25.7633 32.7988 25.8051C32.7679 25.8503 32.7025 25.9199 32.5767 25.9943C32.3216 26.1451 31.8663 26.2855 31.1684 26.2855L31.1262 26.2856C30.4643 26.2773 30.029 26.141 29.7818 25.9948C29.656 25.9204 29.5906 25.8509 29.5596 25.8057C29.5305 25.7631 29.5312 25.7426 29.5312 25.7422C29.5267 25.3477 29.2033 25.0316 28.8088 25.0361C28.4144 25.0406 28.0983 25.364 28.1028 25.7585C28.1085 26.2614 28.363 26.6841 28.7313 26.9955C28.3575 27.3107 28.1025 27.7405 28.1025 28.2497C28.1025 28.8888 28.5041 29.4028 29.0381 29.7221C29.573 30.0419 30.2989 30.2139 31.1684 30.2139C31.8667 30.2139 32.3166 30.3544 32.5656 30.5033C32.6882 30.5766 32.7505 30.6445 32.7794 30.6878C32.806 30.7274 32.8058 30.7472 32.8058 30.7495L32.8058 30.7496L32.8058 30.7497C32.8058 30.752 32.806 30.7718 32.7794 30.8114C32.7505 30.8547 32.6881 30.9227 32.5656 30.9959C32.3166 31.1448 31.8667 31.2853 31.1684 31.2853L31.1262 31.2854C30.4642 31.2772 30.0342 31.1408 29.7928 30.9965C29.6703 30.9232 29.6079 30.8552 29.579 30.812C29.5525 30.7723 29.5526 30.7525 29.5526 30.7503L29.5526 30.7501C29.5526 30.3557 29.2328 30.0359 28.8384 30.0359C28.4439 30.0359 28.1241 30.3557 28.1241 30.7502C28.1241 31.2249 28.3457 31.6306 28.6786 31.9388C28.2618 32.2281 27.9254 32.6365 27.8554 33.1538C27.7605 33.8564 28.1916 34.4118 28.7737 34.7339C29.345 35.0499 30.1536 35.2137 31.1684 35.2137C31.5629 35.2137 31.8827 34.894 31.8827 34.4995C31.8827 34.105 31.5629 33.7852 31.1684 33.7852C30.2774 33.7852 29.7412 33.6365 29.4653 33.4839C29.3402 33.4147 29.2922 33.3626 29.2754 33.3351C29.2917 33.298 29.3636 33.1691 29.6426 33.0221C29.9562 32.8568 30.4515 32.7199 31.1237 32.714C31.1457 32.7143 31.1678 32.7144 31.19 32.7144C31.8849 32.7144 32.3953 32.8537 32.7158 33.0226C33.0286 33.1874 33.0811 33.3295 33.0868 33.3449L33.0868 33.345C33.0874 33.3465 33.0875 33.3468 33.0873 33.3458C33.1402 33.7367 33.4999 34.0107 33.8909 33.9579C34.2818 33.905 34.5558 33.5453 34.503 33.1544C34.433 32.6367 34.0963 32.2282 33.6791 31.9389C34.0124 31.6306 34.2343 31.2247 34.2343 30.7496C34.2343 30.1105 33.8327 29.5965 33.2987 29.2772C32.7638 28.9574 32.0379 28.7854 31.1684 28.7854C30.4702 28.7854 30.0202 28.6449 29.7713 28.496C29.6487 28.4227 29.5863 28.3547 29.5574 28.3115C29.5309 28.2719 29.531 28.2521 29.531 28.2498L29.531 28.2497L29.531 28.2496C29.531 28.2473 29.5309 28.2275 29.5574 28.1879C29.5863 28.1446 29.6487 28.0767 29.7712 28.0034C30.0149 27.8577 30.4508 27.7201 31.1236 27.7142L31.1455 27.7144L31.19 27.7145C31.8883 27.7145 32.3382 27.855 32.5872 28.0039C32.7097 28.0772 32.7721 28.1452 32.801 28.1884C32.8275 28.2281 32.8274 28.2478 32.8274 28.2501L32.8274 28.2502C32.8274 28.6447 33.1472 28.9645 33.5417 28.9645C33.9361 28.9645 34.2559 28.6447 34.2559 28.2502C34.2559 27.7407 34.0006 27.3107 33.6265 26.9955C33.9951 26.684 34.2499 26.2611 34.2557 25.7579C34.262 25.2054 33.9661 24.7464 33.5426 24.4252C33.855 24.1282 34.0722 23.7466 34.1068 23.3062C34.1376 22.913 33.8438 22.5692 33.4505 22.5383C33.0572 22.5075 32.7134 22.8013 32.6826 23.1946C32.6807 23.2189 32.6513 23.3525 32.4088 23.5047C32.1783 23.6493 31.7918 23.7796 31.2319 23.7859L31.1684 23.7856C30.5859 23.7856 30.1858 23.6524 29.9496 23.5042C29.7071 23.352 29.6777 23.2184 29.6758 23.194C29.6749 23.1817 29.6758 23.1658 29.6905 23.1395C29.7068 23.1103 29.7488 23.0545 29.8485 22.9898C30.0505 22.8588 30.4493 22.7203 31.1236 22.7144C31.1456 22.7146 31.1678 22.7147 31.19 22.7147C31.2012 22.7147 31.2123 22.7144 31.2233 22.7139C32.0685 22.7068 32.7751 22.5354 33.2987 22.2223C33.8327 21.903 34.2343 21.389 34.2343 20.75C34.2343 20.1109 33.8327 19.5969 33.2987 19.2776C32.7638 18.9577 32.0379 18.7857 31.1684 18.7857C30.774 18.7857 30.4542 19.1055 30.4542 19.5C30.4542 19.8945 30.774 20.2143 31.1684 20.2143C31.8667 20.2143 32.3166 20.3548 32.5656 20.5036C32.6882 20.5769 32.7505 20.6449 32.7794 20.6881C32.806 20.7278 32.8058 20.7476 32.8058 20.7498V20.75V20.7501C32.8058 20.7523 32.806 20.7721 32.7794 20.8118C32.7505 20.855 32.6881 20.923 32.5656 20.9963C32.3166 21.1452 31.8667 21.2857 31.1684 21.2857L31.1262 21.2858C30.4642 21.2775 30.0342 21.1411 29.7928 20.9968C29.6703 20.9235 29.6079 20.8555 29.579 20.8123C29.5525 20.7726 29.5526 20.7529 29.5526 20.7506V20.7505C29.5526 20.356 29.2328 20.0362 28.8384 20.0362ZM19.195 20.751C19.195 20.3565 19.5148 20.0367 19.9093 20.0367C20.3038 20.0367 20.6235 20.3565 20.6235 20.751V20.7511C20.6235 20.7534 20.6234 20.7731 20.6499 20.8128C20.6789 20.856 20.7412 20.924 20.8638 20.9973C21.1051 21.1416 21.5352 21.278 22.1972 21.2863L22.2393 21.2861C22.9376 21.2861 23.3875 21.1457 23.6365 20.9968C23.7591 20.9235 23.8214 20.8555 23.8503 20.8123C23.8769 20.7726 23.8768 20.7528 23.8767 20.7506V20.7504V20.7503C23.8768 20.748 23.8769 20.7283 23.8503 20.6886C23.8214 20.6454 23.7591 20.5774 23.6365 20.5041C23.3875 20.3552 22.9376 20.2147 22.2394 20.2147C21.8449 20.2147 21.5251 19.895 21.5251 19.5005C21.5251 19.106 21.8449 18.7862 22.2394 18.7862C23.1088 18.7862 23.8348 18.9582 24.3697 19.2781C24.9036 19.5974 25.3053 20.1114 25.3053 20.7504C25.3053 21.3895 24.9036 21.9035 24.3696 22.2228C23.846 22.5359 23.1394 22.7073 22.2942 22.7144L22.281 22.7149L22.2609 22.7152C22.2387 22.7152 22.2166 22.7151 22.1945 22.7149C21.5202 22.7208 21.1214 22.8592 20.9194 22.9903C20.8197 23.0549 20.7778 23.1108 20.7614 23.14C20.7467 23.1663 20.7458 23.1822 20.7468 23.1945C20.7487 23.2189 20.778 23.3525 21.0206 23.5047C21.2568 23.6528 21.6568 23.7861 22.2394 23.7861L22.3029 23.7864C22.8627 23.7801 23.2492 23.6498 23.4797 23.5052C23.7223 23.353 23.7516 23.2194 23.7535 23.1951C23.7844 22.8018 24.1282 22.508 24.5214 22.5388C24.9147 22.5696 25.2085 22.9134 25.1777 23.3067C25.1432 23.7471 24.9259 24.1287 24.6135 24.4257C25.0371 24.7469 25.3329 25.2059 25.3266 25.7584C25.3209 26.2616 25.066 26.6845 24.6974 26.996C25.0716 27.3112 25.3269 27.7412 25.3268 28.2507C25.3268 28.6452 25.0071 28.965 24.6126 28.965C24.2181 28.965 23.8983 28.6452 23.8983 28.2507L23.8983 28.2506C23.8983 28.2483 23.8985 28.2286 23.8719 28.1889C23.843 28.1457 23.7807 28.0777 23.6581 28.0044C23.4091 27.8555 22.9592 27.715 22.2609 27.715C22.2387 27.715 22.2166 27.7149 22.1946 27.7147C21.5218 27.7205 21.0858 27.8582 20.8422 28.0039C20.7196 28.0771 20.6573 28.1451 20.6283 28.1883C20.6018 28.228 20.6019 28.2478 20.602 28.2501L20.602 28.2502L20.602 28.2503C20.6019 28.2526 20.6018 28.2723 20.6284 28.312C20.6573 28.3552 20.7196 28.4232 20.8422 28.4965C21.0912 28.6454 21.5411 28.7859 22.2394 28.7859C23.1088 28.7859 23.8348 28.9579 24.3697 29.2777C24.9036 29.597 25.3053 30.111 25.3053 30.7501C25.3053 31.2252 25.0833 31.6311 24.7501 31.9393C25.1672 32.2287 25.5039 32.6372 25.5739 33.1549C25.6268 33.5458 25.3527 33.9055 24.9618 33.9584C24.5709 34.0112 24.2111 33.7372 24.1583 33.3462C24.1583 33.3468 24.1583 33.3469 24.1582 33.3467L24.1577 33.3455L24.1577 33.3454C24.152 33.33 24.0995 33.1879 23.7868 33.0231C23.4662 32.8542 22.9559 32.7149 22.2609 32.7149L22.238 32.7148L22.1946 32.7145C21.5225 32.7204 21.0272 32.8573 20.7135 33.0226C20.4345 33.1696 20.3626 33.2985 20.3463 33.3356C20.3632 33.3631 20.4111 33.4152 20.5362 33.4844C20.8121 33.637 21.3484 33.7857 22.2393 33.7857C22.6338 33.7857 22.9536 34.1055 22.9536 34.5C22.9536 34.8944 22.6338 35.2142 22.2393 35.2142C21.2246 35.2142 20.4159 35.0504 19.8447 34.7343C19.2626 34.4123 18.8314 33.8569 18.9264 33.1543C18.9963 32.637 19.3327 32.2286 19.7496 31.9393C19.4167 31.6311 19.195 31.2254 19.195 30.7506C19.195 30.3562 19.5148 30.0364 19.9093 30.0364C20.3038 30.0364 20.6235 30.3562 20.6235 30.7506L20.6235 30.7507C20.6235 30.753 20.6234 30.7728 20.6499 30.8125C20.6789 30.8557 20.7412 30.9237 20.8638 30.997C21.1051 31.1413 21.5351 31.2777 22.1971 31.2859L22.2393 31.2858C22.9376 31.2858 23.3875 31.1453 23.6365 30.9964C23.7591 30.9231 23.8214 30.8552 23.8503 30.8119C23.8769 30.7723 23.8768 30.7525 23.8767 30.7502L23.8767 30.7501L23.8767 30.75C23.8768 30.7477 23.8769 30.7279 23.8503 30.6883C23.8214 30.645 23.7591 30.5771 23.6365 30.5038C23.3875 30.3549 22.9376 30.2144 22.2394 30.2144C21.3699 30.2144 20.6439 30.0424 20.109 29.7226C19.5751 29.4033 19.1734 28.8893 19.1734 28.2502C19.1734 27.741 19.4284 27.3111 19.8022 26.996C19.434 26.6846 19.1794 26.2618 19.1737 25.759C19.1692 25.3645 19.4853 25.0411 19.8797 25.0366C20.2742 25.0321 20.5976 25.3482 20.6021 25.7427V25.7427C20.6021 25.7437 20.6019 25.7643 20.6305 25.8062C20.6615 25.8514 20.7269 25.9209 20.8527 25.9953C21.1 26.1415 21.5352 26.2779 22.1973 26.2861L22.2393 26.286C22.9372 26.286 23.3925 26.1456 23.6476 25.9948C23.7734 25.9204 23.8388 25.8508 23.8698 25.8056C23.8984 25.7638 23.8982 25.7432 23.8982 25.7422V25.7421C23.8982 25.7401 23.898 25.7361 23.8958 25.7289C23.8934 25.7213 23.8878 25.7071 23.8744 25.6869C23.8469 25.6456 23.7858 25.5783 23.6624 25.505C23.4188 25.3604 22.9811 25.223 22.3022 25.2149L22.2609 25.2151C22.2516 25.2151 22.2423 25.2149 22.233 25.2146C21.4464 25.2136 20.7709 25.0344 20.2614 24.7148C19.7568 24.3982 19.3697 23.9068 19.3226 23.3062C19.2833 22.805 19.4903 22.3585 19.8458 22.0235C19.4601 21.7067 19.195 21.2701 19.195 20.751ZM10.8619 20.0367C10.4674 20.0367 10.1477 20.3565 10.1477 20.751C10.1477 21.2701 10.4127 21.7067 10.7984 22.0235C10.443 22.3585 10.2359 22.805 10.2752 23.3062C10.3223 23.9068 10.7094 24.3982 11.214 24.7148C11.7236 25.0344 12.3991 25.2136 13.1856 25.2146C13.1949 25.2149 13.2042 25.2151 13.2136 25.2151L13.2548 25.2149C13.9337 25.223 14.3714 25.3604 14.615 25.505C14.7384 25.5783 14.7996 25.6456 14.827 25.6869C14.8405 25.7071 14.8461 25.7213 14.8484 25.7289C14.8507 25.7361 14.8508 25.7401 14.8508 25.7421V25.7422C14.8508 25.7432 14.851 25.7638 14.8224 25.8056C14.7914 25.8508 14.726 25.9204 14.6002 25.9948C14.3451 26.1456 13.8899 26.286 13.192 26.286L13.1498 26.2861C12.4878 26.2778 12.0526 26.1415 11.8053 25.9953C11.6795 25.9209 11.6141 25.8514 11.5832 25.8062C11.5545 25.7643 11.5547 25.7437 11.5547 25.7427V25.7427C11.5502 25.3482 11.2268 25.0321 10.8324 25.0366C10.4379 25.0411 10.1218 25.3645 10.1263 25.759C10.1321 26.2618 10.3866 26.6846 10.7548 26.996C10.3811 27.3111 10.1261 27.741 10.1261 28.2502C10.1261 28.8893 10.5277 29.4033 11.0617 29.7226C11.5966 30.0424 12.3225 30.2144 13.192 30.2144C13.8903 30.2144 14.3402 30.3549 14.5892 30.5038C14.7117 30.5771 14.7741 30.645 14.803 30.6883C14.8295 30.7279 14.8294 30.7477 14.8294 30.75L14.8294 30.7501L14.8294 30.7502C14.8294 30.7525 14.8295 30.7723 14.803 30.8119C14.7741 30.8552 14.7117 30.9231 14.5892 30.9964C14.3402 31.1453 13.8902 31.2858 13.192 31.2858L13.1497 31.2859C12.4878 31.2777 12.0577 31.1413 11.8164 30.997C11.6938 30.9237 11.6315 30.8557 11.6026 30.8125C11.576 30.7728 11.5762 30.753 11.5762 30.7507L11.5762 30.7506C11.5762 30.3562 11.2564 30.0364 10.8619 30.0364C10.4674 30.0364 10.1477 30.3562 10.1477 30.7506C10.1477 31.2254 10.3693 31.6311 10.7022 31.9393C10.2853 32.2286 9.94895 32.637 9.87901 33.1543C9.78401 33.8569 10.2152 34.4123 10.7973 34.7343C11.3686 35.0504 12.1772 35.2142 13.192 35.2142C13.5865 35.2142 13.9062 34.8944 13.9062 34.5C13.9062 34.1055 13.5865 33.7857 13.192 33.7857C12.301 33.7857 11.7648 33.637 11.4888 33.4844C11.3637 33.4152 11.3158 33.3631 11.2989 33.3356C11.3153 33.2985 11.3872 33.1696 11.6662 33.0226C11.9798 32.8573 12.4751 32.7204 13.1472 32.7145C13.1692 32.7147 13.1914 32.7149 13.2136 32.7149C13.9085 32.7149 14.4188 32.8542 14.7394 33.0231C15.0521 33.1879 15.1046 33.33 15.1104 33.3454L15.1108 33.3466C15.1109 33.3469 15.111 33.3469 15.1109 33.3466L15.1109 33.3462C15.1638 33.7372 15.5235 34.0112 15.9144 33.9584C16.3053 33.9055 16.5794 33.5458 16.5265 33.1549C16.4566 32.6372 16.1199 32.2287 15.7027 31.9393C16.036 31.6311 16.2579 31.2252 16.2579 30.7501C16.2579 30.111 15.8563 29.597 15.3223 29.2777C14.7874 28.9579 14.0615 28.7859 13.192 28.7859C12.4937 28.7859 12.0438 28.6454 11.7948 28.4965C11.6723 28.4232 11.6099 28.3552 11.581 28.312C11.5544 28.2723 11.5546 28.2526 11.5546 28.2503L11.5546 28.2502L11.5546 28.2501C11.5546 28.2478 11.5544 28.228 11.581 28.1883C11.6099 28.1451 11.6723 28.0771 11.7948 28.0039C12.0384 27.8582 12.4744 27.7206 13.1471 27.7147C13.1692 27.7149 13.1913 27.715 13.2136 27.715C13.9118 27.715 14.3618 27.8555 14.6107 28.0044C14.7333 28.0777 14.7957 28.1457 14.8246 28.1889C14.8511 28.2285 14.851 28.2483 14.851 28.2506L14.851 28.2507C14.851 28.6452 15.1707 28.965 15.5652 28.965C15.9597 28.965 16.2795 28.6452 16.2795 28.2507C16.2795 27.7412 16.0242 27.3112 15.6501 26.996C16.0187 26.6845 16.2735 26.2616 16.2792 25.7584C16.2855 25.2059 15.9897 24.7469 15.5662 24.4257C15.8785 24.1287 16.0958 23.7471 16.1303 23.3067C16.1611 22.9134 15.8673 22.5696 15.4741 22.5388C15.0808 22.508 14.737 22.8018 14.7062 23.1951C14.7043 23.2194 14.6749 23.353 14.4324 23.5052C14.2019 23.6498 13.8153 23.7801 13.2555 23.7864L13.192 23.7861C12.6095 23.7861 12.2094 23.6528 11.9732 23.5047C11.7307 23.3525 11.7013 23.2189 11.6994 23.1945C11.6984 23.1822 11.6994 23.1663 11.7141 23.14C11.7304 23.1108 11.7723 23.0549 11.8721 22.9903C12.074 22.8592 12.4728 22.7208 13.1471 22.7149C13.1692 22.7151 13.1913 22.7152 13.2136 22.7152C13.2247 22.7152 13.2358 22.7149 13.2469 22.7144C14.092 22.7073 14.7987 22.5359 15.3223 22.2228C15.8563 21.9035 16.2579 21.3895 16.2579 20.7504C16.2579 20.1114 15.8563 19.5974 15.3223 19.2781C14.7874 18.9582 14.0615 18.7862 13.192 18.7862C12.7975 18.7862 12.4777 19.106 12.4777 19.5005C12.4777 19.895 12.7975 20.2147 13.192 20.2147C13.8903 20.2147 14.3402 20.3552 14.5892 20.5041C14.7117 20.5774 14.7741 20.6454 14.803 20.6886C14.8295 20.7283 14.8294 20.748 14.8294 20.7503L14.8294 20.7504L14.8294 20.7506C14.8294 20.7528 14.8295 20.7726 14.803 20.8123C14.7741 20.8555 14.7117 20.9235 14.5892 20.9968C14.3402 21.1457 13.8902 21.2861 13.192 21.2861L13.1498 21.2863C12.4878 21.278 12.0577 21.1416 11.8164 20.9973C11.6938 20.924 11.6315 20.856 11.6026 20.8128C11.576 20.7731 11.5762 20.7534 11.5762 20.7511L11.5762 20.751C11.5762 20.3565 11.2564 20.0367 10.8619 20.0367ZM29.2678 33.3131C29.269 33.3129 29.2718 33.3181 29.2721 33.3293C29.2666 33.3189 29.2665 33.3133 29.2678 33.3131ZM20.3387 33.3136C20.34 33.3134 20.3427 33.3186 20.343 33.3298C20.3376 33.3194 20.3374 33.3138 20.3387 33.3136ZM11.2913 33.3136C11.2926 33.3134 11.2953 33.3186 11.2956 33.3298C11.2902 33.3194 11.2901 33.3138 11.2913 33.3136ZM7.5 11.8543C7.5 10.3355 8.73122 9.10433 10.25 9.10433H33.9167C35.3434 9.10433 36.5 10.2609 36.5 11.6877C36.5 12.1019 36.1642 12.4377 35.75 12.4377C35.3358 12.4377 35 12.1019 35 11.6877C35 11.0894 34.515 10.6043 33.9167 10.6043H10.25C9.55964 10.6043 9 11.164 9 11.8543V12.8335C9 13.2477 8.66421 13.5835 8.25 13.5835C7.83579 13.5835 7.5 13.2477 7.5 12.8335V11.8543ZM35.75 13.4585C36.1642 13.4585 36.5 13.7943 36.5 14.2085V15.1877C36.5 16.7064 35.2688 17.9377 33.75 17.9377H10.0833C8.6566 17.9377 7.5 16.7811 7.5 15.3543C7.5 14.9401 7.83579 14.6043 8.25 14.6043C8.66421 14.6043 9 14.9401 9 15.3543C9 15.9526 9.48502 16.4377 10.0833 16.4377H33.75C34.4404 16.4377 35 15.878 35 15.1877V14.2085C35 13.7943 35.3358 13.4585 35.75 13.4585ZM8.25 35.9168C7.83579 35.9168 7.5 36.2526 7.5 36.6668C7.5 37.081 7.83579 37.4168 8.25 37.4168H8.28755H8.32499H8.36232H8.39956H8.43668H8.47371H8.51063H8.54746H8.58418H8.62079H8.65731H8.69373H8.73004H8.76626H8.80237H8.83839H8.8743H8.91012H8.94584H8.98146H9.01699H9.05242H9.08775H9.12298H9.15812H9.19316H9.22811H9.26296H9.29772H9.33238H9.36695H9.40143H9.43581H9.4701H9.5043H9.53841H9.57242H9.60634H9.64018H9.67392H9.70757H9.74113H9.7746H9.80799H9.84128H9.87449H9.90761H9.94064H9.97358H10.0064H10.0392H10.0719H10.1045H10.137H10.1694H10.2018H10.234H10.2662H10.2983H10.3303H10.3622H10.3941H10.4258H10.4575H10.4891H10.5206H10.5521H10.5834H10.6147H10.6459H10.677H10.7081H10.739H10.7699H10.8007H10.8314H10.8621H10.8927H10.9232H10.9536H10.9839H11.0142H11.0444H11.0745H11.1046H11.1346H11.1645H11.1943H11.2241H11.2537H11.2834H11.3129H11.3424H11.3718H11.4011H11.4304H11.4596H11.4887H11.5177H11.5467H11.5756H11.6045H11.6333H11.662H11.6906H11.7192H11.7477H11.7762H11.8046H11.8329H11.8611H11.8893H11.9175H11.9455H11.9735H12.0015H12.0294H12.0572H12.0849H12.1126H12.1403H12.1678H12.1953H12.2228H12.2502H12.2775H12.3048H12.332H12.3592H12.3863H12.4133H12.4403H12.4673H12.4942H12.521H12.5477H12.5745H12.6011H12.6277H12.6543H12.6808H12.7072H12.7336H12.76H12.7862H12.8125H12.8387H12.8648H12.8909H12.9169H12.9429H12.9689H12.9947H13.0206H13.0464H13.0721H13.0978H13.1235H13.1491H13.1746H13.2001H13.2256H13.251H13.2764H13.3017H13.327H13.3523H13.3775H13.4026H13.4277H13.4528H13.4778H13.5028H13.5278H13.5527H13.5775H13.6024H13.6272H13.6519H13.6766H13.7013H13.7259H13.7505H13.7751H13.7996H13.8241H13.8485H13.8729H13.8973H13.9216H13.9459H13.9702H13.9945H14.0187H14.0428H14.067H14.0911H14.1151H14.1392H14.1632H14.1872H14.2111H14.235H14.2589H14.2828H14.3066H14.3304H14.3542H14.3779H14.4016H14.4253H14.449H14.4726H14.4962H14.5198H14.5433H14.5669H14.5904H14.6139H14.6373H14.6607H14.6841H14.7075H14.7309H14.7542H14.7776H14.8009H14.8241H14.8474H14.8706H14.8938H14.917H14.9402H14.9634H14.9865H15.0096H15.0327H15.0558H15.0789H15.1019H15.125H15.148H15.171H15.194H15.2169H15.2399H15.2628H15.2858H15.3087H15.3316H15.3545H15.3774H15.4002H15.4231H15.4459H15.4688H15.4916H15.5144H15.5372H15.56H15.5828H15.6055H15.6283H15.6511H15.6738H15.6966H15.7193H15.742H15.7648H15.7875H15.8102H15.8329H15.8556H15.8783H15.901H15.9237H15.9464H15.9691H15.9917H16.0144H16.0371H16.0598H16.0825H16.1051H16.1278H16.1505H16.1732H16.1959H16.2185H16.2412H16.2639H16.2866H16.3093H16.332H16.3547H16.3774H16.4001H16.4228H16.4455H16.4682H16.491H16.5137H16.5364H16.5592H16.5819H16.6047H16.6274H16.6502H16.673H16.6958H16.7186H16.7414H16.7642H16.7871H16.8099H16.8328H16.8556H16.8785H16.9014H16.9243H16.9472H16.9702H16.9931H17.0161H17.039H17.062H17.085H17.1081H17.1311H17.1541H17.1772H17.2003H17.2234H17.2465H17.2697H17.2928H17.316H17.3392H17.3624H17.3857H17.4089H17.4322H17.4555H17.4788H17.5022H17.5255H17.5489H17.5723H17.5958H17.6192H17.6427H17.6662H17.6897H17.7133H17.7369H17.7605H17.7841H17.8078H17.8315H17.8552H17.8789H17.9027H17.9265H17.9503H17.9742H17.9981H18.022H18.046H18.0699H18.0939H18.118H18.1421H18.1662H18.1903H18.2145H18.2387H18.2629H18.2872H18.3115H18.3359H18.3602H18.3847H18.4091H18.4336H18.4581H18.4827H18.5073H18.5319H18.5566H18.5813H18.6061H18.6308H18.6557H18.6805H18.7055H18.7304H18.7554H18.7804H18.8055H18.8306H18.8558H18.881H18.9062H18.9315H18.9569H18.9823H19.0077H19.0332H19.0587H19.0842H19.1098H19.1355H19.1612H19.1869H19.2127H19.2386H19.2645H19.2904H19.3164H19.3425H19.3685H19.3947H19.4209H19.4471H19.4734H19.4998H19.5262H19.5526H19.5791H19.6057H19.6323H19.659H19.6857H19.7125H19.7393H19.7662H19.7931H19.8201H19.8472H19.8743H19.9014H19.9287H19.956H19.9833H20.0107H20.0382H20.0657H20.0933H20.1209H20.1486H20.1764H20.2042H20.2321H20.26H20.288H20.3161H20.3442H20.3724H20.4007H20.429H20.4574H20.4859H20.5144H20.543H20.5717H20.6004H20.6292H20.658H20.687H20.716H20.745H20.7741H20.8033H20.8326H20.8619H20.8914H20.9208H20.9504H20.98H21.0097H21.0395H21.0693H21.0992H21.1292H21.1593H21.1894H21.2196H21.2499H21.2802H21.3107H21.3412H21.3718H21.4024H21.4332H21.464H21.4949H21.5258H21.5569H21.588H21.6192H21.6505H21.6819H21.7133H21.7448H21.7765H21.8081H21.8399H21.8718H21.9037H21.9357H21.9678H22H28.875C29.2892 37.4168 29.625 37.081 29.625 36.6668C29.625 36.2526 29.2892 35.9168 28.875 35.9168H22H21.9678H21.9357H21.9037H21.8718H21.8399H21.8081H21.7765H21.7448H21.7133H21.6819H21.6505H21.6192H21.588H21.5569H21.5258H21.4949H21.464H21.4332H21.4024H21.3718H21.3412H21.3107H21.2802H21.2499H21.2196H21.1894H21.1593H21.1292H21.0992H21.0693H21.0395H21.0097H20.98H20.9504H20.9208H20.8914H20.8619H20.8326H20.8033H20.7741H20.745H20.716H20.687H20.658H20.6292H20.6004H20.5717H20.543H20.5144H20.4859H20.4574H20.429H20.4007H20.3724H20.3442H20.3161H20.288H20.26H20.2321H20.2042H20.1764H20.1486H20.1209H20.0933H20.0657H20.0382H20.0107H19.9833H19.956H19.9287H19.9014H19.8743H19.8472H19.8201H19.7931H19.7662H19.7393H19.7125H19.6857H19.659H19.6323H19.6057H19.5791H19.5526H19.5262H19.4998H19.4734H19.4471H19.4209H19.3947H19.3685H19.3425H19.3164H19.2904H19.2645H19.2386H19.2127H19.1869H19.1612H19.1355H19.1098H19.0842H19.0587H19.0332H19.0077H18.9823H18.9569H18.9315H18.9062H18.881H18.8558H18.8306H18.8055H18.7804H18.7554H18.7304H18.7055H18.6805H18.6557H18.6308H18.6061H18.5813H18.5566H18.5319H18.5073H18.4827H18.4581H18.4336H18.4091H18.3847H18.3602H18.3359H18.3115H18.2872H18.2629H18.2387H18.2145H18.1903H18.1662H18.1421H18.118H18.0939H18.0699H18.046H18.022H17.9981H17.9742H17.9503H17.9265H17.9027H17.8789H17.8552H17.8315H17.8078H17.7841H17.7605H17.7369H17.7133H17.6897H17.6662H17.6427H17.6192H17.5958H17.5723H17.5489H17.5255H17.5022H17.4788H17.4555H17.4322H17.4089H17.3857H17.3624H17.3392H17.316H17.2928H17.2697H17.2465H17.2234H17.2003H17.1772H17.1541H17.1311H17.1081H17.085H17.062H17.039H17.0161H16.9931H16.9702H16.9472H16.9243H16.9014H16.8785H16.8556H16.8328H16.8099H16.7871H16.7642H16.7414H16.7186H16.6958H16.673H16.6502H16.6274H16.6047H16.5819H16.5592H16.5364H16.5137H16.491H16.4682H16.4455H16.4228H16.4001H16.3774H16.3547H16.332H16.3093H16.2866H16.2639H16.2412H16.2185H16.1959H16.1732H16.1505H16.1278H16.1051H16.0825H16.0598H16.0371H16.0144H15.9917H15.9691H15.9464H15.9237H15.901H15.8783H15.8556H15.8329H15.8102H15.7875H15.7648H15.742H15.7193H15.6966H15.6738H15.6511H15.6283H15.6055H15.5828H15.56H15.5372H15.5144H15.4916H15.4688H15.4459H15.4231H15.4002H15.3774H15.3545H15.3316H15.3087H15.2858H15.2628H15.2399H15.2169H15.194H15.171H15.148H15.125H15.1019H15.0789H15.0558H15.0327H15.0096H14.9865H14.9634H14.9402H14.917H14.8938H14.8706H14.8474H14.8241H14.8009H14.7776H14.7542H14.7309H14.7075H14.6841H14.6607H14.6373H14.6139H14.5904H14.5669H14.5433H14.5198H14.4962H14.4726H14.449H14.4253H14.4016H14.3779H14.3542H14.3304H14.3066H14.2828H14.2589H14.235H14.2111H14.1872H14.1632H14.1392H14.1151H14.0911H14.067H14.0428H14.0187H13.9945H13.9702H13.9459H13.9216H13.8973H13.8729H13.8485H13.8241H13.7996H13.7751H13.7505H13.7259H13.7013H13.6766H13.6519H13.6272H13.6024H13.5775H13.5527H13.5278H13.5028H13.4778H13.4528H13.4277H13.4026H13.3775H13.3523H13.327H13.3017H13.2764H13.251H13.2256H13.2001H13.1746H13.1491H13.1235H13.0978H13.0721H13.0464H13.0206H12.9947H12.9689H12.9429H12.9169H12.8909H12.8648H12.8387H12.8125H12.7862H12.76H12.7336H12.7072H12.6808H12.6543H12.6277H12.6011H12.5745H12.5477H12.521H12.4942H12.4673H12.4403H12.4133H12.3863H12.3592H12.332H12.3048H12.2775H12.2502H12.2228H12.1953H12.1678H12.1403H12.1126H12.0849H12.0572H12.0294H12.0015H11.9735H11.9455H11.9175H11.8893H11.8611H11.8329H11.8046H11.7762H11.7477H11.7192H11.6906H11.662H11.6333H11.6045H11.5756H11.5467H11.5177H11.4887H11.4596H11.4304H11.4011H11.3718H11.3424H11.3129H11.2834H11.2537H11.2241H11.1943H11.1645H11.1346H11.1046H11.0745H11.0444H11.0142H10.9839H10.9536H10.9232H10.8927H10.8621H10.8314H10.8007H10.7699H10.739H10.7081H10.677H10.6459H10.6147H10.5834H10.5521H10.5206H10.4891H10.4575H10.4258H10.3941H10.3622H10.3303H10.2983H10.2662H10.234H10.2018H10.1694H10.137H10.1045H10.0719H10.0392H10.0064H9.97358H9.94064H9.90761H9.87449H9.84128H9.80799H9.7746H9.74113H9.70757H9.67392H9.64018H9.60634H9.57242H9.53841H9.5043H9.4701H9.43581H9.40143H9.36695H9.33238H9.29772H9.26296H9.22811H9.19316H9.15812H9.12298H9.08775H9.05242H9.01699H8.98146H8.94584H8.91012H8.8743H8.83839H8.80237H8.76626H8.73004H8.69373H8.65731H8.62079H8.58418H8.54746H8.51063H8.47371H8.43668H8.39956H8.36232H8.32499H8.28755H8.25ZM32.3125 35.9168C31.8983 35.9168 31.5625 36.2526 31.5625 36.6668C31.5625 37.081 31.8983 37.4168 32.3125 37.4168H35.75C36.1642 37.4168 36.5 37.081 36.5 36.6668C36.5 36.2526 36.1642 35.9168 35.75 35.9168H32.3125Z" fill="#332A2A"/>
</g>
<defs>
<clipPath id="clip0_1042_11387">
<rect width="44" height="44" fill="white"/>
</clipPath>
</defs>
</svg>
