<svg width="28" height="28" viewBox="0 0 28 28" fill="none" xmlns="http://www.w3.org/2000/svg">
<g clip-path="url(#clip0_1042_11426)">
<path fill-rule="evenodd" clip-rule="evenodd" d="M22.75 3.4165C23.1642 3.4165 23.5 3.75229 23.5 4.1665C23.5 4.58072 23.1642 4.9165 22.75 4.9165H22.7261H22.7023H22.6785H22.6548H22.6312H22.6076H22.5841H22.5607H22.5373H22.514H22.4908H22.4676H22.4445H22.4215H22.3985H22.3756H22.3527H22.3299H22.3072H22.2845H22.2619H22.2394H22.2169H22.1945H22.1721H22.1498H22.1276H22.1054H22.0833H22.0612H22.0392H22.0173H21.9954H21.9736H21.9518H21.9301H21.9085H21.8869H21.8653H21.8439H21.8225H21.8011H21.7798H21.7586H21.7374H21.7162H21.6952H21.6741H21.6532H21.6323H21.6114H21.5906H21.5699H21.5492H21.5285H21.508H21.4874H21.467H21.4465H21.4262H21.4059H21.3856H21.3654H21.3452H21.3251H21.305H21.285H21.2651H21.2452H21.2253H21.2055H21.1858H21.1661H21.1464H21.1268H21.1073H21.0878H21.0683H21.0489H21.0295H21.0102H20.991H20.9717H20.9526H20.9334H20.9144H20.8953H20.8764H20.8574H20.8385H20.8197H20.8009H20.7821H20.7634H20.7448H20.7261H20.7076H20.689H20.6705H20.6521H20.6337H20.6153H20.597H20.5787H20.5605H20.5423H20.5242H20.5061H20.488H20.47H20.452H20.4341H20.4162H20.3983H20.3805H20.3627H20.345H20.3273H20.3096H20.292H20.2744H20.2568H20.2393H20.2219H20.2044H20.187H20.1697H20.1523H20.1351H20.1178H20.1006H20.0834H20.0663H20.0492H20.0321H20.0151H19.9981H19.9811H19.9642H19.9473H19.9304H19.9136H19.8968H19.88H19.8633H19.8466H19.8299H19.8133H19.7967H19.7801H19.7636H19.7471H19.7306H19.7142H19.6978H19.6814H19.665H19.6487H19.6324H19.6161H19.5999H19.5837H19.5675H19.5514H19.5353H19.5192H19.5031H19.4871H19.4711H19.4551H19.4391H19.4232H19.4073H19.3914H19.3756H19.3597H19.344H19.3282H19.3124H19.2967H19.281H19.2653H19.2497H19.2341H19.2184H19.2029H19.1873H19.1718H19.1563H19.1408H19.1253H19.1099H19.0944H19.079H19.0637H19.0483H19.033H19.0176H19.0023H18.9871H18.9718H18.9566H18.9413H18.9261H18.911H18.8958H18.8807H18.8655H18.8504H18.8353H18.8203H18.8052H18.7902H18.7751H18.7601H18.7451H18.7302H18.7152H18.7003H18.6854H18.6704H18.6555H18.6407H18.6258H18.6109H18.5961H18.5813H18.5665H18.5517H18.5369H18.5221H18.5073H18.4926H18.4779H18.4631H18.4484H18.4337H18.419H18.4044H18.3897H18.375H18.3604H18.3457H18.3311H18.3165H18.3019H18.2873H18.2727H18.2581H18.2435H18.229H18.2144H18.1999H18.1853H18.1708H18.1562H18.1417H18.1272H18.1127H18.0982H18.0837H18.0692H18.0547H18.0402H18.0258H18.0113H17.9968H17.9823H17.9679H17.9534H17.939H17.9245H17.9101H17.8956H17.8812H17.8667H17.8523H17.8379H17.8234H17.809H17.7946H17.7801H17.7657H17.7513H17.7368H17.7224H17.708H17.6935H17.6791H17.6647H17.6502H17.6358H17.6214H17.6069H17.5925H17.578H17.5636H17.5491H17.5347H17.5202H17.5058H17.4913H17.4768H17.4623H17.4479H17.4334H17.4189H17.4044H17.3899H17.3754H17.3609H17.3464H17.3318H17.3173H17.3028H17.2882H17.2737H17.2591H17.2446H17.23H17.2154H17.2008H17.1862H17.1716H17.157H17.1423H17.1277H17.1131H17.0984H17.0837H17.069H17.0544H17.0397H17.0249H17.0102H16.9955H16.9807H16.966H16.9512H16.9364H16.9216H16.9068H16.892H16.8771H16.8623H16.8474H16.8325H16.8176H16.8027H16.7878H16.7728H16.7579H16.7429H16.7279H16.7129H16.6979H16.6828H16.6678H16.6527H16.6376H16.6225H16.6074H16.5922H16.5771H16.5619H16.5467H16.5315H16.5162H16.501H16.4857H16.4704H16.4551H16.4397H16.4243H16.409H16.3936H16.3781H16.3627H16.3472H16.3317H16.3162H16.3007H16.2851H16.2695H16.2539H16.2383H16.2226H16.207H16.1913H16.1755H16.1598H16.144H16.1282H16.1124H16.0965H16.0806H16.0647H16.0488H16.0329H16.0169H16.0009H15.9848H15.9688H15.9527H15.9365H15.9204H15.9042H15.888H15.8718H15.8555H15.8392H15.8229H15.8065H15.7901H15.7737H15.7573H15.7408H15.7243H15.7077H15.6912H15.6746H15.6579H15.6413H15.6246H15.6078H15.5911H15.5743H15.5574H15.5406H15.5237H15.5067H15.4898H15.4727H15.4557H15.4386H15.4215H15.4044H15.3872H15.37H15.3527H15.3354H15.3181H15.3008H15.2834H15.2659H15.2484H15.2309H15.2134H15.1958H15.1782H15.1605H15.1428H15.125H15.1073H15.0894H15.0716H15.0537H15.0357H15.0177H14.9997H14.9816H14.9635H14.9454H14.9272H14.9089H14.8907H14.8723H14.854H14.8356H14.8171H14.7986H14.7801H14.7615H14.7429H14.7242H14.7055H14.6867H14.6679H14.6491H14.6302H14.6112H14.5923H14.5732H14.5541H14.535H14.5158H14.4966H14.4773H14.458H14.4387H14.4193H14.3998H14.3803H14.3607H14.3411H14.3214H14.3017H14.282H14.2622H14.2423H14.2224H14.2024H14.1824H14.1624H14.1423H14.1221H14.1019H14.0816H14.0613H14.0409H14.0205H14H11.488C11.0738 4.9165 10.738 4.58072 10.738 4.1665C10.738 3.75229 11.0738 3.4165 11.488 3.4165H14H14.0205H14.0409H14.0613H14.0816H14.1019H14.1221H14.1423H14.1624H14.1824H14.2024H14.2224H14.2423H14.2622H14.282H14.3017H14.3214H14.3411H14.3607H14.3803H14.3998H14.4193H14.4387H14.458H14.4773H14.4966H14.5158H14.535H14.5541H14.5732H14.5923H14.6112H14.6302H14.6491H14.6679H14.6867H14.7055H14.7242H14.7429H14.7615H14.7801H14.7986H14.8171H14.8356H14.854H14.8723H14.8907H14.9089H14.9272H14.9454H14.9635H14.9816H14.9997H15.0177H15.0357H15.0537H15.0716H15.0894H15.1073H15.125H15.1428H15.1605H15.1782H15.1958H15.2134H15.2309H15.2484H15.2659H15.2834H15.3008H15.3181H15.3354H15.3527H15.37H15.3872H15.4044H15.4215H15.4386H15.4557H15.4727H15.4898H15.5067H15.5237H15.5406H15.5574H15.5743H15.5911H15.6078H15.6246H15.6413H15.6579H15.6746H15.6912H15.7077H15.7243H15.7408H15.7573H15.7737H15.7901H15.8065H15.8229H15.8392H15.8555H15.8718H15.888H15.9042H15.9204H15.9365H15.9527H15.9688H15.9848H16.0009H16.0169H16.0329H16.0488H16.0647H16.0806H16.0965H16.1124H16.1282H16.144H16.1598H16.1755H16.1913H16.207H16.2226H16.2383H16.2539H16.2695H16.2851H16.3007H16.3162H16.3317H16.3472H16.3627H16.3781H16.3936H16.409H16.4243H16.4397H16.4551H16.4704H16.4857H16.501H16.5162H16.5315H16.5467H16.5619H16.5771H16.5922H16.6074H16.6225H16.6376H16.6527H16.6678H16.6828H16.6979H16.7129H16.7279H16.7429H16.7579H16.7728H16.7878H16.8027H16.8176H16.8325H16.8474H16.8623H16.8771H16.892H16.9068H16.9216H16.9364H16.9512H16.966H16.9807H16.9955H17.0102H17.0249H17.0397H17.0544H17.069H17.0837H17.0984H17.1131H17.1277H17.1423H17.157H17.1716H17.1862H17.2008H17.2154H17.23H17.2446H17.2591H17.2737H17.2882H17.3028H17.3173H17.3318H17.3464H17.3609H17.3754H17.3899H17.4044H17.4189H17.4334H17.4479H17.4623H17.4768H17.4913H17.5058H17.5202H17.5347H17.5491H17.5636H17.578H17.5925H17.6069H17.6214H17.6358H17.6502H17.6647H17.6791H17.6935H17.708H17.7224H17.7368H17.7513H17.7657H17.7801H17.7946H17.809H17.8234H17.8379H17.8523H17.8667H17.8812H17.8956H17.9101H17.9245H17.939H17.9534H17.9679H17.9823H17.9968H18.0113H18.0258H18.0402H18.0547H18.0692H18.0837H18.0982H18.1127H18.1272H18.1417H18.1562H18.1708H18.1853H18.1999H18.2144H18.229H18.2435H18.2581H18.2727H18.2873H18.3019H18.3165H18.3311H18.3457H18.3604H18.375H18.3897H18.4044H18.419H18.4337H18.4484H18.4631H18.4779H18.4926H18.5073H18.5221H18.5369H18.5517H18.5665H18.5813H18.5961H18.6109H18.6258H18.6407H18.6555H18.6704H18.6854H18.7003H18.7152H18.7302H18.7451H18.7601H18.7751H18.7902H18.8052H18.8203H18.8353H18.8504H18.8655H18.8807H18.8958H18.911H18.9261H18.9413H18.9566H18.9718H18.9871H19.0023H19.0176H19.033H19.0483H19.0637H19.079H19.0944H19.1099H19.1253H19.1408H19.1563H19.1718H19.1873H19.2029H19.2184H19.2341H19.2497H19.2653H19.281H19.2967H19.3124H19.3282H19.344H19.3597H19.3756H19.3914H19.4073H19.4232H19.4391H19.4551H19.4711H19.4871H19.5031H19.5192H19.5353H19.5514H19.5675H19.5837H19.5999H19.6161H19.6324H19.6487H19.665H19.6814H19.6978H19.7142H19.7306H19.7471H19.7636H19.7801H19.7967H19.8133H19.8299H19.8466H19.8633H19.88H19.8968H19.9136H19.9304H19.9473H19.9642H19.9811H19.9981H20.0151H20.0321H20.0492H20.0663H20.0834H20.1006H20.1178H20.1351H20.1523H20.1697H20.187H20.2044H20.2219H20.2393H20.2568H20.2744H20.292H20.3096H20.3273H20.345H20.3627H20.3805H20.3983H20.4162H20.4341H20.452H20.47H20.488H20.5061H20.5242H20.5423H20.5605H20.5787H20.597H20.6153H20.6337H20.6521H20.6705H20.689H20.7076H20.7261H20.7448H20.7634H20.7821H20.8009H20.8197H20.8385H20.8574H20.8764H20.8953H20.9144H20.9334H20.9526H20.9717H20.991H21.0102H21.0295H21.0489H21.0683H21.0878H21.1073H21.1268H21.1464H21.1661H21.1858H21.2055H21.2253H21.2452H21.2651H21.285H21.305H21.3251H21.3452H21.3654H21.3856H21.4059H21.4262H21.4465H21.467H21.4874H21.508H21.5285H21.5492H21.5699H21.5906H21.6114H21.6323H21.6532H21.6741H21.6952H21.7162H21.7374H21.7586H21.7798H21.8011H21.8225H21.8439H21.8653H21.8869H21.9085H21.9301H21.9518H21.9736H21.9954H22.0173H22.0392H22.0612H22.0833H22.1054H22.1276H22.1498H22.1721H22.1945H22.2169H22.2394H22.2619H22.2845H22.3072H22.3299H22.3527H22.3756H22.3985H22.4215H22.4445H22.4676H22.4908H22.514H22.5373H22.5607H22.5841H22.6076H22.6312H22.6548H22.6785H22.7023H22.7261H22.75ZM8.9761 3.4165C9.39031 3.4165 9.7261 3.75229 9.7261 4.1665C9.7261 4.58072 9.39031 4.9165 8.9761 4.9165H8.97018H8.96427H8.95835H8.95243H8.9465H8.94058H8.93464H8.92871H8.92277H8.91683H8.91089H8.90494H8.89899H8.89304H8.88708H8.88112H8.87516H8.86919H8.86322H8.85725H8.85128H8.8453H8.83931H8.83333H8.82734H8.82135H8.81535H8.80935H8.80335H8.79734H8.79133H8.78532H8.7793H8.77328H8.76726H8.76123H8.7552H8.74916H8.74313H8.73708H8.73104H8.72499H8.71894H8.71288H8.70682H8.70076H8.69469H8.68862H8.68255H8.67647H8.67039H8.6643H8.65822H8.65212H8.64603H8.63993H8.63382H8.62771H8.6216H8.61549H8.60937H8.60324H8.59712H8.59099H8.58485H8.57871H8.57257H8.56642H8.56027H8.55412H8.54796H8.5418H8.53563H8.52946H8.52329H8.51711H8.51092H8.50474H8.49855H8.49235H8.48615H8.47995H8.47374H8.46753H8.46132H8.4551H8.44887H8.44264H8.43641H8.43017H8.42393H8.41769H8.41144H8.40518H8.39893H8.39266H8.3864H8.38013H8.37385H8.36757H8.36129H8.355H8.3487H8.34241H8.33611H8.3298H8.32349H8.31717H8.31085H8.30453H8.2982H8.29187H8.28553H8.27919H8.27284H8.26649H8.26013H8.25377H8.24741H8.24103H8.23466H8.22828H8.2219H8.21551H8.20911H8.20272H8.19631H8.18991H8.18349H8.17708H8.17065H8.16423H8.15779H8.15136H8.14492H8.13847H8.13202H8.12556H8.1191H8.11264H8.10617H8.09969H8.09321H8.08673H8.08023H8.07374H8.06724H8.06073H8.05422H8.04771H8.04119H8.03466H8.02813H8.02159H8.01505H8.00851H8.00196H7.9954H7.98884H7.98227H7.9757H7.96912H7.96254H7.95595H7.94936H7.94276H7.93616H7.92955H7.92293H7.91631H7.90969H7.90306H7.89642H7.88978H7.88314H7.87649H7.86983H7.86317H7.8565H7.84983H7.84315H7.83646H7.82977H7.82308H7.81638H7.80967H7.80296H7.79624H7.78952H7.78279H7.77606H7.76932H7.76257H7.75582H7.74906H7.7423H7.73553H7.72876H7.72198H7.7152H7.7084H7.70161H7.69481H7.688H7.68118H7.67436H7.66754H7.66071H7.65387H7.64703H7.64018H7.63332H7.62646H7.6196H7.61272H7.60585H7.59896H7.59207H7.58517H7.57827H7.57136H7.56445H7.55753H7.5506H7.54367H7.53673H7.52979H7.52284H7.51588H7.50892H7.50195H7.49497H7.48799H7.481H7.47401H7.46701H7.46H7.45299H7.44597H7.43895H7.43192H7.42488H7.41783H7.41078H7.40373H7.39666H7.3896H7.38252H7.37544H7.36835H7.36125H7.35415H7.34705H7.33993H7.33281H7.32568H7.31855H7.31141H7.30427H7.29711H7.28995H7.28279H7.27561H7.26843H7.26125H7.25406H7.24686H7.23965H7.23244H7.22522H7.21799H7.21076H7.20352H7.19628H7.18902H7.18177H7.1745H7.16723H7.15995H7.15266H7.14537H7.13807H7.13076H7.12345H7.11613H7.1088H7.10146H7.09412H7.08677H7.07942H7.07206H7.06469H7.05731H7.04993H7.04254H7.03514H7.02774H7.02033H7.01291H7.00548H6.99805H6.99061H6.98316H6.97571H6.96825H6.96078H6.95331H6.94583H6.93834H6.93084H6.92334H6.91582H6.90831H6.90078H6.89325H6.88571H6.87816H6.87061H6.86304H6.85547H6.8479H6.84031H6.83272H6.82512H6.81752H6.8099H6.80228H6.79465H6.78702H6.77937H6.77172H6.76406H6.7564H6.74872H6.74104H6.73335H6.72566H6.71795H6.71024H6.70252H6.6948H6.68706H6.67932H6.67157H6.66381H6.65605H6.64828H6.6405H6.63271H6.62491H6.61711H6.60929H6.60148H6.59365H6.58581H6.57797H6.57012H6.56226H6.5544H6.54652H6.53864H6.53075H6.52285H6.51495H6.50703H6.49911H6.49118H6.48324H6.4753H6.46735H6.45938H6.45141H6.44344H6.43545H6.42746H6.41945H6.41145H6.40343H6.3954H6.38737H6.37932H6.37127H6.36321H6.35515H6.34707H6.33899H6.33089H6.3228H6.31469H6.30657H6.29844H6.29031H6.28217H6.27402H6.26586H6.2577H6.24952H6.24134H6.23314H6.22495H6.21674H6.20852H6.20029H6.19206H6.18382H6.17557H6.1673H6.15904H6.15076H6.14248H6.13418H6.12588H6.11757H6.10925H6.10092H6.09258H6.08424H6.07588H6.06752H6.05915H6.05077H6.04238H6.03398H6.02558H6.01716H6.00874H6.00031H5.99187H5.98341H5.97495H5.96649H5.95801H5.94952H5.94103H5.93253H5.92402H5.91549H5.90696H5.89842H5.88988H5.88132H5.87275H5.86418H5.85559H5.847H5.8384H5.82979H5.82117H5.81254H5.8039H5.79525H5.7866H5.77793H5.76925H5.76057H5.75188H5.74318H5.73446H5.72574H5.71701H5.70827H5.69953H5.69077H5.682H5.67322H5.66444H5.65564H5.64684H5.63803H5.6292H5.62037H5.61153H5.60268H5.59381H5.58495H5.57607H5.56718H5.55828H5.54937H5.54045H5.53153H5.52259H5.51364H5.50469H5.49572H5.48675H5.47776H5.46877H5.45977H5.45075H5.44173H5.4327H5.42366H5.4146H5.40554H5.39647H5.38739H5.3783H5.3692H5.36009H5.35097H5.34184H5.3327H5.32355H5.31439H5.30522H5.29604H5.28685H5.27766H5.26845H5.25923H5.25C4.83579 4.9165 4.5 4.58072 4.5 4.1665C4.5 3.75229 4.83579 3.4165 5.25 3.4165H5.25923H5.26845H5.27766H5.28685H5.29604H5.30522H5.31439H5.32355H5.3327H5.34184H5.35097H5.36009H5.3692H5.3783H5.38739H5.39647H5.40554H5.4146H5.42366H5.4327H5.44173H5.45075H5.45977H5.46877H5.47776H5.48675H5.49572H5.50469H5.51364H5.52259H5.53153H5.54045H5.54937H5.55828H5.56718H5.57607H5.58495H5.59381H5.60268H5.61153H5.62037H5.6292H5.63803H5.64684H5.65564H5.66444H5.67322H5.682H5.69077H5.69953H5.70827H5.71701H5.72574H5.73446H5.74318H5.75188H5.76057H5.76925H5.77793H5.7866H5.79525H5.8039H5.81254H5.82117H5.82979H5.8384H5.847H5.85559H5.86418H5.87275H5.88132H5.88988H5.89842H5.90696H5.91549H5.92402H5.93253H5.94103H5.94952H5.95801H5.96649H5.97495H5.98341H5.99187H6.00031H6.00874H6.01716H6.02558H6.03398H6.04238H6.05077H6.05915H6.06752H6.07588H6.08424H6.09258H6.10092H6.10925H6.11757H6.12588H6.13418H6.14248H6.15076H6.15904H6.1673H6.17557H6.18382H6.19206H6.20029H6.20852H6.21674H6.22495H6.23314H6.24134H6.24952H6.2577H6.26586H6.27402H6.28217H6.29031H6.29844H6.30657H6.31469H6.3228H6.33089H6.33899H6.34707H6.35515H6.36321H6.37127H6.37932H6.38737H6.3954H6.40343H6.41145H6.41945H6.42746H6.43545H6.44344H6.45141H6.45938H6.46735H6.4753H6.48324H6.49118H6.49911H6.50703H6.51495H6.52285H6.53075H6.53864H6.54652H6.5544H6.56226H6.57012H6.57797H6.58581H6.59365H6.60148H6.60929H6.61711H6.62491H6.63271H6.6405H6.64828H6.65605H6.66381H6.67157H6.67932H6.68706H6.6948H6.70252H6.71024H6.71795H6.72566H6.73335H6.74104H6.74872H6.7564H6.76406H6.77172H6.77937H6.78702H6.79465H6.80228H6.8099H6.81752H6.82512H6.83272H6.84031H6.8479H6.85547H6.86304H6.87061H6.87816H6.88571H6.89325H6.90078H6.90831H6.91582H6.92334H6.93084H6.93834H6.94583H6.95331H6.96078H6.96825H6.97571H6.98316H6.99061H6.99805H7.00548H7.01291H7.02033H7.02774H7.03514H7.04254H7.04993H7.05731H7.06469H7.07206H7.07942H7.08677H7.09412H7.10146H7.1088H7.11613H7.12345H7.13076H7.13807H7.14537H7.15266H7.15995H7.16723H7.1745H7.18177H7.18902H7.19628H7.20352H7.21076H7.21799H7.22522H7.23244H7.23965H7.24686H7.25406H7.26125H7.26843H7.27561H7.28279H7.28995H7.29711H7.30427H7.31141H7.31855H7.32568H7.33281H7.33993H7.34705H7.35415H7.36125H7.36835H7.37544H7.38252H7.3896H7.39666H7.40373H7.41078H7.41783H7.42488H7.43192H7.43895H7.44597H7.45299H7.46H7.46701H7.47401H7.481H7.48799H7.49497H7.50195H7.50892H7.51588H7.52284H7.52979H7.53673H7.54367H7.5506H7.55753H7.56445H7.57136H7.57827H7.58517H7.59207H7.59896H7.60585H7.61272H7.6196H7.62646H7.63332H7.64018H7.64703H7.65387H7.66071H7.66754H7.67436H7.68118H7.688H7.69481H7.70161H7.7084H7.7152H7.72198H7.72876H7.73553H7.7423H7.74906H7.75582H7.76257H7.76932H7.77606H7.78279H7.78952H7.79624H7.80296H7.80967H7.81638H7.82308H7.82977H7.83646H7.84315H7.84983H7.8565H7.86317H7.86983H7.87649H7.88314H7.88978H7.89642H7.90306H7.90969H7.91631H7.92293H7.92955H7.93616H7.94276H7.94936H7.95595H7.96254H7.96912H7.9757H7.98227H7.98884H7.9954H8.00196H8.00851H8.01505H8.02159H8.02813H8.03466H8.04119H8.04771H8.05422H8.06073H8.06724H8.07374H8.08023H8.08673H8.09321H8.09969H8.10617H8.11264H8.1191H8.12556H8.13202H8.13847H8.14492H8.15136H8.15779H8.16423H8.17065H8.17708H8.18349H8.18991H8.19631H8.20272H8.20911H8.21551H8.2219H8.22828H8.23466H8.24103H8.24741H8.25377H8.26013H8.26649H8.27284H8.27919H8.28553H8.29187H8.2982H8.30453H8.31085H8.31717H8.32349H8.3298H8.33611H8.34241H8.3487H8.355H8.36129H8.36757H8.37385H8.38013H8.3864H8.39266H8.39893H8.40518H8.41144H8.41769H8.42393H8.43017H8.43641H8.44264H8.44887H8.4551H8.46132H8.46753H8.47374H8.47995H8.48615H8.49235H8.49855H8.50474H8.51092H8.51711H8.52329H8.52946H8.53563H8.5418H8.54796H8.55412H8.56027H8.56642H8.57257H8.57871H8.58485H8.59099H8.59712H8.60324H8.60937H8.61549H8.6216H8.62771H8.63382H8.63993H8.64603H8.65212H8.65822H8.6643H8.67039H8.67647H8.68255H8.68862H8.69469H8.70076H8.70682H8.71288H8.71894H8.72499H8.73104H8.73708H8.74313H8.74916H8.7552H8.76123H8.76726H8.77328H8.7793H8.78532H8.79133H8.79734H8.80335H8.80935H8.81535H8.82135H8.82734H8.83333H8.83931H8.8453H8.85128H8.85725H8.86322H8.86919H8.87516H8.88112H8.88708H8.89304H8.89899H8.90494H8.91089H8.91683H8.92277H8.92871H8.93464H8.94058H8.9465H8.95243H8.95835H8.96427H8.97018H8.9761ZM8.45825 7.729C8.45825 7.97063 8.26238 8.1665 8.02075 8.1665C7.77913 8.1665 7.58325 7.97063 7.58325 7.729C7.58325 7.48738 7.77913 7.2915 8.02075 7.2915C8.26238 7.2915 8.45825 7.48738 8.45825 7.729ZM6.70825 9.9165C6.94988 9.9165 7.14575 9.72063 7.14575 9.479C7.14575 9.23738 6.94988 9.0415 6.70825 9.0415C6.46663 9.0415 6.27075 9.23738 6.27075 9.479C6.27075 9.72063 6.46663 9.9165 6.70825 9.9165ZM9.62492 9.9165C9.86654 9.9165 10.0624 9.72063 10.0624 9.479C10.0624 9.23738 9.86654 9.0415 9.62492 9.0415C9.38329 9.0415 9.18742 9.23738 9.18742 9.479C9.18742 9.72063 9.38329 9.9165 9.62492 9.9165ZM12.9791 9.479C12.9791 9.72063 12.7832 9.9165 12.5416 9.9165C12.3 9.9165 12.1041 9.72063 12.1041 9.479C12.1041 9.23738 12.3 9.0415 12.5416 9.0415C12.7832 9.0415 12.9791 9.23738 12.9791 9.479ZM15.4583 9.9165C15.6999 9.9165 15.8958 9.72063 15.8958 9.479C15.8958 9.23738 15.6999 9.0415 15.4583 9.0415C15.2166 9.0415 15.0208 9.23738 15.0208 9.479C15.0208 9.72063 15.2166 9.9165 15.4583 9.9165ZM18.8124 9.479C18.8124 9.72063 18.6165 9.9165 18.3749 9.9165C18.1333 9.9165 17.9374 9.72063 17.9374 9.479C17.9374 9.23738 18.1333 9.0415 18.3749 9.0415C18.6165 9.0415 18.8124 9.23738 18.8124 9.479ZM21.2916 9.9165C21.5332 9.9165 21.7291 9.72063 21.7291 9.479C21.7291 9.23738 21.5332 9.0415 21.2916 9.0415C21.05 9.0415 20.8541 9.23738 20.8541 9.479C20.8541 9.72063 21.05 9.9165 21.2916 9.9165ZM10.9374 8.1665C11.179 8.1665 11.3749 7.97063 11.3749 7.729C11.3749 7.48738 11.179 7.2915 10.9374 7.2915C10.6958 7.2915 10.4999 7.48738 10.4999 7.729C10.4999 7.97063 10.6958 8.1665 10.9374 8.1665ZM14.2916 7.729C14.2916 7.97063 14.0957 8.1665 13.8541 8.1665C13.6125 8.1665 13.4166 7.97063 13.4166 7.729C13.4166 7.48738 13.6125 7.2915 13.8541 7.2915C14.0957 7.2915 14.2916 7.48738 14.2916 7.729ZM16.7708 8.1665C17.0124 8.1665 17.2083 7.97063 17.2083 7.729C17.2083 7.48738 17.0124 7.2915 16.7708 7.2915C16.5291 7.2915 16.3333 7.48738 16.3333 7.729C16.3333 7.97063 16.5291 8.1665 16.7708 8.1665ZM20.1249 7.729C20.1249 7.97063 19.929 8.1665 19.6874 8.1665C19.4458 8.1665 19.2499 7.97063 19.2499 7.729C19.2499 7.48738 19.4458 7.2915 19.6874 7.2915C19.929 7.2915 20.1249 7.48738 20.1249 7.729ZM18.5633 12.5513C18.2181 12.5513 17.9383 12.8311 17.9383 13.1763C17.9383 13.5204 18.0888 13.8115 18.3104 14.0345C18.1118 14.2694 17.9982 14.5649 18.0241 14.8954C18.0577 15.3235 18.3151 15.6691 18.6434 15.8993C18.6104 15.8942 18.5764 15.8918 18.5419 15.8922C18.1967 15.8962 17.9201 16.1792 17.9241 16.5243C17.9278 16.8533 18.069 17.1322 18.2765 17.3492C18.0657 17.5696 17.924 17.8535 17.924 18.1874C17.924 18.639 18.1832 18.9994 18.5223 19.2344C18.1962 19.2555 17.9383 19.5267 17.9383 19.8581C17.9383 20.1621 18.0558 20.4247 18.2359 20.6356C17.9963 20.8373 17.8059 21.107 17.7602 21.4446C17.6858 21.9948 18.027 22.4161 18.4487 22.6494C18.861 22.8775 19.4295 22.9885 20.1204 22.9885C20.4655 22.9885 20.7454 22.7087 20.7454 22.3635C20.7454 22.0184 20.4655 21.7385 20.1204 21.7385C19.5614 21.7385 19.2348 21.6485 19.0734 21.566C19.0986 21.5478 19.1304 21.5278 19.1697 21.507C19.3551 21.4093 19.664 21.3211 20.0983 21.3182L20.1347 21.3183C20.5807 21.3183 20.8969 21.4079 21.0854 21.5073C21.21 21.5729 21.2503 21.6243 21.2603 21.639C21.3189 21.9667 21.6261 22.1929 21.9592 22.1479C22.3013 22.1017 22.5411 21.7869 22.4949 21.4448C22.4492 21.1071 22.2587 20.8374 22.0189 20.6356C22.1992 20.4247 22.3168 20.162 22.3168 19.8579C22.3168 19.4073 22.0587 19.0475 21.7207 18.8125C22.0591 18.8047 22.3311 18.5279 22.3311 18.1876C22.3311 17.8537 22.1893 17.5696 21.9783 17.3492C22.1859 17.1321 22.3272 16.8532 22.331 16.5241C22.3352 16.1561 22.1662 15.8486 21.9213 15.6197C22.0916 15.4196 22.209 15.1752 22.231 14.8956C22.2566 14.569 22.0263 14.2813 21.7085 14.2298C22.0525 13.995 22.3168 13.6321 22.3168 13.1761C22.3168 12.6815 22.0059 12.2963 21.6197 12.0654C21.2327 11.834 20.7191 11.7158 20.1204 11.7158C19.7752 11.7158 19.4954 11.9956 19.4954 12.3408C19.4954 12.686 19.7752 12.9658 20.1204 12.9658C20.5693 12.9658 20.8413 13.0564 20.9782 13.1382C21.0019 13.1524 21.02 13.1651 21.0339 13.176C21.02 13.187 21.0019 13.1997 20.9781 13.2139C20.8413 13.2957 20.5692 13.3863 20.1204 13.3863L20.1005 13.3863C19.6719 13.3818 19.4102 13.2938 19.2769 13.2141C19.224 13.1824 19.1986 13.1581 19.1875 13.1446C19.171 12.8141 18.8979 12.5513 18.5633 12.5513ZM20.0982 14.6364L20.1347 14.6365C20.1419 14.6365 20.1491 14.6364 20.1562 14.6361C20.4936 14.6335 20.8033 14.5929 21.0779 14.5152C21.0281 14.5947 20.9955 14.6865 20.9858 14.7859C20.9801 14.7979 20.9554 14.8383 20.8706 14.8915C20.7436 14.9712 20.5115 15.0538 20.1554 15.0569L20.1204 15.0567C19.7525 15.0567 19.5139 14.9725 19.3845 14.8913C19.3367 14.8613 19.3081 14.8354 19.2911 14.8164C19.2985 14.8105 19.3076 14.8039 19.3188 14.7966C19.4229 14.7291 19.6606 14.6393 20.0982 14.6364ZM20.1179 16.3067C19.7073 16.3064 19.3343 16.2364 19.0178 16.1037C19.107 16.2049 19.1641 16.3352 19.1729 16.4788C19.1842 16.4929 19.211 16.5192 19.2689 16.5534C19.4065 16.6348 19.6721 16.7228 20.1005 16.7272L20.1204 16.7272C20.5689 16.7272 20.8449 16.6367 20.9862 16.5532C21.0115 16.5382 21.0309 16.5247 21.0457 16.5131C21.0328 16.5034 21.0164 16.4924 20.9958 16.4801C20.8612 16.4002 20.5945 16.3113 20.1544 16.3069L20.1347 16.307L20.1179 16.3067ZM20.0982 17.9773C19.6625 17.9802 19.3971 18.0692 19.2626 18.1496C19.2389 18.1638 19.2207 18.1765 19.2069 18.1874C19.2207 18.1983 19.2389 18.211 19.2626 18.2252C19.3994 18.307 19.6715 18.3976 20.1204 18.3976C20.5238 18.3976 20.8885 18.4513 21.2019 18.5571C21.1318 18.4615 21.0882 18.3453 21.0819 18.2193C21.0708 18.2058 21.0455 18.1815 20.9925 18.1498C20.8557 18.068 20.5836 17.9774 20.1347 17.9774L20.0982 17.9773ZM20.1006 20.0681L20.1204 20.0681C20.5692 20.0681 20.8413 19.9775 20.9781 19.8957C21.0019 19.8815 21.02 19.8688 21.0339 19.8579C21.02 19.8469 21.0019 19.8342 20.9782 19.8201C20.8413 19.7383 20.5693 19.6476 20.1204 19.6476C19.7328 19.6476 19.3809 19.5981 19.0759 19.5004C19.1411 19.5936 19.1815 19.7055 19.1875 19.8264C19.1986 19.8399 19.224 19.8642 19.2769 19.8959C19.4102 19.9756 19.672 20.0637 20.1006 20.0681ZM19.1799 13.1326C19.1796 13.1327 19.1804 13.1347 19.183 13.1386C19.1815 13.1345 19.1802 13.1325 19.1799 13.1326ZM19.1656 16.4672L19.1657 16.4679C19.166 16.4687 19.1669 16.4704 19.1685 16.4728C19.1671 16.4689 19.1659 16.4671 19.1656 16.4672ZM21.0895 18.2313C21.0898 18.2312 21.089 18.2292 21.0864 18.2253C21.0879 18.2294 21.0892 18.2314 21.0895 18.2313ZM19.1799 19.8144C19.1796 19.8145 19.1804 19.8166 19.183 19.8204C19.1815 19.8163 19.1802 19.8144 19.1799 19.8144ZM11.972 13.1768C11.972 12.8316 12.2518 12.5518 12.597 12.5518C12.9316 12.5518 13.2047 12.8146 13.2212 13.1451C13.2323 13.1586 13.2577 13.1829 13.3106 13.2146C13.4439 13.2943 13.7056 13.3823 14.1342 13.3868L14.1541 13.3868C14.6029 13.3868 14.875 13.2961 15.0118 13.2143C15.0356 13.2002 15.0537 13.1875 15.0676 13.1765C15.0537 13.1656 15.0356 13.1529 15.0118 13.1387C14.875 13.0569 14.6029 12.9663 14.1541 12.9663C13.8089 12.9663 13.5291 12.6865 13.5291 12.3413C13.5291 11.9961 13.8089 11.7163 14.1541 11.7163C14.7528 11.7163 15.2664 11.8345 15.6534 12.0659C16.0395 12.2968 16.3504 12.682 16.3504 13.1765C16.3504 13.6325 16.0861 13.9955 15.7422 14.2303C16.06 14.2818 16.2903 14.5694 16.2647 14.8961C16.2427 15.1757 16.1253 15.4201 15.955 15.6202C16.1999 15.8491 16.3689 16.1566 16.3647 16.5246C16.3609 16.8537 16.2196 17.1326 16.012 17.3497C16.223 17.5701 16.3648 17.8541 16.3648 18.1881C16.3648 18.5284 16.0928 18.8052 15.7544 18.813C16.0924 19.048 16.3504 19.4078 16.3504 19.8584C16.3504 20.1624 16.2329 20.4252 16.0526 20.6361C16.2924 20.8379 16.4829 21.1076 16.5285 21.4453C16.5748 21.7874 16.335 22.1022 15.9929 22.1484C15.6598 22.1934 15.3526 21.9672 15.294 21.6395C15.284 21.6248 15.2437 21.5734 15.1191 21.5077C14.9306 21.4084 14.6144 21.3188 14.1684 21.3188L14.132 21.3187C13.6977 21.3216 13.3888 21.4098 13.2034 21.5075C13.164 21.5282 13.1323 21.5483 13.107 21.5665C13.2685 21.649 13.5951 21.739 14.1541 21.739C14.4992 21.739 14.7791 22.0189 14.7791 22.364C14.7791 22.7092 14.4992 22.989 14.1541 22.989C13.4632 22.989 12.8947 22.878 12.4824 22.6499C12.0607 22.4166 11.7195 21.9953 11.7939 21.4451C11.8396 21.1075 12.03 20.8378 12.2696 20.6361C12.0895 20.4252 11.972 20.1625 11.972 19.8586C11.972 19.5272 12.2299 19.256 12.556 19.2349C12.2169 18.9999 11.9577 18.6395 11.9577 18.1879C11.9577 17.854 12.0993 17.57 12.3102 17.3497C12.1027 17.1327 11.9615 16.8538 11.9578 16.5248C11.9538 16.1796 12.2304 15.8966 12.5756 15.8927C12.6101 15.8923 12.6441 15.8947 12.6771 15.8997C12.3488 15.6696 12.0914 15.3239 12.0578 14.8958C12.0319 14.5654 12.1455 14.2698 12.3441 14.035C12.1225 13.8119 11.972 13.5208 11.972 13.1768ZM14.1684 14.637L14.1319 14.6368C13.6943 14.6398 13.4566 14.7296 13.3525 14.7971C13.3413 14.8043 13.3322 14.811 13.3248 14.8169C13.3417 14.8359 13.3704 14.8618 13.4182 14.8918C13.5476 14.973 13.7862 15.0572 14.1541 15.0572L14.1891 15.0574C14.5452 15.0543 14.7773 14.9717 14.9043 14.892C14.9891 14.8388 15.0138 14.7983 15.0195 14.7864C15.0292 14.687 15.0618 14.5952 15.1116 14.5157C14.837 14.5933 14.5273 14.6339 14.1899 14.6366C14.1828 14.6369 14.1756 14.637 14.1684 14.637ZM13.0514 16.1042C13.368 16.2369 13.741 16.3069 14.1516 16.3072L14.1684 16.3074L14.1881 16.3074C14.6282 16.3118 14.8949 16.4006 15.0295 16.4806C15.0501 16.4928 15.0665 16.5039 15.0794 16.5136C15.0646 16.5252 15.0452 16.5387 15.0199 16.5537C14.8786 16.6372 14.6026 16.7277 14.1541 16.7277L14.1342 16.7277C13.7058 16.7232 13.4402 16.6352 13.3026 16.5539C13.2447 16.5197 13.2179 16.4934 13.2066 16.4793C13.1978 16.3356 13.1407 16.2053 13.0514 16.1042ZM14.1684 17.9779L14.1319 17.9777C13.6962 17.9807 13.4308 18.0696 13.2963 18.1501C13.2726 18.1643 13.2544 18.177 13.2405 18.1879C13.2544 18.1988 13.2726 18.2115 13.2963 18.2257C13.4331 18.3075 13.7052 18.3981 14.1541 18.3981C14.5574 18.3981 14.9222 18.4518 15.2356 18.5576C15.1655 18.462 15.1219 18.3458 15.1156 18.2198C15.1045 18.2063 15.0791 18.182 15.0262 18.1503C14.8894 18.0685 14.6173 17.9779 14.1684 17.9779ZM14.1541 20.0686L14.1343 20.0686C13.7057 20.0642 13.4439 19.9761 13.3106 19.8964C13.2577 19.8647 13.2323 19.8404 13.2212 19.8269C13.2152 19.706 13.1748 19.5941 13.1096 19.5009C13.4146 19.5986 13.7665 19.6481 14.1541 19.6481C14.6029 19.6481 14.875 19.7387 15.0118 19.8205C15.0356 19.8347 15.0537 19.8474 15.0676 19.8584C15.0537 19.8693 15.0356 19.882 15.0118 19.8962C14.875 19.978 14.6029 20.0686 14.1541 20.0686ZM13.2136 13.1331C13.2133 13.1332 13.2141 13.1352 13.2167 13.1391C13.2152 13.1349 13.2139 13.133 13.2136 13.1331ZM13.1993 16.4677C13.1991 16.4677 13.1998 16.4697 13.2022 16.4733C13.2007 16.4694 13.1995 16.4676 13.1993 16.4677ZM15.1232 18.2318C15.1235 18.2317 15.1227 18.2296 15.1201 18.2258C15.1216 18.2299 15.1229 18.2318 15.1232 18.2318ZM13.2136 19.8149C13.2133 19.815 13.2141 19.817 13.2167 19.8209C13.2152 19.8168 13.2139 19.8149 13.2136 19.8149ZM6.18783 12.5518C5.84266 12.5518 5.56283 12.8316 5.56284 13.1768C5.56284 13.5208 5.71332 13.8119 5.93493 14.035C5.73634 14.2698 5.62271 14.5654 5.64862 14.8958C5.68218 15.3239 5.9396 15.6696 6.26796 15.8997C6.23488 15.8947 6.20096 15.8923 6.16641 15.8927C5.82126 15.8966 5.54465 16.1796 5.54859 16.5248C5.55234 16.8538 5.69356 17.1327 5.90104 17.3497C5.69017 17.57 5.54849 17.854 5.54849 18.1879C5.5485 18.6395 5.80774 18.9999 6.14683 19.2349C5.82076 19.256 5.56283 19.5272 5.56284 19.8586C5.56284 20.1625 5.68027 20.4252 5.86044 20.6361C5.62079 20.8378 5.43038 21.1075 5.38474 21.4451C5.31035 21.9953 5.65148 22.4166 6.07322 22.6499C6.48551 22.878 7.054 22.989 7.74488 22.989C8.09006 22.989 8.36988 22.7092 8.36988 22.364C8.36988 22.0189 8.09005 21.739 7.74487 21.739C7.18587 21.739 6.8593 21.649 6.69786 21.5665C6.72314 21.5483 6.75487 21.5282 6.79418 21.5075C6.97958 21.4098 7.2885 21.3216 7.72285 21.3187L7.75923 21.3188C8.20518 21.3188 8.52141 21.4084 8.70992 21.5077C8.83456 21.5734 8.87478 21.6248 8.88482 21.6395C8.94342 21.9672 9.25065 22.1934 9.58374 22.1484C9.9258 22.1022 10.1656 21.7874 10.1194 21.4453C10.0737 21.1076 9.8832 20.8379 9.64344 20.6361C9.82373 20.4252 9.94126 20.1624 9.94127 19.8584C9.94127 19.4078 9.6832 19.048 9.34525 18.813C9.68366 18.8052 9.9556 18.5284 9.95561 18.1881C9.95561 17.8541 9.81384 17.5701 9.60285 17.3497C9.81045 17.1326 9.95176 16.8537 9.95551 16.5246C9.95971 16.1566 9.79075 15.8491 9.54581 15.6202C9.71613 15.4201 9.83356 15.1757 9.85548 14.8961C9.88109 14.5694 9.65078 14.2818 9.33306 14.2303C9.67697 13.9955 9.94126 13.6325 9.94127 13.1765C9.94127 12.682 9.63036 12.2968 9.24418 12.0659C8.85719 11.8345 8.34359 11.7163 7.74488 11.7163C7.39971 11.7163 7.11988 11.9961 7.11988 12.3413C7.11988 12.6865 7.39971 12.9663 7.74488 12.9663C8.19377 12.9663 8.46586 13.0569 8.60266 13.1387C8.62638 13.1529 8.64456 13.1656 8.65839 13.1765C8.64455 13.1875 8.62638 13.2002 8.60266 13.2143C8.46585 13.2961 8.19376 13.3868 7.74488 13.3868L7.72499 13.3868C7.29646 13.3823 7.03473 13.2943 6.90144 13.2146C6.84848 13.1829 6.82316 13.1586 6.81205 13.1451C6.79555 12.8146 6.52239 12.5518 6.18783 12.5518ZM7.72273 14.6368L7.75922 14.637C7.76643 14.637 7.7736 14.6369 7.78074 14.6366C8.11807 14.6339 8.42781 14.5933 8.70239 14.5157C8.65259 14.5952 8.62003 14.687 8.61035 14.7864C8.6046 14.7983 8.57996 14.8388 8.49511 14.892C8.36813 14.9717 8.13606 15.0543 7.77994 15.0574L7.74488 15.0572C7.37702 15.0572 7.13841 14.973 7.00899 14.8918C6.96124 14.8618 6.93256 14.8359 6.91558 14.8169C6.92303 14.811 6.93216 14.8043 6.94329 14.7971C7.04743 14.7296 7.28515 14.6398 7.72273 14.6368ZM7.74239 16.3072C7.33178 16.3069 6.95883 16.2369 6.64227 16.1042C6.73154 16.2053 6.78866 16.3356 6.79738 16.4793C6.8087 16.4934 6.83552 16.5197 6.89341 16.5539C7.03103 16.6352 7.29658 16.7232 7.72499 16.7277L7.74488 16.7277C8.19343 16.7277 8.46944 16.6372 8.61069 16.5537C8.63604 16.5387 8.65544 16.5252 8.67018 16.5136C8.6573 16.5039 8.64096 16.4928 8.62034 16.4806C8.48571 16.4006 8.219 16.3118 7.77888 16.3074L7.75922 16.3074L7.74239 16.3072ZM7.72274 17.9777L7.75922 17.9779C8.2081 17.9779 8.4802 18.0685 8.61701 18.1503C8.66997 18.182 8.69529 18.2063 8.7064 18.2198C8.71269 18.3458 8.75631 18.462 8.82643 18.5576C8.51301 18.4518 8.14827 18.3981 7.74488 18.3981C7.296 18.3981 7.02391 18.3075 6.8871 18.2257C6.86338 18.2115 6.84521 18.1988 6.83137 18.1879C6.84521 18.177 6.86338 18.1643 6.8871 18.1501C7.02164 18.0696 7.28703 17.9807 7.72274 17.9777ZM7.72511 20.0686L7.74488 20.0686C8.19376 20.0686 8.46585 19.978 8.60266 19.8962C8.62638 19.882 8.64456 19.8693 8.65839 19.8584C8.64456 19.8474 8.62638 19.8347 8.60266 19.8205C8.46586 19.7387 8.19377 19.6481 7.74488 19.6481C7.35731 19.6481 7.00541 19.5986 6.70043 19.5009C6.76562 19.5941 6.80601 19.706 6.81205 19.8269C6.82316 19.8404 6.84848 19.8647 6.90144 19.8964C7.03475 19.9761 7.29651 20.0642 7.72511 20.0686ZM6.80441 13.1331C6.80413 13.1332 6.80489 13.1352 6.80749 13.1391C6.80599 13.1349 6.80469 13.133 6.80441 13.1331ZM6.79012 16.4677C6.78987 16.4677 6.79059 16.4697 6.79299 16.4733C6.79157 16.4694 6.79037 16.4676 6.79012 16.4677ZM8.71403 18.2318C8.71431 18.2317 8.71356 18.2296 8.71095 18.2258C8.71245 18.2299 8.71376 18.2318 8.71403 18.2318ZM6.80441 19.8149C6.80413 19.815 6.80489 19.817 6.80749 19.8209C6.80599 19.8168 6.80469 19.8149 6.80441 19.8149ZM21.0752 13.2197C21.0749 13.2198 21.0736 13.2179 21.0721 13.2137C21.0747 13.2176 21.0755 13.2196 21.0752 13.2197ZM21.0721 13.1383C21.0736 13.1342 21.0749 13.1323 21.0752 13.1324C21.0755 13.1325 21.0747 13.1345 21.0721 13.1383ZM21.0906 16.5584C21.0903 16.5584 21.0888 16.5564 21.0871 16.552C21.09 16.5561 21.0909 16.5583 21.0906 16.5584ZM21.0866 16.4726C21.088 16.4687 21.0892 16.4669 21.0895 16.467C21.0897 16.467 21.089 16.469 21.0866 16.4726ZM21.0721 19.8956C21.0731 19.8984 21.0741 19.9002 21.0746 19.901L21.0752 19.9015C21.0753 19.9015 21.0752 19.901 21.0748 19.9001C21.0743 19.8991 21.0735 19.8976 21.0721 19.8956ZM21.0721 19.8202C21.0736 19.8161 21.0749 19.8141 21.0752 19.8142C21.0755 19.8143 21.0747 19.8163 21.0721 19.8202ZM19.1656 18.1438C19.1658 18.1437 19.1671 18.1456 19.1686 18.1497C19.166 18.1459 19.1653 18.1438 19.1656 18.1438ZM19.1686 18.2251C19.1671 18.2292 19.1658 18.2311 19.1656 18.2311C19.1653 18.231 19.166 18.2289 19.1686 18.2251ZM15.1089 13.2202C15.1086 13.2203 15.1073 13.2183 15.1058 13.2142C15.1084 13.2181 15.1091 13.2201 15.1089 13.2202ZM15.1058 13.1388C15.1073 13.1347 15.1086 13.1328 15.1089 13.1329C15.1091 13.133 15.1084 13.135 15.1058 13.1388ZM15.1243 16.5589C15.1241 16.5589 15.1237 16.5585 15.1231 16.5575C15.1225 16.5565 15.1217 16.5548 15.1208 16.5525L15.1223 16.5548C15.124 16.5574 15.1245 16.5588 15.1243 16.5589ZM15.1203 16.4731C15.1217 16.4692 15.1229 16.4674 15.1232 16.4674C15.1234 16.4675 15.1227 16.4695 15.1203 16.4731ZM15.1089 19.902C15.1087 19.902 15.1083 19.9016 15.1078 19.9006C15.1072 19.8996 15.1065 19.8981 15.1058 19.8961C15.1084 19.8999 15.1091 19.9019 15.1089 19.902ZM15.1058 19.8207C15.1073 19.8165 15.1086 19.8146 15.1089 19.8147C15.1091 19.8148 15.1084 19.8168 15.1058 19.8207ZM13.1992 18.1442C13.1995 18.1442 13.2008 18.1461 13.2023 18.1502C13.1997 18.1464 13.199 18.1443 13.1992 18.1442ZM13.2023 18.2256C13.2008 18.2297 13.1995 18.2316 13.1992 18.2315C13.199 18.2315 13.1997 18.2294 13.2023 18.2256ZM8.69969 13.2202C8.69942 13.2203 8.69811 13.2183 8.69661 13.2142C8.69922 13.2181 8.69997 13.2201 8.69969 13.2202ZM8.69661 13.1388C8.69811 13.1347 8.69942 13.1328 8.69969 13.1329C8.69997 13.133 8.69922 13.135 8.69661 13.1388ZM8.71507 16.5589C8.71476 16.5589 8.71329 16.5569 8.7116 16.5525C8.71454 16.5566 8.71538 16.5588 8.71507 16.5589ZM8.71111 16.4731C8.71253 16.4692 8.71374 16.4674 8.71398 16.4674C8.71423 16.4675 8.71352 16.4695 8.71111 16.4731ZM8.69969 19.902C8.69941 19.9021 8.69811 19.9002 8.69661 19.8961C8.69922 19.8999 8.69997 19.9019 8.69969 19.902ZM8.69661 19.8207C8.69811 19.8165 8.69941 19.8146 8.69969 19.8147C8.69997 19.8148 8.69922 19.8168 8.69661 19.8207ZM6.79007 18.1442C6.79034 18.1442 6.79165 18.1461 6.79315 18.1502C6.79054 18.1464 6.78979 18.1443 6.79007 18.1442ZM6.79315 18.2256C6.79165 18.2297 6.79034 18.2316 6.79007 18.2315C6.78979 18.2315 6.79054 18.2294 6.79315 18.2256ZM4.625 7.271C4.625 6.37353 5.35254 5.646 6.25 5.646H21.75C22.6475 5.646 23.375 6.37353 23.375 7.271V7.43766C23.375 7.78284 23.0952 8.06266 22.75 8.06266C22.4048 8.06266 22.125 7.78284 22.125 7.43766V7.271C22.125 7.06389 21.9571 6.896 21.75 6.896H6.25C6.04289 6.896 5.875 7.06389 5.875 7.271V8.16683C5.875 8.51201 5.59518 8.79183 5.25 8.79183C4.90482 8.79183 4.625 8.51201 4.625 8.16683V7.271ZM22.75 8.41683C23.0952 8.41683 23.375 8.69665 23.375 9.04183V9.93766C23.375 10.8351 22.6475 11.5627 21.75 11.5627H6.25C5.35254 11.5627 4.625 10.8351 4.625 9.93766V9.771C4.625 9.42582 4.90482 9.146 5.25 9.146C5.59518 9.146 5.875 9.42582 5.875 9.771V9.93766C5.875 10.1448 6.04289 10.3127 6.25 10.3127H21.75C21.9571 10.3127 22.125 10.1448 22.125 9.93766V9.04183C22.125 8.69665 22.4048 8.41683 22.75 8.41683ZM5.25 23.4585C4.90482 23.4585 4.625 23.7383 4.625 24.0835C4.625 24.4287 4.90482 24.7085 5.25 24.7085H5.27389H5.29772H5.32148H5.34517H5.3688H5.39236H5.41586H5.43929H5.46266H5.48596H5.5092H5.53237H5.55548H5.57853H5.60151H5.62443H5.64728H5.67008H5.69281H5.71548H5.73808H5.76063H5.78311H5.80553H5.82789H5.85019H5.87243H5.89461H5.91673H5.93879H5.96079H5.98273H6.00461H6.02643H6.04819H6.06989H6.09154H6.11313H6.13466H6.15613H6.17754H6.1989H6.2202H6.24145H6.26263H6.28376H6.30484H6.32586H6.34682H6.36773H6.38859H6.40938H6.43013H6.45082H6.47146H6.49204H6.51257H6.53304H6.55346H6.57383H6.59415H6.61441H6.63463H6.65479H6.67489H6.69495H6.71496H6.73491H6.75481H6.77467H6.79447H6.81422H6.83392H6.85358H6.87318H6.89274H6.91224H6.9317H6.95111H6.97047H6.98978H7.00904H7.02826H7.04743H7.06655H7.08563H7.10466H7.12364H7.14258H7.16147H7.18031H7.19911H7.21787H7.23658H7.25524H7.27386H7.29244H7.31097H7.32946H7.34791H7.36631H7.38467H7.40298H7.42126H7.43949H7.45768H7.47583H7.49393H7.512H7.53002H7.548H7.56594H7.58384H7.6017H7.61952H7.6373H7.65505H7.67275H7.69041H7.70803H7.72562H7.74317H7.76068H7.77815H7.79558H7.81298H7.83033H7.84766H7.86494H7.88219H7.8994H7.91658H7.93372H7.95082H7.96789H7.98493H8.00193H8.01889H8.03583H8.05272H8.06959H8.08641H8.10321H8.11997H8.1367H8.1534H8.17006H8.1867H8.2033H8.21986H8.2364H8.25291H8.26938H8.28582H8.30224H8.31862H8.33497H8.35129H8.36759H8.38385H8.40008H8.41629H8.43247H8.44861H8.46473H8.48083H8.49689H8.51293H8.52893H8.54492H8.56087H8.5768H8.5927H8.60858H8.62443H8.64025H8.65605H8.67182H8.68757H8.7033H8.719H8.73467H8.75032H8.76595H8.78155H8.79713H8.81269H8.82822H8.84374H8.85922H8.87469H8.89014H8.90556H8.92096H8.93634H8.9517H8.96704H8.98236H8.99766H9.01294H9.0282H9.04343H9.05865H9.07385H9.08904H9.1042H9.11934H9.13447H9.14958H9.16467H9.17974H9.1948H9.20984H9.22486H9.23986H9.25485H9.26982H9.28478H9.29972H9.31465H9.32956H9.34446H9.35934H9.37421H9.38906H9.4039H9.41872H9.43354H9.44834H9.46312H9.47789H9.49265H9.5074H9.52214H9.53686H9.55157H9.56628H9.58097H9.59564H9.61031H9.62497H9.63962H9.65426H9.66889H9.6835H9.69811H9.71271H9.72731H9.74189H9.75646H9.77103H9.78559H9.80014H9.81468H9.82922H9.84375H9.85827H9.87279H9.8873H9.9018H9.9163H9.9308H9.94528H9.95977H9.97425H9.98872H10.0032H10.0177H10.0321H10.0466H10.061H10.0755H10.0899H10.1044H10.1188H10.1333H10.1477H10.1621H10.1766H10.191H10.2054H10.2199H10.2343H10.2487H10.2632H10.2776H10.292H10.3065H10.3209H10.3353H10.3498H10.3642H10.3786H10.3931H10.4075H10.422H10.4364H10.4509H10.4653H10.4798H10.4942H10.5087H10.5232H10.5377H10.5521H10.5666H10.5811H10.5956H10.6101H10.6246H10.6391H10.6536H10.6682H10.6827H10.6972H10.7118H10.7263H10.7409H10.7554H10.77H10.7846H10.7992H10.8138H10.8284H10.843H10.8577H10.8723H10.8869H10.9016H10.9163H10.931H10.9456H10.9603H10.9751H10.9898H11.0045H11.0193H11.034H11.0488H11.0636H11.0784H11.0932H11.108H11.1229H11.1377H11.1526H11.1675H11.1824H11.1973H11.2122H11.2272H11.2421H11.2571H11.2721H11.2871H11.3021H11.3172H11.3322H11.3473H11.3624H11.3775H11.3926H11.4078H11.4229H11.4381H11.4533H11.4685H11.4838H11.499H11.5143H11.5296H11.545H11.5603H11.5757H11.591H11.6064H11.6219H11.6373H11.6528H11.6683H11.6838H11.6993H11.7149H11.7305H11.7461H11.7617H11.7774H11.793H11.8087H11.8245H11.8402H11.856H11.8718H11.8876H11.9035H11.9194H11.9353H11.9512H11.9671H11.9831H11.9991H12.0152H12.0312H12.0473H12.0635H12.0796H12.0958H12.112H12.1282H12.1445H12.1608H12.1771H12.1935H12.2099H12.2263H12.2427H12.2592H12.2757H12.2923H12.3088H12.3254H12.3421H12.3587H12.3754H12.3922H12.4089H12.4257H12.4426H12.4594H12.4763H12.4933H12.5102H12.5273H12.5443H12.5614H12.5785H12.5956H12.6128H12.63H12.6473H12.6646H12.6819H12.6992H12.7166H12.7341H12.7516H12.7691H12.7866H12.8042H12.8218H12.8395H12.8572H12.875H12.8927H12.9106H12.9284H12.9463H12.9643H12.9823H13.0003H13.0184H13.0365H13.0546H13.0728H13.0911H13.1093H13.1277H13.146H13.1644H13.1829H13.2014H13.2199H13.2385H13.2571H13.2758H13.2945H13.3133H13.3321H13.3509H13.3698H13.3888H13.4077H13.4268H13.4459H13.465H13.4842H13.5034H13.5227H13.542H13.5613H13.5807H13.6002H13.6197H13.6393H13.6589H13.6786H13.6983H13.718H13.7378H13.7577H13.7776H13.7976H13.8176H13.8376H13.8577H13.8779H13.8981H13.9184H13.9387H13.9591H13.9795H14H18.375C18.7202 24.7085 19 24.4287 19 24.0835C19 23.7383 18.7202 23.4585 18.375 23.4585H14H13.9795H13.9591H13.9387H13.9184H13.8981H13.8779H13.8577H13.8376H13.8176H13.7976H13.7776H13.7577H13.7378H13.718H13.6983H13.6786H13.6589H13.6393H13.6197H13.6002H13.5807H13.5613H13.542H13.5227H13.5034H13.4842H13.465H13.4459H13.4268H13.4077H13.3888H13.3698H13.3509H13.3321H13.3133H13.2945H13.2758H13.2571H13.2385H13.2199H13.2014H13.1829H13.1644H13.146H13.1277H13.1093H13.0911H13.0728H13.0546H13.0365H13.0184H13.0003H12.9823H12.9643H12.9463H12.9284H12.9106H12.8927H12.875H12.8572H12.8395H12.8218H12.8042H12.7866H12.7691H12.7516H12.7341H12.7166H12.6992H12.6819H12.6646H12.6473H12.63H12.6128H12.5956H12.5785H12.5614H12.5443H12.5273H12.5102H12.4933H12.4763H12.4594H12.4426H12.4257H12.4089H12.3922H12.3754H12.3587H12.3421H12.3254H12.3088H12.2923H12.2757H12.2592H12.2427H12.2263H12.2099H12.1935H12.1771H12.1608H12.1445H12.1282H12.112H12.0958H12.0796H12.0635H12.0473H12.0312H12.0152H11.9991H11.9831H11.9671H11.9512H11.9353H11.9194H11.9035H11.8876H11.8718H11.856H11.8402H11.8245H11.8087H11.793H11.7774H11.7617H11.7461H11.7305H11.7149H11.6993H11.6838H11.6683H11.6528H11.6373H11.6219H11.6064H11.591H11.5757H11.5603H11.545H11.5296H11.5143H11.499H11.4838H11.4685H11.4533H11.4381H11.4229H11.4078H11.3926H11.3775H11.3624H11.3473H11.3322H11.3172H11.3021H11.2871H11.2721H11.2571H11.2421H11.2272H11.2122H11.1973H11.1824H11.1675H11.1526H11.1377H11.1229H11.108H11.0932H11.0784H11.0636H11.0488H11.034H11.0193H11.0045H10.9898H10.9751H10.9603H10.9456H10.931H10.9163H10.9016H10.8869H10.8723H10.8577H10.843H10.8284H10.8138H10.7992H10.7846H10.77H10.7554H10.7409H10.7263H10.7118H10.6972H10.6827H10.6682H10.6536H10.6391H10.6246H10.6101H10.5956H10.5811H10.5666H10.5521H10.5377H10.5232H10.5087H10.4942H10.4798H10.4653H10.4509H10.4364H10.422H10.4075H10.3931H10.3786H10.3642H10.3498H10.3353H10.3209H10.3065H10.292H10.2776H10.2632H10.2487H10.2343H10.2199H10.2054H10.191H10.1766H10.1621H10.1477H10.1333H10.1188H10.1044H10.0899H10.0755H10.061H10.0466H10.0321H10.0177H10.0032H9.98872H9.97425H9.95977H9.94528H9.9308H9.9163H9.9018H9.8873H9.87279H9.85827H9.84375H9.82922H9.81468H9.80014H9.78559H9.77103H9.75646H9.74189H9.72731H9.71271H9.69811H9.6835H9.66889H9.65426H9.63962H9.62497H9.61031H9.59564H9.58097H9.56628H9.55157H9.53686H9.52214H9.5074H9.49265H9.47789H9.46312H9.44834H9.43354H9.41872H9.4039H9.38906H9.37421H9.35934H9.34446H9.32956H9.31465H9.29972H9.28478H9.26982H9.25485H9.23986H9.22486H9.20984H9.1948H9.17974H9.16467H9.14958H9.13447H9.11934H9.1042H9.08904H9.07385H9.05865H9.04343H9.0282H9.01294H8.99766H8.98236H8.96704H8.9517H8.93634H8.92096H8.90556H8.89014H8.87469H8.85922H8.84374H8.82822H8.81269H8.79713H8.78155H8.76595H8.75032H8.73467H8.719H8.7033H8.68757H8.67182H8.65605H8.64025H8.62443H8.60858H8.5927H8.5768H8.56087H8.54492H8.52893H8.51293H8.49689H8.48083H8.46473H8.44861H8.43247H8.41629H8.40008H8.38385H8.36759H8.35129H8.33497H8.31862H8.30224H8.28582H8.26938H8.25291H8.2364H8.21986H8.2033H8.1867H8.17006H8.1534H8.1367H8.11997H8.10321H8.08641H8.06959H8.05272H8.03583H8.01889H8.00193H7.98493H7.96789H7.95082H7.93372H7.91658H7.8994H7.88219H7.86494H7.84766H7.83033H7.81298H7.79558H7.77815H7.76068H7.74317H7.72562H7.70803H7.69041H7.67275H7.65505H7.6373H7.61952H7.6017H7.58384H7.56594H7.548H7.53002H7.512H7.49393H7.47583H7.45768H7.43949H7.42126H7.40298H7.38467H7.36631H7.34791H7.32946H7.31097H7.29244H7.27386H7.25524H7.23658H7.21787H7.19911H7.18031H7.16147H7.14258H7.12364H7.10466H7.08563H7.06655H7.04743H7.02826H7.00904H6.98978H6.97047H6.95111H6.9317H6.91224H6.89274H6.87318H6.85358H6.83392H6.81422H6.79447H6.77467H6.75481H6.73491H6.71496H6.69495H6.67489H6.65479H6.63463H6.61441H6.59415H6.57383H6.55346H6.53304H6.51257H6.49204H6.47146H6.45082H6.43013H6.40938H6.38859H6.36773H6.34682H6.32586H6.30484H6.28376H6.26263H6.24145H6.2202H6.1989H6.17754H6.15613H6.13466H6.11313H6.09154H6.06989H6.04819H6.02643H6.00461H5.98273H5.96079H5.93879H5.91673H5.89461H5.87243H5.85019H5.82789H5.80553H5.78311H5.76063H5.73808H5.71548H5.69281H5.67008H5.64728H5.62443H5.60151H5.57853H5.55548H5.53237H5.5092H5.48596H5.46266H5.43929H5.41586H5.39236H5.3688H5.34517H5.32148H5.29772H5.27389H5.25ZM20.5625 23.4585C20.2173 23.4585 19.9375 23.7383 19.9375 24.0835C19.9375 24.4287 20.2173 24.7085 20.5625 24.7085H22.75C23.0952 24.7085 23.375 24.4287 23.375 24.0835C23.375 23.7383 23.0952 23.4585 22.75 23.4585H20.5625Z" fill="#252323"/>
</g>
<defs>
<clipPath id="clip0_1042_11426">
<rect width="28" height="28" fill="white"/>
</clipPath>
</defs>
</svg>
