<svg width="23" height="23" viewBox="0 0 23 23" fill="none" xmlns="http://www.w3.org/2000/svg">
<g clip-path="url(#clip0_1230_14931)">
<path fill-rule="evenodd" clip-rule="evenodd" d="M4.2168 4.29561C4.2168 2.81824 5.41443 1.62061 6.8918 1.62061H11.3802H15.8685C17.3459 1.62061 18.5435 2.81824 18.5435 4.29561V4.55977C18.5435 4.93256 18.2413 5.23477 17.8685 5.23477C17.4957 5.23477 17.1935 4.93256 17.1935 4.55977V4.29561C17.1935 3.56383 16.6003 2.97061 15.8685 2.97061H12.0552V19.7339H15.8685C16.6003 19.7339 17.1935 19.1407 17.1935 18.4089V11.3523V6.82394C17.1935 6.45114 17.4957 6.14894 17.8685 6.14894C18.2413 6.14894 18.5435 6.45114 18.5435 6.82394V11.3523V18.4089C18.5435 19.1938 18.2055 19.8997 17.6671 20.3891C17.709 20.477 17.7325 20.5754 17.7325 20.6793C17.7325 21.0521 17.4303 21.3543 17.0575 21.3543H15.7057C15.4847 21.3543 15.2885 21.2481 15.1654 21.0839H11.3802H7.86525C7.74212 21.2481 7.54593 21.3543 7.32494 21.3543H5.9732C5.60041 21.3543 5.2982 21.0521 5.2982 20.6793C5.2982 20.6403 5.30151 20.602 5.30787 20.5648C4.64617 20.0778 4.2168 19.2935 4.2168 18.4089V18.1448C4.2168 17.772 4.519 17.4698 4.8918 17.4698C5.26459 17.4698 5.5668 17.772 5.5668 18.1448V18.4089C5.5668 19.1407 6.16002 19.7339 6.8918 19.7339H10.7052V2.97061H6.8918C6.16002 2.97061 5.5668 3.56383 5.5668 4.29561V11.3523V15.8806C5.5668 16.2534 5.26459 16.5556 4.8918 16.5556C4.519 16.5556 4.2168 16.2534 4.2168 15.8806V11.3523V4.29561ZM10.1627 10.4061C10.1627 10.0333 9.86053 9.73105 9.48774 9.73105C9.11494 9.73105 8.81274 10.0333 8.81274 10.4061V12.5688C8.81274 12.9416 9.11494 13.2438 9.48774 13.2438C9.86053 13.2438 10.1627 12.9416 10.1627 12.5688V10.4061ZM13.8746 10.4061C13.8746 10.0333 13.5724 9.73105 13.1996 9.73105C12.8268 9.73105 12.5246 10.0333 12.5246 10.4061V12.5688C12.5246 12.9416 12.8268 13.2438 13.1996 13.2438C13.5724 13.2438 13.8746 12.9416 13.8746 12.5688V10.4061Z" fill="#252323"/>
</g>
<defs>
<clipPath id="clip0_1230_14931">
<rect width="23" height="23" fill="white"/>
</clipPath>
</defs>
</svg>
