<svg width="18" height="18" viewBox="0 0 18 18" fill="none" xmlns="http://www.w3.org/2000/svg">
<g clip-path="url(#clip0_1230_14968)">
<path d="M5.82837 1.79639H12.2121C13.1907 1.79639 13.9841 2.58972 13.9841 3.56834V5.3403V8.88421V13.972C13.9841 15.0766 13.0886 15.972 11.9841 15.972H5.60033C4.6217 15.972 3.82837 15.1787 3.82837 14.2001V12.4281V8.88421V3.79639C3.82837 2.69182 4.7238 1.79639 5.82837 1.79639Z" fill="#E05149"/>
<path fill-rule="evenodd" clip-rule="evenodd" d="M3.20337 3.79639C3.20337 2.34664 4.37862 1.17139 5.82837 1.17139H8.90622H11.9841C13.4338 1.17139 14.6091 2.34664 14.6091 3.79639V4C14.6091 4.34518 14.3292 4.625 13.9841 4.625C13.6389 4.625 13.3591 4.34518 13.3591 4V3.79639C13.3591 3.037 12.7434 2.42139 11.9841 2.42139H9.53122V15.347H11.9841C12.7434 15.347 13.3591 14.7314 13.3591 13.972V8.88421V6C13.3591 5.65482 13.6389 5.375 13.9841 5.375C14.3292 5.375 14.6091 5.65482 14.6091 6V8.88421V13.972C14.6091 14.69 14.3208 15.3406 13.8538 15.8145C13.9296 15.918 13.9743 16.0456 13.9743 16.1836C13.9743 16.5288 13.6945 16.8086 13.3493 16.8086H12.2914C12.1048 16.8086 11.9372 16.7268 11.8227 16.597H8.90622H6.20131C6.08678 16.7268 5.91923 16.8086 5.73257 16.8086H4.67469C4.32951 16.8086 4.04969 16.5288 4.04969 16.1836C4.04969 16.0991 4.06645 16.0185 4.09685 15.945C3.5491 15.4639 3.20337 14.7583 3.20337 13.972V13.5C3.20337 13.1548 3.48319 12.875 3.82837 12.875C4.17355 12.875 4.45337 13.1548 4.45337 13.5V13.972C4.45337 14.7314 5.06898 15.347 5.82837 15.347H8.28122V2.42139H5.82837C5.06898 2.42139 4.45337 3.03699 4.45337 3.79639V8.88421V11.5C4.45337 11.8452 4.17355 12.125 3.82837 12.125C3.48319 12.125 3.20337 11.8452 3.20337 11.5V8.88421V3.79639ZM8.05019 8.14369C8.05019 7.79851 7.77037 7.51869 7.42519 7.51869C7.08001 7.51869 6.80019 7.79851 6.80019 8.14369V9.83631C6.80019 10.1815 7.08001 10.4613 7.42519 10.4613C7.77037 10.4613 8.05019 10.1815 8.05019 9.83631V8.14369ZM10.9551 8.14369C10.9551 7.79851 10.6753 7.51869 10.3301 7.51869C9.98496 7.51869 9.70514 7.79851 9.70514 8.14369V9.83631C9.70514 10.1815 9.98496 10.4613 10.3301 10.4613C10.6753 10.4613 10.9551 10.1815 10.9551 9.83631V8.14369Z" fill="#252323"/>
</g>
<defs>
<clipPath id="clip0_1230_14968">
<rect width="18" height="18" fill="white"/>
</clipPath>
</defs>
</svg>
