<svg width="28" height="28" viewBox="0 0 28 28" fill="none" xmlns="http://www.w3.org/2000/svg">
<g clip-path="url(#clip0_1230_14930)">
<path fill-rule="evenodd" clip-rule="evenodd" d="M5.20532 4.79443C5.20532 3.27565 6.43654 2.04443 7.95532 2.04443H13.8542H19.7531C21.2718 2.04443 22.5031 3.27565 22.5031 4.79443V5.55081C22.5031 5.96502 22.1673 6.30081 21.7531 6.30081C21.3388 6.30081 21.0031 5.96502 21.0031 5.55081V4.79443C21.0031 4.10408 20.4434 3.54443 19.7531 3.54443H14.6042V24.0954H19.7531C20.4434 24.0954 21.0031 23.5358 21.0031 22.8454V13.8199V8.30718C21.0031 7.89297 21.3388 7.55718 21.7531 7.55718C22.1673 7.55718 22.5031 7.89297 22.5031 8.30718V13.8199V22.8454C22.5031 23.7056 22.1081 24.4736 21.4896 24.9779C21.5066 25.0406 21.5157 25.1065 21.5157 25.1746C21.5157 25.5888 21.1799 25.9246 20.7657 25.9246H19.1201C18.8619 25.9246 18.6342 25.7941 18.4992 25.5954H13.8542H9.53827C9.40336 25.7941 9.17562 25.9246 8.91741 25.9246H7.27182C6.86372 25.9246 6.53175 25.5986 6.52204 25.1929C5.73231 24.7096 5.20532 23.8391 5.20532 22.8454V22.0891C5.20532 21.6748 5.54111 21.3391 5.95532 21.3391C6.36954 21.3391 6.70532 21.6748 6.70532 22.0891V22.8454C6.70532 23.5358 7.26497 24.0954 7.95532 24.0954H13.1042V3.54443H7.95532C7.26497 3.54443 6.70532 4.10408 6.70532 4.79443V13.8199V19.3327C6.70532 19.7469 6.36954 20.0827 5.95532 20.0827C5.54111 20.0827 5.20532 19.7469 5.20532 19.3327V13.8199V4.79443ZM12.3004 12.668C12.3004 12.2538 11.9646 11.918 11.5504 11.918C11.1362 11.918 10.8004 12.2538 10.8004 12.668V15.301C10.8004 15.7152 11.1362 16.051 11.5504 16.051C11.9646 16.051 12.3004 15.7152 12.3004 15.301V12.668ZM16.8192 12.668C16.8192 12.2538 16.4834 11.918 16.0692 11.918C15.655 11.918 15.3192 12.2538 15.3192 12.668V15.301C15.3192 15.7152 15.655 16.051 16.0692 16.051C16.4834 16.051 16.8192 15.7152 16.8192 15.301V12.668Z" fill="#252323"/>
</g>
<defs>
<clipPath id="clip0_1230_14930">
<rect width="28" height="28" fill="white"/>
</clipPath>
</defs>
</svg>
