<svg width="44" height="44" viewBox="0 0 44 44" fill="none" xmlns="http://www.w3.org/2000/svg">
<g clip-path="url(#clip0_1230_14929)">
<path fill-rule="evenodd" clip-rule="evenodd" d="M8.6084 6.39136C8.6084 4.87257 9.83962 3.64136 11.3584 3.64136H21.7709H32.1834C33.7022 3.64136 34.9334 4.87258 34.9334 6.39136V8.7228C34.9334 9.13702 34.5976 9.4728 34.1834 9.4728C33.7692 9.4728 33.4334 9.13702 33.4334 8.7228V6.39136C33.4334 5.701 32.8738 5.14136 32.1834 5.14136H22.5209V38.2929H32.1834C32.8738 38.2929 33.4334 37.7333 33.4334 37.0429V21.7171V13.0543C33.4334 12.64 33.7692 12.3043 34.1834 12.3043C34.5976 12.3043 34.9334 12.64 34.9334 13.0543V21.7171V37.0429C34.9334 38.1325 34.2997 39.0741 33.3807 39.5193C33.3815 39.5328 33.3818 39.5464 33.3818 39.5601C33.3818 39.9743 33.0461 40.3101 32.6318 40.3101H30.0459C29.713 40.3101 29.4307 40.0932 29.3327 39.7929H21.7709H14.7263C14.6283 40.0932 14.3461 40.3101 14.0131 40.3101H11.4272C11.0649 40.3101 10.7626 40.0533 10.6925 39.7118C9.49547 39.4141 8.6084 38.3321 8.6084 37.0429V34.7115C8.6084 34.2973 8.94418 33.9615 9.3584 33.9615C9.77261 33.9615 10.1084 34.2973 10.1084 34.7115V37.0429C10.1084 37.7333 10.668 38.2929 11.3584 38.2929H21.0209V5.14136H11.3584C10.668 5.14136 10.1084 5.701 10.1084 6.39136V21.7171V30.38C10.1084 30.7943 9.77261 31.13 9.3584 31.13C8.94418 31.13 8.6084 30.7943 8.6084 30.38V21.7171V6.39136ZM18.9006 19.907C18.9006 19.4928 18.5648 19.157 18.1506 19.157C17.7364 19.157 17.4006 19.4928 17.4006 19.907V24.0445C17.4006 24.4587 17.7364 24.7945 18.1506 24.7945C18.5648 24.7945 18.9006 24.4587 18.9006 24.0445V19.907ZM26.0016 19.907C26.0016 19.4928 25.6658 19.157 25.2516 19.157C24.8374 19.157 24.5016 19.4928 24.5016 19.907V24.0445C24.5016 24.4587 24.8374 24.7945 25.2516 24.7945C25.6658 24.7945 26.0016 24.4587 26.0016 24.0445V19.907Z" fill="#252323"/>
</g>
<defs>
<clipPath id="clip0_1230_14929">
<rect width="44" height="44" fill="white"/>
</clipPath>
</defs>
</svg>
