<svg width="44" height="44" viewBox="0 0 44 44" fill="none" xmlns="http://www.w3.org/2000/svg">
<g clip-path="url(#clip0_1230_14929)">
<path d="M32.4648 3.65601C33.8514 3.79697 34.9336 4.9676 34.9336 6.39136V8.72241C34.9336 9.13656 34.5977 9.47231 34.1836 9.47241C33.7694 9.47241 33.4336 9.13663 33.4336 8.72241V6.39136C33.4336 5.74427 32.9417 5.21236 32.3115 5.14819L32.1836 5.14136H22.5205V38.2927H32.1836C32.8739 38.2926 33.4336 37.733 33.4336 37.0427V13.0544C33.4336 12.6402 33.7694 12.3044 34.1836 12.3044C34.5977 12.3045 34.9336 12.6403 34.9336 13.0544V37.0427C34.9336 38.1324 34.298 39.0703 33.3789 39.5154C33.3798 39.5302 33.3818 39.5452 33.3818 39.5603C33.3817 39.9744 33.046 40.3103 32.6318 40.3103H30.0459C29.7132 40.3103 29.4341 40.0926 29.3359 39.7927H14.7227C14.6244 40.0925 14.3453 40.3103 14.0127 40.3103H11.4268C11.0632 40.3101 10.7599 40.0512 10.6914 39.7078C9.49534 39.4094 8.6084 38.3312 8.6084 37.0427V34.7117C8.6084 34.2975 8.94418 33.9617 9.3584 33.9617C9.77261 33.9617 10.1084 34.2975 10.1084 34.7117V37.0427C10.1084 37.7331 10.668 38.2927 11.3584 38.2927H21.0205V5.14136H11.3584C10.668 5.14136 10.1084 5.701 10.1084 6.39136V30.3796C10.1084 30.7939 9.77261 31.1296 9.3584 31.1296C8.94418 31.1296 8.6084 30.7939 8.6084 30.3796V6.39136C8.6084 4.87257 9.83962 3.64136 11.3584 3.64136H32.1836L32.4648 3.65601ZM18.1504 19.157C18.5646 19.157 18.9004 19.4928 18.9004 19.907V24.0447C18.9003 24.4588 18.5645 24.7947 18.1504 24.7947C17.7364 24.7945 17.4005 24.4587 17.4004 24.0447V19.907C17.4004 19.4929 17.7363 19.1571 18.1504 19.157ZM25.251 19.157C25.6652 19.157 26.001 19.4928 26.001 19.907V24.0447C26.0009 24.4588 25.6651 24.7947 25.251 24.7947C24.8371 24.7943 24.5011 24.4586 24.501 24.0447V19.907C24.501 19.493 24.8371 19.1573 25.251 19.157Z" fill="#332A2A"/>
</g>
<defs>
<clipPath id="clip0_1230_14929">
<rect width="44" height="44" fill="white"/>
</clipPath>
</defs>
</svg>
