<svg width="18" height="18" viewBox="0 0 18 18" fill="none" xmlns="http://www.w3.org/2000/svg">
<g clip-path="url(#clip0_1230_14932)">
<path d="M12.1086 1.29639C13.5584 1.29639 14.7336 2.47164 14.7336 3.92139V4.12549C14.7334 4.47044 14.4537 4.75049 14.1086 4.75049C13.7638 4.75026 13.4839 4.4703 13.4836 4.12549V3.92139C13.4836 3.162 12.868 2.54639 12.1086 2.54639H9.65649V15.4722H12.1086C12.868 15.4722 13.4836 14.8565 13.4836 14.0972V6.12549C13.4836 5.78045 13.7637 5.50071 14.1086 5.50049C14.4538 5.50049 14.7336 5.78031 14.7336 6.12549V14.0972C14.7336 14.8155 14.4444 15.4659 13.9768 15.9399C14.0528 16.0435 14.0989 16.1708 14.0989 16.3091C14.0986 16.654 13.8189 16.9341 13.4739 16.9341H12.4163C12.2306 16.934 12.0659 16.8508 11.9514 16.7222H6.32251C6.20811 16.8508 6.0433 16.934 5.85767 16.9341H4.80005C4.45503 16.9341 4.17531 16.654 4.17505 16.3091C4.17505 16.2234 4.19171 16.1412 4.2229 16.0669C3.67576 15.5858 3.32841 14.883 3.32837 14.0972V13.6255C3.32837 13.2803 3.60819 13.0005 3.95337 13.0005C4.29855 13.0005 4.57837 13.2803 4.57837 13.6255V14.0972C4.57844 14.8565 5.19402 15.4722 5.95337 15.4722H8.40649V2.54639H5.95337C5.19398 2.54639 4.57837 3.16199 4.57837 3.92139V11.6255C4.57811 11.9704 4.29838 12.2505 3.95337 12.2505C3.60835 12.2505 3.32863 11.9704 3.32837 11.6255V3.92139C3.32837 2.47164 4.50362 1.29639 5.95337 1.29639H12.1086ZM7.55005 7.64404C7.89523 7.64404 8.17505 7.92386 8.17505 8.26904V9.96143C8.17486 10.3064 7.89511 10.5864 7.55005 10.5864C7.20505 10.5863 6.92524 10.3064 6.92505 9.96143V8.26904C6.92505 7.92391 7.20494 7.64412 7.55005 7.64404ZM10.4553 7.64404C10.8003 7.64422 11.0803 7.92397 11.0803 8.26904V9.96143C11.0801 10.3063 10.8002 10.5862 10.4553 10.5864C10.1103 10.5863 9.83051 10.3064 9.83032 9.96143V8.26904C9.83032 7.92391 10.1102 7.64412 10.4553 7.64404Z" fill="#332A2A"/>
</g>
<defs>
<clipPath id="clip0_1230_14932">
<rect width="18" height="18" fill="white"/>
</clipPath>
</defs>
</svg>
