<svg width="23" height="23" viewBox="0 0 23 23" fill="none" xmlns="http://www.w3.org/2000/svg">
<g clip-path="url(#clip0_1230_14931)">
<path d="M15.9182 1.67041C17.3956 1.67041 18.593 2.86785 18.593 4.34521V4.60986C18.5928 4.98243 18.2908 5.28467 17.9182 5.28467C17.5457 5.28459 17.2437 4.98238 17.2434 4.60986V4.34521C17.2434 3.61344 16.65 3.02002 15.9182 3.02002H12.1047V19.7837H15.9182C16.65 19.7837 17.2434 19.1903 17.2434 18.4585V6.87354C17.2434 6.5008 17.5455 6.19881 17.9182 6.19873C18.291 6.19873 18.593 6.50075 18.593 6.87354V18.4585C18.593 19.2439 18.2522 19.9477 17.7131 20.437C17.7559 20.5256 17.7815 20.624 17.7815 20.729C17.7814 21.1017 17.4794 21.4038 17.1067 21.4038H15.7551C15.5348 21.4037 15.3411 21.2966 15.218 21.1333H7.91138C7.78823 21.2965 7.59457 21.4038 7.37427 21.4038H6.02271C5.65011 21.4036 5.34796 21.1016 5.3479 20.729C5.3479 20.6887 5.35284 20.6492 5.35962 20.6108C4.69822 20.1239 4.26685 19.3429 4.26685 18.4585V18.1948C4.26685 17.822 4.56886 17.519 4.94165 17.519C5.31444 17.519 5.61646 17.822 5.61646 18.1948V18.4585C5.61646 19.1903 6.20987 19.7837 6.94165 19.7837H10.7551V3.02002H6.94165C6.20987 3.02002 5.61646 3.61344 5.61646 4.34521V15.9302C5.61646 16.303 5.31444 16.605 4.94165 16.605C4.56886 16.605 4.26685 16.303 4.26685 15.9302V4.34521C4.26685 2.86785 5.46429 1.67041 6.94165 1.67041H15.9182ZM9.53735 9.78076C9.91011 9.78076 10.2121 10.0828 10.2122 10.4556V12.6187C10.212 12.9913 9.91005 13.2935 9.53735 13.2935C9.16477 13.2933 8.86271 12.9912 8.86255 12.6187V10.4556C8.8626 10.0829 9.1647 9.78089 9.53735 9.78076ZM13.2493 9.78076C13.622 9.78078 13.924 10.0828 13.9241 10.4556V12.6187C13.9239 12.9913 13.6219 13.2934 13.2493 13.2935C12.8767 13.2933 12.5746 12.9912 12.5745 12.6187V10.4556C12.5745 10.0829 12.8766 9.78089 13.2493 9.78076Z" fill="#332A2A"/>
</g>
<defs>
<clipPath id="clip0_1230_14931">
<rect width="23" height="23" fill="white"/>
</clipPath>
</defs>
</svg>
