<svg width="44" height="44" viewBox="0 0 44 44" fill="none" xmlns="http://www.w3.org/2000/svg">
<g clip-path="url(#clip0_2095_12987)">
<path d="M39.875 16.5L23.833 23.833L40.333 16.958V29.792L38.5 30.708V20.625L26.583 25.667L26.125 35.75L24.75 36.667L22 36.208V25.667L9.16699 22.917V33.458L6.41699 32.542L6.875 19.708L17.875 22.458L34.375 15.583L39.875 16.5Z" fill="#E05149"/>
<path fill-rule="evenodd" clip-rule="evenodd" d="M19.6916 7.52312C19.8025 7.4948 19.9195 7.49247 20.0325 7.51629L33.927 10.445C34.2468 10.5126 34.4865 10.7799 34.5188 11.1052C34.5507 11.4303 34.3678 11.7389 34.0676 11.8678L29.8987 13.654L40.4953 16.0095C40.8385 16.0857 41.0832 16.3903 41.0832 16.7419V29.0739C41.0829 29.7619 40.6792 30.3859 40.052 30.6686L38.6008 31.3229C38.4497 31.3908 38.2795 31.4073 38.1184 31.3688L36.6877 31.0261C36.6808 31.0263 36.6733 31.028 36.6662 31.028C36.2526 31.0277 35.9167 30.6916 35.9162 30.278V22.3991L27.1389 26.1608V35.0358C27.1387 35.7357 26.7217 36.3695 26.0784 36.6452L24.4182 37.3561C24.2753 37.4173 24.1161 37.4329 23.9641 37.4001L22.6301 37.112C21.8251 36.9379 21.2506 36.2256 21.2502 35.402V26.2682L11.2912 24.0553V31.9186C11.2911 32.6103 10.8834 33.2376 10.2512 33.5182L9.22386 33.9743C9.07742 34.0391 8.91339 34.0559 8.75707 34.0212L7.37425 33.7136C6.57406 33.5355 6.00448 32.8253 6.00414 32.0055V19.8298C6.00414 19.5301 6.18304 19.2587 6.45824 19.1403L9.74339 17.7321L8.25511 16.9303L3.51292 15.9313C3.193 15.8639 2.95347 15.5965 2.92113 15.2712C2.88905 14.9459 3.07095 14.6364 3.37132 14.5075L19.5823 7.56023L19.6916 7.52312ZM7.50414 32.0055C7.50448 32.1222 7.58562 32.2241 7.69945 32.2497L8.17015 32.3532V22.7604C8.17017 22.5332 8.27339 22.3178 8.45042 22.1755C8.62781 22.0332 8.86124 21.9787 9.08324 22.028L22.1623 24.9352C22.5054 25.0115 22.75 25.3153 22.7502 25.6667V35.402C22.7506 35.5192 22.8321 35.6211 22.9465 35.6462L23.3723 35.738V24.2907L7.50414 20.7634V32.0055ZM24.8723 24.1833V35.53L25.4875 35.2663C25.5793 35.227 25.6387 35.1356 25.6389 35.0358V25.6667C25.6391 25.367 25.8186 25.0955 26.094 24.9772L36.3713 20.5729L36.3928 20.5641L38.0198 19.9274C38.2506 19.8371 38.5113 19.8659 38.716 20.0055C38.9208 20.1453 39.0432 20.3778 39.0432 20.6257V29.4782L39.4358 29.3014C39.5252 29.2612 39.5829 29.1719 39.5832 29.0739V17.8786L24.8723 24.1833ZM9.67015 32.1296C9.74369 32.0847 9.79108 32.0063 9.79124 31.9186V23.7223L9.67015 23.695V32.1296ZM37.4162 21.7741V29.6579L37.5432 29.6882V21.7243L37.4162 21.7741ZM20.5979 22.1364L24.0491 22.904L37.8987 16.9684L34.4465 16.2009L20.5979 22.1364ZM26.3186 17.3307C26.1608 17.6068 25.8453 17.7528 25.5325 17.696L22.0061 17.0553L22.009 17.0348L17.8577 18.8151C17.8494 18.8187 17.8396 18.8197 17.8313 18.8229L18.5383 19.2653C18.8484 19.4593 18.9736 19.849 18.8342 20.1872C18.6945 20.5254 18.3306 20.7138 17.9739 20.6325L13.1252 19.5221C13.0597 19.5072 12.9959 19.4837 12.9368 19.4518L11.4299 18.6403L9.18773 19.6012L18.0891 21.5788L31.9387 15.6442L27.8059 14.7262L26.3186 17.3307ZM13.5559 18.0817L13.9661 18.1755L13.8664 18.113L13.4534 18.0261L13.5559 18.0817ZM6.14183 14.9518L14.4084 16.694L14.4133 16.6872L14.4328 16.6989L17.4836 17.3425L31.2961 11.4225L19.9553 9.03191L6.14183 14.9518ZM24.4748 15.9782L25.2785 16.1247L25.6496 15.4753L24.4748 15.9782Z" fill="#332A2A"/>
</g>
<defs>
<clipPath id="clip0_2095_12987">
<rect width="44" height="44" fill="white"/>
</clipPath>
</defs>
</svg>
