<svg width="44" height="44" viewBox="0 0 44 44" fill="none" xmlns="http://www.w3.org/2000/svg">
<g clip-path="url(#clip0_2095_13019)">
<path d="M19.6909 7.52366C19.802 7.49522 19.9186 7.49298 20.0317 7.51683L33.9263 10.4455C34.2463 10.513 34.4859 10.7802 34.5181 11.1057C34.55 11.431 34.3673 11.7396 34.0669 11.8684L29.8999 13.6535L40.4956 16.009C40.8387 16.0853 41.0835 16.39 41.0835 16.7414V29.0735C41.0833 29.7615 40.6795 30.3854 40.0523 30.6682L38.6011 31.3225C38.4499 31.3905 38.2799 31.4069 38.1187 31.3684L36.688 31.0256C36.681 31.0258 36.6736 31.0275 36.6665 31.0276C36.2525 31.0275 35.9167 30.6915 35.9165 30.2776V22.3987L27.1392 26.1604V35.0354C27.1392 35.7354 26.722 36.369 26.0786 36.6448L24.4185 37.3557C24.2755 37.417 24.1164 37.4325 23.9644 37.3996L22.6304 37.1116C21.8251 36.9375 21.2507 36.2255 21.2505 35.4016V26.2678L11.2915 24.0549V31.9182C11.2915 32.61 10.8838 33.2371 10.2515 33.5178L9.22413 33.9739C9.07761 34.0388 8.91379 34.0555 8.75733 34.0207L7.37452 33.7131C6.57405 33.5351 6.00453 32.8251 6.0044 32.0051V19.8293C6.00443 19.5295 6.18306 19.2582 6.4585 19.1399L9.7417 17.7317L8.2544 16.9309L3.51221 15.9319C3.19234 15.8644 2.95283 15.597 2.92041 15.2717C2.88824 14.9464 3.07023 14.637 3.37061 14.508L19.5815 7.56077L19.6909 7.52366ZM7.5044 32.0051C7.50453 32.122 7.5856 32.2237 7.69971 32.2492L8.17041 32.3528V22.76C8.17045 22.5326 8.2734 22.3174 8.45069 22.175C8.62812 22.0328 8.86148 21.9782 9.0835 22.0276L22.1626 24.9348C22.5055 25.0111 22.7503 25.315 22.7505 25.6662V35.4016C22.7507 35.519 22.8321 35.6208 22.9468 35.6457L23.3726 35.7375V24.2903L18.0269 23.1018C18.0236 23.1012 18.0203 23.1005 18.0171 23.0998L7.5044 20.7629V32.0051ZM24.8726 24.1828V35.5295L25.4878 35.2659C25.5796 35.2264 25.6392 35.1353 25.6392 35.0354V25.6662C25.6393 25.3664 25.8186 25.0949 26.0942 24.9768L36.3716 20.5725L36.3931 20.5637L38.02 19.927C38.2508 19.8367 38.5116 19.8654 38.7163 20.0051C38.921 20.1448 39.0434 20.3774 39.0435 20.6252V29.4778L39.436 29.301C39.5255 29.2606 39.5833 29.1716 39.5835 29.0735V17.8782L24.8726 24.1828ZM9.67041 32.1291C9.744 32.0841 9.79151 32.006 9.79151 31.9182V23.7219L9.67041 23.6946V32.1291ZM37.4165 21.7737V29.6575L37.5435 29.6877V21.7239L37.4165 21.7737ZM20.5991 22.1369L24.0493 22.9035L37.8989 16.968L34.4487 16.2014L20.5991 22.1369ZM26.3179 17.3303C26.1601 17.6064 25.8446 17.7524 25.5317 17.6955L22.0054 17.0549L22.0083 17.0354L17.8569 18.8157C17.8485 18.8193 17.8391 18.8202 17.8306 18.8235L18.5376 19.2659C18.8479 19.4599 18.9731 19.8494 18.8335 20.1877C18.6936 20.5258 18.3298 20.7145 17.9731 20.633L13.1245 19.5227C13.0589 19.5077 12.9953 19.4843 12.936 19.4524L11.4292 18.6409L9.18799 19.6008L18.0913 21.5793L31.9399 15.6438L27.8052 14.7258L26.3179 17.3303ZM13.5552 18.0823L13.9653 18.176L13.8657 18.1135L13.4517 18.0266L13.5552 18.0823ZM6.14112 14.9524L14.4077 16.6946L14.4126 16.6877L14.4321 16.6994L17.4829 17.343L31.2954 11.4231L19.9546 9.03245L6.14112 14.9524ZM24.4761 15.9778L25.2778 16.1242L25.648 15.4758L24.4761 15.9778Z" fill="#332A2A"/>
</g>
<defs>
<clipPath id="clip0_2095_13019">
<rect width="44" height="44" fill="white"/>
</clipPath>
</defs>
</svg>
