<svg width="28" height="28" viewBox="0 0 28 28" fill="none" xmlns="http://www.w3.org/2000/svg">
<g clip-path="url(#clip0_2095_12998)">
<path d="M25.375 10.5L15.167 15.167L25.667 10.792V18.958L24.5 19.542L24 13.5L16.917 16.333L16.625 22.75L15.75 23.333L14 23.042L13.5 17L6.5 15.167L5.83301 21.292L4.08301 20.708L4.375 12.542L11.375 14.292L21.875 9.91699L25.375 10.5Z" fill="#E05149"/>
<path fill-rule="evenodd" clip-rule="evenodd" d="M12.4617 4.52323C12.5729 4.49463 12.6901 4.49254 12.8035 4.5164L21.6453 6.37968C21.9653 6.44714 22.2049 6.71433 22.2371 7.03983C22.2692 7.36528 22.0865 7.67371 21.7859 7.80253L19.9119 8.60526L25.8289 9.92069C26.172 9.99697 26.4158 10.3016 26.4158 10.6531V18.5838C26.4158 19.0817 26.1205 19.532 25.6638 19.7303L24.1492 20.3875C23.9176 20.4879 23.6503 20.4653 23.4392 20.3269C23.2282 20.1883 23.1005 19.9525 23.1003 19.7V14.9119L22.4236 15.1873L22.4246 15.1883L18.1521 17.033V22.1238C18.152 22.6236 17.8537 23.0753 17.3943 23.2723L15.6462 24.0223C15.5028 24.0837 15.3427 24.0994 15.1902 24.0662L13.6062 23.7205C13.032 23.5952 12.6218 23.0865 12.6218 22.4988V17.3855L7.24976 16.1912V21.366C7.24976 21.5935 7.14596 21.8086 6.96851 21.951C6.79109 22.0932 6.55865 22.1478 6.33667 22.0984L4.91773 21.783C4.11742 21.6049 3.54776 20.8949 3.54761 20.075V12.618C3.54765 12.3182 3.7263 12.0468 4.00171 11.9285L5.59741 11.2439L5.17554 11.0359L2.17847 10.4051C1.85865 10.3376 1.61902 10.0702 1.58667 9.74491C1.5545 9.41961 1.73655 9.11023 2.03687 8.98124L12.3533 4.56034L12.4617 4.52323ZM5.04761 20.075C5.04776 20.1918 5.12897 20.2935 5.24292 20.3191L5.74976 20.4314V15.2576C5.74977 15.0302 5.85269 14.814 6.03003 14.6717C6.20732 14.5295 6.44002 14.4761 6.66187 14.5252L13.5349 16.0525C13.8779 16.1288 14.1216 16.4327 14.1218 16.784V22.2967L14.6003 22.4012V15.6756L5.04761 13.5525V20.075ZM16.1003 15.5682V22.1941L16.6521 21.9578V16.5408C16.6522 16.2418 16.8298 15.971 17.1043 15.8523L21.8298 13.8113L21.8435 13.8055L23.5671 13.1023C23.7982 13.0082 24.0612 13.0356 24.2683 13.1746C24.4755 13.3138 24.6002 13.5471 24.6003 13.7967V18.5555L24.9158 18.4187V11.7898L16.1003 15.5682ZM13.9939 14.0037L15.2761 14.2889L23.2312 10.8797L21.948 10.5945L13.9939 14.0037ZM16.5652 10.9939C16.4123 11.169 16.1859 11.2629 15.9539 11.2488L14.0427 11.1326V11.1209L12.0369 11.9812C12.2359 12.1874 12.3067 12.4937 12.198 12.7723C12.0628 13.1184 11.6941 13.3132 11.3318 13.2303L8.24683 12.5242C8.19043 12.5113 8.13469 12.4921 8.08277 12.4666L7.37085 12.116L6.73218 12.3904L11.4851 13.4461L19.4392 10.0369L17.7302 9.658L16.5652 10.9939ZM4.80738 9.42558L11.0974 10.7517L19.0154 7.35819L12.7263 6.03202L4.80738 9.42558Z" fill="#332A2A"/>
</g>
<defs>
<clipPath id="clip0_2095_12998">
<rect width="28" height="28" fill="white"/>
</clipPath>
</defs>
</svg>
