<svg width="28" height="28" viewBox="0 0 28 28" fill="none" xmlns="http://www.w3.org/2000/svg">
<g clip-path="url(#clip0_1703_12443)">
<path d="M17.165 7.2435L15.4299 8.97866L15.8381 9.27866C16.7122 9.92107 16.8087 11.1912 16.0416 11.9583L14.2916 11.0833L12.9026 11.6315C12.7657 11.6855 12.6414 11.7671 12.5373 11.8712L10.9599 13.4485L9.22475 15.1837L7.4896 16.9189L5.75444 18.654C5.32065 19.0878 4.46251 20.8324 5.79216 22.162C7.12182 23.4917 8.64951 22.8504 9.30019 22.1998L11.0353 20.4646L12.7705 18.7294L12.4435 18.4978C11.6542 17.9385 11.441 16.8591 11.9583 16.0416L14 16.9166L15.3967 16.0612C15.4689 16.017 15.5353 15.9648 15.5951 15.905L17.2405 14.2596L18.9756 12.5244L20.7108 10.7893L22.4459 9.0541C22.8797 8.62031 23.521 7.09262 22.1913 5.76296C20.8617 4.43331 19.334 5.07456 18.9002 5.50835L17.165 7.2435Z" fill="#E05149"/>
<path d="M13.9448 10.4314C14.7546 10.3665 15.6891 10.6094 16.5171 11.4373C16.8096 11.73 16.8094 12.205 16.5171 12.4978C16.2243 12.7906 15.7495 12.7904 15.4565 12.4978C14.9553 11.9967 14.4595 11.8949 14.0649 11.9265C13.6263 11.9617 13.3075 12.1627 13.2261 12.2439L6.28467 19.1843C6.18946 19.2798 5.93322 19.6747 5.85303 20.1873C5.7797 20.6567 5.86017 21.1688 6.32275 21.6316C6.82248 22.1312 7.30751 22.2268 7.71143 22.1785C8.15244 22.1256 8.54735 21.8922 8.77002 21.6697L12.2407 18.2C12.5336 17.9071 13.0084 17.9071 13.3013 18.2C13.5936 18.4929 13.594 18.9678 13.3013 19.2605L9.83057 22.7302C9.40254 23.1581 8.70756 23.5707 7.89014 23.6687C7.03535 23.7711 6.09082 23.5217 5.26123 22.6921C4.39483 21.8254 4.23887 20.7992 4.37061 19.9558C4.49556 19.1564 4.88547 18.4626 5.22412 18.1238L12.1646 11.1833C12.5172 10.8308 13.1794 10.4929 13.9448 10.4314ZM20.1499 4.22632C20.9597 4.16143 21.8941 4.4043 22.7222 5.23218C23.5501 6.06026 23.793 6.99459 23.728 7.80444C23.6666 8.56991 23.3296 9.23202 22.9771 9.58472L16.0356 16.5251C15.6076 16.9531 14.9126 17.3656 14.0952 17.4636C13.2405 17.566 12.2968 17.3165 11.4673 16.4871C11.1747 16.1941 11.1745 15.7193 11.4673 15.4265C11.7601 15.1339 12.235 15.134 12.5278 15.4265C13.0276 15.9261 13.5126 16.0217 13.9165 15.9734C14.3575 15.9205 14.7524 15.6871 14.9751 15.4646L21.9155 8.52417C21.9967 8.44292 22.1967 8.12308 22.2319 7.68433C22.2635 7.28972 22.1627 6.79393 21.6616 6.29272C21.1604 5.79164 20.6646 5.68984 20.27 5.72144C19.8314 5.75667 19.5125 5.9576 19.4312 6.03882L15.9604 9.50952C15.6677 9.80207 15.1928 9.80196 14.8999 9.50952C14.6071 9.2167 14.6072 8.74189 14.8999 8.44897L18.3696 4.97827C18.7223 4.62568 19.3845 4.28782 20.1499 4.22632Z" fill="#332A2A"/>
</g>
<defs>
<clipPath id="clip0_1703_12443">
<rect width="28" height="28" fill="white"/>
</clipPath>
</defs>
</svg>
