<svg width="18" height="18" viewBox="0 0 18 18" fill="none" xmlns="http://www.w3.org/2000/svg">
<g clip-path="url(#clip0_1703_12444)">
<path d="M11.0346 4.65664L9.91911 5.7721C10.7568 5.86384 11.1156 6.88435 10.5198 7.4802L10.3124 7.68759L9.18739 7.12509L8.36859 7.44822C8.23167 7.50226 8.10732 7.58384 8.00324 7.68793L7.04557 8.64559L5.93011 9.76105L4.81465 10.8765L3.6992 11.992C3.42033 12.2708 2.86867 13.3923 3.72345 14.2471C4.57822 15.1019 5.56031 14.6897 5.97861 14.2714L7.09406 13.1559L8.20952 12.0405C7.38122 12.0253 6.97683 11.0232 7.56262 10.4374L7.68739 10.3126L8.99989 10.8751L9.85903 10.3489C9.93116 10.3047 9.99773 10.2523 10.0575 10.1925L11.0831 9.16697L12.1985 8.05151L13.314 6.93605L14.4294 5.8206C14.7083 5.54173 15.1205 4.55964 14.2658 3.70487C13.411 2.85009 12.4289 3.26232 12.15 3.54118L11.0346 4.65664Z" fill="#E05149"/>
<path d="M8.64752 6.86962C9.20762 6.82484 9.84981 6.99476 10.4131 7.55809C10.6569 7.80211 10.6569 8.19788 10.4131 8.44188C10.1692 8.68587 9.77345 8.68569 9.52935 8.44188C9.23833 8.15086 8.96127 8.09961 8.74713 8.11669C8.63119 8.12603 8.52386 8.15636 8.43756 8.19481C8.39506 8.21379 8.35975 8.2336 8.33404 8.25048C8.31093 8.2657 8.29904 8.27591 8.29693 8.27782L4.14068 12.4341C4.13959 12.4352 4.13636 12.4391 4.13092 12.4458C4.12354 12.4549 4.11384 12.4683 4.1026 12.4849C4.07969 12.5186 4.05298 12.5637 4.02642 12.6177C3.9727 12.7269 3.92629 12.8595 3.90435 12.9995C3.86278 13.2656 3.90633 13.5462 4.1651 13.8052C4.455 14.095 4.72374 14.1427 4.94049 14.1167C5.18802 14.087 5.4126 13.953 5.53619 13.8296L7.76763 11.5981C8.01167 11.3544 8.40743 11.3543 8.65142 11.5981C8.89546 11.8422 8.89549 12.2388 8.65142 12.4829L6.41998 14.7134C6.12523 15.008 5.65024 15.2896 5.08892 15.3569C4.49652 15.4279 3.84601 15.2535 3.28131 14.689C2.68588 14.0933 2.57876 13.3849 2.669 12.8071C2.75355 12.2659 3.01598 11.7914 3.25689 11.5503L7.41314 7.39403C7.66579 7.14157 8.12442 6.91159 8.64752 6.86962ZM12.9424 2.5747C13.5023 2.52993 14.1439 2.69934 14.7071 3.2622C15.2705 3.82563 15.4404 4.46863 15.3956 5.0288C15.3535 5.55175 15.1236 6.00964 14.8712 6.2622L11.5352 9.59911C11.5321 9.60247 11.5274 9.60751 11.5215 9.61376C11.5092 9.62694 11.4897 9.64614 11.4669 9.6704C11.4211 9.71891 11.3558 9.78846 11.2774 9.87059C11.1209 10.0345 10.91 10.2527 10.6963 10.4663C10.4016 10.7609 9.92655 11.0426 9.36529 11.1099C8.77293 11.1808 8.12234 11.0064 7.55767 10.4419C7.31399 10.1978 7.31387 9.80207 7.55767 9.55809C7.80175 9.31402 8.19836 9.31402 8.44244 9.55809C8.73227 9.84771 9.00015 9.89461 9.21685 9.86864C9.46431 9.83893 9.68895 9.70593 9.81256 9.58251C10.017 9.37804 10.2212 9.16741 10.3741 9.00731C10.4502 8.92763 10.5135 8.86079 10.5577 8.81395C10.5796 8.79073 10.5968 8.77171 10.6085 8.75927C10.6141 8.75324 10.6192 8.74872 10.6221 8.74559C10.6235 8.74414 10.6244 8.74249 10.6251 8.74169L13.9874 5.37841C13.9891 5.37648 14.0001 5.36495 14.0157 5.3413C14.0326 5.31557 14.0514 5.28032 14.0704 5.23778C14.1088 5.15151 14.1411 5.04508 14.1504 4.92919C14.1676 4.71503 14.1144 4.43812 13.8233 4.14696C13.5324 3.85618 13.2561 3.8037 13.042 3.82079C12.9261 3.83011 12.8188 3.86045 12.7325 3.89892C12.6898 3.91794 12.6547 3.93863 12.629 3.95556C12.6056 3.97092 12.5938 3.98116 12.5919 3.9829L10.3614 6.21434C10.1174 6.45828 9.72171 6.458 9.4776 6.21434C9.23352 5.97027 9.23352 5.57463 9.4776 5.33056L11.7081 3.09911C11.9607 2.84662 12.4193 2.61667 12.9424 2.5747Z" fill="#332A2A"/>
</g>
<defs>
<clipPath id="clip0_1703_12444">
<rect width="18" height="18" fill="white"/>
</clipPath>
</defs>
</svg>
