<svg width="23" height="23" viewBox="0 0 23 23" fill="none" xmlns="http://www.w3.org/2000/svg">
<g clip-path="url(#clip0_1703_12445)">
<path d="M14.0998 5.95007L12.6745 7.37538C13.7084 7.65309 14.0543 8.94563 13.2973 9.70263L13.177 9.82295L11.7395 9.1042L10.6356 9.53985C10.4987 9.59388 10.3743 9.67547 10.2703 9.77955L9.00274 11.0471L7.57743 12.4724L6.15213 13.8977L4.72682 15.323C4.37049 15.6793 3.66559 17.1124 4.7578 18.2046C5.85002 19.2968 7.10491 18.7701 7.6394 18.2356L9.06471 16.8103L10.49 15.385C9.45594 15.2251 9.04172 13.9582 9.78163 13.2183L9.82285 13.1771L11.4999 13.8959L12.6279 13.2051C12.7 13.1609 12.7665 13.1085 12.8263 13.0487L14.1618 11.7133L15.5871 10.288L17.0124 8.86265L18.4377 7.43735C18.794 7.08102 19.3207 5.82613 18.2285 4.73391C17.1363 3.6417 15.8814 4.16844 15.5251 4.52477L14.0998 5.95007Z" fill="#E05149"/>
<path d="M11.0383 8.59155C11.7196 8.41105 12.5248 8.52438 13.2502 9.24976C13.5138 9.51334 13.5138 9.94027 13.2502 10.2039C12.9867 10.4674 12.5597 10.4674 12.2961 10.2039C11.9295 9.8372 11.6264 9.83298 11.384 9.89722C11.0852 9.97651 10.8165 10.1885 10.679 10.3259L5.20435 15.8005C5.13571 15.8693 4.93051 16.1824 4.86646 16.5925C4.80866 16.9634 4.87149 17.3632 5.2356 17.7273C5.63313 18.1247 6.01331 18.1975 6.32739 18.1599C6.67492 18.1183 6.98752 17.9333 7.16235 17.7585L10.0129 14.908C10.2765 14.6444 10.7034 14.6445 10.967 14.908C11.2306 15.1716 11.2306 15.5985 10.967 15.8621L8.11646 18.7126C7.75682 19.0722 7.17476 19.4174 6.48853 19.4998C5.76861 19.586 4.975 19.3759 4.28052 18.6814C3.55289 17.9536 3.42197 17.0911 3.53247 16.3835C3.63685 15.7154 3.96241 15.1333 4.25024 14.8455L9.72388 9.37085C9.94279 9.15199 10.4139 8.75709 11.0383 8.59155ZM16.5471 3.41284C17.2287 3.35823 18.0132 3.56353 18.7063 4.25659C19.3993 4.9497 19.6038 5.73418 19.5491 6.41577C19.4976 7.05748 19.2147 7.61445 18.9143 7.91479L13.4778 13.3523C13.1629 13.6672 12.6619 14.0509 12.0149 14.1521C11.3203 14.2607 10.5962 14.0235 9.92505 13.3523C9.6617 13.0888 9.66184 12.6618 9.92505 12.3982C10.1886 12.1347 10.6165 12.1347 10.8801 12.3982C11.3006 12.8184 11.6084 12.8489 11.8059 12.8181C12.0506 12.7798 12.3033 12.6175 12.5227 12.3982L17.9602 6.96069C18.0162 6.90474 18.1754 6.65514 18.2034 6.30737C18.228 5.99955 18.15 5.61051 17.7512 5.21167C17.3524 4.81288 16.9633 4.73497 16.6555 4.75952C16.3083 4.78738 16.0588 4.94548 16.0022 5.00171L13.1516 7.85229C12.888 8.11578 12.4611 8.11586 12.1975 7.85229C11.934 7.58872 11.934 7.16179 12.1975 6.89819L15.0481 4.04761C15.3485 3.74735 15.9056 3.46432 16.5471 3.41284Z" fill="#332A2A"/>
</g>
<defs>
<clipPath id="clip0_1703_12445">
<rect width="23" height="23" fill="white"/>
</clipPath>
</defs>
</svg>
