<svg width="18" height="18" viewBox="0 0 18 18" fill="none" xmlns="http://www.w3.org/2000/svg">
<g clip-path="url(#clip0_1703_12444)">
<path d="M11.0346 4.65664L9.91911 5.7721C10.7568 5.86384 11.1156 6.88435 10.5198 7.4802L10.3124 7.68759L9.18739 7.12509L8.36859 7.44822C8.23167 7.50226 8.10732 7.58384 8.00324 7.68793L7.04557 8.64559L5.93011 9.76105L4.81465 10.8765L3.6992 11.992C3.42033 12.2708 2.86867 13.3923 3.72345 14.2471C4.57822 15.1019 5.56031 14.6897 5.97861 14.2714L7.09406 13.1559L8.20952 12.0405C7.38122 12.0253 6.97683 11.0232 7.56262 10.4374L7.68739 10.3126L8.99989 10.8751L9.85903 10.3489C9.93116 10.3047 9.99773 10.2523 10.0575 10.1925L11.0831 9.16697L12.1985 8.05151L13.314 6.93605L14.4294 5.8206C14.7083 5.54173 15.1205 4.55964 14.2658 3.70487C13.411 2.85009 12.4289 3.26232 12.15 3.54118L11.0346 4.65664Z" fill="#E05149"/>
<path d="M8.64771 6.86963C9.20781 6.82485 9.85 6.99477 10.4133 7.55811C10.6571 7.80212 10.6571 8.19789 10.4133 8.44189C10.1693 8.68588 9.77364 8.6857 9.52954 8.44189C9.23851 8.15087 8.96146 8.09962 8.74731 8.1167C8.63138 8.12604 8.52404 8.15637 8.43774 8.19482C8.39525 8.2138 8.35994 8.23361 8.33423 8.25049C8.31112 8.26571 8.29922 8.27592 8.29712 8.27783L4.14087 12.4341C4.13977 12.4352 4.13655 12.4391 4.1311 12.4458C4.12373 12.4549 4.11402 12.4683 4.10278 12.4849C4.07988 12.5186 4.05316 12.5637 4.02661 12.6177C3.97288 12.7269 3.92648 12.8595 3.90454 12.9995C3.86297 13.2656 3.90652 13.5462 4.16528 13.8052C4.45518 14.095 4.72392 14.1427 4.94067 14.1167C5.18821 14.087 5.41278 13.953 5.53638 13.8296L7.76782 11.5981C8.01186 11.3544 8.40761 11.3544 8.65161 11.5981C8.89565 11.8422 8.89568 12.2388 8.65161 12.4829L6.42017 14.7134C6.12541 15.008 5.65043 15.2896 5.08911 15.3569C4.49671 15.4279 3.8462 15.2535 3.28149 14.689C2.68607 14.0933 2.57895 13.3849 2.66919 12.8071C2.75374 12.2659 3.01617 11.7914 3.25708 11.5503L7.41333 7.39404C7.66598 7.14158 8.1246 6.9116 8.64771 6.86963ZM12.9426 2.57471C13.5025 2.52994 14.1441 2.69935 14.7073 3.26221C15.2707 3.82564 15.4406 4.46864 15.3958 5.02881C15.3537 5.55176 15.1238 6.00965 14.8713 6.26221L11.5354 9.59912C11.5323 9.60248 11.5276 9.60752 11.5217 9.61377C11.5094 9.62695 11.4899 9.64615 11.467 9.67041C11.4213 9.71892 11.356 9.78848 11.2776 9.87061C11.1211 10.0345 10.9102 10.2527 10.6965 10.4663C10.4018 10.7609 9.92674 11.0426 9.36548 11.1099C8.77312 11.1808 8.12253 11.0064 7.55786 10.4419C7.31418 10.1978 7.31406 9.80208 7.55786 9.55811C7.80194 9.31403 8.19855 9.31403 8.44263 9.55811C8.73246 9.84772 9.00034 9.89462 9.21704 9.86865C9.4645 9.83894 9.68913 9.70594 9.81274 9.58252C10.0172 9.37805 10.2214 9.16742 10.3743 9.00732C10.4504 8.92764 10.5137 8.8608 10.5579 8.81396C10.5798 8.79074 10.597 8.77172 10.6086 8.75928C10.6143 8.75325 10.6194 8.74873 10.6223 8.74561C10.6237 8.74415 10.6246 8.74251 10.6252 8.7417L13.9875 5.37842C13.9893 5.37649 14.0003 5.36496 14.0159 5.34131C14.0328 5.31558 14.0516 5.28033 14.0706 5.23779C14.109 5.15152 14.1413 5.04509 14.1506 4.9292C14.1678 4.71504 14.1145 4.43813 13.8235 4.14697C13.5325 3.85619 13.2563 3.80371 13.0422 3.8208C12.9262 3.83012 12.819 3.86046 12.7327 3.89893C12.69 3.91795 12.6549 3.93864 12.6292 3.95557C12.6058 3.97094 12.594 3.98117 12.592 3.98291L10.3616 6.21436C10.1176 6.45829 9.72189 6.45801 9.47778 6.21436C9.23371 5.97028 9.23371 5.57464 9.47778 5.33057L11.7083 3.09912C11.9609 2.84663 12.4195 2.61668 12.9426 2.57471Z" fill="#332A2A"/>
</g>
<defs>
<clipPath id="clip0_1703_12444">
<rect width="18" height="18" fill="white"/>
</clipPath>
</defs>
</svg>
