<svg width="23" height="23" viewBox="0 0 23 23" fill="none" xmlns="http://www.w3.org/2000/svg">
<g clip-path="url(#clip0_1703_12445)">
<path d="M14.0998 5.95007L12.6745 7.37538C13.7084 7.65309 14.0543 8.94563 13.2973 9.70263L13.177 9.82295L11.7395 9.1042L10.6356 9.53985C10.4987 9.59388 10.3743 9.67547 10.2703 9.77955L9.00274 11.0471L7.57743 12.4724L6.15213 13.8977L4.72682 15.323C4.37049 15.6793 3.66559 17.1124 4.7578 18.2046C5.85002 19.2968 7.10491 18.7701 7.6394 18.2356L9.06471 16.8103L10.49 15.385C9.45594 15.2251 9.04172 13.9582 9.78163 13.2183L9.82285 13.1771L11.4999 13.8959L12.6279 13.2051C12.7 13.1609 12.7665 13.1085 12.8263 13.0487L14.1618 11.7133L15.5871 10.288L17.0124 8.86265L18.4377 7.43735C18.794 7.08102 19.3207 5.82613 18.2285 4.73391C17.1363 3.6417 15.8814 4.16844 15.5251 4.52477L14.0998 5.95007Z" fill="#E05149"/>
<path d="M11.0375 8.59214C11.7187 8.41167 12.5241 8.52432 13.2494 9.24937C13.5131 9.51297 13.5131 9.94084 13.2494 10.2044C12.9859 10.4677 12.5589 10.4678 12.2953 10.2044C11.9288 9.8379 11.6266 9.83363 11.3842 9.8978C11.0853 9.97702 10.8157 10.188 10.6782 10.3255L5.20355 15.8001C5.13504 15.8687 4.92977 16.1818 4.86566 16.5921C4.80776 16.9631 4.87056 17.3636 5.2348 17.7279C5.63242 18.1254 6.01346 18.1972 6.32757 18.1595C6.675 18.1177 6.98682 17.9329 7.16156 17.7582L10.0121 14.9076C10.2757 14.644 10.7036 14.644 10.9672 14.9076C11.2307 15.1712 11.2307 15.5991 10.9672 15.8626L8.11664 18.7132C7.757 19.0728 7.17405 19.418 6.48773 19.5003C5.76798 19.5865 4.97503 19.3762 4.2807 18.682C3.55294 17.9542 3.42127 17.0917 3.53167 16.3841C3.63604 15.7159 3.9616 15.1339 4.24945 14.846L9.72406 9.37144C9.94295 9.15261 10.4133 8.75773 11.0375 8.59214ZM16.5463 3.41343C17.2279 3.35875 18.0124 3.56328 18.7055 4.2562C19.3984 4.94917 19.6038 5.73386 19.5493 6.41538C19.4977 7.05712 19.2148 7.61502 18.9145 7.91538L13.477 13.3519C13.1621 13.6668 12.6611 14.0505 12.0141 14.1517C11.3196 14.2602 10.5963 14.023 9.92523 13.3519C9.6617 13.0883 9.66165 12.6614 9.92523 12.3978C10.1888 12.1346 10.6158 12.1344 10.8793 12.3978C11.2999 12.8184 11.6076 12.8494 11.8051 12.8187C12.05 12.7804 12.3033 12.6174 12.5229 12.3978L17.9604 6.9603C18.0167 6.90351 18.1747 6.65391 18.2026 6.30698C18.2271 5.99919 18.1491 5.60998 17.7504 5.21128C17.3517 4.81266 16.9625 4.73454 16.6547 4.75913C16.307 4.78706 16.0574 4.94634 16.0014 5.0023L13.1508 7.85288C12.8872 8.11625 12.4602 8.11641 12.1967 7.85288C11.9332 7.58936 11.9333 7.1624 12.1967 6.89878L15.0473 4.04819C15.3477 3.74784 15.9046 3.46494 16.5463 3.41343Z" fill="#332A2A"/>
</g>
<defs>
<clipPath id="clip0_1703_12445">
<rect width="23" height="23" fill="white"/>
</clipPath>
</defs>
</svg>
