<svg width="28" height="28" viewBox="0 0 28 28" fill="none" xmlns="http://www.w3.org/2000/svg">
<g clip-path="url(#clip0_1703_12409)">
<path d="M13.8893 10.3752C14.6991 10.3103 15.6335 10.5532 16.4615 11.3811C16.754 11.6738 16.7539 12.1488 16.4615 12.4416C16.1687 12.7344 15.6939 12.7342 15.401 12.4416C14.8998 11.9405 14.404 11.8387 14.0094 11.8703C13.5707 11.9055 13.2519 12.1065 13.1705 12.1877L6.22913 19.1281C6.13392 19.2236 5.87768 19.6184 5.79748 20.1311C5.72416 20.6005 5.80463 21.1126 6.26721 21.5754C6.76694 22.075 7.25197 22.1706 7.65588 22.1223C8.09689 22.0694 8.49181 21.836 8.71448 21.6135L12.1852 18.1437C12.4781 17.8509 12.9528 17.8509 13.2457 18.1437C13.5381 18.4367 13.5384 18.9116 13.2457 19.2043L9.77502 22.674C9.34699 23.1019 8.65201 23.5145 7.83459 23.6125C6.97981 23.7148 6.03528 23.4655 5.20569 22.6359C4.33928 21.7692 4.18333 20.743 4.31506 19.8996C4.44002 19.1002 4.82993 18.4064 5.16858 18.0676L12.109 11.1271C12.4617 10.7745 13.1238 10.4367 13.8893 10.3752ZM20.0944 4.17011C20.9042 4.10523 21.8386 4.34809 22.6666 5.17597C23.4946 6.00406 23.7374 6.93839 23.6725 7.74824C23.611 8.5137 23.2741 9.17581 22.9215 9.52851L15.9801 16.4689C15.5521 16.8969 14.8571 17.3094 14.0397 17.4074C13.185 17.5098 12.2413 17.2603 11.4117 16.4309C11.1191 16.1379 11.1189 15.6631 11.4117 15.3703C11.7046 15.0777 12.1794 15.0777 12.4723 15.3703C12.972 15.8699 13.457 15.9655 13.861 15.9172C14.302 15.8643 14.6969 15.6309 14.9196 15.4084L21.86 8.46796C21.9411 8.38672 22.1411 8.06688 22.1764 7.62812C22.208 7.23351 22.1072 6.73773 21.6061 6.23652C21.1049 5.73544 20.6091 5.63364 20.2145 5.66523C19.7758 5.70046 19.457 5.9014 19.3756 5.98261L15.9049 9.45332C15.6121 9.74586 15.1372 9.74576 14.8444 9.45332C14.5515 9.1605 14.5517 8.68568 14.8444 8.39277L18.3141 4.92207C18.6667 4.56948 19.3289 4.23162 20.0944 4.17011Z" fill="#332A2A"/>
</g>
<defs>
<clipPath id="clip0_1703_12409">
<rect width="28" height="28" fill="white"/>
</clipPath>
</defs>
</svg>
