<svg width="44" height="44" viewBox="0 0 44 44" fill="none" xmlns="http://www.w3.org/2000/svg">
<g clip-path="url(#clip0_1703_12442)">
<path d="M26.9737 11.3826L24.2471 14.1092L24.8886 14.5807C26.2622 15.5902 26.4138 17.5862 25.2084 18.7916L22.4584 17.4166L20.1571 18.3248C20.0202 18.3788 19.8958 18.4604 19.7917 18.5645L17.2228 21.1334L14.4962 23.86L11.7695 26.5867L9.04283 29.3134C8.36117 29.995 7.01265 32.7365 9.10211 34.826C11.1916 36.9154 13.5922 35.9078 14.6147 34.8853L17.3414 32.1586L20.0681 29.4319L19.5543 29.0679C18.3139 28.189 17.9788 26.4928 18.7918 25.2082L22.0001 26.5832L24.257 25.201C24.3292 25.1568 24.3957 25.1044 24.4555 25.0446L27.0923 22.4078L29.819 19.6811L32.5456 16.9545L35.2723 14.2278C35.954 13.5461 36.9617 11.1455 34.8722 9.05601C32.7827 6.96655 30.3821 7.97424 29.7004 8.6559L26.9737 11.3826Z" fill="#E05149"/>
<path d="M21.9475 16.8198C23.1015 16.7273 24.4427 17.0691 25.6506 18.2769C25.9435 18.5698 25.9435 19.0445 25.6506 19.3374C25.3577 19.6298 24.8828 19.6301 24.5901 19.3374C23.7089 18.4563 22.8055 18.2557 22.0667 18.3149C21.2841 18.3779 20.685 18.732 20.4797 18.937L9.57349 29.8433C9.35454 30.0622 8.91345 30.7692 8.77466 31.6577C8.64273 32.5024 8.78965 33.4528 9.63208 34.2954C10.5118 35.1751 11.4055 35.3693 12.1692 35.2778C12.9698 35.1817 13.6758 34.7634 14.0842 34.355L19.5374 28.9019C19.8302 28.6091 20.305 28.6091 20.5979 28.9019C20.8908 29.1947 20.8907 29.6695 20.5979 29.9624L15.1448 35.4155C14.5308 36.0294 13.5242 36.627 12.3469 36.7681C11.1325 36.9134 9.7809 36.5653 8.57153 35.356C7.32516 34.1094 7.10097 32.6449 7.29126 31.4263C7.47479 30.2513 8.05023 29.2454 8.51294 28.7827L19.4192 17.8765C19.8959 17.3999 20.8379 16.9089 21.9475 16.8198ZM31.6985 7.06982C32.8525 6.9773 34.1937 7.31814 35.4016 8.52588C36.6096 9.73391 36.9512 11.0759 36.8586 12.23C36.7695 13.3397 36.2786 14.2817 35.802 14.7583L24.8958 25.6646C24.2818 26.2785 23.2753 26.876 22.0979 27.0171C20.8835 27.1625 19.5319 26.8144 18.3225 25.605C18.03 25.3121 18.0297 24.8372 18.3225 24.5444C18.6153 24.252 19.0903 24.252 19.3831 24.5444C20.2628 25.4241 21.1565 25.6193 21.9202 25.5278C22.7209 25.4317 23.4268 25.0125 23.8352 24.604L34.7415 13.6978C34.9465 13.4927 35.3006 12.893 35.3635 12.1099C35.4227 11.371 35.2222 10.4676 34.3411 9.58643C33.4598 8.70538 32.5565 8.50468 31.8176 8.56396C31.0346 8.62691 30.4357 8.982 30.2307 9.18701L24.7776 14.6401C24.4848 14.9329 24.01 14.9326 23.717 14.6401C23.4241 14.3472 23.4241 13.8715 23.717 13.5786L29.1702 8.12549C29.6469 7.64901 30.589 7.15885 31.6985 7.06982Z" fill="#332A2A"/>
</g>
<defs>
<clipPath id="clip0_1703_12442">
<rect width="44" height="44" fill="white"/>
</clipPath>
</defs>
</svg>
