<svg width="44" height="44" viewBox="0 0 44 44" fill="none" xmlns="http://www.w3.org/2000/svg">
<g clip-path="url(#clip0_1703_12403)">
<path d="M21.893 16.7638C23.047 16.6713 24.3883 17.0123 25.5962 18.2199C25.889 18.5127 25.889 18.9875 25.5962 19.2804C25.3032 19.5731 24.8284 19.5732 24.5356 19.2804C23.6545 18.3996 22.7509 18.1996 22.0122 18.2589C21.2294 18.3219 20.6304 18.676 20.4253 18.881L9.51901 29.7872C9.30005 30.0062 8.85897 30.7132 8.72018 31.6017C8.58833 32.4463 8.73526 33.3968 9.5776 34.2394C10.4572 35.1189 11.3511 35.3132 12.1147 35.2218C12.9152 35.1257 13.6212 34.7073 14.0297 34.299L19.4829 28.8458C19.7758 28.553 20.2505 28.553 20.5434 28.8458C20.8362 29.1387 20.8362 29.6135 20.5434 29.9064L15.0903 35.3595C14.4763 35.9734 13.4696 36.57 12.2924 36.7111C11.0781 36.8564 9.7264 36.5092 8.51705 35.2999C7.27078 34.0534 7.04657 32.5888 7.23678 31.3703C7.4203 30.1953 7.99575 29.1894 8.45846 28.7267L19.3647 17.8204C19.8414 17.3439 20.7833 16.8529 21.893 16.7638ZM31.644 7.01283C32.798 6.92032 34.1392 7.26212 35.3471 8.46986C36.5549 9.67771 36.8966 11.019 36.8042 12.173C36.7151 13.2828 36.2241 14.2257 35.7475 14.7023L24.8413 25.6085C24.2273 26.2224 23.2207 26.819 22.0434 26.9601C20.829 27.1055 19.4774 26.7583 18.268 25.549C17.9755 25.256 17.9752 24.7812 18.268 24.4884C18.5608 24.1958 19.0357 24.1959 19.3286 24.4884C20.2083 25.368 21.102 25.5623 21.8657 25.4708C22.6663 25.3747 23.3722 24.9564 23.7807 24.548L34.687 13.6417C34.892 13.4367 35.2461 12.837 35.309 12.0538C35.3683 11.315 35.1678 10.4117 34.2866 9.53041C33.4053 8.64935 32.502 8.44867 31.7631 8.50795C30.9805 8.57087 30.3815 8.92497 30.1762 9.13002L24.7231 14.5831C24.4303 14.876 23.9555 14.8759 23.6626 14.5831C23.3697 14.2902 23.3697 13.8155 23.6626 13.5226L29.1157 8.06947C29.5924 7.59294 30.5344 7.10186 31.644 7.01283Z" fill="#332A2A"/>
</g>
<defs>
<clipPath id="clip0_1703_12403">
<rect width="44" height="44" fill="white"/>
</clipPath>
</defs>
</svg>
