<svg width="23" height="23" viewBox="0 0 23 23" fill="none" xmlns="http://www.w3.org/2000/svg">
<g clip-path="url(#clip0_611_6332)">
<path fill-rule="evenodd" clip-rule="evenodd" d="M5.30406 10.0411C5.30408 9.27379 5.92612 8.65176 6.69345 8.65176C7.06624 8.65176 7.36845 8.34955 7.36845 7.97676C7.36845 7.60397 7.06624 7.30176 6.69345 7.30176C5.18055 7.30176 3.9541 8.52819 3.95406 10.0411L3.95406 10.277C3.67573 10.4836 3.49536 10.8147 3.49536 11.188L3.49536 13.1549C3.49536 13.6681 3.74083 14.124 4.12078 14.4116L3.92243 14.61C3.65883 14.8736 3.65883 15.301 3.92243 15.5646C4.18603 15.8282 4.61342 15.8282 4.87702 15.5646L5.7115 14.7301H11.5102L13.3452 14.7301C13.718 14.7301 14.0202 14.4279 14.0202 14.0551C14.0202 13.6823 13.718 13.3801 13.3452 13.3801H11.5102H5.07061C4.94621 13.3801 4.84536 13.2793 4.84536 13.1549V12.1983C5.20778 12.6514 5.76531 12.9415 6.39061 12.9415H8.29905H9.10185L9.71098 12.9415C10.0838 12.9415 10.386 12.6393 10.386 12.2665C10.386 11.8938 10.0838 11.5915 9.71098 11.5915H9.10185L8.29905 11.5915H6.39061C6.04391 11.5915 5.76285 11.3105 5.76285 10.9638C5.76285 10.6255 5.57814 10.3303 5.30406 10.1736L5.30406 10.0411ZM8.75779 7.30176C8.385 7.30176 8.08279 7.60397 8.08279 7.97676C8.08279 8.34955 8.385 8.65176 8.75779 8.65176H16.0977C16.9597 8.65176 17.6643 9.32556 17.7136 10.1752C17.4411 10.3323 17.2577 10.6266 17.2577 10.9638C17.2577 11.3105 16.9766 11.5915 16.6299 11.5915H11.5102C11.1375 11.5915 10.8352 11.8938 10.8352 12.2665C10.8352 12.6393 11.1375 12.9415 11.5102 12.9415H16.6299C17.2552 12.9415 17.8127 12.6514 18.1751 12.1983V13.1553C18.1751 13.2793 18.0748 13.3801 17.9499 13.3801H15.1802C14.8074 13.3801 14.5052 13.6823 14.5052 14.0551C14.5052 14.4279 14.8074 14.7301 15.1802 14.7301H17.309L18.1435 15.5646C18.4071 15.8282 18.8344 15.8282 19.0981 15.5646C19.3617 15.301 19.3617 14.8736 19.0981 14.61L18.8998 14.4117C19.2796 14.1243 19.5251 13.6687 19.5251 13.1553V11.1872C19.5251 10.8133 19.3445 10.4828 19.0664 10.2767V10.2705C19.0664 8.74642 17.9179 7.4906 16.4392 7.3212C16.3875 7.30849 16.3334 7.30176 16.2778 7.30176H16.0977H8.75779Z" fill="#252323"/>
</g>
<defs>
<clipPath id="clip0_611_6332">
<rect width="23" height="23" fill="white"/>
</clipPath>
</defs>
</svg>
