<svg width="44" height="44" viewBox="0 0 44 44" fill="none" xmlns="http://www.w3.org/2000/svg">
<g clip-path="url(#clip0_666_8856)">
<path fill-rule="evenodd" clip-rule="evenodd" d="M13.8158 8.86304C13.1254 8.86304 12.5658 9.42268 12.5658 10.113V20.2492C12.5667 20.2697 12.5671 20.2903 12.5672 20.3111L12.5744 26.167C16.5083 24.8937 23.4108 23.0582 31.4126 26.0874V20.0977C31.4126 20.0151 31.4194 19.9341 31.4325 19.8552V19.5693V16.7053C31.4325 16.291 31.7683 15.9553 32.1825 15.9553C32.5968 15.9553 32.9325 16.291 32.9325 16.7053V18.6287C33.0266 18.6272 33.1431 18.622 33.2781 18.616L33.2781 18.616C34.0368 18.5825 35.3757 18.5234 36.5477 18.9437C37.2969 19.2123 38.0257 19.6836 38.5586 20.4862C39.0877 21.283 39.3799 22.3405 39.3799 23.7081C39.38 25.8458 39.3359 28.5715 38.9201 30.9841C38.8497 31.3923 38.4618 31.6662 38.0536 31.5959C37.6454 31.5255 37.3715 31.1376 37.4419 30.7294C37.8337 28.456 37.88 25.8451 37.8799 23.7081C37.8799 22.5505 37.6333 21.8042 37.309 21.3159C36.9886 20.8333 36.5497 20.5379 36.0414 20.3556C35.1828 20.0478 34.2539 20.0834 33.4801 20.1132L33.48 20.1132L33.4799 20.1132C33.2866 20.1206 33.103 20.1277 32.9325 20.1289V27.1732C32.9336 27.1958 32.9336 27.2185 32.9325 27.2412V28.1206L32.9325 28.1224L32.9256 30.9194C32.9305 30.9541 32.933 30.9896 32.933 31.0256V35.2238H32.9336H32.9393H32.9451H32.9509H32.9566H32.9624H32.9682H32.974H32.9799H32.9857H32.9915H32.9974H33.0032H33.0091H33.015H33.0208H33.0267H33.0326H33.0386H33.0445H33.0504H33.0564H33.0623H33.0683H33.0742H33.0802H33.0862H33.0922H33.0982H33.1042H33.1102H33.1163H33.1223H33.1284H33.1344H33.1405H33.1466H33.1527H33.1588H33.1649H33.171H33.1771H33.1832H33.1894H33.1955H33.2017H33.2078H33.214H33.2202H33.2264H33.2326H33.2388H33.245H33.2512H33.2575H33.2637H33.27H33.2762H33.2825H33.2888H33.2951H33.3014H33.3077H33.314H33.3203H33.3266H33.333H33.3393H33.3457H33.352H33.3584H33.3648H33.3712H33.3776H33.384H33.3904H33.3968H33.4032H33.4097H33.4161H33.4225H33.429H33.4355H33.4419H33.4484H33.4549H33.4614H33.4679H33.4744H33.481H33.4875H33.494H33.5006H33.5071H33.5137H33.5202H33.5268H33.5334H33.54H33.5466H33.5532H33.5598H33.5664H33.5731H33.5797H33.5863H33.593H33.5996H33.6063H33.613H33.6197H33.6264H33.633H33.6397H33.6465H33.6532H33.6599H33.6666H33.6734H33.6801H33.6869H33.6936H33.7004H33.7072H33.7139H33.7207H33.7275H33.7343H33.7411H33.7479H33.7548H33.7616H33.7684H33.7753H33.7821H33.789H33.7958H33.8027H33.8096H33.8165H33.8233H33.8302H33.8371H33.844H33.851H33.8579H33.8648H33.8717H33.8787H33.8856H33.8926H33.8995H33.9065H33.9135H33.9205H33.9274H33.9344H33.9414H33.9484H33.9554H33.9625H33.9695H33.9765H33.9835H33.9906H33.9976H34.0047H34.0117H34.0188H34.0259H34.033H34.04H34.0471H34.0542H34.0613H34.0684H34.0755H34.0827H34.0898H34.0969H34.104H34.1112H34.1183H34.1255H34.1326H34.1398H34.147H34.1542H34.1613H34.1685H34.1757H34.1829H34.1901H34.1973H34.2045H34.2117H34.219H34.2262H34.2334H34.2407H34.2479H34.2552H34.2624H34.2697H34.277H34.2842H34.2915H34.2988H34.3061H34.3134H34.3207H34.328H34.3353H34.3426H34.3499H34.3572H34.3645H34.3719H34.3792H34.3865H34.3939H34.4012H34.4086H34.416H34.4233H34.4307H34.4381H34.4454H34.4528H34.4602H34.4676H34.475H34.4824H34.4898H34.4972H34.5046H34.5121H34.5195H34.5269H34.5343H34.5418H34.5492H34.5567H34.5641H34.5716H34.579H34.5865H34.594H34.6014H34.6089H34.6164H34.6239H34.6314H34.6389H34.6463H34.6539H34.6614H34.6689H34.6764H34.6839H34.6914H34.6989H34.7065H34.714H34.7215H34.7291H34.7366H34.7442H34.7517H34.7593H34.7668H34.7744H34.7819H34.7895H34.7971H34.8047H34.8122H34.8198H34.8274H34.835H34.8426H34.8502H34.8578H34.8654H34.873H34.8806H34.8882H34.8959H34.9035H34.9111H34.9187H34.9264H34.934H34.9416H34.9493H34.9569H34.9646H34.9722H34.9799H34.9875H34.9952H35.0028H35.0105H35.0182H35.0258H35.0335H35.0412H35.0489H35.0565H35.0642H35.0719H35.0796H35.0873H35.095H35.1027H35.1104H35.1181H35.1258H35.1335H35.1412H35.1489H35.1566H35.1644H35.1721H35.1798H35.1875H35.1953H35.203H35.2107H35.2185H35.2262H35.2339H35.2417H35.2494H35.2572H35.2649H35.2727H35.2804H35.2882H35.296H35.3037H35.3115H35.3192H35.327H35.3348H35.3425H35.3503H35.3581H35.3659H35.3736H35.3814H35.3892H35.397H35.4048H35.4126C35.4417 35.2238 35.4626 35.2197 35.4749 35.2159C35.4813 35.2139 35.4847 35.2122 35.4859 35.2115C35.9349 34.8561 36.3243 34.3048 36.65 33.5648C36.8169 33.1857 37.2595 33.0137 37.6387 33.1806C38.0178 33.3475 38.1898 33.7901 38.0229 34.1692C37.6369 35.046 37.12 35.8316 36.4154 36.3888C36.1044 36.6348 35.7376 36.7238 35.4126 36.7238H35.4048H35.397H35.3892H35.3814H35.3736H35.3659H35.3581H35.3503H35.3425H35.3348H35.327H35.3192H35.3115H35.3037H35.296H35.2882H35.2804H35.2727H35.2649H35.2572H35.2494H35.2417H35.2339H35.2262H35.2185H35.2107H35.203H35.1953H35.1875H35.1798H35.1721H35.1644H35.1566H35.1489H35.1412H35.1335H35.1258H35.1181H35.1104H35.1027H35.095H35.0873H35.0796H35.0719H35.0642H35.0565H35.0489H35.0412H35.0335H35.0258H35.0182H35.0105H35.0028H34.9952H34.9875H34.9799H34.9722H34.9646H34.9569H34.9493H34.9416H34.934H34.9264H34.9187H34.9111H34.9035H34.8959H34.8882H34.8806H34.873H34.8654H34.8578H34.8502H34.8426H34.835H34.8274H34.8198H34.8122H34.8047H34.7971H34.7895H34.7819H34.7744H34.7668H34.7593H34.7517H34.7442H34.7366H34.7291H34.7215H34.714H34.7065H34.6989H34.6914H34.6839H34.6764H34.6689H34.6614H34.6539H34.6463H34.6389H34.6314H34.6239H34.6164H34.6089H34.6014H34.594H34.5865H34.579H34.5716H34.5641H34.5567H34.5492H34.5418H34.5343H34.5269H34.5195H34.5121H34.5046H34.4972H34.4898H34.4824H34.475H34.4676H34.4602H34.4528H34.4454H34.4381H34.4307H34.4233H34.416H34.4086H34.4012H34.3939H34.3865H34.3792H34.3719H34.3645H34.3572H34.3499H34.3426H34.3353H34.328H34.3207H34.3134H34.3061H34.2988H34.2915H34.2842H34.277H34.2697H34.2624H34.2552H34.2479H34.2407H34.2334H34.2262H34.219H34.2117H34.2045H34.1973H34.1901H34.1829H34.1757H34.1685H34.1613H34.1542H34.147H34.1398H34.1326H34.1255H34.1183H34.1112H34.104H34.0969H34.0898H34.0827H34.0755H34.0684H34.0613H34.0542H34.0471H34.04H34.033H34.0259H34.0188H34.0117H34.0047H33.9976H33.9906H33.9835H33.9765H33.9695H33.9625H33.9554H33.9484H33.9414H33.9344H33.9274H33.9205H33.9135H33.9065H33.8995H33.8926H33.8856H33.8787H33.8717H33.8648H33.8579H33.851H33.844H33.8371H33.8302H33.8233H33.8165H33.8096H33.8027H33.7958H33.789H33.7821H33.7753H33.7684H33.7616H33.7548H33.7479H33.7411H33.7343H33.7275H33.7207H33.7139H33.7072H33.7004H33.6936H33.6869H33.6801H33.6734H33.6666H33.6599H33.6532H33.6465H33.6397H33.633H33.6264H33.6197H33.613H33.6063H33.5996H33.593H33.5863H33.5797H33.5731H33.5664H33.5598H33.5532H33.5466H33.54H33.5334H33.5268H33.5202H33.5137H33.5071H33.5006H33.494H33.4875H33.481H33.4744H33.4679H33.4614H33.4549H33.4484H33.4419H33.4355H33.429H33.4225H33.4161H33.4097H33.4032H33.3968H33.3904H33.384H33.3776H33.3712H33.3648H33.3584H33.352H33.3457H33.3393H33.333H33.3266H33.3203H33.314H33.3077H33.3014H33.2951H33.2888H33.2825H33.2762H33.27H33.2637H33.2575H33.2512H33.245H33.2388H33.2326H33.2264H33.2202H33.214H33.2078H33.2017H33.1955H33.1894H33.1832H33.1771H33.171H33.1649H33.1588H33.1527H33.1466H33.1405H33.1344H33.1284H33.1223H33.1163H33.1102H33.1042H33.0982H33.0922H33.0862H33.0802H33.0742H33.0683H33.0623H33.0564H33.0504H33.0445H33.0386H33.0326H33.0267H33.0208H33.015H33.0091H33.0032H32.9974H32.9915H32.9857H32.9799H32.974H32.9682H32.9624H32.9566H32.9509H32.9451H32.9393H32.9336H32.9278H32.9221H32.9164H32.9111H32.9107H32.905H32.8993H32.8936H32.8879H32.8823H32.8766H32.871H32.8653H32.8597H32.8541H32.8485H32.8429H32.8373H32.8318H32.8262H32.8207H32.8151H32.8096H32.8041H32.7986H32.7931H32.7876H32.7821H32.7766H32.7712H32.7657H32.7603H32.7549H32.7494H32.744H32.7386H32.7333H32.7279H32.7225H32.7172H32.7118H32.7065H32.7012H32.6959H32.6906H32.6853H32.68H32.6747H32.6695H32.6642H32.659H32.6538H32.6486H32.6434H32.6382H32.633H32.6278H32.6227H32.6175H32.6124H32.6073H32.6021H32.597H32.592H32.5869H32.5818H32.5768H32.5717H32.5667H32.5616H32.5566H32.5516H32.5466H32.5417H32.5367H32.5317H32.5268H32.5219H32.517H32.512H32.5071H32.5023H32.4974H32.4925H32.4877H32.4828H32.478H32.4732H32.4684H32.4636H32.4588H32.454H32.4493H32.4445H32.4398H32.4351H32.4304H32.4257H32.421H32.4163H32.4117H32.407H32.4024H32.3977H32.3931H32.3885H32.3839H32.3794H32.3748H32.3703H32.3657H32.3612H32.3567H32.3522H32.3477H32.3432H32.3387H32.3343H32.3298H32.3254H32.321H32.3166H32.3122H32.3078H32.3034H32.2991H32.2947H32.2904H32.2861H32.2818H32.2775H32.2732H32.269H32.2647H32.2605H32.2562H32.252H32.2478H32.2436H32.2395H32.2353H32.2312H32.227H32.2229H32.2188H32.2147H32.2106H32.2065H32.2025H32.1984H32.1944H32.1904H32.1864H32.183H32.1824H32.1784H32.1744H32.1705H32.1665H32.1629H32.1626H31.4126H12.5876H11.8367H11.8328H11.8289H11.8251H11.8212H11.8173H11.8133H11.8094H11.8054H11.8015H11.7975H11.7962H11.7935H11.7895H11.7855H11.7815H11.7774H11.7734H11.7693H11.7652H11.7611H11.757H11.7529H11.7487H11.7446H11.7404H11.7363H11.7321H11.7279H11.7237H11.7194H11.7152H11.7109H11.7067H11.7024H11.6981H11.6938H11.6895H11.6852H11.6808H11.6765H11.6721H11.6677H11.6633H11.6589H11.6545H11.6501H11.6457H11.6412H11.6367H11.6323H11.6278H11.6233H11.6188H11.6142H11.6097H11.6052H11.6006H11.596H11.5914H11.5868H11.5822H11.5776H11.573H11.5683H11.5637H11.559H11.5543H11.5496H11.5449H11.5402H11.5354H11.5307H11.526H11.5212H11.5164H11.5116H11.5068H11.502H11.4972H11.4923H11.4875H11.4826H11.4778H11.4729H11.468H11.4631H11.4582H11.4532H11.4483H11.4433H11.4384H11.4334H11.4284H11.4234H11.4184H11.4134H11.4084H11.4033H11.3983H11.3932H11.3881H11.383H11.378H11.3728H11.3677H11.3626H11.3575H11.3523H11.3471H11.342H11.3368H11.3316H11.3264H11.3212H11.3159H11.3107H11.3054H11.3002H11.2949H11.2896H11.2843H11.279H11.2737H11.2684H11.263H11.2577H11.2523H11.247H11.2416H11.2362H11.2308H11.2254H11.22H11.2146H11.2091H11.2037H11.1982H11.1927H11.1872H11.1818H11.1763H11.1707H11.1652H11.1597H11.1541H11.1486H11.143H11.1375H11.1319H11.1263H11.1207H11.1151H11.1094H11.1038H11.0982H11.0925H11.0869H11.0812H11.0755H11.0698H11.0641H11.0584H11.0527H11.0469H11.0432H11.0412H11.0355H11.0297H11.0239H11.0182H11.0124H11.0066H11.0008H10.9949H10.9891H10.9833H10.9774H10.9716H10.9657H10.9599H10.954H10.9481H10.9422H10.9363H10.9304H10.9244H10.9185H10.9125H10.9066H10.9006H10.8947H10.8887H10.8827H10.8767H10.8707H10.8647H10.8586H10.8526H10.8465H10.8405H10.8344H10.8284H10.8223H10.8162H10.8101H10.804H10.7979H10.7918H10.7856H10.7795H10.7733H10.7672H10.761H10.7548H10.7486H10.7425H10.7363H10.73H10.7238H10.7176H10.7114H10.7051H10.6989H10.6926H10.6864H10.6801H10.6738H10.6675H10.6612H10.6549H10.6486H10.6423H10.6359H10.6296H10.6232H10.6169H10.6105H10.6041H10.5978H10.5914H10.585H10.5786H10.5722H10.5658H10.5593H10.5529H10.5464H10.54H10.5335H10.5271H10.5206H10.5141H10.5076H10.5011H10.4946H10.4881H10.4816H10.4751H10.4685H10.462H10.4555H10.4489H10.4423H10.4358H10.4292H10.4226H10.416H10.4094H10.4028H10.3962H10.3896H10.3829H10.3763H10.3697H10.363H10.3564H10.3497H10.343H10.3364H10.3297H10.323H10.3163H10.3096H10.3029H10.2961H10.2894H10.2827H10.276H10.2692H10.2625H10.2557H10.2489H10.2422H10.2354H10.2286H10.2218H10.215H10.2082H10.2014H10.1946H10.1877H10.1809H10.1741H10.1672H10.1604H10.1535H10.1467H10.1398H10.1329H10.126H10.1191H10.1123H10.1054H10.0984H10.0915H10.0846H10.0777H10.0708H10.0638H10.0569H10.0499H10.043H10.036H10.029H10.0221H10.0151H10.0081H10.0011H9.99412H9.98712H9.98012H9.9731H9.96608H9.95906H9.95203H9.94499H9.93795H9.9309H9.92385H9.91679H9.90973H9.90266H9.89559H9.88851H9.88142H9.87433H9.86723H9.86013H9.85303H9.84591H9.8388H9.83167H9.82454H9.81741H9.81027H9.80313H9.79598H9.78883H9.78167H9.7745H9.76733H9.76016H9.75298H9.7458H9.73861H9.73142H9.72422H9.71701H9.7098H9.70259H9.69537H9.68815H9.68092H9.67369H9.66645H9.65921H9.65196H9.64471H9.63746H9.6302H9.62293H9.61566H9.60839H9.60111H9.59383H9.58654H9.57925H9.57195H9.56465H9.55735H9.55004H9.54272H9.5354H9.52808H9.52076H9.51343H9.50609H9.49875H9.49141H9.48406H9.47671H9.46935H9.46199H9.45463H9.44726H9.43989H9.43252H9.42514H9.41775H9.41037H9.40297H9.39558H9.38818H9.38078H9.37337H9.36596H9.35855H9.35113H9.34371H9.33628H9.32886H9.32142H9.31399H9.30655H9.29911H9.29166H9.28421H9.27676H9.2693H9.26184H9.25438H9.24691H9.23944H9.23197H9.22449H9.21701H9.20952H9.20204H9.19455H9.18706H9.17956H9.17206H9.16456H9.15705H9.14954H9.14203H9.13452H9.127H9.11948H9.11196H9.10443H9.0969H9.08937H9.08183H9.07429H9.06675H9.05921H9.05166H9.04411H9.03656H9.02901H9.02145H9.01389H9.00633H8.99876H8.9912H8.98363H8.97605H8.96848H8.9609H8.95332H8.94574H8.93815H8.93057H8.92298H8.91539H8.90779H8.9002H8.8926H8.885H8.87739H8.86979H8.86218H8.85457H8.84696H8.83934H8.83173H8.82411H8.81649H8.80887H8.80124H8.79362H8.78599H8.77836H8.77073H8.76309H8.75546H8.74782H8.74018H8.73254H8.7249H8.71726H8.70961H8.70196H8.69431H8.68666H8.67901H8.67135H8.6637H8.65604H8.64838H8.64072H8.63306H8.6254C8.29376 36.7238 7.93479 36.6309 7.62862 36.3993C6.95391 35.8889 6.43303 35.2302 6.03693 34.3204C5.87158 33.9406 6.04542 33.4987 6.4252 33.3333C6.80498 33.168 7.24689 33.3418 7.41224 33.7216C7.71359 34.4138 8.07996 34.8599 8.53354 35.203C8.53904 35.2072 8.56624 35.2238 8.6254 35.2238H8.63306H8.64072H8.64838H8.65604H8.6637H8.67135H8.67901H8.68666H8.69431H8.70196H8.70961H8.71726H8.7249H8.73254H8.74018H8.74782H8.75546H8.76309H8.77073H8.77836H8.78599H8.79362H8.80124H8.80887H8.81649H8.82411H8.83173H8.83934H8.84696H8.85457H8.86218H8.86979H8.87739H8.885H8.8926H8.9002H8.90779H8.91539H8.92298H8.93057H8.93815H8.94574H8.95332H8.9609H8.96848H8.97605H8.98363H8.9912H8.99876H9.00633H9.01389H9.02145H9.02901H9.03656H9.04411H9.05166H9.05921H9.06675H9.07429H9.08183H9.08937H9.0969H9.10443H9.11196H9.11948H9.127H9.13452H9.14203H9.14954H9.15705H9.16456H9.17206H9.17956H9.18706H9.19455H9.20204H9.20952H9.21701H9.22449H9.23197H9.23944H9.24691H9.25438H9.26184H9.2693H9.27676H9.28421H9.29166H9.29911H9.30655H9.31399H9.32142H9.32886H9.33628H9.34371H9.35113H9.35855H9.36596H9.37337H9.38078H9.38818H9.39558H9.40297H9.41037H9.41775H9.42514H9.43252H9.43989H9.44726H9.45463H9.46199H9.46935H9.47671H9.48406H9.49141H9.49875H9.50609H9.51343H9.52076H9.52808H9.5354H9.54272H9.55004H9.55735H9.56465H9.57195H9.57925H9.58654H9.59383H9.60111H9.60839H9.61566H9.62293H9.6302H9.63746H9.64471H9.65196H9.65921H9.66645H9.67369H9.68092H9.68815H9.69537H9.70259H9.7098H9.71701H9.72422H9.73142H9.73861H9.7458H9.75298H9.76016H9.76733H9.7745H9.78167H9.78883H9.79598H9.80313H9.81027H9.81741H9.82454H9.83167H9.8388H9.84591H9.85303H9.86013H9.86723H9.87433H9.88142H9.88851H9.89559H9.90266H9.90973H9.91679H9.92385H9.9309H9.93795H9.94499H9.95203H9.95906H9.96608H9.9731H9.98012H9.98712H9.99412H10.0011H10.0081H10.0151H10.0221H10.029H10.036H10.043H10.0499H10.0569H10.0638H10.0708H10.0777H10.0846H10.0915H10.0984H10.1054H10.1123H10.1191H10.126H10.1329H10.1398H10.1467H10.1535H10.1604H10.1672H10.1741H10.1809H10.1877H10.1946H10.2014H10.2082H10.215H10.2218H10.2286H10.2354H10.2422H10.2489H10.2557H10.2625H10.2692H10.276H10.2827H10.2894H10.2961H10.3029H10.3096H10.3163H10.323H10.3297H10.3364H10.343H10.3497H10.3564H10.363H10.3697H10.3763H10.3829H10.3896H10.3962H10.4028H10.4094H10.416H10.4226H10.4292H10.4358H10.4423H10.4489H10.4555H10.462H10.4685H10.4751H10.4816H10.4881H10.4946H10.5011H10.5076H10.5141H10.5206H10.5271H10.5335H10.54H10.5464H10.5529H10.5593H10.5658H10.5722H10.5786H10.585H10.5914H10.5978H10.6041H10.6105H10.6169H10.6232H10.6296H10.6359H10.6423H10.6486H10.6549H10.6612H10.6675H10.6738H10.6801H10.6864H10.6926H10.6989H10.7051H10.7114H10.7176H10.7238H10.73H10.7363H10.7425H10.7486H10.7548H10.761H10.7672H10.7733H10.7795H10.7856H10.7918H10.7979H10.804H10.8101H10.8162H10.8223H10.8284H10.8344H10.8405H10.8465H10.8526H10.8586H10.8647H10.8707H10.8767H10.8827H10.8887H10.8947H10.9006H10.9066H10.9125H10.9185H10.9244H10.9304H10.9363H10.9422H10.9481H10.954H10.9599H10.9657H10.9716H10.9774H10.9833H10.9891H10.9949H11.0008H11.0066H11.0124H11.0182H11.0239H11.0297H11.0355H11.0412H11.0469H11.0492L11.0658 31.0256V31.0241V20.3546C10.8948 20.3536 10.7107 20.3464 10.517 20.3389C9.75574 20.3094 8.84676 20.2741 8.00562 20.5791C7.50852 20.7593 7.07839 21.0516 6.76365 21.5309C6.44471 22.0166 6.20166 22.7595 6.20166 23.9124C6.20166 26.0388 6.24719 28.6371 6.63284 30.8996C6.70244 31.3079 6.42785 31.6954 6.01952 31.765C5.6112 31.8346 5.22377 31.56 5.15416 31.1517C4.74502 28.7514 4.70166 26.0395 4.70166 23.9124C4.70166 22.5525 4.98899 21.5006 5.50982 20.7075C6.03485 19.908 6.75387 19.4374 7.49432 19.1689C8.65181 18.7492 9.97508 18.8085 10.721 18.8418C10.8564 18.8479 10.9729 18.8531 11.0658 18.8545V10.113C11.0658 8.59425 12.297 7.36304 13.8158 7.36304H16.9075H19.4533C19.8675 7.36304 20.2033 7.69882 20.2033 8.11304C20.2033 8.52725 19.8675 8.86304 19.4533 8.86304H16.9075H13.8158ZM12.5857 35.2238H31.4126V31.7756H27.0811H19.4539C19.0397 31.7756 18.7039 31.4398 18.7039 31.0256C18.7039 30.6114 19.0397 30.2756 19.4539 30.2756H27.0811H31.4126V27.6983C23.3604 24.4387 16.4334 26.4718 12.5764 27.7447L12.5796 30.2756H16.9081C17.3223 30.2756 17.6581 30.6114 17.6581 31.0256C17.6581 31.4398 17.3223 31.7756 16.9081 31.7756H12.5814L12.5857 35.2238ZM21.2492 8.11304C21.2492 7.69882 21.5849 7.36304 21.9992 7.36304H30.1825C31.7013 7.36304 32.9325 8.59425 32.9325 10.113V13.8412C32.9325 14.2554 32.5968 14.5912 32.1825 14.5912C31.7683 14.5912 31.4325 14.2554 31.4325 13.8412V10.113C31.4325 9.42268 30.8729 8.86304 30.1825 8.86304H21.9992C21.5849 8.86304 21.2492 8.52725 21.2492 8.11304Z" fill="#252323"/>
</g>
<defs>
<clipPath id="clip0_666_8856">
<rect width="44" height="44" fill="white"/>
</clipPath>
</defs>
</svg>
