<svg width="28" height="28" viewBox="0 0 28 28" fill="none" xmlns="http://www.w3.org/2000/svg">
<g clip-path="url(#clip0_666_8781)">
<path fill-rule="evenodd" clip-rule="evenodd" d="M7.58333 22.75L5.25 23.0417C4.86111 22.5555 4.08333 21.525 4.08333 21.2917C4.08333 21.1944 4.01852 20.9028 3.9321 20.5139C3.75926 19.7361 3.5 18.5694 3.5 17.7917V14.2917C3.69444 13.5139 4.725 12.075 7.29167 12.5417L7.58333 8.16667V5.83333L8.16667 5.25H10.0801H19.5417L20.4167 5.97292V8.75V12.25H22.1667L23.625 12.5417L24.5 14V16.9167V19.5417C24.3056 20.125 23.8583 21.35 23.625 21.5833C23.3917 21.8167 22.75 22.6528 22.4583 23.0417H20.4167L7.58333 22.75ZM20.4167 19.7501V22.4583H7.58333V19.7501H20.4167Z" fill="#E05149"/>
<path fill-rule="evenodd" clip-rule="evenodd" d="M9.51906 5.91284C8.82871 5.91284 8.26906 6.47249 8.26906 7.16284V12.8784C8.26967 12.8938 8.26998 12.9093 8.27 12.9249L8.27418 16.2787C10.782 15.4944 14.9285 14.524 19.7171 16.2111V12.7895C19.7171 12.7298 19.7214 12.6711 19.7298 12.6138V12.4532V10.6306C19.7298 10.2164 20.0656 9.88062 20.4798 9.88062C20.894 9.88062 21.2298 10.2164 21.2298 10.6306V11.5705C21.7213 11.5487 22.5912 11.5264 23.3497 11.7983C23.8702 11.985 24.3868 12.3168 24.7645 12.8858C25.1384 13.4489 25.3327 14.1785 25.3327 15.087C25.3327 16.4474 25.3051 18.2029 25.0361 19.7635C24.9657 20.1717 24.5778 20.4456 24.1696 20.3752C23.7614 20.3049 23.4875 19.9169 23.5579 19.5087C23.8029 18.0874 23.8327 16.4468 23.8327 15.087C23.8327 14.3885 23.684 13.9702 23.5149 13.7155C23.3496 13.4666 23.1231 13.3106 22.8434 13.2103C22.3516 13.034 21.8308 13.0534 21.3453 13.0715L21.2298 13.0757V17.2849C21.2305 17.3041 21.2305 17.3234 21.2298 17.3427V17.8949L21.2298 17.8968L21.2254 19.6591C21.2285 19.6868 21.2301 19.715 21.2301 19.7436V22.1424H21.2313H21.2352H21.2391H21.243H21.2469H21.2508H21.2548H21.2587H21.2626H21.2665H21.2705H21.2744H21.2783H21.2823H21.2862H21.2902H21.2941H21.2981H21.3021H21.306H21.31H21.314H21.318H21.322H21.326H21.33H21.334H21.338H21.342H21.346H21.35H21.3541H21.3581H21.3621H21.3662H21.3702H21.3743H21.3783H21.3824H21.3864H21.3905H21.3946H21.3986H21.4027H21.4068H21.4109H21.415H21.4191H21.4232H21.4273H21.4314H21.4355H21.4396H21.4437H21.4479H21.452H21.4561H21.4603H21.4644H21.4685H21.4727H21.4768H21.481H21.4852H21.4893H21.4935H21.4977H21.5018H21.506H21.5102H21.5144H21.5186H21.5228H21.527H21.5312H21.5354H21.5396H21.5438H21.548H21.5523H21.5565H21.5607H21.5649H21.5692H21.5734H21.5777H21.5819H21.5862H21.5904H21.5947H21.5989H21.6032H21.6075H21.6118H21.616H21.6203H21.6246H21.6289H21.6332H21.6375H21.6418H21.6461H21.6504H21.6547H21.659H21.6633H21.6676H21.672H21.6763H21.6806H21.685H21.6893H21.6936H21.698H21.7023H21.7067H21.711H21.7154H21.7197H21.7241H21.7285H21.7328H21.7372H21.7416H21.746H21.7504H21.7547H21.7591H21.7635H21.7679H21.7723H21.7767H21.7811H21.7855H21.7899H21.7944H21.7988H21.8032H21.8076H21.812H21.8165H21.8209H21.8253H21.8298H21.8342H21.8387H21.8431H21.8476H21.852H21.8565H21.8609H21.8654H21.8698H21.8743H21.8788H21.8833H21.8877H21.8922H21.8967H21.9012H21.9057H21.9102H21.9146H21.9191H21.9236H21.9281H21.9326H21.9371H21.9417H21.9462H21.9507H21.9552H21.9597H21.9642H21.9688H21.9733H21.9778H21.9823H21.9869H21.9914H21.996H22.0005H22.005H22.0096H22.0141H22.0187H22.0232H22.0278H22.0324H22.0369H22.0415H22.0461H22.0506H22.0552H22.0598H22.0643H22.0689H22.0735H22.0781H22.0827H22.0873H22.0918H22.0964H22.101H22.1056H22.1102H22.1148H22.1194H22.124H22.1286H22.1332H22.1379H22.1425H22.1471H22.1517H22.1563H22.1609H22.1656H22.1702H22.1748H22.1794H22.1841H22.1887H22.1933H22.198H22.2026H22.2073H22.2119H22.2165H22.2212H22.2258H22.2305H22.2351H22.2398H22.2445H22.2491H22.2538H22.2584H22.2631H22.2678H22.2724H22.2771H22.2818H22.2864H22.2911H22.2958H22.3005H22.3051H22.3098H22.3145H22.3192H22.3239H22.3286H22.3333H22.3379H22.3426H22.3473H22.352H22.3567H22.3614H22.3661H22.3708H22.3755H22.3802H22.3849H22.3896H22.3943H22.399H22.4038H22.4085H22.4132H22.4179H22.4226H22.4273C22.4529 22.1424 22.4701 22.1395 22.4794 22.1373C22.6944 21.9447 22.8956 21.6529 23.0731 21.2496C23.24 20.8705 23.6826 20.6984 24.0618 20.8653C24.4409 21.0322 24.6129 21.4748 24.446 21.8539C24.2087 22.393 23.8904 22.8959 23.4542 23.2776C23.1331 23.5585 22.7438 23.6424 22.4273 23.6424H22.4226H22.4179H22.4132H22.4085H22.4038H22.399H22.3943H22.3896H22.3849H22.3802H22.3755H22.3708H22.3661H22.3614H22.3567H22.352H22.3473H22.3426H22.3379H22.3333H22.3286H22.3239H22.3192H22.3145H22.3098H22.3051H22.3005H22.2958H22.2911H22.2864H22.2818H22.2771H22.2724H22.2678H22.2631H22.2584H22.2538H22.2491H22.2445H22.2398H22.2351H22.2305H22.2258H22.2212H22.2165H22.2119H22.2073H22.2026H22.198H22.1933H22.1887H22.1841H22.1794H22.1748H22.1702H22.1656H22.1609H22.1563H22.1517H22.1471H22.1425H22.1379H22.1332H22.1286H22.124H22.1194H22.1148H22.1102H22.1056H22.101H22.0964H22.0918H22.0873H22.0827H22.0781H22.0735H22.0689H22.0643H22.0598H22.0552H22.0506H22.0461H22.0415H22.0369H22.0324H22.0278H22.0232H22.0187H22.0141H22.0096H22.005H22.0005H21.996H21.9914H21.9869H21.9823H21.9778H21.9733H21.9688H21.9642H21.9597H21.9552H21.9507H21.9462H21.9417H21.9371H21.9326H21.9281H21.9236H21.9191H21.9146H21.9102H21.9057H21.9012H21.8967H21.8922H21.8877H21.8833H21.8788H21.8743H21.8698H21.8654H21.8609H21.8565H21.852H21.8476H21.8431H21.8387H21.8342H21.8298H21.8253H21.8209H21.8165H21.812H21.8076H21.8032H21.7988H21.7944H21.7899H21.7855H21.7811H21.7767H21.7723H21.7679H21.7635H21.7591H21.7547H21.7504H21.746H21.7416H21.7372H21.7328H21.7285H21.7241H21.7197H21.7154H21.711H21.7067H21.7023H21.698H21.6936H21.6893H21.685H21.6806H21.6763H21.672H21.6676H21.6633H21.659H21.6547H21.6504H21.6461H21.6418H21.6375H21.6332H21.6289H21.6246H21.6203H21.616H21.6118H21.6075H21.6032H21.5989H21.5947H21.5904H21.5862H21.5819H21.5777H21.5734H21.5692H21.5649H21.5607H21.5565H21.5523H21.548H21.5438H21.5396H21.5354H21.5312H21.527H21.5228H21.5186H21.5144H21.5102H21.506H21.5018H21.4977H21.4935H21.4893H21.4852H21.481H21.4768H21.4727H21.4685H21.4644H21.4603H21.4561H21.452H21.4479H21.4437H21.4396H21.4355H21.4314H21.4273H21.4232H21.4191H21.415H21.4109H21.4068H21.4027H21.3986H21.3946H21.3905H21.3864H21.3824H21.3783H21.3743H21.3702H21.3662H21.3621H21.3581H21.3541H21.35H21.346H21.342H21.338H21.334H21.33H21.326H21.322H21.318H21.314H21.31H21.306H21.3021H21.2981H21.2941H21.2902H21.2862H21.2823H21.2783H21.2744H21.2705H21.2665H21.2626H21.2587H21.2548H21.2508H21.2469H21.243H21.2391H21.2352H21.2313H21.2275H21.2236H21.2197H21.2158L21.2155 23.6424L21.212 23.6424H21.2081H21.2043H21.2004H21.1966H21.1927H21.1889H21.185H21.1812H21.1774H21.1736H21.1698H21.166H21.1622H21.1584H21.1546H21.1508H21.147H21.1432H21.1395H21.1357H21.1319H21.1282H21.1244H21.1207H21.1169H21.1132H21.1095H21.1057H21.102H21.0983H21.0946H21.0909H21.0872H21.0835H21.0798H21.0761H21.0724H21.0688H21.0651H21.0614H21.0578H21.0541H21.0505H21.0468H21.0432H21.0396H21.036H21.0323H21.0287H21.0251H21.0215H21.0179H21.0143H21.0107H21.0072H21.0036H21H20.9964H20.9929H20.9893H20.9858H20.9822H20.9787H20.9752H20.9716H20.9681H20.9646H20.9611H20.9576H20.9541H20.9506H20.9471H20.9436H20.9402H20.9367H20.9332H20.9298H20.9263H20.9229H20.9194H20.916H20.9126H20.9092H20.9057H20.9023H20.8989H20.8955H20.8921H20.8888H20.8854H20.882H20.8786H20.8753H20.8719H20.8686H20.8652H20.8619H20.8585H20.8552H20.8519H20.8486H20.8453H20.842H20.8387H20.8354H20.8321H20.8288H20.8256H20.8223H20.819H20.8158H20.8125H20.8093H20.8061H20.8028H20.7996H20.7964H20.7932H20.79H20.7868H20.7836H20.7804H20.7772H20.7741H20.7709H20.7677H20.7646H20.7614H20.7583H20.7552H20.7521H20.7489H20.7458H20.7427H20.7396H20.7365H20.7334H20.7304H20.7273H20.7242H20.7212H20.7181H20.7151H20.712H20.709H20.706H20.7029H20.6999H20.6969H20.6939H20.6909H20.6879H20.685H20.682H20.679H20.6761H20.6731H20.6702H20.6672H20.6643H20.6614H20.6584H20.6555H20.6526H20.6497H20.6468H20.6439H20.6411H20.6382H20.6353H20.6325H20.6296H20.6268H20.6239H20.6211H20.6183H20.6155H20.6127H20.6099H20.6071H20.6043H20.6015H20.5987H20.596H20.5932H20.5905H20.5877H20.585H20.5823H20.5795H20.5768H20.5741H20.5714H20.5687H20.566H20.5634H20.5607H20.558H20.5554H20.5527H20.5501H20.5474H20.5448H20.5422H20.5396H20.537H20.5344H20.5318H20.5292H20.5266H20.5241H20.5215H20.519H20.5164H20.5139H20.5113H20.5088H20.5063H20.5038H20.5013H20.4988H20.4963H20.4939H20.4914H20.4889H20.4865H20.484H20.4816L20.4801 23.6424L20.4792 23.6424H20.4767H20.4743H20.4719H20.4695L20.4673 23.6424L20.4671 23.6424H19.7171L8.28336 23.6424H7.53342H7.53243H7.53131H7.53008H7.52773H7.52536H7.52299H7.52061H7.51823H7.51583H7.51343H7.51102H7.50861H7.50659H7.50618H7.50375H7.50131H7.49886H7.4964H7.49394H7.49147H7.48899H7.48651H7.48401H7.48151H7.479H7.47648H7.47396H7.47143H7.46889H7.46634H7.46379H7.46123H7.45866H7.45608H7.4535H7.45091H7.44831H7.4457H7.44309H7.44047H7.43784H7.43521H7.43256H7.42991H7.42725H7.42459H7.42192H7.41924H7.41655H7.41386H7.41116H7.40845H7.40573H7.40301H7.40028H7.39754H7.3948H7.39205H7.38929H7.38652H7.38375H7.38097H7.37819H7.37539H7.37259H7.36978H7.36697H7.36415H7.36132H7.35848H7.35564H7.35279H7.34993H7.34707H7.3442H7.34132H7.33844H7.33554H7.33265H7.32974H7.32683H7.32391H7.32098H7.31805H7.31511H7.31217H7.30922H7.30626H7.30329H7.30032H7.29734H7.29435H7.29136H7.28836H7.28535H7.28234H7.27932H7.2763H7.27326H7.27022H7.26718H7.26413H7.26107H7.258H7.25493H7.25185H7.24877H7.24567H7.24258H7.23947H7.23636H7.23324H7.23012H7.22699H7.22385H7.22071H7.21756H7.21441H7.21125H7.20808H7.2049H7.20172H7.19853H7.19534H7.19214H7.18894H7.18572H7.18251H7.17928H7.17605H7.17281H7.16957H7.16632H7.16307H7.1598H7.15654H7.15326H7.14998H7.1467H7.14341H7.14011H7.1368H7.13349H7.13018H7.12686H7.12353H7.12019H7.11685H7.11351H7.11016H7.1068H7.10344H7.10007H7.09669H7.09331H7.08992H7.08653H7.08313H7.07973H7.07632H7.0729H7.06948H7.06605H7.06262H7.05918H7.05573H7.05228H7.04883H7.04536H7.0419H7.03842H7.03494H7.03146H7.02797H7.02447H7.02097H7.01747H7.01395H7.01044H7.00691H7.00338H6.99985H6.99631H6.99276H6.98921H6.98566H6.98209H6.97853H6.97495H6.97137H6.96779H6.9642H6.96061H6.95701H6.9534H6.94979H6.94618H6.94256H6.93893H6.9353H6.93166H6.92802H6.92437H6.92072H6.91706H6.9134H6.90973H6.90606H6.90238H6.8987H6.89501H6.89131H6.88761H6.88391H6.8802H6.87649H6.87277H6.86904H6.86531H6.86158H6.85784H6.8541H6.85035H6.84659H6.84283H6.83907H6.8353H6.83153H6.82775H6.82397H6.82018H6.81638H6.81258H6.80878H6.80497H6.80116H6.79734H6.79352H6.78969H6.78586H6.78203H6.77818H6.77434H6.77049H6.76663H6.76277H6.75891H6.75504H6.75361H6.75117H6.74729H6.7434H6.73952H6.73562H6.73173H6.72783H6.72392H6.72001H6.71609H6.71217H6.70825H6.70432H6.70039H6.69645H6.69251H6.68856H6.68461H6.68066H6.6767H6.67273H6.66877H6.66479H6.66082H6.65684H6.65285H6.64886H6.64487H6.64087H6.63687H6.63286H6.62885H6.62483H6.62081H6.61679H6.61276H6.60873H6.60469H6.60065H6.59661H6.59256H6.58851H6.58445H6.58039H6.57633H6.57226H6.56819H6.56411H6.56003H6.55594H6.55185H6.54776H6.54366H6.53956H6.53546H6.53135H6.52724H6.52312H6.519H6.51488H6.51075H6.50662H6.50248H6.49834H6.4942H6.49005H6.4859H6.48175H6.47759H6.47343H6.46926H6.46509H6.46092H6.45674H6.45256H6.44838H6.44419H6.44H6.43581H6.43161H6.42741H6.4232H6.41899H6.41478H6.41056H6.40634H6.40212H6.39789H6.39366H6.38943H6.38519H6.38095H6.37671H6.37246H6.36821H6.36396H6.3597H6.35544H6.35117H6.34691H6.34264H6.33836H6.33408H6.3298H6.32552H6.32123H6.31694H6.31265H6.30835H6.30405H6.29975H6.29544H6.29113H6.28682H6.2825H6.27818H6.27386H6.26954H6.26521H6.26088H6.25654H6.2522H6.24786H6.24352H6.23917H6.23482H6.23047H6.22611H6.22176H6.21739H6.21303H6.20866H6.20429H6.19992H6.19554H6.19116H6.18678H6.1824H6.17801H6.17362H6.16923H6.16483H6.16043H6.15603H6.15163H6.14722H6.14281H6.1384H6.13399H6.12957H6.12515H6.12073H6.1163H6.11187H6.10744H6.10301H6.09857H6.09413H6.08969H6.08525H6.0808H6.07635H6.0719H6.06745H6.06299H6.05854H6.05407H6.04961H6.04514H6.04068H6.03621H6.03173H6.02726H6.02278H6.0183H6.01382H6.00933H6.00484H6.00036H5.99586H5.99137H5.98687H5.98237H5.97787H5.97337H5.96887H5.96436H5.95985H5.95534H5.95082H5.94631H5.94179H5.93727H5.93275H5.92822H5.9237H5.91917H5.91464H5.9101H5.90557H5.90103H5.89649H5.89195H5.88741H5.88287H5.87832H5.87377H5.86922H5.86467H5.86011H5.85556H5.851H5.84644H5.84188H5.83732H5.83275H5.82818H5.82361H5.81904H5.81447H5.8099H5.80532H5.80074H5.79616H5.79158H5.787H5.78242H5.77783H5.77324H5.76865H5.76406H5.75947H5.75488H5.75028H5.74568H5.74109H5.73649H5.73188H5.72728H5.72268H5.71807H5.71346H5.70885H5.70424H5.69963H5.69502H5.6904H5.68578H5.68117H5.67655H5.67193H5.66731H5.66268H5.65806H5.65343H5.64881H5.64418H5.63955H5.63492H5.63029H5.62565H5.62102H5.61638H5.61175H5.60711H5.60247H5.59783C5.27391 23.6424 4.89708 23.5545 4.58073 23.2945C4.16168 22.9501 3.83822 22.5155 3.59162 21.9491C3.42628 21.5693 3.60011 21.1274 3.97989 20.9621C4.35968 20.7967 4.80159 20.9706 4.96693 21.3503C5.12739 21.7189 5.31274 21.9536 5.52947 22.1326L5.53503 22.1346C5.54613 22.1381 5.56707 22.1424 5.59783 22.1424H5.60247H5.60711H5.61175H5.61638H5.62102H5.62565H5.63029H5.63492H5.63955H5.64418H5.64881H5.65343H5.65806H5.66268H5.66731H5.67193H5.67655H5.68117H5.68578H5.6904H5.69502H5.69963H5.70424H5.70885H5.71346H5.71807H5.72268H5.72728H5.73188H5.73649H5.74109H5.74568H5.75028H5.75488H5.75947H5.76406H5.76865H5.77324H5.77783H5.78242H5.787H5.79158H5.79616H5.80074H5.80532H5.8099H5.81447H5.81904H5.82361H5.82818H5.83275H5.83732H5.84188H5.84644H5.851H5.85556H5.86011H5.86467H5.86922H5.87377H5.87832H5.88287H5.88741H5.89195H5.89649H5.90103H5.90557H5.9101H5.91464H5.91917H5.9237H5.92822H5.93275H5.93727H5.94179H5.94631H5.95082H5.95534H5.95985H5.96436H5.96887H5.97337H5.97787H5.98237H5.98687H5.99137H5.99586H6.00036H6.00484H6.00933H6.01382H6.0183H6.02278H6.02726H6.03173H6.03621H6.04068H6.04514H6.04961H6.05407H6.05854H6.06299H6.06745H6.0719H6.07635H6.0808H6.08525H6.08969H6.09413H6.09857H6.10301H6.10744H6.11187H6.1163H6.12073H6.12515H6.12957H6.13399H6.1384H6.14281H6.14722H6.15163H6.15603H6.16043H6.16483H6.16923H6.17362H6.17801H6.1824H6.18678H6.19116H6.19554H6.19992H6.20429H6.20866H6.21303H6.21739H6.22176H6.22611H6.23047H6.23482H6.23917H6.24352H6.24786H6.2522H6.25654H6.26088H6.26521H6.26954H6.27386H6.27818H6.2825H6.28682H6.29113H6.29544H6.29975H6.30405H6.30835H6.31265H6.31694H6.32123H6.32552H6.3298H6.33408H6.33836H6.34264H6.34691H6.35117H6.35544H6.3597H6.36396H6.36821H6.37246H6.37671H6.38095H6.38519H6.38943H6.39366H6.39789H6.40212H6.40634H6.41056H6.41478H6.41899H6.4232H6.42741H6.43161H6.43581H6.44H6.44419H6.44838H6.45256H6.45674H6.46092H6.46509H6.46926H6.47343H6.47759H6.48175H6.4859H6.49005H6.4942H6.49834H6.50248H6.50662H6.51075H6.51488H6.519H6.52312H6.52724H6.53135H6.53546H6.53956H6.54366H6.54776H6.55185H6.55594H6.56003H6.56411H6.56819H6.57226H6.57633H6.58039H6.58445H6.58851H6.59256H6.59661H6.60065H6.60469H6.60873H6.61276H6.61679H6.62081H6.62483H6.62885H6.63286H6.63687H6.64087H6.64487H6.64886H6.65285H6.65684H6.66082H6.66479H6.66877H6.67273H6.6767H6.68066H6.68461H6.68856H6.69251H6.69645H6.70039H6.70432H6.70825H6.71217H6.71609H6.72001H6.72392H6.72783H6.73173H6.73562H6.73952H6.7434H6.74729H6.75117H6.75504H6.75891H6.75956L6.76906 19.7436V19.7421V13.2194L6.65228 13.2152C6.17517 13.1972 5.66761 13.1781 5.18745 13.3522C4.91536 13.4508 4.69416 13.6044 4.53211 13.8512C4.36585 14.1043 4.21924 14.521 4.21924 15.217C4.21924 16.5701 4.2486 18.2029 4.48975 19.6176C4.55935 20.0259 4.28476 20.4133 3.87643 20.4829C3.46811 20.5525 3.08067 20.2779 3.01107 19.8696C2.74644 18.3171 2.71924 16.5707 2.71924 15.217C2.71924 14.314 2.91014 13.5884 3.27828 13.0278C3.65062 12.4608 4.1607 12.1289 4.67615 11.942C5.4253 11.6704 6.28525 11.6924 6.76906 11.7141V7.16284C6.76906 5.64406 8.00028 4.41284 9.51906 4.41284H10.7592H12.3793C12.7936 4.41284 13.1293 4.74863 13.1293 5.16284C13.1293 5.57706 12.7936 5.91284 12.3793 5.91284H10.7592H9.51906ZM8.28149 22.1424H19.7171V20.4936H17.2334H12.9399C12.5257 20.4936 12.1899 20.1578 12.1899 19.7436C12.1899 19.3294 12.5257 18.9936 12.9399 18.9936H17.2334H19.7171V17.8112C14.8858 15.9207 10.7198 17.0569 8.27615 17.8532L8.27757 18.9936H10.7597C11.1739 18.9936 11.5097 19.3294 11.5097 19.7436C11.5097 20.1578 11.1739 20.4936 10.7597 20.4936H8.27944L8.28149 22.1424ZM13.6829 5.16284C13.6829 4.74863 14.0187 4.41284 14.4329 4.41284H18.4798C19.9986 4.41284 21.2298 5.6441 21.2298 7.1629L21.2297 8.46078C21.2297 8.87499 20.8939 9.21077 20.4797 9.21076C20.0655 9.21075 19.7297 8.87496 19.7297 8.46075L19.7298 7.16287C19.7298 6.4725 19.1701 5.91284 18.4798 5.91284H14.4329C14.0187 5.91284 13.6829 5.57706 13.6829 5.16284Z" fill="#332A2A"/>
</g>
<defs>
<clipPath id="clip0_666_8781">
<rect width="28" height="28" fill="white"/>
</clipPath>
</defs>
</svg>
