<svg width="23" height="23" viewBox="0 0 23 23" fill="none" xmlns="http://www.w3.org/2000/svg">
<g clip-path="url(#clip0_666_8656)">
<path d="M2.29395 15.5965V11.6133V8.62171V7.63013C2.29395 6.52556 3.18938 5.63013 4.29395 5.63013H9.19857H11.021H13.8016H16.1032H18.7063C19.8108 5.63013 20.7063 6.52556 20.7063 7.63013V11.6133V14.6049V15.5965C20.7063 16.701 19.8108 17.5965 18.7063 17.5965H11.021H9.19857H6.89703H4.29395C3.18938 17.5965 2.29395 16.701 2.29395 15.5965Z" fill="#E05149"/>
<path fill-rule="evenodd" clip-rule="evenodd" d="M2.9689 7.63032C2.9689 6.89854 3.56212 6.30532 4.29389 6.30532H10.3459V16.9217H9.19852C8.82573 16.9217 8.52352 17.2239 8.52352 17.5967C8.52352 17.9695 8.82573 18.2717 9.19852 18.2717H11.5001H18.0059V19.0925C18.0059 19.4653 18.3081 19.7675 18.6809 19.7675C19.0537 19.7675 19.3559 19.4653 19.3559 19.0925V18.1922C20.5193 17.902 21.3812 16.85 21.3812 15.5967V14.6051C21.3812 14.2323 21.079 13.9301 20.7062 13.9301C20.3334 13.9301 20.0312 14.2323 20.0312 14.6051V15.5967C20.0312 16.3284 19.438 16.9217 18.7062 16.9217H18.6809H11.6959V6.30532H13.8016H16.1031H18.7062C19.438 6.30532 20.0312 6.89855 20.0312 7.63032V11.6135C20.0312 11.9863 20.3334 12.2885 20.7062 12.2885C21.079 12.2885 21.3812 11.9863 21.3812 11.6135V7.63032C21.3812 6.15296 20.1836 4.95532 18.7062 4.95532H16.1031H13.8016H11.5001H4.29389C2.81653 4.95532 1.6189 6.15296 1.6189 7.63032V8.62191C1.6189 8.9947 1.9211 9.29691 2.2939 9.29691C2.66669 9.29691 2.9689 8.9947 2.9689 8.62191V7.63032ZM2.9689 11.6135C2.9689 11.2407 2.66669 10.9385 2.2939 10.9385C1.9211 10.9385 1.6189 11.2407 1.6189 11.6135V15.5967C1.6189 16.7136 2.30351 17.6707 3.27602 18.0712V19.0925C3.27602 19.4653 3.57823 19.7675 3.95102 19.7675C4.32381 19.7675 4.62602 19.4653 4.62602 19.0925V18.2717H6.89698C7.26977 18.2717 7.57198 17.9695 7.57198 17.5967C7.57198 17.2239 7.26977 16.9217 6.89698 16.9217H4.2939C3.56212 16.9217 2.9689 16.3284 2.9689 15.5967V11.6135ZM12.2626 11.6135C12.2626 11.2407 12.5648 10.9385 12.9376 10.9385H13.6741C14.0469 10.9385 14.3491 11.2407 14.3491 11.6135C14.3491 11.9863 14.0469 12.2885 13.6741 12.2885H12.9376C12.5648 12.2885 12.2626 11.9863 12.2626 11.6135ZM8.18586 10.9385C7.81307 10.9385 7.51086 11.2407 7.51086 11.6135C7.51086 11.9863 7.81307 12.2885 8.18586 12.2885H8.92235C9.29514 12.2885 9.59735 11.9863 9.59735 11.6135C9.59735 11.2407 9.29514 10.9385 8.92235 10.9385H8.18586Z" fill="#252323"/>
</g>
<defs>
<clipPath id="clip0_666_8656">
<rect width="23" height="23" fill="white"/>
</clipPath>
</defs>
</svg>
