<svg width="28" height="28" viewBox="0 0 28 28" fill="none" xmlns="http://www.w3.org/2000/svg">
<g clip-path="url(#clip0_611_6402)">
<path d="M19.6379 6.44434C20.0244 6.44455 20.3372 6.75806 20.3372 7.14453V20.2695C20.3371 20.656 20.0243 20.9695 19.6379 20.9697H17.0442L18.3567 24.9092C18.4789 25.2759 18.2811 25.6727 17.9143 25.7949C17.5476 25.917 17.1508 25.7182 17.0286 25.3516L15.5676 20.9697H12.6887L11.2278 25.3516C11.1055 25.7183 10.7088 25.9172 10.342 25.7949C9.97532 25.6727 9.77748 25.2759 9.89966 24.9092L11.2122 20.9697H7.97095C7.7293 20.9697 7.51574 20.8475 7.38989 20.6611C7.33952 20.5866 7.30404 20.5014 7.2854 20.4102C7.27611 20.3647 7.27076 20.3177 7.27075 20.2695V18.082C7.27075 17.6954 7.58435 17.3818 7.97095 17.3818C8.35755 17.3818 8.67114 17.6954 8.67114 18.082V19.5693H18.9377V15.1357H13.7913L10.887 15.083C10.5005 15.076 10.1925 14.7566 10.1995 14.3701C10.2067 13.9837 10.5259 13.6756 10.9124 13.6826L13.804 13.7363L18.9377 13.7354V9.30273H18.3645C17.9779 9.30269 17.6643 8.98911 17.6643 8.60254C17.6645 8.2161 17.978 7.90239 18.3645 7.90234H18.9377V7.14453C18.9377 6.75793 19.2513 6.44434 19.6379 6.44434ZM14.6145 16.9766C15.0009 16.9767 15.3146 17.2903 15.3147 17.6768C15.3147 18.0633 15.001 18.3768 14.6145 18.377H12.9944C12.6078 18.377 12.2942 18.0634 12.2942 17.6768C12.2942 17.2902 12.6078 16.9766 12.9944 16.9766H14.6145ZM18.6379 2.06934C19.5766 2.06955 20.3372 2.83078 20.3372 3.76953V4.95703C20.3372 5.34349 20.0244 5.65701 19.6379 5.65723C19.2513 5.65723 18.9378 5.34362 18.9377 4.95703V3.76953C18.9377 3.60398 18.8034 3.46994 18.6379 3.46973H8.97095C8.80526 3.46973 8.67114 3.60385 8.67114 3.76953V7.90234H16.3743C16.7606 7.90258 17.0733 8.21622 17.0735 8.60254C17.0735 8.98899 16.7607 9.3025 16.3743 9.30273H8.67114V13.7354H8.90845C9.29485 13.7354 9.60833 14.0492 9.60864 14.4355C9.60864 14.8221 9.29505 15.1357 8.90845 15.1357H8.67114V15.8945C8.6711 16.2811 8.35752 16.5947 7.97095 16.5947C7.58437 16.5947 7.27079 16.2811 7.27075 15.8945V3.76953C7.27075 2.83065 8.03206 2.06934 8.97095 2.06934H18.6379ZM14.6145 10.9814C15.001 10.9816 15.3147 11.2951 15.3147 11.6816C15.3146 12.0681 15.0009 12.3817 14.6145 12.3818H12.9944C12.6078 12.3818 12.2943 12.0682 12.2942 11.6816C12.2942 11.295 12.6078 10.9814 12.9944 10.9814H14.6145ZM14.6145 4.98633C15.001 4.9865 15.3147 5.30003 15.3147 5.68652C15.3145 6.07286 15.0008 6.38655 14.6145 6.38672H12.9944C12.6079 6.38672 12.2944 6.07297 12.2942 5.68652C12.2942 5.29992 12.6078 4.98633 12.9944 4.98633H14.6145Z" fill="#332A2A"/>
</g>
<defs>
<clipPath id="clip0_611_6402">
<rect width="28" height="28" fill="white"/>
</clipPath>
</defs>
</svg>
