<svg width="28" height="28" viewBox="0 0 28 28" fill="none" xmlns="http://www.w3.org/2000/svg">
<g clip-path="url(#clip0_611_6271)">
<path d="M19.8165 9.71094H19.5973H10.6618H8.14867H7.71316C6.56573 9.71094 5.63554 10.6411 5.63552 11.7885C5.63551 12.3753 5.91766 12.9215 6.1871 13.4431L6.19121 13.451C6.32101 13.7023 6.41665 13.9917 6.41665 14.2917C6.41665 14.7522 6.9214 14.8203 7.4329 14.8545C7.92238 14.8873 8.41471 14.9308 8.90528 14.9308H18.375C21.2916 14.9308 21.5833 14.6806 21.5833 14.2917C21.5833 14.0847 21.6303 13.892 21.7035 13.7187C21.9711 13.0849 22.3896 12.4629 22.3896 11.775C22.3896 10.6351 21.4655 9.71094 20.3255 9.71094H19.8165Z" fill="#E05149"/>
<path d="M8.09863 8.96094C8.48515 8.96104 8.79883 9.27459 8.79883 9.66113C8.79883 10.0477 8.48515 10.3612 8.09863 10.3613C7.09763 10.3616 6.28639 11.1728 6.28613 12.1738V12.4102C6.61621 12.5694 6.84463 12.906 6.84473 13.2969C6.84473 13.785 7.24039 14.1807 7.72852 14.1807H12.0078C12.3943 14.1807 12.7079 14.4944 12.708 14.8809C12.7079 15.2674 12.3944 15.5811 12.0078 15.5811H7.72852C6.86671 15.5811 6.1164 15.1032 5.72754 14.3984V16.1602C5.72754 16.2707 5.81714 16.3604 5.92773 16.3604H16.1963C16.5828 16.3604 16.8963 16.6741 16.8965 17.0605C16.8965 17.4471 16.5829 17.7607 16.1963 17.7607H6.85352L5.80176 18.8125C5.52842 19.0857 5.08486 19.0857 4.81152 18.8125C4.5383 18.5392 4.53832 18.0956 4.81152 17.8223L5.10352 17.5293C4.63919 17.2491 4.32715 16.7419 4.32715 16.1602V13.5703C4.32723 13.1343 4.54872 12.7493 4.88574 12.5234V12.1738C4.886 10.3996 6.32443 8.9612 8.09863 8.96094ZM19.7666 8.96094C19.8232 8.96096 19.878 8.97072 19.9307 8.9834C21.679 9.17425 23.0399 10.654 23.04 12.4531V12.5244C23.3764 12.7498 23.5986 13.1329 23.5986 13.5693V16.1602C23.5986 16.7423 23.286 17.2492 22.8213 17.5293L23.1143 17.8223C23.3875 18.0956 23.3874 18.5392 23.1143 18.8125C22.8409 19.0857 22.3974 19.0857 22.124 18.8125L21.0723 17.7607H18.4307C18.0441 17.7607 17.7305 17.4471 17.7305 17.0605C17.7306 16.6741 18.0442 16.3604 18.4307 16.3604H21.998C22.1088 16.3604 22.1982 16.2706 22.1982 16.1602V14.3984C21.8094 15.1032 21.0591 15.5811 20.1973 15.5811H13.9629C13.5763 15.5811 13.2628 15.2674 13.2627 14.8809C13.2628 14.4944 13.5764 14.1807 13.9629 14.1807H20.1973C20.6854 14.1807 21.0811 13.785 21.0811 13.2969C21.0812 12.907 21.3079 12.5698 21.6367 12.4102C21.6151 11.3466 20.8026 10.4779 19.7617 10.3721L19.5479 10.3613H10.6123C10.2257 10.3613 9.91211 10.0477 9.91211 9.66113C9.91211 9.27453 10.2257 8.96094 10.6123 8.96094H19.7666Z" fill="#332A2A"/>
</g>
<defs>
<clipPath id="clip0_611_6271">
<rect width="28" height="28" fill="white"/>
</clipPath>
</defs>
</svg>
