<svg width="23" height="23" viewBox="0 0 23 23" fill="none" xmlns="http://www.w3.org/2000/svg">
<g clip-path="url(#clip0_666_8752)">
<path d="M2.34375 10.9885C2.71654 10.9885 3.01855 11.2905 3.01855 11.6633V15.6467C3.0188 16.3783 3.61212 16.9709 4.34375 16.9709H6.94727C7.31986 16.9712 7.62207 17.2741 7.62207 17.6467C7.62183 18.0192 7.31971 18.3213 6.94727 18.3215H4.67578V19.1428C4.67537 19.5152 4.37347 19.8176 4.00098 19.8176C3.62844 19.8176 3.32658 19.5153 3.32617 19.1428V18.1194C2.35403 17.7188 1.66913 16.7634 1.66895 15.6467V11.6633C1.66895 11.2905 1.97096 10.9885 2.34375 10.9885ZM18.7559 5.00513C20.2332 5.00513 21.4307 6.20257 21.4307 7.67993V11.6633C21.4305 12.036 21.1286 12.3381 20.7559 12.3381C20.3832 12.338 20.0812 12.0359 20.0811 11.6633V7.67993C20.0811 6.94815 19.4876 6.35474 18.7559 6.35474H11.7451V16.9709H18.7559C19.4875 16.9709 20.0808 16.3783 20.0811 15.6467V14.6545C20.0811 14.2819 20.3832 13.9799 20.7559 13.9797C21.1286 13.9797 21.4306 14.2818 21.4307 14.6545V15.6467C21.4305 16.8996 20.5682 17.948 19.4053 18.2385V19.1428C19.4049 19.5153 19.103 19.8176 18.7305 19.8176C18.358 19.8175 18.0561 19.5152 18.0557 19.1428V18.3215H9.24805C8.87556 18.3214 8.57349 18.0192 8.57324 17.6467C8.57324 17.274 8.8754 16.9711 9.24805 16.9709H10.3955V6.35474H4.34375C3.61197 6.35474 3.01855 6.94815 3.01855 7.67993V8.67114C3.01855 9.04393 2.71654 9.34692 2.34375 9.34692C1.97096 9.34692 1.66895 9.04393 1.66895 8.67114V7.67993C1.66895 6.20257 2.86639 5.00513 4.34375 5.00513H18.7559ZM8.97168 10.9885C9.34447 10.9885 9.64648 11.2905 9.64648 11.6633C9.64636 12.036 9.3444 12.3381 8.97168 12.3381H8.23535C7.8628 12.3379 7.56067 12.0359 7.56055 11.6633C7.56055 11.2907 7.86272 10.9887 8.23535 10.9885H8.97168ZM13.7236 10.9885C14.0964 10.9885 14.3984 11.2905 14.3984 11.6633C14.3983 12.036 14.0963 12.3381 13.7236 12.3381H12.9873C12.6146 12.3381 12.3126 12.036 12.3125 11.6633C12.3125 11.2906 12.6146 10.9886 12.9873 10.9885H13.7236Z" fill="#332A2A"/>
</g>
<defs>
<clipPath id="clip0_666_8752">
<rect width="23" height="23" fill="white"/>
</clipPath>
</defs>
</svg>
