<svg width="18" height="18" viewBox="0 0 18 18" fill="none" xmlns="http://www.w3.org/2000/svg">
<g clip-path="url(#clip0_611_6404)">
<path d="M12.7812 4.5C13.1264 4.50002 13.4062 4.77984 13.4062 5.125V13.1875C13.4062 13.5326 13.1264 13.8125 12.7812 13.8125H11.3564L12.124 16.1152C12.2329 16.4426 12.0558 16.7962 11.7285 16.9053C11.4011 17.0142 11.0476 16.8371 10.9385 16.5098L10.0391 13.8125H8.43945L7.54004 16.5098C7.43083 16.8371 7.07741 17.0144 6.75 16.9053C6.42289 16.7961 6.24575 16.4425 6.35449 16.1152L7.12207 13.8125H5.28125C4.93609 13.8125 4.65628 13.5326 4.65625 13.1875V11.7812C4.65625 11.4361 4.93607 11.1562 5.28125 11.1562C5.62643 11.1562 5.90625 11.4361 5.90625 11.7812V12.5625H12.1562V10.0625H7.53125C7.18609 10.0625 6.90627 9.78266 6.90625 9.4375C6.90625 9.09232 7.18607 8.8125 7.53125 8.8125H12.1562V6.3125H11.8438C11.4986 6.3125 11.2188 6.03267 11.2188 5.6875C11.2188 5.34232 11.4986 5.0625 11.8438 5.0625H12.1621C12.1936 4.7468 12.4573 4.5 12.7812 4.5ZM9.55273 10.8955C9.89751 10.8959 10.1776 11.1757 10.1777 11.5205C10.1777 11.8655 9.8976 12.1451 9.55273 12.1455H8.51074C8.16556 12.1455 7.88574 11.8657 7.88574 11.5205C7.88589 11.1755 8.16565 10.8955 8.51074 10.8955H9.55273ZM11.7812 1.3125C12.6787 1.31252 13.4062 2.04005 13.4062 2.9375V3.125C13.4062 3.47016 13.1264 3.74998 12.7812 3.75C12.4361 3.75 12.1562 3.47018 12.1562 3.125V2.9375C12.1562 2.73041 11.9883 2.56252 11.7812 2.5625H6.28125C6.07414 2.5625 5.90625 2.73039 5.90625 2.9375V5.0625H10.125C10.4702 5.0625 10.75 5.34232 10.75 5.6875C10.75 6.03267 10.4702 6.3125 10.125 6.3125H5.90625V8.8125H6.125C6.47018 8.8125 6.75 9.09232 6.75 9.4375C6.74998 9.78266 6.47016 10.0625 6.125 10.0625H5.90625V10.375C5.90622 10.7202 5.62641 11 5.28125 11C4.93609 11 4.65628 10.7202 4.65625 10.375V2.9375C4.65625 2.04004 5.38379 1.3125 6.28125 1.3125H11.7812ZM9.55273 7.04199C9.8976 7.04236 10.1777 7.32204 10.1777 7.66699C10.1775 8.01178 9.89748 8.29163 9.55273 8.29199H8.51074C8.16568 8.29199 7.88594 8.01201 7.88574 7.66699C7.88574 7.32181 8.16556 7.04199 8.51074 7.04199H9.55273ZM9.55273 3.1875C9.8976 3.18786 10.1777 3.46755 10.1777 3.8125C10.1777 4.15745 9.8976 4.43714 9.55273 4.4375H8.51074C8.16557 4.4375 7.88575 4.15767 7.88574 3.8125C7.88574 3.46732 8.16556 3.1875 8.51074 3.1875H9.55273Z" fill="#332A2A"/>
</g>
<defs>
<clipPath id="clip0_611_6404">
<rect width="18" height="18" fill="white"/>
</clipPath>
</defs>
</svg>
