<svg width="23" height="23" viewBox="0 0 23 23" fill="none" xmlns="http://www.w3.org/2000/svg">
<g clip-path="url(#clip0_611_6279)">
<path d="M16.2779 7.97681H16.0978H8.75788H6.69354H6.3358C5.39327 7.97681 4.62919 8.74087 4.62917 9.68341C4.62916 10.1654 4.86093 10.614 5.08225 11.0425L5.08563 11.049C5.19225 11.2554 5.27081 11.4932 5.27081 11.7396C5.27081 12.0782 5.60305 12.1592 5.9741 12.1931C6.46264 12.2376 6.95637 12.2666 7.44694 12.2666H15.0937C17.4896 12.2666 17.7291 12.059 17.7291 11.7396C17.7291 11.5695 17.7678 11.4113 17.8279 11.2689C18.0477 10.7483 18.3915 10.2373 18.3915 9.6723C18.3915 8.7359 17.6324 7.97681 16.696 7.97681H16.2779Z" fill="#E05149"/>
<path d="M6.74365 7.35181C7.11628 7.352 7.41846 7.65394 7.41846 8.02661C7.41846 8.39929 7.11628 8.70123 6.74365 8.70142C5.97633 8.70142 5.35402 9.32374 5.354 10.0911V10.2239C5.62804 10.3805 5.81292 10.6758 5.81299 11.0139C5.81324 11.3604 6.09437 11.6418 6.44092 11.6418H9.76123C10.1338 11.6421 10.4359 11.9441 10.436 12.3167C10.4358 12.6891 10.1337 12.9912 9.76123 12.9915H6.44092C5.81479 12.9915 5.25741 12.6994 4.89502 12.2454V13.2053C4.89535 13.3294 4.99641 13.4309 5.12061 13.4309H13.395C13.7678 13.4309 14.0698 13.7329 14.0698 14.1057C14.0694 14.4782 13.7676 14.7805 13.395 14.7805H5.76123L4.92725 15.6145C4.66371 15.8779 4.23576 15.8778 3.97217 15.6145C3.70892 15.351 3.70899 14.9239 3.97217 14.6604L4.17139 14.4602C3.79176 14.1727 3.54561 13.7182 3.54541 13.2053V11.2385C3.54541 10.8655 3.72631 10.535 4.00439 10.3284V10.0911C4.00443 8.57817 5.23076 7.35181 6.74365 7.35181ZM16.3276 7.35181C16.3796 7.35183 16.4304 7.35922 16.479 7.37036C17.9625 7.53521 19.1167 8.79305 19.1167 10.3206V10.3284C19.3941 10.5345 19.5747 10.8642 19.5747 11.2375V13.2053C19.5746 13.7187 19.3277 14.1728 18.9478 14.4602L19.1479 14.6604C19.4112 14.9239 19.4112 15.351 19.1479 15.6145C18.8843 15.8778 18.4564 15.878 18.1929 15.6145L17.3589 14.7805H15.23C14.8575 14.7805 14.5556 14.4781 14.5552 14.1057C14.5552 13.7329 14.8572 13.4309 15.23 13.4309H17.9995C18.1242 13.4309 18.2248 13.329 18.2251 13.2053V12.2454C17.8628 12.6993 17.3061 12.9913 16.6802 12.9915H11.5601C11.1874 12.9914 10.8855 12.6892 10.8853 12.3167C10.8854 11.944 11.1874 11.6419 11.5601 11.6418H16.6802C17.0265 11.6416 17.3069 11.3603 17.3071 11.0139C17.3072 10.6778 17.4899 10.3842 17.7612 10.2268C17.7158 9.43158 17.0986 8.78998 16.313 8.71021L16.1479 8.70142H8.80811C8.43531 8.70142 8.1333 8.3994 8.1333 8.02661C8.1333 7.65382 8.43531 7.35181 8.80811 7.35181H16.3276Z" fill="#332A2A"/>
</g>
<defs>
<clipPath id="clip0_611_6279">
<rect width="23" height="23" fill="white"/>
</clipPath>
</defs>
</svg>
