<svg width="44" height="44" viewBox="0 0 44 44" fill="none" xmlns="http://www.w3.org/2000/svg">
<g clip-path="url(#clip0_611_6116)">
<path fill-rule="evenodd" clip-rule="evenodd" d="M6.21168 16.3062C6.21168 16.1681 6.32361 16.0562 6.46168 16.0562H8.21806C8.63227 16.0562 8.96806 15.7204 8.96806 15.3062C8.96806 14.8919 8.63227 14.5562 8.21806 14.5562H6.46168C5.49518 14.5562 4.71168 15.3397 4.71168 16.3062V19.6413C4.06569 19.8987 3.60913 20.5298 3.60913 21.2676V27.5367C3.60913 28.5032 4.39263 29.2867 5.35913 29.2867L5.46168 29.2867L5.56423 29.2867L5.56608 29.2867H38.4338L38.4356 29.2867L38.5382 29.2867L38.6407 29.2867C39.6072 29.2867 40.3907 28.5032 40.3907 27.5368V21.2676C40.3907 20.5298 39.9342 19.8987 39.2882 19.6413V16.3062C39.2882 15.3397 38.5047 14.5562 37.5382 14.5562H35.7818C35.3676 14.5562 35.0318 14.8919 35.0318 15.3062C35.0318 15.7204 35.3676 16.0562 35.7818 16.0562H37.5382C37.6763 16.0562 37.7882 16.1681 37.7882 16.3062V19.6413C37.1422 19.8987 36.6856 20.5298 36.6856 21.2676V21.7227L28.2627 21.7227L28.2627 16.3062C28.2627 16.1681 28.3746 16.0562 28.5127 16.0562H33.0254C33.4397 16.0562 33.7754 15.7204 33.7754 15.3062C33.7754 14.8919 33.4397 14.5562 33.0254 14.5562H28.5127C28.1409 14.5562 27.7962 14.6721 27.5127 14.8698C27.2292 14.6721 26.8845 14.5562 26.5127 14.5562H23.1025H21.173H20.6217H18.6923H17.4872C17.1154 14.5562 16.7706 14.6721 16.4872 14.8698C16.2037 14.6721 15.859 14.5562 15.4872 14.5562H10.9744C10.5602 14.5562 10.2244 14.8919 10.2244 15.3062C10.2244 15.7204 10.5602 16.0562 10.9744 16.0562H15.4872C15.6252 16.0562 15.7372 16.1681 15.7372 16.3062V21.7227L7.31423 21.7227V21.2676C7.31423 20.5298 6.85768 19.8987 6.21168 19.6413V16.3062ZM38.5382 21.0176L38.4356 21.0176C38.2976 21.0176 38.1856 21.1296 38.1856 21.2676V27.5367C38.1856 27.6745 38.297 27.7862 38.4347 27.7867H38.5382L38.5399 27.7867H38.6407C38.7788 27.7867 38.8907 27.6748 38.8907 27.5368V21.2676C38.8907 21.1296 38.7788 21.0176 38.6407 21.0176L38.5382 21.0176ZM26.7627 16.3062V21.7227L17.2372 21.7227V16.3062C17.2372 16.1681 17.3491 16.0562 17.4872 16.0562H18.6923H20.6217H21.173H23.1025H26.5127C26.6508 16.0562 26.7627 16.1681 26.7627 16.3062ZM5.46168 21.0176L5.35913 21.0176C5.22106 21.0176 5.10913 21.1296 5.10913 21.2676V27.5367C5.10913 27.6748 5.22106 27.7867 5.35913 27.7867H5.45997L5.46168 27.7867H5.56522C5.70284 27.7862 5.81423 27.6745 5.81423 27.5368V21.2676C5.81423 21.1296 5.7023 21.0176 5.56423 21.0176L5.46168 21.0176ZM7.31423 23.2227L36.6856 23.2227V25.0304H23.8333C23.419 25.0304 23.0833 25.3662 23.0833 25.7804C23.0833 26.1946 23.419 26.5304 23.8333 26.5304H36.6856V27.5367C36.6856 27.6216 36.6917 27.7051 36.7034 27.7867H7.29651C7.30819 27.7051 7.31423 27.6216 7.31423 27.5368V26.5304L17.0385 26.5304C17.4527 26.5304 17.7885 26.1946 17.7885 25.7804C17.7885 25.3662 17.4527 25.0304 17.0385 25.0304L7.31423 25.0304V23.2227ZM19.1987 25.0304C18.7845 25.0304 18.4487 25.3662 18.4487 25.7804C18.4487 26.1946 18.7845 26.5304 19.1987 26.5304L21.5416 26.5304C21.9558 26.5304 22.2916 26.1946 22.2916 25.7804C22.2916 25.3662 21.9558 25.0304 21.5416 25.0304L19.1987 25.0304Z" fill="#252323"/>
</g>
<defs>
<clipPath id="clip0_611_6116">
<rect width="44" height="44" fill="white"/>
</clipPath>
</defs>
</svg>
