<svg width="44" height="44" viewBox="0 0 44 44" fill="none" xmlns="http://www.w3.org/2000/svg">
<g clip-path="url(#clip0_372_2198)">
<path d="M13.6042 4.43042H29.9375C30.4898 4.43042 30.9375 4.87814 30.9375 5.43042V7.8679V11.3054V13.7499V18.1803V22.9166V30.9303C30.9375 31.4826 30.4898 31.9303 29.9375 31.9303H13.6042C13.052 31.9303 12.6042 31.4826 12.6042 30.9303V28.4928V25.0553V23.9166C12.6042 23.3643 13.052 22.9166 13.6042 22.9166H30.9375V18.1803V13.7499H13.6042C13.052 13.7499 12.6042 13.3022 12.6042 12.7499V5.43042C12.6042 4.87814 13.052 4.43042 13.6042 4.43042Z" fill="#E05149"/>
<path fill-rule="evenodd" clip-rule="evenodd" d="M11.8542 5.43042C11.8542 4.46392 12.6377 3.68042 13.6042 3.68042H29.9375C30.904 3.68042 31.6875 4.46392 31.6875 5.43042V7.8679C31.6875 8.28211 31.3517 8.6179 30.9375 8.6179C30.5233 8.6179 30.1875 8.28211 30.1875 7.8679V5.43042C30.1875 5.29235 30.0755 5.18042 29.9375 5.18042H13.6042C13.4662 5.18042 13.3542 5.29235 13.3542 5.43042V12.847H21.7709H26.3542C26.7684 12.847 27.1042 13.1828 27.1042 13.597C27.1042 14.0112 26.7684 14.347 26.3542 14.347H21.7709H13.3542V18.1803V22.0136H14.8959C15.3101 22.0136 15.6459 22.3494 15.6459 22.7636C15.6459 23.1779 15.3101 23.5136 14.8959 23.5136H13.3542V25.0553C13.3542 25.4695 13.0185 25.8053 12.6042 25.8053C12.19 25.8053 11.8542 25.4695 11.8542 25.0553V22.7636V18.1803V13.597V5.43042ZM30.9375 10.5554C31.3517 10.5554 31.6875 10.8912 31.6875 11.3054V13.597V18.1803V22.7636V31.9303C31.6875 32.3445 31.3517 32.6803 30.9375 32.6803L30.9358 32.6803H26.3762L28.5935 39.3319C28.7244 39.7249 28.5121 40.1496 28.1191 40.2806C27.7262 40.4116 27.3014 40.1992 27.1704 39.8063L24.7951 32.6803H19.7652L17.3898 39.8063C17.2588 40.1992 16.8341 40.4116 16.4411 40.2806C16.0482 40.1496 15.8358 39.7249 15.9668 39.3319L18.184 32.6803H12.606L12.6042 32.6803C12.19 32.6803 11.8542 32.3445 11.8542 31.9303V28.4928C11.8542 28.0786 12.19 27.7428 12.6042 27.7428C13.0185 27.7428 13.3542 28.0786 13.3542 28.4928V31.1803H19.2071C19.2186 31.18 19.2302 31.18 19.2419 31.1803H25.3184C25.33 31.18 25.3416 31.18 25.3532 31.1803H30.1875V23.5136H21.7709H17.1876C16.7733 23.5136 16.4376 23.1779 16.4376 22.7636C16.4376 22.3494 16.7733 22.0136 17.1876 22.0136H21.7709H30.1875V18.1803V14.347H28.6458C28.2316 14.347 27.8958 14.0112 27.8958 13.597C27.8958 13.1828 28.2316 12.847 28.6458 12.847H30.1875V11.3054C30.1875 10.8912 30.5233 10.5554 30.9375 10.5554ZM20.4977 27.1062C20.0835 27.1062 19.7477 27.442 19.7477 27.8562C19.7477 28.2704 20.0835 28.6062 20.4977 28.6062H23.044C23.4582 28.6062 23.794 28.2704 23.794 27.8562C23.794 27.442 23.4582 27.1062 23.044 27.1062H20.4977ZM19.7477 18.435C19.7477 18.0208 20.0835 17.685 20.4977 17.685H23.044C23.4582 17.685 23.794 18.0208 23.794 18.435C23.794 18.8492 23.4582 19.185 23.044 19.185H20.4977C20.0835 19.185 19.7477 18.8492 19.7477 18.435ZM20.4977 8.26373C20.0835 8.26373 19.7477 8.59951 19.7477 9.01373C19.7477 9.42794 20.0835 9.76373 20.4977 9.76373H23.044C23.4582 9.76373 23.794 9.42794 23.794 9.01373C23.794 8.59951 23.4582 8.26373 23.044 8.26373H20.4977Z" fill="#332A2A"/>
</g>
<defs>
<clipPath id="clip0_372_2198">
<rect width="44" height="44" fill="white"/>
</clipPath>
</defs>
</svg>
