<svg width="23" height="23" viewBox="0 0 23 23" fill="none" xmlns="http://www.w3.org/2000/svg">
<g clip-path="url(#clip0_611_6118)">
<path d="M3.72754 7.16943C4.10033 7.16943 4.40332 7.47145 4.40332 7.84424C4.40332 8.21703 4.10033 8.51904 3.72754 8.51904H3.28711C3.10769 8.51913 2.96191 8.6648 2.96191 8.84424V9.96045C3.28285 10.1662 3.50285 10.5142 3.53418 10.9155H7.375V8.84424C7.375 8.66486 7.23012 8.51923 7.05078 8.51904H5.5498C5.17709 8.51896 4.875 8.21698 4.875 7.84424C4.875 7.4715 5.17709 7.16952 5.5498 7.16943H7.05078C7.42594 7.16951 7.77158 7.29407 8.05078 7.50244C8.32998 7.29408 8.67556 7.16943 9.05078 7.16943H12.8145C13.1896 7.16955 13.5353 7.29401 13.8145 7.50244C14.0935 7.29426 14.4385 7.16953 14.8135 7.16943H18.5771C19.5021 7.16962 20.252 7.91928 20.252 8.84424V9.96045C20.5989 10.1828 20.829 10.5716 20.8291 11.0142V14.1841C20.829 14.8319 20.336 15.3642 19.7051 15.4282L19.5771 15.4351H2.28711L2.15918 15.4282C1.52837 15.3641 1.03626 14.8318 1.03613 14.1841V11.0142C1.03619 10.5719 1.26603 10.1839 1.6123 9.96143V8.84424C1.6123 7.91922 2.36211 7.16952 3.28711 7.16943H3.72754ZM3.53906 12.5171H8.33887C8.71146 12.5173 9.01367 12.8192 9.01367 13.1919C9.01356 13.5645 8.7114 13.8665 8.33887 13.8667H3.53906V14.0854H18.3262V13.8667H10.5312C10.1587 13.8665 9.85656 13.5645 9.85645 13.1919C9.85645 12.8192 10.1586 12.5173 10.5312 12.5171H18.3262V12.2651H3.53906V12.5171ZM9.05078 8.51904C8.87129 8.51904 8.72559 8.66475 8.72559 8.84424V10.9155H13.1387V8.84424C13.1387 8.66492 12.9937 8.51933 12.8145 8.51904H9.05078ZM14.8135 8.51904C14.6365 8.51929 14.4919 8.66121 14.4883 8.8374C14.4883 8.83968 14.4893 8.84196 14.4893 8.84424V10.9155H18.3311C18.3623 10.5149 18.5816 10.1683 18.9014 9.9624V8.84424C18.9014 8.66486 18.7565 8.51923 18.5771 8.51904H14.8135Z" fill="#332A2A"/>
</g>
<defs>
<clipPath id="clip0_611_6118">
<rect width="23" height="23" fill="white"/>
</clipPath>
</defs>
</svg>
