<svg width="23" height="23" viewBox="0 0 23 23" fill="none" xmlns="http://www.w3.org/2000/svg">
<g clip-path="url(#clip0_666_8858)">
<path d="M10.219 3.61597C10.5916 3.61614 10.8938 3.91809 10.8938 4.29077C10.8938 4.66346 10.5916 4.9654 10.219 4.96558H8.22583C7.49427 4.96583 6.90161 5.55915 6.90161 6.29077V10.6667L6.90454 13.3406C8.96236 12.7037 12.3173 11.945 16.1868 13.282V10.5554C16.1868 10.5077 16.1913 10.4608 16.1975 10.4148V8.78198C16.1976 8.40938 16.4997 8.10735 16.8723 8.10718C17.245 8.10718 17.548 8.40928 17.5481 8.78198V9.49194C17.9611 9.47532 18.6479 9.46988 19.2493 9.6853C19.6861 9.84194 20.1221 10.1219 20.4407 10.6013C20.7558 11.0759 20.9171 11.6879 20.9172 12.4421C20.9172 13.5596 20.8949 15.0064 20.6731 16.2937C20.6098 16.6611 20.2602 16.9078 19.8928 16.8445C19.5258 16.7808 19.2797 16.4313 19.343 16.0642C19.5432 14.9023 19.5676 13.5589 19.5676 12.4421C19.5675 11.8771 19.4474 11.5454 19.3167 11.3484C19.1894 11.1569 19.0141 11.0357 18.7942 10.9568C18.3875 10.8111 17.9581 10.8305 17.5481 10.8455V14.7507L17.5442 16.2283C17.5449 16.2412 17.5481 16.2542 17.5481 16.2673V18.1794H18.4192C18.458 18.1794 18.4838 18.1737 18.4963 18.1697C18.5071 18.1662 18.5015 18.1663 18.4905 18.1765C18.6537 18.0253 18.8094 17.7971 18.9485 17.4812C19.0986 17.1403 19.4971 16.9849 19.8381 17.1345C20.1793 17.2847 20.3339 17.684 20.1838 18.0251C19.9962 18.4512 19.7464 18.8527 19.4075 19.1667C19.1006 19.4508 18.7187 19.529 18.4192 19.5291H4.70142C4.3951 19.529 4.0261 19.4473 3.72192 19.1843C3.39474 18.9014 3.14115 18.5493 2.94653 18.1023C2.79813 17.7607 2.95381 17.3635 3.29517 17.2146C3.63688 17.0659 4.03497 17.2226 4.18384 17.5642C4.30663 17.8462 4.44642 18.0269 4.60474 18.1638C4.60694 18.1649 4.61137 18.1665 4.61841 18.1687C4.63518 18.174 4.66293 18.1794 4.70142 18.1794H5.54419L5.55103 16.2673V10.9626C5.14723 10.9478 4.72882 10.9289 4.3313 11.073C4.11742 11.1505 3.94638 11.2697 3.82153 11.4597C3.69297 11.6556 3.5745 11.9863 3.57446 12.5496C3.57447 13.6608 3.59905 14.9975 3.79614 16.1541C3.85877 16.5214 3.61171 16.8706 3.24438 16.9333C2.87689 16.996 2.52773 16.7481 2.46509 16.3806C2.2469 15.1002 2.22486 13.6613 2.22485 12.5496C2.22489 11.7998 2.3833 11.191 2.6936 10.7185C3.0077 10.2404 3.43848 9.96041 3.87134 9.80347C4.46517 9.58829 5.14396 9.59357 5.55103 9.61011V6.29077C5.55103 4.81357 6.74869 3.61622 8.22583 3.61597H10.219ZM16.1868 14.7205C12.2797 13.2059 8.90904 14.1095 6.90649 14.7595L6.90845 15.5925H8.88794C9.26051 15.5926 9.56346 15.8948 9.56372 16.2673C9.56372 16.6401 9.26067 16.9421 8.88794 16.9421H6.90942L6.91138 18.1794H16.1868V16.9421H10.7834C10.4107 16.9421 10.1086 16.6401 10.1086 16.2673C10.1089 15.8948 10.4108 15.5925 10.7834 15.5925H16.1868V14.7205ZM14.8723 3.61597C16.3497 3.61597 17.5471 4.81342 17.5471 6.29077V6.69409C17.5471 7.06688 17.2451 7.3689 16.8723 7.3689C16.4996 7.36876 16.1975 7.06681 16.1975 6.69409V6.29077C16.1975 5.559 15.6041 4.96558 14.8723 4.96558H12.3167C11.9439 4.96558 11.6418 4.66356 11.6418 4.29077C11.6418 3.91798 11.9439 3.61597 12.3167 3.61597H14.8723Z" fill="#332A2A"/>
</g>
<defs>
<clipPath id="clip0_666_8858">
<rect width="23" height="23" fill="white"/>
</clipPath>
</defs>
</svg>
