<svg width="18" height="18" viewBox="0 0 18 18" fill="none" xmlns="http://www.w3.org/2000/svg">
<g clip-path="url(#clip0_666_8831)">
<path fill-rule="evenodd" clip-rule="evenodd" d="M4.875 14.625L3.375 14.8125C3.125 14.5 2.625 13.8375 2.625 13.6875C2.625 13.625 2.58333 13.4375 2.52778 13.1875C2.41667 12.6875 2.25 11.9375 2.25 11.4375V9.18749C2.375 8.68749 3.0375 7.76249 4.6875 8.06249L4.875 5.25V3.75L5.25 3.375H6.48006H12.5625L13.125 3.83973V5.625V7.875H14.25L15.1875 8.06249L15.75 9V10.875V12.5625C15.625 12.9375 15.3375 13.725 15.1875 13.875C15.0375 14.025 14.625 14.5625 14.4375 14.8125H13.125L4.875 14.625ZM13.125 12.6965V14.4375H4.875V12.6965H13.125Z" fill="#E05149"/>
<path fill-rule="evenodd" clip-rule="evenodd" d="M6.83368 3.94385C6.07429 3.94385 5.45868 4.55946 5.45868 5.31885V8.27608C5.45907 8.28686 5.45928 8.29768 5.45929 8.30855L5.46174 10.2714C7.06589 9.78653 9.60711 9.25094 12.5324 10.2215V8.22167C12.5324 8.17997 12.5352 8.13893 12.5406 8.09871V8.00554V8.00551L12.5405 7.00003C12.5405 6.65485 12.8203 6.37502 13.1655 6.375C13.5107 6.37498 13.7905 6.65479 13.7905 6.99997L13.7905 7.28942C14.1224 7.28063 14.6198 7.29265 15.0587 7.45006C15.4163 7.57827 15.776 7.80835 16.0391 8.20458C16.2989 8.59598 16.4282 9.09466 16.4282 9.69866C16.4282 10.5733 16.4106 11.7127 16.2354 12.7292C16.1768 13.0694 15.8535 13.2976 15.5133 13.239C15.1732 13.1804 14.9449 12.8571 15.0036 12.5169C15.1588 11.6165 15.1782 10.5727 15.1782 9.69866C15.1782 9.2696 15.0869 9.03037 14.9977 8.89601C14.9117 8.76648 14.7937 8.68295 14.6368 8.62669C14.3636 8.52872 14.0805 8.53357 13.7906 8.54389V11.108C13.7911 11.1228 13.7911 11.1376 13.7906 11.1525V11.5037L13.7906 11.5053L13.7878 12.6305C13.7898 12.6508 13.7908 12.6714 13.7908 12.6922V14.0914H13.7914H13.7939H13.7963H13.7988H13.8013H13.8038H13.8063H13.8088H13.8113H13.8137H13.8162H13.8187H13.8212H13.8237H13.8262H13.8287H13.8313H13.8338H13.8363H13.8388H13.8413H13.8438H13.8463H13.8489H13.8514H13.8539H13.8565H13.859H13.8615H13.8641H13.8666H13.8691H13.8717H13.8742H13.8768H13.8793H13.8819H13.8844H13.887H13.8895H13.8921H13.8946H13.8972H13.8998H13.9023H13.9049H13.9075H13.91H13.9126H13.9152H13.9178H13.9204H13.9229H13.9255H13.9281H13.9307H13.9333H13.9359H13.9385H13.9411H13.9437H13.9463H13.9489H13.9515H13.9541H13.9567H13.9593H13.9619H13.9645H13.9671H13.9697H13.9723H13.975H13.9776H13.9802H13.9828H13.9855H13.9881H13.9907H13.9933H13.996H13.9986H14.0013H14.0039H14.0065H14.0092H14.0118H14.0145H14.0171H14.0198H14.0224H14.0251H14.0277H14.0304H14.033H14.0357H14.0383H14.041H14.0437H14.0463H14.049H14.0517H14.0543H14.057H14.0597H14.0624H14.065H14.0677H14.0704H14.0731H14.0758H14.0784H14.0811H14.0838H14.0865H14.0892H14.0919H14.0946H14.0973H14.1H14.1027H14.1054H14.1081H14.1108H14.1135H14.1162H14.1189H14.1216H14.1243H14.127H14.1297H14.1324H14.1352H14.1379H14.1406H14.1433H14.146H14.1488H14.1515H14.1542H14.1569H14.1597H14.1624H14.1651H14.1678H14.1706H14.1733H14.1761H14.1788H14.1815H14.1843H14.187H14.1897H14.1925H14.1952H14.198H14.2007H14.2035H14.2062H14.209H14.2117H14.2145H14.2172H14.22H14.2228H14.2255H14.2283H14.231H14.2338H14.2366H14.2393H14.2421H14.2448H14.2476H14.2504H14.2532H14.2559H14.2587H14.2615H14.2642H14.267H14.2698H14.2726H14.2754H14.2781H14.2809H14.2837H14.2865H14.2893H14.292H14.2948H14.2976H14.3004H14.3032H14.306H14.3088H14.3116C14.3565 14.0914 14.3857 14.0853 14.4001 14.0806L14.402 14.0799C14.5056 13.9727 14.6078 13.8167 14.702 13.6028C14.8411 13.2868 15.2099 13.1435 15.5258 13.2825C15.8417 13.4216 15.9851 13.7905 15.846 14.1064C15.7075 14.4211 15.5255 14.7222 15.2813 14.9685C14.9837 15.2689 14.597 15.3414 14.3116 15.3414H14.3088H14.306H14.3032H14.3004H14.2976H14.2948H14.292H14.2893H14.2865H14.2837H14.2809H14.2781H14.2754H14.2726H14.2698H14.267H14.2642H14.2615H14.2587H14.2559H14.2532H14.2504H14.2476H14.2448H14.2421H14.2393H14.2366H14.2338H14.231H14.2283H14.2255H14.2228H14.22H14.2172H14.2145H14.2117H14.209H14.2062H14.2035H14.2007H14.198H14.1952H14.1925H14.1897H14.187H14.1843H14.1815H14.1788H14.1761H14.1733H14.1706H14.1678H14.1651H14.1624H14.1597H14.1569H14.1542H14.1515H14.1488H14.146H14.1433H14.1406H14.1379H14.1352H14.1324H14.1297H14.127H14.1243H14.1216H14.1189H14.1162H14.1135H14.1108H14.1081H14.1054H14.1027H14.1H14.0973H14.0946H14.0919H14.0892H14.0865H14.0838H14.0811H14.0784H14.0758H14.0731H14.0704H14.0677H14.065H14.0624H14.0597H14.057H14.0543H14.0517H14.049H14.0463H14.0437H14.041H14.0383H14.0357H14.033H14.0304H14.0277H14.0251H14.0224H14.0198H14.0171H14.0145H14.0118H14.0092H14.0065H14.0039H14.0013H13.9986H13.996H13.9933H13.9907H13.9881H13.9855H13.9828H13.9802H13.9776H13.975H13.9723H13.9697H13.9671H13.9645H13.9619H13.9593H13.9567H13.9541H13.9515H13.9489H13.9463H13.9437H13.9411H13.9385H13.9359H13.9333H13.9307H13.9281H13.9255H13.9229H13.9204H13.9178H13.9152H13.9126H13.91H13.9075H13.9049H13.9023H13.8998H13.8972H13.8946H13.8921H13.8895H13.887H13.8844H13.8819H13.8793H13.8768H13.8742H13.8717H13.8691H13.8666H13.8641H13.8615H13.859H13.8565H13.8539H13.8514H13.8489H13.8463H13.8438H13.8413H13.8388H13.8363H13.8338H13.8313H13.8287H13.8262H13.8237H13.8212H13.8187H13.8162H13.8137H13.8113H13.8088H13.8063H13.8038H13.8013H13.7988H13.7963H13.7939H13.7914H13.7889H13.7864H13.784H13.7815H13.781H13.7791H13.7766H13.7741H13.7717H13.7692H13.7668H13.7643H13.7619H13.7594H13.757H13.7545H13.7521H13.7497H13.7472H13.7448H13.7424H13.74H13.7375H13.7351H13.7327H13.7303H13.7279H13.7255H13.723H13.7206H13.7182H13.7158H13.7134H13.711H13.7086H13.7063H13.7039H13.7015H13.6991H13.6967H13.6943H13.692H13.6896H13.6872H13.6848H13.6825H13.6801H13.6778H13.6754H13.673H13.6707H13.6683H13.666H13.6636H13.6613H13.659H13.6566H13.6543H13.652H13.6496H13.6473H13.645H13.6426H13.6403H13.638H13.6357H13.6334H13.6311H13.6288H13.6265H13.6242H13.6219H13.6196H13.6173H13.615H13.6127H13.6104H13.6081H13.6059H13.6036H13.6013H13.5991H13.5968H13.5945H13.5923H13.59H13.5877H13.5855H13.5832H13.581H13.5788H13.5765H13.5743H13.572H13.5698H13.5676H13.5653H13.5631H13.5609H13.5587H13.5565H13.5543H13.552H13.5498H13.5476H13.5454H13.5432H13.541H13.5388H13.5367H13.5345H13.5323H13.5301H13.5279H13.5258H13.5236H13.5214H13.5193H13.5171H13.5149H13.5128H13.5106H13.5085H13.5063H13.5042H13.502H13.4999H13.4978H13.4956H13.4935H13.4914H13.4893H13.4871H13.485H13.4829H13.4808H13.4787H13.4766H13.4745H13.4724H13.4703H13.4682H13.4661H13.4641H13.462H13.4599H13.4578H13.4557H13.4537H13.4516H13.4496H13.4475H13.4454H13.4434H13.4413H13.4393H13.4373H13.4352H13.4332H13.4312H13.4291H13.4271H13.4251H13.4231H13.421H13.419H13.417H13.415H13.413H13.411H13.409H13.407H13.405H13.4031H13.4011H13.3991H13.3971H13.3952H13.3932H13.3912H13.3893H13.3873H13.3853H13.3834H13.3814H13.3795H13.3776H13.3756H13.3737H13.3718H13.3698H13.3679H13.366H13.3641H13.3622H13.3603H13.3584H13.3565H13.3546H13.3527H13.3508H13.3489H13.347H13.3451H13.3432H13.3414H13.3395H13.3376H13.3358H13.3339H13.3321H13.3302H13.3284H13.3265H13.3247H13.3228H13.321H13.3192H13.3174H13.3155H13.3137H13.3119H13.3101H13.3083H13.3065H13.3047H13.3029H13.3011H13.2993H13.2975H13.2957H13.294H13.2922H13.2904H13.2887H13.2869H13.2851H13.2834H13.2816H13.2799H13.2781H13.2764H13.2747H13.2729H13.2712H13.2695H13.2678H13.2661H13.2643H13.2626H13.2609H13.2592H13.2575H13.2558H13.2542H13.2525H13.2508H13.2491H13.2474H13.2458H13.2441H13.2424H13.2408H13.2391H13.2375H13.2358H13.2342H13.2326H13.2309H13.2293H13.2277H13.2261H13.2244H13.2228H13.2212H13.2196H13.218H13.2164H13.2148H13.2132H13.2117H13.2101H13.2085H13.2069H13.2054H13.2038H13.2022H13.2007H13.1991H13.1976H13.1961H13.1945H13.193H13.1914H13.1899H13.1884H13.1869H13.1854H13.1839H13.1824H13.1809H13.1794H13.1779H13.1764H13.1749H13.1734H13.1719H13.1705H13.169H13.1675H13.1661H13.1658H13.1646H13.1632H13.1617H13.1603H13.1589H13.1576H13.1574H12.5324H5.46805H4.8431H4.84228H4.84134H4.84087H4.83947H4.83805H4.83664H4.83522H4.8338H4.83237H4.83093H4.8295H4.82806H4.82661H4.82567H4.82516H4.82371H4.82225H4.82078H4.81932H4.81785H4.81637H4.81489H4.81341H4.81192H4.81043H4.80893H4.80743H4.80592H4.80441H4.8029H4.80138H4.79986H4.79833H4.7968H4.79527H4.79373H4.79219H4.79064H4.78909H4.78754H4.78598H4.78442H4.78285H4.78128H4.7797H4.77812H4.77654H4.77495H4.77336H4.77176H4.77016H4.76856H4.76695H4.76534H4.76372H4.7621H4.76048H4.75885H4.75722H4.75559H4.75395H4.7523H4.75065H4.749H4.74735H4.74569H4.74402H4.74236H4.74069H4.73901H4.73733H4.73565H4.73396H4.73227H4.73058H4.72888H4.72718H4.72547H4.72376H4.72205H4.72033H4.71861H4.71688H4.71515H4.71342H4.71168H4.70994H4.7082H4.70645H4.7047H4.70294H4.70118H4.69942H4.69765H4.69588H4.69411H4.69233H4.69055H4.68876H4.68697H4.68518H4.68338H4.68158H4.67978H4.67797H4.67616H4.67434H4.67252H4.6707H4.66888H4.66705H4.66521H4.66338H4.66154H4.65969H4.65784H4.65599H4.65414H4.65228H4.65042H4.64855H4.64668H4.64481H4.64293H4.64105H4.63917H4.63728H4.63539H4.6335H4.6316H4.6297H4.6278H4.62589H4.62398H4.62206H4.62014H4.61822H4.6163H4.61437H4.61243H4.6105H4.60856H4.60662H4.60467H4.60272H4.60077H4.59881H4.59686H4.59489H4.59293H4.59096H4.58898H4.58701H4.58503H4.58305H4.58106H4.57907H4.57708H4.57508H4.57308H4.57108H4.56907H4.56706H4.56505H4.56304H4.56102H4.55899H4.55697H4.55494H4.55291H4.55087H4.54883H4.54679H4.54475H4.5427H4.54065H4.53859H4.53654H4.53447H4.53241H4.53034H4.52827H4.5262H4.52412H4.52204H4.51996H4.51787H4.51578H4.51369H4.5116H4.5095H4.5074H4.50529H4.50319H4.50107H4.49896H4.49684H4.49472H4.4926H4.49048H4.48835H4.48621H4.48408H4.48194H4.4798H4.47766H4.47551H4.47336H4.47121H4.46905H4.46689H4.46473H4.46257H4.4604H4.45823H4.45605H4.45388H4.4517H4.44952H4.44733H4.44514H4.44295H4.44076H4.43856H4.43636H4.43416H4.43195H4.42975H4.42754H4.42532H4.42311H4.42089H4.41866H4.41644H4.41421H4.41198H4.40975H4.40751H4.40527H4.40303H4.40079H4.39854H4.39629H4.39404H4.39178H4.38952H4.38726H4.385H4.38273H4.38046H4.37819H4.37592H4.37364H4.37136H4.36908H4.3668H4.36451H4.36222H4.35993H4.35763H4.35533H4.35303H4.35073H4.34842H4.34611H4.3438H4.34149H4.33917H4.33685H4.33453H4.33221H4.32988H4.32755H4.32522H4.32289H4.32055H4.31821H4.31587H4.31353H4.31118H4.30883H4.30648H4.30413H4.30177H4.29941H4.29705H4.29469H4.29232H4.28995H4.28758H4.28521H4.28283H4.28045H4.27807H4.27569H4.27331H4.27092H4.26853H4.26614H4.26374H4.26134H4.25894H4.25654H4.25414H4.25173H4.24932H4.24691H4.2445H4.24208H4.23966H4.23724H4.23482H4.2324H4.22997H4.22754H4.22511H4.22268H4.22024H4.2178H4.21536H4.21292H4.21047H4.20803H4.20558H4.20313H4.20067H4.19822H4.19819H4.19576H4.1933H4.19084H4.18837H4.18591H4.18344H4.18097H4.17849H4.17602H4.17354H4.17106H4.16858H4.1661H4.16361H4.16112H4.15863H4.15614H4.15365H4.15115H4.14866H4.14616H4.14365H4.14115H4.13864H4.13614H4.13363H4.13111H4.1286H4.12609H4.12357H4.12105H4.11853H4.116H4.11348H4.11095H4.10842H4.10589H4.10336H4.10082H4.09828H4.09574H4.0932H4.09066H4.08812H4.08557H4.08302H4.08047H4.07792H4.07537H4.07281H4.07025H4.06769H4.06513H4.06257H4.06H4.05744H4.05487H4.0523H4.04973H4.04715H4.04458H4.042H4.03942H4.03684H4.03426H4.03168H4.02909H4.0265H4.02391H4.02132H4.01873H4.01614H4.01354H4.01094H4.00834H4.00574H4.00314H4.00054H3.99793H3.99532H3.99271H3.9901H3.98749H3.98488H3.98226H3.97964H3.97703H3.9744H3.97178H3.96916H3.96653H3.96391H3.96128H3.95865H3.95602H3.95339H3.95075H3.94812H3.94548H3.94284H3.9402H3.93756H3.93492H3.93227H3.92963H3.92698H3.92433H3.92168H3.91903H3.91637H3.91372H3.91106H3.90841H3.90575H3.90309H3.90043H3.89776H3.8951H3.89243H3.88977H3.8871H3.88443H3.88176H3.87908H3.87641H3.87374H3.87106H3.86838H3.8657H3.86302H3.86034H3.85766H3.85497H3.85229H3.8496H3.84691H3.84422H3.84153H3.83884H3.83615H3.83346H3.83076H3.82806H3.82537H3.82267H3.81997H3.81727H3.81456H3.81186H3.80916H3.80645H3.80374H3.80104H3.79833H3.79562H3.7929H3.79019H3.78748H3.78476H3.78205H3.77933H3.77661H3.77389H3.77117H3.76845H3.76573H3.76301H3.76028H3.75756H3.75483H3.7521H3.74938H3.74665H3.74392H3.74118H3.73845H3.73572H3.73298H3.73025H3.72751H3.72478H3.72204H3.7193H3.71656H3.71382H3.71108H3.70833H3.70559C3.41475 15.3414 3.04082 15.2668 2.74328 14.9881C2.50599 14.7659 2.32129 14.4964 2.17792 14.167C2.04013 13.8506 2.18499 13.4823 2.50148 13.3445C2.81796 13.2067 3.18622 13.3516 3.32401 13.6681C3.40703 13.8588 3.49777 13.9815 3.59552 14.0737C3.59749 14.0747 3.60186 14.0768 3.60957 14.0793C3.62845 14.0853 3.6604 14.0914 3.70559 14.0914H3.70833H3.71108H3.71382H3.71656H3.7193H3.72204H3.72478H3.72751H3.73025H3.73298H3.73572H3.73845H3.74118H3.74392H3.74665H3.74938H3.7521H3.75483H3.75756H3.76028H3.76301H3.76573H3.76845H3.77117H3.77389H3.77661H3.77933H3.78205H3.78476H3.78748H3.79019H3.7929H3.79562H3.79833H3.80104H3.80374H3.80645H3.80916H3.81186H3.81456H3.81727H3.81997H3.82267H3.82537H3.82806H3.83076H3.83346H3.83615H3.83884H3.84153H3.84422H3.84691H3.8496H3.85229H3.85497H3.85766H3.86034H3.86302H3.8657H3.86838H3.87106H3.87374H3.87641H3.87908H3.88176H3.88443H3.8871H3.88977H3.89243H3.8951H3.89776H3.90043H3.90309H3.90575H3.90841H3.91106H3.91372H3.91637H3.91903H3.92168H3.92433H3.92698H3.92963H3.93227H3.93492H3.93756H3.9402H3.94284H3.94548H3.94812H3.95075H3.95339H3.95602H3.95865H3.96128H3.96391H3.96653H3.96916H3.97178H3.9744H3.97703H3.97964H3.98226H3.98488H3.98749H3.9901H3.99271H3.99532H3.99793H4.00054H4.00314H4.00574H4.00834H4.01094H4.01354H4.01614H4.01873H4.02132H4.02391H4.0265H4.02909H4.03168H4.03426H4.03684H4.03942H4.042H4.04458H4.04715H4.04973H4.0523H4.05487H4.05744H4.06H4.06257H4.06513H4.06769H4.07025H4.07281H4.07537H4.07792H4.08047H4.08302H4.08557H4.08812H4.09066H4.0932H4.09574H4.09828H4.10082H4.10336H4.10589H4.10842H4.11095H4.11348H4.116H4.11853H4.12105H4.12357H4.12609H4.1286H4.13111H4.13363H4.13614H4.13864H4.14115H4.14365H4.14616H4.14866H4.15115H4.15365H4.15614H4.15863H4.16112H4.16361H4.1661H4.16858H4.17106H4.17354H4.17602H4.17849H4.18097H4.18344H4.18591H4.18837H4.19084H4.1933H4.19576H4.19822H4.20067H4.20313L4.20868 12.6922V12.6909V8.63624C3.92436 8.62603 3.6495 8.62127 3.38348 8.71773C3.23174 8.77274 3.11706 8.85446 3.03291 8.98261C2.94526 9.11609 2.85523 9.35451 2.85522 9.78223C2.85522 10.652 2.87431 11.6908 3.02709 12.5872C3.08509 12.9274 2.85627 13.2503 2.516 13.3083C2.17573 13.3663 1.85287 13.1375 1.79486 12.7972C1.62251 11.786 1.60522 10.6525 1.60522 9.78222C1.60523 9.18199 1.73216 8.68616 1.98805 8.29648C2.24744 7.90147 2.60287 7.67113 2.9574 7.54259C3.3904 7.38559 3.88125 7.37311 4.20868 7.38171V5.31885C4.20868 3.8691 5.38394 2.69385 6.83368 2.69385H6.91666H7.95815C8.30332 2.69385 8.58315 2.97367 8.58315 3.31885C8.58315 3.66403 8.30332 3.94385 7.95815 3.94385H6.91666H6.83368ZM5.4665 14.0914H12.5324V13.3172H11.0786H8.49999C8.15481 13.3172 7.87499 13.0374 7.87499 12.6922C7.87499 12.347 8.15481 12.0672 8.49999 12.0672H11.0786H12.5324V11.5479C9.57596 10.4245 7.02129 11.0798 5.46337 11.5808L5.46397 12.0672H6.91693C7.26211 12.0672 7.54193 12.347 7.54193 12.6922C7.54193 13.0374 7.26211 13.3172 6.91693 13.3172H5.46553L5.4665 14.0914ZM8.87498 3.31885C8.87498 2.97367 9.1548 2.69385 9.49998 2.69385H11.1656C12.6153 2.69385 13.7906 3.8691 13.7906 5.31885V5.66218C13.7906 6.00736 13.5108 6.28718 13.1656 6.28718C12.8204 6.28718 12.5406 6.00736 12.5406 5.66218V5.31885C12.5406 4.55946 11.925 3.94385 11.1656 3.94385H9.49998C9.1548 3.94385 8.87498 3.66403 8.87498 3.31885Z" fill="#252323"/>
</g>
<defs>
<clipPath id="clip0_666_8831">
<rect width="18" height="18" fill="white"/>
</clipPath>
</defs>
</svg>
