<svg width="28" height="28" viewBox="0 0 28 28" fill="none" xmlns="http://www.w3.org/2000/svg">
<g clip-path="url(#clip0_666_8646)">
<path d="M2.79248 19.422V14.1381V10.4962V8.85425C2.79248 7.74968 3.68791 6.85425 4.79248 6.85425H11.1981H13.4167H16.8019H19.6037H23.2075C24.3121 6.85425 25.2075 7.74968 25.2075 8.85425V14.1381V17.78V19.422C25.2075 20.5265 24.312 21.422 23.2075 21.422H13.4167H11.1981H8.39623H4.79248C3.68791 21.422 2.79248 20.5265 2.79248 19.422Z" fill="#E05149"/>
<path fill-rule="evenodd" clip-rule="evenodd" d="M3.54248 8.85425C3.54248 8.16389 4.10213 7.60425 4.79248 7.60425H12.6667V20.672H11.1981C10.7839 20.672 10.4481 21.0078 10.4481 21.422C10.4481 21.8362 10.7839 22.172 11.1981 22.172H14H21.9918V23.2429C21.9918 23.6571 22.3276 23.9929 22.7418 23.9929C23.156 23.9929 23.4918 23.6571 23.4918 23.2429V22.1574C24.877 22.0152 25.9575 20.8447 25.9575 19.422V17.78C25.9575 17.3658 25.6217 17.03 25.2075 17.03C24.7933 17.03 24.4575 17.3658 24.4575 17.78V19.422C24.4575 20.1123 23.8978 20.672 23.2075 20.672L22.7418 20.672L14.1667 20.672V7.60425H16.8019H19.6037H23.2075C23.8978 7.60425 24.4575 8.16389 24.4575 8.85425V14.1381C24.4575 14.5523 24.7933 14.8881 25.2075 14.8881C25.6217 14.8881 25.9575 14.5523 25.9575 14.1381V8.85425C25.9575 7.33547 24.7263 6.10425 23.2075 6.10425H19.6037H16.8019H14H4.79248C3.2737 6.10425 2.04248 7.33546 2.04248 8.85425V10.4962C2.04248 10.9104 2.37827 11.2462 2.79248 11.2462C3.20669 11.2462 3.54248 10.9104 3.54248 10.4962V8.85425ZM3.54248 14.1381C3.54248 13.7239 3.20669 13.3881 2.79248 13.3881C2.37827 13.3881 2.04248 13.7239 2.04248 14.1381V19.422C2.04248 20.6871 2.89672 21.7526 4.05985 22.0733V23.2429C4.05985 23.6571 4.39564 23.9929 4.80985 23.9929C5.22406 23.9929 5.55985 23.6571 5.55985 23.2429V22.172H8.39623C8.81044 22.172 9.14623 21.8362 9.14623 21.422C9.14623 21.0078 8.81044 20.672 8.39623 20.672L4.80985 20.672L4.79248 20.672C4.10212 20.672 3.54248 20.1123 3.54248 19.422V14.1381ZM15 14.1381C15 13.7239 15.3358 13.3881 15.75 13.3881H16.6466C17.0608 13.3881 17.3966 13.7239 17.3966 14.1381C17.3966 14.5523 17.0608 14.8881 16.6466 14.8881H15.75C15.3358 14.8881 15 14.5523 15 14.1381ZM9.9653 13.3881C9.55109 13.3881 9.2153 13.7239 9.2153 14.1381C9.2153 14.5523 9.55109 14.8881 9.9653 14.8881H10.8619C11.2761 14.8881 11.6119 14.5523 11.6119 14.1381C11.6119 13.7239 11.2761 13.3881 10.8619 13.3881H9.9653Z" fill="#252323"/>
</g>
<defs>
<clipPath id="clip0_666_8646">
<rect width="28" height="28" fill="white"/>
</clipPath>
</defs>
</svg>
