<svg width="28" height="28" viewBox="0 0 28 28" fill="none" xmlns="http://www.w3.org/2000/svg">
<g clip-path="url(#clip0_611_6117)">
<path fill-rule="evenodd" clip-rule="evenodd" d="M4.22555 10.7402C4.22555 10.6022 4.33748 10.4902 4.47555 10.4902H5.2296C5.64382 10.4902 5.9796 10.1544 5.9796 9.74023C5.9796 9.32602 5.64382 8.99023 5.2296 8.99023H4.47555C3.50905 8.99023 2.72555 9.77374 2.72555 10.7402V12.356C2.30503 12.6103 2.02393 13.0719 2.02393 13.5992V17.4581C2.02393 18.2598 2.67384 18.9097 3.47555 18.9097L3.47723 18.9097H24.5226H24.5242C25.3259 18.9097 25.9759 18.2598 25.9759 17.4581V13.5992C25.9759 13.0719 25.6948 12.6103 25.2742 12.356V10.7402C25.2742 9.77374 24.4907 8.99023 23.5242 8.99023H22.7702C22.356 8.99023 22.0202 9.32602 22.0202 9.74023C22.0202 10.1544 22.356 10.4902 22.7702 10.4902H23.5242C23.6623 10.4902 23.7742 10.6022 23.7742 10.7402V12.356C23.3666 12.6025 23.09 13.0437 23.0734 13.5508L18.258 13.5508L18.258 10.7402C18.258 10.6022 18.3699 10.4902 18.508 10.4902H21.0161C21.4303 10.4902 21.7661 10.1544 21.7661 9.74023C21.7661 9.32602 21.4303 8.99023 21.0161 8.99023H18.508C18.1362 8.99023 17.7915 9.10619 17.508 9.30391C17.2245 9.10619 16.8798 8.99023 16.508 8.99023H14.7015H13.4737H13.1229H11.895H11.4918C11.12 8.99023 10.7752 9.10619 10.4918 9.30391C10.2083 9.10619 9.86359 8.99023 9.49177 8.99023H6.98366C6.56945 8.99023 6.23366 9.32602 6.23366 9.74023C6.23366 10.1544 6.56945 10.4902 6.98366 10.4902H9.49177C9.62984 10.4902 9.74177 10.6022 9.74177 10.7402V13.5508L4.92638 13.5508C4.90978 13.0437 4.63315 12.6025 4.22555 12.356V10.7402ZM16.758 10.7402V13.5508L11.2418 13.5508L11.2418 10.7402C11.2418 10.6022 11.3537 10.4902 11.4918 10.4902H11.895H13.1229H13.4737H14.7015H16.508C16.6461 10.4902 16.758 10.6022 16.758 10.7402ZM4.92717 15.0508L23.0726 15.0508V15.6557H13.4376C13.0234 15.6557 12.6876 15.9914 12.6876 16.4057C12.6876 16.8199 13.0234 17.1557 13.4376 17.1557H23.0726V17.4097H4.92717V17.1556L10.8426 17.1557C11.2568 17.1557 11.5926 16.8199 11.5926 16.4056C11.5926 15.9914 11.2568 15.6556 10.8426 15.6556L4.92717 15.6556V15.0508Z" fill="#332A2A"/>
</g>
<defs>
<clipPath id="clip0_611_6117">
<rect width="28" height="28" fill="white"/>
</clipPath>
</defs>
</svg>
