<svg width="23" height="23" viewBox="0 0 23 23" fill="none" xmlns="http://www.w3.org/2000/svg">
<g clip-path="url(#clip0_611_6403)">
<path d="M16.2214 5.28467C16.5942 5.28467 16.8962 5.58668 16.8962 5.95947V16.7407C16.8962 17.1135 16.5942 17.4155 16.2214 17.4155H14.2302L15.2654 20.52C15.3831 20.8735 15.1919 21.2565 14.8386 21.3745C14.485 21.4924 14.1021 21.3004 13.9841 20.9468L12.8064 17.4155H10.5867L9.40894 20.9468C9.29108 21.3003 8.90802 21.4922 8.55444 21.3745C8.20097 21.2565 8.00983 20.8736 8.12769 20.52L9.16284 17.4155H6.63843C6.59193 17.4155 6.54653 17.4108 6.50269 17.4019C6.28286 17.357 6.10173 17.2054 6.01636 17.0034C5.98224 16.9227 5.96363 16.8339 5.96362 16.7407V14.9438C5.96362 14.5711 6.26564 14.269 6.63843 14.269C7.01122 14.269 7.31323 14.5711 7.31323 14.9438V16.0659H15.5466V12.6235H9.76147C9.38868 12.6235 9.08569 12.3215 9.08569 11.9487C9.08584 11.5761 9.38877 11.2739 9.76147 11.2739H15.5466V7.83252H15.0242C14.6515 7.83252 14.3486 7.53035 14.3484 7.15771C14.3484 6.78492 14.6514 6.48291 15.0242 6.48291H15.5466V5.95947C15.5466 5.58677 15.8488 5.28481 16.2214 5.28467ZM12.0955 13.936C12.4682 13.9361 12.7702 14.2381 12.7703 14.6108C12.7703 14.9836 12.4682 15.2856 12.0955 15.2856H10.7644C10.3917 15.2856 10.0896 14.9836 10.0896 14.6108C10.0897 14.2382 10.3917 13.9361 10.7644 13.936H12.0955ZM15.2214 1.69092C16.1465 1.69092 16.8962 2.44065 16.8962 3.36572V4.1626C16.8962 4.53539 16.5942 4.8374 16.2214 4.8374C15.8488 4.83726 15.5466 4.53529 15.5466 4.1626V3.36572C15.5466 3.18623 15.4009 3.04053 15.2214 3.04053H7.63843C7.45894 3.04053 7.31323 3.18623 7.31323 3.36572V6.48291H13.3386C13.7114 6.48291 14.0134 6.78492 14.0134 7.15771C14.0132 7.53035 13.7113 7.83252 13.3386 7.83252H7.31323V11.2739H7.83667C8.20922 11.2741 8.51133 11.5762 8.51147 11.9487C8.51147 12.3214 8.20931 12.6234 7.83667 12.6235H7.31323V13.147C7.3132 13.5197 7.0112 13.8218 6.63843 13.8218C6.26566 13.8218 5.96366 13.5197 5.96362 13.147V3.36572C5.96362 2.44065 6.71335 1.69092 7.63843 1.69092H15.2214ZM12.0955 9.01123C12.4681 9.01125 12.7701 9.31337 12.7703 9.68604C12.7703 10.0588 12.4682 10.3608 12.0955 10.3608H10.7644C10.3917 10.3608 10.0896 10.0588 10.0896 9.68604C10.0897 9.31341 10.3918 9.01132 10.7644 9.01123H12.0955ZM12.0955 4.08643C12.4681 4.08645 12.7701 4.3886 12.7703 4.76123C12.7703 5.13401 12.4682 5.43601 12.0955 5.43604H10.7644C10.3917 5.43595 10.0896 5.13397 10.0896 4.76123C10.0898 4.38863 10.3918 4.08651 10.7644 4.08643H12.0955Z" fill="#332A2A"/>
</g>
<defs>
<clipPath id="clip0_611_6403">
<rect width="23" height="23" fill="white"/>
</clipPath>
</defs>
</svg>
