<svg width="44" height="44" viewBox="0 0 44 44" fill="none" xmlns="http://www.w3.org/2000/svg">
<g clip-path="url(#clip0_373_2390)">
<path d="M30.708 8.25L32.083 9.38574V19.25H34.833L37.125 19.708L38.5 22V30.708C38.1944 31.6247 37.4917 33.5503 37.125 33.917C36.7583 34.2838 35.7504 35.5968 35.292 36.208H32.083L11.917 35.75L8.25 36.208C7.63884 35.444 6.41699 33.8246 6.41699 33.458C6.41659 32.9986 5.5 29.7909 5.5 27.958V22.458C5.80572 21.2358 7.42525 18.9749 11.458 19.708L11.917 12.833V9.16699L12.833 8.25H30.708ZM11.917 35.292H32.083V31.0361H11.917V35.292Z" fill="#E05149"/>
<path d="M19.4536 7.36304C19.8677 7.36321 20.2036 7.69893 20.2036 8.11304C20.2036 8.52715 19.8677 8.86287 19.4536 8.86304H13.8159C13.1256 8.86314 12.5659 9.42274 12.5659 10.113V20.2888C12.566 20.2963 12.5669 20.3038 12.5669 20.3113L12.5737 26.1677C16.5075 24.8944 23.4105 23.0574 31.4126 26.0867V20.0974C31.4126 20.0159 31.4203 19.9361 31.4331 19.8582V16.7048C31.4333 16.2908 31.769 15.9548 32.1831 15.9548C32.5969 15.9551 32.9329 16.291 32.9331 16.7048V18.6267C33.5565 18.6167 35.1685 18.4493 36.5483 18.9441C37.2972 19.2128 38.0263 19.6838 38.5591 20.4861C39.088 21.2828 39.3803 22.3405 39.3804 23.7078C39.3804 25.8454 39.3362 28.5716 38.9204 30.9841C38.8501 31.3922 38.4622 31.6655 38.0542 31.5955C37.646 31.5251 37.3715 31.1374 37.4419 30.7292C37.8337 28.4559 37.8804 25.8447 37.8804 23.7078C37.8803 22.5505 37.6332 21.8045 37.3091 21.3162C36.9888 20.8337 36.5497 20.5375 36.0415 20.3552C34.9687 19.9707 33.7858 20.1205 32.9331 20.1267V28.1228L32.9253 30.9294C32.9293 30.9608 32.9331 30.9927 32.9331 31.0251V35.2234H35.4126C35.4415 35.2234 35.4629 35.2194 35.4751 35.2156C35.4859 35.2122 35.4885 35.2106 35.4858 35.2126C35.9351 34.8572 36.325 34.3054 36.6509 33.5652C36.8178 33.1862 37.2601 33.0136 37.6392 33.1804C38.018 33.3474 38.1897 33.7907 38.0229 34.1697C37.637 35.0462 37.1198 35.8314 36.4155 36.3884C36.1046 36.6343 35.7375 36.7233 35.4126 36.7234H8.62549C8.29385 36.7234 7.93458 36.6308 7.62842 36.3992C6.9538 35.8888 6.43269 35.2298 6.03662 34.3201C5.87156 33.9404 6.04564 33.4981 6.42529 33.3328C6.80494 33.1677 7.24723 33.3419 7.4126 33.7214C7.71391 34.4134 8.08021 34.8598 8.53369 35.2029C8.53953 35.2072 8.56685 35.2234 8.62549 35.2234H11.0493L11.0659 31.0251V20.3513C10.2229 20.346 9.06057 20.1963 8.00537 20.5789C7.50842 20.7591 7.07787 21.0519 6.76318 21.531C6.44445 22.0166 6.20174 22.7597 6.20166 23.9119C6.20166 26.0382 6.2477 28.6368 6.6333 30.8992C6.7029 31.3075 6.42735 31.6948 6.01904 31.7644C5.61087 31.8337 5.22339 31.5593 5.15381 31.1511C4.74476 28.751 4.70166 26.0388 4.70166 23.9119C4.70174 22.5522 4.9895 21.4998 5.51025 20.7068C6.03524 19.9077 6.75439 19.4371 7.49463 19.1687C8.86233 18.6729 10.4615 18.8436 11.0659 18.8523V10.113C11.0659 8.59432 12.2972 7.36314 13.8159 7.36304H19.4536ZM31.4126 27.7019C23.3594 24.4414 16.4327 26.4719 12.5757 27.7449L12.5796 30.2751H16.9077C17.3217 30.2752 17.6575 30.6112 17.6577 31.0251C17.6577 31.4393 17.3219 31.7751 16.9077 31.7751H12.5815L12.5854 35.2234H31.4126V31.7751H19.4536C19.0396 31.7749 18.7036 31.4392 18.7036 31.0251C18.7039 30.6113 19.0398 30.2754 19.4536 30.2751H31.4126V27.7019ZM30.1831 7.36304C31.7016 7.36334 32.9331 8.59444 32.9331 10.113V13.8416C32.9329 14.2554 32.5969 14.5912 32.1831 14.5916C31.769 14.5916 31.4333 14.2556 31.4331 13.8416V10.113C31.4331 9.42287 30.8732 8.86334 30.1831 8.86304H21.9995C21.5853 8.86304 21.2495 8.52725 21.2495 8.11304C21.2495 7.69882 21.5853 7.36304 21.9995 7.36304H30.1831Z" fill="#332A2A"/>
</g>
<defs>
<clipPath id="clip0_373_2390">
<rect width="44" height="44" fill="white"/>
</clipPath>
</defs>
</svg>
