<svg width="18" height="18" viewBox="0 0 18 18" fill="none" xmlns="http://www.w3.org/2000/svg">
<g clip-path="url(#clip0_666_8753)">
<path fill-rule="evenodd" clip-rule="evenodd" d="M2.42017 6.40625C2.42017 5.64686 3.03578 5.03125 3.79517 5.03125H8V13.1462H7.19878C6.8536 13.1462 6.57378 13.426 6.57378 13.7712C6.57378 14.1164 6.8536 14.3962 7.19878 14.3962H8.99999H13.9947V14.9418C13.9947 15.287 14.2746 15.5668 14.6197 15.5668C14.9649 15.5668 15.2447 15.287 15.2447 14.9418V14.1822C16.1772 13.7794 16.8298 12.8515 16.8298 11.7712V11.43C16.8298 11.0848 16.55 10.805 16.2048 10.805C15.8596 10.805 15.5798 11.0848 15.5798 11.43V11.7712C15.5798 12.5306 14.9642 13.1462 14.2048 13.1462H9.25V5.03125H10.8012H12.6024H14.2048C14.9642 5.03125 15.5798 5.64686 15.5798 6.40625V9.08873C15.5798 9.43391 15.8596 9.71373 16.2048 9.71373C16.55 9.71373 16.8298 9.43391 16.8298 9.08873V6.40625C16.8298 4.9565 15.6546 3.78125 14.2048 3.78125H12.6024H10.8012H8.99999H3.79517C2.34542 3.78125 1.17017 4.9565 1.17017 6.40625V6.74749C1.17017 7.09267 1.44999 7.37249 1.79517 7.37249C2.14034 7.37249 2.42017 7.09267 2.42017 6.74749V6.40625ZM2.42017 9.08873C2.42017 8.74355 2.14034 8.46373 1.79517 8.46373C1.44999 8.46373 1.17017 8.74355 1.17017 9.08873V11.7712C1.17017 12.7364 1.69105 13.5799 2.46705 14.0359V14.9418C2.46705 15.287 2.74687 15.5668 3.09205 15.5668C3.43722 15.5668 3.71705 15.287 3.71705 14.9418V14.3951C3.74299 14.3958 3.76904 14.3962 3.79517 14.3962H5.39758C5.74275 14.3962 6.02258 14.1164 6.02258 13.7712C6.02258 13.426 5.74275 13.1462 5.39758 13.1462H3.79517C3.03578 13.1462 2.42017 12.5306 2.42017 11.7712V9.08873ZM9.5 9.08873C9.5 8.74355 9.77982 8.46373 10.125 8.46373H10.7014C11.0466 8.46373 11.3264 8.74355 11.3264 9.08873C11.3264 9.43391 11.0466 9.71373 10.7014 9.71373H10.125C9.77982 9.71373 9.5 9.43391 9.5 9.08873ZM6.40627 8.46373C6.06109 8.46373 5.78127 8.74355 5.78127 9.08873C5.78127 9.43391 6.06109 9.71373 6.40627 9.71373H6.98265C7.32783 9.71373 7.60765 9.43391 7.60765 9.08873C7.60765 8.74355 7.32783 8.46373 6.98265 8.46373H6.40627Z" fill="#252323"/>
</g>
<defs>
<clipPath id="clip0_666_8753">
<rect width="18" height="18" fill="white"/>
</clipPath>
</defs>
</svg>
