<svg width="18" height="18" viewBox="0 0 18 18" fill="none" xmlns="http://www.w3.org/2000/svg">
<g clip-path="url(#clip0_611_6404)">
<path fill-rule="evenodd" clip-rule="evenodd" d="M4.53125 2.8125C4.53125 1.91504 5.25879 1.1875 6.15625 1.1875H11.6562C12.5537 1.1875 13.2812 1.91504 13.2812 2.8125V3C13.2812 3.34518 13.0014 3.625 12.6562 3.625C12.311 3.625 12.0312 3.34518 12.0312 3V2.8125C12.0312 2.60539 11.8633 2.4375 11.6562 2.4375H6.15625C5.94914 2.4375 5.78125 2.60539 5.78125 2.8125V4.93748H8.90623H10C10.3452 4.93748 10.625 5.2173 10.625 5.56248C10.625 5.90766 10.3452 6.18748 10 6.18748H8.90623H5.78125V7.43747V8.68746H6C6.34518 8.68746 6.625 8.96728 6.625 9.31246C6.625 9.65764 6.34518 9.93746 6 9.93746H5.78125V10.25C5.78125 10.5951 5.50143 10.875 5.15625 10.875C4.81107 10.875 4.53125 10.5951 4.53125 10.25V9.31246V7.43747V5.56248V2.8125ZM12.6562 4.375C13.0014 4.375 13.2812 4.65482 13.2812 5V5.56248V7.43747V9.31246V13.0624C13.2812 13.4076 13.0014 13.6874 12.6562 13.6874H11.2317L11.9991 15.9898C12.1083 16.3172 11.9313 16.6712 11.6039 16.7803C11.2764 16.8895 10.9224 16.7125 10.8133 16.3851L9.91408 13.6874H8.31504L7.41583 16.3851C7.30668 16.7125 6.95273 16.8895 6.62527 16.7803C6.2978 16.6712 6.12083 16.3172 6.22998 15.9898L6.99743 13.6874H5.15625C4.81107 13.6874 4.53125 13.4076 4.53125 13.0624V11.6562C4.53125 11.311 4.81107 11.0312 5.15625 11.0312C5.50143 11.0312 5.78125 11.311 5.78125 11.6562V12.4374H7.84998C7.85962 12.4372 7.86929 12.4372 7.87898 12.4374H10.3501C10.3598 12.4372 10.3695 12.4372 10.3791 12.4374H12.0312V9.93746H8.90623H7.40626C7.06108 9.93746 6.78126 9.65764 6.78126 9.31246C6.78126 8.96728 7.06108 8.68746 7.40626 8.68746H8.90623H12.0312V7.43747V6.18748H11.7187C11.3735 6.18748 11.0937 5.90766 11.0937 5.56248C11.0937 5.2173 11.3735 4.93748 11.7187 4.93748H12.0343C12.0657 4.62166 12.3321 4.375 12.6562 4.375ZM8.3854 10.7708C8.04022 10.7708 7.7604 11.0506 7.7604 11.3958C7.7604 11.741 8.04022 12.0208 8.3854 12.0208H9.42706C9.77224 12.0208 10.0521 11.741 10.0521 11.3958C10.0521 11.0506 9.77224 10.7708 9.42706 10.7708H8.3854ZM7.7604 7.54164C7.7604 7.19646 8.04022 6.91664 8.3854 6.91664H9.42706C9.77224 6.91664 10.0521 7.19646 10.0521 7.54164C10.0521 7.88681 9.77224 8.16664 9.42706 8.16664H8.3854C8.04022 8.16664 7.7604 7.88681 7.7604 7.54164ZM8.3854 3.06249C8.04022 3.06249 7.7604 3.34231 7.7604 3.68749C7.7604 4.03267 8.04022 4.31249 8.3854 4.31249H9.42706C9.77224 4.31249 10.0521 4.03267 10.0521 3.68749C10.0521 3.34231 9.77224 3.06249 9.42706 3.06249H8.3854Z" fill="#252323"/>
</g>
<defs>
<clipPath id="clip0_611_6404">
<rect width="18" height="18" fill="white"/>
</clipPath>
</defs>
</svg>
