<svg width="23" height="23" viewBox="0 0 23 23" fill="none" xmlns="http://www.w3.org/2000/svg">
<g clip-path="url(#clip0_611_6375)">
<path d="M7.58862 2.31592H15.1719C15.7242 2.31592 16.1719 2.76363 16.1719 3.31592V4.11278V5.90965V7.18748V9.50338V11.9792V15.6908C16.1719 16.2431 15.7242 16.6908 15.1719 16.6908H7.58862C7.03634 16.6908 6.58862 16.2431 6.58862 15.6908V14.894V13.0971V12.9792C6.58862 12.4269 7.03634 11.9792 7.58862 11.9792H16.1719V9.50338V7.18748H7.58862C7.03634 7.18748 6.58862 6.73977 6.58862 6.18748V3.31592C6.58862 2.76363 7.03634 2.31592 7.58862 2.31592Z" fill="#E05149"/>
<path fill-rule="evenodd" clip-rule="evenodd" d="M5.91357 3.31587C5.91357 2.39079 6.6635 1.64087 7.58857 1.64087H15.1719C16.0969 1.64087 16.8469 2.39079 16.8469 3.31587V4.11273C16.8469 4.48553 16.5446 4.78773 16.1719 4.78773C15.7991 4.78773 15.4969 4.48553 15.4969 4.11273V3.31587C15.4969 3.13638 15.3513 2.99087 15.1719 2.99087H7.58857C7.40908 2.99087 7.26357 3.13638 7.26357 3.31587V6.43251H11.3802H13.2889C13.6617 6.43251 13.9639 6.73472 13.9639 7.10751C13.9639 7.4803 13.6617 7.78251 13.2889 7.78251H11.3802H7.26357V9.50333V11.2241H7.78648C8.15928 11.2241 8.46148 11.5264 8.46148 11.8991C8.46148 12.2719 8.15928 12.5741 7.78648 12.5741H7.26357V13.0971C7.26357 13.4699 6.96137 13.7721 6.58857 13.7721C6.21578 13.7721 5.91357 13.4699 5.91357 13.0971V11.8991V9.50333V7.10751V3.31587ZM16.1719 5.2346C16.5446 5.2346 16.8469 5.53681 16.8469 5.9096L16.8469 7.10751L16.8469 9.50333L16.8469 11.8991L16.8469 16.6908C16.8469 17.0636 16.5446 17.3658 16.1719 17.3658L16.1707 17.3658H14.1801L15.215 20.4704C15.3329 20.824 15.1418 21.2063 14.7881 21.3242C14.4344 21.4421 14.0522 21.2509 13.9343 20.8973L12.7571 17.3658H10.5357L9.35855 20.8973C9.24067 21.2509 8.8584 21.4421 8.50474 21.3242C8.15108 21.2063 7.95994 20.824 8.07783 20.4704L9.11269 17.3658H6.58972L6.58857 17.3658C6.31986 17.3658 6.08782 17.2088 5.9792 16.9815C5.95597 16.9329 5.93838 16.881 5.92729 16.8268C5.9183 16.7829 5.91357 16.7374 5.91357 16.6908V14.8939C5.91357 14.5211 6.21578 14.2189 6.58857 14.2189C6.96137 14.2189 7.26357 14.5211 7.26357 14.8939V16.0158H10.0335C10.0439 16.0155 10.0543 16.0155 10.0647 16.0158H13.2281C13.2385 16.0155 13.249 16.0155 13.2594 16.0158H15.4969V12.5741H11.3802H9.71114C9.33835 12.5741 9.03614 12.2719 9.03614 11.8991C9.03614 11.5264 9.33835 11.2241 9.71114 11.2241H11.3802H15.4969V9.50333V7.78251H14.9739C14.6012 7.78251 14.2989 7.4803 14.2989 7.10751C14.2989 6.73472 14.6012 6.43251 14.9739 6.43251H15.4969V5.9096C15.4969 5.53681 15.7991 5.2346 16.1719 5.2346ZM10.7147 13.8862C10.3419 13.8862 10.0397 14.1884 10.0397 14.5612C10.0397 14.934 10.3419 15.2362 10.7147 15.2362H12.0457C12.4185 15.2362 12.7207 14.934 12.7207 14.5612C12.7207 14.1884 12.4185 13.8862 12.0457 13.8862H10.7147ZM10.0397 9.63643C10.0397 9.26364 10.3419 8.96143 10.7147 8.96143H12.0457C12.4185 8.96143 12.7207 9.26364 12.7207 9.63643C12.7207 10.0092 12.4185 10.3114 12.0457 10.3114H10.7147C10.3419 10.3114 10.0397 10.0092 10.0397 9.63643ZM10.7147 4.03669C10.3419 4.03669 10.0397 4.3389 10.0397 4.71169C10.0397 5.08448 10.3419 5.38669 10.7147 5.38669H12.0457C12.4185 5.38669 12.7207 5.08448 12.7207 4.71169C12.7207 4.3389 12.4185 4.03669 12.0457 4.03669H10.7147Z" fill="#252323"/>
</g>
<defs>
<clipPath id="clip0_611_6375">
<rect width="23" height="23" fill="white"/>
</clipPath>
</defs>
</svg>
