<svg width="28" height="28" viewBox="0 0 28 28" fill="none" xmlns="http://www.w3.org/2000/svg">
<g clip-path="url(#clip0_611_6402)">
<path fill-rule="evenodd" clip-rule="evenodd" d="M7.3208 3.81938C7.3208 2.8805 8.08192 2.11938 9.0208 2.11938H18.6874C19.6263 2.11938 20.3874 2.8805 20.3874 3.81938V5.00687C20.3874 5.39347 20.074 5.70687 19.6874 5.70687C19.3008 5.70687 18.9874 5.39347 18.9874 5.00687V3.81938C18.9874 3.6537 18.8531 3.51938 18.6874 3.51938H9.0208C8.85512 3.51938 8.7208 3.6537 8.7208 3.81938V7.95269H13.8541H16.4237C16.8103 7.95269 17.1237 8.26609 17.1237 8.65269C17.1237 9.03929 16.8103 9.35269 16.4237 9.35269H13.8541H8.7208V11.5693V13.786H8.95834C9.34494 13.786 9.65834 14.0994 9.65834 14.486C9.65834 14.8726 9.34494 15.186 8.95834 15.186H8.7208V15.9443C8.7208 16.3309 8.4074 16.6443 8.0208 16.6443C7.6342 16.6443 7.3208 16.3309 7.3208 15.9443V14.486V11.5693V8.65269V3.81938ZM19.6874 6.49436C20.074 6.49436 20.3874 6.80776 20.3874 7.19436V8.65152L20.3874 8.65269L20.3874 8.65385V11.5693V14.4848L20.3874 14.486L20.3874 14.4872V20.3193C20.3874 20.7059 20.074 21.0193 19.6874 21.0193H17.0938L18.407 24.959C18.5293 25.3258 18.3311 25.7222 17.9643 25.8444C17.5976 25.9667 17.2011 25.7685 17.0789 25.4017L15.6181 21.0193H12.7383L11.2775 25.4017C11.1552 25.7685 10.7588 25.9667 10.392 25.8444C10.0253 25.7222 9.82705 25.3258 9.9493 24.959L11.2625 21.0193H8.0208C7.6342 21.0193 7.3208 20.7059 7.3208 20.3193V18.1318C7.3208 17.7452 7.6342 17.4318 8.0208 17.4318C8.4074 17.4318 8.7208 17.7452 8.7208 18.1318V19.6193H12.2175C12.2282 19.619 12.239 19.619 12.2498 19.6193H16.1065C16.1173 19.619 16.1281 19.619 16.1389 19.6193H18.9874V15.186H13.8541H13.8413L13.8413 15.1859L10.9363 15.1329C10.5498 15.1258 10.2422 14.8068 10.2492 14.4202C10.2563 14.0337 10.5753 13.7261 10.9619 13.7331L13.8605 13.786H18.9874V11.5693V9.35269H18.4144C18.0278 9.35269 17.7144 9.03929 17.7144 8.65269C17.7144 8.26609 18.0278 7.95269 18.4144 7.95269H18.9874V7.19436C18.9874 6.80776 19.3008 6.49436 19.6874 6.49436ZM13.0439 17.0267C12.6573 17.0267 12.3439 17.3401 12.3439 17.7267C12.3439 18.1133 12.6573 18.4267 13.0439 18.4267H14.6643C15.0509 18.4267 15.3643 18.1133 15.3643 17.7267C15.3643 17.3401 15.0509 17.0267 14.6643 17.0267H13.0439ZM12.3439 11.7314C12.3439 11.3448 12.6573 11.0314 13.0439 11.0314H14.6643C15.0509 11.0314 15.3643 11.3448 15.3643 11.7314C15.3643 12.118 15.0509 12.4314 14.6643 12.4314H13.0439C12.6573 12.4314 12.3439 12.118 12.3439 11.7314ZM13.0439 5.03604C12.6573 5.03604 12.3439 5.34944 12.3439 5.73604C12.3439 6.12263 12.6573 6.43603 13.0439 6.43603H14.6643C15.0509 6.43603 15.3643 6.12263 15.3643 5.73604C15.3643 5.34944 15.0509 5.03604 14.6643 5.03604H13.0439Z" fill="#252323"/>
</g>
<defs>
<clipPath id="clip0_611_6402">
<rect width="28" height="28" fill="white"/>
</clipPath>
</defs>
</svg>
