<svg width="23" height="23" viewBox="0 0 23 23" fill="none" xmlns="http://www.w3.org/2000/svg">
<g clip-path="url(#clip0_611_6070)">
<path d="M19.4222 7.87156H2.875V10.3021L3.35417 10.7812V14.8541H19.6458V11.0208L20.125 10.0625L19.4222 7.87156Z" fill="#E05149"/>
<path fill-rule="evenodd" clip-rule="evenodd" d="M2.91242 8.79438C2.91242 8.61489 3.05792 8.46938 3.23742 8.46938H3.67825C4.05104 8.46938 4.35325 8.16718 4.35325 7.79438C4.35325 7.42159 4.05104 7.11938 3.67825 7.11938H3.23742C2.31234 7.11938 1.56242 7.86931 1.56242 8.79438V9.91037C1.21577 10.1329 0.986084 10.5217 0.986084 10.9642V14.134C0.986084 14.8251 1.54632 15.3854 2.23742 15.3854L2.23898 15.3854H19.5258L13.8647 14.0354H13.8658L19.5274 15.3854C20.2185 15.3854 20.7787 14.8251 20.7787 14.134V10.9642C20.7787 10.5217 20.5491 10.1329 20.2024 9.91037V8.79438C20.2024 7.86931 19.4525 7.11938 18.5274 7.11938H18.0866H14.7641C14.3892 7.11938 14.0432 7.24251 13.7641 7.45052C13.485 7.24251 13.1389 7.11938 12.7641 7.11938H11.4587H10.4502H10.162H9.15341H9.00075C8.62591 7.11938 8.27983 7.24251 8.00075 7.45052C7.72166 7.24251 7.37558 7.11938 7.00075 7.11938H5.49999C5.1272 7.11938 4.82499 7.42159 4.82499 7.79438C4.82499 8.16718 5.1272 8.46938 5.49999 8.46938H7.00075C7.18024 8.46938 7.32574 8.61489 7.32574 8.79438V10.8655L3.48492 10.8655C3.45362 10.4643 3.23305 10.1162 2.91242 9.91037V8.79438ZM14.4391 10.8655L18.2799 10.8655C18.3112 10.4643 18.5318 10.1162 18.8524 9.91037V8.79438C18.8524 8.61489 18.7069 8.46938 18.5274 8.46938H18.0866H14.7641C14.5846 8.46938 14.4391 8.61489 14.4391 8.79438L14.4391 10.8655ZM13.8658 14.0354L12.9493 13.8168L18.2761 13.8168V14.0354H13.8658ZM13.8647 14.0354H3.48875V13.8168L8.28899 13.8168C8.66178 13.8168 8.96399 13.5146 8.96399 13.1418C8.96399 13.0377 8.94042 12.9391 8.89831 12.851L9.81062 13.0686C9.80803 13.0927 9.80669 13.1171 9.80669 13.1418C9.80669 13.5146 10.1089 13.8168 10.4817 13.8168L12.9483 13.8168L13.8647 14.0354ZM0.986084 10.9642L2.20231 11.2542L2.2023 11.2542L0.986084 10.9642ZM13.0891 8.79438V10.8655L8.67575 10.8655V8.79438C8.67575 8.61489 8.82126 8.46938 9.00075 8.46938H9.15341H10.162H10.4502H11.4587H12.7641C12.9436 8.46938 13.0891 8.61489 13.0891 8.79438ZM3.48875 12.4668V12.2155L6.23344 12.2155L7.28719 12.4668L3.48875 12.4668ZM7.28772 12.4668L6.23388 12.2155L18.2761 12.2155V12.4668L10.4817 12.4668C10.1337 12.4668 9.84723 12.7302 9.81064 13.0684L8.89823 12.8509C8.78955 12.6237 8.55759 12.4668 8.28899 12.4668H7.28772Z" fill="#252323"/>
</g>
<defs>
<clipPath id="clip0_611_6070">
<rect width="23" height="23" fill="white"/>
</clipPath>
</defs>
</svg>
