<svg width="44" height="44" viewBox="0 0 44 44" fill="none" xmlns="http://www.w3.org/2000/svg">
<g clip-path="url(#clip0_373_2317)">
<path d="M4.38818 31.6629V22.2168V16.4938V12.7708C4.38818 11.6662 5.28362 10.7708 6.38819 10.7708H17.597H21.0833H26.4029H30.8059H37.6118C38.7163 10.7708 39.6118 11.6662 39.6118 12.7708V22.2168V27.9399V31.6629C39.6118 32.7675 38.7163 33.6629 37.6118 33.6629H21.0833H17.597H13.1941H6.38818C5.28361 33.6629 4.38818 32.7675 4.38818 31.6629Z" fill="#E05149"/>
<path fill-rule="evenodd" clip-rule="evenodd" d="M5.13818 12.7708C5.13818 12.0804 5.69783 11.5208 6.38818 11.5208H20.3333V32.9129H17.597C17.1828 32.9129 16.847 33.2487 16.847 33.6629C16.847 34.0771 17.1828 34.4129 17.597 34.4129H22H34.9872V36.5244C34.9872 36.9386 35.323 37.2744 35.7372 37.2744C36.1514 37.2744 36.4872 36.9386 36.4872 36.5244V34.4129H37.6118C39.1305 34.4129 40.3618 33.1817 40.3618 31.6629V27.9399C40.3618 27.5256 40.026 27.1899 39.6118 27.1899C39.1975 27.1899 38.8618 27.5256 38.8618 27.9399V31.6629C38.8618 32.3532 38.3021 32.9129 37.6118 32.9129H35.7389L35.7372 32.9129L35.7355 32.9129H22H21.8333V11.5208H22H26.4029H30.8059H37.6118C38.3021 11.5208 38.8618 12.0804 38.8618 12.7708V22.2168C38.8618 22.631 39.1975 22.9668 39.6118 22.9668C40.026 22.9668 40.3618 22.631 40.3618 22.2168V12.7708C40.3618 11.252 39.1305 10.0208 37.6118 10.0208H30.8059H26.4029H22H6.38818C4.8694 10.0208 3.63818 11.252 3.63818 12.7708V16.4938C3.63818 16.908 3.97397 17.2438 4.38818 17.2438C4.8024 17.2438 5.13818 16.908 5.13818 16.4938V12.7708ZM5.13818 22.2168C5.13818 21.8026 4.8024 21.4668 4.38818 21.4668C3.97397 21.4668 3.63818 21.8026 3.63818 22.2168V31.6629C3.63818 33.1817 4.8694 34.4129 6.38818 34.4129H6.80834V36.5244C6.80834 36.9386 7.14412 37.2744 7.55834 37.2744C7.97255 37.2744 8.30834 36.9386 8.30834 36.5244V34.4129H13.1941C13.6083 34.4129 13.9441 34.0771 13.9441 33.6629C13.9441 33.2487 13.6083 32.9129 13.1941 32.9129H7.56005L7.55834 32.9129L7.55663 32.9129H6.38818C5.69783 32.9129 5.13818 32.3532 5.13818 31.6629V22.2168ZM24 22.2168C24 21.8026 24.3358 21.4668 24.75 21.4668H26.1589C26.5732 21.4668 26.9089 21.8026 26.9089 22.2168C26.9089 22.631 26.5732 22.9668 26.1589 22.9668H24.75C24.3358 22.9668 24 22.631 24 22.2168ZM15.6598 21.4668C15.2455 21.4668 14.9098 21.8026 14.9098 22.2168C14.9098 22.631 15.2455 22.9668 15.6598 22.9668H17.0687C17.4829 22.9668 17.8187 22.631 17.8187 22.2168C17.8187 21.8026 17.4829 21.4668 17.0687 21.4668H15.6598Z" fill="#252323"/>
</g>
<defs>
<clipPath id="clip0_373_2317">
<rect width="44" height="44" fill="white"/>
</clipPath>
</defs>
</svg>
