<svg width="18" height="18" viewBox="0 0 18 18" fill="none" xmlns="http://www.w3.org/2000/svg">
<g clip-path="url(#clip0_666_8753)">
<path d="M1.92017 8.58887C2.26534 8.58887 2.54517 8.86869 2.54517 9.21387V11.8965C2.54531 12.6558 3.16087 13.2715 3.92017 13.2715H5.52271C5.86782 13.2716 6.14771 13.5513 6.14771 13.8965C6.14756 14.2415 5.86773 14.5214 5.52271 14.5215H3.92017C3.894 14.5215 3.86803 14.5174 3.84204 14.5166V15.0674C3.84174 15.4123 3.56204 15.6924 3.21704 15.6924C2.87205 15.6924 2.59234 15.4123 2.59204 15.0674V14.1572C1.81707 13.7009 1.29526 12.8608 1.29517 11.8965V9.21387C1.29517 8.86869 1.57499 8.58887 1.92017 8.58887ZM14.3293 3.90625C15.7791 3.90625 16.9543 5.0815 16.9543 6.53125V9.21387C16.9543 9.55898 16.6745 9.83887 16.3293 9.83887C15.9844 9.83862 15.7044 9.55883 15.7043 9.21387V6.53125C15.7043 5.77186 15.0887 5.15625 14.3293 5.15625H9.37524V13.2715H14.3293C15.0886 13.2715 15.7042 12.6558 15.7043 11.8965V11.5547C15.7045 11.2098 15.9845 10.9299 16.3293 10.9297C16.6744 10.9297 16.9542 11.2096 16.9543 11.5547V11.8965C16.9542 12.9764 16.3014 13.9027 15.3694 14.3057V15.0674C15.3691 15.4123 15.0894 15.6924 14.7444 15.6924C14.3996 15.6922 14.1197 15.4122 14.1194 15.0674V14.5215H7.32349C6.97853 14.5213 6.69863 14.2414 6.69849 13.8965C6.69849 13.5514 6.97844 13.2716 7.32349 13.2715H8.12524V5.15625H3.92017C3.16077 5.15625 2.54517 5.77186 2.54517 6.53125V6.87207C2.54517 7.21725 2.26534 7.49707 1.92017 7.49707C1.57499 7.49707 1.29517 7.21725 1.29517 6.87207V6.53125C1.29517 5.0815 2.47042 3.90625 3.92017 3.90625H14.3293ZM7.10767 8.58887C7.45274 8.58899 7.73267 8.86877 7.73267 9.21387C7.73259 9.55891 7.45269 9.83874 7.10767 9.83887H6.53149C6.18636 9.83887 5.90657 9.55898 5.90649 9.21387C5.90649 8.86869 6.18632 8.58887 6.53149 8.58887H7.10767ZM10.8264 8.58887C11.1715 8.589 11.4514 8.86877 11.4514 9.21387C11.4513 9.5589 11.1714 9.83874 10.8264 9.83887H10.2502C9.90511 9.83887 9.62532 9.55898 9.62524 9.21387C9.62524 8.86869 9.90507 8.58887 10.2502 8.58887H10.8264Z" fill="#332A2A"/>
</g>
<defs>
<clipPath id="clip0_666_8753">
<rect width="18" height="18" fill="white"/>
</clipPath>
</defs>
</svg>
