<svg width="18" height="18" viewBox="0 0 18 18" fill="none" xmlns="http://www.w3.org/2000/svg">
<g clip-path="url(#clip0_611_6287)">
<path d="M12.7392 6.24268H12.5982H6.85398H5.23841H4.95844C4.22081 6.24268 3.62283 6.84064 3.62282 7.57828C3.62281 7.95549 3.80419 8.3066 3.9774 8.6419L3.98004 8.64701C4.06349 8.80854 4.12497 8.99462 4.12497 9.18747C4.12497 9.40158 4.29475 9.46147 4.51315 9.47552C5.0027 9.50703 5.49803 9.5 5.9886 9.5H11.8125C13.6875 9.5 13.875 9.43747 13.875 9.18747C13.875 9.05437 13.9052 8.93051 13.9522 8.81907C14.1242 8.41167 14.3933 8.01179 14.3933 7.56958C14.3933 6.83675 13.7992 6.24268 13.0664 6.24268H12.7392Z" fill="#E05149"/>
<path fill-rule="evenodd" clip-rule="evenodd" d="M4.2479 7.85826C4.24791 7.31117 4.69142 6.86768 5.23851 6.86768C5.58368 6.86768 5.86351 6.58785 5.86351 6.24268C5.86351 5.8975 5.58368 5.61768 5.23851 5.61768C4.00107 5.61768 2.99793 6.6208 2.9979 7.85823L2.9979 7.9957C2.77869 8.17617 2.63892 8.44964 2.63892 8.75574L2.63892 10.0993C2.63892 10.5469 2.83164 10.9493 3.13861 11.2284L3.00148 11.3655C2.7574 11.6096 2.7574 12.0053 3.00148 12.2494C3.24556 12.4934 3.64128 12.4934 3.88536 12.2494L4.51014 11.6246H9.00818L10.4442 11.6246C10.7894 11.6246 11.0692 11.3448 11.0692 10.9996C11.0692 10.6544 10.7894 10.3746 10.4442 10.3746L9.00818 10.3746L4.16416 10.3746C4.01215 10.3746 3.88892 10.2514 3.88892 10.0993L3.88892 9.73841C4.16342 9.9791 4.52312 10.125 4.91689 10.125H7.75162C8.0968 10.125 8.37662 9.84518 8.37662 9.5C8.37662 9.15482 8.0968 8.875 7.75162 8.875H4.91689C4.74571 8.875 4.60695 8.73624 4.60695 8.56506C4.60695 8.28723 4.46413 8.04275 4.2479 7.90105L4.2479 7.85826ZM6.85408 5.61768C6.5089 5.61768 6.22908 5.8975 6.22908 6.24268C6.22908 6.58785 6.5089 6.86768 6.85408 6.86768H12.5983C13.2 6.86768 13.6956 7.32178 13.7611 7.90595C13.549 8.04835 13.4094 8.29041 13.4094 8.56506C13.4094 8.73624 13.2706 8.875 13.0995 8.875H9.00818C8.663 8.875 8.38318 9.15482 8.38318 9.5C8.38318 9.84518 8.663 10.125 9.00818 10.125H13.0995C13.4932 10.125 13.8529 9.9791 14.1274 9.73841V10.0996C14.1274 10.2514 14.0044 10.3746 13.8522 10.3746H11.8803C11.5351 10.3746 11.2553 10.6544 11.2553 10.9996C11.2553 11.3448 11.5351 11.6246 11.8803 11.6246L13.5062 11.6246L14.131 12.2494C14.3751 12.4934 14.7708 12.4934 15.0149 12.2494C15.2589 12.0053 15.2589 11.6096 15.0149 11.3655L14.8778 11.2284C15.1847 10.9495 15.3774 10.5471 15.3774 10.0996V8.75513C15.3774 8.4483 15.2373 8.1752 15.018 7.99513C14.9969 6.77402 14.0714 5.77334 12.8827 5.6342C12.8366 5.62339 12.7886 5.61768 12.7393 5.61768H12.5983H6.85408Z" fill="#252323"/>
</g>
<defs>
<clipPath id="clip0_611_6287">
<rect width="18" height="18" fill="white"/>
</clipPath>
</defs>
</svg>
