<svg width="44" height="44" viewBox="0 0 44 44" fill="none" xmlns="http://www.w3.org/2000/svg">
<g clip-path="url(#clip0_666_8636)">
<path d="M4.38818 21.467C4.8024 21.467 5.13818 21.8028 5.13818 22.217V31.6633C5.13842 32.3535 5.69797 32.9133 6.38818 32.9133H13.1938C13.6081 32.9133 13.9438 33.2491 13.9438 33.6633C13.9436 34.0773 13.6079 34.4133 13.1938 34.4133H8.30811V36.5247C8.30787 36.9387 7.97217 37.2747 7.55811 37.2747C7.14415 37.2745 6.80835 36.9386 6.80811 36.5247V34.4133H6.38818C4.86955 34.4133 3.63842 33.1819 3.63818 31.6633V22.217C3.63818 21.8028 3.97397 21.467 4.38818 21.467ZM37.6118 10.0208C39.1306 10.0208 40.3618 11.252 40.3618 12.7708V22.217C40.3617 22.6311 40.0259 22.967 39.6118 22.967C39.1977 22.967 38.8619 22.6312 38.8618 22.217V12.7708C38.8618 12.0804 38.3021 11.5208 37.6118 11.5208H21.8335V32.9133H37.6118C38.302 32.9133 38.8616 32.3535 38.8618 31.6633V27.9397C38.8619 27.5256 39.1977 27.1897 39.6118 27.1897C40.026 27.1897 40.3617 27.5256 40.3618 27.9397V31.6633C40.3616 33.1819 39.1304 34.4133 37.6118 34.4133H36.4868V36.5247C36.4866 36.9387 36.1509 37.2747 35.7368 37.2747C35.3229 37.2745 34.9871 36.9386 34.9868 36.5247V34.4133H17.5972C17.1831 34.4133 16.8474 34.0773 16.8472 33.6633C16.8472 33.2491 17.183 32.9133 17.5972 32.9133H20.3335V11.5208H6.38818C5.69783 11.5208 5.13818 12.0804 5.13818 12.7708V16.4934C5.13818 16.9076 4.8024 17.2434 4.38818 17.2434C3.97397 17.2434 3.63818 16.9076 3.63818 16.4934V12.7708C3.63818 11.252 4.8694 10.0208 6.38818 10.0208H37.6118ZM17.0688 21.467C17.483 21.4672 17.8188 21.8029 17.8188 22.217C17.8187 22.6311 17.4829 22.9669 17.0688 22.967H15.6597C15.2456 22.967 14.9098 22.6311 14.9097 22.217C14.9097 21.8029 15.2455 21.4671 15.6597 21.467H17.0688ZM26.1597 21.467C26.5735 21.4674 26.9097 21.8031 26.9097 22.217C26.9095 22.6309 26.5735 22.9666 26.1597 22.967H24.7505C24.3363 22.967 24.0006 22.6312 24.0005 22.217C24.0005 21.8028 24.3363 21.467 24.7505 21.467H26.1597Z" fill="#332A2A"/>
</g>
<defs>
<clipPath id="clip0_666_8636">
<rect width="44" height="44" fill="white"/>
</clipPath>
</defs>
</svg>
