<svg width="44" height="44" viewBox="0 0 44 44" fill="none" xmlns="http://www.w3.org/2000/svg">
<g clip-path="url(#clip0_611_6330)">
<path fill-rule="evenodd" clip-rule="evenodd" d="M9.60579 19.2092C9.60583 17.4423 11.0382 16.01 12.805 16.01C13.2193 16.01 13.555 15.6742 13.555 15.26C13.555 14.8458 13.2193 14.51 12.805 14.51C10.2098 14.51 8.10584 16.6139 8.10579 19.2092L8.10577 19.9584C7.58437 20.2296 7.22827 20.7748 7.22827 21.4032V25.9879C7.22827 26.8057 7.82313 27.4846 8.60376 27.6154L7.88673 28.3324C7.59384 28.6253 7.59384 29.1002 7.88673 29.3931C8.17962 29.686 8.6545 29.686 8.94739 29.3931L10.7023 27.6381H22.0198H25.5302C25.9444 27.6381 26.2802 27.3024 26.2802 26.8881C26.2802 26.4739 25.9444 26.1381 25.5302 26.1381H22.0198H8.87852C8.79554 26.1381 8.72827 26.0709 8.72827 25.9879L8.72827 21.4032C8.72827 21.3327 8.7854 21.2756 8.85587 21.2756H8.98607C9.06369 23.4698 10.8669 25.2248 13.0801 25.2248H15.8766H18.9482C19.3624 25.2248 19.6982 24.889 19.6982 24.4748C19.6982 24.0605 19.3624 23.7248 18.9482 23.7248H15.8766H13.0801C11.646 23.7248 10.4835 22.5622 10.4835 21.1281C10.4835 20.5482 10.1185 20.0536 9.60578 19.8613L9.60579 19.2092ZM16.7542 14.51C16.34 14.51 16.0042 14.8458 16.0042 15.26C16.0042 15.6742 16.34 16.01 16.7542 16.01H30.7957C32.8049 16.01 34.4337 17.6388 34.4337 19.648V19.8613C33.921 20.0537 33.5561 20.5483 33.5561 21.1281C33.5561 22.5622 32.3936 23.7248 30.9595 23.7248H22.0198C21.6056 23.7248 21.2698 24.0605 21.2698 24.4748C21.2698 24.889 21.6056 25.2248 22.0198 25.2248H30.9595C33.1727 25.2248 34.9759 23.4698 35.0535 21.2756H35.1837C35.2559 21.2756 35.3113 21.3329 35.3113 21.4017V25.9898C35.3113 26.0707 35.2461 26.1381 35.1611 26.1381H29.0406C28.6263 26.1381 28.2906 26.4739 28.2906 26.8881C28.2906 27.3024 28.6263 27.6381 29.0406 27.6381H33.3373L35.0922 29.3931C35.3851 29.686 35.8599 29.686 36.1528 29.3931C36.4457 29.1002 36.4457 28.6253 36.1528 28.3324L35.4358 27.6154C36.215 27.485 36.8113 26.8093 36.8113 25.9898V21.4017C36.8113 20.7724 36.4547 20.2285 35.9337 19.958V19.648C35.9337 16.9973 33.9265 14.8154 31.3491 14.5395C31.2828 14.5203 31.2127 14.51 31.1403 14.51H30.7957H16.7542Z" fill="#252323"/>
</g>
<defs>
<clipPath id="clip0_611_6330">
<rect width="44" height="44" fill="white"/>
</clipPath>
</defs>
</svg>
