<svg width="23" height="23" viewBox="0 0 23 23" fill="none" xmlns="http://www.w3.org/2000/svg">
<g clip-path="url(#clip0_666_8858)">
<path fill-rule="evenodd" clip-rule="evenodd" d="M8.17645 4.91592C7.44467 4.91592 6.85145 5.50914 6.85145 6.24092V10.5775C6.85194 10.5905 6.8522 10.6036 6.85222 10.6168L6.85555 13.2918C8.91343 12.6549 12.2677 11.896 16.1373 13.2333V10.5056C16.1373 10.4552 16.1409 10.4056 16.1478 10.3571V10.2294V8.73231C16.1478 8.35951 16.45 8.05731 16.8228 8.05731C17.1956 8.05731 17.4978 8.35951 17.4978 8.73231V9.44266C17.9109 9.42609 18.5983 9.42025 19.2001 9.63604C19.6371 9.79276 20.0728 10.0723 20.3914 10.5522C20.7066 11.0269 20.868 11.6384 20.868 12.3929C20.868 13.5104 20.8454 14.9569 20.6235 16.2443C20.5602 16.6117 20.211 16.8582 19.8437 16.7949C19.4763 16.7316 19.2298 16.3824 19.2931 16.015C19.4934 14.853 19.518 13.5098 19.518 12.3929C19.518 11.8274 19.3976 11.496 19.2668 11.2989C19.1394 11.107 18.9647 10.9858 18.7444 10.9068C18.3521 10.7662 17.9393 10.7815 17.5426 10.7962L17.4978 10.7978V14.1968C17.4984 14.2136 17.4984 14.2305 17.4978 14.2474V14.6994L17.4978 14.7011L17.4942 16.1453C17.4967 16.1692 17.498 16.1934 17.498 16.218V18.1295H17.5012H17.5043H17.5075H17.5107H17.5139H17.5171H17.5203H17.5235H17.5267H17.5299H17.5331H17.5363H17.5396H17.5428H17.546H17.5492H17.5525H17.5557H17.5589H17.5622H17.5654H17.5687H17.5719H17.5752H17.5784H17.5817H17.585H17.5882H17.5915H17.5948H17.598H17.6013H17.6046H17.6079H17.6112H17.6145H17.6178H17.6211H17.6244H17.6277H17.631H17.6343H17.6376H17.6409H17.6443H17.6476H17.6509H17.6542H17.6576H17.6609H17.6643H17.6676H17.671H17.6743H17.6777H17.681H17.6844H17.6877H17.6911H17.6945H17.6978H17.7012H17.7046H17.708H17.7113H17.7147H17.7181H17.7215H17.7249H17.7283H17.7317H17.7351H17.7385H17.7419H17.7453H17.7487H17.7522H17.7556H17.759H17.7624H17.7658H17.7693H17.7727H17.7761H17.7796H17.783H17.7865H17.7899H17.7934H17.7968H17.8003H17.8037H17.8072H17.8107H17.8141H17.8176H17.8211H17.8245H17.828H17.8315H17.835H17.8384H17.8419H17.8454H17.8489H17.8524H17.8559H17.8594H17.8629H17.8664H17.8699H17.8734H17.8769H17.8804H17.884H17.8875H17.891H17.8945H17.8981H17.9016H17.9051H17.9086H17.9122H17.9157H17.9193H17.9228H17.9263H17.9299H17.9334H17.937H17.9405H17.9441H17.9477H17.9512H17.9548H17.9583H17.9619H17.9655H17.9691H17.9726H17.9762H17.9798H17.9834H17.9869H17.9905H17.9941H17.9977H18.0013H18.0049H18.0085H18.0121H18.0157H18.0193H18.0229H18.0265H18.0301H18.0337H18.0373H18.0409H18.0446H18.0482H18.0518H18.0554H18.059H18.0627H18.0663H18.0699H18.0736H18.0772H18.0808H18.0845H18.0881H18.0917H18.0954H18.099H18.1027H18.1063H18.11H18.1136H18.1173H18.1209H18.1246H18.1283H18.1319H18.1356H18.1392H18.1429H18.1466H18.1503H18.1539H18.1576H18.1613H18.165H18.1686H18.1723H18.176H18.1797H18.1834H18.1871H18.1907H18.1944H18.1981H18.2018H18.2055H18.2092H18.2129H18.2166H18.2203H18.224H18.2277H18.2314H18.2351H18.2388H18.2425H18.2463H18.25H18.2537H18.2574H18.2611H18.2648H18.2686H18.2723H18.276H18.2797H18.2835H18.2872H18.2909H18.2946H18.2984H18.3021H18.3058H18.3096H18.3133H18.3171H18.3208H18.3245H18.3283H18.332H18.3358H18.3395H18.3433H18.347H18.3508H18.3545H18.3583H18.362H18.3658H18.3695C18.4088 18.1295 18.4343 18.1241 18.4467 18.1201L18.4486 18.1195C18.6091 17.9682 18.7621 17.7424 18.8991 17.4313C19.0493 17.0901 19.4476 16.9352 19.7888 17.0854C20.13 17.2356 20.2849 17.634 20.1347 17.9752C19.947 18.4014 19.6975 18.8028 19.3585 19.1169C19.0514 19.4014 18.6692 19.4795 18.3695 19.4795H18.3658H18.362H18.3583H18.3545H18.3508H18.347H18.3433H18.3395H18.3358H18.332H18.3283H18.3245H18.3208H18.3171H18.3133H18.3096H18.3058H18.3021H18.2984H18.2946H18.2909H18.2872H18.2835H18.2797H18.276H18.2723H18.2686H18.2648H18.2611H18.2574H18.2537H18.25H18.2463H18.2425H18.2388H18.2351H18.2314H18.2277H18.224H18.2203H18.2166H18.2129H18.2092H18.2055H18.2018H18.1981H18.1944H18.1907H18.1871H18.1834H18.1797H18.176H18.1723H18.1686H18.165H18.1613H18.1576H18.1539H18.1503H18.1466H18.1429H18.1392H18.1356H18.1319H18.1283H18.1246H18.1209H18.1173H18.1136H18.11H18.1063H18.1027H18.099H18.0954H18.0917H18.0881H18.0845H18.0808H18.0772H18.0736H18.0699H18.0663H18.0627H18.059H18.0554H18.0518H18.0482H18.0446H18.0409H18.0373H18.0337H18.0301H18.0265H18.0229H18.0193H18.0157H18.0121H18.0085H18.0049H18.0013H17.9977H17.9941H17.9905H17.9869H17.9834H17.9798H17.9762H17.9726H17.9691H17.9655H17.9619H17.9583H17.9548H17.9512H17.9477H17.9441H17.9405H17.937H17.9334H17.9299H17.9263H17.9228H17.9193H17.9157H17.9122H17.9086H17.9051H17.9016H17.8981H17.8945H17.891H17.8875H17.884H17.8804H17.8769H17.8734H17.8699H17.8664H17.8629H17.8594H17.8559H17.8524H17.8489H17.8454H17.8419H17.8384H17.835H17.8315H17.828H17.8245H17.8211H17.8176H17.8141H17.8107H17.8072H17.8037H17.8003H17.7968H17.7934H17.7899H17.7865H17.783H17.7796H17.7761H17.7727H17.7693H17.7658H17.7624H17.759H17.7556H17.7522H17.7487H17.7453H17.7419H17.7385H17.7351H17.7317H17.7283H17.7249H17.7215H17.7181H17.7147H17.7113H17.708H17.7046H17.7012H17.6978H17.6945H17.6911H17.6877H17.6844H17.681H17.6777H17.6743H17.671H17.6676H17.6643H17.6609H17.6576H17.6542H17.6509H17.6476H17.6443H17.6409H17.6376H17.6343H17.631H17.6277H17.6244H17.6211H17.6178H17.6145H17.6112H17.6079H17.6046H17.6013H17.598H17.5948H17.5915H17.5882H17.585H17.5817H17.5784H17.5752H17.5719H17.5687H17.5654H17.5622H17.5589H17.5557H17.5525H17.5492H17.546H17.5428H17.5396H17.5363H17.5331H17.5299H17.5267H17.5235H17.5203H17.5171H17.5139H17.5107H17.5075H17.5043H17.5012H17.498H17.4948H17.4917H17.4885H17.4853H17.4822H17.479H17.4759H17.4727H17.4696H17.4664H17.4633H17.4602H17.457H17.4539H17.4508H17.4477H17.4445H17.4414H17.4383H17.4352H17.4321H17.429H17.4259H17.4229H17.4198H17.4167H17.4136H17.4105H17.4075H17.4044H17.4013H17.3983H17.3952H17.3922H17.3891H17.3861H17.383H17.38H17.377H17.374H17.3709H17.3679H17.3649H17.3619H17.3589H17.3559H17.3529H17.3499H17.3469H17.3439H17.3409H17.3379H17.335H17.332H17.329H17.3261H17.3231H17.3201H17.3172H17.3142H17.3113H17.3084H17.3054H17.3025H17.2996H17.2966H17.2937H17.2908H17.2879H17.285H17.2821H17.2792H17.2763H17.2734H17.2705H17.2676H17.2648H17.2619H17.259H17.2562H17.2533H17.2505H17.2476H17.2448H17.2419H17.2391H17.2362H17.2334H17.2306H17.2278H17.225H17.2221H17.2193H17.2165H17.2137H17.2109H17.2082H17.2054H17.2026H17.1998H17.197H17.1943H17.1915H17.1888H17.186H17.1833H17.1805H17.1778H17.175H17.1723H17.1696H17.1669H17.1641H17.1614H17.1587H17.156H17.1533H17.1506H17.1479H17.1453H17.1426H17.1399H17.1372H17.1346H17.1319H17.1293H17.1266H17.124H17.1213H17.1187H17.116H17.1134H17.1108H17.1082H17.1056H17.103H17.1004H17.0978H17.0952H17.0926H17.09H17.0874H17.0848H17.0823H17.0797H17.0771H17.0746H17.072H17.0695H17.067H17.0644H17.0619H17.0594H17.0569H17.0543H17.0518H17.0493H17.0468H17.0443H17.0418H17.0394H17.0369H17.0344H17.0319H17.0295H17.027H17.0246H17.0221H17.0197H17.0172H17.0148H17.0124H17.0099H17.0075H17.0051H17.0027H17.0003H16.9979H16.9955H16.9931H16.9907H16.9884H16.986H16.9836H16.9813H16.9789H16.9766H16.9742H16.9719H16.9695H16.9672H16.9649H16.9626H16.9603H16.958H16.9557H16.9534H16.9511H16.9488H16.9465H16.9442H16.942H16.9397H16.9374H16.9352H16.9329H16.9307H16.9285H16.9262H16.924H16.9218H16.9196H16.9174H16.9152H16.913H16.9108H16.9086H16.9064H16.9042H16.9021H16.8999H16.8977H16.8956H16.8935H16.8913H16.8892H16.887H16.8849H16.8828H16.8807H16.8786H16.8765H16.8744H16.8723H16.8702H16.8681H16.8661H16.864H16.8619H16.8599H16.8578H16.8558H16.8538H16.8517H16.8497H16.8477H16.8457H16.8437H16.8417H16.8397H16.8377H16.8357H16.8337H16.8317H16.8298H16.8278H16.8259H16.8239H16.822H16.82H16.8181H16.8162H16.8143H16.8123H16.1373L6.86327 19.4795H6.18742H6.18555H6.18367H6.18178H6.17989H6.17799H6.17608H6.17417H6.17225H6.17033H6.1684H6.16647H6.16453H6.16258H6.16062H6.15867H6.1567H6.15473H6.15275H6.15077H6.14878H6.14679H6.14478H6.14278H6.14077H6.13875H6.13672H6.13469H6.13266H6.13062H6.12857H6.12651H6.12446H6.12239H6.12032H6.11824H6.11616H6.11407H6.11198H6.10988H6.10778H6.10567H6.10355H6.10143H6.0993H6.09717H6.09503H6.09288H6.09073H6.08858H6.08642H6.08425H6.08208H6.0799H6.07771H6.07552H6.07333H6.07113H6.06892H6.06671H6.06449H6.06227H6.06004H6.05781H6.05557H6.05333H6.05108H6.04882H6.04656H6.04429H6.04202H6.03975H6.03746H6.03517H6.03288H6.03058H6.02828H6.02597H6.02366H6.02134H6.01901H6.01668H6.01434H6.012H6.00966H6.00731H6.00495H6.00259H6.00022H5.99785H5.99547H5.99309H5.9907H5.9883H5.98591H5.9835H5.98109H5.97868H5.97626H5.97384H5.97141H5.96897H5.96653H5.96409H5.96164H5.95918H5.95672H5.95426H5.95179H5.94931H5.94683H5.94435H5.94186H5.93936H5.93686H5.93436H5.93185H5.92934H5.92682H5.92429H5.92176H5.91923H5.91669H5.91414H5.91159H5.90904H5.90648H5.90392H5.90135H5.89878H5.8962H5.89361H5.89103H5.88843H5.88584H5.88323H5.88063H5.87802H5.8754H5.87278H5.87015H5.86752H5.86489H5.86225H5.8596H5.85695H5.8543H5.85164H5.84898H5.84631H5.84364H5.84096H5.83828H5.83559H5.8329H5.83021H5.82751H5.8248H5.82209H5.81938H5.81666H5.81394H5.81121H5.80848H5.80575H5.803H5.80026H5.79751H5.79476H5.792H5.78924H5.78647H5.7837H5.78092H5.77814H5.77536H5.77257H5.76977H5.76698H5.76417H5.76137H5.75856H5.75574H5.75292H5.7501H5.74727H5.74444H5.7416H5.73876H5.73592H5.73307H5.73022H5.72736H5.7245H5.72163H5.71876H5.71589H5.71301H5.71013H5.70724H5.70435H5.70145H5.69855H5.69565H5.69274H5.68983H5.68692H5.684H5.68108H5.67815H5.67522H5.67228H5.66934H5.6664H5.66345H5.6605H5.65755H5.65459H5.65162H5.64866H5.64568H5.64271H5.63973H5.63675H5.63376H5.63077H5.62778H5.62478H5.62178H5.61877H5.61576H5.61275H5.60973H5.60671H5.60368H5.60065H5.59762H5.59459H5.59155H5.5885H5.58545H5.5824H5.57935H5.57629H5.57323H5.57016H5.56709H5.56402H5.56094H5.55786H5.55478H5.55169H5.5486H5.5455H5.5424H5.5393H5.5362H5.53309H5.52997H5.52686H5.52374H5.52061H5.51749H5.51436H5.51122H5.50809H5.50494H5.5018H5.49865H5.4955H5.49235H5.48919H5.48603H5.48286H5.47969H5.47652H5.47335H5.47017H5.46699H5.4638H5.46061H5.45742H5.45423H5.45103H5.44783H5.44462H5.44141H5.4382H5.43499H5.43177H5.42855H5.42532H5.4221H5.41886H5.41563H5.41239H5.40915H5.40591H5.40266H5.39941H5.39616H5.3929H5.38965H5.38638H5.38312H5.37985H5.37658H5.3733H5.37003H5.36674H5.36346H5.36017H5.35688H5.35359H5.3503H5.347H5.3437H5.34039H5.33708H5.33377H5.33046H5.32714H5.32382H5.3205H5.31718H5.31385H5.31052H5.30718H5.30385H5.30051H5.29716H5.29382H5.29047H5.28712H5.28377H5.28041H5.27705H5.27369H5.27033H5.26696H5.26359H5.26022H5.25684H5.25346H5.25008H5.2467H5.24331H5.23992H5.23653H5.23314H5.22974H5.22634H5.22294H5.21953H5.21613H5.21272H5.2093H5.20589H5.20247H5.19905H5.19563H5.1922H5.18877H5.18534H5.18191H5.17848H5.17504H5.1716H5.16815H5.16471H5.16126H5.15781H5.15436H5.1509H5.14745H5.14399H5.14053H5.13706H5.13359H5.13013H5.12665H5.12318H5.1197H5.11623H5.11275H5.10926H5.10578H5.10229H5.0988H5.09531H5.09181H5.08832H5.08482H5.08132H5.07781H5.07431H5.0708H5.06729H5.06378H5.06027H5.05675H5.05323H5.04971H5.04619H5.04267H5.03914H5.03561H5.03208H5.02855H5.02501H5.02147H5.01793H5.01439H5.01085H5.00731H5.00376H5.00021H4.99666H4.99311H4.98955H4.98599H4.98244H4.97887H4.97531H4.97175H4.96818H4.96461H4.96104H4.95747H4.9539H4.95032H4.94674H4.94316H4.93958H4.936H4.93241H4.92883H4.92524H4.92165H4.91806H4.91446H4.91087H4.90727H4.90367H4.90007H4.89647H4.89287H4.88926H4.88565H4.88204H4.87843H4.87482H4.87121H4.86759H4.86398H4.86036H4.85674H4.85312H4.84949H4.84587H4.84224H4.83861H4.83498H4.83135H4.82772H4.82409H4.82045H4.81681H4.81317H4.80953H4.80589H4.80225H4.79861H4.79496H4.79131H4.78767H4.78402H4.78036H4.77671H4.77306H4.7694H4.76575H4.76209H4.75843H4.75477H4.75111H4.74744H4.74378H4.74011H4.73645H4.73278H4.72911H4.72544H4.72177H4.71809H4.71442H4.71074H4.70707H4.70339H4.69971H4.69603H4.69235H4.68866H4.68498H4.6813H4.67761H4.67392H4.67024H4.66655H4.66286H4.65917H4.65547H4.65178C4.34538 19.4795 3.9759 19.3981 3.67163 19.135C3.34438 18.852 3.09095 18.5002 2.89631 18.0532C2.7475 17.7114 2.90395 17.3136 3.24575 17.1648C3.58755 17.016 3.98527 17.1725 4.13408 17.5143C4.25664 17.7958 4.39557 17.976 4.55351 18.1128C4.5551 18.1138 4.55959 18.1161 4.56831 18.1188C4.58508 18.1241 4.61295 18.1295 4.65178 18.1295H4.65547H4.65917H4.66286H4.66655H4.67024H4.67392H4.67761H4.6813H4.68498H4.68866H4.69235H4.69603H4.69971H4.70339H4.70707H4.71074H4.71442H4.71809H4.72177H4.72544H4.72911H4.73278H4.73645H4.74011H4.74378H4.74744H4.75111H4.75477H4.75843H4.76209H4.76575H4.7694H4.77306H4.77671H4.78036H4.78402H4.78767H4.79131H4.79496H4.79861H4.80225H4.80589H4.80953H4.81317H4.81681H4.82045H4.82409H4.82772H4.83135H4.83498H4.83861H4.84224H4.84587H4.84949H4.85312H4.85674H4.86036H4.86398H4.86759H4.87121H4.87482H4.87843H4.88204H4.88565H4.88926H4.89287H4.89647H4.90007H4.90367H4.90727H4.91087H4.91446H4.91806H4.92165H4.92524H4.92883H4.93241H4.936H4.93958H4.94316H4.94674H4.95032H4.9539H4.95747H4.96104H4.96461H4.96818H4.97175H4.97531H4.97887H4.98244H4.98599H4.98955H4.99311H4.99666H5.00021H5.00376H5.00731H5.01085H5.01439H5.01793H5.02147H5.02501H5.02855H5.03208H5.03561H5.03914H5.04267H5.04619H5.04971H5.05323H5.05675H5.06027H5.06378H5.06729H5.0708H5.07431H5.07781H5.08132H5.08482H5.08832H5.09181H5.09531H5.0988H5.10229H5.10578H5.10926H5.11275H5.11623H5.1197H5.12318H5.12665H5.13013H5.13359H5.13706H5.14053H5.14399H5.14745H5.1509H5.15436H5.15781H5.16126H5.16471H5.16815H5.1716H5.17504H5.17848H5.18191H5.18534H5.18877H5.1922H5.19563H5.19905H5.20247H5.20589H5.2093H5.21272H5.21613H5.21953H5.22294H5.22634H5.22974H5.23314H5.23653H5.23992H5.24331H5.2467H5.25008H5.25346H5.25684H5.26022H5.26359H5.26696H5.27033H5.27369H5.27705H5.28041H5.28377H5.28712H5.29047H5.29382H5.29716H5.30051H5.30385H5.30718H5.31052H5.31385H5.31718H5.3205H5.32382H5.32714H5.33046H5.33377H5.33708H5.34039H5.3437H5.347H5.3503H5.35359H5.35688H5.36017H5.36346H5.36674H5.37003H5.3733H5.37658H5.37985H5.38312H5.38638H5.38965H5.3929H5.39616H5.39941H5.40266H5.40591H5.40915H5.41239H5.41563H5.41886H5.4221H5.42532H5.42855H5.43177H5.43499H5.4382H5.44141H5.44462H5.44783H5.45103H5.45423H5.45742H5.46061H5.4638H5.46699H5.47017H5.47335H5.47652H5.47969H5.48286H5.48603H5.48919H5.49235H5.49387L5.50145 16.218V16.2166V10.9158L5.45546 10.9141C5.06578 10.8996 4.66391 10.8845 4.28128 11.0233C4.06733 11.1008 3.89699 11.22 3.77213 11.4101C3.6435 11.606 3.52481 11.9361 3.5248 12.4997C3.5248 13.6111 3.54901 14.9479 3.74617 16.1045C3.80881 16.472 3.56168 16.8207 3.19419 16.8834C2.8267 16.946 2.47801 16.6989 2.41536 16.3314C2.19706 15.0507 2.1748 13.6117 2.1748 12.4997C2.17481 11.7498 2.33336 11.1417 2.64369 10.6691C2.9578 10.1907 3.38815 9.91111 3.82111 9.75413C4.4152 9.53872 5.09431 9.54414 5.50145 9.5606V6.24092C5.50145 4.76356 6.69908 3.56592 8.17645 3.56592H8.83803H10.1688C10.5416 3.56592 10.8438 3.86813 10.8438 4.24092C10.8438 4.61371 10.5416 4.91592 10.1688 4.91592H8.83803H8.17645ZM6.86158 18.1295H16.1373V16.893H14.1561H10.7334C10.3606 16.893 10.0584 16.5907 10.0584 16.218C10.0584 15.8452 10.3606 15.543 10.7334 15.543H14.1561H16.1373V14.6709C12.2308 13.1564 8.86009 14.0579 6.85732 14.708L6.85836 15.543H8.83838C9.21117 15.543 9.51338 15.8452 9.51338 16.218C9.51338 16.5907 9.21117 16.893 8.83838 16.893H6.86004L6.86158 18.1295ZM11.5916 4.24092C11.5916 3.86813 11.8938 3.56592 12.2666 3.56592H14.8227C16.3001 3.56592 17.4978 4.7636 17.4977 6.24099L17.4977 6.6445C17.4977 7.0173 17.1955 7.3195 16.8227 7.31949C16.4499 7.31948 16.1477 7.01726 16.1477 6.64447L16.1477 6.24095C16.1477 5.50916 15.5545 4.91592 14.8227 4.91592H12.2666C11.8938 4.91592 11.5916 4.61371 11.5916 4.24092Z" fill="#252323"/>
</g>
<defs>
<clipPath id="clip0_666_8858">
<rect width="23" height="23" fill="white"/>
</clipPath>
</defs>
</svg>
