<svg width="18" height="18" viewBox="0 0 18 18" fill="none" xmlns="http://www.w3.org/2000/svg">
<g clip-path="url(#clip0_666_8859)">
<path d="M8.08374 2.81885C8.42865 2.81917 8.70874 3.09887 8.70874 3.44385C8.70874 3.78883 8.42865 4.06853 8.08374 4.06885H6.95874C6.19944 4.06896 5.58374 4.68452 5.58374 5.44385V8.41455L5.58472 8.43311L5.58667 10.396C7.19097 9.91109 9.73233 9.37727 12.658 10.3481V8.34717C12.658 8.30859 12.6612 8.27024 12.6658 8.23291V7.12549C12.6658 6.78031 12.9456 6.5005 13.2908 6.50049C13.6357 6.50061 13.9155 6.77963 13.9158 7.12451V7.4165C14.2478 7.40774 14.7454 7.41829 15.1843 7.57568C15.5416 7.70394 15.9019 7.9337 16.1648 8.32959C16.4244 8.72083 16.5534 9.22014 16.5535 9.82373C16.5535 10.6983 16.5362 11.8386 16.3611 12.855C16.3022 13.1947 15.9783 13.4231 15.6384 13.3647C15.2985 13.3061 15.0703 12.9821 15.1287 12.6421C15.2838 11.7418 15.3035 10.6976 15.3035 9.82373C15.3034 9.3954 15.2119 9.1554 15.1228 9.021C15.037 8.89194 14.9188 8.80864 14.7625 8.75244C14.4893 8.65449 14.2056 8.65815 13.9158 8.66846V11.6304L13.9128 12.7886C13.9133 12.798 13.9158 12.8074 13.9158 12.8169V14.2173H14.4373C14.4817 14.2172 14.5107 14.2103 14.5251 14.2056L14.5271 14.2046C14.6305 14.0974 14.7328 13.9417 14.8269 13.728C14.966 13.4122 15.3352 13.2687 15.6511 13.4077C15.9667 13.5469 16.1104 13.9162 15.9714 14.2319C15.8329 14.5465 15.651 14.848 15.407 15.0942C15.1096 15.3943 14.7226 15.4672 14.4373 15.4673H12.658V15.4663H3.83081C3.53997 15.4663 3.16547 15.3915 2.86792 15.1128C2.6308 14.8906 2.44579 14.6207 2.30249 14.2915C2.16516 13.9752 2.31043 13.6069 2.62671 13.4692C2.94296 13.3317 3.31106 13.4764 3.44897 13.7925C3.53257 13.9845 3.62389 14.1084 3.72241 14.2007C3.71669 14.1954 3.7172 14.1991 3.73413 14.2046C3.75301 14.2107 3.78562 14.2163 3.83081 14.2163H4.32788L4.33374 12.8169V8.76025C4.04948 8.75004 3.77451 8.7459 3.50854 8.84229C3.35685 8.89729 3.2421 8.97982 3.15796 9.10791C3.0704 9.24139 2.98029 9.47963 2.98022 9.90674C2.98022 10.7765 2.99934 11.8161 3.1521 12.7124C3.20985 13.0524 2.98129 13.375 2.64136 13.4331C2.30118 13.4911 1.9778 13.2625 1.91968 12.9224C1.74734 11.9112 1.73022 10.777 1.73022 9.90674C1.73029 9.30674 1.85724 8.81095 2.11304 8.42139C2.37242 8.02644 2.72826 7.79602 3.08276 7.66748C3.51569 7.5106 4.00639 7.4997 4.33374 7.5083V5.44385C4.33374 3.99417 5.50909 2.81896 6.95874 2.81885H8.08374ZM12.658 11.6733C9.70149 10.5497 7.14674 11.2055 5.58862 11.7065L5.5896 12.1919H7.04175C7.38681 12.1919 7.66659 12.4719 7.66675 12.8169C7.66675 13.1621 7.38691 13.4419 7.04175 13.4419H5.59058L5.59155 14.2163H12.658V13.4419H8.62476C8.27968 13.4418 7.99976 13.162 7.99976 12.8169C7.99991 12.4719 8.27978 12.192 8.62476 12.1919H12.658V11.6733ZM11.2908 2.81885C12.7404 2.81899 13.9158 3.99419 13.9158 5.44385V5.7876C13.9155 6.1325 13.6357 6.41246 13.2908 6.4126C12.9458 6.41256 12.666 6.13256 12.6658 5.7876V5.44385C12.6658 4.68454 12.05 4.06899 11.2908 4.06885H9.62573C9.28055 4.06885 9.00073 3.78903 9.00073 3.44385C9.00073 3.09867 9.28055 2.81885 9.62573 2.81885H11.2908Z" fill="#332A2A"/>
</g>
<defs>
<clipPath id="clip0_666_8859">
<rect width="18" height="18" fill="white"/>
</clipPath>
</defs>
</svg>
