<svg width="18" height="18" viewBox="0 0 18 18" fill="none" xmlns="http://www.w3.org/2000/svg">
<g clip-path="url(#clip0_611_6333)">
<path d="M5.36353 5.74268C5.70852 5.74289 5.98853 6.02263 5.98853 6.36768C5.98853 6.71272 5.70852 6.99246 5.36353 6.99268C4.81673 6.99288 4.37349 7.43611 4.37329 7.98291V8.02686C4.58896 8.16857 4.73156 8.41256 4.73169 8.68994C4.73182 8.861 4.87114 9.00049 5.04224 9.00049H7.87622C8.2214 9.00049 8.50122 9.28031 8.50122 9.62549C8.50096 9.97044 8.22124 10.2505 7.87622 10.2505H5.04224C4.64786 10.2505 4.28858 10.1022 4.01392 9.86084V10.2241C4.01405 10.376 4.13737 10.4995 4.28931 10.4995H10.5696C10.9145 10.4997 11.1944 10.7796 11.1946 11.1245C11.1944 11.4695 10.9145 11.7493 10.5696 11.7495H4.63599L4.01099 12.3745C3.76693 12.6186 3.3703 12.6185 3.12622 12.3745C2.88239 12.1305 2.88254 11.7348 3.12622 11.4907L3.26489 11.3511C2.9581 11.0721 2.76399 10.6714 2.76392 10.2241V8.88135C2.76392 8.57513 2.90386 8.30118 3.12329 8.12061V7.98291C3.12349 6.74575 4.12637 5.74288 5.36353 5.74268ZM12.8645 5.74268C12.9142 5.74272 12.9627 5.75024 13.009 5.76123C14.1966 5.901 15.119 6.89882 15.1409 8.11865C15.3612 8.2987 15.5022 8.57263 15.5022 8.88037V10.2251C15.502 10.6725 15.3072 11.0723 15.0002 11.3511L15.1399 11.4907C15.3836 11.7348 15.3837 12.1305 15.1399 12.3745C14.8958 12.6184 14.4991 12.6185 14.2551 12.3745L13.6301 11.7495H12.0051C11.6601 11.7494 11.3803 11.4695 11.3801 11.1245C11.3803 10.7795 11.6601 10.4996 12.0051 10.4995H13.9768C14.1288 10.4995 14.2519 10.3767 14.2522 10.2251V9.86182C13.9777 10.1028 13.6188 10.2504 13.2249 10.2505H9.13306C8.7881 10.2504 8.50832 9.9704 8.50806 9.62549C8.50806 9.28035 8.78793 9.00055 9.13306 9.00049H13.2249C13.3958 9.00028 13.5343 8.86087 13.5344 8.68994C13.5345 8.41591 13.6736 8.17417 13.885 8.03174C13.8242 7.48647 13.3898 7.05409 12.843 6.99854L12.7239 6.99268H6.97974C6.63456 6.99268 6.35474 6.71285 6.35474 6.36768C6.35474 6.0225 6.63456 5.74268 6.97974 5.74268H12.8645Z" fill="#332A2A"/>
</g>
<defs>
<clipPath id="clip0_611_6333">
<rect width="18" height="18" fill="white"/>
</clipPath>
</defs>
</svg>
