<svg width="28" height="28" viewBox="0 0 28 28" fill="none" xmlns="http://www.w3.org/2000/svg">
<g clip-path="url(#clip0_611_6331)">
<path fill-rule="evenodd" clip-rule="evenodd" d="M6.33537 12.2241C6.3354 11.2227 7.14717 10.411 8.14854 10.411C8.53514 10.411 8.84854 10.0976 8.84854 9.71099C8.84854 9.32439 8.53514 9.01099 8.14854 9.01099C6.37398 9.01099 4.93541 10.4495 4.93537 12.2241L4.93537 12.5743C4.59861 12.8002 4.37695 13.1843 4.37695 13.6203L4.37695 16.2105C4.37695 16.7923 4.68746 17.3016 5.15181 17.5817L4.86121 17.8723C4.58784 18.1457 4.58784 18.5889 4.86121 18.8622C5.13457 19.1356 5.57779 19.1356 5.85116 18.8622L6.90269 17.8107H14.0125H16.2463C16.6329 17.8107 16.9463 17.4973 16.9463 17.1107C16.9463 16.7241 16.6329 16.4107 16.2463 16.4107H14.0125H5.9772C5.86661 16.4107 5.77695 16.3211 5.77695 16.2105V14.4491C6.16587 15.1536 6.91608 15.6308 7.77773 15.6308H10.1032H12.0578C12.4444 15.6308 12.7578 15.3174 12.7578 14.9308C12.7578 14.5442 12.4444 14.2308 12.0578 14.2308H10.1032H7.77773C7.2896 14.2308 6.89389 13.8351 6.89389 13.347C6.89389 12.9557 6.66582 12.6177 6.33537 12.4587L6.33537 12.2241ZM10.6616 9.01099C10.275 9.01099 9.96165 9.32439 9.96165 9.71099C9.96165 10.0976 10.275 10.411 10.6616 10.411H19.5971C20.7379 10.411 21.6654 11.3239 21.689 12.459C21.3589 12.6181 21.131 12.9559 21.131 13.347C21.131 13.8351 20.7353 14.2308 20.2472 14.2308H14.0125C13.6259 14.2308 13.3125 14.5442 13.3125 14.9308C13.3125 15.3174 13.6259 15.6308 14.0125 15.6308L20.2472 15.6308C21.1089 15.6308 21.8591 15.1536 22.248 14.4491V16.2106C22.248 16.3211 22.1585 16.4107 22.0477 16.4107H18.4802C18.0936 16.4107 17.7802 16.7241 17.7802 17.1107C17.7802 17.4973 18.0936 17.8107 18.4802 17.8107H21.1222L22.1738 18.8622C22.4471 19.1356 22.8903 19.1356 23.1637 18.8622C23.4371 18.5889 23.4371 18.1457 23.1637 17.8723L22.8731 17.5817C23.3374 17.3017 23.648 16.7925 23.648 16.2106V13.6193C23.648 13.1827 23.426 12.7993 23.0895 12.574V12.5033C23.0895 10.7077 21.7344 9.22866 19.9911 9.03296C19.9352 9.01861 19.8767 9.01099 19.8164 9.01099H19.5971H10.6616Z" fill="#252323"/>
</g>
<defs>
<clipPath id="clip0_611_6331">
<rect width="28" height="28" fill="white"/>
</clipPath>
</defs>
</svg>
