<svg width="44" height="44" viewBox="0 0 44 44" fill="none" xmlns="http://www.w3.org/2000/svg">
<g clip-path="url(#clip0_189_315)">
<path fill-rule="evenodd" clip-rule="evenodd" d="M23.5481 37.0392C31.2543 27.3077 34.6273 23.0483 34.6273 16.6389C34.6273 9.73014 28.8251 4.12952 21.6678 4.12952C14.5104 4.12952 8.70825 9.73014 8.70825 16.6389C8.70825 22.7621 11.9486 26.9231 18.8362 35.7677C19.7197 36.9022 20.6633 38.1139 21.6678 39.4167C22.3211 38.5886 22.9478 37.7972 23.5481 37.0392ZM21.5416 23.8333C25.8448 23.8333 29.3333 20.3449 29.3333 16.0417C29.3333 11.7385 25.8448 8.25001 21.5416 8.25001C17.2384 8.25001 13.7499 11.7385 13.7499 16.0417C13.7499 20.3449 17.2384 23.8333 21.5416 23.8333Z" fill="#E05149"/>
<path fill-rule="evenodd" clip-rule="evenodd" d="M9.45825 16.6389C9.45825 10.1691 14.8994 4.87952 21.6678 4.87952C28.4361 4.87952 33.8773 10.1691 33.8773 16.6389C33.8773 17.0531 34.2131 17.3889 34.6273 17.3889C35.0415 17.3889 35.3773 17.0531 35.3773 16.6389C35.3773 9.29115 29.2141 3.37952 21.6678 3.37952C14.1214 3.37952 7.95825 9.29115 7.95825 16.6389C7.95825 21.0103 9.54364 24.4106 12.6779 28.8726C12.9159 29.2116 13.3837 29.2934 13.7227 29.0553C14.0616 28.8172 14.1434 28.3494 13.9053 28.0105C10.8442 23.6524 9.45825 20.5598 9.45825 16.6389ZM32.0077 26.9842C32.229 26.634 32.1246 26.1708 31.7745 25.9494C31.4244 25.7281 30.9612 25.8324 30.7398 26.1825C28.964 28.9912 26.414 32.2116 22.9641 36.5684L22.9641 36.5685C22.5474 37.0947 22.1175 37.6375 21.6743 38.1982C20.8865 37.1798 20.1357 36.2158 19.4248 35.3028C18.7963 34.4957 18.1989 33.7286 17.6346 32.9994C17.3811 32.6718 16.9101 32.6117 16.5825 32.8652C16.2549 33.1187 16.1948 33.5897 16.4483 33.9173C17.02 34.6561 17.6187 35.425 18.247 36.2318L18.2476 36.2326L18.248 36.2331C19.1294 37.3649 20.069 38.5714 21.0738 39.8746C21.2149 40.0576 21.4325 40.1654 21.6636 40.1667C21.8947 40.168 22.1134 40.0627 22.2566 39.8812C22.9072 39.0566 23.5322 38.2673 24.132 37.51C27.5757 33.1615 30.1856 29.866 32.0077 26.9842ZM14.4999 16.1183C14.4999 12.187 17.6869 9.00001 21.6182 9.00001C25.5495 9.00001 28.7365 12.187 28.7365 16.1183C28.7365 20.0496 25.5495 23.2366 21.6182 23.2366C20.7155 23.2366 19.8537 23.0689 19.0611 22.7637C18.6745 22.6148 18.2405 22.8075 18.0917 23.1941C17.9428 23.5806 18.1355 24.0146 18.5221 24.1635C19.484 24.5339 20.5283 24.7366 21.6182 24.7366C26.3779 24.7366 30.2365 20.878 30.2365 16.1183C30.2365 11.3585 26.3779 7.50001 21.6182 7.50001C16.8585 7.50001 12.9999 11.3585 12.9999 16.1183C12.9999 18.6809 14.1193 20.9829 15.8933 22.5605C16.2028 22.8357 16.6769 22.8079 16.9521 22.4984C17.2274 22.1889 17.1996 21.7148 16.8901 21.4396C15.4226 20.1346 14.4999 18.2347 14.4999 16.1183Z" fill="#332A2A"/>
</g>
<defs>
<clipPath id="clip0_189_315">
<rect width="44" height="44" fill="white"/>
</clipPath>
</defs>
</svg>
