<svg width="44" height="45" viewBox="0 0 44 45" fill="none" xmlns="http://www.w3.org/2000/svg">
<g clip-path="url(#clip0_189_315)">
<path fill-rule="evenodd" clip-rule="evenodd" d="M23.5482 37.5392C31.2544 27.8077 34.6274 23.5483 34.6274 17.1389C34.6274 10.2301 28.8252 4.62952 21.6679 4.62952C14.5105 4.62952 8.70837 10.2301 8.70837 17.1389C8.70837 23.2621 11.9487 27.4231 18.8363 36.2677C19.7199 37.4022 20.6634 38.6139 21.6679 39.9167C22.3213 39.0886 22.9479 38.2972 23.5482 37.5392ZM21.5417 24.3333C25.8449 24.3333 29.3334 20.8449 29.3334 16.5417C29.3334 12.2385 25.8449 8.75001 21.5417 8.75001C17.2385 8.75001 13.75 12.2385 13.75 16.5417C13.75 20.8449 17.2385 24.3333 21.5417 24.3333Z" fill="#E05149"/>
<path fill-rule="evenodd" clip-rule="evenodd" d="M9.45837 17.1389C9.45837 10.6691 14.8995 5.37952 21.6679 5.37952C28.4362 5.37952 33.8774 10.6691 33.8774 17.1389C33.8774 17.5531 34.2132 17.8889 34.6274 17.8889C35.0416 17.8889 35.3774 17.5531 35.3774 17.1389C35.3774 9.79115 29.2142 3.87952 21.6679 3.87952C14.1215 3.87952 7.95837 9.79115 7.95837 17.1389C7.95837 21.5103 9.54376 24.9106 12.678 29.3726C12.9161 29.7116 13.3838 29.7934 13.7228 29.5553C14.0617 29.3172 14.1435 28.8494 13.9054 28.5105C10.8443 24.1524 9.45837 21.0598 9.45837 17.1389ZM32.0078 27.4842C32.2291 27.134 32.1248 26.6708 31.7747 26.4494C31.4246 26.2281 30.9613 26.3324 30.7399 26.6825C28.9641 29.4912 26.4141 32.7116 22.9642 37.0684L22.9642 37.0685C22.5475 37.5947 22.1176 38.1375 21.6745 38.6982C20.8866 37.6798 20.1359 36.7158 19.4249 35.8028C18.7964 34.9957 18.1991 34.2286 17.6347 33.4994C17.3813 33.1718 16.9102 33.1117 16.5826 33.3652C16.255 33.6187 16.1949 34.0897 16.4484 34.4173C17.0201 35.1561 17.6189 35.925 18.2472 36.7318L18.2478 36.7326L18.2481 36.7331C19.1295 37.8649 20.0691 39.0714 21.0739 40.3746C21.215 40.5576 21.4326 40.6654 21.6637 40.6667C21.8948 40.668 22.1136 40.5627 22.2567 40.3812C22.9073 39.5566 23.5324 38.7673 24.1322 38.01C27.5758 33.6615 30.1857 30.366 32.0078 27.4842ZM14.5 16.6183C14.5 12.687 17.687 9.50001 21.6183 9.50001C25.5496 9.50001 28.7366 12.687 28.7366 16.6183C28.7366 20.5496 25.5496 23.7366 21.6183 23.7366C20.7156 23.7366 19.8538 23.5689 19.0612 23.2637C18.6747 23.1148 18.2407 23.3075 18.0918 23.6941C17.943 24.0806 18.1357 24.5146 18.5222 24.6635C19.4841 25.0339 20.5284 25.2366 21.6183 25.2366C26.3781 25.2366 30.2366 21.378 30.2366 16.6183C30.2366 11.8585 26.3781 8.00001 21.6183 8.00001C16.8586 8.00001 13 11.8585 13 16.6183C13 19.1809 14.1194 21.4829 15.8934 23.0605C16.203 23.3357 16.677 23.3079 16.9523 22.9984C17.2275 22.6889 17.1997 22.2148 16.8902 21.9396C15.4227 20.6346 14.5 18.7347 14.5 16.6183Z" fill="#252323"/>
</g>
<defs>
<clipPath id="clip0_189_315">
<rect width="44" height="44" fill="white" transform="translate(0 0.5)"/>
</clipPath>
</defs>
</svg>
