<svg width="18" height="19" viewBox="0 0 18 19" fill="none" xmlns="http://www.w3.org/2000/svg">
<g clip-path="url(#clip0_597_3192)">
<path fill-rule="evenodd" clip-rule="evenodd" d="M9.63335 15.6524C12.7859 11.6713 14.1657 9.92882 14.1657 7.30679C14.1657 4.48049 11.7921 2.18933 8.86412 2.18933C5.93612 2.18933 3.5625 4.48049 3.5625 7.30679C3.5625 9.81174 4.88809 11.514 7.70575 15.1322C8.0672 15.5964 8.45321 16.092 8.86412 16.625C9.13141 16.2862 9.38776 15.9625 9.63335 15.6524ZM8.8125 10.25C10.5729 10.25 12 8.8229 12 7.06249C12 5.30208 10.5729 3.87499 8.8125 3.87499C7.05209 3.87499 5.625 5.30208 5.625 7.06249C5.625 8.8229 7.05209 10.25 8.8125 10.25Z" fill="#E05149"/>
<path fill-rule="evenodd" clip-rule="evenodd" d="M4.1875 7.30679C4.1875 4.84632 6.26028 2.81433 8.86412 2.81433C11.468 2.81433 13.5407 4.84632 13.5407 7.30679C13.5407 7.65197 13.8206 7.93179 14.1657 7.93179C14.5109 7.93179 14.7907 7.65197 14.7907 7.30679C14.7907 4.11467 12.1163 1.56433 8.86412 1.56433C5.61195 1.56433 2.9375 4.11467 2.9375 7.30679C2.9375 9.19066 3.62838 10.6469 4.92606 12.4944C5.12446 12.7769 5.51428 12.845 5.79674 12.6466C6.0792 12.4482 6.14734 12.0584 5.94894 11.7759C4.71217 10.0152 4.1875 8.81523 4.1875 7.30679ZM13.363 11.709C13.5475 11.4172 13.4605 11.0312 13.1687 10.8467C12.877 10.6623 12.4909 10.7492 12.3065 11.041C11.5898 12.1745 10.5593 13.476 9.1466 15.2602L8.86939 15.6104C8.63678 15.3105 8.41233 15.0223 8.19704 14.7458L8.19627 14.7449C7.93915 14.4147 7.6951 14.1013 7.46584 13.805C7.2546 13.532 6.86205 13.4819 6.58906 13.6932C6.31606 13.9044 6.26601 14.297 6.47725 14.57C6.71279 14.8744 6.9581 15.1894 7.2152 15.5195L7.2154 15.5198C7.57511 15.9817 7.95787 16.4732 8.36915 17.0066C8.48674 17.1591 8.66806 17.2489 8.86063 17.25C9.05319 17.2511 9.23551 17.1633 9.35479 17.0121C9.61958 16.6765 9.87446 16.3547 10.1194 16.0454L10.1199 16.0447C11.5274 14.2676 12.6078 12.9035 13.363 11.709ZM6.25 7.59384C6.25 6.1613 7.4113 5 8.84384 5C10.2764 5 11.4377 6.1613 11.4377 7.59384C11.4377 9.02638 10.2764 10.1877 8.84384 10.1877C8.49866 10.1877 8.21884 10.4675 8.21884 10.8127C8.21884 11.1579 8.49866 11.4377 8.84384 11.4377C10.9667 11.4377 12.6877 9.71673 12.6877 7.59384C12.6877 5.47095 10.9667 3.75 8.84384 3.75C6.72095 3.75 5 5.47095 5 7.59384C5 8.7368 5.49965 9.76387 6.2904 10.467C6.54835 10.6964 6.9434 10.6733 7.17277 10.4153C7.40215 10.1574 7.37899 9.76233 7.12104 9.53295C6.58573 9.05693 6.25 8.365 6.25 7.59384Z" fill="#252323"/>
</g>
<defs>
<clipPath id="clip0_597_3192">
<rect width="18" height="18" fill="white" transform="translate(0 0.5)"/>
</clipPath>
</defs>
</svg>
