<svg width="18" height="18" viewBox="0 0 18 18" fill="none" xmlns="http://www.w3.org/2000/svg">
<g clip-path="url(#clip0_597_3206)">
<path fill-rule="evenodd" clip-rule="evenodd" d="M4.1875 6.80679C4.1875 4.34632 6.26028 2.31433 8.86412 2.31433C11.468 2.31433 13.5407 4.34632 13.5407 6.80679C13.5407 7.15197 13.8206 7.43179 14.1657 7.43179C14.5109 7.43179 14.7907 7.15197 14.7907 6.80679C14.7907 3.61467 12.1163 1.06433 8.86412 1.06433C5.61195 1.06433 2.9375 3.61467 2.9375 6.80679C2.9375 8.69066 3.62838 10.1469 4.92606 11.9944C5.12446 12.2769 5.51428 12.345 5.79674 12.1466C6.0792 11.9482 6.14734 11.5584 5.94894 11.2759C4.71217 9.51517 4.1875 8.31523 4.1875 6.80679ZM13.363 11.209C13.5475 10.9172 13.4605 10.5312 13.1687 10.3467C12.877 10.1623 12.4909 10.2492 12.3065 10.541C11.5898 11.6745 10.5593 12.976 9.1466 14.7602L8.86939 15.1104C8.63678 14.8105 8.41233 14.5223 8.19704 14.2458L8.19627 14.2449C7.93915 13.9147 7.6951 13.6013 7.46584 13.305C7.2546 13.032 6.86205 12.9819 6.58906 13.1932C6.31606 13.4044 6.26601 13.797 6.47725 14.07C6.71279 14.3744 6.9581 14.6894 7.2152 15.0195L7.2154 15.0198C7.57511 15.4817 7.95787 15.9732 8.36915 16.5066C8.48674 16.6591 8.66806 16.7489 8.86063 16.75C9.05319 16.7511 9.23551 16.6633 9.35479 16.5121C9.61958 16.1765 9.87446 15.8547 10.1194 15.5454L10.1199 15.5447C11.5274 13.7676 12.6078 12.4035 13.363 11.209ZM6.25 7.09384C6.25 5.6613 7.4113 4.5 8.84384 4.5C10.2764 4.5 11.4377 5.6613 11.4377 7.09384C11.4377 8.52638 10.2764 9.68768 8.84384 9.68768C8.49866 9.68768 8.21884 9.9675 8.21884 10.3127C8.21884 10.6579 8.49866 10.9377 8.84384 10.9377C10.9667 10.9377 12.6877 9.21673 12.6877 7.09384C12.6877 4.97095 10.9667 3.25 8.84384 3.25C6.72095 3.25 5 4.97095 5 7.09384C5 8.2368 5.49965 9.26387 6.2904 9.96705C6.54835 10.1964 6.9434 10.1733 7.17277 9.91532C7.40215 9.65738 7.37899 9.26233 7.12104 9.03295C6.58573 8.55693 6.25 7.865 6.25 7.09384Z" fill="#332A2A"/>
</g>
<defs>
<clipPath id="clip0_597_3206">
<rect width="18" height="18" fill="white"/>
</clipPath>
</defs>
</svg>
