<svg width="28" height="29" viewBox="0 0 28 29" fill="none" xmlns="http://www.w3.org/2000/svg">
<g clip-path="url(#clip0_597_3204)">
<path fill-rule="evenodd" clip-rule="evenodd" d="M6.29175 11.0884C6.29175 7.13089 9.62304 3.87787 13.7887 3.87787C17.9544 3.87787 21.2857 7.13089 21.2857 11.0884C21.2857 11.5026 21.6215 11.8384 22.0357 11.8384C22.4499 11.8384 22.7857 11.5026 22.7857 11.0884C22.7857 6.25292 18.7324 2.37787 13.7887 2.37787C8.84504 2.37787 4.79175 6.25292 4.79175 11.0884C4.79175 13.9521 5.8369 16.1718 7.84469 19.0303C8.08277 19.3692 8.55055 19.451 8.8895 19.2129C9.22846 18.9748 9.31023 18.507 9.07214 18.1681C7.13744 15.4137 6.29175 13.5016 6.29175 11.0884ZM20.5992 17.8175C20.8205 17.4674 20.7162 17.0041 20.366 16.7827C20.0159 16.5614 19.5527 16.6658 19.3313 17.0159C18.2096 18.7899 16.5978 20.8256 14.4013 23.5997L14.4012 23.5997L14.3975 23.6045C14.2014 23.8521 14.0006 24.1056 13.7952 24.3654C13.3713 23.8184 12.9644 23.296 12.5765 22.7978L12.5753 22.7963C12.1754 22.2827 11.7956 21.795 11.4379 21.3327C11.1844 21.0051 10.7133 20.945 10.3857 21.1985C10.0581 21.452 9.99806 21.9231 10.2515 22.2507C10.6166 22.7225 10.9978 23.212 11.3976 23.7253L11.3982 23.726L11.3984 23.7263C11.9585 24.4456 12.5551 25.2117 13.1948 26.0413C13.3359 26.2243 13.5534 26.332 13.7845 26.3333C14.0156 26.3346 14.2344 26.2293 14.3775 26.0479C14.7905 25.5244 15.1877 25.0229 15.5692 24.5412L15.5693 24.5411C17.7595 21.7755 19.4312 19.6647 20.5992 17.8175ZM9.50012 11.0071C9.50012 8.65596 11.4061 6.75 13.7572 6.75C16.1083 6.75 18.0143 8.65596 18.0143 11.0071C18.0143 13.3582 16.1083 15.2642 13.7572 15.2642C13.343 15.2642 13.0072 15.6 13.0072 16.0142C13.0072 16.4284 13.343 16.7642 13.7572 16.7642C16.9368 16.7642 19.5143 14.1866 19.5143 11.0071C19.5143 7.82753 16.9368 5.25 13.7572 5.25C10.5777 5.25 8.00012 7.82753 8.00012 11.0071C8.00012 12.7189 8.74821 14.257 9.93286 15.3105C10.2424 15.5857 10.7165 15.5579 10.9917 15.2484C11.267 14.9389 11.2392 14.4648 10.9296 14.1895C10.0515 13.4087 9.50012 12.2728 9.50012 11.0071Z" fill="#252323"/>
</g>
<defs>
<clipPath id="clip0_597_3204">
<rect width="28" height="28" fill="white" transform="translate(0 0.5)"/>
</clipPath>
</defs>
</svg>
