<svg width="28" height="28" viewBox="0 0 28 28" fill="none" xmlns="http://www.w3.org/2000/svg">
<g clip-path="url(#clip0_597_3170)">
<path fill-rule="evenodd" clip-rule="evenodd" d="M14.9853 23.5704C19.8892 17.3777 22.0357 14.6671 22.0357 10.5884C22.0357 6.1919 18.3434 2.62787 13.7887 2.62787C9.23404 2.62787 5.54175 6.1919 5.54175 10.5884C5.54175 14.485 7.60378 17.1329 11.9868 22.7612C12.5491 23.4832 13.1495 24.2543 13.7887 25.0833C14.2045 24.5563 14.6033 24.0528 14.9853 23.5704ZM13.7084 15.1667C16.4468 15.1667 18.6667 12.9467 18.6667 10.2083C18.6667 7.46992 16.4468 5.25 13.7084 5.25C10.97 5.25 8.75008 7.46992 8.75008 10.2083C8.75008 12.9467 10.97 15.1667 13.7084 15.1667Z" fill="#E05149"/>
<path fill-rule="evenodd" clip-rule="evenodd" d="M6.29175 10.5884C6.29175 6.63089 9.62304 3.37787 13.7887 3.37787C17.9544 3.37787 21.2857 6.63089 21.2857 10.5884C21.2857 11.0026 21.6215 11.3384 22.0357 11.3384C22.4499 11.3384 22.7857 11.0026 22.7857 10.5884C22.7857 5.75292 18.7324 1.87787 13.7887 1.87787C8.84504 1.87787 4.79175 5.75292 4.79175 10.5884C4.79175 13.4521 5.8369 15.6718 7.84469 18.5303C8.08277 18.8692 8.55055 18.951 8.8895 18.7129C9.22846 18.4748 9.31023 18.007 9.07214 17.6681C7.13744 14.9137 6.29175 13.0016 6.29175 10.5884ZM20.5992 17.3175C20.8205 16.9674 20.7162 16.5041 20.366 16.2827C20.0159 16.0614 19.5527 16.1658 19.3313 16.5159C18.2096 18.2899 16.5978 20.3256 14.4013 23.0997L14.4012 23.0997L14.3975 23.1045C14.2014 23.3521 14.0006 23.6056 13.7952 23.8654C13.3713 23.3184 12.9644 22.796 12.5765 22.2978L12.5753 22.2963C12.1754 21.7827 11.7956 21.295 11.4379 20.8327C11.1844 20.5051 10.7133 20.445 10.3857 20.6985C10.0581 20.952 9.99806 21.4231 10.2515 21.7507C10.6166 22.2225 10.9978 22.712 11.3976 23.2253L11.3982 23.226L11.3984 23.2263C11.9585 23.9456 12.5551 24.7117 13.1948 25.5413C13.3359 25.7243 13.5534 25.832 13.7845 25.8333C14.0156 25.8346 14.2344 25.7293 14.3775 25.5479C14.7905 25.0244 15.1877 24.5229 15.5692 24.0412L15.5693 24.0411C17.7595 21.2755 19.4312 19.1647 20.5992 17.3175ZM9.50012 10.5071C9.50012 8.15596 11.4061 6.25 13.7572 6.25C16.1083 6.25 18.0143 8.15596 18.0143 10.5071C18.0143 12.8582 16.1083 14.7642 13.7572 14.7642C13.343 14.7642 13.0072 15.1 13.0072 15.5142C13.0072 15.9284 13.343 16.2642 13.7572 16.2642C16.9368 16.2642 19.5143 13.6866 19.5143 10.5071C19.5143 7.32753 16.9368 4.75 13.7572 4.75C10.5777 4.75 8.00012 7.32753 8.00012 10.5071C8.00012 12.2189 8.74821 13.757 9.93286 14.8105C10.2424 15.0857 10.7165 15.0579 10.9917 14.7484C11.267 14.4389 11.2392 13.9648 10.9296 13.6895C10.0515 12.9087 9.50012 11.7728 9.50012 10.5071Z" fill="#332A2A"/>
</g>
<defs>
<clipPath id="clip0_597_3170">
<rect width="28" height="28" fill="white"/>
</clipPath>
</defs>
</svg>
