<svg width="23" height="23" viewBox="0 0 23 23" fill="none" xmlns="http://www.w3.org/2000/svg">
<g clip-path="url(#clip0_597_3181)">
<path fill-rule="evenodd" clip-rule="evenodd" d="M12.3092 19.3614C16.3374 14.2745 18.1006 12.048 18.1006 8.6976C18.1006 5.08623 15.0676 2.15863 11.3263 2.15863C7.58496 2.15863 4.552 5.08623 4.552 8.6976C4.552 11.8984 6.24581 14.0734 9.84616 18.6967C10.308 19.2898 10.8012 19.9232 11.3263 20.6042C11.6678 20.1713 11.9954 19.7577 12.3092 19.3614ZM11.2603 12.4584C13.5097 12.4584 15.3333 10.6349 15.3333 8.38544C15.3333 6.13603 13.5097 4.31253 11.2603 4.31253C9.01093 4.31253 7.18742 6.13603 7.18742 8.38544C7.18742 10.6349 9.01093 12.4584 11.2603 12.4584Z" fill="#E05149"/>
<path fill-rule="evenodd" clip-rule="evenodd" d="M5.2272 8.69755C5.2272 5.48127 7.93525 2.83358 11.3265 2.83358C14.7177 2.83358 17.4258 5.48127 17.4258 8.69755C17.4258 9.07035 17.728 9.37255 18.1008 9.37255C18.4736 9.37255 18.7758 9.07035 18.7758 8.69755C18.7758 4.69109 15.4179 1.48358 11.3265 1.48358C7.23505 1.48358 3.8772 4.69109 3.8772 8.69755C3.8772 11.0676 4.74355 12.903 6.39568 15.2551C6.60995 15.5602 7.03095 15.6338 7.33601 15.4195C7.64107 15.2052 7.71466 14.7842 7.50039 14.4792C5.91404 12.2207 5.2272 10.6621 5.2272 8.69755ZM16.9706 14.2565C17.1698 13.9414 17.0759 13.5245 16.7608 13.3253C16.4457 13.1261 16.0288 13.22 15.8295 13.5351C14.91 14.9895 13.5883 16.6587 11.7837 18.9378L11.3323 19.5081C11.0005 19.0801 10.6815 18.6705 10.3767 18.2791L10.3762 18.2784L10.376 18.2782C10.0475 17.8563 9.73556 17.4558 9.44204 17.0765C9.2139 16.7816 8.78994 16.7276 8.49511 16.9557C8.20028 17.1839 8.14622 17.6078 8.37436 17.9026C8.67468 18.2908 8.988 18.6931 9.31649 19.1149C9.77654 19.7057 10.2664 20.3346 10.7919 21.0163C10.9189 21.181 11.1147 21.278 11.3227 21.2791C11.5307 21.2803 11.7276 21.1855 11.8564 21.0222C12.1954 20.5926 12.5215 20.1809 12.8347 19.7854L12.8349 19.7851L12.8349 19.7851C14.6339 17.5136 16.0094 15.7768 16.9706 14.2565ZM7.86274 8.9254C7.86274 7.02667 9.40197 5.48744 11.3007 5.48744C13.1994 5.48744 14.7387 7.02667 14.7387 8.9254C14.7387 10.8241 13.1994 12.3634 11.3007 12.3634C10.9279 12.3634 10.6257 12.6656 10.6257 13.0384C10.6257 13.4112 10.9279 13.7134 11.3007 13.7134C13.945 13.7134 16.0887 11.5697 16.0887 8.9254C16.0887 6.28108 13.945 4.13744 11.3007 4.13744C8.65639 4.13744 6.51274 6.28108 6.51274 8.9254C6.51274 10.3491 7.13497 11.6283 8.12012 12.5044C8.3987 12.7521 8.82535 12.7271 9.07308 12.4485C9.3208 12.1699 9.29579 11.7433 9.01721 11.4955C8.30795 10.8648 7.86274 9.94753 7.86274 8.9254Z" fill="#332A2A"/>
</g>
<defs>
<clipPath id="clip0_597_3181">
<rect width="23" height="23" fill="white"/>
</clipPath>
</defs>
</svg>
