<svg width="23" height="24" viewBox="0 0 23 24" fill="none" xmlns="http://www.w3.org/2000/svg">
<g clip-path="url(#clip0_597_3205)">
<path fill-rule="evenodd" clip-rule="evenodd" d="M5.2272 9.19755C5.2272 5.98127 7.93525 3.33358 11.3265 3.33358C14.7177 3.33358 17.4258 5.98127 17.4258 9.19755C17.4258 9.57035 17.728 9.87255 18.1008 9.87255C18.4736 9.87255 18.7758 9.57035 18.7758 9.19755C18.7758 5.19109 15.4179 1.98358 11.3265 1.98358C7.23505 1.98358 3.8772 5.19109 3.8772 9.19755C3.8772 11.5676 4.74355 13.403 6.39568 15.7551C6.60995 16.0602 7.03095 16.1338 7.33601 15.9195C7.64107 15.7052 7.71466 15.2842 7.50039 14.9792C5.91404 12.7207 5.2272 11.1621 5.2272 9.19755ZM16.9706 14.7565C17.1698 14.4414 17.0759 14.0245 16.7608 13.8253C16.4457 13.6261 16.0288 13.72 15.8295 14.0351C14.91 15.4895 13.5883 17.1587 11.7837 19.4378L11.3323 20.0081C11.0005 19.5801 10.6815 19.1705 10.3767 18.7791L10.3762 18.7784L10.376 18.7782C10.0475 18.3563 9.73556 17.9558 9.44204 17.5765C9.2139 17.2816 8.78994 17.2276 8.49511 17.4557C8.20028 17.6839 8.14622 18.1078 8.37436 18.4026C8.67468 18.7908 8.988 19.1931 9.31649 19.6149C9.77654 20.2057 10.2664 20.8346 10.7919 21.5163C10.9189 21.681 11.1147 21.778 11.3227 21.7791C11.5307 21.7803 11.7276 21.6855 11.8564 21.5222C12.1954 21.0926 12.5215 20.6809 12.8347 20.2854L12.8349 20.2851L12.8349 20.2851C14.6339 18.0136 16.0094 16.2768 16.9706 14.7565ZM7.86274 9.4254C7.86274 7.52667 9.40197 5.98744 11.3007 5.98744C13.1994 5.98744 14.7387 7.52667 14.7387 9.4254C14.7387 11.3241 13.1994 12.8634 11.3007 12.8634C10.9279 12.8634 10.6257 13.1656 10.6257 13.5384C10.6257 13.9112 10.9279 14.2134 11.3007 14.2134C13.945 14.2134 16.0887 12.0697 16.0887 9.4254C16.0887 6.78108 13.945 4.63744 11.3007 4.63744C8.65639 4.63744 6.51274 6.78108 6.51274 9.4254C6.51274 10.8491 7.13497 12.1283 8.12012 13.0044C8.3987 13.2521 8.82535 13.2271 9.07308 12.9485C9.3208 12.6699 9.29579 12.2433 9.01721 11.9955C8.30795 11.3648 7.86274 10.4475 7.86274 9.4254Z" fill="#252323"/>
</g>
<defs>
<clipPath id="clip0_597_3205">
<rect width="23" height="23" fill="white" transform="translate(0 0.5)"/>
</clipPath>
</defs>
</svg>
