<svg width="18" height="18" viewBox="0 0 18 18" fill="none" xmlns="http://www.w3.org/2000/svg">
<g clip-path="url(#clip0_1424_12744)">
<rect x="5.25" y="8.625" width="7.5" height="6.75" rx="2" fill="#E05149"/>
<path d="M9 2C9.83331 2 10.5178 2.2021 11.0645 2.56445C11.6083 2.92509 11.975 3.41756 12.2207 3.93457C12.7015 4.94619 12.75 6.12016 12.75 6.83301V8.20117C13.1201 8.38528 13.3749 8.76657 13.375 9.20801V10.375C13.375 10.7202 13.0952 11 12.75 11C12.4048 11 12.125 10.7202 12.125 10.375V9.33301H5.875V14.375L5.88281 14.4502C5.91765 14.6212 6.06866 14.75 6.25 14.75H7.125L7.25098 14.7627C7.53577 14.821 7.75 15.073 7.75 15.375C7.75 15.677 7.53577 15.929 7.25098 15.9873L7.125 16H6.25C5.4086 16 4.71696 15.3605 4.63379 14.541L4.625 14.375V9.20801L4.63086 9.09375C4.67056 8.70133 4.9122 8.36919 5.25 8.20117V6.77734C5.25001 6.06486 5.29856 4.90278 5.78125 3.90332C6.02824 3.39197 6.39612 2.90694 6.94043 2.55273C7.48664 2.19729 8.16916 2 9 2ZM12.75 11.417C13.0952 11.417 13.375 11.6968 13.375 12.042V14.375C13.375 15.2725 12.6475 16 11.75 16H9C8.65482 16 8.375 15.7202 8.375 15.375C8.375 15.0298 8.65482 14.75 9 14.75H11.75C11.9571 14.75 12.125 14.5821 12.125 14.375V12.042C12.125 11.6968 12.4048 11.417 12.75 11.417ZM8.97559 10.375C9.32047 10.3752 9.60042 10.6551 9.60059 11C9.60052 11.1335 9.5577 11.2569 9.48633 11.3584C9.49162 11.3728 9.49786 11.3873 9.50195 11.4023L9.8457 12.6602C9.93209 12.9779 9.69251 13.2916 9.36328 13.292H8.58887C8.25931 13.2919 8.01985 12.9781 8.10645 12.6602L8.4502 11.4023C8.45428 11.3874 8.45958 11.3728 8.46484 11.3584C8.39366 11.257 8.35065 11.1333 8.35059 11C8.35075 10.6551 8.63072 10.3752 8.97559 10.375ZM9 3.25C8.37251 3.25 7.93523 3.3968 7.62207 3.60059C7.30717 3.80556 7.07588 4.09516 6.90625 4.44629C6.55577 5.1719 6.50001 6.0859 6.5 6.77734V8.08301H11.5V6.83301C11.5 6.14191 11.4441 5.21195 11.0918 4.4707C10.9209 4.11135 10.6883 3.81544 10.373 3.60645C10.0603 3.39914 9.62497 3.25 9 3.25Z" fill="black"/>
</g>
<defs>
<clipPath id="clip0_1424_12744">
<rect width="18" height="18" fill="white"/>
</clipPath>
</defs>
</svg>
