<svg width="28" height="28" viewBox="0 0 28 28" fill="none" xmlns="http://www.w3.org/2000/svg">
<g clip-path="url(#clip0_1424_12774)">
<path d="M14 3.33301C15.259 3.33306 16.2793 3.63786 17.0879 4.17383C17.8933 4.70779 18.4405 5.43865 18.8096 6.21484C19.5347 7.74036 19.6113 9.52383 19.6113 10.6289V13.0215C20.1904 13.3369 20.5839 13.9514 20.584 14.6572V16.1387C20.5839 16.5526 20.2479 16.8883 19.834 16.8887C19.4198 16.8887 19.084 16.5528 19.084 16.1387V14.6572C19.0838 14.4581 18.9218 14.2961 18.7227 14.2959H9.27832C9.07899 14.2959 8.91717 14.4579 8.91699 14.6572V21.6943C8.9171 22.5073 9.57663 23.166 10.3896 23.166H11.084L11.1602 23.1699C11.5381 23.2083 11.8336 23.528 11.834 23.916C11.834 24.3043 11.5382 24.6236 11.1602 24.6621L11.084 24.666H10.3896C8.7482 24.666 7.4171 23.3358 7.41699 21.6943V14.6572C7.41711 13.9511 7.81012 13.3358 8.38965 13.0205V10.542C8.38969 9.43737 8.4661 7.67378 9.19336 6.16797C9.56383 5.40112 10.1121 4.68063 10.918 4.15625C11.726 3.63065 12.7443 3.33306 14 3.33301ZM19.834 17.9814C20.2478 17.9818 20.5838 18.3176 20.584 18.7314V21.6943C20.5839 23.3356 19.2526 24.6658 17.6113 24.666H14C13.5859 24.6658 13.25 24.3301 13.25 23.916C13.2504 23.5022 13.5862 23.1662 14 23.166H17.6113C18.4242 23.1658 19.0839 22.5072 19.084 21.6943V18.7314C19.0842 18.3174 19.4199 17.9814 19.834 17.9814ZM14.1514 16.1396C14.688 16.14 15.123 16.5746 15.123 17.1113C15.123 17.3194 15.0567 17.5118 14.9453 17.6699C14.9533 17.6918 14.9635 17.7135 14.9697 17.7363L15.5996 20.0449C15.6858 20.3625 15.4463 20.6754 15.1172 20.6758H13.1855C12.856 20.6758 12.6167 20.3629 12.7031 20.0449L13.332 17.7363C13.3382 17.7136 13.3475 17.6918 13.3555 17.6699C13.2444 17.5119 13.1788 17.3191 13.1787 17.1113C13.1788 16.5744 13.6145 16.1396 14.1514 16.1396ZM14 4.83301C12.9882 4.83306 12.2638 5.07027 11.7354 5.41406C11.2049 5.7594 10.8215 6.24576 10.5439 6.82031C9.97541 7.9975 9.88969 9.46278 9.88965 10.542V12.7959H18.1113V10.6289C18.1113 9.55009 18.0259 8.06037 17.4551 6.85938C17.176 6.27233 16.7908 5.77591 16.2598 5.42383C15.7317 5.07379 15.0091 4.83306 14 4.83301Z" fill="#332A2A"/>
</g>
<defs>
<clipPath id="clip0_1424_12774">
<rect width="28" height="28" fill="white"/>
</clipPath>
</defs>
</svg>
