<svg width="23" height="23" viewBox="0 0 23 23" fill="none" xmlns="http://www.w3.org/2000/svg">
<g clip-path="url(#clip0_1424_12775)">
<path d="M11.5 2.67969C12.5439 2.67974 13.3932 2.9324 14.0684 3.37988C14.7409 3.82573 15.1963 4.43587 15.5029 5.08105C16.1045 6.34694 16.168 7.82276 16.168 8.73145V10.5156C16.632 10.6727 16.9668 11.1109 16.9668 11.6279V13.2568C16.9666 13.6295 16.6637 13.9326 16.291 13.9326C15.9186 13.9323 15.6164 13.6293 15.6162 13.2568V11.8027H7.38281V18.6465C7.38316 18.8256 7.52888 18.9705 7.70801 18.9707H9.10352C9.47631 18.9707 9.7793 19.2737 9.7793 19.6465C9.77899 19.9723 9.54746 20.2446 9.24023 20.3076L9.10352 20.3213H7.70801C6.78329 20.3211 6.03355 19.5712 6.0332 18.6465V11.6279C6.0332 11.1107 6.36778 10.6716 6.83203 10.5146V8.66016C6.83205 7.75187 6.89444 6.29095 7.49805 5.04102C7.80595 4.40364 8.26298 3.80301 8.93555 3.36523C9.61032 2.92622 10.4588 2.67974 11.5 2.67969ZM16.291 14.7119C16.6637 14.7119 16.9667 15.014 16.9668 15.3867V18.6465C16.9664 19.5713 16.2159 20.3213 15.291 20.3213H11.5C11.1276 20.3211 10.8246 20.0189 10.8242 19.6465C10.8242 19.2738 11.1274 18.9709 11.5 18.9707H15.291C15.4703 18.9707 15.6159 18.8257 15.6162 18.6465V15.3867C15.6163 15.0142 15.9186 14.7123 16.291 14.7119ZM11.6289 13.2568C12.0696 13.2571 12.4276 13.6149 12.4277 14.0557C12.4277 14.2265 12.3717 14.3839 12.2803 14.5137C12.287 14.532 12.2956 14.5502 12.3008 14.5693L12.7871 16.3525C12.8735 16.6703 12.634 16.9841 12.3047 16.9844H10.9521C10.6227 16.9842 10.3832 16.6705 10.4697 16.3525L10.9561 14.5693C10.9613 14.55 10.9688 14.5313 10.9756 14.5127C10.8848 14.3832 10.8301 14.2258 10.8301 14.0557C10.8302 13.6147 11.1879 13.2568 11.6289 13.2568ZM11.5 4.0293C10.6784 4.02935 10.095 4.22177 9.67188 4.49707C9.24699 4.77367 8.93823 5.16362 8.71387 5.62793C8.25313 6.58208 8.18166 7.77469 8.18164 8.66016V10.4531H14.8174V8.73145C14.8174 7.84626 14.747 6.63404 14.2842 5.66016C14.0585 5.18533 13.7487 4.78697 13.3232 4.50488C12.9005 4.22469 12.319 4.02935 11.5 4.0293Z" fill="#332A2A"/>
</g>
<defs>
<clipPath id="clip0_1424_12775">
<rect width="23" height="23" fill="white"/>
</clipPath>
</defs>
</svg>
