<svg width="44" height="44" viewBox="0 0 44 44" fill="none" xmlns="http://www.w3.org/2000/svg">
<g clip-path="url(#clip0_1344_12530)">
<circle cx="17.8751" cy="17.8751" r="11.4583" fill="#E05149"/>
<path d="M18 18H13M18 18H23M18 18V13M18 18V23" stroke="#252323" stroke-width="1.5" stroke-linecap="round" stroke-linejoin="round"/>
<path fill-rule="evenodd" clip-rule="evenodd" d="M17.8751 5.66675C17.4609 5.66675 17.1251 6.00253 17.1251 6.41675C17.1251 6.83096 17.4609 7.16675 17.8751 7.16675C23.7891 7.16675 28.5834 11.961 28.5834 17.8751C28.5834 23.7891 23.7891 28.5834 17.8751 28.5834C17.4609 28.5834 17.1251 28.9192 17.1251 29.3334C17.1251 29.7476 17.4609 30.0834 17.8751 30.0834C20.7793 30.0834 23.4468 29.0693 25.5425 27.3758L35.0453 36.8786C35.6658 37.4991 36.6878 37.4425 37.236 36.7573C37.6972 36.1808 37.6601 35.3519 37.1493 34.8188L27.7682 25.0299C29.2247 23.0194 30.0834 20.5475 30.0834 17.8751C30.0834 11.1326 24.6176 5.66675 17.8751 5.66675ZM12.3073 8.72611C12.6609 8.51041 12.7727 8.04889 12.557 7.69527C12.3413 7.34165 11.8798 7.22984 11.5262 7.44553C8.01415 9.58775 5.66675 13.4569 5.66675 17.8751C5.66675 22.2932 8.01415 26.1624 11.5262 28.3046C11.8798 28.5203 12.3413 28.4085 12.557 28.0549C12.7727 27.7013 12.6609 27.2398 12.3073 27.0241C9.22309 25.1428 7.16675 21.7487 7.16675 17.8751C7.16675 14.0014 9.22309 10.6074 12.3073 8.72611Z" fill="#252323"/>
</g>
<defs>
<clipPath id="clip0_1344_12530">
<rect width="44" height="44" fill="white"/>
</clipPath>
</defs>
</svg>
