<svg width="29" height="28" viewBox="0 0 29 28" fill="none" xmlns="http://www.w3.org/2000/svg">
<g clip-path="url(#clip0_1344_12559)">
<path fill-rule="evenodd" clip-rule="evenodd" d="M11.4999 3.33325C11.0857 3.33325 10.7499 3.66904 10.7499 4.08325C10.7499 4.49747 11.0857 4.83325 11.4999 4.83325C15.1128 4.83325 18.0416 7.76206 18.0416 11.3749C18.0416 14.9878 15.1128 17.9166 11.4999 17.9166C11.0857 17.9166 10.7499 18.2524 10.7499 18.6666C10.7499 19.0808 11.0857 19.4166 11.4999 19.4166C13.4234 19.4166 15.1892 18.7412 16.5731 17.6147L22.4264 23.4681C22.8213 23.8629 23.4717 23.8269 23.8205 23.3909C24.114 23.024 24.0904 22.4965 23.7653 22.1573L17.9872 16.128C18.9644 14.7965 19.5416 13.1531 19.5416 11.3749C19.5416 6.93363 15.9412 3.33325 11.4999 3.33325ZM8.0988 5.78568C8.45243 5.56998 8.56424 5.10846 8.34854 4.75484C8.13284 4.40121 7.67132 4.2894 7.3177 4.5051C5.00497 5.91578 3.45825 8.46438 3.45825 11.3749C3.45825 14.2855 5.00497 16.8341 7.3177 18.2447C7.67132 18.4604 8.13284 18.3486 8.34854 17.995C8.56424 17.6414 8.45243 17.1799 8.0988 16.9642C6.21392 15.8144 4.95825 13.741 4.95825 11.3749C4.95825 9.00886 6.21392 6.93539 8.0988 5.78568Z" fill="#252323"/>
<path d="M11.5 11.5H8.5M11.5 11.5H14.5M11.5 11.5V8.5M11.5 11.5V14.5" stroke="#252323" stroke-width="1.5" stroke-linecap="round" stroke-linejoin="round"/>
</g>
<defs>
<clipPath id="clip0_1344_12559">
<rect width="28" height="28" fill="white" transform="translate(0.125)"/>
</clipPath>
</defs>
</svg>
