<svg width="23" height="23" viewBox="0 0 23 23" fill="none" xmlns="http://www.w3.org/2000/svg">
<g clip-path="url(#clip0_1344_12532)">
<circle cx="9.34383" cy="9.34383" r="5.98958" fill="#E05149"/>
<path fill-rule="evenodd" clip-rule="evenodd" d="M9.34378 2.6792C8.97099 2.6792 8.66878 2.98141 8.66878 3.3542C8.66878 3.72699 8.97099 4.0292 9.34378 4.0292C12.2789 4.0292 14.6584 6.40862 14.6584 9.34378C14.6584 12.2789 12.2789 14.6584 9.34378 14.6584C8.97099 14.6584 8.66878 14.9606 8.66878 15.3334C8.66878 15.7062 8.97099 16.0084 9.34378 16.0084C10.9401 16.0084 12.4053 15.4471 13.5529 14.5112L18.3191 19.2774C18.6435 19.6018 19.1777 19.5722 19.4643 19.214C19.7053 18.9127 19.686 18.4794 19.4189 18.2008L14.714 13.2913C15.5276 12.1863 16.0084 10.8212 16.0084 9.34378C16.0084 5.66303 13.0245 2.6792 9.34378 2.6792ZM6.5807 4.80293C6.89896 4.6088 6.99959 4.19343 6.80546 3.87517C6.61133 3.55691 6.19596 3.45628 5.8777 3.65041C3.96115 4.81944 2.6792 6.93159 2.6792 9.34378C2.6792 11.756 3.96115 13.8681 5.8777 15.0372C6.19596 15.2313 6.61133 15.1307 6.80546 14.8124C6.99959 14.4941 6.89896 14.0788 6.5807 13.8846C5.0492 12.9505 4.0292 11.2659 4.0292 9.34378C4.0292 7.42162 5.0492 5.73708 6.5807 4.80293Z" fill="#332A2A"/>
<path d="M9.25 9.5H7.25M9.25 9.5H11.25M9.25 9.5V7.5M9.25 9.5V11.5" stroke="#332A2A" stroke-width="1.35" stroke-linecap="round" stroke-linejoin="round"/>
</g>
<defs>
<clipPath id="clip0_1344_12532">
<rect width="23" height="23" fill="white"/>
</clipPath>
</defs>
</svg>
