<svg width="44" height="44" viewBox="0 0 44 44" fill="none" xmlns="http://www.w3.org/2000/svg">
<g clip-path="url(#clip0_1344_12530)">
<circle cx="17.8751" cy="17.8751" r="11.4583" fill="#E05149"/>
<path d="M18 18H13M18 18H23M18 18V13M18 18V23" stroke="#332A2A" stroke-width="1.5" stroke-linecap="round" stroke-linejoin="round"/>
<path d="M17.8748 5.66675C24.6171 5.66675 30.0836 11.1324 30.0837 17.8748C30.0837 20.547 29.2219 23.0166 27.7654 25.0271L37.1492 34.8191C37.6599 35.3521 37.6973 36.1811 37.2361 36.7576C36.688 37.4426 35.6661 37.4989 35.0457 36.8787L25.5408 27.3738C23.4449 29.0674 20.779 30.0837 17.8748 30.0837C17.4608 30.0836 17.1249 29.7477 17.1248 29.3337C17.1248 28.9196 17.4607 28.5839 17.8748 28.5837C23.7888 28.5837 28.5837 23.7888 28.5837 17.8748C28.5836 11.9609 23.7887 7.16675 17.8748 7.16675C17.4607 7.16657 17.1248 6.83085 17.1248 6.41675C17.1248 6.00264 17.4607 5.66692 17.8748 5.66675ZM11.5261 7.44507C11.8797 7.2295 12.3417 7.3415 12.5574 7.69507C12.7731 8.04869 12.661 8.51062 12.3074 8.72632C9.22327 10.6075 7.16686 14.0012 7.16675 17.8748C7.16675 21.7484 9.22317 25.1429 12.3074 27.0242C12.6608 27.2398 12.7727 27.7009 12.5574 28.0544C12.3417 28.4081 11.8797 28.5201 11.5261 28.3044C8.01415 26.1622 5.66675 22.2928 5.66675 17.8748C5.66686 13.4568 8.01416 9.58724 11.5261 7.44507Z" fill="#332A2A"/>
</g>
<defs>
<clipPath id="clip0_1344_12530">
<rect width="44" height="44" fill="white"/>
</clipPath>
</defs>
</svg>
