<svg width="28" height="28" viewBox="0 0 28 28" fill="none" xmlns="http://www.w3.org/2000/svg">
<g clip-path="url(#clip0_1344_12531)">
<circle cx="11.1667" cy="11.2917" r="7.29167" fill="#E05149"/>
<path fill-rule="evenodd" clip-rule="evenodd" d="M11.3749 3.33325C10.9607 3.33325 10.6249 3.66904 10.6249 4.08325C10.6249 4.49747 10.9607 4.83325 11.3749 4.83325C14.9878 4.83325 17.9166 7.76206 17.9166 11.3749C17.9166 14.9878 14.9878 17.9166 11.3749 17.9166C10.9607 17.9166 10.6249 18.2524 10.6249 18.6666C10.6249 19.0808 10.9607 19.4166 11.3749 19.4166C13.2984 19.4166 15.0642 18.7412 16.4481 17.6147L22.3014 23.4681C22.6963 23.8629 23.3467 23.8269 23.6955 23.3909C23.989 23.024 23.9654 22.4965 23.6403 22.1573L17.8622 16.128C18.8394 14.7965 19.4166 13.1531 19.4166 11.3749C19.4166 6.93363 15.8162 3.33325 11.3749 3.33325ZM7.9738 5.78568C8.32743 5.56998 8.43924 5.10846 8.22354 4.75484C8.00784 4.40121 7.54632 4.2894 7.1927 4.5051C4.87997 5.91578 3.33325 8.46438 3.33325 11.3749C3.33325 14.2855 4.87997 16.8341 7.1927 18.2447C7.54632 18.4604 8.00784 18.3486 8.22354 17.995C8.43924 17.6414 8.32743 17.1799 7.9738 16.9642C6.08892 15.8144 4.83325 13.741 4.83325 11.3749C4.83325 9.00886 6.08892 6.93539 7.9738 5.78568Z" fill="#332A2A"/>
<path d="M11.375 11.5H8.375M11.375 11.5H14.375M11.375 11.5V8.5M11.375 11.5V14.5" stroke="#332A2A" stroke-width="1.5" stroke-linecap="round" stroke-linejoin="round"/>
</g>
<defs>
<clipPath id="clip0_1344_12531">
<rect width="28" height="28" fill="white"/>
</clipPath>
</defs>
</svg>
