<svg width="24" height="23" viewBox="0 0 24 23" fill="none" xmlns="http://www.w3.org/2000/svg">
<g clip-path="url(#clip0_1236_15825)">
<path fill-rule="evenodd" clip-rule="evenodd" d="M18.7788 13.0283L21.254 11.5594C21.3181 11.5213 21.3643 11.4592 21.3824 11.3869C21.5218 10.8293 21.545 10.249 21.4505 9.6821L21.3542 9.1041L18.1121 8.29358L15.9638 7.75651L14.4012 7.36587C13.9405 7.25068 13.4538 7.30322 13.0283 7.51406L8.65625 9.68023L3.14583 12.4104L3.12955 12.4951C2.98186 13.263 2.97207 14.0511 3.10063 14.8225C3.12828 14.9884 3.24822 15.1239 3.40952 15.1715L11.2618 17.4895L14.7623 15.412C15.1488 13.9862 16.4519 12.9374 18 12.9374C18.2681 12.9374 18.5289 12.9689 18.7788 13.0283Z" fill="#E05149"/>
<path fill-rule="evenodd" clip-rule="evenodd" d="M15.0812 8.38554C15.0812 8.331 15.0747 8.27797 15.0625 8.22717L15.8 8.41155L17.9483 8.94863L19.5139 9.34001L19.2622 9.47741C18.8243 9.42104 18.3928 9.32234 17.9738 9.18268C17.6202 9.0648 17.2379 9.25593 17.12 9.60959C17.0082 9.94502 17.1744 10.3062 17.4935 10.4431L13.2756 12.7461H13.264C12.8294 12.7461 12.3976 12.6756 11.9855 12.5373C11.6321 12.4187 11.2495 12.609 11.1309 12.9625C11.028 13.2691 11.1576 13.5977 11.4245 13.7568L11.1766 13.8921L5.03977 12.2255L5.49032 12.0023C6.06931 12.3049 6.69002 12.5207 7.33256 12.6425C7.69883 12.7119 8.05203 12.4713 8.12147 12.105C8.1909 11.7387 7.95027 11.3855 7.584 11.3161C7.42255 11.2855 7.26283 11.2474 7.10533 11.2021L12.4123 8.57272C13.0274 8.89287 13.7113 9.06054 14.4062 9.06054C14.779 9.06054 15.0812 8.75834 15.0812 8.38554ZM19.719 10.7661L20.8115 10.1696C20.8201 10.4721 20.7992 10.7752 20.7487 11.0745L18.6612 12.3134C18.4519 12.28 18.2372 12.2626 18.0185 12.2626C16.2565 12.2626 14.7574 13.3885 14.2015 14.9601L11.8239 16.3712C11.8026 15.9292 11.8208 15.4861 11.8783 15.0471L13.7593 14.0201C13.7671 14.0161 13.7747 14.0119 13.7823 14.0076L19.719 10.7661ZM21.5628 12.1612L20.2559 12.9368C20.7059 13.2358 21.0925 13.6223 21.3912 14.0716C21.5976 14.3821 21.5133 14.801 21.2029 15.0075C20.8924 15.2139 20.4734 15.1295 20.267 14.8191C19.7826 14.0905 18.9562 13.6126 18.0185 13.6126C16.5286 13.6126 15.3208 14.8204 15.3208 16.3104C15.3208 17.8003 16.5286 19.0081 18.0185 19.0081C19.5084 19.0081 20.7163 17.8003 20.7163 16.3104C20.7163 15.9376 21.0185 15.6354 21.3913 15.6354C21.7641 15.6354 22.0663 15.9376 22.0663 16.3104C22.0663 18.5459 20.254 20.3581 18.0185 20.3581C15.9002 20.3581 14.1619 18.7308 13.9855 16.6581L11.6062 18.0702C11.4448 18.166 11.2507 18.1902 11.0706 18.1371L7.01265 16.9392C6.65511 16.8336 6.45083 16.4582 6.55637 16.1007C6.66192 15.7431 7.03732 15.5389 7.39486 15.6444L10.482 16.5557C10.4522 16.074 10.4622 15.5906 10.5118 15.1105L3.70525 13.262C3.67005 13.6965 3.68296 14.1341 3.74407 14.5667L5.36588 15.0455C5.72341 15.151 5.9277 15.5264 5.82215 15.8839C5.7166 16.2415 5.3412 16.4458 4.98366 16.3402L3.21837 15.8191C2.80919 15.6983 2.5049 15.3545 2.43476 14.9336C2.29303 14.0832 2.30383 13.2144 2.46665 12.3678L2.48293 12.2832C2.52276 12.076 2.65712 11.8994 2.84611 11.8058L12.7285 6.90942C13.2977 6.62742 13.9487 6.55716 14.5649 6.71122L16.1275 7.10186L18.2758 7.63893L21.5178 8.44945C21.7709 8.51271 21.9648 8.71613 22.016 8.97192L22.047 9.12673C22.2022 9.9027 22.2022 10.7017 22.047 11.4777C21.9897 11.7638 21.8138 12.0122 21.5628 12.1612ZM16.7206 14.38C16.4586 14.2926 16.1754 14.4342 16.0881 14.6962C16.0008 14.9582 16.1424 15.2413 16.4043 15.3286C17.4401 15.6739 18.5598 15.6739 19.5956 15.3286C19.8575 15.2413 19.9991 14.9582 19.9118 14.6962C19.8245 14.4342 19.5413 14.2926 19.2793 14.38C18.4489 14.6568 17.551 14.6568 16.7206 14.38ZM16.0881 16.1337C16.1754 15.8717 16.4586 15.7301 16.7206 15.8175C17.551 16.0943 18.4489 16.0943 19.2793 15.8175C19.5413 15.7301 19.8245 15.8717 19.9118 16.1337C19.9991 16.3957 19.8575 16.6788 19.5956 16.7661C18.5598 17.1114 17.4401 17.1114 16.4043 16.7661C16.1424 16.6788 16.0008 16.3957 16.0881 16.1337ZM16.7206 17.255C16.4586 17.1676 16.1754 17.3092 16.0881 17.5712C16.0008 17.8332 16.1424 18.1163 16.4043 18.2036C17.4401 18.5489 18.5598 18.5489 19.5956 18.2036C19.8575 18.1163 19.9991 17.8332 19.9118 17.5712C19.8245 17.3092 19.5413 17.1676 19.2793 17.255C18.4489 17.5318 17.551 17.5318 16.7206 17.255Z" fill="#252323"/>
</g>
<defs>
<clipPath id="clip0_1236_15825">
<rect width="23" height="23" fill="white" transform="translate(0.75)"/>
</clipPath>
</defs>
</svg>
