<svg width="23" height="23" viewBox="0 0 23 23" fill="none" xmlns="http://www.w3.org/2000/svg">
<g clip-path="url(#clip0_1234_15124)">
<path d="M9.24976 8.9585C9.62255 8.9585 9.92456 9.26051 9.92456 9.6333C9.92456 10.0061 9.62255 10.3081 9.24976 10.3081H8.9978C8.26602 10.3081 7.67261 10.9015 7.67261 11.6333V12.7915H8.47925V12.3208C8.47925 11.2577 9.3409 10.396 10.4041 10.396H12.696C13.759 10.3962 14.6208 11.2578 14.6208 12.3208V12.7915H15.4265V11.3267C15.4263 10.7642 14.9705 10.3081 14.408 10.3081H11.2947C10.9219 10.3081 10.6189 10.0061 10.6189 9.6333C10.6189 9.26051 10.9219 8.9585 11.2947 8.9585H14.408C15.7161 8.9585 16.7768 10.0186 16.7771 11.3267V13.0962C17.631 13.5428 18.2145 14.4359 18.2146 15.4663V17.2993C18.2146 17.672 17.9124 17.9749 17.5398 17.9751H17.4958V18.8569C17.4958 19.2296 17.1937 19.5316 16.821 19.5317C16.4483 19.5317 16.1453 19.2297 16.1453 18.8569V17.9751H14.7019C14.3293 17.9749 14.0271 17.672 14.0271 17.2993C14.0275 16.927 14.3295 16.6247 14.7019 16.6245H16.864V15.4663C16.8638 14.7348 16.2713 14.1413 15.5398 14.1411H7.5603C6.82863 14.1411 6.23528 14.7347 6.23511 15.4663V16.6245H12.3162C12.6887 16.6245 12.9916 16.9268 12.9919 17.2993C12.9919 17.6721 12.689 17.9751 12.3162 17.9751H6.95386V18.8569C6.95386 19.2297 6.65184 19.5317 6.27905 19.5317C5.90626 19.5317 5.60425 19.2297 5.60425 18.8569V17.9751H5.5603C5.18751 17.9751 4.8855 17.6721 4.8855 17.2993V15.4663C4.88562 14.4358 5.46905 13.5428 6.323 13.0962V11.6333C6.323 10.1559 7.52044 8.9585 8.9978 8.9585H9.24976ZM10.4041 11.7456C10.0865 11.7456 9.82886 12.0032 9.82886 12.3208V12.7915H13.2703V12.3208C13.2703 12.0033 13.0135 11.7458 12.696 11.7456H10.4041Z" fill="#332A2A"/>
</g>
<defs>
<clipPath id="clip0_1234_15124">
<rect width="23" height="23" fill="white"/>
</clipPath>
</defs>
</svg>
