<svg width="23" height="23" viewBox="0 0 23 23" fill="none" xmlns="http://www.w3.org/2000/svg">
<g clip-path="url(#clip0_666_7199)">
<path d="M20.5412 9.11247L21.2031 8.98009C21.1519 8.7243 20.958 8.52089 20.7049 8.45762L20.5412 9.11247ZM10.4488 17.4979L10.2577 18.1453C10.4378 18.1984 10.6318 18.1742 10.7933 18.0784L10.4488 17.4979ZM2.33285 12.4188L2.03317 11.814C1.84418 11.9076 1.70983 12.0842 1.66999 12.2913L2.33285 12.4188ZM18.5826 10.1819L18.906 10.7743L18.906 10.7743L18.5826 10.1819ZM15.1508 7.76488L15.3145 7.11003L15.3145 7.11003L15.1508 7.76488ZM17.2991 8.30195L17.1354 8.9568L17.1354 8.9568L17.2991 8.30195ZM11.8482 7.20179C11.4866 7.11138 11.1201 7.33127 11.0297 7.69293C10.9393 8.05459 11.1592 8.42107 11.5208 8.51149L11.8482 7.20179ZM13.6691 9.04856C14.0308 9.13898 14.3973 8.91909 14.4877 8.55743C14.5781 8.19577 14.3582 7.82929 13.9966 7.73887L13.6691 9.04856ZM13.6237 10.6139C13.2621 10.5235 12.8956 10.7433 12.8052 11.105C12.7148 11.4667 12.9346 11.8331 13.2963 11.9236L13.6237 10.6139ZM15.4446 12.4606C15.8063 12.5511 16.1728 12.3312 16.2632 11.9695C16.3536 11.6078 16.1337 11.2414 15.772 11.1509L15.4446 12.4606ZM4.89239 10.6139C4.53073 10.5235 4.16425 10.7433 4.07383 11.105C3.98342 11.4667 4.20331 11.8331 4.56497 11.9236L4.89239 10.6139ZM6.71327 12.4606C7.07493 12.5511 7.44142 12.3312 7.53183 11.9695C7.62225 11.6078 7.40236 11.2414 7.0407 11.1509L6.71327 12.4606ZM17.7488 9.23942C17.3905 9.13629 17.0165 9.34311 16.9134 9.70135C16.8102 10.0596 17.0171 10.4336 17.3753 10.5367L17.7488 9.23942ZM12.4482 14.0779C12.8064 14.181 13.1805 13.9742 13.2836 13.616C13.3867 13.2577 13.1799 12.8837 12.8217 12.7806L12.4482 14.0779ZM11.8011 12.4868C11.4429 12.3837 11.0689 12.5905 10.9657 12.9488C10.8626 13.307 11.0694 13.681 11.4277 13.7841L11.8011 12.4868ZM8.67707 10.631C9.03532 10.7342 9.40933 10.5274 9.51246 10.1691C9.61559 9.81087 9.40877 9.43685 9.05053 9.33372L8.67707 10.631ZM8.02999 9.03994C7.67175 8.93681 7.29773 9.14363 7.1946 9.50187C7.09148 9.86012 7.29829 10.2341 7.65653 10.3373L8.02999 9.03994ZM6.58193 15.6526C6.22439 15.547 5.84899 15.7513 5.74344 16.1089C5.63789 16.4664 5.84217 16.8418 6.19971 16.9473L6.58193 15.6526ZM4.17073 16.3484C4.52826 16.4539 4.90367 16.2497 5.00921 15.8921C5.11476 15.5346 4.91048 15.1592 4.55294 15.0536L4.17073 16.3484ZM15.8395 15.0836C16.1601 14.8933 16.2657 14.4792 16.0755 14.1586C15.8852 13.838 15.4711 13.7324 15.1505 13.9226L15.8395 15.0836ZM17.6736 12.4252C17.353 12.6155 17.2474 13.0296 17.4376 13.3502C17.6279 13.6708 18.042 13.7764 18.3626 13.5862L17.6736 12.4252ZM20.5721 9.26728L21.234 9.1349L20.5721 9.26728ZM10.39 17.0275L9.7202 17.1113L10.39 17.0275ZM12.2153 7.52243L12.5149 8.12726L12.2153 7.52243ZM13.5883 7.37424L13.4245 8.02908L13.5883 7.37424ZM2.59654 15.1799L2.78765 14.5325L2.59654 15.1799ZM20.4054 11.5889L20.0609 11.0084L20.4054 11.5889ZM2.15594 13.0702L10.2719 15.2743L10.6257 13.9715L2.50975 11.7674L2.15594 13.0702ZM2.63252 13.0236L12.5149 8.12726L11.9156 6.9176L2.03317 11.814L2.63252 13.0236ZM10.7723 15.2153L18.906 10.7743L18.2591 9.58942L10.1253 14.0304L10.7723 15.2153ZM18.906 10.7743L20.8647 9.70491L20.2177 8.52002L18.2591 9.58942L18.906 10.7743ZM13.4245 8.02908L14.9871 8.41972L15.3145 7.11003L13.752 6.71939L13.4245 8.02908ZM14.9871 8.41972L17.1354 8.9568L17.4628 7.64711L15.3145 7.11003L14.9871 8.41972ZM17.1354 8.9568L20.3775 9.76731L20.7049 8.45762L17.4628 7.64711L17.1354 8.9568ZM11.5208 8.51149L13.6691 9.04856L13.9966 7.73887L11.8482 7.20179L11.5208 8.51149ZM13.2963 11.9236L15.4446 12.4606L15.772 11.1509L13.6237 10.6139L13.2963 11.9236ZM4.56497 11.9236L6.71327 12.4606L7.0407 11.1509L4.89239 10.6139L4.56497 11.9236ZM17.3753 10.5367L18.3958 10.8305L18.7693 9.5332L17.7488 9.23942L17.3753 10.5367ZM11.4277 13.7841L12.4482 14.0779L12.8217 12.7806L11.8011 12.4868L11.4277 13.7841ZM7.65653 10.3373L8.67707 10.631L9.05053 9.33372L8.02999 9.03994L7.65653 10.3373ZM9.7202 17.1113L9.77901 17.5816L11.1186 17.4141L11.0598 16.9438L9.7202 17.1113ZM1.66999 12.2913L1.65372 12.376L2.97942 12.6309L2.9957 12.5463L1.66999 12.2913ZM21.234 9.1349L21.2031 8.98009L19.8793 9.24485L19.9102 9.39966L21.234 9.1349ZM6.19971 16.9473L10.2577 18.1453L10.6399 16.8505L6.58193 15.6526L6.19971 16.9473ZM2.40543 15.8273L4.17073 16.3484L4.55294 15.0536L2.78765 14.5325L2.40543 15.8273ZM10.7933 18.0784L15.8395 15.0836L15.1505 13.9226L10.1043 16.9174L10.7933 18.0784ZM18.3626 13.5862L20.7499 12.1693L20.0609 11.0084L17.6736 12.4252L18.3626 13.5862ZM21.234 11.4859C21.3892 10.7099 21.3892 9.91087 21.234 9.1349L19.9102 9.39966C20.0305 10.0009 20.0305 10.6199 19.9102 11.2211L21.234 11.4859ZM1.65372 12.376C1.49089 13.2226 1.4801 14.0914 1.62183 14.9418L2.95346 14.7199C2.83807 14.0275 2.84686 13.3202 2.97942 12.6309L1.65372 12.376ZM9.78391 14.5065C9.63331 15.3668 9.61184 16.2447 9.7202 17.1113L11.0598 16.9438C10.9681 16.2104 10.9862 15.4673 11.1137 14.7393L9.78391 14.5065ZM12.5149 8.12726C12.7969 7.98758 13.1193 7.95277 13.4245 8.02908L13.752 6.71939C13.1357 6.56533 12.4848 6.63559 11.9156 6.9176L12.5149 8.12726ZM1.62183 14.9418C1.69197 15.3626 1.99625 15.7065 2.40543 15.8273L2.78765 14.5325C2.87423 14.5581 2.93862 14.6308 2.95346 14.7199L1.62183 14.9418ZM19.9102 11.2211C19.9281 11.1321 19.9828 11.0548 20.0609 11.0084L20.7499 12.1693C21.0008 12.0204 21.1768 11.772 21.234 11.4859L19.9102 11.2211Z" fill="#252323"/>
</g>
<defs>
<clipPath id="clip0_666_7199">
<rect width="23" height="23" fill="white"/>
</clipPath>
</defs>
</svg>
