<svg width="28" height="28" viewBox="0 0 28 28" fill="none" xmlns="http://www.w3.org/2000/svg">
<g clip-path="url(#clip0_666_9261)">
<path fill-rule="evenodd" clip-rule="evenodd" d="M21.9481 15.8606L24.9613 14.0723C25.0394 14.026 25.0956 13.9504 25.1177 13.8624C25.2874 13.1836 25.3156 12.4771 25.2005 11.7869L25.0833 11.0833L21.1364 10.0966L18.5211 9.44272L16.4637 8.92837C16.0029 8.81318 15.5162 8.86571 15.0907 9.07656L9.62493 11.7846L2.9166 15.1084L2.89678 15.2114C2.71698 16.1463 2.70506 17.1057 2.86157 18.0448C2.89523 18.2467 3.04125 18.4117 3.23762 18.4697L12.7969 21.2916L17.0584 18.7625C17.5289 17.0267 19.1153 15.7499 20.9999 15.7499C21.3263 15.7499 21.6438 15.7882 21.9481 15.8606Z" fill="#E05149"/>
<path fill-rule="evenodd" clip-rule="evenodd" d="M17.6442 10.3902C17.678 10.2549 17.6728 10.119 17.6356 9.99443L18.3392 10.1703L20.9545 10.8242L23.0385 11.3452L22.6101 11.5791L21.664 11.3068C21.2659 11.1922 20.8503 11.422 20.7357 11.82C20.6629 12.0731 20.7292 12.3332 20.8895 12.5186L18.9758 13.5634L16.6446 12.9807C16.2428 12.8802 15.8356 13.1245 15.7351 13.5264C15.6347 13.9282 15.879 14.3354 16.2808 14.4359L17.0333 14.624L15.3695 15.5325L14.4233 15.2601C14.0253 15.1455 13.6097 15.3753 13.4951 15.7734C13.4223 16.0264 13.4886 16.2865 13.6489 16.4719L12.7023 16.9887L5.02103 14.9027L5.85867 14.4877L8.26669 15.0897C8.66854 15.1902 9.07574 14.9458 9.1762 14.544C9.27666 14.1422 9.03234 13.735 8.6305 13.6345L7.93277 13.4601L9.69712 12.5859L10.6599 12.863C11.0579 12.9776 11.4735 12.7478 11.5881 12.3498C11.6542 12.1201 11.6056 11.8846 11.4763 11.7044L14.2707 10.3199L16.7347 10.9359C17.1365 11.0363 17.5437 10.792 17.6442 10.3902ZM23.0583 13.0434L24.4899 12.2618C24.5105 12.6843 24.4844 13.1085 24.4113 13.5266L21.8191 15.065C21.5599 15.0222 21.2938 14.9999 21.0225 14.9999C18.8995 14.9999 17.0947 16.3623 16.4347 18.2605L13.4161 20.052C13.3797 19.4583 13.4015 18.8623 13.4811 18.2725L15.8175 16.9969L15.8178 16.9967L19.4352 15.0216L19.4394 15.0193L23.0583 13.0434ZM25.3008 14.743L23.6102 15.7463C24.1914 16.113 24.6891 16.5993 25.0687 17.1702C25.298 17.5151 25.2043 17.9806 24.8594 18.21C24.5145 18.4393 24.0489 18.3456 23.8196 18.0007C23.2171 17.0945 22.1891 16.4999 21.0225 16.4999C19.1691 16.4999 17.6666 18.0024 17.6666 19.8559C17.6666 21.7093 19.1691 23.2118 21.0225 23.2118C22.876 23.2118 24.3785 21.7093 24.3785 19.8559C24.3785 19.4417 24.7142 19.1059 25.1285 19.1059C25.5427 19.1059 25.8785 19.4417 25.8785 19.8559C25.8785 22.5377 23.7044 24.7118 21.0225 24.7118C18.4423 24.7118 16.332 22.6993 16.1759 20.1584L13.1797 21.9366C13.0003 22.043 12.7846 22.07 12.5845 22.0109L7.6444 20.5526C7.24713 20.4353 7.02016 20.0182 7.13743 19.6209C7.2547 19.2237 7.67182 18.9967 8.06908 19.114L11.9261 20.2526C11.8805 19.6158 11.8924 18.9764 11.9617 18.3419L3.53366 16.0531C3.47995 16.6308 3.49552 17.2136 3.58053 17.7889L5.59901 18.3848C5.99628 18.5021 6.22326 18.9192 6.10598 19.3164C5.98871 19.7137 5.57159 19.9407 5.17433 19.8234L3.02527 19.189C2.55349 19.0497 2.20265 18.6533 2.12178 18.1681C1.95063 17.1412 1.96367 16.0921 2.16028 15.0698L2.18009 14.9667C2.22435 14.7366 2.37364 14.5404 2.58363 14.4363L9.28976 11.1137L9.29454 11.1113L14.7577 8.40452C15.3429 8.11461 16.0121 8.04238 16.6456 8.20076L18.703 8.71511L21.3183 9.36895L25.2652 10.3557C25.5463 10.426 25.7619 10.652 25.8187 10.9362L25.8564 11.1246C26.0435 12.06 26.0435 13.0232 25.8564 13.9586C25.7907 14.287 25.5888 14.5721 25.3008 14.743ZM20.6792 19.8283C20.6814 19.6382 20.8362 19.4847 21.0269 19.4847C21.218 19.4847 21.373 19.6387 21.3747 19.8293L21.3747 19.8325L21.3747 19.8357C21.373 20.0263 21.2179 20.1803 21.0269 20.1803C20.8363 20.1803 20.6814 20.0269 20.6792 19.8367L20.6792 19.8325L20.6792 19.8283ZM20.2166 19.5825C20.2989 19.3153 20.5098 19.1045 20.777 19.0222V18.7116C20.777 18.5735 20.8889 18.4616 21.027 18.4616C21.1651 18.4616 21.277 18.5735 21.277 18.7116V19.0222C21.5441 19.1045 21.755 19.3154 21.8373 19.5825H22.0731C22.2111 19.5825 22.3231 19.6945 22.3231 19.8325C22.3231 19.9706 22.2111 20.0825 22.0731 20.0825H21.8373C21.7549 20.3497 21.5441 20.5605 21.277 20.6428V20.9348C21.277 21.0728 21.1651 21.1848 21.027 21.1848C20.8889 21.1848 20.777 21.0728 20.777 20.9348V20.6429C20.5098 20.5605 20.299 20.3497 20.2166 20.0825H19.9808C19.8428 20.0825 19.7308 19.9706 19.7308 19.8325C19.7308 19.6945 19.8428 19.5825 19.9808 19.5825H20.2166ZM20.7281 16.7429C20.8661 16.7429 20.9781 16.8548 20.9781 16.9929V17.0584C20.9781 17.101 20.9967 17.1401 21.027 17.1669C21.0573 17.1401 21.0759 17.101 21.0759 17.0584V16.9929C21.0759 16.8548 21.1878 16.7429 21.3259 16.7429C21.464 16.7429 21.5759 16.8548 21.5759 16.9929V17.0584C21.5759 17.2836 21.4592 17.4867 21.277 17.6026V18.1138C21.277 18.2519 21.1651 18.3638 21.027 18.3638C20.8889 18.3638 20.777 18.2519 20.777 18.1138V17.6026C20.5947 17.4867 20.4781 17.2836 20.4781 17.0584V16.9929C20.4781 16.8548 20.59 16.7429 20.7281 16.7429ZM20.9781 22.6534C20.9781 22.7915 20.8661 22.9034 20.7281 22.9034C20.59 22.9034 20.4781 22.7915 20.4781 22.6534V22.5879C20.4781 22.3628 20.5947 22.1596 20.777 22.0438V21.5326C20.777 21.3945 20.8889 21.2826 21.027 21.2826C21.1651 21.2826 21.277 21.3945 21.277 21.5326V22.0438C21.4592 22.1596 21.5759 22.3628 21.5759 22.5879V22.6534C21.5759 22.7915 21.464 22.9034 21.3259 22.9034C21.1878 22.9034 21.0759 22.7915 21.0759 22.6534V22.5879C21.0759 22.5454 21.0573 22.5063 21.027 22.4795C20.9967 22.5063 20.9781 22.5454 20.9781 22.5879V22.6534ZM24.0417 19.5336C24.0417 19.6717 23.9298 19.7836 23.7917 19.7836H23.7262C23.6836 19.7836 23.6446 19.8022 23.6178 19.8325C23.6446 19.8629 23.6836 19.8814 23.7262 19.8814H23.7917C23.9298 19.8814 24.0417 19.9934 24.0417 20.1314C24.0417 20.2695 23.9298 20.3814 23.7917 20.3814H23.7262C23.5011 20.3814 23.2979 20.2648 23.1821 20.0825H22.6709C22.5328 20.0825 22.4209 19.9706 22.4209 19.8325C22.4209 19.6945 22.5328 19.5825 22.6709 19.5825H23.1821C23.2979 19.4003 23.5011 19.2836 23.7262 19.2836H23.7917C23.9298 19.2836 24.0417 19.3956 24.0417 19.5336ZM18.2622 19.7836C18.1241 19.7836 18.0122 19.6717 18.0122 19.5336C18.0122 19.3956 18.1241 19.2836 18.2622 19.2836H18.3277C18.5528 19.2836 18.756 19.4003 18.8718 19.5825H19.383C19.5211 19.5825 19.633 19.6945 19.633 19.8325C19.633 19.9706 19.5211 20.0825 19.383 20.0825H18.8718C18.756 20.2648 18.5528 20.3814 18.3277 20.3814H18.2622C18.1241 20.3814 18.0122 20.2695 18.0122 20.1314C18.0122 19.9934 18.1241 19.8814 18.2622 19.8814H18.3277C18.3703 19.8814 18.4093 19.8629 18.4361 19.8325C18.4093 19.8022 18.3703 19.7836 18.3277 19.7836H18.2622ZM19.5857 17.5047C19.7238 17.5047 19.8357 17.6166 19.8357 17.7547L19.8357 18.2765L20.17 18.622C20.266 18.7212 20.2634 18.8794 20.1642 18.9755C20.065 19.0715 19.9067 19.0689 19.8107 18.9697L19.4797 18.6277L18.9627 18.6277C18.8247 18.6277 18.7127 18.5158 18.7127 18.3777C18.7127 18.2396 18.8246 18.1277 18.9627 18.1277L19.3357 18.1277L19.3357 17.7547C19.3357 17.6166 19.4476 17.5047 19.5857 17.5047ZM22.2257 17.7528C22.2257 17.6148 22.3376 17.5028 22.4757 17.5028C22.6137 17.5028 22.7257 17.6148 22.7257 17.7528L22.7257 18.1258L23.0986 18.1258C23.2367 18.1258 23.3486 18.2378 23.3486 18.3758C23.3486 18.5139 23.2367 18.6258 23.0986 18.6258L22.575 18.6258L22.202 18.9777C22.1016 19.0725 21.9434 19.0679 21.8486 18.9675C21.7539 18.867 21.7585 18.7088 21.8589 18.614L22.2257 18.268L22.2257 17.7528ZM19.5857 22.1729C19.7238 22.1729 19.8357 22.061 19.8357 21.9229L19.8357 21.4027L20.2225 21.0119C20.3196 20.9138 20.3188 20.7555 20.2206 20.6584C20.1225 20.5612 19.9642 20.5621 19.8671 20.6602L19.4814 21.0499L18.9627 21.0499C18.8247 21.0499 18.7127 21.1619 18.7127 21.2999C18.7127 21.438 18.8246 21.5499 18.9627 21.5499L19.3357 21.5499L19.3357 21.9229C19.3357 22.061 19.4476 22.1729 19.5857 22.1729ZM22.2597 21.9248C22.2597 22.0629 22.3716 22.1748 22.5097 22.1748C22.6478 22.1748 22.7597 22.0629 22.7597 21.9248L22.7597 21.5518L23.1327 21.5518C23.2708 21.5518 23.3827 21.4399 23.3827 21.3018C23.3827 21.1637 23.2708 21.0518 23.1327 21.0518L22.6112 21.0518L22.2046 20.6567C22.1056 20.5605 21.9473 20.5627 21.8511 20.6618C21.7549 20.7608 21.7571 20.919 21.8562 21.0153L22.2597 21.4075L22.2597 21.9248Z" fill="#332A2A"/>
</g>
<defs>
<clipPath id="clip0_666_9261">
<rect width="28" height="28" fill="white"/>
</clipPath>
</defs>
</svg>
