<svg width="23" height="23" viewBox="0 0 23 23" fill="none" xmlns="http://www.w3.org/2000/svg">
<g clip-path="url(#clip0_1236_15903)">
<path fill-rule="evenodd" clip-rule="evenodd" d="M18.0288 13.0283L20.504 11.5594C20.5681 11.5213 20.6143 11.4592 20.6324 11.3869C20.7718 10.8293 20.795 10.249 20.7005 9.6821L20.6042 9.1041L17.3621 8.29358L15.2138 7.75651L13.6512 7.36587C13.1905 7.25068 12.7038 7.30322 12.2783 7.51406L7.90625 9.68023L2.39583 12.4104L2.37955 12.4951C2.23186 13.263 2.22207 14.0511 2.35063 14.8225C2.37828 14.9884 2.49822 15.1239 2.65952 15.1715L10.5118 17.4895L14.0123 15.412C14.3988 13.9862 15.7019 12.9374 17.25 12.9374C17.5181 12.9374 17.7789 12.9689 18.0288 13.0283Z" fill="#E05149"/>
<path fill-rule="evenodd" clip-rule="evenodd" d="M13.8655 6.76146C13.2494 6.60742 12.5977 6.6778 12.0286 6.9597L2.14578 11.8562C1.95704 11.9498 1.82333 12.1268 1.78348 12.3337L1.76688 12.4177C1.60406 13.2643 1.59294 14.1337 1.73465 14.9841C1.8048 15.4049 2.10966 15.7491 2.51883 15.8699L4.28348 16.3904C4.64096 16.4958 5.01682 16.2918 5.12234 15.9343C5.22769 15.577 5.02354 15.2011 4.66629 15.0954L3.0452 14.6169C2.98409 14.1843 2.97091 13.7468 3.00613 13.3122L9.8118 15.1599C9.76212 15.6403 9.75364 16.1241 9.78348 16.6062L6.69461 15.6951C6.33724 15.5897 5.96233 15.7938 5.85672 16.1511C5.75117 16.5086 5.95524 16.8844 6.31277 16.99L10.3704 18.1872C10.5053 18.227 10.6485 18.2231 10.7796 18.1784L10.9065 18.1208L13.2856 16.7081C13.4617 18.7811 15.2002 20.4091 17.3187 20.4091C19.554 20.4089 21.3664 18.5965 21.3666 16.3612C21.3666 15.9884 21.0636 15.6854 20.6908 15.6854C20.3182 15.6856 20.016 15.9885 20.016 16.3612C20.0158 17.8509 18.8084 19.0583 17.3187 19.0585C15.8289 19.0585 14.6207 17.851 14.6205 16.3612C14.6205 14.8713 15.8288 13.663 17.3187 13.663C18.2563 13.6631 19.0824 14.1415 19.5668 14.87C19.7732 15.1803 20.192 15.2638 20.5023 15.0575C20.8128 14.8511 20.8972 14.4324 20.6908 14.122C20.392 13.6727 20.0054 13.2862 19.5553 12.9872L20.8626 12.2117C21.1134 12.0627 21.2897 11.8141 21.347 11.5281C21.5021 10.7523 21.5021 9.95328 21.347 9.17747L21.3157 9.0222C21.2645 8.76661 21.0705 8.56303 20.8177 8.49974L17.5755 7.68919L15.428 7.15208L13.8655 6.76146ZM1.78348 12.3337L2.44363 12.4597L2.44461 12.4607L1.78348 12.3337ZM17.9589 12.3638L20.0471 11.1247C20.0977 10.8252 20.1183 10.5221 20.1096 10.2195L19.0188 10.8161L14.9524 13.0368L13.3255 13.9245L13.3206 13.9275L11.178 15.0964C11.1204 15.5354 11.1021 15.9787 11.1233 16.4206L13.5025 15.0084C14.0592 13.4381 15.5576 12.3134 17.3187 12.3134C17.5366 12.3134 17.7504 12.3306 17.9589 12.3638ZM12.6282 8.16966C12.91 8.03016 13.2323 7.99484 13.5374 8.07103L17.2483 8.99876L18.8138 9.38939L18.4876 9.5681L18.1389 9.60716C17.9171 9.63183 17.6952 9.55405 17.5374 9.39622C17.2738 9.13285 16.8468 9.13287 16.5833 9.39622C16.3197 9.65977 16.3198 10.0867 16.5833 10.3503C16.64 10.4071 16.6999 10.4602 16.762 10.5095L14.305 11.8523L12.8001 12.6736C12.2698 12.7085 11.737 12.6039 11.2591 12.3669C10.9252 12.2014 10.5204 12.3388 10.3548 12.6726C10.1893 13.0065 10.3255 13.4113 10.6595 13.5769C10.7469 13.6203 10.8362 13.6597 10.9261 13.697L10.4768 13.9421L4.34012 12.2751L4.74246 12.0759C5.33492 12.4828 6.03632 12.7048 6.75809 12.7048C7.13066 12.7047 7.43369 12.4026 7.43387 12.03C7.43378 11.6574 7.13072 11.3544 6.75809 11.3542C6.60284 11.3542 6.4492 11.3363 6.2991 11.3044L10.9055 9.0222C11.4828 9.47051 12.2319 9.65358 12.9622 9.50755L13.1282 9.47435C13.4934 9.40095 13.7306 9.04574 13.6575 8.6804C13.5843 8.31517 13.2288 8.07841 12.8636 8.15111L12.6975 8.18431C12.6525 8.19331 12.6069 8.19815 12.5618 8.20189L12.6282 8.16966ZM19.0094 14.7654C19.2856 14.7654 19.5094 14.9893 19.5094 15.2654C19.5094 15.5416 19.2856 15.7654 19.0094 15.7654C18.8644 15.7656 18.7253 15.8231 18.6227 15.9256L18.5485 16.0008C17.8448 16.7044 16.7034 16.7043 15.9997 16.0008L15.9255 15.9256C15.8227 15.8229 15.6831 15.7654 15.5378 15.7654C15.2616 15.7654 15.0378 15.5416 15.0378 15.2654C15.0378 14.9893 15.2616 14.7654 15.5378 14.7654C15.9483 14.7654 16.3422 14.9283 16.6325 15.2186L16.7067 15.2928C17.0199 15.606 17.5273 15.606 17.8405 15.2928L17.9157 15.2186C18.2058 14.9285 18.5992 14.7656 19.0094 14.7654ZM19.5094 17.0017C19.5094 16.7256 19.2856 16.5017 19.0094 16.5017C18.5992 16.5018 18.2058 16.6648 17.9157 16.9548L17.8405 17.0291C17.5273 17.3423 17.0199 17.3423 16.7067 17.0291L16.6325 16.9548C16.3422 16.6646 15.9483 16.5017 15.5378 16.5017C15.2616 16.5017 15.0378 16.7256 15.0378 17.0017C15.0378 17.2779 15.2616 17.5017 15.5378 17.5017C15.6831 17.5017 15.8227 17.5591 15.9255 17.6619L15.9997 17.7371C16.7034 18.4405 17.8448 18.4407 18.5485 17.7371L18.6227 17.6619C18.7253 17.5594 18.8644 17.5018 19.0094 17.5017C19.2856 17.5017 19.5094 17.2779 19.5094 17.0017Z" fill="#332A2A"/>
</g>
<defs>
<clipPath id="clip0_1236_15903">
<rect width="23" height="23" fill="white"/>
</clipPath>
</defs>
</svg>
