<svg width="23" height="23" viewBox="0 0 23 23" fill="none" xmlns="http://www.w3.org/2000/svg">
<g clip-path="url(#clip0_1247_16889)">
<path fill-rule="evenodd" clip-rule="evenodd" d="M18.1504 11.7396C18.1504 15.4126 15.1729 18.3901 11.4999 18.3901C7.82695 18.3901 4.84942 15.4126 4.84942 11.7396C4.84942 10.0014 5.64356 8.28637 6.7627 7.07305C6.98628 6.83065 7.36368 6.84105 7.59687 7.07423C7.95291 7.43028 8.56252 7.23304 8.64251 6.73591L8.95789 4.77608C9.06869 4.08751 8.45836 3.49985 7.77447 3.63663L5.87896 4.01573C5.43578 4.10437 5.26749 4.64917 5.58349 4.97231C5.81268 5.20668 5.79572 5.58452 5.56418 5.81656C4.05045 7.33352 3.1145 9.42725 3.1145 11.7396C3.1145 16.3707 6.86878 20.125 11.4999 20.125C16.1311 20.125 19.8853 16.3707 19.8853 11.7396C19.8853 9.9181 19.3046 8.23225 18.3181 6.85713C18.0605 6.49807 17.5604 6.44194 17.2009 6.69884C16.7831 6.99736 16.7245 7.59235 17.0122 8.01765C17.7308 9.07978 18.1504 10.3607 18.1504 11.7396ZM10.9262 14.8956L16.5435 11.5619C16.5795 11.5405 16.6055 11.5056 16.6157 11.465C16.694 11.1515 16.7071 10.8253 16.654 10.5066L16.5998 10.1817L14.7772 9.72602L13.5695 9.42409L12.9777 9.27614C12.5337 9.16514 12.0647 9.21576 11.6546 9.41896L9.46151 10.5055L6.36377 12.0404L6.35462 12.0879C6.27159 12.5196 6.26609 12.9627 6.33836 13.3963C6.3539 13.4896 6.42133 13.5658 6.51201 13.5925L10.9262 14.8956Z" fill="#E05149"/>
<path fill-rule="evenodd" clip-rule="evenodd" d="M9.85332 3.46145C9.88846 3.24309 9.8144 3.02137 9.65508 2.86797C9.49575 2.71456 9.27139 2.64894 9.05452 2.69232L4.71723 3.55977C4.47446 3.60833 4.27775 3.7859 4.20468 4.02245C4.13161 4.25901 4.19391 4.51658 4.36701 4.6936L5.04246 5.38433C3.43358 7.01907 2.4397 9.26359 2.4397 11.7396C2.4397 12.1124 2.74191 12.4146 3.1147 12.4146C3.48749 12.4146 3.7897 12.1124 3.7897 11.7396C3.7897 9.4137 4.81873 7.32891 6.44867 5.9142C6.58912 5.79229 6.67306 5.61784 6.68066 5.43201C6.68826 5.24619 6.61885 5.06547 6.48882 4.9325L6.2023 4.6395L8.36602 4.20675L7.99427 6.51688L7.65765 6.18026C7.4026 5.9252 6.99209 5.91574 6.72555 6.15878C5.27237 7.48382 4.17461 9.57573 4.17461 11.7396C4.17461 13.7599 4.99333 15.5902 6.31547 16.9148C6.57884 17.1786 7.00622 17.179 7.27007 16.9157C7.53391 16.6523 7.5343 16.2249 7.27093 15.9611C6.19111 14.8793 5.52461 13.3879 5.52461 11.7396C5.52461 10.2317 6.20459 8.71314 7.18287 7.61467L7.97357 8.40537C8.15284 8.58464 8.41745 8.64834 8.65866 8.57029C8.89988 8.49225 9.07702 8.28562 9.1173 8.03531L9.85332 3.46145ZM18.3451 5.80327C18.1169 5.54035 17.7261 5.49411 17.4429 5.6965L16.0233 6.7108C15.8663 6.82299 15.7648 6.99701 15.7445 7.18891C15.7241 7.3808 15.7869 7.57223 15.9169 7.71482C16.8857 8.7773 17.4756 10.1888 17.4756 11.7396C17.4756 12.1124 17.7778 12.4146 18.1506 12.4146C18.5234 12.4146 18.8256 12.1124 18.8256 11.7396C18.8256 10.1114 18.2937 8.60619 17.395 7.38993L17.7083 7.16605C18.6528 8.44568 19.2105 10.0268 19.2105 11.7396C19.2105 15.998 15.7585 19.45 11.5001 19.45C8.92532 19.45 6.64517 18.1886 5.24372 16.2471C5.02553 15.9448 4.60361 15.8767 4.30134 16.0949C3.99907 16.3131 3.93091 16.735 4.1491 17.0372C5.79343 19.3152 8.47339 20.8 11.5001 20.8C16.504 20.8 20.5605 16.7435 20.5605 11.7396C20.5605 9.46948 19.7248 7.39287 18.3451 5.80327ZM18.2276 14.6428C18.3755 14.3005 18.2179 13.9033 17.8757 13.7554C17.5335 13.6075 17.1362 13.7651 16.9884 14.1073C16.7122 14.7466 16.3273 15.3285 15.8566 15.8296C14.7657 16.9911 13.218 17.7151 11.5001 17.7151C10.5114 17.7151 9.58062 17.4755 8.76079 17.0518C8.42961 16.8806 8.02239 17.0104 7.85122 17.3415C7.68006 17.6727 7.80978 18.0799 8.14095 18.2511C9.14789 18.7715 10.2907 19.0651 11.5001 19.0651C13.606 19.0651 15.5052 18.1756 16.8406 16.7538C17.4167 16.1404 17.8886 15.4274 18.2276 14.6428ZM10.8487 9.63955L10.8543 9.63674L11.5005 9.31662C11.9724 9.0828 12.5121 9.02454 13.0231 9.15228L13.5505 9.28415L14.627 9.55326L16.2514 9.95937C16.4389 10.0062 16.5825 10.1569 16.6204 10.3464L16.636 10.424C16.7179 10.8337 16.7179 11.2556 16.636 11.6654C16.5983 11.8537 16.4825 12.0172 16.3173 12.1152L15.1211 12.8252C14.8836 12.9661 14.5769 12.8878 14.436 12.6504C14.295 12.4129 14.3733 12.1061 14.6107 11.9652L15.6783 11.3316C15.6817 11.3065 15.6846 11.2813 15.6871 11.256L14.5257 11.8901L12.6964 12.889L12.6935 12.8905L11.5329 13.5242C11.5229 13.6169 11.5166 13.71 11.5139 13.8031L13.3465 12.7155C13.584 12.5745 13.8908 12.6528 14.0317 12.8903C14.1726 13.1277 14.0944 13.4345 13.8569 13.5754L11.3285 15.076C11.2089 15.147 11.0651 15.1649 10.9317 15.1256L8.89844 14.5253C8.63359 14.4472 8.48227 14.1691 8.56046 13.9042C8.63864 13.6394 8.91671 13.4881 9.18156 13.5663L10.5127 13.9592C10.5112 13.8309 10.5152 13.7026 10.5245 13.5746L7.43931 12.7367C7.43816 12.8434 7.4431 12.9501 7.45413 13.0563L8.16492 13.2661C8.42976 13.3443 8.58108 13.6224 8.5029 13.8872C8.42472 14.1521 8.14664 14.3034 7.88179 14.2252L6.99728 13.9641C6.73284 13.8861 6.5362 13.6639 6.49087 13.3919C6.4167 12.9468 6.42235 12.4921 6.50756 12.0491L6.51571 12.0067C6.54522 11.8533 6.64474 11.7224 6.78474 11.6531L9.2472 10.433L9.25041 10.4314L10.8487 9.63955ZM14.3844 10.5234L14.767 10.619L14.2269 10.9139L13.9131 10.8236C13.6477 10.7472 13.3706 10.9004 13.2943 11.1658C13.2689 11.2537 13.2688 11.3429 13.2897 11.4257L12.3872 11.9184L11.5003 11.6967C11.2324 11.6297 10.9609 11.7926 10.8939 12.0605C10.8393 12.2788 10.9374 12.4995 11.1206 12.61L11.0102 12.6702L8.40967 11.964L9.51879 11.4145L9.84369 11.508C10.1091 11.5844 10.3861 11.4312 10.4625 11.1658C10.4843 11.0902 10.4874 11.0136 10.4746 10.9409L11.1304 10.616L12.0284 10.8405C12.2963 10.9074 12.5678 10.7446 12.6348 10.4767C12.6692 10.3391 12.6429 10.2005 12.573 10.0892C12.6426 10.0943 12.712 10.1053 12.7805 10.1224L13.308 10.2543L14.3844 10.5234Z" fill="#252323"/>
</g>
<defs>
<clipPath id="clip0_1247_16889">
<rect width="23" height="23" fill="white"/>
</clipPath>
</defs>
</svg>
