<svg width="44" height="44" viewBox="0 0 44 44" fill="none" xmlns="http://www.w3.org/2000/svg">
<g clip-path="url(#clip0_1234_15215)">
<path d="M16.0857 16.896C16.4999 16.896 16.8357 17.2318 16.8357 17.646C16.8357 18.0602 16.4999 18.396 16.0857 18.396H12.1238C11.4335 18.3961 10.8738 18.9557 10.8738 19.646V25.1948C11.0709 25.1628 11.2731 25.146 11.4792 25.146H12.6628V23.228C12.6628 21.7565 13.8564 20.5632 15.3279 20.563H19.7214C20.721 20.563 21.5915 21.1138 22.0476 21.9282C22.5036 21.1138 23.3741 20.563 24.3738 20.563H28.7673C30.239 20.563 31.4324 21.7564 31.4324 23.228V25.146H32.616C32.8221 25.146 33.0243 25.1628 33.2214 25.1948V24.063C33.2214 23.6488 33.5573 23.3131 33.9714 23.313C34.3855 23.3131 34.7214 23.6489 34.7214 24.063V25.7925C35.714 26.4671 36.366 27.6054 36.366 28.896V33.229C36.366 33.6432 36.0302 33.979 35.616 33.979H34.7214V35.979C34.7214 36.3931 34.3855 36.7288 33.9714 36.729C33.5573 36.7289 33.2214 36.3932 33.2214 35.979V33.979H29.1892C28.775 33.979 28.4392 33.6432 28.4392 33.229C28.4394 32.8149 28.7751 32.479 29.1892 32.479H34.866V28.896C34.866 27.6534 33.8586 26.646 32.616 26.646H11.4792C10.2366 26.646 9.22925 27.6534 9.22925 28.896V32.479H24.9041C25.3182 32.479 25.6539 32.8149 25.6541 33.229C25.6541 33.6432 25.3183 33.979 24.9041 33.979H10.8738V35.979C10.8738 36.3932 10.538 36.729 10.1238 36.729C9.70963 36.7289 9.37378 36.3932 9.37378 35.979V33.979H8.47925C8.06503 33.979 7.72925 33.6432 7.72925 33.229V28.896C7.72925 27.6054 8.38124 26.4671 9.37378 25.7925V19.646C9.37378 18.1273 10.6051 16.8961 12.1238 16.896H16.0857ZM15.3279 22.063C14.6848 22.0632 14.1628 22.5849 14.1628 23.228V25.146H20.8865V23.228C20.8865 22.5848 20.3646 22.063 19.7214 22.063H15.3279ZM24.3738 22.063C23.7306 22.063 23.2087 22.5848 23.2087 23.228V25.146H29.9324V23.228C29.9324 22.5848 29.4105 22.063 28.7673 22.063H24.3738ZM31.9714 16.896C33.4901 16.8962 34.7214 18.1273 34.7214 19.646V21.9185C34.7214 22.3325 34.3855 22.6683 33.9714 22.6685C33.5573 22.6684 33.2215 22.3326 33.2214 21.9185V19.646C33.2214 18.9557 32.6617 18.3962 31.9714 18.396H19.0662C18.6522 18.3957 18.3162 18.06 18.3162 17.646C18.3162 17.232 18.6522 16.8963 19.0662 16.896H31.9714Z" fill="#332A2A"/>
</g>
<defs>
<clipPath id="clip0_1234_15215">
<rect width="44" height="44" fill="white"/>
</clipPath>
</defs>
</svg>
