<svg width="44" height="44" viewBox="0 0 44 44" fill="none" xmlns="http://www.w3.org/2000/svg">
<g clip-path="url(#clip0_1234_15092)">
<path d="M18.3337 17.5835C18.7478 17.5837 19.0837 17.9194 19.0837 18.3335C19.0837 18.7476 18.7478 19.0833 18.3337 19.0835H16.6667C15.9764 19.0835 15.4167 19.6431 15.4167 20.3335V24.9165H16.6667V22.9985C16.6667 21.5269 17.8601 20.3335 19.3318 20.3335H24.6687C26.1404 20.3335 27.3337 21.5269 27.3337 22.9985V24.9165H28.5837V24.0376C28.5837 23.6234 28.9195 23.2876 29.3337 23.2876C29.7478 23.2878 30.0837 23.6235 30.0837 24.0376V25.0522C31.6691 25.49 32.8336 26.942 32.8337 28.6665V32.9995C32.8337 33.4136 32.4978 33.7493 32.0837 33.7495H31.2292V35.979C31.2292 36.3932 30.8934 36.7289 30.4792 36.729C30.0651 36.7289 29.7292 36.3932 29.7292 35.979V33.7495H27.3074C26.8932 33.7495 26.5574 33.4137 26.5574 32.9995C26.5577 32.5856 26.8934 32.2495 27.3074 32.2495H31.3337V28.6665C31.3336 27.4241 30.3261 26.4167 29.0837 26.4165H14.9167C13.6742 26.4165 12.6669 27.424 12.6667 28.6665V32.2495H24.1228C24.5368 32.2495 24.8725 32.5856 24.8728 32.9995C24.8728 33.4137 24.537 33.7495 24.1228 33.7495H14.5408V35.979C14.5408 36.3932 14.2049 36.7289 13.7908 36.729C13.3766 36.729 13.0408 36.3932 13.0408 35.979V33.7495H11.9167C11.5025 33.7495 11.1667 33.4137 11.1667 32.9995V28.6665C11.1669 26.9419 12.3313 25.4899 13.9167 25.0522V20.3335C13.9167 18.8147 15.148 17.5835 16.6667 17.5835H18.3337ZM19.3318 21.8335C18.6886 21.8335 18.1667 22.3553 18.1667 22.9985V24.9165H25.8337V22.9985C25.8337 22.3553 25.3119 21.8335 24.6687 21.8335H19.3318ZM27.3337 17.5835C28.8524 17.5837 30.0837 18.8148 30.0837 20.3335V22.1313C30.0836 22.5453 29.7477 22.8812 29.3337 22.8813C28.9196 22.8813 28.5839 22.5455 28.5837 22.1313V20.3335C28.5837 19.6432 28.0239 19.0837 27.3337 19.0835H20.1667C19.7525 19.0835 19.4167 18.7477 19.4167 18.3335C19.4167 17.9193 19.7525 17.5835 20.1667 17.5835H27.3337Z" fill="#332A2A"/>
</g>
<defs>
<clipPath id="clip0_1234_15092">
<rect width="44" height="44" fill="white"/>
</clipPath>
</defs>
</svg>
