<svg width="28" height="28" viewBox="0 0 28 28" fill="none" xmlns="http://www.w3.org/2000/svg">
<g clip-path="url(#clip0_1236_15974)">
<path fill-rule="evenodd" clip-rule="evenodd" d="M21.9481 15.8606L24.9613 14.0723C25.0394 14.026 25.0956 13.9504 25.1177 13.8624C25.2874 13.1836 25.3156 12.4771 25.2005 11.7869L25.0833 11.0833L21.1364 10.0966L18.5211 9.44272L16.4637 8.92837C16.0029 8.81318 15.5162 8.86571 15.0907 9.07656L9.62493 11.7846L2.9166 15.1084L2.89678 15.2114C2.71698 16.1463 2.70506 17.1057 2.86157 18.0448C2.89523 18.2467 3.04125 18.4117 3.23762 18.4697L12.7969 21.2916L17.0584 18.7625C17.5289 17.0267 19.1153 15.7499 20.9999 15.7499C21.3263 15.7499 21.6438 15.7882 21.9481 15.8606Z" fill="#E05149"/>
<path fill-rule="evenodd" clip-rule="evenodd" d="M11.1338 11.8741L13.6984 10.6034C13.729 10.6168 13.7609 10.6283 13.7939 10.6377C14.9147 10.958 15.8716 10.9583 16.0416 10.9583C16.4558 10.9583 16.7916 10.6225 16.7916 10.2083C16.7916 10.0325 16.7311 9.87086 16.6299 9.74301L18.3392 10.1703L20.9545 10.8242L23.0385 11.3452L22.7583 11.4982C22.4694 11.4906 21.8068 11.4505 21.0602 11.2371C20.6619 11.1233 20.2468 11.354 20.133 11.7522C20.0224 12.1391 20.2368 12.5418 20.6142 12.6689L18.8319 13.642L18.4794 13.7229C18.4077 13.7393 18.3328 13.7142 18.2854 13.6578C18.0459 13.3727 17.6566 13.2628 17.3034 13.3805L17.2613 13.3945C17.0625 13.4608 16.8435 13.4162 16.6865 13.2774L16.5384 13.1464C16.2281 12.872 15.7541 12.9012 15.4797 13.2115C15.2054 13.5218 15.2345 13.9958 15.5448 14.2701L15.6929 14.4011C15.9533 14.6313 16.2616 14.7886 16.5883 14.867L14.7451 15.8734C14.4604 15.8663 13.7926 15.8274 13.0393 15.6121C12.641 15.4983 12.2259 15.729 12.1121 16.1272C12.0314 16.4098 12.1241 16.7009 12.327 16.8868L5.02103 14.9027L5.63049 14.6008C6.07336 14.9555 6.66063 15.0886 7.21628 14.9545C7.76783 15.4049 8.56959 15.4652 9.19302 15.0496L9.30659 14.9739C9.65123 14.7441 9.74436 14.2784 9.5146 13.9338C9.28484 13.5891 8.81918 13.496 8.47454 13.7258L8.36097 13.8015C8.28509 13.8521 8.18257 13.8316 8.13198 13.7557C8.05991 13.6476 7.96814 13.5597 7.86434 13.494L8.78763 13.0365C9.80081 13.2913 10.634 13.2916 10.7916 13.2916C11.2058 13.2916 11.5416 12.9558 11.5416 12.5416C11.5416 12.2507 11.376 11.9984 11.1338 11.8741ZM24.4899 12.2618L23.0583 13.0434L19.4751 14.9998C19.4654 15.0054 19.4555 15.0108 19.4455 15.016L18.1073 15.7466L13.4811 18.2725C13.4015 18.8623 13.3797 19.4583 13.4161 20.052L16.4348 18.2605C17.0948 16.3623 18.8996 14.9999 21.0225 14.9999C21.2939 14.9999 21.56 15.0222 21.8191 15.065L24.4113 13.5266C24.4844 13.1085 24.5105 12.6843 24.4899 12.2618ZM23.6102 15.7463L25.3008 14.743C25.5888 14.5721 25.7907 14.287 25.8564 13.9586C26.0435 13.0232 26.0435 12.06 25.8564 11.1246L25.8187 10.9362C25.7619 10.652 25.5463 10.426 25.2652 10.3557L21.3183 9.36895L18.703 8.71511L16.6456 8.20076C16.0121 8.04238 15.3429 8.11461 14.7577 8.40453L2.58363 14.4363C2.37364 14.5404 2.22435 14.7366 2.18009 14.9667L2.16028 15.0698C1.96367 16.0921 1.95063 17.1412 2.12178 18.1681C2.20265 18.6533 2.55349 19.0497 3.02527 19.189L5.17433 19.8234C5.57159 19.9407 5.98871 19.7137 6.10598 19.3164C6.22326 18.9192 5.99628 18.5021 5.59901 18.3848L3.58053 17.7889C3.49552 17.2136 3.47995 16.6308 3.53366 16.0531L11.9617 18.3419C11.8924 18.9764 11.8805 19.6158 11.9261 20.2526L8.06908 19.114C7.67182 18.9967 7.2547 19.2237 7.13743 19.6209C7.02016 20.0182 7.24713 20.4353 7.6444 20.5526L12.5845 22.0109C12.7846 22.07 13.0003 22.043 13.1797 21.9366L16.1759 20.1584C16.3321 22.6993 18.4423 24.7118 21.0225 24.7118C23.7044 24.7118 25.8785 22.5377 25.8785 19.8559C25.8785 19.4417 25.5427 19.1059 25.1285 19.1059C24.7143 19.1059 24.3785 19.4417 24.3785 19.8559C24.3785 21.7093 22.876 23.2118 21.0225 23.2118C19.1691 23.2118 17.6666 21.7093 17.6666 19.8559C17.6666 18.0024 19.1691 16.4999 21.0225 16.4999C22.1891 16.4999 23.2171 17.0945 23.8196 18.0007C24.049 18.3456 24.5145 18.4393 24.8594 18.21C25.2043 17.9806 25.2981 17.5151 25.0687 17.1702C24.6891 16.5993 24.1914 16.113 23.6102 15.7463ZM18.1626 18.6632C18.1626 18.318 18.4424 18.0382 18.7876 18.0382H18.9333C19.2041 18.0382 19.457 18.1736 19.6073 18.3989L19.6922 18.5263C19.8439 18.7538 20.1783 18.7538 20.33 18.5263C20.644 18.0554 21.3359 18.0554 21.6498 18.5263C21.8015 18.7538 22.1359 18.7538 22.2877 18.5263L22.3725 18.3989C22.5228 18.1736 22.7757 18.0382 23.0465 18.0382H23.1922C23.5374 18.0382 23.8172 18.318 23.8172 18.6632C23.8172 18.977 23.5859 19.2368 23.2845 19.2814C22.7328 20.0346 21.6901 20.1485 20.9899 19.6232C20.2897 20.1485 19.2471 20.0346 18.6953 19.2814C18.3939 19.2368 18.1626 18.977 18.1626 18.6632ZM18.7876 20.062C18.4424 20.062 18.1626 20.3418 18.1626 20.687C18.1626 21.0008 18.3939 21.2606 18.6953 21.3053C19.2471 22.0584 20.2897 22.1723 20.9899 21.647C21.6901 22.1723 22.7328 22.0584 23.2845 21.3053C23.5859 21.2606 23.8172 21.0008 23.8172 20.687C23.8172 20.3418 23.5374 20.062 23.1922 20.062H23.0465C22.7757 20.062 22.5228 20.1974 22.3725 20.4227L22.2877 20.5501C22.1359 20.7777 21.8015 20.7777 21.6498 20.5501C21.3359 20.0792 20.644 20.0792 20.33 20.5501C20.1783 20.7777 19.8439 20.7777 19.6922 20.5501L19.6073 20.4227C19.457 20.1974 19.2041 20.062 18.9333 20.062H18.7876Z" fill="#332A2A"/>
</g>
<defs>
<clipPath id="clip0_1236_15974">
<rect width="28" height="28" fill="white"/>
</clipPath>
</defs>
</svg>
