<svg width="44" height="44" viewBox="0 0 44 44" fill="none" xmlns="http://www.w3.org/2000/svg">
<g clip-path="url(#clip0_1054_12077)">
<path fill-rule="evenodd" clip-rule="evenodd" d="M26.6636 6.53369C25.5807 5.99223 24.0365 5.6665 22.0738 5.6665C21.6597 5.66665 21.3238 6.00238 21.3238 6.4165C21.3238 6.83063 21.6597 7.16636 22.0738 7.1665C23.8923 7.1665 25.185 7.47164 25.9927 7.87549C26.8228 8.29063 26.9955 8.71896 26.9957 8.93701C26.9957 9.15498 26.8233 9.58415 25.9927 9.99951C25.1967 10.3975 23.9296 10.6996 22.1524 10.7083C22.1436 10.708 22.1348 10.7078 22.126 10.7078C20.3075 10.7078 19.0147 10.4037 18.207 9.99984C17.3764 9.58447 17.2041 9.15531 17.2041 8.93734C17.2041 8.52316 16.8683 8.18739 16.4541 8.18734C16.0399 8.18734 15.7041 8.52313 15.7041 8.93734C15.7041 9.97971 16.4764 10.8117 17.5361 11.3416C17.6268 11.387 17.7207 11.4308 17.8178 11.473C17.7413 11.5096 17.6671 11.5475 17.5953 11.5864C16.572 12.1414 15.9129 13.0107 16.0103 14.0493C16.1031 15.0374 16.8584 15.8454 17.8707 16.3765C18.9054 16.9192 20.332 17.2495 22.0738 17.2495C22.0841 17.2495 22.0944 17.2495 22.1047 17.2495C22.1118 17.2497 22.1189 17.2498 22.126 17.2498C22.1399 17.2498 22.1537 17.2498 22.1675 17.2498C23.9729 17.2599 25.2523 17.5622 26.0523 17.9595C26.889 18.375 27.0502 18.8 27.0474 19.0103C27.0444 19.2289 26.8614 19.6632 26.0152 20.0815C25.195 20.4871 23.8918 20.7915 22.0738 20.7915C22.0597 20.7915 22.0457 20.7915 22.0317 20.7916C20.2628 20.7812 18.9906 20.4803 18.1846 20.0819C17.3386 19.6636 17.1554 19.2293 17.1524 19.0106C17.1467 18.5965 16.8066 18.2649 16.3926 18.2703C15.9784 18.276 15.6467 18.6169 15.6524 19.0311C15.6667 20.0727 16.4548 20.8987 17.5205 21.4256C17.5955 21.4627 17.6726 21.4987 17.7518 21.5337C17.66 21.574 17.571 21.6157 17.4849 21.6587C16.4252 22.1886 15.6521 23.0197 15.6519 24.062C15.6519 25.1044 16.4251 25.9364 17.4849 26.4663C18.5678 27.0077 20.1113 27.3335 22.0738 27.3335C23.8923 27.3335 25.185 27.6376 25.9927 28.0415C26.8235 28.4569 26.9957 28.886 26.9957 29.104C26.9957 29.322 26.8235 29.7511 25.9927 30.1665C25.185 30.5704 23.8923 30.8745 22.0738 30.8745C22.0597 30.8745 22.0457 30.8745 22.0316 30.8746C20.2627 30.8642 19.0007 30.5627 18.207 30.1659C17.377 29.7507 17.2043 29.3224 17.2041 29.1043C17.2041 28.6902 16.8683 28.3544 16.4541 28.3543C16.0399 28.3543 15.7041 28.6901 15.7041 29.1043C15.7043 30.1465 16.4766 30.9778 17.5361 31.5077C17.5793 31.5292 17.6232 31.5505 17.6678 31.5714C17.5369 31.6208 17.4105 31.6724 17.2886 31.7261C16.148 32.2287 15.215 33.008 15.0503 34.0259C14.8674 35.1571 15.6805 36.0332 16.8169 36.5591C17.9786 37.0965 19.7241 37.4165 22.0738 37.4165C22.488 37.4165 22.8238 37.0807 22.8238 36.6665C22.8238 36.2523 22.488 35.9165 22.0738 35.9165C19.8272 35.9165 18.3285 35.6056 17.4468 35.1978C16.5404 34.7783 16.51 34.3941 16.5308 34.2651C16.5702 34.0226 16.8888 33.5417 17.8931 33.0991C18.84 32.6819 20.2363 32.3795 22.0293 32.3746C22.0614 32.3747 22.0937 32.3748 22.126 32.3748C23.9403 32.3748 25.3519 32.6778 26.3066 33.0985C27.3114 33.5412 27.6297 34.023 27.669 34.2655C27.7351 34.6743 28.1204 34.9527 28.5293 34.8866C28.938 34.8203 29.2154 34.4349 29.1494 34.0262C28.9848 33.0083 28.0518 32.229 26.9111 31.7264C26.7894 31.6728 26.6631 31.6212 26.5323 31.5718C26.5768 31.551 26.6206 31.5298 26.6636 31.5083C27.7234 30.9784 28.4957 30.1464 28.4957 29.104C28.4957 28.0616 27.7234 27.2296 26.6636 26.6997C25.5807 26.1582 24.0365 25.8335 22.0738 25.8335C20.2556 25.8335 18.9635 25.5283 18.1558 25.1245C17.325 24.7091 17.1519 24.28 17.1519 24.062C17.1521 23.8439 17.3254 23.4157 18.1558 23.0005C18.9569 22.6 20.2344 22.2965 22.0294 22.2916C22.0615 22.2917 22.0937 22.2918 22.126 22.2918C23.9441 22.2918 25.2362 22.5961 26.044 22.9998C26.8747 23.4152 27.0479 23.8444 27.0479 24.0623C27.0479 24.4765 27.3836 24.8123 27.7979 24.8123C28.212 24.8123 28.5479 24.4765 28.5479 24.0623C28.5479 23.0199 27.7747 22.188 26.7149 21.658C26.6292 21.6152 26.5407 21.5738 26.4493 21.5337C26.5281 21.4989 26.6047 21.4631 26.6792 21.4263C27.7451 20.8994 28.5332 20.0725 28.5474 19.0308C28.5617 17.9806 27.7858 17.1454 26.7193 16.6157C26.5744 16.5438 26.4212 16.4756 26.2597 16.4116C26.283 16.3998 26.3062 16.3878 26.3291 16.3758C27.3415 15.8447 28.0978 15.0369 28.1904 14.0487C28.2289 13.6366 27.9257 13.2711 27.5137 13.2323C27.1013 13.1936 26.735 13.4966 26.6963 13.909C26.6708 14.1812 26.4221 14.6335 25.6328 15.0477C24.8727 15.4464 23.7141 15.7443 22.1691 15.7498C22.1375 15.7496 22.1057 15.7495 22.0738 15.7495C20.5073 15.7495 19.3341 15.4508 18.5669 15.0483C17.7775 14.6341 17.529 14.1809 17.5035 13.9087C17.4828 13.6869 17.5918 13.2949 18.3111 12.9048C19.032 12.5139 20.2521 12.2085 22.0738 12.2085C24.0365 12.2085 25.5807 11.8828 26.6636 11.3413C27.7234 10.8114 28.4956 9.97938 28.4957 8.93701C28.4955 7.89483 27.7232 7.06356 26.6636 6.53369Z" fill="#332A2A"/>
</g>
<defs>
<clipPath id="clip0_1054_12077">
<rect width="44" height="44" fill="white"/>
</clipPath>
</defs>
</svg>
