<svg width="44" height="44" viewBox="0 0 44 44" fill="none" xmlns="http://www.w3.org/2000/svg">
<g clip-path="url(#clip0_1234_15248)">
<path fill-rule="evenodd" clip-rule="evenodd" d="M7.00684 32.0833H36.1735C36.7258 32.0833 37.1735 31.6356 37.1735 31.0833V26.7219C37.1735 26.4244 37.1307 26.1633 36.9872 25.9026C36.8974 25.7395 36.7982 25.5672 36.6951 25.3881C36.1658 24.4685 35.5331 23.3695 35.5331 22.4135V15.75C35.5331 14.6454 34.6377 13.75 33.5331 13.75H12.6472C9.88576 13.75 7.64719 15.9886 7.64719 18.75V22.7004C7.64719 23.7636 6.97691 24.6613 6.33852 25.5163C6.31759 25.5443 6.2967 25.5723 6.27586 25.6002C6.11307 25.8186 6.00684 26.0473 6.00684 26.2703V31.0841C6.00684 31.6364 6.45455 32.0833 7.00684 32.0833ZM9.59059 23.5V19.5L12.0906 18H16.5906L18.5906 19.5L19.0906 21.5L21.0906 21H23.0906H24.5906V19L25.5906 18.5H30.5906H33.0906L33.5906 21V24H9.59059V23.5Z" fill="#E05149"/>
<path fill-rule="evenodd" clip-rule="evenodd" d="M7.8409 16.75C7.8409 14.6789 9.51983 13 11.5909 13H15.4659C15.8801 13 16.2159 13.3358 16.2159 13.75C16.2159 14.1642 15.8801 14.5 15.4659 14.5H11.5909C10.3483 14.5 9.3409 15.5074 9.3409 16.75V23.1062C9.45065 23.0941 9.56184 23.0867 9.67423 23.0842V20.248C9.67423 18.7763 10.8672 17.5833 12.3389 17.5833H17.6762C19.1479 17.5833 20.3409 18.7763 20.3409 20.248V20.6007C20.6928 20.4294 21.0879 20.3333 21.5056 20.3333H23.1762C23.5939 20.3333 23.989 20.4294 24.3409 20.6007V20.248C24.3409 18.7763 25.5339 17.5833 27.0056 17.5833H32.3429C33.8146 17.5833 35.0076 18.7763 35.0076 20.248V23.0842C35.12 23.0867 35.2311 23.0941 35.3409 23.1062V21.5826C35.3409 21.1684 35.6767 20.8326 36.0909 20.8326C36.5051 20.8326 36.8409 21.1684 36.8409 21.5826V23.6095C37.9388 24.2636 38.6742 25.4626 38.6742 26.8333V32.0833C38.6742 32.4975 38.3384 32.8333 37.9242 32.8333H36.8409V35.75C36.8409 36.1642 36.5051 36.5 36.0909 36.5C35.6767 36.5 35.3409 36.1642 35.3409 35.75V32.8333H30.5427C30.1284 32.8333 29.7927 32.4975 29.7927 32.0833C29.7927 31.6691 30.1284 31.3333 30.5427 31.3333H36.0892L36.0909 31.3333L36.0926 31.3333H37.1742V26.8333C37.1742 25.5907 36.1669 24.5833 34.9242 24.5833H9.75757C8.51493 24.5833 7.50757 25.5907 7.50757 26.8333V31.3333H8.58919L8.5909 31.3333L8.59261 31.3333H25.6216C26.0358 31.3333 26.3716 31.6691 26.3716 32.0833C26.3716 32.4975 26.0358 32.8333 25.6216 32.8333H9.3409V35.75C9.3409 36.1642 9.00512 36.5 8.5909 36.5C8.17669 36.5 7.8409 36.1642 7.8409 35.75V32.8333H6.75757C6.34335 32.8333 6.00757 32.4975 6.00757 32.0833V26.8333C6.00757 25.4626 6.74304 24.2636 7.8409 23.6095V16.75ZM18.1534 13.75C18.1534 13.3358 18.4892 13 18.9034 13H33.0909C35.162 13 36.8409 14.6789 36.8409 16.75V18.9717C36.8409 19.3859 36.5051 19.7217 36.0909 19.7217C35.6767 19.7217 35.3409 19.3859 35.3409 18.9717V16.75C35.3409 15.5074 34.3335 14.5 33.0909 14.5H18.9034C18.4892 14.5 18.1534 14.1642 18.1534 13.75ZM27.0056 19.0833C26.3623 19.0833 25.8409 19.6048 25.8409 20.248V22.998V23.0833H33.5076V20.248C33.5076 19.6048 32.9861 19.0833 32.3429 19.0833H27.0056ZM11.1742 23.0833V20.248C11.1742 19.6048 11.6957 19.0833 12.3389 19.0833H17.6762C18.3195 19.0833 18.8409 19.6048 18.8409 20.248L18.8409 23.0833H11.1742ZM23.1762 21.8333C23.8195 21.8333 24.3409 22.3548 24.3409 22.998V23.0833H20.3409V22.998C20.3409 22.3548 20.8623 21.8333 21.5056 21.8333H23.1762ZM34.0284 16.5C34.0284 16.8797 33.7206 17.1875 33.3409 17.1875C32.9612 17.1875 32.6534 16.8797 32.6534 16.5C32.6534 16.1203 32.9612 15.8125 33.3409 15.8125C33.7206 15.8125 34.0284 16.1203 34.0284 16.5ZM26.0076 17.1875C26.3873 17.1875 26.6951 16.8797 26.6951 16.5C26.6951 16.1203 26.3873 15.8125 26.0076 15.8125C25.6279 15.8125 25.3201 16.1203 25.3201 16.5C25.3201 16.8797 25.6279 17.1875 26.0076 17.1875ZM19.3617 16.5C19.3617 16.8797 19.0539 17.1875 18.6742 17.1875C18.2945 17.1875 17.9867 16.8797 17.9867 16.5C17.9867 16.1203 18.2945 15.8125 18.6742 15.8125C19.0539 15.8125 19.3617 16.1203 19.3617 16.5ZM11.3409 17.1875C11.7206 17.1875 12.0284 16.8797 12.0284 16.5C12.0284 16.1203 11.7206 15.8125 11.3409 15.8125C10.9612 15.8125 10.6534 16.1203 10.6534 16.5C10.6534 16.8797 10.9612 17.1875 11.3409 17.1875ZM30.3617 16.5C30.3617 16.8797 30.0539 17.1875 29.6742 17.1875C29.2945 17.1875 28.9867 16.8797 28.9867 16.5C28.9867 16.1203 29.2945 15.8125 29.6742 15.8125C30.0539 15.8125 30.3617 16.1203 30.3617 16.5ZM22.3409 17.1875C22.7206 17.1875 23.0284 16.8797 23.0284 16.5C23.0284 16.1203 22.7206 15.8125 22.3409 15.8125C21.9612 15.8125 21.6534 16.1203 21.6534 16.5C21.6534 16.8797 21.9612 17.1875 22.3409 17.1875ZM23.0284 19.25C23.0284 19.6297 22.7206 19.9375 22.3409 19.9375C21.9612 19.9375 21.6534 19.6297 21.6534 19.25C21.6534 18.8703 21.9612 18.5625 22.3409 18.5625C22.7206 18.5625 23.0284 18.8703 23.0284 19.25ZM15.0076 17.1875C15.3873 17.1875 15.6951 16.8797 15.6951 16.5C15.6951 16.1203 15.3873 15.8125 15.0076 15.8125C14.6279 15.8125 14.3201 16.1203 14.3201 16.5C14.3201 16.8797 14.6279 17.1875 15.0076 17.1875Z" fill="#252323"/>
</g>
<defs>
<clipPath id="clip0_1234_15248">
<rect width="44" height="44" fill="white"/>
</clipPath>
</defs>
</svg>
