<svg width="23" height="23" viewBox="0 0 23 23" fill="none" xmlns="http://www.w3.org/2000/svg">
<g clip-path="url(#clip0_1234_15064)">
<path d="M10.668 9C11.0407 9.00006 11.3428 9.30205 11.3428 9.6748C11.3428 10.0476 11.0407 10.3496 10.668 10.3496H10.1123C9.38053 10.3496 8.78711 10.943 8.78711 11.6748V12.9414C8.93043 12.9059 9.07715 12.8795 9.22656 12.8613V12.3359C9.22656 11.4109 9.97629 10.6611 10.9014 10.6611H12.9902C13.9152 10.6612 14.665 11.4109 14.665 12.3359V12.8613C14.8141 12.8795 14.9605 12.906 15.1035 12.9414V11.5381C15.1034 10.8818 14.5714 10.3496 13.915 10.3496H12.7119C12.3393 10.3494 12.0371 10.0475 12.0371 9.6748C12.0371 9.30214 12.3393 9.00021 12.7119 9H13.915C15.3169 9 16.454 10.1362 16.4541 11.5381V13.5078C16.4541 13.5347 16.4484 13.5608 16.4453 13.5869C17.3241 14.2583 17.8915 15.3165 17.8916 16.5078V17.3408C17.8916 17.7135 17.5894 18.0164 17.2168 18.0166H17.0527V18.8984C17.0527 19.2712 16.7507 19.5732 16.3779 19.5732C16.0051 19.5732 15.7031 19.2712 15.7031 18.8984V18.0166H15.1631C14.7903 18.0166 14.4883 17.7136 14.4883 17.3408C14.4886 16.9683 14.7905 16.666 15.1631 16.666H16.541V16.5078C16.5408 15.224 15.5006 14.1828 14.2168 14.1826H9.6748C8.39085 14.1826 7.34979 15.2239 7.34961 16.5078V16.666H12.71C13.0825 16.666 13.3844 16.9683 13.3848 17.3408C13.3848 17.7136 13.0828 18.0166 12.71 18.0166H8.3291V18.8984C8.3291 19.2712 8.02709 19.5732 7.6543 19.5732C7.28151 19.5732 6.97949 19.2712 6.97949 18.8984V18.0166H6.6748C6.30201 18.0166 6 17.7136 6 17.3408V16.5078C6.0001 15.3168 6.5669 14.2583 7.44531 13.5869C7.44226 13.5608 7.4375 13.5347 7.4375 13.5078V11.6748C7.4375 10.1974 8.63494 9 10.1123 9H10.668ZM10.9014 12.0107C10.7219 12.0107 10.5762 12.1564 10.5762 12.3359V12.833H13.3154V12.3359C13.3154 12.1565 13.1696 12.0108 12.9902 12.0107H10.9014Z" fill="#332A2A"/>
</g>
<defs>
<clipPath id="clip0_1234_15064">
<rect width="23" height="23" fill="white"/>
</clipPath>
</defs>
</svg>
