<svg width="44" height="44" viewBox="0 0 44 44" fill="none" xmlns="http://www.w3.org/2000/svg">
<g clip-path="url(#clip0_1234_15368)">
<path d="M14.2083 10.25C14.6223 10.2502 14.9583 10.5859 14.9583 11C14.9583 11.4141 14.6223 11.7498 14.2083 11.75H11.4163C9.0692 11.7502 7.16626 13.6529 7.16626 16V21.9736C7.58833 21.3662 8.29062 20.9678 9.08618 20.9678C9.38098 20.9678 9.66241 21.0243 9.92212 21.124V20.46C9.92212 19.9495 10.0677 19.4737 10.3167 19.0684C10.3156 19.0526 10.3127 19.0365 10.3127 19.0205C10.3129 18.6467 10.6111 18.3431 10.9827 18.334C11.4292 17.9964 11.9843 17.7949 12.5872 17.7949H17.219C18.5987 17.7949 19.7339 18.8437 19.8704 20.1875C20.226 20.0116 20.6255 19.9102 21.0491 19.9102H22.5081C22.9373 19.9102 23.3414 20.0149 23.7004 20.1953C23.8333 18.8478 24.9704 17.795 26.3528 17.7949H30.9846C31.6327 17.7949 32.2267 18.0264 32.6887 18.4111C32.7825 18.3632 32.8877 18.333 33.0002 18.333C33.3797 18.3332 33.6876 18.6411 33.6877 19.0205C33.6877 19.2157 33.6045 19.3905 33.4739 19.5156C33.5854 19.8095 33.6497 20.127 33.6497 20.46V21.2012C33.9567 21.0528 34.3005 20.9678 34.6643 20.9678C35.6489 20.968 36.4895 21.5783 36.8333 22.4404V20.9688C36.8333 20.5546 37.1692 20.2189 37.5833 20.2188C37.9973 20.2189 38.3333 20.5546 38.3333 20.9688V23.833C38.3333 23.835 38.3323 23.8369 38.3323 23.8389C39.4303 24.4929 40.1663 25.6916 40.1663 27.0625V32.1875C40.1663 32.6017 39.8305 32.9375 39.4163 32.9375H38.3333V35.8623C38.3331 36.2763 37.9972 36.6121 37.5833 36.6123C37.1693 36.6121 36.8334 36.2763 36.8333 35.8623V32.9375H31.1663C30.7522 32.9373 30.4163 32.6016 30.4163 32.1875C30.4163 31.7734 30.7522 31.4377 31.1663 31.4375H38.6663V27.0625C38.6663 25.8199 37.6589 24.8125 36.4163 24.8125H7.58325C6.34061 24.8125 5.33325 25.8199 5.33325 27.0625V31.4375H25.6663C26.0805 31.4375 26.4163 31.7733 26.4163 32.1875C26.4163 32.6017 26.0805 32.9375 25.6663 32.9375H7.16626V35.8623C7.16608 36.2764 6.83036 36.6123 6.41626 36.6123C6.0023 36.6121 5.66644 36.2763 5.66626 35.8623V32.9375H4.58325C4.16904 32.9375 3.83325 32.6017 3.83325 32.1875V27.0625C3.83325 25.6919 4.56859 24.493 5.66626 23.8389V16C5.66626 12.8245 8.24077 10.2502 11.4163 10.25H14.2083ZM9.08618 22.4678C8.62425 22.4678 8.24938 22.8428 8.24927 23.3047V23.3125H9.92212V23.3047C9.922 22.8429 9.5479 22.468 9.08618 22.4678ZM12.5872 19.2949C11.944 19.295 11.4221 19.8168 11.4221 20.46V23.3125H18.384V20.46C18.384 19.8167 17.8622 19.2949 17.219 19.2949H12.5872ZM21.0491 21.4102C20.4059 21.4102 19.8841 21.932 19.884 22.5752V23.3125H23.6721V22.5752C23.6721 21.9322 23.151 21.4104 22.5081 21.4102H21.0491ZM26.3528 19.2949C25.7096 19.295 25.1877 19.8168 25.1877 20.46V23.3125H32.1497V20.46C32.1497 19.8167 31.6278 19.2949 30.9846 19.2949H26.3528ZM34.6643 22.4678C34.2024 22.4678 33.8275 22.8428 33.8274 23.3047V23.3125H35.5002V23.3047C35.5001 22.8429 35.126 22.468 34.6643 22.4678ZM22.0002 18.333C22.3797 18.3332 22.6876 18.6411 22.6877 19.0205C22.6877 19.4001 22.3798 19.7078 22.0002 19.708C21.6205 19.708 21.3127 19.4002 21.3127 19.0205C21.3129 18.641 21.6207 18.333 22.0002 18.333ZM32.5833 10.25C35.7587 10.2502 38.3333 12.8245 38.3333 16V17.6455C38.3333 18.0596 37.9973 18.3953 37.5833 18.3955C37.1692 18.3953 36.8333 18.0596 36.8333 17.6455V16C36.8333 13.6529 34.9303 11.7502 32.5833 11.75H18.1038C17.6897 11.7498 17.3538 11.4141 17.3538 11C17.3538 10.5859 17.6897 10.2502 18.1038 10.25H32.5833ZM11.0002 15.8125C11.3798 15.8127 11.6877 16.1204 11.6877 16.5C11.6877 16.8796 11.3798 17.1873 11.0002 17.1875C10.6205 17.1875 10.3127 16.8797 10.3127 16.5C10.3127 16.1203 10.6205 15.8125 11.0002 15.8125ZM14.6663 15.8125C15.046 15.8125 15.3538 16.1203 15.3538 16.5C15.3538 16.8797 15.046 17.1875 14.6663 17.1875C14.2867 17.1873 13.9788 16.8796 13.9788 16.5C13.9788 16.1204 14.2867 15.8127 14.6663 15.8125ZM18.3333 15.8125C18.7129 15.8125 19.0208 16.1203 19.0208 16.5C19.0208 16.8797 18.7129 17.1875 18.3333 17.1875C17.9536 17.1875 17.6458 16.8797 17.6458 16.5C17.6458 16.1203 17.9536 15.8125 18.3333 15.8125ZM22.0002 15.8125C22.3798 15.8127 22.6877 16.1204 22.6877 16.5C22.6877 16.8796 22.3798 17.1873 22.0002 17.1875C21.6205 17.1875 21.3127 16.8797 21.3127 16.5C21.3127 16.1203 21.6205 15.8125 22.0002 15.8125ZM25.6663 15.8125C26.046 15.8125 26.3538 16.1203 26.3538 16.5C26.3538 16.8797 26.046 17.1875 25.6663 17.1875C25.2867 17.1873 24.9788 16.8796 24.9788 16.5C24.9788 16.1204 25.2867 15.8127 25.6663 15.8125ZM29.3333 15.8125C29.7129 15.8125 30.0208 16.1203 30.0208 16.5C30.0208 16.8797 29.7129 17.1875 29.3333 17.1875C28.9536 17.1875 28.6458 16.8797 28.6458 16.5C28.6458 16.1203 28.9536 15.8125 29.3333 15.8125ZM33.0002 15.8125C33.3798 15.8127 33.6877 16.1204 33.6877 16.5C33.6877 16.8796 33.3798 17.1873 33.0002 17.1875C32.6205 17.1875 32.3127 16.8797 32.3127 16.5C32.3127 16.1203 32.6205 15.8125 33.0002 15.8125ZM11.0002 13.0625C11.3798 13.0627 11.6877 13.3704 11.6877 13.75C11.6877 14.1296 11.3798 14.4373 11.0002 14.4375C10.6205 14.4375 10.3127 14.1297 10.3127 13.75C10.3127 13.3703 10.6205 13.0625 11.0002 13.0625ZM14.6663 13.0625C15.046 13.0625 15.3538 13.3703 15.3538 13.75C15.3538 14.1297 15.046 14.4375 14.6663 14.4375C14.2867 14.4373 13.9788 14.1296 13.9788 13.75C13.9788 13.3704 14.2867 13.0627 14.6663 13.0625ZM18.3333 13.0625C18.7129 13.0625 19.0208 13.3703 19.0208 13.75C19.0208 14.1297 18.7129 14.4375 18.3333 14.4375C17.9536 14.4375 17.6458 14.1297 17.6458 13.75C17.6458 13.3703 17.9536 13.0625 18.3333 13.0625ZM22.0002 13.0625C22.3798 13.0627 22.6877 13.3704 22.6877 13.75C22.6877 14.1296 22.3798 14.4373 22.0002 14.4375C21.6205 14.4375 21.3127 14.1297 21.3127 13.75C21.3127 13.3703 21.6205 13.0625 22.0002 13.0625ZM25.6663 13.0625C26.046 13.0625 26.3538 13.3703 26.3538 13.75C26.3538 14.1297 26.046 14.4375 25.6663 14.4375C25.2867 14.4373 24.9788 14.1296 24.9788 13.75C24.9788 13.3704 25.2867 13.0627 25.6663 13.0625ZM29.3333 13.0625C29.7129 13.0625 30.0208 13.3703 30.0208 13.75C30.0208 14.1297 29.7129 14.4375 29.3333 14.4375C28.9536 14.4375 28.6458 14.1297 28.6458 13.75C28.6458 13.3703 28.9536 13.0625 29.3333 13.0625ZM33.0002 13.0625C33.3798 13.0627 33.6877 13.3704 33.6877 13.75C33.6877 14.1296 33.3798 14.4373 33.0002 14.4375C32.6205 14.4375 32.3127 14.1297 32.3127 13.75C32.3127 13.3703 32.6205 13.0625 33.0002 13.0625Z" fill="#332A2A"/>
</g>
<defs>
<clipPath id="clip0_1234_15368">
<rect width="44" height="44" fill="white"/>
</clipPath>
</defs>
</svg>
