<svg width="44" height="44" viewBox="0 0 44 44" fill="none" xmlns="http://www.w3.org/2000/svg">
<g clip-path="url(#clip0_1236_15745)">
<path fill-rule="evenodd" clip-rule="evenodd" d="M34.49 22.6738L39.2251 19.8637C39.3477 19.7909 39.4362 19.6721 39.4708 19.5338C39.7374 18.4671 39.7818 17.3569 39.601 16.2723L39.4167 15.1666L33.2145 13.616L29.1047 12.5886L25.4638 11.6784C25.0031 11.5632 24.5164 11.6157 24.0908 11.8266L15.1251 16.2688L4.5834 21.4918L4.55226 21.6537C4.26972 23.1228 4.25098 24.6304 4.49693 26.1061C4.54982 26.4235 4.77929 26.6828 5.08786 26.7738L20.1096 31.2083L26.8063 27.2339C27.5455 24.5063 30.0385 22.4999 33.0001 22.4999C33.513 22.4999 34.0119 22.5601 34.49 22.6738Z" fill="#E05149"/>
<path fill-rule="evenodd" clip-rule="evenodd" d="M26.7653 13.064L24.4511 12.4855C24.7105 12.3647 25.0038 12.3364 25.2819 12.406L28.9228 13.3162L33.0326 14.3437L37.372 15.4285L35.581 16.4064L33.925 15.9296C33.5269 15.8151 33.1114 16.0449 32.9968 16.4429C32.8822 16.841 33.112 17.2565 33.51 17.3711L33.7091 17.4284L24.2029 22.6188L22.5469 22.1421C22.1488 22.0275 21.7332 22.2573 21.6187 22.6553C21.5041 23.0534 21.7339 23.4689 22.1319 23.5835L22.331 23.6408L20.015 24.9054L6.68783 21.2861L9.15765 20.0624L13.0946 21.0467C13.4965 21.1471 13.9037 20.9028 14.0041 20.501C14.1046 20.0991 13.8603 19.6919 13.4584 19.5914L11.2317 19.0348L22.3765 13.513L26.4015 14.5192C26.8033 14.6197 27.2105 14.3753 27.311 13.9735C27.4115 13.5717 27.1671 13.1645 26.7653 13.064ZM36.0293 17.8707L38.8555 16.3275C38.974 17.3084 38.9378 18.3032 38.7467 19.2754L34.3694 21.8733C33.9372 21.7923 33.4914 21.7499 33.0356 21.7499C29.8325 21.7499 27.1178 23.8409 26.182 26.7323L20.7135 29.9777C20.5766 28.7172 20.6026 27.4444 20.7909 26.1908L36.0293 17.8707ZM39.5398 20.549L36.2464 22.5036C37.3789 23.0686 38.3415 23.923 39.037 24.969C39.2663 25.314 39.1726 25.7795 38.8277 26.0088C38.4828 26.2382 38.0172 26.1445 37.7879 25.7995C36.7651 24.2612 35.0183 23.2499 33.0356 23.2499C29.8864 23.2499 27.3334 25.8029 27.3334 28.9521C27.3334 32.1014 29.8864 34.6543 33.0356 34.6543C36.1848 34.6543 38.7378 32.1014 38.7378 28.9521C38.7378 28.5379 39.0736 28.2021 39.4878 28.2021C39.902 28.2021 40.2378 28.5379 40.2378 28.9521C40.2378 32.9298 37.0133 36.1543 33.0356 36.1543C29.0579 36.1543 25.8334 32.9298 25.8334 28.9521C25.8334 28.8612 25.8351 28.7706 25.8384 28.6804L20.4923 31.8532C20.3129 31.9597 20.0973 31.9866 19.8972 31.9276L12.1341 29.6359C11.7369 29.5186 11.5099 29.1015 11.6272 28.7043C11.7444 28.307 12.1616 28.08 12.5588 28.1973L19.2251 30.1652C19.0817 28.8648 19.0959 27.5525 19.2668 26.2566L5.18418 22.4321C5.02347 23.6104 5.04082 24.8074 5.23672 25.9828C5.2424 26.0169 5.26705 26.0448 5.3002 26.0545L8.67728 27.0515C9.07455 27.1687 9.30153 27.5858 9.18425 27.9831C9.06698 28.3804 8.64986 28.6074 8.2526 28.4901L4.87551 27.4932C4.29152 27.3208 3.85724 26.83 3.75713 26.2294C3.49655 24.6659 3.5164 23.0686 3.81576 21.512L3.8469 21.3501C3.89116 21.12 4.04044 20.9238 4.25043 20.8197L23.7579 11.1545C24.343 10.8646 25.0122 10.7924 25.6457 10.9508L29.2866 11.861L33.3964 12.8884L39.5986 14.439C39.8798 14.5093 40.0953 14.7353 40.1522 15.0195L40.2114 15.3157C40.4943 16.7301 40.4943 18.1865 40.2114 19.6009C40.132 19.9978 39.8879 20.3424 39.5398 20.549ZM30.2501 25.8749C29.8359 25.8749 29.5001 26.2107 29.5001 26.6249C29.5001 27.0392 29.8359 27.3749 30.2501 27.3749H35.7501C36.1643 27.3749 36.5001 27.0392 36.5001 26.6249C36.5001 26.2107 36.1643 25.8749 35.7501 25.8749H30.2501ZM29.5001 28.9166C29.5001 28.5024 29.8359 28.1666 30.2501 28.1666H35.7501C36.1643 28.1666 36.5001 28.5024 36.5001 28.9166C36.5001 29.3308 36.1643 29.6666 35.7501 29.6666H30.2501C29.8359 29.6666 29.5001 29.3308 29.5001 28.9166ZM30.2501 30.4583C29.8359 30.4583 29.5001 30.7941 29.5001 31.2083C29.5001 31.6225 29.8359 31.9583 30.2501 31.9583H35.7501C36.1643 31.9583 36.5001 31.6225 36.5001 31.2083C36.5001 30.7941 36.1643 30.4583 35.7501 30.4583H30.2501Z" fill="#332A2A"/>
</g>
<defs>
<clipPath id="clip0_1236_15745">
<rect width="44" height="44" fill="white"/>
</clipPath>
</defs>
</svg>
