<svg width="44" height="44" viewBox="0 0 44 44" fill="none" xmlns="http://www.w3.org/2000/svg">
<g clip-path="url(#clip0_1236_15862)">
<path fill-rule="evenodd" clip-rule="evenodd" d="M24.4238 12.5049C24.6898 12.3732 24.9939 12.3403 25.2819 12.4123L28.9228 13.3226L33.0326 14.35L37.372 15.4348L35.5214 16.4453L35.4458 16.4361C34.539 16.3262 33.6455 16.1253 32.7789 15.8364C32.3859 15.7054 31.9612 15.9178 31.8302 16.3108C31.6992 16.7037 31.9116 17.1285 32.3046 17.2595C32.6758 17.3832 33.0514 17.4924 33.4306 17.5868L24.1003 22.6812H23.94C23.0499 22.6812 22.1658 22.5368 21.322 22.2536C20.9293 22.1218 20.5042 22.3333 20.3724 22.726C20.2406 23.1187 20.4521 23.5439 20.8448 23.6756C21.1565 23.7802 21.4728 23.8688 21.7926 23.9412L20.015 24.9118L6.68783 21.2925L9.07855 20.108C10.207 20.7303 11.4272 21.1697 12.6937 21.4098C13.1007 21.487 13.4931 21.2196 13.5703 20.8126C13.6474 20.4057 13.3801 20.0132 12.9731 19.9361C12.2172 19.7928 11.4801 19.5685 10.7743 19.2678L22.322 13.5463L22.3266 13.5489C23.4855 14.2038 24.794 14.5479 26.1251 14.5479C26.5393 14.5479 26.8751 14.2122 26.8751 13.7979C26.8751 13.3837 26.5393 13.0479 26.1251 13.0479C25.4149 13.0479 24.7127 12.9264 24.0482 12.691L24.4238 12.5049ZM36.0293 17.877L38.8555 16.3339C38.974 17.3147 38.9378 18.3095 38.7467 19.2818L34.3694 21.8796C33.9372 21.7986 33.4914 21.7563 33.0356 21.7563C29.8325 21.7563 27.1178 23.8472 26.182 26.7386L20.7135 29.9841C20.5766 28.7235 20.6026 27.4507 20.7909 26.1971L24.6378 24.0967C24.6464 24.0922 24.6549 24.0876 24.6633 24.0828L36.0293 17.877ZM39.5398 20.5554L36.2464 22.51C37.3789 23.075 38.3415 23.9294 39.037 24.9754C39.2663 25.3203 39.1726 25.7858 38.8277 26.0152C38.4828 26.2445 38.0172 26.1508 37.7879 25.8059C36.7651 24.2675 35.0183 23.2563 33.0356 23.2563C29.8864 23.2563 27.3334 25.8092 27.3334 28.9585C27.3334 32.1077 29.8864 34.6607 33.0356 34.6607C36.1848 34.6607 38.7378 32.1077 38.7378 28.9585C38.7378 28.5443 39.0736 28.2085 39.4878 28.2085C39.902 28.2085 40.2378 28.5443 40.2378 28.9585C40.2378 32.9361 37.0133 36.1607 33.0356 36.1607C29.0579 36.1607 25.8334 32.9361 25.8334 28.9585C25.8334 28.8675 25.8351 28.7769 25.8384 28.6868L20.4923 31.8596C20.3129 31.9661 20.0973 31.993 19.8972 31.9339L12.1341 29.6423C11.7369 29.525 11.5099 29.1079 11.6272 28.7106C11.7444 28.3133 12.1616 28.0864 12.5588 28.2036L19.2251 30.1715C19.0817 28.8712 19.0959 27.5588 19.2668 26.2629L5.18418 22.4384C5.02347 23.6167 5.04082 24.8137 5.23672 25.9892C5.2424 26.0232 5.26705 26.0511 5.3002 26.0609L8.67728 27.0578C9.07455 27.1751 9.30153 27.5922 9.18425 27.9895C9.06698 28.3867 8.64986 28.6137 8.2526 28.4964L4.87551 27.4995C4.29152 27.3271 3.85724 26.8364 3.75713 26.2358C3.49655 24.6723 3.5164 23.0749 3.81576 21.5184L3.8469 21.3565C3.89116 21.1263 4.04044 20.9301 4.25043 20.8261L23.7579 11.1609C24.343 10.871 25.0122 10.7987 25.6457 10.9571L29.2866 11.8673L33.3964 12.8948L39.5986 14.4453C39.8798 14.5156 40.0953 14.7417 40.1522 15.0259L40.2114 15.322C40.4943 16.7364 40.4943 18.1928 40.2114 19.6072C40.132 20.0042 39.8879 20.3488 39.5398 20.5554ZM30.4873 25.4614C30.0943 25.3305 29.6696 25.5428 29.5386 25.9358C29.4076 26.3287 29.62 26.7535 30.0129 26.8845C31.9519 27.5308 34.0483 27.5308 35.9873 26.8845C36.3802 26.7535 36.5926 26.3287 36.4616 25.9358C36.3306 25.5428 35.9059 25.3305 35.5129 25.4614C33.8818 26.0051 32.1184 26.0051 30.4873 25.4614ZM29.5386 28.6858C29.6696 28.2928 30.0943 28.0805 30.4873 28.2114C32.1184 28.7551 33.8818 28.7551 35.5129 28.2114C35.9059 28.0805 36.3306 28.2928 36.4616 28.6858C36.5926 29.0787 36.3802 29.5035 35.9873 29.6345C34.0483 30.2808 31.9519 30.2808 30.0129 29.6345C29.62 29.5035 29.4076 29.0787 29.5386 28.6858ZM30.4873 30.9614C30.0943 30.8305 29.6696 31.0428 29.5386 31.4358C29.4076 31.8287 29.62 32.2535 30.0129 32.3845C31.9519 33.0308 34.0483 33.0308 35.9873 32.3845C36.3802 32.2535 36.5926 31.8287 36.4616 31.4358C36.3306 31.0428 35.9059 30.8305 35.5129 30.9614C33.8818 31.5051 32.1184 31.5051 30.4873 30.9614Z" fill="#332A2A"/>
</g>
<defs>
<clipPath id="clip0_1236_15862">
<rect width="44" height="44" fill="white"/>
</clipPath>
</defs>
</svg>
