<svg width="23" height="23" viewBox="0 0 23 23" fill="none" xmlns="http://www.w3.org/2000/svg">
<g clip-path="url(#clip0_1054_12043)">
<path fill-rule="evenodd" clip-rule="evenodd" d="M14.375 4.55192C14.375 5.21351 13.0878 5.74984 11.5 5.74984C9.91218 5.74984 8.625 5.21351 8.625 4.55192C8.625 3.89033 9.91218 3.354 11.5 3.354C13.0878 3.354 14.375 3.89033 14.375 4.55192ZM14.375 9.82275C14.375 10.4843 13.0878 11.0207 11.5 11.0207C9.91218 11.0207 8.625 10.4843 8.625 9.82275C8.625 9.16116 9.91218 8.62484 11.5 8.62484C13.0878 8.62484 14.375 9.16116 14.375 9.82275ZM11.5 16.2915C13.0878 16.2915 14.375 15.7552 14.375 15.0936C14.375 14.432 13.0878 13.8957 11.5 13.8957C9.91218 13.8957 8.625 14.432 8.625 15.0936C8.625 15.7552 9.91218 16.2915 11.5 16.2915Z" fill="#E05149"/>
<path d="M11.5656 8.625C13.2951 8.625 14.2834 7.96615 14.3452 7.30729M11.5657 5.98958C9.58909 5.98958 8.6008 5.33073 8.6008 4.67188M8.57384 9.94271C8.58283 10.6016 9.58908 11.2604 11.5656 11.2604C13.5422 11.2604 14.5305 11.9193 14.5305 12.5781M8.6008 15.2135C8.60081 15.8724 9.58909 16.5313 11.5657 16.5313C13.5422 16.5313 14.7436 17.1901 14.8501 17.849" stroke="#332A2A" stroke-width="1.5" stroke-linecap="round"/>
<path d="M11.5385 19.1665C6.73313 19.1665 7.58539 16.5311 11.5385 16.5311C15.4917 16.5311 15.4917 13.8957 11.5385 13.8957C7.58541 13.8957 7.58538 11.2603 11.5385 11.2602C15.4917 11.2602 15.5635 8.62484 11.5385 8.62484C8.07957 8.62484 7.5854 5.98942 11.5385 5.98942C15.4916 5.98942 15.4917 3.354 11.5385 3.354" stroke="#332A2A" stroke-width="1.5" stroke-linecap="round"/>
</g>
<defs>
<clipPath id="clip0_1054_12043">
<rect width="23" height="23" fill="white"/>
</clipPath>
</defs>
</svg>
