<svg width="23" height="23" viewBox="0 0 23 23" fill="none" xmlns="http://www.w3.org/2000/svg">
<g clip-path="url(#clip0_1045_11586)">
<path fill-rule="evenodd" clip-rule="evenodd" d="M8.59072 4.3127C8.60131 4.32815 8.62005 4.35121 8.65242 4.38181C8.75161 4.47562 8.93137 4.5912 9.20948 4.70244C9.76194 4.92343 10.5715 5.0752 11.5 5.0752C11.8727 5.0752 12.175 5.3774 12.175 5.7502C12.175 6.12299 11.8727 6.4252 11.5 6.4252C10.4437 6.4252 9.45631 6.25517 8.7081 5.95588C8.66543 5.93882 8.62311 5.92116 8.5812 5.90288V7.95643L11.9641 8.80215L14.4187 7.71122V6.80184C14.4186 6.79446 14.4186 6.78706 14.4187 6.77965V5.90289C14.2387 5.98138 14.0477 6.04997 13.8504 6.10925C13.4934 6.21652 13.117 6.01405 13.0098 5.65703C12.9025 5.3 13.1049 4.92362 13.462 4.81635C13.8515 4.69933 14.1249 4.56053 14.2861 4.4343C14.3587 4.37746 14.3933 4.33637 14.4092 4.31268C14.3986 4.29723 14.3798 4.27418 14.3475 4.24358C14.2483 4.14977 14.0685 4.03419 13.7904 3.92295C13.238 3.70196 12.4285 3.5502 11.5 3.5502C10.5715 3.5502 9.76194 3.70196 9.20948 3.92295C8.93137 4.03419 8.75161 4.14977 8.65242 4.24358C8.62005 4.27418 8.60131 4.29724 8.59072 4.3127ZM15.7687 4.3127V6.26319L17.2153 6.62484C17.4263 6.67757 17.5989 6.82869 17.6791 7.03081L19.2274 10.9343C19.3609 11.2709 19.205 11.6529 18.8741 11.8L17.7266 12.3099V14.5002C17.7266 14.873 17.4244 15.1752 17.0516 15.1752C16.6789 15.1752 16.3766 14.873 16.3766 14.5002V12.9099L13.8483 14.0336C13.6804 14.1083 13.4893 14.1112 13.3191 14.0418C13.149 13.9723 13.0145 13.8365 12.9467 13.6657L12.7009 13.0458V15.0854C12.7009 15.4582 12.3987 15.7604 12.0259 15.7604C11.6531 15.7604 11.3509 15.4582 11.3509 15.0854V14.1123C11.1902 14.2506 10.9671 14.311 10.7463 14.2558L6.58251 13.2149V18.6009L11.3509 19.793V17.8715C11.3509 17.4987 11.6531 17.1965 12.0259 17.1965C12.3987 17.1965 12.7009 17.4987 12.7009 17.8715V19.6188L16.3766 17.9852V16.7857C16.3766 16.4129 16.6789 16.1107 17.0516 16.1107C17.4244 16.1107 17.7266 16.4129 17.7266 16.7857V18.4238C17.7266 18.6906 17.5695 18.9323 17.3258 19.0406L12.3 21.2743C12.1624 21.3355 12.0083 21.3489 11.8621 21.3123L5.7438 19.7828C5.44331 19.7076 5.23251 19.4376 5.23251 19.1279V12.8774L4.62799 12.7263C4.45187 12.6822 4.30091 12.5691 4.20919 12.4125C4.11747 12.2558 4.09272 12.0688 4.14053 11.8937L4.41948 10.8717C4.51765 10.5121 4.88877 10.3002 5.24841 10.3983C5.60804 10.4965 5.82 10.8676 5.72183 11.2273L5.62449 11.5838L6.0575 11.6921C6.06706 11.6943 6.07654 11.6966 6.08594 11.6992L10.4328 12.7859L11.1931 10.0009L6.38472 8.79885L6.27974 9.18344C6.18156 9.54307 5.81044 9.75503 5.45081 9.65686C5.09117 9.55869 4.87922 9.18757 4.97739 8.82793L5.25634 7.80603C5.30972 7.61048 5.44815 7.44928 5.63338 7.36695L7.2312 6.65683V4.3127C7.2312 3.86881 7.45888 3.51423 7.72482 3.26273C7.98933 3.01258 8.33586 2.8184 8.7081 2.66951C9.45631 2.37022 10.4437 2.2002 11.5 2.2002C12.5562 2.2002 13.5436 2.37022 14.2918 2.66951C14.664 2.8184 15.0106 3.01258 15.2751 3.26273C15.541 3.51423 15.7687 3.86881 15.7687 4.3127ZM16.6834 8.18201L12.8923 9.86696L13.9424 12.5145L16.7641 11.2604C16.7732 11.2561 16.7823 11.2521 16.7916 11.2482L17.7335 10.8296L16.6834 8.18201ZM11.5 4.79202C12.2939 4.79202 12.9375 4.57749 12.9375 4.31286C12.9375 4.04822 12.2939 3.83369 11.5 3.83369C10.706 3.83369 10.0625 4.04822 10.0625 4.31286C10.0625 4.57749 10.706 4.79202 11.5 4.79202Z" fill="#252323"/>
</g>
<defs>
<clipPath id="clip0_1045_11586">
<rect width="23" height="23" fill="white"/>
</clipPath>
</defs>
</svg>
