<svg width="44" height="44" viewBox="0 0 44 44" fill="none" xmlns="http://www.w3.org/2000/svg">
<g clip-path="url(#clip0_1234_15461)">
<path fill-rule="evenodd" clip-rule="evenodd" d="M11.4166 10.25C8.24095 10.25 5.66659 12.8244 5.66659 16V17.4167V23.8333L5.6666 23.8386C4.56873 24.4927 3.83325 25.6917 3.83325 27.0625V32.1875C3.83325 32.6017 4.16904 32.9375 4.58325 32.9375H5.66659V35.8621C5.66659 36.2763 6.00237 36.6121 6.41659 36.6121C6.8308 36.6121 7.16659 36.2763 7.16659 35.8621V32.9375H25.6666C26.0808 32.9375 26.4166 32.6017 26.4166 32.1875C26.4166 31.7733 26.0808 31.4375 25.6666 31.4375H5.33325V27.0625C5.33325 25.8199 6.34061 24.8125 7.58325 24.8125H36.4166C37.6592 24.8125 38.6666 25.8199 38.6666 27.0625V31.4375H31.1666C30.7524 31.4375 30.4166 31.7733 30.4166 32.1875C30.4166 32.6017 30.7524 32.9375 31.1666 32.9375H36.8333V35.8621C36.8333 36.2763 37.169 36.6121 37.5833 36.6121C37.9975 36.6121 38.3333 36.2763 38.3333 35.8621V32.9375H39.4166C39.8308 32.9375 40.1666 32.6017 40.1666 32.1875V27.0625C40.1666 25.6917 39.4311 24.4927 38.3332 23.8386L38.3333 23.8333V20.9688C38.3333 20.5545 37.9975 20.2188 37.5833 20.2188C37.169 20.2188 36.8333 20.5545 36.8333 20.9688V22.4351C36.4883 21.5752 35.647 20.968 34.6638 20.968C34.3003 20.968 33.9562 21.051 33.6494 21.1991V20.4595C33.6494 20.1271 33.5885 19.8089 33.4773 19.5155C33.6069 19.3905 33.6874 19.2151 33.6874 19.0208C33.6874 18.6411 33.3796 18.3333 32.9999 18.3333C32.887 18.3333 32.7804 18.3606 32.6864 18.4088C32.2248 18.0254 31.6317 17.7948 30.9847 17.7948H26.3525C24.9712 17.7948 23.8353 18.8459 23.7011 20.1919C23.3421 20.0117 22.9366 19.9103 22.5075 19.9103H21.0484C20.6252 19.9103 20.2251 20.0089 19.8697 20.1845C19.7321 18.842 18.5979 17.7948 17.2191 17.7948H12.5869C11.9834 17.7948 11.4268 17.9954 10.98 18.3336C10.6095 18.3441 10.3124 18.6478 10.3124 19.0208C10.3124 19.0366 10.313 19.0523 10.314 19.0679C10.0655 19.4729 9.9222 19.9495 9.9222 20.4595V21.1222C9.66249 21.0226 9.38047 20.968 9.0857 20.968C8.29083 20.968 7.58866 21.3649 7.16659 21.9713V17.4167V16C7.16659 13.6528 9.06938 11.75 11.4166 11.75H14.2083C14.6225 11.75 14.9583 11.4142 14.9583 11C14.9583 10.5858 14.6225 10.25 14.2083 10.25H11.4166ZM18.1041 10.25C17.6899 10.25 17.3541 10.5858 17.3541 11C17.3541 11.4142 17.6899 11.75 18.1041 11.75H21.9999H32.5833C34.9305 11.75 36.8333 13.6528 36.8333 16V17.6458C36.8333 18.06 37.169 18.3958 37.5833 18.3958C37.9975 18.3958 38.3333 18.06 38.3333 17.6458V16C38.3333 12.8244 35.7589 10.25 32.5833 10.25H21.9999H18.1041ZM25.1878 20.4595C25.1878 19.8163 25.7093 19.2948 26.3525 19.2948H30.9847C31.6279 19.2948 32.1494 19.8163 32.1494 20.4595V23.3125H25.1878V20.4595ZM9.9222 23.3125V23.2965C9.91787 22.8382 9.54501 22.468 9.0857 22.468C8.62369 22.468 8.24916 22.8425 8.24916 23.3045V23.3125H9.9222ZM11.4222 20.4595V23.291L11.4222 23.3045V23.3125H18.3837V22.5749L18.3837 22.5647V20.4595C18.3837 19.8163 17.8623 19.2948 17.2191 19.2948H12.5869C11.9436 19.2948 11.4222 19.8163 11.4222 20.4595ZM23.6722 23.3125H19.8837V22.5682C19.8874 21.9281 20.4074 21.4103 21.0484 21.4103H22.5075C23.1507 21.4103 23.6722 21.9317 23.6722 22.5749V23.3125ZM35.5004 23.3125V23.3045C35.5004 22.8425 35.1258 22.468 34.6638 22.468C34.2018 22.468 33.8273 22.8425 33.8273 23.3045V23.3125H35.5004ZM32.9999 14.4375C33.3796 14.4375 33.6874 14.1297 33.6874 13.75C33.6874 13.3703 33.3796 13.0625 32.9999 13.0625C32.6202 13.0625 32.3124 13.3703 32.3124 13.75C32.3124 14.1297 32.6202 14.4375 32.9999 14.4375ZM33.6874 16.5C33.6874 16.8797 33.3796 17.1875 32.9999 17.1875C32.6202 17.1875 32.3124 16.8797 32.3124 16.5C32.3124 16.1203 32.6202 15.8125 32.9999 15.8125C33.3796 15.8125 33.6874 16.1203 33.6874 16.5ZM26.3541 13.75C26.3541 14.1297 26.0463 14.4375 25.6666 14.4375C25.2869 14.4375 24.9791 14.1297 24.9791 13.75C24.9791 13.3703 25.2869 13.0625 25.6666 13.0625C26.0463 13.0625 26.3541 13.3703 26.3541 13.75ZM25.6666 17.1875C26.0463 17.1875 26.3541 16.8797 26.3541 16.5C26.3541 16.1203 26.0463 15.8125 25.6666 15.8125C25.2869 15.8125 24.9791 16.1203 24.9791 16.5C24.9791 16.8797 25.2869 17.1875 25.6666 17.1875ZM19.0208 13.75C19.0208 14.1297 18.7129 14.4375 18.3333 14.4375C17.9536 14.4375 17.6458 14.1297 17.6458 13.75C17.6458 13.3703 17.9536 13.0625 18.3333 13.0625C18.7129 13.0625 19.0208 13.3703 19.0208 13.75ZM18.3333 17.1875C18.7129 17.1875 19.0208 16.8797 19.0208 16.5C19.0208 16.1203 18.7129 15.8125 18.3333 15.8125C17.9536 15.8125 17.6458 16.1203 17.6458 16.5C17.6458 16.8797 17.9536 17.1875 18.3333 17.1875ZM11.6874 13.75C11.6874 14.1297 11.3796 14.4375 10.9999 14.4375C10.6202 14.4375 10.3124 14.1297 10.3124 13.75C10.3124 13.3703 10.6202 13.0625 10.9999 13.0625C11.3796 13.0625 11.6874 13.3703 11.6874 13.75ZM10.9999 17.1875C11.3796 17.1875 11.6874 16.8797 11.6874 16.5C11.6874 16.1203 11.3796 15.8125 10.9999 15.8125C10.6202 15.8125 10.3124 16.1203 10.3124 16.5C10.3124 16.8797 10.6202 17.1875 10.9999 17.1875ZM29.3333 14.4375C29.7129 14.4375 30.0208 14.1297 30.0208 13.75C30.0208 13.3703 29.7129 13.0625 29.3333 13.0625C28.9536 13.0625 28.6458 13.3703 28.6458 13.75C28.6458 14.1297 28.9536 14.4375 29.3333 14.4375ZM30.0208 16.5C30.0208 16.8797 29.7129 17.1875 29.3333 17.1875C28.9536 17.1875 28.6458 16.8797 28.6458 16.5C28.6458 16.1203 28.9536 15.8125 29.3333 15.8125C29.7129 15.8125 30.0208 16.1203 30.0208 16.5ZM21.9999 14.4375C22.3796 14.4375 22.6874 14.1297 22.6874 13.75C22.6874 13.3703 22.3796 13.0625 21.9999 13.0625C21.6202 13.0625 21.3124 13.3703 21.3124 13.75C21.3124 14.1297 21.6202 14.4375 21.9999 14.4375ZM22.6874 16.5C22.6874 16.8797 22.3796 17.1875 21.9999 17.1875C21.6202 17.1875 21.3124 16.8797 21.3124 16.5C21.3124 16.1203 21.6202 15.8125 21.9999 15.8125C22.3796 15.8125 22.6874 16.1203 22.6874 16.5ZM21.9999 19.7083C22.3796 19.7083 22.6874 19.4005 22.6874 19.0208C22.6874 18.6411 22.3796 18.3333 21.9999 18.3333C21.6202 18.3333 21.3124 18.6411 21.3124 19.0208C21.3124 19.4005 21.6202 19.7083 21.9999 19.7083ZM15.3541 13.75C15.3541 14.1297 15.0463 14.4375 14.6666 14.4375C14.2869 14.4375 13.9791 14.1297 13.9791 13.75C13.9791 13.3703 14.2869 13.0625 14.6666 13.0625C15.0463 13.0625 15.3541 13.3703 15.3541 13.75ZM14.6666 17.1875C15.0463 17.1875 15.3541 16.8797 15.3541 16.5C15.3541 16.1203 15.0463 15.8125 14.6666 15.8125C14.2869 15.8125 13.9791 16.1203 13.9791 16.5C13.9791 16.8797 14.2869 17.1875 14.6666 17.1875Z" fill="#252323"/>
</g>
<defs>
<clipPath id="clip0_1234_15461">
<rect width="44" height="44" fill="white"/>
</clipPath>
</defs>
</svg>
