<svg width="24" height="23" viewBox="0 0 24 23" fill="none" xmlns="http://www.w3.org/2000/svg">
<g clip-path="url(#clip0_1236_16023)">
<path fill-rule="evenodd" clip-rule="evenodd" d="M10.0115 9.75933L12.0043 8.772C12.024 8.77972 12.0443 8.78659 12.0651 8.79253C12.9933 9.05771 13.7855 9.05799 13.927 9.05799C14.2984 9.05799 14.5995 8.7569 14.5995 8.38549C14.5995 8.28026 14.5753 8.18067 14.5322 8.09197L15.8006 8.40907L17.9489 8.94614L19.5206 9.33908L19.4306 9.38823C19.1886 9.38108 18.6594 9.34622 18.0649 9.17636C17.7077 9.07433 17.3355 9.28112 17.2335 9.63824C17.1457 9.94566 17.2867 10.2643 17.5554 10.4121L16.1988 11.1528L15.9169 11.2175C15.8786 11.2263 15.8386 11.2129 15.8133 11.1828C15.6017 10.9308 15.2577 10.8337 14.9456 10.9377L14.911 10.9493C14.7668 10.9973 14.608 10.9649 14.4941 10.8643L14.3724 10.7567C14.0942 10.5107 13.6692 10.5368 13.4232 10.815C13.1771 11.0933 13.2033 11.5183 13.4815 11.7643L13.6032 11.8719C13.7878 12.0351 14.0009 12.1551 14.2277 12.229L12.8483 12.9822C12.6092 12.9754 12.076 12.9414 11.4763 12.7701C11.1192 12.6681 10.747 12.8749 10.6449 13.232C10.5908 13.4215 10.6236 13.6152 10.7197 13.7706L5.03269 12.2262L5.3682 12.0599C5.7347 12.3398 6.2102 12.4463 6.66369 12.3453C7.13459 12.7146 7.80758 12.7593 8.33266 12.4092L8.42594 12.347C8.73498 12.141 8.81848 11.7235 8.61246 11.4144C8.40644 11.1054 7.9889 11.0219 7.67987 11.2279L7.58658 11.2901C7.55018 11.3144 7.501 11.3045 7.47674 11.2681C7.4319 11.2009 7.37844 11.1425 7.31872 11.0935L7.97481 10.7685C8.80462 10.9744 9.48442 10.9747 9.61448 10.9747C9.98589 10.9747 10.287 10.6736 10.287 10.3022C10.287 10.0793 10.1785 9.88169 10.0115 9.75933ZM20.8138 10.1654L19.7177 10.7639L16.7756 12.3703C16.7668 12.3753 16.758 12.3802 16.749 12.3848L15.6508 12.9844L11.8759 15.0455C11.818 15.4864 11.7999 15.9315 11.8215 16.3754L14.2035 14.9618C14.7588 13.3907 16.2572 12.2651 18.0185 12.2651C18.2374 12.2651 18.4522 12.2825 18.6616 12.3159L20.7509 11.076C20.8018 10.7748 20.8228 10.4698 20.8138 10.1654ZM20.2511 12.9366L21.5615 12.159C21.8118 12.0104 21.9874 11.7626 22.0445 11.4771C22.1996 10.7015 22.1996 9.90281 22.0445 9.12716L22.0135 8.97235C21.9625 8.71751 21.7693 8.51485 21.5172 8.45182L18.2751 7.6413L16.1268 7.10422L14.5642 6.71359C13.9486 6.55967 13.2982 6.62986 12.7296 6.91161L2.84716 11.808C2.65887 11.9013 2.52501 12.0772 2.48532 12.2836L2.46905 12.3682C2.30628 13.2145 2.29549 14.0831 2.43717 14.9332C2.50715 15.3531 2.81075 15.6961 3.21902 15.8166L4.98431 16.3378C5.34052 16.4429 5.71454 16.2394 5.81969 15.8832C5.92485 15.527 5.72132 15.1529 5.36511 15.0478L3.74176 14.5686C3.68029 14.1343 3.66738 13.6949 3.70294 13.2588L10.5144 15.1086C10.4645 15.5904 10.4546 16.0756 10.4847 16.5591L7.3941 15.6468C7.03788 15.5416 6.66387 15.7451 6.55871 16.1013C6.45356 16.4576 6.65708 16.8316 7.0133 16.9367L11.0713 18.1346C11.2507 18.1876 11.444 18.1634 11.6049 18.068L13.9876 16.6539C14.162 18.7272 15.9001 20.3555 18.0185 20.3555C20.2526 20.3555 22.0637 18.5444 22.0637 16.3103C22.0637 15.9389 21.7626 15.6378 21.3912 15.6378C21.0198 15.6378 20.7187 15.9389 20.7187 16.3103C20.7187 17.8016 19.5098 19.0105 18.0185 19.0105C16.5272 19.0105 15.3182 17.8016 15.3182 16.3103C15.3182 14.819 16.5272 13.6101 18.0185 13.6101C18.957 13.6101 19.7842 14.0884 20.2691 14.8176C20.4747 15.1269 20.8921 15.211 21.2014 15.0053C21.5107 14.7997 21.5947 14.3822 21.3891 14.073C21.0898 13.6228 20.7023 13.2358 20.2511 12.9366ZM15.6826 15.3306C15.6826 15.0545 15.9065 14.8306 16.1826 14.8306H16.3023C16.5203 14.8306 16.7239 14.9396 16.8448 15.121L16.9145 15.2256C17.0444 15.4205 17.3308 15.4205 17.4608 15.2256C17.7133 14.8467 18.27 14.8467 18.5225 15.2256C18.6525 15.4205 18.9389 15.4205 19.0688 15.2256L19.1385 15.121C19.2595 14.9396 19.463 14.8306 19.681 14.8306H19.8007C20.0768 14.8306 20.3007 15.0545 20.3007 15.3306C20.3007 15.5836 20.1128 15.7927 19.869 15.826C19.4191 16.4454 18.5625 16.5375 17.9917 16.1023C17.4208 16.5375 16.5642 16.4454 16.1143 15.826C15.8705 15.7927 15.6826 15.5836 15.6826 15.3306ZM16.1826 16.493C15.9065 16.493 15.6826 16.7169 15.6826 16.993C15.6826 17.246 15.8705 17.4551 16.1143 17.4884C16.5642 18.1078 17.4208 18.2 17.9917 17.7648C18.5625 18.2 19.4191 18.1078 19.869 17.4884C20.1128 17.4551 20.3007 17.246 20.3007 16.993C20.3007 16.7169 20.0768 16.493 19.8007 16.493H19.681C19.463 16.493 19.2595 16.602 19.1385 16.7834L19.0688 16.888C18.9389 17.0829 18.6525 17.0829 18.5225 16.888C18.27 16.5091 17.7133 16.5091 17.4608 16.888C17.3308 17.0829 17.0444 17.0829 16.9145 16.888L16.8448 16.7834C16.7239 16.602 16.5203 16.493 16.3023 16.493H16.1826Z" fill="#252323"/>
</g>
<defs>
<clipPath id="clip0_1236_16023">
<rect width="23" height="23" fill="white" transform="translate(0.75)"/>
</clipPath>
</defs>
</svg>
