<svg width="23" height="23" viewBox="0 0 23 23" fill="none" xmlns="http://www.w3.org/2000/svg">
<g clip-path="url(#clip0_1045_11586)">
<path fill-rule="evenodd" clip-rule="evenodd" d="M11.425 2.125C12.4813 2.125 13.4688 2.29447 14.217 2.59375C14.5892 2.74264 14.9359 2.93735 15.2004 3.1875C15.4662 3.43899 15.6935 3.79354 15.6935 4.2373V6.18751L17.1406 6.5498L17.2177 6.57422C17.393 6.64125 17.5343 6.77841 17.6044 6.95508L19.1523 10.8584C19.2858 11.195 19.1297 11.5775 18.7988 11.7246L17.6513 12.2344V14.4248C17.6513 14.7976 17.3493 15.0996 16.9765 15.0996C16.6038 15.0995 16.3017 14.7975 16.3017 14.4248V12.834L13.7734 13.958L13.499 13.3408L12.872 13.5898L12.6259 12.9688V15.0098C12.6259 15.3825 12.3238 15.6845 11.9511 15.6846C11.5783 15.6846 11.2763 15.3826 11.2763 15.0098V14.0352C11.1479 14.1462 10.98 14.2083 10.8046 14.2002L10.6718 14.1807L6.50776 13.1387V18.5254L11.2763 19.7178V17.7959C11.2764 17.4232 11.5784 17.1211 11.9511 17.1211C12.3238 17.1212 12.6258 17.4233 12.6259 17.7959V19.543L16.3017 17.9092V16.71C16.3019 16.3374 16.6039 16.0353 16.9765 16.0352C17.3492 16.0352 17.6511 16.3373 17.6513 16.71V18.3486C17.6512 18.6152 17.4945 18.8565 17.2509 18.9648L12.2255 21.1992C12.0879 21.2604 11.9332 21.2738 11.7871 21.2373L5.66889 19.707L5.56049 19.6699C5.31904 19.5637 5.15726 19.3236 5.15717 19.0527V12.8008L4.55268 12.6504L4.42573 12.6055C4.30484 12.5477 4.20344 12.4543 4.13471 12.3369C4.04301 12.1803 4.01762 11.9935 4.06537 11.8184L4.34467 10.7959C4.44304 10.4365 4.81429 10.2251 5.17377 10.3232C5.53318 10.4216 5.74457 10.7928 5.64643 11.1523L5.54877 11.5078L10.3574 12.71L11.1171 9.9248L6.30952 8.72363L6.20502 9.1084C6.10674 9.46787 5.73547 9.6792 5.37592 9.58105C5.01644 9.4829 4.80438 9.11243 4.90229 8.75293L5.18159 7.73047C5.235 7.53504 5.3734 7.37429 5.55854 7.29199L7.15644 6.58132V4.2373C7.15644 3.79354 7.38376 3.43899 7.6496 3.1875C7.91412 2.93735 8.26077 2.74264 8.633 2.59375C9.38122 2.29447 10.3687 2.125 11.425 2.125ZM12.872 13.5898L13.499 13.3418L13.7734 13.958C13.6055 14.0326 13.4142 14.0362 13.2441 13.9668C13.0739 13.8974 12.9398 13.7607 12.872 13.5898ZM14.3439 6.72264V7.6354L11.8886 8.72656L8.50605 7.88092V5.82782C8.54797 5.84611 8.59032 5.86379 8.633 5.88086C9.38122 6.18014 10.3687 6.34961 11.425 6.34961C11.7978 6.34961 12.0998 6.0476 12.0998 5.6748C12.0998 5.30201 11.7978 5 11.425 5C10.4967 5 9.68741 4.84787 9.13495 4.62695C8.85689 4.51573 8.67654 4.40044 8.57734 4.30664C8.54499 4.27605 8.52641 4.25276 8.51581 4.2373C8.52641 4.22185 8.54499 4.19856 8.57734 4.16797C8.67654 4.07417 8.85689 3.95888 9.13495 3.84766C9.68741 3.62674 10.4967 3.47461 11.425 3.47461C12.3533 3.47461 13.1626 3.62674 13.715 3.84766C13.9931 3.95888 14.1734 4.07417 14.2726 4.16797C14.3039 4.19753 14.3214 4.2209 14.3322 4.23633C14.3163 4.26006 14.2834 4.30275 14.2111 4.35938C14.0499 4.48555 13.7762 4.62425 13.3869 4.74121C13.03 4.84855 12.8275 5.22506 12.9348 5.58203C13.0422 5.93884 13.4187 6.14141 13.7756 6.03418C13.973 5.97488 14.1639 5.90619 14.3439 5.82758V6.70738C14.3439 6.71247 14.3439 6.71756 14.3439 6.72264ZM12.8164 9.79102L13.8671 12.4385L16.708 11.1758L16.7167 11.1719L17.6581 10.7539L16.6083 8.10645L12.8164 9.79102ZM11.425 4.71663C12.2189 4.71663 12.8625 4.5021 12.8625 4.23747C12.8625 3.97283 12.2189 3.7583 11.425 3.7583C10.6311 3.7583 9.98749 3.97283 9.98749 4.23747C9.98749 4.5021 10.6311 4.71663 11.425 4.71663Z" fill="#332A2A"/>
</g>
<defs>
<clipPath id="clip0_1045_11586">
<rect width="23" height="23" fill="white"/>
</clipPath>
</defs>
</svg>
