<svg width="44" height="44" viewBox="0 0 44 44" fill="none" xmlns="http://www.w3.org/2000/svg">
<g clip-path="url(#clip0_1247_16904)">
<path fill-rule="evenodd" clip-rule="evenodd" d="M16.3095 7.43446C16.4805 7.40026 16.633 7.54718 16.6053 7.71932L15.737 13.1156C15.7046 13.317 15.4576 13.3969 15.3134 13.2527L14.9416 12.8809C14.2911 12.2304 13.1925 12.1687 12.5103 12.8895C10.1978 15.333 8.52722 18.8508 8.52722 22.4582C8.52722 26.174 10.0324 29.5396 12.4646 31.9762C12.7572 32.2693 13.2321 32.2697 13.5252 31.9771C13.8184 31.6845 13.8188 31.2096 13.5262 30.9165C11.3633 28.7496 10.0272 25.7607 10.0272 22.4582C10.0272 19.2941 11.5068 16.1321 13.5997 13.9206C13.6313 13.8872 13.6712 13.8703 13.7205 13.8709C13.7728 13.8715 13.8322 13.8928 13.8809 13.9416L14.2527 14.3134C15.2624 15.323 16.9911 14.7637 17.2179 13.354L18.0863 7.95763C18.2802 6.75263 17.2121 5.72422 16.0153 5.96358L10.938 6.97905C9.5761 7.25143 9.05897 8.92559 10.03 9.91859L10.2117 10.1044C10.3038 10.1986 10.3229 10.3898 10.1841 10.5273C7.11235 13.5696 5.20825 17.7922 5.20825 22.4582C5.20825 22.8724 5.54404 23.2082 5.95825 23.2082C6.37247 23.2082 6.70825 22.8724 6.70825 22.4582C6.70825 18.2087 8.44066 14.3652 11.2396 11.5931C11.9187 10.9205 11.9969 9.7845 11.2841 9.05562L11.1025 8.86985C10.9637 8.728 11.0376 8.48883 11.2322 8.44992L16.3095 7.43446ZM35.2893 12.1928C34.7105 11.4446 33.6683 11.3487 32.9431 11.8668L31.8843 12.6234C31.0177 13.2426 30.9353 14.4295 31.5286 15.208C33.0623 17.2203 33.9726 19.7319 33.9726 22.4582C33.9726 22.8724 34.3084 23.2082 34.7226 23.2082C35.1368 23.2082 35.4726 22.8724 35.4726 22.4582C35.4726 19.3921 34.4475 16.5633 32.7216 14.2988C32.5884 14.1239 32.6477 13.9215 32.7563 13.8438L33.8152 13.0873C33.9293 13.0058 34.0504 13.0428 34.1028 13.1106C36.1022 15.6953 37.2916 18.9368 37.2916 22.4582C37.2916 30.9036 30.4453 37.7499 21.9999 37.7499C16.893 37.7499 12.3707 35.2472 9.59225 31.3981C9.34982 31.0622 8.88102 30.9865 8.54517 31.2289C8.20931 31.4714 8.13358 31.9402 8.37601 32.276C11.4243 36.499 16.3909 39.2499 21.9999 39.2499C31.2737 39.2499 38.7916 31.732 38.7916 22.4582C38.7916 18.5931 37.4847 15.031 35.2893 12.1928ZM34.3731 27.7974C34.5373 27.4171 34.3623 26.9757 33.982 26.8114C33.6018 26.6471 33.1604 26.8222 32.9961 27.2024C32.4425 28.4836 31.6713 29.6494 30.7286 30.6531C28.5436 32.9795 25.4419 34.4309 21.9999 34.4309C20.02 34.4309 18.1543 33.9509 16.5109 33.1015C16.143 32.9114 15.6905 33.0555 15.5003 33.4235C15.3101 33.7914 15.4543 34.2439 15.8222 34.4341C17.6735 35.3909 19.7747 35.9309 21.9999 35.9309C25.873 35.9309 29.3653 34.2957 31.822 31.68C32.8818 30.5516 33.7497 29.2401 34.3731 27.7974ZM25.3204 19.3865C25.3429 19.2963 25.3464 19.2058 25.3335 19.1192L25.8328 19.244L28.0215 19.7912L29.6238 20.1918L29.414 20.3063L28.6448 20.0849C28.2814 19.9803 27.902 20.1901 27.7974 20.5535C27.7379 20.7603 27.7802 20.9723 27.8947 21.1359L26.3716 21.9675L24.4423 21.4852C24.0755 21.3935 23.7037 21.6166 23.612 21.9834C23.5203 22.3503 23.7433 22.722 24.1102 22.8138L24.5982 22.9358L23.3546 23.6148L22.5854 23.3934C22.222 23.2887 21.8426 23.4985 21.7379 23.8619C21.6784 24.0688 21.7207 24.2808 21.8352 24.4444L21.1221 24.8337L14.8611 23.1334L15.4085 22.8622L17.4034 23.3609C17.7703 23.4527 18.142 23.2296 18.2337 22.8627C18.3254 22.4959 18.1024 22.1241 17.7355 22.0324L17.3021 21.924L18.6198 21.2712L19.4042 21.497C19.7676 21.6016 20.147 21.3918 20.2516 21.0284C20.3053 20.8418 20.2762 20.6509 20.1858 20.4953L22.4483 19.3743L24.49 19.8847C24.8569 19.9764 25.2287 19.7534 25.3204 19.3865ZM29.8233 21.6432L30.9405 21.0331C30.9497 21.3435 30.9284 21.6546 30.8765 21.9618L28.5706 23.3303C28.2454 23.5233 28.1382 23.9434 28.3312 24.2686C28.5242 24.5938 28.9443 24.701 29.2695 24.508L31.7017 23.0645C31.9566 22.9132 32.1354 22.6608 32.1935 22.3701C32.3516 21.58 32.3516 20.7663 32.1935 19.9761L32.162 19.8184C32.1101 19.559 31.9133 19.3526 31.6566 19.2884L28.3536 18.4627L26.1649 17.9155L24.4974 17.4986C23.9191 17.354 23.3081 17.42 22.7739 17.6847L18.2522 19.925L18.248 19.9271L12.6359 22.7077C12.4442 22.8027 12.3079 22.9818 12.2675 23.1919L12.2509 23.2781C12.0851 24.1403 12.0741 25.0251 12.2184 25.8912C12.2897 26.3188 12.5989 26.6682 13.0147 26.7909L14.8132 27.3218C15.1758 27.4289 15.5567 27.2217 15.6637 26.859C15.7708 26.4963 15.5636 26.1155 15.2009 26.0084L13.5468 25.5201C13.4841 25.0773 13.4709 24.6295 13.5072 24.1848L20.4476 26.0696C20.3967 26.5608 20.3866 27.0554 20.4173 27.5483L17.268 26.6186C16.9053 26.5116 16.5245 26.7188 16.4175 27.0815C16.3104 27.4442 16.5176 27.825 16.8803 27.932L21.0146 29.1525C21.1972 29.2064 21.3941 29.1818 21.5579 29.0846L26.6989 26.0335C27.0241 25.8405 27.1313 25.4204 26.9383 25.0952C26.7453 24.77 26.3252 24.6629 26 24.8559L21.7784 27.3613C21.7563 26.9087 21.7748 26.455 21.8338 26.0054L26.7911 23.2987L26.7948 23.2967L29.8233 21.6432Z" fill="#252323"/>
</g>
<defs>
<clipPath id="clip0_1247_16904">
<rect width="44" height="44" fill="white"/>
</clipPath>
</defs>
</svg>
