<svg width="23" height="23" viewBox="0 0 23 23" fill="none" xmlns="http://www.w3.org/2000/svg">
<g clip-path="url(#clip0_1247_16906)">
<path fill-rule="evenodd" clip-rule="evenodd" d="M17.6311 7.09205C18.5758 8.37175 19.135 9.95233 19.135 11.6653C19.1348 15.9234 15.6831 19.3751 11.425 19.3752C8.85025 19.3752 6.56967 18.1136 5.16821 16.1721C4.95 15.8701 4.528 15.8018 4.22583 16.0198C3.92369 16.2379 3.85563 16.6599 4.07349 16.9622C5.71782 19.2401 8.39833 20.7258 11.425 20.7258C16.4287 20.7257 20.4854 16.669 20.4856 11.6653C20.4856 9.39523 19.6494 7.31836 18.2698 5.72877C18.07 5.49858 17.7455 5.43443 17.4778 5.55787L17.3674 5.62232L15.9475 6.63599C15.7906 6.74818 15.6895 6.92269 15.6692 7.11451C15.649 7.30616 15.7113 7.49741 15.8411 7.6399C16.8099 8.70238 17.4006 10.1145 17.4006 11.6653C17.4008 12.0379 17.7028 12.3401 18.0754 12.3401C18.448 12.34 18.7501 12.0379 18.7502 11.6653C18.7502 10.0367 18.2167 8.53206 17.3176 7.31568L17.6311 7.09205ZM15.9475 6.63599L16.3401 7.18482H16.3391L15.9475 6.63599ZM17.8 13.6809C17.458 13.5332 17.0613 13.6905 16.9133 14.0325C16.6371 14.6717 16.2521 15.254 15.7815 15.7551C14.6907 16.9165 13.1428 17.6408 11.425 17.6409C10.4364 17.6409 9.50558 17.4005 8.68579 16.9768C8.35461 16.8057 7.9468 16.9357 7.77563 17.2669C7.60454 17.598 7.73458 18.0049 8.06567 18.176C9.07261 18.6964 10.2156 18.9905 11.425 18.9905C13.5308 18.9904 15.4295 18.1007 16.7649 16.679C17.341 16.0656 17.8136 15.3522 18.1526 14.5676C18.3001 14.2255 18.1421 13.8287 17.8 13.6809ZM6.65063 6.08424C5.19746 7.40928 4.09888 9.50141 4.09888 11.6653C4.09897 13.6854 4.91841 15.5156 6.24048 16.8401C6.50383 17.1037 6.93079 17.1043 7.19458 16.8411C7.45842 16.5777 7.45892 16.1498 7.19556 15.886C6.11593 14.8043 5.44955 13.3134 5.44946 11.6653C5.44946 10.1574 6.12942 8.63876 7.10767 7.54029L7.89771 8.33033C8.07698 8.5096 8.34204 8.57341 8.58325 8.49537C8.82444 8.41731 9.00196 8.2105 9.04224 7.96021L9.77759 3.38697C9.81273 3.16861 9.73867 2.94662 9.57935 2.79322C9.42004 2.63997 9.19553 2.57408 8.97876 2.61744L4.64185 3.48463C4.39914 3.53317 4.20227 3.71107 4.12915 3.94752C4.05608 4.18407 4.11816 4.44238 4.29126 4.61939L4.96899 5.31177C3.36018 6.94651 2.3645 9.18932 2.3645 11.6653C2.36468 12.0379 2.66663 12.3401 3.03931 12.3401C3.41199 12.3401 3.71393 12.0379 3.71411 11.6653C3.71411 9.33938 4.74335 7.25383 6.37329 5.83912C6.51354 5.71729 6.59804 5.54329 6.60571 5.35767C6.61331 5.17185 6.54336 4.99064 6.41333 4.85767L6.12622 4.5647L8.29028 4.13209L7.91821 6.44166L7.58228 6.10572L7.47974 6.02174C7.26272 5.87652 6.97953 5.86995 6.7561 6.00513L6.65063 6.08424ZM8.97876 2.61744L9.11157 3.27955H9.1106L8.97876 2.61744ZM9.04224 7.96021L8.37524 7.85279L7.89771 8.33033L8.37524 7.85377L9.04224 7.96021ZM12.948 9.07739C12.4371 8.94967 11.8974 9.00868 11.4255 9.24243L6.70972 11.5784C6.60483 11.6303 6.52237 11.7169 6.47534 11.8215L6.44019 11.9319L6.43237 11.9748C6.34723 12.4178 6.34162 12.8727 6.41577 13.3176C6.46123 13.5893 6.6574 13.8118 6.92163 13.8899L7.8064 14.1506C8.07119 14.2288 8.34925 14.0775 8.42749 13.8127C8.50566 13.5479 8.35437 13.2699 8.0896 13.1916L7.38062 12.9817C7.36954 12.8751 7.36283 12.7683 7.36401 12.6614L10.4519 13.5002C10.4426 13.6284 10.4387 13.7566 10.4402 13.885L9.1062 13.4915C8.84144 13.4133 8.56338 13.5646 8.48511 13.8293C8.40694 14.0941 8.55822 14.3722 8.823 14.4504L10.8562 15.051C10.9895 15.0904 11.1331 15.0721 11.2527 15.0012L13.782 13.5012C14.0192 13.3603 14.0975 13.0531 13.9568 12.8157C13.8159 12.5782 13.5087 12.5 13.2712 12.6409L11.4392 13.7278C11.4419 13.6342 11.4486 13.5407 11.4587 13.4475L14.45 11.8157L15.6111 11.1819C15.6096 11.1967 15.6071 11.2114 15.6045 11.2261C15.6027 11.2367 15.6008 11.2474 15.5994 11.2581L14.5349 11.8909C14.2979 12.0318 14.2196 12.3382 14.3601 12.5754C14.501 12.8129 14.8082 12.8912 15.0457 12.7502L16.2419 12.0403C16.4069 11.9423 16.5226 11.7792 16.5603 11.5911C16.6423 11.1813 16.6423 10.7586 16.5603 10.3489L16.5447 10.2717C16.5115 10.1059 16.3975 9.97027 16.2439 9.90747L16.1765 9.88501L14.5515 9.47876L13.4753 9.20922L12.948 9.07739ZM12.5593 10.4016C12.5938 10.2634 12.5656 10.1254 12.4949 10.0139C12.5653 10.0188 12.6355 10.0308 12.7048 10.0481L13.2322 10.1799L14.3093 10.4485L14.6912 10.5442L14.1511 10.8391L13.8376 10.7493C13.5723 10.6729 13.2949 10.8257 13.2185 11.0911C13.1933 11.1787 13.195 11.2673 13.2156 11.3498L12.3113 11.843L11.4246 11.6223C11.1568 11.5555 10.8851 11.7178 10.8181 11.9856C10.7635 12.204 10.8633 12.423 11.0466 12.5334L10.9333 12.595L8.33374 11.8889L9.44214 11.3401L9.76831 11.4338C10.0336 11.5101 10.3111 11.3564 10.3875 11.0911C10.4092 11.0154 10.4101 10.9391 10.3972 10.8665L11.0544 10.5403L11.9529 10.7659C12.2208 10.8328 12.4924 10.6695 12.5593 10.4016Z" fill="#332A2A"/>
</g>
<defs>
<clipPath id="clip0_1247_16906">
<rect width="23" height="23" fill="white"/>
</clipPath>
</defs>
</svg>
