<svg width="18" height="18" viewBox="0 0 18 18" fill="none" xmlns="http://www.w3.org/2000/svg">
<g clip-path="url(#clip0_1045_11532)">
<path d="M4.6875 15L9.375 16.125L13.3125 14.4375V9.375L14.625 8.8125L13.3125 5.8125L9.29932 7.5L4.6875 6.375L3.75 9.375L4.6875 9.75V15Z" fill="#E05149"/>
<path fill-rule="evenodd" clip-rule="evenodd" d="M6.85595 3.375C6.92603 3.43531 7.05025 3.51295 7.24338 3.5902C7.66172 3.75753 8.28251 3.875 9 3.875C9.34518 3.875 9.625 4.15482 9.625 4.5C9.625 4.84518 9.34518 5.125 9 5.125C8.17961 5.125 7.40772 4.99554 6.8125 4.76395V6.15112L9.35433 6.78658L11.1875 5.97184V5.32845C11.1873 5.31913 11.1873 5.30979 11.1875 5.30042V4.76396C11.0836 4.80438 10.9765 4.84087 10.8673 4.87365C10.5368 4.97297 10.1883 4.7855 10.0889 4.45492C9.98961 4.12434 10.1771 3.77584 10.5077 3.67652C10.8057 3.58696 11.0075 3.4828 11.1209 3.394C11.1295 3.38725 11.1372 3.38093 11.1441 3.37504C11.074 3.31473 10.9498 3.23707 10.7566 3.1598C10.3383 2.99247 9.71749 2.875 9 2.875C8.28251 2.875 7.66172 2.99247 7.24338 3.1598C7.05025 3.23705 6.92603 3.31469 6.85595 3.375ZM12.4375 3.375V4.82598L13.4963 5.09067C13.6916 5.1395 13.8515 5.27943 13.9257 5.46657L15.1374 8.52145C15.2611 8.83313 15.1167 9.18684 14.8103 9.32302L13.9697 9.69661V13C13.9697 13.0231 13.9685 13.0458 13.9661 13.0682C13.9685 13.0907 13.9697 13.1134 13.9697 13.1365V14.4185C13.9697 14.6655 13.8243 14.8893 13.5986 14.9896L9.66535 16.7377C9.53793 16.7944 9.39522 16.8068 9.25993 16.7729L4.47166 15.5759C4.19343 15.5063 3.99825 15.2563 3.99825 14.9695V10.1534L3.59842 10.0534C3.43535 10.0126 3.29557 9.9079 3.21064 9.76284C3.12572 9.61778 3.1028 9.44463 3.14706 9.28247L3.36537 8.48272L4.02031 6.08346C4.06973 5.9024 4.19791 5.75313 4.36942 5.67691L5.5625 5.14666V3.375C5.5625 2.99244 5.7589 2.69122 5.97908 2.483C6.19794 2.27603 6.48109 2.11843 6.77914 1.99921C7.37873 1.75937 8.16419 1.625 9 1.625C9.83581 1.625 10.6213 1.75937 11.2209 1.99921C11.5189 2.11843 11.8021 2.27603 12.0209 2.483C12.2411 2.69122 12.4375 2.99244 12.4375 3.375ZM13.0038 6.5325L10.2138 7.77251L10.9642 9.6645L13.0785 8.72482C13.0869 8.72087 13.0954 8.7171 13.1039 8.71351L13.7542 8.42449L13.0038 6.5325ZM12.7197 10.2522L10.8771 11.0711C10.7216 11.1402 10.5446 11.143 10.3871 11.0787C10.2295 11.0144 10.105 10.8886 10.0423 10.7304L10.0365 10.7159V11.8059C10.0365 12.151 9.7567 12.4309 9.41152 12.4309C9.06634 12.4309 8.78652 12.151 8.78652 11.8059V11.2177C8.66469 11.2706 8.52521 11.2851 8.38669 11.2505L5.24825 10.4659V14.4816L8.78652 15.3661V13.9862C8.78652 13.6411 9.06634 13.3612 9.41152 13.3612C9.7567 13.3612 10.0365 13.6411 10.0365 13.9862V15.2049L12.7197 14.0123V13.1365C12.7197 13.1134 12.721 13.0907 12.7234 13.0682C12.721 13.0458 12.7197 13.0231 12.7197 13V10.2522ZM4.78844 9.06243L8.09642 9.88943L8.64041 7.89657L5.0651 7.00274L4.57125 8.81189L4.52111 8.9956L4.76213 9.05586C4.77098 9.05786 4.77975 9.06006 4.78844 9.06243ZM9 3.75C9.62132 3.75 10.125 3.58211 10.125 3.375C10.125 3.16789 9.62132 3 9 3C8.37868 3 7.875 3.16789 7.875 3.375C7.875 3.58211 8.37868 3.75 9 3.75Z" fill="#252323"/>
</g>
<defs>
<clipPath id="clip0_1045_11532">
<rect width="18" height="18" fill="white"/>
</clipPath>
</defs>
</svg>
