<svg width="23" height="23" viewBox="0 0 23 23" fill="none" xmlns="http://www.w3.org/2000/svg">
<g clip-path="url(#clip0_1236_16023)">
<path fill-rule="evenodd" clip-rule="evenodd" d="M13.8619 6.76095C13.2463 6.6071 12.5955 6.6765 12.0269 6.95821L2.14507 11.8547C1.98031 11.9363 1.85708 12.0819 1.8023 12.2551L1.78277 12.3303L1.76617 12.4152C1.60344 13.2614 1.59329 14.1307 1.73492 14.9807C1.80503 15.4001 2.10838 15.7429 2.51617 15.8635L4.28179 16.385C4.63801 16.4901 5.0116 16.2861 5.11675 15.9299C5.22165 15.5738 5.01871 15.2001 4.66265 15.0949L3.04058 14.6154C2.97914 14.1812 2.96597 13.742 3.00152 13.3059L9.81207 15.1555C9.76219 15.6371 9.7527 16.1223 9.78277 16.6057L6.69195 15.6936C6.33588 15.5886 5.96124 15.7926 5.85601 16.1486C5.75111 16.5047 5.95512 16.8784 6.31109 16.9836L10.3687 18.1818L10.5054 18.2072C10.643 18.2183 10.7823 18.187 10.9029 18.1154L13.2849 16.7006C13.4591 18.7742 15.1979 20.4029 17.3165 20.4029C19.5503 20.4027 21.3612 18.5918 21.3614 16.3579C21.3614 15.9865 21.0599 15.6851 20.6885 15.6851C20.3173 15.6853 20.0167 15.9866 20.0167 16.3579C20.0165 17.849 18.8075 19.058 17.3165 19.0581C15.8253 19.0581 14.6164 17.8491 14.6163 16.3579C14.6163 14.8666 15.8252 13.6577 17.3165 13.6577C18.2548 13.6578 19.0816 14.1357 19.5665 14.8648C19.7721 15.1741 20.1898 15.2579 20.4991 15.0523C20.8082 14.8466 20.892 14.4298 20.6866 14.1206C20.3872 13.6704 19.9996 13.2831 19.5483 12.9838L20.8589 12.2063C21.1092 12.0578 21.2852 11.8099 21.3423 11.5246C21.4974 10.7491 21.4975 9.9496 21.3423 9.17403L21.3111 9.01974C21.2601 8.76518 21.0668 8.56234 20.815 8.49923L13.8619 6.76095ZM17.9575 12.3627L20.0464 11.1233C20.0974 10.8218 20.1189 10.5167 20.1099 10.2121L19.0152 10.8108L14.9488 13.0315L11.1734 15.092C11.1155 15.5329 11.0971 15.9783 11.1187 16.4221L13.5016 15.0072C14.0577 13.4371 15.556 12.312 17.3165 12.312C17.5346 12.312 17.7487 12.3294 17.9575 12.3627ZM13.8972 8.43247C13.8971 8.32729 13.8729 8.22777 13.8298 8.13915L18.8169 9.38595L18.7259 9.43575C18.4828 9.4284 17.9549 9.39313 17.3624 9.22382C17.0053 9.12187 16.6333 9.32865 16.5313 9.68573C16.4436 9.9928 16.5843 10.3109 16.8525 10.4588L15.4957 11.1994L15.2144 11.2649C15.1858 11.2714 15.156 11.2652 15.1324 11.2492L15.1109 11.2297L15.0259 11.1428C14.8141 10.9568 14.5158 10.8935 14.2427 10.9846L14.2086 10.9963C14.0644 11.0443 13.9054 11.012 13.7916 10.9113L13.6695 10.8039C13.3913 10.5583 12.9662 10.5845 12.7203 10.8625C12.4748 11.1407 12.501 11.5658 12.7789 11.8117L12.9009 11.9192C13.0857 12.0825 13.2999 12.2008 13.5269 12.2746L12.1441 13.0297C11.9041 13.0228 11.372 12.9885 10.7738 12.8176C10.4167 12.7156 10.0448 12.9224 9.94276 13.2795C9.88871 13.4688 9.92144 13.6623 10.0173 13.8175L4.32965 12.2727L4.66656 12.1057C5.03295 12.3855 5.50711 12.4916 5.9605 12.3908C6.43146 12.761 7.10491 12.8066 7.63043 12.4563L7.7232 12.3938C8.0322 12.1877 8.11574 11.7702 7.90972 11.4611C7.70357 11.1526 7.28593 11.0688 6.97711 11.2746L6.88433 11.3371C6.85697 11.3554 6.82224 11.3542 6.79644 11.3371L6.77398 11.3156L6.68023 11.1994C6.66389 11.1828 6.64567 11.1682 6.62759 11.1537L6.61285 11.1418L7.27183 10.8154C8.10127 11.0214 8.78093 11.022 8.91183 11.022C9.28325 11.022 9.58469 10.7206 9.58469 10.3491C9.58458 10.1262 9.47589 9.92879 9.30868 9.80659L11.3022 8.81921C11.322 8.82691 11.3422 8.83376 11.363 8.8397C12.2904 9.10464 13.082 9.10533 13.2243 9.10533C13.5957 9.10533 13.8972 8.80389 13.8972 8.43247ZM15.5532 14.8302C15.7437 14.8304 15.9235 14.9136 16.0463 15.0558L16.0951 15.1203L16.1645 15.2248C16.2944 15.4197 16.5814 15.4197 16.7114 15.2248L16.7621 15.1584C17.0143 14.8686 17.47 14.8686 17.7221 15.1584L17.7729 15.2248L17.8285 15.2892C17.9722 15.417 18.2051 15.3952 18.3188 15.2248L18.3891 15.1203L18.4379 15.0558C18.5608 14.9136 18.7405 14.8303 18.9311 14.8302H19.0512C19.3273 14.8303 19.5512 15.0541 19.5512 15.3302C19.5512 15.584 19.3616 15.7912 19.1166 15.8234C18.6661 16.4438 17.8125 16.535 17.2416 16.0978C16.6706 16.5346 15.8169 16.4439 15.3666 15.8234C15.122 15.7908 14.933 15.5837 14.933 15.3302C14.933 15.0541 15.1569 14.8302 15.433 14.8302H15.5532ZM16.0463 16.7182C15.9235 16.576 15.7437 16.4928 15.5532 16.4926H15.433C15.1569 16.4926 14.933 16.7165 14.933 16.9926C14.933 17.2462 15.122 17.4532 15.3666 17.4858C15.8169 18.1064 16.6706 18.1971 17.2416 17.7602C17.8125 18.1974 18.6661 18.1062 19.1166 17.4858C19.3616 17.4536 19.5512 17.2465 19.5512 16.9926C19.5512 16.7165 19.3273 16.4927 19.0512 16.4926H18.9311C18.7405 16.4927 18.5608 16.576 18.4379 16.7182L18.3891 16.7827L18.3188 16.8872C18.2051 17.0577 17.9722 17.0794 17.8285 16.9516L17.7729 16.8872L17.7221 16.8208C17.47 16.531 17.0143 16.531 16.7621 16.8208L16.7114 16.8872C16.5814 17.0821 16.2944 17.0821 16.1645 16.8872L16.0951 16.7827L16.0463 16.7182Z" fill="#332A2A"/>
</g>
<defs>
<clipPath id="clip0_1236_16023">
<rect width="23" height="23" fill="white"/>
</clipPath>
</defs>
</svg>
