<svg width="44" height="44" viewBox="0 0 44 44" fill="none" xmlns="http://www.w3.org/2000/svg">
<g clip-path="url(#clip0_463_2643)">
<path fill-rule="evenodd" clip-rule="evenodd" d="M34.49 24.9238L39.2251 22.1137C39.3477 22.0409 39.4362 21.9221 39.4708 21.7838C39.7374 20.7171 39.7818 19.6069 39.601 18.5223L39.4167 17.4166L33.2145 15.866L29.1047 14.8386L25.4638 13.9284C25.0031 13.8132 24.5164 13.8657 24.0908 14.0766L15.1251 18.5188L4.5834 23.7418L4.55226 23.9037C4.26972 25.3728 4.25098 26.8804 4.49693 28.3561C4.54982 28.6735 4.77929 28.9328 5.08786 29.0238L20.1096 33.4583L26.8063 29.4839C27.5455 26.7563 30.0385 24.7499 33.0001 24.7499C33.513 24.7499 34.0119 24.8101 34.49 24.9238Z" fill="#E05149"/>
<path fill-rule="evenodd" clip-rule="evenodd" d="M26.7653 15.314L24.4511 14.7355C24.7105 14.6147 25.0038 14.5864 25.2819 14.656L28.9228 15.5662L33.0326 16.5937L37.372 17.6785L35.581 18.6564L33.925 18.1796C33.5269 18.0651 33.1114 18.2949 32.9968 18.6929C32.8822 19.091 33.112 19.5065 33.51 19.6211L33.7091 19.6784L29.8777 21.7704L26.0521 20.814C25.6502 20.7135 25.243 20.9579 25.1426 21.3597C25.0421 21.7615 25.2864 22.1687 25.6883 22.2692L27.9352 22.831L24.2029 24.8688L22.5469 24.3921C22.1488 24.2775 21.7332 24.5073 21.6187 24.9053C21.5041 25.3034 21.7339 25.7189 22.1319 25.8335L22.331 25.8908L20.015 27.1554L6.68783 23.5361L9.15765 22.3124L13.0946 23.2967C13.4965 23.3971 13.9037 23.1528 14.0041 22.751C14.1046 22.3491 13.8603 21.9419 13.4584 21.8414L11.2317 21.2848L15.1973 19.32L16.8699 19.8015C17.268 19.9161 17.6835 19.6863 17.7981 19.2883C17.9127 18.8902 17.6829 18.4746 17.2849 18.3601L17.1899 18.3327L22.3765 15.763L26.4015 16.7692C26.8033 16.8697 27.2105 16.6253 27.311 16.2235C27.4115 15.8217 27.1671 15.4145 26.7653 15.314ZM36.0293 20.1207L38.8555 18.5775C38.974 19.5584 38.9378 20.5532 38.7467 21.5254L34.3694 24.1232C33.9372 24.0423 33.4913 23.9999 33.0356 23.9999C29.8325 23.9999 27.1178 26.0909 26.182 28.9823L20.7135 32.2277C20.5766 30.9672 20.6026 29.6944 20.7909 28.4408L30.3373 23.2284L30.3411 23.2264L36.0293 20.1207ZM39.5398 22.799L36.2464 24.7536C37.3789 25.3186 38.3415 26.173 39.0369 27.219C39.2663 27.5639 39.1726 28.0295 38.8276 28.2588C38.4827 28.4882 38.0172 28.3945 37.7878 28.0495C36.765 26.5112 35.0182 25.4999 33.0356 25.4999C29.8863 25.4999 27.3334 28.0529 27.3334 31.2021C27.3334 34.3513 29.8863 36.9043 33.0356 36.9043C36.1848 36.9043 38.7378 34.3513 38.7378 31.2021C38.7378 30.7879 39.0735 30.4521 39.4878 30.4521C39.902 30.4521 40.2378 30.7879 40.2378 31.2021C40.2378 35.1798 37.0132 38.4043 33.0356 38.4043C29.0579 38.4043 25.8334 35.1798 25.8334 31.2021C25.8334 31.1112 25.8351 31.0206 25.8384 30.9305L20.4923 34.1032C20.3129 34.2097 20.0973 34.2366 19.8972 34.1776L12.1341 31.8859C11.7369 31.7686 11.5099 31.3515 11.6272 30.9543C11.7444 30.557 12.1616 30.33 12.5588 30.4473L19.2251 32.4152C19.0817 31.1148 19.0959 29.8025 19.2668 28.5066L5.18418 24.6821C5.02347 25.8604 5.04082 27.0574 5.23672 28.2328C5.2424 28.2669 5.26705 28.2948 5.3002 28.3045L8.67728 29.3015C9.07455 29.4187 9.30153 29.8358 9.18425 30.2331C9.06698 30.6304 8.64986 30.8574 8.2526 30.7401L4.87551 29.7432C4.29152 29.5708 3.85724 29.08 3.75713 28.4794C3.49655 26.9159 3.5164 25.3186 3.81576 23.762L3.8469 23.6001C3.89116 23.37 4.04044 23.1738 4.25043 23.0697L14.79 17.8478L14.7946 17.8455L23.7579 13.4045C24.343 13.1146 25.0122 13.0424 25.6457 13.2008L29.2866 14.111L33.3964 15.1384L39.5986 16.689C39.8798 16.7593 40.0953 16.9853 40.1522 17.2695L40.2114 17.5657C40.4943 18.9801 40.4943 20.4365 40.2114 21.8509C40.132 22.2478 39.8879 22.5924 39.5398 22.799ZM32.4159 31.1591C32.4193 30.8159 32.6985 30.5388 33.0425 30.5388C33.387 30.5388 33.6665 30.8167 33.6691 31.1606L33.6691 31.1655L33.6691 31.1703C33.6665 31.5141 33.3869 31.792 33.0425 31.792C32.6985 31.792 32.4193 31.5149 32.4159 31.1718L32.416 31.1655L32.4159 31.1591ZM31.8297 30.8527C31.9429 30.4124 32.2895 30.0658 32.7298 29.9526V29.404C32.7298 29.2312 32.8698 29.0912 33.0426 29.0912C33.2153 29.0912 33.3553 29.2312 33.3553 29.404V29.9526C33.7956 30.0658 34.1421 30.4124 34.2553 30.8527H34.6864C34.8591 30.8527 34.9992 30.9927 34.9992 31.1655C34.9992 31.3382 34.8591 31.4782 34.6864 31.4782H34.2553C34.1421 31.9184 33.7955 32.265 33.3553 32.3782V32.8975C33.3553 33.0703 33.2153 33.2103 33.0426 33.2103C32.8698 33.2103 32.7298 33.0703 32.7298 32.8975V32.3782C32.2895 32.265 31.9429 31.9185 31.8297 31.4782H31.3986C31.2259 31.4782 31.0859 31.3382 31.0859 31.1655C31.0859 30.9927 31.2259 30.8527 31.3986 30.8527H31.8297ZM32.5729 26.3904C32.7456 26.3904 32.8856 26.5305 32.8856 26.7032V26.8062C32.8856 26.9193 32.9475 27.0208 33.0426 27.0742C33.1377 27.0208 33.1995 26.9193 33.1995 26.8062V26.7032C33.1995 26.5305 33.3395 26.3904 33.5123 26.3904C33.685 26.3904 33.8251 26.5305 33.8251 26.7032V26.8062C33.8251 27.147 33.6403 27.4531 33.3553 27.616V28.4646C33.3553 28.6373 33.2153 28.7774 33.0426 28.7774C32.8698 28.7774 32.7298 28.6373 32.7298 28.4646V27.616C32.4448 27.4531 32.2601 27.147 32.2601 26.8062V26.7032C32.2601 26.5305 32.4001 26.3904 32.5729 26.3904ZM32.8856 35.5983C32.8856 35.7711 32.7456 35.9111 32.5729 35.9111C32.4001 35.9111 32.2601 35.7711 32.2601 35.5983V35.4953C32.2601 35.1545 32.4448 34.8484 32.7298 34.6855V33.8369C32.7298 33.6642 32.8698 33.5242 33.0426 33.5242C33.2153 33.5242 33.3553 33.6642 33.3553 33.8369V34.6855C33.6403 34.8484 33.8251 35.1545 33.8251 35.4953V35.5983C33.8251 35.7711 33.685 35.9111 33.5123 35.9111C33.3395 35.9111 33.1995 35.7711 33.1995 35.5983V35.4953C33.1995 35.3822 33.1377 35.2807 33.0426 35.2273C32.9475 35.2807 32.8856 35.3822 32.8856 35.4953V35.5983ZM37.7 30.6958C37.7 30.8685 37.5599 31.0085 37.3872 31.0085H37.2842C37.171 31.0085 37.0695 31.0704 37.0162 31.1655C37.0695 31.2606 37.171 31.3224 37.2842 31.3224H37.3872C37.5599 31.3224 37.7 31.4624 37.7 31.6352C37.7 31.8079 37.5599 31.9479 37.3872 31.9479H37.2842C36.9433 31.9479 36.6373 31.7632 36.4743 31.4782H35.6258C35.4531 31.4782 35.313 31.3382 35.313 31.1655C35.313 30.9927 35.4531 30.8527 35.6258 30.8527H36.4743C36.6373 30.5677 36.9433 30.383 37.2842 30.383H37.3872C37.5599 30.383 37.7 30.523 37.7 30.6958ZM28.6979 31.0085C28.5251 31.0085 28.3851 30.8685 28.3851 30.6958C28.3851 30.523 28.5251 30.383 28.6979 30.383H28.8008C29.1417 30.383 29.4477 30.5677 29.6107 30.8527H30.4592C30.632 30.8527 30.772 30.9927 30.772 31.1655C30.772 31.3382 30.632 31.4782 30.4592 31.4782H29.6107C29.4477 31.7632 29.1417 31.9479 28.8008 31.9479H28.6979C28.5251 31.9479 28.3851 31.8079 28.3851 31.6352C28.3851 31.4624 28.5251 31.3224 28.6979 31.3224H28.8008C28.914 31.3224 29.0155 31.2606 29.0689 31.1655C29.0155 31.0704 28.914 31.0085 28.8008 31.0085H28.6979ZM30.7777 27.5875C30.9504 27.5875 31.0905 27.7275 31.0905 27.9003L31.0905 28.7527L31.6384 29.3188C31.7585 29.4429 31.7553 29.641 31.6311 29.7611C31.507 29.8812 31.309 29.878 31.1889 29.7538L30.6452 29.192L29.7987 29.192C29.626 29.1921 29.486 29.052 29.486 28.8793C29.486 28.7065 29.626 28.5665 29.7987 28.5665L30.4649 28.5665L30.4649 27.9003C30.4649 27.7275 30.605 27.5875 30.7777 27.5875ZM35.0063 27.8973C35.0063 27.7246 35.1463 27.5846 35.3191 27.5846C35.4918 27.5846 35.6318 27.7246 35.6318 27.8973L35.6318 28.5635L36.298 28.5636C36.4708 28.5636 36.6108 28.7036 36.6108 28.8763C36.6108 29.0491 36.4708 29.1891 36.298 29.1891L35.4433 29.1891L34.8341 29.7639C34.7085 29.8825 34.5105 29.8767 34.392 29.7511C34.2734 29.6254 34.2792 29.4275 34.4048 29.3089L35.0063 28.7414L35.0063 27.8973ZM30.7777 34.7632C30.9504 34.7632 31.0905 34.6231 31.0905 34.4504L31.0905 33.6L31.7215 32.9624C31.843 32.8396 31.8419 32.6416 31.7192 32.5201C31.5964 32.3986 31.3983 32.3996 31.2768 32.5224L30.6472 33.1586L29.7987 33.1586C29.626 33.1586 29.486 33.2986 29.486 33.4714C29.486 33.6441 29.626 33.7841 29.7987 33.7841L30.4649 33.7842L30.4649 34.4504C30.4649 34.6231 30.605 34.7631 30.7777 34.7632ZM35.0598 34.4533C35.0598 34.6261 35.1999 34.7661 35.3726 34.7661C35.5453 34.7661 35.6854 34.626 35.6854 34.4533L35.6854 33.7871L36.3516 33.7871C36.5243 33.7871 36.6643 33.647 36.6643 33.4743C36.6643 33.3015 36.5243 33.1615 36.3516 33.1615L35.4995 33.1615L34.8374 32.518C34.7135 32.3976 34.5155 32.4004 34.3951 32.5243C34.2747 32.6482 34.2775 32.8462 34.4014 32.9666L35.0598 33.6065L35.0598 34.4533Z" fill="#252323"/>
</g>
<defs>
<clipPath id="clip0_463_2643">
<rect width="44" height="44" fill="white"/>
</clipPath>
</defs>
</svg>
