<svg width="23" height="23" viewBox="0 0 23 23" fill="none" xmlns="http://www.w3.org/2000/svg">
<g clip-path="url(#clip0_1236_15786)">
<path fill-rule="evenodd" clip-rule="evenodd" d="M14.5022 8.53693C14.529 8.42959 14.5263 8.3218 14.4993 8.22211L15.0622 8.36285L17.2105 8.89992L18.9002 9.32235L18.5716 9.50181L17.7979 9.2791C17.4662 9.18361 17.1199 9.37511 17.0244 9.70682C16.9648 9.91387 17.017 10.1266 17.1454 10.2805L12.6239 12.7492L11.8503 12.5265C11.5186 12.431 11.1723 12.6225 11.0768 12.9542C11.0172 13.1613 11.0694 13.374 11.1977 13.5279L10.4329 13.9455L4.14952 12.2391L4.81355 11.9101L6.78838 12.4038C7.12326 12.4875 7.46259 12.2839 7.54631 11.949C7.63003 11.6141 7.42643 11.2748 7.09155 11.1911L6.54197 11.0537L11.7234 8.48648L13.7442 8.99169C14.0791 9.07541 14.4185 8.87181 14.5022 8.53693ZM18.9451 10.7221L20.1085 10.0868C20.1241 10.4271 20.1026 10.7687 20.0441 11.1055L17.9211 12.3655C17.7088 12.3306 17.4908 12.3124 17.2686 12.3124C15.5219 12.3124 14.0369 13.4326 13.4927 14.9936L11.0284 16.4561C10.9999 15.9754 11.0179 15.4928 11.0821 15.0152L18.9451 10.7221ZM20.7874 12.118L19.4113 12.9347C19.8844 13.2356 20.2898 13.6332 20.5996 14.0991C20.7908 14.3866 20.7127 14.7745 20.4252 14.9656C20.1378 15.1567 19.7498 15.0787 19.5587 14.7912C19.0654 14.0493 18.2237 13.5624 17.2686 13.5624C15.751 13.5624 14.5208 14.7926 14.5208 16.3102C14.5208 17.8277 15.751 19.0579 17.2686 19.0579C18.7861 19.0579 20.0163 17.8277 20.0163 16.3102C20.0163 15.965 20.2961 15.6852 20.6413 15.6852C20.9865 15.6852 21.2663 15.965 21.2663 16.3102C21.2663 18.5181 19.4765 20.3079 17.2686 20.3079C15.1493 20.3079 13.4151 18.6588 13.2794 16.5738L10.8308 18.027C10.6813 18.1157 10.5016 18.1382 10.3348 18.0889L6.27685 16.891C5.9458 16.7933 5.75665 16.4457 5.85438 16.1146C5.9521 15.7836 6.2997 15.5944 6.63076 15.6922L9.78669 16.6238C9.75046 16.107 9.76028 15.5881 9.816 15.0732L2.91062 13.1979C2.8679 13.6664 2.88073 14.1388 2.9492 14.6054L4.60177 15.0932C4.93282 15.1909 5.12197 15.5385 5.02424 15.8696C4.92652 16.2006 4.57892 16.3898 4.24787 16.2921L2.48257 15.771C2.09175 15.6556 1.80112 15.3272 1.73413 14.9252C1.59337 14.0807 1.6041 13.2178 1.7658 12.377L1.78208 12.2924C1.81896 12.1006 1.94336 11.9371 2.11835 11.8504L12.0008 6.95403C12.5593 6.6773 13.1981 6.60835 13.8028 6.75953L15.3654 7.15017L17.5137 7.68725L20.7557 8.49776C20.9901 8.55634 21.1697 8.74469 21.217 8.98153L21.248 9.13634C21.4019 9.90584 21.4019 10.6982 21.248 11.4677C21.1935 11.7399 21.0261 11.9763 20.7874 12.118ZM15.8124 14.3382C15.5363 14.3382 15.3124 14.5621 15.3124 14.8382C15.3124 15.1143 15.5363 15.3382 15.8124 15.3382H18.6874C18.9636 15.3382 19.1874 15.1143 19.1874 14.8382C19.1874 14.5621 18.9636 14.3382 18.6874 14.3382H15.8124ZM15.3125 16.2916C15.3125 16.0155 15.5364 15.7916 15.8125 15.7916H18.6875C18.9636 15.7916 19.1875 16.0155 19.1875 16.2916C19.1875 16.5677 18.9636 16.7916 18.6875 16.7916H15.8125C15.5364 16.7916 15.3125 16.5677 15.3125 16.2916ZM15.8124 17.2451C15.5363 17.2451 15.3124 17.469 15.3124 17.7451C15.3124 18.0213 15.5363 18.2451 15.8124 18.2451H18.6874C18.9636 18.2451 19.1874 18.0213 19.1874 17.7451C19.1874 17.469 18.9636 17.2451 18.6874 17.2451H15.8124Z" fill="#332A2A"/>
</g>
<defs>
<clipPath id="clip0_1236_15786">
<rect width="23" height="23" fill="white"/>
</clipPath>
</defs>
</svg>
