<svg width="23" height="23" viewBox="0 0 23 23" fill="none" xmlns="http://www.w3.org/2000/svg">
<g clip-path="url(#clip0_1054_12079)">
<path d="M11.5656 8.625C13.2951 8.625 14.2834 7.96615 14.3452 7.30729M11.5657 5.98958C9.58909 5.98958 8.6008 5.33073 8.6008 4.67188M8.57384 9.94271C8.58283 10.6016 9.58908 11.2604 11.5656 11.2604C13.5422 11.2604 14.5305 11.9193 14.5305 12.5781M8.6008 15.2135C8.60081 15.8724 9.58909 16.5313 11.5657 16.5313C13.5422 16.5313 14.7436 17.1901 14.8501 17.849" stroke="#332A2A" stroke-width="1.5" stroke-linecap="round"/>
<path d="M11.5385 19.1665C6.73313 19.1665 7.58539 16.5311 11.5385 16.5311C15.4917 16.5311 15.4917 13.8957 11.5385 13.8957C7.58541 13.8957 7.58538 11.2603 11.5385 11.2602C15.4917 11.2602 15.5635 8.62484 11.5385 8.62484C8.07957 8.62484 7.5854 5.98942 11.5385 5.98942C15.4916 5.98942 15.4917 3.354 11.5385 3.354" stroke="#332A2A" stroke-width="1.5" stroke-linecap="round"/>
</g>
<defs>
<clipPath id="clip0_1054_12079">
<rect width="23" height="23" fill="white"/>
</clipPath>
</defs>
</svg>
