<svg width="18" height="18" viewBox="0 0 18 18" fill="none" xmlns="http://www.w3.org/2000/svg">
<g clip-path="url(#clip0_666_7185)">
<path d="M15.9973 9.05287L8.1773 13.6938L2.03205 11.8798C1.90582 11.8425 1.81195 11.7364 1.79031 11.6066C1.6897 11.0029 1.69736 10.3861 1.81295 9.78515L1.82568 9.71892L6.13818 7.58223L9.41645 5.95798C9.842 5.74713 10.3287 5.6946 10.7894 5.80979L11.8571 6.07671L13.5384 6.49703L16.0757 7.13135L16.1511 7.5837C16.225 8.02738 16.2069 8.48154 16.0978 8.91791C16.0836 8.97451 16.0475 9.0231 15.9973 9.05287Z" fill="#E05149"/>
<path d="M16.0757 7.13135L16.6885 7.00878C16.6412 6.77194 16.4616 6.58359 16.2273 6.52501L16.0757 7.13135ZM8.1773 13.6938L8.00035 14.2933C8.16708 14.3425 8.34678 14.32 8.49628 14.2313L8.1773 13.6938ZM1.82568 9.71892L1.54821 9.15889C1.37322 9.24559 1.24881 9.4091 1.21193 9.60088L1.82568 9.71892ZM14.5429 7.96827L14.8424 8.51682V8.51682L14.5429 7.96827ZM11.8571 6.07671L12.0087 5.47037V5.47037L11.8571 6.07671ZM13.5384 6.49703L13.3868 7.10337L13.5384 6.49703ZM9.29598 5.54219C8.96111 5.45847 8.62178 5.66207 8.53806 5.99694C8.45434 6.33181 8.65794 6.67115 8.99282 6.75487L9.29598 5.54219ZM10.6741 7.17519C11.009 7.2589 11.3483 7.0553 11.432 6.72043C11.5157 6.38556 11.3121 6.04623 10.9773 5.96251L10.6741 7.17519ZM10.6855 8.21251C10.3506 8.12879 10.0113 8.33239 9.92757 8.66726C9.84385 9.00213 10.0474 9.34147 10.3823 9.42519L10.6855 8.21251ZM12.0636 9.84551C12.3985 9.92923 12.7378 9.72563 12.8215 9.39075C12.9052 9.05588 12.7016 8.71655 12.3668 8.63283L12.0636 9.84551ZM3.85227 8.21251C3.5174 8.12879 3.17806 8.33239 3.09434 8.66726C3.01063 9.00213 3.21423 9.34147 3.5491 9.42519L3.85227 8.21251ZM5.23038 9.84551C5.56525 9.92923 5.90459 9.72563 5.98831 9.39075C6.07202 9.05588 5.86842 8.71655 5.53355 8.63283L5.23038 9.84551ZM13.9171 7.13774C13.5854 7.04225 13.2391 7.23374 13.1436 7.56545C13.0481 7.89716 13.2396 8.24347 13.5713 8.33896L13.9171 7.13774ZM9.71529 11.1103C10.047 11.2058 10.3933 11.0143 10.4888 10.6826C10.5843 10.3509 10.3928 10.0046 10.0611 9.9091L9.71529 11.1103ZM9.2624 9.67918C8.93069 9.58369 8.58438 9.77519 8.48889 10.1069C8.3934 10.4386 8.5849 10.7849 8.9166 10.8804L9.2624 9.67918ZM6.76397 8.41276C7.09568 8.50825 7.44199 8.31675 7.53748 7.98505C7.63296 7.65334 7.44147 7.30703 7.10976 7.21154L6.76397 8.41276ZM6.31108 6.98162C5.97937 6.88614 5.63306 7.07763 5.53757 7.40934C5.44209 7.74105 5.63358 8.08736 5.96529 8.18284L6.31108 6.98162ZM5.17844 12.1569C4.84739 12.0592 4.49979 12.2483 4.40206 12.5794C4.30434 12.9105 4.49348 13.258 4.82454 13.3558L5.17844 12.1569ZM3.23664 12.887C3.56769 12.9848 3.91529 12.7956 4.01301 12.4645C4.11074 12.1335 3.92159 11.7859 3.59054 11.6882L3.23664 12.887ZM12.4455 11.8876C12.7423 11.7114 12.8401 11.328 12.664 11.0311C12.4878 10.7343 12.1044 10.6365 11.8075 10.8126L12.4455 11.8876ZM13.7821 9.64075C13.4853 9.81692 13.3874 10.2004 13.5636 10.4972C13.7398 10.794 14.1232 10.8919 14.4201 10.7157L13.7821 9.64075ZM16.0999 7.25251L15.4871 7.37508L16.0999 7.25251ZM10.7894 5.80979L10.6378 6.41612L10.7894 5.80979ZM2.03205 11.8798L1.8551 12.4792L2.03205 11.8798ZM15.9694 9.06941L16.2884 9.60688L15.9694 9.06941ZM1.66188 10.3221L8.0135 12.047L8.3411 10.8407L1.98948 9.11577L1.66188 10.3221ZM2.10316 10.2789L9.69392 6.51801L9.13897 5.39795L1.54821 9.15889L2.10316 10.2789ZM8.47681 11.9924L14.8424 8.51682L14.2434 7.41971L7.87779 10.8953L8.47681 11.9924ZM14.8424 8.51682L16.3752 7.67991L15.7762 6.58279L14.2434 7.41971L14.8424 8.51682ZM10.6378 6.41612L11.7056 6.68305L12.0087 5.47037L10.941 5.20345L10.6378 6.41612ZM11.7056 6.68305L13.3868 7.10337L13.69 5.89069L12.0087 5.47037L11.7056 6.68305ZM13.3868 7.10337L15.9241 7.73769L16.2273 6.52501L13.69 5.89069L13.3868 7.10337ZM8.99282 6.75487L10.6741 7.17519L10.9773 5.96251L9.29598 5.54219L8.99282 6.75487ZM10.3823 9.42519L12.0636 9.84551L12.3668 8.63283L10.6855 8.21251L10.3823 9.42519ZM3.5491 9.42519L5.23038 9.84551L5.53355 8.63283L3.85227 8.21251L3.5491 9.42519ZM13.5713 8.33896L14.37 8.56887L14.7158 7.36766L13.9171 7.13774L13.5713 8.33896ZM8.9166 10.8804L9.71529 11.1103L10.0611 9.9091L9.2624 9.67918L8.9166 10.8804ZM5.96529 8.18284L6.76397 8.41276L7.10976 7.21154L6.31108 6.98162L5.96529 8.18284ZM7.5111 13.4033L7.55713 13.7714L8.79747 13.6163L8.75144 13.2482L7.5111 13.4033ZM1.21193 9.60088L1.19919 9.66712L2.4267 9.90319L2.43944 9.83696L1.21193 9.60088ZM16.7128 7.12993L16.6885 7.00878L15.4628 7.25392L15.4871 7.37508L16.7128 7.12993ZM4.82454 13.3558L8.00035 14.2933L8.35425 13.0944L5.17844 12.1569L4.82454 13.3558ZM1.8551 12.4792L3.23664 12.887L3.59054 11.6882L2.209 11.2803L1.8551 12.4792ZM8.49628 14.2313L12.4455 11.8876L11.8075 10.8126L7.85832 13.1564L8.49628 14.2313ZM14.4201 10.7157L16.2884 9.60688L15.6505 8.53193L13.7821 9.64075L14.4201 10.7157ZM16.7128 9.00776C16.8367 8.38796 16.8367 7.74974 16.7128 7.12993L15.4871 7.37508C15.5786 7.83306 15.5786 8.30464 15.4871 8.76262L16.7128 9.00776ZM1.19919 9.66712C1.0696 10.341 1.061 11.0325 1.17381 11.7094L2.40681 11.5039C2.31839 10.9733 2.32512 10.4313 2.4267 9.90319L1.19919 9.66712ZM7.56166 11.3361C7.44214 12.0188 7.4251 12.7155 7.5111 13.4033L8.75144 13.2482C8.68086 12.6838 8.69485 12.1119 8.79294 11.5516L7.56166 11.3361ZM9.69392 6.51801C9.98649 6.37305 10.3211 6.33693 10.6378 6.41612L10.941 5.20345C10.3363 5.05227 9.69751 5.12121 9.13897 5.39795L9.69392 6.51801ZM1.17381 11.7094C1.23479 12.0752 1.49935 12.3742 1.8551 12.4792L2.209 11.2803C2.31229 11.3108 2.3891 11.3976 2.40681 11.5039L1.17381 11.7094ZM15.4871 8.76262C15.5064 8.66604 15.5658 8.5822 15.6505 8.53193L16.2884 9.60688C16.5084 9.47634 16.6626 9.25858 16.7128 9.00776L15.4871 8.76262Z" fill="#332A2A"/>
</g>
<defs>
<clipPath id="clip0_666_7185">
<rect width="18" height="18" fill="white"/>
</clipPath>
</defs>
</svg>
