<svg width="24" height="23" viewBox="0 0 24 23" fill="none" xmlns="http://www.w3.org/2000/svg">
<g clip-path="url(#clip0_1236_15939)">
<path fill-rule="evenodd" clip-rule="evenodd" d="M14.3625 8.02091C14.0572 7.9446 13.7348 7.9794 13.4529 8.11909L13.3844 8.15304C13.4304 8.14933 13.4765 8.14291 13.5225 8.13372L13.688 8.10062C14.0536 8.0275 14.4092 8.26458 14.4823 8.63013C14.5554 8.99568 14.3183 9.35129 13.9528 9.4244L13.7872 9.45751C13.0569 9.60357 12.3072 9.42107 11.7299 8.97277L7.12212 11.2557C7.27284 11.2878 7.42736 11.3043 7.58328 11.3043C7.95607 11.3043 8.25828 11.6065 8.25828 11.9793C8.25828 12.3521 7.95607 12.6543 7.58328 12.6543C6.86095 12.6543 6.15729 12.4349 5.56451 12.0275L5.16477 12.2255L11.3016 13.8921L11.75 13.6473C11.6602 13.6101 11.5715 13.5697 11.4841 13.5264C11.1501 13.3608 11.0136 12.9558 11.1792 12.6218C11.3449 12.2878 11.7499 12.1513 12.0839 12.3169C12.5606 12.5533 13.092 12.6598 13.621 12.6257L15.1301 11.8018L17.5874 10.4601C17.5249 10.4106 17.4651 10.3573 17.4081 10.3003C17.1445 10.0367 17.1445 9.60935 17.4081 9.34575C17.6717 9.08214 18.0991 9.08214 18.3627 9.34575C18.5205 9.5036 18.7416 9.58113 18.9634 9.55647L19.3138 9.51752L19.6389 9.34001L18.0733 8.94863L15.925 8.41155L14.3625 8.02091ZM20.9365 10.1696L19.844 10.7661L15.7771 12.9866L14.1571 13.8711C14.1483 13.8762 14.1393 13.8812 14.1301 13.8859L12.0033 15.0471C11.9458 15.4861 11.9276 15.9292 11.9489 16.3712L14.3265 14.9601C14.8824 13.3885 16.3815 12.2626 18.1435 12.2626C18.3622 12.2626 18.5769 12.28 18.7862 12.3134L20.8737 11.0745C20.9242 10.7752 20.9451 10.4721 20.9365 10.1696ZM20.3809 12.9368L21.6878 12.1612C21.9388 12.0122 22.1147 11.7638 22.172 11.4777C22.3272 10.7017 22.3272 9.9027 22.172 9.12673L22.141 8.97192C22.0898 8.71613 21.8959 8.51271 21.6428 8.44945L18.4008 7.63893L16.2525 7.10186L14.6899 6.71122C14.0737 6.55716 13.4227 6.62742 12.8535 6.90942L2.97111 11.8058C2.78212 11.8994 2.64776 12.076 2.60793 12.2832L2.59165 12.3678C2.42883 13.2144 2.41803 14.0832 2.55976 14.9336C2.6299 15.3545 2.93419 15.6983 3.34337 15.8191L5.10866 16.3402C5.4662 16.4458 5.8416 16.2415 5.94715 15.8839C6.05269 15.5264 5.84841 15.151 5.49087 15.0455L3.86907 14.5667C3.80796 14.1341 3.79505 13.6965 3.83025 13.262L10.6368 15.1105C10.5872 15.5906 10.5772 16.074 10.607 16.5557L7.51986 15.6444C7.16232 15.5389 6.78692 15.7431 6.68137 16.1007C6.57583 16.4582 6.78011 16.8336 7.13765 16.9392L11.1956 18.1371C11.3757 18.1902 11.5698 18.166 11.7312 18.0702L14.1105 16.6581C14.2869 18.7308 16.0252 20.3581 18.1435 20.3581C20.379 20.3581 22.1913 18.5459 22.1913 16.3104C22.1913 15.9376 21.8891 15.6354 21.5163 15.6354C21.1435 15.6354 20.8413 15.9376 20.8413 16.3104C20.8413 17.8003 19.6334 19.0081 18.1435 19.0081C16.6536 19.0081 15.4458 17.8003 15.4458 16.3104C15.4458 14.8204 16.6536 13.6126 18.1435 13.6126C19.0812 13.6126 19.9076 14.0905 20.392 14.8191C20.5984 15.1295 21.0174 15.2139 21.3279 15.0075C21.6383 14.801 21.7226 14.3821 21.5162 14.0716C21.2175 13.6223 20.8309 13.2358 20.3809 12.9368ZM15.9127 15.2654C15.9127 14.9893 16.1365 14.7654 16.4127 14.7654C16.8232 14.7654 17.2169 14.9285 17.5072 15.2187L17.5816 15.2932C17.8948 15.6064 18.4027 15.6064 18.7159 15.2932L18.7904 15.2187C19.0806 14.9285 19.4743 14.7654 19.8848 14.7654C20.161 14.7654 20.3848 14.9893 20.3848 15.2654C20.3848 15.5415 20.161 15.7654 19.8848 15.7654C19.7395 15.7654 19.6002 15.8231 19.4975 15.9258L19.423 16.0003C18.7193 16.7041 17.5783 16.7041 16.8745 16.0003L16.8 15.9258C16.6973 15.8231 16.558 15.7654 16.4127 15.7654C16.1365 15.7654 15.9127 15.5415 15.9127 15.2654ZM16.4127 16.5017C16.1365 16.5017 15.9127 16.7255 15.9127 17.0017C15.9127 17.2778 16.1365 17.5017 16.4127 17.5017C16.558 17.5017 16.6973 17.5594 16.8 17.6621L16.8745 17.7366C17.5783 18.4403 18.7193 18.4403 19.423 17.7366L19.4975 17.6621C19.6002 17.5594 19.7395 17.5017 19.8848 17.5017C20.161 17.5017 20.3848 17.2778 20.3848 17.0017C20.3848 16.7255 20.161 16.5017 19.8848 16.5017C19.4743 16.5017 19.0806 16.6647 18.7904 16.955L18.7159 17.0295C18.4027 17.3427 17.8948 17.3427 17.5816 17.0295L17.5072 16.955C17.2169 16.6647 16.8232 16.5017 16.4127 16.5017Z" fill="#252323"/>
</g>
<defs>
<clipPath id="clip0_1236_15939">
<rect width="23" height="23" fill="white" transform="translate(0.875)"/>
</clipPath>
</defs>
</svg>
