<svg width="28" height="28" viewBox="0 0 28 28" fill="none" xmlns="http://www.w3.org/2000/svg">
<g clip-path="url(#clip0_1234_15063)">
<path fill-rule="evenodd" clip-rule="evenodd" d="M9.4375 20.9998H18.5625C19.6671 20.9998 20.5625 20.1044 20.5625 18.9998V18.1448C20.5625 17.9234 20.51 17.706 20.3351 17.5701C20.1613 17.4349 19.9111 17.2757 19.6586 17.115C19.1749 16.8072 18.6825 16.4939 18.7004 16.3332L18.681 13.652C18.6731 12.5531 17.78 11.6665 16.6811 11.6665H11.7516C10.6414 11.6665 9.74361 12.5708 9.75164 13.681L9.75625 14.3187C9.76429 15.4289 8.78391 16.3603 7.94746 17.0903C7.63293 17.3649 7.4375 17.6473 7.4375 17.8103V18.9997C7.4375 20.1043 8.33293 20.9998 9.4375 20.9998ZM11.0001 15.9998L11.5001 13.9998H13.5001H15.5001H17.0001V15.9998L15.0001 16.4998L11.0001 15.9998Z" fill="#E05149"/>
<path fill-rule="evenodd" clip-rule="evenodd" d="M8.58325 13.6665C8.58325 12.1477 9.81447 10.9165 11.3333 10.9165H11.6666C12.0808 10.9165 12.4166 11.2523 12.4166 11.6665C12.4166 12.0807 12.0808 12.4165 11.6666 12.4165H11.3333C10.6429 12.4165 10.0833 12.9761 10.0833 13.6665V15.6162C10.2468 15.5944 10.4137 15.5832 10.5833 15.5832H10.6966V14.9351C10.6966 13.9686 11.4801 13.1851 12.4466 13.1851H15.7823C16.7488 13.1851 17.5323 13.9686 17.5323 14.9351V15.5849C17.6837 15.5895 17.8329 15.6031 17.9793 15.6251C18.0952 15.3607 18.3593 15.1759 18.6666 15.1759C19.0808 15.1759 19.4166 15.5117 19.4166 15.9259V16.1605C20.4682 16.8247 21.1666 17.9974 21.1666 19.3332V20.9998C21.1666 21.4141 20.8308 21.7498 20.4166 21.7498H20.1458V22.8957C20.1458 23.3099 19.81 23.6457 19.3958 23.6457C18.9815 23.6457 18.6458 23.3099 18.6458 22.8957V21.7498H17.9166C17.5024 21.7498 17.1666 21.4141 17.1666 20.9998C17.1666 20.5856 17.5024 20.2498 17.9166 20.2498H19.6666V19.3332C19.6666 18.0905 18.6592 17.0832 17.4166 17.0832H10.5833C9.34061 17.0832 8.33325 18.0905 8.33325 19.3332V20.2498H14.9305C15.3447 20.2498 15.6805 20.5856 15.6805 20.9998C15.6805 21.4141 15.3447 21.7498 14.9305 21.7498H9.5257V22.8957C9.5257 23.3099 9.18991 23.6457 8.7757 23.6457C8.36148 23.6457 8.0257 23.3099 8.0257 22.8957V21.7498H7.58325C7.16904 21.7498 6.83325 21.4141 6.83325 20.9998V19.3332C6.83325 17.9974 7.53167 16.8247 8.58325 16.1605V13.6665ZM13.1852 11.6665C13.1852 11.2523 13.521 10.9165 13.9352 10.9165H16.6666C18.1854 10.9165 19.4166 12.1477 19.4166 13.6665V13.9351C19.4166 14.3494 19.0808 14.6851 18.6666 14.6851C18.2524 14.6851 17.9166 14.3494 17.9166 13.9351V13.6665C17.9166 12.9761 17.3569 12.4165 16.6666 12.4165H13.9352C13.521 12.4165 13.1852 12.0807 13.1852 11.6665ZM12.1966 14.9351C12.1966 14.7971 12.3085 14.6851 12.4466 14.6851H15.7823C15.9204 14.6851 16.0323 14.7971 16.0323 14.9351V15.5832H12.1966V14.9351Z" fill="#252323"/>
</g>
<defs>
<clipPath id="clip0_1234_15063">
<rect width="28" height="28" fill="white"/>
</clipPath>
</defs>
</svg>
