<svg width="44" height="44" viewBox="0 0 44 44" fill="none" xmlns="http://www.w3.org/2000/svg">
<g clip-path="url(#clip0_1234_15152)">
<path d="M17.6462 17.5835C18.0603 17.5837 18.3962 17.9194 18.3962 18.3335C18.3962 18.7476 18.0603 19.0833 17.6462 19.0835H15.2917C14.6014 19.0835 14.0417 19.6431 14.0417 20.3335V24.9165H16.6667V22.9985C16.6667 21.5269 17.8601 20.3335 19.3318 20.3335H24.6687C26.1404 20.3335 27.3337 21.5269 27.3337 22.9985V24.9165H29.9587V24.0376C29.9587 23.6234 30.2945 23.2876 30.7087 23.2876C31.1228 23.2878 31.4587 23.6235 31.4587 24.0376V25.0522C33.0441 25.49 34.2086 26.942 34.2087 28.6665V32.9995C34.2087 33.4136 33.8728 33.7493 33.4587 33.7495H32.8337V35.979C32.8337 36.3931 32.4978 36.7288 32.0837 36.729C31.6695 36.729 31.3337 36.3932 31.3337 35.979V33.7495H28.031C27.6168 33.7495 27.281 33.4137 27.281 32.9995C27.2814 32.5856 27.617 32.2495 28.031 32.2495H32.7087V28.6665C32.7086 27.4241 31.7011 26.4167 30.4587 26.4165H13.5417C12.2992 26.4165 11.2919 27.424 11.2917 28.6665V32.2495H24.4128C24.8266 32.2498 25.1625 32.5858 25.1628 32.9995C25.1628 33.4136 24.8268 33.7493 24.4128 33.7495H12.6667V35.979C12.6667 36.3932 12.331 36.729 11.9167 36.729C11.5025 36.729 11.1667 36.3932 11.1667 35.979V33.7495H10.5417C10.1275 33.7495 9.79175 33.4137 9.79175 32.9995V28.6665C9.79189 26.9419 10.9563 25.4899 12.5417 25.0522V20.3335C12.5417 18.8147 13.773 17.5835 15.2917 17.5835H17.6462ZM19.3318 21.8335C18.6886 21.8335 18.1667 22.3553 18.1667 22.9985V24.9165H25.8337V22.9985C25.8337 22.3553 25.3119 21.8335 24.6687 21.8335H19.3318ZM28.7087 17.5835C30.2274 17.5837 31.4587 18.8148 31.4587 20.3335V22.1313C31.4586 22.5453 31.1227 22.8812 30.7087 22.8813C30.2946 22.8813 29.9589 22.5455 29.9587 22.1313V20.3335C29.9587 19.6433 29.3989 19.0837 28.7087 19.0835H19.823C19.4088 19.0835 19.073 18.7477 19.073 18.3335C19.073 17.9193 19.4088 17.5835 19.823 17.5835H28.7087Z" fill="#332A2A"/>
</g>
<defs>
<clipPath id="clip0_1234_15152">
<rect width="44" height="44" fill="white"/>
</clipPath>
</defs>
</svg>
