<svg width="23" height="23" viewBox="0 0 23 23" fill="none" xmlns="http://www.w3.org/2000/svg">
<g clip-path="url(#clip0_1234_15250)">
<path fill-rule="evenodd" clip-rule="evenodd" d="M4.06657 16.7391H18.3582C18.9105 16.7391 19.3582 16.2914 19.3582 15.7391V13.9365C19.3582 13.781 19.3359 13.6445 19.2609 13.5083C19.2139 13.423 19.1621 13.3329 19.1082 13.2393C18.8315 12.7586 18.5008 12.1841 18.5008 11.6844V10.3613C18.5008 8.59095 17.0656 7.15576 15.2952 7.15576H6.17886C4.97964 7.15576 4.05002 8.20383 4.19316 9.39447L4.42987 11.3635C4.48342 11.809 4.24934 12.1914 4.01308 12.5774C3.79631 12.9316 3.57768 13.2888 3.57768 13.7005C3.57768 13.8492 3.4968 14.2249 3.39939 14.6773C3.3273 15.0121 3.24615 15.389 3.18204 15.747C3.08469 16.2907 3.51429 16.7391 4.06657 16.7391ZM4.49991 12.0002L5.99991 9.50021H8.49991L9.99991 10.5002H11.4999H12.4999L13.9999 9.50021H16.4999L17.4999 11.0002L16.9999 12.0002H5.99991H4.49991Z" fill="#E05149"/>
<path fill-rule="evenodd" clip-rule="evenodd" d="M3.63753 9.18769C3.63753 7.71033 4.83517 6.5127 6.31253 6.5127H7.35869C7.73149 6.5127 8.03369 6.8149 8.03369 7.1877C8.03369 7.56049 7.73149 7.8627 7.35869 7.8627H6.31253C5.58075 7.8627 4.98753 8.45592 4.98753 9.18769V10.1282C5.44501 9.39577 6.25837 8.90853 7.18553 8.90853H7.4456C7.36143 8.84275 7.30732 8.74029 7.30732 8.6252C7.30732 8.42672 7.46822 8.26582 7.6667 8.26582C7.86518 8.26582 8.02607 8.42672 8.02607 8.6252C8.02607 8.74029 7.97197 8.84275 7.8878 8.90853H8.14787C9.12762 8.90853 9.98029 9.45261 10.4202 10.2551C10.6375 10.1155 10.8851 10.0189 11.1509 9.9773C11.1892 9.82005 11.331 9.70332 11.5 9.70332C11.6764 9.70332 11.8231 9.8304 11.8536 9.99799C12.1093 10.0537 12.3457 10.1609 12.5516 10.3081C12.9826 9.47663 13.8511 8.90853 14.8522 8.90853H15.1123C15.0281 8.84275 14.974 8.74029 14.974 8.6252C14.974 8.42672 15.1349 8.26582 15.3334 8.26582C15.5318 8.26582 15.6927 8.42672 15.6927 8.6252C15.6927 8.74029 15.6386 8.84275 15.5545 8.90853H15.8145C16.7417 8.90853 17.5551 9.39577 18.0125 10.1282V9.91723V9.1877C18.0125 8.45592 17.4193 7.8627 16.6875 7.8627H9.81159C9.4388 7.8627 9.13659 7.56049 9.13659 7.1877C9.13659 6.8149 9.4388 6.5127 9.81159 6.5127H16.6875C18.1649 6.5127 19.3625 7.71033 19.3625 9.1877V9.91723V11.282V12.9835C19.9579 13.6366 20.3209 14.5052 20.3209 15.4585V16.771C20.3209 17.1438 20.0187 17.446 19.6459 17.446H19.3625V18.6877C19.3625 19.0605 19.0603 19.3627 18.6875 19.3627C18.3147 19.3627 18.0125 19.0605 18.0125 18.6877V17.446H15.7873C15.4145 17.446 15.1123 17.1438 15.1123 16.771C15.1123 16.3982 15.4145 16.096 15.7873 16.096H18.6875H18.9709V15.4585C18.9709 14.8443 18.7327 14.2857 18.3436 13.87C18.2579 13.8191 18.1844 13.7498 18.1285 13.6676C17.7261 13.334 17.2094 13.1335 16.6459 13.1335H6.3542C5.07014 13.1335 4.0292 14.1745 4.0292 15.4585V16.096H4.31253H13.2149C13.5877 16.096 13.8899 16.3982 13.8899 16.771C13.8899 17.1438 13.5877 17.446 13.2149 17.446H4.98753V18.6877C4.98753 19.0605 4.68532 19.3627 4.31253 19.3627C3.93974 19.3627 3.63753 19.0605 3.63753 18.6877V17.446H3.3542C2.98141 17.446 2.6792 17.1438 2.6792 16.771V15.4585C2.6792 14.5052 3.0422 13.6366 3.63753 12.9835V9.18769ZM14.8522 10.2585C14.1675 10.2585 13.6125 10.8135 13.6125 11.4982V11.7835H16.6459C16.7839 11.7835 16.9201 11.7911 17.0542 11.806V11.4982C17.0542 10.8135 16.4992 10.2585 15.8145 10.2585H14.8522ZM5.94587 11.806C6.07994 11.7911 6.21618 11.7835 6.3542 11.7835H9.38753V11.4982C9.38753 10.8135 8.83251 10.2585 8.14787 10.2585H7.18553C6.50088 10.2585 5.94587 10.8135 5.94587 11.4982V11.806ZM10.9001 11.7835C10.9356 11.5131 11.1668 11.3044 11.4469 11.3044C11.7269 11.3044 11.9582 11.5131 11.9936 11.7835H10.9001ZM17.6094 8.6252C17.6094 8.82367 17.4485 8.98457 17.25 8.98457C17.0516 8.98457 16.8907 8.82367 16.8907 8.6252C16.8907 8.42672 17.0516 8.26582 17.25 8.26582C17.4485 8.26582 17.6094 8.42672 17.6094 8.6252ZM13.4167 8.98457C13.6152 8.98457 13.7761 8.82367 13.7761 8.6252C13.7761 8.42672 13.6152 8.26582 13.4167 8.26582C13.2182 8.26582 13.0573 8.42672 13.0573 8.6252C13.0573 8.82367 13.2182 8.98457 13.4167 8.98457ZM9.94274 8.6252C9.94274 8.82367 9.78184 8.98457 9.58337 8.98457C9.38489 8.98457 9.22399 8.82367 9.22399 8.6252C9.22399 8.42672 9.38489 8.26582 9.58337 8.26582C9.78184 8.26582 9.94274 8.42672 9.94274 8.6252ZM5.75003 8.98457C5.94851 8.98457 6.10941 8.82367 6.10941 8.6252C6.10941 8.42672 5.94851 8.26582 5.75003 8.26582C5.55156 8.26582 5.39066 8.42672 5.39066 8.6252C5.39066 8.82367 5.55156 8.98457 5.75003 8.98457ZM11.5 8.98457C11.6985 8.98457 11.8594 8.82367 11.8594 8.6252C11.8594 8.42672 11.6985 8.26582 11.5 8.26582C11.3016 8.26582 11.1407 8.42672 11.1407 8.6252C11.1407 8.82367 11.3016 8.98457 11.5 8.98457Z" fill="#252323"/>
</g>
<defs>
<clipPath id="clip0_1234_15250">
<rect width="23" height="23" fill="white"/>
</clipPath>
</defs>
</svg>
