<svg width="28" height="28" viewBox="0 0 28 28" fill="none" xmlns="http://www.w3.org/2000/svg">
<g clip-path="url(#clip0_1236_15785)">
<path fill-rule="evenodd" clip-rule="evenodd" d="M17.6442 10.3902C17.678 10.2549 17.6728 10.119 17.6356 9.99443L18.3392 10.1703L20.9545 10.8242L23.0385 11.3452L22.6101 11.5791L21.664 11.3068C21.2659 11.1922 20.8503 11.422 20.7358 11.82C20.6629 12.0731 20.7292 12.3332 20.8895 12.5186L15.3695 15.5325L14.4233 15.2601C14.0253 15.1455 13.6097 15.3753 13.4951 15.7734C13.4223 16.0264 13.4886 16.2865 13.6489 16.4719L12.7023 16.9887L5.02103 14.9027L5.85867 14.4877L8.26669 15.0897C8.66854 15.1902 9.07574 14.9458 9.1762 14.544C9.27666 14.1422 9.03234 13.735 8.6305 13.6345L7.93277 13.4601L14.2707 10.3199L16.7347 10.9359C17.1365 11.0363 17.5437 10.792 17.6442 10.3902ZM23.0583 13.0434L24.4899 12.2618C24.5105 12.6843 24.4844 13.1085 24.4113 13.5266L21.8191 15.065C21.56 15.0222 21.2939 14.9999 21.0225 14.9999C18.8996 14.9999 17.0948 16.3623 16.4348 18.2605L13.4161 20.052C13.3797 19.4583 13.4015 18.8623 13.4811 18.2725L15.8171 16.9971L15.8182 16.9965L23.0583 13.0434ZM25.3008 14.743L23.6102 15.7463C24.1914 16.113 24.6891 16.5993 25.0687 17.1702C25.2981 17.5151 25.2043 17.9806 24.8594 18.21C24.5145 18.4393 24.049 18.3456 23.8196 18.0007C23.2171 17.0945 22.1891 16.4999 21.0225 16.4999C19.1691 16.4999 17.6666 18.0024 17.6666 19.8559C17.6666 21.7093 19.1691 23.2118 21.0225 23.2118C22.876 23.2118 24.3785 21.7093 24.3785 19.8559C24.3785 19.4417 24.7143 19.1059 25.1285 19.1059C25.5427 19.1059 25.8785 19.4417 25.8785 19.8559C25.8785 22.5377 23.7044 24.7118 21.0225 24.7118C18.4423 24.7118 16.3321 22.6993 16.1759 20.1584L13.1797 21.9366C13.0003 22.043 12.7846 22.07 12.5845 22.0109L7.6444 20.5526C7.24713 20.4353 7.02016 20.0182 7.13743 19.6209C7.2547 19.2237 7.67182 18.9967 8.06908 19.114L11.9261 20.2526C11.8805 19.6158 11.8924 18.9764 11.9617 18.3419L3.53366 16.0531C3.47995 16.6308 3.49552 17.2136 3.58053 17.7889L5.59901 18.3848C5.99628 18.5021 6.22326 18.9192 6.10598 19.3164C5.98871 19.7137 5.57159 19.9407 5.17433 19.8234L3.02527 19.189C2.55349 19.0497 2.20265 18.6533 2.12178 18.1681C1.95063 17.1412 1.96367 16.0921 2.16028 15.0698L2.18009 14.9667C2.22435 14.7366 2.37364 14.5404 2.58363 14.4363L14.7577 8.40453C15.3429 8.11461 16.0121 8.04238 16.6456 8.20076L18.703 8.71511L21.3183 9.36895L25.2652 10.3557C25.5463 10.426 25.7619 10.652 25.8187 10.9362L25.8564 11.1246C26.0435 12.06 26.0435 13.0232 25.8564 13.9586C25.7907 14.287 25.5888 14.5721 25.3008 14.743ZM19.2498 17.3761C18.8356 17.3761 18.4998 17.7119 18.4998 18.1261C18.4998 18.5404 18.8356 18.8761 19.2498 18.8761H22.7498C23.164 18.8761 23.4998 18.5404 23.4998 18.1261C23.4998 17.7119 23.164 17.3761 22.7498 17.3761H19.2498ZM18.4998 19.8333C18.4998 19.4191 18.8356 19.0833 19.2498 19.0833H22.7498C23.164 19.0833 23.4998 19.4191 23.4998 19.8333C23.4998 20.2475 23.164 20.5833 22.7498 20.5833H19.2498C18.8356 20.5833 18.4998 20.2475 18.4998 19.8333ZM19.2498 20.7905C18.8356 20.7905 18.4998 21.1263 18.4998 21.5405C18.4998 21.9547 18.8356 22.2905 19.2498 22.2905H22.7498C23.164 22.2905 23.4998 21.9547 23.4998 21.5405C23.4998 21.1263 23.164 20.7905 22.7498 20.7905H19.2498Z" fill="#252323"/>
</g>
<defs>
<clipPath id="clip0_1236_15785">
<rect width="28" height="28" fill="white"/>
</clipPath>
</defs>
</svg>
