<svg width="28" height="28" viewBox="0 0 28 28" fill="none" xmlns="http://www.w3.org/2000/svg">
<g clip-path="url(#clip0_1247_16874)">
<path fill-rule="evenodd" clip-rule="evenodd" d="M11.9245 4.20266C11.9635 3.96004 11.8812 3.71369 11.7042 3.54324C11.5272 3.37279 11.2779 3.29988 11.0369 3.34807L5.75673 4.40411C5.48698 4.45806 5.26841 4.65535 5.18722 4.91819C5.10604 5.18103 5.17526 5.46723 5.36759 5.66391L6.23924 6.55527C4.26417 8.53662 3.04175 11.2718 3.04175 14.2918C3.04175 14.706 3.37753 15.0418 3.79175 15.0418C4.20596 15.0418 4.54175 14.706 4.54175 14.2918C4.54175 11.4386 5.80417 8.88114 7.80348 7.14583C7.95953 7.01038 8.05279 6.81655 8.06124 6.61008C8.06968 6.40361 7.99256 6.2028 7.84809 6.05506L7.4068 5.6038L10.2719 5.03078L9.78063 8.0837L9.27157 7.57464C8.98818 7.29125 8.53206 7.28074 8.23591 7.55077C6.4795 9.15231 5.15382 11.6805 5.15382 14.2918C5.15382 16.7315 6.14243 18.9418 7.73912 20.5414C8.03175 20.8345 8.50662 20.835 8.79978 20.5423C9.09294 20.2497 9.09337 19.7748 8.80074 19.4817C7.4733 18.1518 6.65382 16.3182 6.65382 14.2918C6.65382 12.4102 7.51318 10.5189 8.74155 9.16594L9.75763 10.182C9.95682 10.3812 10.2508 10.452 10.5188 10.3653C10.7869 10.2785 10.9837 10.049 11.0284 9.77085L11.9245 4.20266ZM22.2789 7.11199C22.0253 6.81986 21.5912 6.76849 21.2765 6.99337L19.5483 8.22817C19.3738 8.35282 19.261 8.54617 19.2384 8.75939C19.2159 8.97261 19.2856 9.1853 19.4301 9.34374C20.6211 10.6499 21.3463 12.3853 21.3463 14.2918C21.3463 14.706 21.6821 15.0418 22.0963 15.0418C22.5106 15.0418 22.8463 14.706 22.8463 14.2918C22.8463 12.2994 22.1869 10.4596 21.0752 8.98073L21.5734 8.62472C22.7575 10.2043 23.4584 12.1655 23.4584 14.2918C23.4584 19.5155 19.2238 23.7502 14.0001 23.7502C10.8415 23.7502 8.04446 22.2027 6.32543 19.8212C6.083 19.4853 5.6142 19.4096 5.27834 19.652C4.94249 19.8945 4.86675 20.3633 5.10919 20.6991C7.09807 23.4544 10.3394 25.2502 14.0001 25.2502C20.0522 25.2502 24.9584 20.3439 24.9584 14.2918C24.9584 11.5461 23.9476 9.03461 22.2789 7.11199ZM22.1243 17.7976C22.2885 17.4174 22.1135 16.976 21.7332 16.8117C21.353 16.6474 20.9116 16.8225 20.7473 17.2027C20.4077 17.9886 19.9345 18.704 19.3559 19.32C18.0149 20.7479 16.112 21.6381 14.0001 21.6381C12.7847 21.6381 11.6403 21.3435 10.6323 20.8226C10.2643 20.6324 9.81187 20.7765 9.62169 21.1445C9.4315 21.5125 9.57563 21.9649 9.94361 22.1551C11.1595 22.7835 12.5395 23.1381 14.0001 23.1381C16.5431 23.1381 18.8365 22.064 20.4493 20.347C21.145 19.6062 21.7149 18.7451 22.1243 17.7976ZM13.2157 11.6756L13.2227 11.6721L14.1897 11.1929C14.7112 10.9346 15.3077 10.8702 15.8723 11.0113L16.6964 11.2174L18.0892 11.5656L20.1912 12.0911C20.4255 12.1496 20.6051 12.338 20.6524 12.5748L20.6725 12.6752C20.778 13.2025 20.778 13.7456 20.6725 14.2729C20.625 14.5105 20.4789 14.7167 20.2705 14.8404L18.7228 15.759C18.4259 15.9351 18.0425 15.8373 17.8663 15.5405C17.6901 15.2436 17.788 14.8602 18.0848 14.684L19.4753 13.8588C19.4821 13.8088 19.4877 13.7587 19.4919 13.7086L17.953 14.5487L15.5859 15.8412L15.5824 15.8431L14.0706 16.6686C14.0554 16.8061 14.0464 16.9442 14.0436 17.0824L16.449 15.6548C16.7459 15.4787 17.1293 15.5765 17.3055 15.8733C17.4816 16.1702 17.3838 16.5536 17.087 16.7298L13.8154 18.6714C13.6659 18.7601 13.4862 18.7826 13.3195 18.7333L10.6886 17.9567C10.3575 17.859 10.1684 17.5114 10.2661 17.1803C10.3638 16.8493 10.7114 16.6601 11.0425 16.7578L12.7935 17.2747C12.7904 17.0934 12.7958 16.912 12.8095 16.7311L8.77282 15.6348C8.76997 15.788 8.77677 15.9413 8.79324 16.0939L9.72701 16.3695C10.0581 16.4672 10.2472 16.8148 10.1495 17.1459C10.0518 17.4769 9.70416 17.6661 9.37311 17.5684L8.22862 17.2305C7.89452 17.1319 7.64608 16.8511 7.58881 16.5075C7.49326 15.9343 7.50054 15.3486 7.6103 14.7778L7.62086 14.723C7.65774 14.5312 7.78214 14.3677 7.95713 14.281L11.1434 12.7023L11.1474 12.7003L13.2157 11.6756ZM17.7861 12.7783L18.3356 12.9157L17.5795 13.3285L17.1648 13.2091C16.8331 13.1136 16.4868 13.3051 16.3913 13.6368C16.358 13.7525 16.3596 13.87 16.3899 13.978L15.1995 14.628L14.0436 14.339C13.7087 14.2553 13.3694 14.4589 13.2856 14.7937C13.2141 15.0799 13.3524 15.3693 13.603 15.4997L13.4176 15.6009L9.9883 14.6696L11.4829 13.9291L11.9115 14.0525C12.2432 14.148 12.5895 13.9565 12.685 13.6248C12.7138 13.5246 12.7165 13.4231 12.697 13.3275L13.5679 12.8961L14.7376 13.1885C15.0725 13.2722 15.4118 13.0686 15.4956 12.7338C15.5447 12.5373 15.4949 12.3393 15.3778 12.1923C15.4419 12.1977 15.5059 12.2082 15.5691 12.224L16.3933 12.4301L17.7861 12.7783Z" fill="#332A2A"/>
</g>
<defs>
<clipPath id="clip0_1247_16874">
<rect width="28" height="28" fill="white"/>
</clipPath>
</defs>
</svg>
