<svg width="28" height="28" viewBox="0 0 28 28" fill="none" xmlns="http://www.w3.org/2000/svg">
<g clip-path="url(#clip0_1236_15863)">
<path fill-rule="evenodd" clip-rule="evenodd" d="M17.3749 10.2083C17.3749 10.1039 17.3536 10.0046 17.3151 9.91432L18.3392 10.1703L20.9545 10.8242L23.0385 11.3452L22.5506 11.6116C22.0049 11.5429 21.4673 11.4207 20.9454 11.2468C20.5525 11.1158 20.1277 11.3281 19.9968 11.7211C19.8658 12.1141 20.0781 12.5388 20.4711 12.6698C20.5005 12.6796 20.5299 12.6892 20.5594 12.6988L15.2669 15.5885H15.2344C14.6975 15.5885 14.1642 15.5014 13.6552 15.3306C13.2625 15.1988 12.8374 15.4103 12.7056 15.803C12.5767 16.1869 12.776 16.6018 13.1518 16.7433L12.7023 16.9887L5.02103 14.9027L5.77178 14.5307C6.47958 14.9047 7.23967 15.1709 8.02691 15.3201C8.43387 15.3973 8.82632 15.1299 8.90347 14.723C8.98062 14.316 8.71325 13.9235 8.30629 13.8464C8.04773 13.7974 7.79277 13.7328 7.54276 13.6533L14.1985 10.3556C14.9454 10.751 15.7784 10.9583 16.6249 10.9583C17.0391 10.9583 17.3749 10.6225 17.3749 10.2083ZM23.0583 13.0434L24.4899 12.2618C24.5105 12.6843 24.4844 13.1085 24.4113 13.5266L21.8191 15.065C21.5599 15.0222 21.2939 14.9999 21.0225 14.9999C18.8996 14.9999 17.0948 16.3623 16.4348 18.2605L13.4161 20.052C13.3797 19.4583 13.4015 18.8623 13.4811 18.2725L15.8043 17.0041C15.8129 16.9996 15.8215 16.9949 15.8299 16.9901L23.0583 13.0434ZM25.3008 14.743L23.6102 15.7463C24.1914 16.113 24.6891 16.5993 25.0687 17.1702C25.2981 17.5151 25.2043 17.9806 24.8594 18.21C24.5145 18.4393 24.049 18.3456 23.8196 18.0007C23.2171 17.0945 22.1891 16.4999 21.0225 16.4999C19.1691 16.4999 17.6666 18.0024 17.6666 19.8559C17.6666 21.7093 19.1691 23.2118 21.0225 23.2118C22.876 23.2118 24.3785 21.7093 24.3785 19.8559C24.3785 19.4417 24.7143 19.1059 25.1285 19.1059C25.5427 19.1059 25.8785 19.4417 25.8785 19.8559C25.8785 22.5377 23.7044 24.7118 21.0225 24.7118C18.4423 24.7118 16.3321 22.6993 16.1759 20.1584L13.1797 21.9366C13.0003 22.043 12.7846 22.07 12.5845 22.0109L7.6444 20.5526C7.24713 20.4353 7.02016 20.0182 7.13743 19.6209C7.2547 19.2237 7.67182 18.9967 8.06908 19.114L11.9261 20.2526C11.8805 19.6158 11.8924 18.9764 11.9617 18.3419L3.53366 16.0531C3.47995 16.6308 3.49552 17.2136 3.58053 17.7889L5.59901 18.3848C5.99628 18.5021 6.22326 18.9192 6.10598 19.3164C5.98871 19.7137 5.57159 19.9407 5.17433 19.8234L3.02527 19.189C2.55349 19.0497 2.20265 18.6533 2.12178 18.1681C1.95063 17.1412 1.96367 16.0921 2.16028 15.0698L2.18009 14.9667C2.22435 14.7366 2.37364 14.5404 2.58363 14.4363L14.7577 8.40453C15.3429 8.11461 16.0121 8.04238 16.6456 8.20076L18.703 8.71511L21.3183 9.36895L25.2652 10.3557C25.5463 10.426 25.7619 10.652 25.8187 10.9362L25.8564 11.1246C26.0435 12.06 26.0435 13.0232 25.8564 13.9586C25.7907 14.287 25.5888 14.5721 25.3008 14.743ZM19.4634 17.4429C19.1097 17.325 18.7275 17.5162 18.6096 17.8698C18.4917 18.2235 18.6828 18.6057 19.0365 18.7236C20.311 19.1485 21.6889 19.1485 22.9634 18.7236C23.3171 18.6057 23.5082 18.2235 23.3903 17.8698C23.2724 17.5162 22.8902 17.325 22.5365 17.4429C21.5391 17.7754 20.4608 17.7754 19.4634 17.4429ZM18.6096 19.6198C18.7275 19.2662 19.1097 19.075 19.4634 19.1929C20.4608 19.5254 21.5391 19.5254 22.5365 19.1929C22.8902 19.075 23.2724 19.2662 23.3903 19.6198C23.5082 19.9735 23.3171 20.3557 22.9634 20.4736C21.6889 20.8985 20.311 20.8985 19.0365 20.4736C18.6828 20.3557 18.4917 19.9735 18.6096 19.6198ZM19.4634 20.9429C19.1097 20.825 18.7275 21.0162 18.6096 21.3698C18.4917 21.7235 18.6828 22.1057 19.0365 22.2236C20.311 22.6485 21.6889 22.6485 22.9634 22.2236C23.3171 22.1057 23.5082 21.7235 23.3903 21.3698C23.2724 21.0162 22.8902 20.825 22.5365 20.9429C21.5391 21.2754 20.4608 21.2754 19.4634 20.9429Z" fill="#252323"/>
</g>
<defs>
<clipPath id="clip0_1236_15863">
<rect width="28" height="28" fill="white"/>
</clipPath>
</defs>
</svg>
