<svg width="44" height="44" viewBox="0 0 44 44" fill="none" xmlns="http://www.w3.org/2000/svg">
<g clip-path="url(#clip0_1045_11523)">
<path d="M11.4584 36.6668L22.9167 39.4168L32.5417 35.2918V22.9168L35.7501 21.5418L32.5417 14.2085L22.7318 18.3335L11.4584 15.5835L9.16675 22.9168L11.4584 23.8335V36.6668Z" fill="#E05149"/>
<path fill-rule="evenodd" clip-rule="evenodd" d="M16.1807 7.72449C15.9262 7.96514 15.8751 8.14298 15.8751 8.25C15.8751 8.35702 15.9262 8.53486 16.1807 8.77551C16.4367 9.01766 16.8475 9.27028 17.4172 9.49819C18.5526 9.95234 20.1726 10.25 22.0001 10.25C22.4143 10.25 22.7501 10.5858 22.7501 11C22.7501 11.4142 22.4143 11.75 22.0001 11.75C20.0306 11.75 18.213 11.4321 16.8602 10.8909C16.5065 10.7494 16.1744 10.5887 15.8751 10.4078V15.6434L22.9374 17.4089L28.1251 15.1033V13.0065C28.1248 12.9957 28.1248 12.9849 28.1251 12.9741V10.4078C27.6182 10.714 27.0091 10.9677 26.3409 11.1685C25.9442 11.2877 25.526 11.0627 25.4068 10.666C25.2876 10.2693 25.5126 9.85111 25.9092 9.73192C26.692 9.49674 27.2841 9.20623 27.6639 8.90883C28.0507 8.60595 28.1251 8.3754 28.1251 8.25C28.1251 8.14298 28.0739 7.96514 27.8195 7.72449C27.5634 7.48234 27.1526 7.22972 26.5829 7.00181C25.4475 6.54766 23.8275 6.25 22.0001 6.25C20.1726 6.25 18.5526 6.54766 17.4172 7.00181C16.8475 7.22972 16.4367 7.48234 16.1807 7.72449ZM29.6251 8.25V12.4041L32.8024 13.1984C33.0368 13.257 33.2286 13.4249 33.3177 13.6495L36.2797 21.117C36.4281 21.491 36.2548 21.9155 35.8872 22.0789L33.3706 23.1974V28.9776C33.3706 29.3918 33.0348 29.7276 32.6206 29.7276C32.2063 29.7276 31.8706 29.3918 31.8706 28.9776V23.864L26.2726 26.352C26.086 26.435 25.8737 26.4382 25.6846 26.3611C25.4956 26.2839 25.3461 26.133 25.2708 25.9432L23.756 22.1241V28.8588C23.756 29.273 23.4202 29.6088 23.006 29.6088C22.5918 29.6088 22.256 29.273 22.256 28.8588V23.7948L21.5949 26.2165C21.4875 26.61 21.0853 26.8455 20.6895 26.7466L12.0513 24.5871V36.0066L22.256 38.5578V34.1886C22.256 33.7744 22.5918 33.4386 23.006 33.4386C23.4202 33.4386 23.756 33.7744 23.756 34.1886V38.3643L31.8706 34.7579V32.1114C31.8706 31.6972 32.2063 31.3614 32.6206 31.3614C33.0348 31.3614 33.3706 31.6972 33.3706 32.1114V35.2453C33.3706 35.5417 33.196 35.8102 32.9252 35.9306L23.3106 40.2037C23.1577 40.2717 22.9865 40.2866 22.8241 40.246L11.1194 37.3198C10.7856 37.2364 10.5513 36.9364 10.5513 36.5922V24.2121L8.98485 23.8204C8.78916 23.7715 8.62143 23.6458 8.51952 23.4718C8.41761 23.2977 8.3901 23.0899 8.44322 22.8953L8.97687 20.9404C9.08595 20.5408 9.49831 20.3053 9.8979 20.4143C10.2975 20.5234 10.533 20.9358 10.4239 21.3354L10.0921 22.5511L11.468 22.8951C11.4786 22.8975 11.4891 22.9001 11.4996 22.903L20.3412 25.1134L22.0807 18.7409L11.8316 16.1787L11.4912 17.4255C11.3821 17.8251 10.9698 18.0606 10.5702 17.9515C10.1706 17.8424 9.93509 17.4301 10.0442 17.0305L10.5778 15.0755C10.6371 14.8582 10.7909 14.6791 10.9968 14.5877L14.3621 13.092L14.3751 13.0864V8.25C14.3751 7.59763 14.7087 7.05202 15.15 6.63466C15.5897 6.2188 16.1858 5.87884 16.8602 5.6091C18.213 5.06795 20.0306 4.75 22.0001 4.75C23.9695 4.75 25.7871 5.06795 27.14 5.6091C27.8143 5.87884 28.4104 6.2188 28.8501 6.63466C29.2914 7.05202 29.6251 7.59763 29.6251 8.25ZM29.6251 13.9503V14.4366L30.3254 14.1254L29.6251 13.9503ZM14.3751 14.7277V15.2684L13.5965 15.0737L14.3751 14.7277ZM32.2114 14.9286L23.9687 18.5921L26.3772 24.6641L32.3011 22.0312C32.3111 22.0265 32.3213 22.022 32.3316 22.0177L34.6199 21.0007L32.2114 14.9286ZM19.9169 8.49382C19.9168 8.49382 19.9176 8.49298 19.9195 8.49131L19.9169 8.49382ZM22.0001 8.08333C21.4152 8.08333 20.8981 8.15002 20.5091 8.25C20.8981 8.34998 21.4152 8.41667 22.0001 8.41667C22.585 8.41667 23.102 8.34998 23.491 8.25C23.102 8.15002 22.585 8.08333 22.0001 8.08333ZM24.0806 8.49131L24.0832 8.49382C24.0833 8.49382 24.0831 8.49366 24.0828 8.49334L24.0806 8.49131ZM24.0806 8.00869L24.0832 8.00618C24.0833 8.00618 24.0825 8.00702 24.0806 8.00869ZM19.9195 8.00869C19.9176 8.00702 19.9168 8.00618 19.9169 8.00618L19.9195 8.00869ZM22.0001 6.58333C21.1825 6.58333 20.4112 6.69269 19.8183 6.89031C19.5258 6.98781 19.235 7.12044 19.0019 7.30413C18.7773 7.48117 18.5001 7.79514 18.5001 8.25C18.5001 8.70486 18.7773 9.01883 19.0019 9.19587C19.235 9.37956 19.5258 9.51219 19.8183 9.60969C20.4112 9.80731 21.1825 9.91667 22.0001 9.91667C22.8176 9.91667 23.5889 9.80731 24.1818 9.60969C24.4743 9.51219 24.7651 9.37956 24.9982 9.19587C25.2228 9.01883 25.5001 8.70486 25.5001 8.25C25.5001 7.79514 25.2228 7.48117 24.9982 7.30413C24.7651 7.12044 24.4743 6.98781 24.1818 6.89031C23.5889 6.69269 22.8176 6.58333 22.0001 6.58333Z" fill="#332A2A"/>
</g>
<defs>
<clipPath id="clip0_1045_11523">
<rect width="44" height="44" fill="white"/>
</clipPath>
</defs>
</svg>
