<svg width="28" height="28" viewBox="0 0 28 28" fill="none" xmlns="http://www.w3.org/2000/svg">
<g clip-path="url(#clip0_1054_12026)">
<path fill-rule="evenodd" clip-rule="evenodd" d="M17.5 5.54183C17.5 6.34724 15.933 7.00016 14 7.00016C12.067 7.00016 10.5 6.34724 10.5 5.54183C10.5 4.73641 12.067 4.0835 14 4.0835C15.933 4.0835 17.5 4.73641 17.5 5.54183ZM17.5 11.9585C17.5 12.7639 15.933 13.4168 14 13.4168C12.067 13.4168 10.5 12.7639 10.5 11.9585C10.5 11.1531 12.067 10.5002 14 10.5002C15.933 10.5002 17.5 11.1531 17.5 11.9585ZM14 19.8335C15.933 19.8335 17.5 19.1806 17.5 18.3752C17.5 17.5697 15.933 16.9168 14 16.9168C12.067 16.9168 10.5 17.5697 10.5 18.3752C10.5 19.1806 12.067 19.8335 14 19.8335Z" fill="#E05149"/>
<path fill-rule="evenodd" clip-rule="evenodd" d="M14.0468 3.3335C13.6326 3.3335 13.2968 3.66928 13.2968 4.0835C13.2968 4.49771 13.6326 4.8335 14.0468 4.8335C15.1778 4.8335 15.9545 5.02364 16.4184 5.25562C16.6489 5.37086 16.7788 5.48453 16.8449 5.56715C16.9064 5.64392 16.9062 5.68346 16.9062 5.68751L16.9062 5.68766L16.9062 5.68781C16.9062 5.69186 16.9064 5.7314 16.8449 5.80817C16.7788 5.8908 16.6489 6.00446 16.4184 6.11971C15.9568 6.35053 15.1855 6.53994 14.0637 6.54182C12.9414 6.54002 12.1699 6.35058 11.7082 6.11971C11.4777 6.00446 11.3478 5.89079 11.2817 5.80817C11.2202 5.7314 11.2204 5.69186 11.2204 5.68781L11.2204 5.68766C11.2204 5.27344 10.8846 4.93766 10.4704 4.93766C10.0562 4.93766 9.72042 5.27345 9.72043 5.68767C9.72043 6.39893 10.18 6.94888 10.7743 7.31516C10.2229 7.70479 9.85134 8.27315 9.9163 8.96601C9.98747 9.72508 10.5604 10.3038 11.2452 10.663C11.9523 11.034 12.9064 11.2502 14.0468 11.2502C15.2017 11.2502 15.9895 11.4409 16.4572 11.6732C16.6894 11.7885 16.818 11.9016 16.8821 11.9822C16.9409 12.0561 16.9392 12.0923 16.9391 12.094L16.9391 12.0941L16.9391 12.0942C16.9391 12.0971 16.9388 12.1383 16.8735 12.2181C16.8036 12.3034 16.6688 12.4187 16.4338 12.5349C15.9635 12.7673 15.1851 12.9566 14.0636 12.9585C12.9418 12.9567 12.1632 12.7674 11.6928 12.5349C11.4578 12.4187 11.323 12.3034 11.2531 12.2181C11.1878 12.1383 11.1876 12.0971 11.1875 12.0942L11.1875 12.0941C11.1819 11.6799 10.8415 11.3487 10.4274 11.3544C10.0132 11.3601 9.68202 11.7004 9.68767 12.1146C9.6971 12.8049 10.1396 13.3398 10.7129 13.7029C10.1324 14.0691 9.68742 14.6128 9.68743 15.3127C9.68743 16.1259 10.2883 16.7283 11.0044 17.0863C11.7435 17.4559 12.7716 17.6668 14.0468 17.6668C15.1778 17.6668 15.9545 17.857 16.4184 18.089C16.6489 18.2042 16.7788 18.3179 16.8449 18.4005C16.9064 18.4773 16.9062 18.5168 16.9062 18.5208L16.9062 18.521L16.9062 18.5211C16.9062 18.5252 16.9064 18.5647 16.8449 18.6415C16.7788 18.7241 16.6489 18.8378 16.4184 18.953C15.9567 19.1839 15.1854 19.3733 14.0633 19.3752C12.9413 19.3733 12.1699 19.1839 11.7082 18.953C11.4777 18.8378 11.3478 18.7241 11.2817 18.6415C11.2202 18.5647 11.2204 18.5252 11.2204 18.5211L11.2204 18.521C11.2204 18.1068 10.8846 17.771 10.4704 17.771C10.0562 17.771 9.72042 18.1068 9.72043 18.521C9.72043 19.1775 10.112 19.6966 10.6396 20.0606C9.98887 20.3982 9.42109 20.9099 9.30796 21.6096C9.16207 22.5119 9.82204 23.159 10.5872 23.5129C11.3773 23.8784 12.5327 24.0835 14.0468 24.0835C14.461 24.0835 14.7968 23.7477 14.7968 23.3335C14.7968 22.9193 14.461 22.5835 14.0468 22.5835C12.6358 22.5835 11.7272 22.3875 11.2169 22.1515C10.9637 22.0343 10.8506 21.9267 10.8082 21.8699C10.7989 21.8574 10.7936 21.8483 10.7907 21.8426C10.8066 21.7994 10.9258 21.5642 11.4963 21.3128C12.0609 21.064 12.9198 20.8752 14.0468 20.8752C14.0523 20.8752 14.0578 20.8752 14.0633 20.8752C14.0688 20.8752 14.0743 20.8752 14.0798 20.8752C15.2068 20.8752 16.0657 21.064 16.6303 21.3128C17.245 21.5836 17.3357 21.8357 17.3379 21.8491C17.404 22.258 17.7891 22.5358 18.198 22.4697C18.6069 22.4036 18.8848 22.0185 18.8187 21.6096C18.7055 20.9099 18.1377 20.3982 17.487 20.0606C18.0146 19.6966 18.4062 19.1775 18.4062 18.521C18.4062 17.7077 17.8053 17.1054 17.0893 16.7473C16.3501 16.3777 15.3221 16.1668 14.0468 16.1668C12.9158 16.1668 12.1391 15.9767 11.6752 15.7447C11.4447 15.6295 11.3148 15.5158 11.2487 15.4332C11.1872 15.3564 11.1874 15.3169 11.1874 15.3128L11.1874 15.3127L11.1874 15.3125C11.1874 15.3085 11.1872 15.2689 11.2487 15.1922C11.3148 15.1095 11.4447 14.9959 11.6752 14.8806C12.1391 14.6486 12.9158 14.4585 14.0468 14.4585C14.0524 14.4585 14.058 14.4585 14.0636 14.4585C14.069 14.4585 14.0744 14.4585 14.0798 14.4585C15.2108 14.4585 15.9875 14.6486 16.4514 14.8806C16.6819 14.9959 16.8119 15.1095 16.8779 15.1922C16.9394 15.2689 16.9392 15.3085 16.9392 15.3125L16.9392 15.3127C16.9392 15.7269 17.275 16.0627 17.6892 16.0627C18.1034 16.0627 18.4392 15.7269 18.4392 15.3127C18.4392 14.6128 17.9942 14.0691 17.4137 13.7029C17.987 13.3398 18.4295 12.8049 18.4389 12.1146C18.4493 11.3553 17.9325 10.7801 17.285 10.4148C17.78 10.059 18.1537 9.5695 18.2103 8.96601C18.249 8.5536 17.946 8.18794 17.5336 8.14927C17.1212 8.11061 16.7555 8.41358 16.7169 8.82599C16.7128 8.869 16.6466 9.09236 16.1846 9.3347C15.7451 9.56529 15.0448 9.75017 14.0798 9.75017C14.0775 9.75017 14.0753 9.75017 14.073 9.7502C14.0643 9.75018 14.0556 9.75017 14.0468 9.75017C13.0818 9.75017 12.3815 9.56529 11.942 9.3347C11.48 9.09236 11.4138 8.869 11.4097 8.82599C11.4082 8.80993 11.4078 8.77964 11.4451 8.72389C11.4873 8.6608 11.5833 8.56012 11.7819 8.45241C12.186 8.23328 12.9121 8.04183 14.0468 8.04183C14.0524 8.04183 14.058 8.04183 14.0636 8.04182C14.069 8.04183 14.0744 8.04183 14.0798 8.04183C14.0836 8.04183 14.0874 8.0418 14.0912 8.04175C15.3459 8.0369 16.3587 7.82664 17.0892 7.46135C17.8053 7.10331 18.4062 6.50093 18.4062 5.68767C18.4062 4.8744 17.8053 4.27202 17.0893 3.91398C16.3501 3.54439 15.3221 3.3335 14.0468 3.3335Z" fill="#252323"/>
</g>
<defs>
<clipPath id="clip0_1054_12026">
<rect width="28" height="28" fill="white"/>
</clipPath>
</defs>
</svg>
