<svg width="28" height="28" viewBox="0 0 28 28" fill="none" xmlns="http://www.w3.org/2000/svg">
<g clip-path="url(#clip0_1234_15369)">
<path fill-rule="evenodd" clip-rule="evenodd" d="M8.16675 6.25C5.49737 6.25 3.33342 8.41396 3.33342 11.0833V15.5942C2.61476 16.2774 2.16675 17.2426 2.16675 18.3125V20.483C2.16675 20.8972 2.50253 21.233 2.91675 21.233H3.33342V22.8213C3.33342 23.2355 3.6692 23.5713 4.08342 23.5713C4.49763 23.5713 4.83342 23.2355 4.83342 22.8213V21.233H14.9308C15.345 21.233 15.6808 20.8972 15.6808 20.483C15.6808 20.0687 15.345 19.733 14.9308 19.733H3.66675V18.3125C3.66675 17.0699 4.67411 16.0625 5.91675 16.0625H22.0834C23.3261 16.0625 24.3334 17.0699 24.3334 18.3125V19.733H19.8334C19.4192 19.733 19.0834 20.0687 19.0834 20.483C19.0834 20.8972 19.4192 21.233 19.8334 21.233H23.1667V22.8213C23.1667 23.2355 23.5025 23.5713 23.9167 23.5713C24.331 23.5713 24.6667 23.2355 24.6667 22.8213V21.233H25.0834C25.4976 21.233 25.8334 20.8972 25.8334 20.483V18.3125C25.8334 17.2426 25.3854 16.2774 24.6667 15.5942V11.2292C24.6667 8.47925 22.4375 6.25 19.6876 6.25H14.0001H12.94C12.5258 6.25 12.19 6.58579 12.19 7C12.19 7.41421 12.5258 7.75 12.94 7.75H14.0001H19.6876C21.6091 7.75 23.1667 9.30768 23.1667 11.2292V13.4517C22.9546 13.2848 22.687 13.1853 22.3961 13.1853C22.1944 13.1853 22.0038 13.2332 21.8352 13.3182C21.776 12.9228 21.6299 12.5557 21.417 12.2372C21.4304 12.1952 21.4376 12.1505 21.4376 12.1042C21.4376 11.8625 21.2417 11.6667 21.0001 11.6667C20.9704 11.6667 20.9415 11.6696 20.9135 11.6752C20.4503 11.2859 19.8525 11.0513 19.2 11.0513H17.6447C16.5467 11.0513 15.6038 11.7154 15.1958 12.6639C14.9273 12.5262 14.6298 12.4371 14.3149 12.4079C14.3909 12.3292 14.4376 12.2222 14.4376 12.1042C14.4376 11.8625 14.2417 11.6667 14.0001 11.6667C13.7585 11.6667 13.5626 11.8625 13.5626 12.1042C13.5626 12.2322 13.6176 12.3474 13.7053 12.4274C13.435 12.4701 13.1796 12.5573 12.9467 12.6812C12.5428 11.7235 11.5951 11.0513 10.4904 11.0513H8.93516C8.26497 11.0513 7.65256 11.2987 7.1843 11.7072C7.12831 11.6812 7.06589 11.6667 7.00008 11.6667C6.75846 11.6667 6.56258 11.8625 6.56258 12.1042C6.56258 12.1982 6.59227 12.2854 6.64278 12.3567C6.44407 12.6911 6.31645 13.0727 6.28075 13.4806C6.06332 13.2964 5.78198 13.1853 5.4747 13.1853C5.2402 13.1853 5.02082 13.25 4.83342 13.3625V11.0833C4.83342 9.24238 6.3258 7.75 8.16675 7.75H9.04175C9.45596 7.75 9.79175 7.41421 9.79175 7C9.79175 6.58579 9.45596 6.25 9.04175 6.25H8.16675ZM16.4801 13.716C16.4801 13.0728 17.0015 12.5513 17.6447 12.5513H19.2C19.8432 12.5513 20.3647 13.0728 20.3647 13.716V14.5625H16.506C16.4995 14.5029 16.4908 14.444 16.4801 14.3858V13.716ZM14.9801 14.5575V14.5625H13.1941C13.3092 14.1778 13.6658 13.8975 14.0879 13.8975C14.5081 13.8975 14.8634 14.1754 14.9801 14.5575ZM7.7705 14.5625H11.6551V13.716C11.6551 13.0728 11.1337 12.5513 10.4904 12.5513H8.93516C8.29194 12.5513 7.7705 13.0728 7.7705 13.716V14.5625ZM21.0001 9.1875C21.2417 9.1875 21.4376 8.99162 21.4376 8.75C21.4376 8.50838 21.2417 8.3125 21.0001 8.3125C20.7585 8.3125 20.5626 8.50838 20.5626 8.75C20.5626 8.99162 20.7585 9.1875 21.0001 9.1875ZM21.4376 10.5C21.4376 10.7416 21.2417 10.9375 21.0001 10.9375C20.7585 10.9375 20.5626 10.7416 20.5626 10.5C20.5626 10.2584 20.7585 10.0625 21.0001 10.0625C21.2417 10.0625 21.4376 10.2584 21.4376 10.5ZM16.7709 8.75C16.7709 8.99162 16.575 9.1875 16.3334 9.1875C16.0918 9.1875 15.8959 8.99162 15.8959 8.75C15.8959 8.50838 16.0918 8.3125 16.3334 8.3125C16.575 8.3125 16.7709 8.50838 16.7709 8.75ZM16.3334 10.9375C16.575 10.9375 16.7709 10.7416 16.7709 10.5C16.7709 10.2584 16.575 10.0625 16.3334 10.0625C16.0918 10.0625 15.8959 10.2584 15.8959 10.5C15.8959 10.7416 16.0918 10.9375 16.3334 10.9375ZM12.1042 8.75C12.1042 8.99162 11.9084 9.1875 11.6667 9.1875C11.4251 9.1875 11.2292 8.99162 11.2292 8.75C11.2292 8.50838 11.4251 8.3125 11.6667 8.3125C11.9084 8.3125 12.1042 8.50838 12.1042 8.75ZM11.6667 10.9375C11.9084 10.9375 12.1042 10.7416 12.1042 10.5C12.1042 10.2584 11.9084 10.0625 11.6667 10.0625C11.4251 10.0625 11.2292 10.2584 11.2292 10.5C11.2292 10.7416 11.4251 10.9375 11.6667 10.9375ZM7.43758 8.75C7.43758 8.99162 7.24171 9.1875 7.00008 9.1875C6.75846 9.1875 6.56258 8.99162 6.56258 8.75C6.56258 8.50838 6.75846 8.3125 7.00008 8.3125C7.24171 8.3125 7.43758 8.50838 7.43758 8.75ZM7.00008 10.9375C7.24171 10.9375 7.43758 10.7416 7.43758 10.5C7.43758 10.2584 7.24171 10.0625 7.00008 10.0625C6.75846 10.0625 6.56258 10.2584 6.56258 10.5C6.56258 10.7416 6.75846 10.9375 7.00008 10.9375ZM18.6667 9.1875C18.9084 9.1875 19.1042 8.99162 19.1042 8.75C19.1042 8.50838 18.9084 8.3125 18.6667 8.3125C18.4251 8.3125 18.2292 8.50838 18.2292 8.75C18.2292 8.99162 18.4251 9.1875 18.6667 9.1875ZM19.1042 10.5C19.1042 10.7416 18.9084 10.9375 18.6667 10.9375C18.4251 10.9375 18.2292 10.7416 18.2292 10.5C18.2292 10.2584 18.4251 10.0625 18.6667 10.0625C18.9084 10.0625 19.1042 10.2584 19.1042 10.5ZM14.0001 9.1875C14.2417 9.1875 14.4376 8.99162 14.4376 8.75C14.4376 8.50838 14.2417 8.3125 14.0001 8.3125C13.7585 8.3125 13.5626 8.50838 13.5626 8.75C13.5626 8.99162 13.7585 9.1875 14.0001 9.1875ZM14.4376 10.5C14.4376 10.7416 14.2417 10.9375 14.0001 10.9375C13.7585 10.9375 13.5626 10.7416 13.5626 10.5C13.5626 10.2584 13.7585 10.0625 14.0001 10.0625C14.2417 10.0625 14.4376 10.2584 14.4376 10.5ZM9.77092 8.75C9.77092 8.99162 9.57504 9.1875 9.33342 9.1875C9.09179 9.1875 8.89592 8.99162 8.89592 8.75C8.89592 8.50838 9.09179 8.3125 9.33342 8.3125C9.57504 8.3125 9.77092 8.50838 9.77092 8.75ZM9.33342 10.9375C9.57504 10.9375 9.77092 10.7416 9.77092 10.5C9.77092 10.2584 9.57504 10.0625 9.33342 10.0625C9.09179 10.0625 8.89592 10.2584 8.89592 10.5C8.89592 10.7416 9.09179 10.9375 9.33342 10.9375Z" fill="#332A2A"/>
</g>
<defs>
<clipPath id="clip0_1234_15369">
<rect width="28" height="28" fill="white"/>
</clipPath>
</defs>
</svg>
