<svg width="23" height="23" viewBox="0 0 23 23" fill="none" xmlns="http://www.w3.org/2000/svg">
<g clip-path="url(#clip0_1235_15663)">
<path fill-rule="evenodd" clip-rule="evenodd" d="M18.0288 13.0283L20.504 11.5594C20.5681 11.5213 20.6143 11.4592 20.6324 11.3869C20.7718 10.8293 20.795 10.249 20.7005 9.6821L20.6042 9.1041L17.3621 8.29358L15.2138 7.75651L13.6512 7.36587C13.1905 7.25068 12.7038 7.30322 12.2783 7.51406L7.90625 9.68023L2.39583 12.4104L2.37955 12.4951C2.23186 13.263 2.22207 14.0511 2.35063 14.8225C2.37828 14.9884 2.49822 15.1239 2.65952 15.1715L10.5118 17.4895L14.0123 15.412C14.3988 13.9862 15.7019 12.9374 17.25 12.9374C17.5181 12.9374 17.7789 12.9689 18.0288 13.0283Z" fill="#E05149"/>
<path fill-rule="evenodd" clip-rule="evenodd" d="M14.4993 8.22211C14.5263 8.3218 14.529 8.42959 14.5022 8.53693C14.4185 8.87181 14.0791 9.07541 13.7442 8.99169L11.7234 8.48648L9.44028 9.61768C9.54354 9.76667 9.58145 9.95913 9.52739 10.1469C9.43191 10.4786 9.0856 10.6701 8.75389 10.5746L7.96641 10.3479L6.54197 11.0537L7.09155 11.1911C7.42643 11.2748 7.63003 11.6141 7.54631 11.949C7.46259 12.2839 7.12326 12.4875 6.78838 12.4038L4.81355 11.9101L4.14952 12.2391L10.4329 13.9455L11.1977 13.5279C11.0694 13.374 11.0172 13.1613 11.0768 12.9542C11.1723 12.6225 11.5186 12.431 11.8503 12.5265L12.6239 12.7492L13.9674 12.0157L13.3714 11.8667C13.0365 11.783 12.8329 11.4436 12.9167 11.1088C13.0004 10.7739 13.3397 10.5703 13.6746 10.654L15.5861 11.1319L17.1454 10.2805C17.017 10.1266 16.9648 9.91387 17.0244 9.70682C17.1199 9.37511 17.4662 9.18361 17.7979 9.2791L18.5716 9.50181L18.9002 9.32235L17.2105 8.89992L15.0622 8.36285L14.4993 8.22211ZM20.1085 10.0868L18.9451 10.7221L15.9725 12.3451L15.9689 12.347L11.0821 15.0152C11.0179 15.4928 10.9999 15.9754 11.0284 16.4561L13.4927 14.9937C14.0369 13.4326 15.5219 12.3124 17.2686 12.3124C17.4908 12.3124 17.7088 12.3306 17.9211 12.3655L20.0441 11.1055C20.1026 10.7687 20.1241 10.4271 20.1085 10.0868ZM19.4112 12.9347L20.7874 12.118C21.0261 11.9763 21.1935 11.7399 21.248 11.4677C21.4019 10.6982 21.4019 9.90584 21.248 9.13634L21.217 8.98153C21.1697 8.74469 20.9901 8.55634 20.7557 8.49776L17.5137 7.68725L15.3654 7.15017L13.8028 6.75953C13.1981 6.60835 12.5593 6.6773 12.0008 6.95403L7.63091 9.11914L7.62695 9.12111L2.11835 11.8504C1.94336 11.9371 1.81896 12.1006 1.78208 12.2924L1.7658 12.377C1.6041 13.2178 1.59337 14.0807 1.73413 14.9252C1.80112 15.3272 2.09175 15.6556 2.48257 15.771L4.24787 16.2921C4.57892 16.3898 4.92652 16.2006 5.02424 15.8696C5.12197 15.5385 4.93282 15.1909 4.60177 15.0932L2.9492 14.6054C2.88073 14.1388 2.8679 13.6664 2.91062 13.1979L9.816 15.0732C9.76028 15.5881 9.75046 16.107 9.78669 16.6238L6.63076 15.6922C6.2997 15.5944 5.9521 15.7836 5.85438 16.1146C5.75665 16.4457 5.9458 16.7933 6.27685 16.891L10.3348 18.0889C10.5016 18.1382 10.6813 18.1157 10.8308 18.027L13.2794 16.5738C13.4151 18.6588 15.1492 20.3079 17.2686 20.3079C19.4764 20.3079 21.2663 18.5181 21.2663 16.3102C21.2663 15.965 20.9865 15.6852 20.6413 15.6852C20.2961 15.6852 20.0163 15.965 20.0163 16.3102C20.0163 17.8277 18.7861 19.0579 17.2686 19.0579C15.751 19.0579 14.5208 17.8277 14.5208 16.3102C14.5208 14.7926 15.751 13.5624 17.2686 13.5624C18.2237 13.5624 19.0654 14.0492 19.5587 14.7912C19.7498 15.0786 20.1378 15.1567 20.4252 14.9656C20.7127 14.7745 20.7907 14.3866 20.5996 14.0991C20.2898 13.6332 19.8844 13.2356 19.4112 12.9347ZM15.7777 14.8222C15.7777 14.5737 15.9792 14.3722 16.2277 14.3722H18.2721C18.5207 14.3722 18.7221 14.5737 18.7221 14.8222C18.7221 15.0708 18.5207 15.2722 18.2721 15.2722H16.2277C15.9792 15.2722 15.7777 15.0708 15.7777 14.8222ZM16.2277 15.3944C15.9792 15.3944 15.7777 15.5959 15.7777 15.8444C15.7777 16.093 15.9792 16.2944 16.2277 16.2944H18.2721C18.5207 16.2944 18.7221 16.093 18.7221 15.8444C18.7221 15.5959 18.5207 15.3944 18.2721 15.3944H16.2277ZM15.7777 16.8667C15.7777 16.6181 15.9792 16.4167 16.2277 16.4167H18.2721C18.5207 16.4167 18.7221 16.6181 18.7221 16.8667C18.7221 17.1152 18.5207 17.3167 18.2721 17.3167H16.2277C15.9792 17.3167 15.7777 17.1152 15.7777 16.8667ZM16.2277 17.4389C15.9792 17.4389 15.7777 17.6404 15.7777 17.8889C15.7777 18.1374 15.9792 18.3389 16.2277 18.3389H18.2721C18.5207 18.3389 18.7221 18.1374 18.7221 17.8889C18.7221 17.6404 18.5207 17.4389 18.2721 17.4389H16.2277Z" fill="#332A2A"/>
</g>
<defs>
<clipPath id="clip0_1235_15663">
<rect width="23" height="23" fill="white"/>
</clipPath>
</defs>
</svg>
