<svg width="24" height="23" viewBox="0 0 24 23" fill="none" xmlns="http://www.w3.org/2000/svg">
<g clip-path="url(#clip0_1235_15705)">
<path fill-rule="evenodd" clip-rule="evenodd" d="M15.2493 8.22211C15.2763 8.3218 15.279 8.42959 15.2522 8.53693C15.1685 8.87181 14.8291 9.07541 14.4942 8.99169L12.4734 8.48648L10.1903 9.61768C10.2935 9.76667 10.3315 9.95913 10.2774 10.1469C10.1819 10.4786 9.8356 10.6701 9.50389 10.5746L8.71641 10.3479L7.29197 11.0537L7.84155 11.1911C8.17643 11.2748 8.38003 11.6141 8.29631 11.949C8.21259 12.2839 7.87326 12.4875 7.53838 12.4038L5.56355 11.9101L4.89952 12.2391L11.1829 13.9455L11.9477 13.5279C11.8194 13.374 11.7672 13.1613 11.8268 12.9542C11.9223 12.6225 12.2686 12.431 12.6003 12.5265L13.3739 12.7492L14.7174 12.0157L14.1214 11.8667C13.7865 11.783 13.5829 11.4436 13.6667 11.1088C13.7504 10.7739 14.0897 10.5703 14.4246 10.654L16.3361 11.1319L17.8954 10.2805C17.767 10.1266 17.7148 9.91387 17.7744 9.70682C17.8699 9.37511 18.2162 9.18361 18.5479 9.2791L19.3216 9.50181L19.6502 9.32235L17.9605 8.89992L15.8122 8.36285L15.2493 8.22211ZM20.8585 10.0868L19.6951 10.7221L16.7225 12.3451L16.7189 12.347L11.8321 15.0152C11.7679 15.4928 11.7499 15.9754 11.7784 16.4561L14.2427 14.9937C14.7869 13.4326 16.2719 12.3124 18.0186 12.3124C18.2408 12.3124 18.4588 12.3306 18.6711 12.3655L20.7941 11.1055C20.8526 10.7687 20.8741 10.4271 20.8585 10.0868ZM20.1612 12.9347L21.5374 12.118C21.7761 11.9763 21.9435 11.7399 21.998 11.4677C22.1519 10.6982 22.1519 9.90584 21.998 9.13634L21.967 8.98153C21.9197 8.74469 21.7401 8.55634 21.5057 8.49776L18.2637 7.68725L16.1154 7.15017L14.5528 6.75953C13.9481 6.60835 13.3093 6.6773 12.7508 6.95403L8.38091 9.11914L8.37695 9.12111L2.86835 11.8504C2.69336 11.9371 2.56896 12.1006 2.53208 12.2924L2.5158 12.377C2.3541 13.2178 2.34337 14.0807 2.48413 14.9252C2.55112 15.3272 2.84175 15.6556 3.23257 15.771L4.99787 16.2921C5.32892 16.3898 5.67652 16.2006 5.77424 15.8696C5.87197 15.5385 5.68282 15.1909 5.35177 15.0932L3.6992 14.6054C3.63073 14.1388 3.6179 13.6664 3.66062 13.1979L10.566 15.0732C10.5103 15.5881 10.5005 16.107 10.5367 16.6238L7.38076 15.6922C7.0497 15.5944 6.7021 15.7836 6.60438 16.1146C6.50665 16.4457 6.6958 16.7933 7.02685 16.891L11.0848 18.0889C11.2516 18.1382 11.4313 18.1157 11.5808 18.027L14.0294 16.5738C14.1651 18.6588 15.8992 20.3079 18.0186 20.3079C20.2264 20.3079 22.0163 18.5181 22.0163 16.3102C22.0163 15.965 21.7365 15.6852 21.3913 15.6852C21.0461 15.6852 20.7663 15.965 20.7663 16.3102C20.7663 17.8277 19.5361 19.0579 18.0186 19.0579C16.501 19.0579 15.2708 17.8277 15.2708 16.3102C15.2708 14.7926 16.501 13.5624 18.0186 13.5624C18.9737 13.5624 19.8154 14.0492 20.3087 14.7912C20.4998 15.0786 20.8878 15.1567 21.1752 14.9656C21.4627 14.7745 21.5407 14.3866 21.3496 14.0991C21.0398 13.6332 20.6344 13.2356 20.1612 12.9347ZM16.5277 14.8222C16.5277 14.5737 16.7292 14.3722 16.9777 14.3722H19.0221C19.2707 14.3722 19.4721 14.5737 19.4721 14.8222C19.4721 15.0708 19.2707 15.2722 19.0221 15.2722H16.9777C16.7292 15.2722 16.5277 15.0708 16.5277 14.8222ZM16.9777 15.3944C16.7292 15.3944 16.5277 15.5959 16.5277 15.8444C16.5277 16.093 16.7292 16.2944 16.9777 16.2944H19.0221C19.2707 16.2944 19.4721 16.093 19.4721 15.8444C19.4721 15.5959 19.2707 15.3944 19.0221 15.3944H16.9777ZM16.5277 16.8667C16.5277 16.6181 16.7292 16.4167 16.9777 16.4167H19.0221C19.2707 16.4167 19.4721 16.6181 19.4721 16.8667C19.4721 17.1152 19.2707 17.3167 19.0221 17.3167H16.9777C16.7292 17.3167 16.5277 17.1152 16.5277 16.8667ZM16.9777 17.4389C16.7292 17.4389 16.5277 17.6404 16.5277 17.8889C16.5277 18.1374 16.7292 18.3389 16.9777 18.3389H19.0221C19.2707 18.3389 19.4721 18.1374 19.4721 17.8889C19.4721 17.6404 19.2707 17.4389 19.0221 17.4389H16.9777Z" fill="#252323"/>
</g>
<defs>
<clipPath id="clip0_1235_15705">
<rect width="23" height="23" fill="white" transform="translate(0.75)"/>
</clipPath>
</defs>
</svg>
