<svg width="24" height="23" viewBox="0 0 24 23" fill="none" xmlns="http://www.w3.org/2000/svg">
<g clip-path="url(#clip0_1236_15747)">
<path fill-rule="evenodd" clip-rule="evenodd" d="M18.7788 13.0283L21.254 11.5594C21.3181 11.5213 21.3643 11.4592 21.3824 11.3869C21.5218 10.8293 21.545 10.249 21.4505 9.6821L21.3542 9.1041L18.1121 8.29358L15.9638 7.75651L14.4012 7.36587C13.9405 7.25068 13.4538 7.30322 13.0283 7.51406L8.65625 9.68023L3.14583 12.4104L3.12955 12.4951C2.98186 13.263 2.97207 14.0511 3.10063 14.8225C3.12828 14.9884 3.24822 15.1239 3.40952 15.1715L11.2618 17.4895L14.7623 15.412C15.1488 13.9862 16.4519 12.9374 18 12.9374C18.2681 12.9374 18.5289 12.9689 18.7788 13.0283Z" fill="#E05149"/>
<path fill-rule="evenodd" clip-rule="evenodd" d="M15.2522 8.53693C15.279 8.42959 15.2763 8.3218 15.2493 8.22211L15.8122 8.36285L17.9605 8.89992L19.6502 9.32235L19.3216 9.50181L18.5479 9.2791C18.2162 9.18361 17.8699 9.37511 17.7744 9.70682C17.7148 9.91387 17.767 10.1266 17.8954 10.2805L13.3739 12.7492L12.6003 12.5265C12.2686 12.431 11.9223 12.6225 11.8268 12.9542C11.7672 13.1613 11.8194 13.374 11.9477 13.5279L11.1829 13.9455L4.89952 12.2391L5.56355 11.9101L7.53838 12.4038C7.87326 12.4875 8.21259 12.2839 8.29631 11.949C8.38003 11.6141 8.17643 11.2748 7.84155 11.1911L7.29197 11.0537L12.4734 8.48648L14.4942 8.99169C14.8291 9.07541 15.1685 8.87181 15.2522 8.53693ZM19.6951 10.7221L20.8585 10.0868C20.8741 10.4271 20.8526 10.7687 20.7941 11.1055L18.6711 12.3655C18.4588 12.3306 18.2408 12.3124 18.0186 12.3124C16.2719 12.3124 14.7869 13.4326 14.2427 14.9936L11.7784 16.4561C11.7499 15.9754 11.7679 15.4928 11.8321 15.0152L19.6951 10.7221ZM21.5374 12.118L20.1613 12.9347C20.6344 13.2356 21.0398 13.6332 21.3496 14.0991C21.5408 14.3866 21.4627 14.7745 21.1752 14.9656C20.8878 15.1567 20.4998 15.0787 20.3087 14.7912C19.8154 14.0493 18.9737 13.5624 18.0186 13.5624C16.501 13.5624 15.2708 14.7926 15.2708 16.3102C15.2708 17.8277 16.501 19.0579 18.0186 19.0579C19.5361 19.0579 20.7663 17.8277 20.7663 16.3102C20.7663 15.965 21.0461 15.6852 21.3913 15.6852C21.7365 15.6852 22.0163 15.965 22.0163 16.3102C22.0163 18.5181 20.2265 20.3079 18.0186 20.3079C15.8993 20.3079 14.1651 18.6588 14.0294 16.5738L11.5808 18.027C11.4313 18.1157 11.2516 18.1382 11.0848 18.0889L7.02685 16.891C6.6958 16.7933 6.50665 16.4457 6.60438 16.1146C6.7021 15.7836 7.0497 15.5944 7.38076 15.6922L10.5367 16.6238C10.5005 16.107 10.5103 15.5881 10.566 15.0732L3.66062 13.1979C3.6179 13.6664 3.63073 14.1388 3.6992 14.6054L5.35177 15.0932C5.68282 15.1909 5.87197 15.5385 5.77424 15.8696C5.67652 16.2006 5.32892 16.3898 4.99787 16.2921L3.23257 15.771C2.84175 15.6556 2.55112 15.3272 2.48413 14.9252C2.34337 14.0807 2.3541 13.2178 2.5158 12.377L2.53208 12.2924C2.56896 12.1006 2.69336 11.9371 2.86835 11.8504L12.7508 6.95403C13.3093 6.6773 13.9481 6.60835 14.5528 6.75953L16.1154 7.15017L18.2637 7.68725L21.5057 8.49776C21.7401 8.55634 21.9197 8.74469 21.967 8.98153L21.998 9.13634C22.1519 9.90584 22.1519 10.6982 21.998 11.4677C21.9435 11.7399 21.7761 11.9763 21.5374 12.118ZM16.5624 14.3382C16.2863 14.3382 16.0624 14.5621 16.0624 14.8382C16.0624 15.1143 16.2863 15.3382 16.5624 15.3382H19.4374C19.7136 15.3382 19.9374 15.1143 19.9374 14.8382C19.9374 14.5621 19.7136 14.3382 19.4374 14.3382H16.5624ZM16.0625 16.2916C16.0625 16.0155 16.2864 15.7916 16.5625 15.7916H19.4375C19.7136 15.7916 19.9375 16.0155 19.9375 16.2916C19.9375 16.5677 19.7136 16.7916 19.4375 16.7916H16.5625C16.2864 16.7916 16.0625 16.5677 16.0625 16.2916ZM16.5624 17.2451C16.2863 17.2451 16.0624 17.469 16.0624 17.7451C16.0624 18.0213 16.2863 18.2451 16.5624 18.2451H19.4374C19.7136 18.2451 19.9374 18.0213 19.9374 17.7451C19.9374 17.469 19.7136 17.2451 19.4374 17.2451H16.5624Z" fill="#252323"/>
</g>
<defs>
<clipPath id="clip0_1236_15747">
<rect width="23" height="23" fill="white" transform="translate(0.75)"/>
</clipPath>
</defs>
</svg>
