<svg width="23" height="23" viewBox="0 0 23 23" fill="none" xmlns="http://www.w3.org/2000/svg">
<g clip-path="url(#clip0_1234_15463)">
<path d="M7.47681 5.125C7.84945 5.12518 8.15161 5.42712 8.15161 5.7998C8.15161 6.17249 7.84945 6.47443 7.47681 6.47461H6.75806C5.27854 6.47479 4.07837 7.67474 4.07837 9.1543V10.7656C4.2477 10.6724 4.44267 10.6192 4.64966 10.6191C4.78153 10.6192 4.90809 10.6419 5.02661 10.6816C5.12896 10.4307 5.26912 10.1995 5.44067 9.99512V9.99219C5.44085 9.79386 5.60168 9.63281 5.80005 9.63281C5.80398 9.63282 5.80787 9.63366 5.81177 9.63379C6.25439 9.28074 6.81491 9.06934 7.42505 9.06934H8.0188C9.00854 9.06958 9.86743 9.62518 10.303 10.4414C10.5824 10.2831 10.9022 10.1894 11.2434 10.1777C11.2105 10.1235 11.1907 10.0603 11.1907 9.99219C11.1908 9.79386 11.3517 9.63281 11.55 9.63281C11.7483 9.63299 11.9092 9.79397 11.9094 9.99219C11.9094 10.0873 11.8711 10.173 11.8108 10.2373C12.0609 10.2993 12.2927 10.4058 12.4973 10.5498C12.913 9.67484 13.8031 9.06934 14.8362 9.06934H15.4299C16.0705 9.0695 16.6557 9.30294 17.1077 9.68848C17.1632 9.65332 17.2295 9.63281 17.3 9.63281C17.4983 9.63299 17.6592 9.79397 17.6594 9.99219C17.6594 10.077 17.6285 10.1543 17.5793 10.2158C17.6764 10.3603 17.7577 10.5156 17.8245 10.6787C17.9407 10.6406 18.0647 10.6192 18.1936 10.6191C18.5149 10.6191 18.8061 10.7477 19.0198 10.9551V9.27344C19.0196 7.72777 17.7667 6.47461 16.2209 6.47461H10.679C10.3063 6.47443 10.0032 6.17249 10.0032 5.7998C10.0032 5.42712 10.3063 5.12518 10.679 5.125H16.2209C18.5122 5.125 20.3702 6.98218 20.3704 9.27344V13.1318C20.3704 13.1381 20.3686 13.1442 20.3684 13.1504C20.9653 13.8037 21.3293 14.6733 21.3293 15.6279V16.875C21.3293 17.2478 21.0264 17.5498 20.6536 17.5498H20.3704V18.7959C20.3702 19.1684 20.0681 19.4705 19.6956 19.4707C19.323 19.4705 19.02 19.1684 19.0198 18.7959V17.5498H16.3411C15.9684 17.5496 15.6663 17.2477 15.6663 16.875C15.6663 16.5024 15.9685 16.2004 16.3411 16.2002H19.9788V15.6279C19.9788 14.3439 18.9376 13.3027 17.6536 13.3027H5.44556C4.16149 13.3027 3.12036 14.3439 3.12036 15.6279V16.2002H12.3147C12.6872 16.2004 12.9895 16.5024 12.9895 16.875C12.9895 17.2476 12.6873 17.5496 12.3147 17.5498H4.07837V18.7959C4.07819 19.1685 3.77625 19.4707 3.40356 19.4707C3.03103 19.4705 2.72894 19.1684 2.72876 18.7959V17.5498H2.44556C2.07276 17.5498 1.77075 17.2478 1.77075 16.875V15.6279C1.77075 14.6737 2.13447 13.8046 2.73071 13.1514C2.73053 13.1449 2.72876 13.1384 2.72876 13.1318V9.1543C2.72876 6.92916 4.53296 5.12518 6.75806 5.125H7.47681ZM7.42505 10.4189C6.7404 10.4189 6.18481 10.9745 6.18481 11.6592V11.9531H9.25806V11.6592C9.25806 10.9748 8.70314 10.4193 8.0188 10.4189H7.42505ZM11.3147 11.5244C11.0233 11.5246 10.7735 11.7012 10.6653 11.9531H11.9651C11.8567 11.7011 11.6063 11.5244 11.3147 11.5244ZM14.8362 10.4189C14.1515 10.4189 13.5959 10.9745 13.5959 11.6592V11.9531H16.6692V11.6592C16.6692 10.9748 16.1143 10.4193 15.4299 10.4189H14.8362ZM5.80005 8.31543C5.99838 8.31561 6.15942 8.47644 6.15942 8.6748C6.15942 8.87317 5.99838 9.034 5.80005 9.03418C5.60157 9.03418 5.44067 8.87328 5.44067 8.6748C5.44067 8.47633 5.60157 8.31543 5.80005 8.31543ZM7.71606 8.31543C7.91454 8.31543 8.07544 8.47633 8.07544 8.6748C8.07544 8.87328 7.91454 9.03418 7.71606 9.03418C7.51774 9.034 7.35669 8.87317 7.35669 8.6748C7.35669 8.47644 7.51774 8.31561 7.71606 8.31543ZM9.63306 8.31543C9.83153 8.31543 9.99243 8.47633 9.99243 8.6748C9.99243 8.87328 9.83153 9.03418 9.63306 9.03418C9.43458 9.03418 9.27368 8.87328 9.27368 8.6748C9.27368 8.47633 9.43458 8.31543 9.63306 8.31543ZM11.55 8.31543C11.7484 8.3156 11.9094 8.47644 11.9094 8.6748C11.9094 8.87317 11.7484 9.034 11.55 9.03418C11.3516 9.03418 11.1907 8.87328 11.1907 8.6748C11.1907 8.47633 11.3516 8.31543 11.55 8.31543ZM13.4661 8.31543C13.6645 8.31543 13.8254 8.47633 13.8254 8.6748C13.8254 8.87328 13.6645 9.03418 13.4661 9.03418C13.2677 9.034 13.1067 8.87317 13.1067 8.6748C13.1067 8.47644 13.2677 8.31561 13.4661 8.31543ZM15.3831 8.31543C15.5815 8.31543 15.7424 8.47633 15.7424 8.6748C15.7424 8.87328 15.5815 9.03418 15.3831 9.03418C15.1846 9.03418 15.0237 8.87328 15.0237 8.6748C15.0237 8.47633 15.1846 8.31543 15.3831 8.31543ZM17.3 8.31543C17.4984 8.31561 17.6594 8.47644 17.6594 8.6748C17.6594 8.87317 17.4984 9.034 17.3 9.03418C17.1016 9.03418 16.9407 8.87328 16.9407 8.6748C16.9407 8.47633 17.1016 8.31543 17.3 8.31543ZM5.80005 6.87793C5.99838 6.87811 6.15942 7.03894 6.15942 7.2373C6.15942 7.43567 5.99838 7.5965 5.80005 7.59668C5.60157 7.59668 5.44067 7.43578 5.44067 7.2373C5.44067 7.03883 5.60157 6.87793 5.80005 6.87793ZM7.71606 6.87793C7.91454 6.87793 8.07544 7.03883 8.07544 7.2373C8.07544 7.43578 7.91454 7.59668 7.71606 7.59668C7.51774 7.5965 7.35669 7.43567 7.35669 7.2373C7.35669 7.03894 7.51774 6.87811 7.71606 6.87793ZM9.63306 6.87793C9.83153 6.87793 9.99243 7.03883 9.99243 7.2373C9.99243 7.43578 9.83153 7.59668 9.63306 7.59668C9.43458 7.59668 9.27368 7.43578 9.27368 7.2373C9.27368 7.03883 9.43458 6.87793 9.63306 6.87793ZM11.55 6.87793C11.7484 6.8781 11.9094 7.03894 11.9094 7.2373C11.9094 7.43567 11.7484 7.5965 11.55 7.59668C11.3516 7.59668 11.1907 7.43578 11.1907 7.2373C11.1907 7.03883 11.3516 6.87793 11.55 6.87793ZM13.4661 6.87793C13.6645 6.87793 13.8254 7.03883 13.8254 7.2373C13.8254 7.43578 13.6645 7.59668 13.4661 7.59668C13.2677 7.5965 13.1067 7.43567 13.1067 7.2373C13.1067 7.03894 13.2677 6.87811 13.4661 6.87793ZM15.3831 6.87793C15.5815 6.87793 15.7424 7.03883 15.7424 7.2373C15.7424 7.43578 15.5815 7.59668 15.3831 7.59668C15.1846 7.59668 15.0237 7.43578 15.0237 7.2373C15.0237 7.03883 15.1846 6.87793 15.3831 6.87793ZM17.3 6.87793C17.4984 6.87811 17.6594 7.03894 17.6594 7.2373C17.6594 7.43567 17.4984 7.5965 17.3 7.59668C17.1016 7.59668 16.9407 7.43578 16.9407 7.2373C16.9407 7.03883 17.1016 6.87793 17.3 6.87793Z" fill="#332A2A"/>
</g>
<defs>
<clipPath id="clip0_1234_15463">
<rect width="23" height="23" fill="white"/>
</clipPath>
</defs>
</svg>
