<svg width="44" height="44" viewBox="0 0 44 44" fill="none" xmlns="http://www.w3.org/2000/svg">
<g clip-path="url(#clip0_1235_15703)">
<path fill-rule="evenodd" clip-rule="evenodd" d="M24.4511 12.4918L26.7653 13.0703C27.1671 13.1708 27.4115 13.578 27.311 13.9798C27.2105 14.3817 26.8033 14.626 26.4015 14.5256L22.3765 13.5193L17.1899 16.0891L17.2849 16.1164C17.6829 16.231 17.9127 16.6466 17.7981 17.0446C17.6835 17.4427 17.268 17.6724 16.8699 17.5579L15.1973 17.0764L11.2317 19.0411L13.4584 19.5978C13.8603 19.6983 14.1046 20.1055 14.0041 20.5073C13.9037 20.9091 13.4965 21.1535 13.0946 21.053L9.15765 20.0688L6.68783 21.2925L20.015 24.9118L22.331 23.6472L22.1319 23.5899C21.7339 23.4753 21.5041 23.0597 21.6187 22.6617C21.7332 22.2636 22.1488 22.0338 22.5469 22.1484L24.2029 22.6251L27.9352 20.5873L25.6883 20.0256C25.2864 19.9251 25.0421 19.5179 25.1426 19.116C25.243 18.7142 25.6502 18.4699 26.0521 18.5703L29.8777 19.5267L33.7091 17.4348L33.51 17.3775C33.112 17.2629 32.8822 16.8473 32.9968 16.4493C33.1114 16.0512 33.5269 15.8214 33.925 15.936L35.581 16.4127L37.372 15.4348L33.0326 14.35L28.9228 13.3226L25.2819 12.4123C25.0038 12.3428 24.7105 12.371 24.4511 12.4918ZM38.8555 16.3339L36.0293 17.877L30.3411 20.9827L30.3373 20.9848L20.7909 26.1971C20.6026 27.4507 20.5766 28.7235 20.7135 29.9841L26.182 26.7387C27.1178 23.8472 29.8325 21.7563 33.0356 21.7563C33.4913 21.7563 33.9372 21.7986 34.3694 21.8796L38.7467 19.2818C38.9378 18.3095 38.974 17.3147 38.8555 16.3339ZM36.2464 22.51L39.5398 20.5554C39.8879 20.3488 40.132 20.0042 40.2114 19.6072C40.4943 18.1928 40.4943 16.7364 40.2114 15.322L40.1522 15.0259C40.0953 14.7417 39.8798 14.5156 39.5986 14.4453L33.3964 12.8948L29.2866 11.8673L25.6457 10.9571C25.0122 10.7987 24.343 10.871 23.7579 11.1609L14.7946 15.6019L14.79 15.6041L4.25043 20.8261C4.04044 20.9301 3.89116 21.1263 3.8469 21.3565L3.81576 21.5184C3.5164 23.0749 3.49655 24.6723 3.75713 26.2358C3.85724 26.8364 4.29152 27.3271 4.87551 27.4995L8.2526 28.4964C8.64986 28.6137 9.06698 28.3867 9.18425 27.9895C9.30153 27.5922 9.07455 27.1751 8.67728 27.0578L5.3002 26.0609C5.26705 26.0511 5.2424 26.0232 5.23672 25.9892C5.04082 24.8137 5.02347 23.6167 5.18418 22.4384L19.2668 26.2629C19.0959 27.5588 19.0817 28.8712 19.2251 30.1715L12.5588 28.2036C12.1616 28.0864 11.7444 28.3133 11.6272 28.7106C11.5099 29.1079 11.7369 29.525 12.1341 29.6423L19.8972 31.9339C20.0973 31.993 20.3129 31.9661 20.4923 31.8596L25.8384 28.6868C25.8351 28.777 25.8334 28.8675 25.8334 28.9585C25.8334 32.9361 29.0579 36.1606 33.0356 36.1606C37.0132 36.1606 40.2378 32.9361 40.2378 28.9585C40.2378 28.5442 39.902 28.2085 39.4878 28.2085C39.0735 28.2085 38.7378 28.5442 38.7378 28.9585C38.7378 32.1077 36.1848 34.6606 33.0356 34.6606C29.8863 34.6606 27.3334 32.1077 27.3334 28.9585C27.3334 25.8092 29.8863 23.2563 33.0356 23.2563C35.0182 23.2563 36.765 24.2675 37.7878 25.8059C38.0172 26.1508 38.4827 26.2445 38.8276 26.0152C39.1726 25.7858 39.2663 25.3203 39.0369 24.9754C38.3415 23.9294 37.3789 23.075 36.2464 22.51ZM29.5 25.4854C29.5 25.0712 29.8358 24.7354 30.25 24.7354H35.75C36.1643 24.7354 36.5 25.0712 36.5 25.4854C36.5 25.8997 36.1643 26.2354 35.75 26.2354H30.25C29.8358 26.2354 29.5 25.8997 29.5 25.4854ZM30.25 27.0271C29.8358 27.0271 29.5 27.3629 29.5 27.7771C29.5 28.1913 29.8358 28.5271 30.25 28.5271H35.75C36.1643 28.5271 36.5 28.1913 36.5 27.7771C36.5 27.3629 36.1643 27.0271 35.75 27.0271H30.25ZM29.5 30.0688C29.5 29.6546 29.8358 29.3188 30.25 29.3188H35.75C36.1643 29.3188 36.5 29.6546 36.5 30.0688C36.5 30.483 36.1643 30.8188 35.75 30.8188H30.25C29.8358 30.8188 29.5 30.483 29.5 30.0688ZM30.25 31.6104C29.8358 31.6104 29.5 31.9462 29.5 32.3604C29.5 32.7747 29.8358 33.1104 30.25 33.1104H35.75C36.1643 33.1104 36.5 32.7747 36.5 32.3604C36.5 31.9462 36.1643 31.6104 35.75 31.6104H30.25Z" fill="#332A2A"/>
</g>
<defs>
<clipPath id="clip0_1235_15703">
<rect width="44" height="44" fill="white"/>
</clipPath>
</defs>
</svg>
