<svg width="44" height="44" viewBox="0 0 44 44" fill="none" xmlns="http://www.w3.org/2000/svg">
<g clip-path="url(#clip0_1234_15215)">
<path fill-rule="evenodd" clip-rule="evenodd" d="M9.37392 19.646C9.37392 18.1272 10.6051 16.896 12.1239 16.896H16.0858C16.5 16.896 16.8358 17.2318 16.8358 17.646C16.8358 18.0602 16.5 18.396 16.0858 18.396H12.1239C11.4336 18.396 10.8739 18.9556 10.8739 19.646V25.1946C11.071 25.1626 11.2732 25.146 11.4792 25.146H12.6632V23.2273C12.6632 21.7557 13.8562 20.5627 15.3279 20.5627H19.7218C20.7208 20.5627 21.5914 21.1124 22.0476 21.926C22.5038 21.1124 23.3744 20.5627 24.3734 20.5627H28.7673C30.239 20.5627 31.432 21.7557 31.432 23.2273V25.146H32.6159C32.822 25.146 33.0242 25.1626 33.2213 25.1946V24.0627C33.2213 23.6484 33.5571 23.3127 33.9713 23.3127C34.3855 23.3127 34.7213 23.6484 34.7213 24.0627V25.7923C35.7139 26.467 36.3659 27.6054 36.3659 28.896V33.2293C36.3659 33.6435 36.0301 33.9793 35.6159 33.9793H34.7213V35.9793C34.7213 36.3935 34.3855 36.7293 33.9713 36.7293C33.5571 36.7293 33.2213 36.3935 33.2213 35.9793V33.9793H29.1888C28.7746 33.9793 28.4388 33.6435 28.4388 33.2293C28.4388 32.8151 28.7746 32.4793 29.1888 32.4793H34.8659V28.896C34.8659 27.6534 33.8585 26.646 32.6159 26.646H11.4792C10.2366 26.646 9.22925 27.6534 9.22925 28.896V32.4793H24.9041C25.3183 32.4793 25.6541 32.8151 25.6541 33.2293C25.6541 33.6435 25.3183 33.9793 24.9041 33.9793H10.8739V35.9793C10.8739 36.3935 10.5381 36.7293 10.1239 36.7293C9.70971 36.7293 9.37392 36.3935 9.37392 35.9793V33.9793H8.47925C8.06503 33.9793 7.72925 33.6435 7.72925 33.2293V28.896C7.72925 27.6053 8.38128 26.467 9.37392 25.7923V19.646ZM18.3167 17.646C18.3167 17.2318 18.6525 16.896 19.0667 16.896H31.9713C33.4901 16.896 34.7213 18.1272 34.7213 19.646V21.9183C34.7213 22.3325 34.3855 22.6683 33.9713 22.6683C33.5571 22.6683 33.2213 22.3325 33.2213 21.9183V19.646C33.2213 18.9556 32.6616 18.396 31.9713 18.396H19.0667C18.6525 18.396 18.3167 18.0602 18.3167 17.646ZM24.3734 22.0627C23.7302 22.0627 23.2088 22.5841 23.2088 23.2273V25.146H29.932V23.2273C29.932 22.5841 29.4105 22.0627 28.7673 22.0627H24.3734ZM20.8864 25.146V23.2273C20.8864 22.5841 20.365 22.0627 19.7218 22.0627H15.3279C14.6847 22.0627 14.1632 22.5841 14.1632 23.2273V25.146H20.8864Z" fill="#252323"/>
</g>
<defs>
<clipPath id="clip0_1234_15215">
<rect width="44" height="44" fill="white"/>
</clipPath>
</defs>
</svg>
