<svg width="28" height="28" viewBox="0 0 28 28" fill="none" xmlns="http://www.w3.org/2000/svg">
<g clip-path="url(#clip0_1234_15309)">
<path fill-rule="evenodd" clip-rule="evenodd" d="M4.49992 10.75C4.49992 9.23122 5.73114 8 7.24992 8H8.95829C9.3725 8 9.70829 8.33579 9.70829 8.75C9.70829 9.16421 9.3725 9.5 8.95829 9.5H7.24992C6.55956 9.5 5.99992 10.0596 5.99992 10.75V12.2898C6.45456 11.4709 7.32818 10.9167 8.33125 10.9167H9.19947C9.02328 10.8601 8.89575 10.695 8.89575 10.5C8.89575 10.2584 9.09163 10.0625 9.33325 10.0625C9.57488 10.0625 9.77075 10.2584 9.77075 10.5C9.77075 10.695 9.64323 10.8601 9.46704 10.9167H10.3353C11.4265 10.9167 12.3646 11.5727 12.7766 12.5119C13.0138 12.3686 13.2796 12.2679 13.5634 12.2206C13.5785 11.9927 13.7682 11.8125 13.9999 11.8125C14.2403 11.8125 14.4354 12.0064 14.4374 12.2463C14.7129 12.3093 14.9691 12.4231 15.1956 12.5772C15.5921 11.6033 16.5482 10.9167 17.6646 10.9167H18.5328C18.3566 10.8601 18.2291 10.695 18.2291 10.5C18.2291 10.2584 18.425 10.0625 18.6666 10.0625C18.9082 10.0625 19.1041 10.2584 19.1041 10.5C19.1041 10.695 18.9766 10.8601 18.8004 10.9167H19.6686C20.6717 10.9167 21.5453 11.4709 21.9999 12.2898V12.0729V10.75C21.9999 10.0596 21.4403 9.5 20.7499 9.5H11.9444C11.5302 9.5 11.1944 9.16421 11.1944 8.75C11.1944 8.33579 11.5302 8 11.9444 8H20.7499C22.2687 8 23.4999 9.23122 23.4999 10.75V12.0729V13.7344V15.1667C23.4999 15.252 23.4857 15.334 23.4594 15.4105C24.2017 16.0956 24.6666 17.0768 24.6666 18.1667V20.4167C24.6666 20.8309 24.3308 21.1667 23.9166 21.1667H23.4999V22.75C23.4999 23.1642 23.1641 23.5 22.7499 23.5C22.3357 23.5 21.9999 23.1642 21.9999 22.75V21.1667H19.2192C18.805 21.1667 18.4692 20.8309 18.4692 20.4167C18.4692 20.0025 18.805 19.6667 19.2192 19.6667H22.7499H23.1666V18.1667C23.1666 16.924 22.1592 15.9167 20.9166 15.9167H7.08326C5.84061 15.9167 4.83325 16.924 4.83325 18.1667V19.6667H5.24992H16.0876C16.5019 19.6667 16.8376 20.0025 16.8376 20.4167C16.8376 20.8309 16.5019 21.1667 16.0876 21.1667H5.99992V22.75C5.99992 23.1642 5.66413 23.5 5.24992 23.5C4.83571 23.5 4.49992 23.1642 4.49992 22.75V21.1667H4.08325C3.66904 21.1667 3.33325 20.8309 3.33325 20.4167V18.1667C3.33325 17.0769 3.79814 16.0956 4.54043 15.4105C4.51417 15.334 4.49992 15.252 4.49992 15.1667V10.75ZM17.6646 12.4167C17.0214 12.4167 16.4999 12.9381 16.4999 13.5813V14.4167H20.8333V13.5813C20.8333 12.9381 20.3118 12.4167 19.6686 12.4167H17.6646ZM7.16658 13.5813V14.4167H11.4999V13.5813C11.4999 12.9381 10.9785 12.4167 10.3353 12.4167H8.33125C7.68802 12.4167 7.16658 12.9381 7.16658 13.5813ZM13.1923 14.4167C13.201 14.0138 13.5303 13.6899 13.9352 13.6899C14.3402 13.6899 14.6694 14.0138 14.6781 14.4167H13.1923ZM21.4374 10.5C21.4374 10.7416 21.2415 10.9375 20.9999 10.9375C20.7583 10.9375 20.5624 10.7416 20.5624 10.5C20.5624 10.2584 20.7583 10.0625 20.9999 10.0625C21.2415 10.0625 21.4374 10.2584 21.4374 10.5ZM16.3333 10.9375C16.5749 10.9375 16.7708 10.7416 16.7708 10.5C16.7708 10.2584 16.5749 10.0625 16.3333 10.0625C16.0916 10.0625 15.8958 10.2584 15.8958 10.5C15.8958 10.7416 16.0916 10.9375 16.3333 10.9375ZM12.1041 10.5C12.1041 10.7416 11.9082 10.9375 11.6666 10.9375C11.425 10.9375 11.2291 10.7416 11.2291 10.5C11.2291 10.2584 11.425 10.0625 11.6666 10.0625C11.9082 10.0625 12.1041 10.2584 12.1041 10.5ZM6.99992 10.9375C7.24154 10.9375 7.43742 10.7416 7.43742 10.5C7.43742 10.2584 7.24154 10.0625 6.99992 10.0625C6.75829 10.0625 6.56242 10.2584 6.56242 10.5C6.56242 10.7416 6.75829 10.9375 6.99992 10.9375ZM13.9999 10.9375C14.2415 10.9375 14.4374 10.7416 14.4374 10.5C14.4374 10.2584 14.2415 10.0625 13.9999 10.0625C13.7583 10.0625 13.5624 10.2584 13.5624 10.5C13.5624 10.7416 13.7583 10.9375 13.9999 10.9375Z" fill="#332A2A"/>
</g>
<defs>
<clipPath id="clip0_1234_15309">
<rect width="28" height="28" fill="white"/>
</clipPath>
</defs>
</svg>
