<svg width="28" height="28" viewBox="0 0 28 28" fill="none" xmlns="http://www.w3.org/2000/svg">
<g clip-path="url(#clip0_1234_15123)">
<path fill-rule="evenodd" clip-rule="evenodd" d="M7.70825 13.6665C7.70825 12.1477 8.93947 10.9165 10.4583 10.9165H10.9491C11.3633 10.9165 11.6991 11.2523 11.6991 11.6665C11.6991 12.0807 11.3633 12.4165 10.9491 12.4165H10.4583C9.7679 12.4165 9.20825 12.9761 9.20825 13.6665V15.6162C9.37182 15.5944 9.53872 15.5832 9.70825 15.5832H10.3333V14.9165C10.3333 13.6739 11.3406 12.6665 12.5833 12.6665H15.4166C16.6592 12.6665 17.6666 13.6739 17.6666 14.9165V15.5832H18.2916C18.4829 15.5832 18.6708 15.5975 18.8543 15.6251C18.9702 15.3607 19.2343 15.1759 19.5416 15.1759C19.9558 15.1759 20.2916 15.5117 20.2916 15.9259V16.1605C21.3432 16.8247 22.0416 17.9974 22.0416 19.3332V20.9998C22.0416 21.4141 21.7058 21.7498 21.2916 21.7498H21.1666V22.8957C21.1666 23.3099 20.8308 23.6457 20.4166 23.6457C20.0024 23.6457 19.6666 23.3099 19.6666 22.8957V21.7498H17.8376C17.4234 21.7498 17.0876 21.4141 17.0876 20.9998C17.0876 20.5856 17.4234 20.2498 17.8376 20.2498H20.5416V19.3332C20.5416 18.0905 19.5342 17.0832 18.2916 17.0832H9.70825C8.46561 17.0832 7.45825 18.0905 7.45825 19.3332V20.2498H15.535C15.9492 20.2498 16.285 20.5856 16.285 20.9998C16.285 21.4141 15.9492 21.7498 15.535 21.7498H8.33325V22.8957C8.33325 23.3099 7.99747 23.6457 7.58325 23.6457C7.16904 23.6457 6.83325 23.3099 6.83325 22.8957V21.7498H6.70825C6.29404 21.7498 5.95825 21.4141 5.95825 20.9998V19.3332C5.95825 17.9974 6.65667 16.8247 7.70825 16.1605V13.6665ZM12.6876 11.6665C12.6876 11.2523 13.0234 10.9165 13.4376 10.9165H17.5416C19.0604 10.9165 20.2916 12.1477 20.2916 13.6665V13.7286C20.2916 14.1428 19.9558 14.4786 19.5416 14.4786C19.1274 14.4786 18.7916 14.1428 18.7916 13.7286V13.6665C18.7916 12.9761 18.2319 12.4165 17.5416 12.4165H13.4376C13.0234 12.4165 12.6876 12.0807 12.6876 11.6665ZM11.8333 14.9165C11.8333 14.5023 12.169 14.1665 12.5833 14.1665H15.4166C15.8308 14.1665 16.1666 14.5023 16.1666 14.9165V15.5832H11.8333V14.9165Z" fill="#332A2A"/>
</g>
<defs>
<clipPath id="clip0_1234_15123">
<rect width="28" height="28" fill="white"/>
</clipPath>
</defs>
</svg>
