<svg width="44" height="44" viewBox="0 0 44 44" fill="none" xmlns="http://www.w3.org/2000/svg">
<g clip-path="url(#clip0_1236_15937)">
<path fill-rule="evenodd" clip-rule="evenodd" d="M25.2065 12.4123C24.9185 12.3403 24.6143 12.3732 24.3484 12.5049L23.6808 12.8357C24.2538 13.1484 24.9269 13.2576 25.5859 13.1258L25.9025 13.0625C26.3087 12.9813 26.7038 13.2447 26.7851 13.6509C26.8663 14.057 26.6029 14.4521 26.1967 14.5334L25.88 14.5967C24.5429 14.8642 23.1674 14.4837 22.1611 13.5886L10.1876 19.5211C10.7569 20.0603 11.5916 20.2666 12.3717 20.0104L12.5239 19.9604C12.9175 19.8311 13.3413 20.0454 13.4705 20.4389C13.5998 20.8325 13.3855 21.2563 12.992 21.3855L12.8397 21.4355C11.3464 21.9259 9.73463 21.4115 8.79298 20.2121L6.61239 21.2925L19.9395 24.9118L21.4038 24.1122C21.0555 24.0143 20.715 23.8838 20.3869 23.7211L20.2164 23.6365C19.8453 23.4525 19.6937 23.0025 19.8777 22.6314C20.0617 22.2603 20.5117 22.1087 20.8828 22.2927L21.0533 22.3772C21.9498 22.8218 22.971 22.9438 23.9454 22.7246L27.4548 20.8084L32.9779 17.7928C32.5941 17.6229 32.24 17.3824 31.936 17.0783C31.6431 16.7854 31.6431 16.3105 31.936 16.0176C32.2289 15.7247 32.7037 15.7247 32.9966 16.0176C33.4149 16.4359 34.0006 16.6413 34.5885 16.576L35.3647 16.4897L37.2966 15.4348L32.9572 14.35L28.8474 13.3226L25.2065 12.4123ZM38.78 16.3339L35.9538 17.877L28.1737 22.125L24.5906 24.0813L24.5792 24.0877L24.5695 24.093L24.5616 24.0971L20.7155 26.1971C20.5272 27.4507 20.5011 28.7235 20.6381 29.9841L26.1066 26.7386C27.0424 23.8472 29.7571 21.7563 32.9602 21.7563C33.4159 21.7563 33.8618 21.7986 34.294 21.8796L38.6713 19.2818C38.8623 18.3095 38.8986 17.3147 38.78 16.3339ZM36.1709 22.51L39.4643 20.5554C39.8125 20.3488 40.0566 20.0042 40.136 19.6072C40.4188 18.1928 40.4188 16.7364 40.136 15.322L40.0767 15.0259C40.0199 14.7417 39.8044 14.5156 39.5232 14.4453L33.321 12.8948L29.2112 11.8673L25.5703 10.9571C24.9368 10.7987 24.2676 10.871 23.6824 11.1609L4.17499 20.8261C3.965 20.9301 3.81572 21.1263 3.77146 21.3565L3.74032 21.5184C3.44097 23.0749 3.42111 24.6723 3.68169 26.2358C3.7818 26.8364 4.21608 27.3271 4.80008 27.4995L8.17716 28.4964C8.57443 28.6137 8.99154 28.3867 9.10881 27.9895C9.22609 27.5922 8.99911 27.1751 8.60184 27.0578L5.22476 26.0609C5.19161 26.0511 5.16697 26.0232 5.16128 25.9892C4.96538 24.8137 4.94803 23.6167 5.10874 22.4384L19.1914 26.2629C19.0205 27.5588 19.0063 28.8712 19.1496 30.1715L12.4834 28.2036C12.0861 28.0864 11.669 28.3133 11.5517 28.7106C11.4345 29.1079 11.6614 29.525 12.0587 29.6423L19.8218 31.9339C20.0219 31.993 20.2375 31.9661 20.4169 31.8596L25.763 28.6868C25.7597 28.7769 25.758 28.8675 25.758 28.9585C25.758 32.9361 28.9825 36.1607 32.9602 36.1607C36.9378 36.1607 40.1624 32.9361 40.1624 28.9585C40.1624 28.5443 39.8266 28.2085 39.4124 28.2085C38.9981 28.2085 38.6624 28.5443 38.6624 28.9585C38.6624 32.1077 36.1094 34.6607 32.9602 34.6607C29.8109 34.6607 27.258 32.1077 27.258 28.9585C27.258 25.8092 29.8109 23.2563 32.9602 23.2563C34.9428 23.2563 36.6896 24.2675 37.7124 25.8059C37.9418 26.1508 38.4073 26.2445 38.7522 26.0152C39.0972 25.7858 39.1909 25.3203 38.9615 24.9754C38.266 23.9294 37.3035 23.075 36.1709 22.51ZM28.508 26.7459C28.508 26.3317 28.8438 25.9959 29.258 25.9959C30.0438 25.9959 30.7975 26.308 31.3532 26.8637L31.5104 27.021C32.2915 27.802 33.5578 27.802 34.3389 27.021L34.4961 26.8637C35.0518 26.308 35.8055 25.9959 36.5913 25.9959C37.0055 25.9959 37.3413 26.3317 37.3413 26.7459C37.3413 27.1601 37.0055 27.4959 36.5913 27.4959C36.2033 27.4959 35.8312 27.65 35.5568 27.9244L35.3995 28.0817C34.0327 29.4485 31.8166 29.4485 30.4498 28.0817L30.2925 27.9244C30.0181 27.65 29.646 27.4959 29.258 27.4959C28.8438 27.4959 28.508 27.1601 28.508 26.7459ZM29.258 29.6625C28.8438 29.6625 28.508 29.9983 28.508 30.4125C28.508 30.8267 28.8438 31.1625 29.258 31.1625C29.646 31.1625 30.0181 31.3167 30.2925 31.591L30.4498 31.7483C31.8166 33.1152 34.0327 33.1152 35.3995 31.7483L35.5568 31.591C35.8312 31.3167 36.2033 31.1625 36.5913 31.1625C37.0055 31.1625 37.3413 30.8267 37.3413 30.4125C37.3413 29.9983 37.0055 29.6625 36.5913 29.6625C35.8055 29.6625 35.0518 29.9747 34.4961 30.5304L34.3389 30.6877C33.5578 31.4687 32.2915 31.4687 31.5104 30.6877L31.3532 30.5304C30.7975 29.9747 30.0438 29.6625 29.258 29.6625Z" fill="#332A2A"/>
</g>
<defs>
<clipPath id="clip0_1236_15937">
<rect width="44" height="44" fill="white"/>
</clipPath>
</defs>
</svg>
