<svg width="23" height="23" viewBox="0 0 23 23" fill="none" xmlns="http://www.w3.org/2000/svg">
<g clip-path="url(#clip0_1234_15154)">
<path fill-rule="evenodd" clip-rule="evenodd" d="M6.27295 11.5832C6.27295 10.1058 7.47059 8.9082 8.94795 8.9082H9.20003C9.57283 8.9082 9.87503 9.21041 9.87503 9.5832C9.87503 9.956 9.57283 10.2582 9.20003 10.2582H8.94795C8.21617 10.2582 7.62295 10.8514 7.62295 11.5832V12.7415H8.4292V12.2707C8.4292 11.2076 9.29105 10.3457 10.3542 10.3457H12.6459C13.709 10.3457 14.5709 11.2076 14.5709 12.2707V12.7415H15.3771V11.277C15.3771 10.7143 14.921 10.2582 14.3583 10.2582H11.2445C10.8717 10.2582 10.5695 9.956 10.5695 9.5832C10.5695 9.21041 10.8717 8.9082 11.2445 8.9082H14.3583C15.6666 8.9082 16.7271 9.96876 16.7271 11.277V13.0444C17.5815 13.491 18.1646 14.3857 18.1646 15.4165V17.2499C18.1646 17.6227 17.8624 17.9249 17.4896 17.9249H17.4459V18.8072C17.4459 19.18 17.1437 19.4822 16.7709 19.4822C16.3981 19.4822 16.0959 19.18 16.0959 18.8072V17.9249H14.6524C14.2797 17.9249 13.9774 17.6227 13.9774 17.2499C13.9774 16.8771 14.2797 16.5749 14.6524 16.5749H16.8146V15.4165C16.8146 14.6848 16.2214 14.0915 15.4896 14.0915H7.51045C6.77867 14.0915 6.18545 14.6848 6.18545 15.4165V16.5749H12.2667C12.6395 16.5749 12.9417 16.8771 12.9417 17.2499C12.9417 17.6227 12.6395 17.9249 12.2667 17.9249H6.9042V18.8072C6.9042 19.18 6.60199 19.4822 6.2292 19.4822C5.85641 19.4822 5.5542 19.18 5.5542 18.8072V17.9249H5.51045C5.13766 17.9249 4.83545 17.6227 4.83545 17.2499V15.4165C4.83545 14.3857 5.41857 13.491 6.27295 13.0444V11.5832ZM9.7792 12.2707C9.7792 11.9531 10.0366 11.6957 10.3542 11.6957H12.6459C12.9634 11.6957 13.2209 11.9531 13.2209 12.2707V12.7415H9.7792V12.2707Z" fill="#252323"/>
</g>
<defs>
<clipPath id="clip0_1234_15154">
<rect width="23" height="23" fill="white"/>
</clipPath>
</defs>
</svg>
