<svg width="44" height="44" viewBox="0 0 44 44" fill="none" xmlns="http://www.w3.org/2000/svg">
<g clip-path="url(#clip0_1054_12017)">
<path fill-rule="evenodd" clip-rule="evenodd" d="M27.5 8.70817C27.5 9.97382 25.0376 10.9998 22 10.9998C18.9624 10.9998 16.5 9.97382 16.5 8.70817C16.5 7.44252 18.9624 6.4165 22 6.4165C25.0376 6.4165 27.5 7.44252 27.5 8.70817ZM27.5 18.7915C27.5 20.0572 25.0376 21.0832 22 21.0832C18.9624 21.0832 16.5 20.0572 16.5 18.7915C16.5 17.5259 18.9624 16.4998 22 16.4998C25.0376 16.4998 27.5 17.5259 27.5 18.7915ZM22 31.1665C25.0376 31.1665 27.5 30.1405 27.5 28.8748C27.5 27.6092 25.0376 26.5832 22 26.5832C18.9624 26.5832 16.5 27.6092 16.5 28.8748C16.5 30.1405 18.9624 31.1665 22 31.1665Z" fill="#E05149"/>
<path fill-rule="evenodd" clip-rule="evenodd" d="M22.0736 5.6665C21.6594 5.6665 21.3236 6.00229 21.3236 6.4165C21.3236 6.83072 21.6594 7.1665 22.0736 7.1665C23.8921 7.1665 25.1844 7.47123 25.9921 7.87508C26.8229 8.29048 26.9955 8.71935 26.9955 8.93733C26.9955 9.15532 26.8229 9.5842 25.9921 9.99959C25.1883 10.4015 23.9046 10.7052 22.1 10.7082C20.2949 10.7053 19.0109 10.4016 18.207 9.99959C17.3762 9.5842 17.2036 9.15532 17.2036 8.93733C17.2036 8.52312 16.8678 8.18733 16.4536 8.18734C16.0394 8.18734 15.7036 8.52313 15.7036 8.93734C15.7036 9.97977 16.4763 10.8113 17.5361 11.3412C17.627 11.3866 17.7211 11.4305 17.8183 11.4729C17.7415 11.5096 17.6671 11.5476 17.595 11.5867C16.5718 12.1417 15.9121 13.0104 16.0095 14.049C16.1022 15.0373 16.8577 15.8451 17.8701 16.3762C18.9049 16.9191 20.3316 17.2498 22.0736 17.2498C23.9285 17.2498 25.2382 17.5552 26.0519 17.9593C26.8889 18.375 27.05 18.8003 27.0471 19.0104C27.0441 19.2291 26.8608 19.663 26.0145 20.0814C25.1982 20.4849 23.9043 20.7885 22.1001 20.7915C20.2953 20.7887 19.001 20.485 18.1846 20.0814C17.3383 19.663 17.1549 19.2291 17.1519 19.0104C17.1463 18.5963 16.8059 18.2651 16.3918 18.2707C15.9776 18.2764 15.6464 18.6167 15.6521 19.0309C15.6663 20.0726 16.454 20.8991 17.5198 21.4261C17.5945 21.463 17.6714 21.4989 17.7504 21.5338C17.6588 21.574 17.5701 21.6155 17.4843 21.6584C16.4244 22.1884 15.6517 23.0199 15.6517 24.0623C15.6517 25.1048 16.4244 25.9363 17.4843 26.4662C18.5672 27.0077 20.1109 27.3332 22.0736 27.3332C23.8921 27.3332 25.1844 27.6379 25.9921 28.0417C26.8229 28.4571 26.9955 28.886 26.9955 29.104C26.9955 29.322 26.8229 29.7509 25.9921 30.1663C25.1883 30.5682 23.9047 30.8719 22.1001 30.8748C20.295 30.872 19.0109 30.5682 18.207 30.1663C17.3762 29.7509 17.2036 29.322 17.2036 29.104C17.2036 28.6898 16.8678 28.354 16.4536 28.354C16.0393 28.354 15.7036 28.6898 15.7036 29.104C15.7036 30.1465 16.4763 30.978 17.5361 31.5079C17.5792 31.5294 17.623 31.5506 17.6675 31.5715C17.5365 31.6209 17.4099 31.6726 17.288 31.7263C16.1473 32.2289 15.2145 33.008 15.0499 34.026C14.867 35.1574 15.6803 36.0336 16.817 36.5594C17.9787 37.0969 19.7238 37.4165 22.0736 37.4165C22.4878 37.4165 22.8236 37.0807 22.8236 36.6665C22.8236 36.2523 22.4878 35.9165 22.0736 35.9165C19.8269 35.9165 18.3285 35.606 17.4467 35.1981C16.5399 34.7786 16.5098 34.3944 16.5307 34.2654C16.5699 34.0229 16.8881 33.5416 17.8928 33.0989C18.8475 32.6783 20.2591 32.3749 22.0736 32.3749C22.0825 32.3749 22.0913 32.3748 22.1002 32.3748C22.1086 32.3748 22.117 32.3748 22.1255 32.3748C23.94 32.3748 25.3515 32.6783 26.3062 33.0989C27.3109 33.5416 27.6292 34.0229 27.6684 34.2654C27.7345 34.6743 28.1196 34.9522 28.5285 34.8861C28.9374 34.82 29.2153 34.4349 29.1491 34.026C28.9845 33.008 28.0517 32.2289 26.9111 31.7263C26.7891 31.6726 26.6626 31.6209 26.5316 31.5715C26.5761 31.5506 26.6199 31.5294 26.6629 31.5079C27.7227 30.978 28.4955 30.1464 28.4955 29.104C28.4955 28.0616 27.7228 27.23 26.6629 26.7001C25.58 26.1586 24.0364 25.8332 22.0736 25.8332C20.2551 25.8332 18.9628 25.5284 18.1551 25.1246C17.3243 24.7092 17.1517 24.2803 17.1517 24.0623C17.1517 23.8444 17.3243 23.4155 18.1551 23.0001C18.9628 22.5962 20.2551 22.2915 22.0736 22.2915C22.0825 22.2915 22.0913 22.2915 22.1002 22.2915C22.1086 22.2915 22.117 22.2915 22.1254 22.2915C23.9439 22.2915 25.2363 22.5962 26.044 23.0001C26.8748 23.4155 27.0473 23.8444 27.0473 24.0623C27.0473 24.4765 27.3831 24.8123 27.7973 24.8123C28.2115 24.8124 28.5473 24.4766 28.5473 24.0624C28.5473 23.0199 27.7746 22.1884 26.7148 21.6584C26.629 21.6155 26.5402 21.574 26.4486 21.5338C26.5276 21.4989 26.6045 21.463 26.6792 21.4261C27.745 20.8991 28.5328 20.0726 28.547 19.0309C28.5613 17.9806 27.7857 17.1455 26.7191 16.6159C26.5743 16.544 26.4212 16.4759 26.2599 16.4119C26.2831 16.4001 26.3061 16.3882 26.3289 16.3762C27.3413 15.8451 28.0969 15.0373 28.1895 14.049C28.2282 13.6366 27.9252 13.2709 27.5128 13.2323C27.1004 13.1936 26.7348 13.4966 26.6961 13.909C26.6706 14.1812 26.4217 14.6337 25.6321 15.0479C24.8649 15.4504 23.692 15.7498 22.1254 15.7498C22.1225 15.7498 22.1195 15.7499 22.1165 15.7499C22.1022 15.7499 22.0879 15.7498 22.0736 15.7498C20.507 15.7498 19.3341 15.4504 18.5669 15.0479C17.7773 14.6337 17.5285 14.1812 17.5029 13.909C17.4822 13.6872 17.5906 13.2955 18.3102 12.9052C19.0311 12.5142 20.2513 12.2082 22.0736 12.2082C22.0824 12.2082 22.0912 12.2082 22.1 12.2082C22.1085 12.2082 22.117 12.2082 22.1255 12.2082C22.13 12.2082 22.1345 12.2081 22.139 12.2081C24.0707 12.2009 25.592 11.8767 26.6629 11.3412C27.7227 10.8113 28.4955 9.97977 28.4955 8.93734C28.4955 7.89491 27.7228 7.06336 26.6629 6.53344C25.58 5.99198 24.0364 5.6665 22.0736 5.6665Z" fill="#252323"/>
</g>
<defs>
<clipPath id="clip0_1054_12017">
<rect width="44" height="44" fill="white"/>
</clipPath>
</defs>
</svg>
