<svg width="44" height="44" viewBox="0 0 44 44" fill="none" xmlns="http://www.w3.org/2000/svg">
<g clip-path="url(#clip0_1234_15092)">
<path fill-rule="evenodd" clip-rule="evenodd" d="M13.9167 20.3335C13.9167 18.8147 15.148 17.5835 16.6667 17.5835H18.3334C18.7476 17.5835 19.0834 17.9193 19.0834 18.3335C19.0834 18.7477 18.7476 19.0835 18.3334 19.0835H16.6667C15.9764 19.0835 15.4167 19.6431 15.4167 20.3335V24.9168H16.6667V22.9982C16.6667 21.5265 17.8598 20.3335 19.3314 20.3335H24.6687C26.1404 20.3335 27.3334 21.5265 27.3334 22.9982V24.9168H28.5834V24.0372C28.5834 23.623 28.9192 23.2872 29.3334 23.2872C29.7476 23.2872 30.0834 23.623 30.0834 24.0372V25.0516C31.669 25.4893 32.8334 26.9421 32.8334 28.6668V33.0002C32.8334 33.4144 32.4976 33.7502 32.0834 33.7502H31.2292V35.9793C31.2292 36.3935 30.8935 36.7293 30.4792 36.7293C30.065 36.7293 29.7292 36.3935 29.7292 35.9793V33.7502H27.3071C26.8929 33.7502 26.5571 33.4144 26.5571 33.0002C26.5571 32.586 26.8929 32.2502 27.3071 32.2502H31.3334V28.6668C31.3334 27.4242 30.3261 26.4168 29.0834 26.4168H14.9167C13.6741 26.4168 12.6667 27.4242 12.6667 28.6668V32.2502H24.1229C24.5371 32.2502 24.8729 32.586 24.8729 33.0002C24.8729 33.4144 24.5371 33.7502 24.1229 33.7502H14.5406V35.9793C14.5406 36.3935 14.2048 36.7293 13.7906 36.7293C13.3764 36.7293 13.0406 36.3935 13.0406 35.9793V33.7502H11.9167C11.5025 33.7502 11.1667 33.4144 11.1667 33.0002V28.6668C11.1667 26.9421 12.3312 25.4893 13.9167 25.0516V20.3335ZM19.4167 18.3335C19.4167 17.9193 19.7525 17.5835 20.1667 17.5835H27.3334C28.8522 17.5835 30.0834 18.8147 30.0834 20.3335V22.1311C30.0834 22.5453 29.7476 22.8811 29.3334 22.8811C28.9192 22.8811 28.5834 22.5453 28.5834 22.1311V20.3335C28.5834 19.6431 28.0238 19.0835 27.3334 19.0835H20.1667C19.7525 19.0835 19.4167 18.7477 19.4167 18.3335ZM18.1667 22.9982C18.1667 22.3549 18.6882 21.8335 19.3314 21.8335H24.6687C25.312 21.8335 25.8334 22.3549 25.8334 22.9982V24.9168H18.1667V22.9982Z" fill="#252323"/>
</g>
<defs>
<clipPath id="clip0_1234_15092">
<rect width="44" height="44" fill="white"/>
</clipPath>
</defs>
</svg>
