<svg width="28" height="28" viewBox="0 0 28 28" fill="none" xmlns="http://www.w3.org/2000/svg">
<g clip-path="url(#clip0_1234_15183)">
<path fill-rule="evenodd" clip-rule="evenodd" d="M7.54175 21.0002H21.0417C22.1463 21.0002 23.0417 20.1048 23.0417 19.0002V18.188C23.0417 17.9694 23.0365 17.8061 22.8842 17.6494C22.3214 17.0705 21.5781 16.2375 21.5716 15.4302L21.5535 13.2079C21.5446 12.1097 20.6518 11.2241 19.5536 11.2241H8.43308C7.32215 11.2241 6.42411 12.1295 6.43314 13.2404L6.45288 15.6687C6.45676 16.145 6.21033 16.5524 5.96053 16.9655C5.81745 17.2021 5.67327 17.4405 5.57438 17.6947C5.55343 17.7486 5.54175 17.8026 5.54175 17.8559V19.0002C5.54175 20.1047 6.43718 21.0002 7.54175 21.0002ZM8.50009 16.0002L9.00009 14.0002L11.0001 13.5002L13.5001 14.0002L14.0001 14.5002L15.5001 13.5002H18.0001L19.5001 14.5002V16.5002H9.50009L8.50009 16.0002Z" fill="#E05149"/>
<path fill-rule="evenodd" clip-rule="evenodd" d="M5.69236 13.229C5.69236 11.7102 6.92358 10.479 8.44236 10.479H9.95365C10.3679 10.479 10.7036 10.8148 10.7036 11.229C10.7036 11.6432 10.3679 11.979 9.95365 11.979H8.44236C7.75201 11.979 7.19236 12.5386 7.19236 13.229V15.9263C7.38363 15.8615 7.58183 15.8117 7.78555 15.7784V15.0623C7.78555 13.8197 8.79291 12.8123 10.0355 12.8123H12.2685C12.982 12.8123 13.6179 13.1444 14.0302 13.6625C14.4424 13.1444 15.0783 12.8123 15.7918 12.8123H18.0248C19.2674 12.8123 20.2748 13.8197 20.2748 15.0623V15.7784C20.4785 15.8117 20.6767 15.8615 20.868 15.9263V15.8111C20.868 15.3969 21.2037 15.0611 21.618 15.0611C22.0322 15.0611 22.368 15.3969 22.368 15.8111L22.368 16.8801C23.0161 17.5542 23.4145 18.4701 23.4145 19.479V21.1457C23.4145 21.5599 23.0787 21.8957 22.6645 21.8957H22.368V22.8957C22.368 23.3099 22.0322 23.6457 21.618 23.6457C21.2037 23.6457 20.868 23.3099 20.868 22.8957V21.8957H18.5746C18.1603 21.8957 17.8246 21.5599 17.8246 21.1457C17.8246 20.7315 18.1603 20.3957 18.5746 20.3957H21.9145V19.479C21.9145 18.2364 20.9072 17.229 19.6645 17.229H8.39575C7.15311 17.229 6.14575 18.2364 6.14575 19.479V20.3957H15.4283C15.8425 20.3957 16.1783 20.7315 16.1783 21.1457C16.1783 21.5599 15.8425 21.8957 15.4283 21.8957H7.19236V22.8957C7.19236 23.3099 6.85658 23.6457 6.44236 23.6457C6.02815 23.6457 5.69236 23.3099 5.69236 22.8957V21.8957H5.39575C4.98154 21.8957 4.64575 21.5599 4.64575 21.1457V19.479C4.64575 18.47 5.04421 17.5542 5.69236 16.8801V13.229ZM12.1898 11.229C12.1898 10.8148 12.5256 10.479 12.9398 10.479H19.618C21.1367 10.479 22.368 11.7102 22.368 13.229V13.4375C22.368 13.8517 22.0322 14.1875 21.618 14.1875C21.2037 14.1875 20.868 13.8517 20.868 13.4375V13.229C20.868 12.5386 20.3083 11.979 19.618 11.979H12.9398C12.5256 11.979 12.1898 11.6432 12.1898 11.229ZM15.7918 14.3123C15.3776 14.3123 15.0418 14.6481 15.0418 15.0623V15.729H18.7748V15.0623C18.7748 14.6481 18.439 14.3123 18.0248 14.3123H15.7918ZM13.0185 15.729V15.0623C13.0185 14.6481 12.6827 14.3123 12.2685 14.3123H10.0355C9.62133 14.3123 9.28555 14.6481 9.28555 15.0623V15.729H13.0185Z" fill="#252323"/>
</g>
<defs>
<clipPath id="clip0_1234_15183">
<rect width="28" height="28" fill="white"/>
</clipPath>
</defs>
</svg>
