<svg width="23" height="23" viewBox="0 0 23 23" fill="none" xmlns="http://www.w3.org/2000/svg">
<g clip-path="url(#clip0_1234_15064)">
<path fill-rule="evenodd" clip-rule="evenodd" d="M8.02604 17.2502H15.2486C16.1555 17.2502 16.8906 16.515 16.8906 15.6081C16.8906 15.4263 16.8517 15.249 16.7371 15.1079C16.6105 14.9521 16.4222 14.7444 16.2251 14.5271C15.805 14.064 15.3454 13.5574 15.3611 13.4168L15.3477 11.569C15.3398 10.4701 14.4467 9.5835 13.3478 9.5835H9.91501C8.85869 9.5835 8.00453 10.4439 8.01217 11.5002C8.01875 12.4086 7.35672 13.3266 6.7868 14.1168C6.69404 14.2455 6.60372 14.3707 6.51913 14.492C6.26612 14.8546 6.10938 15.2012 6.10938 15.3335C6.10938 16.392 6.9675 17.2502 8.02604 17.2502ZM9.5 13.0002V11.5002L10.5 11.0002H12L13 11.5002L13.5 13.0002H9.5Z" fill="#E05149"/>
<path fill-rule="evenodd" clip-rule="evenodd" d="M7.38745 11.6252C7.38745 10.1478 8.58509 8.9502 10.0625 8.9502H10.618C10.9908 8.9502 11.293 9.2524 11.293 9.6252C11.293 9.99799 10.9908 10.3002 10.618 10.3002H10.0625C9.33067 10.3002 8.73745 10.8934 8.73745 11.6252V12.8914C8.88062 12.8559 9.0271 12.8288 9.17634 12.8106V12.2863C9.17634 11.3612 9.92626 10.6113 10.8513 10.6113H12.9402C13.8653 10.6113 14.6152 11.3612 14.6152 12.2863V12.8106C14.7645 12.8288 14.911 12.8559 15.0541 12.8914V11.4887C15.0541 10.8323 14.522 10.3002 13.8656 10.3002H12.6625C12.2897 10.3002 11.9875 9.99799 11.9875 9.6252C11.9875 9.2524 12.2897 8.9502 12.6625 8.9502H13.8656C15.2676 8.9502 16.4041 10.0867 16.4041 11.4887V13.4585C16.4041 13.4859 16.4025 13.5128 16.3993 13.5393C17.2762 14.2109 17.8416 15.2687 17.8416 16.4585V17.2919C17.8416 17.6647 17.5394 17.9669 17.1666 17.9669H17.0031V18.8492C17.0031 19.2219 16.7009 19.5242 16.3281 19.5242C15.9553 19.5242 15.6531 19.2219 15.6531 18.8492V17.9669H15.1131C14.7403 17.9669 14.4381 17.6647 14.4381 17.2919C14.4381 16.9191 14.7403 16.6169 15.1131 16.6169H16.4916V16.4585C16.4916 15.1745 15.4507 14.1335 14.1666 14.1335H9.62495C8.34089 14.1335 7.29995 15.1745 7.29995 16.4585V16.6169H12.6602C13.033 16.6169 13.3352 16.9191 13.3352 17.2919C13.3352 17.6647 13.033 17.9669 12.6602 17.9669H8.27946V18.8492C8.27946 19.2219 7.97725 19.5242 7.60446 19.5242C7.23167 19.5242 6.92946 19.2219 6.92946 18.8492V17.9669H6.62495C6.25216 17.9669 5.94995 17.6647 5.94995 17.2919V16.4585C5.94995 15.2687 6.5154 14.2109 7.39223 13.5393C7.38907 13.5128 7.38745 13.4859 7.38745 13.4585V11.6252ZM10.5263 12.2863C10.5263 12.1068 10.6718 11.9613 10.8513 11.9613H12.9402C13.1197 11.9613 13.2652 12.1068 13.2652 12.2863V12.7835H10.5263V12.2863Z" fill="#252323"/>
</g>
<defs>
<clipPath id="clip0_1234_15064">
<rect width="23" height="23" fill="white"/>
</clipPath>
</defs>
</svg>
