<svg width="44" height="44" viewBox="0 0 44 44" fill="none" xmlns="http://www.w3.org/2000/svg">
<g clip-path="url(#clip0_1236_16021)">
<path fill-rule="evenodd" clip-rule="evenodd" d="M25.2819 12.4123C24.9939 12.3403 24.6898 12.3732 24.4238 12.5049L23.5898 12.9182C24.4419 13.048 25.0695 13.048 25.208 13.048H25.2084C25.6226 13.048 25.9584 13.3837 25.9584 13.798C25.9584 14.2122 25.6226 14.548 25.2084 14.548C24.955 14.548 23.4981 14.5476 21.794 14.0608C21.6996 14.0338 21.6145 13.9898 21.5412 13.9331L16.0206 16.6684C16.516 16.7146 16.8598 16.7146 16.958 16.7146H16.9584C17.3726 16.7146 17.7084 17.0504 17.7084 17.4646C17.7084 17.8788 17.3726 18.2146 16.9584 18.2146C16.7159 18.2146 15.371 18.2143 13.762 17.7875L10.514 19.3967C10.7109 19.427 10.9182 19.397 11.1069 19.2994L11.1444 19.2801C11.5923 19.0485 12.1427 19.1907 12.4224 19.6102C12.6332 19.9264 13.0604 20.0118 13.3766 19.801L13.555 19.6821C13.8997 19.4523 14.3653 19.5454 14.5951 19.8901C14.8249 20.2347 14.7317 20.7004 14.3871 20.9301L14.2086 21.0491C13.3265 21.6372 12.1726 21.5002 11.4501 20.7788C10.5611 21.0792 9.57711 20.8461 8.91712 20.1879L6.68783 21.2925L20.015 24.9118L20.9751 24.3875C20.6531 24.3242 20.3122 24.2445 19.9607 24.1441C19.5624 24.0303 19.3318 23.6152 19.4456 23.2169C19.5594 22.8186 19.9745 22.588 20.3728 22.7018C21.7205 23.0869 22.8988 23.1267 23.2768 23.1308L27.5303 20.8084L27.5864 20.7778C27.5558 20.7536 27.5257 20.7286 27.4962 20.7028C26.5978 20.9177 25.6441 20.6843 24.9444 20.0656L24.7116 19.8598C24.4013 19.5855 24.3722 19.1115 24.6465 18.8012C24.9209 18.4908 25.3949 18.4617 25.7052 18.7361L25.938 18.9419C26.2992 19.2613 26.8032 19.364 27.2606 19.2115L27.3267 19.1895C27.715 19.0601 28.143 19.1809 28.4063 19.4944C28.5841 19.7061 28.8656 19.8004 29.1352 19.7386L29.7467 19.5982L33.5701 17.5107C33.2508 17.4477 32.913 17.3686 32.5649 17.2691C32.1666 17.1553 31.936 16.7402 32.0498 16.3419C32.1636 15.9436 32.5787 15.713 32.977 15.8268C34.3104 16.2078 35.478 16.2508 35.8687 16.2557L37.372 15.4348L33.0326 14.35L28.9228 13.3226L25.2819 12.4123ZM38.8555 16.3339L36.0293 17.877L30.3899 20.9561C30.3802 20.9617 30.3703 20.9671 30.3603 20.9723L28.2491 22.125L20.7909 26.1971C20.6026 27.4507 20.5766 28.7235 20.7135 29.9841L26.182 26.7386C27.1178 23.8472 29.8325 21.7563 33.0356 21.7563C33.4914 21.7563 33.9372 21.7986 34.3694 21.8796L38.7467 19.2818C38.9378 18.3095 38.974 17.3147 38.8555 16.3339ZM36.2464 22.51L39.5398 20.5554C39.8879 20.3488 40.132 20.0042 40.2114 19.6072C40.4943 18.1928 40.4943 16.7364 40.2114 15.322L40.1522 15.0259C40.0953 14.7417 39.8798 14.5156 39.5986 14.4453L33.3964 12.8948L29.2866 11.8673L25.6457 10.9571C25.0122 10.7987 24.343 10.871 23.7579 11.1609L4.25043 20.8261C4.04044 20.9301 3.89116 21.1263 3.8469 21.3565L3.81576 21.5184C3.5164 23.0749 3.49655 24.6723 3.75713 26.2358C3.85724 26.8364 4.29152 27.3271 4.87551 27.4995L8.2526 28.4964C8.64986 28.6137 9.06698 28.3867 9.18425 27.9895C9.30153 27.5922 9.07455 27.1751 8.67728 27.0578L5.3002 26.0609C5.26705 26.0511 5.2424 26.0232 5.23672 25.9892C5.04082 24.8137 5.02347 23.6167 5.18418 22.4384L19.2668 26.2629C19.0959 27.5588 19.0817 28.8712 19.2251 30.1715L12.5588 28.2036C12.1616 28.0864 11.7444 28.3133 11.6272 28.7106C11.5099 29.1079 11.7369 29.525 12.1341 29.6423L19.8972 31.9339C20.0973 31.993 20.3129 31.9661 20.4923 31.8596L25.8384 28.6868C25.8351 28.7769 25.8334 28.8675 25.8334 28.9585C25.8334 32.9361 29.0579 36.1607 33.0356 36.1607C37.0133 36.1607 40.2378 32.9361 40.2378 28.9585C40.2378 28.5443 39.902 28.2085 39.4878 28.2085C39.0736 28.2085 38.7378 28.5443 38.7378 28.9585C38.7378 32.1077 36.1848 34.6607 33.0356 34.6607C29.8864 34.6607 27.3334 32.1077 27.3334 28.9585C27.3334 25.8092 29.8864 23.2563 33.0356 23.2563C35.0183 23.2563 36.7651 24.2675 37.7879 25.8059C38.0172 26.1508 38.4828 26.2445 38.8277 26.0152C39.1726 25.7858 39.2663 25.3203 39.037 24.9754C38.3415 23.9294 37.3789 23.075 36.2464 22.51ZM28.1251 27.2042C28.1251 26.79 28.4609 26.4542 28.8751 26.4542H29.1479C29.5146 26.4542 29.857 26.6375 30.0604 26.9425L30.2194 27.181C30.67 27.8571 31.6634 27.8571 32.1141 27.181C32.5356 26.5488 33.4646 26.5488 33.886 27.181C34.3367 27.8571 35.3301 27.8571 35.7808 27.181L35.9398 26.9425C36.1432 26.6375 36.4856 26.4542 36.8523 26.4542H37.1251C37.5393 26.4542 37.8751 26.79 37.8751 27.2042C37.8751 27.6184 37.5393 27.9542 37.1251 27.9542H37.0681L37.0289 28.0131C36.0926 29.4175 34.1457 29.5629 33.0001 28.4494C31.8545 29.5629 29.9076 29.4175 28.9713 28.0131L28.932 27.9542H28.8751C28.4609 27.9542 28.1251 27.6184 28.1251 27.2042ZM28.8751 29.2042C28.4609 29.2042 28.1251 29.54 28.1251 29.9542C28.1251 30.3684 28.4609 30.7042 28.8751 30.7042H28.932L28.9713 30.7631C29.9076 32.1675 31.8545 32.3129 33.0001 31.1994C34.1457 32.3129 36.0926 32.1675 37.0289 30.7631L37.0681 30.7042H37.1251C37.5393 30.7042 37.8751 30.3684 37.8751 29.9542C37.8751 29.54 37.5393 29.2042 37.1251 29.2042H36.8523C36.4856 29.2042 36.1432 29.3875 35.9398 29.6925L35.7808 29.931C35.3301 30.6071 34.3367 30.6071 33.886 29.931C33.4646 29.2988 32.5356 29.2988 32.1141 29.931C31.6634 30.6071 30.67 30.6071 30.2194 29.931L30.0604 29.6925C29.857 29.3875 29.5146 29.2042 29.1479 29.2042H28.8751Z" fill="#332A2A"/>
</g>
<defs>
<clipPath id="clip0_1236_16021">
<rect width="44" height="44" fill="white"/>
</clipPath>
</defs>
</svg>
