<svg width="28" height="28" viewBox="0 0 28 28" fill="none" xmlns="http://www.w3.org/2000/svg">
<g clip-path="url(#clip0_1236_15938)">
<path fill-rule="evenodd" clip-rule="evenodd" d="M16.2818 9.65598C15.9938 9.58399 15.6896 9.61682 15.4237 9.7486L14.9341 9.99116C15.0909 10.0097 15.2517 10.0039 15.411 9.97205L15.6125 9.93174C16.0187 9.85051 16.4138 10.1139 16.495 10.5201C16.5763 10.9263 16.3129 11.3214 15.9067 11.4026L15.7052 11.4429C14.8218 11.6196 13.9145 11.392 13.2234 10.8387L7.39879 13.7246C7.64674 13.7962 7.90509 13.8333 8.1666 13.8333C8.58081 13.8333 8.9166 14.1691 8.9166 14.5833C8.9166 14.9975 8.58081 15.3333 8.1666 15.3333C7.28772 15.3333 6.43192 15.062 5.71508 14.5588L5.02103 14.9027L12.7023 16.9887L13.011 16.8202C12.9739 16.8031 12.9369 16.7855 12.9002 16.7673L12.7917 16.7135C12.4206 16.5295 12.269 16.0795 12.453 15.7084C12.637 15.3373 13.087 15.1857 13.4581 15.3697L13.5666 15.4235C14.0698 15.673 14.6416 15.7454 15.1896 15.6307L17.3885 14.4301L20.4773 12.7436C20.3716 12.6673 20.2715 12.5821 20.1779 12.4886C19.885 12.1957 19.885 11.7208 20.1779 11.4279C20.4708 11.135 20.9457 11.135 21.2386 11.4279C21.4462 11.6355 21.7369 11.7375 22.0286 11.705L22.4691 11.6561L23.0385 11.3452L20.9545 10.8242L18.3392 10.1703L16.2818 9.65598ZM24.4899 12.2618L23.0583 13.0434L18.1073 15.7466L15.8327 16.9886C15.8231 16.9941 15.8134 16.9994 15.8036 17.0045L13.4811 18.2725C13.4015 18.8623 13.3797 19.4583 13.4161 20.052L16.4348 18.2605C17.0948 16.3623 18.8996 14.9999 21.0225 14.9999C21.2939 14.9999 21.5599 15.0222 21.8191 15.065L24.4113 13.5266C24.4844 13.1085 24.5105 12.6843 24.4899 12.2618ZM23.6102 15.7463L25.3008 14.743C25.5888 14.5721 25.7907 14.287 25.8564 13.9586C26.0435 13.0232 26.0435 12.06 25.8564 11.1246L25.8187 10.9362C25.7619 10.652 25.5463 10.426 25.2652 10.3557L21.3183 9.36895L18.703 8.71511L16.6456 8.20076C16.0121 8.04238 15.3429 8.11461 14.7577 8.40453L2.58363 14.4363C2.37364 14.5404 2.22435 14.7366 2.18009 14.9667L2.16028 15.0698C1.96367 16.0921 1.95063 17.1412 2.12178 18.1681C2.20265 18.6533 2.55349 19.0497 3.02527 19.189L5.17433 19.8234C5.57159 19.9407 5.98871 19.7137 6.10598 19.3164C6.22326 18.9192 5.99628 18.5021 5.59901 18.3848L3.58053 17.7889C3.49552 17.2136 3.47995 16.6308 3.53366 16.0531L11.9617 18.3419C11.8924 18.9764 11.8805 19.6158 11.9261 20.2526L8.06908 19.114C7.67182 18.9967 7.2547 19.2237 7.13743 19.6209C7.02016 20.0182 7.24713 20.4353 7.6444 20.5526L12.5845 22.0109C12.7846 22.07 13.0003 22.043 13.1797 21.9366L16.1759 20.1584C16.3321 22.6993 18.4423 24.7118 21.0225 24.7118C23.7044 24.7118 25.8785 22.5377 25.8785 19.8559C25.8785 19.4417 25.5427 19.1059 25.1285 19.1059C24.7143 19.1059 24.3785 19.4417 24.3785 19.8559C24.3785 21.7093 22.876 23.2118 21.0225 23.2118C19.1691 23.2118 17.6666 21.7093 17.6666 19.8559C17.6666 18.0024 19.1691 16.4999 21.0225 16.4999C22.1891 16.4999 23.2171 17.0945 23.8196 18.0007C24.049 18.3456 24.5145 18.4393 24.8594 18.21C25.2043 17.9806 25.2981 17.5151 25.0687 17.1702C24.6891 16.5993 24.1914 16.113 23.6102 15.7463ZM18.2404 18.5837C18.2404 18.2109 18.5426 17.9087 18.9154 17.9087C19.4328 17.9087 19.9289 18.1142 20.2947 18.4801L20.3854 18.5707C20.7408 18.9261 21.317 18.9261 21.6725 18.5707L21.7631 18.4801C22.1289 18.1142 22.6251 17.9087 23.1424 17.9087C23.5152 17.9087 23.8174 18.2109 23.8174 18.5837C23.8174 18.9565 23.5152 19.2587 23.1424 19.2587C22.9831 19.2587 22.8303 19.322 22.7177 19.4346L22.6271 19.5253C21.7444 20.4079 20.3134 20.4079 19.4308 19.5253L19.3401 19.4346C19.2275 19.322 19.0747 19.2587 18.9154 19.2587C18.5426 19.2587 18.2404 18.9565 18.2404 18.5837ZM18.9154 20.0225C18.5426 20.0225 18.2404 20.3247 18.2404 20.6975C18.2404 21.0703 18.5426 21.3725 18.9154 21.3725C19.0747 21.3725 19.2275 21.4357 19.3401 21.5484L19.4308 21.639C20.3134 22.5217 21.7444 22.5217 22.6271 21.639L22.7177 21.5484C22.8303 21.4357 22.9831 21.3725 23.1424 21.3725C23.5152 21.3725 23.8174 21.0703 23.8174 20.6975C23.8174 20.3247 23.5152 20.0225 23.1424 20.0225C22.6251 20.0225 22.1289 20.228 21.7631 20.5938L21.6725 20.6844C21.317 21.0398 20.7408 21.0398 20.3854 20.6844L20.2947 20.5938C19.9289 20.228 19.4328 20.0225 18.9154 20.0225Z" fill="#252323"/>
</g>
<defs>
<clipPath id="clip0_1236_15938">
<rect width="28" height="28" fill="white"/>
</clipPath>
</defs>
</svg>
