<svg width="23" height="23" viewBox="0 0 23 23" fill="none" xmlns="http://www.w3.org/2000/svg">
<g clip-path="url(#clip0_1234_15124)">
<path fill-rule="evenodd" clip-rule="evenodd" d="M7.5105 17.2502H16.4897C17.0419 17.2502 17.4897 16.8024 17.4897 16.2502V14.5049C17.4897 14.2607 17.4153 14.0231 17.1823 13.9502C17.1165 13.9297 17.044 13.91 16.9683 13.8894C16.8075 13.8457 16.6322 13.7981 16.4765 13.7301C16.1687 13.5956 16.0816 13.2408 16.0789 12.9049L16.0681 11.5674C16.0593 10.4692 15.1665 9.5835 14.0682 9.5835H8.8339C7.77783 9.5835 6.92409 10.4441 6.93259 11.5002C6.93729 12.0846 6.57674 12.617 6.21526 13.1509C5.92357 13.5816 5.63127 14.0133 5.52981 14.4739C5.51661 14.5338 5.5105 14.5871 5.5105 14.6302V15.2499C5.5105 16.3545 6.40593 17.2502 7.5105 17.2502ZM9.00008 13.0002V11.0002H11.0001H13.0001L13.5001 12.5002V13.0002H9.00008Z" fill="#E05149"/>
<path fill-rule="evenodd" clip-rule="evenodd" d="M6.27295 11.5832C6.27295 10.1058 7.47059 8.9082 8.94795 8.9082H9.20003C9.57283 8.9082 9.87503 9.21041 9.87503 9.5832C9.87503 9.956 9.57283 10.2582 9.20003 10.2582H8.94795C8.21617 10.2582 7.62295 10.8514 7.62295 11.5832V12.7415H8.4292V12.2707C8.4292 11.2076 9.29105 10.3457 10.3542 10.3457H12.6459C13.709 10.3457 14.5709 11.2076 14.5709 12.2707V12.7415H15.3771V11.277C15.3771 10.7143 14.921 10.2582 14.3583 10.2582H11.2445C10.8717 10.2582 10.5695 9.956 10.5695 9.5832C10.5695 9.21041 10.8717 8.9082 11.2445 8.9082H14.3583C15.6666 8.9082 16.7271 9.96876 16.7271 11.277V13.0444C17.5815 13.491 18.1646 14.3857 18.1646 15.4165V17.2499C18.1646 17.6227 17.8624 17.9249 17.4896 17.9249H17.4459V18.8072C17.4459 19.18 17.1437 19.4822 16.7709 19.4822C16.3981 19.4822 16.0959 19.18 16.0959 18.8072V17.9249H14.6524C14.2797 17.9249 13.9774 17.6227 13.9774 17.2499C13.9774 16.8771 14.2797 16.5749 14.6524 16.5749H16.8146V15.4165C16.8146 14.6848 16.2214 14.0915 15.4896 14.0915H7.51045C6.77867 14.0915 6.18545 14.6848 6.18545 15.4165V16.5749H12.2667C12.6395 16.5749 12.9417 16.8771 12.9417 17.2499C12.9417 17.6227 12.6395 17.9249 12.2667 17.9249H6.9042V18.8072C6.9042 19.18 6.60199 19.4822 6.2292 19.4822C5.85641 19.4822 5.5542 19.18 5.5542 18.8072V17.9249H5.51045C5.13766 17.9249 4.83545 17.6227 4.83545 17.2499V15.4165C4.83545 14.3857 5.41857 13.491 6.27295 13.0444V11.5832ZM9.7792 12.2707C9.7792 11.9531 10.0366 11.6957 10.3542 11.6957H12.6459C12.9634 11.6957 13.2209 11.9531 13.2209 12.2707V12.7415H9.7792V12.2707Z" fill="#252323"/>
</g>
<defs>
<clipPath id="clip0_1234_15124">
<rect width="23" height="23" fill="white"/>
</clipPath>
</defs>
</svg>
