<svg width="18" height="18" viewBox="0 0 18 18" fill="none" xmlns="http://www.w3.org/2000/svg">
<g clip-path="url(#clip0_1054_12080)">
<path fill-rule="evenodd" clip-rule="evenodd" d="M9.03022 1.875C8.61601 1.875 8.28022 2.21079 8.28022 2.625C8.28022 3.03921 8.61601 3.375 9.03022 3.375C9.73153 3.375 10.1859 3.49353 10.435 3.61809C10.4622 3.63164 10.4855 3.6444 10.5056 3.65625C10.4855 3.66809 10.4621 3.68086 10.435 3.69441C10.1872 3.81833 9.73619 3.93628 9.04103 3.93749C8.34563 3.93633 7.89449 3.81835 7.64661 3.69441C7.54931 3.64576 7.50042 3.60729 7.47777 3.58498C7.44188 3.20419 7.12129 2.90625 6.73111 2.90625C6.3169 2.90625 5.98111 3.24204 5.98111 3.65625C5.98112 4.10475 6.2022 4.45876 6.49872 4.71899C6.23617 4.99453 6.0676 5.35575 6.1082 5.78876C6.16594 6.4046 6.62474 6.8401 7.10473 7.0919C7.60712 7.35545 8.26579 7.5 9.03022 7.5C9.7476 7.5 10.2092 7.61916 10.4606 7.74399C10.4835 7.75536 10.5038 7.76635 10.5217 7.77679C10.5001 7.78978 10.4749 7.80358 10.446 7.8179C10.192 7.94347 9.73578 8.06128 9.04096 8.06249C8.34599 8.06131 7.88968 7.94349 7.63566 7.8179C7.53005 7.76569 7.47866 7.72441 7.45579 7.70135C7.41542 7.32033 7.09045 7.02599 6.69978 7.03132C6.2856 7.03698 5.95443 7.37731 5.96008 7.79149C5.96589 8.21664 6.17007 8.55496 6.44664 8.80869C6.16577 9.06615 5.9599 9.41096 5.9599 9.84375C5.9599 10.4644 6.38323 10.9041 6.84398 11.1647C6.80717 11.1591 6.76947 11.1563 6.7311 11.1563C6.31689 11.1563 5.98111 11.492 5.98111 11.9063C5.98112 12.2956 6.14772 12.6137 6.38564 12.8611C6.06158 13.0955 5.78886 13.4194 5.71939 13.849C5.59667 14.608 6.16079 15.1119 6.6937 15.3584C7.25167 15.6165 8.03848 15.75 9.03021 15.75C9.44442 15.75 9.78021 15.4142 9.78021 15C9.78021 14.5858 9.44442 14.25 9.03021 14.25C8.18084 14.25 7.64989 14.1364 7.36188 14.0141C7.40051 13.9923 7.44583 13.9693 7.49859 13.9461C7.81946 13.8047 8.3329 13.6875 9.03021 13.6875C9.03375 13.6875 9.03729 13.6875 9.04082 13.6875C9.04436 13.6875 9.04789 13.6875 9.05143 13.6875C9.74875 13.6875 10.2622 13.8047 10.5831 13.9461C10.8037 14.0433 10.8749 14.1213 10.8919 14.1411C10.9811 14.5209 11.3505 14.7724 11.7416 14.7091C12.1505 14.643 12.4284 14.2579 12.3623 13.849C12.2928 13.4194 12.0201 13.0955 11.696 12.8611C11.9339 12.6137 12.1005 12.2956 12.1005 11.9063C12.1005 11.2753 11.663 10.8313 11.1934 10.5724C11.2505 10.5864 11.3103 10.5938 11.3717 10.5938C11.7859 10.5938 12.1217 10.258 12.1217 9.84376C12.1217 9.41096 11.9159 9.06615 11.635 8.80869C11.9116 8.55496 12.1158 8.21663 12.1216 7.79147C12.1281 7.30883 11.8771 6.93526 11.55 6.66974C11.7753 6.43582 11.9403 6.14195 11.9734 5.78876C12.0121 5.37636 11.7091 5.01069 11.2967 4.97203C11.2748 4.96997 11.253 4.96888 11.2313 4.96872C11.6863 4.70707 12.1005 4.27019 12.1005 3.65625C12.1005 2.98622 11.6071 2.52707 11.1059 2.27645C10.5815 2.01428 9.87579 1.875 9.03022 1.875ZM10.6749 5.21081C10.2239 5.35722 9.68046 5.43494 9.06115 5.43744C9.05792 5.43748 9.05468 5.4375 9.05143 5.4375C9.04798 5.4375 9.04453 5.4375 9.04108 5.43749C9.03746 5.4375 9.03384 5.4375 9.03021 5.4375C8.32516 5.4375 7.90789 5.55734 7.70193 5.66904C7.69185 5.67451 7.68253 5.67982 7.67393 5.68493C7.7045 5.70773 7.74587 5.73437 7.80155 5.76358C8.03633 5.88674 8.44115 6 9.03022 6C9.0356 6 9.04097 6.00001 9.04634 6.00002C9.04803 6.00001 9.04973 6 9.05142 6C9.6405 6 10.0453 5.88674 10.2801 5.76358C10.4201 5.69014 10.4697 5.63294 10.4843 5.61221C10.5064 5.45707 10.5752 5.31894 10.6749 5.21081ZM9.041 9.56249C9.03741 9.56249 9.03381 9.5625 9.03022 9.5625C8.32891 9.5625 7.8745 9.68103 7.62539 9.80559C7.59828 9.81914 7.57493 9.8319 7.55486 9.84375C7.57493 9.85559 7.59828 9.86836 7.62539 9.88191C7.87451 10.0065 8.32892 10.125 9.03022 10.125C9.77861 10.125 10.4175 10.2341 10.918 10.441C10.7557 10.3175 10.6453 10.1294 10.6251 9.91501C10.6024 9.89271 10.5536 9.85423 10.4563 9.80559C10.2071 9.68103 9.75274 9.5625 9.05142 9.5625C9.04795 9.5625 9.04447 9.56249 9.041 9.56249ZM9.04082 12.1875C9.7361 12.1863 10.1872 12.0683 10.435 11.9444C10.4621 11.9309 10.4855 11.9181 10.5056 11.9062C10.4855 11.8944 10.4622 11.8816 10.435 11.8681C10.1859 11.7435 9.73153 11.625 9.03022 11.625C8.32233 11.625 7.71244 11.5274 7.22495 11.3418C7.36519 11.4646 7.45928 11.6388 7.47777 11.835C7.50042 11.8573 7.5493 11.8958 7.64661 11.9444C7.89446 12.0683 8.34554 12.1863 9.04082 12.1875ZM10.6211 3.74893C10.6206 3.74905 10.6182 3.74613 10.6152 3.73982C10.62 3.74565 10.6215 3.74881 10.6211 3.74893ZM10.6152 3.57268C10.6182 3.56637 10.6206 3.56345 10.6211 3.56357C10.6215 3.56369 10.62 3.56684 10.6152 3.57268ZM10.6211 11.9989C10.6206 11.999 10.6182 11.9961 10.6152 11.9898C10.62 11.9957 10.6215 11.9988 10.6211 11.9989ZM10.6152 11.8227C10.6182 11.8164 10.6206 11.8135 10.6211 11.8136C10.6215 11.8137 10.62 11.8168 10.6152 11.8227ZM7.43937 9.75107C7.43981 9.75095 7.44219 9.75386 7.44519 9.76017C7.44042 9.75434 7.43892 9.75119 7.43937 9.75107ZM7.44519 9.92732C7.44219 9.93363 7.43981 9.93655 7.43936 9.93643C7.43892 9.93631 7.44042 9.93315 7.44519 9.92732ZM7.46058 3.56357C7.46014 3.56369 7.46163 3.56684 7.4664 3.57268C7.46341 3.56637 7.46102 3.56345 7.46058 3.56357ZM7.43969 7.68101C7.43932 7.68111 7.44067 7.68395 7.44486 7.68922C7.44215 7.68353 7.44006 7.6809 7.43969 7.68101ZM10.6423 9.93643C10.6427 9.93631 10.6412 9.93315 10.6365 9.92732C10.6395 9.93363 10.6418 9.93655 10.6423 9.93643ZM7.46058 11.8136C7.46014 11.8137 7.46163 11.8168 7.4664 11.8227C7.4634 11.8164 7.46102 11.8135 7.46058 11.8136Z" fill="#252323"/>
</g>
<defs>
<clipPath id="clip0_1054_12080">
<rect width="18" height="18" fill="white"/>
</clipPath>
</defs>
</svg>
