<svg width="23" height="23" viewBox="0 0 23 23" fill="none" xmlns="http://www.w3.org/2000/svg">
<g clip-path="url(#clip0_1234_15184)">
<path fill-rule="evenodd" clip-rule="evenodd" d="M5.552 17.2501H17.927C18.4793 17.2501 18.927 16.8024 18.927 16.2501V16.0704C18.927 15.9217 18.8946 15.7752 18.8315 15.6405C18.7156 15.3935 18.525 14.9945 18.3284 14.6379C18.0632 14.1571 17.7255 13.4298 17.721 12.8807L17.6993 10.2116C17.6949 9.6625 17.2485 9.21973 16.6994 9.21973H6.27892C5.72345 9.21973 5.27443 9.67241 5.27895 10.2279L5.30362 13.2627C5.30667 13.6372 5.08429 13.9665 4.81132 14.2229C4.66528 14.36 4.552 14.5166 4.552 14.6673V16.2502C4.552 16.8025 4.99972 17.2501 5.552 17.2501ZM6.99992 13.0001V11.0001H9.49992L10.9999 12.0001L11.9999 11.0001H15.4999L15.9999 13.0001H6.99992Z" fill="#E05149"/>
<path fill-rule="evenodd" clip-rule="evenodd" d="M4.61704 11.2238C4.61704 9.74647 5.81468 8.54883 7.29204 8.54883H8.17631C8.5491 8.54883 8.85131 8.85104 8.85131 9.22383C8.85131 9.59662 8.5491 9.89883 8.17631 9.89883H7.29204C6.56026 9.89883 5.96704 10.4921 5.96704 11.2238V13.1651C6.10277 13.106 6.24277 13.0549 6.38644 13.0123V12.1405C6.38644 11.243 7.11398 10.5155 8.01144 10.5155H10.3099C10.7932 10.5155 11.2272 10.7265 11.5249 11.0613C11.8225 10.7265 12.2565 10.5155 12.7398 10.5155H15.0383C15.9358 10.5155 16.6633 11.243 16.6633 12.1405V13.0123C16.807 13.0549 16.947 13.106 17.0827 13.1651V11.7554V11.2238C17.0827 10.4921 16.4895 9.89883 15.7577 9.89883H10.6292C10.2564 9.89883 9.95421 9.59662 9.95421 9.22383C9.95421 8.85104 10.2564 8.54883 10.6292 8.54883H15.7577C17.2351 8.54883 18.4327 9.74647 18.4327 11.2238V11.7554V14.1741C18.9692 14.8128 19.2924 15.6368 19.2924 16.5363V17.3697C19.2924 17.7425 18.9902 18.0447 18.6174 18.0447H18.4327V18.8072C18.4327 19.18 18.1305 19.4822 17.7577 19.4822C17.3849 19.4822 17.0827 19.18 17.0827 18.8072V18.0447H15.2578C14.885 18.0447 14.5828 17.7425 14.5828 17.3697C14.5828 16.9969 14.885 16.6947 15.2578 16.6947H17.9424V16.5363C17.9424 15.2523 16.9015 14.2113 15.6174 14.2113H7.43233C6.14826 14.2113 5.10732 15.2523 5.10732 16.5363V16.6947H12.6733C13.0461 16.6947 13.3483 16.9969 13.3483 17.3697C13.3483 17.7425 13.0461 18.0447 12.6733 18.0447H5.96704V18.8072C5.96704 19.18 5.66483 19.4822 5.29204 19.4822C4.91925 19.4822 4.61704 19.18 4.61704 18.8072V18.0447H4.43232C4.05953 18.0447 3.75732 17.7425 3.75732 17.3697V16.5363C3.75732 15.6368 4.08049 14.8128 4.61704 14.174V11.2238ZM12.7398 11.7655C12.5327 11.7655 12.3648 11.9334 12.3648 12.1405V12.8613H15.4133V12.1405C15.4133 11.9334 15.2454 11.7655 15.0383 11.7655H12.7398ZM10.6849 12.8613V12.1405C10.6849 11.9334 10.5171 11.7655 10.3099 11.7655H8.01144C7.80433 11.7655 7.63644 11.9334 7.63644 12.1405V12.8613H10.6849Z" fill="#252323"/>
</g>
<defs>
<clipPath id="clip0_1234_15184">
<rect width="23" height="23" fill="white"/>
</clipPath>
</defs>
</svg>
