<svg width="23" height="23" viewBox="0 0 23 23" fill="none" xmlns="http://www.w3.org/2000/svg">
<g clip-path="url(#clip0_1234_15310)">
<path d="M7.40796 6.5625C7.78075 6.5625 8.08276 6.86451 8.08276 7.2373C8.08276 7.6101 7.78075 7.91211 7.40796 7.91211H6.36206C5.63043 7.91229 5.03687 8.50564 5.03687 9.2373V10.1846C5.49381 9.44933 6.30681 8.95801 7.23608 8.95801H7.4978C7.41283 8.89228 7.35718 8.79054 7.35718 8.6748C7.35718 8.47633 7.51808 8.31543 7.71655 8.31543C7.91503 8.31543 8.07593 8.47633 8.07593 8.6748C8.07593 8.79054 8.02027 8.89228 7.9353 8.95801H8.198C9.17785 8.95813 10.0306 9.50287 10.4705 10.3057C10.6877 10.166 10.9351 10.0709 11.2009 10.0293C11.2384 9.87103 11.3799 9.75308 11.5496 9.75293C11.7263 9.75293 11.872 9.88076 11.9021 10.0488C12.1586 10.1046 12.3949 10.2126 12.6013 10.3604C13.032 9.52787 13.9003 8.95813 14.9021 8.95801H15.1648C15.0797 8.89229 15.0242 8.79063 15.0242 8.6748C15.0242 8.47633 15.1851 8.31543 15.3835 8.31543C15.5819 8.31561 15.7429 8.47644 15.7429 8.6748C15.7429 8.79073 15.6865 8.89229 15.6013 8.95801H15.864C16.7928 8.95801 17.6052 9.44899 18.0623 10.1836V9.2373C18.0623 8.50553 17.4688 7.91211 16.7371 7.91211H9.86108C9.48846 7.91191 9.18628 7.60998 9.18628 7.2373C9.18628 6.86463 9.48846 6.56269 9.86108 6.5625H16.7371C18.2144 6.5625 19.4119 7.75994 19.4119 9.2373V13.0322C20.0076 13.6853 20.3708 14.5542 20.3708 15.5078V16.8203C20.3708 17.193 20.0687 17.4949 19.696 17.4951H19.4119V18.7373C19.4117 19.1099 19.1097 19.4121 18.7371 19.4121C18.3645 19.4119 18.0624 19.1098 18.0623 18.7373V17.4951H15.8376C15.4649 17.4951 15.1619 17.1931 15.1619 16.8203C15.162 16.4477 15.465 16.1455 15.8376 16.1455H19.0203V15.5078C19.0202 14.8879 18.7761 14.326 18.3806 13.9092C18.3012 13.8594 18.2321 13.7952 18.1794 13.7178C17.777 13.3837 17.26 13.1827 16.696 13.1826H6.40405C5.1201 13.1826 4.07903 14.2239 4.07886 15.5078V16.1455H13.2644C13.6371 16.1455 13.94 16.4477 13.9402 16.8203C13.9402 17.1931 13.6372 17.4951 13.2644 17.4951H5.03687V18.7373C5.03669 19.1099 4.73474 19.4121 4.36206 19.4121C3.98953 19.4119 3.68743 19.1098 3.68726 18.7373V17.4951H3.40405C3.03126 17.4951 2.72925 17.1931 2.72925 16.8203V15.5078C2.72933 14.5546 3.09209 13.6862 3.68726 13.0332V9.2373C3.68726 7.76005 4.88485 6.56268 6.36206 6.5625H7.40796ZM7.23608 10.3076C6.55154 10.3076 5.99603 10.8634 5.99585 11.5479V11.8564C6.1299 11.8416 6.26605 11.833 6.40405 11.833H9.43726V11.5479C9.43708 10.8635 8.88239 10.3078 8.198 10.3076H7.23608ZM14.9021 10.3076C14.2177 10.3078 13.662 10.8635 13.6619 11.5479V11.833H16.696C16.8337 11.833 16.9695 11.8417 17.1033 11.8564V11.5479C17.1031 10.8634 16.5486 10.3076 15.864 10.3076H14.9021ZM11.4968 11.3535C11.217 11.3535 10.9886 11.5629 10.9529 11.833H12.0417C12.0061 11.5629 11.7766 11.3536 11.4968 11.3535ZM5.79956 8.31543C5.99804 8.31543 6.15894 8.47633 6.15894 8.6748C6.15894 8.87328 5.99804 9.03418 5.79956 9.03418C5.60123 9.034 5.44019 8.87317 5.44019 8.6748C5.44019 8.47644 5.60123 8.31561 5.79956 8.31543ZM9.63354 8.31543C9.83187 8.31561 9.99292 8.47644 9.99292 8.6748C9.99292 8.87317 9.83187 9.034 9.63354 9.03418C9.43507 9.03418 9.27417 8.87328 9.27417 8.6748C9.27417 8.47633 9.43507 8.31543 9.63354 8.31543ZM11.5496 8.31543C11.748 8.31543 11.9089 8.47633 11.9089 8.6748C11.9089 8.87328 11.748 9.03418 11.5496 9.03418C11.3512 9.034 11.1902 8.87317 11.1902 8.6748C11.1902 8.47644 11.3512 8.31561 11.5496 8.31543ZM13.4666 8.31543C13.665 8.31543 13.8259 8.47633 13.8259 8.6748C13.8259 8.87328 13.665 9.03418 13.4666 9.03418C13.2681 9.03418 13.1072 8.87328 13.1072 8.6748C13.1072 8.47633 13.2681 8.31543 13.4666 8.31543ZM17.2996 8.31543C17.498 8.31543 17.6589 8.47633 17.6589 8.6748C17.6589 8.87328 17.498 9.03418 17.2996 9.03418C17.1012 9.034 16.9402 8.87317 16.9402 8.6748C16.9402 8.47644 17.1012 8.31561 17.2996 8.31543Z" fill="#332A2A"/>
</g>
<defs>
<clipPath id="clip0_1234_15310">
<rect width="23" height="23" fill="white"/>
</clipPath>
</defs>
</svg>
