<svg width="44" height="44" viewBox="0 0 44 44" fill="none" xmlns="http://www.w3.org/2000/svg">
<g clip-path="url(#clip0_1247_16904)">
<path fill-rule="evenodd" clip-rule="evenodd" d="M34.1028 13.1111C36.1021 15.6958 37.2913 18.9374 37.2913 22.4588C37.2911 30.9039 30.4453 37.7496 22.0002 37.7498C16.8933 37.7498 12.3705 35.2473 9.59204 31.3982C9.34958 31.0625 8.88098 30.9869 8.54517 31.2293C8.20937 31.4717 8.13381 31.9403 8.37622 32.2762C11.4245 36.4991 16.3912 39.2498 22.0002 39.2498C31.2738 39.2496 38.7911 31.7323 38.7913 22.4588C38.7913 18.5937 37.4847 15.0314 35.2893 12.1931C34.7106 11.4451 33.6688 11.3491 32.9436 11.867L31.884 12.6238C31.0178 13.243 30.9356 14.4294 31.5286 15.2078C33.0622 17.2201 33.9729 19.7325 33.9729 22.4588C33.9731 22.8728 34.3088 23.2088 34.7229 23.2088C35.1369 23.2086 35.4727 22.8727 35.4729 22.4588C35.4729 19.3927 34.4478 16.5631 32.7219 14.2986C32.5889 14.124 32.6477 13.9223 32.7561 13.8445L33.8147 13.0877C33.9288 13.0062 34.0504 13.0434 34.1028 13.1111ZM33.9817 26.8113C33.6015 26.6473 33.1606 26.8228 32.9963 27.2029C32.4428 28.4839 31.6713 29.6495 30.7288 30.6531C28.5438 32.9794 25.4421 34.4313 22.0002 34.4314C20.0203 34.4314 18.1544 33.9507 16.511 33.1013C16.143 32.9113 15.6904 33.0557 15.5002 33.4236C15.3101 33.7916 15.4545 34.2442 15.8225 34.4344C17.6737 35.3911 19.7752 35.9314 22.0002 35.9314C25.873 35.9313 29.3649 34.2958 31.8215 31.6804C32.8814 30.552 33.75 29.2403 34.3733 27.7976C34.5375 27.4174 34.3619 26.9756 33.9817 26.8113ZM12.51 12.8894C10.1976 15.3329 8.52759 18.8514 8.52759 22.4588C8.52768 26.1743 10.0322 29.5399 12.4641 31.9763C12.7567 32.2695 13.2325 32.27 13.5256 31.9773C13.8185 31.6848 13.8189 31.2099 13.5266 30.9168C11.3638 28.75 10.0277 25.7611 10.0276 22.4588C10.0276 19.2946 11.5069 16.1322 13.5999 13.9207C13.6314 13.8874 13.6717 13.8703 13.7209 13.8709C13.7731 13.8716 13.8324 13.8935 13.8811 13.9422L14.2532 14.3133C15.2628 15.3228 16.9911 14.7639 17.218 13.3543L18.0862 7.95779C18.2801 6.7528 17.2117 5.72429 16.0149 5.96365L10.9377 6.97928C9.57615 7.25179 9.05891 8.92576 10.0295 9.91873L10.2112 10.1043C10.3033 10.1985 10.3226 10.3896 10.1838 10.5271C7.11213 13.5694 5.20825 17.7928 5.20825 22.4588C5.20844 22.8728 5.54415 23.2088 5.95825 23.2088C6.37235 23.2088 6.70806 22.8728 6.70825 22.4588C6.70825 18.2093 8.44066 14.3656 11.2395 11.5935C11.9186 10.921 11.9972 9.78433 11.2844 9.05545L11.1028 8.8699C10.9642 8.72815 11.0375 8.48916 11.2317 8.44998L16.3098 7.43435C16.4806 7.40045 16.6333 7.54752 16.6057 7.71951L15.7366 13.116C15.704 13.3172 15.4579 13.3968 15.3137 13.2527L14.9417 12.8816C14.2912 12.2311 13.1922 12.1686 12.51 12.8894ZM24.4976 17.4992C23.9192 17.3546 23.3081 17.4201 22.7739 17.6848L12.6362 22.7082C12.4686 22.7913 12.3424 22.9382 12.2866 23.1145L12.2671 23.1916L12.2505 23.2785C12.0847 24.1406 12.0739 25.0259 12.2183 25.8918C12.2897 26.3192 12.5995 26.6685 13.0151 26.7912L14.813 27.3225C15.1755 27.4295 15.5563 27.222 15.6636 26.8596C15.7706 26.4969 15.5634 26.1161 15.2007 26.009L13.5474 25.5197C13.4848 25.0773 13.4721 24.63 13.5083 24.1857L20.4478 26.0695C20.3969 26.5607 20.3868 27.0552 20.4175 27.5481L17.2681 26.6184C16.9055 26.5114 16.5247 26.7188 16.4175 27.0813C16.3104 27.4439 16.5177 27.8248 16.8804 27.9318L21.0142 29.1525C21.1968 29.2065 21.3943 29.1824 21.5581 29.0852L26.6987 26.0334C27.0239 25.8404 27.1308 25.4211 26.938 25.0959C26.7451 24.7709 26.3256 24.6631 26.0005 24.8557L21.7778 27.3615C21.7557 26.9088 21.7744 26.4548 21.8335 26.0051L29.8237 21.6438L30.939 21.0334C30.9482 21.3439 30.9265 21.6548 30.8745 21.9621L28.5708 23.3303C28.2456 23.5233 28.1385 23.9436 28.3315 24.2688C28.5245 24.5938 28.9439 24.7008 29.269 24.508L31.7017 23.0647C31.9566 22.9134 32.1357 22.661 32.1938 22.3703C32.3518 21.5803 32.3518 20.7668 32.1938 19.9768L32.1616 19.8186C32.1162 19.5915 31.9599 19.4055 31.7495 19.3195L31.6567 19.2883L28.354 18.4631L26.1646 17.9152L24.4976 17.4992ZM25.3208 19.3869C25.3435 19.2963 25.3457 19.2053 25.3325 19.1184L25.8325 19.2443L28.021 19.7912L29.6235 20.1916L29.4146 20.3059L28.645 20.0852C28.2816 19.9806 27.902 20.1905 27.7974 20.5539C27.7379 20.7608 27.7823 20.9714 27.897 21.135L26.3716 21.967L24.4419 21.4856C24.0752 21.3941 23.7035 21.6169 23.6118 21.9836C23.5201 22.3503 23.7432 22.7218 24.1099 22.8137L24.5981 22.9357L23.355 23.6145L22.5854 23.3938C22.222 23.2891 21.8424 23.4991 21.7378 23.8625C21.6784 24.0691 21.7231 24.2791 21.8374 24.4426L21.1216 24.8332L14.8608 23.133L15.4077 22.8615L17.4038 23.3615C17.7705 23.4529 18.1422 23.2292 18.2339 22.8625C18.3253 22.4959 18.1024 22.1242 17.7358 22.0324L17.3022 21.924L18.6196 21.2707L19.4038 21.4973C19.7672 21.6019 20.1469 21.3919 20.2515 21.0285C20.3053 20.8416 20.2748 20.6511 20.1841 20.4953L22.4478 19.3742L24.4897 19.885C24.8566 19.9767 25.229 19.7537 25.3208 19.3869Z" fill="#332A2A"/>
</g>
<defs>
<clipPath id="clip0_1247_16904">
<rect width="44" height="44" fill="white"/>
</clipPath>
</defs>
</svg>
