<svg width="28" height="28" viewBox="0 0 28 28" fill="none" xmlns="http://www.w3.org/2000/svg">
<g clip-path="url(#clip0_1235_15662)">
<path fill-rule="evenodd" clip-rule="evenodd" d="M21.9481 15.8606L24.9613 14.0723C25.0394 14.026 25.0956 13.9504 25.1177 13.8624C25.2874 13.1836 25.3156 12.4771 25.2005 11.7869L25.0833 11.0833L21.1364 10.0966L18.5211 9.44272L16.4637 8.92837C16.0029 8.81318 15.5162 8.86571 15.0907 9.07656L9.62493 11.7846L2.9166 15.1084L2.89678 15.2114C2.71698 16.1463 2.70506 17.1057 2.86157 18.0448C2.89523 18.2467 3.04125 18.4117 3.23762 18.4697L12.7969 21.2916L17.0584 18.7625C17.5289 17.0267 19.1153 15.7499 20.9999 15.7499C21.3263 15.7499 21.6438 15.7882 21.9481 15.8606Z" fill="#E05149"/>
<path fill-rule="evenodd" clip-rule="evenodd" d="M17.6358 9.99443C17.673 10.119 17.6783 10.2549 17.6444 10.3902C17.544 10.792 17.1368 11.0363 16.7349 10.9359L14.2709 10.3199L11.4765 11.7044C11.6059 11.8846 11.6544 12.1201 11.5883 12.3498C11.4737 12.7478 11.0581 12.9776 10.6601 12.863L9.69737 12.5859L7.93301 13.4601L8.63074 13.6345C9.03259 13.735 9.27691 14.1422 9.17645 14.544C9.07598 14.9458 8.66878 15.1902 8.26694 15.0897L5.85891 14.4877L5.02127 14.9027L12.7025 16.9887L13.6491 16.4719C13.4889 16.2865 13.4225 16.0264 13.4954 15.7734C13.61 15.3753 14.0255 15.1455 14.4236 15.2601L15.3697 15.5325L17.0336 14.624L16.2811 14.4359C15.8792 14.3354 15.6349 13.9282 15.7354 13.5264C15.8358 13.1245 16.243 12.8802 16.6449 12.9807L18.976 13.5634L20.8897 12.5186C20.7295 12.3332 20.6632 12.0731 20.736 11.82C20.8506 11.422 21.2662 11.1922 21.6642 11.3068L22.6103 11.5791L23.0388 11.3452L20.9548 10.8242L18.3394 10.1703L17.6358 9.99443ZM24.4901 12.2618L23.0585 13.0434L19.4396 15.0193L19.4355 15.0216L15.8184 16.9965L15.8174 16.9971L13.4814 18.2725C13.4017 18.8623 13.3799 19.4583 13.4163 20.052L16.4351 18.2604C17.0951 16.3623 18.8999 15 21.0228 15C21.2941 15 21.5602 15.0222 21.8193 15.065L24.4116 13.5266C24.4846 13.1085 24.5108 12.6843 24.4901 12.2618ZM23.6105 15.7463L25.301 14.743C25.589 14.5721 25.791 14.287 25.8566 13.9586C26.0437 13.0232 26.0437 12.06 25.8566 11.1246L25.8189 10.9362C25.7621 10.652 25.5466 10.426 25.2654 10.3557L21.3186 9.36895L18.7032 8.71511L16.6458 8.20076C16.0123 8.04238 15.3431 8.11461 14.758 8.40453L9.29479 11.1113L9.29 11.1137L2.58387 14.4363C2.37388 14.5404 2.2246 14.7366 2.18034 14.9667L2.16052 15.0698C1.96391 16.0921 1.95087 17.1412 2.12202 18.1681C2.20289 18.6533 2.55373 19.0497 3.02552 19.189L5.17457 19.8234C5.57184 19.9407 5.98895 19.7137 6.10623 19.3164C6.2235 18.9192 5.99652 18.5021 5.59925 18.3848L3.58077 17.7889C3.49577 17.2136 3.4802 16.6308 3.53391 16.0531L11.9619 18.3419C11.8927 18.9764 11.8808 19.6158 11.9264 20.2526L8.06933 19.114C7.67206 18.9967 7.25495 19.2237 7.13767 19.6209C7.0204 20.0182 7.24738 20.4353 7.64464 20.5526L12.5848 22.0109C12.7849 22.07 13.0005 22.043 13.1799 21.9366L16.1762 20.1584C16.3323 22.6993 18.4426 24.7118 21.0228 24.7118C23.7047 24.7118 25.8788 22.5378 25.8788 19.8559C25.8788 19.4417 25.543 19.1059 25.1288 19.1059C24.7146 19.1059 24.3788 19.4417 24.3788 19.8559C24.3788 21.7093 22.8763 23.2118 21.0228 23.2118C19.1694 23.2118 17.6669 21.7093 17.6669 19.8559C17.6669 18.0025 19.1694 16.5 21.0228 16.5C22.1894 16.5 23.2174 17.0946 23.8199 18.0007C24.0492 18.3456 24.5148 18.4394 24.8597 18.21C25.2046 17.9807 25.2983 17.5151 25.069 17.1702C24.6894 16.5993 24.1917 16.113 23.6105 15.7463ZM19.1234 18.1475C19.1234 17.8714 19.3472 17.6475 19.6234 17.6475H22.4234C22.6995 17.6475 22.9234 17.8714 22.9234 18.1475C22.9234 18.4237 22.6995 18.6475 22.4234 18.6475H19.6234C19.3472 18.6475 19.1234 18.4237 19.1234 18.1475ZM19.6234 18.814C19.3472 18.814 19.1234 19.0378 19.1234 19.314C19.1234 19.5901 19.3472 19.814 19.6234 19.814H22.4234C22.6995 19.814 22.9234 19.5901 22.9234 19.314C22.9234 19.0378 22.6995 18.814 22.4234 18.814H19.6234ZM19.1234 20.4807C19.1234 20.2045 19.3472 19.9807 19.6234 19.9807H22.4234C22.6995 19.9807 22.9234 20.2045 22.9234 20.4807C22.9234 20.7568 22.6995 20.9807 22.4234 20.9807H19.6234C19.3472 20.9807 19.1234 20.7568 19.1234 20.4807ZM19.6234 21.1474C19.3472 21.1474 19.1234 21.3712 19.1234 21.6474C19.1234 21.9235 19.3472 22.1474 19.6234 22.1474H22.4234C22.6995 22.1474 22.9234 21.9235 22.9234 21.6474C22.9234 21.3712 22.6995 21.1474 22.4234 21.1474H19.6234Z" fill="#252323"/>
</g>
<defs>
<clipPath id="clip0_1235_15662">
<rect width="28" height="28" fill="white"/>
</clipPath>
</defs>
</svg>
