<svg width="44" height="44" viewBox="0 0 44 44" fill="none" xmlns="http://www.w3.org/2000/svg">
<g clip-path="url(#clip0_666_7173)">
<path d="M39.2963 17.4323L40.0317 17.2852C39.9749 17.001 39.7594 16.775 39.4782 16.7047L39.2963 17.4323ZM19.9891 33.474L19.7768 34.1933C19.9769 34.2523 20.1925 34.2254 20.3719 34.1189L19.9891 33.474ZM4.46297 23.7575L4.13 23.0854C3.92001 23.1895 3.77073 23.3857 3.72647 23.6158L4.46297 23.7575ZM35.5494 19.4781L35.9088 20.1364V20.1364L35.5494 19.4781ZM28.9843 14.8543L29.1662 14.1267V14.1267L28.9843 14.8543ZM33.0941 15.8817L33.276 15.1541L33.0941 15.8817ZM22.5351 14.3022C22.1332 14.2018 21.726 14.4461 21.6256 14.8479C21.5251 15.2498 21.7694 15.657 22.1713 15.7574L22.5351 14.3022ZM26.2811 16.7849C26.6829 16.8854 27.0901 16.641 27.1906 16.2392C27.291 15.8373 27.0467 15.4301 26.6449 15.3297L26.2811 16.7849ZM25.9316 20.8297C25.5298 20.7292 25.1226 20.9735 25.0221 21.3754C24.9217 21.7772 25.166 22.1844 25.5678 22.2849L25.9316 20.8297ZM29.6776 23.3124C30.0795 23.4128 30.4867 23.1685 30.5871 22.7666C30.6876 22.3648 30.4433 21.9576 30.0414 21.8571L29.6776 23.3124ZM9.22821 20.8297C8.82636 20.7292 8.41916 20.9735 8.3187 21.3754C8.21824 21.7772 8.46256 22.1844 8.8644 22.2849L9.22821 20.8297ZM12.9742 23.3124C13.3761 23.4128 13.7833 23.1685 13.8837 22.7666C13.9842 22.3648 13.7399 21.9576 13.338 21.8571L12.9742 23.3124ZM33.8045 18.1953C33.4065 18.0808 32.9909 18.3105 32.8763 18.7086C32.7618 19.1066 32.9915 19.5222 33.3896 19.6368L33.8045 18.1953ZM23.9638 26.4112C24.3619 26.5258 24.7775 26.296 24.892 25.898C25.0066 25.4999 24.7768 25.0844 24.3788 24.9698L23.9638 26.4112ZM22.4264 24.4078C22.0284 24.2932 21.6128 24.523 21.4982 24.921C21.3837 25.3191 21.6134 25.7346 22.0115 25.8492L22.4264 24.4078ZM16.7495 19.8172C17.1475 19.9318 17.5631 19.702 17.6777 19.304C17.7923 18.9059 17.5625 18.4903 17.1645 18.3757L16.7495 19.8172ZM15.2121 17.8137C14.8141 17.6991 14.3985 17.9289 14.2839 18.327C14.1693 18.725 14.3991 19.1406 14.7972 19.2552L15.2121 17.8137ZM12.4384 30.463C12.0411 30.3457 11.624 30.5727 11.5067 30.9699C11.3895 31.3672 11.6164 31.7843 12.0137 31.9016L12.4384 30.463ZM8.13217 30.7558C8.52944 30.873 8.94655 30.6461 9.06383 30.2488C9.1811 29.8515 8.95412 29.4344 8.55686 29.3171L8.13217 30.7558ZM30.0255 28.3898C30.3817 28.1784 30.4991 27.7182 30.2877 27.362C30.0763 27.0058 29.6162 26.8884 29.26 27.0998L30.0255 28.3898ZM34.0867 24.2352C33.7305 24.4466 33.6131 24.9068 33.8245 25.263C34.0359 25.6192 34.4961 25.7366 34.8523 25.5252L34.0867 24.2352ZM39.3555 17.7285L38.6201 17.8755L39.3555 17.7285ZM23.9704 14.0923L24.3034 14.7643L23.9704 14.0923ZM4.96743 29.0395L4.75509 29.7589L4.96743 29.0395ZM39.0366 22.1698L38.6538 21.5248L39.0366 22.1698ZM4.26641 24.4813L19.7926 28.6977L20.1857 27.2502L4.65953 23.0337L4.26641 24.4813ZM4.79594 24.4295L24.3034 14.7643L23.6374 13.4202L4.13 23.0854L4.79594 24.4295ZM20.3486 28.6322L35.9088 20.1364L35.19 18.8198L19.6297 27.3157L20.3486 28.6322ZM35.9088 20.1364L39.6557 18.0906L38.9369 16.774L35.19 18.8198L35.9088 20.1364ZM25.1615 14.6717L28.8024 15.5819L29.1662 14.1267L25.5253 13.2165L25.1615 14.6717ZM28.8024 15.5819L32.9122 16.6093L33.276 15.1541L29.1662 14.1267L28.8024 15.5819ZM32.9122 16.6093L39.1144 18.1599L39.4782 16.7047L33.276 15.1541L32.9122 16.6093ZM22.1713 15.7574L26.2811 16.7849L26.6449 15.3297L22.5351 14.3022L22.1713 15.7574ZM25.5678 22.2849L29.6776 23.3124L30.0414 21.8571L25.9316 20.8297L25.5678 22.2849ZM8.8644 22.2849L12.9742 23.3124L13.338 21.8571L9.22821 20.8297L8.8644 22.2849ZM33.3896 19.6368L35.3419 20.1988L35.7569 18.7574L33.8045 18.1953L33.3896 19.6368ZM22.0115 25.8492L23.9638 26.4112L24.3788 24.9698L22.4264 24.4078L22.0115 25.8492ZM14.7972 19.2552L16.7495 19.8172L17.1645 18.3757L15.2121 17.8137L14.7972 19.2552ZM19.1324 32.6672L19.2449 33.567L20.7333 33.3809L20.6208 32.4811L19.1324 32.6672ZM3.72647 23.6158L3.69533 23.7777L5.16834 24.061L5.19947 23.8991L3.72647 23.6158ZM40.091 17.5814L40.0317 17.2852L38.5609 17.5794L38.6201 17.8755L40.091 17.5814ZM12.0137 31.9016L19.7768 34.1933L20.2015 32.7546L12.4384 30.463L12.0137 31.9016ZM4.75509 29.7589L8.13217 30.7558L8.55686 29.3171L5.17977 28.3202L4.75509 29.7589ZM20.3719 34.1189L30.0255 28.3898L29.26 27.0998L19.6064 32.829L20.3719 34.1189ZM34.8523 25.5252L39.4193 22.8147L38.6538 21.5248L34.0867 24.2352L34.8523 25.5252ZM40.091 21.8665C40.3739 20.4522 40.3739 18.9958 40.091 17.5814L38.6201 17.8755C38.8641 19.0957 38.8641 20.3522 38.6201 21.5724L40.091 21.8665ZM3.69533 23.7777C3.39598 25.3342 3.37613 26.9316 3.63671 28.4951L5.1163 28.2485C4.88499 26.8607 4.90261 25.4427 5.16834 24.061L3.69533 23.7777ZM19.2504 27.8446C18.9716 29.4374 18.9318 31.0628 19.1324 32.6672L20.6208 32.4811C20.4387 31.0246 20.4748 29.5491 20.7279 28.1033L19.2504 27.8446ZM24.3034 14.7643C24.5693 14.6325 24.8735 14.5997 25.1615 14.6717L25.5253 13.2165C24.8918 13.0581 24.2226 13.1303 23.6374 13.4202L24.3034 14.7643ZM3.63671 28.4951C3.73681 29.0957 4.17109 29.5865 4.75509 29.7589L5.17977 28.3202C5.14663 28.3104 5.12198 28.2826 5.1163 28.2485L3.63671 28.4951ZM38.6201 21.5724C38.6241 21.5525 38.6363 21.5352 38.6538 21.5248L39.4193 22.8147C39.7675 22.6081 40.0116 22.2635 40.091 21.8665L38.6201 21.5724Z" fill="#332A2A"/>
</g>
<defs>
<clipPath id="clip0_666_7173">
<rect width="44" height="44" fill="white"/>
</clipPath>
</defs>
</svg>
