<svg width="23" height="23" viewBox="0 0 23 23" fill="none" xmlns="http://www.w3.org/2000/svg">
<g clip-path="url(#clip0_1234_15463)">
<path fill-rule="evenodd" clip-rule="evenodd" d="M6.70845 5.0752C4.4832 5.0752 2.67928 6.87912 2.67928 9.10436V13.0823C2.67928 13.0892 2.67938 13.0961 2.67959 13.103C2.08408 13.7561 1.72095 14.6248 1.72095 15.5783V16.8255C1.72095 17.1983 2.02316 17.5005 2.39595 17.5005H2.67928V18.7463C2.67928 19.1191 2.98149 19.4213 3.35428 19.4213C3.72707 19.4213 4.02928 19.1191 4.02928 18.7463V17.5005H12.2646C12.6374 17.5005 12.9396 17.1983 12.9396 16.8255C12.9396 16.4527 12.6374 16.1505 12.2646 16.1505H3.07095V15.5783C3.07095 14.2943 4.11189 13.2533 5.39595 13.2533H17.6043C18.8883 13.2533 19.9293 14.2943 19.9293 15.5783V16.1505H16.2918C15.919 16.1505 15.6168 16.4527 15.6168 16.8255C15.6168 17.1983 15.919 17.5005 16.2918 17.5005H18.9709V18.7463C18.9709 19.1191 19.2732 19.4213 19.6459 19.4213C20.0187 19.4213 20.3209 19.1191 20.3209 18.7463V17.5005H20.6043C20.9771 17.5005 21.2793 17.1983 21.2793 16.8255V15.5783C21.2793 14.6248 20.9161 13.7561 20.3206 13.103C20.3208 13.0961 20.3209 13.0892 20.3209 13.0823V9.22415C20.3209 6.93275 18.4634 5.0752 16.172 5.0752H11.5001H10.6293C10.2565 5.0752 9.95433 5.3774 9.95433 5.7502C9.95433 6.12299 10.2565 6.4252 10.6293 6.4252H11.5001H16.172C17.7178 6.4252 18.9709 7.67833 18.9709 9.22415V10.9049C18.7573 10.6974 18.4659 10.5696 18.1446 10.5696C18.0163 10.5696 17.8927 10.59 17.777 10.6277C17.7104 10.4652 17.6278 10.3109 17.5311 10.1669C17.5802 10.1055 17.6095 10.0276 17.6095 9.9429C17.6095 9.74443 17.4486 9.58353 17.2501 9.58353C17.1802 9.58353 17.115 9.60349 17.0598 9.63802C16.6075 9.25208 16.0208 9.01909 15.3796 9.01909H14.7859C13.7535 9.01909 12.8621 9.62325 12.4462 10.4973C12.243 10.3547 12.0128 10.2478 11.7648 10.186C11.8236 10.122 11.8595 10.0366 11.8595 9.9429C11.8595 9.74443 11.6986 9.58353 11.5001 9.58353C11.3016 9.58353 11.1407 9.74443 11.1407 9.9429C11.1407 10.0099 11.1591 10.0726 11.191 10.1262C10.8513 10.1383 10.5325 10.2328 10.2542 10.3902C9.81825 9.57427 8.95823 9.01909 7.96853 9.01909H7.37478C6.76432 9.01909 6.20319 9.23032 5.76049 9.58368L5.75011 9.58353C5.55164 9.58353 5.39074 9.74443 5.39074 9.9429L5.39074 9.94434C5.21921 10.1486 5.07863 10.3797 4.97625 10.6305C4.85806 10.591 4.73159 10.5696 4.60011 10.5696C4.39318 10.5696 4.19863 10.6226 4.02928 10.7158V9.10436C4.02928 7.6247 5.22879 6.4252 6.70845 6.4252H7.4272C7.79999 6.4252 8.1022 6.12299 8.1022 5.7502C8.1022 5.3774 7.79999 5.0752 7.4272 5.0752H6.70845ZM13.5462 11.6088C13.5462 10.9241 14.1012 10.3691 14.7859 10.3691H15.3796C16.0643 10.3691 16.6193 10.9241 16.6193 11.6088V11.9033H13.5462V11.6088ZM9.2082 11.9033H6.13512V11.6088C6.13512 10.9241 6.69014 10.3691 7.37478 10.3691H7.96853C8.65318 10.3691 9.2082 10.9241 9.2082 11.6088V11.9033ZM11.2654 11.4749C10.9738 11.4749 10.7234 11.6514 10.6153 11.9033H11.9155C11.8073 11.6514 11.557 11.4749 11.2654 11.4749ZM17.2501 7.54707C17.4486 7.54707 17.6095 7.38617 17.6095 7.1877C17.6095 6.98922 17.4486 6.82832 17.2501 6.82832C17.0516 6.82832 16.8907 6.98922 16.8907 7.1877C16.8907 7.38617 17.0516 7.54707 17.2501 7.54707ZM17.6095 8.6252C17.6095 8.82367 17.4486 8.98457 17.2501 8.98457C17.0516 8.98457 16.8907 8.82367 16.8907 8.6252C16.8907 8.42672 17.0516 8.26582 17.2501 8.26582C17.4486 8.26582 17.6095 8.42672 17.6095 8.6252ZM13.7762 7.1877C13.7762 7.38617 13.6153 7.54707 13.4168 7.54707C13.2183 7.54707 13.0574 7.38617 13.0574 7.1877C13.0574 6.98922 13.2183 6.82832 13.4168 6.82832C13.6153 6.82832 13.7762 6.98922 13.7762 7.1877ZM13.4168 8.98457C13.6153 8.98457 13.7762 8.82367 13.7762 8.6252C13.7762 8.42672 13.6153 8.26582 13.4168 8.26582C13.2183 8.26582 13.0574 8.42672 13.0574 8.6252C13.0574 8.82367 13.2183 8.98457 13.4168 8.98457ZM9.94282 7.1877C9.94282 7.38617 9.78193 7.54707 9.58345 7.54707C9.38497 7.54707 9.22407 7.38617 9.22407 7.1877C9.22407 6.98922 9.38497 6.82832 9.58345 6.82832C9.78193 6.82832 9.94282 6.98922 9.94282 7.1877ZM9.58345 8.98457C9.78193 8.98457 9.94282 8.82367 9.94282 8.6252C9.94282 8.42672 9.78193 8.26582 9.58345 8.26582C9.38497 8.26582 9.22407 8.42672 9.22407 8.6252C9.22407 8.82367 9.38497 8.98457 9.58345 8.98457ZM6.10949 7.1877C6.10949 7.38617 5.94859 7.54707 5.75011 7.54707C5.55164 7.54707 5.39074 7.38617 5.39074 7.1877C5.39074 6.98922 5.55164 6.82832 5.75011 6.82832C5.94859 6.82832 6.10949 6.98922 6.10949 7.1877ZM5.75011 8.98457C5.94859 8.98457 6.10949 8.82367 6.10949 8.6252C6.10949 8.42672 5.94859 8.26582 5.75011 8.26582C5.55164 8.26582 5.39074 8.42672 5.39074 8.6252C5.39074 8.82367 5.55164 8.98457 5.75011 8.98457ZM15.3334 7.54707C15.5319 7.54707 15.6928 7.38617 15.6928 7.1877C15.6928 6.98922 15.5319 6.82832 15.3334 6.82832C15.135 6.82832 14.9741 6.98922 14.9741 7.1877C14.9741 7.38617 15.135 7.54707 15.3334 7.54707ZM15.6928 8.6252C15.6928 8.82367 15.5319 8.98457 15.3334 8.98457C15.135 8.98457 14.9741 8.82367 14.9741 8.6252C14.9741 8.42672 15.135 8.26582 15.3334 8.26582C15.5319 8.26582 15.6928 8.42672 15.6928 8.6252ZM11.5001 7.54707C11.6986 7.54707 11.8595 7.38617 11.8595 7.1877C11.8595 6.98922 11.6986 6.82832 11.5001 6.82832C11.3016 6.82832 11.1407 6.98922 11.1407 7.1877C11.1407 7.38617 11.3016 7.54707 11.5001 7.54707ZM11.8595 8.6252C11.8595 8.82367 11.6986 8.98457 11.5001 8.98457C11.3016 8.98457 11.1407 8.82367 11.1407 8.6252C11.1407 8.42672 11.3016 8.26582 11.5001 8.26582C11.6986 8.26582 11.8595 8.42672 11.8595 8.6252ZM8.02616 7.1877C8.02616 7.38617 7.86526 7.54707 7.66678 7.54707C7.4683 7.54707 7.30741 7.38617 7.30741 7.1877C7.30741 6.98922 7.4683 6.82832 7.66678 6.82832C7.86526 6.82832 8.02616 6.98922 8.02616 7.1877ZM7.66678 8.98457C7.86526 8.98457 8.02616 8.82367 8.02616 8.6252C8.02616 8.42672 7.86526 8.26582 7.66678 8.26582C7.4683 8.26582 7.30741 8.42672 7.30741 8.6252C7.30741 8.82367 7.4683 8.98457 7.66678 8.98457Z" fill="#252323"/>
</g>
<defs>
<clipPath id="clip0_1234_15463">
<rect width="23" height="23" fill="white"/>
</clipPath>
</defs>
</svg>
