<svg width="44" height="44" viewBox="0 0 44 44" fill="none" xmlns="http://www.w3.org/2000/svg">
<g clip-path="url(#clip0_1234_15308)">
<path d="M15.4656 13C15.8798 13 16.2156 13.3358 16.2156 13.75C16.2156 14.1642 15.8798 14.5 15.4656 14.5H11.5906C10.3481 14.5002 9.34058 15.5075 9.34058 16.75V23.1064C9.45054 23.0943 9.56194 23.0874 9.67456 23.085V20.248C9.67474 18.7765 10.8681 17.583 12.3396 17.583H17.6765C19.1479 17.5832 20.3414 18.7766 20.3416 20.248V20.6035C20.6936 20.432 21.0878 20.3331 21.5056 20.333H23.1755C23.5937 20.333 23.9883 20.4328 24.3406 20.6045V20.248C24.3408 18.7767 25.5342 17.5832 27.0056 17.583H32.3425C33.8141 17.583 35.0074 18.7765 35.0076 20.248V23.085C35.1199 23.0874 35.2309 23.0943 35.3406 23.1064V21.583C35.3406 21.1689 35.6765 20.8332 36.0906 20.833C36.5048 20.833 36.8406 21.1688 36.8406 21.583V23.6094C37.9386 24.2634 38.6744 25.4622 38.6746 26.833V32.083C38.6746 32.4971 38.3386 32.8328 37.9246 32.833H36.8406V35.75C36.8404 36.1641 36.5047 36.5 36.0906 36.5C35.6766 36.4998 35.3408 36.164 35.3406 35.75V32.833H30.5427C30.1285 32.833 29.7927 32.4972 29.7927 32.083C29.7929 31.6689 30.1286 31.333 30.5427 31.333H37.1746V26.833C37.1744 25.5906 36.1669 24.5832 34.9246 24.583H9.75757C8.51504 24.583 7.50774 25.5905 7.50757 26.833V31.333H25.6218C26.0358 31.3331 26.3716 31.669 26.3718 32.083C26.3718 32.4971 26.0359 32.8329 25.6218 32.833H9.34058V35.75C9.3404 36.1641 9.00468 36.5 8.59058 36.5C8.17662 36.4998 7.84075 36.164 7.84058 35.75V32.833H6.75757C6.34335 32.833 6.00757 32.4972 6.00757 32.083V26.833C6.00768 25.4626 6.74315 24.2645 7.84058 23.6104V16.75C7.84058 14.679 9.51966 13.0002 11.5906 13H15.4656ZM12.3396 19.083C11.6965 19.083 11.1747 19.605 11.1746 20.248V23.083H18.8406V22.998C18.8406 22.9915 18.8415 22.985 18.8416 22.9785V20.248C18.8414 19.6051 18.3195 19.0832 17.6765 19.083H12.3396ZM21.5056 21.833C20.8695 21.8332 20.3527 22.344 20.3416 22.9775V23.083H24.3406V22.998C24.3404 22.355 23.8187 21.833 23.1755 21.833H21.5056ZM27.0056 19.083C26.3626 19.0832 25.8408 19.6051 25.8406 20.248V23.083H33.5076V20.248C33.5074 19.605 32.9856 19.083 32.3425 19.083H27.0056ZM22.3406 18.5625C22.7203 18.5625 23.0281 18.8703 23.0281 19.25C23.0281 19.6297 22.7203 19.9375 22.3406 19.9375C21.961 19.9373 21.6531 19.6296 21.6531 19.25C21.6531 18.8704 21.961 18.5627 22.3406 18.5625ZM33.0906 13C35.1616 13 36.8406 14.6789 36.8406 16.75V18.9717C36.8406 19.3859 36.5048 19.7217 36.0906 19.7217C35.6765 19.7215 35.3406 19.3858 35.3406 18.9717V16.75C35.3406 15.5074 34.3332 14.5 33.0906 14.5H18.9031C18.489 14.4998 18.1531 14.1641 18.1531 13.75C18.1531 13.3359 18.489 13.0002 18.9031 13H33.0906ZM11.3406 15.8125C11.7203 15.8125 12.0281 16.1203 12.0281 16.5C12.0281 16.8797 11.7203 17.1875 11.3406 17.1875C10.961 17.1873 10.6531 16.8796 10.6531 16.5C10.6531 16.1204 10.961 15.8127 11.3406 15.8125ZM15.0076 15.8125C15.3873 15.8125 15.6951 16.1203 15.6951 16.5C15.6951 16.8797 15.3873 17.1875 15.0076 17.1875C14.6279 17.1875 14.3201 16.8797 14.3201 16.5C14.3201 16.1203 14.6279 15.8125 15.0076 15.8125ZM18.6746 15.8125C19.0541 15.8127 19.3621 16.1204 19.3621 16.5C19.3621 16.8796 19.0541 17.1873 18.6746 17.1875C18.2949 17.1875 17.9871 16.8797 17.9871 16.5C17.9871 16.1203 18.2949 15.8125 18.6746 15.8125ZM22.3406 15.8125C22.7203 15.8125 23.0281 16.1203 23.0281 16.5C23.0281 16.8797 22.7203 17.1875 22.3406 17.1875C21.961 17.1873 21.6531 16.8796 21.6531 16.5C21.6531 16.1204 21.961 15.8127 22.3406 15.8125ZM26.0076 15.8125C26.3873 15.8125 26.6951 16.1203 26.6951 16.5C26.6951 16.8797 26.3873 17.1875 26.0076 17.1875C25.6279 17.1875 25.3201 16.8797 25.3201 16.5C25.3201 16.1203 25.6279 15.8125 26.0076 15.8125ZM29.6746 15.8125C30.0541 15.8127 30.3621 16.1204 30.3621 16.5C30.3621 16.8796 30.0541 17.1873 29.6746 17.1875C29.2949 17.1875 28.9871 16.8797 28.9871 16.5C28.9871 16.1203 29.2949 15.8125 29.6746 15.8125ZM33.3406 15.8125C33.7203 15.8125 34.0281 16.1203 34.0281 16.5C34.0281 16.8797 33.7203 17.1875 33.3406 17.1875C32.961 17.1873 32.6531 16.8796 32.6531 16.5C32.6531 16.1204 32.961 15.8127 33.3406 15.8125Z" fill="#332A2A"/>
</g>
<defs>
<clipPath id="clip0_1234_15308">
<rect width="44" height="44" fill="white"/>
</clipPath>
</defs>
</svg>
