<svg width="28" height="28" viewBox="0 0 28 28" fill="none" xmlns="http://www.w3.org/2000/svg">
<g clip-path="url(#clip0_666_7198)">
<path d="M25.0067 11.0931L25.7421 10.946C25.6853 10.6618 25.4698 10.4358 25.1886 10.3655L25.0067 11.0931ZM12.7203 21.3014L12.508 22.0207C12.708 22.0798 12.9237 22.0529 13.1031 21.9464L12.7203 21.3014ZM2.84001 15.1182L2.50704 14.4462C2.29705 14.5502 2.14776 14.7464 2.1035 14.9766L2.84001 15.1182ZM22.6223 12.395L22.9817 13.0532V13.0532L22.6223 12.395ZM18.4445 9.45255L18.6264 8.72495L18.6264 8.72495L18.4445 9.45255ZM21.0598 10.1064L21.2417 9.37878L21.0598 10.1064ZM14.4066 8.83666C14.0047 8.7362 13.5975 8.98052 13.4971 9.38236C13.3966 9.78421 13.6409 10.1914 14.0428 10.2919L14.4066 8.83666ZM16.6581 10.9457C17.06 11.0462 17.4672 10.8018 17.5676 10.4C17.6681 9.99815 17.4238 9.59095 17.0219 9.49049L16.6581 10.9457ZM16.568 12.9905C16.1662 12.89 15.759 13.1344 15.6585 13.5362C15.5581 13.938 15.8024 14.3452 16.2042 14.4457L16.568 12.9905ZM18.8196 15.0995C19.2214 15.2 19.6286 14.9557 19.7291 14.5538C19.8295 14.152 19.5852 13.7448 19.1834 13.6443L18.8196 15.0995ZM5.93858 12.9905C5.53673 12.89 5.12953 13.1344 5.02907 13.5362C4.9286 13.938 5.17293 14.3452 5.57477 14.4457L5.93858 12.9905ZM8.1901 15.0995C8.59195 15.2 8.99915 14.9557 9.09961 14.5538C9.20007 14.152 8.95575 13.7448 8.55391 13.6443L8.1901 15.0995ZM21.5874 11.3166C21.1893 11.202 20.7737 11.4318 20.6592 11.8298C20.5446 12.2279 20.7744 12.6435 21.1724 12.7581L21.5874 11.3166ZM15.1742 17.0691C15.5722 17.1836 15.9878 16.9539 16.1024 16.5558C16.217 16.1578 15.9872 15.7422 15.5891 15.6276L15.1742 17.0691ZM14.3468 15.2699C13.9487 15.1554 13.5331 15.3852 13.4185 15.7832C13.304 16.1813 13.5338 16.5968 13.9318 16.7114L14.3468 15.2699ZM10.5833 12.8729C10.9813 12.9874 11.3969 12.7576 11.5115 12.3596C11.6261 11.9616 11.3963 11.546 10.9982 11.4314L10.5833 12.8729ZM9.75582 11.0737C9.35777 10.9592 8.94219 11.189 8.82761 11.587C8.71302 11.9851 8.94281 12.4006 9.34086 12.5152L9.75582 11.0737ZM7.99249 19.1238C7.59523 19.0065 7.17811 19.2335 7.06084 19.6308C6.94356 20.028 7.17054 20.4451 7.56781 20.5624L7.99249 19.1238ZM5.09774 19.8332C5.495 19.9505 5.91212 19.7235 6.02939 19.3263C6.14666 18.929 5.91969 18.5119 5.52242 18.3946L5.09774 19.8332ZM19.2463 18.3006C19.6025 18.0892 19.7199 17.629 19.5085 17.2728C19.2971 16.9166 18.8369 16.7992 18.4807 17.0106L19.2463 18.3006ZM21.5523 15.1877C21.1961 15.3991 21.0787 15.8592 21.2901 16.2155C21.5015 16.5717 21.9616 16.6891 22.3179 16.4777L21.5523 15.1877ZM25.0444 11.2816L25.7798 11.1345L25.0444 11.2816ZM12.6487 20.7288L11.9045 20.8219L12.6487 20.7288ZM15.0141 9.08639L14.6811 8.41436L15.0141 9.08639ZM3.16102 18.4795L3.37337 17.7602L3.16102 18.4795ZM24.8414 14.1079L25.2242 14.7528L24.8414 14.1079ZM2.64345 15.842L12.5237 18.5252L12.9169 17.0776L3.03657 14.3944L2.64345 15.842ZM3.17298 15.7902L15.3471 9.75843L14.6811 8.41436L2.50704 14.4462L3.17298 15.7902ZM13.0797 18.4597L22.9817 13.0532L22.2629 11.7367L12.3609 17.1432L13.0797 18.4597ZM22.9817 13.0532L25.3661 11.7514L24.6473 10.4348L22.2629 11.7367L22.9817 13.0532ZM16.2052 9.66581L18.2626 10.1802L18.6264 8.72495L16.569 8.2106L16.2052 9.66581ZM18.2626 10.1802L20.8779 10.834L21.2417 9.37878L18.6264 8.72495L18.2626 10.1802ZM20.8779 10.834L24.8248 11.8207L25.1886 10.3655L21.2417 9.37878L20.8779 10.834ZM14.0428 10.2919L16.6581 10.9457L17.0219 9.49049L14.4066 8.83666L14.0428 10.2919ZM16.2042 14.4457L18.8196 15.0995L19.1834 13.6443L16.568 12.9905L16.2042 14.4457ZM5.57477 14.4457L8.1901 15.0995L8.55391 13.6443L5.93858 12.9905L5.57477 14.4457ZM21.1724 12.7581L22.4148 13.1157L22.8298 11.6742L21.5874 11.3166L21.1724 12.7581ZM13.9318 16.7114L15.1742 17.0691L15.5891 15.6276L14.3468 15.2699L13.9318 16.7114ZM9.34086 12.5152L10.5833 12.8729L10.9982 11.4314L9.75582 11.0737L9.34086 12.5152ZM11.9045 20.8219L11.9761 21.3945L13.4645 21.2084L13.3929 20.6358L11.9045 20.8219ZM2.1035 14.9766L2.08369 15.0796L3.55669 15.3629L3.57651 15.2599L2.1035 14.9766ZM25.7798 11.1345L25.7421 10.946L24.2712 11.2402L24.3089 11.4287L25.7798 11.1345ZM7.56781 20.5624L12.508 22.0207L12.9326 20.5821L7.99249 19.1238L7.56781 20.5624ZM2.94868 19.1988L5.09774 19.8332L5.52242 18.3946L3.37337 17.7602L2.94868 19.1988ZM13.1031 21.9464L19.2463 18.3006L18.4807 17.0106L12.3375 20.6565L13.1031 21.9464ZM22.3179 16.4777L25.2242 14.7528L24.4586 13.4629L21.5523 15.1877L22.3179 16.4777ZM25.7798 13.9684C25.9669 13.033 25.9669 12.0699 25.7798 11.1345L24.3089 11.4287C24.4572 12.1698 24.4572 12.933 24.3089 13.6742L25.7798 13.9684ZM2.08369 15.0796C1.88708 16.1019 1.87404 17.151 2.04518 18.1779L3.52478 17.9313C3.3829 17.0801 3.39371 16.2103 3.55669 15.3629L2.08369 15.0796ZM11.9815 17.6721C11.7994 18.7124 11.7735 19.774 11.9045 20.8219L13.3929 20.6358C13.2804 19.7358 13.3027 18.8241 13.4591 17.9308L11.9815 17.6721ZM15.3471 9.75843C15.613 9.62665 15.9172 9.59382 16.2052 9.66581L16.569 8.2106C15.9355 8.05222 15.2663 8.12445 14.6811 8.41436L15.3471 9.75843ZM2.04518 18.1779C2.12605 18.6631 2.4769 19.0596 2.94868 19.1988L3.37337 17.7602C3.45243 17.7836 3.51122 17.85 3.52478 17.9313L2.04518 18.1779ZM24.3089 13.6742C24.3266 13.5857 24.381 13.5089 24.4586 13.4629L25.2242 14.7528C25.5122 14.5819 25.7141 14.2968 25.7798 13.9684L24.3089 13.6742Z" fill="#332A2A"/>
</g>
<defs>
<clipPath id="clip0_666_7198">
<rect width="28" height="28" fill="white"/>
</clipPath>
</defs>
</svg>
