<svg width="44" height="44" viewBox="0 0 44 44" fill="none" xmlns="http://www.w3.org/2000/svg">
<g clip-path="url(#clip0_1234_15122)">
<path fill-rule="evenodd" clip-rule="evenodd" d="M12.5417 33.0002H32.4584C33.0107 33.0002 33.4584 32.5524 33.4584 32.0002L33.4584 27.4112C33.4584 27.167 33.411 26.9186 33.2239 26.7618C33.069 26.6319 32.8541 26.4951 32.6142 26.3639C31.6505 25.837 30.7603 24.7812 30.7514 23.6829L30.7244 20.3174C30.7155 19.2192 29.8227 18.3335 28.7244 18.3335H15.2489C14.1381 18.3335 13.2401 19.2388 13.249 20.3496L13.2755 23.6507C13.2841 24.7175 12.347 25.5154 11.5243 26.2158C11.4904 26.2448 11.4566 26.2735 11.4231 26.3021C10.7784 26.8525 10.5417 27.617 10.5417 27.9881V31.0002C10.5417 32.1048 11.4372 33.0002 12.5417 33.0002ZM17.5 25.0002V22.0002L19.5 21.0002H25L26.5 22.5002V25.5002H17.5V25.0002Z" fill="#E05149"/>
<path fill-rule="evenodd" clip-rule="evenodd" d="M12.5417 20.3335C12.5417 18.8147 13.773 17.5835 15.2917 17.5835H17.6459C18.0601 17.5835 18.3959 17.9193 18.3959 18.3335C18.3959 18.7477 18.0601 19.0835 17.6459 19.0835H15.2917C14.6014 19.0835 14.0417 19.6431 14.0417 20.3335V24.9168H16.6667V22.9982C16.6667 21.5265 17.8598 20.3335 19.3314 20.3335H24.6687C26.1404 20.3335 27.3334 21.5265 27.3334 22.9982V24.9168H29.9584V24.0372C29.9584 23.623 30.2942 23.2872 30.7084 23.2872C31.1226 23.2872 31.4584 23.623 31.4584 24.0372V25.0516C33.044 25.4893 34.2084 26.9421 34.2084 28.6668V33.0002C34.2084 33.4144 33.8726 33.7502 33.4584 33.7502H32.8334V35.9793C32.8334 36.3935 32.4976 36.7293 32.0834 36.7293C31.6692 36.7293 31.3334 36.3935 31.3334 35.9793V33.7502H28.0308C27.6166 33.7502 27.2808 33.4144 27.2808 33.0002C27.2808 32.586 27.6166 32.2502 28.0308 32.2502H32.7084V28.6668C32.7084 27.4242 31.7011 26.4168 30.4584 26.4168H13.5417C12.2991 26.4168 11.2917 27.4242 11.2917 28.6668V32.2502H24.4124C24.8266 32.2502 25.1624 32.586 25.1624 33.0002C25.1624 33.4144 24.8266 33.7502 24.4124 33.7502H12.6667V35.9793C12.6667 36.3935 12.331 36.7293 11.9167 36.7293C11.5025 36.7293 11.1667 36.3935 11.1667 35.9793V33.7502H10.5417C10.1275 33.7502 9.79175 33.4144 9.79175 33.0002V28.6668C9.79175 26.9421 10.9562 25.4893 12.5417 25.0516V20.3335ZM19.073 18.3335C19.073 17.9193 19.4088 17.5835 19.823 17.5835H28.7084C30.2272 17.5835 31.4584 18.8147 31.4584 20.3335V22.1311C31.4584 22.5453 31.1226 22.8811 30.7084 22.8811C30.2942 22.8811 29.9584 22.5453 29.9584 22.1311V20.3335C29.9584 19.6431 29.3988 19.0835 28.7084 19.0835H19.823C19.4088 19.0835 19.073 18.7477 19.073 18.3335ZM18.1667 22.9982C18.1667 22.3549 18.6882 21.8335 19.3314 21.8335H24.6687C25.312 21.8335 25.8334 22.3549 25.8334 22.9982V24.9168H18.1667V22.9982Z" fill="#252323"/>
</g>
<defs>
<clipPath id="clip0_1234_15122">
<rect width="44" height="44" fill="white"/>
</clipPath>
</defs>
</svg>
