<svg width="18" height="18" viewBox="0 0 18 18" fill="none" xmlns="http://www.w3.org/2000/svg">
<g clip-path="url(#clip0_1045_11532)">
<path d="M4.6875 15L9.375 16.125L13.3125 14.4375V9.375L14.625 8.8125L13.3125 5.8125L9.29932 7.5L4.6875 6.375L3.75 9.375L4.6875 9.75V15Z" fill="#E05149"/>
<path fill-rule="evenodd" clip-rule="evenodd" d="M8.87462 1.625C9.71034 1.625 10.4958 1.75924 11.0953 1.99902C11.3934 2.11824 11.6763 2.27643 11.8951 2.4834C12.1149 2.69125 12.3114 2.99138 12.3121 3.37298C12.3121 3.37365 12.3121 3.37433 12.3121 3.375L12.3121 4.82585L13.3707 5.09033L13.442 5.11279C13.6046 5.17475 13.7354 5.30249 13.8004 5.46631L15.0123 8.521C15.1359 8.83258 14.9914 9.18647 14.6852 9.32275L13.8443 9.6958V13.0005C13.8443 13.0153 13.8421 13.0299 13.8398 13.0444L13.8398 13.0444C13.8386 13.0522 13.8374 13.06 13.8365 13.0679C13.8374 13.0757 13.8386 13.0834 13.8398 13.0912C13.8421 13.1061 13.8443 13.121 13.8443 13.1362V14.4185C13.8443 14.6654 13.699 14.8894 13.4733 14.9897L9.53966 16.7378C9.44413 16.7802 9.34005 16.7977 9.23693 16.7896L9.13439 16.7729L4.3463 15.5757C4.06809 15.5061 3.87267 15.256 3.87267 14.9692V10.1528L3.47326 10.0532C3.31033 10.0125 3.17051 9.90804 3.08556 9.76318C3.00065 9.61816 2.97786 9.44484 3.02208 9.28271L3.23986 8.48291L3.89513 6.0835C3.94452 5.90257 4.07244 5.75352 4.24376 5.67725L5.43712 5.14658V3.375C5.43712 2.99244 5.63394 2.69162 5.85412 2.4834C6.07297 2.27643 6.35587 2.11824 6.65392 1.99902C7.25348 1.75924 8.03891 1.625 8.87462 1.625ZM11.0621 5.32117V5.97054L9.22814 6.78564L6.68712 6.15082V4.76407C7.28233 4.99565 8.05425 5.125 8.87462 5.125C9.2198 5.125 9.49962 4.84518 9.49962 4.5C9.49962 4.15482 9.2198 3.875 8.87462 3.875C8.15713 3.875 7.53613 3.75718 7.11779 3.58984C6.92561 3.51294 6.80224 3.43517 6.73204 3.375C6.80224 3.31483 6.92561 3.23706 7.11779 3.16016C7.53613 2.99282 8.15713 2.875 8.87462 2.875C9.59212 2.875 10.2131 2.99282 10.6315 3.16016C10.8231 3.23685 10.9459 3.3149 11.0162 3.375C11.0135 3.37728 11.0109 3.37982 11.0081 3.38246L11.0081 3.38247C11.0043 3.38612 11.0003 3.38996 10.9957 3.39355C10.8823 3.48235 10.6805 3.5872 10.3824 3.67676C10.0519 3.77608 9.86417 4.1245 9.96349 4.45508C10.0628 4.7855 10.4113 4.97317 10.7418 4.87402C10.851 4.84123 10.9582 4.80468 11.0621 4.76417V5.30503C11.0621 5.31042 11.0621 5.3158 11.0621 5.32117ZM8.66076 11.8062V11.2144C8.53872 11.2675 8.4002 11.2852 8.26134 11.2505L5.12267 10.4653V14.481L8.66076 15.3657V13.9858C8.66097 13.641 8.94088 13.361 9.28576 13.3608C9.6308 13.3608 9.91055 13.6408 9.91076 13.9858V15.2046L12.5943 14.0112V13.1362C12.5944 13.1199 12.5965 13.1039 12.5986 13.088L12.5986 13.088C12.5995 13.0813 12.6005 13.0746 12.6012 13.0679C12.6004 13.061 12.5995 13.0542 12.5986 13.0473C12.5965 13.0319 12.5944 13.0163 12.5943 13.0005V10.2515L10.7516 11.0708C10.5961 11.1399 10.4189 11.1429 10.2613 11.0786C10.1039 11.0143 9.97931 10.888 9.91662 10.73L9.91076 10.7144V11.8062C9.9106 12.1512 9.63084 12.4312 9.28576 12.4312C8.94085 12.4309 8.66092 12.1511 8.66076 11.8062ZM4.44591 8.81201L4.39513 8.99463L7.9713 9.88916L8.51427 7.896L4.94005 7.00244L4.44591 8.81201ZM10.0875 7.77197L10.8385 9.66455L12.9693 8.71729L12.974 8.71515L12.9801 8.7124L13.6285 8.42432L12.8776 6.53174L10.0875 7.77197ZM8.87462 3.75C9.49594 3.75 9.99962 3.58211 9.99962 3.375C9.99962 3.16789 9.49594 3 8.87462 3C8.2533 3 7.74962 3.16789 7.74962 3.375C7.74962 3.58211 8.2533 3.75 8.87462 3.75Z" fill="#332A2A"/>
</g>
<defs>
<clipPath id="clip0_1045_11532">
<rect width="18" height="18" fill="white"/>
</clipPath>
</defs>
</svg>
