<svg width="23" height="23" viewBox="0 0 23 23" fill="none" xmlns="http://www.w3.org/2000/svg">
<g clip-path="url(#clip0_1236_15825)">
<path fill-rule="evenodd" clip-rule="evenodd" d="M18.0288 13.0283L20.504 11.5594C20.5681 11.5213 20.6143 11.4592 20.6324 11.3869C20.7718 10.8293 20.795 10.249 20.7005 9.6821L20.6042 9.1041L17.3621 8.29358L15.2138 7.75651L13.6512 7.36587C13.1905 7.25068 12.7038 7.30322 12.2783 7.51406L7.90625 9.68023L2.39583 12.4104L2.37955 12.4951C2.23186 13.263 2.22207 14.0511 2.35063 14.8225C2.37828 14.9884 2.49822 15.1239 2.65952 15.1715L10.5118 17.4895L14.0123 15.412C14.3988 13.9862 15.7019 12.9374 17.25 12.9374C17.5181 12.9374 17.7789 12.9689 18.0288 13.0283Z" fill="#E05149"/>
<path fill-rule="evenodd" clip-rule="evenodd" d="M12.0286 6.9597C12.5977 6.6778 13.2494 6.60742 13.8655 6.76146L15.428 7.15208L17.5755 7.68919L20.8177 8.49974C21.0705 8.56303 21.2645 8.76661 21.3157 9.0222L21.347 9.17747C21.5021 9.95328 21.5021 10.7523 21.347 11.5281C21.2897 11.8141 21.1134 12.0627 20.8626 12.2117L19.5553 12.9872C20.0054 13.2862 20.392 13.6727 20.6908 14.122C20.8972 14.4324 20.8128 14.8511 20.5023 15.0575C20.192 15.2638 19.7732 15.1803 19.5668 14.87C19.0824 14.1415 18.2563 13.6631 17.3187 13.663C15.8288 13.663 14.6205 14.8713 14.6205 16.3612C14.6207 17.851 15.8289 19.0585 17.3187 19.0585C18.8084 19.0583 20.0158 17.8509 20.016 16.3612C20.016 15.9885 20.3182 15.6856 20.6908 15.6854C21.0636 15.6854 21.3666 15.9884 21.3666 16.3612C21.3664 18.5965 19.554 20.4089 17.3187 20.4091C15.2002 20.4091 13.4617 18.7811 13.2856 16.7081L10.9065 18.1208L10.7796 18.1784C10.6485 18.2231 10.5053 18.227 10.3704 18.1872L6.31277 16.99C5.95524 16.8844 5.75117 16.5086 5.85672 16.1511C5.96233 15.7938 6.33724 15.5897 6.69461 15.6951L9.78348 16.6062C9.75364 16.1241 9.76212 15.6403 9.8118 15.1599L3.00613 13.3122C2.97091 13.7468 2.98409 14.1843 3.0452 14.6169L4.66629 15.0954C5.02354 15.2011 5.22769 15.577 5.12234 15.9343C5.01682 16.2918 4.64096 16.4958 4.28348 16.3904L2.51883 15.8699C2.10966 15.7491 1.8048 15.4049 1.73465 14.9841C1.59294 14.1337 1.60406 13.2643 1.76688 12.4177L1.78348 12.3337L2.44461 12.4607L2.44363 12.4597L1.78348 12.3337C1.82333 12.1268 1.95704 11.9498 2.14578 11.8562L12.0286 6.9597ZM20.0471 11.1247L17.9589 12.3638C17.7504 12.3306 17.5366 12.3134 17.3187 12.3134C15.5576 12.3134 14.0592 13.4381 13.5025 15.0084L11.1233 16.4206C11.1021 15.9787 11.1204 15.5354 11.178 15.0964L19.0188 10.8161L20.1096 10.2195C20.1183 10.5221 20.0977 10.8252 20.0471 11.1247ZM14.3596 8.27611C14.3722 8.32748 14.3811 8.38103 14.3811 8.43626C14.381 8.80882 14.0789 9.11094 13.7063 9.11107C13.0118 9.11107 12.329 8.94165 11.7141 8.62181L6.40652 11.2517C6.56372 11.2969 6.72293 11.3364 6.88406 11.3669C7.25005 11.4364 7.49028 11.789 7.42117 12.155C7.35178 12.5211 6.99913 12.7621 6.63309 12.6931C5.99066 12.5713 5.37019 12.354 4.79129 12.0515L4.34012 12.2751L10.4768 13.9421L10.7249 13.8064C10.4581 13.6472 10.3281 13.319 10.4309 13.0124C10.5497 12.6595 10.9323 12.4692 11.2854 12.5876C11.6973 12.7258 12.1293 12.7966 12.5638 12.7966H12.5764L16.7971 10.4909C16.4767 10.3547 16.3081 9.99604 16.4202 9.65989C16.5382 9.3065 16.9202 9.11542 17.2737 9.23314C17.693 9.37289 18.1255 9.46977 18.5638 9.52611L18.8138 9.38939L17.2483 8.99876L15.0999 8.46165L14.3596 8.27611ZM19.1621 14.6961C19.0748 14.4342 18.7913 14.2924 18.5293 14.3797C17.6989 14.6566 16.8012 14.6566 15.9707 14.3797C15.7088 14.2924 15.4253 14.4342 15.3379 14.6961C15.2506 14.9581 15.3924 15.2416 15.6543 15.3289C16.6901 15.6742 17.81 15.6742 18.8457 15.3289C19.1077 15.2416 19.2495 14.9581 19.1621 14.6961ZM18.5293 15.8172C18.7913 15.7299 19.0748 15.8717 19.1621 16.1336C19.2495 16.3956 19.1077 16.6791 18.8457 16.7664C17.81 17.1117 16.6901 17.1117 15.6543 16.7664C15.3924 16.6791 15.2506 16.3956 15.3379 16.1336C15.4253 15.8717 15.7088 15.7299 15.9707 15.8172C16.8012 16.094 17.6989 16.094 18.5293 15.8172ZM19.1621 17.5711C19.0748 17.3092 18.7913 17.1674 18.5293 17.2547C17.6989 17.5316 16.8012 17.5316 15.9707 17.2547C15.7088 17.1674 15.4253 17.3092 15.3379 17.5711C15.2506 17.8331 15.3924 18.1166 15.6543 18.2039C16.6901 18.5492 17.81 18.5492 18.8457 18.2039C19.1077 18.1166 19.2495 17.8331 19.1621 17.5711Z" fill="#332A2A"/>
</g>
<defs>
<clipPath id="clip0_1236_15825">
<rect width="23" height="23" fill="white"/>
</clipPath>
</defs>
</svg>
