<svg width="23" height="23" viewBox="0 0 23 23" fill="none" xmlns="http://www.w3.org/2000/svg">
<g clip-path="url(#clip0_1234_15217)">
<path d="M8.22534 8.59912C8.59813 8.59912 8.90112 8.90113 8.90112 9.27393C8.90112 9.64672 8.59813 9.94873 8.22534 9.94873H7.34155C6.60993 9.94891 6.01636 10.5423 6.01636 11.2739V13.2163C6.1523 13.1571 6.29237 13.1056 6.43628 13.063V12.1909C6.43628 11.2935 7.16382 10.5659 8.06128 10.5659H10.3601C10.8436 10.566 11.2773 10.7776 11.575 11.1128C11.8726 10.7776 12.3062 10.5659 12.7898 10.5659H15.0886C15.9859 10.5662 16.7136 11.2936 16.7136 12.1909V13.063C16.8571 13.1055 16.997 13.1563 17.1326 13.2153V11.2739C17.1326 10.5422 16.5391 9.94881 15.8074 9.94873H10.6785C10.3059 9.94841 10.0037 9.64652 10.0037 9.27393C10.0037 8.90133 10.3059 8.59944 10.6785 8.59912H15.8074C17.2847 8.5992 18.4822 9.79661 18.4822 11.2739V14.2231C19.0192 14.862 19.3425 15.6865 19.3425 16.5864V17.4194C19.3425 17.7921 19.0403 18.095 18.6677 18.0952H18.4822V18.8569C18.4822 19.2297 18.1801 19.5317 17.8074 19.5317C17.4347 19.5316 17.1326 19.2296 17.1326 18.8569V18.0952H15.3074C14.9347 18.0951 14.6326 17.7921 14.6326 17.4194C14.6327 17.0469 14.9348 16.7448 15.3074 16.7446H17.9919V16.5864C17.9919 15.3025 16.9516 14.2615 15.6677 14.2612H7.48218C6.19812 14.2612 5.15698 15.3024 5.15698 16.5864V16.7446H12.7234C13.096 16.7447 13.398 17.0469 13.3982 17.4194C13.3982 17.7922 13.0961 18.0951 12.7234 18.0952H6.01636V18.8569C6.01636 19.2297 5.71434 19.5317 5.34155 19.5317C4.96892 19.5316 4.66675 19.2296 4.66675 18.8569V18.0952H4.48218C4.10939 18.0952 3.80737 17.7922 3.80737 17.4194V16.5864C3.80737 15.6872 4.13056 14.8637 4.66675 14.2251V11.2739C4.66675 9.79668 5.86435 8.5993 7.34155 8.59912H8.22534ZM8.06128 11.8159C7.85418 11.8159 7.68628 11.9838 7.68628 12.1909V12.9116H10.7351V12.1909C10.7351 11.9839 10.5671 11.8161 10.3601 11.8159H8.06128ZM12.7898 11.8159C12.5827 11.8159 12.4148 11.9838 12.4148 12.1909V12.9116H15.4636V12.1909C15.4636 11.984 15.2955 11.8162 15.0886 11.8159H12.7898Z" fill="#332A2A"/>
</g>
<defs>
<clipPath id="clip0_1234_15217">
<rect width="23" height="23" fill="white"/>
</clipPath>
</defs>
</svg>
