<svg width="44" height="44" viewBox="0 0 44 44" fill="none" xmlns="http://www.w3.org/2000/svg">
<g clip-path="url(#clip0_1234_15062)">
<path fill-rule="evenodd" clip-rule="evenodd" d="M13.6875 33.0002H30.3125C31.4171 33.0002 32.3125 32.1047 32.3125 31.0002V28.3226C32.3125 28.1011 32.2725 27.8802 32.129 27.7116C31.8981 27.4403 31.4887 27.0718 31.0527 26.7223C30.1953 26.035 29.38 24.7802 29.372 23.6813L29.3477 20.319C29.3398 19.2201 28.4467 18.3335 27.3478 18.3335H17.3156C16.2054 18.3335 15.3076 19.2378 15.3157 20.348L15.3396 23.6524C15.3476 24.7626 14.4079 25.6704 13.4327 26.2011C12.415 26.755 11.6875 27.5937 11.6875 27.9881V31.0002C11.6875 32.1048 12.5829 33.0002 13.6875 33.0002ZM17.4999 25.0002V22.0002L19.4999 21.0002H22.4999H24.4999L26.4999 22.0002V25.5002H17.4999V25.0002Z" fill="#E05149"/>
<path fill-rule="evenodd" clip-rule="evenodd" d="M13.9167 20.3335C13.9167 18.8147 15.148 17.5835 16.6667 17.5835H18.3334C18.7476 17.5835 19.0834 17.9193 19.0834 18.3335C19.0834 18.7477 18.7476 19.0835 18.3334 19.0835H16.6667C15.9764 19.0835 15.4167 19.6431 15.4167 20.3335V24.9168H16.6667V22.9982C16.6667 21.5265 17.8598 20.3335 19.3314 20.3335H24.6687C26.1404 20.3335 27.3334 21.5265 27.3334 22.9982V24.9168H28.5834V24.0372C28.5834 23.623 28.9192 23.2872 29.3334 23.2872C29.7476 23.2872 30.0834 23.623 30.0834 24.0372V25.0516C31.669 25.4893 32.8334 26.9421 32.8334 28.6668V33.0002C32.8334 33.4144 32.4976 33.7502 32.0834 33.7502H31.2292V35.9793C31.2292 36.3935 30.8935 36.7293 30.4792 36.7293C30.065 36.7293 29.7292 36.3935 29.7292 35.9793V33.7502H27.3071C26.8929 33.7502 26.5571 33.4144 26.5571 33.0002C26.5571 32.586 26.8929 32.2502 27.3071 32.2502H31.3334V28.6668C31.3334 27.4242 30.3261 26.4168 29.0834 26.4168H14.9167C13.6741 26.4168 12.6667 27.4242 12.6667 28.6668V32.2502H24.1229C24.5371 32.2502 24.8729 32.586 24.8729 33.0002C24.8729 33.4144 24.5371 33.7502 24.1229 33.7502H14.5406V35.9793C14.5406 36.3935 14.2048 36.7293 13.7906 36.7293C13.3764 36.7293 13.0406 36.3935 13.0406 35.9793V33.7502H11.9167C11.5025 33.7502 11.1667 33.4144 11.1667 33.0002V28.6668C11.1667 26.9421 12.3312 25.4893 13.9167 25.0516V20.3335ZM19.4167 18.3335C19.4167 17.9193 19.7525 17.5835 20.1667 17.5835H27.3334C28.8522 17.5835 30.0834 18.8147 30.0834 20.3335V22.1311C30.0834 22.5453 29.7476 22.8811 29.3334 22.8811C28.9192 22.8811 28.5834 22.5453 28.5834 22.1311V20.3335C28.5834 19.6431 28.0238 19.0835 27.3334 19.0835H20.1667C19.7525 19.0835 19.4167 18.7477 19.4167 18.3335ZM18.1667 22.9982C18.1667 22.3549 18.6882 21.8335 19.3314 21.8335H24.6687C25.312 21.8335 25.8334 22.3549 25.8334 22.9982V24.9168H18.1667V22.9982Z" fill="#252323"/>
</g>
<defs>
<clipPath id="clip0_1234_15062">
<rect width="44" height="44" fill="white"/>
</clipPath>
</defs>
</svg>
