<svg width="23" height="23" viewBox="0 0 23 23" fill="none" xmlns="http://www.w3.org/2000/svg">
<g clip-path="url(#clip0_2105_12901)">
<path fill-rule="evenodd" clip-rule="evenodd" d="M20.145 11.3253C20.5178 11.3253 20.8207 11.6273 20.8207 12.0001V13.3214C20.8205 13.6939 20.5176 13.9962 20.145 13.9962C19.8635 13.9959 19.622 13.8232 19.5209 13.5782L13.5864 19.5128C13.8459 19.6068 14.0315 19.8537 14.0317 20.1456C14.0316 20.5183 13.7296 20.8214 13.3569 20.8214H11.9995C11.6269 20.8212 11.3248 20.5182 11.3247 20.1456V18.8253C11.3247 18.4526 11.6269 18.1497 11.9995 18.1495C12.2809 18.1495 12.5212 18.3226 12.6225 18.5675L18.5581 12.6319C18.299 12.5376 18.1128 12.2917 18.1127 12.0001C18.1127 11.6275 18.415 11.3256 18.7875 11.3253H20.145ZM13.6811 3.81162C14.7257 2.7673 16.4197 2.76714 17.4643 3.81162L19.1879 5.53525C20.2325 6.5798 20.2323 8.27377 19.1879 9.31845L17.4868 11.0186L14.2358 14.2686C14.2351 14.2696 14.2346 14.2718 14.2338 14.2726C14.2328 14.2733 14.2308 14.2736 14.2299 14.2745L9.53461 18.9708C9.50245 19.0662 9.45146 19.1575 9.37543 19.2335C9.28717 19.3216 9.17946 19.3773 9.06684 19.4063C8.01738 20.2242 6.4996 20.1536 5.53461 19.1886L3.81098 17.4649C2.76661 16.4205 2.76696 14.7264 3.81098 13.6817L8.74653 8.74716C9.01011 8.48358 9.43702 8.48363 9.70063 8.74716C9.96407 9.01078 9.96418 9.43771 9.70063 9.70126L4.76606 14.6358C4.24893 15.1533 4.24879 15.9925 4.76606 16.5099L6.48969 18.2335C6.83505 18.5788 7.32349 18.6919 7.76411 18.5763L6.50434 17.3165C6.24102 17.053 6.24122 16.626 6.50434 16.3624C6.76789 16.0988 7.19483 16.0989 7.45844 16.3624L8.84614 17.7501L9.47309 17.1231L8.51313 16.1632C8.24991 15.8997 8.25006 15.4726 8.51313 15.2091C8.77671 14.9455 9.2046 14.9455 9.46821 15.2091L10.4282 16.169L11.1918 15.4044L10.2319 14.4444C9.96861 14.1809 9.96865 13.7529 10.2319 13.4893C10.4954 13.2259 10.9233 13.226 11.187 13.4893L12.1469 14.4493L12.8022 13.795L11.3627 12.3556C11.0993 12.092 11.0995 11.6641 11.3627 11.4005C11.6263 11.1371 12.0543 11.137 12.3178 11.4005L13.7563 12.8399L14.6176 11.9786L13.6577 11.0186C13.3944 10.7551 13.3944 10.3281 13.6577 10.0645C13.9212 9.80102 14.3481 9.80118 14.6118 10.0645L15.5717 11.0245L16.0551 10.5411L15.0952 9.58115C14.8319 9.31762 14.8319 8.89059 15.0952 8.62705C15.3587 8.36352 15.7856 8.36368 16.0493 8.62705L17.0092 9.58701L17.6557 8.94052L16.2172 7.50107C15.9538 7.23756 15.9539 6.81057 16.2172 6.54697C16.4808 6.28341 16.9077 6.28345 17.1713 6.54697L18.5307 7.90537C18.7141 7.43107 18.6156 6.87303 18.2329 6.49033L16.5092 4.76669C15.9918 4.24932 15.1526 4.24927 14.6352 4.76669L12.8754 6.52646C12.6118 6.78977 12.1839 6.78996 11.9204 6.52646C11.6573 6.26298 11.6573 5.83586 11.9204 5.57236L13.6811 3.81162Z" fill="#332A2A"/>
</g>
<defs>
<clipPath id="clip0_2105_12901">
<rect width="23" height="23" fill="white"/>
</clipPath>
</defs>
</svg>
