<svg width="28" height="28" viewBox="0 0 28 28" fill="none" xmlns="http://www.w3.org/2000/svg">
<g clip-path="url(#clip0_2105_12900)">
<path d="M23.917 13.2503C24.331 13.2505 24.667 13.5862 24.667 14.0003V15.6087C24.6666 16.0225 24.3308 16.3585 23.917 16.3587C23.5647 16.3587 23.271 16.1147 23.1904 15.7874L15.7968 23.18C16.1421 23.2471 16.4023 23.5523 16.4023 23.9173C16.4019 24.3312 16.0663 24.6672 15.6523 24.6673H14C13.586 24.6673 13.2503 24.3312 13.25 23.9173V22.3089C13.25 21.8947 13.5857 21.5589 14 21.5589C14.3523 21.5589 14.6452 21.8026 14.7255 22.1302L22.1201 14.7356C21.7748 14.6685 21.5138 14.3651 21.5136 14.0003C21.5136 13.5861 21.8495 13.2504 22.2636 13.2503H23.917ZM17.0136 4.38407C18.0876 3.31013 19.8293 3.31013 20.9033 4.38407L23.6162 7.09696C24.6899 8.17092 24.69 9.91273 23.6162 10.9866L21.2382 13.3636L17.2832 17.3177C17.2814 17.3196 17.2801 17.3226 17.2783 17.3245C17.2765 17.3262 17.2742 17.3277 17.2724 17.3294L11.5449 23.0569C11.5099 23.1687 11.4518 23.275 11.3632 23.3636C11.2747 23.4521 11.1684 23.5102 11.0566 23.5452L10.9863 23.6165C9.9124 24.6902 8.17054 24.6902 7.09664 23.6165L4.38375 20.9036C3.30986 19.8297 3.30996 18.0879 4.38375 17.014L10.6992 10.6995C10.9921 10.4066 11.4668 10.4066 11.7597 10.6995C12.0521 10.9924 12.0524 11.4673 11.7597 11.76L5.44429 18.0745C4.9564 18.5626 4.9565 19.3539 5.44429 19.8421L8.15816 22.5559C8.57192 22.9692 9.2026 23.0309 9.68258 22.7434L7.96968 21.0306C7.67684 20.7377 7.67695 20.2629 7.96968 19.97C8.26258 19.6771 8.73734 19.6771 9.03023 19.97L10.7705 21.7102L11.6347 20.846L10.415 19.6263C10.1225 19.3334 10.1224 18.8585 10.415 18.5657C10.7078 18.2729 11.1826 18.2731 11.4755 18.5657L12.6953 19.7854L13.7275 18.7532L12.5078 17.5335C12.2153 17.2406 12.2151 16.7657 12.5078 16.4729C12.8006 16.1802 13.2754 16.1804 13.5683 16.4729L14.788 17.6927L15.6865 16.7932L13.8847 14.9905C13.5919 14.6977 13.592 14.2229 13.8847 13.93C14.1776 13.6374 14.6525 13.6372 14.9453 13.93L16.747 15.7327L17.8974 14.5833L16.6777 13.3636C16.3852 13.0707 16.3851 12.5958 16.6777 12.303C16.9705 12.0102 17.4453 12.0104 17.7382 12.303L18.958 13.5227L19.6474 12.8333L18.4277 11.6136C18.1352 11.3207 18.1351 10.8458 18.4277 10.553C18.7205 10.2602 19.1953 10.2604 19.4882 10.553L20.708 11.7727L21.5957 10.8841L19.7939 9.08134C19.5011 8.78849 19.5012 8.31369 19.7939 8.02079C20.0868 7.72801 20.5616 7.72793 20.8545 8.02079L22.6513 9.81766C23.0406 9.32717 23.0088 8.61214 22.5556 8.15848L19.8418 5.44462C19.3536 4.95677 18.5622 4.95657 18.0742 5.44462L15.624 7.89481C15.3311 8.18748 14.8563 8.18745 14.5634 7.89481C14.2708 7.60196 14.2708 7.12712 14.5634 6.83426L17.0136 4.38407Z" fill="#332A2A"/>
</g>
<defs>
<clipPath id="clip0_2105_12900">
<rect width="28" height="28" fill="white"/>
</clipPath>
</defs>
</svg>
