<svg width="44" height="44" viewBox="0 0 44 44" fill="none" xmlns="http://www.w3.org/2000/svg">
<g clip-path="url(#clip0_2105_12923)">
<path d="M37.0857 12.7941L31.6642 7.37255C30.8832 6.5915 29.6168 6.5915 28.8358 7.37255L7.37254 28.8358C6.5915 29.6168 6.5915 30.8832 7.37255 31.6642L12.7941 37.0857C13.5751 37.8668 14.8415 37.8668 15.6225 37.0857L15.8501 36.8581L17.5938 35.1144L19.3718 33.3364L21.2605 31.4477L23.2388 29.4694L25.2083 27.5L27.0416 25.6666L29.0683 23.64L31.1666 21.5416L33 19.7083L34.8333 17.875L36.6666 16.0416L37.0857 15.6225C37.8668 14.8415 37.8668 13.5751 37.0857 12.7941Z" fill="#E05149"/>
<path d="M28.2714 6.78896C29.3468 5.72405 31.0811 5.72852 32.1513 6.79872L35.0975 9.74599L38.038 12.6854C39.1118 13.7594 39.1119 15.5012 38.038 16.5751L33.952 20.66L32.1249 22.4862C32.1226 22.4885 32.1213 22.4918 32.119 22.494C32.1167 22.4963 32.1135 22.4976 32.1112 22.4999L28.0009 26.6112C27.9985 26.6137 27.9965 26.6166 27.994 26.619C27.9924 26.6207 27.9898 26.6213 27.9882 26.6229L16.5751 38.038C15.5012 39.1119 13.7594 39.1118 12.6854 38.038L6.79872 32.1513C5.72852 31.0811 5.72405 29.3468 6.78895 28.2714L17.4823 17.4725C17.7738 17.1782 18.2495 17.1752 18.5438 17.4667C18.8379 17.7581 18.8398 18.233 18.5487 18.5272L7.85536 29.327C7.37131 29.8159 7.37281 30.6043 7.85926 31.0907L13.746 36.9774C14.1277 37.3591 14.6946 37.4408 15.1571 37.2255L12.0751 34.1434C11.7822 33.8506 11.7822 33.3758 12.0751 33.0829C12.368 32.7901 12.8428 32.79 13.1356 33.0829L16.2714 36.2186L16.955 35.536L14.7352 33.3163C14.4425 33.0234 14.4424 32.5486 14.7352 32.2558C15.0281 31.9629 15.5029 31.963 15.7958 32.2558L18.0155 34.4755L18.7323 33.7577L16.5136 31.539C16.2207 31.2461 16.2207 30.7703 16.5136 30.4774C16.8064 30.185 17.2813 30.1848 17.5741 30.4774L19.7938 32.6972L20.621 31.869L18.4022 29.6503C18.1093 29.3574 18.1093 28.8817 18.4022 28.5888C18.6951 28.2963 19.17 28.2961 19.4628 28.5888L21.6825 30.8085L22.5995 29.8905L20.3807 27.6718C20.0879 27.3789 20.0879 26.9041 20.3807 26.6112C20.6736 26.3184 21.1484 26.3183 21.4413 26.6112L23.66 28.83L24.5692 27.9208L21.4335 24.785C21.1406 24.4922 21.1406 24.0174 21.4335 23.7245C21.7264 23.4319 22.2012 23.4317 22.494 23.7245L25.6298 26.8602L26.4022 26.0878L24.1835 23.869C23.8906 23.5761 23.8906 23.1014 24.1835 22.8085C24.4764 22.5156 24.9511 22.5156 25.244 22.8085L27.4628 25.0272L28.4296 24.0614L26.2098 21.8417C25.9171 21.5488 25.917 21.074 26.2098 20.7811C26.5027 20.4885 26.9776 20.4885 27.2704 20.7811L29.4901 23.0009L30.5272 21.9628L28.3085 19.744C28.0156 19.4511 28.0156 18.9764 28.3085 18.6835C28.6014 18.3906 29.0761 18.3906 29.369 18.6835L31.5878 20.9022L32.3612 20.1298L30.1415 17.91C29.8488 17.6171 29.8487 17.1423 30.1415 16.8495C30.4343 16.5568 30.9092 16.5568 31.202 16.8495L33.4218 19.0692L34.1942 18.2958L31.0585 15.16C30.7656 14.8672 30.7656 14.3924 31.0585 14.0995C31.3514 13.8069 31.8262 13.8067 32.119 14.0995L35.2548 17.2352L36.0272 16.4628L33.8085 14.244C33.5156 13.9511 33.5156 13.4764 33.8085 13.1835C34.1014 12.8906 34.5761 12.8906 34.869 13.1835L37.08 15.3944C37.4608 14.9041 37.4278 14.1964 36.9774 13.746L34.037 10.8065L31.0907 7.85927C30.6043 7.37281 29.8159 7.37131 29.327 7.85536L24.6425 12.494C24.3482 12.7854 23.8734 12.7824 23.5819 12.4882C23.2905 12.1938 23.2925 11.7191 23.5868 11.4276L28.2714 6.78896ZM38.0048 21.6718C38.4189 21.6718 38.7548 22.0076 38.7548 22.4218V24.9491C38.7545 25.3631 38.4188 25.6991 38.0048 25.6991C37.5909 25.6989 37.255 25.363 37.2548 24.9491V24.2323L24.2323 37.2548H25.0194C25.4333 37.2551 25.7692 37.5909 25.7694 38.0048C25.7694 38.4188 25.4333 38.7545 25.0194 38.7548H22.4218C22.0076 38.7548 21.6718 38.4189 21.6718 38.0048V35.4784C21.6718 35.0642 22.0075 34.7284 22.4218 34.7284C22.8359 34.7285 23.1718 35.0642 23.1718 35.4784V36.1942L36.1942 23.1718H35.4081C34.9939 23.1718 34.6582 22.8359 34.6581 22.4218C34.6581 22.0076 34.9939 21.6718 35.4081 21.6718H38.0048Z" fill="#332A2A"/>
</g>
<defs>
<clipPath id="clip0_2105_12923">
<rect width="44" height="44" fill="white"/>
</clipPath>
</defs>
</svg>
