<svg width="18" height="18" viewBox="0 0 18 18" fill="none" xmlns="http://www.w3.org/2000/svg">
<g clip-path="url(#clip0_2105_12926)">
<path d="M14.3358 4.39829L13.6017 3.66421C12.8207 2.88317 11.5543 2.88317 10.7733 3.66421L3.66421 10.7733C2.88317 11.5543 2.88317 12.8207 3.66421 13.6017L4.39829 14.3358C4.90698 14.8445 5.62152 15.0219 6.27377 14.8679C6.61047 14.7885 6.93058 14.6207 7.1972 14.3647C7.20711 14.3552 7.21695 14.3455 7.22671 14.3358L7.92485 13.6377L8.6975 12.865L9.50681 12.0557L10.3125 11.25L11.0625 10.5L11.8916 9.67091L12.75 8.8125L13.5 8.0625L14.25 7.3125L14.3358 7.22671C14.5759 6.98664 14.7421 6.70072 14.8346 6.39713C15.043 5.71304 14.8768 4.93926 14.3358 4.39829Z" fill="#E05149"/>
<path d="M15.8749 9.03385C16.2201 9.03385 16.4999 9.31372 16.4999 9.65885V10.693C16.4998 11.0381 16.22 11.318 15.8749 11.318C15.6641 11.3179 15.4783 11.2125 15.3652 11.0524L10.9062 15.5114C11.0757 15.6231 11.1874 15.8156 11.1874 16.0339C11.1874 16.379 10.9076 16.6589 10.5624 16.6589H9.49994C9.15487 16.6587 8.87494 16.3789 8.87494 16.0339V15.0006C8.87494 14.6556 9.15487 14.3758 9.49994 14.3756C9.71061 14.3756 9.8955 14.4806 10.0087 14.6403L14.4687 10.1803C14.2995 10.0685 14.1874 9.87683 14.1874 9.65885C14.1875 9.3138 14.4674 9.03398 14.8124 9.03385H15.8749ZM11.038 2.5153C11.6725 1.88086 12.7022 1.88108 13.3369 2.5153L15.4843 4.66276C16.1189 5.29734 16.1189 6.32698 15.4843 6.96158L11.4462 10.9987C11.4446 11.0003 11.4439 11.0029 11.4423 11.0046C11.4407 11.0062 11.4381 11.0069 11.4365 11.0085L9.44623 12.9987C9.44463 13.0003 9.44392 13.0029 9.44232 13.0046C9.4407 13.0062 9.43811 13.0069 9.43646 13.0085L6.96185 15.484C6.32725 16.1186 5.29763 16.1186 4.66302 15.484L2.51556 13.3366C1.88133 12.702 1.88108 11.6722 2.51556 11.0378L6.7763 6.77604C7.02026 6.53213 7.41698 6.53234 7.66107 6.77604C7.90513 7.0201 7.9051 7.41672 7.66107 7.6608L3.39935 11.9215C3.25303 12.0679 3.25327 12.3063 3.39935 12.4528L5.54681 14.6003C5.69326 14.7467 5.93162 14.7467 6.07806 14.6003L6.29779 14.3796L5.24017 13.3219C4.99651 13.0779 4.99637 12.6821 5.24017 12.4381C5.48413 12.1942 5.87987 12.1945 6.12396 12.4381L7.18158 13.4958L8.11517 12.5622L7.43255 11.8796C7.18884 11.6354 7.1886 11.2387 7.43255 10.9948C7.67651 10.7509 8.07323 10.7511 8.31732 10.9948L8.99994 11.6774L10.1152 10.5622L9.05755 9.50455C8.81384 9.26045 8.8136 8.86374 9.05755 8.61979C9.30151 8.37588 9.69823 8.37609 9.94232 8.61979L10.9999 9.67741L11.9072 8.77018L11.2245 8.08756C10.9808 7.84345 10.9806 7.44773 11.2245 7.20377C11.4685 6.96019 11.8644 6.96019 12.1083 7.20377L12.791 7.88639L13.4072 7.27018L12.3495 6.21256C12.1058 5.96845 12.1056 5.57273 12.3495 5.32877C12.5935 5.08519 12.9894 5.08519 13.2333 5.32877L14.291 6.38639L14.6005 6.0778C14.7469 5.93135 14.747 5.69298 14.6005 5.54655L12.4531 3.39908C12.3066 3.25302 12.0681 3.25281 11.9218 3.39908L10.1454 5.17643C9.90137 5.42051 9.50476 5.42051 9.26068 5.17643C9.01697 4.93232 9.01672 4.53562 9.26068 4.29166L11.038 2.5153Z" fill="#332A2A"/>
</g>
<defs>
<clipPath id="clip0_2105_12926">
<rect width="18" height="18" fill="white"/>
</clipPath>
</defs>
</svg>
