<svg width="44" height="45" viewBox="0 0 44 45" fill="none" xmlns="http://www.w3.org/2000/svg">
<g clip-path="url(#clip0_1053_11895)">
<path fill-rule="evenodd" clip-rule="evenodd" d="M5.33325 22.7502C5.33325 13.5454 12.7952 6.0835 21.9999 6.0835C22.4141 6.0835 22.7499 5.74771 22.7499 5.3335C22.7499 4.91928 22.4141 4.5835 21.9999 4.5835C11.9667 4.5835 3.83325 12.717 3.83325 22.7502C3.83325 26.6689 5.07488 30.2998 7.1861 33.2682C7.42618 33.6057 7.89443 33.6847 8.23197 33.4447C8.56952 33.2046 8.64853 32.7363 8.40845 32.3988C6.47188 29.676 5.33325 26.3472 5.33325 22.7502ZM28.9154 5.94629C28.5324 5.78851 28.094 5.97108 27.9362 6.35406C27.7785 6.73705 27.961 7.17543 28.344 7.33321C30.8007 8.34526 32.9633 9.92806 34.6661 11.9171C37.1606 14.8308 38.6666 18.6137 38.6666 22.7502C38.6666 27.8484 36.3784 32.4114 32.7704 35.4697C32.4544 35.7375 32.4154 36.2108 32.6832 36.5268C32.9511 36.8428 33.4243 36.8818 33.7403 36.6139C37.6702 33.2828 40.1666 28.3076 40.1666 22.7502C40.1666 18.2426 38.524 14.1168 35.8056 10.9416C33.9509 8.77514 31.5945 7.05 28.9154 5.94629ZM11.2295 35.4697C10.9135 35.2019 10.4402 35.2409 10.1724 35.5569C9.90454 35.8728 9.94357 36.3461 10.2595 36.6139C13.4255 39.2976 17.5246 40.9168 21.9999 40.9168C24.1815 40.9168 26.2749 40.5319 28.2148 39.8257C28.604 39.684 28.8047 39.2536 28.663 38.8644C28.5213 38.4752 28.0909 38.2745 27.7017 38.4162C25.9239 39.0634 24.004 39.4168 21.9999 39.4168C17.893 39.4168 14.1347 37.9323 11.2295 35.4697ZM13.0488 15.386C12.652 15.2669 12.2339 15.4921 12.1149 15.8888C11.9959 16.2856 12.221 16.7037 12.6177 16.8227C18.7378 18.6587 25.262 18.6587 31.3821 16.8227C31.7788 16.7037 32.004 16.2856 31.885 15.8888C31.7659 15.4921 31.3478 15.2669 30.9511 15.386C25.1122 17.1376 18.8877 17.1376 13.0488 15.386ZM12.0978 23.2906C12.1791 22.8844 12.5742 22.621 12.9803 22.7022C18.9344 23.893 25.0654 23.893 31.0195 22.7022C31.4257 22.621 31.8208 22.8844 31.902 23.2906C31.9833 23.6967 31.7198 24.0919 31.3137 24.1731C25.1654 25.4028 18.8345 25.4028 12.6862 24.1731C12.28 24.0919 12.0166 23.6967 12.0978 23.2906ZM13.0488 29.136C12.652 29.0169 12.2339 29.2421 12.1149 29.6388C11.9959 30.0356 12.221 30.4537 12.6177 30.5727C18.7378 32.4087 25.262 32.4087 31.3821 30.5727C31.7788 30.4537 32.004 30.0356 31.885 29.6388C31.7659 29.2421 31.3478 29.0169 30.9511 29.136C25.1122 30.8876 18.8877 30.8876 13.0488 29.136Z" fill="#252323"/>
</g>
<defs>
<clipPath id="clip0_1053_11895">
<rect width="44" height="44" fill="white" transform="translate(0 0.75)"/>
</clipPath>
</defs>
</svg>
