<svg width="23" height="23" viewBox="0 0 23 23" fill="none" xmlns="http://www.w3.org/2000/svg">
<g clip-path="url(#clip0_1053_11865)">
<circle cx="11.4999" cy="11.5002" r="9.10417" fill="#E05149"/>
<path d="M5.02661 17.936C5.26772 17.652 5.69353 17.617 5.97778 17.8579C7.44722 19.1035 9.34773 19.854 11.425 19.854C12.439 19.854 13.4102 19.6753 14.3088 19.3481C14.659 19.2209 15.0455 19.4014 15.1731 19.7515C15.3006 20.1018 15.1201 20.4892 14.7698 20.6167C13.7254 20.9969 12.5987 21.2046 11.425 21.2046C9.01628 21.2046 6.80886 20.3326 5.10474 18.8882C4.82036 18.6471 4.78556 18.2204 5.02661 17.936ZM14.2659 2.74658C14.4079 2.40189 14.803 2.23739 15.1477 2.37939C16.59 2.97362 17.8586 3.90202 18.8567 5.06787C20.3199 6.77698 21.2043 8.99907 21.2043 11.4253C21.2042 14.4168 19.8593 17.0955 17.7444 18.8882C17.46 19.1289 17.0342 19.0933 16.7932 18.8091C16.5524 18.5248 16.5872 18.0989 16.8713 17.8579C18.6966 16.3108 19.8537 14.0035 19.8538 11.4253C19.8538 9.33303 19.092 7.41956 17.8303 5.9458C16.9689 4.93977 15.8751 4.1391 14.6331 3.62744C14.2886 3.48539 14.124 3.09116 14.2659 2.74658ZM11.425 1.646C11.7977 1.64617 12.0999 1.94812 12.0999 2.3208C12.0999 2.69348 11.7977 2.99543 11.425 2.99561C6.76975 2.99561 2.99536 6.76999 2.99536 11.4253C2.99543 13.2447 3.57177 14.9273 4.55103 16.3042C4.76707 16.6079 4.69553 17.0295 4.39185 17.2456C4.08812 17.4616 3.66655 17.391 3.45044 17.0874C2.31396 15.4895 1.64582 13.5343 1.64575 11.4253C1.64575 6.02441 6.02416 1.646 11.425 1.646ZM16.0227 14.4917C16.3794 14.3849 16.7552 14.5874 16.8625 14.9438C16.9697 15.3009 16.7674 15.6775 16.4104 15.7847C13.1582 16.7603 9.69087 16.7603 6.43872 15.7847C6.08193 15.6774 5.8795 15.3008 5.98657 14.9438C6.09395 14.5872 6.47057 14.3847 6.82739 14.4917C9.8264 15.3913 13.0237 15.3914 16.0227 14.4917ZM16.0842 11.1226C16.4495 11.0496 16.8049 11.2866 16.8782 11.6519C16.9511 12.0173 16.7143 12.3737 16.3489 12.4468C13.0984 13.0969 9.75071 13.0969 6.50024 12.4468C6.13501 12.3735 5.89806 12.0172 5.97095 11.6519C6.04423 11.2865 6.40044 11.0495 6.76587 11.1226C9.84145 11.7376 13.0087 11.7377 16.0842 11.1226ZM16.0227 7.3042C16.3794 7.19738 16.7552 7.39985 16.8625 7.75635C16.9697 8.11337 16.7674 8.48999 16.4104 8.59717C13.1582 9.57281 9.69087 9.57281 6.43872 8.59717C6.08193 8.48987 5.8795 8.11327 5.98657 7.75635C6.09395 7.39972 6.47057 7.1972 6.82739 7.3042C9.8264 8.20382 13.0237 8.2039 16.0227 7.3042Z" fill="#332A2A"/>
</g>
<defs>
<clipPath id="clip0_1053_11865">
<rect width="23" height="23" fill="white"/>
</clipPath>
</defs>
</svg>
