<svg width="18" height="19" viewBox="0 0 18 19" fill="none" xmlns="http://www.w3.org/2000/svg">
<g clip-path="url(#clip0_1053_11898)">
<path fill-rule="evenodd" clip-rule="evenodd" d="M2.5 9.75C2.5 6.16015 5.41015 3.25 9 3.25C9.34518 3.25 9.625 2.97018 9.625 2.625C9.625 2.27982 9.34518 2 9 2C4.71979 2 1.25 5.46979 1.25 9.75C1.25 11.4214 1.77978 12.9708 2.68051 14.2372C2.88058 14.5185 3.27079 14.5844 3.55208 14.3843C3.83336 14.1842 3.89921 13.794 3.69914 13.5128C2.94396 12.451 2.5 11.1533 2.5 9.75ZM11.9503 2.58149C11.6311 2.45001 11.2658 2.60215 11.1343 2.92131C11.0028 3.24046 11.155 3.60578 11.4741 3.73726C12.4319 4.13184 13.2755 4.74916 13.9399 5.52521C14.9129 6.66173 15.5 8.13651 15.5 9.75C15.5 11.7382 14.6081 13.5175 13.2004 14.7107C12.9371 14.9339 12.9045 15.3283 13.1277 15.5916C13.3509 15.8549 13.7453 15.8875 14.0086 15.6643C15.6846 14.2436 16.75 12.1209 16.75 9.75C16.75 7.82729 16.049 6.06671 14.8895 4.71229C14.0985 3.78838 13.0934 3.05245 11.9503 2.58149ZM4.79964 14.7107C4.53633 14.4875 4.14194 14.5201 3.91874 14.7834C3.69555 15.0467 3.72807 15.4411 3.99138 15.6643C5.34188 16.809 7.09105 17.5 9 17.5C9.93014 17.5 10.8233 17.3359 11.6513 17.0344C11.9757 16.9164 12.1429 16.5577 12.0248 16.2333C11.9067 15.909 11.548 15.7418 11.2237 15.8599C10.5308 16.1121 9.78219 16.25 9 16.25C7.39802 16.25 5.93281 15.6713 4.79964 14.7107ZM5.42959 6.43261C5.09897 6.33342 4.75054 6.52104 4.65136 6.85166C4.55217 7.18228 4.73979 7.53071 5.07041 7.62989C7.6337 8.39888 10.3663 8.39888 12.9296 7.62989C13.2602 7.53071 13.4478 7.18228 13.3486 6.85166C13.2495 6.52104 12.901 6.33342 12.5704 6.43261C10.2414 7.13131 7.75859 7.13131 5.42959 6.43261ZM4.63714 9.90868C4.70483 9.5702 5.0341 9.35069 5.37257 9.41839C7.76715 9.8973 10.2329 9.8973 12.6274 9.41839C12.9659 9.35069 13.2952 9.5702 13.3629 9.90868C13.4306 10.2472 13.211 10.5764 12.8726 10.6441C10.3162 11.1554 7.68383 11.1554 5.12743 10.6441C4.78895 10.5764 4.56944 10.2472 4.63714 9.90868ZM5.42959 12.0576C5.09897 11.9584 4.75054 12.146 4.65136 12.4767C4.55217 12.8073 4.73979 13.1557 5.07041 13.2549C7.6337 14.0239 10.3663 14.0239 12.9296 13.2549C13.2602 13.1557 13.4478 12.8073 13.3486 12.4767C13.2495 12.146 12.901 11.9584 12.5704 12.0576C10.2414 12.7563 7.75859 12.7563 5.42959 12.0576Z" fill="#252323"/>
</g>
<defs>
<clipPath id="clip0_1053_11898">
<rect width="18" height="18" fill="white" transform="translate(0 0.75)"/>
</clipPath>
</defs>
</svg>
