<svg width="18" height="18" viewBox="0 0 18 18" fill="none" xmlns="http://www.w3.org/2000/svg">
<g clip-path="url(#clip0_1053_11880)">
<circle cx="9" cy="9" r="7.125" fill="#E05149"/>
<path d="M3.79395 13.9082C4.01717 13.6451 4.41156 13.6128 4.6748 13.8359C5.80795 14.7964 7.27311 15.375 8.875 15.375C9.65719 15.375 10.4057 15.2366 11.0986 14.9844C11.4229 14.8664 11.7813 15.0341 11.8994 15.3584C12.0175 15.6827 11.8506 16.041 11.5264 16.1592C10.6984 16.4606 9.80514 16.625 8.875 16.625C6.96605 16.625 5.21671 15.9338 3.86621 14.7891C3.60308 14.5658 3.57081 14.1714 3.79395 13.9082ZM11.0098 2.0459C11.1414 1.72716 11.5063 1.57479 11.8252 1.70605C12.9683 2.17699 13.9737 2.91307 14.7646 3.83691C15.9242 5.19134 16.625 6.95229 16.625 8.875C16.625 11.2458 15.5596 13.3684 13.8838 14.7891C13.6205 15.0122 13.2262 14.9799 13.0029 14.7168C12.7798 14.4536 12.8121 14.0592 13.0752 13.8359C14.4829 12.6427 15.375 10.8632 15.375 8.875C15.375 7.26151 14.7874 5.78691 13.8145 4.65039C13.1501 3.8744 12.3064 3.25687 11.3486 2.8623C11.0297 2.73068 10.8783 2.36492 11.0098 2.0459ZM8.875 1.125C9.22018 1.125 9.5 1.40482 9.5 1.75C9.5 2.09518 9.22018 2.375 8.875 2.375C5.28515 2.375 2.375 5.28515 2.375 8.875C2.375 10.2783 2.81903 11.5759 3.57422 12.6377C3.77428 12.919 3.70804 13.3097 3.42676 13.5098C3.14554 13.7094 2.75565 13.6434 2.55566 13.3623C1.65494 12.0959 1.125 10.5464 1.125 8.875C1.125 4.59479 4.59479 1.125 8.875 1.125ZM12.4453 11.1826C12.7759 11.0834 13.1244 11.271 13.2236 11.6016C13.3228 11.9322 13.1353 12.2807 12.8047 12.3799C10.2414 13.1489 7.50861 13.1489 4.94531 12.3799C4.61475 12.2807 4.42719 11.9322 4.52637 11.6016C4.62559 11.271 4.9741 11.0834 5.30469 11.1826C7.63363 11.8813 10.1164 11.8813 12.4453 11.1826ZM12.502 8.54297C12.8403 8.4753 13.1704 8.69494 13.2383 9.0332C13.306 9.37155 13.0863 9.70167 12.748 9.76953C10.1916 10.2808 7.55835 10.2808 5.00195 9.76953C4.66369 9.70167 4.44405 9.37155 4.51172 9.0332C4.57958 8.69494 4.9097 8.4753 5.24805 8.54297C7.64238 9.02178 10.1076 9.02178 12.502 8.54297ZM12.4453 5.55762C12.7759 5.45844 13.1244 5.646 13.2236 5.97656C13.3228 6.30715 13.1353 6.65566 12.8047 6.75488C10.2414 7.52387 7.50861 7.52387 4.94531 6.75488C4.61475 6.65566 4.42719 6.30715 4.52637 5.97656C4.62559 5.646 4.9741 5.45844 5.30469 5.55762C7.63363 6.25628 10.1164 6.25628 12.4453 5.55762Z" fill="#332A2A"/>
</g>
<defs>
<clipPath id="clip0_1053_11880">
<rect width="18" height="18" fill="white"/>
</clipPath>
</defs>
</svg>
