<svg width="44" height="44" viewBox="0 0 44 44" fill="none" xmlns="http://www.w3.org/2000/svg">
<g clip-path="url(#clip0_1053_11834)">
<circle cx="21.9999" cy="22.0002" r="17.4167" fill="#E05149"/>
<path fill-rule="evenodd" clip-rule="evenodd" d="M5.33325 22.0002C5.33325 12.7954 12.7952 5.3335 21.9999 5.3335C22.4141 5.3335 22.7499 4.99771 22.7499 4.5835C22.7499 4.16928 22.4141 3.8335 21.9999 3.8335C11.9667 3.8335 3.83325 11.967 3.83325 22.0002C3.83325 25.9189 5.07488 29.5498 7.1861 32.5182C7.42618 32.8557 7.89443 32.9347 8.23197 32.6947C8.56952 32.4546 8.64853 31.9863 8.40845 31.6488C6.47188 28.926 5.33325 25.5972 5.33325 22.0002ZM28.9154 5.19629C28.5324 5.03851 28.094 5.22108 27.9362 5.60406C27.7785 5.98705 27.961 6.42543 28.344 6.58321C30.8007 7.59526 32.9633 9.17806 34.6661 11.1671C37.1606 14.0808 38.6666 17.8637 38.6666 22.0002C38.6666 27.0984 36.3784 31.6614 32.7704 34.7197C32.4544 34.9875 32.4154 35.4608 32.6832 35.7768C32.9511 36.0928 33.4243 36.1318 33.7403 35.8639C37.6702 32.5328 40.1666 27.5576 40.1666 22.0002C40.1666 17.4926 38.524 13.3668 35.8056 10.1916C33.9509 8.02514 31.5945 6.3 28.9154 5.19629ZM11.2295 34.7197C10.9135 34.4519 10.4402 34.4909 10.1724 34.8069C9.90454 35.1228 9.94357 35.5961 10.2595 35.8639C13.4255 38.5476 17.5246 40.1668 21.9999 40.1668C24.1815 40.1668 26.2749 39.7819 28.2148 39.0757C28.604 38.934 28.8047 38.5036 28.663 38.1144C28.5213 37.7252 28.0909 37.5245 27.7017 37.6662C25.9239 38.3134 24.004 38.6668 21.9999 38.6668C17.893 38.6668 14.1347 37.1823 11.2295 34.7197ZM13.0488 14.636C12.652 14.5169 12.2339 14.7421 12.1149 15.1388C11.9959 15.5356 12.221 15.9537 12.6177 16.0727C18.7378 17.9087 25.262 17.9087 31.3821 16.0727C31.7788 15.9537 32.004 15.5356 31.885 15.1388C31.7659 14.7421 31.3478 14.5169 30.9511 14.636C25.1122 16.3876 18.8877 16.3876 13.0488 14.636ZM12.0978 22.5406C12.1791 22.1344 12.5742 21.871 12.9803 21.9522C18.9344 23.143 25.0654 23.143 31.0195 21.9522C31.4257 21.871 31.8208 22.1344 31.902 22.5406C31.9833 22.9467 31.7198 23.3419 31.3137 23.4231C25.1654 24.6528 18.8345 24.6528 12.6862 23.4231C12.28 23.3419 12.0166 22.9467 12.0978 22.5406ZM13.0488 28.386C12.652 28.2669 12.2339 28.4921 12.1149 28.8888C11.9959 29.2856 12.221 29.7037 12.6177 29.8227C18.7378 31.6587 25.262 31.6587 31.3821 29.8227C31.7788 29.7037 32.004 29.2856 31.885 28.8888C31.7659 28.4921 31.3478 28.2669 30.9511 28.386C25.1122 30.1376 18.8877 30.1376 13.0488 28.386Z" fill="#252323"/>
</g>
<defs>
<clipPath id="clip0_1053_11834">
<rect width="44" height="44" fill="white"/>
</clipPath>
</defs>
</svg>
