<svg width="44" height="44" viewBox="0 0 44 44" fill="none" xmlns="http://www.w3.org/2000/svg">
<g clip-path="url(#clip0_1053_11834)">
<circle cx="21.9999" cy="22.0002" r="17.4167" fill="#E05149"/>
<path d="M10.1721 34.8071C10.4399 34.4912 10.9138 34.4515 11.2297 34.7192C14.1349 37.1818 17.8933 38.6665 22.0002 38.6665C24.0041 38.6665 25.9238 38.3136 27.7014 37.6665C28.0906 37.5248 28.5216 37.7255 28.6633 38.1147C28.8047 38.5038 28.604 38.9339 28.2151 39.0757C26.2753 39.7819 24.1817 40.1665 22.0002 40.1665C17.525 40.1665 13.426 38.5473 10.26 35.8638C9.94413 35.596 9.90454 35.1231 10.1721 34.8071ZM27.9358 5.604C28.0935 5.2211 28.5324 5.03821 28.9153 5.1958C31.5944 6.29951 33.9512 8.02546 35.8059 10.1919C38.5241 13.3671 40.1663 17.4931 40.1663 22.0005C40.1662 27.5577 37.6702 32.5327 33.7405 35.8638C33.4245 36.1316 32.9507 36.0928 32.6829 35.7769C32.4152 35.4609 32.4548 34.987 32.7708 34.7192C36.3785 31.661 38.6662 27.0983 38.6663 22.0005C38.6663 17.8641 37.1606 14.0812 34.6663 11.1675C32.9634 9.17848 30.8006 7.59556 28.344 6.5835C27.961 6.42573 27.7781 5.98697 27.9358 5.604ZM22.0002 3.8335C22.4143 3.83367 22.7502 4.16939 22.7502 4.5835C22.7502 4.9976 22.4143 5.33332 22.0002 5.3335C12.7955 5.3335 5.33325 12.7957 5.33325 22.0005C5.33332 25.5974 6.47193 28.9262 8.40845 31.6489C8.64845 31.9865 8.56921 32.4548 8.23169 32.6948C7.89416 32.9347 7.42581 32.8555 7.18579 32.5181C5.07473 29.5498 3.83332 25.919 3.83325 22.0005C3.83325 11.9673 11.9671 3.8335 22.0002 3.8335ZM30.9514 28.3853C31.3478 28.2666 31.7658 28.492 31.885 28.8882C32.004 29.2849 31.7788 29.7037 31.3821 29.8228C25.2621 31.6587 18.7374 31.6588 12.6174 29.8228C12.2209 29.7036 11.9955 29.2848 12.1145 28.8882C12.2337 28.4918 12.6525 28.2663 13.0491 28.3853C18.8879 30.1369 25.1126 30.1369 30.9514 28.3853ZM31.0198 21.9526C31.4257 21.8716 31.8202 22.1347 31.9016 22.5405C31.9826 22.9466 31.7198 23.3421 31.3137 23.4233C25.1655 24.653 18.834 24.653 12.6858 23.4233C12.2799 23.342 12.0169 22.9465 12.0979 22.5405C12.1793 22.1346 12.5747 21.8714 12.9807 21.9526C18.9347 23.1434 25.0658 23.1434 31.0198 21.9526ZM30.9514 14.6353C31.3478 14.5166 31.7658 14.742 31.885 15.1382C32.004 15.5349 31.7788 15.9537 31.3821 16.0728C25.2621 17.9087 18.7374 17.9088 12.6174 16.0728C12.2209 15.9536 11.9955 15.5348 12.1145 15.1382C12.2337 14.7418 12.6525 14.5163 13.0491 14.6353C18.8879 16.3869 25.1126 16.3869 30.9514 14.6353Z" fill="#332A2A"/>
</g>
<defs>
<clipPath id="clip0_1053_11834">
<rect width="44" height="44" fill="white"/>
</clipPath>
</defs>
</svg>
