<svg width="23" height="23" viewBox="0 0 23 23" fill="none" xmlns="http://www.w3.org/2000/svg">
<g clip-path="url(#clip0_1053_11865)">
<circle cx="11.4999" cy="11.5002" r="9.10417" fill="#E05149"/>
<path fill-rule="evenodd" clip-rule="evenodd" d="M3.07095 11.4999C3.07095 6.84457 6.84481 3.0707 11.5001 3.0707C11.8729 3.0707 12.1751 2.7685 12.1751 2.3957C12.1751 2.02291 11.8729 1.7207 11.5001 1.7207C6.09923 1.7207 1.72095 6.09899 1.72095 11.4999C1.72095 13.609 2.38941 15.564 3.52595 17.1619C3.74201 17.4657 4.16344 17.5368 4.46723 17.3208C4.77102 17.1047 4.84213 16.6833 4.62607 16.3795C3.64671 15.0025 3.07095 13.3194 3.07095 11.4999ZM15.2228 2.4544C14.8781 2.3124 14.4836 2.47671 14.3416 2.8214C14.1996 3.16609 14.3639 3.56063 14.7086 3.70263C15.9508 4.21437 17.0447 5.01489 17.9061 6.02114C19.1679 7.4949 19.9293 9.40761 19.9293 11.4999C19.9293 14.0782 18.7725 16.3857 16.9472 17.9329C16.6628 18.1739 16.6277 18.5999 16.8687 18.8842C17.1098 19.1686 17.5357 19.2037 17.8201 18.9627C19.9351 17.1699 21.2793 14.4915 21.2793 11.4999C21.2793 9.07365 20.3949 6.85228 18.9317 5.14318C17.9335 3.97726 16.6652 3.04863 15.2228 2.4544ZM6.05306 17.9329C5.76868 17.6918 5.34274 17.727 5.10169 18.0113C4.86064 18.2957 4.89576 18.7216 5.18014 18.9627C6.88429 20.4072 9.09126 21.279 11.5001 21.279C12.674 21.279 13.801 21.0719 14.8456 20.6916C15.1959 20.5641 15.3765 20.1767 15.249 19.8264C15.1214 19.4761 14.7341 19.2955 14.3838 19.4231C13.485 19.7503 12.5142 19.929 11.5001 19.929C9.42278 19.929 7.5225 19.1784 6.05306 17.9329ZM6.90241 7.37938C6.54534 7.27226 6.16904 7.47488 6.06191 7.83195C5.95479 8.18902 6.15742 8.56532 6.51449 8.67244C9.76664 9.64809 13.2336 9.64809 16.4857 8.67244C16.8428 8.56532 17.0454 8.18902 16.9383 7.83195C16.8312 7.47488 16.4549 7.27226 16.0978 7.37938C13.0987 8.27911 9.90152 8.27911 6.90241 7.37938ZM6.04656 11.7269C6.11967 11.3613 6.47527 11.1242 6.84083 11.1974C9.91656 11.8125 13.0837 11.8125 16.1594 11.1974C16.525 11.1242 16.8806 11.3613 16.9537 11.7269C17.0268 12.0924 16.7897 12.448 16.4242 12.5211C13.1736 13.1712 9.82658 13.1712 6.57607 12.5211C6.21052 12.448 5.97344 12.0924 6.04656 11.7269ZM6.90241 14.5669C6.54534 14.4598 6.16904 14.6624 6.06191 15.0195C5.95479 15.3765 6.15742 15.7528 6.51449 15.8599C9.76664 16.8356 13.2336 16.8356 16.4857 15.8599C16.8428 15.7528 17.0454 15.3765 16.9383 15.0195C16.8312 14.6624 16.4549 14.4598 16.0978 14.5669C13.0987 15.4666 9.90152 15.4666 6.90241 14.5669Z" fill="#252323"/>
</g>
<defs>
<clipPath id="clip0_1053_11865">
<rect width="23" height="23" fill="white"/>
</clipPath>
</defs>
</svg>
