<svg width="28" height="28" viewBox="0 0 28 28" fill="none" xmlns="http://www.w3.org/2000/svg">
<g clip-path="url(#clip0_1053_11896)">
<path fill-rule="evenodd" clip-rule="evenodd" d="M3.66675 13.9998C3.66675 8.29289 8.29314 3.6665 14.0001 3.6665C14.4143 3.6665 14.7501 3.33072 14.7501 2.9165C14.7501 2.50229 14.4143 2.1665 14.0001 2.1665C7.46471 2.1665 2.16675 7.46447 2.16675 13.9998C2.16675 16.5521 2.9756 18.9176 4.35086 20.8512C4.59093 21.1887 5.05919 21.2678 5.39673 21.0277C5.73428 20.7876 5.81329 20.3194 5.57321 19.9818C4.3726 18.2938 3.66675 16.2303 3.66675 13.9998ZM18.5047 3.05429C18.1217 2.89652 17.6834 3.07908 17.5256 3.46207C17.3678 3.84506 17.5504 4.28343 17.9334 4.44121C19.4562 5.06859 20.7972 6.04994 21.8532 7.28343C23.3999 9.09008 24.3334 11.435 24.3334 13.9998C24.3334 17.1606 22.9152 19.9894 20.6777 21.8861C20.3617 22.1539 20.3227 22.6272 20.5905 22.9431C20.8583 23.2591 21.3316 23.2981 21.6476 23.0303C24.2069 20.8608 25.8334 17.6199 25.8334 13.9998C25.8334 11.0639 24.7633 8.37606 22.9927 6.30791C21.7848 4.89702 20.2501 3.77332 18.5047 3.05429ZM7.32249 21.8861C7.00652 21.6182 6.53326 21.6572 6.26542 21.9732C5.99759 22.2892 6.03661 22.7625 6.35258 23.0303C8.41473 24.7783 11.0852 25.8332 14.0001 25.8332C15.4207 25.8332 16.7844 25.5825 18.0483 25.1224C18.4375 24.9807 18.6382 24.5503 18.4965 24.1611C18.3548 23.7718 17.9244 23.5712 17.5352 23.7129C16.4333 24.114 15.2431 24.3332 14.0001 24.3332C11.4535 24.3332 9.12385 23.413 7.32249 21.8861ZM8.38226 9.0523C7.98551 8.93328 7.5674 9.15841 7.44838 9.55516C7.32935 9.9519 7.55449 10.37 7.95124 10.489C11.8969 11.6727 16.1032 11.6727 20.0489 10.489C20.4457 10.37 20.6708 9.9519 20.5518 9.55516C20.4328 9.15841 20.0146 8.93328 19.6179 9.0523C15.9534 10.1517 12.0468 10.1517 8.38226 9.0523ZM7.43131 14.2902C7.51255 13.8841 7.90767 13.6207 8.31384 13.7019C12.0675 14.4526 15.9327 14.4526 19.6863 13.7019C20.0925 13.6207 20.4876 13.8841 20.5689 14.2902C20.6501 14.6964 20.3867 15.0915 19.9805 15.1728C16.0326 15.9623 11.9675 15.9623 8.01966 15.1728C7.61349 15.0915 7.35008 14.6964 7.43131 14.2902ZM8.38226 17.8023C7.98551 17.6833 7.5674 17.9084 7.44838 18.3052C7.32935 18.7019 7.55449 19.12 7.95124 19.239C11.8969 20.4228 16.1032 20.4228 20.0489 19.239C20.4457 19.12 20.6708 18.7019 20.5518 18.3052C20.4328 17.9084 20.0146 17.6833 19.6179 17.8023C15.9534 18.9017 12.0468 18.9017 8.38226 17.8023Z" fill="#332A2A"/>
</g>
<defs>
<clipPath id="clip0_1053_11896">
<rect width="28" height="28" fill="white"/>
</clipPath>
</defs>
</svg>
