<svg width="18" height="18" viewBox="0 0 18 18" fill="none" xmlns="http://www.w3.org/2000/svg">
<g clip-path="url(#clip0_1053_11880)">
<circle cx="9" cy="9" r="7.125" fill="#E05149"/>
<path fill-rule="evenodd" clip-rule="evenodd" d="M2.5 9C2.5 5.41015 5.41015 2.5 9 2.5C9.34518 2.5 9.625 2.22018 9.625 1.875C9.625 1.52982 9.34518 1.25 9 1.25C4.71979 1.25 1.25 4.71979 1.25 9C1.25 10.6714 1.77978 12.2208 2.68051 13.4872C2.88058 13.7685 3.27079 13.8344 3.55208 13.6343C3.83336 13.4342 3.89921 13.044 3.69914 12.7628C2.94396 11.701 2.5 10.4033 2.5 9ZM11.9503 1.83149C11.6311 1.70001 11.2658 1.85215 11.1343 2.17131C11.0028 2.49046 11.155 2.85578 11.4741 2.98726C12.4319 3.38184 13.2755 3.99916 13.9399 4.77521C14.9129 5.91173 15.5 7.38651 15.5 9C15.5 10.9882 14.6081 12.7675 13.2004 13.9607C12.9371 14.1839 12.9045 14.5783 13.1277 14.8416C13.3509 15.1049 13.7453 15.1375 14.0086 14.9143C15.6846 13.4936 16.75 11.3709 16.75 9C16.75 7.07729 16.049 5.31671 14.8895 3.96229C14.0985 3.03838 13.0934 2.30245 11.9503 1.83149ZM4.79964 13.9607C4.53633 13.7375 4.14194 13.7701 3.91874 14.0334C3.69555 14.2967 3.72807 14.6911 3.99138 14.9143C5.34188 16.059 7.09105 16.75 9 16.75C9.93014 16.75 10.8233 16.5859 11.6513 16.2844C11.9757 16.1664 12.1429 15.8077 12.0248 15.4833C11.9067 15.159 11.548 14.9918 11.2237 15.1099C10.5308 15.3621 9.78219 15.5 9 15.5C7.39802 15.5 5.93281 14.9213 4.79964 13.9607ZM5.42959 5.68261C5.09897 5.58342 4.75054 5.77104 4.65136 6.10166C4.55217 6.43228 4.73979 6.78071 5.07041 6.87989C7.6337 7.64888 10.3663 7.64888 12.9296 6.87989C13.2602 6.78071 13.4478 6.43228 13.3486 6.10166C13.2495 5.77104 12.901 5.58342 12.5704 5.68261C10.2414 6.38131 7.75859 6.38131 5.42959 5.68261ZM4.63714 9.15868C4.70483 8.8202 5.0341 8.60069 5.37257 8.66839C7.76715 9.1473 10.2329 9.1473 12.6274 8.66839C12.9659 8.60069 13.2952 8.8202 13.3629 9.15868C13.4306 9.49715 13.211 9.82642 12.8726 9.89411C10.3162 10.4054 7.68383 10.4054 5.12743 9.89411C4.78895 9.82642 4.56944 9.49715 4.63714 9.15868ZM5.42959 11.3076C5.09897 11.2084 4.75054 11.396 4.65136 11.7267C4.55217 12.0573 4.73979 12.4057 5.07041 12.5049C7.6337 13.2739 10.3663 13.2739 12.9296 12.5049C13.2602 12.4057 13.4478 12.0573 13.3486 11.7267C13.2495 11.396 12.901 11.2084 12.5704 11.3076C10.2414 12.0063 7.75859 12.0063 5.42959 11.3076Z" fill="#252323"/>
</g>
<defs>
<clipPath id="clip0_1053_11880">
<rect width="18" height="18" fill="white"/>
</clipPath>
</defs>
</svg>
