<svg width="28" height="29" viewBox="0 0 28 29" fill="none" xmlns="http://www.w3.org/2000/svg">
<g clip-path="url(#clip0_1053_11896)">
<path fill-rule="evenodd" clip-rule="evenodd" d="M3.66675 14.7498C3.66675 9.04289 8.29314 4.4165 14.0001 4.4165C14.4143 4.4165 14.7501 4.08072 14.7501 3.6665C14.7501 3.25229 14.4143 2.9165 14.0001 2.9165C7.46471 2.9165 2.16675 8.21447 2.16675 14.7498C2.16675 17.3021 2.9756 19.6676 4.35086 21.6012C4.59093 21.9387 5.05919 22.0178 5.39673 21.7777C5.73428 21.5376 5.81329 21.0694 5.57321 20.7318C4.3726 19.0438 3.66675 16.9803 3.66675 14.7498ZM18.5047 3.80429C18.1217 3.64652 17.6834 3.82908 17.5256 4.21207C17.3678 4.59506 17.5504 5.03343 17.9334 5.19121C19.4562 5.81859 20.7972 6.79994 21.8532 8.03343C23.3999 9.84008 24.3334 12.185 24.3334 14.7498C24.3334 17.9106 22.9152 20.7394 20.6777 22.6361C20.3617 22.9039 20.3227 23.3772 20.5905 23.6931C20.8583 24.0091 21.3316 24.0481 21.6476 23.7803C24.2069 21.6108 25.8334 18.3699 25.8334 14.7498C25.8334 11.8139 24.7633 9.12606 22.9927 7.05791C21.7848 5.64702 20.2501 4.52332 18.5047 3.80429ZM7.32249 22.6361C7.00652 22.3682 6.53326 22.4072 6.26542 22.7232C5.99759 23.0392 6.03661 23.5125 6.35258 23.7803C8.41473 25.5283 11.0852 26.5832 14.0001 26.5832C15.4207 26.5832 16.7844 26.3325 18.0483 25.8724C18.4375 25.7307 18.6382 25.3003 18.4965 24.9111C18.3548 24.5218 17.9244 24.3212 17.5352 24.4629C16.4333 24.864 15.2431 25.0832 14.0001 25.0832C11.4535 25.0832 9.12385 24.163 7.32249 22.6361ZM8.38226 9.8023C7.98551 9.68328 7.5674 9.90841 7.44838 10.3052C7.32935 10.7019 7.55449 11.12 7.95124 11.239C11.8969 12.4227 16.1032 12.4227 20.0489 11.239C20.4457 11.12 20.6708 10.7019 20.5518 10.3052C20.4328 9.90841 20.0146 9.68328 19.6179 9.8023C15.9534 10.9017 12.0468 10.9017 8.38226 9.8023ZM7.43131 15.0402C7.51255 14.6341 7.90767 14.3707 8.31384 14.4519C12.0675 15.2026 15.9327 15.2026 19.6863 14.4519C20.0925 14.3707 20.4876 14.6341 20.5689 15.0402C20.6501 15.4464 20.3867 15.8415 19.9805 15.9228C16.0326 16.7123 11.9675 16.7123 8.01966 15.9228C7.61349 15.8415 7.35008 15.4464 7.43131 15.0402ZM8.38226 18.5523C7.98551 18.4333 7.5674 18.6584 7.44838 19.0552C7.32935 19.4519 7.55449 19.87 7.95124 19.989C11.8969 21.1728 16.1032 21.1728 20.0489 19.989C20.4457 19.87 20.6708 19.4519 20.5518 19.0552C20.4328 18.6584 20.0146 18.4333 19.6179 18.5523C15.9534 19.6517 12.0468 19.6517 8.38226 18.5523Z" fill="#252323"/>
</g>
<defs>
<clipPath id="clip0_1053_11896">
<rect width="28" height="28" fill="white" transform="translate(0 0.75)"/>
</clipPath>
</defs>
</svg>
