<svg width="23" height="24" viewBox="0 0 23 24" fill="none" xmlns="http://www.w3.org/2000/svg">
<g clip-path="url(#clip0_1053_11897)">
<path fill-rule="evenodd" clip-rule="evenodd" d="M3.07095 12.2499C3.07095 7.59457 6.84481 3.8207 11.5001 3.8207C11.8729 3.8207 12.1751 3.5185 12.1751 3.1457C12.1751 2.77291 11.8729 2.4707 11.5001 2.4707C6.09923 2.4707 1.72095 6.84899 1.72095 12.2499C1.72095 14.359 2.38941 16.314 3.52595 17.9119C3.74201 18.2157 4.16344 18.2868 4.46723 18.0708C4.77102 17.8547 4.84213 17.4333 4.62607 17.1295C3.64671 15.7525 3.07095 14.0694 3.07095 12.2499ZM15.2228 3.2044C14.8781 3.0624 14.4836 3.22671 14.3416 3.5714C14.1996 3.91609 14.3639 4.31063 14.7086 4.45263C15.9508 4.96437 17.0447 5.76489 17.9061 6.77114C19.1679 8.2449 19.9293 10.1576 19.9293 12.2499C19.9293 14.8282 18.7725 17.1357 16.9472 18.6829C16.6628 18.9239 16.6277 19.3499 16.8687 19.6342C17.1098 19.9186 17.5357 19.9537 17.8201 19.7127C19.9351 17.9199 21.2793 15.2415 21.2793 12.2499C21.2793 9.82365 20.3949 7.60228 18.9317 5.89318C17.9335 4.72726 16.6652 3.79863 15.2228 3.2044ZM6.05306 18.6829C5.76868 18.4418 5.34274 18.477 5.10169 18.7613C4.86064 19.0457 4.89576 19.4716 5.18014 19.7127C6.88429 21.1572 9.09126 22.029 11.5001 22.029C12.674 22.029 13.801 21.8219 14.8456 21.4416C15.1959 21.3141 15.3765 20.9267 15.249 20.5764C15.1214 20.2261 14.7341 20.0455 14.3838 20.1731C13.485 20.5003 12.5142 20.679 11.5001 20.679C9.42278 20.679 7.5225 19.9284 6.05306 18.6829ZM6.90241 8.12938C6.54534 8.02226 6.16904 8.22488 6.06191 8.58195C5.95479 8.93902 6.15742 9.31532 6.51449 9.42244C9.76664 10.3981 13.2336 10.3981 16.4857 9.42244C16.8428 9.31532 17.0454 8.93902 16.9383 8.58195C16.8312 8.22488 16.4549 8.02226 16.0978 8.12938C13.0987 9.02911 9.90152 9.02911 6.90241 8.12938ZM6.04656 12.4769C6.11967 12.1113 6.47527 11.8742 6.84083 11.9474C9.91656 12.5625 13.0837 12.5625 16.1594 11.9474C16.525 11.8742 16.8806 12.1113 16.9537 12.4769C17.0268 12.8424 16.7897 13.198 16.4242 13.2711C13.1736 13.9212 9.82658 13.9212 6.57607 13.2711C6.21052 13.198 5.97344 12.8424 6.04656 12.4769ZM6.90241 15.3169C6.54534 15.2098 6.16904 15.4124 6.06191 15.7695C5.95479 16.1265 6.15742 16.5028 6.51449 16.6099C9.76664 17.5856 13.2336 17.5856 16.4857 16.6099C16.8428 16.5028 17.0454 16.1265 16.9383 15.7695C16.8312 15.4124 16.4549 15.2098 16.0978 15.3169C13.0987 16.2166 9.90152 16.2166 6.90241 15.3169Z" fill="#252323"/>
</g>
<defs>
<clipPath id="clip0_1053_11897">
<rect width="23" height="23" fill="white" transform="translate(0 0.75)"/>
</clipPath>
</defs>
</svg>
