<svg width="44" height="44" viewBox="0 0 44 44" fill="none" xmlns="http://www.w3.org/2000/svg">
<g clip-path="url(#clip0_1102_12189)">
<path fill-rule="evenodd" clip-rule="evenodd" d="M28.8904 8.05784C28.8049 8.02697 28.6825 8.03975 28.5847 8.14745C27.1571 9.71949 25.2335 11.5258 23.0183 12.944C20.8083 14.3589 18.2545 15.4216 15.5832 15.4216H13.7499C13.3329 15.4216 12.9949 15.0836 12.9949 14.6666C12.9949 14.2496 13.3329 13.9116 13.7499 13.9116H15.5832C17.86 13.9116 20.1291 13.0008 22.2041 11.6723C24.2741 10.347 26.0977 8.63995 27.4669 7.1323C27.9991 6.54628 28.7754 6.41078 29.4035 6.63768C29.836 6.79395 30.2067 7.12927 30.3764 7.5873C30.3941 7.61431 30.4103 7.64278 30.4248 7.67264C31.3675 9.61632 31.9581 12.5152 32.26 15.3939C32.3032 15.8059 32.0043 16.1749 31.5923 16.2181C31.1803 16.2613 30.8114 15.9624 30.7682 15.5504C30.5971 13.9193 30.3354 12.3352 29.9862 10.9595C29.9471 11.1344 29.9072 11.3104 29.8669 11.4882L29.8669 11.4882L29.8669 11.4883C29.7272 12.1045 29.5829 12.7409 29.4511 13.4187C29.0808 15.3231 28.755 17.7633 28.755 21.4999C28.755 26.8613 29.3175 29.2078 29.8166 31.2899L29.8166 31.2899C29.8329 31.3579 29.8492 31.4257 29.8653 31.4932C30.0783 30.623 30.2622 29.6535 30.4164 28.6223C30.7759 26.2176 30.9614 23.5635 31.0001 21.2375C31.007 20.8233 31.3483 20.4932 31.7624 20.5001C32.1766 20.5069 32.5068 20.8483 32.4999 21.2624C32.4603 23.6417 32.2709 26.3627 31.8999 28.8441C31.5326 31.3009 30.9754 33.6112 30.1584 35.1091C30.0655 35.2793 29.9163 35.3993 29.7465 35.4583C29.6315 35.5489 29.5061 35.6244 29.3751 35.683C28.7764 35.9509 27.9976 35.9049 27.4067 35.3938C24.695 33.0486 20.4697 30.4113 16.3382 30.1156V36.4999C16.3382 38.0215 15.1048 39.2549 13.5832 39.2549H11.5415C10.5723 39.2549 9.78654 38.4692 9.78654 37.4999V30.0883H8.49987C6.42604 30.0883 4.74487 28.4071 4.74487 26.3333V26.1249C4.74487 25.708 5.0829 25.3699 5.49987 25.3699C5.91685 25.3699 6.25487 25.708 6.25487 26.1249V26.3333C6.25487 27.5732 7.25999 28.5783 8.49987 28.5783H10.5415H12.3749C12.7918 28.5783 13.1299 28.9163 13.1299 29.3333C13.1299 29.7503 12.7918 30.0883 12.3749 30.0883H11.2965V37.4999C11.2965 37.6353 11.4062 37.7449 11.5415 37.7449H13.5832C14.2708 37.7449 14.8282 37.1875 14.8282 36.4999V29.3333C14.8282 29.133 14.9077 28.941 15.0493 28.7994C15.1909 28.6578 15.383 28.5783 15.5832 28.5783C20.5017 28.5783 25.4336 31.691 28.3944 34.2517C28.5003 34.3432 28.643 34.3563 28.7583 34.3047C28.8126 34.2804 28.8403 34.2501 28.8518 34.231C28.8594 34.2185 28.8714 34.1947 28.8632 34.1385C28.7439 33.3223 28.5658 32.5772 28.3709 31.7616C27.8648 29.6434 27.245 27.0498 27.245 21.4999C27.245 17.665 27.5804 15.1283 27.9688 13.1305C28.1226 12.3396 28.277 11.6625 28.4197 11.037L28.4198 11.0368L28.4198 11.0367L28.4198 11.0367C28.6472 10.0398 28.8448 9.1734 28.9627 8.18447C28.97 8.12329 28.9561 8.10347 28.9541 8.10055L28.9539 8.10029C28.9486 8.09229 28.9315 8.07269 28.8904 8.05784ZM9.92154 14.6666C9.92154 15.0836 9.58351 15.4216 9.16654 15.4216H8.49987C7.25999 15.4216 6.25487 16.4267 6.25487 17.6666V21.9999C6.25487 22.4169 5.91685 22.7549 5.49987 22.7549C5.0829 22.7549 4.74487 22.4169 4.74487 21.9999V17.6666C4.74487 15.5928 6.42604 13.9116 8.49987 13.9116H9.16654C9.58351 13.9116 9.92154 14.2496 9.92154 14.6666ZM37.8227 8.56111C38.065 8.90042 37.9865 9.37195 37.6471 9.61432L34.4388 11.906C34.0995 12.1483 33.628 12.0698 33.3856 11.7304C33.1432 11.3911 33.2218 10.9196 33.5611 10.6772L36.7695 8.38558C37.1088 8.14322 37.5803 8.22181 37.8227 8.56111ZM36 21.2449C35.583 21.2449 35.245 21.583 35.245 21.9999C35.245 22.4169 35.583 22.7549 36 22.7549H37.8333C38.2503 22.7549 38.5883 22.4169 38.5883 21.9999C38.5883 21.583 38.2503 21.2449 37.8333 21.2449H36ZM33.4781 31.1418C33.7794 30.8536 34.2574 30.8643 34.5456 31.1656C34.6998 31.3268 34.8433 31.4774 34.9793 31.6202C35.7758 32.4564 36.3167 33.0242 37.2575 33.8785C37.5662 34.1588 37.5892 34.6363 37.3089 34.945C37.0286 35.2537 36.5511 35.2767 36.2424 34.9964C35.259 34.1034 34.6814 33.4969 33.8822 32.6579L33.8822 32.6578L33.8822 32.6578L33.8813 32.6569L33.881 32.6565C33.7461 32.5149 33.6049 32.3667 33.4544 32.2093C33.1662 31.908 33.1768 31.4301 33.4781 31.1418ZM36.9887 16.5912C37.3843 16.4593 37.5981 16.0318 37.4662 15.6362C37.3344 15.2406 36.9068 15.0268 36.5112 15.1587L35.1362 15.617C34.7407 15.7489 34.5269 16.1765 34.6587 16.572C34.7906 16.9676 35.2182 17.1814 35.6137 17.0495L36.9887 16.5912ZM37.4662 28.0302C37.5981 27.6346 37.3843 27.2071 36.9887 27.0752L35.6137 26.6169C35.2182 26.485 34.7906 26.6988 34.6587 27.0944C34.5269 27.4899 34.7407 27.9175 35.1362 28.0494L36.5112 28.5077C36.9068 28.6396 37.3344 28.4258 37.4662 28.0302Z" fill="#252323"/>
</g>
<defs>
<clipPath id="clip0_1102_12189">
<rect width="44" height="44" fill="white"/>
</clipPath>
</defs>
</svg>
