<svg width="23" height="23" viewBox="0 0 23 23" fill="none" xmlns="http://www.w3.org/2000/svg">
<g clip-path="url(#clip0_1102_12211)">
<path fill-rule="evenodd" clip-rule="evenodd" d="M14.5816 5.32355C14.4991 5.28941 14.3347 5.28733 14.1811 5.43112C12.6862 6.83036 10.5112 8.34155 8.14578 8.34155H7.18745C6.81466 8.34155 6.51245 8.03934 6.51245 7.66655C6.51245 7.29375 6.81466 6.99155 7.18745 6.99155H8.14578C9.97512 6.99155 11.8229 5.78929 13.2585 4.44552C13.789 3.94894 14.5137 3.8343 15.0981 4.07627C15.3925 4.19821 15.6588 4.41549 15.8248 4.72524C15.8395 4.75278 15.8533 4.78072 15.8661 4.80901C16.7974 6.4705 17.2243 9.02756 17.2243 11.3973C17.2243 12.6349 17.1082 13.8586 16.8698 14.9259C16.6349 15.9779 16.2667 16.9451 15.7165 17.61C15.6726 17.6632 15.6222 17.7078 15.5675 17.7439C15.4297 17.9033 15.2605 18.0333 15.0745 18.1272C14.5184 18.408 13.7862 18.3916 13.1989 17.968C11.9307 17.0533 10.3598 16.2438 8.82078 16.0514V18.3679C8.82078 19.7111 7.73197 20.7999 6.38884 20.7999C5.53088 20.7999 4.83537 20.1044 4.83537 19.2464V15.9393C3.33078 15.6276 2.19995 14.2948 2.19995 12.6978V11.4999V9.58321C2.19995 8.15187 3.36028 6.99155 4.79162 6.99155C5.16441 6.99155 5.46662 7.29375 5.46662 7.66655C5.46662 8.03934 5.16441 8.34155 4.79162 8.34155C4.10586 8.34155 3.54995 8.89746 3.54995 9.58321V11.4999V12.6978C3.54995 13.7805 4.42766 14.6582 5.51037 14.6582H6.16081C6.53361 14.6582 6.83581 14.9604 6.83581 15.3332C6.83581 15.6978 6.54679 15.9949 6.18537 16.0078V19.2464C6.18537 19.3588 6.27646 19.4499 6.38884 19.4499C6.98638 19.4499 7.47078 18.9655 7.47078 18.3679V15.3332C7.47078 15.1542 7.5419 14.9825 7.66849 14.8559C7.79507 14.7293 7.96676 14.6582 8.14578 14.6582C10.3098 14.6582 12.445 15.7597 13.9886 16.8731C14.1486 16.9884 14.3394 16.986 14.466 16.9221C14.5257 16.892 14.5536 16.8571 14.565 16.8348C14.5731 16.8191 14.5871 16.7844 14.5691 16.7094L14.554 16.646C14.2828 15.5121 13.9614 14.1684 13.9614 11.2385C13.9614 8.44067 14.3012 6.94552 14.5759 5.73722L14.5759 5.73702L14.5765 5.73445L14.5767 5.73382L14.5768 5.73304L14.5769 5.73257C14.5964 5.64696 14.6155 5.56279 14.6342 5.47969C14.6442 5.43522 14.6442 5.40579 14.6418 5.38759C14.6339 5.37416 14.6259 5.36084 14.618 5.3476C14.6167 5.34551 14.6155 5.34341 14.6143 5.3413C14.6064 5.33562 14.5958 5.32946 14.5816 5.32355ZM15.5286 7.89495C15.4027 8.75204 15.3114 9.81163 15.3114 11.2385C15.3114 12.8045 15.4058 13.8807 15.5339 14.7124C15.5401 14.6857 15.5463 14.6588 15.5523 14.6317C15.7649 13.6797 15.8743 12.5572 15.8743 11.3973C15.8743 10.1848 15.7551 8.97087 15.5286 7.89495ZM19.9991 4.31209C20.2158 4.61544 20.1455 5.03701 19.8422 5.25369L18.1651 6.45161C17.8617 6.66829 17.4401 6.59803 17.2235 6.29468C17.0068 5.99132 17.077 5.56975 17.3804 5.35307L19.0575 4.15515C19.3608 3.93847 19.7824 4.00874 19.9991 4.31209ZM18.8182 10.8249C18.4454 10.8249 18.1432 11.1271 18.1432 11.4999C18.1432 11.8727 18.4454 12.1749 18.8182 12.1749H19.7765C20.1493 12.1749 20.4515 11.8727 20.4515 11.4999C20.4515 11.1271 20.1493 10.8249 19.7765 10.8249H18.8182ZM17.3062 16.076C17.5756 15.8183 18.0028 15.8278 18.2605 16.0972C18.3402 16.1805 18.4142 16.2582 18.4842 16.3317L18.4854 16.3329L18.4866 16.3342L18.4883 16.336C18.9042 16.7726 19.1801 17.0622 19.664 17.5016C19.94 17.7522 19.9606 18.1791 19.71 18.4551C19.4594 18.7311 19.0325 18.7516 18.7565 18.501C18.2345 18.027 17.9257 17.7028 17.5075 17.2637C17.4369 17.1896 17.3633 17.1123 17.2849 17.0304C17.0273 16.761 17.0368 16.3337 17.3062 16.076ZM19.4237 8.93854C19.7774 8.82065 19.9685 8.43838 19.8506 8.08472C19.7327 7.73106 19.3504 7.53993 18.9968 7.65781L18.278 7.8974C17.9244 8.01528 17.7332 8.39755 17.8511 8.75121C17.969 9.10487 18.3513 9.29601 18.7049 9.17812L19.4237 8.93854ZM19.8506 14.7407C19.9685 14.387 19.7774 14.0048 19.4237 13.8869L18.7049 13.6473C18.3513 13.5294 17.969 13.7206 17.8511 14.0742C17.7332 14.4279 17.9244 14.8101 18.278 14.928L18.9968 15.1676C19.3504 15.2855 19.7327 15.0944 19.8506 14.7407Z" fill="#252323"/>
</g>
<defs>
<clipPath id="clip0_1102_12211">
<rect width="23" height="23" fill="white"/>
</clipPath>
</defs>
</svg>
