<svg width="23" height="23" viewBox="0 0 23 23" fill="none" xmlns="http://www.w3.org/2000/svg">
<g clip-path="url(#clip0_1102_12264)">
<path d="M8.14592 7.66667C10.5722 7.66667 12.8834 5.85105 14.3672 4.29728C14.7205 3.9273 15.4222 4.22138 15.3653 4.72977L14.6364 11.2386L15.1973 15.9866C15.3123 16.9603 13.9523 17.6458 13.1356 17.1033C11.7012 16.1505 9.90774 15.3333 8.14592 15.3333H6.46883H5.5105C4.055 15.3333 2.87508 14.1534 2.87508 12.6979V10.3021C2.87508 8.84658 4.055 7.66667 5.5105 7.66667H8.14592Z" fill="#E05149"/>
<path fill-rule="evenodd" clip-rule="evenodd" d="M7.10718 6.91148H8.06616C9.89543 6.9114 11.7429 5.7093 13.1785 4.36559C13.709 3.86904 14.434 3.75449 15.0183 3.99645C15.3128 4.11839 15.5789 4.33612 15.7449 4.64586C15.76 4.67414 15.7741 4.70283 15.7872 4.73189C16.7176 6.39342 17.144 8.94904 17.144 11.3176C17.144 12.5551 17.0288 13.7787 16.7905 14.846C16.5556 15.8978 16.1873 16.8656 15.6372 17.5305C15.5928 17.5842 15.5418 17.6292 15.4864 17.6654C15.3489 17.8241 15.1802 17.9536 14.9949 18.0472C14.4388 18.328 13.7062 18.3116 13.1189 17.888C11.8508 16.9735 10.2798 16.1654 8.74097 15.973V18.2884C8.74091 19.6314 7.65228 20.7199 6.30933 20.7201C5.45137 20.7201 4.75562 20.0243 4.75562 19.1664V15.8597C3.25109 15.5481 2.12003 14.2154 2.11987 12.6185V9.50328C2.12005 8.07214 3.2805 6.91155 4.71167 6.91148C5.08446 6.91148 5.38647 7.21447 5.38647 7.58727C5.3863 7.95991 5.08435 8.26207 4.71167 8.26207C4.02608 8.26214 3.47063 8.81772 3.47046 9.50328V12.6185C3.47063 13.701 4.34788 14.5784 5.43042 14.5785H6.08081C6.45349 14.5785 6.75544 14.8806 6.75562 15.2533C6.75562 15.6179 6.46676 15.9133 6.10522 15.9261V19.1664C6.10522 19.2787 6.19695 19.3705 6.30933 19.3705C6.90669 19.3703 7.3913 18.8858 7.39136 18.2884V15.2533C7.39144 15.0745 7.46225 14.9032 7.58862 14.7767C7.71521 14.6501 7.88714 14.5785 8.06616 14.5785C10.2301 14.5785 12.3653 15.68 13.9089 16.7933C14.0689 16.9087 14.2599 16.9061 14.3865 16.8421C14.4458 16.8121 14.4737 16.7775 14.4851 16.7552C14.4931 16.7395 14.5068 16.705 14.489 16.6302L14.4744 16.5693L14.4744 16.5693C14.2031 15.4349 13.8816 14.0906 13.8816 11.1586C13.8816 8.36084 14.2215 6.86549 14.4962 5.65719L14.4962 5.65718L14.4962 5.6571C14.516 5.56996 14.5355 5.4843 14.5544 5.39977C14.5645 5.3549 14.5644 5.32535 14.5619 5.30722C14.5542 5.294 14.5464 5.28088 14.5385 5.26784C14.5373 5.26583 14.5361 5.26382 14.5349 5.2618C14.527 5.2559 14.5162 5.24953 14.5017 5.24352C14.4192 5.20944 14.2548 5.20823 14.1013 5.35191C12.6065 6.75107 10.4315 8.26199 8.06616 8.26207H7.10718C6.7347 8.26183 6.43255 7.95976 6.43237 7.58727C6.43237 7.21463 6.73459 6.91173 7.10718 6.91148ZM15.4489 7.81468C15.3227 8.67183 15.2312 9.73151 15.2312 11.1586C15.2312 12.7241 15.3258 13.8002 15.454 14.6319C15.4601 14.6055 15.4661 14.5788 15.4721 14.552C15.6847 13.6 15.7944 12.4775 15.7944 11.3176C15.7944 10.105 15.6753 8.89078 15.4489 7.81468ZM18.9781 4.07599C19.2814 3.85938 19.7028 3.92896 19.9195 4.23224C20.1361 4.53554 20.0655 4.95693 19.7623 5.17365L18.0855 6.37189C17.7821 6.58857 17.3608 6.51802 17.1441 6.21466C16.9275 5.91133 16.9971 5.48994 17.3003 5.27326L18.9781 4.07599ZM20.3722 11.4203C20.3722 11.0475 20.0692 10.7455 19.6964 10.7455H18.7384C18.3656 10.7455 18.0636 11.0475 18.0636 11.4203C18.0636 11.7931 18.3656 12.0951 18.7384 12.0951H19.6964C20.0692 12.0951 20.3722 11.7931 20.3722 11.4203ZM17.2261 15.9969C17.4954 15.7393 17.9225 15.7484 18.1802 16.0174C18.2575 16.0981 18.3294 16.1736 18.3976 16.2452L18.3981 16.2457C18.8197 16.6881 19.0968 16.9788 19.5845 17.4217C19.8605 17.6723 19.881 18.0998 19.6304 18.3758C19.3798 18.6517 18.9523 18.6723 18.6763 18.4217C18.158 17.951 17.8502 17.6277 17.4365 17.1931L17.4365 17.1931L17.4365 17.1931L17.4359 17.1925C17.363 17.1159 17.2868 17.0359 17.2056 16.951C16.948 16.6817 16.9571 16.2546 17.2261 15.9969ZM19.771 8.0047C19.653 7.65123 19.2701 7.46009 18.9165 7.57795L18.1978 7.81818C17.8444 7.93626 17.6532 8.3182 17.771 8.6717C17.8889 9.02536 18.2719 9.21634 18.6255 9.09845L19.3443 8.8592C19.6978 8.74119 19.8889 8.35827 19.771 8.0047ZM18.9165 15.0883C19.2701 15.2061 19.653 15.015 19.771 14.6615C19.8889 14.308 19.6978 13.925 19.3443 13.807L18.6255 13.5678C18.2719 13.4499 17.8889 13.6409 17.771 13.9945C17.6532 14.348 17.8444 14.73 18.1978 14.848L18.9165 15.0883Z" fill="#332A2A"/>
</g>
<defs>
<clipPath id="clip0_1102_12264">
<rect width="23" height="23" fill="white"/>
</clipPath>
</defs>
</svg>
