<svg width="18" height="18" viewBox="0 0 18 18" fill="none" xmlns="http://www.w3.org/2000/svg">
<g clip-path="url(#clip0_1102_12265)">
<path d="M6.375 6C8.12487 6 9.79823 4.79331 10.9588 3.65231C11.3236 3.29366 12.0367 3.59638 11.9798 4.10477L11.4545 8.79545L11.8118 11.82C11.9268 12.7936 10.5382 13.5071 9.68803 13.0187C8.68355 12.4416 7.52073 12 6.375 12H5.0625H4.3125C3.17341 12 2.25 11.0766 2.25 9.9375V8.0625C2.25 6.92341 3.17341 6 4.3125 6H6.375Z" fill="#E05149"/>
<path fill-rule="evenodd" clip-rule="evenodd" d="M15.5849 4.19052C15.8658 3.98989 15.9308 3.59954 15.7302 3.31866C15.5296 3.03778 15.1392 2.97272 14.8584 3.17335L13.5459 4.11085C13.265 4.31148 13.1999 4.70182 13.4006 4.98271C13.6012 5.26359 13.9915 5.32865 14.2724 5.12802L15.5849 4.19052ZM10.689 4.74424C10.8791 4.58377 11.0644 4.59302 11.1517 4.63161C11.1934 4.65005 11.212 4.67265 11.2209 4.69041C11.2286 4.70561 11.2483 4.75421 11.2252 4.8597C11.0282 5.76033 10.8296 6.89753 10.8296 8.79557C10.8296 10.6553 10.9942 11.7073 11.1748 12.5286C11.1955 12.6225 11.1798 12.6779 11.1635 12.711C11.145 12.7486 11.1081 12.7913 11.0435 12.8259C10.9092 12.8979 10.6975 12.91 10.5031 12.7843C9.3548 12.0421 7.87919 11.3751 6.375 11.3751C6.20924 11.3751 6.05027 11.441 5.93306 11.5582C5.81585 11.6754 5.75 11.8344 5.75 12.0001V14.3751C5.75 14.7893 5.41421 15.1251 5 15.1251C4.96548 15.1251 4.9375 15.0971 4.9375 15.0626V12.6144C5.22727 12.56 5.44654 12.3057 5.44654 12.0001C5.44654 11.6549 5.16672 11.3751 4.82154 11.3751H4.3125C3.51859 11.3751 2.875 10.7315 2.875 9.93762V9.00011V7.50011C2.875 7.01687 3.26675 6.62512 3.75 6.62512C4.09518 6.62512 4.375 6.34529 4.375 6.00012C4.375 5.65494 4.09518 5.37512 3.75 5.37512C2.57639 5.37512 1.625 6.32651 1.625 7.50011V9.00011V9.93762C1.625 11.2067 2.50465 12.2703 3.6875 12.5521V15.0626C3.6875 15.7875 4.27513 16.3751 5 16.3751C6.10457 16.3751 7 15.4797 7 14.3751V12.6731C7.96802 12.8175 8.9562 13.2728 9.82454 13.8341C10.4038 14.2085 11.1018 14.213 11.6342 13.9275C12.189 13.6301 12.5605 13.0099 12.3956 12.2601C12.2352 11.5303 12.0796 10.5685 12.0796 8.79557C12.0796 7.00172 12.2652 5.95494 12.4463 5.12675C12.6095 4.38055 12.2535 3.75193 11.6571 3.48832C11.0984 3.24137 10.4086 3.34507 9.88264 3.78909C8.82895 4.67864 7.58788 5.37512 6.375 5.37512H5.625C5.27982 5.37512 5 5.65494 5 6.00012C5 6.34529 5.27982 6.62511 5.625 6.62511H6.375C8.03281 6.62511 9.55946 5.69781 10.689 4.74424ZM14.1023 9.00011C14.1023 8.65494 14.3821 8.37511 14.7273 8.37511H15.4773C15.8225 8.37511 16.1023 8.65494 16.1023 9.00011C16.1023 9.34529 15.8225 9.62511 15.4773 9.62511H14.7273C14.3821 9.62511 14.1023 9.34529 14.1023 9.00011ZM14.3608 12.5312C14.1222 12.2817 13.7266 12.2729 13.4771 12.5115C13.2277 12.7501 13.2189 13.1458 13.4575 13.3952C13.5186 13.4591 13.5761 13.5195 13.6313 13.5774L13.6313 13.5774L13.6313 13.5774C13.9587 13.9212 14.2027 14.1775 14.614 14.5509C14.8695 14.7829 15.2648 14.7639 15.4968 14.5083C15.7289 14.2528 15.7098 13.8575 15.4543 13.6255C15.0783 13.2841 14.8647 13.0599 14.5395 12.7185L14.5395 12.7185C14.4837 12.6599 14.4246 12.5978 14.3608 12.5312ZM15.6271 6.29679C15.7362 6.62426 15.5592 6.97821 15.2318 7.08736L14.6693 7.27486C14.3418 7.38402 13.9879 7.20704 13.8787 6.87958C13.7696 6.55211 13.9465 6.19816 14.274 6.08901L14.8365 5.90151C15.164 5.79235 15.5179 5.96933 15.6271 6.29679ZM15.2318 10.7764C15.5592 10.8856 15.7362 11.2395 15.6271 11.567C15.5179 11.8945 15.164 12.0714 14.8365 11.9623L14.274 11.7748C13.9465 11.6656 13.7696 11.3117 13.8787 10.9842C13.9879 10.6568 14.3418 10.4798 14.6693 10.5889L15.2318 10.7764Z" fill="#332A2A"/>
</g>
<defs>
<clipPath id="clip0_1102_12265">
<rect width="18" height="18" fill="white"/>
</clipPath>
</defs>
</svg>
