<svg width="28" height="28" viewBox="0 0 28 28" fill="none" xmlns="http://www.w3.org/2000/svg">
<g clip-path="url(#clip0_1102_12200)">
<path fill-rule="evenodd" clip-rule="evenodd" d="M17.9725 6.03316C17.9045 6.01098 17.7814 6.016 17.6695 6.12744C15.8365 7.95262 13.0033 10.0883 9.91654 10.0883H8.74987C8.3329 10.0883 7.99487 9.75025 7.99487 9.33328C7.99487 8.9163 8.3329 8.57828 8.74987 8.57828H9.91654C12.3648 8.57828 14.8206 6.83326 16.604 5.05743C17.1507 4.51308 17.9175 4.38787 18.5361 4.63193C18.8687 4.76312 19.1521 5.00149 19.3281 5.31514C19.7951 5.94035 20.0698 6.74519 20.2473 7.5063C20.465 8.43956 20.5642 9.43747 20.6311 10.2417C20.6654 10.6545 20.3586 11.0169 19.9458 11.0512C19.533 11.0855 19.1706 10.7787 19.1363 10.3659C19.0956 9.87667 19.045 9.34684 18.9677 8.82117C18.7508 9.99752 18.5731 11.4781 18.5731 13.6818C18.5731 15.6645 18.6968 17.0019 18.8629 18.0354C18.8637 18.03 18.8646 18.0245 18.8654 18.0191C19.1018 16.5256 19.2216 14.8229 19.2386 13.5338C19.244 13.1196 19.5842 12.7883 19.9984 12.7937C20.4126 12.7992 20.7439 13.1394 20.7385 13.5536C20.7207 14.903 20.5963 16.6784 20.347 18.2535C20.2225 19.0402 20.0641 19.7954 19.8653 20.4301C19.6763 21.0338 19.4173 21.6434 19.0303 22.0303C18.9599 22.1008 18.8789 22.1543 18.7924 22.1909C18.7049 22.2559 18.6116 22.3122 18.5146 22.3591C17.9274 22.6429 17.155 22.6172 16.5484 22.1491C14.9252 20.8969 12.7764 19.7065 10.6715 19.4657V22.4999C10.6715 24.0215 9.43809 25.2549 7.91654 25.2549H7.70821C6.73895 25.2549 5.95321 24.4692 5.95321 23.4999V19.3821C4.13848 19.1174 2.74487 17.5548 2.74487 15.6666V13.9999V11.6666C2.74487 9.96097 4.12757 8.57828 5.83321 8.57828C6.25018 8.57828 6.58821 8.9163 6.58821 9.33328C6.58821 9.75025 6.25018 10.0883 5.83321 10.0883C4.96152 10.0883 4.25487 10.7949 4.25487 11.6666V13.9999V15.6666C4.25487 16.9065 5.25999 17.9116 6.49987 17.9116H6.70821H7.50005C7.91703 17.9116 8.25505 18.2496 8.25505 18.6666C8.25505 19.0836 7.91703 19.4216 7.50005 19.4216H7.46321V23.4999C7.46321 23.6353 7.5729 23.7449 7.70821 23.7449H7.91654C8.60413 23.7449 9.16154 23.1875 9.16154 22.4999V18.6666C9.16154 18.4664 9.24108 18.2743 9.38267 18.1327C9.52426 17.9912 9.7163 17.9116 9.91654 17.9116C12.7527 17.9116 15.56 19.4795 17.4707 20.9536C17.5935 21.0483 17.7491 21.0519 17.8575 20.9995C17.9075 20.9754 17.9251 20.9498 17.9292 20.9423C17.9301 20.9406 17.9309 20.9389 17.9316 20.9368L17.9326 20.933L17.9334 20.9287C17.9342 20.9223 17.9355 20.9051 17.9287 20.8742C17.8817 20.6628 17.831 20.4508 17.7785 20.2314C17.4548 18.8783 17.0631 17.2409 17.0631 13.6818C17.0631 10.2782 17.4791 8.45049 17.8103 6.99516C17.8803 6.68773 17.9465 6.39691 18.0042 6.11137C18.0075 6.09466 18.009 6.08161 18.0094 6.07169C17.9972 6.05848 17.9849 6.04564 17.9725 6.03316ZM24.2923 5.28838C24.5347 5.62769 24.4561 6.09922 24.1168 6.34158L22.0751 7.79992C21.7358 8.04228 21.2643 7.96369 21.0219 7.62438C20.7796 7.28508 20.8582 6.81354 21.1975 6.57118L23.2391 5.11285C23.5784 4.87048 24.05 4.94907 24.2923 5.28838ZM22.909 13.2449C22.4921 13.2449 22.154 13.583 22.154 13.9999C22.154 14.4169 22.4921 14.7549 22.909 14.7549H24.0757C24.4927 14.7549 24.8307 14.4169 24.8307 13.9999C24.8307 13.583 24.4927 13.2449 24.0757 13.2449H22.909ZM21.1144 19.6191C21.4158 19.3309 21.8937 19.3415 22.1819 19.6429C22.2806 19.7461 22.3723 19.8423 22.459 19.9333C22.9654 20.4649 23.3029 20.8191 23.8938 21.3558C24.2025 21.6361 24.2256 22.1136 23.9453 22.4223C23.665 22.731 23.1875 22.754 22.8788 22.4737C22.2452 21.8984 21.8709 21.5054 21.362 20.971L21.3619 20.9709L21.3619 20.9709L21.3619 20.9709L21.3615 20.9704C21.2757 20.8804 21.186 20.7863 21.0907 20.6866C20.8025 20.3853 20.8131 19.9073 21.1144 19.6191ZM23.6251 10.8185C24.0206 10.6866 24.2344 10.259 24.1026 9.86346C23.9707 9.46789 23.5431 9.2541 23.1476 9.38596L22.2726 9.67763C21.877 9.80949 21.6632 10.2371 21.7951 10.6326C21.9269 11.0282 22.3545 11.242 22.7501 11.1101L23.6251 10.8185ZM24.1026 17.9242C24.2344 17.5286 24.0206 17.101 23.6251 16.9692L22.7501 16.6775C22.3545 16.5457 21.9269 16.7594 21.7951 17.155C21.6632 17.5506 21.877 17.9782 22.2726 18.11L23.1476 18.4017C23.5431 18.5336 23.9707 18.3198 24.1026 17.9242Z" fill="#252323"/>
</g>
<defs>
<clipPath id="clip0_1102_12200">
<rect width="28" height="28" fill="white"/>
</clipPath>
</defs>
</svg>
