<svg width="44" height="44" viewBox="0 0 44 44" fill="none" xmlns="http://www.w3.org/2000/svg">
<g clip-path="url(#clip0_1102_12189)">
<path fill-rule="evenodd" clip-rule="evenodd" d="M8.49998 13.9121H9.16697C9.58375 13.9123 9.92185 14.2501 9.92185 14.6669C9.92168 15.0836 9.58364 15.4216 9.16697 15.4218H8.49998C7.2601 15.4218 6.25486 16.4271 6.25486 17.6669V21.9999C6.25486 22.4169 5.9169 22.7548 5.49998 22.7548C5.083 22.7548 4.7451 22.4169 4.7451 21.9999V17.6669C4.7451 15.5931 6.42615 13.9121 8.49998 13.9121ZM13.75 13.9121H15.583C17.8598 13.9121 20.129 13.0003 22.2041 11.6718C24.2738 10.3467 26.0977 8.64029 27.4668 7.13276C27.9989 6.54679 28.7753 6.41082 29.4033 6.63764C29.8357 6.79388 30.2064 7.12914 30.3761 7.58704C30.3939 7.61418 30.4102 7.64278 30.4248 7.6728C31.3674 9.61638 31.9578 12.515 32.2597 15.3935C32.3029 15.8053 32.0045 16.1743 31.5928 16.2177C31.1809 16.2609 30.8119 15.9625 30.7685 15.5507C30.5974 13.9195 30.3357 12.3351 29.9863 10.9592C29.9471 11.1345 29.9071 11.311 29.8667 11.4893L29.8667 11.4893L29.8666 11.4894L29.8666 11.4895C29.727 12.1053 29.5829 12.7415 29.4512 13.4189C29.0809 15.3233 28.7549 17.7634 28.7549 21.4999C28.7549 26.8612 29.3174 29.2076 29.8166 31.2897C29.8329 31.3576 29.8491 31.4252 29.8652 31.4926C30.078 30.6224 30.2619 29.653 30.416 28.622C30.7755 26.2173 30.9613 23.5632 31 21.2373C31.007 20.8232 31.3486 20.4931 31.7627 20.4999C32.1767 20.507 32.5069 20.8486 32.5 21.2626C32.4604 23.6418 32.2713 26.3625 31.9004 28.8437C31.5331 31.3005 30.9752 33.6115 30.1582 35.1093C30.0652 35.2796 29.9157 35.3995 29.7457 35.4584C29.6309 35.5488 29.5057 35.624 29.375 35.6826C28.7763 35.9505 27.9972 35.9046 27.4062 35.3935C24.6945 33.0483 20.4692 30.4117 16.3379 30.1162V36.4999C16.3379 38.0215 15.1045 39.2548 13.583 39.2548H11.542C10.5727 39.2548 9.78611 38.4692 9.78611 37.4999V30.0878H8.49998C6.42615 30.0878 4.7451 28.4068 4.7451 26.333V26.1249C4.7451 25.708 5.083 25.3701 5.49998 25.3701C5.9169 25.3701 6.25486 25.708 6.25486 26.1249V26.333C6.25486 27.5728 7.2601 28.5781 8.49998 28.5781H12.375C12.7918 28.5781 13.1297 28.9162 13.1299 29.333C13.1299 29.7499 12.7919 30.0878 12.375 30.0878H11.2969V37.4999C11.2969 37.6353 11.4067 37.7451 11.542 37.7451H13.583C14.2706 37.7451 14.8281 37.1875 14.8281 36.4999V29.333C14.8282 29.1328 14.9083 28.9413 15.0498 28.7998C15.1913 28.6582 15.3829 28.5781 15.583 28.5781C20.5015 28.5781 25.4337 31.6912 28.3945 34.2519C28.5004 34.3433 28.6435 34.3562 28.7588 34.3046C28.8124 34.2806 28.8399 34.2504 28.8515 34.2314C28.8591 34.2189 28.8714 34.1947 28.8633 34.1386C28.7439 33.3224 28.5659 32.5773 28.371 31.7618C27.8649 29.6436 27.2451 27.0499 27.2451 21.4999C27.2451 17.6652 27.5803 15.1285 27.9687 13.1308C28.1226 12.3394 28.2772 11.662 28.42 11.036C28.6474 10.0394 28.8451 9.17316 28.9629 8.18452C28.9701 8.12356 28.9562 8.10361 28.9541 8.10058L28.9541 8.10053C28.9488 8.09254 28.9316 8.07241 28.8906 8.05756C28.8052 8.0267 28.6827 8.03982 28.5849 8.14741C27.1573 9.71944 25.2337 11.5261 23.0185 12.9443C20.8085 14.3592 18.2543 15.4218 15.583 15.4218H13.75C13.3331 15.4218 12.9953 15.0838 12.9951 14.6669C12.9951 14.25 13.333 13.9121 13.75 13.9121ZM36.7695 8.38569C37.1088 8.14333 37.5799 8.22216 37.8222 8.56147C38.0645 8.90069 37.9865 9.3718 37.6474 9.6142L34.4385 11.9062C34.0992 12.1483 33.628 12.0696 33.3857 11.7304C33.1434 11.3911 33.2222 10.92 33.5615 10.6777L36.7695 8.38569ZM38.5879 21.9999C38.5879 21.583 38.25 21.2451 37.833 21.2451H36C35.583 21.2451 35.2451 21.583 35.2451 21.9999C35.2451 22.4169 35.583 22.7548 36 22.7548H37.833C38.25 22.7548 38.5879 22.4169 38.5879 21.9999ZM33.4785 31.1415C33.7798 30.8537 34.2578 30.8647 34.5459 31.166C34.6997 31.3267 34.8428 31.477 34.9785 31.6194L34.9793 31.6203C35.7759 32.4566 36.317 33.0246 37.2578 33.8789C37.5662 34.1592 37.5888 34.6367 37.3086 34.9453C37.0282 35.2536 36.5508 35.2762 36.2422 34.996C35.2587 34.103 34.6808 33.4963 33.8815 32.657L33.8815 32.657C33.7463 32.5151 33.6049 32.3666 33.4541 32.2089C33.1662 31.9076 33.1773 31.4297 33.4785 31.1415ZM37.4658 15.6367C37.334 15.2412 36.9072 15.0275 36.5117 15.1591L35.1367 15.6171C34.7411 15.749 34.5273 16.1766 34.6592 16.5722C34.7911 16.9674 35.2179 17.1812 35.6133 17.0498L36.9883 16.5908C37.3837 16.4589 37.5975 16.0322 37.4658 15.6367ZM36.5117 28.5073C36.9072 28.6389 37.334 28.4252 37.4658 28.0297C37.5975 27.6342 37.3837 27.2075 36.9883 27.0756L35.6133 26.6166C35.2179 26.4852 34.7911 26.699 34.6592 27.0942C34.5273 27.4898 34.7411 27.9174 35.1367 28.0493L36.5117 28.5073Z" fill="#332A2A"/>
</g>
<defs>
<clipPath id="clip0_1102_12189">
<rect width="44" height="44" fill="white"/>
</clipPath>
</defs>
</svg>
