<svg width="23" height="23" viewBox="0 0 23 23" fill="none" xmlns="http://www.w3.org/2000/svg">
<g clip-path="url(#clip0_666_9235)">
<path fill-rule="evenodd" clip-rule="evenodd" d="M3.3542 3.81714C2.98141 3.81714 2.6792 4.11935 2.6792 4.49214C2.6792 4.86493 2.98141 5.16714 3.3542 5.16714H19.6459C20.0187 5.16714 20.3209 4.86493 20.3209 4.49214C20.3209 4.11935 20.0187 3.81714 19.6459 3.81714H3.3542ZM3.35422 8.44901C2.98143 8.44899 2.67921 8.75119 2.6792 9.12398C2.67919 9.49678 2.98139 9.79899 3.35418 9.79901L13.1771 9.79932H13.1772L15.5729 9.79901H15.573H19.6459C20.0187 9.79901 20.3209 9.4968 20.3209 9.12401C20.3209 8.75121 20.0187 8.44901 19.6459 8.44901H15.5729H15.5729L13.1771 8.44932H13.177L3.35422 8.44901ZM2.6792 13.7561C2.6792 13.3833 2.98141 13.0811 3.3542 13.0811H19.6459C20.0187 13.0811 20.3209 13.3833 20.3209 13.7561C20.3209 14.1289 20.0187 14.4311 19.6459 14.4311H3.3542C2.98141 14.4311 2.6792 14.1289 2.6792 13.7561ZM3.3542 17.713C2.98141 17.713 2.6792 18.0152 2.6792 18.388C2.6792 18.7608 2.98141 19.063 3.3542 19.063H8.86462C9.23741 19.063 9.53962 18.7608 9.53962 18.388C9.53962 18.0152 9.23741 17.713 8.86462 17.713H3.3542ZM11.5 17.713C11.1272 17.713 10.825 18.0152 10.825 18.388C10.825 18.7608 11.1272 19.063 11.5 19.063H19.6459C20.0187 19.063 20.3209 18.7608 20.3209 18.388C20.3209 18.0152 20.0187 17.713 19.6459 17.713H11.5Z" fill="#252323"/>
</g>
<defs>
<clipPath id="clip0_666_9235">
<rect width="23" height="23" fill="white"/>
</clipPath>
</defs>
</svg>
