<svg width="44" height="44" viewBox="0 0 44 44" fill="none" xmlns="http://www.w3.org/2000/svg">
<g clip-path="url(#clip0_446_2565)">
<path fill-rule="evenodd" clip-rule="evenodd" d="M6.41675 7.84375C6.00253 7.84375 5.66675 8.17954 5.66675 8.59375C5.66675 9.00796 6.00253 9.34375 6.41675 9.34375H37.5834C37.9976 9.34375 38.3334 9.00796 38.3334 8.59375C38.3334 8.17954 37.9976 7.84375 37.5834 7.84375H6.41675ZM6.41676 16.7047C6.00255 16.7047 5.66675 17.0405 5.66675 17.4547C5.66674 17.8689 6.00252 18.2047 6.41674 18.2047L25.2084 18.205H25.2085L29.7917 18.2047H29.7918H37.5834C37.9976 18.2047 38.3334 17.8689 38.3334 17.4547C38.3334 17.0405 37.9976 16.7047 37.5834 16.7047H29.7917H29.7917L25.2084 16.705H25.2084L6.41676 16.7047ZM5.66675 26.3161C5.66675 25.9019 6.00253 25.5661 6.41675 25.5661H37.5834C37.9976 25.5661 38.3334 25.9019 38.3334 26.3161C38.3334 26.7303 37.9976 27.0661 37.5834 27.0661H6.41675C6.00253 27.0661 5.66675 26.7303 5.66675 26.3161ZM6.41675 34.4271C6.00253 34.4271 5.66675 34.7629 5.66675 35.1771C5.66675 35.5913 6.00253 35.9271 6.41675 35.9271H16.9584C17.3726 35.9271 17.7084 35.5913 17.7084 35.1771C17.7084 34.7629 17.3726 34.4271 16.9584 34.4271H6.41675ZM22.0001 34.4271C21.5859 34.4271 21.2501 34.7629 21.2501 35.1771C21.2501 35.5913 21.5859 35.9271 22.0001 35.9271H37.5834C37.9976 35.9271 38.3334 35.5913 38.3334 35.1771C38.3334 34.7629 37.9976 34.4271 37.5834 34.4271H22.0001Z" fill="#252323"/>
</g>
<defs>
<clipPath id="clip0_446_2565">
<rect width="44" height="44" fill="white"/>
</clipPath>
</defs>
</svg>
