<svg width="18" height="18" viewBox="0 0 18 18" fill="none" xmlns="http://www.w3.org/2000/svg">
<g clip-path="url(#clip0_666_9248)">
<path fill-rule="evenodd" clip-rule="evenodd" d="M2.625 2.89062C2.27982 2.89062 2 3.17045 2 3.51562C2 3.8608 2.27982 4.14062 2.625 4.14062H15.375C15.7202 4.14062 16 3.8608 16 3.51562C16 3.17045 15.7202 2.89062 15.375 2.89062H2.625ZM2.62502 6.51556C2.27985 6.51555 2.00001 6.79536 2 7.14054C1.99999 7.48572 2.2798 7.76555 2.62498 7.76556L10.3125 7.76587H10.3126L12.1875 7.76556H12.1876H15.375C15.7202 7.76556 16 7.48574 16 7.14056C16 6.79539 15.7202 6.51556 15.375 6.51556H12.1875H12.1874L10.3125 6.51587H10.3124L2.62502 6.51556ZM2 10.7657C2 10.4205 2.27982 10.1407 2.625 10.1407H15.375C15.7202 10.1407 16 10.4205 16 10.7657C16 11.1109 15.7202 11.3907 15.375 11.3907H2.625C2.27982 11.3907 2 11.1109 2 10.7657ZM2.625 13.7656C2.27982 13.7656 2 14.0454 2 14.3906C2 14.7358 2.27982 15.0156 2.625 15.0156H6.9375H9H15.375C15.7202 15.0156 16 14.7358 16 14.3906C16 14.0454 15.7202 13.7656 15.375 13.7656H9H6.9375H2.625Z" fill="#252323"/>
</g>
<defs>
<clipPath id="clip0_666_9248">
<rect width="18" height="18" fill="white"/>
</clipPath>
</defs>
</svg>
