<svg width="44" height="44" viewBox="0 0 44 44" fill="none" xmlns="http://www.w3.org/2000/svg">
<g clip-path="url(#clip0_446_2565)">
<path d="M16.9587 34.4268C17.3727 34.4269 17.7086 34.7628 17.7087 35.1768C17.7087 35.5909 17.3728 35.9266 16.9587 35.9268H6.41675C6.00253 35.9268 5.66675 35.591 5.66675 35.1768C5.66692 34.7627 6.00264 34.4268 6.41675 34.4268H16.9587ZM37.5837 34.4268C37.9977 34.4269 38.3336 34.7628 38.3337 35.1768C38.3337 35.5909 37.9978 35.9266 37.5837 35.9268H21.9998C21.5857 35.9266 21.2498 35.5909 21.2498 35.1768C21.2499 34.7628 21.5858 34.4269 21.9998 34.4268H37.5837ZM37.5837 25.5664C37.9978 25.5666 38.3337 25.9023 38.3337 26.3164C38.3336 26.7304 37.9977 27.0662 37.5837 27.0664H6.41675C6.00263 27.0664 5.6669 26.7305 5.66675 26.3164C5.66675 25.9022 6.00253 25.5664 6.41675 25.5664H37.5837ZM37.5837 16.7051C37.9978 16.7053 38.3337 17.041 38.3337 17.4551C38.3335 17.869 37.9977 18.2049 37.5837 18.2051H6.41675C6.00266 18.2051 5.66695 17.8691 5.66675 17.4551C5.66675 17.0409 6.00254 16.7051 6.41675 16.7051H37.5837ZM37.5837 7.84375C37.9978 7.84393 38.3337 8.17965 38.3337 8.59375C38.3337 9.00785 37.9978 9.34357 37.5837 9.34375H6.41675C6.00253 9.34375 5.66675 9.00796 5.66675 8.59375C5.66675 8.17954 6.00253 7.84375 6.41675 7.84375H37.5837Z" fill="#332A2A"/>
</g>
<defs>
<clipPath id="clip0_446_2565">
<rect width="44" height="44" fill="white"/>
</clipPath>
</defs>
</svg>
