<svg width="23" height="23" viewBox="0 0 23 23" fill="none" xmlns="http://www.w3.org/2000/svg">
<g clip-path="url(#clip0_666_9235)">
<path d="M8.78979 17.6377C9.16233 17.6379 9.46442 17.94 9.4646 18.3125C9.4646 18.6852 9.16244 18.9871 8.78979 18.9873H3.27905C2.90626 18.9873 2.60425 18.6853 2.60425 18.3125C2.60442 17.9399 2.90637 17.6377 3.27905 17.6377H8.78979ZM19.571 17.6377C19.9436 17.6379 20.2457 17.94 20.2458 18.3125C20.2458 18.6852 19.9437 18.9871 19.571 18.9873H11.4246C11.0519 18.9871 10.7498 18.6852 10.7498 18.3125C10.7499 17.94 11.052 17.6379 11.4246 17.6377H19.571ZM19.571 13.0059C19.9436 13.006 20.2457 13.3081 20.2458 13.6807C20.2458 14.0533 19.9437 14.3553 19.571 14.3555H3.27905C2.90626 14.3555 2.60425 14.0535 2.60425 13.6807C2.60441 13.308 2.90636 13.0059 3.27905 13.0059H19.571ZM19.571 8.37402C19.9437 8.3742 20.2458 8.67616 20.2458 9.04883C20.2458 9.42151 19.9437 9.72346 19.571 9.72363H15.4978L13.1023 9.72461L3.27905 9.72363C2.90627 9.72362 2.60425 9.42161 2.60425 9.04883C2.60428 8.67606 2.90628 8.37402 3.27905 8.37402H19.571ZM19.571 3.74219C19.9437 3.74236 20.2458 4.04431 20.2458 4.41699C20.2458 4.78968 19.9437 5.09162 19.571 5.0918H3.27905C2.90626 5.0918 2.60425 4.78978 2.60425 4.41699C2.60425 4.0442 2.90626 3.74219 3.27905 3.74219H19.571Z" fill="#332A2A"/>
</g>
<defs>
<clipPath id="clip0_666_9235">
<rect width="23" height="23" fill="white"/>
</clipPath>
</defs>
</svg>
