<svg width="28" height="28" viewBox="0 0 28 28" fill="none" xmlns="http://www.w3.org/2000/svg">
<g clip-path="url(#clip0_666_9222)">
<path fill-rule="evenodd" clip-rule="evenodd" d="M4.08325 4.71875C3.66904 4.71875 3.33325 5.05454 3.33325 5.46875C3.33325 5.88296 3.66904 6.21875 4.08325 6.21875H23.9166C24.3308 6.21875 24.6666 5.88296 24.6666 5.46875C24.6666 5.05454 24.3308 4.71875 23.9166 4.71875H4.08325ZM4.08327 10.3575C3.66906 10.3575 3.33326 10.6933 3.33325 11.1075C3.33324 11.5217 3.66902 11.8575 4.08323 11.8575L16.0416 11.8578H16.0417L18.9583 11.8575H18.9583H23.9166C24.3308 11.8575 24.6666 11.5218 24.6666 11.1075C24.6666 10.6933 24.3308 10.3575 23.9166 10.3575H18.9583H18.9582L16.0416 10.3578H16.0415L4.08327 10.3575ZM3.33325 16.7466C3.33325 16.3324 3.66904 15.9966 4.08325 15.9966H23.9166C24.3308 15.9966 24.6666 16.3324 24.6666 16.7466C24.6666 17.1608 24.3308 17.4966 23.9166 17.4966H4.08325C3.66904 17.4966 3.33325 17.1608 3.33325 16.7466ZM4.08325 21.6354C3.66904 21.6354 3.33325 21.9712 3.33325 22.3854C3.33325 22.7996 3.66904 23.1354 4.08325 23.1354H10.7916C11.2058 23.1354 11.5416 22.7996 11.5416 22.3854C11.5416 21.9712 11.2058 21.6354 10.7916 21.6354H4.08325ZM13.9999 21.6354C13.5857 21.6354 13.2499 21.9712 13.2499 22.3854C13.2499 22.7996 13.5857 23.1354 13.9999 23.1354H23.9166C24.3308 23.1354 24.6666 22.7996 24.6666 22.3854C24.6666 21.9712 24.3308 21.6354 23.9166 21.6354H13.9999Z" fill="#252323"/>
</g>
<defs>
<clipPath id="clip0_666_9222">
<rect width="28" height="28" fill="white"/>
</clipPath>
</defs>
</svg>
