<svg width="18" height="18" viewBox="0 0 18 18" fill="none" xmlns="http://www.w3.org/2000/svg">
<g clip-path="url(#clip0_666_9248)">
<path d="M15.25 13.6406C15.5952 13.6406 15.875 13.9204 15.875 14.2656C15.875 14.6108 15.5952 14.8906 15.25 14.8906H2.5C2.15482 14.8906 1.875 14.6108 1.875 14.2656C1.875 13.9204 2.15482 13.6406 2.5 13.6406H15.25ZM15.25 10.0156C15.5952 10.0156 15.875 10.2955 15.875 10.6406C15.875 10.9858 15.5952 11.2656 15.25 11.2656H2.5C2.15482 11.2656 1.875 10.9858 1.875 10.6406C1.87503 10.2955 2.15484 10.0156 2.5 10.0156H15.25ZM15.25 6.39062C15.5952 6.39063 15.875 6.67045 15.875 7.01562C15.875 7.36077 15.5952 7.64062 15.25 7.64062H2.5C2.15485 7.64061 1.87503 7.36076 1.875 7.01562C1.87501 6.67046 2.15483 6.39062 2.5 6.39062H15.25ZM15.25 2.76562C15.5952 2.76563 15.875 3.04545 15.875 3.39062C15.875 3.7358 15.5952 4.01562 15.25 4.01562H2.5C2.15482 4.01562 1.875 3.7358 1.875 3.39062C1.875 3.04545 2.15482 2.76562 2.5 2.76562H15.25Z" fill="#332A2A"/>
</g>
<defs>
<clipPath id="clip0_666_9248">
<rect width="18" height="18" fill="white"/>
</clipPath>
</defs>
</svg>
