<svg width="28" height="28" viewBox="0 0 28 28" fill="none" xmlns="http://www.w3.org/2000/svg">
<g clip-path="url(#clip0_1251_17367)">
<path fill-rule="evenodd" clip-rule="evenodd" d="M8.45817 1.875C8.20431 1.875 7.96769 2.00341 7.82934 2.21626L4.03767 8.04959C3.95859 8.17125 3.9165 8.31323 3.9165 8.45833V13.4167V21.3333C3.9165 22.5194 4.66737 23.5301 5.71967 23.916C5.97091 25.1758 7.08284 26.1252 8.4165 26.1252H10.354C10.7682 26.1252 11.104 25.7894 11.104 25.3752C11.104 24.961 10.7682 24.6252 10.354 24.6252H8.4165C7.98913 24.6252 7.61185 24.4107 7.38643 24.0835H7.39288H7.41395H7.4351H7.45631H7.47758H7.49893H7.52034H7.54181H7.56336H7.58496H7.60664H7.62837H7.65017H7.67204H7.69397H7.71596H7.73801H7.76013H7.7823H7.80454H7.82685H7.84921H7.87163H7.89411H7.91665H7.93926H7.96192H7.98463H8.00741H8.03025H8.05314H8.07609H8.0991H8.12216H8.14528H8.16846H8.19169H8.21497H8.23831H8.26171H8.28516H8.30866H8.33222H8.35582H8.37949H8.4032H8.42696H8.45078H8.47465H8.49856H8.52253H8.54655H8.57062H8.59473H8.6189H8.64311H8.66737H8.69168H8.71604H8.74045H8.7649H8.78939H8.81394H8.83852H8.86316H8.88784H8.91256H8.93733H8.96214H8.98699H9.01189H9.03683H9.06181H9.08683H9.1119H9.137H9.16215H9.18734H9.21256H9.23783H9.26314H9.28848H9.31387H9.33929H9.36475H9.39025H9.41578H9.44135H9.46696H9.49261H9.51829H9.544H9.56975H9.59554H9.62135H9.64721H9.67309H9.69901H9.72496H9.75095H9.77696H9.80301H9.82909H9.8552H9.88134H9.90751H9.93371H9.95994H9.9862H10.0125H10.0388H10.0652H10.0915H10.1179H10.1444H10.1708H10.1973H10.2238H10.2503H10.2769H10.3035H10.3301H10.3567H10.3833H10.41H10.4367H10.4634H10.4902H10.5169H10.5437H10.5705H10.5974H10.6242H10.6511H10.678H10.7049H10.7318H10.7587H10.7857H10.8127H10.8397H10.8667H10.8937H10.9208H10.9478H10.9749H11.002H11.0291H11.0563H11.0834H11.1105H11.1377H11.1649H11.1921H11.2193H11.2465H11.2737H11.301H11.3282H11.3555H11.3827H11.41H11.4373H11.4646H11.4919H11.5192H11.5465H11.5739H11.6012H11.6286H11.6559H11.6833H11.7106H11.738H11.7654H11.7927H11.8201H11.8475H11.8749H11.9023H11.9297H11.9571H11.9845H12.0119H12.0393H12.0667H12.0941H12.1215H12.1489H12.1763H12.2037H12.2311H12.2585H12.2859H12.3133H12.3407H12.3681H12.3955H12.4229H12.4503H12.4776H12.505H12.5324H12.5597H12.5871H12.6144H12.6418H12.6691H12.6964H12.7237H12.751H12.7783H12.8056H12.8329H12.8602H12.8875H12.9147H12.942H12.9692H12.9964H13.0236H13.0508H13.078H13.1052H13.1323H13.1595H13.1866H13.2137H13.2408H13.2679H13.295H13.322H13.3491H13.3761H13.4031H13.4301H13.4571H13.484H13.5109H13.5379H13.5648H13.5916H13.6185H13.6453H13.6721H13.6989H13.7257H13.7525H13.7792H13.8059H13.8326H13.8592H13.8859H13.9125H13.9391H13.9657H13.9922H14.0187H14.0452H14.0717H14.0981H14.1245H14.1509H14.1773H14.2036H14.2299H14.2562H14.2824H14.3086H14.3348H14.361H14.3871H14.4132H14.4392H14.4653H14.4913H14.5172H14.5432H14.5691H14.5949H14.6208H14.6466H14.6723H14.6981H14.7237H14.7494H14.775H14.8006H14.8262H14.8517H14.8772H14.9026H14.928H14.9534H14.9787H15.004H15.0292H15.0544H15.0796H15.1047H15.1298H15.1548H15.1798H15.2048H15.2297H15.2546H15.2794H15.3042H15.3289H15.3536H15.3783H15.4029H15.4274H15.452H15.4764H15.5009H15.5252H15.5496H15.5738H15.5981H15.6223H15.6464H15.6705H15.6945H15.7185H15.7425H15.7664H15.7902H15.814H15.8377H15.8614H15.885H15.9086H15.9321H15.9556H15.979H16.0024H16.0257H16.0489H16.0721H16.0953H16.1184H16.1414H16.1644H16.1873H16.2102H16.233H16.2557H16.2784H16.301H16.3236H16.3461H16.3685H16.3909H16.4133H16.4355H16.4577H16.4799H16.502H16.524H16.5459H16.5678H16.5896H16.6114H16.6331H16.6547H16.6763H16.6978H16.7193H16.7406H16.7619H16.7832H16.8043H16.8255H16.8465H16.8675H16.8884H16.9092H16.9299H16.9506H16.9713H16.9918H17.0123H17.0327H17.053H17.0733H17.0935H17.1136H17.1336H17.1536H17.1735H17.1933H17.2131H17.2328H17.2524H17.2719H17.2913H17.3107H17.33H17.3492H17.3684H17.3874H17.4064H17.4253H17.4441H17.4629H17.4816H17.5001H17.5186H17.5371H17.5554H17.5737H17.5919H17.61H17.628H17.6459H17.6638H17.6815H17.6992H17.7168H17.7343H17.7517H17.7691H17.7863H17.8035H17.8206H17.8376H17.8545H17.8713H17.8881H17.9047H17.9213H17.9377H17.9541H17.9704H17.9866H18.0027H18.0187H18.0346H18.0505H18.0662H18.0819H18.0974H18.1129H18.1282H18.1435H18.1587H18.1738H18.1888H18.2037H18.2185H18.2332H18.2478H18.2623H18.2767H18.291H18.3052H18.3194H18.3334H18.3473H18.3611H18.3748H18.3988H18.3989C18.7442 24.0835 19.0819 24.0835 19.3746 24.0578C19.6713 24.0318 20.0055 23.9742 20.3068 23.8068C21.0202 23.4105 21.1665 22.651 21.1665 21.8752L21.1665 21.3333V20.7448L21.1665 20.7085C21.1665 20.2943 20.8307 19.9585 20.4165 19.9585C20.0023 19.9585 19.6665 20.2943 19.6665 20.7085V20.7431L19.6665 20.7448V21.3333C19.6665 22.0237 19.1069 22.5833 18.4165 22.5833H6.6665C5.97615 22.5833 5.4165 22.0237 5.4165 21.3333V13.4167V9.20833H6.26656L6.28345 9.91687C6.30611 10.8668 7.08271 11.6252 8.03295 11.6252H12.5415C12.9557 11.6252 13.2915 11.2894 13.2915 10.8752C13.2915 10.4609 12.9557 10.1252 12.5415 10.1252H8.03295C7.89721 10.1252 7.78626 10.0168 7.78303 9.88111L7.76313 9.04688C8.37998 8.825 8.89167 8.38933 9.2135 7.8335H17.3755C17.5136 7.8335 17.6255 7.94543 17.6255 8.0835V9.87515C17.6255 10.0132 17.5136 10.1252 17.3755 10.1252H17.1352H15.604C15.1898 10.1252 14.854 10.4609 14.854 10.8752C14.854 11.2894 15.1898 11.6252 15.604 11.6252H17.1352H17.3755C18.342 11.6252 19.1255 10.8417 19.1255 9.87515V8.0835C19.1255 7.117 18.342 6.3335 17.3755 6.3335H9.57879C9.57649 6.28412 9.57286 6.23451 9.56788 6.1847L9.28691 3.375H12.5415H18.4165C19.1069 3.375 19.6665 3.93464 19.6665 4.625V12.9792V18.1562C19.6665 18.5705 20.0023 18.9062 20.4165 18.9062C20.8307 18.9062 21.1665 18.5705 21.1665 18.1562V18.0852L21.1665 18.0835L21.1665 12.9792L21.1665 6.7759C21.5171 6.99732 21.7499 7.38822 21.7499 7.8335V23.3752C21.7499 24.0655 21.1902 24.6252 20.4999 24.6252H14.2915C13.8773 24.6252 13.5415 24.961 13.5415 25.3752C13.5415 25.7894 13.8773 26.1252 14.2915 26.1252H20.4999C22.0187 26.1252 23.2499 24.894 23.2499 23.3752V7.8335C23.2499 6.5446 22.3632 5.46281 21.1665 5.16485V4.625C21.1665 3.10622 19.9353 1.875 18.4165 1.875H12.5415H8.45817ZM6.83153 7.70833H6.04852L7.9242 4.82267L8.07533 6.33395C8.14891 7.06981 7.57106 7.70833 6.83153 7.70833ZM14.9999 21.3335C14.9999 20.9193 15.3357 20.5835 15.7499 20.5835H18.6665C19.0808 20.5835 19.4165 20.9193 19.4165 21.3335C19.4165 21.7477 19.0808 22.0835 18.6665 22.0835H15.7499C15.3357 22.0835 14.9999 21.7477 14.9999 21.3335ZM6.99988 20.5C6.58566 20.5 6.24988 20.8358 6.24988 21.25C6.24988 21.6642 6.58566 22 6.99988 22H13.4999C13.9141 22 14.2499 21.6642 14.2499 21.25C14.2499 20.8358 13.9141 20.5 13.4999 20.5H6.99988ZM15.7499 16C15.3357 16 14.9999 16.3358 14.9999 16.75V19.25C14.9999 19.6642 15.3357 20 15.7499 20H18.4999C18.9141 20 19.2499 19.6642 19.2499 19.25V16.75C19.2499 16.3358 18.9141 16 18.4999 16H15.7499ZM16.4999 18.5V17.5H17.7499V18.5H16.4999ZM6.24988 16.75C6.24988 16.3358 6.58566 16 6.99988 16H8.01569C8.4299 16 8.76569 16.3358 8.76569 16.75C8.76569 17.1642 8.4299 17.5 8.01569 17.5H7.74988V18.5H12.7499V17.5H10.0315C9.61729 17.5 9.2815 17.1642 9.2815 16.75C9.2815 16.3358 9.61729 16 10.0315 16H13.4999C13.9141 16 14.2499 16.3358 14.2499 16.75V19.25C14.2499 19.6642 13.9141 20 13.4999 20H6.99988C6.58566 20 6.24988 19.6642 6.24988 19.25V16.75ZM10.9926 4.10546H18.2798C18.7277 4.10546 19.0907 4.46852 19.0907 4.91638C19.0907 5.36424 18.7277 5.7273 18.2798 5.7273H10.9926C10.5447 5.7273 10.1816 5.36424 10.1816 4.91638C10.1816 4.46852 10.5447 4.10546 10.9926 4.10546ZM6.24988 12.875C6.24988 12.4608 6.58566 12.125 6.99988 12.125H13.4999C13.9141 12.125 14.2499 12.4608 14.2499 12.875C14.2499 13.2892 13.9141 13.625 13.4999 13.625H6.99988C6.58566 13.625 6.24988 13.2892 6.24988 12.875ZM6.99988 14.125C6.58566 14.125 6.24988 14.4608 6.24988 14.875C6.24988 15.2892 6.58566 15.625 6.99988 15.625H13.4999C13.9141 15.625 14.2499 15.2892 14.2499 14.875C14.2499 14.4608 13.9141 14.125 13.4999 14.125H6.99988ZM14.9999 12.875C14.9999 12.4608 15.3357 12.125 15.7499 12.125H18.3539C18.7682 12.125 19.1039 12.4608 19.1039 12.875C19.1039 13.2892 18.7682 13.625 18.3539 13.625H15.7499C15.3357 13.625 14.9999 13.2892 14.9999 12.875ZM15.7499 14.125C15.3357 14.125 14.9999 14.4608 14.9999 14.875C14.9999 15.2892 15.3357 15.625 15.7499 15.625H18.3685C18.7827 15.625 19.1185 15.2892 19.1185 14.875C19.1185 14.4608 18.7827 14.125 18.3685 14.125H15.7499Z" fill="#252323"/>
</g>
<defs>
<clipPath id="clip0_1251_17367">
<rect width="28" height="28" fill="white"/>
</clipPath>
</defs>
</svg>
