<svg width="44" height="44" viewBox="0 0 44 44" fill="none" xmlns="http://www.w3.org/2000/svg">
<g clip-path="url(#clip0_1251_17366)">
<path fill-rule="evenodd" clip-rule="evenodd" d="M12.6628 3.71626C12.8011 3.50341 13.0377 3.375 13.2916 3.375H19.7083H30.0833C31.602 3.375 32.8333 4.60622 32.8333 6.125V8.41667C34.352 8.41667 35.5833 9.64788 35.5833 11.1667V37.875C35.5833 39.3938 34.352 40.625 32.8333 40.625H22.4583C22.044 40.625 21.7083 40.2892 21.7083 39.875C21.7083 39.4608 22.044 39.125 22.4583 39.125H32.8333C33.5236 39.125 34.0833 38.5654 34.0833 37.875V11.1667C34.0833 10.4763 33.5236 9.91667 32.8333 9.91667V20.3958V28.4167V28.5312C32.8333 28.9455 32.4975 29.2812 32.0833 29.2812C31.669 29.2812 31.3333 28.9455 31.3333 28.5312V28.4167V20.3958V9.16667V6.125C31.3333 5.43464 30.7736 4.875 30.0833 4.875H19.7083H14.1203L14.7346 11.018C14.7396 11.0678 14.7432 11.1173 14.7455 11.1667H28.3332C29.2997 11.1667 30.0832 11.9502 30.0832 12.9167V16.875C30.0832 17.8415 29.2997 18.625 28.3332 18.625H26.927H24.5207C24.1065 18.625 23.7707 18.2892 23.7707 17.875C23.7707 17.4608 24.1065 17.125 24.5207 17.125H26.927H28.3332C28.4713 17.125 28.5832 17.0131 28.5832 16.875V12.9167C28.5832 12.7786 28.4713 12.6667 28.3332 12.6667H14.3803C13.9071 13.4841 13.0233 14.0417 11.9983 14.0417H10.8333V16.875C10.8333 17.0131 10.9452 17.125 11.0833 17.125H19.7082C20.1225 17.125 20.4582 17.4608 20.4582 17.875C20.4582 18.2892 20.1225 18.625 19.7082 18.625H11.0833C10.1168 18.625 9.33325 17.8415 9.33325 16.875V14.0417H8.08325V21.0833V34.6667C8.08325 35.357 8.6429 35.9167 9.33325 35.9167H10.0833H10.1102H10.1372H10.1644H10.1918H10.2192H10.2468H10.2745H10.3024H10.3304H10.3585H10.3868H10.4152H10.4437H10.4723H10.5011H10.53H10.559H10.5882H10.6175H10.6469H10.6764H10.7061H10.7358H10.7657H10.7958H10.8259H10.8562H10.8866H10.9171H10.9477H10.9785H11.0093H11.0403H11.0714H11.1026H11.134H11.1654H11.197H11.2287H11.2605H11.2924H11.3244H11.3565H11.3888H11.4211H11.4536H11.4862H11.5188H11.5516H11.5845H11.6176H11.6507H11.6839H11.7172H11.7507H11.7842H11.8178H11.8516H11.8854H11.9194H11.9535H11.9876H12.0219H12.0562H12.0907H12.1252H12.1599H12.1947H12.2295H12.2645H12.2995H12.3346H12.3699H12.4052H12.4406H12.4761H12.5118H12.5475H12.5833H12.6191H12.6551H12.6912H12.7273H12.7636H12.7999H12.8363H12.8728H12.9094H12.9461H12.9829H13.0197H13.0566H13.0937H13.1308H13.1679H13.2052H13.2425H13.28H13.3175H13.3551H13.3927H13.4305H13.4683H13.5062H13.5442H13.5822H13.6203H13.6585H13.6968H13.7352H13.7736H13.8121H13.8506H13.8893H13.928H13.9668H14.0056H14.0445H14.0835H14.1226H14.1617H14.2009H14.2402H14.2795H14.3189H14.3583H14.3978H14.4374H14.4771H14.5168H14.5565H14.5964H14.6363H14.6762H14.7162H14.7563H14.7964H14.8366H14.8768H14.9171H14.9575H14.9979H15.0384H15.0789H15.1194H15.1601H15.2007H15.2415H15.2823H15.3231H15.364H15.4049H15.4459H15.4869H15.528H15.5691H15.6103H15.6515H15.6928H15.7341H15.7754H15.8168H15.8583H15.8998H15.9413H15.9829H16.0245H16.0661H16.1078H16.1495H16.1913H16.2331H16.275H16.3168H16.3588H16.4007H16.4427H16.4847H16.5268H16.5689H16.611H16.6532H16.6954H16.7376H16.7798H16.8221H16.8644H16.9068H16.9491H16.9915H17.034H17.0764H17.1189H17.1614H17.2039H17.2465H17.2891H17.3317H17.3743H17.4169H17.4596H17.5023H17.545H17.5877H17.6305H17.6732H17.716H17.7588H17.8016H17.8445H17.8873H17.9302H17.9731H18.016H18.0589H18.1018H18.1447H18.1877H18.2307H18.2736H18.3166H18.3596H18.4026H18.4456H18.4886H18.5316H18.5747H18.6177H18.6607H18.7038H18.7468H18.7899H18.8329H18.876H18.9191H18.9621H19.0052H19.0483H19.0913H19.1344H19.1774H19.2205H19.2636H19.3066H19.3497H19.3927H19.4358H19.4788H19.5218H19.5649H19.6079H19.6509H19.6939H19.7369H19.7799H19.8228H19.8658H19.9088H19.9517H19.9946H20.0375H20.0804H20.1233H20.1662H20.2091H20.2519H20.2947H20.3375H20.3803H20.4231H20.4659H20.5086H20.5513H20.594H20.6367H20.6793H20.722H20.7646H20.8072H20.8497H20.8923H20.9348H20.9773H21.0197H21.0622H21.1046H21.147H21.1893H21.2317H21.274H21.3162H21.3585H21.4007H21.4428H21.485H21.5271H21.5691H21.6112H21.6532H21.6952H21.7371H21.779H21.8209H21.8627H21.9045H21.9462H21.9879H22.0296H22.0712H22.1128H22.1543H22.1958H22.2373H22.2787H22.3201H22.3614H22.4027H22.4439H22.4851H22.5263H22.5674H22.6084H22.6494H22.6904H22.7313H22.7722H22.813H22.8537H22.8944H22.9351H22.9757H23.0162H23.0567H23.0971H23.1375H23.1778H23.2181H23.2583H23.2984H23.3385H23.3786H23.4185H23.4585H23.4983H23.5381H23.5778H23.6175H23.6571H23.6967H23.7361H23.7756H23.8149H23.8542H23.8934H23.9326H23.9716H24.0107H24.0496H24.0885H24.1273H24.166H24.2047H24.2433H24.2818H24.3203H24.3587H24.397H24.4352H24.4734H24.5114H24.5495H24.5874H24.6252H24.663H24.7007H24.7383H24.7759H24.8133H24.8507H24.888H24.9252H24.9624H24.9994H25.0364H25.0733H25.1101H25.1468H25.1834H25.2199H25.2564H25.2928H25.3291H25.3652H25.4013H25.4374H25.4733H25.5091H25.5449H25.5805H25.6161H25.6515H25.6869H25.7222H25.7574H25.7924H25.8274H25.8623H25.8971H25.9318H25.9664H26.0009H26.0353H26.0696H26.1038H26.1379H26.1719H26.2058H26.2396H26.2733H26.3069H26.3404H26.3737H26.407H26.4402H26.4732H26.5062H26.539H26.5718H26.6044H26.6369H26.6693H26.7016H26.7338H26.7658H26.7978H26.8296H26.8614H26.893H26.9245H26.9559H26.9871H27.0183H27.0493H27.0802H27.111H27.1417H27.1723H27.2027H27.233H27.2632H27.2933H27.3233H27.3531H27.3828H27.4124H27.4419H27.4712H27.5004H27.5295H27.5584H27.5873H27.616H27.6445H27.673H27.7013H27.7295H27.7575H27.7854H27.8132H27.8409H27.8684H27.8958H27.923H27.9501H27.9771H28.004H28.0307H28.0573H28.0837H28.11H28.1361H28.1622H28.188H28.2138H28.2394H28.2648H28.2901H28.3153H28.3403H28.3652H28.3899H28.4145H28.439H28.4633H28.4874H28.5114H28.5353H28.559H28.5825H28.6059H28.6292H28.6523H28.6753H28.6981H28.7207H28.7432H28.7655H28.7877H28.8098H28.8316H28.8534H28.8749C29.4588 35.9167 29.9091 35.916 30.2775 35.8837C30.3322 35.8789 30.3834 35.8735 30.4311 35.8676C30.879 35.7381 31.2234 35.3649 31.3113 34.9009C31.3252 34.7543 31.3333 34.5808 31.3333 34.375V32.599V32.5417C31.3333 32.1275 31.669 31.7917 32.0833 31.7917C32.4975 31.7917 32.8333 32.1275 32.8333 32.5417V32.599V34.375V34.6667C32.8333 34.8216 32.8204 34.9736 32.7958 35.1216C32.7009 35.9679 32.4069 36.6446 31.7027 37.0358C31.4004 37.2038 31.0637 37.2922 30.7228 37.3419C30.5176 37.3908 30.3034 37.4167 30.0833 37.4167H28.9412H28.901H28.9008H28.8749H28.8534H28.8316H28.8098H28.7877H28.7655H28.7432H28.7207H28.6981H28.6753H28.6523H28.6292H28.6059H28.5825H28.559H28.5353H28.5114H28.4874H28.4633H28.439H28.4145H28.3899H28.3652H28.3403H28.3153H28.2901H28.2648H28.2394H28.2138H28.188H28.1622H28.1361H28.11H28.0837H28.0573H28.0307H28.004H27.9771H27.9501H27.923H27.8958H27.8684H27.8409H27.8132H27.7854H27.7575H27.7295H27.7013H27.673H27.6445H27.616H27.5873H27.5584H27.5295H27.5004H27.4712H27.4419H27.4124H27.3828H27.3531H27.3233H27.2933H27.2632H27.233H27.2027H27.1723H27.1417H27.111H27.0802H27.0493H27.0183H26.9871H26.9559H26.9245H26.893H26.8614H26.8296H26.7978H26.7658H26.7338H26.7016H26.6693H26.6369H26.6044H26.5718H26.539H26.5062H26.4732H26.4402H26.407H26.3737H26.3404H26.3069H26.2733H26.2396H26.2058H26.1719H26.1379H26.1038H26.0696H26.0353H26.0009H25.9664H25.9318H25.8971H25.8623H25.8274H25.7924H25.7574H25.7222H25.6869H25.6515H25.6161H25.5805H25.5449H25.5091H25.4733H25.4374H25.4013H25.3652H25.3291H25.2928H25.2564H25.2199H25.1834H25.1468H25.1101H25.0733H25.0364H24.9994H24.9624H24.9252H24.888H24.8507H24.8133H24.7759H24.7383H24.7007H24.663H24.6252H24.5874H24.5495H24.5114H24.4734H24.4352H24.397H24.3587H24.3203H24.2818H24.2433H24.2047H24.166H24.1273H24.0885H24.0496H24.0107H23.9716H23.9326H23.8934H23.8542H23.8149H23.7756H23.7361H23.6967H23.6571H23.6175H23.5778H23.5381H23.4983H23.4585H23.4185H23.3786H23.3385H23.2984H23.2583H23.2181H23.1778H23.1375H23.0971H23.0567H23.0162H22.9757H22.9351H22.8944H22.8537H22.813H22.7722H22.7313H22.6904H22.6494H22.6084H22.5674H22.5263H22.4851H22.4439H22.4027H22.3614H22.3201H22.2787H22.2373H22.1958H22.1543H22.1128H22.0712H22.0296H21.9879H21.9462H21.9045H21.8627H21.8209H21.779H21.7371H21.6952H21.6532H21.6112H21.5691H21.5271H21.485H21.4428H21.4007H21.3585H21.3162H21.274H21.2317H21.1893H21.147H21.1046H21.0622H21.0197H20.9773H20.9348H20.8923H20.8497H20.8072H20.7646H20.722H20.6793H20.6367H20.594H20.5513H20.5086H20.4659H20.4231H20.3803H20.3375H20.2947H20.2519H20.2091H20.1662H20.1233H20.0804H20.0375H19.9946H19.9517H19.9088H19.8658H19.8228H19.7799H19.7369H19.6939H19.6509H19.6079H19.5649H19.5218H19.4788H19.4358H19.3927H19.3497H19.3066H19.2636H19.2205H19.1774H19.1344H19.0913H19.0483H19.0052H18.9621H18.9191H18.876H18.8329H18.7899H18.7468H18.7038H18.6607H18.6177H18.5747H18.5316H18.4886H18.4456H18.4026H18.3596H18.3166H18.2736H18.2307H18.1877H18.1447H18.1018H18.0589H18.016H17.9731H17.9302H17.8873H17.8445H17.8016H17.7588H17.716H17.6732H17.6305H17.5877H17.545H17.5023H17.4596H17.4169H17.3743H17.3317H17.2891H17.2465H17.2039H17.1614H17.1189H17.0764H17.034H16.9915H16.9491H16.9068H16.8644H16.8221H16.7798H16.7376H16.6954H16.6532H16.611H16.5689H16.5268H16.4847H16.4427H16.4007H16.3588H16.3168H16.275H16.2331H16.1913H16.1495H16.1078H16.0661H16.0245H15.9829H15.9413H15.8998H15.8583H15.8168H15.7754H15.7341H15.6928H15.6515H15.6103H15.5691H15.528H15.4869H15.4459H15.4049H15.364H15.3231H15.2823H15.2415H15.2007H15.1601H15.1194H15.0789H15.0384H14.9979H14.9575H14.9171H14.8768H14.8366H14.7964H14.7563H14.7162H14.6762H14.6363H14.5964H14.5565H14.5168H14.4771H14.4374H14.3978H14.3583H14.3189H14.2795H14.2402H14.2009H14.1617H14.1226H14.0835H14.0445H14.0056H13.9668H13.928H13.8893H13.8506H13.8121H13.7736H13.7352H13.6968H13.6585H13.6203H13.5822H13.5442H13.5062H13.4683H13.4305H13.3927H13.3551H13.3175H13.28H13.2425H13.2052H13.1679H13.1308H13.0937H13.0566H13.0197H12.9829H12.9461H12.9094H12.8728H12.8363H12.7999H12.7636H12.7273H12.6912H12.6551H12.6191H12.5833H12.5475H12.5118H12.4761H12.4406H12.4052H12.3699H12.3346H12.2995H12.2645H12.2295H12.1947H12.1599H12.1252H12.0907H12.0562H12.0219H11.9876H11.9535H11.9194H11.8854H11.8516H11.8178H11.7842H11.7507H11.7172H11.6839H11.6507H11.6176H11.5845H11.5516H11.5188H11.4862H11.4536H11.4211H11.3888H11.3565H11.3244H11.2924H11.2605H11.2287H11.197H11.1654H11.134H11.1026H11.0714H11.0403H11.0093H10.9785H10.9477H10.9171H10.8866H10.8562H10.8333V37.875C10.8333 38.5654 11.3929 39.125 12.0833 39.125H16.2708C16.685 39.125 17.0208 39.4608 17.0208 39.875C17.0208 40.2892 16.685 40.625 16.2708 40.625H12.0833C10.5645 40.625 9.33325 39.3938 9.33325 37.875L9.33325 37.4167C7.81447 37.4167 6.58325 36.1855 6.58325 34.6667V21.0833V13.2917C6.58325 13.1466 6.62534 13.0046 6.70442 12.8829L12.6628 3.71626ZM11.9983 12.5417H10.0833H8.71527L12.7576 6.32267L13.2421 11.1673C13.3157 11.9031 12.7378 12.5417 11.9983 12.5417ZM24.7499 33.1667C24.3357 33.1667 23.9999 33.5025 23.9999 33.9167C23.9999 34.3309 24.3357 34.6667 24.7499 34.6667H29.3333C29.7475 34.6667 30.0833 34.3309 30.0833 33.9167C30.0833 33.5025 29.7475 33.1667 29.3333 33.1667H24.7499ZM16.6666 33.9167C16.6666 33.5025 17.0024 33.1667 17.4166 33.1667H21.9999C22.4141 33.1667 22.7499 33.5025 22.7499 33.9167C22.7499 34.3309 22.4141 34.6667 21.9999 34.6667H17.4166C17.0024 34.6667 16.6666 34.3309 16.6666 33.9167ZM10.0833 33.1667C9.66904 33.1667 9.33325 33.5025 9.33325 33.9167C9.33325 34.3309 9.66904 34.6667 10.0833 34.6667H14.6666C15.0808 34.6667 15.4166 34.3309 15.4166 33.9167C15.4166 33.5025 15.0808 33.1667 14.6666 33.1667H10.0833ZM25.7499 25.6042C24.7834 25.6042 23.9999 26.3877 23.9999 27.3542V29.9375C23.9999 30.904 24.7834 31.6875 25.7499 31.6875H28.3333C29.2998 31.6875 30.0833 30.904 30.0833 29.9375V27.3542C30.0833 26.3877 29.2997 25.6042 28.3333 25.6042H25.7499ZM25.4999 27.3542C25.4999 27.2161 25.6118 27.1042 25.7499 27.1042H28.3333C28.4713 27.1042 28.5833 27.2161 28.5833 27.3542V29.9375C28.5833 30.0756 28.4713 30.1875 28.3333 30.1875H25.7499C25.6118 30.1875 25.4999 30.0756 25.4999 29.9375V27.3542ZM11.0833 27.1042C10.9452 27.1042 10.8333 27.2161 10.8333 27.3542V29.9375C10.8333 30.0756 10.9452 30.1875 11.0833 30.1875H20.9999C21.138 30.1875 21.2499 30.0756 21.2499 29.9375V27.3542C21.2499 27.2161 21.138 27.1042 20.9999 27.1042H16.0416C15.6274 27.1042 15.2916 26.7684 15.2916 26.3542C15.2916 25.94 15.6274 25.6042 16.0416 25.6042H20.9999C21.9664 25.6042 22.7499 26.3877 22.7499 27.3542V29.9375C22.7499 30.904 21.9664 31.6875 20.9999 31.6875H11.0833C10.1168 31.6875 9.33325 30.904 9.33325 29.9375V27.3542C9.33325 26.3877 10.1168 25.6042 11.0833 25.6042H13.0624C13.4766 25.6042 13.8124 25.94 13.8124 26.3542C13.8124 26.7684 13.4766 27.1042 13.0624 27.1042H11.0833ZM16.9999 7H28.9999C29.5522 7 29.9999 7.44772 29.9999 8C29.9999 8.55228 29.5522 9 28.9999 9H16.9999C16.4476 9 15.9999 8.55228 15.9999 8C15.9999 7.44772 16.4476 7 16.9999 7ZM9.33325 20.625C9.33325 20.2108 9.66904 19.875 10.0833 19.875H14.6666C15.0808 19.875 15.4166 20.2108 15.4166 20.625C15.4166 21.0392 15.0808 21.375 14.6666 21.375H10.0833C9.66904 21.375 9.33325 21.0392 9.33325 20.625ZM10.0833 22.625C9.66904 22.625 9.33325 22.9608 9.33325 23.375C9.33325 23.7892 9.66904 24.125 10.0833 24.125H14.6666C15.0808 24.125 15.4166 23.7892 15.4166 23.375C15.4166 22.9608 15.0808 22.625 14.6666 22.625H10.0833ZM16.6666 20.625C16.6666 20.2108 17.0024 19.875 17.4166 19.875H21.9999C22.4141 19.875 22.7499 20.2108 22.7499 20.625C22.7499 21.0392 22.4141 21.375 21.9999 21.375H17.4166C17.0024 21.375 16.6666 21.0392 16.6666 20.625ZM17.4166 22.625C17.0024 22.625 16.6666 22.9608 16.6666 23.375C16.6666 23.7892 17.0024 24.125 17.4166 24.125H21.9999C22.4141 24.125 22.7499 23.7892 22.7499 23.375C22.7499 22.9608 22.4141 22.625 21.9999 22.625H17.4166ZM23.9999 20.625C23.9999 20.2108 24.3357 19.875 24.7499 19.875H29.3333C29.7475 19.875 30.0833 20.2108 30.0833 20.625C30.0833 21.0392 29.7475 21.375 29.3333 21.375H24.7499C24.3357 21.375 23.9999 21.0392 23.9999 20.625ZM24.7499 22.625C24.3357 22.625 23.9999 22.9608 23.9999 23.375C23.9999 23.7892 24.3357 24.125 24.7499 24.125H29.3333C29.7475 24.125 30.0833 23.7892 30.0833 23.375C30.0833 22.9608 29.7475 22.625 29.3333 22.625H24.7499Z" fill="#332A2A"/>
</g>
<defs>
<clipPath id="clip0_1251_17366">
<rect width="44" height="44" fill="white"/>
</clipPath>
</defs>
</svg>
