<svg width="23" height="23" viewBox="0 0 23 23" fill="none" xmlns="http://www.w3.org/2000/svg">
<g clip-path="url(#clip0_1251_17302)">
<path fill-rule="evenodd" clip-rule="evenodd" d="M7.11042 6.13517L6.70825 2.51562L3.83325 6.82812H6.36769L5.74995 7.39286V9.03571L15.0104 8.93662V5.82204L7.427 5.81859L7.11042 6.13517ZM18.2083 18.8438V6.22917C18.2083 5.43526 17.5647 4.79167 16.7708 4.79167V17.9688C16.7708 19.1667 16.2916 19.1667 15.0937 19.1667H5.27075C5.27075 20.0929 6.02161 20.8438 6.94783 20.8438H16.2083C17.3128 20.8438 18.2083 19.9483 18.2083 18.8438ZM11.1578 14.7588H5.75V17.1546H11.1578V14.7588ZM12.9374 14.7759H15.3332V17.1717H12.9374V14.7759Z" fill="#E05149"/>
<path fill-rule="evenodd" clip-rule="evenodd" d="M6.94779 1.48145C6.71932 1.48145 6.50635 1.59702 6.38184 1.78858L3.26725 6.58025C3.19608 6.68974 3.1582 6.81752 3.1582 6.94811V11.021V17.1669C3.1582 18.2105 3.75586 19.1146 4.62759 19.5554C4.81266 20.6697 5.78101 21.5193 6.94779 21.5193H8.50508C8.87787 21.5193 9.18008 21.2171 9.18008 20.8443C9.18008 20.4715 8.87787 20.1693 8.50508 20.1693H6.94779C6.65437 20.1693 6.3904 20.0432 6.20714 19.8422H6.21081H6.22955H6.24837H6.26726H6.28621H6.30523H6.32432H6.34347H6.3627H6.38198H6.40134H6.42076H6.44024H6.45979H6.4794H6.49908H6.51882H6.53862H6.55848H6.57841H6.59839H6.61844H6.63855H6.65872H6.67894H6.69923H6.71957H6.73998H6.76044H6.78096H6.80153H6.82217H6.84286H6.8636H6.8844H6.90525H6.92616H6.94712H6.96814H6.98921H7.01033H7.0315H7.05273H7.07401H7.09534H7.11671H7.13814H7.15962H7.18115H7.20272H7.22435H7.24602H7.26774H7.2895H7.31131H7.33317H7.35508H7.37703H7.39902H7.42106H7.44314H7.46527H7.48744H7.50965H7.5319H7.5542H7.57653H7.59891H7.62133H7.64379H7.66629H7.68882H7.7114H7.73401H7.75666H7.77935H7.80208H7.82484H7.84764H7.87047H7.89334H7.91625H7.93918H7.96216H7.98516H8.0082H8.03127H8.05438H8.07751H8.10068H8.12387H8.1471H8.17036H8.19365H8.21696H8.24031H8.26368H8.28708H8.31051H8.33397H8.35745H8.38096H8.40449H8.42805H8.45163H8.47524H8.49887H8.52253H8.5462H8.5699H8.59363H8.61737H8.64114H8.66492H8.68873H8.71256H8.7364H8.76027H8.78415H8.80806H8.83198H8.85591H8.87987H8.90384H8.92783H8.95183H8.97585H8.99988H9.02393H9.04799H9.07206H9.09615H9.12025H9.14436H9.16848H9.19262H9.21676H9.24092H9.26508H9.28926H9.31344H9.33764H9.36184H9.38605H9.41026H9.43449H9.45872H9.48295H9.50719H9.53144H9.55569H9.57995H9.60421H9.62847H9.65274H9.677H9.70127H9.72555H9.74982H9.77409H9.79837H9.82264H9.84692H9.87119H9.89546H9.91973H9.944H9.96826H9.99253H10.0168H10.041H10.0653H10.0895H10.1138H10.138H10.1622H10.1865H10.2107H10.2349H10.2591H10.2833H10.3074H10.3316H10.3558H10.3799H10.4041H10.4282H10.4523H10.4764H10.5005H10.5246H10.5487H10.5727H10.5968H10.6208H10.6448H10.6688H10.6928H10.7168H10.7407H10.7647H10.7886H10.8125H10.8363H10.8602H10.884H10.9079H10.9317H10.9554H10.9792H11.0029H11.0267H11.0504H11.074H11.0977H11.1213H11.1449H11.1685H11.192H11.2156H11.2391H11.2625H11.286H11.3094H11.3328H11.3562H11.3795H11.4028H11.4261H11.4493H11.4725H11.4957H11.5189H11.542H11.5651H11.5882H11.6112H11.6342H11.6572H11.6801H11.703H11.7258H11.7487H11.7714H11.7942H11.8169H11.8396H11.8622H11.8848H11.9074H11.9299H11.9524H11.9748H11.9973H12.0196H12.0419H12.0642H12.0865H12.1087H12.1308H12.1529H12.175H12.197H12.219H12.2409H12.2628H12.2847H12.3065H12.3282H12.3499H12.3716H12.3932H12.4148H12.4363H12.4577H12.4792H12.5005H12.5218H12.5431H12.5643H12.5855H12.6066H12.6276H12.6486H12.6696H12.6905H12.7113H12.7321H12.7528H12.7735H12.7941H12.8146H12.8351H12.8556H12.876H12.8963H12.9166H12.9368H12.9569H12.977H12.9971H13.017H13.0369H13.0568H13.0766H13.0963H13.1159H13.1355H13.1551H13.1745H13.1939H13.2132H13.2325H13.2517H13.2709H13.2899H13.3089H13.3279H13.3467H13.3655H13.3842H13.4029H13.4215H13.44H13.4584H13.4768H13.4951H13.5133H13.5315H13.5496H13.5676H13.5855H13.6034H13.6212H13.6389H13.6565H13.6741H13.6916H13.709H13.7263H13.7435H13.7607H13.7778H13.7948H13.8117H13.8286H13.8454H13.8621H13.8787H13.8952H13.9116H13.928H13.9443H13.9605H13.9766H13.9926H14.0086H14.0244H14.0402H14.0559H14.0715H14.087H14.1024H14.1177H14.133H14.1481H14.1632H14.1782H14.1931H14.2079H14.2226H14.2372H14.2517H14.2661H14.2805H14.2947H14.3089H14.3229H14.3369H14.3508H14.3645H14.3782H14.3918H14.4053H14.4186H14.4319H14.4451H14.4582H14.4712H14.4841H14.4969H14.5096H14.5222H14.5347H14.5471H14.5594H14.5715H14.5836H14.5956H14.6075H14.6193H14.6309H14.6425H14.6539H14.6653H14.6765H14.6877H14.6987H14.7096H14.7204H14.7311H14.7417H14.7522H14.7626H14.7729H14.783H14.7931H14.803H14.8128H14.8226H14.8322H14.8416H14.851H14.8603H14.8694H14.8784H14.8873H14.8961H14.9048H14.9134H14.9218H14.9302H14.9384H14.9465H14.9544H14.9623H14.97H14.9776H14.9851H14.9925H14.9997H15.0069H15.0139H15.0208H15.0275H15.0342H15.0407H15.0471H15.0533H15.0595H15.0655H15.0714H15.0771H15.0827H15.0882H15.0936C15.7151 19.8422 16.3143 19.6114 16.7573 19.1531C17.2021 18.693 17.4457 18.05 17.4457 17.3023V17.1669V17.0406V17.0109C17.4457 16.6381 17.1435 16.3359 16.7707 16.3359C16.3979 16.3359 16.0957 16.6381 16.0957 17.0109L16.0957 17.0406V17.1669L16.0957 17.1685C16.0948 17.8995 15.5019 18.4919 14.7707 18.4919H5.8332C5.10143 18.4919 4.5082 17.8986 4.5082 17.1669V11.021V7.62311H5.09005L5.12167 8.94922C5.13041 9.31564 5.42995 9.60813 5.79648 9.60813H10.302C10.6748 9.60813 10.977 9.30592 10.977 8.93313C10.977 8.56034 10.6748 8.25813 10.302 8.25813H6.45557L6.43348 7.33152C6.82071 7.13341 7.15223 6.84394 7.40091 6.49306C7.40956 6.49339 7.41825 6.49356 7.42699 6.49356H14.0942C14.2737 6.49356 14.4192 6.63906 14.4192 6.81855V8.25813H12.8176C12.4448 8.25813 12.1426 8.56034 12.1426 8.93313C12.1426 9.30592 12.4448 9.60813 12.8176 9.60813H15.0942C15.467 9.60813 15.7692 9.30592 15.7692 8.93313V6.81855C15.7692 5.89348 15.0193 5.14355 14.0942 5.14355H7.88542C7.89623 4.99249 7.89433 4.83824 7.8787 4.68194L7.69365 2.83145H10.302H14.7707C15.5025 2.83145 16.0957 3.42467 16.0957 4.15645L16.0957 4.79219L16.0957 10.6617L16.0957 14.8547L16.0957 14.8558V14.9143C16.0957 15.2871 16.3979 15.5893 16.7707 15.5893C17.1435 15.5893 17.4457 15.2871 17.4457 14.9143V14.8547V10.6617V5.67398C17.7651 5.89055 17.975 6.25653 17.975 6.67153V18.8443C17.975 19.576 17.3818 20.1693 16.65 20.1693H11.7395C11.3667 20.1693 11.0645 20.4715 11.0645 20.8443C11.0645 21.2171 11.3667 21.5193 11.7395 21.5193H16.65C18.1274 21.5193 19.325 20.3216 19.325 18.8443V6.67153C19.325 5.49446 18.5289 4.50334 17.4457 4.20732V4.15645C17.4457 2.67908 16.2481 1.48145 14.7707 1.48145H10.302H6.94779ZM5.21698 6.27311H5.07702L6.46721 4.13435L6.5354 4.81627C6.6134 5.59628 6.00088 6.27311 5.21698 6.27311ZM12.9375 14.084C12.5647 14.084 12.2625 14.3862 12.2625 14.759V16.8125C12.2625 17.1853 12.5647 17.4875 12.9375 17.4875H15C15.3727 17.4875 15.675 17.1853 15.675 16.8125V14.759C15.675 14.3862 15.3727 14.084 15 14.084H12.9375ZM13.6125 16.1375V15.434H14.325V16.1375H13.6125ZM5.07495 14.759C5.07495 14.3862 5.37716 14.084 5.74995 14.084H6.58437C6.95716 14.084 7.25937 14.3862 7.25937 14.759C7.25937 15.1318 6.95716 15.434 6.58437 15.434H6.42495V16.1376H10.4142V15.434H8.24021C7.86742 15.434 7.56521 15.1318 7.56521 14.759C7.56521 14.3862 7.86742 14.084 8.24021 14.084H11.0892C11.462 14.084 11.7642 14.3862 11.7642 14.759V16.8126C11.7642 17.1853 11.462 17.4876 11.0892 17.4876H5.74995C5.37716 17.4876 5.07495 17.1853 5.07495 16.8126V14.759ZM9.02971 3.37275H15.0157C15.3836 3.37275 15.6818 3.67097 15.6818 4.03886C15.6818 4.40674 15.3836 4.70497 15.0157 4.70497H9.02971C8.66183 4.70497 8.3636 4.40674 8.3636 4.03886C8.3636 3.67097 8.66183 3.37275 9.02971 3.37275ZM5.07483 10.7814C5.07483 10.4087 5.37704 10.1064 5.74983 10.1064H11.0891C11.4619 10.1064 11.7641 10.4087 11.7641 10.7814C11.7641 11.1542 11.4619 11.4564 11.0891 11.4564H5.74983C5.37704 11.4564 5.07483 11.1542 5.07483 10.7814ZM5.74995 12.0439C5.37716 12.0439 5.07495 12.3462 5.07495 12.7189C5.07495 13.0917 5.37716 13.3939 5.74995 13.3939H11.0892C11.462 13.3939 11.7642 13.0917 11.7642 12.7189C11.7642 12.3462 11.462 12.0439 11.0892 12.0439H5.74995ZM12.2625 10.7814C12.2625 10.4087 12.5647 10.1064 12.9375 10.1064H15C15.3727 10.1064 15.675 10.4087 15.675 10.7814C15.675 11.1542 15.3727 11.4564 15 11.4564H12.9375C12.5647 11.4564 12.2625 11.1542 12.2625 10.7814ZM12.9375 12.0439C12.5647 12.0439 12.2625 12.3462 12.2625 12.7189C12.2625 13.0917 12.5647 13.3939 12.9375 13.3939H15C15.3727 13.3939 15.675 13.0917 15.675 12.7189C15.675 12.3462 15.3727 12.0439 15 12.0439H12.9375Z" fill="#252323"/>
</g>
<defs>
<clipPath id="clip0_1251_17302">
<rect width="23" height="23" fill="white"/>
</clipPath>
</defs>
</svg>
