<svg width="23" height="23" viewBox="0 0 23 23" fill="none" xmlns="http://www.w3.org/2000/svg">
<g clip-path="url(#clip0_607_3728)">
<path fill-rule="evenodd" clip-rule="evenodd" d="M6.05566 2.38416C4.60592 2.38416 3.43066 3.55941 3.43066 5.00916V6.32166C3.43066 7.21912 4.1582 7.94666 5.05566 7.94666H5.62219C5.96737 7.94666 6.24719 7.66683 6.24719 7.32166C6.24719 6.97648 5.96737 6.69666 5.62219 6.69666H5.05566C4.84856 6.69666 4.68066 6.52876 4.68066 6.32166V5.00916C4.68066 4.24976 5.29627 3.63416 6.05566 3.63416H6.78483V7.32166C6.78483 7.66683 7.06465 7.94666 7.40983 7.94666C7.75501 7.94666 8.03483 7.66683 8.03483 7.32166V3.50916C8.03483 2.88783 7.53115 2.38416 6.90983 2.38416H6.05566ZM8.7003 3.05656C8.7003 2.71138 8.98012 2.43156 9.3253 2.43156H19.2684C19.6136 2.43156 19.8934 2.71138 19.8934 3.05656C19.8934 3.40173 19.6136 3.68156 19.2684 3.68156H9.3253C8.98012 3.68156 8.7003 3.40173 8.7003 3.05656ZM9.3253 4.52484C8.98012 4.52484 8.7003 4.80467 8.7003 5.14984C8.7003 5.49502 8.98012 5.77484 9.3253 5.77484H17.1751C17.5203 5.77484 17.8001 5.49502 17.8001 5.14984C17.8001 4.80467 17.5203 4.52484 17.1751 4.52484H9.3253ZM9.3253 6.61813C8.98012 6.61813 8.7003 6.89795 8.7003 7.24313C8.7003 7.58831 8.98012 7.86813 9.3253 7.86813H12.4652C12.8104 7.86813 13.0902 7.58831 13.0902 7.24313C13.0902 6.89795 12.8104 6.61813 12.4652 6.61813H9.3253ZM8.7003 9.44662C8.7003 9.10144 8.98012 8.82162 9.3253 8.82162H19.2684C19.6136 8.82162 19.8934 9.10144 19.8934 9.44662C19.8934 9.79179 19.6136 10.0716 19.2684 10.0716H9.3253C8.98012 10.0716 8.7003 9.79179 8.7003 9.44662ZM9.3253 10.8047C8.98012 10.8047 8.7003 11.0846 8.7003 11.4297C8.7003 11.7749 8.98012 12.0547 9.3253 12.0547H17.1751C17.5203 12.0547 17.8001 11.7749 17.8001 11.4297C17.8001 11.0846 17.5203 10.8047 17.1751 10.8047H9.3253ZM9.3253 12.7878C8.98012 12.7878 8.7003 13.0677 8.7003 13.4128C8.7003 13.758 8.98012 14.0378 9.3253 14.0378H12.4652C12.8104 14.0378 13.0902 13.758 13.0902 13.4128C13.0902 13.0677 12.8104 12.7878 12.4652 12.7878H9.3253ZM9.3253 15.1221C8.98012 15.1221 8.7003 15.4019 8.7003 15.7471C8.7003 16.0923 8.98012 16.3721 9.3253 16.3721H19.2684C19.6136 16.3721 19.8934 16.0923 19.8934 15.7471C19.8934 15.4019 19.6136 15.1221 19.2684 15.1221H9.3253ZM8.7003 17.8404C8.7003 17.4952 8.98012 17.2154 9.3253 17.2154H17.1751C17.5203 17.2154 17.8001 17.4952 17.8001 17.8404C17.8001 18.1856 17.5203 18.4654 17.1751 18.4654H9.3253C8.98012 18.4654 8.7003 18.1856 8.7003 17.8404ZM8.7003 19.9337C8.7003 19.5885 8.98012 19.3087 9.3253 19.3087H12.4652C12.8104 19.3087 13.0902 19.5885 13.0902 19.9337C13.0902 20.2789 12.8104 20.5587 12.4652 20.5587H9.3253C8.98012 20.5587 8.7003 20.2789 8.7003 19.9337ZM3.43066 11.2383C3.43066 9.78857 4.60592 8.61332 6.05566 8.61332H6.90983C7.53115 8.61332 8.03483 9.117 8.03483 9.73832V13.5508C8.03483 13.896 7.75501 14.1758 7.40983 14.1758C7.06465 14.1758 6.78483 13.896 6.78483 13.5508V9.86332H6.05566C5.29627 9.86332 4.68066 10.4789 4.68066 11.2383V12.5508C4.68066 12.7579 4.84856 12.9258 5.05566 12.9258H5.62219C5.96737 12.9258 6.24719 13.2056 6.24719 13.5508C6.24719 13.896 5.96737 14.1758 5.62219 14.1758H5.05566C4.1582 14.1758 3.43066 13.4483 3.43066 12.5508V11.2383ZM6.05566 15.0064C4.60592 15.0064 3.43066 16.1817 3.43066 17.6314V18.9439C3.43066 19.8414 4.1582 20.5689 5.05566 20.5689H5.62219C5.96737 20.5689 6.24719 20.2891 6.24719 19.9439C6.24719 19.5987 5.96737 19.3189 5.62219 19.3189H5.05566C4.84856 19.3189 4.68066 19.151 4.68066 18.9439V17.6314C4.68066 16.872 5.29627 16.2564 6.05566 16.2564H6.78483V19.9439C6.78483 20.2891 7.06465 20.5689 7.40983 20.5689C7.75501 20.5689 8.03483 20.2891 8.03483 19.9439V16.1314C8.03483 15.5101 7.53115 15.0064 6.90983 15.0064H6.05566Z" fill="#252323"/>
</g>
<defs>
<clipPath id="clip0_607_3728">
<rect width="23" height="23" fill="white"/>
</clipPath>
</defs>
</svg>
