<svg width="44" height="44" viewBox="0 0 44 44" fill="none" xmlns="http://www.w3.org/2000/svg">
<g clip-path="url(#clip0_190_250)">
<path fill-rule="evenodd" clip-rule="evenodd" d="M13.1755 5.75659H9.75879C8.65422 5.75659 7.75879 6.65202 7.75879 7.75659V13.0066C7.75879 13.5589 8.2065 14.0066 8.75879 14.0066H10.165H12.5713H13.1755C13.7277 14.0066 14.1755 13.5589 14.1755 13.0066V6.75659C14.1755 6.20431 13.7277 5.75659 13.1755 5.75659ZM13.1755 17.6733H9.75879C8.65422 17.6733 7.75879 18.5687 7.75879 19.6733V24.9233C7.75879 25.4755 8.2065 25.9233 8.75879 25.9233H10.165H12.5713H13.1755C13.7277 25.9233 14.1755 25.4755 14.1755 24.9233V18.6733C14.1755 18.121 13.7277 17.6733 13.1755 17.6733ZM9.75879 29.9035H13.1755C13.7277 29.9035 14.1755 30.3513 14.1755 30.9035V37.1535C14.1755 37.7058 13.7277 38.1535 13.1755 38.1535H12.5713H10.165H8.75879C8.2065 38.1535 7.75879 37.7058 7.75879 37.1535V31.9035C7.75879 30.799 8.65422 29.9035 9.75879 29.9035Z" fill="#E05149"/>
<path fill-rule="evenodd" clip-rule="evenodd" d="M9.75879 5.00659C8.24001 5.00659 7.00879 6.23781 7.00879 7.75659V13.0066C7.00879 13.9731 7.79229 14.7566 8.75879 14.7566H11.5827C11.9969 14.7566 12.3327 14.4208 12.3327 14.0066C12.3327 13.5924 11.9969 13.2566 11.5827 13.2566H8.75879C8.62072 13.2566 8.50879 13.1447 8.50879 13.0066V7.75659C8.50879 7.06624 9.06843 6.50659 9.75879 6.50659H13.1755C13.3135 6.50659 13.4255 6.61852 13.4255 6.75659V14.0066C13.4255 14.4208 13.7612 14.7566 14.1755 14.7566C14.5897 14.7566 14.9255 14.4208 14.9255 14.0066V6.75659C14.9255 5.79009 14.142 5.00659 13.1755 5.00659H9.75879ZM17.0898 5.84727C17.0898 5.43306 17.4256 5.09727 17.8398 5.09727H36.8614C37.2757 5.09727 37.6114 5.43306 37.6114 5.84727C37.6114 6.26148 37.2757 6.59727 36.8614 6.59727H17.8398C17.4256 6.59727 17.0898 6.26148 17.0898 5.84727ZM17.8398 9.10182C17.4256 9.10182 17.0898 9.43761 17.0898 9.85182C17.0898 10.266 17.4256 10.6018 17.8398 10.6018H32.8569C33.2711 10.6018 33.6069 10.266 33.6069 9.85182C33.6069 9.43761 33.2711 9.10182 32.8569 9.10182H17.8398ZM17.8398 13.1064C17.4256 13.1064 17.0898 13.4422 17.0898 13.8564C17.0898 14.2706 17.4256 14.6064 17.8398 14.6064H23.8467C24.2609 14.6064 24.5967 14.2706 24.5967 13.8564C24.5967 13.4422 24.2609 13.1064 23.8467 13.1064H17.8398ZM17.0898 18.0717C17.0898 17.6575 17.4256 17.3217 17.8398 17.3217H36.8614C37.2757 17.3217 37.6114 17.6575 37.6114 18.0717C37.6114 18.4859 37.2757 18.8217 36.8614 18.8217H17.8398C17.4256 18.8217 17.0898 18.4859 17.0898 18.0717ZM17.8398 21.1155C17.4256 21.1155 17.0898 21.4513 17.0898 21.8655C17.0898 22.2797 17.4256 22.6155 17.8398 22.6155H32.8569C33.2711 22.6155 33.6069 22.2797 33.6069 21.8655C33.6069 21.4513 33.2711 21.1155 32.8569 21.1155H17.8398ZM17.8398 24.9093C17.4256 24.9093 17.0898 25.2451 17.0898 25.6593C17.0898 26.0735 17.4256 26.4093 17.8398 26.4093H23.8467C24.2609 26.4093 24.5967 26.0735 24.5967 25.6593C24.5967 25.2451 24.2609 24.9093 23.8467 24.9093H17.8398ZM17.8398 29.3749C17.4256 29.3749 17.0898 29.7106 17.0898 30.1249C17.0898 30.5391 17.4256 30.8749 17.8398 30.8749H36.8614C37.2757 30.8749 37.6114 30.5391 37.6114 30.1249C37.6114 29.7106 37.2757 29.3749 36.8614 29.3749H17.8398ZM17.0898 34.1294C17.0898 33.7152 17.4256 33.3794 17.8398 33.3794H32.8569C33.2711 33.3794 33.6069 33.7152 33.6069 34.1294C33.6069 34.5436 33.2711 34.8794 32.8569 34.8794H17.8398C17.4256 34.8794 17.0898 34.5436 17.0898 34.1294ZM17.0898 38.134C17.0898 37.7197 17.4256 37.384 17.8398 37.384H23.8467C24.2609 37.384 24.5967 37.7197 24.5967 38.134C24.5967 38.5482 24.2609 38.884 23.8467 38.884H17.8398C17.4256 38.884 17.0898 38.5482 17.0898 38.134ZM7.00879 19.6733C7.00879 18.1545 8.24001 16.9233 9.75879 16.9233H13.1755C14.142 16.9233 14.9255 17.7068 14.9255 18.6733V25.9233C14.9255 26.3375 14.5897 26.6733 14.1755 26.6733C13.7612 26.6733 13.4255 26.3375 13.4255 25.9233V18.6733C13.4255 18.5352 13.3135 18.4233 13.1755 18.4233H9.75879C9.06843 18.4233 8.50879 18.9829 8.50879 19.6733V24.9233C8.50879 25.0613 8.62072 25.1733 8.75879 25.1733H11.5827C11.9969 25.1733 12.3327 25.509 12.3327 25.9233C12.3327 26.3375 11.9969 26.6733 11.5827 26.6733H8.75879C7.79229 26.6733 7.00879 25.8898 7.00879 24.9233V19.6733ZM9.75879 29.1535C8.24001 29.1535 7.00879 30.3848 7.00879 31.9035V37.1535C7.00879 38.12 7.79229 38.9035 8.75879 38.9035H11.5827C11.9969 38.9035 12.3327 38.5677 12.3327 38.1535C12.3327 37.7393 11.9969 37.4035 11.5827 37.4035H8.75879C8.62072 37.4035 8.50879 37.2916 8.50879 37.1535V31.9035C8.50879 31.2132 9.06843 30.6535 9.75879 30.6535H13.1755C13.3135 30.6535 13.4255 30.7655 13.4255 30.9035V38.1535C13.4255 38.5677 13.7612 38.9035 14.1755 38.9035C14.5897 38.9035 14.9255 38.5677 14.9255 38.1535V30.9035C14.9255 29.937 14.142 29.1535 13.1755 29.1535H9.75879Z" fill="#332A2A"/>
</g>
<defs>
<clipPath id="clip0_190_250">
<rect width="44" height="44" fill="white"/>
</clipPath>
</defs>
</svg>
