<svg width="18" height="18" viewBox="0 0 18 18" fill="none" xmlns="http://www.w3.org/2000/svg">
<g clip-path="url(#clip0_607_3641)">
<path fill-rule="evenodd" clip-rule="evenodd" d="M5.79907 5.07373V3.22998C5.79907 2.74673 5.40732 2.35498 4.92407 2.35498C3.95757 2.35498 3.17407 3.13848 3.17407 4.10498V4.74561C3.17407 5.28926 3.61479 5.72998 4.15845 5.72998H5.14282C5.50526 5.72998 5.79907 5.43617 5.79907 5.07373ZM5.79907 9.94873V8.10498C5.79907 7.62173 5.40732 7.22998 4.92407 7.22998C3.95757 7.22998 3.17407 8.01348 3.17407 8.97998V9.6206C3.17407 10.1643 3.61479 10.605 4.15845 10.605H5.14282C5.50526 10.605 5.79907 10.3112 5.79907 9.94873ZM5.79907 13.1083V14.952C5.79907 15.3145 5.50526 15.6083 5.14282 15.6083H4.15845C3.61479 15.6083 3.17407 15.1676 3.17407 14.6239V13.9833C3.17407 13.0168 3.95757 12.2333 4.92407 12.2333C5.40732 12.2333 5.79907 12.625 5.79907 13.1083Z" fill="#E05149"/>
<path fill-rule="evenodd" clip-rule="evenodd" d="M4.17407 1.85498C3.34565 1.85498 2.67407 2.52655 2.67407 3.35498V5.22998C2.67407 5.78227 3.12179 6.22998 3.67407 6.22998H4.5C4.77614 6.22998 5 6.00612 5 5.72998C5 5.45384 4.77614 5.22998 4.5 5.22998H3.67407V3.35498C3.67407 3.07884 3.89793 2.85498 4.17407 2.85498H5.29907V5.72998C5.29907 6.00612 5.52293 6.22998 5.79907 6.22998C6.07521 6.22998 6.29907 6.00612 6.29907 5.72998V2.85498C6.29907 2.3027 5.85136 1.85498 5.29907 1.85498H4.17407ZM6.79813 2.39208C6.79813 2.11593 7.02199 1.89208 7.29813 1.89208H15.0797C15.3558 1.89208 15.5797 2.11593 15.5797 2.39208C15.5797 2.66822 15.3558 2.89208 15.0797 2.89208H7.29813C7.02199 2.89208 6.79813 2.66822 6.79813 2.39208ZM7.29813 3.5303C7.02199 3.5303 6.79813 3.75416 6.79813 4.0303C6.79813 4.30644 7.02199 4.5303 7.29813 4.5303H13.4415C13.7176 4.5303 13.9415 4.30644 13.9415 4.0303C13.9415 3.75416 13.7176 3.5303 13.4415 3.5303H7.29813ZM7.29813 5.16853C7.02199 5.16853 6.79813 5.39238 6.79813 5.66853C6.79813 5.94467 7.02199 6.16853 7.29813 6.16853H9.75547C10.0316 6.16853 10.2555 5.94467 10.2555 5.66853C10.2555 5.39238 10.0316 5.16853 9.75547 5.16853H7.29813ZM6.79813 7.39299C6.79813 7.11685 7.02199 6.89299 7.29813 6.89299H15.0797C15.3558 6.89299 15.5797 7.11685 15.5797 7.39299C15.5797 7.66914 15.3558 7.89299 15.0797 7.89299H7.29813C7.02199 7.89299 6.79813 7.66914 6.79813 7.39299ZM7.29813 8.44499C7.02199 8.44499 6.79813 8.66885 6.79813 8.94499C6.79813 9.22114 7.02199 9.44499 7.29813 9.44499H13.4415C13.7176 9.44499 13.9415 9.22114 13.9415 8.94499C13.9415 8.66885 13.7176 8.44499 13.4415 8.44499H7.29813ZM7.29813 9.997C7.02199 9.997 6.79813 10.2209 6.79813 10.497C6.79813 10.7731 7.02199 10.997 7.29813 10.997H9.75547C10.0316 10.997 10.2555 10.7731 10.2555 10.497C10.2555 10.2209 10.0316 9.997 9.75547 9.997H7.29813ZM7.29813 11.8238C7.02199 11.8238 6.79813 12.0477 6.79813 12.3238C6.79813 12.6 7.02199 12.8238 7.29813 12.8238H15.0797C15.3558 12.8238 15.5797 12.6 15.5797 12.3238C15.5797 12.0477 15.3558 11.8238 15.0797 11.8238H7.29813ZM6.79813 13.962C6.79813 13.6859 7.02199 13.462 7.29813 13.462H13.4415C13.7176 13.462 13.9415 13.6859 13.9415 13.962C13.9415 14.2382 13.7176 14.462 13.4415 14.462H7.29813C7.02199 14.462 6.79813 14.2382 6.79813 13.962ZM6.79813 15.6003C6.79813 15.3241 7.02199 15.1003 7.29813 15.1003H9.75547C10.0316 15.1003 10.2555 15.3241 10.2555 15.6003C10.2555 15.8764 10.0316 16.1003 9.75547 16.1003H7.29813C7.02199 16.1003 6.79813 15.8764 6.79813 15.6003ZM2.67407 8.22998C2.67407 7.40155 3.34565 6.72998 4.17407 6.72998H5.29907C5.85136 6.72998 6.29907 7.1777 6.29907 7.72998V10.605C6.29907 10.8811 6.07521 11.105 5.79907 11.105C5.52293 11.105 5.29907 10.8811 5.29907 10.605V7.72998H4.17407C3.89793 7.72998 3.67407 7.95384 3.67407 8.22998V10.105H4.5C4.77614 10.105 5 10.3288 5 10.605C5 10.8811 4.77614 11.105 4.5 11.105H3.67407C3.12179 11.105 2.67407 10.6573 2.67407 10.105V8.22998ZM4.17407 11.7333C3.34565 11.7333 2.67407 12.4049 2.67407 13.2333V15.1083C2.67407 15.6606 3.12179 16.1083 3.67407 16.1083H4.5C4.77614 16.1083 5 15.8844 5 15.6083C5 15.3321 4.77614 15.1083 4.5 15.1083H3.67407V13.2333C3.67407 12.9571 3.89793 12.7333 4.17407 12.7333H5.29907V15.6083C5.29907 15.8844 5.52293 16.1083 5.79907 16.1083C6.07521 16.1083 6.29907 15.8844 6.29907 15.6083V12.7333C6.29907 12.181 5.85136 11.7333 5.29907 11.7333H4.17407Z" fill="#252323"/>
</g>
<defs>
<clipPath id="clip0_607_3641">
<rect width="18" height="18" fill="white"/>
</clipPath>
</defs>
</svg>
