<svg width="28" height="28" viewBox="0 0 28 28" fill="none" xmlns="http://www.w3.org/2000/svg">
<g clip-path="url(#clip0_607_3727)">
<path fill-rule="evenodd" clip-rule="evenodd" d="M6.9375 2.91321C5.41872 2.91321 4.1875 4.14442 4.1875 5.66321V7.91321C4.1875 8.87971 4.971 9.66321 5.9375 9.66321H7.37091C7.78512 9.66321 8.12091 9.32742 8.12091 8.91321C8.12091 8.49899 7.78512 8.16321 7.37091 8.16321H5.9375C5.79943 8.16321 5.6875 8.05128 5.6875 7.91321V5.66321C5.6875 4.97285 6.24714 4.41321 6.9375 4.41321H8.02083C8.1589 4.41321 8.27083 4.52514 8.27083 4.66321V8.91321C8.27083 9.32742 8.60662 9.66321 9.02083 9.66321C9.43505 9.66321 9.77083 9.32742 9.77083 8.91321V4.66321C9.77083 3.69671 8.98733 2.91321 8.02083 2.91321H6.9375ZM10.6027 3.72091C10.6027 3.3067 10.9385 2.97091 11.3527 2.97091H23.4574C23.8716 2.97091 24.2074 3.3067 24.2074 3.72091C24.2074 4.13513 23.8716 4.47091 23.4574 4.47091H11.3527C10.9385 4.47091 10.6027 4.13513 10.6027 3.72091ZM11.3527 5.51926C10.9385 5.51926 10.6027 5.85505 10.6027 6.26926C10.6027 6.68348 10.9385 7.01926 11.3527 7.01926H20.909C21.3232 7.01926 21.659 6.68348 21.659 6.26926C21.659 5.85505 21.3232 5.51926 20.909 5.51926H11.3527ZM11.3527 8.06761C10.9385 8.06761 10.6027 8.4034 10.6027 8.81761C10.6027 9.23183 10.9385 9.56761 11.3527 9.56761H15.1752C15.5894 9.56761 15.9252 9.23183 15.9252 8.81761C15.9252 8.4034 15.5894 8.06761 15.1752 8.06761H11.3527ZM10.6027 11.5001C10.6027 11.0859 10.9385 10.7501 11.3527 10.7501H23.4574C23.8716 10.7501 24.2074 11.0859 24.2074 11.5001C24.2074 11.9143 23.8716 12.2501 23.4574 12.2501H11.3527C10.9385 12.2501 10.6027 11.9143 10.6027 11.5001ZM11.3527 13.1643C10.9385 13.1643 10.6027 13.5001 10.6027 13.9143C10.6027 14.3286 10.9385 14.6643 11.3527 14.6643H20.909C21.3232 14.6643 21.659 14.3286 21.659 13.9143C21.659 13.5001 21.3232 13.1643 20.909 13.1643H11.3527ZM11.3527 15.5786C10.9385 15.5786 10.6027 15.9144 10.6027 16.3286C10.6027 16.7428 10.9385 17.0786 11.3527 17.0786H15.1752C15.5894 17.0786 15.9252 16.7428 15.9252 16.3286C15.9252 15.9144 15.5894 15.5786 15.1752 15.5786H11.3527ZM11.3527 18.4203C10.9385 18.4203 10.6027 18.7561 10.6027 19.1703C10.6027 19.5845 10.9385 19.9203 11.3527 19.9203H23.4574C23.8716 19.9203 24.2074 19.5845 24.2074 19.1703C24.2074 18.7561 23.8716 18.4203 23.4574 18.4203H11.3527ZM10.6027 21.7186C10.6027 21.3044 10.9385 20.9686 11.3527 20.9686H20.909C21.3232 20.9686 21.659 21.3044 21.659 21.7186C21.659 22.1329 21.3232 22.4686 20.909 22.4686H11.3527C10.9385 22.4686 10.6027 22.1329 10.6027 21.7186ZM10.6027 24.267C10.6027 23.8528 10.9385 23.517 11.3527 23.517H15.1752C15.5894 23.517 15.9252 23.8528 15.9252 24.267C15.9252 24.6812 15.5894 25.017 15.1752 25.017H11.3527C10.9385 25.017 10.6027 24.6812 10.6027 24.267ZM4.1875 13.2465C4.1875 11.7278 5.41872 10.4965 6.9375 10.4965H8.02083C8.98733 10.4965 9.77083 11.28 9.77083 12.2465V16.4965C9.77083 16.9108 9.43505 17.2465 9.02083 17.2465C8.60662 17.2465 8.27083 16.9108 8.27083 16.4965V12.2465C8.27083 12.1085 8.1589 11.9965 8.02083 11.9965H6.9375C6.24714 11.9965 5.6875 12.5562 5.6875 13.2465V15.4965C5.6875 15.6346 5.79943 15.7465 5.9375 15.7465H7.37091C7.78512 15.7465 8.12091 16.0823 8.12091 16.4965C8.12091 16.9108 7.78512 17.2465 7.37091 17.2465H5.9375C4.971 17.2465 4.1875 16.463 4.1875 15.4965V13.2465ZM6.9375 18.2794C5.41872 18.2794 4.1875 19.5107 4.1875 21.0294V23.2794C4.1875 24.2459 4.971 25.0294 5.9375 25.0294H7.37091C7.78512 25.0294 8.12091 24.6937 8.12091 24.2794C8.12091 23.8652 7.78512 23.5294 7.37091 23.5294H5.9375C5.79943 23.5294 5.6875 23.4175 5.6875 23.2794V21.0294C5.6875 20.3391 6.24714 19.7794 6.9375 19.7794H8.02083C8.1589 19.7794 8.27083 19.8914 8.27083 20.0294V24.2794C8.27083 24.6937 8.60662 25.0294 9.02083 25.0294C9.43505 25.0294 9.77083 24.6937 9.77083 24.2794V20.0294C9.77083 19.063 8.98733 18.2794 8.02083 18.2794H6.9375Z" fill="#332A2A"/>
</g>
<defs>
<clipPath id="clip0_607_3727">
<rect width="28" height="28" fill="white"/>
</clipPath>
</defs>
</svg>
