<svg width="18" height="18" viewBox="0 0 18 18" fill="none" xmlns="http://www.w3.org/2000/svg">
<g clip-path="url(#clip0_607_3641)">
<path fill-rule="evenodd" clip-rule="evenodd" d="M5.79907 5.07373V3.22998C5.79907 2.74673 5.40732 2.35498 4.92407 2.35498C3.95757 2.35498 3.17407 3.13848 3.17407 4.10498V4.74561C3.17407 5.28926 3.61479 5.72998 4.15845 5.72998H5.14282C5.50526 5.72998 5.79907 5.43617 5.79907 5.07373ZM5.79907 9.94873V8.10498C5.79907 7.62173 5.40732 7.22998 4.92407 7.22998C3.95757 7.22998 3.17407 8.01348 3.17407 8.97998V9.6206C3.17407 10.1643 3.61479 10.605 4.15845 10.605H5.14282C5.50526 10.605 5.79907 10.3112 5.79907 9.94873ZM5.79907 13.1083V14.952C5.79907 15.3145 5.50526 15.6083 5.14282 15.6083H4.15845C3.61479 15.6083 3.17407 15.1676 3.17407 14.6239V13.9833C3.17407 13.0168 3.95757 12.2333 4.92407 12.2333C5.40732 12.2333 5.79907 12.625 5.79907 13.1083Z" fill="#E05149"/>
<path d="M5.29907 11.645C5.85123 11.645 6.29887 12.0929 6.29907 12.645V15.52C6.29907 15.7962 6.07521 16.02 5.79907 16.02C5.52293 16.02 5.29907 15.7962 5.29907 15.52V12.645H4.17407C3.89805 12.645 3.67427 12.869 3.67407 13.145V15.02H4.50024C4.77615 15.0202 5.00005 15.2441 5.00024 15.52C5.00024 15.7961 4.77627 16.0199 4.50024 16.02H3.67407C3.12179 16.02 2.67407 15.5723 2.67407 15.02V13.145C2.67427 12.3168 3.34577 11.645 4.17407 11.645H5.29907ZM9.75513 15.0122C10.0312 15.0122 10.255 15.2361 10.2551 15.5122C10.2551 15.7883 10.0313 16.0122 9.75513 16.0122H7.2981C7.02197 16.0122 6.7981 15.7883 6.7981 15.5122C6.79819 15.2362 7.02203 15.0122 7.2981 15.0122H9.75513ZM13.4417 13.3745C13.7177 13.3746 13.9417 13.5984 13.9417 13.8745C13.9415 14.1504 13.7176 14.3744 13.4417 14.3745H7.2981C7.02209 14.3745 6.79829 14.1505 6.7981 13.8745C6.7981 13.5984 7.02197 13.3745 7.2981 13.3745H13.4417ZM15.0793 11.7358C15.3555 11.7358 15.5793 11.9597 15.5793 12.2358C15.5793 12.512 15.3555 12.7358 15.0793 12.7358H7.2981C7.02197 12.7358 6.7981 12.512 6.7981 12.2358C6.79814 11.9597 7.022 11.7359 7.2981 11.7358H15.0793ZM5.29907 6.64209C5.85136 6.64209 6.29907 7.08981 6.29907 7.64209V10.5171C6.29907 10.7932 6.07521 11.0171 5.79907 11.0171C5.52293 11.0171 5.29907 10.7932 5.29907 10.5171V7.64209H4.17407C3.89793 7.64209 3.67407 7.86595 3.67407 8.14209V10.0171H4.50024C4.77627 10.0172 5.00024 10.241 5.00024 10.5171C5.00024 10.7932 4.77627 11.017 4.50024 11.0171H3.67407C3.12179 11.0171 2.67407 10.5694 2.67407 10.0171V8.14209C2.67407 7.31366 3.34565 6.64209 4.17407 6.64209H5.29907ZM9.75513 9.90869C10.0311 9.90869 10.2549 10.1327 10.2551 10.4087C10.2551 10.6848 10.0313 10.9087 9.75513 10.9087H7.2981C7.02197 10.9087 6.7981 10.6848 6.7981 10.4087C6.79832 10.1328 7.02211 9.90871 7.2981 9.90869H9.75513ZM13.4417 8.35693C13.7176 8.35705 13.9416 8.58094 13.9417 8.85693C13.9417 9.13301 13.7177 9.35682 13.4417 9.35693H7.2981C7.02197 9.35691 6.7981 9.13306 6.7981 8.85693C6.79819 8.58088 7.02203 8.35695 7.2981 8.35693H13.4417ZM15.0793 6.80518C15.3555 6.80518 15.5793 7.02903 15.5793 7.30518C15.5793 7.58128 15.3555 7.80518 15.0793 7.80518H7.2981C7.02199 7.80516 6.79814 7.58127 6.7981 7.30518C6.7981 7.02905 7.02197 6.8052 7.2981 6.80518H15.0793ZM5.29907 1.76709C5.85136 1.76709 6.29907 2.21481 6.29907 2.76709V5.64209C6.29907 5.91823 6.07521 6.14209 5.79907 6.14209C5.52293 6.14209 5.29907 5.91823 5.29907 5.64209V2.76709H4.17407C3.89793 2.76709 3.67407 2.99095 3.67407 3.26709V5.14209H4.50024C4.77627 5.14222 5.00024 5.36603 5.00024 5.64209C5.00024 5.91815 4.77627 6.14196 4.50024 6.14209H3.67407C3.12179 6.14209 2.67407 5.69437 2.67407 5.14209V3.26709C2.67407 2.43866 3.34565 1.76709 4.17407 1.76709H5.29907ZM9.75513 5.08057C10.0312 5.08057 10.2551 5.30446 10.2551 5.58057C10.2551 5.85671 10.0313 6.08057 9.75513 6.08057H7.2981C7.02197 6.08055 6.7981 5.8567 6.7981 5.58057C6.79813 5.30447 7.02199 5.08059 7.2981 5.08057H9.75513ZM13.4417 3.44287C13.7177 3.44298 13.9417 3.6668 13.9417 3.94287C13.9414 4.21873 13.7175 4.44276 13.4417 4.44287H7.2981C7.02212 4.44285 6.79834 4.21879 6.7981 3.94287C6.7981 3.66674 7.02197 3.44289 7.2981 3.44287H13.4417ZM15.0793 1.8042C15.3555 1.8042 15.5793 2.02806 15.5793 2.3042C15.5793 2.58034 15.3555 2.8042 15.0793 2.8042H7.2981C7.02197 2.80418 6.7981 2.58032 6.7981 2.3042C6.7981 2.02807 7.02197 1.80422 7.2981 1.8042H15.0793Z" fill="#332A2A"/>
</g>
<defs>
<clipPath id="clip0_607_3641">
<rect width="18" height="18" fill="white"/>
</clipPath>
</defs>
</svg>
