<svg width="28" height="28" viewBox="0 0 28 28" fill="none" xmlns="http://www.w3.org/2000/svg">
<g clip-path="url(#clip0_611_5829)">
<path fill-rule="evenodd" clip-rule="evenodd" d="M14.2708 1.63892C8.70196 1.63892 4.1875 6.15338 4.1875 11.7222V13.4722C4.1875 13.8865 4.52329 14.2222 4.9375 14.2222C5.35171 14.2222 5.6875 13.8865 5.6875 13.4722V11.7222C5.6875 10.7746 5.84107 9.86282 6.12469 9.01044C7.69918 9.16651 9.28632 9.15207 10.8585 8.96711L10.8296 8.72211L10.8422 8.72205L10.8769 8.96471L12.2073 8.77465C12.5939 8.71943 12.987 8.73034 13.3699 8.80692C13.9574 8.92442 14.5614 8.93416 15.1524 8.83566L15.3107 8.80929C15.7809 8.73092 16.2608 8.73092 16.731 8.80929L16.8422 8.82783C17.4461 8.92848 18.0612 8.94326 18.6693 8.87172L19.0102 8.83161C19.8085 8.73769 20.6168 8.77425 21.4034 8.93984L22.4663 9.16362C22.7184 9.97174 22.8542 10.8311 22.8542 11.7222V13.6368C21.2807 13.7717 20.2069 14.205 19.405 14.6381C19.1805 14.7593 18.9808 14.8786 18.8061 14.9847L18.6991 15.0498C18.5678 15.1298 18.4576 15.1969 18.352 15.2567C18.0755 15.413 17.9676 15.4346 17.9168 15.4346C16.3616 15.4346 14.5898 15.8693 13.6909 16.3565C13.4782 16.4718 13.2039 16.6467 13.0319 16.9022C12.9369 17.0432 12.8349 17.2667 12.8656 17.5441C12.8974 17.8316 13.0557 18.0373 13.208 18.164C13.31 18.2489 13.4272 18.314 13.5502 18.3646C12.9649 18.5396 12.3717 18.6597 11.9445 18.6597C10.9493 18.6597 10.1205 18.7575 9.4603 18.9129C8.81355 19.0652 8.28178 19.2839 7.9196 19.559C7.74224 19.6938 7.54973 19.8842 7.44234 20.1413C7.31963 20.4351 7.32411 20.7935 7.53971 21.1005C7.56291 21.1335 7.5875 21.1645 7.61319 21.1934C7.03444 21.3767 6.35055 21.5343 5.6875 21.6055V19.0139C5.6875 18.5997 5.35171 18.2639 4.9375 18.2639C4.52329 18.2639 4.1875 18.5997 4.1875 19.0139V23.5556C4.1875 24.5221 4.971 25.3056 5.9375 25.3056H9.60417C10.0184 25.3056 10.3542 24.9698 10.3542 24.5556C10.3542 24.1414 10.0184 23.8056 9.60417 23.8056H5.9375C5.79943 23.8056 5.6875 23.6937 5.6875 23.5556V23.1126C6.84898 23.0084 8.0391 22.6749 8.84352 22.3424C9.09004 22.2405 9.31679 22.1321 9.5048 22.0212C9.66451 21.927 9.89337 21.7765 10.0413 21.5627C10.1186 21.4509 10.2462 21.2164 10.1928 20.9112C10.1451 20.6389 9.98262 20.4649 9.84064 20.3645C10.3653 20.2445 11.0645 20.1597 11.9445 20.1597C12.9715 20.1597 14.3942 19.7226 15.3097 19.3131C15.5465 19.2072 15.768 19.0951 15.9535 18.9818C16.1157 18.8828 16.3323 18.7352 16.4783 18.5384C16.5504 18.4413 16.6813 18.2316 16.6635 17.9451C16.6426 17.6071 16.4348 17.3879 16.2583 17.2779C16.1623 17.2181 16.0635 17.1808 15.9755 17.1566C16.5827 17.0248 17.2672 16.9346 17.9168 16.9346C18.3822 16.9346 18.7813 16.7371 19.0903 16.5624C19.2194 16.4894 19.3566 16.4058 19.4902 16.3243L19.5845 16.2669C19.7529 16.1646 19.927 16.0609 20.1178 15.9579C20.741 15.6213 21.582 15.2699 22.8542 15.1431V16.063L18.8567 19.794C18.1325 20.0083 17.6042 20.6786 17.6042 21.4722V23.8056H14.2708C13.8566 23.8056 13.5208 24.1414 13.5208 24.5556C13.5208 24.9698 13.8566 25.3056 14.2708 25.3056H22.6404C23.5869 25.3056 24.3542 24.5383 24.3542 23.5918V11.7222C24.3542 6.15337 19.8397 1.63892 14.2708 1.63892ZM19.1042 23.8056H22.6404C22.7585 23.8056 22.8542 23.7099 22.8542 23.5918V21.2222H19.3542C19.2161 21.2222 19.1042 21.3342 19.1042 21.4722V23.8056ZM22.8542 19.7222V19.662H21.1964L21.1319 19.7222H22.8542ZM22.8542 18.162V18.1148L22.8036 18.162H22.8542ZM21.732 7.47615C20.2545 4.88548 17.4667 3.13892 14.2708 3.13892C11.0405 3.13892 8.22697 4.9234 6.76223 7.56036C7.8652 7.64301 8.97321 7.63613 10.0754 7.53971C10.4019 5.51699 12.156 3.97225 14.2708 3.97225C16.3326 3.97225 18.0514 5.44033 18.439 7.38816C18.4574 7.38621 18.4757 7.38415 18.494 7.382L18.835 7.34189C19.7948 7.22896 20.7667 7.27291 21.7124 7.47202L21.732 7.47615ZM15.0641 7.3297C15.6606 7.23027 16.2688 7.22448 16.8667 7.31232C16.4911 6.24071 15.4707 5.47225 14.2708 5.47225C13.0619 5.47225 12.0351 6.25237 11.6665 7.33668L11.9952 7.28973C12.5501 7.21045 13.1144 7.22612 13.6641 7.33605C14.0734 7.4179 14.4941 7.42469 14.9058 7.35607L15.0641 7.3297ZM15.592 18.6064C15.5919 18.6064 15.5898 18.6061 15.586 18.6052C15.5902 18.6059 15.5921 18.6063 15.592 18.6064ZM9.12672 21.6629C9.12665 21.6629 9.12489 21.6626 9.12163 21.6618C9.12516 21.6624 9.12678 21.6628 9.12672 21.6629ZM8.78732 20.7877C8.78729 20.7877 8.78781 20.787 8.78898 20.7858L8.78732 20.7877ZM8.63008 20.115C8.63021 20.1149 8.63243 20.1157 8.63636 20.1176C8.63193 20.116 8.62996 20.1151 8.63008 20.115ZM11.9375 9.20365C11.5233 9.20365 11.1875 9.53943 11.1875 9.95365C11.1875 10.3679 11.5233 10.7036 11.9375 10.7036H16.6041C17.0184 10.7036 17.3541 10.3679 17.3541 9.95365C17.3541 9.53943 17.0184 9.20365 16.6041 9.20365H11.9375ZM12.9374 11.9444C12.9374 11.5302 13.2732 11.1944 13.6874 11.1944H17.1874C17.6016 11.1944 17.9374 11.5302 17.9374 11.9444C17.9374 12.3586 17.6016 12.6944 17.1874 12.6944H13.6874C13.2732 12.6944 12.9374 12.3586 12.9374 11.9444ZM12.9399 13.1852C12.5257 13.1852 12.1899 13.5209 12.1899 13.9352C12.1899 14.3494 12.5257 14.6852 12.9399 14.6852H14.6899C15.1041 14.6852 15.4399 14.3494 15.4399 13.9352C15.4399 13.5209 15.1041 13.1852 14.6899 13.1852H12.9399Z" fill="#332A2A"/>
</g>
<defs>
<clipPath id="clip0_611_5829">
<rect width="28" height="28" fill="white"/>
</clipPath>
</defs>
</svg>
