<svg width="44" height="44" viewBox="0 0 44 44" fill="none" xmlns="http://www.w3.org/2000/svg">
<g clip-path="url(#clip0_611_5828)">
<path fill-rule="evenodd" clip-rule="evenodd" d="M22.4255 3.00415C13.9111 3.00415 7.00879 9.90643 7.00879 18.4208V21.1708C7.00879 21.585 7.34458 21.9208 7.75879 21.9208C8.173 21.9208 8.50879 21.585 8.50879 21.1708V18.4208C8.50879 16.7628 8.79873 15.1726 9.33066 13.6979C11.8842 13.9766 14.4614 13.9659 17.0131 13.6657L16.9843 13.4207L16.9969 13.4207L17.0315 13.6633L19.1222 13.3646C19.7777 13.271 20.4444 13.2895 21.0938 13.4193C21.9661 13.5938 22.8629 13.6083 23.7404 13.462L23.989 13.4206C24.7746 13.2896 25.5763 13.2896 26.3619 13.4206L26.5367 13.4497C27.4458 13.6012 28.3718 13.6235 29.2872 13.5158L29.823 13.4528C31.1236 13.2997 32.4405 13.3593 33.7221 13.6291L35.6359 14.032C36.0941 15.4117 36.3421 16.8873 36.3421 18.4208V21.6805C35.6539 21.5335 34.8083 21.5176 33.9845 21.5584C32.9401 21.6101 31.8207 21.76 30.8702 21.9357C29.9402 22.1076 29.1038 22.3165 28.6574 22.5056C28.5553 22.5488 28.3965 22.6219 28.265 22.7354C28.2066 22.7859 28.0584 22.9234 27.9967 23.1556C27.9136 23.468 28.0329 23.7511 28.2096 23.9237C28.3451 24.0561 28.4963 24.1108 28.5658 24.1331C28.6507 24.1604 28.7345 24.1758 28.8052 24.1855C28.9474 24.2052 29.1159 24.2125 29.3005 24.2125C29.9717 24.2125 30.373 24.325 30.5706 24.4275C30.4859 24.4967 30.3332 24.5945 30.0684 24.6938C29.6013 24.869 28.8932 25.0042 27.9255 25.0042C25.5523 25.0042 22.9051 25.5905 21.6261 26.2289C21.3265 26.3784 20.9668 26.5941 20.7598 26.9042C20.6416 27.0811 20.5307 27.3556 20.604 27.6798C20.6749 27.9932 20.8827 28.1931 21.0515 28.3079C21.3637 28.5203 21.81 28.6259 22.2793 28.6904C22.5417 28.7264 22.8455 28.7536 23.1931 28.7713C21.8621 29.4296 19.951 30.0458 18.7588 30.0458C15.7035 30.0458 13.3951 30.6304 12.1647 31.278C11.8562 31.4403 11.5775 31.6262 11.3705 31.8374C11.191 32.0206 10.9148 32.3799 10.9936 32.8527C11.0686 33.3028 11.404 33.5385 11.6662 33.6539C10.8571 33.7781 9.79291 33.8351 8.50879 33.7345V29.8791C8.50879 29.4649 8.173 29.1291 7.75879 29.1291C7.34458 29.1291 7.00879 29.4649 7.00879 29.8791V37.5875C7.00879 38.554 7.79229 39.3375 8.75879 39.3375H15.0921C15.5063 39.3375 15.8421 39.0017 15.8421 38.5875C15.8421 38.1733 15.5063 37.8375 15.0921 37.8375H8.75879C8.62072 37.8375 8.50879 37.7256 8.50879 37.5875V35.2387C10.9269 35.4131 12.7725 35.0818 13.748 34.6265C14.001 34.5084 14.2608 34.3525 14.448 34.1426C14.6372 33.9303 14.8809 33.4833 14.6064 32.9977C14.4005 32.6335 14.0165 32.4983 13.7874 32.4392C13.6662 32.4079 13.5335 32.3844 13.3907 32.368C14.4748 31.9444 16.3124 31.5458 18.7588 31.5458C20.3037 31.5458 22.4893 30.8004 23.9067 30.0916C24.27 29.91 24.6022 29.7214 24.8747 29.5356C25.1269 29.3637 25.4004 29.1465 25.5703 28.8915C25.656 28.763 25.7715 28.5421 25.7571 28.2612C25.7404 27.9351 25.5599 27.693 25.3549 27.5496C25.1753 27.4238 24.9746 27.3681 24.8154 27.3389C24.646 27.308 24.4579 27.2958 24.2588 27.2958C23.7927 27.2958 23.399 27.2834 23.0705 27.2616C24.2773 26.8601 26.1626 26.5042 27.9255 26.5042C29.0202 26.5042 29.9163 26.3529 30.5951 26.0983C31.2374 25.8574 31.827 25.4677 32.0593 24.8869C32.1857 24.5709 32.1927 24.2213 32.0528 23.8933C31.9543 23.6624 31.7978 23.4757 31.6172 23.3279C32.401 23.199 33.2602 23.0961 34.0587 23.0566C35.051 23.0075 35.8468 23.0628 36.2984 23.2209C36.3128 23.2259 36.3273 23.2308 36.3421 23.2354V25.4282L29.9215 31.4208H29.8421C28.8756 31.4208 28.0921 32.2043 28.0921 33.1708V37.8375H22.4255C22.0112 37.8375 21.6755 38.1733 21.6755 38.5875C21.6755 39.0017 22.0112 39.3375 22.4255 39.3375H36.0921C37.0586 39.3375 37.8421 38.554 37.8421 37.5875V18.4208C37.8421 9.90643 30.9398 3.00415 22.4255 3.00415ZM29.5921 37.8375H36.0921C36.2302 37.8375 36.3421 37.7256 36.3421 37.5875V32.9208H29.8421C29.704 32.9208 29.5921 33.0327 29.5921 33.1708V37.8375ZM36.3421 31.4208V30.1708H33.4592L32.1199 31.4208H36.3421ZM36.3421 28.6708V27.4801L35.0663 28.6708H36.3421ZM34.9545 12.3557C32.7006 7.70836 27.9372 4.50415 22.4255 4.50415C16.9544 4.50415 12.2206 7.66127 9.94673 12.2531C12.0304 12.451 14.1285 12.4479 16.2117 12.2435C16.5494 9.11029 19.2025 6.67082 22.4255 6.67082C25.5884 6.67082 28.2025 9.0203 28.6179 12.0692C28.7829 12.0598 28.9476 12.0454 29.112 12.0261L29.6477 11.963C31.1099 11.791 32.5904 11.858 34.0311 12.1613L34.9545 12.3557ZM18.9101 11.8797L17.7561 12.0445C18.1673 9.83979 20.1015 8.17082 22.4255 8.17082C24.7391 8.17082 26.6665 9.82502 27.0892 12.0152C26.987 12.0021 26.885 11.9871 26.7833 11.9701L26.6085 11.941C25.6597 11.7828 24.6912 11.7828 23.7424 11.941L23.4938 11.9824C22.7956 12.0988 22.082 12.0873 21.388 11.9485C20.5719 11.7852 19.734 11.762 18.9101 11.8797ZM24.5755 28.8213L24.5716 28.8201C24.5743 28.8209 24.5755 28.8213 24.5755 28.8213ZM13.4766 33.913C13.4761 33.9133 13.4705 33.9112 13.461 33.9061C13.4724 33.9102 13.4771 33.9128 13.4766 33.913ZM12.2554 32.2751C12.2555 32.2751 12.257 32.2757 12.2597 32.277C12.2567 32.2758 12.2554 32.2751 12.2554 32.2751ZM12.4262 32.9041C12.421 32.9119 12.4175 32.916 12.417 32.916C12.4166 32.9161 12.4192 32.9121 12.4262 32.9041ZM18.0088 14.9833C18.0088 14.5691 18.3446 14.2333 18.7588 14.2333H26.0921C26.5063 14.2333 26.8421 14.5691 26.8421 14.9833C26.8421 15.3975 26.5063 15.7333 26.0921 15.7333H18.7588C18.3446 15.7333 18.0088 15.3975 18.0088 14.9833ZM21.5088 16.2958C21.0946 16.2958 20.7588 16.6316 20.7588 17.0458C20.7588 17.46 21.0946 17.7958 21.5088 17.7958H27.0088C27.423 17.7958 27.7588 17.46 27.7588 17.0458C27.7588 16.6316 27.423 16.2958 27.0088 16.2958H21.5088ZM18.9255 19.3375C18.9255 18.9233 19.2612 18.5875 19.6755 18.5875H22.4255C22.8397 18.5875 23.1755 18.9233 23.1755 19.3375C23.1755 19.7517 22.8397 20.0875 22.4255 20.0875H19.6755C19.2612 20.0875 18.9255 19.7517 18.9255 19.3375ZM22.4255 20.4208C22.0112 20.4208 21.6755 20.7566 21.6755 21.1708C21.6755 21.585 22.0112 21.9208 22.4255 21.9208H23.3421C23.7563 21.9208 24.0921 21.585 24.0921 21.1708C24.0921 20.7566 23.7563 20.4208 23.3421 20.4208H22.4255Z" fill="#332A2A"/>
</g>
<defs>
<clipPath id="clip0_611_5828">
<rect width="44" height="44" fill="white"/>
</clipPath>
</defs>
</svg>
