<svg width="28" height="28" viewBox="0 0 28 28" fill="none" xmlns="http://www.w3.org/2000/svg">
<g clip-path="url(#clip0_662_7276)">
<path fill-rule="evenodd" clip-rule="evenodd" d="M20.9999 4.08337H4.37492V13.2709V17.7917H3.20825L3.49992 21.5834L4.37492 22.4584H16.7611C16.0447 21.6635 15.6086 20.611 15.6086 19.4567C15.6086 16.9796 17.6166 14.9716 20.0937 14.9716C20.4041 14.9716 20.7072 15.0031 20.9999 15.0632V4.08337ZM8.41658 6.41671H8.91658C9.46887 6.41671 9.91658 6.86442 9.91658 7.41671V9.04171C9.91658 9.52496 9.52483 9.91671 9.04158 9.91671H7.72908H7.41658C6.8643 9.91671 6.41659 9.46899 6.41659 8.91671V8.41671C6.41659 7.31214 7.31202 6.41671 8.41658 6.41671ZM8.41658 12.25H8.91658C9.46887 12.25 9.91658 12.6978 9.91658 13.25V14.875C9.91658 15.3583 9.52483 15.75 9.04158 15.75H7.72908H7.41658C6.8643 15.75 6.41659 15.3023 6.41659 14.75V14.25C6.41659 13.1455 7.31202 12.25 8.41658 12.25Z" fill="#E05149"/>
<path fill-rule="evenodd" clip-rule="evenodd" d="M3.62508 6.08337C3.62508 4.56459 4.8563 3.33337 6.37508 3.33337H19.0001C20.5189 3.33337 21.7501 4.56459 21.7501 6.08337V14.46C22.8821 14.8288 23.8444 15.5727 24.4898 16.5434C24.7192 16.8883 24.6255 17.3539 24.2805 17.5832C23.9356 17.8126 23.4701 17.7189 23.2407 17.3739C22.5703 16.3656 21.4261 15.7037 20.1277 15.7037C18.0649 15.7037 16.3926 17.3759 16.3926 19.4388C16.3926 21.5016 18.0649 23.1739 20.1277 23.1739C22.1905 23.1739 23.8628 21.5016 23.8628 19.4388C23.8628 19.0246 24.1986 18.6888 24.6128 18.6888C25.027 18.6888 25.3628 19.0246 25.3628 19.4388C25.3628 22.33 23.019 24.6739 20.1277 24.6739C18.7247 24.6739 17.4505 24.1219 16.5106 23.2234H16.4909H16.4629H16.4348H16.4067H16.3786H16.3504H16.3222H16.2939H16.2656H16.2372H16.2088H16.1804H16.1519H16.1234H16.0948H16.0662H16.0375H16.0089H15.9801H15.9514H15.9226H15.8937H15.8648H15.8359H15.807H15.778H15.7489H15.7199H15.6908H15.6616H15.6325H15.6033H15.574H15.5447H15.5154H15.4861H15.4567H15.4273H15.3979H15.3684H15.3389H15.3094H15.2798H15.2502H15.2206H15.191H15.1613H15.1316H15.1018H15.0721H15.0423H15.0125H14.9826H14.9527H14.9228H14.8929H14.863H14.833H14.803H14.773H14.7429H14.7129H14.6828H14.6527H14.6225H14.5924H14.5622H14.532H14.5018H14.4715H14.4412H14.411H14.3807H14.3503H14.32H14.2896H14.2593H14.2289H14.1985H14.168H14.1376H14.1071H14.0767H14.0462H14.0157H13.9851H13.9546H13.9241H13.8935H13.8629H13.8324H13.8018H13.7711H13.7405H13.7099H13.6793H13.6486H13.6179H13.5873H13.5566H13.5259H13.4952H13.4645H13.4338H13.4031H13.3723H13.3416H13.3108H13.2801H13.2493H13.2186H13.1878H13.1571H13.1263H13.0955H13.0647H13.034H13.0032H12.9724H12.9416H12.9108H12.88H12.8492H12.8184H12.7877H12.7569H12.7261H12.6953H12.6645H12.6337H12.6029H12.5722H12.5414H12.5106H12.4799H12.4491H12.4183H12.3876H12.3568H12.3261H12.2954H12.2646H12.2339H12.2032H12.1725H12.1418H12.1111H12.0804H12.0497H12.0191H11.9884H11.9578H11.9271H11.8965H11.8659H11.8353H11.8047H11.7742H11.7436H11.713H11.6825H11.652H11.6215H11.591H11.5605H11.5301H11.4996H11.4692H11.4388H11.4084H11.378H11.3476H11.3173H11.287H11.2567H11.2264H11.1961H11.1659H11.1356H11.1054H11.0753H11.0451H11.0149H10.9848H10.9547H10.9247H10.8946H10.8646H10.8346H10.8046H10.7747H10.7447H10.7148H10.685H10.6551H10.6253H10.5955H10.5657H10.536H10.5063H10.4766H10.4469H10.4173H10.3877H10.3581H10.3286H10.2991H10.2696H10.2402H10.2108H10.1814H10.1521H10.1227H10.0935H10.0642H10.035H10.0058H9.9767H9.94759H9.91852H9.88949H9.86049H9.83153H9.80261H9.77372H9.74487H9.71607H9.68729H9.65856H9.62987H9.60122H9.57261H9.54403H9.5155H9.48701H9.45856H9.43016H9.40179H9.37347H9.3452H9.31696H9.28877H9.26062H9.23252H9.20447H9.17646H9.14849H9.12057H9.0927H9.06487H9.03709H9.00936H8.98168H8.95405H8.92646H8.89892H8.87144H8.844H8.81661H8.78928H8.76199H8.73476H8.70757H8.68044H8.65337H8.62634H8.59937H8.57245H8.54559H8.51878H8.49202H8.46532H8.43868H8.41209H8.38556H8.35908H8.33266H8.3063H8.28H8.25375H8.22756H8.20144H8.17537H8.14936H8.12341H8.09752H8.07169H8.04592H8.02022H7.99457H7.96899H7.94347H7.91801H7.89262H7.86729H7.84203H7.81682H7.79169H7.76662H7.74161H7.71667H7.6918H7.66699H7.64225H7.61758H7.59298H7.56844H7.54397H7.51958H7.49525H7.47099H7.4468H7.42268H7.39863H7.37465H7.35075H7.32692H7.30315H7.27947H7.25585H7.23231H7.20884H7.18545H7.16213H7.13888H7.11571H7.09262H7.0696H7.04666H7.02379H7.00101H6.9783H6.95567H6.93311H6.91064H6.88824H6.86592H6.84369H6.82153H6.79945H6.77746H6.75554H6.73371H6.71196H6.69029H6.66871H6.64721H6.62579H6.60445H6.5832H6.56204H6.54096H6.51996H6.49905H6.47823H6.45749H6.43684H6.41628H6.3958H6.37541H6.35511H6.3349H6.31478H6.29475H6.27481H6.25496H6.2352H6.21553H6.19595H6.17646H6.15707H6.13776H6.11855H6.09944H6.08041H6.06149H6.04265H6.02391H6.00527H5.98672H5.96826H5.94991H5.93165H5.91348H5.89542H5.87745H5.85958H5.84181H5.82413H5.80656H5.78909H5.77171H5.75444H5.73726H5.72019H5.70322H5.68635H5.66958H5.65292H5.63636H5.6199C4.85468 23.2234 4.20142 23.1052 3.68134 22.799C3.13346 22.4764 2.81938 21.9969 2.64899 21.4574C2.48754 20.9463 2.44901 20.3633 2.44152 19.781C2.43755 19.4729 2.44316 19.1114 2.44895 18.7379C2.45362 18.437 2.45841 18.1284 2.45841 17.8336C2.45841 17.4194 2.79419 17.0836 3.20841 17.0836L3.62508 17.0835V6.08337ZM15.4161 21.7234C15.0807 21.033 14.8926 20.2579 14.8926 19.4388C14.8926 19.1352 14.9184 18.8377 14.968 18.5482C13.8751 18.5517 12.6661 18.5562 11.4255 18.5609L11.4251 18.5609H11.4248H11.4246H11.4244H11.4243H11.4242H11.4242L11.421 18.5609L10.955 18.5627C8.47978 18.5719 5.92323 18.5812 3.9518 18.5832L3.9482 18.8039V18.8039C3.94254 19.1417 3.93738 19.4496 3.94139 19.7617C3.94856 20.3189 3.9879 20.7162 4.07933 21.0056C4.16181 21.2668 4.27561 21.4082 4.44239 21.5064C4.63695 21.6209 4.98512 21.7234 5.6199 21.7234H5.63636H5.65292H5.66958H5.68635H5.70322H5.72019H5.73726H5.75444H5.77171H5.78909H5.80656H5.82413H5.84181H5.85958H5.87745H5.89542H5.91348H5.93165H5.94991H5.96826H5.98672H6.00527H6.02391H6.04265H6.06149H6.08041H6.09944H6.11855H6.13776H6.15707H6.17646H6.19595H6.21553H6.2352H6.25496H6.27481H6.29475H6.31478H6.3349H6.35511H6.37541H6.3958H6.41628H6.43684H6.45749H6.47823H6.49905H6.51996H6.54096H6.56204H6.5832H6.60445H6.62579H6.64721H6.66871H6.69029H6.71196H6.73371H6.75554H6.77746H6.79945H6.82153H6.84369H6.86592H6.88824H6.91064H6.93311H6.95567H6.9783H7.00101H7.02379H7.04666H7.0696H7.09262H7.11571H7.13888H7.16213H7.18545H7.20884H7.23231H7.25585H7.27947H7.30315H7.32692H7.35075H7.37465H7.39863H7.42268H7.4468H7.47099H7.49525H7.51958H7.54397H7.56844H7.59298H7.61758H7.64225H7.66699H7.6918H7.71667H7.74161H7.76662H7.79169H7.81682H7.84203H7.86729H7.89262H7.91801H7.94347H7.96899H7.99457H8.02022H8.04592H8.07169H8.09752H8.12341H8.14936H8.17537H8.20144H8.22756H8.25375H8.28H8.3063H8.33266H8.35908H8.38556H8.41209H8.43868H8.46532H8.49202H8.51878H8.54559H8.57245H8.59937H8.62634H8.65337H8.68044H8.70757H8.73476H8.76199H8.78928H8.81661H8.844H8.87144H8.89892H8.92646H8.95405H8.98168H9.00936H9.03709H9.06487H9.0927H9.12057H9.14849H9.17646H9.20447H9.23252H9.26062H9.28877H9.31696H9.3452H9.37347H9.40179H9.43016H9.45856H9.48701H9.5155H9.54403H9.57261H9.60122H9.62987H9.65856H9.68729H9.71607H9.74487H9.77372H9.80261H9.83153H9.86049H9.88949H9.91852H9.94759H9.9767H10.0058H10.035H10.0642H10.0935H10.1227H10.1521H10.1814H10.2108H10.2402H10.2696H10.2991H10.3286H10.3581H10.3877H10.4173H10.4469H10.4766H10.5063H10.536H10.5657H10.5955H10.6253H10.6551H10.685H10.7148H10.7447H10.7747H10.8046H10.8346H10.8646H10.8946H10.9247H10.9547H10.9848H11.0149H11.0451H11.0753H11.1054H11.1356H11.1659H11.1961H11.2264H11.2567H11.287H11.3173H11.3476H11.378H11.4084H11.4388H11.4692H11.4996H11.5301H11.5605H11.591H11.6215H11.652H11.6825H11.713H11.7436H11.7742H11.8047H11.8353H11.8659H11.8965H11.9271H11.9578H11.9884H12.0191H12.0497H12.0804H12.1111H12.1418H12.1725H12.2032H12.2339H12.2646H12.2954H12.3261H12.3568H12.3876H12.4183H12.4491H12.4799H12.5106H12.5414H12.5722H12.6029H12.6337H12.6645H12.6953H12.7261H12.7569H12.7877H12.8184H12.8492H12.88H12.9108H12.9416H12.9724H13.0032H13.034H13.0647H13.0955H13.1263H13.1571H13.1878H13.2186H13.2493H13.2801H13.3108H13.3416H13.3723H13.4031H13.4338H13.4645H13.4952H13.5259H13.5566H13.5873H13.6179H13.6486H13.6793H13.7099H13.7405H13.7711H13.8018H13.8324H13.8629H13.8935H13.9241H13.9546H13.9851H14.0157H14.0462H14.0767H14.1071H14.1376H14.168H14.1985H14.2289H14.2593H14.2896H14.32H14.3503H14.3807H14.411H14.4412H14.4715H14.5018H14.532H14.5622H14.5924H14.6225H14.6527H14.6828H14.7129H14.7429H14.773H14.803H14.833H14.863H14.8929H14.9228H14.9527H14.9826H15.0125H15.0423H15.0721H15.1018H15.1316H15.1613H15.191H15.2206H15.2502H15.2798H15.3094H15.3389H15.3684H15.3979H15.4161ZM15.4698 17.0467C15.6815 16.6353 15.9461 16.2557 16.2545 15.9167H12.2501C11.8359 15.9167 11.5001 15.5809 11.5001 15.1667C11.5001 14.7525 11.8359 14.4167 12.2501 14.4167H16.9167C17.2193 14.4167 17.4801 14.5959 17.5986 14.854C18.3483 14.4396 19.2105 14.2037 20.1277 14.2037C20.1686 14.2037 20.2094 14.2042 20.2501 14.2051V6.08337C20.2501 5.39302 19.6904 4.83337 19.0001 4.83337H6.37508C5.68472 4.83337 5.12508 5.39302 5.12508 6.08337V17.0814C6.88186 17.0777 8.94132 17.0702 10.9493 17.0627L11.4173 17.0609C12.8529 17.0555 14.2479 17.0503 15.4698 17.0467ZM12.2501 8.58337C11.8359 8.58337 11.5001 8.91916 11.5001 9.33337C11.5001 9.74759 11.8359 10.0834 12.2501 10.0834H16.9167C17.331 10.0834 17.6667 9.74759 17.6667 9.33337C17.6667 8.91916 17.331 8.58337 16.9167 8.58337H12.2501ZM11.5001 12.8334C11.5001 12.4192 11.8359 12.0834 12.2501 12.0834H18.6667C19.081 12.0834 19.4167 12.4192 19.4167 12.8334C19.4167 13.2476 19.081 13.5834 18.6667 13.5834H12.2501C11.8359 13.5834 11.5001 13.2476 11.5001 12.8334ZM12.2501 6.25004C11.8359 6.25004 11.5001 6.58583 11.5001 7.00004C11.5001 7.41425 11.8359 7.75004 12.2501 7.75004H18.6667C19.081 7.75004 19.4167 7.41425 19.4167 7.00004C19.4167 6.58583 19.081 6.25004 18.6667 6.25004H12.2501ZM5.66674 13.75C5.66674 12.5074 6.6741 11.5 7.91674 11.5H8.91674C9.88324 11.5 10.6667 12.2835 10.6667 13.25V15.75C10.6667 16.1643 10.331 16.5 9.91674 16.5C9.50252 16.5 9.16674 16.1643 9.16674 15.75V13.25C9.16674 13.112 9.05481 13 8.91674 13H7.91674C7.50252 13 7.16674 13.3358 7.16674 13.75V14.75C7.16674 14.8881 7.27867 15 7.41674 15H7.96327C8.37748 15 8.71327 15.3358 8.71327 15.75C8.71327 16.1643 8.37748 16.5 7.96327 16.5H7.41674C6.45024 16.5 5.66674 15.7165 5.66674 14.75V13.75ZM7.91674 5.66671C6.6741 5.66671 5.66674 6.67407 5.66674 7.91671V8.91671C5.66674 9.88321 6.45024 10.6667 7.41674 10.6667H7.96327C8.37748 10.6667 8.71327 10.3309 8.71327 9.91671C8.71327 9.50249 8.37748 9.16671 7.96327 9.16671H7.41674C7.27867 9.16671 7.16674 9.05478 7.16674 8.91671V7.91671C7.16674 7.50249 7.50252 7.16671 7.91674 7.16671H8.91674C9.05481 7.16671 9.16674 7.27864 9.16674 7.41671V9.91671C9.16674 10.3309 9.50252 10.6667 9.91674 10.6667C10.331 10.6667 10.6667 10.3309 10.6667 9.91671V7.41671C10.6667 6.45021 9.88324 5.66671 8.91674 5.66671H7.91674ZM19.8872 22.2623V21.4733C19.7417 21.4658 19.5753 21.4467 19.388 21.416C19.1445 21.3755 18.907 21.3105 18.6757 21.2212L18.6818 19.9914H19.3149L19.4306 20.5698C19.5361 20.6144 19.6457 20.6489 19.7594 20.6733C19.873 20.6976 19.9826 20.7098 20.0881 20.7098C20.214 20.7098 20.3276 20.6936 20.4291 20.6611C20.5305 20.6286 20.6097 20.5779 20.6665 20.5089C20.7274 20.4399 20.7578 20.3547 20.7578 20.2532C20.7578 20.1355 20.7193 20.0422 20.6421 19.9732C20.5691 19.9001 20.4697 19.8433 20.3438 19.8027C20.2221 19.758 20.0861 19.7175 19.9359 19.6809C19.7858 19.6444 19.6356 19.5998 19.4854 19.547C19.3352 19.4942 19.1972 19.4273 19.0714 19.3461C18.9497 19.2608 18.8502 19.1492 18.7731 19.0112C18.7 18.8692 18.6635 18.6926 18.6635 18.4816C18.6635 18.1975 18.7325 17.96 18.8705 17.7693C19.0085 17.5785 19.1952 17.4344 19.4306 17.337C19.5728 17.2792 19.725 17.2385 19.8872 17.215V16.4238H20.5874V17.2058C20.6445 17.2127 20.7054 17.2219 20.77 17.2335C20.9283 17.2619 21.0866 17.2964 21.2449 17.337C21.4032 17.3776 21.5351 17.4182 21.6406 17.4588L21.5675 18.579H20.9466L20.8187 18.0371C20.7416 18.0087 20.6604 17.9884 20.5752 17.9763C20.4899 17.9641 20.4047 17.958 20.3195 17.958C20.2018 17.958 20.0942 17.9722 19.9968 18.0006C19.9035 18.025 19.8284 18.0676 19.7715 18.1285C19.7147 18.1853 19.6863 18.2624 19.6863 18.3598C19.6863 18.4694 19.7228 18.5567 19.7959 18.6216C19.873 18.6865 19.9745 18.7413 20.1003 18.786C20.2261 18.8306 20.3641 18.8732 20.5143 18.9138C20.6685 18.9544 20.8187 19.0011 20.9648 19.0539C21.115 19.1066 21.253 19.1776 21.3788 19.2669C21.5046 19.3522 21.6061 19.4638 21.6832 19.6018C21.7603 19.7398 21.7989 19.9163 21.7989 20.1314C21.7989 20.4115 21.7299 20.6469 21.5919 20.8377C21.4539 21.0284 21.2672 21.1766 21.0318 21.2821C20.8944 21.3448 20.7462 21.3924 20.5874 21.425V22.2623H19.8872Z" fill="#252323"/>
</g>
<defs>
<clipPath id="clip0_662_7276">
<rect width="28" height="28" fill="white"/>
</clipPath>
</defs>
</svg>
