<svg width="44" height="44" viewBox="0 0 44 44" fill="none" xmlns="http://www.w3.org/2000/svg">
<g clip-path="url(#clip0_190_785)">
<path d="M38.2708 29.1667V13C38.2708 11.8954 37.3753 11 36.2708 11H10.0208C8.91618 11 8.02075 11.8954 8.02075 13V29.1667C8.02075 30.2712 8.91618 31.1667 10.0208 31.1667H36.2708C37.3753 31.1667 38.2708 30.2712 38.2708 29.1667Z" fill="#E05149"/>
<path fill-rule="evenodd" clip-rule="evenodd" d="M8.77075 12C8.77075 11.8619 8.88268 11.75 9.02075 11.75H15.5833C15.9975 11.75 16.3333 11.4142 16.3333 11C16.3333 10.5858 15.9975 10.25 15.5833 10.25H9.02075C8.05426 10.25 7.27075 11.0335 7.27075 12V30.1667C7.27075 31.1332 8.05425 31.9167 9.02075 31.9167H23.1458H30.7083H34.4895H37.2708C38.2373 31.9167 39.0208 31.1332 39.0208 30.1667V12C39.0208 11.0335 38.2373 10.25 37.2708 10.25H23.1458C22.7315 10.25 22.3958 10.5858 22.3958 11C22.3958 11.4142 22.7315 11.75 23.1458 11.75H37.2708C37.4088 11.75 37.5208 11.8619 37.5208 12V13.75H8.77075V12ZM8.77075 30.1667V19.25H37.5208V30.1667C37.5208 30.3047 37.4088 30.4167 37.2708 30.4167H34.4895H30.7083H23.1458H9.02075C8.88268 30.4167 8.77075 30.3047 8.77075 30.1667ZM5.33325 12.8333C5.33325 12.4191 4.99747 12.0833 4.58325 12.0833C4.16904 12.0833 3.83325 12.4191 3.83325 12.8333V18.7458C3.83325 19.16 4.16904 19.4958 4.58325 19.4958C4.99747 19.4958 5.33325 19.16 5.33325 18.7458V12.8333ZM5.33325 24.1083C5.33325 23.6941 4.99747 23.3583 4.58325 23.3583C4.16904 23.3583 3.83325 23.6941 3.83325 24.1083V32.8333C3.83325 34.3521 5.06447 35.5833 6.58325 35.5833H21.3093C21.7235 35.5833 22.0593 35.2475 22.0593 34.8333C22.0593 34.4191 21.7235 34.0833 21.3093 34.0833H6.58325C5.8929 34.0833 5.33325 33.5237 5.33325 32.8333V24.1083ZM29.6723 34.0833C29.2581 34.0833 28.9223 34.4191 28.9223 34.8333C28.9223 35.2475 29.2581 35.5833 29.6723 35.5833H36.6666C37.0808 35.5833 37.4166 35.2475 37.4166 34.8333C37.4166 34.4191 37.0808 34.0833 36.6666 34.0833H29.6723ZM10.5416 24.2292C10.1274 24.2292 9.79159 24.565 9.79159 24.9792C9.79159 25.3934 10.1274 25.7292 10.5416 25.7292H25.6666C26.0808 25.7292 26.4166 25.3934 26.4166 24.9792C26.4166 24.565 26.0808 24.2292 25.6666 24.2292H10.5416ZM10.5416 27.4375C10.1274 27.4375 9.79159 27.7733 9.79159 28.1875C9.79159 28.6017 10.1274 28.9375 10.5416 28.9375H18.7916C19.2058 28.9375 19.5416 28.6017 19.5416 28.1875C19.5416 27.7733 19.2058 27.4375 18.7916 27.4375H10.5416ZM21.0833 27.4375C20.669 27.4375 20.3333 27.7733 20.3333 28.1875C20.3333 28.6017 20.669 28.9375 21.0833 28.9375H25.6666C26.0808 28.9375 26.4166 28.6017 26.4166 28.1875C26.4166 27.7733 26.0808 27.4375 25.6666 27.4375H21.0833Z" fill="#252323"/>
</g>
<defs>
<clipPath id="clip0_190_785">
<rect width="44" height="44" fill="white"/>
</clipPath>
</defs>
</svg>
