<svg width="18" height="18" viewBox="0 0 18 18" fill="none" xmlns="http://www.w3.org/2000/svg">
<g clip-path="url(#clip0_662_7321)">
<path fill-rule="evenodd" clip-rule="evenodd" d="M13.5 2.625H2.8125V8.53125V11.4375H2.0625L2.25 13.875L2.8125 14.4375H10.775C10.3145 13.9265 10.0342 13.2499 10.0342 12.5078C10.0342 10.9154 11.325 9.62455 12.9174 9.62455C13.117 9.62455 13.3118 9.64483 13.5 9.68344V2.625ZM6.375 4.875V5.8125C6.375 6.12316 6.12316 6.375 5.8125 6.375H4.96875H4.875C4.46079 6.375 4.125 6.03921 4.125 5.625C4.125 4.79657 4.79657 4.125 5.625 4.125C6.03921 4.125 6.375 4.46079 6.375 4.875ZM6.375 8.625V9.5625C6.375 9.87316 6.12316 10.125 5.8125 10.125H4.96875H4.875C4.46079 10.125 4.125 9.78921 4.125 9.375C4.125 8.54657 4.79657 7.875 5.625 7.875C6.03921 7.875 6.375 8.21079 6.375 8.625Z" fill="#E05149"/>
<path fill-rule="evenodd" clip-rule="evenodd" d="M2.18748 3.625C2.18748 2.72754 2.91501 2 3.81248 2H12.5C13.3974 2 14.125 2.72754 14.125 3.625V9.19362C14.8409 9.45078 15.4488 9.93395 15.8623 10.5559C16.0535 10.8434 15.9754 11.2313 15.6879 11.4224C15.4005 11.6136 15.0125 11.5355 14.8214 11.248C14.4158 10.638 13.724 10.2381 12.9392 10.2381C11.6919 10.2381 10.6809 11.2491 10.6809 12.4963C10.6809 13.7435 11.6919 14.7546 12.9392 14.7546C14.1864 14.7546 15.1974 13.7435 15.1974 12.4963C15.1974 12.1512 15.4773 11.8713 15.8224 11.8713C16.1676 11.8713 16.4474 12.1512 16.4474 12.4963C16.4474 14.4339 14.8767 16.0046 12.9392 16.0046C12.0197 16.0046 11.1829 15.6509 10.5573 15.0721H10.5471H10.529H10.5109H10.4927H10.4746H10.4564H10.4381H10.4199H10.4016H10.3833H10.3649H10.3466H10.3282H10.3098H10.2913H10.2729H10.2544H10.2359H10.2173H10.1987H10.1802H10.1615H10.1429H10.1242H10.1056H10.0869H10.0681H10.0494H10.0306H10.0118H9.99298H9.97414H9.95528H9.9364H9.91749H9.89857H9.87962H9.86066H9.84168H9.82267H9.80365H9.78461H9.76554H9.74647H9.72737H9.70825H9.68912H9.66996H9.65079H9.63161H9.61241H9.59319H9.57395H9.5547H9.53543H9.51614H9.49684H9.47753H9.4582H9.43885H9.41949H9.40012H9.38073H9.36133H9.34191H9.32248H9.30304H9.28358H9.26412H9.24464H9.22515H9.20564H9.18613H9.1666H9.14706H9.12751H9.10795H9.08838H9.0688H9.04921H9.02961H9.01H8.99038H8.97075H8.95111H8.93147H8.91182H8.89215H8.87248H8.85281H8.83312H8.81343H8.79373H8.77403H8.75431H8.7346H8.71487H8.69514H8.67541H8.65567H8.63592H8.61617H8.59642H8.57666H8.5569H8.53713H8.51736H8.49759H8.47782H8.45804H8.43826H8.41847H8.39869H8.3789H8.35911H8.33932H8.31953H8.29974H8.27995H8.26015H8.24036H8.22057H8.20077H8.18098H8.16119H8.1414H8.12161H8.10182H8.08204H8.06225H8.04247H8.02269H8.00292H7.98314H7.96338H7.94361H7.92385H7.90409H7.88433H7.86458H7.84484H7.8251H7.80536H7.78563H7.76591H7.74619H7.72647H7.70677H7.68707H7.66738H7.64769H7.62801H7.60834H7.58868H7.56903H7.54938H7.52974H7.51011H7.49049H7.47088H7.45128H7.43169H7.4121H7.39253H7.37297H7.35342H7.33388H7.31435H7.29483H7.27533H7.25583H7.23635H7.21688H7.19743H7.17798H7.15855H7.13914H7.11973H7.10034H7.08097H7.0616H7.04226H7.02292H7.00361H6.98431H6.96502H6.94575H6.92649H6.90725H6.88803H6.86882H6.84964H6.83047H6.81131H6.79217H6.77306H6.75395H6.73487H6.71581H6.69676H6.67774H6.65873H6.63975H6.62078H6.60183H6.58291H6.564H6.54511H6.52625H6.50741H6.48858H6.46978H6.45101H6.43225H6.41352H6.39481H6.37612H6.35746H6.33881H6.3202H6.3016H6.28303H6.26449H6.24597H6.22747H6.209H6.19056H6.17214H6.15374H6.13538H6.11704H6.09872H6.08043H6.06217H6.04394H6.02573H6.00755H5.9894H5.97128H5.95319H5.93512H5.91708H5.89908H5.8811H5.86315H5.84523H5.82734H5.80949H5.79166H5.77386H5.7561H5.73837H5.72066H5.70299H5.68535H5.66775H5.65018H5.63263H5.61513H5.59765H5.58021H5.5628H5.54543H5.52809H5.51079H5.49352H5.47628H5.45908H5.44192H5.42479H5.4077H5.39064H5.37362H5.35664H5.33969H5.32278H5.30591H5.28907H5.27228H5.25552H5.2388H5.22212H5.20547H5.18887H5.1723H5.15578H5.13929H5.12285H5.10644H5.09008H5.07375H5.05747H5.04123H5.02503H5.00887H4.99275H4.97668H4.96065H4.94466H4.92871H4.9128H4.89694H4.88113H4.86535H4.84962H4.83394H4.8183H4.8027H4.78715H4.77165H4.75619H4.74078H4.72541H4.71009H4.69481H4.67958H4.6644H4.64927H4.63418H4.61914H4.60415H4.58921H4.57431H4.55947H4.54467H4.52992H4.51522H4.50057H4.48598H4.47143H4.45693H4.44248H4.42808H4.41373H4.39944H4.3852H4.371H4.35686H4.34278H4.32874H4.31476H4.30083H4.28695H4.27313H4.25936H4.24565H4.23199H4.21838H4.20483H4.19133H4.17789H4.1645H4.15117H4.13789H4.12468H4.11151H4.09841H4.08536H4.07237H4.05943H4.04655H4.03373H4.02097H4.00827H3.99562H3.98304H3.97051H3.95804H3.94563H3.93328H3.92099H3.90876H3.8966H3.88449H3.87244H3.86046H3.84853H3.83667H3.82487H3.81313H3.80145H3.78984H3.77829H3.7668H3.75537H3.74401H3.73272H3.72148H3.71031H3.69921H3.68817H3.67719H3.66628H3.65544H3.64466H3.63395H3.6233H3.61272C3.10837 15.0721 2.65936 14.9947 2.29402 14.7796C1.90551 14.5508 1.68454 14.2104 1.56662 13.8371C1.45617 13.4874 1.43147 13.0949 1.42663 12.7182C1.42408 12.5204 1.42774 12.2824 1.43147 12.0389L1.43147 12.0389L1.43147 12.0389C1.43445 11.8451 1.43747 11.6478 1.43747 11.4645C1.43747 11.1193 1.7173 10.8395 2.06247 10.8395L2.18748 10.8394V3.625ZM9.69005 13.8221C9.52297 13.4131 9.43088 12.9655 9.43088 12.4963C9.43088 12.3511 9.43972 12.2079 9.45687 12.0672C8.79912 12.0694 8.08153 12.0721 7.34665 12.0748L7.34224 12.0748L7.04294 12.076C5.50997 12.0817 3.92816 12.0875 2.68093 12.089L2.68084 12.0939C2.67722 12.3078 2.67394 12.5011 2.67652 12.7021C2.6811 13.0579 2.70647 13.2956 2.75858 13.4606C2.80323 13.6019 2.85731 13.6606 2.92823 13.7024C3.0223 13.7578 3.21707 13.8221 3.61272 13.8221H3.6233H3.63395H3.64466H3.65544H3.66628H3.67719H3.68817H3.69921H3.71031H3.72148H3.73272H3.74401H3.75537H3.7668H3.77829H3.78984H3.80145H3.81313H3.82487H3.83667H3.84853H3.86046H3.87244H3.88449H3.8966H3.90876H3.92099H3.93328H3.94563H3.95804H3.97051H3.98304H3.99562H4.00827H4.02097H4.03373H4.04655H4.05943H4.07237H4.08536H4.09841H4.11151H4.12468H4.13789H4.15117H4.1645H4.17789H4.19133H4.20483H4.21838H4.23199H4.24565H4.25936H4.27313H4.28695H4.30083H4.31476H4.32874H4.34278H4.35686H4.371H4.3852H4.39944H4.41373H4.42808H4.44248H4.45693H4.47143H4.48598H4.50057H4.51522H4.52992H4.54467H4.55947H4.57431H4.58921H4.60415H4.61914H4.63418H4.64927H4.6644H4.67958H4.69481H4.71009H4.72541H4.74078H4.75619H4.77165H4.78715H4.8027H4.8183H4.83394H4.84962H4.86535H4.88113H4.89694H4.9128H4.92871H4.94466H4.96065H4.97668H4.99275H5.00887H5.02503H5.04123H5.05747H5.07375H5.09008H5.10644H5.12285H5.13929H5.15578H5.1723H5.18887H5.20547H5.22212H5.2388H5.25552H5.27228H5.28907H5.30591H5.32278H5.33969H5.35664H5.37362H5.39064H5.4077H5.42479H5.44192H5.45908H5.47628H5.49352H5.51079H5.52809H5.54543H5.5628H5.58021H5.59765H5.61513H5.63263H5.65018H5.66775H5.68535H5.70299H5.72066H5.73837H5.7561H5.77386H5.79166H5.80949H5.82734H5.84523H5.86315H5.8811H5.89908H5.91708H5.93512H5.95319H5.97128H5.9894H6.00755H6.02573H6.04394H6.06217H6.08043H6.09872H6.11704H6.13538H6.15374H6.17214H6.19056H6.209H6.22747H6.24597H6.26449H6.28303H6.3016H6.3202H6.33881H6.35746H6.37612H6.39481H6.41352H6.43225H6.45101H6.46978H6.48858H6.50741H6.52625H6.54511H6.564H6.58291H6.60183H6.62078H6.63975H6.65873H6.67774H6.69676H6.71581H6.73487H6.75395H6.77306H6.79217H6.81131H6.83047H6.84964H6.86882H6.88803H6.90725H6.92649H6.94575H6.96502H6.98431H7.00361H7.02292H7.04226H7.0616H7.08097H7.10034H7.11973H7.13914H7.15855H7.17798H7.19743H7.21688H7.23635H7.25583H7.27533H7.29483H7.31435H7.33388H7.35342H7.37297H7.39253H7.4121H7.43169H7.45128H7.47088H7.49049H7.51011H7.52974H7.54938H7.56903H7.58868H7.60834H7.62801H7.64769H7.66738H7.68707H7.70677H7.72647H7.74619H7.76591H7.78563H7.80536H7.8251H7.84484H7.86458H7.88433H7.90409H7.92385H7.94361H7.96338H7.98314H8.00292H8.02269H8.04247H8.06225H8.08204H8.10182H8.12161H8.1414H8.16119H8.18098H8.20077H8.22057H8.24036H8.26015H8.27995H8.29974H8.31953H8.33932H8.35911H8.3789H8.39869H8.41847H8.43826H8.45804H8.47782H8.49759H8.51736H8.53713H8.5569H8.57666H8.59642H8.61617H8.63592H8.65567H8.67541H8.69514H8.71487H8.7346H8.75431H8.77403H8.79373H8.81343H8.83312H8.85281H8.87248H8.89215H8.91182H8.93147H8.95111H8.97075H8.99038H9.01H9.02961H9.04921H9.0688H9.08838H9.10795H9.12751H9.14706H9.1666H9.18613H9.20564H9.22515H9.24464H9.26412H9.28358H9.30304H9.32248H9.34191H9.36133H9.38073H9.40012H9.41949H9.43885H9.4582H9.47753H9.49684H9.51614H9.53543H9.5547H9.57395H9.59319H9.61241H9.63161H9.65079H9.66996H9.68912H9.69005ZM9.85875 10.8159C9.94315 10.6616 10.0388 10.5142 10.1447 10.375H7.87497C7.5298 10.375 7.24997 10.0952 7.24997 9.75C7.24997 9.40482 7.5298 9.125 7.87497 9.125H10.875C11.073 9.125 11.2494 9.21706 11.364 9.36071C11.8197 9.13132 12.3323 8.99837 12.875 8.98863V3.625C12.875 3.41789 12.7071 3.25 12.5 3.25H3.81248C3.60537 3.25 3.43748 3.41789 3.43748 3.625V10.8377C4.53453 10.8352 5.80148 10.8306 7.03826 10.826L7.33937 10.8249L7.34037 10.8248H7.34045C8.22945 10.8215 9.09424 10.8183 9.85875 10.8159ZM7.87497 5.375C7.5298 5.375 7.24997 5.65482 7.24997 6C7.24997 6.34518 7.5298 6.625 7.87497 6.625H10.875C11.2202 6.625 11.5 6.34518 11.5 6C11.5 5.65482 11.2202 5.375 10.875 5.375H7.87497ZM7.24997 8.25C7.24997 7.90482 7.5298 7.625 7.87497 7.625H12C12.3452 7.625 12.625 7.90482 12.625 8.25C12.625 8.59518 12.3452 8.875 12 8.875H7.87497C7.5298 8.875 7.24997 8.59518 7.24997 8.25ZM7.87497 3.875C7.5298 3.875 7.24997 4.15482 7.24997 4.5C7.24997 4.84518 7.5298 5.125 7.87497 5.125H12C12.3452 5.125 12.625 4.84518 12.625 4.5C12.625 4.15482 12.3452 3.875 12 3.875H7.87497ZM3.875 8.875C3.875 7.97754 4.60254 7.25 5.5 7.25H5.87497C6.49629 7.25 6.99997 7.75368 6.99997 8.375V10.125C6.99997 10.4702 6.72015 10.75 6.37497 10.75C6.02979 10.75 5.74997 10.4702 5.74997 10.125V8.5H5.5C5.29289 8.5 5.125 8.66789 5.125 8.875V9.50003C5.46749 9.50316 5.74417 9.78177 5.74417 10.125C5.74417 10.4702 5.46435 10.75 5.11917 10.75H5C4.37868 10.75 3.875 10.2463 3.875 9.625V8.875ZM5.6221 3.5C4.72464 3.5 3.9971 4.22754 3.9971 5.125V5.87793C3.9971 6.49763 4.49947 7 5.11917 7C5.46435 7 5.74417 6.72018 5.74417 6.375C5.74417 6.07367 5.53092 5.82214 5.2471 5.7631V5.125C5.2471 4.91789 5.41499 4.75 5.6221 4.75H5.74997V6.375C5.74997 6.72018 6.02979 7 6.37497 7C6.72015 7 6.99997 6.72018 6.99997 6.375V4.625C6.99997 4.00368 6.49629 3.5 5.87497 3.5H5.6221ZM12.7846 14.3114V13.8042C12.691 13.7994 12.5841 13.7872 12.4636 13.7674C12.3071 13.7413 12.1545 13.6996 12.0057 13.6422L12.0096 12.8516H12.4167L12.491 13.2234C12.5589 13.2521 12.6293 13.2743 12.7024 13.2899C12.7754 13.3056 12.8459 13.3134 12.9137 13.3134C12.9946 13.3134 13.0677 13.303 13.1329 13.2821C13.1981 13.2612 13.249 13.2286 13.2855 13.1843C13.3247 13.1399 13.3442 13.0851 13.3442 13.0199C13.3442 12.9442 13.3195 12.8842 13.2699 12.8399C13.2229 12.7929 13.159 12.7564 13.0781 12.7303C12.9998 12.7016 12.9124 12.6755 12.8159 12.652C12.7193 12.6285 12.6228 12.5998 12.5263 12.5659C12.4297 12.532 12.341 12.4889 12.2601 12.4367C12.1818 12.3819 12.1179 12.3102 12.0683 12.2215C12.0214 12.1302 11.9979 12.0167 11.9979 11.881C11.9979 11.6983 12.0423 11.5457 12.131 11.4231C12.2197 11.3004 12.3397 11.2078 12.491 11.1452C12.5824 11.108 12.6803 11.0819 12.7846 11.0668V10.5581H13.2347V11.0609C13.2714 11.0653 13.3105 11.0712 13.3521 11.0787C13.4538 11.0969 13.5556 11.1191 13.6573 11.1452C13.7591 11.1713 13.8439 11.1974 13.9117 11.2235L13.8648 11.9436H13.4656L13.3834 11.5953C13.3338 11.577 13.2816 11.564 13.2268 11.5561C13.172 11.5483 13.1172 11.5444 13.0625 11.5444C12.9868 11.5444 12.9176 11.5535 12.855 11.5718C12.795 11.5874 12.7467 11.6148 12.7102 11.654C12.6737 11.6905 12.6554 11.7401 12.6554 11.8027C12.6554 11.8732 12.6789 11.9293 12.7259 11.971C12.7754 12.0127 12.8407 12.048 12.9216 12.0767C13.0024 12.1054 13.0912 12.1328 13.1877 12.1589C13.2868 12.185 13.3834 12.215 13.4773 12.2489C13.5739 12.2828 13.6626 12.3285 13.7435 12.3859C13.8243 12.4407 13.8896 12.5124 13.9391 12.6011C13.9887 12.6898 14.0135 12.8033 14.0135 12.9416C14.0135 13.1217 13.9691 13.273 13.8804 13.3956C13.7917 13.5182 13.6717 13.6135 13.5204 13.6813C13.432 13.7216 13.3368 13.7522 13.2347 13.7732V14.3114H12.7846Z" fill="#252323"/>
</g>
<defs>
<clipPath id="clip0_662_7321">
<rect width="18" height="18" fill="white"/>
</clipPath>
</defs>
</svg>
