<svg width="23" height="23" viewBox="0 0 23 23" fill="none" xmlns="http://www.w3.org/2000/svg">
<g clip-path="url(#clip0_657_5811)">
<path fill-rule="evenodd" clip-rule="evenodd" d="M5.09683 6.62501C5.09683 6.44552 5.24233 6.30001 5.42183 6.30001H8.37495C8.74774 6.30001 9.04995 5.9978 9.04995 5.62501C9.04995 5.25222 8.74774 4.95001 8.37495 4.95001H5.42183C4.49675 4.95001 3.74683 5.69994 3.74683 6.62501V15.1667C3.74683 16.0918 4.49675 16.8417 5.42183 16.8417H12.3281H16.2812H18.2578H19.2343C20.1594 16.8417 20.9093 16.0918 20.9093 15.1667V6.62501C20.9093 5.69994 20.1594 4.95001 19.2343 4.95001H12.3281C11.9553 4.95001 11.6531 5.25222 11.6531 5.62501C11.6531 5.9978 11.9553 6.30001 12.3281 6.30001H19.2343C19.4138 6.30001 19.5593 6.44552 19.5593 6.62501V7.06251H5.09683V6.62501ZM5.09683 9.93751H19.5593V15.1667C19.5593 15.3462 19.4138 15.4917 19.2343 15.4917H18.2578H16.2812H12.3281H5.42183C5.24233 15.4917 5.09683 15.3462 5.09683 15.1667V9.93751ZM3.29995 6.58335C3.29995 6.21055 2.99774 5.90835 2.62495 5.90835C2.25216 5.90835 1.94995 6.21055 1.94995 6.58335V9.67397C1.94995 10.0468 2.25216 10.349 2.62495 10.349C2.99774 10.349 3.29995 10.0468 3.29995 9.67397V6.58335ZM3.29995 12.4771C3.29995 12.1043 2.99774 11.8021 2.62495 11.8021C2.25216 11.8021 1.94995 12.1043 1.94995 12.4771V16.0833C1.94995 17.5607 3.14759 18.7583 4.62495 18.7583H11.3681C11.7409 18.7583 12.0431 18.4561 12.0431 18.0833C12.0431 17.7106 11.7409 17.4083 11.3681 17.4083H4.62495C3.89317 17.4083 3.29995 16.8151 3.29995 16.0833V12.4771ZM15.7397 17.4083C15.3669 17.4083 15.0647 17.7106 15.0647 18.0833C15.0647 18.4561 15.3669 18.7583 15.7397 18.7583H19.3958C19.7686 18.7583 20.0708 18.4561 20.0708 18.0833C20.0708 17.7106 19.7686 17.4083 19.3958 17.4083H15.7397ZM5.95257 12.0529C5.57978 12.0529 5.27757 12.3551 5.27757 12.7279C5.27757 13.1007 5.57978 13.4029 5.95257 13.4029H13.6458C14.0186 13.4029 14.3208 13.1007 14.3208 12.7279C14.3208 12.3551 14.0186 12.0529 13.6458 12.0529H5.95257ZM5.95257 13.73C5.57978 13.73 5.27757 14.0322 5.27757 14.405C5.27757 14.7778 5.57978 15.08 5.95257 15.08H10.0521C10.4249 15.08 10.7271 14.7778 10.7271 14.405C10.7271 14.0322 10.4249 13.73 10.0521 13.73H5.95257ZM11.676 13.73C11.3032 13.73 11.001 14.0322 11.001 14.405C11.001 14.7778 11.3032 15.08 11.676 15.08H13.6458C14.0186 15.08 14.3208 14.7778 14.3208 14.405C14.3208 14.0322 14.0186 13.73 13.6458 13.73H11.676Z" fill="#252323"/>
</g>
<defs>
<clipPath id="clip0_657_5811">
<rect width="23" height="23" fill="white"/>
</clipPath>
</defs>
</svg>
