<svg width="18" height="18" viewBox="0 0 18 18" fill="none" xmlns="http://www.w3.org/2000/svg">
<g clip-path="url(#clip0_662_7321)">
<path fill-rule="evenodd" clip-rule="evenodd" d="M13.5 2.625H2.8125V8.53125V11.4375H2.0625L2.25 13.875L2.8125 14.4375H10.775C10.3145 13.9265 10.0342 13.2499 10.0342 12.5078C10.0342 10.9154 11.325 9.62455 12.9174 9.62455C13.117 9.62455 13.3118 9.64483 13.5 9.68344V2.625ZM6.375 4.875V5.8125C6.375 6.12316 6.12316 6.375 5.8125 6.375H4.96875H4.875C4.46079 6.375 4.125 6.03921 4.125 5.625C4.125 4.79657 4.79657 4.125 5.625 4.125C6.03921 4.125 6.375 4.46079 6.375 4.875ZM6.375 8.625V9.5625C6.375 9.87316 6.12316 10.125 5.8125 10.125H4.96875H4.875C4.46079 10.125 4.125 9.78921 4.125 9.375C4.125 8.54657 4.79657 7.875 5.625 7.875C6.03921 7.875 6.375 8.21079 6.375 8.625Z" fill="#E05149"/>
<path fill-rule="evenodd" clip-rule="evenodd" d="M14.125 9.19385V3.625C14.125 2.72754 13.3974 2 12.5 2H3.81248C2.91501 2 2.18748 2.72754 2.18748 3.625V10.8398L2.06241 10.8398C1.71726 10.8399 1.43741 11.1197 1.43741 11.4648C1.4374 11.6479 1.43441 11.8448 1.43146 12.0383C1.42775 12.2819 1.42413 12.5199 1.42667 12.7178C1.43151 13.0944 1.45592 13.4873 1.56631 13.8369C1.6842 14.2101 1.90549 14.5506 2.29385 14.7793C2.6592 14.9944 3.10884 15.0723 3.61319 15.0723H10.5576C11.1831 15.6509 12.0196 16.0045 12.9387 16.0047C14.8763 16.0047 16.4475 14.4334 16.4475 12.4959C16.4472 12.1509 16.1675 11.8709 15.8225 11.8709C15.4775 11.8709 15.1977 12.1509 15.1975 12.4959C15.1975 13.7431 14.1859 14.7547 12.9387 14.7547C11.6917 14.7544 10.6809 13.7429 10.6809 12.4959C10.6811 11.249 11.6919 10.2383 12.9387 10.2381C13.7235 10.2381 14.4159 10.6378 14.8215 11.2478C15.0126 11.5352 15.4003 11.6135 15.6877 11.4226C15.975 11.2316 16.0533 10.8438 15.8625 10.5564C15.449 9.93451 14.841 9.45118 14.125 9.19385ZM12.875 8.98863V3.625C12.875 3.41789 12.7071 3.25 12.5 3.25H3.81248C3.60537 3.25 3.43748 3.41789 3.43748 3.625V10.838C4.53446 10.8355 5.80132 10.8308 7.03799 10.8262L7.53053 10.8243H7.53062C8.35248 10.8212 9.14882 10.8182 9.85871 10.816C9.94312 10.6616 10.0388 10.5142 10.1447 10.375H7.87497C7.5298 10.375 7.24997 10.0952 7.24997 9.75C7.24997 9.40482 7.5298 9.125 7.87497 9.125H10.875C11.073 9.125 11.2495 9.21706 11.364 9.36071C11.8197 9.13133 12.3323 8.99837 12.875 8.98863ZM9.45683 12.0675C8.7166 12.0699 7.90056 12.073 7.06941 12.0761L7.04288 12.0762C5.50978 12.0819 3.92784 12.0863 2.68057 12.0879C2.67691 12.3042 2.67406 12.4992 2.67667 12.7021C2.68124 13.0579 2.70659 13.296 2.7587 13.4609C2.80332 13.602 2.85777 13.6604 2.92862 13.7021C3.02277 13.7575 3.2178 13.8223 3.61319 13.8223H9.69026C9.52305 13.413 9.43088 12.9652 9.43088 12.4959C9.4309 12.3509 9.43972 12.2079 9.45683 12.0675ZM11.5 6C11.5 5.65482 11.2202 5.375 10.875 5.375H7.87497C7.5298 5.375 7.24997 5.65482 7.24997 6C7.24997 6.34518 7.5298 6.625 7.87497 6.625H10.875C11.2202 6.625 11.5 6.34518 11.5 6ZM12 7.625C12.3452 7.625 12.625 7.90482 12.625 8.25C12.625 8.59518 12.3452 8.875 12 8.875H7.87497C7.5298 8.875 7.24997 8.59518 7.24997 8.25C7.24997 7.90482 7.5298 7.625 7.87497 7.625H12ZM12.625 4.5C12.625 4.15482 12.3452 3.875 12 3.875H7.87497C7.5298 3.875 7.24997 4.15482 7.24997 4.5C7.24997 4.84518 7.5298 5.125 7.87497 5.125H12C12.3452 5.125 12.625 4.84518 12.625 4.5ZM3.875 8.875C3.875 7.97754 4.60254 7.25 5.5 7.25H5.875C6.49631 7.25002 7 7.75369 7 8.375V10.125C7 10.4702 6.72017 10.75 6.375 10.75C6.02982 10.75 5.75 10.4702 5.75 10.125V8.5H5.5C5.29289 8.5 5.125 8.66789 5.125 8.875V9.5C5.46749 9.50313 5.74414 9.78177 5.74414 10.125C5.74414 10.4702 5.46432 10.75 5.11914 10.75H5C4.37868 10.75 3.875 10.2463 3.875 9.625V8.875ZM5.62207 3.5C4.72462 3.50002 3.99707 4.22755 3.99707 5.125V5.87793C3.99707 6.49762 4.49945 6.99998 5.11914 7C5.46432 7 5.74414 6.72018 5.74414 6.375C5.74414 6.07363 5.53095 5.82169 5.24707 5.7627V5.125C5.24707 4.9179 5.41498 4.75002 5.62207 4.75H5.75V6.375C5.75 6.72018 6.02982 7 6.375 7C6.72017 6.99998 7 6.72017 7 6.375V4.625C7 4.00369 6.49631 3.50002 5.875 3.5H5.62207ZM12.7846 14.3114V13.8042C12.691 13.7994 12.5841 13.7872 12.4636 13.7674C12.3071 13.7413 12.1545 13.6996 12.0057 13.6422L12.0096 12.8516H12.4167L12.491 13.2234C12.5589 13.2521 12.6293 13.2743 12.7024 13.2899C12.7754 13.3056 12.8459 13.3134 12.9137 13.3134C12.9946 13.3134 13.0677 13.303 13.1329 13.2821C13.1981 13.2612 13.249 13.2286 13.2855 13.1843C13.3247 13.1399 13.3442 13.0851 13.3442 13.0199C13.3442 12.9442 13.3195 12.8842 13.2699 12.8399C13.2229 12.7929 13.159 12.7564 13.0781 12.7303C12.9998 12.7016 12.9124 12.6755 12.8159 12.652C12.7193 12.6285 12.6228 12.5998 12.5263 12.5659C12.4297 12.532 12.341 12.4889 12.2601 12.4367C12.1818 12.3819 12.1179 12.3102 12.0683 12.2215C12.0214 12.1302 11.9979 12.0167 11.9979 11.881C11.9979 11.6983 12.0423 11.5457 12.131 11.4231C12.2197 11.3004 12.3397 11.2078 12.491 11.1452C12.5824 11.108 12.6803 11.0819 12.7846 11.0668V10.5581H13.2347V11.0609C13.2714 11.0653 13.3105 11.0712 13.3521 11.0787C13.4538 11.0969 13.5556 11.1191 13.6573 11.1452C13.7591 11.1713 13.8439 11.1974 13.9117 11.2235L13.8648 11.9436H13.4656L13.3834 11.5953C13.3338 11.577 13.2816 11.564 13.2268 11.5561C13.172 11.5483 13.1172 11.5444 13.0625 11.5444C12.9868 11.5444 12.9176 11.5535 12.855 11.5718C12.795 11.5874 12.7467 11.6148 12.7102 11.654C12.6737 11.6905 12.6554 11.7401 12.6554 11.8027C12.6554 11.8732 12.6789 11.9293 12.7259 11.971C12.7754 12.0127 12.8407 12.048 12.9216 12.0767C13.0024 12.1054 13.0912 12.1328 13.1877 12.1589C13.2868 12.185 13.3834 12.215 13.4773 12.2489C13.5739 12.2828 13.6626 12.3285 13.7435 12.3859C13.8243 12.4407 13.8896 12.5124 13.9391 12.6011C13.9887 12.6898 14.0135 12.8033 14.0135 12.9416C14.0135 13.1217 13.9691 13.273 13.8804 13.3956C13.7917 13.5182 13.6717 13.6135 13.5204 13.6813C13.432 13.7216 13.3368 13.7522 13.2347 13.7732V14.3114H12.7846Z" fill="#332A2A"/>
</g>
<defs>
<clipPath id="clip0_662_7321">
<rect width="18" height="18" fill="white"/>
</clipPath>
</defs>
</svg>
