<svg width="23" height="23" viewBox="0 0 23 23" fill="none" xmlns="http://www.w3.org/2000/svg">
<g clip-path="url(#clip0_662_7298)">
<path fill-rule="evenodd" clip-rule="evenodd" d="M17.2501 3.35413H3.59383V10.901V14.6145H2.6355L2.87508 17.7291L3.59383 18.4479H13.7682C13.1797 17.7949 12.8215 16.9304 12.8215 15.9822C12.8215 13.9475 14.471 12.298 16.5057 12.298C16.7607 12.298 17.0097 12.3239 17.2501 12.3732V3.35413ZM8.14591 6.22913V7.42704C8.14591 7.824 7.82412 8.14579 7.42717 8.14579H6.34904H6.22925C5.69998 8.14579 5.27091 7.71673 5.27091 7.18746C5.27091 6.12891 6.12904 5.27079 7.18758 5.27079C7.71685 5.27079 8.14591 5.69985 8.14591 6.22913ZM8.14591 11.0208V12.2187C8.14591 12.6157 7.82412 12.9375 7.42717 12.9375H6.34904H6.22925C5.69998 12.9375 5.27091 12.5084 5.27091 11.9791C5.27091 10.9206 6.12904 10.0625 7.18758 10.0625C7.71685 10.0625 8.14591 10.4915 8.14591 11.0208Z" fill="#E05149"/>
<path fill-rule="evenodd" clip-rule="evenodd" d="M16.6251 11.7081V4.40393C16.6251 4.22444 16.4794 4.07874 16.2999 4.07874H4.64368C4.46419 4.07874 4.31849 4.22444 4.31849 4.40393V14.0217C5.7331 14.0185 7.38076 14.0124 8.99102 14.0063L9.04333 14.0061C10.3734 14.0012 11.6763 13.9964 12.7985 13.9933C12.9566 13.7015 13.1471 13.4297 13.3651 13.1829H10.1124C9.73964 13.1829 9.43762 12.8809 9.43762 12.5081C9.43762 12.1353 9.73964 11.8333 10.1124 11.8333H13.9454C14.2195 11.8333 14.4558 11.9965 14.5618 12.231C15.1757 11.8988 15.8784 11.7095 16.6251 11.7081ZM17.9747 11.9185V4.40393C17.9747 3.47885 17.225 2.72913 16.2999 2.72913H4.64368C3.7186 2.72913 2.96888 3.47886 2.96888 4.40393V14.0236L2.68494 14.0237C2.31242 14.0239 2.01027 14.326 2.01013 14.6985C2.01013 14.9377 2.00627 15.1905 2.0025 15.4375C1.99778 15.7461 1.9932 16.0458 1.99646 16.2991C2.00262 16.7784 2.03394 17.2651 2.16931 17.6936C2.31275 18.1476 2.57939 18.5547 3.04431 18.8284C3.48425 19.0873 4.03286 19.1849 4.66638 19.1849H13.5871C14.373 19.9527 15.4481 20.4259 16.6336 20.4259C19.0408 20.4257 20.9918 18.4747 20.992 16.0675C20.992 15.6947 20.69 15.3917 20.3172 15.3917C19.9445 15.3918 19.6424 15.6948 19.6424 16.0675C19.6422 17.7291 18.2953 19.0761 16.6336 19.0763C14.9718 19.0763 13.6241 17.7292 13.6239 16.0675C13.6239 14.4056 14.9717 13.0577 16.6336 13.0577C17.6795 13.0579 18.6013 13.591 19.1415 14.4034C19.3478 14.7138 19.7666 14.7983 20.077 14.5919C20.3874 14.3855 20.4718 13.9668 20.2655 13.6564C19.7263 12.8454 18.9215 12.2245 17.9747 11.9185ZM12.6478 17.8352C12.4078 17.295 12.2743 16.6968 12.2743 16.0675C12.2743 15.8216 12.2946 15.5804 12.3338 15.3455C11.3259 15.3485 10.1983 15.3524 9.04919 15.3567C7.03976 15.3643 4.96452 15.3696 3.3529 15.3714L3.35184 15.4364L3.35184 15.4364C3.34693 15.7371 3.34253 16.0061 3.34607 16.2815C3.35194 16.7382 3.38505 17.0574 3.4574 17.2864C3.52169 17.49 3.60686 17.5935 3.72888 17.6653C3.87596 17.7519 4.15031 17.8352 4.66638 17.8352H12.6478ZM14.6212 7.71643C14.6212 7.34364 14.3182 7.04163 13.9454 7.04163H10.1124C9.73964 7.04163 9.43762 7.34364 9.43762 7.71643C9.43762 8.08922 9.73964 8.39124 10.1124 8.39124H13.9454C14.3182 8.39124 14.6212 8.08922 14.6212 7.71643ZM15.3829 9.91663C15.7557 9.91663 16.0587 10.2186 16.0587 10.5914C16.0587 10.9642 15.7557 11.2662 15.3829 11.2662H10.1124C9.73964 11.2662 9.43762 10.9642 9.43762 10.5914C9.43762 10.2186 9.73964 9.91663 10.1124 9.91663H15.3829ZM16.0587 5.79976C16.0587 5.42697 15.7557 5.12496 15.3829 5.12496H10.1124C9.73964 5.12496 9.43762 5.42697 9.43762 5.79976C9.43762 6.17256 9.73964 6.47457 10.1124 6.47457H15.3829C15.7557 6.47457 16.0587 6.17256 16.0587 5.79976ZM7.52096 12.9873V11.1123C7.52096 10.9328 7.37525 10.7871 7.19576 10.7871H6.32076C6.14127 10.7871 5.99556 10.9328 5.99556 11.1123V11.9873C5.99556 12.1668 6.14127 12.3125 6.32076 12.3125H6.59127C6.96399 12.3125 7.26607 12.6145 7.26607 12.9873C7.26607 13.36 6.96399 13.662 6.59127 13.6621H6.32076C5.39568 13.6621 4.64596 12.9123 4.64596 11.9873V11.1123C4.64596 10.1872 5.39568 9.43746 6.32076 9.43746H7.19576C8.12084 9.43746 8.87056 10.1872 8.87056 11.1123V12.9873C8.87056 13.3601 8.56855 13.6621 8.19576 13.6621C7.82297 13.6621 7.52096 13.3601 7.52096 12.9873ZM7.52096 6.3206V8.1956C7.52096 8.56839 7.82297 8.8704 8.19576 8.8704C8.56855 8.8704 8.87056 8.56839 8.87056 8.1956V6.3206C8.87056 5.39552 8.12084 4.64579 7.19576 4.64579H6.32076C5.39568 4.64579 4.64596 5.39552 4.64596 6.3206V7.1956C4.64596 8.12067 5.39568 8.8704 6.32076 8.8704H6.59127C6.96399 8.87032 7.26607 8.56834 7.26607 8.1956C7.26607 7.82285 6.96399 7.52087 6.59127 7.52079H6.32076C6.14127 7.52079 5.99556 7.37509 5.99556 7.1956V6.3206C5.99556 6.1411 6.14127 5.9954 6.32076 5.9954H7.19576C7.37525 5.9954 7.52096 6.1411 7.52096 6.3206ZM16.4357 18.3864V17.7383C16.3162 17.7322 16.1795 17.7165 16.0257 17.6913C15.8256 17.6579 15.6306 17.6046 15.4405 17.5313L15.4455 16.5211H15.9656L16.0607 16.9961C16.1473 17.0328 16.2374 17.0612 16.3307 17.0812C16.4241 17.1012 16.5141 17.1112 16.6008 17.1112C16.7041 17.1112 16.7975 17.0978 16.8808 17.0712C16.9642 17.0445 17.0292 17.0028 17.0759 16.9461C17.1259 16.8895 17.1509 16.8194 17.1509 16.7361C17.1509 16.6394 17.1192 16.5627 17.0558 16.5061C16.9958 16.446 16.9142 16.3994 16.8108 16.366C16.7108 16.3294 16.5991 16.296 16.4757 16.266C16.3524 16.236 16.229 16.1993 16.1057 16.156C15.9823 16.1126 15.869 16.0576 15.7656 15.991C15.6656 15.9209 15.5839 15.8293 15.5206 15.7159C15.4605 15.5992 15.4305 15.4542 15.4305 15.2808C15.4305 15.0474 15.4872 14.8524 15.6006 14.6957C15.7139 14.539 15.8673 14.4207 16.0607 14.3406C16.1775 14.2931 16.3025 14.2597 16.4357 14.2404V13.5905H17.0108V14.2329C17.0578 14.2385 17.1078 14.2461 17.1609 14.2556C17.2909 14.279 17.4209 14.3073 17.5509 14.3406C17.681 14.374 17.7893 14.4073 17.876 14.4407L17.816 15.3608H17.3059L17.2009 14.9158C17.1375 14.8924 17.0708 14.8757 17.0008 14.8657C16.9308 14.8557 16.8608 14.8507 16.7908 14.8507C16.6941 14.8507 16.6058 14.8624 16.5257 14.8857C16.4491 14.9058 16.3874 14.9408 16.3407 14.9908C16.294 15.0374 16.2707 15.1008 16.2707 15.1808C16.2707 15.2708 16.3007 15.3425 16.3607 15.3958C16.4241 15.4492 16.5074 15.4942 16.6108 15.5309C16.7141 15.5675 16.8275 15.6026 16.9508 15.6359C17.0775 15.6692 17.2009 15.7076 17.3209 15.7509C17.4443 15.7943 17.5576 15.8526 17.661 15.9259C17.7643 15.996 17.8477 16.0876 17.911 16.201C17.9744 16.3144 18.006 16.4594 18.006 16.6361C18.006 16.8661 17.9494 17.0595 17.836 17.2162C17.7226 17.3729 17.5693 17.4946 17.3759 17.5813C17.263 17.6327 17.1413 17.6719 17.0108 17.6987V18.3864H16.4357Z" fill="#332A2A"/>
</g>
<defs>
<clipPath id="clip0_662_7298">
<rect width="23" height="23" fill="white"/>
</clipPath>
</defs>
</svg>
