<svg width="44" height="44" viewBox="0 0 44 44" fill="none" xmlns="http://www.w3.org/2000/svg">
<g clip-path="url(#clip0_207_1059)">
<path d="M32.9998 23.6696C32.54 23.5753 32.0636 23.527 31.5759 23.527C27.6835 23.527 24.5281 26.6823 24.5281 30.5748C24.5281 32.3891 25.2144 34.0425 26.3406 35.2916H6.87476L5.49976 33.9166L5.04175 27.9586H6.87476V6.41663H32.9998V23.6696ZM12.0837 19.2506C10.9792 19.2506 10.0837 20.146 10.0837 21.2506V23.7506C10.0841 24.3026 10.5317 24.7506 11.0837 24.7506H14.5837C15.1357 24.7504 15.5834 24.3025 15.5837 23.7506V20.2506C15.5837 19.6984 15.1359 19.2508 14.5837 19.2506H12.0837ZM12.0837 10.0836C10.9792 10.0836 10.0837 10.979 10.0837 12.0836V14.5836C10.0839 15.1358 10.5316 15.5836 11.0837 15.5836H14.5837C15.1358 15.5834 15.5836 15.1356 15.5837 14.5836V11.0836C15.5837 10.5314 15.1359 10.0838 14.5837 10.0836H12.0837Z" fill="#E05149"/>
<path fill-rule="evenodd" clip-rule="evenodd" d="M32.2503 22.7729V8.41663C32.2503 7.72627 31.6906 7.16663 31.0003 7.16663H8.87526C8.1849 7.16663 7.62526 7.72627 7.62526 8.41663V27.2711C10.4769 27.2659 13.8874 27.2539 17.2074 27.2415L18.2078 27.2377C20.475 27.2292 22.6687 27.221 24.5766 27.2154C25.0582 26.1977 25.7535 25.3009 26.6047 24.583C26.5976 24.5832 26.5904 24.5833 26.5833 24.5833H19.2502C18.836 24.5833 18.5002 24.2475 18.5002 23.8333C18.5002 23.4191 18.836 23.0833 19.2502 23.0833H26.5833C26.9975 23.0833 27.3333 23.4191 27.3333 23.8333C27.3333 23.9127 27.3209 23.9892 27.298 24.0611C28.5369 23.232 30.0266 22.7486 31.6292 22.7485C31.8382 22.7485 32.0454 22.7568 32.2503 22.7729ZM33.7503 23.0405V8.41663C33.7503 6.89784 32.519 5.66663 31.0003 5.66663H8.87526C7.35647 5.66663 6.12526 6.89784 6.12526 8.41663V27.2732C5.74949 27.2735 5.38758 27.2737 5.04143 27.2737C4.62759 27.274 4.29167 27.6099 4.29143 28.0237C4.29143 28.5051 4.28381 28.9927 4.27646 29.4638C4.26745 30.0407 4.25883 30.5929 4.26506 31.0784C4.27674 31.9861 4.3381 32.8494 4.5717 33.5892C4.81433 34.3573 5.25043 35.0145 6.00237 35.4573C6.72664 35.8838 7.66625 36.0647 8.83147 36.0647H26.1197C27.5305 37.4732 29.4781 38.3442 31.6292 38.3442C35.9359 38.3442 39.4271 34.8531 39.4271 30.5464C39.427 30.1322 39.0912 29.7964 38.6771 29.7964C38.263 29.7966 37.9271 30.1324 37.9271 30.5464C37.9271 34.0247 35.1075 36.8442 31.6292 36.8442C28.151 36.8442 25.3314 34.0246 25.3314 30.5464C25.3314 27.0682 28.151 24.2486 31.6292 24.2485C33.8191 24.2485 35.7487 25.3661 36.8782 27.0649C37.1077 27.4096 37.5735 27.5032 37.9183 27.2739C38.2631 27.0446 38.3566 26.5788 38.1273 26.2339C37.1097 24.7036 35.5643 23.5522 33.7503 23.0405ZM24.9451 34.5647C24.2381 33.3912 23.8314 32.0163 23.8314 30.5464C23.8314 29.9165 23.9061 29.304 24.0471 28.7173C22.079 28.7233 19.8413 28.7317 17.5486 28.7402L17.535 28.7403L17.5343 28.7403L17.2133 28.7415C13.1422 28.7567 8.93199 28.7696 5.78264 28.7718C5.78014 28.9881 5.77718 29.1966 5.77431 29.3989C5.76591 29.9915 5.75826 30.531 5.76506 31.0599C5.77643 31.9424 5.83773 32.6198 6.00139 33.138C6.15609 33.6278 6.39225 33.9469 6.76311 34.1653C7.16186 34.4001 7.79669 34.5647 8.83147 34.5647H24.9451ZM27.3333 14.6666C27.3333 14.2524 26.9975 13.9166 26.5833 13.9166H19.2502C18.836 13.9166 18.5002 14.2524 18.5002 14.6666C18.5002 15.0808 18.836 15.4166 19.2502 15.4166H26.5833C26.9975 15.4166 27.3333 15.0808 27.3333 14.6666ZM29.3333 19.4166C29.7475 19.4166 30.0833 19.7524 30.0833 20.1666C30.0833 20.5808 29.7475 20.9166 29.3333 20.9166H19.2502C18.836 20.9166 18.5002 20.5808 18.5002 20.1666C18.5002 19.7524 18.836 19.4166 19.2502 19.4166H29.3333ZM30.0833 11C30.0833 10.5857 29.7475 10.25 29.3333 10.25H19.2502C18.836 10.25 18.5002 10.5857 18.5002 11C18.5002 11.4142 18.836 11.75 19.2502 11.75H29.3333C29.7475 11.75 30.0833 11.4142 30.0833 11ZM14.8336 24.75V20.25C14.8336 20.1119 14.7217 20 14.5836 20H12.0836C11.3932 20 10.8336 20.5596 10.8336 21.25V23.75C10.8336 23.888 10.9455 24 11.0836 24H13.3609C13.7751 24 14.1109 24.3357 14.1109 24.75C14.1109 25.1642 13.7751 25.5 13.3609 25.5H11.0836C10.1171 25.5 9.33358 24.7165 9.33358 23.75V21.25C9.33358 19.7312 10.5648 18.5 12.0836 18.5H14.5836C15.5501 18.5 16.3336 19.2835 16.3336 20.25V24.75C16.3336 25.1642 15.9978 25.5 15.5836 25.5C15.1694 25.5 14.8336 25.1642 14.8336 24.75ZM14.8336 11.0833V15.5833C14.8336 15.9975 15.1694 16.3333 15.5836 16.3333C15.9978 16.3333 16.3336 15.9975 16.3336 15.5833V11.0833C16.3336 10.1168 15.5501 9.33329 14.5836 9.33329H12.0836C10.5648 9.33329 9.33358 10.5645 9.33358 12.0833V14.5833C9.33358 15.5498 10.1171 16.3333 11.0836 16.3333H13.3609C13.7751 16.3333 14.1109 15.9975 14.1109 15.5833C14.1109 15.1691 13.7751 14.8333 13.3609 14.8333H11.0836C10.9455 14.8333 10.8336 14.7214 10.8336 14.5833V12.0833C10.8336 11.3929 11.3932 10.8333 12.0836 10.8333H14.5836C14.7217 10.8333 14.8336 10.9452 14.8336 11.0833ZM31.0598 35.5403V34.1627C30.7963 34.1535 30.4991 34.1197 30.1681 34.061C29.7763 33.9846 29.398 33.8735 29.0332 33.7276L29.0535 31.7483H29.9249L30.0972 32.8004C30.2863 32.8907 30.4822 32.9567 30.6849 32.9984C30.8943 33.0401 31.0969 33.0609 31.2928 33.0609C31.5428 33.0609 31.7657 33.0262 31.9616 32.9567C32.1575 32.8873 32.3163 32.7831 32.4379 32.6442C32.5595 32.4983 32.6203 32.3212 32.6203 32.1129C32.6203 31.8906 32.5561 31.7135 32.4277 31.5816C32.2994 31.4427 32.1271 31.3316 31.911 31.2482C31.7015 31.1649 31.4685 31.0885 31.2118 31.019C30.9551 30.9426 30.6984 30.8593 30.4417 30.769C30.1917 30.6787 29.9587 30.5641 29.7425 30.4252C29.5331 30.2794 29.3642 30.0919 29.2358 29.8627C29.1075 29.6265 29.0433 29.3314 29.0433 28.9772C29.0433 28.5118 29.1514 28.1264 29.3676 27.8208C29.5905 27.5083 29.8911 27.2721 30.2694 27.1124C30.5144 27.0089 30.7779 26.9375 31.0598 26.8982V25.5289H32.0427V26.8792C32.1561 26.8914 32.2777 26.9101 32.4075 26.9353C32.6642 26.977 32.9141 27.0325 33.1573 27.102C33.4073 27.1714 33.6234 27.2444 33.8058 27.3208L33.7045 29.1334H32.8432L32.6507 28.1333C32.502 28.0778 32.3433 28.0361 32.1744 28.0083C32.0123 27.9736 31.8468 27.9562 31.6779 27.9562C31.4617 27.9562 31.2591 27.9875 31.0699 28.05C30.8808 28.1056 30.7288 28.1958 30.6139 28.3209C30.4991 28.4389 30.4417 28.6021 30.4417 28.8105C30.4417 29.0119 30.5058 29.1786 30.6342 29.3105C30.7693 29.4355 30.9416 29.5432 31.151 29.6335C31.3672 29.7168 31.6036 29.7967 31.8603 29.8731C32.117 29.9425 32.3737 30.0259 32.6304 30.1231C32.8871 30.2134 33.1202 30.3349 33.3296 30.4877C33.5457 30.6336 33.718 30.8246 33.8463 31.0607C33.9747 31.2899 34.0389 31.5816 34.0389 31.9358C34.0389 32.4011 33.9274 32.7935 33.7045 33.113C33.4883 33.4255 33.1911 33.6686 32.8128 33.8422C32.5742 33.9537 32.3175 34.0366 32.0427 34.0908V35.5403H31.0598Z" fill="#332A2A"/>
</g>
<defs>
<clipPath id="clip0_207_1059">
<rect width="44" height="44" fill="white"/>
</clipPath>
</defs>
</svg>
