<svg width="44" height="44" viewBox="0 0 44 44" fill="none" xmlns="http://www.w3.org/2000/svg">
<g clip-path="url(#clip0_657_5803)">
<path d="M4.58325 23.3584C4.99736 23.3584 5.33308 23.6943 5.33325 24.1084V32.833C5.33325 33.5234 5.8929 34.083 6.58325 34.083H21.3088C21.7229 34.083 22.0587 34.4189 22.0588 34.833C22.0588 35.2472 21.7231 35.583 21.3088 35.583H6.58325C5.06447 35.583 3.83325 34.3518 3.83325 32.833V24.1084C3.83343 23.6943 4.16915 23.3584 4.58325 23.3584ZM36.6663 34.083C37.0804 34.083 37.4161 34.4189 37.4163 34.833C37.4163 35.2472 37.0805 35.583 36.6663 35.583H29.6721C29.258 35.5829 28.9221 35.2472 28.9221 34.833C28.9223 34.419 29.2581 34.0831 29.6721 34.083H36.6663ZM15.5833 10.25C15.9975 10.25 16.3333 10.5858 16.3333 11C16.3333 11.4142 15.9975 11.75 15.5833 11.75H9.02075C8.88268 11.75 8.77075 11.8619 8.77075 12V13.75H37.5208V12C37.5208 11.8619 37.4088 11.75 37.2708 11.75H23.1458C22.7315 11.75 22.3958 11.4142 22.3958 11C22.3958 10.5858 22.7315 10.25 23.1458 10.25H37.2708C38.2373 10.25 39.0208 11.0335 39.0208 12V30.167C39.0206 31.1333 38.2371 31.917 37.2708 31.917H9.02075C8.05436 31.917 7.27093 31.1333 7.27075 30.167V12C7.27075 11.0335 8.05425 10.25 9.02075 10.25H15.5833ZM8.77075 30.167C8.77093 30.3049 8.88279 30.417 9.02075 30.417H37.2708C37.4087 30.417 37.5206 30.3049 37.5208 30.167V19.25H8.77075V30.167ZM18.7913 27.4375C19.2054 27.4375 19.5411 27.7734 19.5413 28.1875C19.5411 28.6016 19.2054 28.9375 18.7913 28.9375H10.5413C10.1273 28.9373 9.79144 28.6015 9.79126 28.1875C9.79144 27.7735 10.1273 27.4377 10.5413 27.4375H18.7913ZM25.6663 27.4375C26.0804 27.4375 26.4161 27.7734 26.4163 28.1875C26.4161 28.6016 26.0804 28.9375 25.6663 28.9375H21.0833C20.6693 28.9373 20.3334 28.6015 20.3333 28.1875C20.3334 27.7735 20.6693 27.4377 21.0833 27.4375H25.6663ZM25.6663 24.2295C26.0805 24.2295 26.4163 24.5653 26.4163 24.9795C26.4161 25.3936 26.0804 25.7295 25.6663 25.7295H10.5413C10.1273 25.7293 9.79144 25.3934 9.79126 24.9795C9.79126 24.5654 10.1272 24.2297 10.5413 24.2295H25.6663ZM4.58325 12.083C4.99736 12.083 5.33308 12.4189 5.33325 12.833V18.7451C5.33325 19.1593 4.99747 19.4951 4.58325 19.4951C4.16904 19.4951 3.83325 19.1593 3.83325 18.7451V12.833C3.83343 12.4189 4.16915 12.083 4.58325 12.083Z" fill="#332A2A"/>
</g>
<defs>
<clipPath id="clip0_657_5803">
<rect width="44" height="44" fill="white"/>
</clipPath>
</defs>
</svg>
