<svg width="28" height="28" viewBox="0 0 28 28" fill="none" xmlns="http://www.w3.org/2000/svg">
<g clip-path="url(#clip0_657_5795)">
<path fill-rule="evenodd" clip-rule="evenodd" d="M5.85425 8C5.85425 7.86193 5.96618 7.75 6.10425 7.75H9.91675C10.331 7.75 10.6667 7.41421 10.6667 7C10.6667 6.58579 10.331 6.25 9.91675 6.25H6.10425C5.13775 6.25 4.35425 7.0335 4.35425 8V18.8333C4.35425 19.7998 5.13775 20.5833 6.10425 20.5833H14.7292H19.5417H21.948H23.3542C24.3207 20.5833 25.1042 19.7998 25.1042 18.8333V8C25.1042 7.0335 24.3207 6.25 23.3542 6.25H14.7292C14.315 6.25 13.9792 6.58579 13.9792 7C13.9792 7.41421 14.315 7.75 14.7292 7.75H23.3542C23.4923 7.75 23.6042 7.86193 23.6042 8V8.75H5.85425V8ZM5.85425 18.8333V12.25H23.6042V18.8333C23.6042 18.9714 23.4923 19.0833 23.3542 19.0833H21.948H19.5417H14.7292H6.10425C5.96618 19.0833 5.85425 18.9714 5.85425 18.8333ZM3.66675 8.16667C3.66675 7.75245 3.33096 7.41667 2.91675 7.41667C2.50253 7.41667 2.16675 7.75245 2.16675 8.16667V11.9292C2.16675 12.3434 2.50253 12.6792 2.91675 12.6792C3.33096 12.6792 3.66675 12.3434 3.66675 11.9292V8.16667ZM3.66675 15.3417C3.66675 14.9275 3.33096 14.5917 2.91675 14.5917C2.50253 14.5917 2.16675 14.9275 2.16675 15.3417V20.1667C2.16675 21.6855 3.39797 22.9167 4.91675 22.9167H13.5606C13.9748 22.9167 14.3106 22.5809 14.3106 22.1667C14.3106 21.7525 13.9748 21.4167 13.5606 21.4167H4.91675C4.22639 21.4167 3.66675 20.857 3.66675 20.1667V15.3417ZM18.8825 21.4167C18.4683 21.4167 18.1325 21.7525 18.1325 22.1667C18.1325 22.5809 18.4683 22.9167 18.8825 22.9167H23.3334C23.7476 22.9167 24.0834 22.5809 24.0834 22.1667C24.0834 21.7525 23.7476 21.4167 23.3334 21.4167H18.8825ZM6.96776 14.897C6.55355 14.897 6.21776 15.2328 6.21776 15.647C6.21776 16.0612 6.55355 16.397 6.96776 16.397H16.3335C16.7477 16.397 17.0835 16.0612 17.0835 15.647C17.0835 15.2328 16.7477 14.897 16.3335 14.897H6.96776ZM6.96776 16.9387C6.55355 16.9387 6.21776 17.2744 6.21776 17.6887C6.21776 18.1029 6.55355 18.4387 6.96776 18.4387H11.9585C12.3727 18.4387 12.7085 18.1029 12.7085 17.6887C12.7085 17.2744 12.3727 16.9387 11.9585 16.9387H6.96776ZM13.9354 16.9387C13.5212 16.9387 13.1854 17.2744 13.1854 17.6887C13.1854 18.1029 13.5212 18.4387 13.9354 18.4387H16.3335C16.7477 18.4387 17.0835 18.1029 17.0835 17.6887C17.0835 17.2744 16.7477 16.9387 16.3335 16.9387H13.9354Z" fill="#332A2A"/>
</g>
<defs>
<clipPath id="clip0_657_5795">
<rect width="28" height="28" fill="white"/>
</clipPath>
</defs>
</svg>
