<svg width="23" height="23" viewBox="0 0 23 23" fill="none" xmlns="http://www.w3.org/2000/svg">
<g clip-path="url(#clip0_662_7298)">
<path fill-rule="evenodd" clip-rule="evenodd" d="M17.2501 3.35413H3.59383V10.901V14.6145H2.6355L2.87508 17.7291L3.59383 18.4479H13.7682C13.1797 17.7949 12.8215 16.9304 12.8215 15.9822C12.8215 13.9475 14.471 12.298 16.5057 12.298C16.7607 12.298 17.0097 12.3239 17.2501 12.3732V3.35413ZM8.14591 6.22913V7.42704C8.14591 7.824 7.82412 8.14579 7.42717 8.14579H6.34904H6.22925C5.69998 8.14579 5.27091 7.71673 5.27091 7.18746C5.27091 6.12891 6.12904 5.27079 7.18758 5.27079C7.71685 5.27079 8.14591 5.69985 8.14591 6.22913ZM8.14591 11.0208V12.2187C8.14591 12.6157 7.82412 12.9375 7.42717 12.9375H6.34904H6.22925C5.69998 12.9375 5.27091 12.5084 5.27091 11.9791C5.27091 10.9206 6.12904 10.0625 7.18758 10.0625C7.71685 10.0625 8.14591 10.4915 8.14591 11.0208Z" fill="#E05149"/>
<path fill-rule="evenodd" clip-rule="evenodd" d="M2.91885 4.3542C2.91885 3.42912 3.66878 2.6792 4.59385 2.6792H16.2501C17.1752 2.6792 17.9251 3.42912 17.9251 4.3542V11.8353C18.8501 12.1468 19.6361 12.76 20.1658 13.5566C20.3722 13.867 20.2878 14.286 19.9774 14.4924C19.667 14.6988 19.248 14.6145 19.0416 14.3041C18.5013 13.4915 17.5795 12.9584 16.5335 12.9584C14.8716 12.9584 13.5243 14.3056 13.5243 15.9676C13.5243 17.6295 14.8716 18.9768 16.5335 18.9768C18.1954 18.9768 19.5427 17.6295 19.5427 15.9676C19.5427 15.5948 19.8449 15.2926 20.2177 15.2926C20.5905 15.2926 20.8927 15.5948 20.8927 15.9676C20.8927 18.3751 18.941 20.3268 16.5335 20.3268C15.3737 20.3268 14.3198 19.8739 13.5388 19.1353H13.5231H13.5001H13.477H13.4539H13.4307H13.4075H13.3843H13.361H13.3378H13.3144H13.2911H13.2677H13.2442H13.2208H13.1973H13.1737H13.1502H13.1266H13.1029H13.0793H13.0556H13.0319H13.0081H12.9843H12.9605H12.9367H12.9128H12.8889H12.865H12.841H12.817H12.793H12.7689H12.7449H12.7208H12.6966H12.6725H12.6483H12.6241H12.5999H12.5756H12.5513H12.527H12.5027H12.4783H12.4539H12.4295H12.4051H12.3807H12.3562H12.3317H12.3072H12.2827H12.2581H12.2335H12.2089H12.1843H12.1596H12.135H12.1103H12.0856H12.0609H12.0361H12.0114H11.9866H11.9618H11.937H11.9122H11.8873H11.8625H11.8376H11.8127H11.7878H11.7629H11.738H11.713H11.688H11.6631H11.6381H11.6131H11.588H11.563H11.538H11.5129H11.4878H11.4628H11.4377H11.4126H11.3875H11.3623H11.3372H11.3121H11.2869H11.2617H11.2366H11.2114H11.1862H11.161H11.1358H11.1106H11.0854H11.0602H11.0349H11.0097H10.9844H10.9592H10.9339H10.9087H10.8834H10.8582H10.8329H10.8076H10.7823H10.7571H10.7318H10.7065H10.6812H10.6559H10.6306H10.6054H10.5801H10.5548H10.5295H10.5042H10.4789H10.4536H10.4283H10.403H10.3777H10.3525H10.3272H10.3019H10.2766H10.2514H10.2261H10.2008H10.1756H10.1503H10.125H10.0998H10.0746H10.0493H10.0241H9.99887H9.97365H9.94844H9.92323H9.89804H9.87285H9.84767H9.8225H9.79734H9.77218H9.74704H9.7219H9.69678H9.67166H9.64656H9.62147H9.59638H9.57131H9.54626H9.52121H9.49617H9.47115H9.44614H9.42115H9.39617H9.3712H9.34625H9.32131H9.29639H9.27148H9.24658H9.22171H9.19685H9.172H9.14717H9.12236H9.09757H9.07279H9.04803H9.02329H8.99857H8.97387H8.94919H8.92452H8.89988H8.87525H8.85065H8.82607H8.80151H8.77696H8.75245H8.72795H8.70347H8.67902H8.65459H8.63019H8.6058H8.58144H8.55711H8.5328H8.50851H8.48425H8.46002H8.43581H8.41162H8.38746H8.36333H8.33923H8.31515H8.2911H8.26708H8.24309H8.21912H8.19518H8.17128H8.1474H8.12355H8.09973H8.07594H8.05218H8.02845H8.00476H7.98109H7.95746H7.93386H7.91029H7.88675H7.86325H7.83978H7.81634H7.79294H7.76957H7.74624H7.72294H7.69968H7.67645H7.65326H7.6301H7.60698H7.5839H7.56085H7.53784H7.51487H7.49194H7.46904H7.44618H7.42337H7.40059H7.37785H7.35515H7.33249H7.30987H7.28729H7.26475H7.24226H7.2198H7.19739H7.17502H7.15269H7.1304H7.10816H7.08596H7.06381H7.04169H7.01963H6.9976H6.97563H6.9537H6.93181H6.90997H6.88817H6.86643H6.84472H6.82307H6.80146H6.77991H6.75839H6.73693H6.71552H6.69415H6.67284H6.65157H6.63035H6.60919H6.58807H6.56701H6.54599H6.52503H6.50412H6.48326H6.46246H6.4417H6.421H6.40035H6.37976H6.35922H6.33873H6.3183H6.29793H6.2776H6.25734H6.23713H6.21697H6.19688H6.17683H6.15685H6.13692H6.11705H6.09724H6.07749H6.05779H6.03815H6.01858H5.99906H5.9796H5.9602H5.94086H5.92159H5.90237H5.88321H5.86412H5.84509H5.82612H5.80721H5.78837H5.76958H5.75087H5.73221H5.71362H5.69509H5.67663H5.65824H5.6399H5.62164H5.60344H5.5853H5.56724H5.54924H5.5313H5.51344H5.49564H5.47791H5.46024H5.44265H5.42512H5.40767H5.39028H5.37297H5.35572H5.33854H5.32144H5.3044H5.28744H5.27055H5.25373H5.23699H5.22031H5.20371H5.18718H5.17073H5.15435H5.13804H5.12181H5.10565H5.08957H5.07356H5.05763H5.04177H5.02599H5.01029H4.99467H4.97912H4.96365H4.94825H4.93294H4.9177H4.90254H4.88746H4.87246H4.85754H4.8427H4.82794H4.81326H4.79867H4.78415H4.76971H4.75536H4.74109H4.7269H4.71279H4.69877H4.68483H4.67097H4.6572H4.64351H4.6299H4.61639C3.98269 19.1353 3.4341 19.0376 2.99409 18.7785C2.52908 18.5047 2.26322 18.0976 2.1198 17.6435C1.98443 17.2149 1.95281 16.7287 1.94665 16.2494C1.94339 15.9965 1.94802 15.6972 1.95278 15.389C1.9566 15.1417 1.96052 14.8886 1.96052 14.6491C1.96052 14.2763 2.26272 13.9741 2.63552 13.9741L2.91885 13.974V4.3542ZM12.5702 17.7853C12.316 17.232 12.1743 16.6163 12.1743 15.9676C12.1743 15.7389 12.1919 15.5143 12.2259 15.2952C11.3454 15.298 10.3758 15.3017 9.38168 15.3054L8.99898 15.3068C6.99 15.3143 4.91564 15.3219 3.30417 15.3237L3.3021 15.4484V15.4484C3.29746 15.7246 3.29323 15.9756 3.29653 16.2321C3.30241 16.6888 3.33476 17.0078 3.40711 17.2369C3.47141 17.4404 3.55702 17.5433 3.67904 17.6152C3.82607 17.7017 4.10009 17.7853 4.61639 17.7853H4.6299H4.64351H4.6572H4.67097H4.68483H4.69877H4.71279H4.7269H4.74109H4.75536H4.76971H4.78415H4.79867H4.81326H4.82794H4.8427H4.85754H4.87246H4.88746H4.90254H4.9177H4.93294H4.94825H4.96365H4.97912H4.99467H5.01029H5.02599H5.04177H5.05763H5.07356H5.08957H5.10565H5.12181H5.13804H5.15435H5.17073H5.18718H5.20371H5.22031H5.23699H5.25373H5.27055H5.28744H5.3044H5.32144H5.33854H5.35572H5.37297H5.39028H5.40767H5.42512H5.44265H5.46024H5.47791H5.49564H5.51344H5.5313H5.54924H5.56724H5.5853H5.60344H5.62164H5.6399H5.65824H5.67663H5.69509H5.71362H5.73221H5.75087H5.76958H5.78837H5.80721H5.82612H5.84509H5.86412H5.88321H5.90237H5.92159H5.94086H5.9602H5.9796H5.99906H6.01858H6.03815H6.05779H6.07749H6.09724H6.11705H6.13692H6.15685H6.17683H6.19688H6.21697H6.23713H6.25734H6.2776H6.29793H6.3183H6.33873H6.35922H6.37976H6.40035H6.421H6.4417H6.46246H6.48326H6.50412H6.52503H6.54599H6.56701H6.58807H6.60919H6.63035H6.65157H6.67284H6.69415H6.71552H6.73693H6.75839H6.77991H6.80146H6.82307H6.84472H6.86643H6.88817H6.90997H6.93181H6.9537H6.97563H6.9976H7.01963H7.04169H7.06381H7.08596H7.10816H7.1304H7.15269H7.17502H7.19739H7.2198H7.24226H7.26475H7.28729H7.30987H7.33249H7.35515H7.37785H7.40059H7.42337H7.44618H7.46904H7.49194H7.51487H7.53784H7.56085H7.5839H7.60698H7.6301H7.65326H7.67645H7.69968H7.72294H7.74624H7.76957H7.79294H7.81634H7.83978H7.86325H7.88675H7.91029H7.93386H7.95746H7.98109H8.00476H8.02845H8.05218H8.07594H8.09973H8.12355H8.1474H8.17128H8.19518H8.21912H8.24309H8.26708H8.2911H8.31515H8.33923H8.36333H8.38746H8.41162H8.43581H8.46002H8.48425H8.50851H8.5328H8.55711H8.58144H8.6058H8.63019H8.65459H8.67902H8.70347H8.72795H8.75245H8.77696H8.80151H8.82607H8.85065H8.87525H8.89988H8.92452H8.94919H8.97387H8.99857H9.02329H9.04803H9.07279H9.09757H9.12236H9.14717H9.172H9.19685H9.22171H9.24658H9.27148H9.29639H9.32131H9.34625H9.3712H9.39617H9.42115H9.44614H9.47115H9.49617H9.52121H9.54626H9.57131H9.59638H9.62147H9.64656H9.67166H9.69678H9.7219H9.74704H9.77218H9.79734H9.8225H9.84767H9.87285H9.89804H9.92323H9.94844H9.97365H9.99887H10.0241H10.0493H10.0746H10.0998H10.125H10.1503H10.1756H10.2008H10.2261H10.2514H10.2766H10.3019H10.3272H10.3525H10.3777H10.403H10.4283H10.4536H10.4789H10.5042H10.5295H10.5548H10.5801H10.6054H10.6306H10.6559H10.6812H10.7065H10.7318H10.7571H10.7823H10.8076H10.8329H10.8582H10.8834H10.9087H10.9339H10.9592H10.9844H11.0097H11.0349H11.0602H11.0854H11.1106H11.1358H11.161H11.1862H11.2114H11.2366H11.2617H11.2869H11.3121H11.3372H11.3623H11.3875H11.4126H11.4377H11.4628H11.4878H11.5129H11.538H11.563H11.588H11.6131H11.6381H11.6631H11.688H11.713H11.738H11.7629H11.7878H11.8127H11.8376H11.8625H11.8873H11.9122H11.937H11.9618H11.9866H12.0114H12.0361H12.0609H12.0856H12.1103H12.135H12.1596H12.1843H12.2089H12.2335H12.2581H12.2827H12.3072H12.3317H12.3562H12.3807H12.4051H12.4295H12.4539H12.4783H12.5027H12.527H12.5513H12.5702ZM12.6716 13.9438C12.8244 13.6527 13.0092 13.381 13.2213 13.1334H10.0626C9.68981 13.1334 9.3876 12.8312 9.3876 12.4584C9.3876 12.0856 9.68981 11.7834 10.0626 11.7834H13.8959C14.1458 11.7834 14.364 11.9192 14.4807 12.121C15.0924 11.7939 15.7913 11.6084 16.5335 11.6084C16.5474 11.6084 16.5613 11.6084 16.5751 11.6086V4.3542C16.5751 4.17471 16.4296 4.0292 16.2501 4.0292H4.59385C4.41436 4.0292 4.26885 4.17471 4.26885 4.3542V13.9721C5.69883 13.969 7.36689 13.9629 8.99392 13.9568L9.37843 13.9554C10.5437 13.951 11.6764 13.9468 12.6716 13.9438ZM10.0626 6.9917C9.68981 6.9917 9.3876 7.29391 9.3876 7.6667C9.3876 8.03949 9.68981 8.3417 10.0626 8.3417H13.8959C14.2687 8.3417 14.5709 8.03949 14.5709 7.6667C14.5709 7.29391 14.2687 6.9917 13.8959 6.9917H10.0626ZM9.3876 10.5417C9.3876 10.1689 9.68981 9.8667 10.0626 9.8667H15.3334C15.7062 9.8667 16.0084 10.1689 16.0084 10.5417C16.0084 10.9145 15.7062 11.2167 15.3334 11.2167H10.0626C9.68981 11.2167 9.3876 10.9145 9.3876 10.5417ZM10.0626 5.07503C9.68981 5.07503 9.3876 5.37724 9.3876 5.75003C9.3876 6.12283 9.68981 6.42503 10.0626 6.42503H15.3334C15.7062 6.42503 16.0084 6.12283 16.0084 5.75003C16.0084 5.37724 15.7062 5.07503 15.3334 5.07503H10.0626ZM4.59593 11.0625C4.59593 10.1375 5.34585 9.38753 6.27093 9.38753H7.14593C8.07101 9.38753 8.82093 10.1375 8.82093 11.0625V12.9375C8.82093 13.3103 8.51872 13.6125 8.14593 13.6125C7.77314 13.6125 7.47093 13.3103 7.47093 12.9375V11.0625C7.47093 10.883 7.32542 10.7375 7.14593 10.7375H6.27093C6.09144 10.7375 5.94593 10.883 5.94593 11.0625V11.9375C5.94593 12.117 6.09144 12.2625 6.27093 12.2625H6.5413C6.91409 12.2625 7.2163 12.5647 7.2163 12.9375C7.2163 13.3103 6.91409 13.6125 6.5413 13.6125H6.27093C5.34585 13.6125 4.59593 12.8626 4.59593 11.9375V11.0625ZM6.27093 4.59587C5.34585 4.59587 4.59593 5.34579 4.59593 6.27087V7.14587C4.59593 8.07094 5.34585 8.82087 6.27093 8.82087H6.5413C6.91409 8.82087 7.2163 8.51866 7.2163 8.14587C7.2163 7.77307 6.91409 7.47087 6.5413 7.47087H6.27093C6.09144 7.47087 5.94593 7.32536 5.94593 7.14587V6.27087C5.94593 6.09137 6.09144 5.94587 6.27093 5.94587H7.14593C7.32542 5.94587 7.47093 6.09137 7.47093 6.27087V8.14587C7.47093 8.51866 7.77314 8.82087 8.14593 8.82087C8.51872 8.82087 8.82093 8.51866 8.82093 8.14587V6.27087C8.82093 5.34579 8.07101 4.59587 7.14593 4.59587H6.27093ZM16.336 18.2869V17.6388C16.2165 17.6327 16.0798 17.617 15.9259 17.5917C15.7259 17.5584 15.5308 17.5051 15.3408 17.4317L15.3458 16.4215H15.8659L15.9609 16.8966C16.0476 16.9333 16.1376 16.9616 16.231 16.9816C16.3243 17.0016 16.4143 17.0116 16.501 17.0116C16.6044 17.0116 16.6977 16.9983 16.7811 16.9716C16.8644 16.945 16.9294 16.9033 16.9761 16.8466C17.0261 16.7899 17.0511 16.7199 17.0511 16.6366C17.0511 16.5399 17.0194 16.4632 16.9561 16.4065C16.8961 16.3465 16.8144 16.2998 16.711 16.2665C16.611 16.2298 16.4993 16.1965 16.376 16.1665C16.2526 16.1365 16.1293 16.0998 16.0059 16.0565C15.8826 16.0131 15.7692 15.9581 15.6658 15.8914C15.5658 15.8214 15.4841 15.7297 15.4208 15.6164C15.3608 15.4997 15.3308 15.3547 15.3308 15.1813C15.3308 14.9479 15.3875 14.7529 15.5008 14.5962C15.6142 14.4395 15.7675 14.3211 15.9609 14.2411C16.0777 14.1936 16.2027 14.1602 16.336 14.1409V13.491H16.9111V14.1333C16.958 14.139 17.008 14.1466 17.0611 14.1561C17.1911 14.1794 17.3212 14.2078 17.4512 14.2411C17.5812 14.2744 17.6896 14.3078 17.7762 14.3411L17.7162 15.2613H17.2061L17.1011 14.8162C17.0378 14.7929 16.9711 14.7762 16.9011 14.7662C16.8311 14.7562 16.7611 14.7512 16.691 14.7512C16.5944 14.7512 16.506 14.7629 16.426 14.7862C16.3493 14.8062 16.2876 14.8412 16.241 14.8912C16.1943 14.9379 16.1709 15.0013 16.1709 15.0813C16.1709 15.1713 16.2009 15.243 16.261 15.2963C16.3243 15.3497 16.4077 15.3947 16.511 15.4313C16.6144 15.468 16.7277 15.503 16.8511 15.5364C16.9778 15.5697 17.1011 15.608 17.2211 15.6514C17.3445 15.6947 17.4579 15.7531 17.5612 15.8264C17.6646 15.8964 17.7479 15.9881 17.8113 16.1015C17.8746 16.2148 17.9063 16.3598 17.9063 16.5365C17.9063 16.7666 17.8496 16.96 17.7362 17.1167C17.6229 17.2734 17.4695 17.395 17.2762 17.4817C17.1633 17.5332 17.0416 17.5723 16.9111 17.5991V18.2869H16.336Z" fill="#252323"/>
</g>
<defs>
<clipPath id="clip0_662_7298">
<rect width="23" height="23" fill="white"/>
</clipPath>
</defs>
</svg>
