<svg width="44" height="44" viewBox="0 0 44 44" fill="none" xmlns="http://www.w3.org/2000/svg">
<g clip-path="url(#clip0_207_1059)">
<path fill-rule="evenodd" clip-rule="evenodd" d="M33.0001 6.41663H6.87508V20.8541V27.9583H5.04175L5.50008 33.9166L6.87508 35.2916H26.3391C25.2133 34.0425 24.528 32.3886 24.528 30.5747C24.528 26.6821 27.6835 23.5266 31.576 23.5266C32.0639 23.5266 32.5401 23.5762 33.0001 23.6706V6.41663ZM12.0834 10.0833H14.5834C15.1357 10.0833 15.5834 10.531 15.5834 11.0833V14.5833C15.5834 15.1356 15.1357 15.5833 14.5834 15.5833H14.2084H12.1459H11.0834C10.5311 15.5833 10.0834 15.1356 10.0834 14.5833V12.0833C10.0834 10.9787 10.9788 10.0833 12.0834 10.0833ZM12.0834 19.25H14.5834C15.1357 19.25 15.5834 19.6977 15.5834 20.25V23.75C15.5834 24.3022 15.1357 24.75 14.5834 24.75H14.2084H12.1459H11.0834C10.5311 24.75 10.0834 24.3022 10.0834 23.75V21.25C10.0834 20.1454 10.9788 19.25 12.0834 19.25Z" fill="#E05149"/>
<path fill-rule="evenodd" clip-rule="evenodd" d="M6.12498 8.41662C6.12498 6.89784 7.35619 5.66663 8.87498 5.66663H31C32.5188 5.66663 33.75 6.89784 33.75 8.41663V23.0405C35.564 23.5522 37.1094 24.7036 38.127 26.234C38.3563 26.5789 38.2626 27.0444 37.9177 27.2738C37.5728 27.5031 37.1072 27.4094 36.8779 27.0645C35.7483 25.3656 33.819 24.2485 31.6291 24.2485C28.1508 24.2485 25.3311 27.0683 25.3311 30.5465C25.3311 34.0248 28.1508 36.8446 31.6291 36.8446C35.1074 36.8446 37.9271 34.0248 37.9271 30.5465C37.9271 30.1323 38.2629 29.7965 38.6771 29.7965C39.0913 29.7965 39.4271 30.1323 39.4271 30.5465C39.4271 34.8533 35.9358 38.3446 31.6291 38.3446C29.4781 38.3446 27.5305 37.4736 26.1197 36.0652H26.0894H26.0457H26.0019H25.958H25.9141H25.8701H25.826H25.7818H25.7376H25.6933H25.649H25.6045H25.56H25.5155H25.4709H25.4262H25.3814H25.3366H25.2917H25.2467H25.2017H25.1566H25.1115H25.0663H25.021H24.9757H24.9303H24.8849H24.8394H24.7938H24.7482H24.7025H24.6568H24.611H24.5652H24.5193H24.4733H24.4273H24.3813H24.3352H24.289H24.2428H24.1965H24.1502H24.1039H24.0575H24.011H23.9645H23.918H23.8714H23.8247H23.778H23.7313H23.6845H23.6377H23.5909H23.544H23.497H23.45H23.403H23.356H23.3089H23.2617H23.2145H23.1673H23.1201H23.0728H23.0255H22.9781H22.9307H22.8833H22.8358H22.7883H22.7408H22.6932H22.6457H22.598H22.5504H22.5027H22.455H22.4073H22.3595H22.3117H22.2639H22.2161H22.1682H22.1203H22.0724H22.0245H21.9765H21.9285H21.8805H21.8325H21.7845H21.7364H21.6883H21.6402H21.5921H21.544H21.4958H21.4477H21.3995H21.3513H21.3031H21.2548H21.2066H21.1583H21.1101H21.0618H21.0135H20.9652H20.9169H20.8686H20.8203H20.7719H20.7236H20.6752H20.6269H20.5785H20.5302H20.4818H20.4334H20.385H20.3367H20.2883H20.2399H20.1915H20.1431H20.0948H20.0464H19.998H19.9496H19.9012H19.8529H19.8045H19.7561H19.7078H19.6594H19.6111H19.5627H19.5144H19.4661H19.4177H19.3694H19.3211H19.2728H19.2246H19.1763H19.128H19.0798H19.0316H18.9834H18.9352H18.887H18.8388H18.7906H18.7425H18.6944H18.6463H18.5982H18.5501H18.5021H18.4541H18.4061H18.3581H18.3101H18.2622H18.2143H18.1664H18.1185H18.0707H18.0229H17.9751H17.9273H17.8796H17.8319H17.7842H17.7365H17.6889H17.6413H17.5937H17.5462H17.4987H17.4513H17.4038H17.3564H17.3091H17.2617H17.2144H17.1672H17.12H17.0728H17.0256H16.9785H16.9315H16.8844H16.8374H16.7905H16.7436H16.6967H16.6499H16.6031H16.5564H16.5097H16.4631H16.4165H16.3699H16.3234H16.2769H16.2305H16.1842H16.1378H16.0916H16.0454H15.9992H15.9531H15.907H15.861H15.8151H15.7692H15.7233H15.6775H15.6318H15.5861H15.5405H15.4949H15.4494H15.404H15.3586H15.3132H15.268H15.2227H15.1776H15.1325H15.0875H15.0425H14.9976H14.9528H14.908H14.8633H14.8187H14.7741H14.7296H14.6852H14.6408H14.5965H14.5523H14.5081H14.464H14.42H14.3761H14.3322H14.2884H14.2447H14.201H14.1574H14.1139H14.0705H14.0271H13.9839H13.9407H13.8976H13.8545H13.8116H13.7687H13.7259H13.6832H13.6406H13.598H13.5555H13.5131H13.4708H13.4286H13.3865H13.3445H13.3025H13.2606H13.2189H13.1772H13.1356H13.094H13.0526H13.0113H12.97H12.9289H12.8878H12.8469H12.806H12.7652H12.7245H12.6839H12.6434H12.6031H12.5628H12.5226H12.4824H12.4424H12.4025H12.3627H12.323H12.2834H12.2439H12.2045H12.1652H12.1261H12.087H12.048H12.0091H11.9703H11.9317H11.8931H11.8547H11.8163H11.7781H11.74H11.702H11.6641H11.6263H11.5886H11.551H11.5136H11.4762H11.439H11.4019H11.3649H11.328H11.2913H11.2546H11.2181H11.1817H11.1454H11.1092H11.0732H11.0372H11.0014H10.9657H10.9302H10.8947H10.8594H10.8242H10.7892H10.7542H10.7194H10.6847H10.6501H10.6157H10.5814H10.5472H10.5132H10.4793H10.4455H10.4118H10.3783H10.3449H10.3116H10.2785H10.2455H10.2126H10.1799H10.1473H10.1149H10.0826H10.0504H10.0184H9.98646H9.9547H9.92308H9.89161H9.86027H9.82907H9.79802H9.76711H9.73634H9.70572H9.67524H9.64491H9.61472H9.58468H9.55479H9.52505H9.49545H9.466H9.4367H9.40755H9.37856H9.34971H9.32101H9.29247H9.26408H9.23585H9.20776H9.17984H9.15206H9.12445H9.09699H9.06969H9.04254H9.01555H8.98873H8.96206H8.93555H8.9092H8.88301H8.85699H8.83113C7.66591 36.0652 6.72653 35.884 6.00225 35.4575C5.25019 35.0147 4.81386 34.3578 4.57122 33.5896C4.33752 32.8497 4.27674 31.9867 4.26506 31.0788C4.25882 30.5935 4.26749 30.0418 4.27655 29.4652C4.28396 28.9939 4.29163 28.506 4.29163 28.0242C4.29163 27.61 4.62742 27.2742 5.04163 27.2742C5.38764 27.2742 5.74938 27.274 6.12498 27.2736V8.41662ZM24.9449 34.5652C24.2378 33.3916 23.8311 32.0166 23.8311 30.5465C23.8311 29.9164 23.9058 29.3037 24.0469 28.7169C22.1928 28.7225 20.0994 28.7304 17.9461 28.7385L17.2132 28.7412C13.144 28.7565 8.93589 28.7717 5.78701 28.7739C5.78396 29.0369 5.77981 29.2882 5.7758 29.5309L5.7758 29.531L5.7758 29.5311C5.76687 30.0721 5.75864 30.5703 5.76493 31.0595C5.77629 31.9423 5.83788 32.6196 6.00156 33.1378C6.15629 33.6277 6.39234 33.9465 6.7633 34.1649C7.16205 34.3997 7.79635 34.5652 8.83113 34.5652H8.85699H8.88301H8.9092H8.93555H8.96206H8.98873H9.01555H9.04254H9.06969H9.09699H9.12445H9.15206H9.17984H9.20776H9.23585H9.26408H9.29247H9.32101H9.34971H9.37856H9.40755H9.4367H9.466H9.49545H9.52505H9.55479H9.58468H9.61472H9.64491H9.67524H9.70572H9.73634H9.76711H9.79802H9.82907H9.86027H9.89161H9.92308H9.9547H9.98646H10.0184H10.0504H10.0826H10.1149H10.1473H10.1799H10.2126H10.2455H10.2785H10.3116H10.3449H10.3783H10.4118H10.4455H10.4793H10.5132H10.5472H10.5814H10.6157H10.6501H10.6847H10.7194H10.7542H10.7892H10.8242H10.8594H10.8947H10.9302H10.9657H11.0014H11.0372H11.0732H11.1092H11.1454H11.1817H11.2181H11.2546H11.2913H11.328H11.3649H11.4019H11.439H11.4762H11.5136H11.551H11.5886H11.6263H11.6641H11.702H11.74H11.7781H11.8163H11.8547H11.8931H11.9317H11.9703H12.0091H12.048H12.087H12.1261H12.1652H12.2045H12.2439H12.2834H12.323H12.3627H12.4025H12.4424H12.4824H12.5226H12.5628H12.6031H12.6434H12.6839H12.7245H12.7652H12.806H12.8469H12.8878H12.9289H12.97H13.0113H13.0526H13.094H13.1356H13.1772H13.2189H13.2606H13.3025H13.3445H13.3865H13.4286H13.4708H13.5131H13.5555H13.598H13.6406H13.6832H13.7259H13.7687H13.8116H13.8545H13.8976H13.9407H13.9839H14.0271H14.0705H14.1139H14.1574H14.201H14.2447H14.2884H14.3322H14.3761H14.42H14.464H14.5081H14.5523H14.5965H14.6408H14.6852H14.7296H14.7741H14.8187H14.8633H14.908H14.9528H14.9976H15.0425H15.0875H15.1325H15.1776H15.2227H15.268H15.3132H15.3586H15.404H15.4494H15.4949H15.5405H15.5861H15.6318H15.6775H15.7233H15.7692H15.8151H15.861H15.907H15.9531H15.9992H16.0454H16.0916H16.1378H16.1842H16.2305H16.2769H16.3234H16.3699H16.4165H16.4631H16.5097H16.5564H16.6031H16.6499H16.6967H16.7436H16.7905H16.8374H16.8844H16.9315H16.9785H17.0256H17.0728H17.12H17.1672H17.2144H17.2617H17.3091H17.3564H17.4038H17.4513H17.4987H17.5462H17.5937H17.6413H17.6889H17.7365H17.7842H17.8319H17.8796H17.9273H17.9751H18.0229H18.0707H18.1185H18.1664H18.2143H18.2622H18.3101H18.3581H18.4061H18.4541H18.5021H18.5501H18.5982H18.6463H18.6944H18.7425H18.7906H18.8388H18.887H18.9352H18.9834H19.0316H19.0798H19.128H19.1763H19.2246H19.2728H19.3211H19.3694H19.4177H19.4661H19.5144H19.5627H19.6111H19.6594H19.7078H19.7561H19.8045H19.8529H19.9012H19.9496H19.998H20.0464H20.0948H20.1431H20.1915H20.2399H20.2883H20.3367H20.385H20.4334H20.4818H20.5302H20.5785H20.6269H20.6752H20.7236H20.7719H20.8203H20.8686H20.9169H20.9652H21.0135H21.0618H21.1101H21.1583H21.2066H21.2548H21.3031H21.3513H21.3995H21.4477H21.4958H21.544H21.5921H21.6402H21.6883H21.7364H21.7845H21.8325H21.8805H21.9285H21.9765H22.0245H22.0724H22.1203H22.1682H22.2161H22.2639H22.3117H22.3595H22.4073H22.455H22.5027H22.5504H22.598H22.6457H22.6932H22.7408H22.7883H22.8358H22.8833H22.9307H22.9781H23.0255H23.0728H23.1201H23.1673H23.2145H23.2617H23.3089H23.356H23.403H23.45H23.497H23.544H23.5909H23.6377H23.6845H23.7313H23.778H23.8247H23.8714H23.918H23.9645H24.011H24.0575H24.1039H24.1502H24.1965H24.2428H24.289H24.3352H24.3813H24.4273H24.4733H24.5193H24.5652H24.611H24.6568H24.7025H24.7482H24.7938H24.8394H24.8849H24.9303H24.9449ZM24.5764 27.2153C25.0579 26.1976 25.7532 25.3009 26.6044 24.583C26.5974 24.5832 26.5903 24.5833 26.5833 24.5833H19.25C18.8358 24.5833 18.5 24.2475 18.5 23.8333C18.5 23.4191 18.8358 23.0833 19.25 23.0833H26.5833C26.9975 23.0833 27.3333 23.4191 27.3333 23.8333C27.3333 23.9126 27.321 23.989 27.2982 24.0608C28.537 23.2319 30.0266 22.7485 31.6291 22.7485C31.8381 22.7485 32.0451 22.7568 32.25 22.7729V8.41663C32.25 7.72627 31.6903 7.16663 31 7.16663H8.87498C8.18462 7.16663 7.62498 7.72627 7.62498 8.41662V27.2714C10.4767 27.2661 13.8872 27.2537 17.2076 27.2412L17.9424 27.2385C20.3035 27.2296 22.5942 27.221 24.5764 27.2153ZM19.25 13.9166C18.8358 13.9166 18.5 14.2524 18.5 14.6666C18.5 15.0808 18.8358 15.4166 19.25 15.4166H26.5833C26.9975 15.4166 27.3333 15.0808 27.3333 14.6666C27.3333 14.2524 26.9975 13.9166 26.5833 13.9166H19.25ZM18.5 20.1666C18.5 19.7524 18.8358 19.4166 19.25 19.4166H29.3333C29.7475 19.4166 30.0833 19.7524 30.0833 20.1666C30.0833 20.5808 29.7475 20.9166 29.3333 20.9166H19.25C18.8358 20.9166 18.5 20.5808 18.5 20.1666ZM19.25 10.25C18.8358 10.25 18.5 10.5857 18.5 11C18.5 11.4142 18.8358 11.75 19.25 11.75H29.3333C29.7475 11.75 30.0833 11.4142 30.0833 11C30.0833 10.5857 29.7475 10.25 29.3333 10.25H19.25ZM9.3333 21.25C9.3333 19.7312 10.5645 18.5 12.0833 18.5H14.5833C15.5498 18.5 16.3333 19.2835 16.3333 20.25V24.75C16.3333 25.1642 15.9975 25.5 15.5833 25.5C15.1691 25.5 14.8333 25.1642 14.8333 24.75V20.25C14.8333 20.1119 14.7214 20 14.5833 20H12.0833C11.3929 20 10.8333 20.5596 10.8333 21.25V23.75C10.8333 23.888 10.9452 24 11.0833 24H13.3609C13.7752 24 14.1109 24.3357 14.1109 24.75C14.1109 25.1642 13.7752 25.5 13.3609 25.5H11.0833C10.1168 25.5 9.3333 24.7165 9.3333 23.75V21.25ZM12.0833 9.33329C10.5645 9.33329 9.3333 10.5645 9.3333 12.0833V14.5833C9.3333 15.5498 10.1168 16.3333 11.0833 16.3333H13.3609C13.7752 16.3333 14.1109 15.9975 14.1109 15.5833C14.1109 15.1691 13.7752 14.8333 13.3609 14.8333H11.0833C10.9452 14.8333 10.8333 14.7214 10.8333 14.5833V12.0833C10.8333 11.3929 11.3929 10.8333 12.0833 10.8333H14.5833C14.7214 10.8333 14.8333 10.9452 14.8333 11.0833V15.5833C14.8333 15.9975 15.1691 16.3333 15.5833 16.3333C15.9975 16.3333 16.3333 15.9975 16.3333 15.5833V11.0833C16.3333 10.1168 15.5498 9.33329 14.5833 9.33329H12.0833ZM31.0595 35.5403V34.1627C30.796 34.1535 30.4988 34.1197 30.1678 34.061C29.776 33.9846 29.3977 33.8735 29.0329 33.7276L29.0532 31.7483H29.9246L30.0969 32.8004C30.286 32.8907 30.4819 32.9567 30.6846 32.9984C30.894 33.0401 31.0967 33.0609 31.2926 33.0609C31.5425 33.0609 31.7654 33.0262 31.9613 32.9567C32.1572 32.8873 32.316 32.7831 32.4376 32.6442C32.5592 32.4983 32.62 32.3212 32.62 32.1129C32.62 31.8906 32.5558 31.7135 32.4275 31.5816C32.2991 31.4427 32.1268 31.3316 31.9107 31.2482C31.7013 31.1649 31.4682 31.0885 31.2115 31.019C30.9548 30.9426 30.6981 30.8593 30.4414 30.769C30.1914 30.6787 29.9584 30.5641 29.7422 30.4252C29.5328 30.2794 29.3639 30.0919 29.2356 29.8627C29.1072 29.6265 29.043 29.3314 29.043 28.9772C29.043 28.5118 29.1511 28.1264 29.3673 27.8208C29.5902 27.5083 29.8908 27.2721 30.2691 27.1124C30.5142 27.0089 30.7776 26.9375 31.0595 26.8982V25.5289H32.0424V26.8792C32.1558 26.8914 32.2774 26.9101 32.4072 26.9353C32.6639 26.977 32.9138 27.0325 33.157 27.102C33.407 27.1714 33.6231 27.2444 33.8055 27.3208L33.7042 29.1334H32.8429L32.6504 28.1333C32.5018 28.0778 32.343 28.0361 32.1741 28.0083C32.012 27.9736 31.8465 27.9562 31.6776 27.9562C31.4614 27.9562 31.2588 27.9875 31.0696 28.05C30.8805 28.1056 30.7285 28.1958 30.6137 28.3209C30.4988 28.4389 30.4414 28.6021 30.4414 28.8105C30.4414 29.0119 30.5056 29.1786 30.6339 29.3105C30.769 29.4355 30.9413 29.5432 31.1507 29.6335C31.3669 29.7168 31.6033 29.7967 31.86 29.8731C32.1167 29.9425 32.3734 30.0259 32.6301 30.1231C32.8868 30.2134 33.1199 30.3349 33.3293 30.4877C33.5455 30.6336 33.7177 30.8246 33.8461 31.0607C33.9744 31.2899 34.0386 31.5816 34.0386 31.9358C34.0386 32.4011 33.9271 32.7935 33.7042 33.113C33.488 33.4255 33.1908 33.6686 32.8125 33.8422C32.5739 33.9537 32.3172 34.0366 32.0424 34.0908V35.5403H31.0595Z" fill="#252323"/>
</g>
<defs>
<clipPath id="clip0_207_1059">
<rect width="44" height="44" fill="white"/>
</clipPath>
</defs>
</svg>
