<svg width="23" height="23" viewBox="0 0 23 23" fill="none" xmlns="http://www.w3.org/2000/svg">
<g clip-path="url(#clip0_657_5811)">
<path fill-rule="evenodd" clip-rule="evenodd" d="M4.86782 6.75001C4.86782 6.57052 5.01333 6.42501 5.19282 6.42501H8.14595C8.51874 6.42501 8.82095 6.1228 8.82095 5.75001C8.82095 5.37722 8.51874 5.07501 8.14595 5.07501H5.19282C4.26774 5.07501 3.51782 5.82494 3.51782 6.75001V15.2917C3.51782 16.2168 4.26774 16.9667 5.19282 16.9667H12.0991H16.0522H18.0288H19.0053C19.9304 16.9667 20.6803 16.2168 20.6803 15.2917V6.75001C20.6803 5.82494 19.9304 5.07501 19.0053 5.07501H12.0991C11.7263 5.07501 11.4241 5.37722 11.4241 5.75001C11.4241 6.1228 11.7263 6.42501 12.0991 6.42501H19.0053C19.1848 6.42501 19.3303 6.57052 19.3303 6.75001V7.18751H4.86782V6.75001ZM4.86782 10.0625H19.3303V15.2917C19.3303 15.4712 19.1848 15.6167 19.0053 15.6167H18.0288H16.0522H12.0991H5.19282C5.01333 15.6167 4.86782 15.4712 4.86782 15.2917V10.0625ZM3.07095 6.70835C3.07095 6.33555 2.76874 6.03335 2.39595 6.03335C2.02316 6.03335 1.72095 6.33555 1.72095 6.70835V9.79897C1.72095 10.1718 2.02316 10.474 2.39595 10.474C2.76874 10.474 3.07095 10.1718 3.07095 9.79897V6.70835ZM3.07095 12.6021C3.07095 12.2293 2.76874 11.9271 2.39595 11.9271C2.02316 11.9271 1.72095 12.2293 1.72095 12.6021V16.2083C1.72095 17.6857 2.91858 18.8833 4.39595 18.8833H11.1391C11.5119 18.8833 11.8141 18.5811 11.8141 18.2083C11.8141 17.8356 11.5119 17.5333 11.1391 17.5333H4.39595C3.66417 17.5333 3.07095 16.9401 3.07095 16.2083V12.6021ZM15.5107 17.5333C15.1379 17.5333 14.8357 17.8356 14.8357 18.2083C14.8357 18.5811 15.1379 18.8833 15.5107 18.8833H19.1668C19.5396 18.8833 19.8418 18.5811 19.8418 18.2083C19.8418 17.8356 19.5396 17.5333 19.1668 17.5333H15.5107ZM5.72357 12.1779C5.35078 12.1779 5.04857 12.4801 5.04857 12.8529C5.04857 13.2257 5.35078 13.5279 5.72357 13.5279H13.4168C13.7896 13.5279 14.0918 13.2257 14.0918 12.8529C14.0918 12.4801 13.7896 12.1779 13.4168 12.1779H5.72357ZM5.72357 13.855C5.35078 13.855 5.04857 14.1572 5.04857 14.53C5.04857 14.9028 5.35078 15.205 5.72357 15.205H9.82308C10.1959 15.205 10.4981 14.9028 10.4981 14.53C10.4981 14.1572 10.1959 13.855 9.82308 13.855H5.72357ZM11.447 13.855C11.0742 13.855 10.772 14.1572 10.772 14.53C10.772 14.9028 11.0742 15.205 11.447 15.205H13.4168C13.7896 15.205 14.0918 14.9028 14.0918 14.53C14.0918 14.1572 13.7896 13.855 13.4168 13.855H11.447Z" fill="#252323"/>
</g>
<defs>
<clipPath id="clip0_657_5811">
<rect width="23" height="23" fill="white"/>
</clipPath>
</defs>
</svg>
