<svg width="28" height="28" viewBox="0 0 28 28" fill="none" xmlns="http://www.w3.org/2000/svg">
<g clip-path="url(#clip0_1178_13722)">
<path fill-rule="evenodd" clip-rule="evenodd" d="M19.8334 5.25H8.16675V22.75H19.8334V5.25ZM13.2499 12.25C14.5386 12.25 15.5832 11.3359 15.5832 10.2083C15.5832 9.08075 14.5386 8.16667 13.2499 8.16667C11.9612 8.16667 10.9166 9.08075 10.9166 10.2083C10.9166 10.2879 10.9155 10.3697 10.9144 10.4528C10.9052 11.146 10.8949 11.931 11.4999 12.25C11.7446 12.379 12.2842 12.3283 12.7378 12.2856C12.9353 12.267 13.1165 12.25 13.2499 12.25ZM14.6667 19.25C13.378 19.25 12.3333 18.3359 12.3333 17.2083C12.3333 16.0808 13.378 15.1667 14.6667 15.1667C15.9553 15.1667 17 16.0808 17 17.2083C17 17.2878 17.0011 17.3696 17.0022 17.4526V17.4527V17.4528C17.0113 18.146 17.0217 18.931 16.4166 19.25C16.172 19.379 15.6324 19.3283 15.1788 19.2856L15.1787 19.2856C14.9813 19.267 14.8001 19.25 14.6667 19.25Z" fill="#E05149"/>
<path fill-rule="evenodd" clip-rule="evenodd" d="M9.16675 3.66675C9.02868 3.66675 8.91675 3.77868 8.91675 3.91675V4.50008H19.0834V3.91675C19.0834 3.77868 18.9715 3.66675 18.8334 3.66675H16.9167C16.5025 3.66675 16.1667 3.33096 16.1667 2.91675C16.1667 2.50253 16.5025 2.16675 16.9167 2.16675H18.8334C19.7999 2.16675 20.5834 2.95025 20.5834 3.91675V5.25008V15.1667C20.5834 15.581 20.2476 15.9167 19.8334 15.9167C19.4192 15.9167 19.0834 15.581 19.0834 15.1667V6.00008H8.91675V10.2084C8.91675 10.6226 8.58096 10.9584 8.16675 10.9584C7.75253 10.9584 7.41675 10.6226 7.41675 10.2084V5.25008V3.91675C7.41675 2.95025 8.20025 2.16675 9.16675 2.16675H14.0001C14.4143 2.16675 14.7501 2.50253 14.7501 2.91675C14.7501 3.33096 14.4143 3.66675 14.0001 3.66675H9.16675ZM8.16675 14.4167C8.58096 14.4167 8.91675 14.7525 8.91675 15.1667V22.0001H19.0834V20.1251C19.0834 19.7109 19.4192 19.3751 19.8334 19.3751C20.2476 19.3751 20.5834 19.7109 20.5834 20.1251V22.7501V24.0834C20.5834 25.0499 19.7999 25.8334 18.8334 25.8334H9.16675C8.20025 25.8334 7.41675 25.0499 7.41675 24.0834V22.7501V15.1667C7.41675 14.7525 7.75253 14.4167 8.16675 14.4167ZM8.91675 23.5001V24.0834C8.91675 24.2215 9.02868 24.3334 9.16675 24.3334H18.8334C18.9715 24.3334 19.0834 24.2215 19.0834 24.0834V23.5001H8.91675ZM13.1875 8.91675C11.9777 8.91675 11.3125 9.66462 11.3125 10.2408C11.3125 10.5448 11.4686 10.8652 11.8093 11.1291C11.9674 11.2516 12.0635 11.4252 12.0915 11.6092L12.3491 11.5345C12.4635 11.5014 12.5842 11.4959 12.7011 11.5187C12.8555 11.5487 13.0184 11.5649 13.1875 11.5649C14.3973 11.5649 15.0625 10.817 15.0625 10.2408C15.0625 9.66462 14.3973 8.91675 13.1875 8.91675ZM10.3725 11.8044C10.0286 11.3701 9.8125 10.8363 9.8125 10.2408C9.8125 8.52608 11.4978 7.41675 13.1875 7.41675C14.8772 7.41675 16.5625 8.52608 16.5625 10.2408C16.5625 11.9556 14.8772 13.0649 13.1875 13.0649C12.9885 13.0649 12.7929 13.0506 12.6023 13.0229L10.7714 13.5538C10.4651 13.6425 10.1362 13.528 9.95134 13.2681C9.76651 13.0083 9.76619 12.66 9.95055 12.3998L10.3725 11.8044ZM16.6875 17.2408C16.6875 16.6646 16.0223 15.9168 14.8125 15.9168C13.6027 15.9168 12.9375 16.6646 12.9375 17.2408C12.9375 17.817 13.6027 18.5649 14.8125 18.5649C14.9816 18.5649 15.1445 18.5487 15.2989 18.5187C15.4158 18.4959 15.5365 18.5014 15.6509 18.5345L15.9085 18.6092C15.9365 18.4252 16.0326 18.2516 16.1907 18.1291C16.5314 17.8652 16.6875 17.5448 16.6875 17.2408ZM18.1875 17.2408C18.1875 17.8363 17.9714 18.3701 17.6276 18.8044L18.0495 19.3998C18.2338 19.66 18.2335 20.0083 18.0487 20.2681C17.8638 20.528 17.5349 20.6425 17.2286 20.5538L15.3977 20.0229C15.2071 20.0506 15.0115 20.0649 14.8125 20.0649C13.1228 20.0649 11.4375 18.9556 11.4375 17.2408C11.4375 15.5261 13.1228 14.4168 14.8125 14.4168C16.5022 14.4168 18.1875 15.5261 18.1875 17.2408Z" fill="#252323"/>
</g>
<defs>
<clipPath id="clip0_1178_13722">
<rect width="28" height="28" fill="white"/>
</clipPath>
</defs>
</svg>
