<svg width="44" height="44" viewBox="0 0 44 44" fill="none" xmlns="http://www.w3.org/2000/svg">
<g clip-path="url(#clip0_1178_13649)">
<path fill-rule="evenodd" clip-rule="evenodd" d="M13.8333 5.3335C13.6952 5.3335 13.5833 5.44543 13.5833 5.5835V7.50015H30.4166V5.5835C30.4166 5.44543 30.3047 5.3335 30.1666 5.3335H26.5833C26.169 5.3335 25.8333 4.99771 25.8333 4.5835C25.8333 4.16928 26.169 3.8335 26.5833 3.8335H30.1666C31.1331 3.8335 31.9166 4.617 31.9166 5.5835V8.25015V23.8335V27.7293C31.9166 28.1435 31.5808 28.4793 31.1666 28.4793C30.7524 28.4793 30.4166 28.1435 30.4166 27.7293V23.8335V9.00015H13.5833V16.0418C13.5833 16.456 13.2475 16.7918 12.8333 16.7918C12.419 16.7918 12.0833 16.456 12.0833 16.0418V8.25015V5.5835C12.0833 4.617 12.8668 3.8335 13.8333 3.8335H21.9999C22.4141 3.8335 22.7499 4.16928 22.7499 4.5835C22.7499 4.99771 22.4141 5.3335 21.9999 5.3335H13.8333ZM12.8333 19.1877C13.2475 19.1877 13.5833 19.5234 13.5833 19.9377V23.8335V35.0002H30.4166V31.6252C30.4166 31.2109 30.7524 30.8752 31.1666 30.8752C31.5808 30.8752 31.9166 31.2109 31.9166 31.6252V35.7502V38.4168C31.9166 39.3833 31.1331 40.1668 30.1666 40.1668H13.8333C12.8668 40.1668 12.0833 39.3833 12.0833 38.4168V35.7502V23.8335V19.9377C12.0833 19.5234 12.419 19.1877 12.8333 19.1877ZM13.5833 36.5002V38.4168C13.5833 38.5549 13.6952 38.6668 13.8333 38.6668H30.1666C30.3047 38.6668 30.4166 38.5549 30.4166 38.4168V36.5002H13.5833ZM19.9374 13.5835C17.8992 13.5835 16.5624 14.862 16.5624 16.0927C16.5624 16.7282 16.8908 17.3484 17.5092 17.8274C17.8251 18.0721 17.8934 18.5212 17.6656 18.8486L18.7393 18.5373C18.8537 18.5042 18.9744 18.4987 19.0913 18.5215C19.3609 18.5739 19.6443 18.602 19.9374 18.602C21.9757 18.602 23.3124 17.3235 23.3124 16.0927C23.3124 14.862 21.9757 13.5835 19.9374 13.5835ZM15.0624 16.0927C15.0624 13.7234 17.4193 12.0835 19.9374 12.0835C22.4555 12.0835 24.8124 13.7234 24.8124 16.0927C24.8124 18.4621 22.4555 20.102 19.9374 20.102C19.6136 20.102 19.2965 20.0762 18.9892 20.0266L16.0213 20.8872C15.715 20.976 15.3861 20.8614 15.2013 20.6015C15.0164 20.3417 15.0161 19.9934 15.2005 19.7332L16.0565 18.5252C15.4477 17.8675 15.0624 17.0298 15.0624 16.0927ZM27.4374 27.0928C27.4374 25.862 26.1007 24.5835 24.0624 24.5835C22.0242 24.5835 20.6874 25.862 20.6874 27.0928C20.6874 28.3235 22.0242 29.602 24.0624 29.602C24.3555 29.602 24.6389 29.5739 24.9085 29.5215C25.0255 29.4987 25.1462 29.5042 25.2606 29.5373L26.3342 29.8486C26.1064 29.5212 26.1747 29.0721 26.4906 28.8274C27.1091 28.3484 27.4374 27.7282 27.4374 27.0928ZM24.0624 23.0835C26.5805 23.0835 28.9374 24.7234 28.9374 27.0928C28.9374 28.0298 28.5522 28.8675 27.9434 29.5252L28.7994 30.7332C28.9837 30.9934 28.9834 31.3417 28.7986 31.6015C28.6138 31.8614 28.2848 31.976 27.9786 31.8872L25.0106 31.0266C24.7033 31.0762 24.3862 31.102 24.0624 31.102C21.5443 31.102 19.1874 29.4621 19.1874 27.0928C19.1874 24.7234 21.5443 23.0835 24.0624 23.0835Z" fill="#252323"/>
</g>
<defs>
<clipPath id="clip0_1178_13649">
<rect width="44" height="44" fill="white"/>
</clipPath>
</defs>
</svg>
