<svg width="44" height="44" viewBox="0 0 44 44" fill="none" xmlns="http://www.w3.org/2000/svg">
<g clip-path="url(#clip0_1178_13649)">
<path d="M12.8333 19.188C13.2475 19.188 13.5833 19.5238 13.5833 19.938V35.0005H30.4163V31.6255C30.4163 31.2114 30.7522 30.8757 31.1663 30.8755C31.5805 30.8755 31.9163 31.2113 31.9163 31.6255V38.4165C31.9163 39.383 31.1328 40.1665 30.1663 40.1665H13.8333C12.8668 40.1665 12.0833 39.383 12.0833 38.4165V19.938C12.0833 19.5238 12.419 19.188 12.8333 19.188ZM13.5833 38.4165C13.5833 38.5546 13.6952 38.6665 13.8333 38.6665H30.1663C30.3043 38.6665 30.4163 38.5546 30.4163 38.4165V36.5005H13.5833V38.4165ZM24.0627 23.0835C26.5805 23.0836 28.9374 24.7233 28.9377 27.0923C28.9377 28.0289 28.552 28.8664 27.9436 29.5239L28.8 30.7329C28.9842 30.9929 28.9835 31.3413 28.7991 31.6011C28.6143 31.8608 28.2849 31.9758 27.9788 31.8872L25.0081 31.0249C24.7016 31.0742 24.3855 31.102 24.0627 31.1021C21.5447 31.1021 19.1877 29.4616 19.1877 27.0923C19.1881 24.7232 21.5448 23.0835 24.0627 23.0835ZM24.0627 24.5835C22.0247 24.5835 20.6881 25.8617 20.6877 27.0923C20.6877 28.3231 22.0245 29.6021 24.0627 29.6021C24.3556 29.602 24.639 29.5734 24.9084 29.521C24.9961 29.504 25.0865 29.5036 25.1741 29.5181L25.261 29.5376L26.3362 29.8481C26.108 29.5207 26.1754 29.0725 26.4915 28.8276C27.1096 28.3487 27.4377 27.7276 27.4377 27.0923C27.4374 25.8617 26.1006 24.5836 24.0627 24.5835ZM22.0002 3.8335C22.4143 3.83367 22.7502 4.16939 22.7502 4.5835C22.7502 4.9976 22.4143 5.33332 22.0002 5.3335H13.8333C13.6952 5.3335 13.5833 5.44543 13.5833 5.5835V7.50049H30.4163V5.5835C30.4163 5.44543 30.3043 5.3335 30.1663 5.3335H26.5833C26.169 5.3335 25.8333 4.99771 25.8333 4.5835C25.8333 4.16929 26.169 3.8335 26.5833 3.8335H30.1663C31.1328 3.8335 31.9163 4.617 31.9163 5.5835V27.729C31.9163 28.1432 31.5805 28.479 31.1663 28.479C30.7522 28.4788 30.4163 28.1431 30.4163 27.729V9.00049H13.5833V16.0415C13.5832 16.4557 13.2475 16.7915 12.8333 16.7915C12.419 16.7915 12.0833 16.4557 12.0833 16.0415V5.5835C12.0833 4.617 12.8668 3.8335 13.8333 3.8335H22.0002ZM19.9377 12.0835C22.4555 12.0836 24.8124 13.7233 24.8127 16.0923C24.8127 18.4615 22.4557 20.1019 19.9377 20.1021C19.615 20.1021 19.2989 20.0741 18.9924 20.0249L16.0217 20.8872C15.7155 20.976 15.3863 20.8608 15.2014 20.6011C15.0169 20.3413 15.0162 19.993 15.2004 19.7329L16.0569 18.5239C15.4484 17.8664 15.0627 17.029 15.0627 16.0923C15.0631 13.7232 17.4198 12.0835 19.9377 12.0835ZM19.9377 13.5835C17.8997 13.5835 16.5631 14.8617 16.5627 16.0923C16.5627 16.7277 16.8907 17.3487 17.509 17.8276C17.8249 18.0725 17.8923 18.5208 17.6643 18.8481L18.7395 18.5376L18.8264 18.5181C18.914 18.5036 19.0044 18.504 19.092 18.521C19.3615 18.5734 19.6449 18.6021 19.9377 18.6021C21.9758 18.6019 23.3127 17.323 23.3127 16.0923C23.3124 14.8617 21.9756 13.5836 19.9377 13.5835Z" fill="#332A2A"/>
</g>
<defs>
<clipPath id="clip0_1178_13649">
<rect width="44" height="44" fill="white"/>
</clipPath>
</defs>
</svg>
