<svg width="23" height="23" viewBox="0 0 23 23" fill="none" xmlns="http://www.w3.org/2000/svg">
<g clip-path="url(#clip0_1178_13723)">
<path fill-rule="evenodd" clip-rule="evenodd" d="M16.2916 4.3125H6.70825V18.6875H16.2916V4.3125ZM10.5416 10.0625C11.6002 10.0625 12.4583 9.31164 12.4583 8.38542C12.4583 7.45919 11.6002 6.70833 10.5416 6.70833C9.48308 6.70833 8.62496 7.45919 8.62496 8.38542C8.62496 8.45073 8.62407 8.51793 8.62317 8.5862V8.58621V8.58621C8.61565 9.15562 8.60713 9.80046 9.10414 10.0625C9.30511 10.1685 9.74837 10.1268 10.121 10.0917L10.121 10.0917C10.2832 10.0765 10.432 10.0625 10.5416 10.0625ZM12.5744 15.8125C11.5159 15.8125 10.6578 15.0616 10.6578 14.1354C10.6578 13.2092 11.5159 12.4583 12.5744 12.4583C13.633 12.4583 14.4911 13.2092 14.4911 14.1354C14.4911 14.2007 14.492 14.2679 14.4929 14.3362V14.3362V14.3362C14.5004 14.9056 14.5089 15.5505 14.0119 15.8125C13.811 15.9185 13.3677 15.8768 12.9951 15.8417L12.9951 15.8417C12.8329 15.8265 12.684 15.8125 12.5744 15.8125Z" fill="#E05149"/>
<path fill-rule="evenodd" clip-rule="evenodd" d="M7.70845 3.07095C7.52895 3.07095 7.38345 3.21645 7.38345 3.39595V3.88761H15.6168V3.39595C15.6168 3.21645 15.4713 3.07095 15.2918 3.07095H13.8959C13.5232 3.07095 13.2209 2.76874 13.2209 2.39595C13.2209 2.02316 13.5232 1.72095 13.8959 1.72095H15.2918C16.2169 1.72095 16.9668 2.47087 16.9668 3.39595V4.56261V12.4584C16.9668 12.8312 16.6646 13.1334 16.2918 13.1334C15.919 13.1334 15.6168 12.8312 15.6168 12.4584V5.23761H7.38345V8.38553C7.38345 8.75832 7.08124 9.06053 6.70845 9.06053C6.33566 9.06053 6.03345 8.75832 6.03345 8.38553V4.56261V3.39595C6.03345 2.47087 6.78337 1.72095 7.70845 1.72095H11.5001C11.8729 1.72095 12.1751 2.02316 12.1751 2.39595C12.1751 2.76874 11.8729 3.07095 11.5001 3.07095H7.70845ZM6.70845 11.7834C7.08124 11.7834 7.38345 12.0857 7.38345 12.4584V17.7626H15.6168V16.5314C15.6168 16.1586 15.919 15.8564 16.2918 15.8564C16.6646 15.8564 16.9668 16.1586 16.9668 16.5314V18.4376V19.6043C16.9668 20.5294 16.2169 21.2793 15.2918 21.2793H7.70845C6.78337 21.2793 6.03345 20.5294 6.03345 19.6043V18.4376V12.4584C6.03345 12.0857 6.33566 11.7834 6.70845 11.7834ZM7.38345 19.1126V19.6043C7.38345 19.7838 7.52895 19.9293 7.70845 19.9293H15.2918C15.4713 19.9293 15.6168 19.7838 15.6168 19.6043V19.1126H7.38345ZM10.6721 7.38345C9.69713 7.38345 9.19082 7.98357 9.19082 8.41215C9.19082 8.64012 9.30759 8.88727 9.57604 9.0952C9.69941 9.19076 9.78083 9.32096 9.81672 9.46181L9.96696 9.41824C10.0699 9.38839 10.1786 9.38349 10.2838 9.40396C10.4069 9.4279 10.5369 9.44086 10.6721 9.44086C11.647 9.44086 12.1533 8.84074 12.1533 8.41215C12.1533 7.98357 11.647 7.38345 10.6721 7.38345ZM8.28636 9.69809C8.01245 9.33862 7.84082 8.90046 7.84082 8.41215C7.84082 6.95888 9.26528 6.03345 10.6721 6.03345C12.0789 6.03345 13.5033 6.95888 13.5033 8.41215C13.5033 9.86543 12.0789 10.7909 10.6721 10.7909C10.5102 10.7909 10.3509 10.7795 10.1956 10.7576L8.70379 11.1901C8.42815 11.27 8.13212 11.1669 7.96578 10.933C7.79943 10.6992 7.79914 10.3857 7.96506 10.1515L8.28636 9.69809ZM13.8095 14.1621C13.8095 13.7335 13.3032 13.1333 12.3282 13.1333C11.3533 13.1333 10.847 13.7335 10.847 14.1621C10.847 14.5906 11.3533 15.1908 12.3282 15.1908C12.4634 15.1908 12.5934 15.1778 12.7165 15.1539C12.8217 15.1334 12.9304 15.1383 13.0333 15.1681L13.1836 15.2117C13.2195 15.0709 13.3009 14.9407 13.4243 14.8451C13.6927 14.6372 13.8095 14.39 13.8095 14.1621ZM15.1595 14.1621C15.1595 14.6504 14.9878 15.0885 14.7139 15.448L15.0352 15.9014C15.2011 16.1356 15.2009 16.4491 15.0345 16.6829C14.8682 16.9168 14.5721 17.0199 14.2965 16.94L12.8047 16.5075C12.6494 16.5294 12.4901 16.5408 12.3282 16.5408C10.9214 16.5408 9.49697 15.6153 9.49697 14.1621C9.49697 12.7088 10.9214 11.7833 12.3282 11.7833C13.735 11.7833 15.1595 12.7088 15.1595 14.1621Z" fill="#252323"/>
</g>
<defs>
<clipPath id="clip0_1178_13723">
<rect width="23" height="23" fill="white"/>
</clipPath>
</defs>
</svg>
