<svg width="28" height="28" viewBox="0 0 28 28" fill="none" xmlns="http://www.w3.org/2000/svg">
<g clip-path="url(#clip0_1178_13650)">
<path fill-rule="evenodd" clip-rule="evenodd" d="M9.16675 3.6665C9.02868 3.6665 8.91675 3.77843 8.91675 3.9165V4.49983H19.0834V3.9165C19.0834 3.77843 18.9715 3.6665 18.8334 3.6665H16.9167C16.5025 3.6665 16.1667 3.33072 16.1667 2.9165C16.1667 2.50229 16.5025 2.1665 16.9167 2.1665H18.8334C19.7999 2.1665 20.5834 2.95 20.5834 3.9165V5.24983V15.1665C20.5834 15.5807 20.2476 15.9165 19.8334 15.9165C19.4192 15.9165 19.0834 15.5807 19.0834 15.1665V5.99983H8.91675V10.2082C8.91675 10.6224 8.58096 10.9582 8.16675 10.9582C7.75253 10.9582 7.41675 10.6224 7.41675 10.2082V5.24983V3.9165C7.41675 2.95001 8.20025 2.1665 9.16675 2.1665H14.0001C14.4143 2.1665 14.7501 2.50229 14.7501 2.9165C14.7501 3.33072 14.4143 3.6665 14.0001 3.6665H9.16675ZM8.16675 14.4165C8.58096 14.4165 8.91675 14.7523 8.91675 15.1665V21.9998H19.0834V20.1248C19.0834 19.7106 19.4192 19.3748 19.8334 19.3748C20.2476 19.3748 20.5834 19.7106 20.5834 20.1248V22.7498V24.0832C20.5834 25.0497 19.7999 25.8332 18.8334 25.8332H9.16675C8.20025 25.8332 7.41675 25.0497 7.41675 24.0832V22.7498V15.1665C7.41675 14.7523 7.75253 14.4165 8.16675 14.4165ZM8.91675 23.4998V24.0832C8.91675 24.2212 9.02868 24.3332 9.16675 24.3332H18.8334C18.9715 24.3332 19.0834 24.2212 19.0834 24.0832V23.4998H8.91675ZM13.1875 8.91651C11.9777 8.91651 11.3125 9.66437 11.3125 10.2406C11.3125 10.5445 11.4686 10.8649 11.8093 11.1288C11.9674 11.2513 12.0635 11.425 12.0915 11.609L12.3491 11.5343C12.4635 11.5011 12.5842 11.4957 12.7011 11.5184C12.8555 11.5484 13.0184 11.5647 13.1875 11.5647C14.3973 11.5647 15.0625 10.8168 15.0625 10.2406C15.0625 9.66437 14.3973 8.91651 13.1875 8.91651ZM10.3725 11.8041C10.0286 11.3698 9.8125 10.8361 9.8125 10.2406C9.8125 8.52583 11.4978 7.41651 13.1875 7.41651C14.8772 7.41651 16.5625 8.52583 16.5625 10.2406C16.5625 11.9553 14.8772 13.0647 13.1875 13.0647C12.9885 13.0647 12.7929 13.0503 12.6023 13.0227L10.7714 13.5535C10.4651 13.6423 10.1362 13.5277 9.95134 13.2679C9.76651 13.0081 9.76619 12.6597 9.95055 12.3996L10.3725 11.8041ZM16.6875 17.2406C16.6875 16.6644 16.0223 15.9165 14.8125 15.9165C13.6027 15.9165 12.9375 16.6644 12.9375 17.2406C12.9375 17.8168 13.6027 18.5647 14.8125 18.5647C14.9816 18.5647 15.1445 18.5484 15.2989 18.5184C15.4158 18.4957 15.5365 18.5011 15.6509 18.5343L15.9085 18.609C15.9365 18.425 16.0326 18.2513 16.1907 18.1288C16.5314 17.8649 16.6875 17.5445 16.6875 17.2406ZM18.1875 17.2406C18.1875 17.8361 17.9714 18.3698 17.6276 18.8041L18.0495 19.3996C18.2338 19.6597 18.2335 20.0081 18.0487 20.2679C17.8638 20.5277 17.5349 20.6423 17.2286 20.5535L15.3977 20.0227C15.2071 20.0503 15.0115 20.0647 14.8125 20.0647C13.1228 20.0647 11.4375 18.9553 11.4375 17.2406C11.4375 15.5258 13.1228 14.4165 14.8125 14.4165C16.5022 14.4165 18.1875 15.5258 18.1875 17.2406Z" fill="#332A2A"/>
</g>
<defs>
<clipPath id="clip0_1178_13650">
<rect width="28" height="28" fill="white"/>
</clipPath>
</defs>
</svg>
