<svg width="23" height="23" viewBox="0 0 23 23" fill="none" xmlns="http://www.w3.org/2000/svg">
<g clip-path="url(#clip0_1178_13651)">
<path d="M6.73315 11.8081C7.10595 11.8081 7.40796 12.1101 7.40796 12.4829V17.7866H15.6414V16.5562C15.6414 16.1835 15.9435 15.8805 16.3162 15.8804C16.689 15.8804 16.9919 16.1834 16.9919 16.5562V19.6284C16.9919 20.5535 16.2412 21.3042 15.3162 21.3042H7.73315C6.80808 21.3042 6.05835 20.5535 6.05835 19.6284V12.4829C6.05835 12.1101 6.36036 11.8081 6.73315 11.8081ZM7.40796 19.6284C7.40796 19.8079 7.55366 19.9536 7.73315 19.9536H15.3162C15.4957 19.9536 15.6414 19.8079 15.6414 19.6284V19.1372H7.40796V19.6284ZM12.3533 11.8081C13.7599 11.8083 15.1843 12.7339 15.1843 14.187C15.1842 14.6745 15.0103 15.1101 14.7371 15.4692L15.0603 15.9263C15.2259 16.1604 15.2255 16.4738 15.0593 16.7075C14.8931 16.9411 14.5974 17.0439 14.322 16.9644L12.8298 16.5317C12.6746 16.5537 12.5151 16.5649 12.3533 16.5649C10.9466 16.5649 9.52254 15.64 9.52222 14.187C9.52222 12.7337 10.9465 11.8081 12.3533 11.8081ZM12.3533 13.1577C11.3783 13.1577 10.8718 13.7584 10.8718 14.187C10.8722 14.6156 11.3787 15.2153 12.3533 15.2153C12.4883 15.2153 12.619 15.2021 12.7419 15.1782C12.8207 15.163 12.9015 15.1623 12.9802 15.1753L13.0583 15.1929L13.2117 15.2368C13.2372 15.1368 13.2822 15.0411 13.3523 14.9604L13.449 14.8696L13.5427 14.7896C13.7446 14.6 13.8346 14.3863 13.8347 14.187C13.8347 13.7585 13.328 13.1579 12.3533 13.1577ZM11.5251 1.74561C11.8978 1.74578 12.2 2.04773 12.2 2.42041C12.2 2.79309 11.8978 3.09504 11.5251 3.09521H7.73315C7.55366 3.09521 7.40796 3.24092 7.40796 3.42041V3.91162H15.6414V3.42041C15.6414 3.24092 15.4957 3.09521 15.3162 3.09521H13.9207C13.5479 3.09521 13.2458 2.7932 13.2458 2.42041C13.2458 2.04762 13.5479 1.74561 13.9207 1.74561H15.3162C16.2412 1.74561 16.9919 2.49533 16.9919 3.42041V12.4829C16.9919 12.8557 16.689 13.1577 16.3162 13.1577C15.9435 13.1575 15.6414 12.8556 15.6414 12.4829V5.26221H7.40796V8.40967C7.40796 8.78246 7.10595 9.08545 6.73315 9.08545C6.36036 9.08545 6.05835 8.78246 6.05835 8.40967V3.42041C6.05835 2.49533 6.80808 1.74561 7.73315 1.74561H11.5251ZM10.697 6.05811C12.1037 6.05821 13.5281 6.98383 13.5281 8.43701C13.5278 9.88997 12.1036 10.8148 10.697 10.8149C10.5352 10.8149 10.3758 10.8037 10.2205 10.7817L8.72827 11.2144C8.45284 11.294 8.15727 11.1911 7.99097 10.9575C7.82467 10.7237 7.82421 10.4104 7.98999 10.1763L8.31323 9.71924C8.03992 9.36009 7.86606 8.92463 7.86597 8.43701C7.86597 6.98374 9.29023 6.05811 10.697 6.05811ZM10.697 7.40771C9.72209 7.40771 9.21558 8.00843 9.21558 8.43701C9.21569 8.63633 9.30558 8.84998 9.50757 9.03955L9.60132 9.11963L9.698 9.21045C9.76805 9.29107 9.81312 9.38689 9.83862 9.48682L9.99194 9.44287L10.0701 9.42529C10.1488 9.41234 10.2296 9.41296 10.3083 9.42822C10.4314 9.45213 10.562 9.46533 10.697 9.46533C11.6715 9.46523 12.1782 8.86554 12.1785 8.43701C12.1785 8.00846 11.6718 7.40782 10.697 7.40771Z" fill="#332A2A"/>
</g>
<defs>
<clipPath id="clip0_1178_13651">
<rect width="23" height="23" fill="white"/>
</clipPath>
</defs>
</svg>
