<svg width="18" height="18" viewBox="0 0 18 18" fill="none" xmlns="http://www.w3.org/2000/svg">
<g clip-path="url(#clip0_1178_13724)">
<path fill-rule="evenodd" clip-rule="evenodd" d="M12.75 3.375H5.25V14.625H12.75V3.375ZM8.75003 7.875C9.57846 7.875 10.25 7.28737 10.25 6.5625C10.25 5.83763 9.57846 5.25 8.75003 5.25C7.92161 5.25 7.25003 5.83763 7.25003 6.5625C7.25003 6.61362 7.24934 6.66621 7.24863 6.71964C7.24275 7.16527 7.23608 7.66992 7.62504 7.875C7.78232 7.95792 8.12922 7.92531 8.42082 7.89789H8.42082H8.42083C8.54778 7.88595 8.66426 7.875 8.75003 7.875ZM9.34093 12.375C8.5125 12.375 7.84093 11.7874 7.84093 11.0625C7.84093 10.3376 8.5125 9.75 9.34093 9.75C10.1694 9.75 10.8409 10.3376 10.8409 11.0625C10.8409 11.1136 10.8416 11.1662 10.8423 11.2196L10.8423 11.2196C10.8482 11.6653 10.8549 12.1699 10.4659 12.375C10.3086 12.4579 9.96174 12.4253 9.67014 12.3979L9.67012 12.3979C9.54316 12.386 9.4267 12.375 9.34093 12.375Z" fill="#E05149"/>
<path fill-rule="evenodd" clip-rule="evenodd" d="M6.25 2.5C6.04289 2.5 5.875 2.66789 5.875 2.875V3H12.125V2.875C12.125 2.66789 11.9571 2.5 11.75 2.5H10.875C10.5298 2.5 10.25 2.22018 10.25 1.875C10.25 1.52982 10.5298 1.25 10.875 1.25H11.75C12.6475 1.25 13.375 1.97754 13.375 2.875V3.625V9.75C13.375 10.0952 13.0952 10.375 12.75 10.375C12.4048 10.375 12.125 10.0952 12.125 9.75V4.25H5.875V6.5625C5.875 6.90768 5.59518 7.1875 5.25 7.1875C4.90482 7.1875 4.625 6.90768 4.625 6.5625V3.625V2.875C4.625 1.97754 5.35254 1.25 6.25 1.25H9C9.34518 1.25 9.625 1.52982 9.625 1.875C9.625 2.22018 9.34518 2.5 9 2.5H6.25ZM5.25 9.125C5.59518 9.125 5.875 9.40482 5.875 9.75V13.75H12.125V12.9375C12.125 12.5923 12.4048 12.3125 12.75 12.3125C13.0952 12.3125 13.375 12.5923 13.375 12.9375V14.375V15.125C13.375 16.0225 12.6475 16.75 11.75 16.75H6.25C5.35254 16.75 4.625 16.0225 4.625 15.125V14.375V9.75C4.625 9.40482 4.90482 9.125 5.25 9.125ZM5.875 15V15.125C5.875 15.3321 6.04289 15.5 6.25 15.5H11.75C11.9571 15.5 12.125 15.3321 12.125 15.125V15H5.875ZM8.65625 5.75C7.88421 5.75 7.46875 6.22647 7.46875 6.58334C7.46875 6.77215 7.56562 6.97327 7.78118 7.14024C7.88084 7.21743 7.94354 7.32513 7.96585 7.44031L8.1123 7.39785C8.18858 7.37574 8.26903 7.37211 8.34699 7.38727C8.4451 7.40635 8.54868 7.41667 8.65625 7.41667C9.42829 7.41667 9.84375 6.9402 9.84375 6.58334C9.84375 6.22647 9.42829 5.75 8.65625 5.75ZM6.8243 7.58902C6.60587 7.30897 6.46875 6.96592 6.46875 6.58334C6.46875 5.46744 7.56433 4.75 8.65625 4.75C9.74817 4.75 10.8438 5.46744 10.8438 6.58334C10.8438 7.69923 9.74817 8.41667 8.65625 8.41667C8.52877 8.41667 8.40347 8.40758 8.28131 8.39003L7.10798 8.73023C6.90381 8.78942 6.68453 8.71305 6.56131 8.53982C6.43809 8.36659 6.43788 8.13439 6.56078 7.96093L6.8243 7.58902ZM10.5312 11.0833C10.5312 10.7265 10.1158 10.25 9.34375 10.25C8.57171 10.25 8.15625 10.7265 8.15625 11.0833C8.15625 11.4402 8.57171 11.9167 9.34375 11.9167C9.45132 11.9167 9.5549 11.9064 9.65301 11.8873C9.73097 11.8721 9.81142 11.8757 9.8877 11.8979L10.0341 11.9403C10.0565 11.8251 10.1192 11.7174 10.2188 11.6402C10.4344 11.4733 10.5312 11.2721 10.5312 11.0833ZM11.5312 11.0833C11.5312 11.4659 11.3941 11.809 11.1757 12.089L11.4392 12.4609C11.5621 12.6344 11.5619 12.8666 11.4387 13.0398C11.3155 13.213 11.0962 13.2894 10.892 13.2302L9.71869 12.89C9.59653 12.9076 9.47123 12.9167 9.34375 12.9167C8.25183 12.9167 7.15625 12.1992 7.15625 11.0833C7.15625 9.96744 8.25183 9.25 9.34375 9.25C10.4357 9.25 11.5312 9.96744 11.5312 11.0833Z" fill="#252323"/>
</g>
<defs>
<clipPath id="clip0_1178_13724">
<rect width="18" height="18" fill="white"/>
</clipPath>
</defs>
</svg>
