<svg width="23" height="23" viewBox="0 0 23 23" fill="none" xmlns="http://www.w3.org/2000/svg">
<g clip-path="url(#clip0_1178_13651)">
<path fill-rule="evenodd" clip-rule="evenodd" d="M7.70845 3.0707C7.52895 3.0707 7.38345 3.21621 7.38345 3.3957V3.88737H15.6168V3.3957C15.6168 3.21621 15.4713 3.0707 15.2918 3.0707H13.8959C13.5232 3.0707 13.2209 2.7685 13.2209 2.3957C13.2209 2.02291 13.5232 1.7207 13.8959 1.7207H15.2918C16.2169 1.7207 16.9668 2.47063 16.9668 3.3957V4.56237V12.4582C16.9668 12.831 16.6646 13.1332 16.2918 13.1332C15.919 13.1332 15.6168 12.831 15.6168 12.4582V5.23737H7.38345V8.38529C7.38345 8.75808 7.08124 9.06029 6.70845 9.06029C6.33566 9.06029 6.03345 8.75808 6.03345 8.38529V4.56237V3.3957C6.03345 2.47063 6.78337 1.7207 7.70845 1.7207H11.5001C11.8729 1.7207 12.1751 2.02291 12.1751 2.3957C12.1751 2.7685 11.8729 3.0707 11.5001 3.0707H7.70845ZM6.70845 11.7832C7.08124 11.7832 7.38345 12.0854 7.38345 12.4582V17.7624H15.6168V16.5311C15.6168 16.1583 15.919 15.8561 16.2918 15.8561C16.6646 15.8561 16.9668 16.1583 16.9668 16.5311V18.4374V19.604C16.9668 20.5291 16.2169 21.279 15.2918 21.279H7.70845C6.78337 21.279 6.03345 20.5291 6.03345 19.604V18.4374V12.4582C6.03345 12.0854 6.33566 11.7832 6.70845 11.7832ZM7.38345 19.1124V19.604C7.38345 19.7835 7.52895 19.929 7.70845 19.929H15.2918C15.4713 19.929 15.6168 19.7835 15.6168 19.604V19.1124H7.38345ZM10.6721 7.38321C9.69713 7.38321 9.19082 7.98332 9.19082 8.41191C9.19082 8.63987 9.30759 8.88703 9.57604 9.09496C9.69941 9.19052 9.78083 9.32071 9.81672 9.46156L9.96696 9.418C10.0699 9.38814 10.1786 9.38325 10.2838 9.40372C10.4069 9.42765 10.5369 9.44061 10.6721 9.44061C11.647 9.44061 12.1533 8.8405 12.1533 8.41191C12.1533 7.98332 11.647 7.38321 10.6721 7.38321ZM8.28636 9.69785C8.01245 9.33838 7.84082 8.90022 7.84082 8.41191C7.84082 6.95864 9.26528 6.03321 10.6721 6.03321C12.0789 6.03321 13.5033 6.95864 13.5033 8.41191C13.5033 9.86518 12.0789 10.7906 10.6721 10.7906C10.5102 10.7906 10.3509 10.7793 10.1956 10.7573L8.70379 11.1898C8.42815 11.2698 8.13212 11.1666 7.96578 10.9328C7.79943 10.6989 7.79914 10.3855 7.96506 10.1513L8.28636 9.69785ZM13.8095 14.1618C13.8095 13.7332 13.3032 13.1331 12.3282 13.1331C11.3533 13.1331 10.847 13.7332 10.847 14.1618C10.847 14.5904 11.3533 15.1905 12.3282 15.1905C12.4634 15.1905 12.5934 15.1776 12.7165 15.1536C12.8217 15.1331 12.9304 15.138 13.0333 15.1679L13.1836 15.2115C13.2195 15.0706 13.3009 14.9404 13.4243 14.8449C13.6927 14.6369 13.8095 14.3898 13.8095 14.1618ZM15.1595 14.1618C15.1595 14.6501 14.9878 15.0883 14.7139 15.4477L15.0352 15.9012C15.2011 16.1354 15.2009 16.4488 15.0345 16.6827C14.8682 16.9165 14.5721 17.0197 14.2965 16.9397L12.8047 16.5072C12.6494 16.5292 12.4901 16.5405 12.3282 16.5405C10.9214 16.5405 9.49697 15.6151 9.49697 14.1618C9.49697 12.7085 10.9214 11.7831 12.3282 11.7831C13.735 11.7831 15.1595 12.7085 15.1595 14.1618Z" fill="#252323"/>
</g>
<defs>
<clipPath id="clip0_1178_13651">
<rect width="23" height="23" fill="white"/>
</clipPath>
</defs>
</svg>
