<svg width="44" height="44" viewBox="0 0 44 44" fill="none" xmlns="http://www.w3.org/2000/svg">
<g clip-path="url(#clip0_1178_13721)">
<path fill-rule="evenodd" clip-rule="evenodd" d="M31.1666 8.25H12.8333V35.75H31.1666V8.25ZM20.1667 19.25C22.1917 19.25 23.8333 17.8136 23.8333 16.0417C23.8333 14.2698 22.1917 12.8333 20.1667 12.8333C18.1416 12.8333 16.5 14.2698 16.5 16.0417C16.5 16.1666 16.4983 16.2952 16.4966 16.4258C16.4822 17.5151 16.4659 18.7487 17.4167 19.25C17.8012 19.4527 18.6491 19.373 19.3619 19.306C19.6723 19.2768 19.957 19.25 20.1667 19.25ZM24.0555 30.25C22.0305 30.25 20.3888 28.8136 20.3888 27.0417C20.3888 25.2698 22.0305 23.8333 24.0555 23.8333C26.0806 23.8333 27.7222 25.2698 27.7222 27.0417C27.7222 27.1666 27.7239 27.2951 27.7256 27.4256L27.7256 27.4258C27.74 28.5151 27.7563 29.7487 26.8055 30.25C26.421 30.4527 25.5731 30.373 24.8603 30.306H24.8602L24.8602 30.3059C24.5499 30.2768 24.2652 30.25 24.0555 30.25Z" fill="#E05149"/>
<path fill-rule="evenodd" clip-rule="evenodd" d="M13.8333 5.33325C13.6952 5.33325 13.5833 5.44518 13.5833 5.58325V7.49991H30.4166V5.58325C30.4166 5.44518 30.3047 5.33325 30.1666 5.33325H26.5833C26.169 5.33325 25.8333 4.99747 25.8333 4.58325C25.8333 4.16904 26.169 3.83325 26.5833 3.83325H30.1666C31.1331 3.83325 31.9166 4.61675 31.9166 5.58325V8.24991V23.8332V27.7291C31.9166 28.1433 31.5808 28.4791 31.1666 28.4791C30.7524 28.4791 30.4166 28.1433 30.4166 27.7291V23.8332V8.99991H13.5833V16.0416C13.5833 16.4558 13.2475 16.7916 12.8333 16.7916C12.419 16.7916 12.0833 16.4558 12.0833 16.0416V8.24991V5.58325C12.0833 4.61675 12.8668 3.83325 13.8333 3.83325H21.9999C22.4141 3.83325 22.7499 4.16904 22.7499 4.58325C22.7499 4.99747 22.4141 5.33325 21.9999 5.33325H13.8333ZM12.8333 19.1874C13.2475 19.1874 13.5833 19.5232 13.5833 19.9374V23.8332V34.9999H30.4166V31.6249C30.4166 31.2107 30.7524 30.8749 31.1666 30.8749C31.5808 30.8749 31.9166 31.2107 31.9166 31.6249V35.7499V38.4166C31.9166 39.3831 31.1331 40.1666 30.1666 40.1666H13.8333C12.8668 40.1666 12.0833 39.3831 12.0833 38.4166V35.7499V23.8332V19.9374C12.0833 19.5232 12.419 19.1874 12.8333 19.1874ZM13.5833 36.4999V38.4166C13.5833 38.5547 13.6952 38.6666 13.8333 38.6666H30.1666C30.3047 38.6666 30.4166 38.5547 30.4166 38.4166V36.4999H13.5833ZM19.9374 13.5832C17.8992 13.5832 16.5624 14.8617 16.5624 16.0925C16.5624 16.728 16.8908 17.3481 17.5092 17.8271C17.8251 18.0719 17.8934 18.521 17.6656 18.8484L18.7393 18.5371C18.8537 18.5039 18.9744 18.4985 19.0913 18.5212C19.3609 18.5737 19.6443 18.6018 19.9374 18.6018C21.9757 18.6018 23.3124 17.3233 23.3124 16.0925C23.3124 14.8617 21.9757 13.5832 19.9374 13.5832ZM15.0624 16.0925C15.0624 13.7232 17.4193 12.0832 19.9374 12.0832C22.4555 12.0832 24.8124 13.7232 24.8124 16.0925C24.8124 18.4618 22.4555 20.1018 19.9374 20.1018C19.6136 20.1018 19.2965 20.0759 18.9892 20.0264L16.0213 20.8869C15.715 20.9757 15.3861 20.8611 15.2013 20.6013C15.0164 20.3415 15.0161 19.9932 15.2005 19.733L16.0565 18.5249C15.4477 17.8673 15.0624 17.0295 15.0624 16.0925ZM27.4374 27.0925C27.4374 25.8617 26.1007 24.5832 24.0624 24.5832C22.0242 24.5832 20.6874 25.8617 20.6874 27.0925C20.6874 28.3233 22.0242 29.6018 24.0624 29.6018C24.3555 29.6018 24.6389 29.5737 24.9085 29.5212C25.0255 29.4985 25.1462 29.5039 25.2606 29.5371L26.3342 29.8484C26.1064 29.521 26.1747 29.0719 26.4906 28.8271C27.1091 28.3481 27.4374 27.728 27.4374 27.0925ZM24.0624 23.0832C26.5805 23.0832 28.9374 24.7232 28.9374 27.0925C28.9374 28.0295 28.5522 28.8673 27.9434 29.5249L28.7994 30.733C28.9837 30.9932 28.9834 31.3415 28.7986 31.6013C28.6138 31.8611 28.2848 31.9757 27.9786 31.8869L25.0106 31.0264C24.7033 31.0759 24.3862 31.1018 24.0624 31.1018C21.5443 31.1018 19.1874 29.4618 19.1874 27.0925C19.1874 24.7232 21.5443 23.0832 24.0624 23.0832Z" fill="#252323"/>
</g>
<defs>
<clipPath id="clip0_1178_13721">
<rect width="44" height="44" fill="white"/>
</clipPath>
</defs>
</svg>
