<svg width="28" height="28" viewBox="0 0 28 28" fill="none" xmlns="http://www.w3.org/2000/svg">
<g clip-path="url(#clip0_2263_13341)">
<path d="M4.08845 9.73111C6.93761 9.15398 11.0247 9.14134 13.8092 9.32193C13.6282 9.42401 13.5276 9.64877 13.5963 9.87466L14.2652 12.0758C14.3933 12.497 14.7821 12.7847 15.2222 12.7848H18.4332C18.7837 12.7845 19.01 12.4379 18.814 12.1471C18.1488 11.1604 16.74 9.86146 14.8306 9.40103C15.0454 9.42116 15.2474 9.44231 15.4342 9.4645C16.3945 9.57906 18.0414 11.0936 18.9586 12.0221C19.375 12.4437 19.9406 12.698 20.5328 12.7184C22.7904 12.796 25.0894 13.1878 25.0894 14.403C25.0894 16.3716 25.6886 18.4192 23.3492 18.2868L23.2086 18.0915C22.3798 16.9385 20.6469 16.9919 19.8912 18.194L19.8336 18.2868H9.15095L8.75935 17.7545C7.9387 16.6378 6.25875 16.6739 5.48689 17.8249L5.17732 18.2868L3.25837 18.2848C3.10384 18.2845 2.95652 18.2141 2.8736 18.0836C2.48813 17.4769 2.0468 16.3212 2.58747 15.2135C2.61964 15.1476 2.63698 15.0739 2.63337 15.0006C2.55206 13.3531 2.50588 12.9471 4.03864 11.3151C4.27587 11.0625 4.28009 10.6917 3.99568 10.3874C3.82014 10.1994 3.83641 9.78216 4.08845 9.73111Z" fill="#E05149"/>
<path d="M7.8394 8.53928C8.2527 8.51659 8.60634 8.83304 8.62944 9.24631C8.65233 9.65974 8.33576 10.0132 7.92241 10.0364C6.8369 10.0965 5.78722 10.1991 4.85405 10.3528C4.88249 10.4213 4.90581 10.4922 4.92338 10.5647H5.07866C5.49275 10.5647 5.8285 10.9006 5.82866 11.3147C5.82866 11.7289 5.49285 12.0646 5.07866 12.0647H4.36772C3.75611 12.7386 3.53329 13.0993 3.4351 13.4114C3.35569 13.664 3.34374 13.9189 3.35795 14.3625H4.03862C4.45262 14.3625 4.78827 14.6986 4.78862 15.1125C4.78862 15.5267 4.45283 15.8625 4.03862 15.8625H3.14506C2.98948 16.466 3.17695 17.088 3.42241 17.5334H4.85698C5.17255 16.5951 6.05749 15.9182 7.1021 15.9182C8.17602 15.9185 9.08097 16.6339 9.37163 17.6135C10.0524 17.6132 10.6886 17.6132 11.3941 17.6135C11.7671 17.6138 12.0698 17.9163 12.0699 18.2893C12.0695 18.6622 11.767 18.965 11.3941 18.9651C10.6849 18.9648 10.0544 18.9647 9.37163 18.9651C9.08057 19.944 8.17557 20.6582 7.1021 20.6584C6.0536 20.6584 5.16554 19.9771 4.85307 19.0334H3.25932C2.88698 19.0332 2.48004 18.8628 2.23979 18.4846C1.8067 17.8025 1.22568 16.3854 1.88139 14.9582C1.84398 14.2288 1.80703 13.5888 2.00444 12.9612C2.21824 12.2816 2.67673 11.6757 3.42534 10.8723C3.17759 10.5898 3.10644 10.2219 3.13628 9.93088C3.16599 9.64256 3.35022 9.11501 3.93999 8.99534C5.11116 8.75816 6.46645 8.61531 7.8394 8.53928ZM10.2476 8.46897C11.3672 8.46324 12.4505 8.49256 13.4097 8.54514C14.2132 8.58919 14.9351 8.65018 15.522 8.71995C16.0327 8.78066 16.5623 9.06708 17.0074 9.36155C17.4771 9.67237 17.9597 10.0651 18.3941 10.4504C19.0359 11.0198 19.6102 11.6057 19.9341 11.9543C21.1178 11.9676 22.4115 12.0553 23.4576 12.3039C24.0256 12.439 24.5832 12.636 25.0152 12.9397C25.4641 13.2553 25.8393 13.7381 25.8394 14.4026C25.8394 14.8745 25.8749 15.3262 25.896 15.8274C25.9158 16.2966 25.9227 16.8098 25.8335 17.2737C25.7422 17.749 25.5338 18.2564 25.0582 18.6125C24.6961 18.8835 24.2529 19.0103 23.7554 19.0364C23.4423 19.9783 22.5564 20.6581 21.5093 20.6584C20.436 20.6584 19.5305 19.9446 19.2388 18.966C17.4747 18.9662 15.7924 18.967 14.0318 18.966C13.6589 18.9656 13.3569 18.6632 13.357 18.2903C13.3572 17.9172 13.6597 17.6144 14.0328 17.6145C15.7927 17.6155 17.4734 17.6146 19.2378 17.6145C19.5284 16.6342 20.4348 15.9182 21.5093 15.9182C22.5536 15.9185 23.4371 16.5954 23.7525 17.5334C23.9877 17.512 24.1035 17.4535 24.1587 17.4123C24.2283 17.3602 24.3088 17.2565 24.3599 16.9905C24.4131 16.7132 24.4165 16.3536 24.397 15.8899C24.3876 15.6672 24.3733 15.4147 24.3609 15.1526H23.4986C23.0847 15.1522 22.7487 14.8165 22.7486 14.4026C22.7487 14.131 22.8946 13.8945 23.1109 13.7629L22.731 13.6828C21.8131 13.5128 20.6803 13.4524 19.5982 13.4524H17.7164C17.3024 13.4521 16.9664 13.1164 16.9664 12.7024C16.9666 12.2886 17.3026 11.9527 17.7164 11.9524H17.8121C17.6796 11.8279 17.5417 11.6991 17.399 11.5725C16.9917 11.2112 16.568 10.8692 16.1802 10.6125C15.768 10.3398 15.4865 10.2261 15.3453 10.2092C15.0734 10.1769 14.7664 10.1452 14.4312 10.1174L14.983 11.7815C15.0169 11.8835 15.1127 11.9522 15.2203 11.9524H15.4332C15.8472 11.9524 16.1829 12.2884 16.1832 12.7024C16.1832 13.1166 15.8474 13.4524 15.4332 13.4524H15.2203C14.4661 13.4522 13.7964 12.969 13.5591 12.2532L12.8179 10.0188C12.0204 9.98369 11.15 9.9644 10.2554 9.96897C9.84146 9.97094 9.50382 9.63683 9.50151 9.22288C9.49953 8.80888 9.83361 8.47125 10.2476 8.46897ZM7.1021 17.2698C6.5399 17.2698 6.08372 17.7257 6.08354 18.2883C6.08354 18.851 6.53979 19.3069 7.1021 19.3069C7.66412 19.3065 8.12065 18.8508 8.12065 18.2883C8.12047 17.7259 7.66401 17.2701 7.1021 17.2698ZM21.5093 17.2698C20.9471 17.2698 20.4909 17.7257 20.4908 18.2883C20.4908 18.851 20.947 19.3069 21.5093 19.3069C22.0713 19.3065 22.5279 18.8508 22.5279 18.2883C22.5277 17.726 22.0712 17.2701 21.5093 17.2698Z" fill="#332A2A"/>
</g>
<defs>
<clipPath id="clip0_2263_13341">
<rect width="28" height="28" fill="white"/>
</clipPath>
</defs>
</svg>
