<svg width="18" height="18" viewBox="0 0 18 18" fill="none" xmlns="http://www.w3.org/2000/svg">
<g clip-path="url(#clip0_2263_13343)">
<path d="M2.96312 6.19334C4.84078 5.87193 7.38643 5.88556 9.07347 6.0078C8.8614 6.08363 8.73577 6.33146 8.81077 6.57811L9.09397 7.50975C9.22207 7.9309 9.6108 8.21874 10.051 8.21874H11.5901C11.9408 8.21867 12.1587 7.87491 11.9416 7.59959C11.4727 7.0055 10.6401 6.31555 9.55296 6.04784C9.68392 6.06025 9.80758 6.07036 9.9221 6.08397C10.4634 6.14842 11.3441 6.90536 11.9504 7.49315C12.3758 7.9056 12.9419 8.15746 13.5334 8.19139C14.869 8.2678 16.129 8.53757 16.1291 9.25877C16.1291 10.5242 16.5147 11.8408 15.011 11.7558L14.9612 11.6875C14.4087 10.9189 13.254 10.9545 12.7502 11.7558H5.88304L5.843 11.7012C5.21234 10.8432 3.92126 10.8713 3.32835 11.7558L2.18284 11.7539C2.02817 11.7537 1.87944 11.6837 1.80198 11.5498C1.57175 11.1518 1.34584 10.4738 1.64671 9.81639C1.67722 9.74974 1.69526 9.67671 1.69163 9.6035L1.69065 9.59276C1.64019 8.5754 1.62747 8.30665 2.5969 7.2744C2.67503 7.19122 2.71356 7.08756 2.70823 6.98045C2.69547 6.72366 2.7099 6.23703 2.96312 6.19334Z" fill="#E05149"/>
<path d="M5.03173 5.34664C5.37627 5.32766 5.6708 5.59194 5.68994 5.93648C5.70882 6.28085 5.44541 6.5754 5.10107 6.59469C4.56964 6.62411 4.05192 6.66886 3.57177 6.73238C3.7608 6.83979 3.89001 7.04048 3.89013 7.2734C3.89013 7.61849 3.6102 7.89826 3.26513 7.8984H2.87451C2.51663 8.2979 2.39595 8.49965 2.34423 8.66402C2.30759 8.78053 2.29751 8.89781 2.29931 9.09078H2.59619C2.94133 9.09078 3.22113 9.37065 3.22119 9.71578C3.22095 10.0608 2.94122 10.3408 2.59619 10.3408H2.13916C2.09983 10.6152 2.17246 10.8955 2.28662 11.1289H2.97119C3.22178 10.4931 3.84015 10.043 4.56494 10.0429C5.29155 10.0429 5.91025 10.4955 6.15966 11.1337C6.84842 11.1337 7.53731 11.1337 8.22607 11.1337C8.57118 11.1338 8.85107 11.4136 8.85107 11.7587C8.8509 12.1037 8.57108 12.3837 8.22607 12.3837C7.53699 12.3837 6.84777 12.3837 6.15869 12.3837C5.90826 13.02 5.29005 13.4716 4.56494 13.4716C3.83806 13.4715 3.21841 13.0177 2.96923 12.3789H2.1831C1.8504 12.3788 1.47046 12.2257 1.26025 11.8623C0.989445 11.394 0.662937 10.4993 1.06494 9.58785C1.04156 9.13722 1.01978 8.70895 1.15185 8.28902C1.29794 7.82464 1.60832 7.41953 2.08252 6.90914C2.07988 6.76261 2.0844 6.56619 2.12451 6.37691C2.14947 6.25918 2.19617 6.10048 2.29345 5.95308C2.39799 5.79493 2.58084 5.62357 2.85791 5.57613L3.37548 5.49801C3.9048 5.42691 4.46622 5.37795 5.03173 5.34664ZM6.58642 5.30074C7.30919 5.29704 8.00885 5.31658 8.62841 5.35054C9.14723 5.37899 9.61454 5.41853 9.9956 5.46383C10.359 5.50709 10.723 5.7071 11.0122 5.8984C11.322 6.10338 11.6376 6.36126 11.9194 6.61129C12.3095 6.95733 12.6613 7.3137 12.8784 7.54488C13.627 7.55579 14.4439 7.61147 15.1128 7.77047C15.4853 7.85904 15.8643 7.99073 16.1636 8.20113C16.4769 8.42147 16.7544 8.77086 16.7544 9.25875C16.7544 9.55819 16.7767 9.8393 16.7905 10.1679C16.8032 10.4703 16.8083 10.8156 16.7476 11.1318C16.6849 11.4573 16.5384 11.8222 16.1938 12.08C15.9706 12.247 15.7087 12.3338 15.4253 12.3671C15.179 13.0119 14.5579 13.4716 13.8267 13.4716C13.1016 13.4715 12.4833 13.02 12.2329 12.3837C11.5656 12.3837 10.8981 12.3837 10.231 12.3837C9.8861 12.3835 9.60613 12.1036 9.60595 11.7587C9.60596 11.4137 9.88599 11.134 10.231 11.1337H12.2319C12.4813 10.4956 13.1001 10.0431 13.8267 10.0429C14.5393 10.0429 15.1492 10.4779 15.4077 11.0966C15.4289 11.0882 15.4405 11.0822 15.4448 11.0791C15.4509 11.0745 15.491 11.0465 15.52 10.8955C15.5508 10.735 15.554 10.5183 15.5415 10.2207C15.5303 9.95481 15.5054 9.60563 15.5044 9.27828C15.4971 9.26899 15.4818 9.24962 15.4448 9.22359C15.334 9.14572 15.1321 9.05961 14.8237 8.98629C14.2149 8.84158 13.3909 8.79099 12.5991 8.79097H11.3892C11.0441 8.79084 10.7642 8.511 10.7642 8.16597C10.7642 7.90946 10.9191 7.68901 11.1401 7.59273C11.1234 7.57772 11.1072 7.56183 11.0903 7.54683C10.8311 7.31683 10.5643 7.10121 10.3227 6.94136C10.0611 6.76826 9.90395 6.71182 9.84814 6.70504C9.73543 6.69164 9.61264 6.68023 9.48193 6.66793L9.72412 7.3984C9.75224 7.48323 9.83203 7.54084 9.92138 7.54097C10.2665 7.54097 10.5463 7.82085 10.5464 8.16597C10.5463 8.51109 10.2665 8.79097 9.92138 8.79097C9.29323 8.79084 8.73526 8.38821 8.53759 7.79195L8.13623 6.58101C7.65263 6.56123 7.12985 6.54799 6.59326 6.55074C6.2482 6.55247 5.96724 6.27467 5.96533 5.92965C5.96362 5.58469 6.24152 5.30278 6.58642 5.30074ZM4.56494 11.2929C4.30901 11.2931 4.10129 11.5005 4.10107 11.7568C4.10128 12.013 4.30901 12.2215 4.56494 12.2216C4.82099 12.2216 5.0286 12.0131 5.0288 11.7568C5.02859 11.5005 4.82099 11.2929 4.56494 11.2929ZM13.8267 11.2929C13.5707 11.2931 13.363 11.5006 13.3628 11.7568C13.363 12.013 13.5707 12.2215 13.8267 12.2216C14.0827 12.2216 14.2903 12.0131 14.2905 11.7568C14.2903 11.5005 14.0827 11.2929 13.8267 11.2929Z" fill="#332A2A"/>
</g>
<defs>
<clipPath id="clip0_2263_13343">
<rect width="18" height="18" fill="white"/>
</clipPath>
</defs>
</svg>
