<svg width="23" height="23" viewBox="0 0 23 23" fill="none" xmlns="http://www.w3.org/2000/svg">
<g clip-path="url(#clip0_2263_13278)">
<path d="M6.43658 6.95564C6.80853 6.93522 7.12671 7.22045 7.14752 7.59236C7.16791 7.96433 6.88276 8.28256 6.5108 8.3033C5.64885 8.35103 4.81544 8.43396 4.0694 8.5533C4.07686 8.57501 4.08468 8.59685 4.09088 8.61873H4.17194C4.54447 8.61887 4.84749 8.922 4.84772 9.29451C4.84755 9.62033 4.61582 9.89249 4.30865 9.95564L4.17194 9.96932H3.61432C3.12709 10.5084 2.95388 10.7928 2.87799 11.0338C2.81876 11.2221 2.80786 11.4123 2.81647 11.7388H3.31842C3.69063 11.7392 3.99275 12.0415 3.99322 12.4137C3.99322 12.7862 3.69093 13.0891 3.31842 13.0894H2.62897C2.52964 13.5366 2.66245 13.9963 2.84674 14.3433H3.88385C4.16502 13.5364 4.93018 12.9568 5.83307 12.9566C6.73788 12.9566 7.50437 13.5387 7.78424 14.3482C8.31109 14.3479 8.81042 14.3479 9.35944 14.3482C9.73203 14.3484 10.0341 14.6505 10.0342 15.023C10.0341 15.3958 9.73125 15.698 9.35846 15.6978C8.80504 15.6976 8.31178 15.6982 7.78326 15.6988C7.50298 16.5078 6.73735 17.0904 5.83307 17.0904C4.92701 17.0902 4.15965 16.5055 3.88092 15.6939H2.72174C2.37153 15.6939 1.98467 15.5327 1.76178 15.1685C1.40972 14.5931 0.957336 13.4398 1.48639 12.274C1.45597 11.6835 1.42664 11.1506 1.59088 10.6285C1.76892 10.0631 2.14789 9.56196 2.75201 8.9117C2.64167 8.67099 2.6105 8.39278 2.64362 8.15486C2.67678 7.91807 2.83682 7.4034 3.40045 7.29646L3.75299 7.23396C4.58708 7.09539 5.50704 7.00711 6.43658 6.95564ZM8.41803 6.89705C9.3388 6.89235 10.2296 6.91728 11.0186 6.96053C11.6796 6.99677 12.2742 7.04658 12.7579 7.10408C13.1919 7.15577 13.6371 7.39746 14.004 7.64021C14.3931 7.89772 14.7915 8.22306 15.1495 8.5406C15.668 9.00066 16.1324 9.47455 16.4024 9.76424C17.3693 9.77621 18.4258 9.84553 19.2833 10.0494C19.7528 10.1611 20.2194 10.325 20.5831 10.5806C20.9619 10.8471 21.2851 11.26 21.2852 11.8306C21.2852 12.2165 21.3137 12.5835 21.3311 12.9976C21.3474 13.3834 21.353 13.8122 21.2784 14.2008C21.2017 14.5993 21.0257 15.0321 20.6192 15.3365C20.3366 15.548 19.9976 15.6536 19.6231 15.6871C19.3464 16.5024 18.5768 17.0904 17.668 17.0904C16.7639 17.0904 15.9973 16.5085 15.7169 15.6998C14.2993 15.7 12.9428 15.7008 11.5255 15.6998C11.153 15.6991 10.8514 15.3965 10.8516 15.024C10.852 14.6515 11.154 14.3493 11.5264 14.3492C12.9431 14.3502 14.2979 14.3494 15.7159 14.3492C15.9954 13.539 16.7627 12.9566 17.668 12.9566C18.5652 12.9567 19.3268 13.5288 19.6124 14.3277C19.7253 14.3062 19.7836 14.2756 19.8106 14.2554C19.8518 14.2244 19.9129 14.1549 19.9532 13.9459C19.9955 13.7256 19.9985 13.4357 19.9825 13.0553C19.9755 12.8895 19.9648 12.7014 19.9551 12.5054H19.3028C18.9303 12.5052 18.6281 12.2032 18.628 11.8306C18.6281 11.6351 18.7128 11.4597 18.8458 11.3365C18.0685 11.1697 17.0612 11.109 16.0987 11.109H14.5538C14.181 11.109 13.879 10.807 13.879 10.4342C13.8792 10.0843 14.1454 9.79902 14.4864 9.76521C14.41 9.69463 14.3331 9.62141 14.253 9.55037C13.9194 9.25444 13.5743 8.97491 13.2588 8.76619C12.9217 8.54311 12.7003 8.45719 12.5987 8.4449C12.4003 8.42132 12.1787 8.39924 11.9385 8.3785L12.3233 9.5367C12.3674 9.66956 12.4919 9.75932 12.6319 9.75935H12.6778C13.0503 9.75949 13.3533 10.0617 13.3536 10.4342C13.3536 10.8069 13.0505 11.1088 12.6778 11.109H12.6319C11.91 11.1089 11.2693 10.6467 11.0421 9.9615L10.4864 8.2867C9.84331 8.25906 9.14363 8.24396 8.42487 8.24764C8.05208 8.24955 7.74806 7.94855 7.74615 7.57576C7.74454 7.20322 8.04542 6.89896 8.41803 6.89705ZM5.83307 14.3062C5.4377 14.3064 5.1164 14.6273 5.11627 15.023C5.11644 15.4188 5.43772 15.7396 5.83307 15.7398C6.22859 15.7398 6.5497 15.4189 6.54987 15.023C6.54974 14.6271 6.22861 14.3062 5.83307 14.3062ZM17.668 14.3062C17.2725 14.3062 16.9514 14.6271 16.9512 15.023C16.9514 15.4189 17.2725 15.7398 17.668 15.7398C18.0635 15.7398 18.3847 15.4189 18.3848 15.023C18.3847 14.6272 18.0635 14.3063 17.668 14.3062Z" fill="#332A2A"/>
</g>
<defs>
<clipPath id="clip0_2263_13278">
<rect width="23" height="23" fill="white"/>
</clipPath>
</defs>
</svg>
