<svg width="23" height="23" viewBox="0 0 23 23" fill="none" xmlns="http://www.w3.org/2000/svg">
<g clip-path="url(#clip0_2263_13342)">
<path d="M3.52516 7.9608C5.889 7.51277 9.20194 7.51274 11.4373 7.66393C11.2427 7.75612 11.1317 7.99152 11.2029 8.22643L11.6795 9.79381C11.8076 10.2148 12.1964 10.5028 12.6365 10.5028H15.0115C15.3621 10.5026 15.5847 10.1565 15.3797 9.87193C14.8064 9.07656 13.6816 8.08499 12.1804 7.7235C12.3574 7.74008 12.5237 7.75697 12.6775 7.77525C13.4268 7.86433 14.6858 8.99114 15.4558 9.75768C15.8757 10.1756 16.4411 10.4295 17.033 10.4549C18.8321 10.5321 20.6091 10.8636 20.6091 11.8319C20.6092 13.4488 21.1016 15.1309 19.1804 15.0223L19.117 14.9344C18.411 13.9524 16.9355 13.9984 16.2918 15.0223H7.51637L7.46559 14.953C6.65983 13.8563 5.01039 13.8919 4.2527 15.0223L2.72047 15.0204C2.56582 15.0202 2.41742 14.9491 2.33668 14.8172C2.02826 14.3132 1.69701 13.3974 2.11695 12.5155C2.14848 12.4493 2.1655 12.3758 2.16188 12.3026C2.09573 10.9658 2.06429 10.6288 3.31715 9.29479C3.47766 9.12387 3.50835 8.88769 3.38356 8.66979C3.25568 8.44665 3.27247 8.00869 3.52516 7.9608Z" fill="#E05149"/>
<path d="M6.43599 6.95613C6.80819 6.93555 7.12632 7.22065 7.14693 7.59285C7.16716 7.96479 6.88221 8.28319 6.51021 8.30379C5.64829 8.35153 4.8148 8.43444 4.0688 8.55379C4.07629 8.57556 4.08408 8.59727 4.09029 8.61922H4.17134C4.54413 8.61922 4.84712 8.92221 4.84712 9.295C4.84681 9.6208 4.61529 9.89312 4.30806 9.95613L4.17134 9.96981H3.61372C3.12644 10.509 2.95319 10.7933 2.8774 11.0343C2.81825 11.2226 2.80725 11.4128 2.81587 11.7393H3.31782C3.69029 11.7395 3.99238 12.0417 3.99263 12.4141C3.99247 12.7867 3.69035 13.0897 3.31782 13.0899H2.62837C2.52918 13.5371 2.66184 13.9969 2.84615 14.3438H3.88325C4.16422 13.5363 4.93011 12.9562 5.83345 12.9561C6.73822 12.9561 7.50472 13.5382 7.78462 14.3477C8.31146 14.3474 8.81078 14.3475 9.35982 14.3477C9.73233 14.3479 10.0344 14.6501 10.0346 15.0225C10.0344 15.3953 9.73163 15.6975 9.35884 15.6973C8.8054 15.6971 8.31215 15.6977 7.78365 15.6983C7.50346 16.5075 6.73785 17.0899 5.83345 17.0899C4.92742 17.0899 4.15922 16.5059 3.88032 15.6944H2.72115C2.37106 15.6943 1.98399 15.533 1.76118 15.169C1.40914 14.5937 0.956969 13.4402 1.48579 12.2745C1.45537 11.684 1.42615 11.1511 1.59029 10.629C1.76823 10.0635 2.14733 9.56244 2.75142 8.91219C2.64103 8.67154 2.60997 8.39328 2.64302 8.15535C2.67603 7.91883 2.83624 7.40415 3.39986 7.29695L3.7524 7.23445C4.58644 7.09587 5.50648 7.00761 6.43599 6.95613ZM8.41743 6.89754C9.33814 6.89283 10.229 6.91778 11.018 6.96102C11.679 6.99725 12.2736 7.04708 12.7573 7.10457C13.1914 7.1562 13.6365 7.39794 14.0034 7.6407C14.3925 7.8982 14.7909 8.22356 15.1489 8.54109C15.6675 9.00118 16.1318 9.47505 16.4018 9.76473C17.3686 9.77669 18.4252 9.84606 19.2827 10.0499C19.7522 10.1616 20.2188 10.3255 20.5825 10.5811C20.9614 10.8476 21.2846 11.2603 21.2846 11.8311C21.2846 12.217 21.3131 12.5839 21.3305 12.9981C21.3468 13.384 21.3525 13.8127 21.2778 14.2013C21.201 14.5998 21.0253 15.0327 20.6186 15.337C20.3356 15.5486 19.9965 15.6542 19.6215 15.6876C19.3445 16.5022 18.5766 17.0897 17.6684 17.0899C16.7643 17.0899 15.9976 16.5081 15.7172 15.6993C14.2996 15.6995 12.9433 15.7003 11.5258 15.6993C11.1533 15.6988 10.8518 15.3961 10.852 15.0235C10.8525 14.6511 11.1544 14.3487 11.5268 14.3487C12.9436 14.3497 14.2982 14.3489 15.7163 14.3487C15.9959 13.5386 16.7632 12.9561 17.6684 12.9561C18.5653 12.9563 19.3261 13.5286 19.6118 14.3272C19.7245 14.3059 19.7828 14.2762 19.81 14.2559C19.8512 14.225 19.9122 14.1557 19.9526 13.9464C19.9949 13.726 19.9979 13.4363 19.9819 13.0557C19.9749 12.8899 19.9642 12.7019 19.9545 12.5059H19.3022C18.9299 12.5055 18.6276 12.2034 18.6274 11.8311C18.6274 11.6356 18.7123 11.4603 18.8452 11.337C18.0679 11.1703 17.0605 11.1095 16.0981 11.1095H14.5532C14.1807 11.1092 13.8785 10.8072 13.8784 10.4346C13.8784 10.0848 14.1449 9.79972 14.4858 9.7657C14.4094 9.69512 14.3325 9.6219 14.2524 9.55086C13.9188 9.25493 13.5737 8.9754 13.2583 8.76668C12.921 8.54352 12.6996 8.45759 12.5981 8.44539C12.3998 8.42182 12.1781 8.39972 11.9379 8.37898L12.3227 9.53719C12.3668 9.66984 12.4915 9.75963 12.6313 9.75984H12.6772C13.05 9.75984 13.353 10.0619 13.353 10.4346C13.3528 10.8073 13.0499 11.1095 12.6772 11.1095H12.6313C11.9096 11.1092 11.2687 10.6469 11.0415 9.96199L10.4858 8.28719C9.84275 8.25955 9.14297 8.24445 8.42427 8.24813C8.05177 8.24981 7.74763 7.94876 7.74556 7.57625C7.74372 7.20366 8.04488 6.89968 8.41743 6.89754ZM5.83345 14.3057C5.43794 14.3058 5.11678 14.6267 5.11665 15.0225C5.11668 15.4185 5.43788 15.7393 5.83345 15.7393C6.22905 15.7393 6.55022 15.4185 6.55025 15.0225C6.55012 14.6266 6.22899 14.3058 5.83345 14.3057ZM17.6684 14.3057C17.2729 14.3057 16.9517 14.6266 16.9516 15.0225C16.9516 15.4185 17.2728 15.7393 17.6684 15.7393C18.0638 15.7391 18.3852 15.4184 18.3852 15.0225C18.3851 14.6268 18.0638 14.306 17.6684 14.3057Z" fill="#332A2A"/>
</g>
<defs>
<clipPath id="clip0_2263_13342">
<rect width="23" height="23" fill="white"/>
</clipPath>
</defs>
</svg>
