<svg width="44" height="44" viewBox="0 0 44 44" fill="none" xmlns="http://www.w3.org/2000/svg">
<g clip-path="url(#clip0_2263_13340)">
<path d="M5.89215 15.4059C10.2842 14.4087 16.8602 14.3547 21.4058 14.6295C21.263 14.7471 21.1929 14.9482 21.2535 15.1481L22.5406 19.3825C22.6687 19.8035 23.0575 20.0914 23.4976 20.0914H29.3814C29.7322 20.0914 29.9656 19.7434 29.7877 19.4411C28.8609 17.867 26.5473 15.5597 23.3218 14.776C23.6529 14.8072 23.9641 14.8394 24.2525 14.8737C25.9029 15.0699 28.8455 17.8984 30.1656 19.276C30.5756 19.7037 31.1396 19.9598 31.732 19.9723C35.4412 20.0504 39.4257 20.6282 39.4263 22.6334C39.4263 25.7269 40.3683 28.946 36.692 28.7379L35.4791 27.0504C34.6503 25.8978 32.9184 25.9512 32.1627 27.153L31.1666 28.7379H14.3795L12.8013 26.5885C11.9806 25.4715 10.2997 25.5084 9.5279 26.6598L8.13532 28.7379L4.98102 28.733C4.82638 28.7328 4.67914 28.6628 4.59235 28.5348C3.96513 27.6096 3.16331 25.6823 4.0943 23.8502C4.12746 23.785 4.14469 23.7104 4.14118 23.6373C4.01161 20.9948 3.9182 20.3673 6.34626 17.7819C6.81301 17.2849 6.70557 16.4968 5.85309 15.987C5.63246 15.8549 5.64139 15.4628 5.89215 15.4059Z" fill="#E05149"/>
<path d="M12.3431 13.8468C12.7564 13.8241 13.111 14.1405 13.1341 14.5538C13.157 14.9673 12.8394 15.3208 12.4261 15.3439C10.4711 15.4521 8.58332 15.6481 6.95048 15.9532C7.13162 16.1821 7.26162 16.4394 7.32646 16.7179C7.35072 16.8222 7.36159 16.927 7.36649 17.0304H7.98173C8.39567 17.0306 8.73158 17.3664 8.73173 17.7804C8.73168 18.1684 8.43665 18.4877 8.05888 18.5265L7.98173 18.5304H6.67606C5.61105 19.6872 5.18107 20.3409 4.99052 20.9464C4.82018 21.4882 4.82032 22.0365 4.86356 22.9991H6.34794C6.76173 22.9995 7.09779 23.3353 7.09794 23.7491C7.09782 24.163 6.76175 24.4987 6.34794 24.4991H4.63114C4.1368 25.8075 4.62647 27.1758 5.13017 27.9816H7.90946C8.25279 26.5032 9.57685 25.4006 11.1595 25.4005C12.7718 25.4005 14.1169 26.5445 14.429 28.0646C15.6146 28.0641 16.6934 28.0631 17.9056 28.0636C18.2783 28.064 18.5801 28.3666 18.5804 28.7394C18.5802 29.1126 18.2778 29.4153 17.9046 29.4152C16.6885 29.4146 15.6174 29.4156 14.428 29.4161C14.1151 30.9351 12.7711 32.0773 11.1595 32.0773C9.57122 32.0771 8.24309 30.9677 7.90556 29.4816H4.98271C4.60746 29.4814 4.21348 29.3096 3.97196 28.9532C3.29535 27.9547 2.33432 25.7554 3.38993 23.5861C3.32907 22.3748 3.26637 21.4265 3.55888 20.4962C3.873 19.4979 4.56533 18.5825 5.80106 17.2667C5.8691 17.194 5.88151 17.1267 5.86552 17.0577C5.84682 16.9776 5.76392 16.8054 5.46903 16.629C5.06912 16.3898 4.93171 15.9618 4.94853 15.629C4.96591 15.2898 5.17265 14.7991 5.72782 14.673C7.65975 14.2345 9.9791 13.9777 12.3431 13.8468ZM16.1058 13.7364C17.8567 13.7275 19.5509 13.7744 21.0501 13.8566C22.3061 13.9254 23.4309 14.0197 24.3421 14.128C25.0391 14.211 25.8004 14.6118 26.4905 15.0685C27.2055 15.5415 27.9464 16.1445 28.6214 16.7433C29.7116 17.7105 30.6723 18.7073 31.1341 19.213C33.0327 19.2266 35.1107 19.358 36.764 19.7511C37.6347 19.9581 38.4505 20.2518 39.0647 20.6837C39.6957 21.1274 40.1768 21.77 40.177 22.6319C40.177 23.3851 40.2346 24.1208 40.2669 24.8888C40.2979 25.6248 40.305 26.3877 40.1751 27.0636C40.043 27.7508 39.752 28.4326 39.1204 28.9054C38.5809 29.3091 37.885 29.4899 37.0501 29.4943C36.7078 30.974 35.3829 32.0773 33.7991 32.0773C32.188 32.077 30.8437 30.9356 30.5306 29.4171C27.6491 29.4173 24.9157 29.4187 22.0501 29.4171C21.6772 29.4165 21.3751 29.1142 21.3753 28.7413C21.3757 28.3684 21.6782 28.0656 22.0511 28.0655C24.916 28.0672 27.6476 28.0657 30.5296 28.0655C30.8413 26.5451 32.1866 25.4007 33.7991 25.4005C35.3867 25.4005 36.7147 26.5099 37.053 27.9952C37.673 27.9906 38.0203 27.8551 38.222 27.7042C38.4472 27.5354 38.6106 27.2579 38.7024 26.7804C38.7963 26.2914 38.7986 25.6825 38.7679 24.9523C38.7476 24.4721 38.7136 23.9307 38.6936 23.3819H36.928C36.5138 23.3819 36.178 23.0462 36.178 22.6319C36.1784 22.2181 36.5141 21.8819 36.928 21.8819H38.1575C37.7686 21.6216 37.1817 21.3929 36.4173 21.2111C34.8392 20.8359 32.7513 20.7111 30.7981 20.7111H27.8411C27.4271 20.7108 27.0911 20.3751 27.0911 19.9611C27.0914 19.5472 27.4273 19.2113 27.8411 19.2111H29.053C28.6406 18.8001 28.15 18.33 27.6263 17.8653C26.9784 17.2906 26.2964 16.7383 25.6634 16.3194C25.0058 15.8844 24.4928 15.6564 24.1653 15.6173C23.5633 15.5457 22.8561 15.4801 22.0706 15.4239L23.2688 19.0402C23.3028 19.1423 23.3985 19.211 23.5061 19.2111H24.2542C24.6679 19.2115 25.0039 19.5473 25.0042 19.9611C25.0042 20.375 24.6681 20.7106 24.2542 20.7111H23.5061C22.7519 20.711 22.0823 20.2278 21.845 19.5118L20.4583 15.3292C19.1184 15.2651 17.6382 15.2286 16.1136 15.2364C15.6995 15.2384 15.3618 14.9045 15.3597 14.4903C15.3577 14.0764 15.6918 13.7388 16.1058 13.7364ZM11.1595 26.7521C10.0627 26.7522 9.17328 27.6421 9.17313 28.7394C9.17337 29.8365 10.0628 30.7255 11.1595 30.7257C12.2563 30.7257 13.1456 29.8366 13.1458 28.7394C13.1456 27.642 12.2563 26.7521 11.1595 26.7521ZM33.7991 26.7521C32.7025 26.7523 31.8129 27.6422 31.8128 28.7394C31.813 29.8365 32.7025 30.7254 33.7991 30.7257C34.8959 30.7257 35.7852 29.8366 35.7854 28.7394C35.7853 27.642 34.896 26.7521 33.7991 26.7521Z" fill="#332A2A"/>
</g>
<defs>
<clipPath id="clip0_2263_13340">
<rect width="44" height="44" fill="white"/>
</clipPath>
</defs>
</svg>
