<svg width="18" height="18" viewBox="0 0 18 18" fill="none" xmlns="http://www.w3.org/2000/svg">
<g clip-path="url(#clip0_2263_13279)">
<path d="M5.03169 5.34664C5.3761 5.32766 5.67057 5.59212 5.68989 5.93648C5.70877 6.28085 5.44536 6.5754 5.10102 6.59469C4.56961 6.62411 4.05185 6.66887 3.57173 6.73238C3.76065 6.83973 3.88983 7.04064 3.89009 7.2734C3.89009 7.61849 3.61015 7.89826 3.26509 7.8984H2.87446C2.51681 8.29766 2.39596 8.4997 2.34419 8.66402C2.30756 8.78046 2.29748 8.89803 2.29926 9.09078H2.59614C2.94116 9.09078 3.22089 9.37082 3.22114 9.71578C3.2209 10.0608 2.94117 10.3408 2.59614 10.3408H2.13911C2.0998 10.6151 2.17251 10.8955 2.28657 11.1289H2.97114C3.22179 10.4933 3.84024 10.0431 4.56489 10.0429C5.29138 10.0429 5.91011 10.4957 6.15962 11.1337C6.8484 11.1337 7.53724 11.1337 8.22602 11.1337C8.57116 11.1338 8.851 11.4136 8.85102 11.7587C8.85102 12.1039 8.57118 12.3837 8.22602 12.3837C7.53691 12.3837 6.84775 12.3837 6.15864 12.3837C5.90828 13.0202 5.29011 13.4716 4.56489 13.4716C3.83792 13.4715 3.21827 13.0178 2.96919 12.3789H2.18305C1.85037 12.3788 1.4704 12.2257 1.2602 11.8623C0.989432 11.3939 0.662979 10.4991 1.06489 9.58785C1.04152 9.13735 1.01977 8.70883 1.1518 8.28902C1.29793 7.82477 1.60837 7.41942 2.08247 6.90914C2.07985 6.76265 2.08439 6.56603 2.12446 6.37691C2.14944 6.25922 2.19621 6.10034 2.29341 5.95308C2.39796 5.79499 2.58093 5.62356 2.85786 5.57613L3.37544 5.49801C3.90474 5.42691 4.4662 5.37795 5.03169 5.34664ZM6.58637 5.30074C7.3091 5.29704 8.00883 5.31659 8.62837 5.35054C9.14713 5.37898 9.61451 5.41853 9.99555 5.46383C10.3588 5.50708 10.723 5.70715 11.0122 5.8984C11.3219 6.10332 11.6376 6.36132 11.9194 6.61129C12.3093 6.95721 12.6612 7.31369 12.8784 7.54488C13.6269 7.55579 14.4439 7.6115 15.1127 7.77047C15.4852 7.85902 15.8643 7.99082 16.1635 8.20113C16.4768 8.42141 16.7542 8.77105 16.7543 9.25875C16.7544 9.55807 16.7766 9.83946 16.7905 10.1679C16.8032 10.4702 16.8082 10.8157 16.7475 11.1318C16.6849 11.4573 16.5383 11.8222 16.1938 12.08C15.9705 12.247 15.7086 12.3338 15.4252 12.3671C15.1791 13.0121 14.5579 13.4716 13.8266 13.4716C13.1015 13.4715 12.4832 13.0201 12.2329 12.3837C11.5656 12.3837 10.8981 12.3837 10.2309 12.3837C9.88595 12.3835 9.60591 12.1038 9.60591 11.7587C9.60593 11.4137 9.88596 11.134 10.2309 11.1337H12.2319C12.4814 10.4958 13.1002 10.0431 13.8266 10.0429C14.5391 10.0429 15.149 10.478 15.4077 11.0966C15.4288 11.0882 15.4405 11.0822 15.4448 11.0791C15.4512 11.0743 15.4911 11.0456 15.52 10.8955C15.5507 10.735 15.554 10.5181 15.5415 10.2207C15.5302 9.95486 15.5053 9.60548 15.5043 9.27828C15.497 9.26889 15.4814 9.24938 15.4448 9.22359C15.3339 9.14576 15.1319 9.05956 14.8237 8.98629C14.2149 8.84161 13.3908 8.79099 12.5991 8.79097H11.3891C11.0441 8.79079 10.7642 8.51098 10.7641 8.16597C10.7643 7.90961 10.9191 7.68896 11.1401 7.59273C11.1235 7.57778 11.1071 7.56176 11.0903 7.54683C10.8311 7.3169 10.5642 7.10116 10.3227 6.94136C10.0612 6.76838 9.90388 6.71182 9.84809 6.70504C9.73542 6.69165 9.61254 6.68023 9.48188 6.66793L9.72407 7.3984C9.75218 7.48321 9.83202 7.5408 9.92134 7.54097C10.2664 7.54097 10.5461 7.82101 10.5463 8.16597C10.5463 8.51109 10.2665 8.79097 9.92134 8.79097C9.29322 8.7908 8.7352 8.38819 8.53755 7.79195L8.13618 6.58101C7.65261 6.56124 7.12977 6.54799 6.59321 6.55074C6.2482 6.55242 5.96719 6.27465 5.96528 5.92965C5.96377 5.58488 6.24163 5.30282 6.58637 5.30074ZM4.56489 11.2929C4.309 11.2931 4.10124 11.5006 4.10102 11.7568C4.10103 12.0132 4.30888 12.2214 4.56489 12.2216C4.82107 12.2216 5.02875 12.0133 5.02876 11.7568C5.02854 11.5005 4.82094 11.2929 4.56489 11.2929ZM13.8266 11.2929C13.5707 11.2931 13.363 11.5006 13.3627 11.7568C13.3628 12.0132 13.5706 12.2214 13.8266 12.2216C14.0828 12.2216 14.2905 12.0133 14.2905 11.7568C14.2903 11.5005 14.0827 11.2929 13.8266 11.2929Z" fill="#332A2A"/>
</g>
<defs>
<clipPath id="clip0_2263_13279">
<rect width="18" height="18" fill="white"/>
</clipPath>
</defs>
</svg>
