<svg width="44" height="44" viewBox="0 0 44 44" fill="none" xmlns="http://www.w3.org/2000/svg">
<g clip-path="url(#clip0_2263_13276)">
<path d="M12.3424 13.8478C12.756 13.8249 13.1106 14.1412 13.1335 14.5548C13.1562 14.9682 12.8389 15.3219 12.4254 15.3448C10.4704 15.4531 8.58275 15.649 6.94986 15.9542C7.13099 16.1831 7.26103 16.4404 7.32584 16.7189C7.35007 16.8232 7.36098 16.928 7.36588 17.0314H7.98111C8.39532 17.0314 8.73111 17.3672 8.73111 17.7814C8.73088 18.1693 8.43611 18.4889 8.05826 18.5275L7.98111 18.5314H6.67545C5.61041 19.6883 5.18038 20.3418 4.9899 20.9474C4.81966 21.4891 4.8197 22.0375 4.86295 23.0001H6.34732C6.76138 23.0003 7.09732 23.336 7.09732 23.7501C7.097 24.1639 6.76119 24.4999 6.34732 24.5001H4.63052C4.13641 25.8083 4.6259 27.1768 5.12955 27.9825H7.90884C8.25192 26.5037 9.57683 25.4015 11.1598 25.4015C12.7722 25.4016 14.1164 26.5452 14.4284 28.0655C15.6143 28.0651 16.6935 28.0641 17.9059 28.0646C18.2787 28.065 18.5807 28.3675 18.5807 28.7403C18.5804 29.1134 18.278 29.4162 17.9049 29.4161C16.6885 29.4156 15.6171 29.4166 14.4274 29.4171C14.1142 30.9357 12.7711 32.0782 11.1598 32.0782C9.57172 32.0782 8.24372 30.9684 7.90591 29.4825H4.98209C4.60695 29.4824 4.21283 29.3104 3.97134 28.9542C3.29476 27.9558 2.33398 25.7562 3.38931 23.587C3.32846 22.3758 3.26586 21.4274 3.55826 20.4972C3.87231 19.4988 4.56472 18.5835 5.80045 17.2677C5.86866 17.195 5.88081 17.1277 5.8649 17.0587C5.84628 16.9787 5.76361 16.8066 5.46841 16.63C5.06865 16.3908 4.93121 15.9628 4.94791 15.63C4.96519 15.2908 5.17204 14.8002 5.7272 14.6739C7.65917 14.2354 9.97837 13.9787 12.3424 13.8478ZM16.1051 13.7374C17.8561 13.7284 19.5502 13.7754 21.0495 13.8575C22.3055 13.9264 23.4302 14.0207 24.3415 14.129C25.0386 14.2119 25.7996 14.6127 26.4899 15.0695C27.2049 15.5425 27.9457 16.1454 28.6208 16.7443C29.711 17.7115 30.6717 18.7083 31.1335 19.214C33.0322 19.2276 35.11 19.359 36.7633 19.7521C37.6342 19.9591 38.4498 20.2528 39.0641 20.6847C39.6951 21.1284 40.1762 21.7708 40.1764 22.6329C40.1764 23.3861 40.2339 24.1219 40.2663 24.8898C40.2972 25.6258 40.3044 26.3887 40.1745 27.0646C40.0423 27.7518 39.7515 28.4336 39.1198 28.9064C38.5804 29.3098 37.885 29.4908 37.0504 29.4952C36.708 30.9748 35.3831 32.0782 33.7995 32.0782C32.1884 32.0782 30.8444 30.9363 30.5309 29.4181C27.6493 29.4182 24.9161 29.4197 22.0504 29.4181C21.6776 29.4177 21.3757 29.1152 21.3756 28.7423C21.3759 28.3692 21.6783 28.0664 22.0514 28.0665C24.9161 28.0681 27.6472 28.0667 30.529 28.0665C30.8404 26.5455 32.1866 25.4015 33.7995 25.4015C35.3869 25.4015 36.7139 26.5101 37.0524 27.9952C37.6725 27.9907 38.0196 27.8561 38.2213 27.7052C38.4467 27.5365 38.6099 27.2589 38.7018 26.7814C38.7958 26.2924 38.798 25.6835 38.7672 24.9532C38.747 24.4731 38.713 23.9317 38.693 23.3829H36.9274C36.5134 23.3828 36.1776 23.0469 36.1774 22.6329C36.1777 22.219 36.5134 21.883 36.9274 21.8829H38.1569C37.768 21.6226 37.1812 21.3939 36.4167 21.212C34.8385 20.8368 32.7508 20.712 30.7975 20.712H27.8405C27.4267 20.7117 27.0907 20.3759 27.0905 19.962C27.0906 19.5481 27.4266 19.2124 27.8405 19.212H29.0524C28.64 18.801 28.1493 18.3309 27.6256 17.8663C26.9777 17.2915 26.2958 16.7393 25.6628 16.3204C25.005 15.8852 24.4921 15.6572 24.1647 15.6183C23.5626 15.5467 22.8556 15.4811 22.07 15.4249L23.2682 19.0411C23.3022 19.1431 23.3981 19.2119 23.5055 19.212H24.2536C24.6675 19.2122 25.0035 19.548 25.0036 19.962C25.0034 20.376 24.6675 20.7118 24.2536 20.712H23.5055C22.7515 20.7119 22.0818 20.2285 21.8444 19.5128L20.4577 15.3302C19.1177 15.266 17.6376 15.2296 16.1129 15.2374C15.699 15.2393 15.3614 14.9052 15.359 14.4913C15.3569 14.0773 15.6912 13.7398 16.1051 13.7374ZM11.1598 26.753C10.0629 26.7531 9.17349 27.6429 9.17349 28.7403C9.17392 29.8374 10.0632 30.7267 11.1598 30.7267C12.2564 30.7266 13.1457 29.8374 13.1461 28.7403C13.1461 27.6429 12.2567 26.7531 11.1598 26.753ZM33.7995 26.753C32.7025 26.7531 31.8131 27.6429 31.8131 28.7403C31.8136 29.8374 32.7028 30.7266 33.7995 30.7267C34.8961 30.7267 35.7854 29.8374 35.7858 28.7403C35.7858 27.6429 34.8964 26.753 33.7995 26.753Z" fill="#332A2A"/>
</g>
<defs>
<clipPath id="clip0_2263_13276">
<rect width="44" height="44" fill="white"/>
</clipPath>
</defs>
</svg>
