<svg width="23" height="23" viewBox="0 0 23 23" fill="none" xmlns="http://www.w3.org/2000/svg">
<g clip-path="url(#clip0_1053_12011)">
<circle cx="11.4999" cy="11.5002" r="9.10417" fill="#E05149"/>
<path fill-rule="evenodd" clip-rule="evenodd" d="M3.07095 11.4999C3.07095 6.84457 6.84481 3.0707 11.5001 3.0707C11.8729 3.0707 12.1751 2.7685 12.1751 2.3957C12.1751 2.02291 11.8729 1.7207 11.5001 1.7207C6.09923 1.7207 1.72095 6.09899 1.72095 11.4999C1.72095 13.609 2.38941 15.564 3.52595 17.1619C3.74201 17.4657 4.16344 17.5368 4.46723 17.3208C4.77102 17.1047 4.84213 16.6833 4.62607 16.3795C3.64671 15.0025 3.07095 13.3194 3.07095 11.4999ZM15.2228 2.4544C14.8781 2.3124 14.4836 2.47671 14.3416 2.8214C14.1996 3.16609 14.3639 3.56063 14.7086 3.70263C15.9508 4.21437 17.0447 5.01489 17.9061 6.02114C19.1679 7.4949 19.9293 9.40761 19.9293 11.4999C19.9293 14.0782 18.7725 16.3857 16.9472 17.9329C16.6628 18.1739 16.6277 18.5999 16.8687 18.8842C17.1098 19.1686 17.5357 19.2037 17.8201 18.9627C19.9351 17.1699 21.2793 14.4915 21.2793 11.4999C21.2793 9.07365 20.3949 6.85228 18.9317 5.14318C17.9335 3.97726 16.6652 3.04863 15.2228 2.4544ZM6.05306 17.9329C5.76868 17.6918 5.34274 17.727 5.10169 18.0113C4.86064 18.2957 4.89576 18.7216 5.18014 18.9627C6.88429 20.4072 9.09126 21.279 11.5001 21.279C12.674 21.279 13.801 21.0719 14.8456 20.6916C15.1959 20.5641 15.3765 20.1767 15.249 19.8264C15.1214 19.4761 14.7341 19.2955 14.3838 19.4231C13.485 19.7503 12.5142 19.929 11.5001 19.929C9.42278 19.929 7.5225 19.1784 6.05306 17.9329ZM6.7502 6.31789C6.37364 6.31789 6.06838 6.62315 6.06838 6.99971C6.06838 7.37626 6.37364 7.68153 6.7502 7.68153C7.01821 7.68153 7.27543 7.78713 7.46611 7.97547L8.26443 8.76393C10.2568 10.7317 13.4611 10.7317 15.4535 8.76393L16.4065 7.82262C16.4981 7.73222 16.6215 7.68153 16.7502 7.68153C17.1268 7.68153 17.432 7.37626 17.432 6.99971C17.432 6.62315 17.1268 6.31789 16.7502 6.31789C16.2628 6.31789 15.7951 6.50994 15.4483 6.85242L14.4952 7.79372C13.034 9.23693 10.6839 9.23693 9.22266 7.79372L8.42434 7.00526C7.97843 6.56485 7.37693 6.31789 6.7502 6.31789ZM6.06838 10.799C6.06838 10.4225 6.37364 10.1172 6.7502 10.1172C7.37693 10.1172 7.97843 10.3642 8.42434 10.8046L9.22266 11.593C10.6839 13.0362 13.034 13.0362 14.4952 11.593L15.4483 10.6517C15.7951 10.3093 16.2628 10.1172 16.7502 10.1172C17.1268 10.1172 17.432 10.4225 17.432 10.799C17.432 11.1756 17.1268 11.4808 16.7502 11.4808C16.6215 11.4808 16.4981 11.5315 16.4065 11.6219L15.4535 12.5632C13.4611 14.531 10.2568 14.531 8.26443 12.5632L7.46611 11.7748C7.27543 11.5865 7.01821 11.4808 6.7502 11.4808C6.37364 11.4808 6.06838 11.1756 6.06838 10.799ZM6.7502 13.916C6.37364 13.916 6.06838 14.2213 6.06838 14.5979C6.06838 14.9744 6.37364 15.2797 6.7502 15.2797C7.01821 15.2797 7.27543 15.3853 7.46611 15.5736L8.26443 16.3621C10.2568 18.3299 13.4611 18.3299 15.4535 16.3621L16.4065 15.4208C16.4981 15.3304 16.6215 15.2797 16.7502 15.2797C17.1268 15.2797 17.432 14.9744 17.432 14.5979C17.432 14.2213 17.1268 13.916 16.7502 13.916C16.2628 13.916 15.7951 14.1081 15.4483 14.4506L14.4952 15.3919C13.034 16.8351 10.6839 16.8351 9.22266 15.3919L8.42434 14.6034C7.97843 14.163 7.37693 13.916 6.7502 13.916Z" fill="#252323"/>
</g>
<defs>
<clipPath id="clip0_1053_12011">
<rect width="23" height="23" fill="white"/>
</clipPath>
</defs>
</svg>
