<svg width="18" height="18" viewBox="0 0 18 18" fill="none" xmlns="http://www.w3.org/2000/svg">
<g clip-path="url(#clip0_1053_12083)">
<path fill-rule="evenodd" clip-rule="evenodd" d="M2.25 8.75C2.25 5.16015 5.16015 2.25 8.75 2.25C9.09518 2.25 9.375 1.97018 9.375 1.625C9.375 1.27982 9.09518 1 8.75 1C4.46979 1 1 4.46979 1 8.75C1 10.4214 1.52978 11.9708 2.43051 13.2372C2.63058 13.5185 3.02079 13.5844 3.30208 13.3843C3.58336 13.1842 3.64921 12.794 3.44914 12.5128C2.69396 11.451 2.25 10.1533 2.25 8.75ZM11.7003 1.58149C11.3811 1.45001 11.0158 1.60215 10.8843 1.92131C10.7528 2.24046 10.905 2.60578 11.2241 2.73726C12.1819 3.13184 13.0255 3.74916 13.6899 4.52521C14.6629 5.66173 15.25 7.13651 15.25 8.75C15.25 10.7382 14.3581 12.5175 12.9504 13.7107C12.6871 13.9339 12.6545 14.3283 12.8777 14.5916C13.1009 14.8549 13.4953 14.8875 13.7586 14.6643C15.4346 13.2436 16.5 11.1209 16.5 8.75C16.5 6.82729 15.799 5.06671 14.6395 3.71229C13.8485 2.78838 12.8434 2.05245 11.7003 1.58149ZM4.54964 13.7107C4.28633 13.4875 3.89194 13.5201 3.66874 13.7834C3.44555 14.0467 3.47807 14.4411 3.74138 14.6643C5.09188 15.809 6.84105 16.5 8.75 16.5C9.68014 16.5 10.5733 16.3359 11.4013 16.0344C11.7257 15.9164 11.8929 15.5577 11.7748 15.2333C11.6567 14.909 11.298 14.7418 10.9737 14.8599C10.2808 15.1121 9.53219 15.25 8.75 15.25C7.14802 15.25 5.68281 14.6713 4.54964 13.7107ZM5.21509 4.77979C4.86991 4.77979 4.59009 5.05961 4.59009 5.40479C4.59009 5.74996 4.86991 6.02979 5.21509 6.02979C5.3492 6.02979 5.47791 6.08263 5.57333 6.17687L6.13464 6.73126C7.5685 8.14742 9.87453 8.14742 11.3084 6.73126L11.854 6.19237C11.9595 6.0882 12.1018 6.02979 12.25 6.02979C12.5952 6.02979 12.875 5.74996 12.875 5.40479C12.875 5.05961 12.5952 4.77979 12.25 4.77979C11.7729 4.77979 11.3151 4.96777 10.9756 5.30301L10.43 5.8419C9.48302 6.7772 7.96001 6.7772 7.01302 5.8419L6.4517 5.28751C6.12233 4.9622 5.67803 4.77979 5.21509 4.77979ZM4.59009 8.32617C4.59009 7.98099 4.86991 7.70117 5.21509 7.70117C5.67803 7.70117 6.12233 7.88359 6.4517 8.2089L7.01302 8.76329C7.96001 9.69859 9.48302 9.69859 10.43 8.76329L10.9756 8.2244C11.3151 7.88916 11.7729 7.70117 12.25 7.70117C12.5952 7.70117 12.875 7.98099 12.875 8.32617C12.875 8.67135 12.5952 8.95117 12.25 8.95117C12.1018 8.95117 11.9595 9.00959 11.854 9.11376L11.3084 9.65265C9.87453 11.0688 7.5685 11.0688 6.13464 9.65265L5.57333 9.09826C5.47791 9.00402 5.3492 8.95117 5.21509 8.95117C4.86991 8.95117 4.59009 8.67135 4.59009 8.32617ZM5.21509 10.6226C4.86991 10.6226 4.59009 10.9024 4.59009 11.2476C4.59009 11.5927 4.86991 11.8726 5.21509 11.8726C5.3492 11.8726 5.47791 11.9254 5.57333 12.0196L6.13464 12.574C7.5685 13.9902 9.87453 13.9902 11.3084 12.574L11.854 12.0351C11.9595 11.931 12.1018 11.8726 12.25 11.8726C12.5952 11.8726 12.875 11.5927 12.875 11.2476C12.875 10.9024 12.5952 10.6226 12.25 10.6226C11.7729 10.6226 11.3151 10.8105 10.9756 11.1458L10.43 11.6847C9.48302 12.62 7.96001 12.62 7.01302 11.6847L6.4517 11.1303C6.12233 10.805 5.67803 10.6226 5.21509 10.6226Z" fill="#332A2A"/>
</g>
<defs>
<clipPath id="clip0_1053_12083">
<rect width="18" height="18" fill="white"/>
</clipPath>
</defs>
</svg>
