<svg width="28" height="28" viewBox="0 0 28 28" fill="none" xmlns="http://www.w3.org/2000/svg">
<g clip-path="url(#clip0_1053_11996)">
<circle cx="14.0001" cy="13.9998" r="11.0833" fill="#E05149"/>
<path fill-rule="evenodd" clip-rule="evenodd" d="M3.66675 13.9998C3.66675 8.29289 8.29314 3.6665 14.0001 3.6665C14.4143 3.6665 14.7501 3.33072 14.7501 2.9165C14.7501 2.50229 14.4143 2.1665 14.0001 2.1665C7.46471 2.1665 2.16675 7.46447 2.16675 13.9998C2.16675 16.5521 2.9756 18.9176 4.35086 20.8512C4.59093 21.1887 5.05919 21.2678 5.39673 21.0277C5.73428 20.7876 5.81329 20.3194 5.57321 19.9818C4.3726 18.2938 3.66675 16.2303 3.66675 13.9998ZM18.5047 3.05429C18.1217 2.89652 17.6834 3.07908 17.5256 3.46207C17.3678 3.84506 17.5504 4.28343 17.9334 4.44121C19.4562 5.06859 20.7972 6.04994 21.8532 7.28343C23.3999 9.09008 24.3334 11.435 24.3334 13.9998C24.3334 17.1606 22.9152 19.9894 20.6777 21.8861C20.3617 22.1539 20.3227 22.6272 20.5905 22.9431C20.8583 23.2591 21.3316 23.2981 21.6476 23.0303C24.2069 20.8608 25.8334 17.6199 25.8334 13.9998C25.8334 11.0639 24.7633 8.37606 22.9927 6.30791C21.7848 4.89702 20.2501 3.77332 18.5047 3.05429ZM7.32249 21.8861C7.00652 21.6182 6.53326 21.6572 6.26542 21.9732C5.99759 22.2892 6.03661 22.7625 6.35258 23.0303C8.41473 24.7783 11.0852 25.8332 14.0001 25.8332C15.4207 25.8332 16.7844 25.5825 18.0483 25.1224C18.4375 24.9807 18.6382 24.5503 18.4965 24.1611C18.3548 23.7718 17.9244 23.5712 17.5352 23.7129C16.4333 24.114 15.2431 24.3332 14.0001 24.3332C11.4535 24.3332 9.12385 23.413 7.32249 21.8861ZM8 8.36397C7.64873 8.36397 7.36397 8.64873 7.36397 9C7.36397 9.35127 7.64873 9.63603 8 9.63603C8.83869 9.63603 9.63998 9.98318 10.2136 10.595L10.5039 10.9047C12.5923 13.1323 16.1283 13.1323 18.2167 10.9047L18.5071 10.595C19.0807 9.98318 19.882 9.63603 20.7207 9.63603C21.0719 9.63603 21.3567 9.35127 21.3567 9C21.3567 8.64873 21.0719 8.36397 20.7207 8.36397C19.5303 8.36397 18.3931 8.85665 17.579 9.72501L17.2887 10.0347C15.7029 11.7263 13.0178 11.7263 11.4319 10.0347L11.1416 9.72501C10.3275 8.85664 9.1903 8.36397 8 8.36397ZM7.36397 13.3643C7.36397 13.013 7.64873 12.7282 8 12.7282C9.1903 12.7282 10.3275 13.2209 11.1416 14.0893L11.4319 14.3989C13.0178 16.0905 15.7029 16.0905 17.2887 14.3989L17.579 14.0893C18.3931 13.2209 19.5303 12.7282 20.7207 12.7282C21.0719 12.7282 21.3567 13.013 21.3567 13.3643C21.3567 13.7155 21.0719 14.0003 20.7207 14.0003C19.882 14.0003 19.0807 14.3474 18.5071 14.9593L18.2167 15.269C16.1283 17.4966 12.5923 17.4966 10.5039 15.269L10.2136 14.9593C9.63998 14.3474 8.83869 14.0003 8 14.0003C7.64873 14.0003 7.36397 13.7155 7.36397 13.3643ZM8 16.8562C7.64873 16.8562 7.36397 17.1409 7.36397 17.4922C7.36397 17.8435 7.64873 18.1282 8 18.1282C8.83869 18.1282 9.63998 18.4754 10.2136 19.0872L10.5039 19.3969C12.5923 21.6245 16.1283 21.6245 18.2167 19.3969L18.5071 19.0872C19.0807 18.4754 19.882 18.1282 20.7207 18.1282C21.0719 18.1282 21.3567 17.8435 21.3567 17.4922C21.3567 17.1409 21.0719 16.8562 20.7207 16.8562C19.5303 16.8562 18.3931 17.3488 17.579 18.2172L17.2887 18.5269C15.7029 20.2184 13.0178 20.2184 11.4319 18.5269L11.1416 18.2172C10.3275 17.3488 9.1903 16.8562 8 16.8562Z" fill="#252323"/>
</g>
<defs>
<clipPath id="clip0_1053_11996">
<rect width="28" height="28" fill="white"/>
</clipPath>
</defs>
</svg>
