<svg width="44" height="44" viewBox="0 0 44 44" fill="none" xmlns="http://www.w3.org/2000/svg">
<g clip-path="url(#clip0_1053_12080)">
<path d="M10.1721 34.8071C10.4399 34.4912 10.9138 34.4515 11.2297 34.7192C14.1349 37.1818 17.8933 38.6665 22.0002 38.6665C24.0041 38.6665 25.9238 38.3136 27.7014 37.6665C28.0906 37.5248 28.5216 37.7255 28.6633 38.1147C28.8047 38.5038 28.604 38.9339 28.2151 39.0757C26.2753 39.7819 24.1817 40.1665 22.0002 40.1665C17.525 40.1665 13.426 38.5473 10.26 35.8638C9.94413 35.596 9.90454 35.1231 10.1721 34.8071ZM27.9358 5.604C28.0935 5.2211 28.5324 5.03821 28.9153 5.1958C31.5944 6.29951 33.9512 8.02546 35.8059 10.1919C38.5241 13.3671 40.1663 17.4931 40.1663 22.0005C40.1662 27.5577 37.6702 32.5327 33.7405 35.8638C33.4245 36.1316 32.9507 36.0928 32.6829 35.7769C32.4152 35.4609 32.4548 34.987 32.7708 34.7192C36.3785 31.661 38.6662 27.0983 38.6663 22.0005C38.6663 17.8641 37.1606 14.0812 34.6663 11.1675C32.9634 9.17848 30.8006 7.59556 28.344 6.5835C27.961 6.42573 27.7781 5.98697 27.9358 5.604ZM22.0002 3.8335C22.4143 3.83367 22.7502 4.16939 22.7502 4.5835C22.7502 4.9976 22.4143 5.33332 22.0002 5.3335C12.7955 5.3335 5.33325 12.7957 5.33325 22.0005C5.33332 25.5974 6.47193 28.9262 8.40845 31.6489C8.64845 31.9865 8.56921 32.4548 8.23169 32.6948C7.89416 32.9347 7.42581 32.8555 7.18579 32.5181C5.07473 29.5498 3.83332 25.919 3.83325 22.0005C3.83325 11.9673 11.9671 3.8335 22.0002 3.8335ZM32.5491 25.9956C32.8927 25.9959 33.1711 26.2749 33.1711 26.6187C33.1711 26.9624 32.8927 27.2414 32.5491 27.2417C31.0672 27.2417 29.6444 27.8254 28.5901 28.8667L28.1545 29.2964C24.8951 32.5154 19.6532 32.5154 16.3938 29.2964L15.9592 28.8667C14.9049 27.8254 13.4821 27.2418 12.0002 27.2417C11.6563 27.2417 11.3772 26.9625 11.3772 26.6187C11.3772 26.2748 11.6563 25.9956 12.0002 25.9956C13.8097 25.9957 15.5468 26.7095 16.8342 27.981L17.2688 28.4106C20.0431 31.1506 24.5051 31.1505 27.2795 28.4106L27.7151 27.981C29.0025 26.7095 30.7396 25.9956 32.5491 25.9956ZM32.5491 20.1685C32.8927 20.1688 33.1711 20.4478 33.1711 20.7915C33.1711 21.1352 32.8927 21.4142 32.5491 21.4146C31.0672 21.4146 29.6444 21.9983 28.5901 23.0396L28.1545 23.4692C24.8951 26.6882 19.6532 26.6883 16.3938 23.4692L15.9592 23.0396C14.9049 21.9983 13.4821 21.4146 12.0002 21.4146C11.6563 21.4146 11.3772 21.1354 11.3772 20.7915C11.3772 20.4476 11.6563 20.1685 12.0002 20.1685C13.8097 20.1685 15.5468 20.8823 16.8342 22.1538L17.2688 22.5835C20.0431 25.3234 24.5051 25.3233 27.2795 22.5835L27.7151 22.1538C29.0025 20.8823 30.7396 20.1685 32.5491 20.1685ZM32.5491 13.8774C32.8927 13.8778 33.1711 14.1568 33.1711 14.5005C33.1709 14.844 32.8925 15.1232 32.5491 15.1235C31.0672 15.1235 29.6444 15.7072 28.5901 16.7485L28.1545 17.1782C24.8952 20.397 19.6532 20.397 16.3938 17.1782L15.9592 16.7485C14.9049 15.7073 13.4821 15.1236 12.0002 15.1235C11.6565 15.1235 11.3775 14.8442 11.3772 14.5005C11.3772 14.1566 11.6563 13.8774 12.0002 13.8774C13.8097 13.8775 15.5468 14.5913 16.8342 15.8628L17.2688 16.2925C20.0431 19.0321 24.5052 19.0321 27.2795 16.2925L27.7151 15.8628C29.0025 14.5912 30.7395 13.8774 32.5491 13.8774Z" fill="#332A2A"/>
</g>
<defs>
<clipPath id="clip0_1053_12080">
<rect width="44" height="44" fill="white"/>
</clipPath>
</defs>
</svg>
