<svg width="23" height="23" viewBox="0 0 23 23" fill="none" xmlns="http://www.w3.org/2000/svg">
<g clip-path="url(#clip0_1053_12011)">
<circle cx="11.4999" cy="11.5002" r="9.10417" fill="#E05149"/>
<path d="M5.02661 17.936C5.26772 17.652 5.69353 17.617 5.97778 17.8579C7.44722 19.1035 9.34773 19.854 11.425 19.854C12.439 19.854 13.4102 19.6753 14.3088 19.3481C14.659 19.2209 15.0455 19.4014 15.1731 19.7515C15.3006 20.1018 15.1201 20.4892 14.7698 20.6167C13.7254 20.9969 12.5987 21.2046 11.425 21.2046C9.01628 21.2046 6.80886 20.3326 5.10474 18.8882C4.82036 18.6471 4.78556 18.2204 5.02661 17.936ZM14.2659 2.74658C14.4079 2.40189 14.803 2.23739 15.1477 2.37939C16.59 2.97362 17.8586 3.90202 18.8567 5.06787C20.3199 6.77698 21.2043 8.99907 21.2043 11.4253C21.2042 14.4168 19.8593 17.0955 17.7444 18.8882C17.46 19.1289 17.0342 19.0933 16.7932 18.8091C16.5524 18.5248 16.5872 18.0989 16.8713 17.8579C18.6966 16.3108 19.8537 14.0035 19.8538 11.4253C19.8538 9.33303 19.092 7.41956 17.8303 5.9458C16.9689 4.93977 15.8751 4.1391 14.6331 3.62744C14.2886 3.48539 14.124 3.09116 14.2659 2.74658ZM16.675 13.8413C17.0515 13.8414 17.3567 14.1465 17.3567 14.5229C17.3567 14.8994 17.0515 15.2045 16.675 15.2046C16.5465 15.2046 16.4228 15.2559 16.3313 15.3462L15.3782 16.2876C13.386 18.2549 10.182 18.2547 8.1897 16.2876L7.39087 15.4985C7.20025 15.3103 6.94291 15.2047 6.67505 15.2046C6.29849 15.2046 5.99341 14.8995 5.99341 14.5229C5.99341 14.1464 6.29849 13.8413 6.67505 13.8413C7.30169 13.8414 7.90302 14.0885 8.34888 14.5288L9.14771 15.3169C10.609 16.7599 12.959 16.76 14.4202 15.3169L15.3733 14.3755C15.72 14.0332 16.1878 13.8413 16.675 13.8413ZM11.425 1.646C11.7977 1.64617 12.0999 1.94812 12.0999 2.3208C12.0999 2.69348 11.7977 2.99543 11.425 2.99561C6.76975 2.99561 2.99536 6.76999 2.99536 11.4253C2.99543 13.2447 3.57177 14.9273 4.55103 16.3042C4.76707 16.6079 4.69553 17.0295 4.39185 17.2456C4.08812 17.4616 3.66655 17.391 3.45044 17.0874C2.31396 15.4895 1.64582 13.5343 1.64575 11.4253C1.64575 6.02441 6.02416 1.646 11.425 1.646ZM16.675 10.0425C17.0515 10.0426 17.3567 10.3476 17.3567 10.7241C17.3567 11.1006 17.0515 11.4056 16.675 11.4058C16.5465 11.4058 16.4228 11.457 16.3313 11.5474L15.3782 12.4888C13.386 14.4561 10.182 14.4559 8.1897 12.4888L7.39087 11.6997C7.20025 11.5115 6.94291 11.4058 6.67505 11.4058C6.29849 11.4058 5.99341 11.1007 5.99341 10.7241C5.99341 10.3476 6.29849 10.0425 6.67505 10.0425C7.30169 10.0425 7.90302 10.2896 8.34888 10.73L9.14771 11.5181C10.609 12.9611 12.959 12.9612 14.4202 11.5181L15.3733 10.5767C15.72 10.2343 16.1878 10.0425 16.675 10.0425ZM16.675 6.24365C17.0515 6.24378 17.3567 6.54882 17.3567 6.92529C17.3564 7.30154 17.0513 7.6068 16.675 7.60693C16.5464 7.60693 16.4228 7.65813 16.3313 7.74854L15.3782 8.68994C13.386 10.6571 10.182 10.6568 8.1897 8.68994L7.39087 7.90088C7.20025 7.71269 6.94291 7.607 6.67505 7.60693C6.29865 7.60693 5.99367 7.30163 5.99341 6.92529C5.99341 6.54874 6.29849 6.24365 6.67505 6.24365C7.30169 6.24372 7.90302 6.49081 8.34888 6.93115L9.14771 7.71924C10.6089 9.16198 12.9591 9.16219 14.4202 7.71924L15.3733 6.77783C15.72 6.43544 16.1877 6.24365 16.675 6.24365Z" fill="#332A2A"/>
</g>
<defs>
<clipPath id="clip0_1053_12011">
<rect width="23" height="23" fill="white"/>
</clipPath>
</defs>
</svg>
