<svg width="44" height="44" viewBox="0 0 44 44" fill="none" xmlns="http://www.w3.org/2000/svg">
<g clip-path="url(#clip0_1053_11988)">
<circle cx="21.9999" cy="22.0002" r="17.4167" fill="#E05149"/>
<path fill-rule="evenodd" clip-rule="evenodd" d="M5.33325 22.0002C5.33325 12.7954 12.7952 5.3335 21.9999 5.3335C22.4141 5.3335 22.7499 4.99771 22.7499 4.5835C22.7499 4.16928 22.4141 3.8335 21.9999 3.8335C11.9667 3.8335 3.83325 11.967 3.83325 22.0002C3.83325 25.9189 5.07488 29.5498 7.1861 32.5182C7.42618 32.8557 7.89443 32.9347 8.23197 32.6947C8.56952 32.4546 8.64853 31.9863 8.40845 31.6488C6.47188 28.926 5.33325 25.5972 5.33325 22.0002ZM28.9154 5.19629C28.5324 5.03851 28.094 5.22108 27.9362 5.60406C27.7785 5.98705 27.961 6.42543 28.344 6.58321C30.8007 7.59526 32.9633 9.17806 34.6661 11.1671C37.1606 14.0808 38.6666 17.8637 38.6666 22.0002C38.6666 27.0984 36.3784 31.6614 32.7704 34.7197C32.4544 34.9875 32.4154 35.4608 32.6832 35.7768C32.9511 36.0928 33.4243 36.1318 33.7403 35.8639C37.6702 32.5328 40.1666 27.5576 40.1666 22.0002C40.1666 17.4926 38.524 13.3668 35.8056 10.1916C33.9509 8.02514 31.5945 6.3 28.9154 5.19629ZM11.2295 34.7197C10.9135 34.4519 10.4402 34.4909 10.1724 34.8069C9.90454 35.1228 9.94357 35.5961 10.2595 35.8639C13.4255 38.5476 17.5246 40.1668 21.9999 40.1668C24.1815 40.1668 26.2749 39.7819 28.2148 39.0757C28.604 38.934 28.8047 38.5036 28.663 38.1144C28.5213 37.7252 28.0909 37.5245 27.7017 37.6662C25.9239 38.3134 24.004 38.6668 21.9999 38.6668C17.893 38.6668 14.1347 37.1823 11.2295 34.7197ZM12 13.8773C11.6561 13.8773 11.3773 14.1561 11.3773 14.5C11.3773 14.8439 11.6561 15.1227 12 15.1227C13.4819 15.1227 14.9041 15.7066 15.9585 16.748L16.3937 17.1778C19.6532 20.397 24.8953 20.397 28.1548 17.1778L28.59 16.748C29.6444 15.7066 31.0666 15.1227 32.5485 15.1227C32.8924 15.1227 33.1712 14.8439 33.1712 14.5C33.1712 14.1561 32.8924 13.8773 32.5485 13.8773C30.739 13.8773 29.0023 14.5904 27.7149 15.8619L27.2797 16.2917C24.5052 19.0319 20.0432 19.0319 17.2688 16.2917L16.8336 15.8619C15.5462 14.5903 13.8095 13.8773 12 13.8773ZM11.3773 20.7915C11.3773 20.4476 11.6561 20.1688 12 20.1688C13.8095 20.1688 15.5462 20.8819 16.8336 22.1534L17.2688 22.5833C20.0432 25.3234 24.5052 25.3234 27.2797 22.5833L27.7149 22.1534C29.0023 20.8819 30.739 20.1688 32.5485 20.1688C32.8924 20.1688 33.1712 20.4476 33.1712 20.7915C33.1712 21.1354 32.8924 21.4142 32.5485 21.4142C31.0666 21.4142 29.6444 21.9981 28.59 23.0395L28.1548 23.4693C24.8953 26.6885 19.6532 26.6885 16.3937 23.4693L15.9585 23.0395C14.9041 21.9981 13.4819 21.4142 12 21.4142C11.6561 21.4142 11.3773 21.1354 11.3773 20.7915ZM12 25.996C11.6561 25.996 11.3773 26.2748 11.3773 26.6187C11.3773 26.9625 11.6561 27.2413 12 27.2413C13.4819 27.2413 14.9041 27.8253 15.9585 28.8666L16.3937 29.2965C19.6532 32.5157 24.8953 32.5157 28.1548 29.2965L28.59 28.8666C29.6444 27.8253 31.0666 27.2413 32.5485 27.2413C32.8924 27.2413 33.1712 26.9625 33.1712 26.6187C33.1712 26.2748 32.8924 25.996 32.5485 25.996C30.739 25.996 29.0023 26.709 27.7149 27.9806L27.2797 28.4104C24.5052 31.1506 20.0432 31.1506 17.2688 28.4104L16.8336 27.9806C15.5462 26.709 13.8095 25.996 12 25.996Z" fill="#252323"/>
</g>
<defs>
<clipPath id="clip0_1053_11988">
<rect width="44" height="44" fill="white"/>
</clipPath>
</defs>
</svg>
