<svg width="28" height="28" viewBox="0 0 28 28" fill="none" xmlns="http://www.w3.org/2000/svg">
<path fill-rule="evenodd" clip-rule="evenodd" d="M10.884 4.89254C10.7443 4.36051 10.3864 3.90395 9.95552 3.61272C9.37746 3.22221 8.57146 3.06355 7.78996 3.45417C6.81122 3.9436 6.55187 4.85004 6.56784 5.60852C6.56828 5.62924 6.56892 5.64993 6.56974 5.6706L6.17702 6.03222L4.6682 7.42089C4.03609 8.0024 3.75683 8.87458 3.93486 9.71484L4.72897 13.4603C4.82652 13.9207 5.05563 14.3435 5.38843 14.6763L7.89645 17.1843C8.18934 17.4772 8.66422 17.4772 8.95711 17.1843C9.25 16.8915 9.25 16.4166 8.95711 16.1237L6.44909 13.6157C6.32158 13.4882 6.23304 13.326 6.19567 13.1496L5.40224 9.40341C5.33413 9.08154 5.44115 8.74711 5.68329 8.52436L6.92544 7.38222C6.70545 7.70291 6.56918 8.09587 6.55959 8.55095L6.55764 8.55082C6.55723 8.5568 6.5573 8.5628 6.55738 8.5688C6.55745 8.57423 6.55752 8.57965 6.55722 8.58505C6.5572 8.58788 6.55691 8.59076 6.55662 8.59365V8.59365L6.55662 8.59366C6.55631 8.59665 6.55601 8.59964 6.55601 8.60259L6.55698 8.60266C6.49822 9.84993 7.44436 10.9215 8.69633 11.0085C9.96566 11.0966 11.0667 10.1391 11.155 8.86988C11.2431 7.60043 10.2848 6.49926 9.01539 6.41116C8.76035 6.39348 8.50252 6.41741 8.25466 6.47995C8.24559 6.45461 8.23666 6.42885 8.22792 6.40274C8.27294 6.39608 8.31863 6.39268 8.36463 6.39268H13.0202C13.2671 6.39282 13.5037 6.49089 13.6783 6.66544L18.9084 11.8955C19.2012 12.1884 19.6762 12.1883 19.9691 11.8955C20.2619 11.6027 20.2619 11.1278 19.9691 10.8349L14.739 5.60478C14.2829 5.1488 13.6644 4.89215 13.0195 4.89215L10.884 4.89254ZM9.16614 4.89284C9.15014 4.8803 9.1334 4.86809 9.11593 4.85628C8.90817 4.71586 8.67832 4.68662 8.46013 4.79573C8.40279 4.82442 8.35229 4.8568 8.30826 4.89349C8.32703 4.89306 8.34582 4.89284 8.36463 4.89284H9.16614ZM8.02759 8.60194L7.29902 8.60227L7.30584 8.60275L8.02762 8.60196C8.02761 8.60195 8.0276 8.60195 8.02759 8.60194ZM8.05582 8.61906L8.05587 8.62837L8.05404 8.65467C8.02351 9.09747 8.35738 9.48127 8.80018 9.5121C9.22591 9.54164 9.59775 9.2342 9.65341 8.81701C9.2686 8.94046 8.86655 8.939 8.47812 8.81195C8.32897 8.76315 8.18799 8.69787 8.05582 8.61906ZM10.758 20.0459L15.2914 24.5793C16.241 25.5289 17.7813 25.5296 18.7309 24.58L24.5031 18.8078C25.4527 17.8582 25.452 16.3179 24.5024 15.3682L22.8306 13.6965C22.5377 13.4036 22.0629 13.4036 21.77 13.6965C21.4772 13.9894 21.4771 14.4643 21.77 14.7571L23.4418 16.4289C23.8056 16.7927 23.8063 17.3833 23.4424 17.7471L17.6703 23.5193C17.3064 23.8831 16.7159 23.8824 16.352 23.5186L11.8187 18.9853C11.5258 18.6925 11.0509 18.6924 10.758 18.9853C10.4652 19.2781 10.4652 19.753 10.758 20.0459ZM19.6677 20.4373L18.4294 19.1989C18.1766 19.4395 17.8685 19.6873 17.5049 19.9424C17.0955 20.2296 16.6587 20.4709 16.1944 20.6664L14.5356 18.9526L15.2596 18.2286L16.3593 19.0351C16.6159 18.9251 16.8603 18.7968 17.0925 18.6502C17.3246 18.4913 17.5324 18.3203 17.7157 18.137C17.9478 17.9048 18.1281 17.6635 18.2564 17.413C18.3786 17.1564 18.4305 16.9028 18.4122 16.6523C18.3938 16.4018 18.2869 16.1788 18.0914 15.9833C17.8837 15.7756 17.6607 15.6687 17.4224 15.6626C17.1841 15.6564 16.9275 15.7114 16.6526 15.8275C16.3776 15.9436 16.0935 16.0872 15.8003 16.2582C15.5009 16.4232 15.1954 16.5821 14.8838 16.7348C14.5722 16.8875 14.2576 17.0006 13.9399 17.0739C13.6161 17.1411 13.2953 17.1319 12.9776 17.0464C12.6599 16.9609 12.3452 16.7623 12.0337 16.4507C11.6304 16.0475 11.3952 15.6167 11.328 15.1585C11.2547 14.6942 11.3188 14.2268 11.5204 13.7563C11.6521 13.4353 11.8324 13.1267 12.0611 12.8307L10.8514 11.621L11.6579 10.8145L12.8418 11.9984C12.9669 11.894 13.1069 11.7896 13.2617 11.6851C13.5183 11.5018 13.7871 11.3308 14.0682 11.1719C14.3492 11.0009 14.6089 10.8695 14.8472 10.7779L16.3135 12.4275L15.5987 13.1423L14.5264 12.4C14.3309 12.4855 14.1415 12.5955 13.9582 12.7299C13.7688 12.8582 13.5947 13.0018 13.4358 13.1606C13.222 13.3745 13.0509 13.6005 12.9226 13.8388C12.8004 14.071 12.7424 14.3001 12.7485 14.5261C12.7607 14.7461 12.8646 14.9538 13.0601 15.1493C13.2495 15.3387 13.4603 15.4334 13.6924 15.4334C13.9307 15.4273 14.1843 15.3693 14.4531 15.2593C14.728 15.1432 15.0152 15.0027 15.3146 14.8377C15.62 14.6667 15.9316 14.5078 16.2493 14.3612C16.5609 14.2084 16.8786 14.0985 17.2025 14.0313C17.5263 13.9641 17.8501 13.9763 18.1739 14.0679C18.4977 14.1473 18.8154 14.3429 19.127 14.6545C19.5302 15.0577 19.7685 15.4976 19.8418 15.9741C19.9152 16.4385 19.8632 16.912 19.686 17.3947C19.5621 17.717 19.3934 18.031 19.1799 18.3365L20.4742 19.6308L19.6677 20.4373Z" fill="#332A2A"/>
</svg>
