<svg width="28" height="28" viewBox="0 0 28 28" fill="none" xmlns="http://www.w3.org/2000/svg">
<g clip-path="url(#clip0_701_11306)">
<path fill-rule="evenodd" clip-rule="evenodd" d="M7.58333 5.54175H13.4167C13.9137 5.91456 15.1499 7.13122 16.4466 8.40744C17.5845 9.52749 18.7691 10.6934 19.5417 11.3751L22.75 14.5834C23.625 15.1667 25.2 16.5667 24.5 17.5001C23.8 18.4334 19.5417 22.5556 17.5 24.5001C17.2083 24.6945 16.5083 24.9084 16.0417 24.2084C15.575 23.5084 12.5417 20.6112 11.0833 19.2501L5.54167 13.7084C5.4156 13.078 5.18055 12.1752 4.95428 11.3062C4.65706 10.1646 4.375 9.08126 4.375 8.75006C4.375 8.16673 6.125 6.70841 7.58333 5.54175ZM8.83846 7.03478C9.69469 7.0942 10.3406 7.83649 10.2812 8.69272C10.2218 9.54895 9.47951 10.1949 8.62327 10.1355C7.76704 10.076 7.1211 9.33376 7.18052 8.47753C7.18052 7.55949 7.98224 6.97536 8.83846 7.03478Z" fill="#E05149"/>
<path fill-rule="evenodd" clip-rule="evenodd" d="M8.33538 4.67095C8.55357 4.56184 8.78314 4.59039 8.9909 4.7308C9.00845 4.74266 9.02525 4.75492 9.04132 4.76752L8.23927 4.76751C8.22087 4.76751 8.20248 4.76772 8.18412 4.76814C8.228 4.73168 8.2783 4.69949 8.33538 4.67095ZM8.12937 6.35513C8.12029 6.32968 8.11134 6.30382 8.10258 6.27759C8.14759 6.27092 8.19326 6.26751 8.23927 6.26751L9.09555 6.26752L12.8946 6.26753C13.1417 6.26753 13.3787 6.36569 13.5534 6.54041L18.7836 11.7706C19.0765 12.0634 19.5513 12.0634 19.8442 11.7706C20.1371 11.4777 20.1371 11.0028 19.8442 10.7099L14.6141 5.47975C14.1581 5.02372 13.5396 4.76753 12.8946 4.76753L10.7589 4.76752C10.6194 4.2356 10.2617 3.77924 9.83083 3.48802C9.25266 3.09725 8.44629 2.9384 7.6645 3.32934C6.68566 3.81881 6.42654 4.72524 6.44257 5.48377C6.44301 5.50459 6.44365 5.52539 6.44448 5.54616L6.05217 5.90706L4.54248 7.29591C3.91037 7.87742 3.63192 8.74926 3.80994 9.58952L4.60362 13.3356C4.70117 13.796 4.93024 14.2182 5.26304 14.551L7.77173 17.0597C8.06462 17.3526 8.53949 17.3526 8.83239 17.0597C9.12528 16.7668 9.12528 16.2919 8.83239 15.999L6.3237 13.4904C6.19619 13.3629 6.10842 13.2011 6.07105 13.0247L5.27737 9.27862C5.20916 8.95668 5.31584 8.62263 5.55804 8.39983L6.79406 7.26275C6.5717 7.58841 6.43564 7.98817 6.43076 8.45153C6.35745 9.70995 7.31069 10.796 8.57144 10.8835C9.84089 10.9716 10.9414 10.014 11.0295 8.74451C11.1176 7.47505 10.1599 6.37454 8.89048 6.28644C8.63546 6.26874 8.37748 6.29264 8.12937 6.35513ZM7.93062 8.49395C8.06291 8.57279 8.20402 8.63809 8.35329 8.68692C8.74147 8.81389 9.14327 8.81553 9.52786 8.69241C9.47206 9.1094 9.10088 9.41667 8.67529 9.38713C8.23228 9.35638 7.89807 8.97233 7.92882 8.52932L7.93062 8.50339V8.49395ZM11.6937 18.8604C11.4008 18.5675 10.926 18.5675 10.6331 18.8604C10.3402 19.1533 10.3402 19.6282 10.6331 19.9211L15.1666 24.4546C16.1163 25.4043 17.6559 25.4043 18.6056 24.4546L24.3778 18.6824C25.3274 17.7327 25.3274 16.1931 24.3778 15.2435L22.7056 13.5712C22.4127 13.2783 21.9378 13.2783 21.6449 13.5712C21.352 13.8641 21.352 14.339 21.6449 14.6319L23.3171 16.3041C23.681 16.668 23.681 17.2579 23.3171 17.6217L17.5449 23.394C17.1811 23.7578 16.5911 23.7578 16.2273 23.394L11.6937 18.8604ZM19.4176 20.1873L18.1793 18.9489C17.9265 19.1895 17.6184 19.4374 17.2548 19.6924C16.8454 19.9796 16.4086 20.2209 15.9443 20.4164L14.2855 18.7026L15.0095 17.9786L16.1092 18.7851C16.3658 18.6752 16.6102 18.5468 16.8424 18.4002C17.0746 18.2414 17.2823 18.0703 17.4656 17.887C17.6977 17.6548 17.878 17.4135 18.0063 17.163C18.1285 16.9064 18.1804 16.6528 18.1621 16.4023C18.1438 16.1518 18.0368 15.9288 17.8413 15.7333C17.6336 15.5256 17.4106 15.4187 17.1723 15.4126C16.934 15.4065 16.6774 15.4615 16.4025 15.5775C16.1276 15.6936 15.8435 15.8372 15.5502 16.0083C15.2508 16.1732 14.9453 16.3321 14.6337 16.4848C14.3221 16.6376 14.0075 16.7506 13.6898 16.8239C13.366 16.8911 13.0452 16.882 12.7275 16.7964C12.4098 16.7109 12.0952 16.5123 11.7836 16.2007C11.3803 15.7975 11.1451 15.3668 11.0779 14.9085C11.0046 14.4442 11.0687 13.9768 11.2703 13.5063C11.402 13.1853 11.5823 12.8768 11.811 12.5807L10.6013 11.371L11.4078 10.5645L12.5917 11.7484C12.7168 11.644 12.8568 11.5396 13.0116 11.4352C13.2682 11.2519 13.537 11.0808 13.8181 10.9219C14.0991 10.7509 14.3588 10.6195 14.5971 10.5279L16.0634 12.1775L15.3486 12.8923L14.2763 12.15C14.0808 12.2355 13.8914 12.3455 13.7081 12.4799C13.5187 12.6082 13.3446 12.7518 13.1857 12.9107C12.9719 13.1245 12.8008 13.3506 12.6725 13.5888C12.5503 13.821 12.4923 14.0501 12.4984 14.2762C12.5106 14.4961 12.6145 14.7038 12.81 14.8994C12.9994 15.0888 13.2102 15.1835 13.4423 15.1835C13.6806 15.1773 13.9342 15.1193 14.203 15.0093C14.4779 14.8932 14.7651 14.7527 15.0645 14.5878C15.37 14.4167 15.6815 14.2578 15.9992 14.1112C16.3108 13.9585 16.6285 13.8485 16.9524 13.7813C17.2762 13.7141 17.6 13.7263 17.9238 13.8179C18.2476 13.8974 18.5653 14.0929 18.8769 14.4045C19.2802 14.8077 19.5184 15.2476 19.5918 15.7242C19.6651 16.1885 19.6131 16.662 19.436 17.1447C19.312 17.467 19.1433 17.781 18.9298 18.0866L20.2241 19.3808L19.4176 20.1873Z" fill="#252323"/>
</g>
<defs>
<clipPath id="clip0_701_11306">
<rect width="28" height="28" fill="white"/>
</clipPath>
</defs>
</svg>
