<svg width="44" height="44" viewBox="0 0 44 44" fill="none" xmlns="http://www.w3.org/2000/svg">
<g clip-path="url(#clip0_699_10509)">
<path fill-rule="evenodd" clip-rule="evenodd" d="M11.9167 8.70825L21.0833 8.70825C21.8645 9.2941 23.807 11.206 25.8446 13.2115C27.6329 14.9716 29.4944 16.8037 30.7083 17.8749L35.75 22.9165C37.125 23.8332 39.6 26.0332 38.5 27.4999C37.4 28.9665 30.7083 35.4443 27.5 38.4999C27.0417 38.8054 25.9417 39.1415 25.2083 38.0415C24.475 36.9415 19.7083 32.3888 17.4167 30.2499L8.70833 21.5415C8.51023 20.551 8.14086 19.1323 7.78529 17.7666C7.31824 15.9728 6.875 14.2703 6.875 13.7499C6.875 12.8332 9.625 10.5416 11.9167 8.70825ZM13.889 11.0544C15.2345 11.1478 16.2496 12.3143 16.1562 13.6598C16.0628 15.0053 14.8964 16.0203 13.5509 15.9269C12.2054 15.8336 11.1903 14.6671 11.2837 13.3216C11.2837 11.879 12.5435 10.9611 13.889 11.0544Z" fill="#E05149"/>
<path fill-rule="evenodd" clip-rule="evenodd" d="M13.6775 7.51822C13.8741 7.40023 14.2409 7.37058 14.5828 7.52724C14.7804 7.61774 14.927 7.74917 15.0073 7.92053L14.2928 7.92053L13.1949 7.92052C13.3381 7.76134 13.4996 7.62496 13.6775 7.51822ZM11.2503 8.31137C11.136 8.38539 11.0275 8.46931 10.9261 8.56261L9.80051 9.59808L7.02515 12.1513C6.39303 12.7328 6.11458 13.6046 6.29261 14.4449L7.71239 21.146C7.80994 21.6065 8.03901 22.0287 8.3718 22.3615L12.5155 26.5052C12.8084 26.7981 13.2833 26.7981 13.5762 26.5052C13.8691 26.2123 13.8691 25.7374 13.5762 25.4446L9.43246 21.3008C9.30495 21.1733 9.21719 21.0115 9.17981 20.8351L7.76003 14.134C7.69182 13.812 7.79851 13.478 8.0407 13.2552L10.8161 10.702L11.0027 10.5303C11.047 10.8081 11.1238 11.0735 11.2363 11.3159C11.2438 11.3321 11.2514 11.3482 11.2592 11.3643C10.8188 11.8601 10.5398 12.5143 10.5337 13.2958C10.4265 15.0436 11.7488 16.5538 13.4989 16.6753C15.2576 16.7973 16.7823 15.4706 16.9043 13.7118C17.0264 11.9531 15.6996 10.4284 13.9409 10.3064C13.4604 10.273 12.9771 10.344 12.5316 10.5079C12.4495 10.2262 12.4276 9.84399 12.4988 9.42343C12.5232 9.4215 12.5478 9.42052 12.5724 9.42052L14.2928 9.42053L20.6608 9.42055C20.9079 9.42055 21.1449 9.51871 21.3196 9.69343L29.8199 18.1937C30.1128 18.4866 30.5876 18.4866 30.8805 18.1937C31.1734 17.9008 31.1734 17.4259 30.8805 17.133L22.3803 8.63277C21.9243 8.17674 21.3058 7.92055 20.6608 7.92055L16.5546 7.92053C16.4362 7.06167 15.8612 6.46295 15.2076 6.16353C14.5059 5.84206 13.605 5.81242 12.9057 6.23198C12.0878 6.72273 11.5485 7.50612 11.2503 8.31137ZM12.2027 12.6294C12.0941 12.8344 12.0336 13.0685 12.0336 13.3218V13.3478L12.0318 13.3737C11.9671 14.306 12.6704 15.1142 13.6027 15.1789C14.535 15.2436 15.3432 14.5403 15.4079 13.608C15.4218 13.408 15.4003 13.2137 15.3489 13.0313C14.6731 13.4055 13.9464 13.4683 13.2596 13.2437C12.8682 13.1156 12.5129 12.902 12.2027 12.6294ZM14.1916 11.8654C14.0235 11.8864 13.8676 11.8643 13.726 11.818C13.7071 11.8119 13.6883 11.8052 13.6694 11.7979C13.7245 11.7973 13.7805 11.7989 13.837 11.8028C13.9596 11.8113 14.0781 11.8326 14.1916 11.8654ZM18.0726 29.941C17.7797 29.6481 17.3048 29.6481 17.0119 29.941C16.7191 30.2338 16.7191 30.7087 17.0119 31.0016L24.8156 38.8053C25.7653 39.7549 27.3049 39.7549 28.2545 38.8053L38.6842 28.3756C39.6338 27.426 39.6338 25.8863 38.6842 24.9367L35.3769 21.6294C35.084 21.3365 34.6092 21.3365 34.3163 21.6294C34.0234 21.9223 34.0234 22.3972 34.3163 22.6901L37.6236 25.9974C37.9874 26.3612 37.9874 26.9511 37.6236 27.315L27.1939 37.7446C26.83 38.1085 26.2401 38.1085 25.8763 37.7446L18.0726 29.941ZM30.5132 31.723L28.5672 29.7771C28.1701 30.1551 27.6858 30.5446 27.1145 30.9454C26.4712 31.3966 25.7847 31.7758 25.0551 32.0831L22.4484 29.39L23.5861 28.2523L25.3143 29.5196C25.7175 29.3468 26.1016 29.1452 26.4664 28.9148C26.8312 28.6651 27.1577 28.3963 27.4457 28.1083C27.8105 27.7435 28.0938 27.3642 28.2954 26.9706C28.4874 26.5673 28.569 26.1689 28.5402 25.7753C28.5114 25.3816 28.3434 25.0312 28.0362 24.724C27.7097 24.3975 27.3593 24.2295 26.9848 24.2199C26.6104 24.2103 26.2072 24.2967 25.7751 24.4791C25.3431 24.6615 24.8966 24.8872 24.4358 25.156C23.9653 25.4152 23.4853 25.6648 22.9957 25.9049C22.506 26.1449 22.0116 26.3225 21.5123 26.4377C21.0035 26.5433 20.4994 26.5289 20.0002 26.3945C19.5009 26.2601 19.0065 25.9481 18.5168 25.4584C17.8831 24.8248 17.5135 24.1479 17.4079 23.4278C17.2927 22.6982 17.3935 21.9637 17.7103 21.2244C17.9173 20.7199 18.2005 20.2351 18.56 19.7698L16.659 17.8689L17.9263 16.6015L19.7867 18.4619C19.9833 18.2978 20.2033 18.1338 20.4466 17.9697C20.8498 17.6817 21.2723 17.4128 21.7139 17.1632C22.1556 16.8944 22.5636 16.688 22.938 16.5439L25.2423 19.1362L24.119 20.2595L22.434 19.093C22.1268 19.2274 21.8291 19.4002 21.5411 19.6114C21.2435 19.8131 20.9699 20.0387 20.7202 20.2883C20.3842 20.6243 20.1154 20.9796 19.9137 21.354C19.7217 21.7189 19.6305 22.0789 19.6401 22.4341C19.6593 22.7798 19.8225 23.1062 20.1298 23.4134C20.4274 23.7111 20.7586 23.8599 21.1235 23.8599C21.4979 23.8503 21.8963 23.7591 22.3188 23.5862C22.7508 23.4038 23.2021 23.183 23.6725 22.9238C24.1526 22.6549 24.6422 22.4053 25.1415 22.1749C25.6311 21.9349 26.1304 21.7621 26.6392 21.6564C27.1481 21.5508 27.6569 21.57 28.1658 21.7141C28.6746 21.8389 29.1739 22.1461 29.6635 22.6357C30.2972 23.2694 30.6716 23.9607 30.7868 24.7095C30.902 25.4392 30.8204 26.1833 30.542 26.9418C30.3472 27.4483 30.0821 27.9417 29.7467 28.4219L31.7805 30.4557L30.5132 31.723Z" fill="#252323"/>
</g>
<defs>
<clipPath id="clip0_699_10509">
<rect width="44" height="44" fill="white"/>
</clipPath>
</defs>
</svg>
