<svg width="44" height="44" viewBox="0 0 44 44" fill="none" xmlns="http://www.w3.org/2000/svg">
<g clip-path="url(#clip0_699_10509)">
<path d="M21.083 8.70825C22.5497 9.80825 28.1108 15.5836 30.708 17.8752L35.75 22.9163C37.125 23.8329 39.6 26.0336 38.5 27.5002C37.3995 28.9674 30.7082 35.4448 27.5 38.5002C27.0416 38.8058 25.9413 39.1411 25.208 38.0413C24.4739 36.9407 19.7086 32.389 17.417 30.2502L8.70801 21.5413C8.24966 19.2498 6.87534 14.6677 6.875 13.7502C6.875 12.8336 9.62533 10.5416 11.917 8.70825H21.083ZM13.8887 11.0549C12.5433 10.9617 11.2833 11.8791 11.2832 13.3215C11.1898 14.667 12.2053 15.8336 13.5508 15.927C14.8963 16.0204 16.0629 15.0049 16.1562 13.6594C16.2494 12.3141 15.2341 11.1483 13.8887 11.0549Z" fill="#E05149"/>
<path fill-rule="evenodd" clip-rule="evenodd" d="M16.5542 7.91951C16.4357 7.06114 15.8608 6.46284 15.2075 6.16345C14.5058 5.84198 13.6044 5.81251 12.9052 6.23206C12.0876 6.7228 11.5484 7.50618 11.2501 8.31129C11.1359 8.38528 11.0275 8.46916 10.9261 8.5624L9.79987 9.59751L7.02531 12.1511C6.3932 12.7326 6.11463 13.6041 6.29265 14.4444L7.71239 21.1453C7.80994 21.6057 8.03905 22.0285 8.37185 22.3613L12.5151 26.5045C12.8079 26.7974 13.2828 26.7974 13.5757 26.5045C13.8686 26.2116 13.8686 25.7368 13.5757 25.4439L9.43251 21.3007C9.305 21.1732 9.21646 21.011 9.17908 20.8346L7.75934 14.1336C7.69114 13.8117 7.7982 13.4774 8.04039 13.2546L10.8156 10.7017L11.0025 10.5297C11.0469 10.8076 11.1237 11.0731 11.2363 11.3156C11.2439 11.332 11.2516 11.3484 11.2594 11.3647C10.8218 11.8579 10.5438 12.5077 10.5352 13.2838C10.4213 15.0365 11.745 16.5532 13.4989 16.6749C15.2575 16.7968 16.7816 15.4697 16.9037 13.7111C17.0256 11.9526 15.6994 10.4286 13.9409 10.3064C13.4603 10.2731 12.977 10.344 12.5316 10.5079C12.4494 10.2262 12.4273 9.84373 12.4985 9.42297C12.523 9.42102 12.5476 9.42004 12.5724 9.42004L14.2925 9.42073H20.6606C20.9076 9.42074 21.1446 9.51815 21.3194 9.6928L29.8198 18.1933C30.1127 18.4861 30.5876 18.4861 30.8805 18.1933C31.1733 17.9004 31.1732 17.4255 30.8805 17.1326L22.38 8.63214C21.924 8.17618 21.3055 7.91952 20.6606 7.91951H16.5542ZM15.0068 7.91951C14.9265 7.74849 14.7801 7.61725 14.5829 7.52685C14.2411 7.37026 13.8742 7.39975 13.6775 7.51761C13.4996 7.62434 13.338 7.76074 13.1949 7.91995L14.2925 7.91951H15.0068ZM12.2025 12.6289C12.0938 12.8338 12.0332 13.068 12.0332 13.3212L12.0333 13.3477L12.0316 13.373C11.9669 14.3053 12.6705 15.1138 13.6027 15.1785C14.5349 15.243 15.3426 14.5395 15.4073 13.6073C15.4211 13.4073 15.3996 13.2131 15.3482 13.0308C14.6727 13.405 13.9462 13.468 13.2596 13.2435C12.8681 13.1154 12.5127 12.9017 12.2025 12.6289ZM14.1904 11.8652C14.0229 11.8859 13.8673 11.864 13.7261 11.8178C13.7074 11.8117 13.6888 11.8051 13.67 11.798C13.725 11.7973 13.7807 11.7989 13.837 11.8028C13.9592 11.8113 14.0774 11.8326 14.1904 11.8652ZM17.0118 31.0013L24.8155 38.805C25.7652 39.7545 27.3048 39.7546 28.2544 38.805L38.6842 28.3752C39.6337 27.4256 39.6336 25.8859 38.6842 24.9363L35.3766 21.6287C35.0837 21.336 34.6087 21.336 34.3159 21.6287C34.0231 21.9215 34.0232 22.3964 34.3159 22.6893L37.6236 25.997C37.9872 26.3608 37.9872 26.9507 37.6236 27.3145L27.1937 37.7444C26.8299 38.1081 26.24 38.108 25.8762 37.7444L18.0725 29.9406C17.7796 29.6477 17.3047 29.6477 17.0118 29.9406C16.7189 30.2335 16.7189 30.7084 17.0118 31.0013ZM30.513 31.7236L28.567 29.7776C28.1698 30.1557 27.6856 30.5451 27.1142 30.9459C26.471 31.3972 25.7845 31.7764 25.0548 32.0836L22.4482 29.3906L23.5859 28.2528L25.3141 29.5202C25.7173 29.3474 26.1013 29.1457 26.4662 28.9153C26.831 28.6657 27.1574 28.3969 27.4455 28.1088C27.8103 27.744 28.0935 27.3648 28.2952 26.9711C28.4872 26.5679 28.5688 26.1694 28.54 25.7758C28.5112 25.3822 28.3432 25.0317 28.0359 24.7245C27.7095 24.3981 27.3591 24.23 26.9846 24.2204C26.6102 24.2108 26.2069 24.2973 25.7749 24.4797C25.3429 24.6621 24.8964 24.8877 24.4356 25.1565C23.9651 25.4158 23.4851 25.6654 22.9954 25.9054C22.5058 26.1454 22.0113 26.3231 21.5121 26.4383C21.0032 26.5439 20.4992 26.5295 19.9999 26.3951C19.5007 26.2607 19.0062 25.9486 18.5166 25.459C17.8829 24.8253 17.5133 24.1484 17.4077 23.4284C17.2925 22.6987 17.3933 21.9642 17.7101 21.225C17.9171 20.7205 18.2003 20.2356 18.5597 19.7703L16.6588 17.8694L17.9261 16.6021L19.7865 18.4625C19.9831 18.2984 20.2031 18.1343 20.4464 17.9702C20.8496 17.6822 21.2721 17.4134 21.7137 17.1637C22.1553 16.8949 22.5634 16.6885 22.9378 16.5445L25.2421 19.1367L24.1187 20.2601L22.4338 19.0935C22.1265 19.228 21.8289 19.4008 21.5409 19.612C21.2433 19.8136 20.9696 20.0392 20.72 20.2889C20.384 20.6249 20.1151 20.9801 19.9135 21.3546C19.7215 21.7194 19.6303 22.0794 19.6399 22.4347C19.6591 22.7803 19.8223 23.1067 20.1295 23.414C20.4272 23.7116 20.7584 23.8604 21.1232 23.8604C21.4977 23.8508 21.8961 23.7596 22.3186 23.5868C22.7506 23.4044 23.2018 23.1835 23.6723 22.9243C24.1523 22.6555 24.642 22.4059 25.1412 22.1754C25.6309 21.9354 26.1301 21.7626 26.639 21.657C27.1478 21.5514 27.6567 21.5706 28.1655 21.7146C28.6744 21.8394 29.1736 22.1466 29.6633 22.6363C30.297 23.27 30.6714 23.9612 30.7866 24.7101C30.9018 25.4398 30.8202 26.1838 30.5418 26.9423C30.347 27.4489 30.0818 27.9422 29.7465 28.4224L31.7803 30.4563L30.513 31.7236Z" fill="#332A2A"/>
</g>
<defs>
<clipPath id="clip0_699_10509">
<rect width="44" height="44" fill="white"/>
</clipPath>
</defs>
</svg>
