<svg width="23" height="23" viewBox="0 0 23 23" fill="none" xmlns="http://www.w3.org/2000/svg">
<g clip-path="url(#clip0_1751_12550)">
<path d="M17.125 9.104H5.875C4.21815 9.104 2.875 10.4472 2.875 12.104V16.2498C2.875 16.8021 3.32272 17.2498 3.875 17.2498H4.8578C5.25439 17.2498 5.6135 17.0155 5.77317 16.6525L6.23724 15.5974C6.39692 15.2344 6.75603 15 7.15261 15H15.4628C15.7982 15 16.1114 15.1682 16.2966 15.4479L17.193 16.8019C17.3782 17.0816 17.6913 17.2498 18.0268 17.2498H19.125C19.6773 17.2498 20.125 16.8021 20.125 16.2498V12.104C20.125 10.4471 18.7819 9.104 17.125 9.104Z" fill="#E05149"/>
<path d="M11.5 2.2002C11.8728 2.2002 12.1748 2.50221 12.1748 2.875C12.1748 3.24779 11.8728 3.5498 11.5 3.5498H6.75C6.57051 3.5498 6.4248 3.69551 6.4248 3.875V8.42969H7.1875C7.56029 8.42969 7.8623 8.7317 7.8623 9.10449C7.86213 9.47713 7.56018 9.7793 7.1875 9.7793H4.875C4.14322 9.7793 3.54981 10.3727 3.5498 11.1045V16.25C3.54998 16.4293 3.69562 16.5752 3.875 16.5752H5.08398L5.83398 15.2627C6.13211 14.741 6.68722 14.4191 7.28809 14.4189H15.7109C16.3119 14.4189 16.8668 14.741 17.165 15.2627L17.915 16.5752H19.125C19.3044 16.5752 19.45 16.4293 19.4502 16.25V11.1045C19.4502 10.3727 18.8568 9.7793 18.125 9.7793H11.5C11.1273 9.7793 10.8254 9.47713 10.8252 9.10449C10.8252 8.7317 11.1272 8.42969 11.5 8.42969H16.5752V3.875C16.5752 3.69551 16.4295 3.5498 16.25 3.5498H14.375C14.0022 3.5498 13.7002 3.24779 13.7002 2.875C13.7002 2.50221 14.0022 2.2002 14.375 2.2002H16.25C17.1751 2.2002 17.9248 2.94992 17.9248 3.875V8.42969H18.125C19.6024 8.42969 20.7998 9.62713 20.7998 11.1045V16.25C20.7996 17.1749 20.05 17.9258 19.125 17.9258H18.6875L18.8975 18.2939C19.5355 19.4105 18.7293 20.7997 17.4434 20.7998H15.333C14.9604 20.7996 14.6582 20.4977 14.6582 20.125C14.6582 19.7523 14.9604 19.4504 15.333 19.4502H17.4434C17.6927 19.4501 17.8492 19.1804 17.7256 18.9639L15.9932 15.9326C15.9353 15.8314 15.8275 15.7686 15.7109 15.7686H7.28809C7.17168 15.7688 7.06363 15.8315 7.00586 15.9326L5.27441 18.9639C5.15081 19.1804 5.30734 19.45 5.55664 19.4502H11.5C11.8726 19.4504 12.1748 19.7523 12.1748 20.125C12.1748 20.4977 11.8726 20.7996 11.5 20.7998H5.55664C4.27082 20.7996 3.4638 19.4105 4.10156 18.2939L4.31152 17.9258H3.875C2.95003 17.9258 2.20037 17.1749 2.2002 16.25V11.1045C2.2002 9.62713 3.39764 8.42969 4.875 8.42969H5.0752V3.875C5.0752 2.94992 5.82492 2.2002 6.75 2.2002H11.5Z" fill="#322B2B"/>
</g>
<defs>
<clipPath id="clip0_1751_12550">
<rect width="23" height="23" fill="white"/>
</clipPath>
</defs>
</svg>
