<svg width="44" height="44" viewBox="0 0 44 44" fill="none" xmlns="http://www.w3.org/2000/svg">
<g clip-path="url(#clip0_1751_12585)">
<path d="M22 4.75C22.4142 4.75 22.75 5.08579 22.75 5.5C22.75 5.91421 22.4142 6.25 22 6.25H12C11.8619 6.25 11.75 6.36193 11.75 6.5V16.667H13.75C14.1642 16.667 14.5 17.0028 14.5 17.417C14.4998 17.8311 14.1641 18.167 13.75 18.167H8.5C7.25736 18.167 6.25 19.1744 6.25 20.417V32C6.25018 32.1379 6.36204 32.25 6.5 32.25H9.33301V26.75C9.33301 25.2313 10.5644 24.0002 12.083 24H31.916L32.1973 24.0146C33.5841 24.1554 34.666 25.3261 34.666 26.75V32.25H37.5C37.638 32.25 37.7498 32.1379 37.75 32V21.542C37.75 21.5029 37.754 21.4643 37.7598 21.4268C37.7541 21.3897 37.75 21.3512 37.75 21.3125V20.417C37.75 19.1744 36.7426 18.167 35.5 18.167H22C21.5859 18.167 21.2502 17.8311 21.25 17.417C21.25 17.0028 21.5858 16.667 22 16.667H32.25V6.5C32.25 6.36193 32.1381 6.25 32 6.25H27.5C27.0858 6.25 26.75 5.91421 26.75 5.5C26.75 5.08579 27.0858 4.75 27.5 4.75H32C32.9665 4.75 33.75 5.5335 33.75 6.5V16.667H35.5C37.5711 16.667 39.25 18.3459 39.25 20.417V21.3125C39.25 21.3512 39.2449 21.3896 39.2393 21.4268C39.2451 21.4643 39.25 21.5028 39.25 21.542V32C39.2498 32.9663 38.4664 33.75 37.5 33.75H34.8164L36.4629 36.6318C37.1293 37.7984 36.2869 39.2499 34.9434 39.25H29.333C28.9189 39.2498 28.583 38.9141 28.583 38.5C28.583 38.0859 28.919 37.7502 29.333 37.75H34.9434C35.1352 37.7499 35.2554 37.5426 35.1602 37.376L30.8027 29.751C30.7582 29.6732 30.6755 29.625 30.5859 29.625H13.4131C13.3236 29.6252 13.2407 29.6732 13.1963 29.751L8.83887 37.376C8.74394 37.5425 8.86497 37.7498 9.05664 37.75H22C22.4141 37.7502 22.75 38.0859 22.75 38.5C22.75 38.9141 22.4141 39.2498 22 39.25H9.05664C7.7132 39.2498 6.87065 37.7984 7.53711 36.6318L9.18359 33.75H6.5C5.53361 33.75 4.75018 32.9663 4.75 32V20.417C4.75 18.3459 6.42893 16.667 8.5 16.667H10.25V6.5C10.25 5.5335 11.0335 4.75 12 4.75H22ZM12.083 25.5C11.3928 25.5002 10.833 26.0598 10.833 26.75V30.8633L11.8936 29.0068C12.205 28.4617 12.7853 28.1252 13.4131 28.125H30.5859C31.2139 28.125 31.7939 28.4617 32.1055 29.0068L33.166 30.8623V26.75C33.166 26.1027 32.6743 25.5708 32.0439 25.5068L31.916 25.5H12.083Z" fill="#322B2B"/>
</g>
<defs>
<clipPath id="clip0_1751_12585">
<rect width="44" height="44" fill="white"/>
</clipPath>
</defs>
</svg>
