<svg width="18" height="18" viewBox="0 0 18 18" fill="none" xmlns="http://www.w3.org/2000/svg">
<g clip-path="url(#clip0_1751_12588)">
<path d="M9 1.625C9.34518 1.625 9.625 1.90482 9.625 2.25C9.625 2.59518 9.34518 2.875 9 2.875H5.5C5.29289 2.875 5.125 3.04289 5.125 3.25V6.5H5.625C5.97018 6.5 6.25 6.77982 6.25 7.125C6.25 7.47018 5.97018 7.75 5.625 7.75H3.25C3.04289 7.75 2.875 7.91789 2.875 8.125V12.875H3.92285L4.41895 12.0059C4.70824 11.4997 5.24707 11.1876 5.83008 11.1875H12.1699C12.7529 11.1876 13.2918 11.4997 13.5811 12.0059L14.0771 12.875H15.125V8.125C15.125 7.91789 14.9571 7.75 14.75 7.75H9C8.65482 7.75 8.375 7.47018 8.375 7.125C8.375 6.77982 8.65482 6.5 9 6.5H12.875V3.25C12.875 3.04289 12.7071 2.875 12.5 2.875H11.25C10.9048 2.875 10.625 2.59518 10.625 2.25C10.625 1.90482 10.9048 1.625 11.25 1.625H12.5C13.3975 1.625 14.125 2.35254 14.125 3.25V6.5H14.75C15.6475 6.5 16.375 7.22754 16.375 8.125V13.5C16.375 13.8452 16.0952 14.125 15.75 14.125H14.7764C15.218 15.1716 14.4553 16.375 13.2764 16.375H12C11.6548 16.375 11.375 16.0952 11.375 15.75C11.375 15.4048 11.6548 15.125 12 15.125H13.2764C13.5643 15.125 13.7454 14.8135 13.6025 14.5635L12.4951 12.626C12.4283 12.5095 12.3042 12.4376 12.1699 12.4375H5.83008C5.69576 12.4376 5.57167 12.5095 5.50488 12.626L4.39746 14.5635C4.25461 14.8135 4.4357 15.125 4.72363 15.125H9C9.34518 15.125 9.625 15.4048 9.625 15.75C9.625 16.0952 9.34518 16.375 9 16.375H4.72363C3.54469 16.375 2.782 15.1716 3.22363 14.125H2.25C1.90482 14.125 1.625 13.8452 1.625 13.5V8.125C1.625 7.22754 2.35254 6.5 3.25 6.5H3.875V3.25C3.875 2.35254 4.60254 1.625 5.5 1.625H9Z" fill="#322B2B"/>
</g>
<defs>
<clipPath id="clip0_1751_12588">
<rect width="18" height="18" fill="white"/>
</clipPath>
</defs>
</svg>
