<svg width="28" height="28" viewBox="0 0 28 28" fill="none" xmlns="http://www.w3.org/2000/svg">
<g clip-path="url(#clip0_1751_12586)">
<path d="M14 2.75C14.4142 2.75 14.75 3.08579 14.75 3.5C14.75 3.91421 14.4142 4.25 14 4.25H8C7.86193 4.25 7.75 4.36193 7.75 4.5V10.333H8.75C9.1641 10.333 9.49982 10.6689 9.5 11.083C9.5 11.4972 9.16421 11.833 8.75 11.833H6.5C5.25747 11.833 4.25018 12.8405 4.25 14.083V20L4.25488 20.0498C4.27809 20.1639 4.37909 20.25 4.5 20.25H5.66699V17.75C5.66699 16.2312 6.89821 15 8.41699 15H19.584C21.1025 15.0004 22.334 16.2314 22.334 17.75V20.25H23.5C23.638 20.25 23.7498 20.1379 23.75 20V13.708C23.75 13.6817 23.7513 13.6555 23.7539 13.6299C23.7519 13.6078 23.75 13.5851 23.75 13.5625C23.7498 12.6077 22.9754 11.833 22.0205 11.833H14C13.5858 11.833 13.25 11.4972 13.25 11.083C13.2502 10.6689 13.5859 10.333 14 10.333H20.25V4.5C20.25 4.36193 20.1381 4.25 20 4.25H17.5C17.0858 4.25 16.75 3.91421 16.75 3.5C16.75 3.08579 17.0858 2.75 17.5 2.75H20C20.9665 2.75 21.75 3.5335 21.75 4.5V10.333H22.0205C23.8038 10.333 25.2498 11.7792 25.25 13.5625C25.25 13.5851 25.2481 13.6078 25.2461 13.6299C25.2487 13.6555 25.25 13.6817 25.25 13.708V20C25.2498 20.9663 24.4664 21.75 23.5 21.75H22.626L23.1299 22.6318C23.7963 23.7984 22.9538 25.2498 21.6104 25.25H18.667C18.2528 25.25 17.917 24.9142 17.917 24.5C17.917 24.0858 18.2528 23.75 18.667 23.75H21.6104C21.8021 23.7498 21.9222 23.5425 21.8271 23.376L19.4707 19.251C19.4262 19.1732 19.3425 19.1251 19.2529 19.125H8.74707C8.6575 19.1251 8.57476 19.1732 8.53027 19.251L6.17285 23.376C6.07773 23.5426 6.19871 23.75 6.39062 23.75H14C14.4141 23.7502 14.75 24.0859 14.75 24.5C14.75 24.9141 14.4141 25.2498 14 25.25H6.39062C5.04693 25.25 4.20444 23.7985 4.87109 22.6318L5.375 21.75H4.5C3.59394 21.75 2.84845 21.0611 2.75879 20.1787L2.75 20V14.083C2.75017 12.0961 4.29561 10.4704 6.25 10.3418V4.5C6.25 3.5335 7.0335 2.75 8 2.75H14ZM8.41699 16.5C7.72664 16.5 7.16699 17.0596 7.16699 17.75V18.6123L7.22754 18.5068C7.53909 17.9617 8.11922 17.6251 8.74707 17.625H19.2529C19.8808 17.6251 20.4609 17.9617 20.7725 18.5068L20.834 18.6143V17.75C20.834 17.0599 20.274 16.5004 19.584 16.5H8.41699Z" fill="#322B2B"/>
</g>
<defs>
<clipPath id="clip0_1751_12586">
<rect width="28" height="28" fill="white"/>
</clipPath>
</defs>
</svg>
