<svg width="18" height="18" viewBox="0 0 18 18" fill="none" xmlns="http://www.w3.org/2000/svg">
<g clip-path="url(#clip0_662_7609)">
<path d="M5.20898 14.6592C5.38173 14.3605 5.76378 14.2582 6.0625 14.4307C6.96277 14.9514 8.00833 15.25 9.125 15.25C9.47349 15.25 9.81468 15.2207 10.1465 15.165L10.5449 15.0986L10.7695 15.4346L10.957 15.7158C11.1486 16.0029 11.0712 16.3904 10.7842 16.582C10.5126 16.7632 10.1537 16.702 9.95312 16.4521C9.68102 16.4826 9.40483 16.5 9.125 16.5C7.78282 16.5 6.52285 16.1405 5.4375 15.5127C5.13875 15.3399 5.03625 14.9579 5.20898 14.6592ZM13.7646 9.75C14.9007 9.75004 15.9006 10.331 16.4844 11.209C16.6754 11.4963 16.5977 11.884 16.3105 12.0752C16.0231 12.2663 15.6345 12.1887 15.4434 11.9014C15.0814 11.357 14.4647 11 13.7646 11C12.6521 11 11.75 11.9021 11.75 13.0146C11.7501 14.1272 12.6521 15.0293 13.7646 15.0293C14.8771 15.0292 15.7792 14.1271 15.7793 13.0146C15.7793 12.6695 16.0591 12.3896 16.4043 12.3896C16.7494 12.3898 17.0293 12.6695 17.0293 13.0146C17.0292 14.8175 15.5675 16.2792 13.7646 16.2793C11.9617 16.2793 10.5001 14.8175 10.5 13.0146C10.5 11.2117 11.9617 9.75 13.7646 9.75ZM13.8467 11.5879C14.3288 11.5879 14.7218 11.836 14.9883 12.0762C15.2592 12.3204 15.4598 12.6091 15.5684 12.8125C15.6467 12.9595 15.6468 13.1362 15.5684 13.2832C15.4599 13.4866 15.259 13.7744 14.9883 14.0186C14.7218 14.2587 14.3288 14.5078 13.8467 14.5078C13.3648 14.5075 12.9724 14.2587 12.7061 14.0186C12.4353 13.7744 12.2344 13.4865 12.126 13.2832C12.0477 13.1363 12.0477 12.9594 12.126 12.8125C12.2345 12.6091 12.4352 12.3204 12.7061 12.0762C12.9724 11.8361 13.3649 11.5882 13.8467 11.5879ZM3.62793 4.20801C3.85814 3.95084 4.25355 3.92899 4.51074 4.15918C4.76791 4.38939 4.78976 4.7848 4.55957 5.04199C3.58935 6.12603 3 7.5559 3 9.125C3 10.6135 3.53064 11.9766 4.41309 13.0381C4.63337 13.3034 4.59704 13.6973 4.33203 13.918C4.0666 14.1386 3.67184 14.1023 3.45117 13.8369C2.38913 12.5594 1.75 10.916 1.75 9.125C1.75 7.23653 2.46049 5.51237 3.62793 4.20801ZM13.8467 12.5879C13.8119 12.588 13.775 12.5932 13.7363 12.6035C13.9066 12.6108 14.042 12.7508 14.042 12.9229C14.0419 13.0994 13.8993 13.2431 13.7227 13.2432C13.546 13.2432 13.4024 13.0995 13.4023 12.9229C13.4023 12.8644 13.4189 12.8099 13.4463 12.7627C13.4237 12.7806 13.3992 12.7984 13.376 12.8193C13.2963 12.8912 13.2246 12.9706 13.165 13.0469C13.2248 13.1234 13.2959 13.2042 13.376 13.2764C13.5527 13.4356 13.7148 13.5075 13.8467 13.5078C13.9786 13.5078 14.1414 13.4358 14.3184 13.2764C14.3983 13.2043 14.4687 13.1233 14.5283 13.0469C14.4688 12.9708 14.3979 12.891 14.3184 12.8193C14.1413 12.6598 13.9786 12.5879 13.8467 12.5879ZM9.25 4.625C9.59518 4.625 9.875 4.90482 9.875 5.25V9.04102L10.875 10.375C11.0821 10.6511 11.0261 11.0429 10.75 11.25C10.4739 11.4571 10.0821 11.4011 9.875 11.125L8.75 9.625C8.66886 9.51681 8.625 9.38523 8.625 9.25V5.25C8.625 4.90482 8.90482 4.625 9.25 4.625ZM9.125 1.75C12.9746 1.75 16.1321 4.69935 16.4678 8.46191L16.4922 8.48438C16.7427 8.72188 16.7531 9.11671 16.5156 9.36719C16.2781 9.61765 15.8833 9.62813 15.6328 9.39062L15.4346 9.20312L15.2539 9.03223L15.2402 8.78418C15.0637 5.56026 12.3934 3 9.125 3C8.21312 3 7.34925 3.19856 6.57324 3.55469C6.25957 3.69865 5.88816 3.56168 5.74414 3.24805C5.60016 2.93433 5.73805 2.56293 6.05176 2.41895C6.98808 1.98921 8.02947 1.75 9.125 1.75Z" fill="#332A2A"/>
</g>
<defs>
<clipPath id="clip0_662_7609">
<rect width="18" height="18" fill="white"/>
</clipPath>
</defs>
</svg>
