<svg width="18" height="18" viewBox="0 0 18 18" fill="none" xmlns="http://www.w3.org/2000/svg">
<g clip-path="url(#clip0_662_7561)">
<path fill-rule="evenodd" clip-rule="evenodd" d="M15.4508 10.9935C15.6453 10.3634 15.75 9.69395 15.75 9C15.75 5.27208 12.7279 2.25 9 2.25C5.27208 2.25 2.25 5.27208 2.25 9C2.25 12.7279 5.27208 15.75 9 15.75C10.1269 15.75 11.1894 15.4738 12.1233 14.9855C11.3742 14.5232 10.875 13.6949 10.875 12.75C10.875 11.3003 12.0503 10.125 13.5 10.125C14.2743 10.125 14.9703 10.4603 15.4508 10.9935Z" fill="#E05149"/>
<path fill-rule="evenodd" clip-rule="evenodd" d="M9 2.875C8.08805 2.875 7.22426 3.07389 6.44821 3.43008C6.13449 3.57406 5.76346 3.43647 5.61947 3.12275C5.47549 2.80904 5.61308 2.438 5.9268 2.29402C6.86312 1.86428 7.90447 1.625 9 1.625C12.8501 1.625 16.0108 4.57492 16.3457 8.33824L16.3675 8.35897C16.618 8.59648 16.6285 8.99207 16.391 9.24254C16.1535 9.49302 15.7579 9.50354 15.5075 9.26603L15.3097 9.07853L15.1293 8.90745L15.1157 8.65917C14.9392 5.43525 12.2684 2.875 9 2.875ZM4.38558 4.03429C4.64279 4.2645 4.66467 4.65962 4.43447 4.91682C3.46423 6.00086 2.875 7.43088 2.875 9C2.875 10.4885 3.40516 11.8515 4.28761 12.9129C4.50828 13.1784 4.47199 13.5724 4.20656 13.7931C3.94113 14.0138 3.54707 13.9775 3.3264 13.7121C2.26426 12.4345 1.625 10.7911 1.625 9C1.625 7.11153 2.33562 5.38754 3.50305 4.08318C3.73326 3.82598 4.12838 3.80409 4.38558 4.03429ZM5.084 14.534C5.25684 14.2352 5.63917 14.1331 5.93795 14.306C6.83822 14.8267 7.88333 15.125 9 15.125C9.34851 15.125 9.68977 15.096 10.0216 15.0403L10.4203 14.9734L10.6448 15.3096L10.8323 15.5905C11.024 15.8775 10.9466 16.2656 10.6595 16.4573C10.388 16.6386 10.0261 16.5792 9.82548 16.3293C9.5543 16.3595 9.27885 16.375 9 16.375C7.65773 16.375 6.39745 16.0158 5.31205 15.388C5.01326 15.2151 4.91116 14.8328 5.084 14.534ZM13.5145 10.75C12.4019 10.75 11.5 11.6519 11.5 12.7645C11.5 13.8771 12.4019 14.7791 13.5145 14.7791C14.6271 14.7791 15.5291 13.8771 15.5291 12.7645C15.5291 12.4194 15.8089 12.1395 16.1541 12.1395C16.4992 12.1395 16.7791 12.4194 16.7791 12.7645C16.7791 14.5675 15.3175 16.0291 13.5145 16.0291C11.7116 16.0291 10.25 14.5675 10.25 12.7645C10.25 10.9616 11.7116 9.5 13.5145 9.5C14.6506 9.5 15.6508 10.0809 16.2346 10.9589C16.4257 11.2464 16.3476 11.6343 16.0602 11.8254C15.7727 12.0165 15.3848 11.9384 15.1937 11.651C14.8317 11.1066 14.2146 10.75 13.5145 10.75ZM13.126 13.0262C13.046 12.9541 12.9747 12.8743 12.915 12.7977C12.9747 12.7212 13.046 12.6414 13.126 12.5692C13.3032 12.4095 13.4655 12.3379 13.5975 12.3379C13.7296 12.3379 13.8918 12.4095 14.069 12.5692C14.149 12.6414 14.2204 12.7212 14.2801 12.7977C14.2204 12.8743 14.149 12.9541 14.069 13.0262C13.8918 13.1859 13.7296 13.2576 13.5975 13.2576C13.4655 13.2576 13.3032 13.1859 13.126 13.0262ZM13.5975 11.3379C13.1153 11.3379 12.723 11.5862 12.4565 11.8265C12.1855 12.0707 11.9851 12.359 11.8766 12.5624C11.7981 12.7095 11.7981 12.886 11.8766 13.033C11.9851 13.2365 12.1855 13.5247 12.4565 13.769C12.723 14.0092 13.1153 14.2576 13.5975 14.2576C14.0798 14.2576 14.472 14.0092 14.7385 13.769C15.0095 13.5247 15.21 13.2365 15.3185 13.033C15.3969 12.886 15.3969 12.7095 15.3185 12.5624C15.21 12.359 15.0095 12.0707 14.7385 11.8265C14.472 11.5862 14.0798 11.3379 13.5975 11.3379ZM13.9175 12.7977C13.9175 12.9744 13.7742 13.1177 13.5975 13.1177C13.4208 13.1177 13.2776 12.9744 13.2776 12.7977C13.2776 12.621 13.4208 12.4778 13.5975 12.4778C13.7742 12.4778 13.9175 12.621 13.9175 12.7977ZM9.625 5C9.625 4.65482 9.34518 4.375 9 4.375C8.65482 4.375 8.375 4.65482 8.375 5V9C8.375 9.13523 8.41886 9.26681 8.5 9.375L9.625 10.875C9.83211 11.1511 10.2239 11.2071 10.5 11C10.7761 10.7929 10.8321 10.4011 10.625 10.125L9.625 8.79167V5Z" fill="#252323"/>
</g>
<defs>
<clipPath id="clip0_662_7561">
<rect width="18" height="18" fill="white"/>
</clipPath>
</defs>
</svg>
