<svg width="23" height="23" viewBox="0 0 23 23" fill="none" xmlns="http://www.w3.org/2000/svg">
<g clip-path="url(#clip0_662_7549)">
<path fill-rule="evenodd" clip-rule="evenodd" d="M19.7427 14.0473C19.9912 13.2422 20.125 12.3867 20.125 11.5C20.125 6.73654 16.2635 2.875 11.5 2.875C6.73654 2.875 2.875 6.73654 2.875 11.5C2.875 16.2635 6.73654 20.125 11.5 20.125C12.94 20.125 14.2976 19.7721 15.4909 19.1481C14.5338 18.5574 13.8958 17.499 13.8958 16.2917C13.8958 14.4392 15.3975 12.9375 17.25 12.9375C18.2394 12.9375 19.1287 13.3659 19.7427 14.0473Z" fill="#E05149"/>
<path d="M6.65332 18.6826C6.84006 18.3603 7.25265 18.25 7.5752 18.4365C8.74385 19.1126 10.1006 19.5 11.5498 19.5C12.002 19.5 12.4452 19.4619 12.876 19.3896L13.3066 19.3174L13.5488 19.6807L13.7881 20.04C13.9949 20.3501 13.9115 20.7686 13.6016 20.9756C13.2915 21.1826 12.872 21.0991 12.665 20.7891L12.6611 20.7832C12.2965 20.8267 11.9257 20.8496 11.5498 20.8496C9.85707 20.8496 8.26797 20.3971 6.89941 19.6055C6.57672 19.4188 6.46665 19.0053 6.65332 18.6826ZM17.3682 12.3623C18.7764 12.3624 20.0162 13.0823 20.7402 14.1709C20.9466 14.4813 20.8622 14.9 20.5518 15.1064C20.2414 15.3126 19.8226 15.2291 19.6162 14.9189C19.1318 14.1905 18.3057 13.712 17.3682 13.7119C15.8784 13.7121 14.6699 14.9203 14.6699 16.4102C14.6701 17.8998 15.8785 19.1072 17.3682 19.1074C18.8578 19.1073 20.0653 17.8998 20.0654 16.4102C20.0654 16.0376 20.3678 15.7347 20.7402 15.7344C21.113 15.7344 21.416 16.0374 21.416 16.4102C21.4158 18.6454 19.6034 20.4578 17.3682 20.458C15.1329 20.4578 13.3205 18.6454 13.3203 16.4102C13.3203 14.1748 15.1328 12.3625 17.3682 12.3623ZM17.4746 14.6006C18.0856 14.6007 18.5837 14.916 18.9229 15.2217C19.2675 15.5324 19.5231 15.8995 19.6611 16.1582C19.7589 16.3419 19.7589 16.5624 19.6611 16.7461C19.5232 17.0048 19.2676 17.3718 18.9229 17.6826C18.5836 17.9884 18.0857 18.3035 17.4746 18.3037C16.8633 18.3037 16.3647 17.9885 16.0254 17.6826C15.6806 17.3718 15.4251 17.0048 15.2871 16.7461C15.1893 16.5625 15.1893 16.3418 15.2871 16.1582C15.4251 15.8995 15.6807 15.5325 16.0254 15.2217C16.3647 14.9159 16.8633 14.6006 17.4746 14.6006ZM4.61816 5.34961C4.86679 5.07191 5.29354 5.04828 5.57129 5.29688C5.84898 5.5455 5.87261 5.97225 5.62402 6.25C4.36477 7.65695 3.59961 9.51323 3.59961 11.5498C3.59961 13.4817 4.28825 15.2512 5.43359 16.6289C5.6717 16.9156 5.63228 17.3408 5.3457 17.5791C5.05917 17.8173 4.63389 17.7785 4.39551 17.4922C3.05609 15.8811 2.25 13.8085 2.25 11.5498C2.25 9.16834 3.14594 6.99451 4.61816 5.34961ZM17.4746 15.8506C17.3011 15.8506 17.0898 15.9444 16.8623 16.1494C16.7566 16.2447 16.663 16.3513 16.585 16.4521C16.6629 16.5529 16.7567 16.6587 16.8623 16.7539C17.0899 16.959 17.301 17.0537 17.4746 17.0537C17.6481 17.0535 17.8585 16.9589 18.0859 16.7539C18.1914 16.6588 18.2844 16.5528 18.3623 16.4521C18.2843 16.3514 18.1915 16.2446 18.0859 16.1494C17.8587 15.9446 17.648 15.8508 17.4746 15.8506ZM17.4248 15.9932C17.6504 15.9934 17.8329 16.1767 17.833 16.4023C17.833 16.628 17.6504 16.8113 17.4248 16.8115C17.199 16.8115 17.0156 16.6281 17.0156 16.4023C17.0157 16.1766 17.1991 15.9932 17.4248 15.9932ZM11.5996 6.06934C11.9724 6.06934 12.2744 6.37135 12.2744 6.74414V11.374L13.5771 13.1113C13.8008 13.4095 13.7406 13.833 13.4424 14.0566C13.1442 14.2803 12.7207 14.2191 12.4971 13.9209L11.0596 12.0049C10.972 11.8881 10.9248 11.7456 10.9248 11.5996V6.74414C10.9248 6.37135 11.2268 6.06934 11.5996 6.06934ZM11.5498 2.25C16.4196 2.25 20.4116 5.99262 20.8135 10.7588L20.8789 10.8203C21.1494 11.0768 21.1606 11.5039 20.9043 11.7744C20.6478 12.0449 20.2207 12.0563 19.9502 11.7998L19.6973 11.5605L19.502 11.376L19.4873 11.1074C19.2581 6.92285 15.792 3.59961 11.5498 3.59961C10.3664 3.59961 9.24478 3.85792 8.2373 4.32031C7.89855 4.47563 7.49824 4.32701 7.34277 3.98828C7.18731 3.64948 7.33601 3.24925 7.6748 3.09375C8.85534 2.55195 10.1682 2.25 11.5498 2.25Z" fill="#332A2A"/>
</g>
<defs>
<clipPath id="clip0_662_7549">
<rect width="23" height="23" fill="white"/>
</clipPath>
</defs>
</svg>
