<svg width="28" height="28" viewBox="0 0 28 28" fill="none" xmlns="http://www.w3.org/2000/svg">
<g clip-path="url(#clip0_662_7607)">
<path fill-rule="evenodd" clip-rule="evenodd" d="M14 4.25C12.5488 4.25 11.1735 4.56657 9.93785 5.13371C9.56139 5.30649 9.11615 5.14138 8.94337 4.76492C8.77058 4.38846 8.9357 3.94322 9.31215 3.77044C10.7402 3.11503 12.3285 2.75 14 2.75C19.9013 2.75 24.741 7.29348 25.2124 13.0737L25.3077 13.1641C25.6083 13.4491 25.6209 13.9238 25.3359 14.2244C25.0509 14.525 24.5762 14.5376 24.2756 14.2526L23.968 13.9609L23.7515 13.7556L23.7352 13.4577C23.4542 8.3255 19.2028 4.25 14 4.25ZM6.67381 6.44115C6.98246 6.71739 7.00872 7.19154 6.73248 7.50019C5.18815 9.22564 4.25 11.5024 4.25 14C4.25 16.3692 5.09409 18.5393 6.49873 20.2289C6.76353 20.5474 6.71999 21.0203 6.40147 21.2851C6.08296 21.5499 5.61009 21.5063 5.34528 21.1878C3.72501 19.2389 2.75 16.7323 2.75 14C2.75 11.1192 3.83382 8.48965 5.61478 6.49981C5.89102 6.19117 6.36517 6.1649 6.67381 6.44115ZM8.1008 22.7197C8.3082 22.3612 8.767 22.2387 9.12554 22.4461C10.5589 23.2752 12.2229 23.75 14 23.75C14.5545 23.75 15.0976 23.7038 15.6259 23.6152L16.1044 23.5349L16.3737 23.9384L16.6654 24.3752C16.8954 24.7197 16.8026 25.1854 16.4581 25.4154C16.1136 25.6454 15.6479 25.5526 15.4179 25.2081L15.3891 25.165C14.9337 25.2211 14.4701 25.25 14 25.25C11.9521 25.25 10.0299 24.7021 8.37446 23.7445C8.01591 23.5371 7.89339 23.0783 8.1008 22.7197ZM21.0226 16.5C19.1692 16.5 17.6667 18.0025 17.6667 19.8559C17.6667 21.7094 19.1692 23.2119 21.0226 23.2119C22.876 23.2119 24.3785 21.7094 24.3785 19.8559C24.3785 19.4417 24.7143 19.1059 25.1285 19.1059C25.5428 19.1059 25.8785 19.4417 25.8785 19.8559C25.8785 22.5378 23.7045 24.7119 21.0226 24.7119C18.3407 24.7119 16.1667 22.5378 16.1667 19.8559C16.1667 17.1741 18.3407 15 21.0226 15C22.7124 15 24.2001 15.8637 25.0688 17.1702C25.2981 17.5152 25.2044 17.9807 24.8595 18.21C24.5145 18.4394 24.049 18.3457 23.8197 18.0007C23.2172 17.0946 22.1892 16.5 21.0226 16.5ZM20.316 20.3765C20.1513 20.228 20.0093 20.0603 19.8989 19.9076C20.0093 19.7549 20.1513 19.5871 20.316 19.4386C20.6052 19.1779 20.8928 19.0395 21.1517 19.0395C21.4106 19.0395 21.6982 19.1779 21.9874 19.4386C22.1521 19.5871 22.2941 19.7549 22.4045 19.9076C22.2941 20.0603 22.1521 20.228 21.9874 20.3765C21.6982 20.6372 21.4106 20.7757 21.1517 20.7757C20.8928 20.7757 20.6052 20.6372 20.316 20.3765ZM21.1517 17.7895C20.455 17.7895 19.8799 18.1488 19.479 18.5102C19.0725 18.8766 18.7712 19.3103 18.6095 19.6135C18.5114 19.7973 18.5114 20.0179 18.6095 20.2017C18.7712 20.5049 19.0725 20.9385 19.479 21.305C19.8799 21.6664 20.455 22.0257 21.1517 22.0257C21.8484 22.0257 22.4234 21.6664 22.8243 21.305C23.2308 20.9385 23.5322 20.5049 23.6939 20.2017C23.792 20.0179 23.792 19.7973 23.6939 19.6135C23.5322 19.3103 23.2308 18.8766 22.8243 18.5102C22.4234 18.1488 21.8484 17.7895 21.1517 17.7895ZM21.6494 19.9076C21.6494 20.1825 21.4266 20.4053 21.1517 20.4053C20.8768 20.4053 20.654 20.1825 20.654 19.9076C20.654 19.6327 20.8768 19.4099 21.1517 19.4099C21.4266 19.4099 21.6494 19.6327 21.6494 19.9076ZM14.75 7.96309C14.75 7.54888 14.4142 7.21309 14 7.21309C13.5858 7.21309 13.25 7.54888 13.25 7.96309V14C13.25 14.1623 13.3026 14.3202 13.4 14.45L15.15 16.7833C15.3985 17.1147 15.8686 17.1819 16.2 16.9333C16.5314 16.6848 16.5985 16.2147 16.35 15.8833L14.75 13.75V7.96309Z" fill="#332A2A"/>
</g>
<defs>
<clipPath id="clip0_662_7607">
<rect width="28" height="28" fill="white"/>
</clipPath>
</defs>
</svg>
