<svg width="44" height="44" viewBox="0 0 44 44" fill="none" xmlns="http://www.w3.org/2000/svg">
<g clip-path="url(#clip0_662_7606)">
<path d="M13.1006 35.917C13.308 35.5584 13.7674 35.4361 14.126 35.6436C16.4417 36.9831 19.1302 37.75 22 37.75C22.8952 37.75 23.7725 37.6754 24.626 37.5322L25.1045 37.4521L25.374 37.8555L25.832 38.542C26.062 38.8864 25.9693 39.352 25.625 39.582C25.2806 39.812 24.815 39.7192 24.585 39.375L24.3887 39.082C23.6074 39.1903 22.8103 39.25 22 39.25C18.8593 39.25 15.912 38.4096 13.374 36.9414C13.0159 36.7339 12.8933 36.2754 13.1006 35.917ZM33.0352 24C35.5408 24 37.747 25.2804 39.0361 27.2188C39.2655 27.5637 39.1721 28.0294 38.8271 28.2588C38.4822 28.4879 38.0164 28.3946 37.7871 28.0498C36.7643 26.5116 35.0177 25.5 33.0352 25.5C29.8861 25.5002 27.333 28.0531 27.333 31.2021C27.333 34.3513 29.8861 36.9041 33.0352 36.9043C36.1844 36.9043 38.7373 34.3514 38.7373 31.2021C38.7373 30.7881 39.0733 30.4524 39.4873 30.4521C39.9015 30.4521 40.2373 30.788 40.2373 31.2021C40.2373 35.1798 37.0128 38.4043 33.0352 38.4043C29.0577 38.4041 25.833 35.1797 25.833 31.2021C25.833 27.2246 29.0577 24.0002 33.0352 24ZM33.0381 28.0322C34.2173 28.0324 35.2402 28.5424 36.0107 29.1211C36.7821 29.7005 37.3626 30.3947 37.6738 30.8809C37.8315 31.1272 37.8313 31.4431 37.6738 31.6895C37.3627 32.1756 36.782 32.8698 36.0107 33.4492C35.2402 34.028 34.2173 34.538 33.0381 34.5381C31.8586 34.5381 30.8351 34.0281 30.0645 33.4492C29.293 32.8697 28.7125 32.1756 28.4014 31.6895C28.2438 31.4431 28.2438 31.1272 28.4014 30.8809C28.7126 30.3947 29.2932 29.7005 30.0645 29.1211C30.8351 28.5423 31.8587 28.0322 33.0381 28.0322ZM9.14258 10.5C9.41879 10.1914 9.89252 10.1653 10.2012 10.4414C10.5097 10.7175 10.5367 11.1913 10.2607 11.5C7.76634 14.287 6.25 17.9657 6.25 22C6.25 25.8268 7.6139 29.3334 9.88281 32.0625C10.1474 32.381 10.1036 32.8534 9.78516 33.1182C9.46674 33.3828 8.99432 33.3397 8.72949 33.0215C6.24495 30.033 4.75 26.1899 4.75 22C4.75 17.5825 6.4116 13.5513 9.14258 10.5ZM33.0381 29.5322C32.2957 29.5322 31.5832 29.8567 30.9658 30.3203C30.5539 30.6298 30.2113 30.9821 29.9629 31.2852C30.2113 31.5882 30.5539 31.9405 30.9658 32.25C31.5833 32.7137 32.2957 33.0381 33.0381 33.0381C33.7805 33.038 34.4929 32.7138 35.1104 32.25C35.522 31.9408 35.863 31.588 36.1113 31.2852C35.863 30.9823 35.522 30.6296 35.1104 30.3203C34.4929 29.8565 33.7805 29.5324 33.0381 29.5322ZM33.0381 30.2842C33.5907 30.2844 34.0389 30.7326 34.0391 31.2852C34.0391 31.8379 33.5908 32.2869 33.0381 32.2871C32.4852 32.2871 32.0361 31.8381 32.0361 31.2852C32.0363 30.7324 32.4853 30.2842 33.0381 30.2842ZM22 10.2627C22.4142 10.2627 22.75 10.5985 22.75 11.0127V21.75L25.3496 25.2168C25.598 25.5481 25.5313 26.0181 25.2002 26.2666C24.869 26.5149 24.399 26.4481 24.1504 26.1172L21.4004 22.4502C21.3031 22.3204 21.25 22.1622 21.25 22V11.0127C21.25 10.5985 21.5858 10.2627 22 10.2627ZM22 4.75C31.1029 4.75 38.5571 11.8007 39.2031 20.7393L39.4746 20.9971C39.7751 21.282 39.7877 21.757 39.5029 22.0576C39.2179 22.3582 38.743 22.3709 38.4424 22.0859L37.959 21.6279L37.7422 21.4219L37.7266 21.124C37.2724 12.8333 30.4045 6.25 22 6.25C19.6566 6.25 17.4342 6.7613 15.4375 7.67773C15.0611 7.8503 14.6161 7.68496 14.4434 7.30859C14.2708 6.9322 14.4361 6.48719 14.8125 6.31445C17.0015 5.30983 19.4364 4.75 22 4.75Z" fill="#332A2A"/>
</g>
<defs>
<clipPath id="clip0_662_7606">
<rect width="44" height="44" fill="white"/>
</clipPath>
</defs>
</svg>
