<svg width="23" height="23" viewBox="0 0 23 23" fill="none" xmlns="http://www.w3.org/2000/svg">
<g clip-path="url(#clip0_662_7608)">
<path fill-rule="evenodd" clip-rule="evenodd" d="M11.5 3.54995C10.3165 3.54995 9.19524 3.80809 8.18776 4.27048C7.84895 4.42599 7.44823 4.27739 7.29273 3.93857C7.13723 3.59976 7.28583 3.19904 7.62464 3.04354C8.8052 2.5017 10.1183 2.19995 11.5 2.19995C16.3708 2.19995 20.3666 5.94412 20.767 10.7118L20.829 10.7706C21.0995 11.0271 21.1109 11.4543 20.8543 11.7248C20.5978 11.9953 20.1706 12.0067 19.9001 11.7502L19.6474 11.5106L19.4526 11.3258L19.4379 11.0577C19.2087 6.87305 15.7422 3.54995 11.5 3.54995ZM5.52131 5.24699C5.79909 5.49561 5.82273 5.92234 5.57411 6.20012C4.31485 7.60707 3.54995 9.46338 3.54995 11.5C3.54995 13.4318 4.23817 15.2012 5.38351 16.5788C5.62183 16.8655 5.58264 17.2911 5.29598 17.5294C5.00931 17.7677 4.58373 17.7286 4.34541 17.4419C3.00599 15.8308 2.19995 13.7586 2.19995 11.5C2.19995 9.11849 3.09596 6.94468 4.56818 5.29978C4.8168 5.022 5.24353 4.99837 5.52131 5.24699ZM6.60317 18.6331C6.78983 18.3104 7.20275 18.2001 7.52544 18.3868C8.69409 19.0628 10.0508 19.45 11.5 19.45C11.9522 19.45 12.395 19.4123 12.8258 19.34L13.2564 19.2678L13.4988 19.6309L13.7384 19.9897C13.9454 20.2998 13.8619 20.7189 13.5518 20.9259C13.2418 21.1329 12.8227 21.0494 12.6157 20.7393L12.6121 20.7341C12.2472 20.7776 11.8761 20.8 11.5 20.8C9.80714 20.8 8.21806 20.3471 6.84946 19.5554C6.52677 19.3687 6.4165 18.9558 6.60317 18.6331ZM17.2685 13.6125C15.7786 13.6125 14.5708 14.8203 14.5708 16.3102C14.5708 17.8001 15.7786 19.0079 17.2685 19.0079C18.7584 19.0079 19.9663 17.8001 19.9663 16.3102C19.9663 15.9374 20.2685 15.6352 20.6413 15.6352C21.014 15.6352 21.3163 15.9374 21.3163 16.3102C21.3163 18.5457 19.504 20.3579 17.2685 20.3579C15.033 20.3579 13.2208 18.5457 13.2208 16.3102C13.2208 14.0747 15.033 12.2625 17.2685 12.2625C18.6771 12.2625 19.9172 12.9825 20.6412 14.0714C20.8476 14.3819 20.7633 14.8009 20.4529 15.0073C20.1424 15.2137 19.7234 15.1293 19.517 14.8189C19.0326 14.0903 18.2062 13.6125 17.2685 13.6125ZM16.7628 16.6549C16.6569 16.5595 16.5629 16.4536 16.4848 16.3526C16.5629 16.2516 16.6569 16.1457 16.7628 16.0503C16.9904 15.8451 17.201 15.7512 17.3746 15.7512C17.5481 15.7512 17.7587 15.8451 17.9863 16.0503C18.0922 16.1457 18.1862 16.2516 18.2643 16.3526C18.1862 16.4536 18.0922 16.5595 17.9863 16.6549C17.7587 16.8601 17.5481 16.9541 17.3746 16.9541C17.201 16.9541 16.9904 16.8601 16.7628 16.6549ZM17.3746 14.5012C16.7632 14.5012 16.2652 14.816 15.9259 15.1219C15.581 15.4327 15.3258 15.7998 15.1878 16.0585C15.0898 16.2423 15.0898 16.4629 15.1878 16.6467C15.3258 16.9055 15.581 17.2725 15.9259 17.5834C16.2652 17.8892 16.7632 18.2041 17.3746 18.2041C17.9859 18.2041 18.484 17.8892 18.8232 17.5834C19.1681 17.2725 19.4233 16.9055 19.5613 16.6467C19.6593 16.4629 19.6593 16.2423 19.5613 16.0585C19.4233 15.7998 19.1681 15.4327 18.8232 15.1219C18.484 14.816 17.9859 14.5012 17.3746 14.5012ZM17.7834 16.3526C17.7834 16.5784 17.6003 16.7614 17.3746 16.7614C17.1488 16.7614 16.9657 16.5784 16.9657 16.3526C16.9657 16.1268 17.1488 15.9438 17.3746 15.9438C17.6003 15.9438 17.7834 16.1268 17.7834 16.3526ZM12.175 6.6444C12.175 6.2716 11.8727 5.9694 11.5 5.9694C11.1272 5.9694 10.825 6.2716 10.825 6.6444V11.5C10.825 11.646 10.8723 11.7881 10.96 11.9049L12.3975 13.8216C12.6211 14.1199 13.0442 14.1803 13.3424 13.9566C13.6407 13.7329 13.7011 13.3099 13.4775 13.0116L12.175 11.275V6.6444Z" fill="#252323"/>
</g>
<defs>
<clipPath id="clip0_662_7608">
<rect width="23" height="23" fill="white"/>
</clipPath>
</defs>
</svg>
