<svg width="44" height="44" viewBox="0 0 44 44" fill="none" xmlns="http://www.w3.org/2000/svg">
<g clip-path="url(#clip0_209_522)">
<path fill-rule="evenodd" clip-rule="evenodd" d="M37.7686 26.8731C38.244 25.3328 38.5 23.6963 38.5 22C38.5 12.8873 31.1127 5.5 22 5.5C12.8873 5.5 5.5 12.8873 5.5 22C5.5 31.1127 12.8873 38.5 22 38.5C24.7548 38.5 27.3518 37.8249 29.6348 36.6312C27.8037 35.5011 26.5833 33.4764 26.5833 31.1667C26.5833 27.6228 29.4562 24.75 33 24.75C34.8928 24.75 36.5941 25.5695 37.7686 26.8731Z" fill="#E05149"/>
<path fill-rule="evenodd" clip-rule="evenodd" d="M22 6.25C19.6566 6.25 17.4346 6.76131 15.4378 7.67775C15.0614 7.85053 14.6161 7.68542 14.4434 7.30896C14.2706 6.93251 14.4357 6.48726 14.8122 6.31448C17.0012 5.30977 19.4363 4.75 22 4.75C31.1038 4.75 38.56 11.802 39.2048 20.7418L39.4744 20.9974C39.775 21.2824 39.7876 21.7571 39.5026 22.0577C39.2176 22.3583 38.7429 22.3709 38.4423 22.0859L37.9589 21.6276L37.7424 21.4223L37.7261 21.1243C37.2721 12.8335 30.4046 6.25 22 6.25ZM10.2016 10.4411C10.5102 10.7174 10.5365 11.1915 10.2603 11.5002C7.76586 14.2872 6.25 17.9657 6.25 22C6.25 25.8268 7.61383 29.3331 9.88274 32.0622C10.1475 32.3807 10.104 32.8536 9.78548 33.1184C9.46696 33.3832 8.99409 33.3397 8.72929 33.0211C6.24475 30.0326 4.75 26.1899 4.75 22C4.75 17.5824 6.41153 13.5512 9.14256 10.4998C9.41881 10.1912 9.89295 10.1649 10.2016 10.4411ZM13.1008 35.917C13.3082 35.5585 13.767 35.436 14.1255 35.6434C16.4414 36.983 19.13 37.75 22 37.75C22.8952 37.75 23.7724 37.6754 24.6259 37.5322L25.1044 37.4519L25.3738 37.8554L25.8321 38.5419C26.0621 38.8864 25.9693 39.3521 25.6248 39.5821C25.2803 39.8121 24.8146 39.7193 24.5846 39.3748L24.3914 39.0855C23.6095 39.194 22.8111 39.25 22 39.25C18.8593 39.25 15.9125 38.41 13.3745 36.9418C13.0159 36.7344 12.8934 36.2756 13.1008 35.917ZM33.0355 25.5C29.8863 25.5 27.3333 28.053 27.3333 31.2022C27.3333 34.3514 29.8863 36.9044 33.0355 36.9044C36.1848 36.9044 38.7377 34.3514 38.7377 31.2022C38.7377 30.788 39.0735 30.4522 39.4877 30.4522C39.9019 30.4522 40.2377 30.788 40.2377 31.2022C40.2377 35.1798 37.0132 38.4044 33.0355 38.4044C29.0579 38.4044 25.8333 35.1798 25.8333 31.2022C25.8333 27.2245 29.0579 24 33.0355 24C35.5414 24 37.7479 25.2804 39.0369 27.2191C39.2662 27.564 39.1725 28.0296 38.8276 28.2589C38.4827 28.4882 38.0171 28.3945 37.7878 28.0496C36.765 26.5113 35.0182 25.5 33.0355 25.5ZM30.9652 32.2502C30.553 31.9405 30.2104 31.5887 29.962 31.2855C30.2104 30.9823 30.553 30.6306 30.9652 30.3209C31.5828 29.857 32.295 29.5327 33.0376 29.5327C33.7802 29.5327 34.4925 29.857 35.11 30.3209C35.5223 30.6306 35.8649 30.9823 36.1133 31.2855C35.8649 31.5887 35.5223 31.9405 35.11 32.2502C34.4925 32.7141 33.7802 33.0384 33.0376 33.0384C32.295 33.0384 31.5828 32.7141 30.9652 32.2502ZM33.0376 28.0327C31.8581 28.0327 30.835 28.5427 30.0643 29.1216C29.2928 29.7011 28.7126 30.395 28.4014 30.8812C28.2437 31.1277 28.2437 31.4434 28.4014 31.6898C28.7126 32.176 29.2928 32.8699 30.0643 33.4495C30.835 34.0284 31.8581 34.5384 33.0376 34.5384C34.2172 34.5384 35.2403 34.0284 36.011 33.4495C36.7825 32.8699 37.3627 32.176 37.6739 31.6898C37.8316 31.4434 37.8316 31.1277 37.6739 30.8812C37.3627 30.395 36.7825 29.7011 36.011 29.1216C35.2403 28.5427 34.2172 28.0327 33.0376 28.0327ZM34.0388 31.2855C34.0388 31.8384 33.5906 32.2867 33.0376 32.2867C32.4847 32.2867 32.0365 31.8384 32.0365 31.2855C32.0365 30.7326 32.4847 30.2844 33.0376 30.2844C33.5906 30.2844 34.0388 30.7326 34.0388 31.2855ZM22.75 11.0125C22.75 10.5983 22.4142 10.2625 22 10.2625C21.5858 10.2625 21.25 10.5983 21.25 11.0125V22C21.25 22.1623 21.3026 22.3202 21.4 22.45L24.15 26.1167C24.3985 26.448 24.8686 26.5152 25.2 26.2667C25.5314 26.0181 25.5985 25.548 25.35 25.2167L22.75 21.75V11.0125Z" fill="#252323"/>
</g>
<defs>
<clipPath id="clip0_209_522">
<rect width="44" height="44" fill="white"/>
</clipPath>
</defs>
</svg>
