<svg width="23" height="23" viewBox="0 0 23 23" fill="none" xmlns="http://www.w3.org/2000/svg">
<g clip-path="url(#clip0_2119_13036)">
<path d="M3.60003 4.494L6.1737 12.5827C6.45191 13.457 7.28158 14.0365 8.19827 13.9966L16.1088 13.6527C16.9558 13.6159 17.5126 12.7536 17.1977 11.9666C17.0011 11.4749 16.5118 11.1642 15.9832 11.1953L10.1189 11.5402C9.21491 11.5934 8.38483 11.042 8.08345 10.1881L6.0834 4.52125C5.83652 3.82177 5.17538 3.354 4.43361 3.354C3.84157 3.354 3.42052 3.92982 3.60003 4.494Z" fill="#CD4941"/>
<path d="M4.43319 2.67969C5.46106 2.67969 6.37713 3.32766 6.71932 4.29688L7.941 7.75977L14.0611 7.36914L14.1041 7.36719C14.6381 7.36719 15.0825 7.55288 15.4215 7.87988C15.741 8.18823 15.9298 8.58531 16.0523 8.95605C16.176 9.33023 16.25 9.73312 16.3062 10.0947C16.3315 10.257 16.3517 10.4059 16.3717 10.5449C17.0168 10.6536 17.5734 11.0907 17.8238 11.7168C18.1878 12.6275 17.7982 13.6019 17.0308 14.0605L18.6812 17.1553C18.8383 17.4507 18.7552 17.817 18.4859 18.0156C13.5796 21.6307 8.2243 20.3547 5.53378 18.5166C5.28885 18.3492 5.18179 18.041 5.2701 17.7578L6.41952 14.0801C6.0124 13.7545 5.69647 13.3114 5.52987 12.7881L2.95663 4.69922C2.63863 3.6998 3.38447 2.67989 4.43319 2.67969ZM8.22714 14.6719C8.03415 14.6802 7.84451 14.6649 7.65975 14.6338L6.71249 17.666C9.06226 19.0519 13.2467 19.8813 17.2076 17.2607L15.6539 14.3477L8.22714 14.6719ZM13.1617 15.4932C13.4418 15.2472 13.8688 15.2747 14.1148 15.5547L14.6187 16.1289C14.7698 16.3012 14.8231 16.5384 14.7603 16.7588L14.5172 17.6123C14.415 17.9706 14.0415 18.179 13.6832 18.0771C13.4418 18.0082 13.2704 17.8153 13.2144 17.5879C12.1099 17.8679 11.0056 17.8785 9.9078 17.6494C9.86895 17.9021 9.69024 18.1226 9.42831 18.1973C9.06988 18.2993 8.69652 18.0908 8.59432 17.7324L8.35018 16.8789C8.28744 16.6585 8.34159 16.4213 8.49276 16.249L8.99667 15.6748C9.2426 15.3947 9.6687 15.3674 9.94882 15.6133C10.1557 15.795 10.2233 16.0743 10.1461 16.3213C11.0974 16.5255 12.0408 16.5114 12.9849 16.2549C12.8789 15.9959 12.9398 15.6883 13.1617 15.4932ZM4.43319 4.0293C4.29815 4.0295 4.2018 4.1613 4.24276 4.29004L6.81698 12.3789C7.00296 12.9623 7.55673 13.3487 8.16854 13.3223L16.0787 12.9785C16.4609 12.9619 16.7127 12.573 16.5709 12.2178C16.4821 11.9958 16.2607 11.8551 16.0221 11.8691L10.1578 12.2148C8.95384 12.2854 7.84835 11.5504 7.44686 10.4131L5.44686 4.74609C5.2952 4.31657 4.88872 4.0293 4.43319 4.0293ZM8.4078 9.08203L8.71932 9.96387C8.9206 10.5339 9.47526 10.9025 10.0787 10.8672L15.0113 10.5762C14.9977 10.4819 14.9857 10.3894 14.9723 10.3027C14.9185 9.95718 14.8575 9.64443 14.7701 9.37988C14.6816 9.11205 14.5821 8.94627 14.484 8.85156C14.4056 8.776 14.3023 8.71865 14.109 8.71777L8.4078 9.08203Z" fill="#332A2A"/>
</g>
<defs>
<clipPath id="clip0_2119_13036">
<rect width="23" height="23" fill="white"/>
</clipPath>
</defs>
</svg>
