<svg width="44" height="44" viewBox="0 0 44 44" fill="none" xmlns="http://www.w3.org/2000/svg">
<g clip-path="url(#clip0_2119_13034)">
<path d="M6.6144 7.74054L12.241 25.424C12.5192 26.2984 13.3488 26.8778 14.2655 26.8379L31.2702 26.0986C32.6689 26.0378 33.5885 24.6138 33.0685 23.3139L32.8139 22.6774C32.4891 21.8653 31.6811 21.3522 30.808 21.4036L17.9641 22.1591C17.0601 22.2123 16.2301 21.6608 15.9287 20.8069L11.3282 7.77219C11.0414 6.95979 10.2736 6.4165 9.41206 6.4165H7.58255C6.89493 6.4165 6.40591 7.08528 6.6144 7.74054Z" fill="#CD4941"/>
<path d="M9.41227 5.65527C10.5967 5.65547 11.6528 6.40262 12.047 7.51953L14.8273 15.3984L26.9347 14.625L26.9836 14.623C27.8724 14.6232 28.5885 14.928 29.1349 15.4551C29.6594 15.9612 29.9851 16.6308 30.2062 17.2998C30.4286 17.9728 30.5654 18.708 30.672 19.3936C30.7419 19.8429 30.7974 20.2558 30.8556 20.6416C32.0203 20.6114 33.0864 21.3069 33.5216 22.3945L33.7765 23.0312C34.4127 24.6224 33.4795 26.3469 31.9103 26.7656L35.2707 33.0664C35.4483 33.4001 35.3552 33.8147 35.0509 34.0391C25.8857 40.7924 15.8917 38.4052 10.8859 34.9854C10.6094 34.7964 10.4883 34.4486 10.588 34.1289L12.7502 27.209C12.1767 26.8681 11.728 26.3249 11.5148 25.6553L5.88883 7.97168C5.52422 6.82509 6.37993 5.65527 7.58317 5.65527H9.41227ZM14.299 27.5996C14.2747 27.6007 14.2499 27.5992 14.2257 27.5996L12.214 34.0342C16.8508 36.9422 25.5126 38.807 33.6105 33.1934L30.258 26.9053L14.299 27.5996ZM25.6808 30.8232C25.9969 30.5458 26.4784 30.5767 26.756 30.8926L27.7209 31.9912C27.8913 32.1856 27.9518 32.4535 27.881 32.7021L27.4152 34.3359C27.2997 34.7403 26.8782 34.9743 26.4738 34.8594C26.0692 34.744 25.8342 34.3226 25.9494 33.918L26.0041 33.7256C23.4949 34.5033 20.9839 34.5159 18.4865 33.8643L18.5675 34.1475C18.6827 34.5519 18.4483 34.9732 18.0441 35.0889C17.6395 35.2042 17.2172 34.97 17.1017 34.5654L16.6369 32.9316C16.566 32.6827 16.6263 32.4152 16.797 32.2207L17.7609 31.1221C18.0386 30.8061 18.52 30.7752 18.8361 31.0527C19.152 31.3304 19.1838 31.8118 18.9064 32.1279L18.713 32.3467C21.1025 33.0003 23.4742 32.972 25.8507 32.1709L25.6115 31.8984C25.3339 31.5823 25.3649 31.101 25.6808 30.8232ZM7.58317 7.17871C7.41133 7.17871 7.28901 7.34601 7.34098 7.50977L12.9679 25.1934C13.1419 25.7395 13.6599 26.1019 14.2326 26.0771L31.2375 25.3379C32.1112 25.2996 32.6858 24.4098 32.3615 23.5977L32.1066 22.9609C31.9036 22.4535 31.3982 22.1331 30.8527 22.165L18.0089 22.9199C16.7662 22.9929 15.6246 22.2343 15.2101 21.0605L10.6105 8.02637C10.4314 7.51876 9.95053 7.17891 9.41227 7.17871H7.58317ZM15.3547 16.8916L16.6476 20.5537C16.8361 21.0872 17.3552 21.4317 17.9201 21.3984L29.3273 20.7275C29.2728 20.3598 29.2212 19.9816 29.1662 19.6279C29.0623 18.9606 28.9413 18.3274 28.7599 17.7783C28.5772 17.2255 28.3508 16.8168 28.0763 16.5518C27.8253 16.3097 27.4956 16.1498 26.9943 16.1475L15.3547 16.8916Z" fill="#332A2A"/>
</g>
<defs>
<clipPath id="clip0_2119_13034">
<rect width="44" height="44" fill="white"/>
</clipPath>
</defs>
</svg>
