<svg width="28" height="28" viewBox="0 0 28 28" fill="none" xmlns="http://www.w3.org/2000/svg">
<g clip-path="url(#clip0_2119_13007)">
<path d="M5.46692 3.33301C6.64623 3.33315 7.69837 4.0774 8.09095 5.18945L9.61927 9.52051L17.1241 9.04199L17.172 9.04004C17.8038 9.0402 18.326 9.25901 18.7247 9.64355C19.1021 10.0076 19.3273 10.4798 19.4747 10.9258C19.6233 11.3753 19.712 11.8606 19.7804 12.2998C19.8141 12.5167 19.8415 12.7151 19.8683 12.9004C20.6508 13.0137 21.3308 13.5342 21.6329 14.2891C22.072 15.3868 21.5821 16.5639 20.6378 17.0898L22.6798 20.917C22.8549 21.2453 22.7623 21.653 22.463 21.874C16.5201 26.253 10.0349 24.7069 6.77845 22.4824C6.50612 22.2964 6.3871 21.9535 6.48548 21.6387L7.86243 17.2295C7.42271 16.8922 7.08157 16.4239 6.90442 15.8672L3.64856 5.63477C3.28633 4.49587 4.13602 3.33301 5.33118 3.33301H5.46692ZM9.67591 17.8027C9.53548 17.8088 9.39643 17.8026 9.25989 17.7881L8.08802 21.5381C10.969 23.2598 16.1508 24.3072 21.0431 21.0371L19.0997 17.3936L9.67591 17.8027ZM16.1144 18.791C16.4256 18.5177 16.8997 18.5482 17.173 18.8594L17.7863 19.5586C17.9542 19.7501 18.0143 20.0138 17.9445 20.2588L17.6476 21.2979C17.5339 21.6959 17.119 21.9269 16.7208 21.8135C16.4284 21.73 16.2275 21.4836 16.1857 21.2012C14.8019 21.5641 13.4177 21.5762 12.0421 21.2773C12.0258 21.5885 11.8185 21.8697 11.5021 21.96C11.104 22.0734 10.6891 21.8423 10.5753 21.4443L10.2784 20.4053C10.2086 20.1602 10.2686 19.8956 10.4366 19.7041L11.0499 19.0059C11.3232 18.6947 11.7973 18.6635 12.1085 18.9365C12.3594 19.1571 12.4244 19.5071 12.298 19.7979C13.5216 20.0737 14.7345 20.0533 15.9493 19.709C15.7876 19.4085 15.8472 19.0259 16.1144 18.791ZM5.33118 4.83301C5.15124 4.83301 5.02287 5.00821 5.07727 5.17969L8.33313 15.4121C8.50863 15.9637 9.03224 16.3297 9.61048 16.3047L19.5783 15.8711C20.0927 15.8485 20.4315 15.3249 20.2404 14.8467C20.1208 14.548 19.8232 14.3592 19.5021 14.3779L12.0314 14.8174C10.7937 14.8902 9.65689 14.1349 9.24427 12.9658L6.67591 5.68848C6.495 5.17614 6.01025 4.83315 5.46692 4.83301H5.33118ZM10.1378 10.9912L10.6593 12.4668C10.8495 13.0054 11.3733 13.3529 11.9435 13.3193L18.3585 12.9414C18.3381 12.8 18.3182 12.6604 18.298 12.5303C18.2324 12.1091 18.1582 11.7241 18.0499 11.3965C17.9403 11.0648 17.814 10.8503 17.6827 10.7236C17.5749 10.6197 17.4334 10.5439 17.1857 10.541L10.1378 10.9912Z" fill="#332A2A"/>
</g>
<defs>
<clipPath id="clip0_2119_13007">
<rect width="28" height="28" fill="white"/>
</clipPath>
</defs>
</svg>
