<svg width="18" height="18" viewBox="0 0 18 18" fill="none" xmlns="http://www.w3.org/2000/svg">
<g clip-path="url(#clip0_2119_13009)">
<path d="M3.47003 2C4.31524 2.00012 5.0684 2.53315 5.34991 3.33008L6.28156 5.97168L10.9984 5.66992C11.0115 5.66908 11.0252 5.66895 11.0384 5.66895C11.4804 5.66895 11.8522 5.82295 12.136 6.09668C12.4021 6.35331 12.5562 6.68095 12.6546 6.97852C12.754 7.27936 12.8125 7.60147 12.8568 7.88574C12.8727 7.98856 12.8879 8.08298 12.9007 8.17188C13.4074 8.28154 13.84 8.63461 14.0394 9.13281C14.3303 9.86026 14.0426 10.6349 13.4554 11.0352L14.7054 13.3799C14.8513 13.6536 14.7744 13.9927 14.5247 14.1768C10.6447 17.0358 6.40825 16.0274 4.27667 14.5713C4.04974 14.4162 3.95056 14.1305 4.03253 13.8682L4.94855 10.9346C4.57709 10.62 4.28856 10.2034 4.13312 9.71484L2.22199 3.70703C1.95328 2.86246 2.58377 2.00008 3.47003 2ZM6.78058 11.5635C6.54121 11.5739 6.30684 11.5498 6.08136 11.499L5.36945 13.7803C7.17976 14.818 10.335 15.4185 13.3392 13.4746L12.1946 11.3281L6.78058 11.5635ZM10.4661 12.0068C10.6735 11.825 10.9891 11.8456 11.1712 12.0527L11.5657 12.502C11.6778 12.6296 11.7177 12.8054 11.6712 12.9688L11.4808 13.6367C11.405 13.9022 11.1281 14.0562 10.8626 13.9805C10.6741 13.9266 10.5427 13.7714 10.5091 13.5908C9.6298 13.8183 8.75032 13.8274 7.87628 13.6406C7.85747 13.8397 7.72084 14.017 7.51691 14.0752C7.25176 14.1503 6.97558 13.9964 6.89972 13.7314L6.70929 13.0625C6.66288 12.8993 6.70186 12.7233 6.81378 12.5957L7.20831 12.1465C7.39046 11.9391 7.70689 11.9186 7.91437 12.1006C8.07607 12.2426 8.12204 12.4655 8.04913 12.6553C8.81907 12.8256 9.58268 12.8128 10.347 12.5996C10.2516 12.4024 10.2936 12.1585 10.4661 12.0068ZM3.47003 3.25C3.42977 3.25008 3.4012 3.28974 3.41339 3.32812L5.32452 9.33594C5.51715 9.94132 6.09219 10.342 6.72687 10.3145L12.5794 10.0605C12.8119 10.0504 12.9653 9.8137 12.8792 9.59766C12.8252 9.46265 12.6904 9.3772 12.5452 9.38574L8.28741 9.63574C7.1056 9.70511 6.02041 8.98449 5.62628 7.86816L4.1712 3.74609C4.06608 3.44893 3.78526 3.25012 3.47003 3.25ZM6.71417 7.19629L6.80499 7.45215C7.01373 8.04322 7.58839 8.42443 8.21417 8.3877L11.638 8.18652C11.6325 8.14928 11.6268 8.11303 11.6214 8.07812C11.5795 7.80885 11.5339 7.57026 11.4681 7.37109C11.4012 7.1687 11.3288 7.05588 11.2679 6.99707C11.2261 6.95673 11.1713 6.92104 11.0501 6.91895L6.71417 7.19629Z" fill="#332A2A"/>
</g>
<defs>
<clipPath id="clip0_2119_13009">
<rect width="18" height="18" fill="white"/>
</clipPath>
</defs>
</svg>
