<svg width="28" height="28" viewBox="0 0 28 28" fill="none" xmlns="http://www.w3.org/2000/svg">
<g clip-path="url(#clip0_664_6956)">
<path fill-rule="evenodd" clip-rule="evenodd" d="M10.6249 4.08325C10.6249 3.66904 10.9607 3.33325 11.3749 3.33325C15.8162 3.33325 19.4166 6.93363 19.4166 11.3749C19.4166 13.1531 18.8394 14.7965 17.8622 16.128L23.6403 22.1573C23.9654 22.4965 23.989 23.024 23.6955 23.3909C23.3467 23.8269 22.6963 23.8629 22.3014 23.4681L16.4481 17.6147C15.0642 18.7412 13.2984 19.4166 11.3749 19.4166C10.9607 19.4166 10.6249 19.0808 10.6249 18.6666C10.6249 18.2524 10.9607 17.9166 11.3749 17.9166C14.9878 17.9166 17.9166 14.9878 17.9166 11.3749C17.9166 7.76206 14.9878 4.83325 11.3749 4.83325C10.9607 4.83325 10.6249 4.49747 10.6249 4.08325ZM8.22354 4.75484C8.43924 5.10846 8.32743 5.56998 7.9738 5.78568C6.08892 6.93539 4.83325 9.00886 4.83325 11.3749C4.83325 13.741 6.08892 15.8144 7.9738 16.9642C8.32743 17.1799 8.43924 17.6414 8.22354 17.995C8.00784 18.3486 7.54632 18.4604 7.1927 18.2447C4.87997 16.8341 3.33325 14.2855 3.33325 11.3749C3.33325 8.46438 4.87997 5.91578 7.1927 4.5051C7.54632 4.2894 8.00784 4.40121 8.22354 4.75484ZM11.8115 6.37924C11.9089 5.97663 12.3142 5.72919 12.7168 5.82657C13.9615 6.1276 15.0688 6.8384 15.8607 7.8447C16.6527 8.85101 17.0832 10.0944 17.0832 11.3749C17.0832 11.7891 16.7475 12.1249 16.3332 12.1249C15.919 12.1249 15.5832 11.7891 15.5832 11.3749C15.5832 10.4309 15.2658 9.51423 14.682 8.77235C14.0981 8.03048 13.2818 7.50646 12.3642 7.28453C11.9616 7.18716 11.7142 6.78184 11.8115 6.37924Z" fill="#332A2A"/>
</g>
<defs>
<clipPath id="clip0_664_6956">
<rect width="28" height="28" fill="white"/>
</clipPath>
</defs>
</svg>
