<svg width="18" height="18" viewBox="0 0 18 18" fill="none" xmlns="http://www.w3.org/2000/svg">
<g clip-path="url(#clip0_664_6931)">
<circle cx="7.3125" cy="7.3125" r="4.6875" fill="#E05149"/>
<path fill-rule="evenodd" clip-rule="evenodd" d="M7.3125 2C6.96732 2 6.6875 2.27982 6.6875 2.625C6.6875 2.97018 6.96732 3.25 7.3125 3.25C9.55616 3.25 11.375 5.06884 11.375 7.3125C11.375 9.55616 9.55616 11.375 7.3125 11.375C6.96732 11.375 6.6875 11.6548 6.6875 12C6.6875 12.3452 6.96732 12.625 7.3125 12.625C8.58851 12.625 9.75944 12.1751 10.6754 11.4254L14.3367 15.0867C14.5905 15.3405 15.0086 15.3173 15.2329 15.037C15.4215 14.8012 15.4064 14.4621 15.1974 14.244L11.5832 10.4727C12.2378 9.58956 12.625 8.49624 12.625 7.3125C12.625 4.37849 10.2465 2 7.3125 2ZM5.20046 3.84138C5.49514 3.66163 5.58832 3.27703 5.40857 2.98234C5.22883 2.68766 4.84422 2.59448 4.54954 2.77423C3.02204 3.70595 2 5.38959 2 7.3125C2 9.23541 3.02204 10.9191 4.54954 11.8508C4.84422 12.0305 5.22883 11.9373 5.40857 11.6427C5.58832 11.348 5.49514 10.9634 5.20046 10.7836C4.02949 10.0694 3.25 8.78168 3.25 7.3125C3.25 5.84332 4.02949 4.55562 5.20046 3.84138Z" fill="#252323"/>
</g>
<defs>
<clipPath id="clip0_664_6931">
<rect width="18" height="18" fill="white"/>
</clipPath>
</defs>
</svg>
