<svg width="23" height="23" viewBox="0 0 23 23" fill="none" xmlns="http://www.w3.org/2000/svg">
<g clip-path="url(#clip0_664_6924)">
<circle cx="9.34383" cy="9.34383" r="5.98958" fill="#E05149"/>
<path fill-rule="evenodd" clip-rule="evenodd" d="M8.66878 3.3542C8.66878 2.98141 8.97099 2.6792 9.34378 2.6792C13.0245 2.6792 16.0084 5.66303 16.0084 9.34378C16.0084 10.8212 15.5276 12.1863 14.714 13.2913L19.4189 18.2008C19.686 18.4794 19.7053 18.9127 19.4643 19.214C19.1777 19.5722 18.6435 19.6018 18.3191 19.2774L13.5529 14.5112C12.4053 15.4471 10.9401 16.0084 9.34378 16.0084C8.97099 16.0084 8.66878 15.7062 8.66878 15.3334C8.66878 14.9606 8.97099 14.6584 9.34378 14.6584C12.2789 14.6584 14.6584 12.2789 14.6584 9.34378C14.6584 6.40862 12.2789 4.0292 9.34378 4.0292C8.97099 4.0292 8.66878 3.72699 8.66878 3.3542ZM6.80546 3.87517C6.99958 4.19343 6.89896 4.6088 6.5807 4.80293C5.0492 5.73708 4.0292 7.42162 4.0292 9.34378C4.0292 11.2659 5.0492 12.9505 6.5807 13.8846C6.89896 14.0788 6.99958 14.4941 6.80546 14.8124C6.61133 15.1307 6.19596 15.2313 5.8777 15.0372C3.96115 13.8681 2.6792 11.756 2.6792 9.34378C2.6792 6.93159 3.96115 4.81943 5.8777 3.65041C6.19596 3.45628 6.61133 3.55691 6.80546 3.87517ZM9.13392 5.48192C9.22156 5.11957 9.58634 4.89688 9.94868 4.98451C10.9839 5.2349 11.9049 5.82611 12.5636 6.6631C13.2223 7.5001 13.5805 8.53427 13.5805 9.59938C13.5805 9.97217 13.2783 10.2744 12.9055 10.2744C12.5327 10.2744 12.2305 9.97217 12.2305 9.59938C12.2305 8.83712 11.9742 8.097 11.5028 7.49799C11.0314 6.89898 10.3722 6.47587 9.63133 6.29668C9.26898 6.20905 9.04629 5.84426 9.13392 5.48192Z" fill="#252323"/>
</g>
<defs>
<clipPath id="clip0_664_6924">
<rect width="23" height="23" fill="white"/>
</clipPath>
</defs>
</svg>
