<svg width="23" height="23" viewBox="0 0 23 23" fill="none" xmlns="http://www.w3.org/2000/svg">
<g clip-path="url(#clip0_664_6957)">
<path d="M9.26831 2.60425C12.9489 2.60425 15.9332 5.58771 15.9333 9.26831C15.9333 10.7456 15.451 12.1096 14.6375 13.2146L19.3435 18.1257C19.6104 18.4042 19.6301 18.8371 19.3894 19.1384C19.1029 19.4966 18.5682 19.5263 18.2439 19.2019L13.4763 14.4343C12.3286 15.3703 10.8646 15.9333 9.26831 15.9333C8.89578 15.9332 8.59368 15.6311 8.59351 15.2585C8.59351 14.8859 8.89567 14.5829 9.26831 14.5828C12.2035 14.5828 14.5828 12.2035 14.5828 9.26831C14.5826 6.3333 12.2034 3.95386 9.26831 3.95386C8.89567 3.95368 8.59351 3.65174 8.59351 3.27905C8.59351 2.90637 8.89567 2.60442 9.26831 2.60425ZM5.80249 3.57495C6.12061 3.38098 6.53602 3.48163 6.73022 3.79956C6.9243 4.11773 6.82367 4.5331 6.50562 4.72729C4.97421 5.6614 3.95397 7.34629 3.95386 9.26831C3.95386 11.1905 4.97414 12.8752 6.50562 13.8093C6.82384 14.0034 6.92427 14.4188 6.73022 14.7371C6.5361 15.0553 6.12075 15.1558 5.80249 14.9617C3.88605 13.7926 2.60425 11.6804 2.60425 9.26831C2.60436 6.85626 3.88603 4.74392 5.80249 3.57495ZM9.8728 4.90894C10.9079 5.15928 11.8294 5.75087 12.488 6.58765C13.1467 7.42458 13.5046 8.45916 13.5046 9.52417C13.5045 9.89687 13.2026 10.199 12.8298 10.199C12.4573 10.1987 12.1551 9.89671 12.155 9.52417C12.155 8.76204 11.8988 8.02153 11.4275 7.42261C10.9562 6.82388 10.297 6.40067 9.5564 6.22144C9.19439 6.13371 8.97106 5.76907 9.05835 5.40698C9.146 5.04501 9.51078 4.82183 9.8728 4.90894Z" fill="#332A2A"/>
</g>
<defs>
<clipPath id="clip0_664_6957">
<rect width="23" height="23" fill="white"/>
</clipPath>
</defs>
</svg>
