<svg width="44" height="44" viewBox="0 0 44 44" fill="none" xmlns="http://www.w3.org/2000/svg">
<g clip-path="url(#clip0_235_714)">
<circle cx="17.8751" cy="17.8751" r="11.4583" fill="#E05149"/>
<path fill-rule="evenodd" clip-rule="evenodd" d="M17.1251 6.41675C17.1251 6.00253 17.4609 5.66675 17.8751 5.66675C24.6176 5.66675 30.0834 11.1326 30.0834 17.8751C30.0834 20.5475 29.2247 23.0194 27.7682 25.0299L37.1493 34.8188C37.6601 35.3519 37.6972 36.1808 37.236 36.7573C36.6878 37.4425 35.6658 37.4991 35.0453 36.8786L25.5425 27.3758C23.4468 29.0693 20.7793 30.0834 17.8751 30.0834C17.4609 30.0834 17.1251 29.7476 17.1251 29.3334C17.1251 28.9192 17.4609 28.5834 17.8751 28.5834C23.7891 28.5834 28.5834 23.7891 28.5834 17.8751C28.5834 11.961 23.7891 7.16675 17.8751 7.16675C17.4609 7.16675 17.1251 6.83096 17.1251 6.41675ZM12.557 7.69527C12.7727 8.04889 12.6609 8.51041 12.3073 8.72611C9.22309 10.6074 7.16675 14.0014 7.16675 17.8751C7.16675 21.7487 9.22309 25.1428 12.3073 27.0241C12.6609 27.2398 12.7727 27.7013 12.557 28.0549C12.3413 28.4085 11.8798 28.5203 11.5262 28.3046C8.01415 26.1624 5.66675 22.2932 5.66675 17.8751C5.66675 13.4569 8.01415 9.58775 11.5262 7.44553C11.8798 7.22984 12.3413 7.34165 12.557 7.69527ZM18.9778 10.1255C19.0751 9.72287 19.4804 9.47543 19.883 9.5728C21.7455 10.0233 23.4024 11.0869 24.5874 12.5926C25.7725 14.0984 26.4167 15.9589 26.4167 17.8751C26.4167 18.2893 26.081 18.6251 25.6667 18.6251C25.2525 18.6251 24.9167 18.2893 24.9167 17.8751C24.9167 16.2954 24.3856 14.7617 23.4087 13.5203C22.4318 12.2789 21.0658 11.4021 19.5304 11.0308C19.1278 10.9334 18.8804 10.5281 18.9778 10.1255Z" fill="#252323"/>
</g>
<defs>
<clipPath id="clip0_235_714">
<rect width="44" height="44" fill="white"/>
</clipPath>
</defs>
</svg>
