<svg width="23" height="23" viewBox="0 0 23 23" fill="none" xmlns="http://www.w3.org/2000/svg">
<g clip-path="url(#clip0_1440_13091)">
<path d="M16.3359 2.96387C16.7087 2.96387 17.0117 3.26588 17.0117 3.63867C17.0115 4.01131 16.7086 4.31348 16.3359 4.31348C15.7828 4.31365 15.3342 4.76225 15.334 5.31543C15.3342 5.86861 15.7828 6.31721 16.3359 6.31738C16.8893 6.31738 17.3377 5.86872 17.3379 5.31543C17.3379 5.21278 17.3213 5.09717 17.2852 4.98242L17.2422 4.86816L17.2002 4.7373C17.1347 4.43048 17.2913 4.10936 17.5898 3.97852C17.8886 3.84769 18.2311 3.95053 18.4121 4.20703L18.4795 4.32617L18.5723 4.57324C18.6511 4.82227 18.6884 5.07622 18.6885 5.31543C18.6883 6.6143 17.6348 7.66797 16.3359 7.66797C15.7195 7.66789 15.1605 7.42819 14.7412 7.04004L7.99219 9.87012C8.16729 10.2736 8.2666 10.7177 8.2666 11.1855C8.26657 11.5559 8.20501 11.9116 8.09277 12.2441L15.0625 15.8359C15.5707 15.0801 16.4347 14.5831 17.4141 14.583C18.9776 14.583 20.2449 15.8506 20.2451 17.4141C20.2451 18.9777 18.9777 20.2451 17.4141 20.2451C17.0414 20.2449 16.7393 19.943 16.7393 19.5703C16.7394 19.1978 17.0415 18.8957 17.4141 18.8955C18.2321 18.8955 18.8955 18.2321 18.8955 17.4141C18.8953 16.5961 18.232 15.9326 17.4141 15.9326C16.5962 15.9328 15.9328 16.5962 15.9326 17.4141C15.9326 17.7193 16.0246 18.0015 16.1816 18.2363C16.389 18.5461 16.3059 18.9655 15.9961 19.1729C15.7251 19.3541 15.3708 19.3132 15.1475 19.0928L15.0596 18.9873L14.9531 18.8145C14.7177 18.4012 14.583 17.9224 14.583 17.4141C14.583 17.3131 14.5883 17.2134 14.5986 17.1152L7.40625 13.4102C6.80062 14.0767 5.92739 14.496 4.95605 14.4961C3.12802 14.4959 1.64568 13.0136 1.64551 11.1855C1.64551 10.2371 2.0453 9.38003 2.68359 8.77734C2.95463 8.5217 3.38183 8.53482 3.6377 8.80566C3.89338 9.07675 3.88135 9.50393 3.61035 9.75977C3.23103 10.118 2.99512 10.6239 2.99512 11.1855C2.99529 12.268 3.8736 13.1453 4.95605 13.1455C6.0385 13.1453 6.91584 12.268 6.91602 11.1855C6.91602 10.1705 6.14474 9.3358 5.15625 9.23535L4.95605 9.22461L4.81934 9.21094C4.51209 9.14773 4.28027 8.87576 4.28027 8.5498C4.28027 8.17712 4.58341 7.87518 4.95605 7.875L5.12598 7.87891C5.9196 7.91911 6.63771 8.24131 7.1875 8.74414L14.0518 5.86621C14.0093 5.68936 13.9844 5.5053 13.9844 5.31543C13.9846 4.01667 15.0372 2.96404 16.3359 2.96387Z" fill="#332A2A"/>
</g>
<defs>
<clipPath id="clip0_1440_13091">
<rect width="23" height="23" fill="white"/>
</clipPath>
</defs>
</svg>
