<svg width="44" height="44" viewBox="0 0 44 44" fill="none" xmlns="http://www.w3.org/2000/svg">
<g clip-path="url(#clip0_1440_13045)">
<path d="M33.458 29.333C35.7361 29.333 37.5828 31.18 37.583 33.458C37.583 35.7362 35.7362 37.583 33.458 37.583C31.18 37.5828 29.333 35.7361 29.333 33.458C29.3332 31.1801 31.1801 29.3332 33.458 29.333ZM9.625 16.5C12.4094 16.5 14.667 18.7576 14.667 21.542C14.6668 24.3263 12.4093 26.583 9.625 26.583C6.84067 26.583 4.58318 24.3263 4.58301 21.542C4.58301 18.7576 6.84056 16.5 9.625 16.5ZM31.3955 7.10449C33.1674 7.10449 34.6045 8.54059 34.6045 10.3125C34.6045 12.0844 33.1674 13.5205 31.3955 13.5205C29.6237 13.5203 28.1875 12.0843 28.1875 10.3125C28.1875 8.54069 29.6237 7.10467 31.3955 7.10449Z" fill="#E05149"/>
<path d="M31.3955 6.35449C31.8097 6.35449 32.1455 6.69028 32.1455 7.10449C32.1453 7.51856 31.8096 7.85449 31.3955 7.85449C30.0381 7.85467 28.9377 8.95506 28.9375 10.3125C28.9377 11.6699 30.0381 12.7713 31.3955 12.7715C32.7531 12.7715 33.8543 11.6701 33.8545 10.3125C33.8544 9.97721 33.7819 9.59668 33.625 9.23828C33.4592 8.85897 33.6325 8.41709 34.0117 8.25098C34.391 8.08501 34.8328 8.25758 34.999 8.63672C35.2409 9.1892 35.3544 9.77498 35.3545 10.3125C35.3543 12.4985 33.5815 14.2715 31.3955 14.2715C30.2202 14.2714 29.1653 13.7579 28.4404 12.9443C28.3834 12.9926 28.3206 13.036 28.248 13.0664L14.6982 18.748C15.1554 19.5766 15.416 20.5287 15.416 21.542C15.416 22.3541 15.2481 23.1267 14.9463 23.8281L29.1621 31.1514C29.9848 29.6225 31.6002 28.5831 33.458 28.583C36.1503 28.583 38.3328 30.7658 38.333 33.458C38.333 36.1504 36.1504 38.333 33.458 38.333C33.0439 38.3328 32.708 37.9971 32.708 37.583C32.7082 37.1691 33.0441 36.8332 33.458 36.833C35.322 36.833 36.833 35.322 36.833 33.458C36.8328 31.5942 35.3219 30.083 33.458 30.083C31.5943 30.0832 30.0832 31.5943 30.083 33.458C30.083 34.1527 30.2929 34.7963 30.6514 35.332C30.8817 35.6762 30.7893 36.1426 30.4453 36.373C30.1011 36.6034 29.6347 36.5111 29.4043 36.167C28.8856 35.392 28.583 34.4589 28.583 33.458C28.583 33.1586 28.6114 32.8656 28.6631 32.5811L14.1768 25.1182C13.1165 26.4657 11.4728 27.3329 9.625 27.333C6.42661 27.3328 3.83318 24.7404 3.83301 21.542C3.83301 19.8827 4.53217 18.385 5.64941 17.3301C5.95055 17.0458 6.42559 17.0593 6.70996 17.3604C6.99406 17.6616 6.97982 18.1357 6.67871 18.4199C5.84899 19.2033 5.33301 20.3122 5.33301 21.542C5.33318 23.912 7.25504 25.8328 9.625 25.833C11.995 25.8328 13.9158 23.912 13.916 21.542C13.916 19.1719 11.9951 17.2502 9.625 17.25C9.21094 17.2498 8.875 16.9141 8.875 16.5C8.875 16.0859 9.21094 15.7502 9.625 15.75C11.2543 15.7501 12.7261 16.4237 13.7783 17.5068L27.668 11.6836C27.6719 11.682 27.6758 11.6803 27.6797 11.6787C27.5231 11.2529 27.4375 10.7926 27.4375 10.3125C27.4377 8.12663 29.2096 6.35467 31.3955 6.35449Z" fill="#332A2A"/>
</g>
<defs>
<clipPath id="clip0_1440_13045">
<rect width="44" height="44" fill="white"/>
</clipPath>
</defs>
</svg>
