<svg width="23" height="23" viewBox="0 0 23 23" fill="none" xmlns="http://www.w3.org/2000/svg">
<g clip-path="url(#clip0_1440_13047)">
<path d="M17.4893 15.333C18.68 15.333 19.6453 16.2985 19.6455 17.4893C19.6455 18.6801 18.6801 19.6455 17.4893 19.6455C16.2985 19.6453 15.333 18.68 15.333 17.4893C15.3332 16.2987 16.2987 15.3332 17.4893 15.333ZM5.03125 8.625C6.48675 8.625 7.66699 9.80524 7.66699 11.2607C7.66682 12.7161 6.48664 13.8955 5.03125 13.8955C3.57586 13.8955 2.39568 12.7161 2.39551 11.2607C2.39551 9.80524 3.57575 8.625 5.03125 8.625ZM16.4111 3.71387C17.3374 3.71387 18.0889 4.4644 18.0889 5.39062C18.0889 6.31685 17.3374 7.06738 16.4111 7.06738C15.4851 7.06721 14.7344 6.31674 14.7344 5.39062C14.7344 4.46451 15.4851 3.71404 16.4111 3.71387Z" fill="#E05149"/>
<path d="M16.4111 3.03906C16.7839 3.03906 17.0869 3.34107 17.0869 3.71387C17.0867 4.08651 16.7838 4.38867 16.4111 4.38867C15.858 4.38885 15.4094 4.83745 15.4092 5.39062C15.4094 5.9438 15.858 6.3924 16.4111 6.39258C16.9645 6.39258 17.4129 5.94391 17.4131 5.39062C17.4131 5.28798 17.3965 5.17237 17.3604 5.05762L17.3174 4.94336L17.2754 4.8125C17.2099 4.50567 17.3665 4.18455 17.665 4.05371C17.9638 3.92288 18.3063 4.02572 18.4873 4.28223L18.5547 4.40137L18.6475 4.64844C18.7262 4.89747 18.7636 5.15141 18.7637 5.39062C18.7635 6.6895 17.71 7.74316 16.4111 7.74316C15.7947 7.74308 15.2357 7.50339 14.8164 7.11523L8.06738 9.94531C8.24248 10.3488 8.3418 10.7929 8.3418 11.2607C8.34176 11.6311 8.2802 11.9868 8.16797 12.3193L15.1377 15.9111C15.6459 15.1553 16.5099 14.6583 17.4893 14.6582C19.0528 14.6582 20.3201 15.9258 20.3203 17.4893C20.3203 19.0529 19.0529 20.3203 17.4893 20.3203C17.1166 20.3201 16.8145 20.0182 16.8145 19.6455C16.8146 19.273 17.1167 18.9709 17.4893 18.9707C18.3073 18.9707 18.9707 18.3073 18.9707 17.4893C18.9705 16.6713 18.3072 16.0078 17.4893 16.0078C16.6714 16.008 16.008 16.6714 16.0078 17.4893C16.0078 17.7565 16.0783 18.0061 16.2012 18.2217L16.2568 18.3115L16.3213 18.4326C16.44 18.7232 16.3423 19.0666 16.0713 19.248C15.8003 19.4293 15.446 19.3884 15.2227 19.168L15.1348 19.0625L15.0283 18.8896C14.7929 18.4764 14.6582 17.9976 14.6582 17.4893C14.6582 17.3883 14.6635 17.2886 14.6738 17.1904L7.48145 13.4854C6.87581 14.1519 6.00258 14.5712 5.03125 14.5713C3.20322 14.5711 1.72088 13.0888 1.7207 11.2607C1.7207 10.3123 2.12049 9.45523 2.75879 8.85254L2.86719 8.76953C3.13399 8.60425 3.48898 8.64384 3.71289 8.88086C3.96857 9.15195 3.95654 9.57912 3.68555 9.83496L3.5498 9.97559C3.25062 10.3201 3.07031 10.7693 3.07031 11.2607C3.07049 12.3432 3.9488 13.2205 5.03125 13.2207C6.1137 13.2205 6.99103 12.3432 6.99121 11.2607C6.99121 10.2457 6.21994 9.411 5.23145 9.31055L5.03125 9.2998L4.89453 9.28613C4.58729 9.22293 4.35547 8.95095 4.35547 8.625C4.35547 8.25232 4.65861 7.95037 5.03125 7.9502L5.20117 7.9541C5.99479 7.9943 6.7129 8.3165 7.2627 8.81934L14.127 5.94141C14.0845 5.76455 14.0596 5.58049 14.0596 5.39062C14.0597 4.09186 15.1124 3.03924 16.4111 3.03906Z" fill="#252323"/>
</g>
<defs>
<clipPath id="clip0_1440_13047">
<rect width="23" height="23" fill="white"/>
</clipPath>
</defs>
</svg>
