<svg width="44" height="44" viewBox="0 0 44 44" fill="none" xmlns="http://www.w3.org/2000/svg">
<g clip-path="url(#clip0_1440_13089)">
<path d="M31.3955 6.35449C31.8097 6.35449 32.1455 6.69028 32.1455 7.10449C32.1453 7.51856 31.8096 7.85449 31.3955 7.85449C30.0381 7.85467 28.9377 8.95506 28.9375 10.3125C28.9377 11.6699 30.0381 12.7713 31.3955 12.7715C32.7531 12.7715 33.8543 11.6701 33.8545 10.3125C33.8544 9.97721 33.7819 9.59668 33.625 9.23828C33.4592 8.85897 33.6325 8.41709 34.0117 8.25098C34.391 8.08501 34.8328 8.25758 34.999 8.63672C35.2409 9.1892 35.3544 9.77498 35.3545 10.3125C35.3543 12.4985 33.5815 14.2715 31.3955 14.2715C30.2202 14.2714 29.1653 13.7579 28.4404 12.9443C28.3834 12.9926 28.3206 13.036 28.248 13.0664L14.6973 18.749C15.1544 19.5775 15.416 20.5289 15.416 21.542C15.416 22.3541 15.2481 23.1267 14.9463 23.8281L29.1621 31.1514C29.9848 29.6225 31.6002 28.5831 33.458 28.583C36.1503 28.583 38.3328 30.7658 38.333 33.458C38.333 36.1504 36.1504 38.333 33.458 38.333C33.0439 38.3328 32.708 37.9971 32.708 37.583C32.7082 37.1691 33.0441 36.8332 33.458 36.833C35.322 36.833 36.833 35.322 36.833 33.458C36.8328 31.5942 35.3219 30.083 33.458 30.083C31.5943 30.0832 30.0832 31.5943 30.083 33.458C30.083 34.066 30.2431 34.6353 30.5234 35.127L30.6514 35.332L30.6904 35.3984C30.8688 35.734 30.7678 36.157 30.4453 36.373C30.1226 36.589 29.6925 36.5214 29.4502 36.2285L29.4043 36.167L29.2197 35.8691C28.8144 35.1578 28.583 34.3338 28.583 33.458C28.583 33.1586 28.6114 32.8656 28.6631 32.5811L14.1768 25.1182C13.1165 26.4657 11.4728 27.3329 9.625 27.333C6.42661 27.3328 3.83318 24.7404 3.83301 21.542C3.83301 19.8827 4.53217 18.385 5.64941 17.3301C5.95055 17.0458 6.42559 17.0593 6.70996 17.3604C6.99406 17.6616 6.97982 18.1357 6.67871 18.4199C5.84899 19.2033 5.33301 20.3122 5.33301 21.542C5.33318 23.912 7.25504 25.8328 9.625 25.833C11.995 25.8328 13.9158 23.912 13.916 21.542C13.916 19.2459 12.1132 17.3709 9.8457 17.2559L9.625 17.25L9.54785 17.2461C9.16988 17.2075 8.875 16.8882 8.875 16.5C8.875 16.0859 9.21094 15.7502 9.625 15.75L9.92285 15.7578C11.4332 15.8344 12.7906 16.4902 13.7783 17.5068L27.668 11.6836C27.6719 11.682 27.6758 11.6803 27.6797 11.6787C27.5231 11.2529 27.4375 10.7926 27.4375 10.3125C27.4377 8.12663 29.2096 6.35467 31.3955 6.35449Z" fill="#252323"/>
</g>
<defs>
<clipPath id="clip0_1440_13089">
<rect width="44" height="44" fill="white"/>
</clipPath>
</defs>
</svg>
