<svg width="18" height="18" viewBox="0 0 18 18" fill="none" xmlns="http://www.w3.org/2000/svg">
<g clip-path="url(#clip0_1440_13048)">
<path d="M13.6875 12C14.6195 12 15.375 12.7555 15.375 13.6875C15.375 14.6195 14.6195 15.375 13.6875 15.375C12.7555 15.375 12 14.6195 12 13.6875C12 12.7555 12.7555 12 13.6875 12ZM3.9375 6.75C5.07659 6.75 6 7.67341 6 8.8125C6 9.95159 5.07659 10.875 3.9375 10.875C2.79841 10.875 1.875 9.95159 1.875 8.8125C1.875 7.67341 2.79841 6.75 3.9375 6.75ZM12.8438 2.90625C13.5686 2.90625 14.1562 3.49388 14.1562 4.21875C14.1562 4.94362 13.5686 5.53125 12.8438 5.53125C12.1189 5.53125 11.5312 4.94362 11.5312 4.21875C11.5312 3.49388 12.1189 2.90625 12.8438 2.90625Z" fill="#E05149"/>
<path d="M12.7188 2.15625C13.0639 2.15625 13.3438 2.43607 13.3438 2.78125C13.3438 3.12643 13.0639 3.40625 12.7188 3.40625C12.3391 3.40625 12.0312 3.71405 12.0312 4.09375C12.0313 4.47345 12.3391 4.78125 12.7188 4.78125C13.0984 4.78125 13.4062 4.47345 13.4062 4.09375C13.4062 3.99945 13.385 3.88773 13.3389 3.78223L13.9121 3.53125L14.4844 3.28027C14.6014 3.54754 14.6562 3.83088 14.6562 4.09375C14.6562 5.1638 13.7888 6.03125 12.7188 6.03125C12.2335 6.03125 11.7911 5.85144 11.4512 5.55664L6.31543 7.70996C6.43388 8.01305 6.5 8.34247 6.5 8.6875C6.5 8.95908 6.45773 9.22066 6.38281 9.46777L11.6934 12.2031C12.1138 11.626 12.7938 11.25 13.5625 11.25C14.8397 11.25 15.875 12.2853 15.875 13.5625C15.875 14.8397 14.8397 15.875 13.5625 15.875C13.2173 15.875 12.9375 15.5952 12.9375 15.25C12.9375 14.9048 13.2173 14.625 13.5625 14.625C14.1493 14.625 14.625 14.1493 14.625 13.5625C14.625 12.9757 14.1493 12.5 13.5625 12.5C12.9757 12.5 12.5 12.9757 12.5 13.5625C12.5 13.7269 12.5375 13.8814 12.6035 14.0195L12.6787 14.1523L12.7383 14.2637C12.8484 14.5328 12.7579 14.8515 12.5068 15.0195C12.2559 15.1874 11.9275 15.1494 11.7207 14.9453L11.6396 14.8477L11.5527 14.7061C11.3603 14.3684 11.25 13.9777 11.25 13.5625C11.25 13.5027 11.2533 13.4435 11.2578 13.3848L5.74902 10.5469C5.25997 11.0561 4.57428 11.375 3.8125 11.375C2.32823 11.375 1.125 10.1718 1.125 8.6875C1.125 7.91756 1.44974 7.22258 1.96777 6.7334C2.21877 6.49644 2.6146 6.50779 2.85156 6.75879C3.08816 7.0097 3.07678 7.4047 2.82617 7.6416C2.54771 7.90449 2.375 8.27553 2.375 8.6875C2.375 9.48141 3.01859 10.125 3.8125 10.125C4.60641 10.125 5.25 9.48141 5.25 8.6875C5.25 7.94339 4.68458 7.33167 3.95996 7.25781L3.8125 7.25L3.68652 7.2373C3.40173 7.17902 3.1875 6.92703 3.1875 6.625C3.1875 6.27982 3.46732 6 3.8125 6L4.08691 6.01367C4.65556 6.07134 5.1704 6.30794 5.57812 6.66406L10.8174 4.4668C10.7938 4.34607 10.7813 4.22137 10.7812 4.09375C10.7812 3.0237 11.6487 2.15625 12.7188 2.15625ZM13.6611 2.95898C13.9772 2.82058 14.3458 2.96425 14.4844 3.28027L13.3389 3.78223C13.2004 3.46607 13.345 3.09747 13.6611 2.95898Z" fill="#332A2A"/>
</g>
<defs>
<clipPath id="clip0_1440_13048">
<rect width="18" height="18" fill="white"/>
</clipPath>
</defs>
</svg>
