<svg width="18" height="18" viewBox="0 0 18 18" fill="none" xmlns="http://www.w3.org/2000/svg">
<g clip-path="url(#clip0_1440_13092)">
<path d="M12.8438 2.28125C13.1889 2.28125 13.4688 2.56107 13.4688 2.90625C13.4688 3.25143 13.1889 3.53125 12.8438 3.53125C12.4641 3.53125 12.1562 3.83905 12.1562 4.21875C12.1563 4.59845 12.4641 4.90625 12.8438 4.90625C13.2234 4.90625 13.5312 4.59845 13.5312 4.21875C13.5312 4.12445 13.51 4.01273 13.4639 3.90723L14.0371 3.65625L14.6094 3.40527C14.7264 3.67254 14.7812 3.95588 14.7812 4.21875C14.7812 5.2888 13.9138 6.15625 12.8438 6.15625C12.3585 6.15625 11.9161 5.97644 11.5762 5.68164L6.44043 7.83496C6.55888 8.13805 6.625 8.46747 6.625 8.8125C6.625 9.08408 6.58273 9.34566 6.50781 9.59277L11.8184 12.3281C12.2388 11.751 12.9188 11.375 13.6875 11.375C14.9647 11.375 16 12.4103 16 13.6875C16 14.9647 14.9647 16 13.6875 16C13.3423 16 13.0625 15.7202 13.0625 15.375C13.0625 15.0298 13.3423 14.75 13.6875 14.75C14.2743 14.75 14.75 14.2743 14.75 13.6875C14.75 13.1007 14.2743 12.625 13.6875 12.625C13.1007 12.625 12.625 13.1007 12.625 13.6875C12.625 13.8519 12.6625 14.0064 12.7285 14.1445L12.8037 14.2773L12.8633 14.3887C12.9734 14.6578 12.8829 14.9765 12.6318 15.1445C12.3809 15.3124 12.0525 15.2744 11.8457 15.0703L11.7646 14.9727L11.6777 14.8311C11.4853 14.4934 11.375 14.1027 11.375 13.6875C11.375 13.6277 11.3783 13.5685 11.3828 13.5098L5.87402 10.6719C5.38497 11.1811 4.69928 11.5 3.9375 11.5C2.45323 11.5 1.25 10.2968 1.25 8.8125C1.25 8.04256 1.57474 7.34758 2.09277 6.8584C2.34377 6.62144 2.7396 6.63279 2.97656 6.88379C3.21316 7.1347 3.20178 7.5297 2.95117 7.7666C2.67271 8.02949 2.5 8.40053 2.5 8.8125C2.5 9.60641 3.14359 10.25 3.9375 10.25C4.73141 10.25 5.375 9.60641 5.375 8.8125C5.375 8.06839 4.80958 7.45667 4.08496 7.38281L3.9375 7.375L3.81152 7.3623C3.52673 7.30402 3.3125 7.05203 3.3125 6.75C3.3125 6.40482 3.59232 6.125 3.9375 6.125L4.21191 6.13867C4.78056 6.19634 5.2954 6.43294 5.70312 6.78906L10.9424 4.5918C10.9188 4.47107 10.9063 4.34637 10.9062 4.21875C10.9062 3.1487 11.7737 2.28125 12.8438 2.28125ZM13.7861 3.08398C14.1022 2.94558 14.4708 3.08925 14.6094 3.40527L13.4639 3.90723C13.3254 3.59107 13.47 3.22247 13.7861 3.08398Z" fill="#252323"/>
</g>
<defs>
<clipPath id="clip0_1440_13092">
<rect width="18" height="18" fill="white"/>
</clipPath>
</defs>
</svg>
