<svg width="28" height="28" viewBox="0 0 28 28" fill="none" xmlns="http://www.w3.org/2000/svg">
<g clip-path="url(#clip0_1440_13046)">
<path d="M21.292 18.667C22.7416 18.6672 23.917 19.8424 23.917 21.292C23.9168 22.7415 22.7415 23.9168 21.292 23.917C19.8424 23.917 18.6672 22.7416 18.667 21.292C18.667 19.8422 19.8422 18.667 21.292 18.667ZM6.125 10.5C7.8968 10.5 9.33283 11.9362 9.33301 13.708C9.33301 15.4799 7.89691 16.917 6.125 16.917C4.35309 16.917 2.91699 15.4799 2.91699 13.708C2.91717 11.9362 4.35319 10.5 6.125 10.5ZM19.9795 4.52051C21.1069 4.52068 22.0205 5.43503 22.0205 6.5625C22.0205 7.68997 21.1069 8.60432 19.9795 8.60449C18.8519 8.60449 17.9375 7.69008 17.9375 6.5625C17.9375 5.43492 18.8519 4.52051 19.9795 4.52051Z" fill="#E05149"/>
<path d="M19.9795 3.77051C20.3934 3.77068 20.7293 4.10655 20.7295 4.52051C20.7295 4.93461 20.3936 5.27033 19.9795 5.27051C19.2662 5.27051 18.6877 5.84928 18.6875 6.5625C18.6877 7.27572 19.2662 7.85352 19.9795 7.85352C20.6926 7.85334 21.2703 7.27561 21.2705 6.5625C21.2705 6.42996 21.2496 6.28098 21.2031 6.13379L21.1484 5.98828L21.1211 5.91602C21.0048 5.55428 21.1786 5.1557 21.5342 5C21.8898 4.84438 22.3014 4.98657 22.4883 5.31738L22.5225 5.38672L22.5811 5.53223C22.7098 5.8751 22.7705 6.23091 22.7705 6.5625C22.7703 8.10404 21.521 9.35334 19.9795 9.35352C19.2311 9.35352 18.5531 9.05752 18.0518 8.57812L9.72754 12.0693C9.9552 12.5689 10.0839 13.1233 10.084 13.708C10.084 14.1733 10.002 14.6194 9.85449 15.0342L18.4541 19.4639C19.055 18.533 20.1016 17.917 21.292 17.917C23.1558 17.9172 24.667 19.4281 24.667 21.292C24.6668 23.1557 23.1557 24.6668 21.292 24.667C20.8779 24.667 20.5422 24.3311 20.542 23.917C20.542 23.5028 20.8778 23.167 21.292 23.167C22.3273 23.1668 23.1668 22.3273 23.167 21.292C23.167 20.2566 22.3274 19.4172 21.292 19.417C20.2565 19.417 19.417 20.2565 19.417 21.292C19.4171 21.6784 19.5333 22.0356 19.7324 22.333C19.9625 22.6772 19.8704 23.1437 19.5264 23.374C19.1823 23.6042 18.7159 23.5117 18.4854 23.168C18.1261 22.6313 17.9171 21.9846 17.917 21.292C17.917 21.1546 17.9254 21.0188 17.9414 20.8857L9.09082 16.3271C8.36544 17.148 7.30625 17.6669 6.125 17.667C3.93902 17.6668 2.16699 15.894 2.16699 13.708C2.16708 12.5741 2.64505 11.5507 3.4082 10.8301C3.70941 10.5459 4.18445 10.5592 4.46875 10.8604C4.7526 11.1614 4.73901 11.6356 4.43848 11.9199C3.96277 12.369 3.66708 13.0036 3.66699 13.708C3.66699 15.0656 4.76745 16.1668 6.125 16.167C7.48255 16.1668 8.58398 15.0656 8.58398 13.708C8.58382 12.4355 7.61619 11.3889 6.37695 11.2627L6.125 11.25L6.04883 11.2461C5.67055 11.2078 5.375 10.8884 5.375 10.5C5.375 10.0859 5.71094 9.75018 6.125 9.75L6.3291 9.75488C7.2945 9.80391 8.16862 10.199 8.83008 10.8184L17.2822 7.27441C17.2223 7.04702 17.1875 6.80871 17.1875 6.5625C17.1877 5.02085 18.4378 3.77051 19.9795 3.77051Z" fill="#332A2A"/>
</g>
<defs>
<clipPath id="clip0_1440_13046">
<rect width="28" height="28" fill="white"/>
</clipPath>
</defs>
</svg>
