<svg width="18" height="18" viewBox="0 0 18 18" fill="none" xmlns="http://www.w3.org/2000/svg">
<g clip-path="url(#clip0_613_5514)">
<circle cx="9.0102" cy="9.0102" r="2.86689" fill="#E05149"/>
<path fill-rule="evenodd" clip-rule="evenodd" d="M8.492 1.87445C8.69012 1.75539 8.93776 1.75539 9.13588 1.87445C9.40067 2.03358 9.58764 2.12062 9.87325 2.25357C10.0733 2.34671 10.3218 2.46239 10.6794 2.64118C10.9881 2.79555 11.1133 3.17097 10.9589 3.4797C10.8045 3.78844 10.4291 3.91358 10.1204 3.75921C9.84915 3.62359 9.62345 3.51774 9.42155 3.42304L9.42154 3.42303C9.201 3.31959 9.00885 3.22947 8.81676 3.12842C7.89225 3.63332 6.73734 4.07595 5.79983 4.39791C5.26931 4.5801 4.79688 4.72749 4.45686 4.82941C4.38306 4.85153 4.31544 4.87153 4.25474 4.88929C3.26844 8.99685 5.02549 13.3902 8.81496 15.1635C11.4053 13.9704 12.688 12.0204 13.2526 10.035C13.7837 8.16767 13.6771 6.26726 13.388 4.9628C13.3325 4.95363 13.2734 4.94272 13.2112 4.92973C12.8318 4.85052 12.3209 4.69058 11.8174 4.36363C11.5279 4.17566 11.4456 3.78858 11.6335 3.49908C11.8215 3.20957 12.2086 3.12726 12.4981 3.31524C12.8367 3.53513 13.1912 3.64861 13.4666 3.70611C13.603 3.73458 13.7158 3.74846 13.7916 3.75517C13.8293 3.75852 13.8575 3.76005 13.8743 3.76074L13.8906 3.76127L13.8897 3.76128L13.8908 3.76128L13.8917 3.76129C14.1711 3.76276 14.4157 3.94952 14.4906 4.21893C14.8999 5.69162 15.1186 8.04351 14.455 10.3769C13.784 12.7361 12.2084 15.0736 9.06004 16.4223C8.90288 16.4896 8.725 16.4896 8.56784 16.4223C3.83797 14.3962 1.80554 9.01097 3.1373 4.21893C3.19631 4.00658 3.3628 3.84102 3.57546 3.78318L3.57553 3.78316L3.57572 3.78311L3.57709 3.78274L3.5833 3.78104L3.60924 3.77386C3.63241 3.76743 3.6671 3.75772 3.71218 3.74489C3.80236 3.71925 3.934 3.68118 4.09795 3.63204C4.42611 3.53368 4.88236 3.39133 5.39383 3.21568C6.42887 2.86023 7.64503 2.38344 8.492 1.87445ZM10.057 7.85532C10.2749 8.02486 10.3142 8.339 10.1447 8.55697C9.9199 8.84596 9.73686 9.10683 9.54684 9.37777L9.54457 9.381L9.54456 9.38101C9.35609 9.64974 9.16055 9.92856 8.91963 10.2383C8.83337 10.3492 8.70444 10.4187 8.56438 10.4298C8.42433 10.4409 8.28607 10.3925 8.18345 10.2966L7.48345 9.64201C7.28175 9.45341 7.27114 9.13701 7.45974 8.93531C7.64834 8.7336 7.96475 8.72299 8.16645 8.91159L8.45848 9.18466C8.55022 9.0572 8.63839 8.93151 8.72812 8.80358L8.73038 8.80034C8.91886 8.53161 9.1144 8.25279 9.35532 7.94303C9.52486 7.72506 9.839 7.68579 10.057 7.85532ZM6.64319 9.01045C6.64319 7.77228 7.64692 6.76855 8.88508 6.76855C10.1232 6.76855 11.127 7.77228 11.127 9.01045C11.127 10.2486 10.1232 11.2523 8.88508 11.2523C7.64692 11.2523 6.64319 10.2486 6.64319 9.01045ZM8.88508 5.51855C6.95656 5.51855 5.39319 7.08193 5.39319 9.01045C5.39319 10.939 6.95656 12.5023 8.88508 12.5023C10.8136 12.5023 12.377 10.939 12.377 9.01045C12.377 7.08193 10.8136 5.51855 8.88508 5.51855Z" fill="#332A2A"/>
</g>
<defs>
<clipPath id="clip0_613_5514">
<rect width="18" height="18" fill="white"/>
</clipPath>
</defs>
</svg>
