<svg width="44" height="44" viewBox="0 0 44 44" fill="none" xmlns="http://www.w3.org/2000/svg">
<g clip-path="url(#clip0_613_5528)">
<path fill-rule="evenodd" clip-rule="evenodd" d="M21.6142 4.85688C21.8517 4.71437 22.1484 4.71437 22.3859 4.85688C23.5385 5.54843 24.9472 6.21527 26.4132 6.82529C26.7956 6.98443 26.9766 7.42345 26.8175 7.80588C26.6584 8.1883 26.2194 8.36931 25.8369 8.21017C24.489 7.64928 23.1559 7.02843 22.0001 6.36882C19.6756 7.69524 16.6118 8.8769 14.1104 9.73458C12.7819 10.1901 11.5983 10.5588 10.7466 10.8136C10.3475 10.9331 10.0209 11.0277 9.78598 11.0946C8.33124 16.7838 8.18137 27.485 15.7105 34.513C16.0133 34.7956 16.0296 35.2702 15.747 35.573C15.4643 35.8758 14.9897 35.8921 14.6869 35.6095C6.38283 27.8581 6.82965 16.1049 8.44918 10.2866C8.5201 10.0318 8.71999 9.83323 8.97523 9.76394L8.97526 9.76393L8.9754 9.7639L8.97628 9.76366L8.98028 9.76257L8.99709 9.75797L9.06495 9.73923C9.12506 9.72256 9.2144 9.69759 9.33007 9.66475C9.56143 9.59905 9.898 9.50189 10.3166 9.37662C11.1541 9.12599 12.3182 8.76335 13.6239 8.31567C16.2497 7.41533 19.3939 6.18904 21.6142 4.85688ZM28.6265 8.49565C28.765 8.10526 29.1937 7.90101 29.5841 8.03946C31.0725 8.5673 32.4347 8.999 33.4249 9.29875C33.9197 9.44856 34.3211 9.56522 34.5981 9.64427C34.7366 9.68379 34.844 9.71389 34.9164 9.73403L34.9983 9.75667L35.0187 9.76225L35.0236 9.76358L35.0247 9.76388L35.0249 9.76393L35.0249 9.76394L35.0249 9.76394C35.2802 9.83323 35.48 10.0318 35.551 10.2866C36.5527 13.8855 37.0909 19.6645 35.4623 25.3821C33.8248 31.1307 29.9938 36.8136 22.295 40.1062C22.1066 40.1868 21.8935 40.1868 21.7051 40.1062C20.1763 39.4524 18.7973 38.703 17.5561 37.8753C17.2115 37.6455 17.1185 37.1798 17.3483 36.8352C17.5781 36.4906 18.0438 36.3975 18.3884 36.6273C19.4707 37.3491 20.6708 38.0112 22.0001 38.5988C29.0309 35.4905 32.5099 30.2717 34.0197 24.9712C35.4992 19.7771 35.0846 14.5015 34.2141 11.0946L34.1865 11.0867C33.9027 11.0057 33.4936 10.8868 32.9903 10.7344C31.9841 10.4298 30.5987 9.99081 29.0827 9.45319C28.6923 9.31475 28.4881 8.88604 28.6265 8.49565ZM25.6689 19.3455C25.9958 19.5998 26.0547 20.071 25.8004 20.398L24.731 21.773C24.4767 22.0999 24.0055 22.1588 23.6785 21.9045C23.3515 21.6502 23.2926 21.179 23.5469 20.852L24.6164 19.477C24.8707 19.1501 25.3419 19.0912 25.6689 19.3455ZM23.53 22.0955C23.8569 22.3498 23.9158 22.821 23.6615 23.148L21.5226 25.898C21.3933 26.0643 21.1999 26.1685 20.9898 26.1852C20.7797 26.2018 20.5723 26.1293 20.4184 25.9853L18.2795 23.9853C17.9769 23.7024 17.961 23.2278 18.2439 22.9253C18.5268 22.6227 19.0014 22.6068 19.304 22.8897L20.8429 24.3287L22.4775 22.227C22.7318 21.9001 23.203 21.8412 23.53 22.0955ZM15.7671 22.0251C15.7671 18.5689 18.5689 15.7672 22.0251 15.7672C25.4812 15.7672 28.283 18.5689 28.283 22.0251C28.283 25.4813 25.4812 28.2831 22.0251 28.2831C18.5689 28.2831 15.7671 25.4813 15.7671 22.0251ZM22.0251 14.2672C17.7404 14.2672 14.2671 17.7405 14.2671 22.0251C14.2671 26.3097 17.7404 29.7831 22.0251 29.7831C26.3097 29.7831 29.783 26.3097 29.783 22.0251C29.783 17.7405 26.3097 14.2672 22.0251 14.2672Z" fill="#252323"/>
</g>
<defs>
<clipPath id="clip0_613_5528">
<rect width="44" height="44" fill="white"/>
</clipPath>
</defs>
</svg>
