<svg width="23" height="23" viewBox="0 0 23 23" fill="none" xmlns="http://www.w3.org/2000/svg">
<g clip-path="url(#clip0_613_5530)">
<path fill-rule="evenodd" clip-rule="evenodd" d="M10.9148 2.50098C11.1287 2.3724 11.3962 2.3724 11.6102 2.50098C11.9531 2.70706 12.1999 2.82205 12.571 2.9949L12.571 2.99491L12.571 2.99491C12.8274 3.11436 13.1431 3.26144 13.5908 3.4853C13.9243 3.65201 14.0594 4.05747 13.8927 4.3909C13.726 4.72434 13.3205 4.85949 12.9871 4.69277C12.6326 4.51551 12.3415 4.37906 12.0832 4.25794L12.0831 4.25793C11.7823 4.11687 11.5257 3.99661 11.265 3.85689C10.0844 4.50977 8.58781 5.08465 7.37096 5.50254C6.69496 5.73469 6.0929 5.92252 5.6596 6.0524C5.53678 6.08922 5.4274 6.12141 5.33362 6.14867C4.0205 11.4841 6.30268 17.2233 11.2634 19.5116C14.6451 17.9724 16.3193 15.4364 17.0531 12.8562C17.7644 10.3548 17.5891 7.80978 17.1837 6.12369C17.0578 6.08057 16.9043 6.02861 16.7364 5.97307C16.2875 5.82451 15.7552 5.65677 15.3712 5.56063C15.0095 5.4701 14.7898 5.10355 14.8803 4.74192C14.9708 4.38028 15.3374 4.16051 15.699 4.25105C16.1356 4.36033 16.7089 4.54196 17.1606 4.69142C17.3891 4.76705 17.5915 4.8361 17.7367 4.88627C17.8094 4.91137 17.8679 4.93178 17.9084 4.94597L17.9552 4.96242L17.9676 4.9668L17.9709 4.96796L17.9718 4.96828L17.972 4.96837L17.9721 4.9684L17.7465 5.60458L17.9722 4.96842C18.1795 5.04195 18.338 5.2119 18.3969 5.42384C18.9149 7.28794 19.1922 10.2696 18.3516 13.2255C17.503 16.2091 15.5124 19.1636 11.5283 20.8703C11.3585 20.943 11.1664 20.943 10.9967 20.8703C5.0188 18.3096 2.44023 11.4972 4.12809 5.42384C4.19182 5.19451 4.37163 5.0157 4.60132 4.95324L4.60135 4.95323L4.60138 4.95322L4.6017 4.95313L4.60353 4.95263L4.61163 4.95041L4.64512 4.94116C4.67495 4.93287 4.71953 4.92039 4.77738 4.90394C4.89312 4.87102 5.06189 4.82222 5.27199 4.75924C5.69247 4.63321 6.27706 4.45082 6.93249 4.22573C8.25641 3.77107 9.82077 3.15843 10.9148 2.50098ZM13.2562 10.1765C13.5504 10.4053 13.6035 10.8294 13.3746 11.1237L11.5857 13.4237C11.4693 13.5734 11.2952 13.6672 11.1061 13.6822C10.917 13.6971 10.7304 13.6318 10.5919 13.5023L9.69742 12.6659C9.42512 12.4113 9.41079 11.9842 9.6654 11.7119C9.92002 11.4396 10.3472 11.4253 10.6195 11.6799L10.9739 12.0113L12.309 10.2949C12.5378 10.0006 12.9619 9.94759 13.2562 10.1765ZM8.52493 11.5132C8.52493 9.86288 9.86282 8.525 11.5132 8.525C13.1636 8.525 14.5014 9.86288 14.5014 11.5132C14.5014 13.1636 13.1636 14.5015 11.5132 14.5015C9.86282 14.5015 8.52493 13.1636 8.52493 11.5132ZM11.5132 7.17499C9.11723 7.17499 7.17493 9.1173 7.17493 11.5132C7.17493 13.9092 9.11723 15.8515 11.5132 15.8515C13.9091 15.8515 15.8514 13.9092 15.8514 11.5132C15.8514 9.1173 13.9091 7.17499 11.5132 7.17499Z" fill="#252323"/>
</g>
<defs>
<clipPath id="clip0_613_5530">
<rect width="23" height="23" fill="white"/>
</clipPath>
</defs>
</svg>
