<svg width="28" height="28" viewBox="0 0 28 28" fill="none" xmlns="http://www.w3.org/2000/svg">
<g clip-path="url(#clip0_613_5481)">
<circle cx="14.016" cy="14.016" r="4.45961" fill="#E05149"/>
<path fill-rule="evenodd" clip-rule="evenodd" d="M13.3245 3.10617C13.5622 2.96331 13.8594 2.96331 14.0972 3.10617C14.7896 3.5223 15.6422 3.92711 16.5376 4.30028C16.9199 4.45963 17.1007 4.89876 16.9413 5.28109C16.782 5.66343 16.3428 5.84419 15.9605 5.68484C15.1798 5.35944 14.4017 4.99939 13.7108 4.61503C12.2748 5.41378 10.4418 6.11862 8.95003 6.63091C8.12817 6.91315 7.39616 7.14153 6.86934 7.29944C6.70235 7.34949 6.55581 7.39252 6.43338 7.42798C4.80389 13.9735 7.60353 21.0335 13.7118 23.8321C17.8702 21.9499 19.9288 18.8369 20.8292 15.6707C21.6996 12.6103 21.4848 9.49789 20.9883 7.43527C20.9146 7.41444 20.8316 7.3905 20.7391 7.36317C20.2834 7.22853 19.5975 7.01164 18.6612 6.67909C18.2709 6.54044 18.0669 6.11164 18.2055 5.72131C18.3442 5.33099 18.773 5.12696 19.1633 5.2656C20.0757 5.58969 20.7359 5.79813 21.1641 5.92465C21.3782 5.9879 21.5343 6.03067 21.6349 6.05717C21.6851 6.07042 21.7216 6.0796 21.7444 6.08524L21.7685 6.09112L21.7726 6.09207L21.7727 6.09211L21.7728 6.09213C22.0407 6.15385 22.2534 6.35724 22.3271 6.62217C22.9549 8.88124 23.2911 12.4975 22.272 16.081C21.2441 19.6954 18.834 23.2733 14.0062 25.3414C13.8176 25.4222 13.6041 25.4222 13.4155 25.3414C6.17628 22.2403 3.04785 13.987 5.09461 6.62217C5.16542 6.36735 5.36521 6.16867 5.62042 6.09927L5.62048 6.09925L5.62092 6.09913L5.62319 6.09851L5.63315 6.09578L5.67412 6.08446C5.71057 6.07433 5.76497 6.0591 5.83556 6.03903C5.97674 5.99887 6.18253 5.93937 6.43866 5.8626C6.95123 5.70896 7.66383 5.48663 8.46284 5.21223C10.0754 4.65846 11.9858 3.91066 13.3245 3.10617ZM16.5021 12.0955C16.8291 12.3498 16.888 12.821 16.6337 13.148C16.5029 13.3161 16.4022 13.4352 16.3091 13.5453L16.3077 13.5469C16.2159 13.6555 16.1317 13.7551 16.0205 13.8981C15.7662 14.2251 15.295 14.284 14.968 14.0297C14.641 13.7754 14.5821 13.3042 14.8364 12.9772C14.9672 12.8091 15.0679 12.69 15.161 12.58L15.161 12.5799L15.161 12.5799L15.1624 12.5783C15.2542 12.4697 15.3384 12.3701 15.4497 12.227C15.704 11.9001 16.1752 11.8412 16.5021 12.0955ZM14.8157 14.2638C15.1426 14.5181 15.2015 14.9893 14.9472 15.3163L13.9115 16.648C13.7821 16.8143 13.5887 16.9185 13.3786 16.9352C13.1685 16.9518 12.9612 16.8793 12.8072 16.7353L11.4461 15.4626C11.1436 15.1797 11.1276 14.7051 11.4105 14.4025C11.6934 14.1 12.1681 14.0841 12.4706 14.367L13.2317 15.0787L13.7632 14.3954C14.0175 14.0684 14.4887 14.0095 14.8157 14.2638ZM10.3064 14.0161C10.3064 11.9674 11.9673 10.3065 14.016 10.3065C16.0648 10.3065 17.7257 11.9674 17.7257 14.0161C17.7257 16.0649 16.0648 17.7258 14.016 17.7258C11.9673 17.7258 10.3064 16.0649 10.3064 14.0161ZM14.016 8.80653C11.1388 8.80653 8.80642 11.139 8.80642 14.0161C8.80642 16.8933 11.1388 19.2258 14.016 19.2258C16.8932 19.2258 19.2257 16.8933 19.2257 14.0161C19.2257 11.139 16.8932 8.80653 14.016 8.80653Z" fill="#332A2A"/>
</g>
<defs>
<clipPath id="clip0_613_5481">
<rect width="28" height="28" fill="white"/>
</clipPath>
</defs>
</svg>
