<svg width="23" height="23" viewBox="0 0 23 23" fill="none" xmlns="http://www.w3.org/2000/svg">
<g clip-path="url(#clip0_613_5494)">
<circle cx="11.5131" cy="11.5131" r="3.66325" fill="#E05149"/>
<path fill-rule="evenodd" clip-rule="evenodd" d="M10.8392 2.42603C11.0532 2.29744 11.3215 2.29744 11.5355 2.42603C11.8773 2.63137 12.1238 2.74606 12.4931 2.91792C12.7501 3.03749 13.0666 3.18473 13.516 3.40942C13.8494 3.57615 13.9844 3.98225 13.8177 4.31567C13.651 4.64906 13.2449 4.78414 12.9115 4.61743C12.5603 4.44187 12.2716 4.30599 12.0153 4.18535C11.7106 4.0419 11.4516 3.92001 11.1878 3.77856C10.0075 4.43131 8.51292 5.00916 7.29624 5.427C6.62024 5.65915 6.01763 5.84693 5.58433 5.97681C5.50379 6.00095 5.42884 6.0224 5.36033 6.04201L5.36027 6.04203L5.26109 6.07056C3.94621 11.4072 6.22849 17.1444 11.1908 19.4329C14.5702 17.8936 16.2443 15.3599 16.9779 12.7805C17.6891 10.2796 17.514 7.73511 17.1087 6.04907L17.0855 6.0411C16.9641 5.99952 16.8192 5.94991 16.6615 5.89771C16.2127 5.74918 15.6802 5.58174 15.2962 5.4856C14.9346 5.39506 14.7145 5.02789 14.805 4.66626C14.8956 4.30488 15.2619 4.08575 15.6234 4.17603C16.0599 4.28531 16.6337 4.467 17.0853 4.61646C17.3138 4.69206 17.5162 4.76063 17.6615 4.81079C17.7342 4.83589 17.7929 4.85617 17.8334 4.87036L17.8802 4.88696C17.8832 4.88801 17.8857 4.88914 17.8878 4.8901L17.8919 4.89185L17.8945 4.89249L17.8959 4.89282H17.8968C18.1042 4.96636 18.2627 5.13693 18.3216 5.34888C18.8396 7.2129 19.1171 10.1942 18.2767 13.1497C17.4282 16.1333 15.4375 19.0885 11.4535 20.7952C11.3261 20.8497 11.1857 20.8635 11.0521 20.8362L10.9212 20.7952L10.6439 20.6721C4.86416 18.0219 2.39177 11.3273 4.05308 5.34888L4.08238 5.26489C4.16258 5.07639 4.32503 4.93291 4.52573 4.87817H4.52671L4.52866 4.8772L4.53648 4.87524L4.54789 4.87187C4.55392 4.87004 4.56118 4.86784 4.56968 4.86548L4.5909 4.8596L4.59092 4.85959C4.61942 4.85171 4.65702 4.8413 4.70249 4.82837C4.81818 4.79546 4.98679 4.74674 5.19663 4.68384C5.61712 4.5578 6.20234 4.37572 6.85777 4.15064C8.18143 3.69605 9.7453 3.08331 10.8392 2.42603ZM12.3088 10.2951C12.5376 10.0009 12.9618 9.94728 13.2561 10.1759C13.5503 10.4048 13.6031 10.8289 13.3743 11.1232C13.076 11.5067 12.778 11.8903 12.4799 12.274C12.1821 12.6574 11.8842 13.0408 11.5862 13.424L11.4885 13.5246C11.3815 13.615 11.2477 13.6706 11.1057 13.6818C10.9168 13.6966 10.7305 13.6315 10.592 13.5021L9.6975 12.6662C9.42528 12.4116 9.41088 11.9844 9.66527 11.7121C9.91989 11.4398 10.3471 11.4252 10.6194 11.6798L10.9739 12.0109L11.6421 11.152L12.3088 10.2951ZM11.5132 8.52491C13.1635 8.52491 14.5014 9.8629 14.5015 11.5132C14.5015 13.1636 13.1636 14.5015 11.5132 14.5015C9.86291 14.5014 8.52492 13.1635 8.52492 11.5132C8.52501 9.86295 9.86297 8.525 11.5132 8.52491ZM11.5132 15.8521C13.9092 15.8521 15.8521 13.9091 15.8521 11.5132C15.852 9.11731 13.9091 7.1753 11.5132 7.1753C9.11738 7.17539 7.1754 9.11737 7.17531 11.5132C7.17531 13.9091 9.11733 15.852 11.5132 15.8521Z" fill="#332A2A"/>
</g>
<defs>
<clipPath id="clip0_613_5494">
<rect width="23" height="23" fill="white"/>
</clipPath>
</defs>
</svg>
