<svg width="23" height="23" viewBox="0 0 23 23" fill="none" xmlns="http://www.w3.org/2000/svg">
<g clip-path="url(#clip0_1244_16436)">
<path d="M10.2598 16.6071C10.3191 17.2661 10.9014 17.7521 11.5603 17.6928C12.2193 17.6334 12.7053 17.0512 12.646 16.3922C12.5866 15.7333 12.0044 15.2473 11.3454 15.3066" stroke="#332A2A" stroke-width="1.35" stroke-linecap="round"/>
<path d="M6.4857 6.6574C6.64766 5.99303 7.59242 5.99303 7.75437 6.6574V6.6574C7.85896 7.08649 8.35053 7.2901 8.7279 7.06065V7.06065C9.3122 6.70538 9.98024 7.37343 9.62498 7.95773V7.95773C9.39553 8.3351 9.59914 8.82666 10.0282 8.93126V8.93126C10.6926 9.09321 10.6926 10.038 10.0282 10.1999V10.1999C9.59914 10.3045 9.39553 10.7961 9.62498 11.1735V11.1735C9.98024 11.7578 9.3122 12.4258 8.7279 12.0705V12.0705C8.35053 11.8411 7.85896 12.0447 7.75437 12.4738V12.4738C7.59242 13.1382 6.64766 13.1382 6.4857 12.4738V12.4738C6.38111 12.0447 5.88955 11.8411 5.51217 12.0705V12.0705C4.92788 12.4258 4.25983 11.7578 4.61509 11.1735V11.1735C4.84454 10.7961 4.64093 10.3045 4.21184 10.1999V10.1999C3.54747 10.038 3.54747 9.09321 4.21184 8.93126V8.93126C4.64093 8.82666 4.84454 8.3351 4.61509 7.95773V7.95773C4.25983 7.37343 4.92788 6.70538 5.51217 7.06065V7.06065C5.88955 7.2901 6.38111 7.08649 6.4857 6.6574V6.6574Z" stroke="#332A2A" stroke-width="1.35" stroke-linejoin="round"/>
<path d="M8.17969 9.56555C8.17969 8.9803 7.70525 8.50586 7.12 8.50586C6.53474 8.50586 6.0603 8.9803 6.0603 9.56555C6.0603 10.1508 6.53474 10.6253 7.12 10.6253" stroke="#332A2A" stroke-width="1.35" stroke-linecap="round"/>
<path d="M10.4437 13.2898C10.5587 12.5254 11.6223 12.4296 11.872 13.1612V13.1612C12.0333 13.6337 12.6074 13.8131 13.009 13.5165V13.5165C13.6308 13.0572 14.4507 13.7416 14.11 14.4355V14.4355C13.8899 14.8836 14.169 15.4164 14.6627 15.4907V15.4907C15.4271 15.6057 15.5229 16.6693 14.7914 16.9191V16.9191C14.3189 17.0803 14.1395 17.6544 14.4361 18.056V18.056C14.8953 18.6778 14.2109 19.4977 13.517 19.157V19.157C13.0689 18.9369 12.5361 19.216 12.4618 19.7097V19.7097C12.3469 20.4741 11.2832 20.5699 11.0335 19.8384V19.8384C10.8722 19.3659 10.2981 19.1865 9.89652 19.4831V19.4831C9.2747 19.9423 8.45482 19.2579 8.79555 18.564V18.564C9.01562 18.1159 8.73653 17.5831 8.24282 17.5089V17.5089C7.4784 17.3939 7.3826 16.3302 8.11418 16.0805V16.0805C8.58667 15.9192 8.76607 15.3451 8.46947 14.9435V14.9435C8.01023 14.3217 8.69463 13.5018 9.3885 13.8426V13.8426C9.83665 14.0626 10.3694 13.7835 10.4437 13.2898V13.2898Z" stroke="#332A2A" stroke-width="1.35"/>
<path d="M15.4482 4.14845C15.7406 3.31543 16.9533 3.42741 17.0882 4.29987V4.29987C17.1747 4.85936 17.7755 5.17855 18.2871 4.93628L18.3559 4.90374C19.1397 4.53259 19.8933 5.46468 19.3681 6.15483V6.15483C19.0257 6.60475 19.2257 7.25839 19.7615 7.43892V7.43892C20.587 7.71705 20.4761 8.91804 19.6137 9.04032V9.04032C19.0539 9.11969 18.7375 9.72565 18.9918 10.2307V10.2307C19.3817 11.0053 18.4702 11.7837 17.7676 11.2753L17.706 11.2307C17.2473 10.8988 16.5982 11.1026 16.4107 11.6368V11.6368C16.1184 12.4698 14.9057 12.3578 14.7708 11.4854V11.4854C14.6843 10.9259 14.0835 10.6067 13.5718 10.849L13.5031 10.8815C12.7193 11.2527 11.9656 10.3206 12.4909 9.63042V9.63042C12.8333 9.1805 12.6332 8.52686 12.0974 8.34633V8.34633C11.2719 8.0682 11.3828 6.86721 12.2453 6.74493V6.74493C12.8051 6.66556 13.1214 6.0596 12.8672 5.55459V5.55459C12.4772 4.77993 13.3888 4.00159 14.0914 4.50999L14.153 4.55456C14.6117 4.88643 15.2608 4.68265 15.4482 4.14845V4.14845Z" stroke="#332A2A" stroke-width="1.35"/>
<path d="M17.3015 8.01899C17.2334 8.75629 16.5641 9.29728 15.8064 9.22732C15.0488 9.15737 14.4898 8.50296 14.5579 7.76566C14.626 7.02836 15.2953 6.48737 16.053 6.55733" stroke="#332A2A" stroke-width="1.35" stroke-linecap="round"/>
<path d="M13.1096 2.91502C10.9534 1.95666 9.51589 3.15457 8.20672 4.7846M8.20672 4.7846L9.2763 4.7846M8.20672 4.7846L8.07839 3.63374" stroke="#332A2A" stroke-width="1.35" stroke-linecap="round" stroke-linejoin="round"/>
<path d="M16.3203 18.1639C18.5227 17.3168 18.7161 15.2917 18.4652 13.375M18.4652 13.375L17.7089 14.1313M18.4652 13.375L19.3697 14.098" stroke="#332A2A" stroke-width="1.35" stroke-linecap="round" stroke-linejoin="round"/>
<path d="M3.557 13.341C3.67358 15.1487 4.46416 16.0402 5.83671 16.4934M5.83671 16.4934L5.51164 15.2802M5.83671 16.4934L4.62347 16.8185" stroke="#332A2A" stroke-width="1.35" stroke-linecap="round" stroke-linejoin="round"/>
</g>
<defs>
<clipPath id="clip0_1244_16436">
<rect width="23" height="23" fill="white"/>
</clipPath>
</defs>
</svg>
