<svg width="28" height="28" viewBox="0 0 28 28" fill="none" xmlns="http://www.w3.org/2000/svg">
<g clip-path="url(#clip0_1244_16435)">
<path d="M12.4615 20.239C12.5336 21.039 13.2405 21.6291 14.0405 21.5571C14.8405 21.485 15.4306 20.7781 15.3585 19.9781C15.2865 19.1781 14.5796 18.588 13.7796 18.6601" stroke="#332A2A" stroke-width="1.49593" stroke-linecap="round"/>
<path d="M7.87946 8.15932C8.07608 7.35272 9.22311 7.35272 9.41973 8.15932V8.15932C9.54672 8.68028 10.1435 8.92748 10.6017 8.6489V8.6489C11.3111 8.21758 12.1221 9.02865 11.6908 9.73804V9.73804C11.4122 10.1962 11.6594 10.793 12.1804 10.92V10.92C12.987 11.1166 12.987 12.2636 12.1804 12.4603V12.4603C11.6594 12.5872 11.4122 13.184 11.6908 13.6422V13.6422C12.1221 14.3516 11.3111 15.1627 10.6017 14.7313V14.7313C10.1435 14.4528 9.54672 14.7 9.41973 15.2209V15.2209C9.22311 16.0275 8.07608 16.0275 7.87946 15.2209V15.2209C7.75247 14.7 7.15567 14.4528 6.69751 14.7313V14.7313C5.98812 15.1627 5.17706 14.3516 5.60838 13.6422V13.6422C5.88695 13.184 5.63975 12.5872 5.1188 12.4603V12.4603C4.31219 12.2636 4.31219 11.1166 5.1188 10.92V10.92C5.63975 10.793 5.88695 10.1962 5.60838 9.73804V9.73804C5.17706 9.02865 5.98812 8.21758 6.69751 8.6489V8.6489C7.15567 8.92748 7.75247 8.68028 7.87946 8.15932V8.15932Z" stroke="#332A2A" stroke-width="1.49593" stroke-linejoin="round"/>
<path d="M9.93641 11.6904C9.93641 10.9798 9.36039 10.4038 8.64984 10.4038C7.93929 10.4038 7.36328 10.9798 7.36328 11.6904C7.36328 12.4009 7.93929 12.9769 8.64984 12.9769" stroke="#332A2A" stroke-width="1.49593" stroke-linecap="round"/>
<path d="M12.6848 16.2116C12.8243 15.2835 14.1158 15.1672 14.4189 16.0554V16.0554C14.6147 16.6291 15.3117 16.8469 15.7993 16.4868V16.4868C16.5542 15.9292 17.5497 16.7601 17.136 17.6025V17.6025C16.8688 18.1466 17.2076 18.7935 17.807 18.8836V18.8836C18.7351 19.0232 18.8514 20.3146 17.9632 20.6178V20.6178C17.3896 20.8136 17.1718 21.5106 17.5319 21.9982V21.9982C18.0894 22.7531 17.2585 23.7485 16.4161 23.3348V23.3348C15.872 23.0677 15.2251 23.4065 15.135 24.0059V24.0059C14.9954 24.934 13.704 25.0503 13.4008 24.1621V24.1621C13.205 23.5884 12.508 23.3706 12.0205 23.7307V23.7307C11.2655 24.2883 10.2701 23.4574 10.6838 22.6149V22.6149C10.951 22.0709 10.6121 21.424 10.0127 21.3339V21.3339C9.08465 21.1943 8.96834 19.9029 9.85654 19.5997V19.5997C10.4302 19.4039 10.648 18.7069 10.2879 18.2193V18.2193C9.73034 17.4644 10.5613 16.469 11.4037 16.8827V16.8827C11.9478 17.1498 12.5946 16.811 12.6848 16.2116V16.2116Z" stroke="#332A2A" stroke-width="1.49593"/>
<path d="M18.5468 5.22848C18.8913 4.24664 20.3197 4.37852 20.4786 5.40685L20.5054 5.58007C20.6076 6.241 21.3172 6.61731 21.9216 6.3311L22.072 6.25992C23.0186 5.81166 23.9101 6.96193 23.2758 7.79545V7.79545C22.8615 8.33987 23.1052 9.14183 23.7536 9.36027V9.36027C24.7524 9.69683 24.6171 11.1618 23.5735 11.3098V11.3098C22.8962 11.4059 22.5097 12.1496 22.8173 12.7607V12.7607C23.2883 13.6963 22.2013 14.6639 21.3527 14.0498L21.2179 13.9523C20.6761 13.5603 19.9096 13.8003 19.6881 14.4314L19.6301 14.5967C19.2855 15.5786 17.8572 15.4467 17.6983 14.4184L17.6715 14.2452C17.5693 13.5842 16.8597 13.2079 16.2553 13.4941L16.1049 13.5653C15.1583 14.0136 14.2668 12.8633 14.9011 12.0298V12.0298C15.3154 11.4854 15.0717 10.6834 14.4233 10.465V10.465C13.4245 10.1284 13.5597 8.66338 14.6033 8.51541V8.51541C15.2807 8.41937 15.6672 7.6756 15.3595 7.06452V7.06452C14.8886 6.12895 15.9756 5.16137 16.8242 5.77538L16.959 5.87289C17.5008 6.26493 18.2673 6.02491 18.4887 5.39387L18.5468 5.22848Z" stroke="#332A2A" stroke-width="1.5"/>
<path d="M20.7584 10.0664C20.6755 10.964 19.8606 11.6226 18.9383 11.5374C18.0159 11.4523 17.3354 10.6556 17.4183 9.75803C17.5012 8.86045 18.3161 8.20185 19.2384 8.28701" stroke="#332A2A" stroke-width="1.5" stroke-linecap="round"/>
<path d="M15.9598 3.8532C13.3348 2.68649 11.5848 4.14483 9.99102 6.12921M9.99102 6.12921L11.2931 6.12921M9.99102 6.12921L9.83479 4.72816" stroke="#332A2A" stroke-width="1.5" stroke-linecap="round" stroke-linejoin="round"/>
<path d="M19.564 21.8085C22.2451 20.7773 22.4806 18.3118 22.1751 15.9785M22.1751 15.9785L21.2544 16.8992M22.1751 15.9785L23.2763 16.8587" stroke="#332A2A" stroke-width="1.5" stroke-linecap="round" stroke-linejoin="round"/>
<path d="M4.63489 15.937C4.77682 18.1377 5.73926 19.223 7.4102 19.7747M7.4102 19.7747L7.01445 18.2977M7.4102 19.7747L5.93321 20.1705" stroke="#332A2A" stroke-width="1.5" stroke-linecap="round" stroke-linejoin="round"/>
</g>
<defs>
<clipPath id="clip0_1244_16435">
<rect width="28" height="28" fill="white"/>
</clipPath>
</defs>
</svg>
