<svg width="23" height="23" viewBox="0 0 23 23" fill="none" xmlns="http://www.w3.org/2000/svg">
<g clip-path="url(#clip0_1244_16619)">
<path fill-rule="evenodd" clip-rule="evenodd" d="M15.4485 4.16628C15.7408 3.33326 16.9536 3.44524 17.0884 4.3177C17.1749 4.8772 17.7757 5.19639 18.2874 4.95411L18.3561 4.92157C19.1399 4.55042 19.8936 5.48251 19.3684 6.17266C19.0259 6.62259 19.226 7.27622 19.7618 7.45675C20.5873 7.73488 20.4764 8.93587 19.6139 9.05815C19.0541 9.13753 18.7378 9.74348 18.992 10.2485C19.382 11.0232 18.4704 11.8015 17.7678 11.2931L17.7062 11.2485C17.2475 10.9166 16.5985 11.1204 16.411 11.6546C16.1187 12.4876 14.9059 12.3757 14.771 11.5032C14.6845 10.9437 14.0838 10.6245 13.5721 10.8668L13.5034 10.8993C12.7195 11.2705 11.9659 10.3384 12.4911 9.64825C12.8335 9.19833 12.6335 8.54469 12.0977 8.36416C11.2722 8.08603 11.3831 6.88504 12.2455 6.76276C12.8053 6.68339 13.1217 6.07743 12.8674 5.57242C12.4775 4.79776 13.389 4.01942 14.0917 4.52782L14.1533 4.57239C14.6119 4.90427 15.261 4.70048 15.4485 4.16628ZM17.3015 8.03709C17.2334 8.77439 16.5641 9.31538 15.8064 9.24542C15.0488 9.17547 14.4898 8.52106 14.5579 7.78376C14.626 7.04646 15.2953 6.50547 16.053 6.57543C16.8106 6.64538 17.3696 7.29979 17.3015 8.03709ZM7.75443 6.6753C7.59248 6.01093 6.64771 6.01093 6.48576 6.6753C6.38117 7.10439 5.88961 7.308 5.51223 7.07855C4.92793 6.72329 4.25989 7.39134 4.61515 7.97563C4.8446 8.35301 4.64099 8.84457 4.2119 8.94917C3.54753 9.11112 3.54753 10.0559 4.2119 10.2178C4.64099 10.3224 4.8446 10.814 4.61515 11.1914C4.25989 11.7757 4.92793 12.4437 5.51223 12.0884C5.88961 11.859 6.38117 12.0626 6.48576 12.4917C6.64771 13.1561 7.59248 13.1561 7.75443 12.4917C7.85902 12.0626 8.35058 11.859 8.72796 12.0884C9.31226 12.4437 9.9803 11.7757 9.62504 11.1914C9.39559 10.814 9.5992 10.3224 10.0283 10.2178C10.6927 10.0559 10.6927 9.11112 10.0283 8.94917C9.5992 8.84457 9.39559 8.35301 9.62504 7.97563C9.9803 7.39134 9.31226 6.72329 8.72796 7.07855C8.35058 7.308 7.85902 7.10439 7.75443 6.6753ZM7.12009 10.6432C7.70534 10.6432 8.17979 10.1687 8.17979 9.58349C8.17979 8.99824 7.70534 8.5238 7.12009 8.5238C6.53484 8.5238 6.06039 8.99824 6.06039 9.58349C6.06039 10.1687 6.53484 10.6432 7.12009 10.6432ZM11.8722 13.1789C11.6224 12.4473 10.5588 12.5431 10.4438 13.3075C10.3695 13.8012 9.83675 14.0803 9.38861 13.8602C8.69473 13.5195 8.01034 14.3394 8.46957 14.9612C8.76617 15.3628 8.58678 15.9369 8.11428 16.0982C7.3827 16.3479 7.4785 17.4116 8.24293 17.5265C8.73664 17.6008 9.01572 18.1336 8.79566 18.5817C8.45492 19.2756 9.2748 19.96 9.89663 19.5008C10.2982 19.2042 10.8723 19.3835 11.0336 19.856C11.2833 20.5876 12.347 20.4918 12.462 19.7274C12.5362 19.2337 13.069 18.9546 13.5171 19.1747C14.211 19.5154 14.8954 18.6955 14.4362 18.0737C14.1396 17.6721 14.319 17.098 14.7915 16.9367C15.523 16.687 15.4272 15.6233 14.6628 15.5084C14.1691 15.4341 13.89 14.9013 14.1101 14.4532C14.4508 13.7593 13.6309 13.0749 13.0091 13.5341C12.6075 13.8307 12.0334 13.6514 11.8722 13.1789ZM11.5603 17.7105C12.2192 17.6512 12.7053 17.0689 12.646 16.41C12.5866 15.7511 12.0043 15.265 11.3454 15.3244C10.6865 15.3837 10.2004 15.966 10.2598 16.6249C10.3191 17.2838 10.9014 17.7699 11.5603 17.7105Z" fill="#E05149"/>
<path d="M10.2598 16.6071C10.3191 17.2661 10.9014 17.7521 11.5603 17.6928C12.2193 17.6334 12.7053 17.0512 12.646 16.3922C12.5866 15.7333 12.0044 15.2473 11.3454 15.3066" stroke="#252323" stroke-width="1.35" stroke-linecap="round"/>
<path d="M6.4857 6.6574C6.64766 5.99303 7.59242 5.99303 7.75437 6.6574V6.6574C7.85896 7.08649 8.35053 7.2901 8.7279 7.06065V7.06065C9.3122 6.70538 9.98024 7.37343 9.62498 7.95773V7.95773C9.39553 8.3351 9.59914 8.82666 10.0282 8.93126V8.93126C10.6926 9.09321 10.6926 10.038 10.0282 10.1999V10.1999C9.59914 10.3045 9.39553 10.7961 9.62498 11.1735V11.1735C9.98024 11.7578 9.3122 12.4258 8.7279 12.0705V12.0705C8.35053 11.8411 7.85896 12.0447 7.75437 12.4738V12.4738C7.59242 13.1382 6.64766 13.1382 6.4857 12.4738V12.4738C6.38111 12.0447 5.88955 11.8411 5.51217 12.0705V12.0705C4.92788 12.4258 4.25983 11.7578 4.61509 11.1735V11.1735C4.84454 10.7961 4.64093 10.3045 4.21184 10.1999V10.1999C3.54747 10.038 3.54747 9.09321 4.21184 8.93126V8.93126C4.64093 8.82666 4.84454 8.3351 4.61509 7.95773V7.95773C4.25983 7.37343 4.92788 6.70538 5.51217 7.06065V7.06065C5.88955 7.2901 6.38111 7.08649 6.4857 6.6574V6.6574Z" stroke="#252323" stroke-width="1.35" stroke-linejoin="round"/>
<path d="M8.17969 9.56555C8.17969 8.9803 7.70525 8.50586 7.12 8.50586C6.53474 8.50586 6.0603 8.9803 6.0603 9.56555C6.0603 10.1508 6.53474 10.6253 7.12 10.6253" stroke="#252323" stroke-width="1.35" stroke-linecap="round"/>
<path d="M10.4437 13.2898C10.5587 12.5254 11.6223 12.4296 11.872 13.1612V13.1612C12.0333 13.6337 12.6074 13.8131 13.009 13.5165V13.5165C13.6308 13.0572 14.4507 13.7416 14.11 14.4355V14.4355C13.8899 14.8836 14.169 15.4164 14.6627 15.4907V15.4907C15.4271 15.6057 15.5229 16.6693 14.7914 16.9191V16.9191C14.3189 17.0803 14.1395 17.6544 14.4361 18.056V18.056C14.8953 18.6778 14.2109 19.4977 13.517 19.157V19.157C13.0689 18.9369 12.5361 19.216 12.4618 19.7097V19.7097C12.3469 20.4741 11.2832 20.5699 11.0335 19.8384V19.8384C10.8722 19.3659 10.2981 19.1865 9.89652 19.4831V19.4831C9.2747 19.9423 8.45482 19.2579 8.79555 18.564V18.564C9.01562 18.1159 8.73653 17.5831 8.24282 17.5089V17.5089C7.4784 17.3939 7.3826 16.3302 8.11418 16.0805V16.0805C8.58667 15.9192 8.76607 15.3451 8.46947 14.9435V14.9435C8.01023 14.3217 8.69463 13.5018 9.3885 13.8426V13.8426C9.83665 14.0626 10.3694 13.7835 10.4437 13.2898V13.2898Z" stroke="#252323" stroke-width="1.35"/>
<path d="M15.4482 4.14845C15.7406 3.31543 16.9533 3.42741 17.0882 4.29987V4.29987C17.1747 4.85936 17.7755 5.17855 18.2871 4.93628L18.3559 4.90374C19.1397 4.53259 19.8933 5.46468 19.3681 6.15483V6.15483C19.0257 6.60475 19.2257 7.25839 19.7615 7.43892V7.43892C20.587 7.71705 20.4761 8.91804 19.6137 9.04032V9.04032C19.0539 9.11969 18.7375 9.72565 18.9918 10.2307V10.2307C19.3817 11.0053 18.4702 11.7837 17.7676 11.2753L17.706 11.2307C17.2473 10.8988 16.5982 11.1026 16.4107 11.6368V11.6368C16.1184 12.4698 14.9057 12.3578 14.7708 11.4854V11.4854C14.6843 10.9259 14.0835 10.6067 13.5718 10.849L13.5031 10.8815C12.7193 11.2527 11.9656 10.3206 12.4909 9.63042V9.63042C12.8333 9.1805 12.6332 8.52686 12.0974 8.34633V8.34633C11.2719 8.0682 11.3828 6.86721 12.2453 6.74493V6.74493C12.8051 6.66556 13.1214 6.0596 12.8672 5.55459V5.55459C12.4772 4.77993 13.3888 4.00159 14.0914 4.50999L14.153 4.55456C14.6117 4.88643 15.2608 4.68265 15.4482 4.14845V4.14845Z" stroke="#252323" stroke-width="1.35"/>
<path d="M17.3015 8.01899C17.2334 8.75629 16.5641 9.29728 15.8064 9.22732C15.0488 9.15737 14.4898 8.50296 14.5579 7.76566C14.626 7.02836 15.2953 6.48737 16.053 6.55733" stroke="#252323" stroke-width="1.35" stroke-linecap="round"/>
<path d="M13.1096 2.91502C10.9534 1.95666 9.51589 3.15457 8.20672 4.7846M8.20672 4.7846L9.2763 4.7846M8.20672 4.7846L8.07839 3.63374" stroke="#252323" stroke-width="1.35" stroke-linecap="round" stroke-linejoin="round"/>
<path d="M16.3203 18.1639C18.5227 17.3168 18.7161 15.2917 18.4652 13.375M18.4652 13.375L17.7089 14.1313M18.4652 13.375L19.3697 14.098" stroke="#252323" stroke-width="1.35" stroke-linecap="round" stroke-linejoin="round"/>
<path d="M3.557 13.341C3.67358 15.1487 4.46416 16.0402 5.83671 16.4934M5.83671 16.4934L5.51164 15.2802M5.83671 16.4934L4.62347 16.8185" stroke="#252323" stroke-width="1.35" stroke-linecap="round" stroke-linejoin="round"/>
</g>
<defs>
<clipPath id="clip0_1244_16619">
<rect width="23" height="23" fill="white"/>
</clipPath>
</defs>
</svg>
