<svg width="28" height="28" viewBox="0 0 28 28" fill="none" xmlns="http://www.w3.org/2000/svg">
<g clip-path="url(#clip0_1244_16618)">
<path fill-rule="evenodd" clip-rule="evenodd" d="M18.5022 5.37611C18.8581 4.362 20.3345 4.49832 20.4987 5.56045C20.604 6.24157 21.3354 6.63015 21.9583 6.3352L22.042 6.29559C22.9962 5.84375 23.9137 6.97847 23.2743 7.81866C22.8574 8.36639 23.101 9.16212 23.7532 9.3819C24.7582 9.7205 24.6232 11.1826 23.5732 11.3314C22.8917 11.4281 22.5066 12.1657 22.8161 12.7805C23.2909 13.7236 22.1812 14.6711 21.3258 14.0522L21.2508 13.998C20.6924 13.5939 19.9022 13.842 19.674 14.4924C19.3181 15.5065 17.8417 15.3702 17.6775 14.308C17.5723 13.6269 16.8408 13.2383 16.2179 13.5333L16.1343 13.5729C15.18 14.0247 14.2626 12.89 14.902 12.0498C15.3188 11.5021 15.0753 10.7063 14.423 10.4866C13.4181 10.148 13.5531 8.6859 14.603 8.53704C15.2845 8.44041 15.6696 7.70273 15.3601 7.08793C14.8854 6.14487 15.9951 5.19732 16.8505 5.81625L16.9255 5.87051C17.4838 6.27453 18.274 6.02644 18.5022 5.37611ZM20.7581 10.0884C20.6753 10.986 19.8604 11.6446 18.938 11.5594C18.0157 11.4743 17.3352 10.6776 17.4181 9.78C17.5009 8.88242 18.3158 8.22382 19.2382 8.30898C20.1605 8.39415 20.841 9.19082 20.7581 10.0884ZM9.43999 8.12596C9.24283 7.31716 8.09269 7.31716 7.89553 8.12596C7.7682 8.64833 7.16977 8.8962 6.71036 8.61687C5.99904 8.18437 5.18577 8.99765 5.61826 9.70897C5.8976 10.1684 5.64972 10.7668 5.12735 10.8941C4.31855 11.0913 4.31855 12.2414 5.12735 12.4386C5.64972 12.5659 5.8976 13.1644 5.61826 13.6238C5.18577 14.3351 5.99904 15.1484 6.71036 14.7159C7.16977 14.4365 7.7682 14.6844 7.89553 15.2068C8.09269 16.0156 9.24283 16.0156 9.43999 15.2068C9.56733 14.6844 10.1657 14.4365 10.6252 14.7159C11.3365 15.1484 12.1498 14.3351 11.7173 13.6238C11.4379 13.1644 11.6858 12.5659 12.2082 12.4386C13.017 12.2414 13.017 11.0913 12.2082 10.8941C11.6858 10.7668 11.4379 10.1684 11.7173 9.70897C12.1498 8.99765 11.3365 8.18437 10.6252 8.61687C10.1657 8.8962 9.56733 8.64833 9.43999 8.12596ZM8.66776 12.9564C9.38024 12.9564 9.95782 12.3788 9.95782 11.6664C9.95782 10.9539 9.38024 10.3763 8.66776 10.3763C7.95527 10.3763 7.37769 10.9539 7.37769 11.6664C7.37769 12.3788 7.95527 12.9564 8.66776 12.9564ZM14.4529 16.0433C14.1489 15.1527 12.854 15.2693 12.714 16.1999C12.6236 16.801 11.975 17.1407 11.4294 16.8728C10.5847 16.458 9.75154 17.4561 10.3106 18.2131C10.6717 18.7021 10.4533 19.4009 9.87807 19.5973C8.98746 19.9013 9.10409 21.1962 10.0347 21.3361C10.6357 21.4265 10.9755 22.0752 10.7076 22.6207C10.2928 23.4654 11.2909 24.2986 12.0479 23.7395C12.5368 23.3785 13.2357 23.5969 13.432 24.1721C13.736 25.0627 15.0309 24.9461 15.1709 24.0155C15.2613 23.4144 15.9099 23.0747 16.4555 23.3426C17.3002 23.7574 18.1334 22.7593 17.5743 22.0023C17.2132 21.5133 17.4316 20.8145 18.0068 20.6181C18.8974 20.3141 18.7808 19.0192 17.8502 18.8793C17.2492 18.7889 16.9094 18.1402 17.1773 17.5947C17.5921 16.75 16.594 15.9168 15.837 16.4759C15.3481 16.8369 14.6492 16.6185 14.4529 16.0433ZM14.0733 21.5602C14.8754 21.4879 15.4671 20.7791 15.3949 19.9769C15.3226 19.1747 14.6138 18.583 13.8116 18.6553C13.0095 18.7275 12.4177 19.4364 12.49 20.2385C12.5622 21.0407 13.2711 21.6324 14.0733 21.5602Z" fill="#E05149"/>
<path d="M12.4902 20.2171C12.5624 21.0193 13.2713 21.611 14.0735 21.5387C14.8756 21.4665 15.4673 20.7576 15.3951 19.9555C15.3229 19.1533 14.614 18.5616 13.8118 18.6338" stroke="#252323" stroke-width="1.5" stroke-linecap="round"/>
<path d="M7.89558 8.10445C8.09273 7.29565 9.24288 7.29565 9.44004 8.10445V8.10445C9.56737 8.62682 10.1658 8.87469 10.6252 8.59536V8.59536C11.3365 8.16286 12.1498 8.97614 11.7173 9.68746V9.68746C11.438 10.1469 11.6858 10.7453 12.2082 10.8726V10.8726C13.017 11.0698 13.017 12.2199 12.2082 12.4171V12.4171C11.6858 12.5444 11.438 13.1428 11.7173 13.6023V13.6023C12.1498 14.3136 11.3365 15.1268 10.6252 14.6944V14.6944C10.1658 14.415 9.56737 14.6629 9.44004 15.1853V15.1853C9.24288 15.9941 8.09273 15.9941 7.89558 15.1853V15.1853C7.76824 14.6629 7.16982 14.415 6.71041 14.6944V14.6944C5.99909 15.1268 5.18581 14.3136 5.61831 13.6023V13.6023C5.89764 13.1428 5.64977 12.5444 5.1274 12.4171V12.4171C4.3186 12.2199 4.3186 11.0698 5.1274 10.8726V10.8726C5.64977 10.7453 5.89764 10.1469 5.61831 9.68746V9.68746C5.18581 8.97614 5.99909 8.16286 6.71041 8.59536V8.59536C7.16982 8.87469 7.76824 8.62682 7.89558 8.10445V8.10445Z" stroke="#252323" stroke-width="1.5" stroke-linejoin="round"/>
<path d="M9.95806 11.645C9.95806 10.9326 9.38048 10.355 8.66799 10.355C7.95551 10.355 7.37793 10.9326 7.37793 11.645C7.37793 12.3575 7.95551 12.9351 8.66799 12.9351" stroke="#252323" stroke-width="1.5" stroke-linecap="round"/>
<path d="M12.714 16.1786C12.854 15.248 14.1489 15.1314 14.4529 16.022V16.022C14.6492 16.5972 15.3481 16.8156 15.837 16.4545V16.4545C16.594 15.8955 17.5922 16.7286 17.1774 17.5734V17.5734C16.9094 18.1189 17.2492 18.7675 17.8502 18.8579V18.8579C18.7808 18.9979 18.8975 20.2928 18.0069 20.5968V20.5968C17.4316 20.7931 17.2132 21.492 17.5743 21.9809V21.9809C18.1334 22.7379 17.3002 23.7361 16.4555 23.3213V23.3213C15.9099 23.0533 15.2613 23.3931 15.1709 23.9941V23.9941C15.031 24.9247 13.736 25.0414 13.4321 24.1508V24.1508C13.2357 23.5755 12.5368 23.3571 12.0479 23.7182V23.7182C11.2909 24.2773 10.2928 23.4441 10.7076 22.5994V22.5994C10.9755 22.0538 10.6358 21.4052 10.0347 21.3148V21.3148C9.10412 21.1749 8.98749 19.8799 9.87811 19.576V19.576C10.4533 19.3796 10.6717 18.6807 10.3106 18.1918V18.1918C9.75157 17.4348 10.5847 16.4367 11.4295 16.8515V16.8515C11.975 17.1194 12.6236 16.7797 12.714 16.1786V16.1786Z" stroke="#252323" stroke-width="1.5"/>
<path d="M18.5465 5.22848C18.8911 4.24664 20.3194 4.37852 20.4784 5.40685L20.5052 5.58007C20.6073 6.241 21.3169 6.61731 21.9214 6.3311L22.0717 6.25992C23.0184 5.81166 23.9099 6.96193 23.2756 7.79545V7.79545C22.8612 8.33987 23.105 9.14183 23.7533 9.36027V9.36027C24.7522 9.69683 24.6169 11.1618 23.5733 11.3098V11.3098C22.8959 11.4059 22.5095 12.1496 22.8171 12.7607V12.7607C23.2881 13.6963 22.2011 14.6639 21.3525 14.0498L21.2177 13.9523C20.6759 13.5603 19.9094 13.8003 19.6879 14.4314L19.6299 14.5967C19.2853 15.5786 17.857 15.4467 17.698 14.4184L17.6712 14.2452C17.5691 13.5842 16.8595 13.2079 16.255 13.4941L16.1047 13.5653C15.158 14.0136 14.2665 12.8633 14.9008 12.0298V12.0298C15.3152 11.4854 15.0714 10.6834 14.4231 10.465V10.465C13.4242 10.1284 13.5595 8.66338 14.6031 8.51541V8.51541C15.2805 8.41937 15.6669 7.6756 15.3593 7.06452V7.06452C14.8883 6.12895 15.9754 5.16137 16.8239 5.77538L16.9587 5.87289C17.5005 6.26493 18.267 6.02491 18.4885 5.39387L18.5465 5.22848Z" stroke="#252323" stroke-width="1.5"/>
<path d="M20.7584 10.0664C20.6755 10.964 19.8606 11.6226 18.9383 11.5374C18.0159 11.4523 17.3354 10.6556 17.4183 9.75803C17.5012 8.86045 18.3161 8.20185 19.2384 8.28701" stroke="#252323" stroke-width="1.5" stroke-linecap="round"/>
<path d="M15.9595 3.8532C13.3345 2.68649 11.5845 4.14483 9.99078 6.12921M9.99078 6.12921L11.2929 6.12921M9.99078 6.12921L9.83455 4.72816" stroke="#252323" stroke-width="1.5" stroke-linecap="round" stroke-linejoin="round"/>
<path d="M19.5637 21.8085C22.2449 20.7773 22.4804 18.3118 22.1749 15.9785M22.1749 15.9785L21.2542 16.8992M22.1749 15.9785L23.2761 16.8587" stroke="#252323" stroke-width="1.5" stroke-linecap="round" stroke-linejoin="round"/>
<path d="M4.63465 15.937C4.77658 18.1377 5.73902 19.223 7.40996 19.7747M7.40996 19.7747L7.01421 18.2977M7.40996 19.7747L5.93296 20.1705" stroke="#252323" stroke-width="1.5" stroke-linecap="round" stroke-linejoin="round"/>
</g>
<defs>
<clipPath id="clip0_1244_16618">
<rect width="28" height="28" fill="white"/>
</clipPath>
</defs>
</svg>
