<svg width="44" height="44" viewBox="0 0 44 44" fill="none" xmlns="http://www.w3.org/2000/svg">
<g clip-path="url(#clip0_1244_16434)">
<path fill-rule="evenodd" clip-rule="evenodd" d="M14.9545 10.5005C14.9968 10.8801 15.3178 11.1673 15.6999 11.1673H17.746C18.1602 11.1673 18.496 10.8315 18.496 10.4173C18.496 10.0031 18.1602 9.66734 17.746 9.66734H17.3267C18.2214 8.69529 19.131 7.92026 20.1086 7.44729C21.4166 6.81445 22.9041 6.69469 24.7748 7.5261C25.1533 7.69434 25.5965 7.52387 25.7647 7.14536C25.933 6.76685 25.7625 6.32363 25.384 6.15539C23.1296 5.15342 21.1796 5.2628 19.4553 6.09702C18.2668 6.672 17.2163 7.57698 16.2538 8.61772L16.1997 8.13258C16.1538 7.72091 15.7829 7.42441 15.3712 7.47031C14.9596 7.51622 14.6631 7.88715 14.709 8.29881L14.9545 10.5005ZM32.168 8.98165C31.7908 6.54134 28.3995 6.22822 27.5818 8.5582C27.389 9.10765 26.7218 9.3162 26.2514 8.97584L26.1335 8.89058C24.149 7.45466 21.5849 9.65444 22.682 11.8338C22.938 12.3423 22.619 12.9514 22.0569 13.0312C19.6243 13.3761 19.3115 16.7635 21.6398 17.548C22.1779 17.7293 22.3799 18.3866 22.0351 18.8396C20.5575 20.7812 22.6755 23.4133 24.8894 22.365L25.0208 22.3028C25.5456 22.0543 26.1634 22.3815 26.2524 22.957C26.6296 25.3973 30.0209 25.7104 30.8385 23.3804C31.0314 22.831 31.6986 22.6224 32.169 22.9628L32.2868 23.0481C34.2714 24.484 36.8355 22.2842 35.7384 20.1048C35.4824 19.5964 35.8014 18.9872 36.3635 18.9075C38.7961 18.5626 39.1089 15.1751 36.7805 14.3906C36.2425 14.2093 36.0405 13.5521 36.3852 13.099C37.8629 11.1574 35.7449 8.52533 33.531 9.5736L33.3995 9.63584C32.8748 9.88432 32.257 9.55712 32.168 8.98165ZM28.9972 9.0549C29.298 8.19768 30.5468 8.31299 30.6856 9.2108C30.9276 10.776 32.6085 11.6701 34.0415 10.9915L34.1729 10.9293C34.9581 10.5575 35.7235 11.4917 35.1916 12.1906C34.2263 13.4591 34.7896 15.3027 36.3016 15.8121C37.1316 16.0918 37.0201 17.2994 36.1529 17.4223C34.5732 17.6463 33.6818 19.3556 34.3986 20.7793C34.7935 21.5639 33.87 22.3421 33.1662 21.8328L33.0483 21.7476C31.7638 20.8181 29.9476 21.3893 29.4232 22.8837C29.1223 23.741 27.8735 23.6257 27.7347 22.7278C27.4928 21.1626 25.8119 20.2686 24.3789 20.9471L24.2475 21.0093C23.4623 21.3811 22.6969 20.447 23.2288 19.748C24.1941 18.4796 23.6308 16.636 22.1188 16.1265C21.2887 15.8469 21.4002 14.6393 22.2675 14.5163C23.8472 14.2923 24.7385 12.5831 24.0218 11.1593C23.6268 10.3748 24.5504 9.59654 25.2542 10.1058L25.3721 10.1911C26.6565 11.1205 28.4727 10.5493 28.9972 9.0549ZM11.6788 12.558C12.1747 10.5239 15.0673 10.5239 15.5631 12.558C15.6431 12.886 16.0188 13.0416 16.3072 12.8662C18.0962 11.7785 20.1416 13.8239 19.0539 15.6129C18.8785 15.9013 19.0341 16.277 19.3621 16.357C21.3962 16.8528 21.3962 19.7455 19.3621 20.2413C19.0341 20.3213 18.8785 20.697 19.0539 20.9854C20.1416 22.7744 18.0962 24.8198 16.3072 23.732C16.0188 23.5567 15.6431 23.7123 15.5631 24.0403C15.0673 26.0744 12.1747 26.0744 11.6788 24.0403C11.5989 23.7123 11.2231 23.5567 10.9347 23.732C9.14573 24.8198 7.10034 22.7744 8.18807 20.9854C8.36345 20.697 8.20782 20.3213 7.87985 20.2413C5.84571 19.7455 5.84571 16.8528 7.87985 16.357C8.20782 16.277 8.36345 15.9013 8.18807 15.6129C7.10034 13.8239 9.14573 11.7785 10.9347 12.8662C11.2231 13.0416 11.5989 12.886 11.6788 12.558ZM14.1058 12.9133C13.982 12.4055 13.2599 12.4055 13.1361 12.9133C12.8159 14.227 11.3108 14.8504 10.1554 14.1479C9.70882 13.8764 9.19821 14.387 9.46975 14.8336C10.1723 15.989 9.54887 17.494 8.2351 17.8143C7.7273 17.9381 7.7273 18.6602 8.2351 18.784C9.54887 19.1042 10.1723 20.6093 9.46975 21.7647C9.19821 22.2113 9.70882 22.7219 10.1554 22.4504C11.3108 21.7478 12.8159 22.3712 13.1361 23.685C13.2599 24.1928 13.982 24.1928 14.1058 23.685C14.4261 22.3712 15.9311 21.7478 17.0865 22.4504C17.5331 22.7219 18.0437 22.2113 17.7722 21.7647C17.0697 20.6093 17.6931 19.1042 19.0069 18.784C19.5147 18.6602 19.5147 17.9381 19.0069 17.8143C17.6931 17.494 17.0697 15.989 17.7722 14.8336C18.0437 14.387 17.5331 13.8764 17.0865 14.1479C15.9311 14.8504 14.4261 14.227 14.1058 12.9133ZM13.621 17.022C12.9156 17.022 12.3437 17.5938 12.3437 18.2992C12.3437 19.0046 12.9156 19.5765 13.621 19.5765C14.0352 19.5765 14.371 19.9123 14.371 20.3265C14.371 20.7407 14.0352 21.0765 13.621 21.0765C12.0871 21.0765 10.8437 19.8331 10.8437 18.2992C10.8437 16.7654 12.0871 15.522 13.621 15.522C15.1548 15.522 16.3982 16.7654 16.3982 18.2992C16.3982 18.7135 16.0624 19.0492 15.6482 19.0492C15.234 19.0492 14.8982 18.7135 14.8982 18.2992C14.8982 17.5938 14.3264 17.022 13.621 17.022ZM23.0288 24.149C22.2973 22.0061 19.1816 22.2867 18.8448 24.5259C18.7782 24.9687 18.3004 25.219 17.8984 25.0216C15.866 24.0235 13.8612 26.4251 15.2064 28.2466C15.4724 28.6067 15.3115 29.1216 14.8877 29.2663C12.7448 29.9977 13.0254 33.1135 15.2646 33.4502C15.7074 33.5168 15.9577 33.9947 15.7603 34.3966C14.7622 36.4291 17.1638 38.4338 18.9853 37.0887C19.3455 36.8226 19.8604 36.9835 20.005 37.4073C20.7364 39.5503 23.8522 39.2696 24.189 37.0305C24.2556 36.5877 24.7334 36.3374 25.1353 36.5347C27.1678 37.5328 29.1726 35.1312 27.8274 33.3098C27.5614 32.9496 27.7223 32.4347 28.146 32.2901C30.289 31.5586 30.0084 28.4429 27.7692 28.1061C27.3264 28.0395 27.0761 27.5617 27.2735 27.1597C28.2716 25.1272 25.87 23.1225 24.0485 24.4677C23.6883 24.7337 23.1734 24.5728 23.0288 24.149ZM20.3281 24.7489C20.4313 24.0633 21.3852 23.9774 21.6092 24.6336C22.0816 26.0176 23.7632 26.5431 24.9396 25.6743C25.4973 25.2624 26.2327 25.8762 25.9271 26.4985C25.2824 27.8113 26.0999 29.3719 27.5461 29.5894C28.2317 29.6925 28.3176 30.6465 27.6615 30.8705C26.2775 31.3429 25.752 33.0245 26.6208 34.2009C27.0326 34.7586 26.4188 35.4939 25.7965 35.1883C24.4838 34.5437 22.9231 35.3612 22.7056 36.8074C22.6025 37.493 21.6485 37.5789 21.4246 36.9228C20.9522 35.5387 19.2706 35.0132 18.0942 35.882C17.5365 36.2939 16.8011 35.6801 17.1067 35.0578C17.7514 33.7451 16.9338 32.1844 15.4877 31.9669C14.8021 31.8638 14.7162 30.9098 15.3723 30.6859C16.7563 30.2135 17.2818 28.5318 16.413 27.3554C16.0011 26.7977 16.615 26.0624 17.2373 26.368C18.55 27.0126 20.1106 26.1951 20.3281 24.7489ZM20.5643 28.5633C20.5272 28.1508 20.8315 27.7862 21.244 27.7491C22.9171 27.5984 24.3956 28.8325 24.5463 30.5056C24.697 32.1787 23.4628 33.6572 21.7897 33.8079C20.1166 33.9586 18.6382 32.7244 18.4875 31.0513C18.4503 30.6388 18.7546 30.2742 19.1672 30.2371C19.5797 30.1999 19.9443 30.5042 19.9814 30.9168C20.0578 31.7648 20.8072 32.3903 21.6552 32.3139C22.5032 32.2375 23.1287 31.4882 23.0523 30.6402C22.976 29.7922 22.2266 29.1666 21.3786 29.243C20.966 29.2802 20.6015 28.9759 20.5643 28.5633ZM29.3771 14.162C28.3208 14.0645 27.4231 14.8167 27.3327 15.7957C27.2423 16.7747 27.9871 17.6787 29.0434 17.7762C30.0996 17.8737 30.9973 17.1215 31.0877 16.1425C31.1258 15.73 31.491 15.4265 31.9035 15.4646C32.316 15.5027 32.6195 15.8679 32.5814 16.2804C32.4113 18.1223 30.748 19.44 28.9054 19.2698C27.0629 19.0997 25.669 17.4998 25.839 15.6578C26.0091 13.8159 27.6724 12.4982 29.515 12.6684C29.9274 12.7064 30.2309 13.0717 30.1928 13.4841C30.1548 13.8966 29.7895 14.2001 29.3771 14.162ZM33.9231 24.1855C34.1932 23.9153 34.6233 23.8914 34.9217 24.13L36.6521 25.5132C36.9757 25.7718 37.0283 26.2437 36.7696 26.5673C36.511 26.8908 36.0391 26.9435 35.7155 26.6848L35.3536 26.3956C35.4061 27.7262 35.2953 29.0714 34.8712 30.3073C34.2415 32.142 32.9374 33.6856 30.6194 34.5772C30.2328 34.7258 29.7988 34.533 29.6501 34.1464C29.5014 33.7598 29.6943 33.3258 30.0809 33.1771C31.9761 32.4482 32.9636 31.2446 33.4524 29.8204C33.8075 28.7855 33.9064 27.6103 33.8515 26.3784L33.5369 26.693C33.244 26.9859 32.7691 26.9859 32.4762 26.693C32.1833 26.4001 32.1833 25.9252 32.4762 25.6323L33.9231 24.1855ZM11.8386 31.0129C12.2387 30.9056 12.4761 30.4944 12.3689 30.0943L11.747 27.7733C11.6398 27.3732 11.2286 27.1358 10.8285 27.243C10.4284 27.3502 10.1909 27.7614 10.2981 28.1615L10.5159 28.9743C9.96624 28.652 9.51781 28.2623 9.16017 27.7912C8.54024 26.9747 8.13683 25.8395 8.0317 24.2094C8.00504 23.796 7.64834 23.4825 7.23498 23.5092C6.82163 23.5359 6.50815 23.8926 6.53481 24.3059C6.65271 26.134 7.11701 27.5807 7.96548 28.6983C8.39033 29.2579 8.89746 29.7164 9.47466 30.0934L9.12933 30.1859C8.72924 30.2931 8.49181 30.7044 8.59902 31.1045C8.70623 31.5046 9.11749 31.742 9.51759 31.6348L11.8386 31.0129Z" fill="#332A2A"/>
</g>
<defs>
<clipPath id="clip0_1244_16434">
<rect width="44" height="44" fill="white"/>
</clipPath>
</defs>
</svg>
