<svg width="28" height="28" viewBox="0 0 28 28" fill="none" xmlns="http://www.w3.org/2000/svg">
<g clip-path="url(#clip0_1145_13003)">
<path d="M18.8096 9.54541H9.60095C9.11039 9.54541 8.69226 9.90126 8.61382 10.3855L6.61101 22.7499C6.45833 23.666 7.16479 24.5 8.09353 24.5H19.6387C19.7985 24.5 19.9559 24.4617 20.0978 24.3884L20.4373 24.2129C21.2075 23.8149 21.6336 22.9661 21.4925 22.1108L20.7082 17.3541L19.8012 10.4158C19.7361 9.91784 19.3118 9.54541 18.8096 9.54541Z" fill="#E05149"/>
<path fill-rule="evenodd" clip-rule="evenodd" d="M11.2881 8.89035C11.3556 8.156 11.5219 7.16869 11.8578 6.28104C12.3427 4.99935 13.0391 4.25 14 4.25C14.9625 4.25 15.7316 5.06993 16.2984 6.41604C16.6632 7.28262 16.8727 8.21118 16.9714 8.875H14.2188C13.8046 8.875 13.4688 9.21079 13.4688 9.625C13.4688 10.0392 13.8046 10.375 14.2188 10.375H17.7869C17.7885 10.375 17.7901 10.375 17.7917 10.375C17.7933 10.375 17.7948 10.375 17.7964 10.375H18.8154C18.9403 10.375 19.0461 10.4672 19.0631 10.591L19.9653 17.1645C20.0217 17.5749 20.4 17.8619 20.8103 17.8055C21.2207 17.7492 21.5077 17.3709 21.4514 16.9605L20.5492 10.387C20.4302 9.52062 19.69 8.875 18.8154 8.875H18.4852C18.3825 8.06168 18.1327 6.90729 17.6808 5.83396C17.0809 4.40923 15.9542 2.75 14 2.75C12.0443 2.75 10.9907 4.33398 10.4548 5.75021C10.0439 6.83624 9.85397 8.01661 9.7839 8.875H9.59716C8.74169 8.875 8.01161 9.49347 7.87097 10.3373L7.39044 13.2205C7.32235 13.629 7.59836 14.0154 8.00694 14.0835C8.41552 14.1516 8.80194 13.8756 8.87003 13.467L9.35056 10.5839C9.37065 10.4634 9.47495 10.375 9.59716 10.375H10.4953C10.4969 10.375 10.4984 10.375 10.5 10.375C10.5016 10.375 10.5032 10.375 10.5048 10.375H11.1364C11.5506 10.375 11.8864 10.0392 11.8864 9.625C11.8864 9.26275 11.6296 8.96049 11.2881 8.89035ZM8.25024 17.1858C8.31834 16.7772 8.04232 16.3908 7.63375 16.3227C7.22517 16.2546 6.83875 16.5306 6.77065 16.9392L5.9192 22.0479C5.63983 23.7241 6.93245 25.25 8.63178 25.25H16.8637H19.4359C21.1034 25.25 22.3871 23.778 22.1604 22.1261L21.9618 20.6793C21.9055 20.2689 21.5272 19.9819 21.1168 20.0382C20.7064 20.0945 20.4194 20.4729 20.4757 20.8832L20.6743 22.33C20.7774 23.0809 20.1939 23.75 19.4359 23.75H16.8637H8.63178C7.85936 23.75 7.27181 23.0564 7.39879 22.2945L8.25024 17.1858Z" fill="#332A2A"/>
</g>
<defs>
<clipPath id="clip0_1145_13003">
<rect width="28" height="28" fill="white"/>
</clipPath>
</defs>
</svg>
