<svg width="23" height="23" viewBox="0 0 23 23" fill="none" xmlns="http://www.w3.org/2000/svg">
<g clip-path="url(#clip0_1145_13004)">
<path d="M15.2941 7.84106H8.0385C7.54794 7.84106 7.12981 8.19691 7.05137 8.68117L5.43051 18.6876C5.30509 19.4401 5.88539 20.1252 6.64829 20.1252H16.0884C16.2482 20.1252 16.407 20.0862 16.5489 20.0128C17.3191 19.6149 17.7534 18.7618 17.6124 17.9064L17.0104 14.2553L16.2856 8.71144C16.2205 8.2135 15.7962 7.84106 15.2941 7.84106Z" fill="#E05149"/>
<path fill-rule="evenodd" clip-rule="evenodd" d="M14.5388 8.50586H11.6039C11.2313 8.50568 10.9291 8.20374 10.9291 7.83105C10.9291 7.45837 11.2313 7.15643 11.6039 7.15625H13.7967C13.7128 6.62147 13.5442 5.89626 13.2585 5.21777C12.7943 4.11517 12.1762 3.47462 11.4245 3.47461C10.6743 3.47461 10.1158 4.05794 9.71947 5.10547C9.45349 5.80863 9.31798 6.58966 9.26012 7.18271C9.54157 7.26402 9.74747 7.52344 9.74747 7.83105C9.74747 8.20373 9.44529 8.50566 9.07266 8.50586H8.54955H7.95938C7.80063 8.50586 7.66533 8.62081 7.63907 8.77734L7.26895 10.9971C7.20752 11.3646 6.85922 11.613 6.49161 11.5518C6.12406 11.4903 5.87565 11.142 5.93692 10.7744L6.30704 8.55566C6.4388 7.7652 7.1111 7.18153 7.90729 7.15705C7.96867 6.45227 8.1263 5.50293 8.45775 4.62695C8.89999 3.45845 9.77921 2.125 11.4245 2.125C13.0687 2.12501 14.0086 3.52094 14.5027 4.69434C14.8665 5.55843 15.072 6.48604 15.161 7.15625H15.224C16.0611 7.15625 16.7704 7.77423 16.8842 8.60352L17.6039 13.8486C17.6546 14.218 17.3961 14.5587 17.0268 14.6094C16.6574 14.6601 16.3167 14.4016 16.266 14.0322L15.5463 8.78711C15.5242 8.6262 15.3864 8.50586 15.224 8.50586H14.5388ZM6.75918 14.0518C6.82047 13.684 6.57222 13.3357 6.2045 13.2744C5.83702 13.2133 5.48957 13.4617 5.42813 13.8291L4.79825 17.6104C4.52667 19.2408 5.78402 20.7246 7.43692 20.7246H15.4799C17.1017 20.7246 18.3505 19.2932 18.1303 17.6865L18.0229 16.9033C17.9722 16.534 17.6314 16.2755 17.2621 16.3262C16.8929 16.377 16.6353 16.7177 16.6859 17.0869L16.7934 17.8701C16.9023 18.6658 16.2831 19.375 15.4799 19.375H7.43692C6.61818 19.375 5.99476 18.6396 6.1293 17.832L6.75918 14.0518Z" fill="#332A2A"/>
</g>
<defs>
<clipPath id="clip0_1145_13004">
<rect width="23" height="23" fill="white"/>
</clipPath>
</defs>
</svg>
