<svg width="18" height="18" viewBox="0 0 18 18" fill="none" xmlns="http://www.w3.org/2000/svg">
<g clip-path="url(#clip0_1145_12994)">
<path fill-rule="evenodd" clip-rule="evenodd" d="M7.41622 5.5625C7.46695 5.12421 7.57027 4.58069 7.75655 4.08837C8.06346 3.27724 8.47711 2.875 9.00011 2.875C9.52439 2.875 9.98475 3.32217 10.346 4.18004C10.5471 4.65776 10.6728 5.16554 10.7424 5.5625H7.41622ZM6.74672 6.8125C6.74785 6.81251 6.74898 6.81251 6.75011 6.81251C6.75125 6.81251 6.75238 6.81251 6.75352 6.8125H7.15922H11.4341C11.4353 6.81251 11.4364 6.81251 11.4376 6.81251C11.4388 6.81251 11.4399 6.81251 11.4411 6.8125H11.7842C11.9716 6.8125 12.1303 6.95085 12.1558 7.13651L12.6934 11.0537C12.7404 11.3957 13.0556 11.6349 13.3976 11.5879C13.7396 11.541 13.9787 11.2257 13.9318 10.8838L13.3942 6.96653C13.2941 6.23793 12.7209 5.67748 12.0105 5.57819C11.9352 5.0514 11.7739 4.35019 11.498 3.69497C11.1092 2.77158 10.3508 1.625 9.00011 1.625C7.64811 1.625 6.93677 2.72276 6.58744 3.64601C6.33341 4.31738 6.20828 5.04127 6.15621 5.59335C5.50388 5.7223 4.98222 6.24318 4.86935 6.92035L4.61018 8.47538C4.55344 8.81586 4.78345 9.13787 5.12393 9.19462C5.46441 9.25137 5.78643 9.02136 5.84318 8.68087L6.10235 7.12585C6.13248 6.94503 6.28893 6.8125 6.47224 6.8125H6.74672ZM5.44474 11.0715C5.50149 10.731 5.27147 10.409 4.93099 10.3523C4.59051 10.2955 4.26849 10.5255 4.21175 10.866L3.60894 14.4829C3.44386 15.4733 4.20768 16.375 5.21183 16.375H10.841H12.8222C13.8075 16.375 14.5661 15.5052 14.4321 14.529L14.2599 13.2744C14.213 12.9324 13.8977 12.6932 13.5558 12.7402C13.2138 12.7871 12.9746 13.1024 13.0215 13.4444L13.1938 14.699C13.2247 14.9243 13.0496 15.125 12.8222 15.125H10.841H5.21183C4.9801 15.125 4.80383 14.9169 4.84193 14.6883L5.44474 11.0715Z" fill="#252323"/>
</g>
<defs>
<clipPath id="clip0_1145_12994">
<rect width="18" height="18" fill="white"/>
</clipPath>
</defs>
</svg>
