<svg width="23" height="23" viewBox="0 0 23 23" fill="none" xmlns="http://www.w3.org/2000/svg">
<g clip-path="url(#clip0_1145_13004)">
<path d="M15.2941 7.84106H8.0385C7.54794 7.84106 7.12981 8.19691 7.05137 8.68117L5.43051 18.6876C5.30509 19.4401 5.88539 20.1252 6.64829 20.1252H16.0884C16.2482 20.1252 16.407 20.0862 16.5489 20.0128C17.3191 19.6149 17.7534 18.7618 17.6124 17.9064L17.0104 14.2553L16.2856 8.71144C16.2205 8.2135 15.7962 7.84106 15.2941 7.84106Z" fill="#E05149"/>
<path fill-rule="evenodd" clip-rule="evenodd" d="M9.33568 7.25775C9.39359 6.6646 9.52918 5.88347 9.79527 5.18023C10.1916 4.1327 10.7496 3.54995 11.4999 3.54995C12.2515 3.54995 12.8692 4.1905 13.3335 5.29314C13.6191 5.97152 13.7878 6.69651 13.872 7.2312H11.6796C11.3068 7.2312 11.0046 7.53341 11.0046 7.9062C11.0046 8.27899 11.3068 8.5812 11.6796 8.5812H14.6105C14.6118 8.58121 14.6131 8.58121 14.6144 8.58121C14.6158 8.58121 14.6171 8.58121 14.6184 8.5812H15.2996C15.4621 8.5812 15.5995 8.7011 15.6216 8.86201L16.3416 14.1074C16.3923 14.4767 16.7328 14.735 17.1021 14.6843C17.4714 14.6336 17.7297 14.2931 17.679 13.9238L16.9591 8.67844C16.8453 7.84915 16.1367 7.2312 15.2996 7.2312H15.2359C15.147 6.56096 14.9415 5.63335 14.5777 4.76926C14.0836 3.59586 13.144 2.19995 11.4999 2.19995C9.8543 2.19995 8.9748 3.53387 8.53263 4.70248C8.20122 5.57836 8.04373 6.52736 7.9824 7.232C7.18622 7.25649 6.51404 7.84036 6.3823 8.63083L6.01245 10.8499C5.95116 11.2176 6.19958 11.5654 6.5673 11.6267C6.93502 11.688 7.2828 11.4396 7.34408 11.0719L7.71393 8.85277C7.74005 8.69606 7.87564 8.5812 8.03451 8.5812H8.62091C8.62223 8.58121 8.62355 8.58121 8.62487 8.58121C8.6262 8.58121 8.62753 8.58121 8.62885 8.5812H9.14763C9.52042 8.5812 9.82263 8.27899 9.82263 7.9062C9.82263 7.59867 9.61697 7.33918 9.33568 7.25775ZM6.83497 14.1265C6.89625 13.7588 6.64784 13.411 6.28012 13.3498C5.9124 13.2885 5.56462 13.5369 5.50334 13.9046L4.87324 17.6852C4.60149 19.3157 5.85886 20.8 7.51184 20.8H13.8522H15.5556C17.1775 20.8 18.4263 19.3681 18.2057 17.7612L18.0983 16.9785C18.0476 16.6091 17.7071 16.3508 17.3378 16.4015C16.9685 16.4522 16.7101 16.7927 16.7608 17.1621L16.8683 17.9448C16.9775 18.7407 16.359 19.45 15.5556 19.45H13.8522H7.51184C6.69307 19.45 6.07027 18.7148 6.20487 17.9071L6.83497 14.1265Z" fill="#252323"/>
</g>
<defs>
<clipPath id="clip0_1145_13004">
<rect width="23" height="23" fill="white"/>
</clipPath>
</defs>
</svg>
