<svg width="44" height="44" viewBox="0 0 44 44" fill="none" xmlns="http://www.w3.org/2000/svg">
<g clip-path="url(#clip0_1145_12963)">
<path d="M30.0598 15H14.6012C14.1106 15 13.6925 15.3558 13.614 15.8401L10.389 35.7499L10.3188 36.1712C10.1156 37.3903 11.0557 38.5 12.2916 38.5H31.0001C31.1598 38.5 31.3172 38.4617 31.4591 38.3884L32.8542 37.6675C33.6244 37.2695 34.0504 36.4207 33.9094 35.5653L32.5418 27.2708L31.0514 15.8704C30.9863 15.3724 30.562 15 30.0598 15Z" fill="#E05149"/>
<path fill-rule="evenodd" clip-rule="evenodd" d="M17.2768 14.375C17.355 13.1641 17.6177 11.3438 18.2327 9.71854C19.0093 7.66602 20.2057 6.25 21.9999 6.25C23.7957 6.25 25.1065 7.77827 26.0066 9.91604C26.6888 11.5364 27.0363 13.2904 27.1573 14.375H22.3437C21.9295 14.375 21.5937 14.7108 21.5937 15.125C21.5937 15.5392 21.9295 15.875 22.3437 15.875H27.9523C27.9543 15.875 27.9563 15.875 27.9582 15.875C27.9602 15.875 27.9622 15.875 27.9642 15.875H30.0653C30.1903 15.875 30.296 15.9672 30.313 16.091L31.7986 26.9145C31.8549 27.3249 32.2332 27.6119 32.6436 27.5555C33.054 27.4992 33.341 27.1209 33.2846 26.7105L31.7991 15.887C31.6802 15.0206 30.9399 14.375 30.0653 14.375H28.6652C28.5442 13.1418 28.1583 11.1611 27.389 9.33396C26.4558 7.11757 24.7874 4.75 21.9999 4.75C19.2109 4.75 17.6573 7.00065 16.8297 9.18771C16.1353 11.0231 15.8522 13.0444 15.774 14.375H14.5971C13.7416 14.375 13.0115 14.9935 12.8709 15.8373L12.0362 20.8455L11.5492 23.7673C11.4811 24.1759 11.7571 24.5623 12.1657 24.6304C12.5743 24.6985 12.9607 24.4225 13.0288 24.0139L13.5158 21.092L14.3505 16.0839C14.3706 15.9634 14.4749 15.875 14.5971 15.875H16.494C16.496 15.875 16.498 15.875 16.4999 15.875C16.5019 15.875 16.5039 15.875 16.5059 15.875H17.5C17.9142 15.875 18.25 15.5392 18.25 15.125C18.25 14.7108 17.9142 14.375 17.5 14.375H17.2768ZM12.5418 26.9358C12.6099 26.5272 12.3339 26.1408 11.9253 26.0727C11.5168 26.0046 11.1303 26.2806 11.0622 26.6892L9.50245 36.0479C9.22308 37.7241 10.5157 39.25 12.215 39.25H20.5104C20.9246 39.25 21.2604 38.9142 21.2604 38.5C21.2604 38.0858 20.9246 37.75 20.5104 37.75H12.215C11.4426 37.75 10.8551 37.0564 10.982 36.2945L12.5418 26.9358ZM34.0867 32.5543C34.0304 32.1439 33.6521 31.8569 33.2417 31.9132C32.8313 31.9695 32.5443 32.3479 32.6007 32.7582L33.0909 36.33C33.194 37.0809 32.6104 37.75 31.8525 37.75H26.5C26.0858 37.75 25.75 38.0858 25.75 38.5C25.75 38.9142 26.0858 39.25 26.5 39.25H31.8525C33.5199 39.25 34.8037 37.778 34.577 36.1261L34.0867 32.5543Z" fill="#252323"/>
</g>
<defs>
<clipPath id="clip0_1145_12963">
<rect width="44" height="44" fill="white"/>
</clipPath>
</defs>
</svg>
