<svg width="18" height="18" viewBox="0 0 18 18" fill="none" xmlns="http://www.w3.org/2000/svg">
<g clip-path="url(#clip0_1145_12994)">
<path fill-rule="evenodd" clip-rule="evenodd" d="M11.3128 6.6875H6.62528H6.34696C6.16384 6.68772 6.00793 6.8203 5.97782 7.00098L5.71805 8.55566C5.66132 8.89609 5.33973 9.12599 4.9993 9.06934C4.65888 9.0126 4.42898 8.69101 4.48563 8.35059L4.74442 6.79492C4.85742 6.11796 5.37911 5.59729 6.03133 5.46835C6.08332 4.9164 6.2083 4.19271 6.46219 3.52148C6.81153 2.59824 7.52328 1.5 8.87528 1.5C10.226 1.50001 10.9845 2.64693 11.3733 3.57031C11.6491 4.22544 11.8104 4.9265 11.8856 5.4532C12.596 5.55255 13.1688 6.1132 13.2688 6.8418L13.8069 10.7588C13.8538 11.1008 13.6147 11.416 13.2727 11.4629C12.9308 11.5098 12.6156 11.2707 12.5686 10.9287L12.0306 7.01172C12.0051 6.82607 11.8468 6.68752 11.6595 6.6875H11.3128ZM10.6175 5.4375C10.5479 5.04042 10.4222 4.53246 10.221 4.05469C9.8598 3.19705 9.39949 2.75001 8.87528 2.75C8.35241 2.75 7.93901 3.15213 7.63212 3.96289C7.44581 4.45527 7.34233 4.99905 7.29149 5.4375H10.6175ZM5.31962 10.9463C5.37627 10.6059 5.14637 10.2843 4.80594 10.2275C4.46552 10.1709 4.14393 10.4008 4.08719 10.7412L3.48368 14.3574C3.3186 15.3479 4.08304 16.25 5.08719 16.25H12.6975C13.6827 16.2499 14.4408 15.3803 14.3069 14.4043L14.135 13.1494C14.0881 12.8074 13.7729 12.5683 13.4309 12.6152C13.089 12.6622 12.8498 12.9774 12.8968 13.3193L13.0686 14.5742C13.0994 14.7994 12.9248 14.9999 12.6975 15H5.08719C4.85551 15 4.67907 14.792 4.71708 14.5635L5.31962 10.9463Z" fill="#332A2A"/>
</g>
<defs>
<clipPath id="clip0_1145_12994">
<rect width="18" height="18" fill="white"/>
</clipPath>
</defs>
</svg>
