<svg width="18" height="18" viewBox="0 0 18 18" fill="none" xmlns="http://www.w3.org/2000/svg">
<g clip-path="url(#clip0_661_6599)">
<path d="M6.875 2.125C9.49835 2.125 11.625 4.25165 11.625 6.875V7.53125C11.625 7.87643 11.3452 8.15625 11 8.15625C10.6548 8.15625 10.375 7.87643 10.375 7.53125V6.875C10.375 4.942 8.808 3.375 6.875 3.375C4.942 3.375 3.375 4.942 3.375 6.875V14.875H10C10.2071 14.875 10.375 14.7071 10.375 14.5V12.3125C10.375 11.9673 10.6548 11.6875 11 11.6875C11.3452 11.6875 11.625 11.9673 11.625 12.3125V14.5C11.625 15.3975 10.8975 16.125 10 16.125H3.16113C2.58893 16.1249 2.12508 15.6611 2.125 15.0889V6.875C2.125 4.25165 4.25165 2.125 6.875 2.125ZM13.3691 6.60938C13.7142 6.60946 13.9941 6.88925 13.9941 7.23438V7.4375L16.124 9.56738C16.3678 9.81135 16.3677 10.2071 16.124 10.4512L13.9941 12.5811V12.7842C13.9941 13.1293 13.7142 13.4091 13.3691 13.4092C13.024 13.4092 12.7441 13.1294 12.7441 12.7842V12.3223C12.7441 12.1565 12.8096 11.9971 12.9268 11.8799L13.3691 12.3223H13.3701L12.9268 11.8799L14.7979 10.0088L12.9268 8.13867L12.8496 8.04395C12.7815 7.94203 12.7442 7.82163 12.7441 7.69727V7.23438C12.7441 6.8892 13.024 6.60938 13.3691 6.60938ZM13.2529 9.38477C13.5981 9.38477 13.8779 9.66459 13.8779 10.0098C13.8778 10.3548 13.598 10.6348 13.2529 10.6348H7.70312C7.35804 10.6348 7.07827 10.3548 7.07812 10.0098C7.07812 9.66459 7.35795 9.38477 7.70312 9.38477H13.2529Z" fill="#332A2A"/>
</g>
<defs>
<clipPath id="clip0_661_6599">
<rect width="18" height="18" fill="white"/>
</clipPath>
</defs>
</svg>
