<svg width="28" height="28" viewBox="0 0 28 28" fill="none" xmlns="http://www.w3.org/2000/svg">
<g clip-path="url(#clip0_661_6573)">
<path fill-rule="evenodd" clip-rule="evenodd" d="M10.4999 3.33337C6.54188 3.33337 3.33325 6.54201 3.33325 10.5V23.2769C3.33325 24.0445 3.95548 24.6667 4.72304 24.6667H15.9166C16.8831 24.6667 17.6666 23.8832 17.6666 22.9167V18.9584C17.6666 18.5442 17.3308 18.2084 16.9166 18.2084C16.5024 18.2084 16.1666 18.5442 16.1666 18.9584V22.9167C16.1666 23.0548 16.0547 23.1667 15.9166 23.1667H4.83325V10.5C4.83325 7.37043 7.37031 4.83337 10.4999 4.83337C13.6295 4.83337 16.1666 7.37043 16.1666 10.5V11.5209C16.1666 11.9351 16.5024 12.2709 16.9166 12.2709C17.3308 12.2709 17.6666 11.9351 17.6666 11.5209V10.5C17.6666 6.542 14.458 3.33337 10.4999 3.33337ZM20.4072 10.1146C20.8214 10.1146 21.1572 10.4504 21.1572 10.8646V11.2734L24.5349 14.6511C24.8278 14.944 24.8278 15.4189 24.5349 15.7118L21.1572 19.0895V19.4983C21.1572 19.9125 20.8214 20.2483 20.4072 20.2483C19.993 20.2483 19.6572 19.9125 19.6572 19.4983V18.7788C19.6572 18.5799 19.7362 18.3892 19.8769 18.2485L22.9439 15.1815L19.8769 12.1144C19.7362 11.9738 19.6572 11.783 19.6572 11.5841V10.8646C19.6572 10.4504 19.993 10.1146 20.4072 10.1146ZM10.8437 15.1815C10.8437 14.7673 11.1795 14.4315 11.5937 14.4315H20.2274C20.6416 14.4315 20.9774 14.7673 20.9774 15.1815C20.9774 15.5957 20.6416 15.9315 20.2274 15.9315H11.5937C11.1795 15.9315 10.8437 15.5957 10.8437 15.1815Z" fill="#252323"/>
</g>
<defs>
<clipPath id="clip0_661_6573">
<rect width="28" height="28" fill="white"/>
</clipPath>
</defs>
</svg>
