<svg width="44" height="44" viewBox="0 0 44 44" fill="none" xmlns="http://www.w3.org/2000/svg">
<g clip-path="url(#clip0_661_6566)">
<path d="M8.36466 37.5833H24.5834C25.688 37.5833 26.5834 36.6879 26.5834 35.5833V29.7916V18.1041V16.5C26.5834 10.9311 22.069 6.41663 16.5001 6.41663C10.9312 6.41663 6.41675 10.9311 6.41675 16.5V35.6354C6.41675 36.7112 7.28886 37.5833 8.36466 37.5833Z" fill="#E05149"/>
<path fill-rule="evenodd" clip-rule="evenodd" d="M16.5001 5.66663C10.517 5.66663 5.66675 10.5169 5.66675 16.5V36.5833C5.66675 37.5498 6.45025 38.3333 7.41675 38.3333H25.5834C26.5499 38.3333 27.3334 37.5498 27.3334 36.5833V29.7916C27.3334 29.3774 26.9976 29.0416 26.5834 29.0416C26.1692 29.0416 25.8334 29.3774 25.8334 29.7916V36.5833C25.8334 36.7214 25.7215 36.8333 25.5834 36.8333H7.41675C7.27868 36.8333 7.16675 36.7214 7.16675 36.5833V16.5C7.16675 11.3453 11.3454 7.16663 16.5001 7.16663C21.6547 7.16663 25.8334 11.3453 25.8334 16.5V18.1041C25.8334 18.5183 26.1692 18.8541 26.5834 18.8541C26.9976 18.8541 27.3334 18.5183 27.3334 18.1041V16.5C27.3334 10.5169 22.4832 5.66663 16.5001 5.66663ZM32.0687 16.3229C32.4829 16.3229 32.8187 16.6587 32.8187 17.0729V17.8928L38.252 23.3262C38.5449 23.619 38.5449 24.0939 38.252 24.3868L32.8187 29.8202V30.6401C32.8187 31.0543 32.4829 31.3901 32.0687 31.3901C31.6545 31.3901 31.3187 31.0543 31.3187 30.6401V29.5095C31.3187 29.3106 31.3977 29.1198 31.5384 28.9792L36.661 23.8565L31.5384 18.7338C31.3977 18.5932 31.3187 18.4024 31.3187 18.2035V17.0729C31.3187 16.6587 31.6545 16.3229 32.0687 16.3229ZM17.4688 23.8565C17.4688 23.4423 17.8046 23.1065 18.2188 23.1065H31.7861C32.2003 23.1065 32.5361 23.4423 32.5361 23.8565C32.5361 24.2707 32.2003 24.6065 31.7861 24.6065H18.2188C17.8046 24.6065 17.4688 24.2707 17.4688 23.8565Z" fill="#252323"/>
</g>
<defs>
<clipPath id="clip0_661_6566">
<rect width="44" height="44" fill="white"/>
</clipPath>
</defs>
</svg>
