<svg width="18" height="18" viewBox="0 0 18 18" fill="none" xmlns="http://www.w3.org/2000/svg">
<g clip-path="url(#clip0_661_6638)">
<path d="M3.42188 15.375H8.875C9.97957 15.375 10.875 14.4796 10.875 13.375V12.1875V7.40625V6.75C10.875 4.47183 9.02817 2.625 6.75 2.625C4.47183 2.625 2.625 4.47183 2.625 6.75V14.5781C2.625 15.0182 2.98177 15.375 3.42188 15.375Z" fill="#E05149"/>
<path fill-rule="evenodd" clip-rule="evenodd" d="M6.75 2C4.12665 2 2 4.12665 2 6.75V14.9637C2 15.536 2.46396 16 3.03629 16H9.875C10.7725 16 11.5 15.2725 11.5 14.375V12.1875C11.5 11.8423 11.2202 11.5625 10.875 11.5625C10.5298 11.5625 10.25 11.8423 10.25 12.1875V14.375C10.25 14.5821 10.0821 14.75 9.875 14.75H3.25V6.75C3.25 4.817 4.817 3.25 6.75 3.25C8.683 3.25 10.25 4.817 10.25 6.75V7.40625C10.25 7.75143 10.5298 8.03125 10.875 8.03125C11.2202 8.03125 11.5 7.75143 11.5 7.40625V6.75C11.5 4.12665 9.37335 2 6.75 2ZM13.119 6.35938C13.4642 6.35938 13.744 6.6392 13.744 6.98438V7.18801L15.8735 9.31755C16.1176 9.56162 16.1176 9.95735 15.8735 10.2014L13.744 12.331V12.5346C13.744 12.8798 13.4642 13.1596 13.119 13.1596C12.7738 13.1596 12.494 12.8798 12.494 12.5346V12.0721C12.494 11.9063 12.5598 11.7474 12.677 11.6301L14.5477 9.75949L12.677 7.88884C12.5598 7.77163 12.494 7.61265 12.494 7.44689V6.98438C12.494 6.6392 12.7738 6.35938 13.119 6.35938ZM6.82812 9.75949C6.82812 9.41431 7.10795 9.13449 7.45312 9.13449H13.0034C13.3485 9.13449 13.6284 9.41431 13.6284 9.75949C13.6284 10.1047 13.3485 10.3845 13.0034 10.3845H7.45312C7.10795 10.3845 6.82812 10.1047 6.82812 9.75949Z" fill="#252323"/>
</g>
<defs>
<clipPath id="clip0_661_6638">
<rect width="18" height="18" fill="white"/>
</clipPath>
</defs>
</svg>
