<svg width="44" height="44" viewBox="0 0 44 44" fill="none" xmlns="http://www.w3.org/2000/svg">
<g clip-path="url(#clip0_196_283)">
<path d="M8.36466 37.5833H24.5834C25.688 37.5833 26.5834 36.6879 26.5834 35.5833V29.7916V18.1041V16.5C26.5834 10.9311 22.069 6.41663 16.5001 6.41663C10.9312 6.41663 6.41675 10.9311 6.41675 16.5V35.6354C6.41675 36.7112 7.28886 37.5833 8.36466 37.5833Z" fill="#E05149"/>
<path d="M16.4998 5.66663C22.4827 5.66663 27.3336 10.5167 27.3337 16.4996V18.1041C27.3337 18.5182 26.9978 18.8539 26.5837 18.8541C26.1695 18.8541 25.8337 18.5183 25.8337 18.1041V16.4996C25.8336 11.3451 21.6543 7.16663 16.4998 7.16663C11.3454 7.1668 7.16692 11.3452 7.16675 16.4996V36.5836C7.16692 36.7215 7.27879 36.8336 7.41675 36.8336H25.5837C25.7216 36.8334 25.8336 36.7214 25.8337 36.5836V29.7916C25.8337 29.3774 26.1695 29.0416 26.5837 29.0416C26.9978 29.0418 27.3337 29.3775 27.3337 29.7916V36.5836C27.3336 37.5499 26.55 38.3334 25.5837 38.3336H7.41675C6.45036 38.3336 5.66692 37.55 5.66675 36.5836V16.4996C5.66692 10.5168 10.5169 5.6668 16.4998 5.66663ZM32.0691 16.3229C32.4831 16.3231 32.8191 16.6588 32.8191 17.0729V17.8922L38.2527 23.3258C38.5452 23.6185 38.545 24.0935 38.2527 24.3864L32.8191 29.8199V30.6403C32.819 31.0543 32.4831 31.39 32.0691 31.3903C31.6549 31.3903 31.3192 31.0544 31.3191 30.6403V29.5094C31.3191 29.3105 31.3982 29.1198 31.5388 28.9791L36.6609 23.8561L31.5388 18.734C31.3982 18.5934 31.3192 18.4026 31.3191 18.2037V17.0729C31.3191 16.6587 31.6549 16.3229 32.0691 16.3229ZM31.7859 23.1061C32.1999 23.1062 32.5357 23.4421 32.5359 23.8561C32.5359 24.2702 32.2 24.606 31.7859 24.6061H18.2185C17.8044 24.6059 17.4685 24.2702 17.4685 23.8561C17.4687 23.4422 17.8046 23.1063 18.2185 23.1061H31.7859Z" fill="#332A2A"/>
</g>
<defs>
<clipPath id="clip0_196_283">
<rect width="44" height="44" fill="white"/>
</clipPath>
</defs>
</svg>
