<svg width="23" height="23" viewBox="0 0 23 23" fill="none" xmlns="http://www.w3.org/2000/svg">
<g clip-path="url(#clip0_661_6625)">
<path d="M8.67456 2.72913C11.9582 2.72913 14.6207 5.3908 14.6208 8.67444V9.51331C14.6208 9.88599 14.3187 10.1879 13.946 10.1881C13.5733 10.1881 13.2703 9.8861 13.2703 9.51331V8.67444C13.2701 6.13638 11.2127 4.07874 8.67456 4.07874C6.13661 4.07891 4.07903 6.13649 4.07886 8.67444V19.0201H12.946C13.1253 19.02 13.2701 18.8752 13.2703 18.6959V15.6227C13.2703 15.2499 13.5733 14.9479 13.946 14.9479C14.3187 14.9481 14.6208 15.25 14.6208 15.6227V18.6959C14.6207 19.6207 13.8709 20.3706 12.946 20.3707H3.92944C3.26663 20.3706 2.7295 19.8333 2.72925 19.1705V8.67444C2.72943 5.39091 5.39103 2.7293 8.67456 2.72913ZM16.863 8.34924C17.2357 8.34935 17.5378 8.65132 17.5378 9.02405V9.33459L20.2957 12.0924C20.5591 12.356 20.559 12.7839 20.2957 13.0475L17.5378 15.8053V16.1158C17.5378 16.4886 17.2357 16.7905 16.863 16.7906C16.4902 16.7906 16.1882 16.4886 16.1882 16.1158V15.525C16.1882 15.346 16.2589 15.1741 16.3855 15.0475L18.863 12.5699L16.3855 10.0924C16.259 9.96583 16.1882 9.79385 16.1882 9.61487V9.02405C16.1882 8.65126 16.4902 8.34924 16.863 8.34924ZM16.7146 11.8951C17.0874 11.8951 17.3894 12.1972 17.3894 12.5699C17.3894 12.9427 17.0874 13.2448 16.7146 13.2448H9.6228C9.25016 13.2446 8.948 12.9426 8.948 12.5699C8.94804 12.1973 9.25019 11.8953 9.6228 11.8951H16.7146Z" fill="#332A2A"/>
</g>
<defs>
<clipPath id="clip0_661_6625">
<rect width="23" height="23" fill="white"/>
</clipPath>
</defs>
</svg>
