<svg width="23" height="23" viewBox="0 0 23 23" fill="none" xmlns="http://www.w3.org/2000/svg">
<g clip-path="url(#clip0_661_6586)">
<path fill-rule="evenodd" clip-rule="evenodd" d="M8.62503 2.6792C5.34124 2.6792 2.6792 5.34124 2.6792 8.62504V19.1203C2.6792 19.7834 3.2167 20.3209 3.87974 20.3209H12.8959C13.8209 20.3209 14.5709 19.5709 14.5709 18.6459V15.573C14.5709 15.2002 14.2687 14.898 13.8959 14.898C13.5231 14.898 13.2209 15.2002 13.2209 15.573V18.6459C13.2209 18.8254 13.0754 18.9709 12.8959 18.9709H4.0292V8.62504C4.0292 6.08683 6.08682 4.0292 8.62503 4.0292C11.1632 4.0292 13.2209 6.08682 13.2209 8.62503V9.46358C13.2209 9.83637 13.5231 10.1386 13.8959 10.1386C14.2687 10.1386 14.5709 9.83637 14.5709 9.46358V8.62503C14.5709 5.34124 11.9088 2.6792 8.62503 2.6792ZM16.7632 8.24951C17.136 8.24951 17.4382 8.55172 17.4382 8.92451V9.23591L20.1955 11.9932C20.4591 12.2568 20.4591 12.6842 20.1955 12.9478L17.4382 15.7051V16.0165C17.4382 16.3893 17.136 16.6915 16.7632 16.6915C16.3904 16.6915 16.0882 16.3893 16.0882 16.0165V15.4255C16.0882 15.2465 16.1593 15.0748 16.2859 14.9482L18.7636 12.4705L16.2859 9.99281C16.1593 9.86622 16.0882 9.69453 16.0882 9.51551V8.92451C16.0882 8.55172 16.3904 8.24951 16.7632 8.24951ZM8.84847 12.4705C8.84847 12.0977 9.15068 11.7955 9.52347 11.7955H16.6154C16.9882 11.7955 17.2904 12.0977 17.2904 12.4705C17.2904 12.8433 16.9882 13.1455 16.6154 13.1455H9.52347C9.15068 13.1455 8.84847 12.8433 8.84847 12.4705Z" fill="#252323"/>
</g>
<defs>
<clipPath id="clip0_661_6586">
<rect width="23" height="23" fill="white"/>
</clipPath>
</defs>
</svg>
