<svg width="18" height="18" viewBox="0 0 18 18" fill="none" xmlns="http://www.w3.org/2000/svg">
<g clip-path="url(#clip0_1054_12315)">
<path fill-rule="evenodd" clip-rule="evenodd" d="M2.5 9C2.5 5.41015 5.41015 2.5 9 2.5C9.34518 2.5 9.625 2.22018 9.625 1.875C9.625 1.52982 9.34518 1.25 9 1.25C4.71979 1.25 1.25 4.71979 1.25 9C1.25 10.6714 1.77978 12.2208 2.68051 13.4872C2.88058 13.7685 3.27079 13.8344 3.55208 13.6343C3.83336 13.4342 3.89921 13.044 3.69914 12.7628C2.94396 11.701 2.5 10.4033 2.5 9ZM11.9503 1.83149C11.6311 1.70001 11.2658 1.85215 11.1343 2.17131C11.0028 2.49046 11.155 2.85578 11.4741 2.98726C12.4319 3.38184 13.2755 3.99916 13.9399 4.77521C14.9129 5.91173 15.5 7.38651 15.5 9C15.5 10.9882 14.6081 12.7675 13.2004 13.9607C12.9371 14.1839 12.9045 14.5783 13.1277 14.8416C13.3509 15.1049 13.7453 15.1375 14.0086 14.9143C15.6846 13.4936 16.75 11.3709 16.75 9C16.75 7.07729 16.049 5.31671 14.8895 3.96229C14.0985 3.03838 13.0934 2.30245 11.9503 1.83149ZM5.49344 14.4741C5.20297 14.2876 4.81633 14.3719 4.62984 14.6623C4.44335 14.9528 4.52764 15.3394 4.81811 15.5259C6.02487 16.3007 7.46092 16.75 9 16.75C9.93014 16.75 10.8233 16.5859 11.6513 16.2844C11.9757 16.1664 12.1429 15.8077 12.0248 15.4833C11.9067 15.159 11.548 14.9918 11.2237 15.1099C10.5308 15.3621 9.78219 15.5 9 15.5C7.70744 15.5 6.50475 15.1234 5.49344 14.4741ZM9 14.0625C9.62132 14.0625 10.125 13.5588 10.125 12.9375C10.125 12.3162 9.62132 11.8125 9 11.8125C8.37868 11.8125 7.875 12.3162 7.875 12.9375C7.875 13.5588 8.37868 14.0625 9 14.0625ZM8.12277 7.09988C8.34374 7.36506 8.30792 7.75916 8.04274 7.98014C7.1642 8.71226 6.36683 8.97334 5.61799 8.8431C4.91613 8.72104 4.39787 8.26846 4.05718 7.97036C3.79741 7.74306 3.77109 7.34821 3.99839 7.08843C4.22569 6.82866 4.62054 6.80234 4.88032 7.02964C5.24494 7.34868 5.52014 7.55732 5.83216 7.61159C6.0972 7.65768 6.53412 7.61019 7.24251 7.01986C7.50769 6.79888 7.90179 6.83471 8.12277 7.09988ZM13.9041 7.98014C14.1692 7.75916 14.2051 7.36506 13.9841 7.09988C13.7631 6.83471 13.369 6.79888 13.1038 7.01986C12.3954 7.61019 11.9585 7.65768 11.6935 7.61159C11.3815 7.55732 11.1063 7.34868 10.7416 7.02964C10.4819 6.80234 10.087 6.82866 9.85972 7.08843C9.63242 7.34821 9.65874 7.74306 9.91851 7.97036C10.2592 8.26846 10.7775 8.72104 11.4793 8.8431C12.2282 8.97334 13.0255 8.71226 13.9041 7.98014Z" fill="#252323"/>
</g>
<defs>
<clipPath id="clip0_1054_12315">
<rect width="18" height="18" fill="white"/>
</clipPath>
</defs>
</svg>
