<svg width="18" height="18" viewBox="0 0 18 18" fill="none" xmlns="http://www.w3.org/2000/svg">
<g clip-path="url(#clip0_1054_12315)">
<path d="M4.50488 14.5371C4.69133 14.2469 5.0778 14.1625 5.36816 14.3486C6.37948 14.9979 7.58244 15.375 8.875 15.375C9.65719 15.375 10.4057 15.2366 11.0986 14.9844C11.4229 14.8664 11.7813 15.0341 11.8994 15.3584C12.0175 15.6827 11.8506 16.041 11.5264 16.1592C10.6984 16.4606 9.80514 16.625 8.875 16.625C7.33608 16.625 5.90004 16.176 4.69336 15.4014C4.40289 15.2149 4.31839 14.8276 4.50488 14.5371ZM11.0098 2.0459C11.1414 1.72716 11.5063 1.57479 11.8252 1.70605C12.9683 2.17699 13.9737 2.91307 14.7646 3.83691C15.9242 5.19134 16.625 6.95229 16.625 8.875C16.625 11.2458 15.5596 13.3684 13.8838 14.7891C13.6205 15.0122 13.2262 14.9799 13.0029 14.7168C12.7798 14.4536 12.8121 14.0592 13.0752 13.8359C14.4829 12.6427 15.375 10.8632 15.375 8.875C15.375 7.26151 14.7874 5.78691 13.8145 4.65039C13.1501 3.8744 12.3064 3.25687 11.3486 2.8623C11.0297 2.73068 10.8783 2.36492 11.0098 2.0459ZM8.75 11.5625C9.37132 11.5625 9.875 12.0662 9.875 12.6875C9.875 13.3088 9.37132 13.8125 8.75 13.8125C8.12868 13.8125 7.625 13.3088 7.625 12.6875C7.625 12.0662 8.12868 11.5625 8.75 11.5625ZM8.875 1.125C9.22018 1.125 9.5 1.40482 9.5 1.75C9.5 2.09518 9.22018 2.375 8.875 2.375C5.28515 2.375 2.375 5.28515 2.375 8.875C2.375 10.2783 2.81903 11.5759 3.57422 12.6377C3.77428 12.919 3.70804 13.3097 3.42676 13.5098C3.14554 13.7094 2.75565 13.6434 2.55566 13.3623C1.65494 12.0959 1.125 10.5464 1.125 8.875C1.125 4.59479 4.59479 1.125 8.875 1.125ZM7.11719 6.89453C7.38235 6.67356 7.77707 6.70946 7.99805 6.97461C8.21902 7.23978 8.18314 7.63449 7.91797 7.85547C7.03948 8.58753 6.24197 8.84796 5.49316 8.71777C4.79159 8.59576 4.27331 8.14381 3.93262 7.8457C3.67298 7.61852 3.64614 7.22365 3.87305 6.96387C4.10023 6.70423 4.4951 6.67739 4.75488 6.9043C5.11944 7.22328 5.39508 7.43202 5.70703 7.48633C5.97206 7.53242 6.40881 7.48484 7.11719 6.89453ZM12.9785 6.89453C13.2437 6.67356 13.6384 6.70946 13.8594 6.97461C14.0804 7.23978 14.0445 7.63449 13.7793 7.85547C12.9008 8.58753 12.1033 8.84796 11.3545 8.71777C10.6529 8.59576 10.1346 8.14381 9.79395 7.8457C9.53431 7.61852 9.50746 7.22365 9.73438 6.96387C9.96156 6.70423 10.3564 6.67739 10.6162 6.9043C10.9808 7.22328 11.2564 7.43202 11.5684 7.48633C11.8334 7.53242 12.2701 7.48484 12.9785 6.89453Z" fill="#332A2A"/>
</g>
<defs>
<clipPath id="clip0_1054_12315">
<rect width="18" height="18" fill="white"/>
</clipPath>
</defs>
</svg>
