<svg width="23" height="23" viewBox="0 0 23 23" fill="none" xmlns="http://www.w3.org/2000/svg">
<g clip-path="url(#clip0_1054_12314)">
<path d="M5.02661 17.936C5.26772 17.652 5.69353 17.617 5.97778 17.8579C7.44722 19.1035 9.34773 19.854 11.425 19.854C12.439 19.854 13.4102 19.6753 14.3088 19.3481C14.659 19.2209 15.0455 19.4014 15.1731 19.7515C15.3006 20.1018 15.1201 20.4892 14.7698 20.6167C13.7254 20.9969 12.5987 21.2046 11.425 21.2046C9.01628 21.2046 6.80886 20.3326 5.10474 18.8882C4.82036 18.6471 4.78556 18.2204 5.02661 17.936ZM14.2659 2.74658C14.4079 2.40189 14.803 2.23739 15.1477 2.37939C16.59 2.97362 17.8586 3.90202 18.8567 5.06787C20.3199 6.77698 21.2043 8.99907 21.2043 11.4253C21.2042 14.4168 19.8593 17.0955 17.7444 18.8882C17.46 19.1289 17.0342 19.0933 16.7932 18.8091C16.5524 18.5248 16.5872 18.0989 16.8713 17.8579C18.6966 16.3108 19.8537 14.0035 19.8538 11.4253C19.8538 9.33303 19.092 7.41956 17.8303 5.9458C16.9689 4.93977 15.8751 4.1391 14.6331 3.62744C14.2886 3.48539 14.124 3.09116 14.2659 2.74658ZM11.3499 14.269C12.5164 14.2692 13.4622 15.2148 13.4622 16.3813C13.462 17.5478 12.5163 18.4935 11.3499 18.4937C10.1833 18.4937 9.23773 17.5479 9.23755 16.3813C9.23755 15.2146 10.1832 14.269 11.3499 14.269ZM11.425 1.646C11.7977 1.64617 12.0999 1.94812 12.0999 2.3208C12.0999 2.69348 11.7977 2.99543 11.425 2.99561C6.76975 2.99561 2.99536 6.76999 2.99536 11.4253C2.99543 13.2447 3.57177 14.9273 4.55103 16.3042C4.76707 16.6079 4.69553 17.0295 4.39185 17.2456C4.08812 17.4616 3.66655 17.391 3.45044 17.0874C2.31396 15.4895 1.64582 13.5343 1.64575 11.4253C1.64575 6.02441 6.02416 1.646 11.425 1.646ZM11.3499 15.6187C10.9287 15.6187 10.5872 15.9602 10.5872 16.3813C10.5873 16.8023 10.9288 17.144 11.3499 17.144C11.7707 17.1439 12.1124 16.8022 12.1125 16.3813C12.1125 15.9603 11.7708 15.6188 11.3499 15.6187ZM4.80786 9.06396C5.05337 8.78356 5.47951 8.75505 5.76001 9.00049C6.22339 9.40594 6.59928 9.69686 7.03638 9.77295C7.42285 9.84006 8.01709 9.75771 8.93872 8.98975C9.22511 8.75127 9.65129 8.79034 9.88989 9.07666C10.128 9.36298 10.089 9.78832 9.80298 10.0269C8.69743 10.9481 7.7138 11.261 6.80493 11.103C5.94695 10.9537 5.30896 10.399 4.87134 10.0161C4.59078 9.77063 4.56238 9.34452 4.80786 9.06396ZM12.9358 9.06396C13.1813 8.78344 13.6074 8.75508 13.8879 9.00049C14.3514 9.40598 14.7272 9.69681 15.1643 9.77295C15.5508 9.84016 16.1448 9.75786 17.0667 8.98975C17.353 8.75111 17.7792 8.79034 18.0178 9.07666C18.2561 9.36304 18.2172 9.7883 17.9309 10.0269C16.8253 10.9481 15.8418 11.2611 14.9329 11.103C14.0748 10.9536 13.4369 10.399 12.9993 10.0161C12.7188 9.77064 12.6904 9.34449 12.9358 9.06396Z" fill="#332A2A"/>
</g>
<defs>
<clipPath id="clip0_1054_12314">
<rect width="23" height="23" fill="white"/>
</clipPath>
</defs>
</svg>
