<svg width="23" height="23" viewBox="0 0 23 23" fill="none" xmlns="http://www.w3.org/2000/svg">
<g clip-path="url(#clip0_1054_12314)">
<path fill-rule="evenodd" clip-rule="evenodd" d="M3.07095 11.4999C3.07095 6.84457 6.84481 3.0707 11.5001 3.0707C11.8729 3.0707 12.1751 2.7685 12.1751 2.3957C12.1751 2.02291 11.8729 1.7207 11.5001 1.7207C6.09923 1.7207 1.72095 6.09899 1.72095 11.4999C1.72095 13.609 2.38941 15.564 3.52595 17.1619C3.74201 17.4657 4.16344 17.5368 4.46723 17.3208C4.77102 17.1047 4.84213 16.6833 4.62607 16.3795C3.64671 15.0025 3.07095 13.3194 3.07095 11.4999ZM15.2228 2.4544C14.8781 2.3124 14.4836 2.47671 14.3416 2.8214C14.1996 3.16609 14.3639 3.56063 14.7086 3.70263C15.9508 4.21437 17.0447 5.01489 17.9061 6.02114C19.1679 7.4949 19.9293 9.40761 19.9293 11.4999C19.9293 14.0782 18.7725 16.3857 16.9472 17.9329C16.6628 18.1739 16.6277 18.5999 16.8687 18.8842C17.1098 19.1686 17.5357 19.2037 17.8201 18.9627C19.9351 17.1699 21.2793 14.4915 21.2793 11.4999C21.2793 9.07365 20.3949 6.85228 18.9317 5.14318C17.9335 3.97726 16.6652 3.04863 15.2228 2.4544ZM6.05306 17.9329C5.76868 17.6918 5.34274 17.727 5.10169 18.0113C4.86064 18.2957 4.89576 18.7216 5.18014 18.9627C6.88429 20.4072 9.09126 21.279 11.5001 21.279C12.674 21.279 13.801 21.0719 14.8456 20.6916C15.1959 20.5641 15.3765 20.1767 15.249 19.8264C15.1214 19.4761 14.7341 19.2955 14.3838 19.4231C13.485 19.7503 12.5142 19.929 11.5001 19.929C9.42278 19.929 7.5225 19.1784 6.05306 17.9329ZM10.7376 16.5311C10.7376 16.11 11.079 15.7686 11.5001 15.7686C11.9212 15.7686 12.2626 16.11 12.2626 16.5311C12.2626 16.9522 11.9212 17.2936 11.5001 17.2936C11.079 17.2936 10.7376 16.9522 10.7376 16.5311ZM11.5001 14.4186C10.3334 14.4186 9.38761 15.3644 9.38761 16.5311C9.38761 17.6978 10.3334 18.6436 11.5001 18.6436C12.6668 18.6436 13.6126 17.6978 13.6126 16.5311C13.6126 15.3644 12.6668 14.4186 11.5001 14.4186ZM9.9648 9.15108C10.2035 9.43747 10.1648 9.8631 9.87837 10.1018C8.77261 11.0232 7.7894 11.3357 6.88039 11.1776C6.02213 11.0283 5.38393 10.4742 4.94625 10.0912C4.66569 9.84571 4.63726 9.41927 4.88275 9.13871C5.12824 8.85816 5.55467 8.82973 5.83523 9.07521C6.29877 9.48081 6.67445 9.77153 7.1117 9.84757C7.4982 9.91479 8.09213 9.83298 9.01412 9.06465C9.30051 8.826 9.72614 8.86469 9.9648 9.15108ZM18.0068 10.1018C18.2932 9.8631 18.3319 9.43747 18.0932 9.15108C17.8545 8.86469 17.4289 8.826 17.1425 9.06465C16.2205 9.83298 15.6266 9.91479 15.2401 9.84757C14.8029 9.77153 14.4272 9.48081 13.9636 9.07521C13.6831 8.82973 13.2566 8.85816 13.0112 9.13871C12.7657 9.41927 12.7941 9.84571 13.0746 10.0912C13.5123 10.4742 14.1505 11.0283 15.0088 11.1776C15.9178 11.3357 16.901 11.0232 18.0068 10.1018Z" fill="#252323"/>
</g>
<defs>
<clipPath id="clip0_1054_12314">
<rect width="23" height="23" fill="white"/>
</clipPath>
</defs>
</svg>
