<svg width="44" height="44" viewBox="0 0 44 44" fill="none" xmlns="http://www.w3.org/2000/svg">
<g clip-path="url(#clip0_1054_12259)">
<circle cx="22" cy="31.625" r="2.75" fill="#E05149"/>
<path fill-rule="evenodd" clip-rule="evenodd" d="M5.33325 22.0002C5.33325 12.7954 12.7952 5.3335 21.9999 5.3335C22.4141 5.3335 22.7499 4.99771 22.7499 4.5835C22.7499 4.16928 22.4141 3.8335 21.9999 3.8335C11.9667 3.8335 3.83325 11.967 3.83325 22.0002C3.83325 25.9189 5.07488 29.5498 7.1861 32.5182C7.42618 32.8557 7.89443 32.9347 8.23197 32.6947C8.56952 32.4546 8.64853 31.9863 8.40845 31.6488C6.47188 28.926 5.33325 25.5972 5.33325 22.0002ZM28.9154 5.19629C28.5324 5.03851 28.094 5.22108 27.9362 5.60406C27.7785 5.98705 27.961 6.42543 28.344 6.58321C30.8007 7.59526 32.9633 9.17806 34.6661 11.1671C37.1606 14.0808 38.6666 17.8637 38.6666 22.0002C38.6666 27.0984 36.3784 31.6614 32.7704 34.7197C32.4544 34.9875 32.4154 35.4608 32.6832 35.7768C32.9511 36.0928 33.4243 36.1318 33.7403 35.8639C37.6702 32.5328 40.1666 27.5576 40.1666 22.0002C40.1666 17.4926 38.524 13.3668 35.8056 10.1916C33.9509 8.02514 31.5945 6.3 28.9154 5.19629ZM11.2295 34.7197C10.9135 34.4519 10.4402 34.4909 10.1724 34.8069C9.90454 35.1228 9.94357 35.5961 10.2595 35.8639C13.4255 38.5476 17.5246 40.1668 21.9999 40.1668C24.1815 40.1668 26.2749 39.7819 28.2148 39.0757C28.604 38.934 28.8047 38.5036 28.663 38.1144C28.5213 37.7252 28.0909 37.5245 27.7017 37.6662C25.9239 38.3134 24.004 38.6668 21.9999 38.6668C17.893 38.6668 14.1347 37.1823 11.2295 34.7197ZM19.9999 31.6252C19.9999 30.5206 20.8953 29.6252 21.9999 29.6252C23.1045 29.6252 23.9999 30.5206 23.9999 31.6252C23.9999 32.7297 23.1045 33.6252 21.9999 33.6252C20.8953 33.6252 19.9999 32.7297 19.9999 31.6252ZM21.9999 28.1252C20.0669 28.1252 18.4999 29.6922 18.4999 31.6252C18.4999 33.5582 20.0669 35.1252 21.9999 35.1252C23.9329 35.1252 25.4999 33.5582 25.4999 31.6252C25.4999 29.6922 23.9329 28.1252 21.9999 28.1252ZM18.647 17.8534C18.9121 18.1716 18.8691 18.6445 18.5509 18.9097C16.5092 20.6111 14.7844 21.1164 13.2549 20.8504C11.7819 20.5942 10.6662 19.6396 9.81854 18.8979C9.50681 18.6252 9.47522 18.1513 9.74799 17.8396C10.0207 17.5279 10.4946 17.4963 10.8063 17.7691C11.6827 18.5359 12.5067 19.1977 13.5119 19.3725C14.4608 19.5376 15.7531 19.2886 17.5906 17.7573C17.9089 17.4922 18.3818 17.5352 18.647 17.8534ZM34.1009 18.9097C34.4191 18.6445 34.4621 18.1716 34.1969 17.8534C33.9318 17.5352 33.4588 17.4922 33.1406 17.7573C31.3031 19.2886 30.0108 19.5376 29.0619 19.3725C28.0566 19.1977 27.2327 18.5359 26.3563 17.7691C26.0446 17.4963 25.5707 17.5279 25.298 17.8396C25.0252 18.1513 25.0568 18.6252 25.3685 18.8979C26.2162 19.6396 27.3318 20.5942 28.8049 20.8504C30.3344 21.1164 32.0592 20.6111 34.1009 18.9097Z" fill="#252323"/>
</g>
<defs>
<clipPath id="clip0_1054_12259">
<rect width="44" height="44" fill="white"/>
</clipPath>
</defs>
</svg>
