<svg width="28" height="28" viewBox="0 0 28 28" fill="none" xmlns="http://www.w3.org/2000/svg">
<g clip-path="url(#clip0_1054_12313)">
<path fill-rule="evenodd" clip-rule="evenodd" d="M3.66675 13.9998C3.66675 8.29289 8.29314 3.6665 14.0001 3.6665C14.4143 3.6665 14.7501 3.33072 14.7501 2.9165C14.7501 2.50229 14.4143 2.1665 14.0001 2.1665C7.46471 2.1665 2.16675 7.46447 2.16675 13.9998C2.16675 16.5521 2.9756 18.9176 4.35086 20.8512C4.59093 21.1887 5.05919 21.2678 5.39673 21.0277C5.73428 20.7876 5.81329 20.3194 5.57321 19.9818C4.3726 18.2938 3.66675 16.2303 3.66675 13.9998ZM18.5047 3.05429C18.1217 2.89652 17.6834 3.07908 17.5256 3.46207C17.3678 3.84506 17.5504 4.28343 17.9334 4.44121C19.4562 5.06859 20.7972 6.04994 21.8532 7.28343C23.3999 9.09008 24.3334 11.435 24.3334 13.9998C24.3334 17.1606 22.9152 19.9894 20.6777 21.8861C20.3617 22.1539 20.3227 22.6272 20.5905 22.9431C20.8583 23.2591 21.3316 23.2981 21.6476 23.0303C24.2069 20.8608 25.8334 17.6199 25.8334 13.9998C25.8334 11.0639 24.7633 8.37606 22.9927 6.30791C21.7848 4.89702 20.2501 3.77332 18.5047 3.05429ZM7.32249 21.8861C7.00652 21.6182 6.53326 21.6572 6.26542 21.9732C5.99759 22.2892 6.03661 22.7625 6.35258 23.0303C8.41473 24.7783 11.0852 25.8332 14.0001 25.8332C15.4207 25.8332 16.7844 25.5825 18.0483 25.1224C18.4375 24.9807 18.6382 24.5503 18.4965 24.1611C18.3548 23.7718 17.9244 23.5712 17.5352 23.7129C16.4333 24.114 15.2431 24.3332 14.0001 24.3332C11.4535 24.3332 9.12385 23.413 7.32249 21.8861ZM13.0001 20.1248C13.0001 19.5726 13.4478 19.1248 14.0001 19.1248C14.5524 19.1248 15.0001 19.5726 15.0001 20.1248C15.0001 20.6771 14.5524 21.1248 14.0001 21.1248C13.4478 21.1248 13.0001 20.6771 13.0001 20.1248ZM14.0001 17.6248C12.6194 17.6248 11.5001 18.7441 11.5001 20.1248C11.5001 21.5055 12.6194 22.6248 14.0001 22.6248C15.3808 22.6248 16.5001 21.5055 16.5001 20.1248C16.5001 18.7441 15.3808 17.6248 14.0001 17.6248ZM12.0759 11.1864C12.3411 11.5046 12.2981 11.9775 11.9799 12.2427C10.6435 13.3563 9.46722 13.7245 8.38836 13.5368C7.36589 13.359 6.60291 12.6984 6.0687 12.2309C5.75698 11.9582 5.72539 11.4844 5.99815 11.1726C6.27091 10.8609 6.74473 10.8293 7.05646 11.1021C7.61939 11.5946 8.0907 11.9626 8.64537 12.059C9.14366 12.1457 9.88739 12.0338 11.0196 11.0903C11.3378 10.8252 11.8107 10.8682 12.0759 11.1864ZM21.8753 12.2427C22.1935 11.9775 22.2365 11.5046 21.9713 11.1864C21.7062 10.8682 21.2332 10.8252 20.915 11.0903C19.7828 12.0338 19.0391 12.1457 18.5408 12.059C17.9861 11.9626 17.5148 11.5946 16.9519 11.1021C16.6402 10.8293 16.1664 10.8609 15.8936 11.1726C15.6208 11.4844 15.6524 11.9582 15.9641 12.2309C16.4984 12.6984 17.2613 13.359 18.2838 13.5368C19.3627 13.7245 20.5389 13.3563 21.8753 12.2427Z" fill="#252323"/>
</g>
<defs>
<clipPath id="clip0_1054_12313">
<rect width="28" height="28" fill="white"/>
</clipPath>
</defs>
</svg>
