<svg width="44" height="44" viewBox="0 0 44 44" fill="none" xmlns="http://www.w3.org/2000/svg">
<g clip-path="url(#clip0_1054_12259)">
<circle cx="22" cy="31.625" r="2.75" fill="#E05149"/>
<path d="M10.1721 34.8071C10.4399 34.4912 10.9138 34.4515 11.2297 34.7192C14.1349 37.1818 17.8933 38.6665 22.0002 38.6665C24.0041 38.6665 25.9238 38.3136 27.7014 37.6665C28.0906 37.5248 28.5216 37.7255 28.6633 38.1147C28.8047 38.5038 28.604 38.9339 28.2151 39.0757C26.2753 39.7819 24.1817 40.1665 22.0002 40.1665C17.525 40.1665 13.426 38.5473 10.26 35.8638C9.94413 35.596 9.90454 35.1231 10.1721 34.8071ZM27.9358 5.604C28.0935 5.2211 28.5324 5.03821 28.9153 5.1958C31.5944 6.29951 33.9512 8.02546 35.8059 10.1919C38.5241 13.3671 40.1663 17.4931 40.1663 22.0005C40.1662 27.5577 37.6702 32.5327 33.7405 35.8638C33.4245 36.1316 32.9507 36.0928 32.6829 35.7769C32.4152 35.4609 32.4548 34.987 32.7708 34.7192C36.3785 31.661 38.6662 27.0983 38.6663 22.0005C38.6663 17.8641 37.1606 14.0812 34.6663 11.1675C32.9634 9.17848 30.8006 7.59556 28.344 6.5835C27.961 6.42573 27.7781 5.98697 27.9358 5.604ZM22.0002 28.1255C23.9331 28.1257 25.5002 29.6926 25.5002 31.6255C25.5001 33.5582 23.933 35.1253 22.0002 35.1255C20.0674 35.1255 18.5004 33.5583 18.5002 31.6255C18.5002 29.6925 20.0672 28.1255 22.0002 28.1255ZM22.0002 29.6255C20.8957 29.6255 20.0002 30.5209 20.0002 31.6255C20.0004 32.7299 20.8958 33.6255 22.0002 33.6255C23.1046 33.6253 24.0001 32.7298 24.0002 31.6255C24.0002 30.521 23.1047 29.6257 22.0002 29.6255ZM22.0002 3.8335C22.4143 3.83367 22.7502 4.16939 22.7502 4.5835C22.7502 4.9976 22.4143 5.33332 22.0002 5.3335C12.7955 5.3335 5.33325 12.7957 5.33325 22.0005C5.33332 25.5974 6.47193 28.9262 8.40845 31.6489C8.64845 31.9865 8.56921 32.4548 8.23169 32.6948C7.89416 32.9347 7.42581 32.8555 7.18579 32.5181C5.07473 29.5498 3.83332 25.919 3.83325 22.0005C3.83325 11.9673 11.9671 3.8335 22.0002 3.8335ZM9.74829 17.8394C10.0211 17.5279 10.4953 17.4964 10.8069 17.769C11.6831 18.5357 12.5069 19.1977 13.512 19.3726C14.4608 19.5375 15.7538 19.2884 17.5911 17.7573C17.9093 17.4924 18.3826 17.5349 18.6477 17.853C18.9127 18.1712 18.869 18.6445 18.551 18.9097C16.5095 20.6109 14.7845 21.116 13.2551 20.8501C11.7822 20.5939 10.6662 19.6396 9.8186 18.8979C9.507 18.6252 9.47557 18.151 9.74829 17.8394ZM25.2981 17.8394C25.5709 17.5278 26.045 17.4963 26.3567 17.769C27.2329 18.5357 28.0567 19.1977 29.0618 19.3726C30.0106 19.5375 31.3035 19.2885 33.1409 17.7573C33.4591 17.4923 33.9324 17.5349 34.1975 17.853C34.4626 18.1712 34.4189 18.6445 34.1008 18.9097C32.0593 20.6109 30.3343 21.116 28.8049 20.8501C27.332 20.5939 26.216 19.6396 25.3684 18.8979C25.0568 18.6252 25.0254 18.151 25.2981 17.8394Z" fill="#332A2A"/>
</g>
<defs>
<clipPath id="clip0_1054_12259">
<rect width="44" height="44" fill="white"/>
</clipPath>
</defs>
</svg>
