<svg width="44" height="44" viewBox="0 0 44 44" fill="none" xmlns="http://www.w3.org/2000/svg">
<g clip-path="url(#clip0_666_9533)">
<path fill-rule="evenodd" clip-rule="evenodd" d="M23.8334 3.83325C24.2476 3.83325 24.5834 4.16904 24.5834 4.58325V5.31337C24.5834 6.48758 23.8398 7.52159 22.7501 7.90619V10.4177L23.727 10.092C24.0415 9.98721 24.3015 9.76173 24.4497 9.46521L24.9959 8.37284C25.1812 8.00236 25.6317 7.85219 26.0022 8.03743C26.3726 8.22267 26.5228 8.67318 26.3376 9.04366L25.7914 10.136C25.4652 10.7884 24.8933 11.2844 24.2013 11.5151L22.2373 12.1698C22.0833 12.2211 21.9169 12.2211 21.7629 12.1698L19.7988 11.5151C19.1069 11.2844 18.535 10.7884 18.2088 10.136L17.6626 9.04366C17.4774 8.67318 17.6275 8.22267 17.998 8.03743C18.3685 7.85219 18.819 8.00236 19.0042 8.37284L19.5504 9.46521C19.6987 9.76173 19.9587 9.98721 20.2732 10.092L21.2501 10.4177V7.90619C20.1604 7.52159 19.4167 6.48759 19.4167 5.31337V4.58325C19.4167 4.16904 19.7525 3.83325 20.1667 3.83325C20.581 3.83325 20.9167 4.16904 20.9167 4.58325V5.31337C20.9167 5.88695 21.3071 6.38693 21.8636 6.52604L22.0001 6.56017L22.1366 6.52604C22.693 6.38693 23.0834 5.88695 23.0834 5.31337V4.58325C23.0834 4.16904 23.4192 3.83325 23.8334 3.83325ZM17.1382 11.6786C17.5228 11.5247 17.9593 11.7118 18.1131 12.0964L18.5916 13.2926C18.7606 13.715 19.1457 14.0123 19.5972 14.0687L22.0001 14.3691L24.403 14.0687C24.8545 14.0123 25.2396 13.715 25.4086 13.2926L25.8871 12.0964C26.0409 11.7118 26.4774 11.5247 26.862 11.6786C27.2465 11.8324 27.4336 12.2689 27.2798 12.6535L26.8013 13.8497C26.4296 14.779 25.5822 15.433 24.5891 15.5571L22.7501 15.787V17.6467C23.3989 17.7577 23.9995 18.0102 24.5188 18.3713L25.6073 17.2828C25.9002 16.9899 26.375 16.9899 26.6679 17.2828C26.9608 17.5757 26.9608 18.0506 26.6679 18.3435L25.5879 19.4236C25.9708 19.9559 26.2382 20.5769 26.3533 21.2499H27.7547L27.9845 19.4109C28.1087 18.4178 28.7626 17.5704 29.692 17.1987L30.8882 16.7202C31.2728 16.5664 31.7093 16.7535 31.8631 17.138C32.0169 17.5226 31.8299 17.9591 31.4453 18.1129L30.2491 18.5914C29.8266 18.7604 29.5294 19.1455 29.4729 19.597L29.1726 21.9999L29.4729 24.4028C29.5294 24.8543 29.8266 25.2394 30.2491 25.4084L31.4453 25.8869C31.8299 26.0407 32.0169 26.4772 31.8631 26.8618C31.7093 27.2464 31.2728 27.4334 30.8882 27.2796L29.692 26.8011C28.7626 26.4294 28.1087 25.5821 27.9845 24.5889L27.7547 22.7499H26.3533C26.2438 23.3905 25.9962 23.984 25.6424 24.4987L26.8773 25.7336C27.1702 26.0265 27.1702 26.5014 26.8773 26.7943C26.5845 27.0872 26.1096 27.0872 25.8167 26.7943L24.596 25.5736C24.0593 25.9641 23.4313 26.2366 22.7501 26.3532V28.0983L24.5891 28.3281C25.5822 28.4523 26.4296 29.1062 26.8013 30.0356L27.2798 31.2318C27.4336 31.6164 27.2465 32.0529 26.862 32.2067C26.4774 32.3605 26.0409 32.1735 25.8871 31.7889L25.4086 30.5927C25.2396 30.1702 24.8545 29.873 24.403 29.8165L22.0001 29.5162L19.5972 29.8165C19.1457 29.873 18.7606 30.1702 18.5916 30.5927L18.1131 31.7889C17.9593 32.1735 17.5228 32.3605 17.1382 32.2067C16.7536 32.0529 16.5666 31.6164 16.7204 31.2318L17.1989 30.0356C17.5706 29.1062 18.4179 28.4523 19.4111 28.3281L21.2501 28.0983V26.3532C20.6286 26.2468 20.0514 26.0107 19.5474 25.6735L18.4385 26.7824C18.1456 27.0753 17.6708 27.0753 17.3779 26.7824C17.085 26.4895 17.085 26.0146 17.3779 25.7217L18.4593 24.6404C18.0512 24.094 17.7666 23.4501 17.6468 22.7499H16.2455L16.0156 24.5889C15.8915 25.5821 15.2375 26.4294 14.3082 26.8011L13.112 27.2796C12.7274 27.4334 12.2909 27.2464 12.1371 26.8618C11.9832 26.4772 12.1703 26.0407 12.5549 25.8869L13.7511 25.4084C14.1735 25.2394 14.4708 24.8543 14.5272 24.4028L14.8276 21.9999L14.5272 19.597C14.4708 19.1455 14.1735 18.7604 13.7511 18.5914L12.5549 18.1129C12.1703 17.9591 11.9832 17.5226 12.1371 17.138C12.2909 16.7535 12.7274 16.5664 13.112 16.7202L14.3082 17.1987C15.2375 17.5704 15.8915 18.4178 16.0156 19.4109L16.2455 21.2499H17.6468C17.7634 20.5687 18.0359 19.9406 18.4265 19.404L17.3779 18.3554C17.085 18.0625 17.085 17.5876 17.3779 17.2948C17.6708 17.0019 18.1456 17.0019 18.4385 17.2948L19.5013 18.3575C20.0161 18.0038 20.6095 17.7562 21.2501 17.6467V15.787L19.4111 15.5571C18.4179 15.433 17.5706 14.779 17.1989 13.8497L16.7204 12.6535C16.5666 12.2689 16.7536 11.8324 17.1382 11.6786ZM19.0834 21.9988V21.9999C19.0834 23.6107 20.3893 24.9166 22.0001 24.9166C23.6109 24.9166 24.9167 23.6107 24.9167 21.9999V21.9978C24.9156 20.3879 23.6102 19.0833 22.0001 19.0833C20.3896 19.0833 19.084 20.3885 19.0834 21.9988ZM24.5834 39.302C24.5834 39.7162 24.2476 40.052 23.8334 40.052C23.4192 40.052 23.0834 39.7162 23.0834 39.302V38.5719C23.0834 37.9983 22.693 37.4983 22.1366 37.3592L22.0001 37.3251L21.8636 37.3592C21.3071 37.4983 20.9167 37.9983 20.9167 38.5719V39.302C20.9167 39.7162 20.581 40.052 20.1667 40.052C19.7525 40.052 19.4167 39.7162 19.4167 39.302V38.5719C19.4167 37.3977 20.1604 36.3637 21.2501 35.9791V33.4676L20.2732 33.7932C19.9587 33.898 19.6987 34.1235 19.5504 34.42L19.0042 35.5124C18.819 35.8829 18.3685 36.0331 17.998 35.8478C17.6275 35.6626 17.4774 35.2121 17.6626 34.8416L18.2088 33.7492C18.535 33.0969 19.1069 32.6008 19.7988 32.3702L21.7629 31.7155C21.9169 31.6642 22.0833 31.6642 22.2373 31.7155L24.2013 32.3702C24.8933 32.6008 25.4652 33.0969 25.7914 33.7492L26.3376 34.8416C26.5228 35.2121 26.3726 35.6626 26.0022 35.8478C25.6317 36.0331 25.1812 35.8829 24.9959 35.5124L24.4497 34.42C24.3015 34.1235 24.0415 33.898 23.727 33.7932L22.7501 33.4676V35.9791C23.8398 36.3637 24.5834 37.3977 24.5834 38.5719V39.302ZM39.7084 23.8333C39.7084 24.2475 39.3726 24.5833 38.9584 24.5833H38.2283C37.0541 24.5833 36.0201 23.8396 35.6355 22.7499H33.124L33.4496 23.7268C33.5545 24.0413 33.7799 24.3013 34.0765 24.4496L35.1688 24.9958C35.5393 25.181 35.6895 25.6315 35.5042 26.002C35.319 26.3725 34.8685 26.5226 34.498 26.3374L33.4056 25.7912C32.7533 25.465 32.2572 24.8931 32.0266 24.2012L31.3719 22.2371C31.3206 22.0831 31.3206 21.9167 31.3719 21.7627L32.0266 19.7987C32.2572 19.1067 32.7533 18.5348 33.4056 18.2086L34.498 17.6624C34.8685 17.4772 35.319 17.6274 35.5042 17.9978C35.6895 18.3683 35.5393 18.8188 35.1688 19.0041L34.0765 19.5503C33.7799 19.6985 33.5545 19.9585 33.4496 20.273L33.124 21.2499H35.6355C36.0201 20.1602 37.0541 19.4166 38.2283 19.4166H38.9584C39.3726 19.4166 39.7084 19.7524 39.7084 20.1666C39.7084 20.5808 39.3726 20.9166 38.9584 20.9166H38.2283C37.6547 20.9166 37.1547 21.307 37.0156 21.8634L36.9815 21.9999L37.0156 22.1364C37.1547 22.6929 37.6547 23.0833 38.2283 23.0833H38.9584C39.3726 23.0833 39.7084 23.419 39.7084 23.8333ZM5.04175 24.5833C4.62753 24.5833 4.29175 24.2475 4.29175 23.8333C4.29175 23.419 4.62753 23.0833 5.04175 23.0833H5.77186C6.34545 23.0833 6.84543 22.6929 6.98454 22.1364L7.01867 21.9999L6.98454 21.8634C6.84543 21.307 6.34545 20.9166 5.77186 20.9166H5.04175C4.62753 20.9166 4.29175 20.5808 4.29175 20.1666C4.29175 19.7524 4.62753 19.4166 5.04175 19.4166H5.77186C6.94608 19.4166 7.98009 20.1602 8.36468 21.2499H10.8762L10.5505 20.273C10.4457 19.9585 10.2202 19.6985 9.9237 19.5503L8.83134 19.0041C8.46085 18.8188 8.31069 18.3683 8.49593 17.9978C8.68117 17.6274 9.13167 17.4772 9.50216 17.6624L10.5945 18.2086C11.2469 18.5348 11.7429 19.1067 11.9736 19.7987L12.6283 21.7627C12.6796 21.9167 12.6796 22.0831 12.6283 22.2371L11.9736 24.2012C11.7429 24.8931 11.2469 25.465 10.5945 25.7912L9.50216 26.3374C9.13167 26.5226 8.68117 26.3725 8.49593 26.002C8.31069 25.6315 8.46085 25.181 8.83134 24.9958L9.9237 24.4496C10.2202 24.3013 10.4457 24.0413 10.5505 23.7268L10.8762 22.7499H8.36468C7.98009 23.8396 6.94608 24.5833 5.77186 24.5833H5.04175ZM8.80855 8.72535C9.10144 8.43246 9.57632 8.43246 9.86921 8.72536L12.41 11.2662L12.41 9.25567C12.41 8.84146 12.7457 8.50567 13.16 8.50567C13.5742 8.50567 13.91 8.84145 13.91 9.25567L13.91 12.7662L17.0137 15.8699C17.3066 16.1628 17.3066 16.6377 17.0137 16.9306C16.7208 17.2235 16.2459 17.2235 15.953 16.9306L12.8493 13.8269L9.33885 13.8269C8.92464 13.827 8.58884 13.4912 8.58883 13.077C8.58882 12.6628 8.9246 12.327 9.33881 12.3269L11.3494 12.3269L8.80854 9.78601C8.51565 9.49312 8.51565 9.01824 8.80855 8.72535ZM34.1766 8.71344C34.4695 8.42055 34.9444 8.42055 35.2373 8.71344C35.5302 9.00633 35.5302 9.4812 35.2373 9.7741L32.6964 12.315L34.707 12.315C35.1212 12.315 35.457 12.6508 35.457 13.065C35.457 13.4793 35.1212 13.815 34.707 13.815L31.1965 13.8149L28.0928 16.9187C27.7999 17.2115 27.325 17.2115 27.0321 16.9187C26.7392 16.6258 26.7392 16.1509 27.0321 15.858L30.1358 12.7543L30.1359 9.24375C30.1359 8.82954 30.4716 8.49375 30.8859 8.49375C31.3001 8.49376 31.6359 8.82954 31.6359 9.24376L31.6358 11.2542L34.1766 8.71344ZM8.80855 35.3518C9.10144 35.6447 9.57632 35.6447 9.86921 35.3518L12.41 32.811L12.41 34.8215C12.41 35.2357 12.7457 35.5715 13.16 35.5715C13.5742 35.5715 13.91 35.2357 13.91 34.8215L13.91 31.311L17.0137 28.2073C17.3066 27.9144 17.3066 27.4395 17.0137 27.1466C16.7208 26.8537 16.2459 26.8537 15.953 27.1466L12.8493 30.2503L9.33885 30.2502C8.92464 30.2502 8.58884 30.586 8.58883 31.0002C8.58882 31.4144 8.9246 31.7502 9.33881 31.7502L11.3494 31.7503L8.80854 34.2911C8.51565 34.584 8.51565 35.0589 8.80855 35.3518ZM34.386 35.3637C34.6789 35.6566 35.1538 35.6566 35.4467 35.3637C35.7396 35.0708 35.7396 34.5959 35.4467 34.303L32.9058 31.7621L34.9164 31.7621C35.3306 31.7621 35.6664 31.4263 35.6664 31.0121C35.6664 30.5978 35.3306 30.2621 34.9164 30.2621L31.4059 30.2622L28.3022 27.1585C28.0093 26.8656 27.5344 26.8656 27.2415 27.1585C26.9486 27.4513 26.9486 27.9262 27.2415 28.2191L30.3453 31.3228L30.3453 34.8334C30.3453 35.2476 30.6811 35.5834 31.0953 35.5833C31.5095 35.5833 31.8453 35.2476 31.8453 34.8333L31.8453 32.8229L34.386 35.3637Z" fill="#252323"/>
</g>
<defs>
<clipPath id="clip0_666_9533">
<rect width="44" height="44" fill="white"/>
</clipPath>
</defs>
</svg>
