<svg width="28" height="28" viewBox="0 0 28 28" fill="none" xmlns="http://www.w3.org/2000/svg">
<g clip-path="url(#clip0_666_9458)">
<circle cx="14.0001" cy="14.0001" r="2.33333" fill="#E05149"/>
<path fill-rule="evenodd" clip-rule="evenodd" d="M12.8333 2.16675C13.2475 2.16675 13.5833 2.50253 13.5833 2.91675V3.17251C13.5833 3.46869 13.7479 3.73382 13.9999 3.86895C14.2519 3.73382 14.4166 3.46869 14.4166 3.17251V2.91675C14.4166 2.50253 14.7524 2.16675 15.1666 2.16675C15.5808 2.16675 15.9166 2.50253 15.9166 2.91675V3.17251C15.9166 4.01475 15.4572 4.77038 14.7499 5.16845V6.25093C15.0541 6.14291 15.305 5.92127 15.4496 5.63204L15.6624 5.20634C15.8477 4.83585 16.2982 4.68569 16.6687 4.87093C17.0391 5.05617 17.1893 5.50667 17.0041 5.87716L16.7912 6.30286C16.465 6.9552 15.8931 7.45126 15.2012 7.6819L14.2371 8.00326C14.0831 8.05458 13.9167 8.05458 13.7627 8.00326L12.7987 7.6819C12.1067 7.45126 11.5348 6.9552 11.2086 6.30286L10.9958 5.87716C10.8105 5.50667 10.9607 5.05617 11.3312 4.87093C11.7017 4.68569 12.1522 4.83585 12.3374 5.20634L12.5503 5.63204C12.6949 5.92127 12.9458 6.14291 13.2499 6.25093V5.16845C12.5427 4.77038 12.0833 4.01475 12.0833 3.17251V2.91675C12.0833 2.50253 12.419 2.16675 12.8333 2.16675ZM10.8047 7.17872C11.1893 7.02489 11.6258 7.21195 11.7796 7.59654L11.9248 7.95944C12.0937 8.38186 12.4789 8.67911 12.9303 8.73554L13.9999 8.86925L15.0695 8.73554C15.521 8.67911 15.9061 8.38186 16.0751 7.95944L16.2202 7.59654C16.3741 7.21195 16.8105 7.02489 17.1951 7.17872C17.5797 7.33256 17.7668 7.76904 17.6129 8.15363L17.4678 8.51652C17.0961 9.44585 16.2488 10.0998 15.2556 10.224L14.7499 10.2872V11.0086C15.0401 11.0811 15.314 11.1948 15.565 11.343L16.1026 10.8054C16.3954 10.5126 16.8703 10.5126 17.1632 10.8054C17.4561 11.0983 17.4561 11.5732 17.1632 11.8661L16.6335 12.3958C16.7933 12.6574 16.9151 12.9447 16.9914 13.2501H17.4212L17.4844 12.7444C17.6085 11.7512 18.2625 10.9039 19.1918 10.5322L19.5547 10.3871C19.9393 10.2332 20.3758 10.4203 20.5296 10.8049C20.6834 11.1895 20.4964 11.6259 20.1118 11.7798L19.7489 11.9249C19.3265 12.0939 19.0292 12.479 18.9728 12.9305L18.8391 14.0001L18.9728 15.0697C19.0292 15.5211 19.3265 15.9063 19.7489 16.0752L20.1118 16.2204C20.4964 16.3742 20.6834 16.8107 20.5296 17.1953C20.3758 17.5799 19.9393 17.7669 19.5547 17.6131L19.1918 17.4679C18.2625 17.0962 17.6085 16.2489 17.4844 15.2557L17.4212 14.7501H16.9914C16.9202 15.0351 16.8093 15.3043 16.665 15.5517L17.2965 16.1832C17.5894 16.4761 17.5894 16.951 17.2965 17.2439C17.0036 17.5368 16.5287 17.5368 16.2358 17.2439L15.6175 16.6256C15.3523 16.7893 15.0604 16.914 14.7499 16.9916V17.6401L15.2556 17.7033C16.2488 17.8274 17.0961 18.4814 17.4678 19.4107L17.6129 19.7736C17.7668 20.1582 17.5797 20.5947 17.1951 20.7485C16.8105 20.9024 16.3741 20.7153 16.2202 20.3307L16.0751 19.9678C15.9061 19.5454 15.521 19.2481 15.0695 19.1917L13.9999 19.058L12.9303 19.1917C12.4789 19.2481 12.0937 19.5454 11.9248 19.9678L11.7796 20.3307C11.6258 20.7153 11.1893 20.9024 10.8047 20.7485C10.4201 20.5947 10.2331 20.1582 10.3869 19.7736L10.5321 19.4107C10.9038 18.4814 11.7511 17.8274 12.7443 17.7033L13.2499 17.6401V16.9916C12.9769 16.9233 12.7183 16.8187 12.4796 16.6831L11.9263 17.2363C11.6334 17.5292 11.1586 17.5292 10.8657 17.2363C10.5728 16.9434 10.5728 16.4686 10.8657 16.1757L11.3934 15.648C11.2203 15.3747 11.089 15.0725 11.0084 14.7501H10.5787L10.5155 15.2557C10.3913 16.2489 9.73735 17.0962 8.80803 17.4679L8.44513 17.6131C8.06054 17.7669 7.62406 17.5799 7.47023 17.1953C7.31639 16.8107 7.50346 16.3742 7.88804 16.2204L8.25094 16.0752C8.67336 15.9063 8.97062 15.5211 9.02705 15.0697L9.16075 14.0001L9.02705 12.9305C8.97062 12.479 8.67336 12.0939 8.25094 11.9249L7.88804 11.7798C7.50346 11.6259 7.31639 11.1895 7.47023 10.8049C7.62406 10.4203 8.06054 10.2332 8.44513 10.3871L8.80803 10.5322C9.73735 10.9039 10.3913 11.7512 10.5155 12.7444L10.5787 13.2501H11.0084C11.086 12.9396 11.2107 12.6477 11.3745 12.3825L10.8657 11.8737C10.5728 11.5808 10.5728 11.1059 10.8657 10.813C11.1586 10.5201 11.6334 10.5201 11.9263 10.813L12.4483 11.335C12.6957 11.1907 12.9649 11.0798 13.2499 11.0086V10.2872L12.7443 10.224C11.7511 10.0998 10.9038 9.44585 10.5321 8.51652L10.3869 8.15363C10.2331 7.76904 10.4201 7.33256 10.8047 7.17872ZM12.4166 13.9991V14.0001C12.4166 14.8745 13.1255 15.5834 13.9999 15.5834C14.8744 15.5834 15.5833 14.8745 15.5833 14.0001C15.5833 13.1256 14.8744 12.4167 13.9999 12.4167C13.1258 12.4167 12.4171 13.1251 12.4166 13.9991ZM13.5833 25.0105C13.5833 25.4247 13.2475 25.7605 12.8333 25.7605C12.419 25.7605 12.0833 25.4247 12.0833 25.0105V24.7547C12.0833 23.9125 12.5427 23.1569 13.2499 22.7588V21.6763C12.9458 21.7843 12.6949 22.006 12.5503 22.2952L12.3374 22.7209C12.1522 23.0914 11.7017 23.2416 11.3312 23.0563C10.9607 22.8711 10.8105 22.4206 10.9958 22.0501L11.2086 21.6244C11.5348 20.972 12.1067 20.476 12.7987 20.2453L13.7627 19.924C13.9167 19.8727 14.0831 19.8727 14.2371 19.924L15.2012 20.2453C15.8931 20.476 16.465 20.972 16.7912 21.6244L17.0041 22.0501C17.1893 22.4206 17.0391 22.8711 16.6687 23.0563C16.2982 23.2416 15.8477 23.0914 15.6624 22.7209L15.4496 22.2952C15.305 22.006 15.0541 21.7843 14.7499 21.6763V22.7588C15.4572 23.1569 15.9166 23.9125 15.9166 24.7547V25.0105C15.9166 25.4247 15.5808 25.7605 15.1666 25.7605C14.7524 25.7605 14.4166 25.4247 14.4166 25.0105V24.7547C14.4166 24.4586 14.2519 24.1934 13.9999 24.0583C13.7479 24.1934 13.5833 24.4586 13.5833 24.7547V25.0105ZM25.5416 12.8334C25.5416 13.2476 25.2058 13.5834 24.7916 13.5834H24.5358C24.2396 13.5834 23.9745 13.7481 23.8394 14.0001C23.9745 14.2521 24.2396 14.4167 24.5358 14.4167L24.7916 14.4167C25.2058 14.4167 25.5416 14.7525 25.5416 15.1667C25.5416 15.581 25.2058 15.9167 24.7916 15.9167L24.5358 15.9167C23.6936 15.9167 22.938 15.4573 22.5399 14.7501H21.4574C21.5654 15.0542 21.7871 15.3051 22.0763 15.4497L22.502 15.6626C22.8725 15.8478 23.0226 16.2983 22.8374 16.6688C22.6522 17.0393 22.2017 17.1895 21.8312 17.0042L21.4055 16.7914C20.7531 16.4652 20.2571 15.8933 20.0264 15.2013L19.7051 14.2373C19.6538 14.0833 19.6538 13.9169 19.7051 13.7629L20.0264 12.7988C20.2571 12.1069 20.7531 11.535 21.4055 11.2088L21.8312 10.9959C22.2017 10.8107 22.6522 10.9609 22.8374 11.3313C23.0226 11.7018 22.8725 12.1523 22.502 12.3376L22.0763 12.5504C21.7871 12.695 21.5654 12.9459 21.4574 13.2501H22.5399C22.938 12.5428 23.6936 12.0834 24.5358 12.0834H24.7916C25.2058 12.0834 25.5416 12.4192 25.5416 12.8334ZM3.20825 13.5834C2.79404 13.5834 2.45825 13.2476 2.45825 12.8334C2.45825 12.4192 2.79404 12.0834 3.20825 12.0834H3.46401C4.30626 12.0834 5.06188 12.5428 5.45995 13.2501H6.54243C6.43442 12.9459 6.21278 12.695 5.92354 12.5504L5.49784 12.3376C5.12736 12.1523 4.97719 11.7018 5.16243 11.3313C5.34767 10.9609 5.79818 10.8107 6.16866 10.9959L6.59436 11.2088C7.24671 11.535 7.74276 12.1069 7.9734 12.7988L8.29476 13.7629C8.34608 13.9169 8.34608 14.0833 8.29476 14.2373L7.9734 15.2013C7.74276 15.8933 7.24671 16.4652 6.59436 16.7914L6.16866 17.0042C5.79818 17.1895 5.34767 17.0393 5.16243 16.6688C4.97719 16.2983 5.12736 15.8478 5.49784 15.6626L5.92354 15.4497C6.21278 15.3051 6.43442 15.0542 6.54243 14.7501H5.45995C5.06188 15.4573 4.30626 15.9167 3.46401 15.9167L3.20825 15.9167C2.79404 15.9167 2.45825 15.581 2.45825 15.1667C2.45825 14.7525 2.79404 14.4167 3.20825 14.4167L3.46401 14.4167C3.76019 14.4167 4.02532 14.2521 4.16045 14.0001C4.02532 13.7481 3.76019 13.5834 3.46401 13.5834H3.20825ZM5.41247 5.35977C5.70536 5.06688 6.18024 5.06689 6.47313 5.35978L7.62439 6.51106L7.62439 5.89011C7.62438 5.4759 7.96017 5.14011 8.37438 5.14011C8.7886 5.1401 9.12439 5.47589 9.12439 5.8901L9.1244 8.01826L10.4928 9.43225C10.7809 9.7299 10.7731 10.2047 10.4755 10.4928C10.1778 10.7808 9.703 10.7731 9.41494 10.4754L8.05653 9.07176L5.94279 9.07181C5.52858 9.07182 5.19279 8.73604 5.19278 8.32183C5.19277 7.90761 5.52855 7.57182 5.94276 7.57181L6.56381 7.5718L5.41246 6.42043C5.11957 6.12754 5.11957 5.65266 5.41247 5.35977ZM21.5558 5.3522C21.8487 5.0593 22.3235 5.0593 22.6164 5.35219C22.9093 5.64508 22.9093 6.11996 22.6164 6.41285L21.4651 7.56421L22.0861 7.56423C22.5003 7.56424 22.8361 7.90003 22.8361 8.31424C22.8361 8.72846 22.5003 9.06424 22.0861 9.06423L19.9525 9.06418L18.4315 10.4993C18.1302 10.7835 17.6556 10.7698 17.3713 10.4685C17.087 10.1672 17.1008 9.69255 17.4021 9.40828L18.9045 7.99068L18.9045 5.88252C18.9045 5.4683 19.2403 5.13252 19.6545 5.13252C20.0687 5.13253 20.4045 5.46831 20.4045 5.88253L20.4045 6.50348L21.5558 5.3522ZM5.41247 22.6896C5.70536 22.9825 6.18024 22.9825 6.47313 22.6896L7.62439 21.5383L7.62439 22.1593C7.62438 22.5735 7.96017 22.9093 8.37438 22.9093C8.7886 22.9093 9.12439 22.5735 9.12439 22.1593L9.1244 20.036L10.6994 18.4445C10.9908 18.1501 10.9883 17.6752 10.6939 17.3838C10.3995 17.0925 9.92459 17.095 9.63323 17.3894L8.06146 18.9776L5.94279 18.9776C5.52858 18.9776 5.19279 19.3133 5.19278 19.7275C5.19277 20.1418 5.52855 20.4776 5.94276 20.4776L6.56381 20.4776L5.41246 21.6289C5.11957 21.9218 5.11957 22.3967 5.41247 22.6896ZM21.689 22.6971C21.9819 22.99 22.4568 22.99 22.7497 22.6971C23.0426 22.4043 23.0426 21.9294 22.7497 21.6365L21.5984 20.4851L22.2194 20.4851C22.6336 20.4851 22.9694 20.1493 22.9694 19.7351C22.9694 19.3209 22.6336 18.9851 22.2194 18.9851L20.0922 18.9852L18.4396 17.3791C18.1426 17.0904 17.6677 17.0972 17.3791 17.3942C17.0904 17.6913 17.0971 18.1661 17.3942 18.4548L19.0378 20.0521L19.0378 22.1668C19.0378 22.581 19.3736 22.9168 19.7878 22.9168C20.202 22.9168 20.5378 22.581 20.5378 22.1668L20.5378 21.5459L21.689 22.6971Z" fill="#332A2A"/>
</g>
<defs>
<clipPath id="clip0_666_9458">
<rect width="28" height="28" fill="white"/>
</clipPath>
</defs>
</svg>
