<svg width="23" height="23" viewBox="0 0 23 23" fill="none" xmlns="http://www.w3.org/2000/svg">
<g clip-path="url(#clip0_666_9483)">
<circle cx="11.4999" cy="11.4999" r="1.91667" fill="#E05149"/>
<path fill-rule="evenodd" clip-rule="evenodd" d="M10.5417 1.72095C10.9145 1.72095 11.2167 2.02316 11.2167 2.39595V2.60604C11.2167 2.81613 11.3276 3.00531 11.5 3.11025C11.6724 3.00531 11.7834 2.81613 11.7834 2.60604V2.39595C11.7834 2.02316 12.0856 1.72095 12.4584 1.72095C12.8312 1.72095 13.1334 2.02316 13.1334 2.39595V2.60604C13.1334 3.30756 12.7571 3.93816 12.175 4.27966V5.02643C12.4012 4.89759 12.5862 4.70391 12.7043 4.46769L12.813 4.25033C12.9797 3.91689 13.3851 3.78174 13.7186 3.94846C14.052 4.11518 14.1872 4.52063 14.0204 4.85407L13.9118 5.07143C13.5945 5.70599 13.0381 6.18851 12.3651 6.41286L11.7135 6.63006C11.5749 6.67624 11.4251 6.67624 11.2866 6.63006L10.635 6.41286C9.96195 6.18851 9.40559 5.70599 9.08831 5.07143L8.97963 4.85407C8.81291 4.52063 8.94806 4.11518 9.2815 3.94846C9.61493 3.78174 10.0204 3.91689 10.1871 4.25033L10.2958 4.46769C10.4139 4.70391 10.5989 4.89759 10.825 5.02643V4.27966C10.2429 3.93816 9.8667 3.30756 9.8667 2.60604V2.39595C9.8667 2.02316 10.1689 1.72095 10.5417 1.72095ZM8.85351 5.84214C9.19964 5.70369 9.59247 5.87205 9.73092 6.21818L9.77191 6.32066C9.95102 6.76842 10.3593 7.08352 10.8378 7.14333L11.5 7.22611L12.1623 7.14333C12.6408 7.08352 13.049 6.76842 13.2282 6.32066L13.2691 6.21818C13.4076 5.87205 13.8004 5.70369 14.1466 5.84214C14.4927 5.98059 14.661 6.37342 14.5226 6.71955L14.4816 6.82203C14.12 7.72601 13.2958 8.36214 12.3297 8.48291L12.175 8.50224V9.075C12.3672 9.12838 12.5502 9.20399 12.7209 9.29889L13.1855 8.83428C13.4491 8.57068 13.8765 8.57068 14.1401 8.83428C14.4037 9.09788 14.4037 9.52527 14.1401 9.78888L13.6826 10.2463C13.7863 10.4264 13.8683 10.6205 13.9252 10.8251H14.2583L14.2777 10.6704C14.3984 9.70434 15.0345 8.88014 15.9385 8.51855L16.041 8.47756C16.3871 8.33911 16.78 8.50746 16.9184 8.85359C17.0569 9.19972 16.8885 9.59255 16.5424 9.731L16.4399 9.77199C15.9921 9.9511 15.677 10.3593 15.6172 10.8379L15.5345 11.5001L15.6172 12.1623C15.677 12.6409 15.9921 13.0491 16.4399 13.2282L16.5424 13.2692C16.8885 13.4077 17.0569 13.8005 16.9184 14.1466C16.78 14.4928 16.3871 14.6611 16.041 14.5227L15.9385 14.4817C15.0345 14.1201 14.3984 13.2959 14.2777 12.3298L14.2583 12.1751H13.9252C13.873 12.3631 13.7995 12.5422 13.7075 12.7097L14.2496 13.2517C14.5132 13.5153 14.5132 13.9427 14.2496 14.2063C13.986 14.4699 13.5586 14.4699 13.295 14.2063L12.7649 13.6763C12.5817 13.783 12.3839 13.8672 12.175 13.9252V14.4381L12.3297 14.4574C13.2958 14.5782 14.12 15.2143 14.4816 16.1183L14.5226 16.2208C14.661 16.5669 14.4927 16.9597 14.1466 17.0982C13.8004 17.2366 13.4076 17.0683 13.2691 16.7222L13.2282 16.6197C13.049 16.1719 12.6408 15.8568 12.1623 15.797L11.5 15.7142L10.8378 15.797C10.3593 15.8568 9.95102 16.1719 9.77191 16.6197L9.73092 16.7222C9.59247 17.0683 9.19964 17.2366 8.85351 17.0982C8.50738 16.9597 8.33903 16.5669 8.47748 16.2208L8.51847 16.1183C8.88006 15.2143 9.70426 14.5782 10.6704 14.4574L10.825 14.4381V13.9252C10.6469 13.8757 10.4767 13.8072 10.3167 13.7218L9.83841 14.2001C9.5748 14.4637 9.14741 14.4637 8.88381 14.2001C8.62021 13.9365 8.62021 13.5091 8.88381 13.2455L9.33889 12.7905C9.22501 12.6001 9.13556 12.3935 9.07487 12.1749L8.74176 12.175L8.72241 12.3298C8.60165 13.2959 7.96551 14.1201 7.06154 14.4817L6.95905 14.5227C6.61293 14.6611 6.2201 14.4928 6.08164 14.1466C5.94319 13.8005 6.11155 13.4077 6.45768 13.2692L6.56016 13.2282C7.00792 13.0491 7.32302 12.6409 7.38283 12.1623L7.46561 11.5001L7.38283 10.8379C7.32302 10.3593 7.00792 9.9511 6.56016 9.77199L6.45768 9.731C6.11155 9.59255 5.94319 9.19972 6.08164 8.85359C6.2201 8.50746 6.61293 8.33911 6.95905 8.47756L7.06154 8.51855C7.96551 8.88014 8.60165 9.70434 8.72241 10.6704L8.74173 10.825L9.07496 10.8249C9.13296 10.6162 9.21719 10.4183 9.32388 10.2352L8.88381 9.7951C8.62021 9.5315 8.62021 9.10411 8.88381 8.84051C9.14741 8.57691 9.5748 8.57691 9.83841 8.84051L10.2905 9.29262C10.458 9.20065 10.6371 9.12719 10.825 9.075V8.50224L10.6704 8.48291C9.70426 8.36214 8.88006 7.72601 8.51847 6.82203L8.47748 6.71955C8.33903 6.37342 8.50738 5.98059 8.85351 5.84214ZM11.5 10.1834C10.7729 10.1834 10.1834 10.7729 10.1834 11.5001C10.1834 12.2273 10.7729 12.8168 11.5 12.8168C12.2272 12.8168 12.8167 12.2273 12.8167 11.5001C12.8167 10.7729 12.2272 10.1834 11.5 10.1834ZM11.2167 20.5444C11.2167 20.9172 10.9145 21.2194 10.5417 21.2194C10.1689 21.2194 9.8667 20.9172 9.8667 20.5444V20.3343C9.8667 19.6328 10.2429 19.0022 10.825 18.6607V17.9139C10.5989 18.0427 10.4139 18.2364 10.2958 18.4726L10.1871 18.69C10.0204 19.0234 9.61493 19.1586 9.2815 18.9919C8.94806 18.8252 8.81291 18.4197 8.97963 18.0863L9.08831 17.8689C9.40559 17.2343 9.96195 16.7518 10.635 16.5275L11.2866 16.3103C11.4251 16.2641 11.5749 16.2641 11.7135 16.3103L12.3651 16.5275C13.0381 16.7518 13.5945 17.2343 13.9118 17.8689L14.0204 18.0863C14.1872 18.4197 14.052 18.8252 13.7186 18.9919C13.3851 19.1586 12.9797 19.0234 12.813 18.69L12.7043 18.4726C12.5862 18.2364 12.4012 18.0427 12.175 17.9139V18.6607C12.7571 19.0022 13.1334 19.6328 13.1334 20.3343V20.5444C13.1334 20.9172 12.8312 21.2194 12.4584 21.2194C12.0856 21.2194 11.7834 20.9172 11.7834 20.5444V20.3343C11.7834 20.1242 11.6724 19.935 11.5 19.8301C11.3276 19.935 11.2167 20.1242 11.2167 20.3343V20.5444ZM21.0396 10.5418C21.0396 10.9146 20.7374 11.2168 20.3646 11.2168H20.1545C19.9444 11.2168 19.7553 11.3277 19.6503 11.5001C19.7553 11.6725 19.9444 11.7834 20.1545 11.7834H20.3646C20.7374 11.7834 21.0396 12.0857 21.0396 12.4584C21.0396 12.8312 20.7374 13.1334 20.3646 13.1334L20.1545 13.1334C19.453 13.1334 18.8224 12.7572 18.4809 12.1751H17.7341C17.863 12.4013 18.0567 12.5863 18.2929 12.7044L18.5102 12.813C18.8437 12.9798 18.9788 13.3852 18.8121 13.7186C18.6454 14.0521 18.2399 14.1872 17.9065 14.0205L17.6891 13.9118C17.0546 13.5946 16.572 13.0382 16.3477 12.3652L16.1305 11.7136C16.0843 11.575 16.0843 11.4252 16.1305 11.2867L16.3477 10.6351C16.572 9.96203 17.0546 9.40567 17.6891 9.08839L17.9065 8.97971C18.2399 8.81299 18.6454 8.94814 18.8121 9.28158C18.9788 9.61501 18.8437 10.0205 18.5102 10.1872L18.2929 10.2959C18.0567 10.414 17.863 10.599 17.7341 10.8251H18.4809C18.8224 10.243 19.453 9.86678 20.1545 9.86678H20.3646C20.7374 9.86678 21.0396 10.169 21.0396 10.5418ZM2.63545 11.2168C2.26266 11.2168 1.96045 10.9146 1.96045 10.5418C1.96045 10.169 2.26266 9.86678 2.63545 9.86678H2.84554C3.54707 9.86678 4.17766 10.243 4.51917 10.8251H5.26593C5.13709 10.599 4.94341 10.414 4.7072 10.2959L4.48983 10.1872C4.15639 10.0205 4.02124 9.61501 4.18796 9.28158C4.35468 8.94814 4.76013 8.81299 5.09357 8.97971L5.31093 9.08839C5.94549 9.40567 6.42802 9.96203 6.65237 10.6351L6.86956 11.2867C6.91575 11.4252 6.91575 11.575 6.86956 11.7136L6.65237 12.3652C6.42802 13.0382 5.94549 13.5946 5.31093 13.9118L5.09357 14.0205C4.76013 14.1872 4.35468 14.0521 4.18796 13.7186C4.02124 13.3852 4.15639 12.9798 4.48983 12.813L4.7072 12.7044C4.94341 12.5863 5.1371 12.4013 5.26593 12.1751H4.51917C4.17766 12.7572 3.54707 13.1334 2.84554 13.1334L2.63545 13.1334C2.26266 13.1334 1.96045 12.8312 1.96045 12.4584C1.96045 12.0857 2.26266 11.7834 2.63545 11.7834H2.84554C3.05563 11.7834 3.24481 11.6725 3.34975 11.5001C3.24481 11.3277 3.05563 11.2168 2.84554 11.2168H2.63545ZM4.40439 4.36105C4.66799 4.09745 5.09538 4.09745 5.35898 4.36106L6.20406 5.20615L6.20406 4.83835C6.20406 4.46556 6.50626 4.16335 6.87906 4.16335C7.25185 4.16334 7.55406 4.46555 7.55406 4.83834L7.55407 6.56263L8.66155 7.70699C8.92081 7.97487 8.91381 8.4022 8.64592 8.66145C8.37804 8.92071 7.95071 8.91371 7.69146 8.64582L6.59299 7.51078L4.88168 7.51082C4.50889 7.51083 4.20667 7.20863 4.20667 6.83583C4.20666 6.46304 4.50886 6.16083 4.88165 6.16082L5.24954 6.16081L4.40438 5.31564C4.14078 5.05204 4.14078 4.62465 4.40439 4.36105ZM17.6649 4.35483C17.9285 4.09122 18.3559 4.09122 18.6195 4.35482C18.8831 4.61842 18.8832 5.04581 18.6195 5.30941L17.7744 6.15458L18.1423 6.15459C18.5151 6.1546 18.8173 6.45681 18.8173 6.82961C18.8173 7.2024 18.515 7.5046 18.1422 7.50459L16.413 7.50455L15.1807 8.66732C14.9096 8.92316 14.4824 8.91075 14.2265 8.63961C13.9707 8.36846 13.9831 7.94126 14.2542 7.68542L15.4699 6.5384L15.4699 4.83211C15.4699 4.45932 15.7721 4.15712 16.1449 4.15712C16.5177 4.15712 16.8199 4.45933 16.8199 4.83212L16.8199 5.19992L17.6649 4.35483ZM4.40439 18.6796C4.66799 18.9432 5.09538 18.9432 5.35898 18.6796L6.20406 17.8345L6.20406 18.2023C6.20406 18.5751 6.50626 18.8773 6.87906 18.8773C7.25185 18.8773 7.55406 18.5751 7.55406 18.2023L7.55407 16.4824L8.83078 15.1923C9.09301 14.9274 9.09078 14.5 8.82581 14.2377C8.56083 13.9755 8.13345 13.9777 7.87122 14.2427L6.59743 15.5299L4.88168 15.5298C4.50889 15.5298 4.20667 15.832 4.20667 16.2048C4.20666 16.5776 4.50886 16.8798 4.88165 16.8798L5.24954 16.8798L4.40438 17.725C4.14078 17.9886 4.14078 18.416 4.40439 18.6796ZM17.7744 18.6858C18.038 18.9494 18.4654 18.9494 18.729 18.6858C18.9926 18.4222 18.9926 17.9948 18.729 17.7312L17.8839 16.886L18.2517 16.886C18.6245 16.886 18.9267 16.5838 18.9267 16.211C18.9267 15.8382 18.6245 15.536 18.2517 15.536L16.5283 15.5361L15.188 14.2335C14.9207 13.9737 14.4933 13.9798 14.2335 14.2471C13.9737 14.5144 13.9798 14.9418 14.2471 15.2016L15.5793 16.4963L15.5793 18.2085C15.5793 18.5813 15.8815 18.8835 16.2543 18.8835C16.6271 18.8835 16.9293 18.5813 16.9293 18.2085L16.9293 17.8407L17.7744 18.6858Z" fill="#332A2A"/>
</g>
<defs>
<clipPath id="clip0_666_9483">
<rect width="23" height="23" fill="white"/>
</clipPath>
</defs>
</svg>
