<svg width="44" height="44" viewBox="0 0 44 44" fill="none" xmlns="http://www.w3.org/2000/svg">
<g clip-path="url(#clip0_447_2803)">
<circle cx="21.9999" cy="21.9999" r="3.66667" fill="#E05149"/>
<path d="M21.7625 31.7151C21.9163 31.6638 22.0832 31.6639 22.2371 31.7151L24.2009 32.3704C24.8928 32.601 25.4656 33.0969 25.7917 33.7493L26.3376 34.842C26.5226 35.2125 26.3721 35.6627 26.0017 35.8479C25.6313 36.0328 25.181 35.8823 24.9958 35.512L24.45 34.4202C24.3017 34.1237 24.0417 33.8981 23.7273 33.7932L22.7498 33.468V35.9807C23.8392 36.3653 24.5836 37.3975 24.5837 38.5715V39.302C24.5837 39.7161 24.2478 40.0518 23.8337 40.052C23.4195 40.052 23.0837 39.7162 23.0837 39.302V38.5715C23.0836 37.9981 22.6928 37.4987 22.1365 37.3596L21.9998 37.3254L21.864 37.3596C21.3077 37.4987 20.9169 37.9981 20.9167 38.5715V39.302C20.9167 39.7162 20.581 40.052 20.1667 40.052C19.7525 40.052 19.4167 39.7162 19.4167 39.302V38.5715C19.4169 37.3978 20.1606 36.3655 21.2498 35.9807V33.468L20.2732 33.7932C19.9587 33.898 19.6988 34.1236 19.5505 34.4202L19.0046 35.512C18.8194 35.8824 18.3683 36.0331 17.9978 35.8479C17.6275 35.6627 17.4778 35.2124 17.6628 34.842L18.2087 33.7493C18.5349 33.097 19.1068 32.601 19.7986 32.3704L21.7625 31.7151ZM27.2419 27.1584C27.5348 26.8659 28.0097 26.8658 28.3025 27.1584L31.406 30.262H34.9167C35.3307 30.2622 35.6657 30.5979 35.6658 31.012C35.6658 31.426 35.3307 31.7617 34.9167 31.762H32.905L35.447 34.303C35.7397 34.5958 35.7395 35.0707 35.447 35.3635C35.1541 35.6563 34.6784 35.6564 34.3855 35.3635L31.8445 32.8225V34.8333C31.8444 35.2474 31.5087 35.5833 31.0945 35.5833C30.6807 35.5828 30.3445 35.2472 30.3445 34.8333V31.3225L27.2419 28.219C26.9492 27.9261 26.9492 27.4513 27.2419 27.1584ZM15.9529 27.1467C16.2457 26.854 16.7206 26.854 17.0134 27.1467C17.3062 27.4396 17.3062 27.9144 17.0134 28.2073L13.9099 31.3108V34.8215C13.9099 35.2356 13.5739 35.5713 13.1599 35.5715C12.7459 35.5713 12.4109 35.2356 12.4109 34.8215V32.8108L9.8689 35.3518C9.57602 35.6445 9.1012 35.6446 8.80835 35.3518C8.51568 35.059 8.51567 34.5841 8.80835 34.2913L11.3494 31.7502H9.33862C8.9246 31.7501 8.58867 31.4143 8.58862 31.0002C8.58866 30.5862 8.92458 30.2504 9.33862 30.2502H12.8494L15.9529 27.1467ZM25.8875 12.0959C26.0415 11.7117 26.4776 11.5252 26.8621 11.679C27.2465 11.8329 27.4338 12.2691 27.28 12.6536L26.8015 13.8499C26.4298 14.7791 25.5818 15.4327 24.5886 15.5569L22.7498 15.7864V17.6477C23.3982 17.7586 23.9982 18.0105 24.5173 18.3713L25.6072 17.2825C25.9 16.99 26.3749 16.99 26.6677 17.2825C26.9606 17.5754 26.9606 18.0511 26.6677 18.344L25.5857 19.4241C25.9687 19.9563 26.237 20.5764 26.3523 21.2493H27.7556L27.9851 19.4104C28.1094 18.4175 28.7631 17.5702 29.6921 17.1985L30.8884 16.72C31.2729 16.5664 31.7092 16.7536 31.863 17.1379C32.0167 17.5223 31.8301 17.9584 31.446 18.1125L30.2498 18.5911C29.8274 18.76 29.5299 19.1456 29.4734 19.5969L29.1726 21.9993L29.4734 24.4026C29.5298 24.854 29.8274 25.2395 30.2498 25.4084L31.446 25.887C31.83 26.041 32.0165 26.4773 31.863 26.8616C31.7091 27.246 31.2729 27.4332 30.8884 27.2795L29.6921 26.801C28.7628 26.4293 28.1093 25.5813 27.9851 24.5881L27.7556 22.7493H26.3523C26.2428 23.3898 25.995 23.9826 25.6414 24.4973L26.8767 25.7336C27.1696 26.0265 27.1696 26.5013 26.8767 26.7942C26.5838 27.0868 26.109 27.087 25.8162 26.7942L24.5955 25.5725C24.0588 25.963 23.431 26.2343 22.7498 26.3508V28.0989L24.5886 28.3284C25.5818 28.4525 26.4298 29.1061 26.8015 30.0354L27.28 31.2317C27.4338 31.6162 27.2465 32.0524 26.8621 32.2063C26.4776 32.3601 26.0415 32.1736 25.8875 31.7893L25.4089 30.593C25.24 30.1706 24.8545 29.8731 24.4031 29.8167L21.9998 29.5159L19.5974 29.8167C19.146 29.8731 18.7605 30.1706 18.5916 30.593L18.113 31.7893C17.9591 32.1736 17.5229 32.36 17.1384 32.2063C16.7538 32.0525 16.5666 31.6163 16.7205 31.2317L17.199 30.0354C17.5707 29.1062 18.4179 28.4526 19.4109 28.3284L21.2498 28.0989V26.3508C20.6285 26.2444 20.0514 26.0101 19.5476 25.6731L18.4392 26.7825C18.1464 27.0753 17.6706 27.0753 17.3777 26.7825C17.0851 26.4897 17.0852 26.0148 17.3777 25.7219L18.4587 24.6399C18.0508 24.0936 17.7679 23.4494 17.6482 22.7493H16.2449L16.0154 24.5881C15.8912 25.5813 15.2376 26.4293 14.3083 26.801L13.1121 27.2795C12.7275 27.4333 12.2914 27.246 12.1375 26.8616C11.9839 26.4772 12.1703 26.0409 12.5544 25.887L13.7507 25.4084C14.1731 25.2395 14.4706 24.854 14.5271 24.4026L14.8279 21.9993L14.5271 19.5969C14.4706 19.1456 14.1731 18.76 13.7507 18.5911L12.5544 18.1125C12.1702 17.9585 11.9837 17.5223 12.1375 17.1379C12.2914 16.7536 12.7276 16.5663 13.1121 16.72L14.3083 17.1985C15.2374 17.5702 15.8911 18.4175 16.0154 19.4104L16.2449 21.2493H17.6482C17.7648 20.5685 18.0363 19.9409 18.4265 19.4045L17.3777 18.3557C17.085 18.0629 17.0852 17.5881 17.3777 17.2952C17.6706 17.0024 18.1464 17.0023 18.4392 17.2952L19.5017 18.3577C20.0162 18.004 20.6095 17.7574 21.2498 17.6477V15.7864L19.4109 15.5569C18.4179 15.4327 17.5707 14.779 17.199 13.8499L16.7205 12.6536C16.5666 12.269 16.7538 11.8328 17.1384 11.679C17.5229 11.5252 17.9591 11.7116 18.113 12.0959L18.5916 13.2922C18.7605 13.7147 19.146 14.0122 19.5974 14.0686L21.9998 14.3694L24.4031 14.0686C24.8545 14.0121 25.24 13.7146 25.4089 13.2922L25.8875 12.0959ZM8.49585 17.9973C8.68115 17.6272 9.13143 17.4775 9.50171 17.6624L10.5945 18.2083C11.2467 18.5343 11.7427 19.1064 11.9734 19.7981L12.6287 21.762C12.6799 21.9157 12.6798 22.0828 12.6287 22.2366L11.9734 24.2004C11.7428 24.8923 11.2468 25.4651 10.5945 25.7913L9.50171 26.3372C9.1313 26.5221 8.68103 26.3716 8.49585 26.0012C8.31111 25.6309 8.46152 25.1805 8.83179 24.9954L9.92358 24.4495C10.22 24.3012 10.4457 24.0411 10.5505 23.7268L10.8757 22.7493H8.36304C7.97841 23.8387 6.94621 24.5831 5.77222 24.5833H5.04175C4.62764 24.5833 4.29192 24.2473 4.29175 23.8333C4.29192 23.4192 4.62764 23.0833 5.04175 23.0833H5.77222C6.34565 23.0831 6.84504 22.6923 6.98413 22.136L7.01831 21.9993L6.98413 21.8635C6.84494 21.3073 6.34555 20.9164 5.77222 20.9163H5.04175C4.62753 20.9163 4.29175 20.5805 4.29175 20.1663C4.29192 19.7522 4.62764 19.4163 5.04175 19.4163H5.77222C6.9459 19.4164 7.97817 20.1603 8.36304 21.2493H10.8757L10.5505 20.2727C10.4457 19.9583 10.22 19.6983 9.92358 19.55L8.83179 19.0042C8.4614 18.8189 8.31063 18.3678 8.49585 17.9973ZM34.4988 17.6624C34.8691 17.4777 35.3194 17.6272 35.5046 17.9973C35.6898 18.3677 35.5389 18.8188 35.1687 19.0042L34.0769 19.55C33.7805 19.6982 33.5548 19.9584 33.45 20.2727L33.1248 21.2493H35.6375C36.0223 20.1603 37.0546 19.4164 38.2283 19.4163H38.9587C39.3727 19.4164 39.7086 19.7523 39.7087 20.1663C39.7087 20.5804 39.3728 20.9161 38.9587 20.9163H38.2283C37.655 20.9164 37.1556 21.3074 37.0164 21.8635L36.9822 21.9993L37.0164 22.136C37.1554 22.6923 37.6548 23.0831 38.2283 23.0833H38.9587C39.3727 23.0834 39.7086 23.4193 39.7087 23.8333C39.7086 24.2472 39.3727 24.5831 38.9587 24.5833H38.2283C37.0543 24.5831 36.0221 23.8387 35.6375 22.7493H33.1248L33.45 23.7268C33.5548 24.0412 33.7805 24.3012 34.0769 24.4495L35.1687 24.9954C35.5388 25.1805 35.6893 25.6309 35.5046 26.0012C35.3195 26.3715 34.8692 26.522 34.4988 26.3372L33.406 25.7913C32.7537 25.4651 32.2577 24.8924 32.0271 24.2004L31.3718 22.2366C31.3207 22.0828 31.3206 21.9158 31.3718 21.762L32.0271 19.7981C32.2578 19.1065 32.7539 18.5343 33.406 18.2083L34.4988 17.6624ZM22.0007 19.0833C20.3899 19.0833 19.0837 20.3894 19.0837 22.0002C19.0839 23.6109 20.39 24.9163 22.0007 24.9163C23.6112 24.9159 24.9166 23.6107 24.9167 22.0002C24.9167 20.3896 23.6113 19.0836 22.0007 19.0833ZM13.1599 8.5061C13.5738 8.50632 13.9096 8.8413 13.9099 9.25513V12.7659L17.0134 15.8694C17.3063 16.1622 17.3061 16.637 17.0134 16.9299C16.7205 17.2228 16.2458 17.2228 15.9529 16.9299L12.8494 13.8274H9.33862C8.9247 13.8272 8.58886 13.4913 8.58862 13.0774C8.58861 12.6633 8.92456 12.3276 9.33862 12.3274H11.3494L8.80835 9.78638C8.51546 9.49348 8.51545 9.01774 8.80835 8.72485C9.10112 8.43225 9.57602 8.43242 9.8689 8.72485L12.4109 11.2668V9.25513C12.4112 8.84132 12.7461 8.50635 13.1599 8.5061ZM34.1765 8.71313C34.4693 8.42043 34.9442 8.42053 35.2371 8.71313C35.5299 9.00599 35.5298 9.48078 35.2371 9.77368L32.696 12.3147H34.7068C35.1209 12.3147 35.4566 12.6507 35.4568 13.0647C35.4567 13.4789 35.121 13.8147 34.7068 13.8147H31.196L28.0925 16.9182C27.7996 17.2109 27.3248 17.2111 27.032 16.9182C26.7394 16.6254 26.7393 16.1505 27.032 15.8577L30.1355 12.7542V9.24341C30.1357 8.82949 30.4716 8.49363 30.8855 8.49341C31.2996 8.49344 31.6353 8.82937 31.6355 9.24341V11.2542L34.1765 8.71313ZM23.8337 3.83325C24.2478 3.83343 24.5837 4.16915 24.5837 4.58325V5.31372C24.5836 6.48771 23.8392 7.51992 22.7498 7.90454V10.4172L23.7273 10.092C24.0417 9.98717 24.3017 9.76152 24.45 9.46509L24.9958 8.37329C25.181 8.00294 25.6313 7.85241 26.0017 8.03735C26.3721 8.22253 26.5226 8.6728 26.3376 9.04321L25.7917 10.136C25.4656 10.7883 24.8928 11.2843 24.2009 11.5149L22.2371 12.1702C22.0832 12.2214 21.9163 12.2215 21.7625 12.1702L19.7986 11.5149C19.1068 11.2842 18.5349 10.7882 18.2087 10.136L17.6628 9.04321C17.4778 8.67282 17.6275 8.22259 17.9978 8.03735C18.3683 7.85211 18.8194 8.00281 19.0046 8.37329L19.5505 9.46509C19.6988 9.76161 19.9587 9.9872 20.2732 10.092L21.2498 10.4172V7.90454C20.1606 7.51976 19.4169 6.4875 19.4167 5.31372V4.58325C19.4167 4.16904 19.7525 3.83325 20.1667 3.83325C20.581 3.83325 20.9167 4.16904 20.9167 4.58325V5.31372C20.9169 5.88716 21.3077 6.38655 21.864 6.52563L21.9998 6.55981L22.1365 6.52563C22.6928 6.38655 23.0836 5.88716 23.0837 5.31372V4.58325C23.0837 4.16904 23.4195 3.83325 23.8337 3.83325Z" fill="#332A2A"/>
</g>
<defs>
<clipPath id="clip0_447_2803">
<rect width="44" height="44" fill="white"/>
</clipPath>
</defs>
</svg>
