<svg width="23" height="23" viewBox="0 0 23 23" fill="none" xmlns="http://www.w3.org/2000/svg">
<g clip-path="url(#clip0_1834_15696)">
<path d="M9.87024 13.9971C10.2246 13.2126 11.3382 13.2126 11.6925 13.9971L11.8927 14.4405C11.9929 14.6623 12.1709 14.8403 12.3927 14.9405L12.8361 15.1407C13.6206 15.495 13.6206 16.6086 12.8361 16.963L12.3927 17.1641C12.171 17.2644 11.9928 17.4414 11.8927 17.6632L11.6925 18.1075C11.338 18.8913 10.2247 18.8914 9.87024 18.1075L9.67004 17.6632C9.56986 17.4414 9.39176 17.2643 9.17004 17.1641L8.72668 16.963C7.94216 16.6086 7.94216 15.495 8.72668 15.1407L9.17004 14.9405C9.3919 14.8403 9.56984 14.6624 9.67004 14.4405L9.87024 13.9971ZM15.587 8.47566C15.8981 7.57945 17.1658 7.57928 17.4767 8.47566L17.5441 8.67195C17.6444 8.96133 17.8719 9.18875 18.1613 9.28914L18.3575 9.3575C19.254 9.66842 19.2541 10.9364 18.3575 11.2471L18.1613 11.3145C17.8719 11.4149 17.6444 11.6424 17.5441 11.9317L17.4767 12.128C17.1659 13.0246 15.8979 13.0245 15.587 12.128L15.5187 11.9317C15.4183 11.6424 15.1908 11.4148 14.9015 11.3145L13.67 10.8878C13.1141 10.6951 13.1141 9.90859 13.67 9.71589L14.9015 9.28914C15.1909 9.18878 15.4183 8.96135 15.5187 8.67195L15.587 8.47566ZM6.99524 4.41316C7.34969 3.62919 8.46301 3.62923 8.8175 4.41316L9.31652 5.51765C9.41675 5.73935 9.59478 5.91652 9.81652 6.01667L10.92 6.5157C11.7042 6.87008 11.7042 7.98352 10.92 8.33796L9.81652 8.83699C9.59467 8.93719 9.41673 9.11513 9.31652 9.33699L8.8175 10.4405C8.46309 11.2247 7.34962 11.2248 6.99524 10.4405L6.49621 9.33699C6.39607 9.11525 6.21888 8.93722 5.99719 8.83699L4.8927 8.33796C4.10872 7.98348 4.10865 6.87012 4.8927 6.5157L5.99719 6.01667C6.2187 5.9165 6.39605 5.73917 6.49621 5.51765L6.99524 4.41316Z" fill="#E05149"/>
<path d="M9.9375 12.2061C10.2447 11.5258 11.1701 11.4831 11.5547 12.0781L11.624 12.2061L12.5576 14.2744L14.627 15.209C15.3526 15.5367 15.3526 16.5678 14.627 16.8955L12.5576 17.8291L11.624 19.8984C11.2961 20.6236 10.2653 20.6237 9.9375 19.8984L9.00293 17.8291L6.93457 16.8955C6.20904 16.5678 6.20923 15.5369 6.93457 15.209L9.00293 14.2744L9.9375 12.2061ZM10.168 14.9766C10.0752 15.1816 9.91016 15.3468 9.70508 15.4395L8.34668 16.0518L9.70508 16.666C9.88464 16.7471 10.0335 16.8825 10.1299 17.0527L10.168 17.1279L10.7803 18.4854L11.3945 17.1279L11.4326 17.0527C11.5289 16.8828 11.6772 16.7471 11.8564 16.666L13.2139 16.0518L11.8564 15.4395C11.6513 15.3468 11.4872 15.1817 11.3945 14.9766L10.7803 13.6182L10.168 14.9766ZM15.7217 6.06445C16.0642 5.42987 16.9995 5.42969 17.3418 6.06445L17.4053 6.21094L18.2334 8.59961L20.623 9.42773C21.4519 9.71542 21.452 10.8881 20.623 11.1758L18.2334 12.0039L17.4053 14.3936C17.1178 15.2229 15.9448 15.2228 15.6572 14.3936L14.8291 12.0039L12.4404 11.1758C11.611 10.8883 11.611 9.71522 12.4404 9.42773L14.8291 8.59961L15.6572 6.21094L15.7217 6.06445ZM16.0371 9.2373C15.9443 9.50458 15.734 9.71471 15.4668 9.80762L14.041 10.3018L15.4668 10.7959C15.7342 10.8888 15.9443 11.0997 16.0371 11.3672L16.5312 12.792L17.0254 11.3672C17.1182 11.0994 17.3289 10.8887 17.5967 10.7959L19.0215 10.3018L17.5967 9.80762C17.3291 9.71482 17.1183 9.5048 17.0254 9.2373L16.5312 7.81152L16.0371 9.2373ZM7.13281 2.49414C7.51748 1.89962 8.44173 1.94229 8.74902 2.62207L9.98145 5.35059L12.7109 6.58398C13.4364 6.91175 13.4362 7.94164 12.7109 8.26953L9.98145 9.50195L8.74902 12.2314C8.42122 12.9569 7.39128 12.9569 7.06348 12.2314L5.83008 9.50195L3.10156 8.26953C2.37607 7.94173 2.37607 6.91178 3.10156 6.58398L5.83008 5.35059L7.06348 2.62207L7.13281 2.49414ZM6.99512 6.05273C6.90246 6.25789 6.73736 6.42292 6.53223 6.51562L4.51465 7.42676L6.53223 8.33789C6.71183 8.41901 6.86067 8.55533 6.95703 8.72559L6.99512 8.80078L7.90625 10.8174L8.81738 8.80078L8.85547 8.72559C8.95183 8.55538 9.10071 8.41899 9.28027 8.33789L11.2969 7.42676L9.28027 6.51562C9.07506 6.42294 8.91007 6.25795 8.81738 6.05273L7.90625 4.03516L6.99512 6.05273Z" fill="#4C4443"/>
</g>
<defs>
<clipPath id="clip0_1834_15696">
<rect width="23" height="23" fill="white"/>
</clipPath>
</defs>
</svg>
