<svg width="23" height="23" viewBox="0 0 23 23" fill="none" xmlns="http://www.w3.org/2000/svg">
<g clip-path="url(#clip0_1834_15696)">
<path d="M9.86987 13.9971C10.2242 13.2126 11.3378 13.2126 11.6921 13.9971L11.8933 14.4404C11.9935 14.6622 12.1706 14.8402 12.3923 14.9404L12.8367 15.1406C13.6206 15.4951 13.6206 16.6084 12.8367 16.9629L12.3923 17.1641C12.1708 17.2642 11.9935 17.4416 11.8933 17.6631L11.6921 18.1074C11.3376 18.8913 10.2243 18.8914 9.86987 18.1074L9.66968 17.6631C9.56948 17.4413 9.39142 17.2642 9.16968 17.1641L8.72632 16.9629C7.9418 16.6086 7.9418 15.4949 8.72632 15.1406L9.16968 14.9404C9.39154 14.8402 9.56948 14.6623 9.66968 14.4404L9.86987 13.9971ZM15.5867 8.47559C15.8977 7.5794 17.1654 7.57927 17.4763 8.47559L17.5437 8.67188C17.644 8.96125 17.8716 9.18865 18.1609 9.28906L18.3572 9.35742C19.2537 9.66828 19.2538 10.9363 18.3572 11.2471L18.1609 11.3145C17.8716 11.4148 17.6441 11.6424 17.5437 11.9316L17.4763 12.1279C17.1655 13.0246 15.8975 13.0245 15.5867 12.1279L15.5183 11.9316C15.4179 11.6423 15.1905 11.4147 14.9011 11.3145L13.6697 10.8877C13.1137 10.695 13.1137 9.90851 13.6697 9.71582L14.9011 9.28906C15.1906 9.18872 15.418 8.9613 15.5183 8.67188L15.5867 8.47559ZM6.99487 4.41309C7.34931 3.62913 8.46262 3.62922 8.81714 4.41309L9.31616 5.51758C9.41639 5.73931 9.59439 5.91644 9.81616 6.0166L10.9197 6.51562C11.704 6.86997 11.7039 7.98347 10.9197 8.33789L9.81616 8.83691C9.5943 8.93712 9.41636 9.11506 9.31616 9.33691L8.81714 10.4404C8.46271 11.2247 7.34922 11.2247 6.99487 10.4404L6.49585 9.33691C6.39569 9.11514 6.21856 8.93714 5.99683 8.83691L4.89233 8.33789C4.10848 7.98337 4.1084 6.87007 4.89233 6.51562L5.99683 6.0166C6.21837 5.91643 6.39567 5.73912 6.49585 5.51758L6.99487 4.41309Z" fill="#E05149"/>
<path d="M9.99033 12.1988C10.2976 11.5186 11.2229 11.4758 11.6075 12.0709L11.6769 12.1988L12.6104 14.2671L14.6798 15.2017C15.4055 15.5295 15.4055 16.5605 14.6798 16.8882L12.6104 17.8218L11.6769 19.8912C11.3489 20.6163 10.3181 20.6165 9.99033 19.8912L9.05576 17.8218L6.9874 16.8882C6.26208 16.5605 6.26228 15.5297 6.9874 15.2017L9.05576 14.2671L9.99033 12.1988ZM10.2208 14.9693C10.1281 15.1743 9.96296 15.3396 9.75791 15.4322L8.39951 16.0445L9.75791 16.6587C9.93747 16.7398 10.0864 16.8753 10.1827 17.0455L10.2208 17.1207L10.8331 18.4781L11.4474 17.1207L11.4854 17.0455C11.5817 16.8756 11.7301 16.7398 11.9093 16.6587L13.2667 16.0445L11.9093 15.4322C11.7042 15.3395 11.54 15.1744 11.4474 14.9693L10.8331 13.6109L10.2208 14.9693ZM15.7745 6.05718C16.117 5.42251 17.0523 5.42239 17.3946 6.05718L17.4581 6.20367L18.2862 8.59234L20.6759 9.42046C21.505 9.70807 21.505 10.8809 20.6759 11.1685L18.2862 11.9966L17.4581 14.3863C17.1706 15.2157 15.9976 15.2156 15.7101 14.3863L14.8819 11.9966L12.4933 11.1685C11.6638 10.881 11.6638 9.70794 12.4933 9.42046L14.8819 8.59234L15.7101 6.20367L15.7745 6.05718ZM16.0899 9.23003C15.9971 9.49737 15.7869 9.70747 15.5196 9.80035L14.0938 10.2945L15.5196 10.7886C15.7871 10.8815 15.9972 11.0924 16.0899 11.3599L16.5841 12.7847L17.0782 11.3599C17.171 11.0921 17.3817 10.8814 17.6495 10.7886L19.0743 10.2945L17.6495 9.80035C17.382 9.70755 17.1711 9.49755 17.0782 9.23003L16.5841 7.80425L16.0899 9.23003ZM7.18564 2.48687C7.57026 1.89226 8.49451 1.93503 8.80185 2.6148L10.0343 5.34331L12.7638 6.57671C13.4892 6.90451 13.4892 7.93445 12.7638 8.26226L10.0343 9.49468L8.80185 12.2242C8.47406 12.9497 7.44411 12.9497 7.11631 12.2242L5.88291 9.49468L3.15439 8.26226C2.42906 7.93439 2.42895 6.90449 3.15439 6.57671L5.88291 5.34331L7.11631 2.6148L7.18564 2.48687ZM7.04795 6.04546C6.95527 6.25067 6.79026 6.41567 6.58506 6.50835L4.56748 7.41949L6.58506 8.33062C6.76463 8.41172 6.9135 8.5481 7.00986 8.71831L7.04795 8.79351L7.95908 10.8101L8.87021 8.79351L8.9083 8.71831C9.00466 8.54807 9.15351 8.41173 9.3331 8.33062L11.3497 7.41949L9.3331 6.50835C9.12796 6.41565 8.96288 6.25063 8.87021 6.04546L7.95908 4.02788L7.04795 6.04546Z" fill="#332A2A"/>
</g>
<defs>
<clipPath id="clip0_1834_15696">
<rect width="23" height="23" fill="white"/>
</clipPath>
</defs>
</svg>
