<svg width="18" height="18" viewBox="0 0 18 18" fill="none" xmlns="http://www.w3.org/2000/svg">
<g clip-path="url(#clip0_1834_15661)">
<path d="M8.25209 9.87097C8.34074 9.67515 8.61946 9.67519 8.70814 9.87097L9.43275 11.4764C9.45777 11.5318 9.50239 11.5764 9.55775 11.6014L11.1632 12.327C11.3592 12.4157 11.3592 12.6935 11.1632 12.7821L9.55775 13.5077C9.50254 13.5327 9.45777 13.5765 9.43275 13.6317L8.70814 15.2372C8.61956 15.4333 8.34067 15.4333 8.25209 15.2372L7.52748 13.6317C7.50244 13.5765 7.45773 13.5327 7.40248 13.5077L5.79701 12.7821C5.60115 12.6935 5.60124 12.4157 5.79701 12.327L7.40248 11.6014C7.4579 11.5764 7.50244 11.5319 7.52748 11.4764L8.25209 9.87097ZM12.7443 5.1737C12.822 4.94953 13.1383 4.94953 13.216 5.1737L13.8576 7.02331C13.8827 7.09546 13.9396 7.15258 14.0119 7.17761L15.8615 7.81824C16.0853 7.89608 16.0854 8.21312 15.8615 8.29089L14.0119 8.93152C13.9395 8.95658 13.8827 9.01352 13.8576 9.08581L13.216 10.9354C13.1382 11.1594 12.822 11.1594 12.7443 10.9354L12.1027 9.08581C12.0776 9.01354 12.0207 8.95658 11.9484 8.93152L10.0988 8.29089C9.87505 8.21306 9.87512 7.89615 10.0988 7.81824L10.7404 7.59558L11.9484 7.17761C12.0206 7.15259 12.0775 7.09544 12.1027 7.02331L12.7443 5.1737ZM6.00209 2.37097C6.09074 2.17515 6.36946 2.17519 6.45814 2.37097L7.41615 4.49304C7.44117 4.54844 7.48578 4.59297 7.54115 4.61804L9.66322 5.57702C9.85916 5.66569 9.85925 5.94353 9.66322 6.0321L7.54115 6.99011C7.48577 7.01512 7.44122 7.05976 7.41615 7.11511L6.45814 9.23718C6.36956 9.43331 6.09067 9.43331 6.00209 9.23718L5.04408 7.11511C5.01901 7.05979 4.97444 7.01511 4.91908 6.99011L2.79701 6.0321C2.60115 5.94348 2.60124 5.66573 2.79701 5.57702L4.91908 4.61804C4.97451 4.59298 5.01904 4.54848 5.04408 4.49304L6.00209 2.37097Z" fill="#332A2A"/>
</g>
<defs>
<clipPath id="clip0_1834_15661">
<rect width="18" height="18" fill="white"/>
</clipPath>
</defs>
</svg>
