<svg width="18" height="18" viewBox="0 0 18 18" fill="none" xmlns="http://www.w3.org/2000/svg">
<g clip-path="url(#clip0_1834_15697)">
<path d="M8.20996 9.87988C8.29854 9.68375 8.57646 9.68375 8.66504 9.87988L9.39062 11.4854C9.41571 11.5406 9.46032 11.5844 9.51562 11.6094L11.1201 12.335C11.3162 12.4235 11.3162 12.7024 11.1201 12.791L9.51562 13.5156C9.46016 13.5407 9.41568 13.5852 9.39062 13.6406L8.66504 15.2461C8.57632 15.4417 8.29869 15.4417 8.20996 15.2461L7.48438 13.6406C7.45932 13.5852 7.41484 13.5407 7.35938 13.5156L5.75488 12.791C5.55875 12.7024 5.55875 12.4235 5.75488 12.335L7.35938 11.6094C7.41469 11.5844 7.45929 11.5406 7.48438 11.4854L8.20996 9.87988ZM12.7012 5.18164C12.7789 4.95753 13.0961 4.95752 13.1738 5.18164L13.8145 7.03125C13.8395 7.10354 13.8965 7.16042 13.9688 7.18555L15.8184 7.82617C16.0425 7.90387 16.0425 8.22113 15.8184 8.29883L13.9688 8.93945C13.8964 8.96456 13.8395 9.02239 13.8145 9.09473L13.1738 10.9434C13.0961 11.1675 12.7789 11.1675 12.7012 10.9434L12.0605 9.09473C12.0355 9.0224 11.9786 8.96456 11.9062 8.93945L10.0566 8.29883C9.83247 8.22113 9.83247 7.90387 10.0566 7.82617L10.6982 7.60449L11.9062 7.18555C11.9785 7.16042 12.0355 7.10353 12.0605 7.03125L12.7012 5.18164ZM5.95996 2.37988C6.04854 2.18375 6.32646 2.18375 6.41504 2.37988L7.37402 4.50195C7.39911 4.55721 7.44371 4.60197 7.49902 4.62695L9.62012 5.58496C9.81625 5.67354 9.81625 5.95243 9.62012 6.04102L7.49902 6.99902C7.44356 7.02407 7.39907 7.06856 7.37402 7.12402L6.41504 9.24609C6.32632 9.44168 6.04869 9.44167 5.95996 9.24609L5.00098 7.12402C4.97593 7.06856 4.93144 7.02407 4.87598 6.99902L2.75488 6.04102C2.55875 5.95243 2.55875 5.67354 2.75488 5.58496L4.87598 4.62695C4.9313 4.60197 4.97589 4.55721 5.00098 4.50195L5.95996 2.37988Z" fill="#4C4443"/>
</g>
<defs>
<clipPath id="clip0_1834_15697">
<rect width="18" height="18" fill="white"/>
</clipPath>
</defs>
</svg>
