<svg width="28" height="28" viewBox="0 0 28 28" fill="none" xmlns="http://www.w3.org/2000/svg">
<g clip-path="url(#clip0_1834_15695)">
<path d="M12.2136 16.6011C12.568 15.8168 13.6814 15.8169 14.0359 16.6011L14.5125 17.6548C14.6126 17.8765 14.7898 18.0546 15.0115 18.1548L16.0652 18.6304C16.8497 18.9847 16.8497 20.0983 16.0652 20.4526L15.0115 20.9292C14.79 21.0294 14.6126 21.2067 14.5125 21.4282L14.0359 22.4819C13.6816 23.2665 12.5679 23.2665 12.2136 22.4819L11.738 21.4282C11.6378 21.2065 11.4598 21.0294 11.238 20.9292L10.1843 20.4526C9.40013 20.0982 9.40003 18.9847 10.1843 18.6304L11.238 18.1548C11.4599 18.0546 11.6378 17.8766 11.738 17.6548L12.2136 16.6011ZM19.1804 9.72607C19.4913 8.82954 20.7593 8.82944 21.0701 9.72607L21.3923 10.6567C21.4926 10.9461 21.7202 11.1735 22.0095 11.2739L22.9402 11.5972C23.8369 11.908 23.8369 13.176 22.9402 13.4868L22.0095 13.8091C21.7202 13.9094 21.4927 14.1369 21.3923 14.4263L21.0701 15.3569C20.7593 16.2536 19.4912 16.2536 19.1804 15.3569L18.8572 14.4263C18.7568 14.1369 18.5294 13.9094 18.24 13.8091L16.6414 13.2544C15.9645 13.0198 15.9645 12.0632 16.6414 11.8286L18.24 11.2739C18.5295 11.1736 18.7568 10.9462 18.8572 10.6567L19.1804 9.72607ZM8.71362 4.93408C9.06807 4.15016 10.1814 4.15025 10.5359 4.93408L11.3748 6.7915C11.4749 7.01333 11.6529 7.19129 11.8748 7.2915L13.7322 8.13037C14.5165 8.4847 14.5164 9.59821 13.7322 9.95264L11.8748 10.7915C11.6529 10.8917 11.475 11.0696 11.3748 11.2915L10.5359 13.1489C10.1815 13.9332 9.06796 13.9333 8.71362 13.1489L7.87476 11.2915C7.77455 11.0697 7.59658 10.8917 7.37476 10.7915L5.51733 9.95264C4.7335 9.5981 4.7334 8.48481 5.51733 8.13037L7.37476 7.2915C7.59661 7.1913 7.77455 7.01336 7.87476 6.7915L8.71362 4.93408Z" fill="#E05149"/>
<path fill-rule="evenodd" clip-rule="evenodd" d="M12.1505 15.0963C12.6354 14.3451 13.7565 14.345 14.2413 15.0963L14.3351 15.2681L15.3048 17.4156L17.4542 18.3873C18.434 18.8305 18.4342 20.2226 17.4542 20.6656L15.3048 21.6353L14.3351 23.7847C13.8921 24.7648 12.4999 24.7646 12.0567 23.7847L11.0851 21.6353L8.93759 20.6656C7.95697 20.2227 7.95704 18.8302 8.93759 18.3873L11.0851 17.4156L12.0567 15.2681L12.1505 15.0963ZM12.4142 18.1197C12.2889 18.3969 12.0664 18.6195 11.7892 18.7447L10.0587 19.5259L11.7892 20.3072C12.0663 20.4324 12.2889 20.6551 12.4142 20.9322L13.1954 22.6617L13.9767 20.9322C14.1019 20.6549 14.3243 20.4325 14.6017 20.3072L16.3311 19.5259L14.6017 18.7447C14.3245 18.6195 14.1019 18.3968 13.9767 18.1197L13.1954 16.3892L12.4142 18.1197ZM19.0138 8.10115C19.4024 6.98093 20.9872 6.98116 21.3761 8.10115L22.211 10.5103L24.6192 11.3443C25.7401 11.7328 25.7401 13.3181 24.6192 13.7066L22.211 14.5416L21.3761 16.9498C20.9876 18.0706 19.4022 18.0706 19.0138 16.9498L18.1798 14.5416L15.7706 13.7066C14.6506 13.3177 14.6503 11.7329 15.7706 11.3443L18.1788 10.5093L19.0138 8.10115ZM19.5567 11.1158C19.4313 11.4776 19.147 11.7618 18.7852 11.8873L16.9434 12.525L18.7852 13.1636C19.1468 13.289 19.4311 13.5737 19.5567 13.9351L20.1944 15.776L20.8331 13.9351C20.9586 13.5737 21.2432 13.2891 21.6046 13.1636L23.4454 12.525L21.6046 11.8873C21.2432 11.7617 20.9584 11.4773 20.8331 11.1158L20.1944 9.274L19.5567 11.1158ZM8.55575 3.60115C8.97108 2.68168 10.2219 2.62439 10.7413 3.42927L10.8351 3.60115L12.1681 6.55232L15.1202 7.8863C16.1009 8.32921 16.1009 9.72269 15.1202 10.1656L12.1681 11.4986L10.8351 14.4508C10.3921 15.4314 8.99866 15.4314 8.55575 14.4508L7.22177 11.4986L4.2706 10.1656C3.29003 9.72266 3.28999 8.3292 4.2706 7.8863L7.22177 6.55232L8.55575 3.60115ZM8.55087 7.25642C8.42562 7.53374 8.20319 7.75617 7.92587 7.88142L5.39072 9.02595L7.92587 10.1705C8.16848 10.2801 8.3689 10.464 8.49911 10.6939L8.55087 10.7955L9.6954 13.3297L10.8399 10.7955L10.8917 10.6939C11.0219 10.464 11.2223 10.2801 11.4649 10.1705L13.9991 9.02595L11.4649 7.88142C11.1876 7.75616 10.9652 7.53372 10.8399 7.25642L9.6954 4.72126L8.55087 7.25642Z" fill="#332A2A"/>
</g>
<defs>
<clipPath id="clip0_1834_15695">
<rect width="28" height="28" fill="white"/>
</clipPath>
</defs>
</svg>
