<svg width="23" height="23" viewBox="0 0 23 23" fill="none" xmlns="http://www.w3.org/2000/svg">
<g clip-path="url(#clip0_1834_15660)">
<path d="M9.9375 12.2061C10.2447 11.5258 11.1701 11.4831 11.5547 12.0781L11.624 12.2061L12.5576 14.2744L14.627 15.209C15.3526 15.5367 15.3526 16.5678 14.627 16.8955L12.5576 17.8291L11.624 19.8984C11.2961 20.6236 10.2653 20.6237 9.9375 19.8984L9.00293 17.8291L6.93457 16.8955C6.20904 16.5678 6.20923 15.5369 6.93457 15.209L9.00293 14.2744L9.9375 12.2061ZM10.168 14.9766C10.0752 15.1816 9.91016 15.3468 9.70508 15.4395L8.34668 16.0518L9.70508 16.666C9.88464 16.7471 10.0335 16.8825 10.1299 17.0527L10.168 17.1279L10.7803 18.4854L11.3945 17.1279L11.4326 17.0527C11.5289 16.8828 11.6772 16.7471 11.8564 16.666L13.2139 16.0518L11.8564 15.4395C11.6513 15.3468 11.4872 15.1817 11.3945 14.9766L10.7803 13.6182L10.168 14.9766ZM15.7217 6.06445C16.0642 5.42987 16.9995 5.42969 17.3418 6.06445L17.4053 6.21094L18.2334 8.59961L20.623 9.42773C21.4519 9.71542 21.452 10.8881 20.623 11.1758L18.2334 12.0039L17.4053 14.3936C17.1178 15.2229 15.9448 15.2228 15.6572 14.3936L14.8291 12.0039L12.4404 11.1758C11.611 10.8883 11.611 9.71522 12.4404 9.42773L14.8291 8.59961L15.6572 6.21094L15.7217 6.06445ZM16.0371 9.2373C15.9443 9.50458 15.734 9.71471 15.4668 9.80762L14.041 10.3018L15.4668 10.7959C15.7342 10.8888 15.9443 11.0997 16.0371 11.3672L16.5312 12.792L17.0254 11.3672C17.1182 11.0994 17.3289 10.8887 17.5967 10.7959L19.0215 10.3018L17.5967 9.80762C17.3291 9.71482 17.1183 9.5048 17.0254 9.2373L16.5312 7.81152L16.0371 9.2373ZM7.13281 2.49414C7.51748 1.89962 8.44173 1.94229 8.74902 2.62207L9.98145 5.35059L12.7109 6.58398C13.4364 6.91175 13.4362 7.94164 12.7109 8.26953L9.98145 9.50195L8.74902 12.2314C8.42122 12.9569 7.39128 12.9569 7.06348 12.2314L5.83008 9.50195L3.10156 8.26953C2.37607 7.94173 2.37607 6.91178 3.10156 6.58398L5.83008 5.35059L7.06348 2.62207L7.13281 2.49414ZM6.99512 6.05273C6.90246 6.25789 6.73736 6.42292 6.53223 6.51562L4.51465 7.42676L6.53223 8.33789C6.71183 8.41901 6.86067 8.55533 6.95703 8.72559L6.99512 8.80078L7.90625 10.8174L8.81738 8.80078L8.85547 8.72559C8.95183 8.55538 9.10071 8.41899 9.28027 8.33789L11.2969 7.42676L9.28027 6.51562C9.07506 6.42294 8.91007 6.25795 8.81738 6.05273L7.90625 4.03516L6.99512 6.05273Z" fill="#4C4443"/>
</g>
<defs>
<clipPath id="clip0_1834_15660">
<rect width="23" height="23" fill="white"/>
</clipPath>
</defs>
</svg>
