<svg width="44" height="44" viewBox="0 0 44 44" fill="none" xmlns="http://www.w3.org/2000/svg">
<g clip-path="url(#clip0_1834_15658)">
<path d="M19.0304 24.6257C19.6506 23.2532 21.5997 23.2532 22.2198 24.6257L23.5773 27.6315C23.6023 27.6867 23.6471 27.7315 23.7023 27.7565L26.7071 29.114C28.08 29.734 28.08 31.6833 26.7071 32.3034L23.7023 33.6608C23.6469 33.6859 23.6023 33.7305 23.5773 33.7858L22.2198 36.7907C21.5997 38.1635 19.6505 38.1635 19.0304 36.7907L17.673 33.7858C17.648 33.7306 17.6032 33.6859 17.548 33.6608L14.5421 32.3034C13.1698 31.6832 13.17 29.7343 14.5421 29.114L17.548 27.7565C17.6033 27.7315 17.6479 27.6869 17.673 27.6315L19.0304 24.6257ZM20.8527 25.2429C20.7638 25.0473 20.4852 25.0471 20.3966 25.2429L19.0392 28.2487C18.8638 28.6367 18.5532 28.9474 18.1652 29.1227L15.1593 30.4802C14.9639 30.5689 14.964 30.8474 15.1593 30.9362L18.1652 32.2936C18.5531 32.4689 18.8638 32.7798 19.0392 33.1677L20.3966 36.1735C20.4852 36.3696 20.764 36.3695 20.8527 36.1735L22.2101 33.1677C22.3854 32.7798 22.6963 32.469 23.0841 32.2936L26.09 30.9362C26.286 30.8476 26.2861 30.5687 26.09 30.4802L23.0841 29.1227C22.6963 28.9473 22.3853 28.6366 22.2101 28.2487L20.8527 25.2429ZM29.9718 13.4802C30.5159 11.9115 32.7354 11.9114 33.2794 13.4802L34.4161 16.7624C34.4412 16.8348 34.499 16.8916 34.5714 16.9167L37.8536 18.0544C39.4223 18.5984 39.4222 20.8179 37.8536 21.362L34.5714 22.4987C34.4992 22.5238 34.4413 22.5818 34.4161 22.654L33.2794 25.9362C32.7355 27.5052 30.5158 27.5051 29.9718 25.9362L28.8341 22.654C28.809 22.5818 28.752 22.5238 28.6798 22.4987L25.3976 21.362C23.8284 20.8181 23.8284 18.5983 25.3976 18.0544L28.6798 16.9167C28.752 16.8915 28.8091 16.8346 28.8341 16.7624L29.9718 13.4802ZM31.8614 13.9714C31.7836 13.7477 31.4667 13.7478 31.3888 13.9714L30.2511 17.2536C30.0755 17.7601 29.6775 18.158 29.171 18.3337L25.8888 19.4714C25.6646 19.5491 25.6647 19.8663 25.8888 19.944L29.171 21.0817C29.6775 21.2573 30.0755 21.6563 30.2511 22.1628L31.3888 25.445C31.4665 25.6689 31.7835 25.6687 31.8614 25.445L32.9991 22.1628C33.1748 21.6564 33.5737 21.2573 34.0802 21.0817L37.3624 19.944C37.5857 19.8659 37.586 19.5492 37.3624 19.4714L34.0802 18.3337C33.5736 18.1581 33.1747 17.7602 32.9991 17.2536L31.8614 13.9714ZM13.5304 6.29267C14.1505 4.92003 16.0997 4.92002 16.7198 6.29267L18.6476 10.5612C18.6726 10.6166 18.7172 10.6612 18.7726 10.6862L23.0411 12.614C24.4137 13.2341 24.4138 15.1833 23.0411 15.8034L18.7726 17.7311C18.7172 17.7562 18.6726 17.8007 18.6476 17.8561L16.7198 22.1247C16.0996 23.4971 14.1506 23.4971 13.5304 22.1247L11.6027 17.8561C11.5776 17.8007 11.5331 17.7562 11.4777 17.7311L7.2091 15.8034C5.83651 15.1833 5.8366 13.2342 7.2091 12.614L11.4777 10.6862C11.533 10.6612 11.5776 10.6166 11.6027 10.5612L13.5304 6.29267ZM15.3527 6.90985C15.2639 6.71432 14.9863 6.71431 14.8976 6.90985L12.9698 11.1784C12.7945 11.5666 12.483 11.8781 12.0948 12.0534L7.82628 13.9811C7.6309 14.0699 7.63079 14.3475 7.82628 14.4362L12.0948 16.364C12.4831 16.5393 12.7945 16.8507 12.9698 17.239L14.8976 21.5075C14.9864 21.7028 15.2638 21.7028 15.3527 21.5075L17.2804 17.239C17.4557 16.8508 17.7672 16.5393 18.1554 16.364L22.4239 14.4362C22.6195 14.3475 22.6194 14.0699 22.4239 13.9811L18.1554 12.0534C17.7672 11.8781 17.4558 11.5666 17.2804 11.1784L15.3527 6.90985Z" fill="#4C4443"/>
</g>
<defs>
<clipPath id="clip0_1834_15658">
<rect width="44" height="44" fill="white"/>
</clipPath>
</defs>
</svg>
