<svg width="28" height="28" viewBox="0 0 28 28" fill="none" xmlns="http://www.w3.org/2000/svg">
<g clip-path="url(#clip0_1834_15695)">
<path d="M12.2136 16.6011C12.568 15.8168 13.6815 15.8169 14.0359 16.6011L14.5125 17.6548C14.6127 17.8766 14.7898 18.0547 15.0115 18.1548L16.0652 18.6304C16.8497 18.9848 16.8497 20.0984 16.0652 20.4527L15.0115 20.9293C14.79 21.0294 14.6126 21.2068 14.5125 21.4283L14.0359 22.482C13.6816 23.2665 12.568 23.2665 12.2136 22.482L11.7381 21.4283C11.6379 21.2066 11.4598 21.0295 11.2381 20.9293L10.1843 20.4527C9.40014 20.0983 9.40007 18.9848 10.1843 18.6304L11.2381 18.1548C11.4599 18.0546 11.6379 17.8767 11.7381 17.6548L12.2136 16.6011ZM19.1804 9.72614C19.4913 8.82956 20.7593 8.82949 21.0701 9.72614L21.3924 10.6568C21.4927 10.9462 21.7202 11.1736 22.0095 11.274L22.9402 11.5972C23.8369 11.908 23.8369 13.1761 22.9402 13.4869L22.0095 13.8091C21.7202 13.9095 21.4927 14.137 21.3924 14.4263L21.0701 15.357C20.7593 16.2537 19.4912 16.2537 19.1804 15.357L18.8572 14.4263C18.7568 14.137 18.5294 13.9095 18.24 13.8091L16.6414 13.2545C15.9646 13.0199 15.9646 12.0633 16.6414 11.8287L18.24 11.274C18.5295 11.1737 18.7569 10.9463 18.8572 10.6568L19.1804 9.72614ZM8.71365 4.93415C9.06807 4.15016 10.1814 4.15025 10.5359 4.93415L11.3748 6.79157C11.475 7.0134 11.653 7.19136 11.8748 7.29157L13.7322 8.13044C14.5165 8.48478 14.5165 9.59829 13.7322 9.9527L11.8748 10.7916C11.6529 10.8918 11.475 11.0697 11.3748 11.2916L10.5359 13.149C10.1815 13.9332 9.068 13.9333 8.71365 13.149L7.87478 11.2916C7.77457 11.0697 7.59662 10.8918 7.37478 10.7916L5.51736 9.9527C4.73351 9.59818 4.73344 8.48489 5.51736 8.13044L7.37478 7.29157C7.59664 7.19137 7.77458 7.01343 7.87478 6.79157L8.71365 4.93415Z" fill="#E05149"/>
<path d="M12.0798 15.1118C12.5648 14.3607 13.6858 14.3606 14.1707 15.1118L14.2644 15.2837L15.2341 17.4312L17.3835 18.4028C18.3634 18.846 18.3637 20.2382 17.3835 20.6812L15.2341 21.6509L14.2644 23.8003C13.8214 24.7802 12.4293 24.7801 11.9861 23.8003L11.0144 21.6509L8.86694 20.6812C7.88633 20.2383 7.8864 18.8458 8.86694 18.4028L11.0144 17.4312L11.9861 15.2837L12.0798 15.1118ZM12.3435 18.1353C12.2182 18.4125 11.9957 18.635 11.7185 18.7603L9.98804 19.5415L11.7185 20.3228C11.9956 20.448 12.2183 20.6706 12.3435 20.9478L13.1248 22.6772L13.906 20.9478C14.0313 20.6704 14.2537 20.448 14.531 20.3228L16.2605 19.5415L14.531 18.7603C14.2539 18.635 14.0313 18.4123 13.906 18.1353L13.1248 16.4048L12.3435 18.1353ZM18.9431 8.1167C19.3317 6.99634 20.9166 6.9966 21.3054 8.1167L22.1404 10.5259L24.5486 11.3599C25.6694 11.7483 25.6694 13.3337 24.5486 13.7222L22.1404 14.5571L21.3054 16.9653C20.9169 18.0862 19.3316 18.0862 18.9431 16.9653L18.1091 14.5571L15.7 13.7222C14.58 13.3333 14.5798 11.7485 15.7 11.3599L18.1082 10.5249L18.9431 8.1167ZM19.4861 11.1313C19.3606 11.4931 19.0764 11.7774 18.7146 11.9028L16.8728 12.5405L18.7146 13.1792C19.0762 13.3045 19.3605 13.5892 19.4861 13.9507L20.1238 15.7915L20.7625 13.9507C20.8879 13.5892 21.1725 13.3047 21.5339 13.1792L23.3748 12.5405L21.5339 11.9028C21.1725 11.7772 20.8878 11.4929 20.7625 11.1313L20.1238 9.28955L19.4861 11.1313ZM8.48511 3.6167C8.90041 2.69716 10.1513 2.63989 10.6707 3.44482L10.7644 3.6167L12.0974 6.56787L15.0496 7.90186C16.0302 8.34476 16.0302 9.73825 15.0496 10.1812L12.0974 11.5142L10.7644 14.4663C10.3215 15.4469 8.928 15.4469 8.48511 14.4663L7.15112 11.5142L4.19995 10.1812C3.21944 9.73821 3.21945 8.3448 4.19995 7.90186L7.15112 6.56787L8.48511 3.6167ZM8.48022 7.27197C8.35497 7.54926 8.13253 7.77173 7.85522 7.89697L5.32007 9.0415L7.85522 10.186C8.09785 10.2956 8.29825 10.4795 8.42847 10.7095L8.48022 10.811L9.62476 13.3452L10.7693 10.811L10.821 10.7095C10.9512 10.4795 11.1517 10.2956 11.3943 10.186L13.9285 9.0415L11.3943 7.89697C11.117 7.77171 10.8945 7.54926 10.7693 7.27197L9.62476 4.73682L8.48022 7.27197Z" fill="#4C4443"/>
</g>
<defs>
<clipPath id="clip0_1834_15695">
<rect width="28" height="28" fill="white"/>
</clipPath>
</defs>
</svg>
