<svg width="44" height="44" viewBox="0 0 44 44" fill="none" xmlns="http://www.w3.org/2000/svg">
<g clip-path="url(#clip0_1834_15694)">
<path d="M19.7136 24.9346C20.0679 24.1501 21.1816 24.1501 21.5359 24.9346L22.8933 27.9395C22.9935 28.1613 23.1715 28.3392 23.3933 28.4395L26.3992 29.7969C27.1831 30.1513 27.183 31.2646 26.3992 31.6191L23.3933 32.9766C23.1715 33.0768 22.9935 33.2547 22.8933 33.4766L21.5359 36.4824C21.1814 37.2663 20.0681 37.2664 19.7136 36.4824L18.3562 33.4766C18.256 33.2547 18.078 33.0768 17.8562 32.9766L14.8513 31.6191C14.0668 31.2648 14.0668 30.1512 14.8513 29.7969L17.8562 28.4395C18.0781 28.3393 18.256 28.1613 18.3562 27.9395L19.7136 24.9346ZM30.6804 13.7256C30.9915 12.8294 32.2592 12.8293 32.5701 13.7256L33.7078 17.0088C33.8082 17.298 34.0356 17.5257 34.325 17.626L37.6072 18.7637C38.5037 19.0745 38.5038 20.3425 37.6072 20.6533L34.325 21.791C34.0354 21.8914 33.8081 22.1187 33.7078 22.4082L32.5701 25.6904C32.2593 26.5871 30.9913 26.587 30.6804 25.6904L29.5427 22.4082C29.4424 22.1187 29.2141 21.8914 28.9246 21.791L25.6423 20.6533C24.746 20.3424 24.7461 19.0747 25.6423 18.7637L26.1501 18.5879L28.9246 17.626C29.214 17.5257 29.4423 17.2981 29.5427 17.0088L30.6804 13.7256ZM14.2136 6.60059C14.5681 5.81667 15.6814 5.81675 16.0359 6.60059L17.9636 10.8691C18.0638 11.091 18.2418 11.2689 18.4636 11.3691L22.7322 13.2969C23.5165 13.6512 23.5164 14.7647 22.7322 15.1191L18.4636 17.0469C18.2418 17.1471 18.0638 17.325 17.9636 17.5469L16.0359 21.8154C15.6815 22.5997 14.568 22.5998 14.2136 21.8154L12.2859 17.5469C12.1857 17.3251 12.0077 17.1471 11.7859 17.0469L7.51733 15.1191C6.73347 14.7646 6.73337 13.6513 7.51733 13.2969L11.7859 11.3691C12.0077 11.2689 12.1857 11.091 12.2859 10.8691L14.2136 6.60059Z" fill="#E05149"/>
<path fill-rule="evenodd" clip-rule="evenodd" d="M19.1479 24.5944C19.7681 23.2219 21.7172 23.2219 22.3373 24.5944L23.6948 27.6003C23.7198 27.6555 23.7645 27.7003 23.8198 27.7253L26.8246 29.0827C28.1975 29.7028 28.1975 31.6521 26.8246 32.2722L23.8198 33.6296C23.7644 33.6546 23.7198 33.6992 23.6948 33.7546L22.3373 36.7595C21.7173 38.1324 19.768 38.1323 19.1479 36.7595L17.7905 33.7546C17.7655 33.6993 17.7207 33.6546 17.6655 33.6296L14.6596 32.2722C13.2872 31.652 13.2873 29.703 14.6596 29.0827L17.6655 27.7253C17.7208 27.7002 17.7654 27.6556 17.7905 27.6003L19.1479 24.5944ZM20.9702 25.2116C20.8813 25.0161 20.6027 25.0159 20.5141 25.2116L19.1567 28.2175C18.9813 28.6055 18.6707 28.9162 18.2827 29.0915L15.2768 30.4489C15.0812 30.5376 15.0814 30.8162 15.2768 30.905L18.2827 32.2624C18.6706 32.4376 18.9813 32.7485 19.1567 33.1364L20.5141 36.1423C20.6027 36.3384 20.8815 36.3384 20.9702 36.1423L22.3276 33.1364C22.5029 32.7485 22.8137 32.4377 23.2016 32.2624L26.2075 30.905C26.4035 30.8164 26.4036 30.5375 26.2075 30.4489L23.2016 29.0915C22.8138 28.9161 22.5028 28.6054 22.3276 28.2175L20.9702 25.2116ZM30.0893 13.4489C30.6335 11.8803 32.8529 11.8802 33.3969 13.4489L34.5336 16.7311C34.5587 16.8035 34.6165 16.8604 34.6889 16.8854L37.9711 18.0231C39.5396 18.5672 39.5395 20.7865 37.9711 21.3308L34.6889 22.4675C34.6167 22.4925 34.5588 22.5506 34.5336 22.6227L33.3969 25.905C32.853 27.4739 30.6333 27.4739 30.0893 25.905L28.9516 22.6227C28.9265 22.5506 28.8695 22.4926 28.7973 22.4675L25.5151 21.3308C23.9459 20.7869 23.9459 18.567 25.5151 18.0231L28.7973 16.8854C28.8694 16.8603 28.9266 16.8034 28.9516 16.7311L30.0893 13.4489ZM31.9789 13.9401C31.9011 13.7165 31.5843 13.7166 31.5063 13.9401L30.3686 17.2224C30.1931 17.7288 29.7949 18.1267 29.2885 18.3024L26.0063 19.4401C25.7821 19.5178 25.7822 19.835 26.0063 19.9128L29.2885 21.0505C29.7949 21.2261 30.193 21.6251 30.3686 22.1315L31.5063 25.4138C31.584 25.6376 31.901 25.6375 31.9789 25.4138L33.1166 22.1315C33.2923 21.6252 33.6912 21.226 34.1977 21.0505L37.4799 19.9128C37.7031 19.8346 37.7034 19.518 37.4799 19.4401L34.1977 18.3024C33.6911 18.1268 33.2922 17.729 33.1166 17.2224L31.9789 13.9401ZM13.6479 6.26142C14.268 4.88878 16.2172 4.88877 16.8373 6.26142L18.7651 10.53C18.7901 10.5853 18.8347 10.63 18.8901 10.655L23.1586 12.5827C24.5311 13.2029 24.5312 15.152 23.1586 15.7722L18.8901 17.6999C18.8346 17.7249 18.7901 17.7695 18.7651 17.8249L16.8373 22.0934C16.2172 23.4659 14.2681 23.4659 13.6479 22.0934L11.7202 17.8249C11.6951 17.7695 11.6505 17.725 11.5952 17.6999L7.3266 15.7722C5.95396 15.152 5.95396 13.2028 7.3266 12.5827L11.5952 10.655C11.6506 10.6299 11.6951 10.5854 11.7202 10.53L13.6479 6.26142ZM15.4702 6.8786C15.3814 6.68307 15.1038 6.68306 15.0151 6.8786L13.0873 11.1472C12.912 11.5353 12.6005 11.8468 12.2123 12.0222L7.94378 13.9499C7.74826 14.0386 7.74825 14.3162 7.94378 14.405L12.2123 16.3327C12.6005 16.5081 12.912 16.8195 13.0873 17.2077L15.0151 21.4763C15.1039 21.6716 15.3814 21.6716 15.4702 21.4763L17.3979 17.2077C17.5732 16.8195 17.8846 16.5081 18.2729 16.3327L22.5414 14.405C22.7369 14.3163 22.7368 14.0387 22.5414 13.9499L18.2729 12.0222C17.8847 11.8468 17.5733 11.5353 17.3979 11.1472L15.4702 6.8786Z" fill="#332A2A"/>
</g>
<defs>
<clipPath id="clip0_1834_15694">
<rect width="44" height="44" fill="white"/>
</clipPath>
</defs>
</svg>
