<svg width="18" height="18" viewBox="0 0 18 18" fill="none" xmlns="http://www.w3.org/2000/svg">
<g clip-path="url(#clip0_611_5612)">
<path d="M8.0625 3.875L8.10542 3.78988C8.4768 3.05334 9.53 3.05785 9.89507 3.79755L10.9794 5.99475C11.1251 6.28989 11.4067 6.49446 11.7324 6.54179L14.1357 6.89101C14.9559 7.01019 15.2834 8.01816 14.6899 8.5967L12.9509 10.2918C12.7152 10.5216 12.6076 10.8526 12.6633 11.177L13.0738 13.5706C13.2139 14.3875 12.3565 15.0104 11.6228 14.6247L9.47326 13.4946C9.18194 13.3415 8.83391 13.3415 8.54258 13.4946L6.39301 14.6247C5.65938 15.0104 4.80195 14.3875 4.94206 13.5706L5.35259 11.177C5.40823 10.8526 5.30068 10.5216 5.06499 10.2918L3.32595 8.5967C2.73243 8.01816 3.05994 7.01019 3.88016 6.89101L6.26 6.54519C6.59861 6.49599 6.88856 6.27707 7.02861 5.96488L7.125 5.75" stroke="#332A2A" stroke-width="1.25" stroke-linecap="round" stroke-linejoin="round"/>
</g>
<defs>
<clipPath id="clip0_611_5612">
<rect width="18" height="18" fill="white"/>
</clipPath>
</defs>
</svg>
