<svg width="23" height="23" viewBox="0 0 23 23" fill="none" xmlns="http://www.w3.org/2000/svg">
<g clip-path="url(#clip0_1183_13760)">
<path d="M10.6094 4.1731C10.9805 3.44584 12.0197 3.44584 12.3908 4.17309L14.1416 7.60387C14.2869 7.88859 14.5596 8.08669 14.8753 8.1369L18.6792 8.74188C19.4855 8.87012 19.8067 9.85841 19.2297 10.4361L16.5079 13.1614C16.282 13.3876 16.1778 13.7081 16.2276 14.0239L16.8277 17.8286C16.9549 18.6351 16.1142 19.2459 15.3865 18.8757L11.9535 17.1292C11.6686 16.9843 11.3316 16.9843 11.0467 17.1292L7.61364 18.8757C6.88591 19.2459 6.04522 18.6351 6.17243 17.8286L6.77253 14.0239C6.82234 13.7081 6.71819 13.3876 6.49231 13.1614L3.77048 10.4361C3.19351 9.85841 3.51463 8.87012 4.32097 8.74188L8.12488 8.1369C8.44056 8.08669 8.71322 7.88859 8.85852 7.60387L10.6094 4.1731Z" fill="#E05149"/>
<path d="M10.302 5.07918L10.6075 4.47323C10.9789 3.73669 12.0321 3.7412 12.3972 4.4809L14.0938 7.9187C14.2395 8.21385 14.5211 8.41841 14.8468 8.46574L18.6192 9.0139C19.4394 9.13309 19.7669 10.1411 19.1734 10.7196L16.4437 13.3804C16.208 13.6102 16.1004 13.9412 16.1561 14.2656L16.8005 18.0227C16.9406 18.8396 16.0831 19.4626 15.3495 19.0769L11.9754 17.303C11.6841 17.1498 11.336 17.1498 11.0447 17.303L7.67057 19.0769C6.93694 19.4626 6.07951 18.8396 6.21962 18.0227L6.86402 14.2656C6.91966 13.9412 6.81211 13.6102 6.57643 13.3804L3.8467 10.7196C3.25318 10.1411 3.58069 9.13309 4.40091 9.0139L8.14984 8.46915C8.48846 8.41995 8.7784 8.20103 8.91845 7.88884L9.10408 7.47502" stroke="#252323" stroke-width="1.35" stroke-linecap="round" stroke-linejoin="round"/>
</g>
<defs>
<clipPath id="clip0_1183_13760">
<rect width="23" height="23" fill="white"/>
</clipPath>
</defs>
</svg>
