<svg width="44" height="44" viewBox="0 0 44 44" fill="none" xmlns="http://www.w3.org/2000/svg">
<g clip-path="url(#clip0_611_5609)">
<path d="M19.7083 8.75057L21.1168 5.95712C21.4882 5.22057 22.5414 5.22508 22.9064 5.96478L27.1746 14.6131C27.3203 14.9083 27.6019 15.1129 27.9276 15.1602L37.4502 16.5439C38.2704 16.6631 38.5979 17.671 38.0044 18.2496L31.1138 24.9663C30.8781 25.196 30.7705 25.527 30.8262 25.8514L32.4528 35.3355C32.5929 36.1524 31.7355 36.7754 31.0019 36.3897L22.4846 31.9119C22.1933 31.7587 21.8453 31.7587 21.5539 31.9119L13.0367 36.3897C12.3031 36.7754 11.4456 36.1524 11.5857 35.3355L13.2124 25.8514C13.268 25.527 13.1605 25.196 12.9248 24.9663L6.0342 18.2496C5.44068 17.671 5.76819 16.6631 6.58841 16.5439L16.0875 15.1636C16.4261 15.1144 16.7161 14.8955 16.8561 14.5833L17.4166 13.3339" stroke="#252323" stroke-width="1.5" stroke-linecap="round" stroke-linejoin="round"/>
</g>
<defs>
<clipPath id="clip0_611_5609">
<rect width="44" height="44" fill="white"/>
</clipPath>
</defs>
</svg>
