<svg width="23" height="23" viewBox="0 0 23 23" fill="none" xmlns="http://www.w3.org/2000/svg">
<g clip-path="url(#clip0_611_5611)">
<path d="M10.302 4.82357L10.6075 4.21762C10.9789 3.48107 12.0321 3.48558 12.3972 4.22528L14.0938 7.66309C14.2395 7.95823 14.5211 8.1628 14.8468 8.21013L18.6192 8.75829C19.4394 8.87747 19.7669 9.88544 19.1734 10.464L16.4437 13.1248C16.208 13.3545 16.1004 13.6855 16.1561 14.0099L16.8005 17.7671C16.9406 18.584 16.0831 19.207 15.3495 18.8213L11.9754 17.0474C11.6841 16.8942 11.336 16.8942 11.0447 17.0474L7.67057 18.8213C6.93694 19.207 6.07951 18.584 6.21962 17.7671L6.86402 14.0099C6.91966 13.6855 6.81211 13.3545 6.57643 13.1248L3.8467 10.464C3.25318 9.88544 3.58069 8.87747 4.40091 8.75829L8.14984 8.21354C8.48846 8.16433 8.7784 7.94542 8.91845 7.63322L9.10408 7.2194" stroke="#252323" stroke-width="1.35" stroke-linecap="round" stroke-linejoin="round"/>
</g>
<defs>
<clipPath id="clip0_611_5611">
<rect width="23" height="23" fill="white"/>
</clipPath>
</defs>
</svg>
