<svg width="18" height="18" viewBox="0 0 18 18" fill="none" xmlns="http://www.w3.org/2000/svg">
<g clip-path="url(#clip0_1183_13761)">
<path d="M8.10928 3.74536C8.48042 3.01811 9.51958 3.01811 9.89072 3.74536L11.017 5.95239C11.1623 6.23711 11.435 6.43521 11.7507 6.48541L14.1977 6.8746C15.0041 7.00284 15.3252 7.99113 14.7482 8.56884L12.9973 10.322C12.7714 10.5482 12.6672 10.8687 12.717 11.1845L13.1031 13.6321C13.2303 14.4386 12.3896 15.0494 11.6619 14.6792L9.45342 13.5557C9.16851 13.4107 8.83149 13.4107 8.54658 13.5557L6.33811 14.6791C5.61039 15.0494 4.76969 14.4386 4.8969 13.6321L5.28295 11.1845C5.33275 10.8687 5.22861 10.5482 5.00272 10.322L3.25177 8.56884C2.6748 7.99113 2.99591 7.00284 3.80226 6.8746L6.24932 6.48541C6.565 6.43521 6.83766 6.23711 6.98296 5.95239L8.10928 3.74536Z" fill="#E05149"/>
<path d="M8.0625 3.875L8.33104 3.34241C8.60958 2.79 9.39948 2.79339 9.67328 3.34816L11.0376 6.11261C11.1469 6.33396 11.358 6.48739 11.6023 6.52289L14.637 6.96385C15.2521 7.05324 15.4978 7.80922 15.0526 8.24312L12.8567 10.3836C12.68 10.5559 12.5993 10.8041 12.641 11.0474L13.1594 14.0698C13.2645 14.6825 12.6214 15.1497 12.0712 14.8605L9.35693 13.4335C9.13844 13.3186 8.87741 13.3186 8.65892 13.4335L5.94464 14.8605C5.39442 15.1497 4.75134 14.6825 4.85643 14.0698L5.37481 11.0474C5.41654 10.8041 5.33587 10.5559 5.15911 10.3836L2.96321 8.24312C2.51808 7.80922 2.76371 7.05324 3.37887 6.96385L6.39593 6.52544C6.64989 6.48854 6.86735 6.32435 6.97239 6.09021L7.125 5.75" stroke="#332A2A" stroke-width="1.25" stroke-linecap="round" stroke-linejoin="round"/>
</g>
<defs>
<clipPath id="clip0_1183_13761">
<rect width="18" height="18" fill="white"/>
</clipPath>
</defs>
</svg>
