<svg width="28" height="28" viewBox="0 0 28 28" fill="none" xmlns="http://www.w3.org/2000/svg">
<g clip-path="url(#clip0_1183_13759)">
<path d="M13.1094 5.07422C13.4806 4.34697 14.5197 4.34697 14.8909 5.07422L17.2662 9.72875C17.4115 10.0135 17.6842 10.2116 17.9999 10.2618L23.1606 11.0826C23.967 11.2108 24.2881 12.1991 23.7111 12.7768L20.0184 16.4742C19.7926 16.7004 19.6884 17.0209 19.7382 17.3367L20.5524 22.4985C20.6796 23.305 19.8389 23.9158 19.1112 23.5456L14.4536 21.1762C14.1687 21.0312 13.8316 21.0312 13.5467 21.1762L8.88917 23.5456C8.16144 23.9158 7.32075 23.305 7.44796 22.4985L8.26212 17.3367C8.31192 17.0209 8.20777 16.7004 7.98189 16.4742L4.28919 12.7768C3.71223 12.1991 4.03334 11.2108 4.83969 11.0826L10.0004 10.2618C10.3161 10.2116 10.5888 10.0135 10.7341 9.72875L13.1094 5.07422Z" fill="#E05149"/>
<path d="M12.5417 6.24552L13.1099 5.11874C13.4813 4.38219 14.5345 4.3867 14.8995 5.1264L17.2085 9.80482C17.3541 10.1 17.6357 10.3045 17.9614 10.3519L23.1029 11.099C23.9231 11.2181 24.2506 12.2261 23.6571 12.8047L19.9367 16.4312C19.701 16.6609 19.5935 16.9919 19.6491 17.3163L20.5274 22.437C20.6675 23.2539 19.8101 23.8769 19.0764 23.4912L14.4777 21.0735C14.1864 20.9203 13.8384 20.9203 13.5471 21.0735L8.94838 23.4912C8.21476 23.8769 7.35732 23.2539 7.49744 22.437L8.37571 17.3163C8.43134 16.9919 8.32379 16.6609 8.08811 16.4312L4.3677 12.8047C3.77418 12.2261 4.10169 11.2181 4.92191 11.099L10.0399 10.3553C10.3785 10.3061 10.6685 10.0871 10.8085 9.77495L11.0834 9.16219" stroke="#252323" stroke-width="1.5" stroke-linecap="round" stroke-linejoin="round"/>
</g>
<defs>
<clipPath id="clip0_1183_13759">
<rect width="28" height="28" fill="white"/>
</clipPath>
</defs>
</svg>
