<svg width="44" height="44" viewBox="0 0 44 44" fill="none" xmlns="http://www.w3.org/2000/svg">
<g clip-path="url(#clip0_1183_13758)">
<path d="M21.0844 6.90796C21.4555 6.18071 22.4947 6.18071 22.8658 6.90796L27.2334 15.4663C27.3787 15.751 27.6514 15.9491 27.967 15.9993L37.4561 17.5084C38.2625 17.6367 38.5836 18.625 38.0066 19.2027L31.2169 26.0012C30.991 26.2273 30.8868 26.5479 30.9366 26.8636L32.4336 36.3546C32.5608 37.1612 31.7201 37.772 30.9924 37.4017L22.4285 33.0451C22.1436 32.9002 21.8066 32.9002 21.5217 33.0451L12.9578 37.4017C12.2301 37.772 11.3894 37.1612 11.5166 36.3546L13.0136 26.8636C13.0634 26.5479 12.9592 26.2273 12.7333 26.0012L5.94357 19.2027C5.3666 18.625 5.68771 17.6367 6.49406 17.5084L15.9831 15.9993C16.2988 15.9491 16.5715 15.751 16.7168 15.4663L21.0844 6.90796Z" fill="#E05149"/>
<path d="M19.6859 9.74072L21.0918 6.95248C21.4632 6.21593 22.5164 6.22044 22.8815 6.96015L27.1436 15.5961C27.2892 15.8912 27.5708 16.0958 27.8965 16.1431L37.4054 17.5249C38.2256 17.644 38.5531 18.652 37.9596 19.2306L31.0789 25.9376C30.8432 26.1673 30.7357 26.4983 30.7913 26.8227L32.4156 36.2932C32.5558 37.1101 31.6983 37.733 30.9647 37.3473L22.4597 32.876C22.1684 32.7228 21.8203 32.7228 21.529 32.876L13.024 37.3473C12.2904 37.733 11.4329 37.1101 11.5731 36.2932L13.1974 26.8227C13.253 26.4983 13.1455 26.1673 12.9098 25.9376L6.02907 19.2306C5.43556 18.652 5.76307 17.644 6.58329 17.5249L16.0687 16.1465C16.4073 16.0973 16.6973 15.8784 16.8373 15.5662L17.3969 14.3188" stroke="#332A2A" stroke-width="1.5" stroke-linecap="round" stroke-linejoin="round"/>
</g>
<defs>
<clipPath id="clip0_1183_13758">
<rect width="44" height="44" fill="white"/>
</clipPath>
</defs>
</svg>
