<svg width="28" height="28" viewBox="0 0 28 28" fill="none" xmlns="http://www.w3.org/2000/svg">
<g clip-path="url(#clip0_611_5610)">
<path d="M12.5417 5.74772L13.1099 4.62094C13.4813 3.88439 14.5345 3.8889 14.8995 4.6286L17.2085 9.30701C17.3541 9.60216 17.6357 9.80673 17.9614 9.85405L23.1029 10.6012C23.9231 10.7203 24.2506 11.7283 23.6571 12.3068L19.9367 15.9334C19.701 16.1631 19.5935 16.4941 19.6491 16.8185L20.5274 21.9392C20.6675 22.7561 19.8101 23.3791 19.0764 22.9934L14.4777 20.5757C14.1864 20.4225 13.8384 20.4225 13.5471 20.5757L8.94838 22.9934C8.21476 23.3791 7.35732 22.7561 7.49744 21.9392L8.37571 16.8185C8.43134 16.4941 8.32379 16.1631 8.08811 15.9334L4.3677 12.3068C3.77418 11.7283 4.10169 10.7203 4.92191 10.6012L10.0399 9.85746C10.3785 9.80826 10.6685 9.58934 10.8085 9.27715L11.0834 8.66439" stroke="#252323" stroke-width="1.5" stroke-linecap="round" stroke-linejoin="round"/>
</g>
<defs>
<clipPath id="clip0_611_5610">
<rect width="28" height="28" fill="white"/>
</clipPath>
</defs>
</svg>
