<svg width="23" height="23" viewBox="0 0 23 23" fill="none" xmlns="http://www.w3.org/2000/svg">
<g clip-path="url(#clip0_622_5612)">
<path fill-rule="evenodd" clip-rule="evenodd" d="M3.07095 11.5C3.07095 6.84472 6.84481 3.07086 11.5001 3.07086C11.8729 3.07086 12.1751 2.76865 12.1751 2.39586C12.1751 2.02306 11.8729 1.72086 11.5001 1.72086C6.09923 1.72086 1.72095 6.09914 1.72095 11.5C1.72095 13.6091 2.38941 15.5641 3.52595 17.1621C3.74201 17.4659 4.16344 17.537 4.46723 17.3209C4.77102 17.1048 4.84213 16.6834 4.62607 16.3796C3.64671 15.0027 3.07095 13.3196 3.07095 11.5ZM15.2228 2.45455C14.8781 2.31255 14.4836 2.47687 14.3416 2.82155C14.1996 3.16624 14.3639 3.56078 14.7086 3.70278C15.9508 4.21452 17.0447 5.01505 17.9061 6.0213C19.1679 7.49506 19.9293 9.40776 19.9293 11.5C19.9293 14.0784 18.7725 16.3858 16.9472 17.933C16.6628 18.1741 16.6277 18.6 16.8687 18.8844C17.1098 19.1688 17.5357 19.2039 17.8201 18.9628C19.9351 17.1701 21.2793 14.4917 21.2793 11.5C21.2793 9.0738 20.3949 6.85244 18.9317 5.14333C17.9335 3.97741 16.6652 3.04878 15.2228 2.45455ZM6.05306 17.933C5.76868 17.692 5.34274 17.7271 5.10169 18.0115C4.86064 18.2959 4.89576 18.7218 5.18014 18.9628C6.88429 20.4074 9.09126 21.2792 11.5001 21.2792C12.674 21.2792 13.801 21.0721 14.8456 20.6918C15.1959 20.5642 15.3765 20.1769 15.249 19.8266C15.1214 19.4763 14.7341 19.2957 14.3838 19.4232C13.485 19.7504 12.5142 19.9292 11.5001 19.9292C9.42278 19.9292 7.5225 19.1786 6.05306 17.933ZM7.32662 10.8381C6.95383 10.8381 6.65162 11.1403 6.65162 11.5131C6.65162 11.8859 6.95383 12.1881 7.32662 12.1881L15.6998 12.1881C16.0726 12.1881 16.3748 11.8859 16.3748 11.5131C16.3748 11.1403 16.0726 10.8381 15.6998 10.8381L7.32662 10.8381Z" fill="#252323"/>
</g>
<defs>
<clipPath id="clip0_622_5612">
<rect width="23" height="23" fill="white"/>
</clipPath>
</defs>
</svg>
