<svg width="44" height="44" viewBox="0 0 44 44" fill="none" xmlns="http://www.w3.org/2000/svg">
<g clip-path="url(#clip0_209_364)">
<path d="M10.1721 34.807C10.4399 34.491 10.9138 34.4513 11.2297 34.7191C14.1349 37.1817 17.8933 38.6664 22.0002 38.6664C24.0041 38.6663 25.9238 38.3135 27.7014 37.6664C28.0906 37.5247 28.5216 37.7254 28.6633 38.1146C28.8047 38.5036 28.604 38.9338 28.2151 39.0755C26.2753 39.7817 24.1817 40.1663 22.0002 40.1664C17.525 40.1664 13.426 38.5472 10.26 35.8636C9.94413 35.5959 9.90454 35.1229 10.1721 34.807ZM27.9358 5.60385C28.0935 5.22095 28.5324 5.03806 28.9153 5.19565C31.5944 6.29936 33.9512 8.02531 35.8059 10.1917C38.5241 13.3669 40.1663 17.4929 40.1663 22.0003C40.1662 27.5576 37.6702 32.5325 33.7405 35.8636C33.4245 36.1315 32.9507 36.0927 32.6829 35.7767C32.4152 35.4607 32.4548 34.9869 32.7708 34.7191C36.3785 31.6608 38.6662 27.0982 38.6663 22.0003C38.6663 17.864 37.1606 14.081 34.6663 11.1673C32.9634 9.17833 30.8006 7.5954 28.344 6.58334C27.961 6.42558 27.7781 5.98681 27.9358 5.60385ZM22.0002 3.83334C22.4143 3.83352 22.7502 4.16924 22.7502 4.58334C22.7502 4.99745 22.4143 5.33317 22.0002 5.33334C12.7955 5.33334 5.33325 12.7956 5.33325 22.0003C5.33332 25.5972 6.47193 28.9261 8.40845 31.6488C8.64845 31.9863 8.56921 32.4546 8.23169 32.6947C7.89416 32.9345 7.42581 32.8554 7.18579 32.5179C5.07473 29.5497 3.83332 25.9188 3.83325 22.0003C3.83325 11.9672 11.9671 3.83334 22.0002 3.83334ZM30.0344 21.2747C30.4484 21.275 30.7843 21.6108 30.7844 22.0247C30.7844 22.4388 30.4485 22.7745 30.0344 22.7747H14.0159C13.6017 22.7747 13.2659 22.439 13.2659 22.0247C13.266 21.6107 13.6017 21.2747 14.0159 21.2747H30.0344Z" fill="#332A2A"/>
</g>
<defs>
<clipPath id="clip0_209_364">
<rect width="44" height="44" fill="white"/>
</clipPath>
</defs>
</svg>
