<svg width="18" height="18" viewBox="0 0 18 18" fill="none" xmlns="http://www.w3.org/2000/svg">
<g clip-path="url(#clip0_622_5623)">
<path fill-rule="evenodd" clip-rule="evenodd" d="M2.5 9C2.5 5.41015 5.41015 2.5 9 2.5C9.34518 2.5 9.625 2.22018 9.625 1.875C9.625 1.52982 9.34518 1.25 9 1.25C4.71979 1.25 1.25 4.71979 1.25 9C1.25 10.6714 1.77978 12.2208 2.68051 13.4872C2.88058 13.7685 3.27079 13.8344 3.55208 13.6343C3.83336 13.4343 3.89921 13.044 3.69914 12.7628C2.94396 11.701 2.5 10.4033 2.5 9ZM11.9503 1.83149C11.6311 1.70001 11.2658 1.85215 11.1343 2.17131C11.0028 2.49046 11.155 2.85578 11.4741 2.98726C12.4319 3.38184 13.2755 3.99916 13.9399 4.77521C14.9129 5.91173 15.5 7.38651 15.5 9C15.5 10.9882 14.6081 12.7675 13.2004 13.9607C12.9371 14.1839 12.9045 14.5783 13.1277 14.8416C13.3509 15.1049 13.7453 15.1375 14.0086 14.9143C15.6846 13.4936 16.75 11.3709 16.75 9C16.75 7.07729 16.049 5.31671 14.8895 3.96229C14.0985 3.03838 13.0934 2.30245 11.9503 1.83149ZM4.79964 13.9607C4.53633 13.7375 4.14194 13.7701 3.91874 14.0334C3.69555 14.2967 3.72807 14.6911 3.99138 14.9143C5.34188 16.059 7.09105 16.75 9 16.75C9.93014 16.75 10.8233 16.5859 11.6513 16.2844C11.9757 16.1664 12.1429 15.8077 12.0248 15.4833C11.9067 15.159 11.548 14.9918 11.2237 15.1099C10.5308 15.3621 9.78219 15.5 9 15.5C7.39802 15.5 5.93281 14.9213 4.79964 13.9607ZM5.73379 8.38523C5.38861 8.38523 5.10879 8.66505 5.10879 9.01023C5.10879 9.35541 5.38861 9.63523 5.73379 9.63523L12.2867 9.63523C12.6319 9.63523 12.9117 9.35541 12.9117 9.01023C12.9117 8.66505 12.6319 8.38523 12.2867 8.38523L5.73379 8.38523Z" fill="#332A2A"/>
</g>
<defs>
<clipPath id="clip0_622_5623">
<rect width="18" height="18" fill="white"/>
</clipPath>
</defs>
</svg>
