<svg width="44" height="44" viewBox="0 0 44 44" fill="none" xmlns="http://www.w3.org/2000/svg">
<g clip-path="url(#clip0_1218_14083)">
<circle cx="21.9999" cy="22" r="17.4167" fill="#E05149"/>
<path fill-rule="evenodd" clip-rule="evenodd" d="M5.33325 22C5.33325 12.7953 12.7952 5.33334 21.9999 5.33334C22.4141 5.33334 22.7499 4.99756 22.7499 4.58334C22.7499 4.16913 22.4141 3.83334 21.9999 3.83334C11.9667 3.83334 3.83325 11.9668 3.83325 22C3.83325 25.9187 5.07488 29.5497 7.1861 32.518C7.42618 32.8556 7.89443 32.9346 8.23197 32.6945C8.56952 32.4544 8.64853 31.9862 8.40845 31.6486C6.47188 28.9258 5.33325 25.597 5.33325 22ZM28.9154 5.19613C28.5324 5.03836 28.094 5.22092 27.9362 5.60391C27.7785 5.9869 27.961 6.42527 28.344 6.58305C30.8007 7.59511 32.9633 9.17791 34.6661 11.1669C37.1606 14.0807 38.6666 17.8635 38.6666 22C38.6666 27.0982 36.3784 31.6612 32.7704 34.7196C32.4544 34.9874 32.4154 35.4607 32.6832 35.7766C32.9511 36.0926 33.4243 36.1316 33.7403 35.8638C37.6702 32.5326 40.1666 27.5575 40.1666 22C40.1666 17.4925 38.524 13.3666 35.8056 10.1914C33.9509 8.02498 31.5945 6.29984 28.9154 5.19613ZM11.2295 34.7196C10.9135 34.4517 10.4402 34.4907 10.1724 34.8067C9.90454 35.1227 9.94357 35.596 10.2595 35.8638C13.4255 38.5475 17.5246 40.1667 21.9999 40.1667C24.1815 40.1667 26.2749 39.7818 28.2148 39.0756C28.604 38.9339 28.8047 38.5035 28.663 38.1143C28.5213 37.725 28.0909 37.5244 27.7017 37.6661C25.9239 38.3133 24.004 38.6667 21.9999 38.6667C17.893 38.6667 14.1347 37.1822 11.2295 34.7196ZM14.0158 21.275C13.6016 21.275 13.2658 21.6108 13.2658 22.025C13.2658 22.4392 13.6016 22.775 14.0158 22.775L30.034 22.775C30.4483 22.775 30.784 22.4392 30.784 22.025C30.784 21.6108 30.4483 21.275 30.034 21.275L14.0158 21.275Z" fill="#252323"/>
</g>
<defs>
<clipPath id="clip0_1218_14083">
<rect width="44" height="44" fill="white"/>
</clipPath>
</defs>
</svg>
