<svg width="28" height="28" viewBox="0 0 28 28" fill="none" xmlns="http://www.w3.org/2000/svg">
<g clip-path="url(#clip0_622_5601)">
<path fill-rule="evenodd" clip-rule="evenodd" d="M3.66675 14C3.66675 8.29308 8.29314 3.66669 14.0001 3.66669C14.4143 3.66669 14.7501 3.3309 14.7501 2.91669C14.7501 2.50247 14.4143 2.16669 14.0001 2.16669C7.46471 2.16669 2.16675 7.46465 2.16675 14C2.16675 16.5522 2.9756 18.9178 4.35086 20.8514C4.59093 21.1889 5.05919 21.2679 5.39673 21.0279C5.73428 20.7878 5.81329 20.3195 5.57321 19.982C4.3726 18.2939 3.66675 16.2305 3.66675 14ZM18.5047 3.05448C18.1217 2.8967 17.6834 3.07927 17.5256 3.46225C17.3678 3.84524 17.5504 4.28362 17.9334 4.4414C19.4562 5.06877 20.7972 6.05013 21.8532 7.28361C23.3999 9.09026 24.3334 11.4352 24.3334 14C24.3334 17.1608 22.9152 19.9896 20.6777 21.8862C20.3617 22.1541 20.3227 22.6273 20.5905 22.9433C20.8583 23.2593 21.3316 23.2983 21.6476 23.0305C24.2069 20.861 25.8334 17.6201 25.8334 14C25.8334 11.0641 24.7633 8.37624 22.9927 6.3081C21.7848 4.8972 20.2501 3.7735 18.5047 3.05448ZM7.32249 21.8862C7.00652 21.6184 6.53326 21.6574 6.26542 21.9734C5.99759 22.2894 6.03661 22.7626 6.35258 23.0305C8.41473 24.7784 11.0852 25.8334 14.0001 25.8334C15.4207 25.8334 16.7844 25.5827 18.0483 25.1226C18.4375 24.9809 18.6382 24.5505 18.4965 24.1612C18.3548 23.772 17.9244 23.5714 17.5352 23.7131C16.4333 24.1142 15.2431 24.3334 14.0001 24.3334C11.4535 24.3334 9.12385 23.4132 7.32249 21.8862ZM8.91931 13.2659C8.50509 13.2659 8.16931 13.6017 8.16931 14.0159C8.16931 14.4301 8.50509 14.7659 8.91931 14.7659L19.1127 14.7659C19.5269 14.7659 19.8627 14.4301 19.8627 14.0159C19.8627 13.6017 19.5269 13.2659 19.1127 13.2659L8.91931 13.2659Z" fill="#332A2A"/>
</g>
<defs>
<clipPath id="clip0_622_5601">
<rect width="28" height="28" fill="white"/>
</clipPath>
</defs>
</svg>
