<svg width="23" height="23" viewBox="0 0 23 23" fill="none" xmlns="http://www.w3.org/2000/svg">
<g clip-path="url(#clip0_613_5185)">
<circle cx="11.4468" cy="11.4468" r="3.27053" fill="#E05149"/>
<path fill-rule="evenodd" clip-rule="evenodd" d="M12.1731 2.93232C12.1731 2.55953 11.8709 2.25732 11.4981 2.25732C11.1253 2.25732 10.8231 2.55953 10.8231 2.93232V4.57501C10.8231 4.94781 11.1253 5.25001 11.4981 5.25001C11.8709 5.25001 12.1731 4.94781 12.1731 4.57501V2.93232ZM11.3753 6.90417C10.4903 6.90417 9.66589 7.13966 8.96343 7.54662C8.64086 7.73349 8.22787 7.62349 8.041 7.30092C7.85412 6.97835 7.96412 6.56536 8.28669 6.37849C9.19096 5.85461 10.2483 5.55417 11.3753 5.55417C14.7094 5.55417 17.4459 8.19141 17.4459 11.4862C17.4459 13.5198 16.3992 15.3066 14.8176 16.3723C14.5084 16.5806 14.0889 16.4988 13.8806 16.1897C13.6723 15.8805 13.7541 15.461 14.0632 15.2527C15.297 14.4214 16.0959 13.042 16.0959 11.4862C16.0959 8.97045 13.9977 6.90417 11.3753 6.90417ZM7.43179 8.05817C7.74484 8.26058 7.83453 8.67845 7.63212 8.9915C7.17006 9.70612 6.90423 10.5571 6.90423 11.4695C6.90423 14.0204 8.99283 16.0958 11.5793 16.0958C11.8429 16.0958 12.0977 16.0741 12.3511 16.0333C12.7191 15.974 13.0655 16.2244 13.1248 16.5924C13.1841 16.9605 12.9338 17.3069 12.5657 17.3661C12.245 17.4178 11.9185 17.4458 11.5793 17.4458C8.2595 17.4458 5.55423 14.7782 5.55423 11.4695C5.55423 10.2912 5.89839 9.18656 6.49845 8.2585C6.70086 7.94545 7.11873 7.85575 7.43179 8.05817ZM4.96463 4.96457C5.22823 4.70096 5.65562 4.70096 5.91922 4.96457L7.079 6.12435C7.3426 6.38795 7.3426 6.81534 7.079 7.07894C6.8154 7.34255 6.38801 7.34255 6.12441 7.07894L4.96463 5.91916C4.70102 5.65556 4.70102 5.22817 4.96463 4.96457ZM2.93232 10.823C2.55953 10.823 2.25732 11.1252 2.25732 11.498C2.25732 11.8708 2.55953 12.173 2.93232 12.173H4.57501C4.94781 12.173 5.25001 11.8708 5.25001 11.498C5.25001 11.1252 4.94781 10.823 4.57501 10.823H2.93232ZM7.079 15.9211C7.3426 16.1847 7.3426 16.6121 7.079 16.8757L5.91922 18.0354C5.65562 18.299 5.22823 18.299 4.96463 18.0354C4.70102 17.7718 4.70102 17.3444 4.96463 17.0808L6.12441 15.9211C6.38801 15.6575 6.8154 15.6575 7.079 15.9211ZM12.1731 18.425C12.1731 18.0522 11.8709 17.75 11.4981 17.75C11.1253 17.75 10.8231 18.0522 10.8231 18.425V20.0677C10.8231 20.4405 11.1253 20.7427 11.4981 20.7427C11.8709 20.7427 12.1731 20.4405 12.1731 20.0677V18.425ZM15.9211 15.9211C16.1847 15.6575 16.6121 15.6575 16.8757 15.9211L18.0355 17.0808C18.2991 17.3444 18.2991 17.7718 18.0355 18.0354C17.7719 18.299 17.3445 18.299 17.0809 18.0354L15.9211 16.8757C15.6575 16.6121 15.6575 16.1847 15.9211 15.9211ZM18.4251 10.823C18.0523 10.823 17.7501 11.1252 17.7501 11.498C17.7501 11.8708 18.0523 12.173 18.4251 12.173H20.0678C20.4406 12.173 20.7428 11.8708 20.7428 11.498C20.7428 11.1252 20.4406 10.823 20.0678 10.823H18.4251ZM18.0355 4.96457C18.2991 5.22817 18.2991 5.65556 18.0355 5.91916L16.8757 7.07894C16.6121 7.34255 16.1847 7.34255 15.9211 7.07894C15.6575 6.81534 15.6575 6.38795 15.9211 6.12435L17.0809 4.96457C17.3445 4.70096 17.7719 4.70096 18.0355 4.96457ZM9.16149 4.08455C9.01964 3.7398 8.62517 3.57532 8.28042 3.71717C7.93567 3.85902 7.77119 4.25349 7.91304 4.59824L8.22574 5.35823C8.36759 5.70298 8.76206 5.86746 9.10681 5.72561C9.45156 5.58376 9.61604 5.1893 9.47419 4.84455L9.16149 4.08455ZM3.71729 8.28042C3.85914 7.93567 4.25361 7.77119 4.59836 7.91304L5.35835 8.22574C5.7031 8.36759 5.86758 8.76206 5.72573 9.10681C5.58388 9.45156 5.18941 9.61604 4.84466 9.47419L4.08467 9.16149C3.73992 9.01964 3.57544 8.62517 3.71729 8.28042ZM5.35835 14.7743C5.7031 14.6324 5.86758 14.238 5.72573 13.8932C5.58388 13.5485 5.18941 13.384 4.84466 13.5258L4.08467 13.8385C3.73992 13.9804 3.57544 14.3748 3.71729 14.7196C3.85914 15.0643 4.25361 15.2288 4.59836 15.087L5.35835 14.7743ZM9.10796 17.2748C9.45245 17.4173 9.6162 17.8121 9.47372 18.1566L9.16102 18.9126C9.01853 19.2571 8.62376 19.4208 8.27927 19.2783C7.93478 19.1359 7.77103 18.7411 7.91351 18.3966L8.22622 17.6406C8.3687 17.2961 8.76347 17.1323 9.10796 17.2748ZM14.7739 17.6406C14.6314 17.2961 14.2367 17.1323 13.8922 17.2748C13.5477 17.4173 13.3839 17.8121 13.5264 18.1566L13.8391 18.9126C13.9816 19.2571 14.3764 19.4208 14.7209 19.2783C15.0653 19.1359 15.2291 18.7411 15.0866 18.3966L14.7739 17.6406ZM17.2749 13.8921C17.4174 13.5476 17.8121 13.3838 18.1566 13.5263L18.9126 13.839C19.2571 13.9815 19.4209 14.3762 19.2784 14.7207C19.1359 15.0652 18.7411 15.229 18.3967 15.0865L17.6406 14.7738C17.2961 14.6313 17.1324 14.2365 17.2749 13.8921ZM18.9126 9.16102C19.2571 9.01853 19.4209 8.62376 19.2784 8.27927C19.1359 7.93478 18.7411 7.77103 18.3967 7.91351L17.6406 8.22622C17.2961 8.3687 17.1324 8.76347 17.2749 9.10796C17.4174 9.45245 17.8121 9.6162 18.1566 9.47372L18.9126 9.16102ZM14.7197 3.71717C15.0645 3.85902 15.2289 4.25349 15.0871 4.59824L14.7744 5.35823C14.6325 5.70298 14.2381 5.86746 13.8933 5.72561C13.5486 5.58376 13.3841 5.1893 13.5259 4.84455L13.8386 4.08455C13.9805 3.7398 14.375 3.57532 14.7197 3.71717ZM14.0424 11.4468C14.0424 12.8808 12.881 14.0423 11.4494 14.0423C10.0178 14.0423 8.85639 12.8808 8.85639 11.4468V11.4259L8.8551 11.4051C8.81506 10.7578 9.10351 10.124 9.60999 9.63602C10.1192 9.1454 10.8004 8.85127 11.4494 8.85127C11.8222 8.85127 12.1244 8.54906 12.1244 8.17627C12.1244 7.80348 11.8222 7.50127 11.4494 7.50127C10.4108 7.50127 9.40349 7.96028 8.67329 8.66386C7.94498 9.36561 7.44491 10.359 7.50644 11.4674C7.51754 13.6365 9.27813 15.3923 11.4494 15.3923C13.6276 15.3923 15.3924 13.6254 15.3924 11.4468C15.3924 11.074 15.0902 10.7718 14.7174 10.7718C14.3446 10.7718 14.0424 11.074 14.0424 11.4468Z" fill="#332A2A"/>
</g>
<defs>
<clipPath id="clip0_613_5185">
<rect width="23" height="23" fill="white"/>
</clipPath>
</defs>
</svg>
