<svg width="28" height="29" viewBox="0 0 28 29" fill="none" xmlns="http://www.w3.org/2000/svg">
<g clip-path="url(#clip0_613_5390)">
<path fill-rule="evenodd" clip-rule="evenodd" d="M14.7477 3.61987C14.7477 3.20566 14.4119 2.86987 13.9977 2.86987C13.5835 2.86987 13.2477 3.20566 13.2477 3.61987V5.61967C13.2477 6.03388 13.5835 6.36967 13.9977 6.36967C14.4119 6.36967 14.7477 6.03388 14.7477 5.61967V3.61987ZM13.8483 8.38342C12.758 8.38342 11.742 8.67355 10.8761 9.1752C10.5177 9.38284 10.0588 9.26061 9.85115 8.9022C9.64351 8.54379 9.76574 8.08491 10.1241 7.87727C11.2143 7.24573 12.4891 6.88342 13.8483 6.88342C17.8693 6.88342 21.1668 10.0636 21.1668 14.0333C21.1668 16.4836 19.9057 18.6372 17.9987 19.9221C17.6552 20.1535 17.1891 20.0627 16.9577 19.7192C16.7262 19.3757 16.8171 18.9095 17.1606 18.6781C18.681 17.6537 19.6668 15.9527 19.6668 14.0333C19.6668 10.9292 17.0786 8.38342 13.8483 8.38342ZM9.00848 9.92027C9.35632 10.1452 9.45597 10.6095 9.23107 10.9573C8.66124 11.8386 8.33344 12.8881 8.33344 14.0129C8.33344 17.1586 10.9089 19.7168 14.0965 19.7168C14.4215 19.7168 14.7354 19.69 15.0475 19.6397C15.4565 19.5739 15.8414 19.852 15.9072 20.261C15.9731 20.6699 15.695 21.0548 15.286 21.1206C14.8992 21.1829 14.5055 21.2168 14.0965 21.2168C10.094 21.2168 6.83344 18.0006 6.83344 14.0129C6.83344 12.5926 7.24826 11.2613 7.97144 10.1429C8.19634 9.79503 8.66064 9.69537 9.00848 9.92027ZM6.09466 6.14464C6.38755 5.85174 6.86243 5.85174 7.15532 6.14464L8.56722 7.55654C8.86012 7.84943 8.86012 8.32431 8.56722 8.6172C8.27433 8.91009 7.79946 8.91009 7.50656 8.6172L6.09466 7.2053C5.80177 6.9124 5.80177 6.43753 6.09466 6.14464ZM3.56982 13.2977C3.15561 13.2977 2.81982 13.6335 2.81982 14.0477C2.81982 14.4619 3.15561 14.7977 3.56982 14.7977H5.56962C5.98383 14.7977 6.31962 14.4619 6.31962 14.0477C6.31962 13.6335 5.98383 13.2977 5.56962 13.2977H3.56982ZM8.56722 19.483C8.86012 19.7759 8.86012 20.2507 8.56722 20.5436L7.15532 21.9555C6.86243 22.2484 6.38755 22.2484 6.09466 21.9555C5.80177 21.6626 5.80177 21.1878 6.09466 20.8949L7.50656 19.483C7.79946 19.1901 8.27433 19.1901 8.56722 19.483ZM14.7477 22.4805C14.7477 22.0663 14.4119 21.7305 13.9977 21.7305C13.5835 21.7305 13.2477 22.0663 13.2477 22.4805V24.4803C13.2477 24.8945 13.5835 25.2303 13.9977 25.2303C14.4119 25.2303 14.7477 24.8945 14.7477 24.4803V22.4805ZM19.433 19.483C19.7259 19.1901 20.2008 19.1901 20.4937 19.483L21.9056 20.8949C22.1985 21.1878 22.1985 21.6626 21.9056 21.9555C21.6127 22.2484 21.1378 22.2484 20.8449 21.9555L19.433 20.5436C19.1401 20.2507 19.1401 19.7759 19.433 19.483ZM22.4306 13.2977C22.0164 13.2977 21.6806 13.6335 21.6806 14.0477C21.6806 14.4619 22.0164 14.7977 22.4306 14.7977H24.4304C24.8446 14.7977 25.1804 14.4619 25.1804 14.0477C25.1804 13.6335 24.8446 13.2977 24.4304 13.2977H22.4306ZM21.9056 6.14464C22.1985 6.43753 22.1985 6.9124 21.9056 7.2053L20.4937 8.6172C20.2008 8.91009 19.7259 8.91009 19.433 8.6172C19.1401 8.32431 19.1401 7.84943 19.433 7.55654L20.8449 6.14464C21.1378 5.85174 21.6127 5.85174 21.9056 6.14464ZM11.0868 5.04989C10.9292 4.66683 10.4909 4.48407 10.1078 4.64168C9.72479 4.79929 9.54203 5.23759 9.69965 5.62065L10.0803 6.54585C10.2379 6.92891 10.6762 7.11167 11.0593 6.95406C11.4423 6.79644 11.6251 6.35815 11.4675 5.97509L11.0868 5.04989ZM4.59178 10.1579C4.74939 9.77484 5.18768 9.59208 5.57074 9.74969L6.49595 10.1304C6.879 10.288 7.06176 10.7263 6.90415 11.1093C6.74654 11.4924 6.30824 11.6752 5.92519 11.5175L4.99998 11.1369C4.61692 10.9792 4.43416 10.541 4.59178 10.1579ZM6.49595 17.9698C6.879 17.8122 7.06176 17.3739 6.90415 16.9908C6.74654 16.6078 6.30824 16.425 5.92519 16.5826L4.99998 16.9633C4.61692 17.1209 4.43416 17.5592 4.59178 17.9423C4.74939 18.3253 5.18768 18.5081 5.57074 18.3505L6.49595 17.9698ZM11.0606 21.1466C11.4433 21.3049 11.6253 21.7435 11.467 22.1263L11.0863 23.0467C10.928 23.4294 10.4893 23.6114 10.1066 23.4531C9.72381 23.2948 9.54186 22.8561 9.70017 22.4734L10.0809 21.553C10.2392 21.1702 10.6778 20.9883 11.0606 21.1466ZM17.9194 21.553C17.7611 21.1702 17.3224 20.9883 16.9397 21.1466C16.5569 21.3049 16.3749 21.7435 16.5333 22.1263L16.9139 23.0467C17.0723 23.4294 17.5109 23.6114 17.8937 23.4531C18.2764 23.2948 18.4584 22.8561 18.3001 22.4734L17.9194 21.553ZM21.0966 16.9896C21.2549 16.6068 21.6936 16.4249 22.0763 16.5832L22.9967 16.9639C23.3795 17.1222 23.5614 17.5608 23.4031 17.9436C23.2448 18.3263 22.8062 18.5083 22.4234 18.35L21.503 17.9693C21.1202 17.811 20.9383 17.3723 21.0966 16.9896ZM22.9967 11.1363C23.3795 10.978 23.5614 10.5394 23.4031 10.1566C23.2448 9.77386 22.8062 9.5919 22.4234 9.75022L21.503 10.1309C21.1202 10.2892 20.9383 10.7279 21.0966 11.1106C21.2549 11.4934 21.6936 11.6753 22.0763 11.517L22.9967 11.1363ZM17.8924 4.64168C18.2754 4.79929 18.4582 5.23759 18.3006 5.62065L17.9199 6.54585C17.7623 6.92891 17.324 7.11167 16.9409 6.95406C16.5579 6.79644 16.3751 6.35815 16.5327 5.97509L16.9134 5.04989C17.071 4.66683 17.5093 4.48407 17.8924 4.64168ZM17.1669 13.9853C17.1669 15.7706 15.7209 17.2168 13.9384 17.2168C12.156 17.2168 10.71 15.7706 10.71 13.9853V13.9622L10.7086 13.939C10.6583 13.126 11.0208 12.3349 11.6494 11.7292C12.281 11.1206 13.1277 10.7538 13.9384 10.7538C14.3527 10.7538 14.6884 10.418 14.6884 10.0038C14.6884 9.58959 14.3527 9.25381 13.9384 9.25381C12.6948 9.25381 11.4858 9.80384 10.6086 10.6491C9.73353 11.4922 9.13588 12.6828 9.21004 14.0083C9.22238 16.6103 11.3341 18.7168 13.9384 18.7168C16.5504 18.7168 18.6669 16.5979 18.6669 13.9853C18.6669 13.5711 18.3311 13.2353 17.9169 13.2353C17.5027 13.2353 17.1669 13.5711 17.1669 13.9853Z" fill="#252323"/>
</g>
<defs>
<clipPath id="clip0_613_5390">
<rect width="28" height="28" fill="white" transform="translate(0 0.0500488)"/>
</clipPath>
</defs>
</svg>
