<svg width="44" height="44" viewBox="0 0 44 44" fill="none" xmlns="http://www.w3.org/2000/svg">
<g clip-path="url(#clip0_613_5389)">
<path fill-rule="evenodd" clip-rule="evenodd" d="M22.7463 5.60962C22.7463 5.19541 22.4105 4.85962 21.9963 4.85962C21.5821 4.85962 21.2463 5.19541 21.2463 5.60962V8.75215C21.2463 9.16637 21.5821 9.50215 21.9963 9.50215C22.4105 9.50215 22.7463 9.16637 22.7463 8.75215V5.60962ZM21.7614 12.6666C19.9714 12.6666 18.3008 13.1432 16.876 13.9686C16.5176 14.1762 16.0588 14.054 15.8511 13.6956C15.6435 13.3372 15.7657 12.8783 16.1241 12.6707C17.7731 11.7153 19.7024 11.1666 21.7614 11.1666C27.8543 11.1666 32.8334 15.9828 32.8334 21.9737C32.8334 25.6724 30.9304 28.9273 28.0442 30.872C27.7006 31.1034 27.2345 31.0126 27.0031 30.669C26.7716 30.3255 26.8625 29.8594 27.206 29.628C29.7057 27.9437 31.3334 25.1415 31.3334 21.9737C31.3334 16.8484 27.0636 12.6666 21.7614 12.6666ZM13.9234 15.8701C14.2712 16.095 14.3709 16.5593 14.146 16.9072C13.2067 18.3599 12.6667 20.0895 12.6667 21.9415C12.6667 27.1254 16.9096 31.3333 22.1516 31.3333C22.6863 31.3333 23.2024 31.2892 23.7142 31.2068C24.1231 31.1409 24.508 31.4191 24.5739 31.828C24.6397 32.237 24.3616 32.6219 23.9526 32.6877C23.3661 32.7822 22.7702 32.8333 22.1516 32.8333C16.0948 32.8333 11.1667 27.9674 11.1667 21.9415C11.1667 19.794 11.7937 17.7826 12.8863 16.0927C13.1112 15.7449 13.5755 15.6452 13.9234 15.8701ZM9.88026 9.88015C10.1732 9.58726 10.648 9.58726 10.9409 9.88015L13.1596 12.0989C13.4525 12.3918 13.4525 12.8666 13.1596 13.1595C12.8667 13.4524 12.3919 13.4524 12.099 13.1595L9.88026 10.9408C9.58737 10.6479 9.58737 10.173 9.88026 9.88015ZM5.60962 21.2462C5.19541 21.2462 4.85962 21.5819 4.85962 21.9962C4.85962 22.4104 5.19541 22.7462 5.60962 22.7462H8.75215C9.16637 22.7462 9.50215 22.4104 9.50215 21.9962C9.50215 21.5819 9.16637 21.2462 8.75215 21.2462H5.60962ZM13.1596 30.8404C13.4525 31.1333 13.4525 31.6082 13.1596 31.9011L10.9409 34.1198C10.648 34.4127 10.1732 34.4127 9.88026 34.1198C9.58737 33.8269 9.58737 33.352 9.88026 33.0591L12.099 30.8404C12.3919 30.5475 12.8667 30.5475 13.1596 30.8404ZM22.7463 35.2478C22.7463 34.8335 22.4105 34.4978 21.9963 34.4978C21.5821 34.4978 21.2463 34.8335 21.2463 35.2478V38.3903C21.2463 38.8045 21.5821 39.1403 21.9963 39.1403C22.4105 39.1403 22.7463 38.8045 22.7463 38.3903V35.2478ZM30.8405 30.8404C31.1334 30.5475 31.6083 30.5475 31.9012 30.8404L34.1199 33.0591C34.4128 33.352 34.4128 33.8269 34.1199 34.1198C33.827 34.4127 33.3521 34.4127 33.0592 34.1198L30.8405 31.9011C30.5476 31.6082 30.5476 31.1333 30.8405 30.8404ZM35.248 21.2462C34.8338 21.2462 34.498 21.5819 34.498 21.9962C34.498 22.4104 34.8338 22.7462 35.248 22.7462H38.3905C38.8047 22.7462 39.1405 22.4104 39.1405 21.9962C39.1405 21.5819 38.8047 21.2462 38.3905 21.2462H35.248ZM34.1199 9.88015C34.4128 10.173 34.4128 10.6479 34.1199 10.9408L31.9012 13.1595C31.6083 13.4524 31.1334 13.4524 30.8405 13.1595C30.5476 12.8666 30.5476 12.3918 30.8405 12.0989L33.0592 9.88015C33.3521 9.58726 33.827 9.58726 34.1199 9.88015ZM17.0257 8.01986C16.8681 7.6368 16.4298 7.45404 16.0467 7.61165C15.6637 7.76926 15.4809 8.20756 15.6385 8.59062L16.2367 10.0445C16.3944 10.4276 16.8327 10.6103 17.2157 10.4527C17.5988 10.2951 17.7815 9.85681 17.6239 9.47375L17.0257 8.01986ZM7.61188 16.0467C7.76949 15.6637 8.20779 15.4809 8.59084 15.6385L10.0447 16.2367C10.4278 16.3944 10.6106 16.8327 10.4529 17.2157C10.2953 17.5988 9.85703 17.7815 9.47398 17.6239L8.02008 17.0257C7.63702 16.8681 7.45427 16.4298 7.61188 16.0467ZM10.0447 27.7632C10.4278 27.6056 10.6106 27.1673 10.4529 26.7842C10.2953 26.4012 9.85703 26.2184 9.47398 26.376L8.02008 26.9742C7.63702 27.1318 7.45427 27.5701 7.61188 27.9532C7.76949 28.3363 8.20779 28.519 8.59084 28.3614L10.0447 27.7632ZM17.217 33.5476C17.5998 33.7059 17.7817 34.1446 17.6234 34.5273L17.0252 35.9737C16.8669 36.3564 16.4282 36.5384 16.0455 36.3801C15.6627 36.2217 15.4807 35.7831 15.6391 35.4003L16.2373 33.954C16.3956 33.5713 16.8342 33.3893 17.217 33.5476ZM27.7629 33.954C27.6046 33.5713 27.1659 33.3893 26.7832 33.5476C26.4004 33.7059 26.2184 34.1446 26.3768 34.5273L26.975 35.9737C27.1333 36.3564 27.5719 36.5384 27.9547 36.3801C28.3375 36.2217 28.5194 35.7831 28.3611 35.4003L27.7629 33.954ZM33.5477 26.7829C33.7061 26.4002 34.1447 26.2182 34.5275 26.3765L35.9738 26.9748C36.3565 27.1331 36.5385 27.5717 36.3802 27.9545C36.2219 28.3372 35.7832 28.5192 35.4005 28.3609L33.9541 27.7627C33.5714 27.6043 33.3894 27.1657 33.5477 26.7829ZM35.9738 17.0252C36.3565 16.8669 36.5385 16.4282 36.3802 16.0455C36.2219 15.6627 35.7832 15.4807 35.4005 15.6391L33.9541 16.2373C33.5714 16.3956 33.3894 16.8342 33.5477 17.217C33.7061 17.5998 34.1447 17.7817 34.5275 17.6234L35.9738 17.0252ZM27.9534 7.61165C28.3365 7.76926 28.5192 8.20756 28.3616 8.59062L27.7634 10.0445C27.6058 10.4276 27.1675 10.6103 26.7844 10.4527C26.4014 10.2951 26.2186 9.85681 26.3762 9.47375L26.9745 8.01986C27.1321 7.6368 27.5704 7.45404 27.9534 7.61165ZM28.5834 22C28.5834 25.6358 25.6359 28.5833 22.0001 28.5833C18.3642 28.5833 15.4167 25.6358 15.4167 22V21.9768L15.4153 21.9536C15.309 20.2368 16.0769 18.6078 17.3417 17.3901C18.6094 16.1695 20.3229 15.4166 22.0001 15.4166C22.4143 15.4166 22.7501 15.0808 22.7501 14.6666C22.7501 14.2524 22.4143 13.9166 22.0001 13.9166C19.8904 13.9166 17.8147 14.8524 16.3013 16.3095C14.7902 17.7645 13.7866 19.7931 13.9168 22.023C13.9292 26.4767 17.5435 30.0833 22.0001 30.0833C26.4644 30.0833 30.0834 26.4643 30.0834 22C30.0834 21.5857 29.7476 21.25 29.3334 21.25C28.9192 21.25 28.5834 21.5857 28.5834 22Z" fill="#332A2A"/>
</g>
<defs>
<clipPath id="clip0_613_5389">
<rect width="44" height="44" fill="white"/>
</clipPath>
</defs>
</svg>
