<svg width="44" height="45" viewBox="0 0 44 45" fill="none" xmlns="http://www.w3.org/2000/svg">
<g clip-path="url(#clip0_490_3558)">
<circle cx="22.0001" cy="22.95" r="7.33333" fill="#E05149"/>
<path fill-rule="evenodd" clip-rule="evenodd" d="M22.7463 6.55957C22.7463 6.14536 22.4105 5.80957 21.9963 5.80957C21.5821 5.80957 21.2463 6.14536 21.2463 6.55957V9.70211C21.2463 10.1163 21.5821 10.4521 21.9963 10.4521C22.4105 10.4521 22.7463 10.1163 22.7463 9.70211V6.55957ZM21.7614 13.6166C19.9714 13.6166 18.3008 14.0931 16.876 14.9185C16.5176 15.1262 16.0588 15.0039 15.8511 14.6455C15.6435 14.2871 15.7657 13.8282 16.1241 13.6206C17.7731 12.6653 19.7024 12.1166 21.7614 12.1166C27.8543 12.1166 32.8334 16.9328 32.8334 22.9236C32.8334 26.6223 30.9304 29.8772 28.0442 31.8219C27.7006 32.0534 27.2345 31.9625 27.0031 31.619C26.7716 31.2755 26.8625 30.8094 27.206 30.5779C29.7057 28.8937 31.3334 26.0914 31.3334 22.9236C31.3334 17.7984 27.0636 13.6166 21.7614 13.6166ZM13.9234 16.8201C14.2712 17.045 14.3709 17.5093 14.146 17.8571C13.2067 19.3098 12.6667 21.0394 12.6667 22.8915C12.6667 28.0753 16.9096 32.2832 22.1516 32.2832C22.6863 32.2832 23.2024 32.2392 23.7142 32.1567C24.1231 32.0909 24.508 32.369 24.5739 32.778C24.6397 33.1869 24.3616 33.5718 23.9526 33.6377C23.3661 33.7321 22.7702 33.7832 22.1516 33.7832C16.0948 33.7832 11.1667 28.9173 11.1667 22.8915C11.1667 20.744 11.7937 18.7325 12.8863 17.0427C13.1112 16.6948 13.5755 16.5952 13.9234 16.8201ZM9.88026 10.8301C10.1732 10.5372 10.648 10.5372 10.9409 10.8301L13.1596 13.0488C13.4525 13.3417 13.4525 13.8166 13.1596 14.1095C12.8667 14.4024 12.3919 14.4024 12.099 14.1095L9.88026 11.8908C9.58737 11.5979 9.58737 11.123 9.88026 10.8301ZM5.60962 22.1961C5.19541 22.1961 4.85962 22.5319 4.85962 22.9461C4.85962 23.3603 5.19541 23.6961 5.60962 23.6961H8.75215C9.16637 23.6961 9.50215 23.3603 9.50215 22.9461C9.50215 22.5319 9.16637 22.1961 8.75215 22.1961H5.60962ZM13.1596 31.7903C13.4525 32.0832 13.4525 32.5581 13.1596 32.851L10.9409 35.0697C10.648 35.3626 10.1732 35.3626 9.88026 35.0697C9.58737 34.7768 9.58737 34.3019 9.88026 34.0091L12.099 31.7903C12.3919 31.4975 12.8667 31.4975 13.1596 31.7903ZM22.7463 36.1977C22.7463 35.7835 22.4105 35.4477 21.9963 35.4477C21.5821 35.4477 21.2463 35.7835 21.2463 36.1977V39.3403C21.2463 39.7545 21.5821 40.0903 21.9963 40.0903C22.4105 40.0903 22.7463 39.7545 22.7463 39.3403V36.1977ZM30.8405 31.7903C31.1334 31.4975 31.6083 31.4975 31.9012 31.7903L34.1199 34.0091C34.4128 34.3019 34.4128 34.7768 34.1199 35.0697C33.827 35.3626 33.3521 35.3626 33.0592 35.0697L30.8405 32.851C30.5476 32.5581 30.5476 32.0832 30.8405 31.7903ZM35.248 22.1961C34.8338 22.1961 34.498 22.5319 34.498 22.9461C34.498 23.3603 34.8338 23.6961 35.248 23.6961H38.3905C38.8047 23.6961 39.1405 23.3603 39.1405 22.9461C39.1405 22.5319 38.8047 22.1961 38.3905 22.1961H35.248ZM34.1199 10.8301C34.4128 11.123 34.4128 11.5979 34.1199 11.8908L31.9012 14.1095C31.6083 14.4024 31.1334 14.4024 30.8405 14.1095C30.5476 13.8166 30.5476 13.3417 30.8405 13.0488L33.0592 10.8301C33.3521 10.5372 33.827 10.5372 34.1199 10.8301ZM17.0257 8.96981C16.8681 8.58675 16.4298 8.40399 16.0467 8.5616C15.6637 8.71922 15.4809 9.15751 15.6385 9.54057L16.2367 10.9945C16.3944 11.3775 16.8327 11.5603 17.2157 11.4027C17.5988 11.2451 17.7815 10.8068 17.6239 10.4237L17.0257 8.96981ZM7.61188 16.9967C7.76949 16.6136 8.20779 16.4309 8.59084 16.5885L10.0447 17.1867C10.4278 17.3443 10.6106 17.7826 10.4529 18.1657C10.2953 18.5487 9.85703 18.7315 9.47398 18.5739L8.02008 17.9756C7.63702 17.818 7.45427 17.3797 7.61188 16.9967ZM10.0447 28.7131C10.4278 28.5555 10.6106 28.1172 10.4529 27.7342C10.2953 27.3511 9.85703 27.1684 9.47398 27.326L8.02008 27.9242C7.63702 28.0818 7.45427 28.5201 7.61188 28.9031C7.76949 29.2862 8.20779 29.469 8.59084 29.3114L10.0447 28.7131ZM17.217 34.4976C17.5998 34.6559 17.7817 35.0945 17.6234 35.4773L17.0252 36.9236C16.8669 37.3064 16.4282 37.4883 16.0455 37.33C15.6627 37.1717 15.4807 36.7331 15.6391 36.3503L16.2373 34.904C16.3956 34.5212 16.8342 34.3393 17.217 34.4976ZM27.7629 34.904C27.6046 34.5212 27.1659 34.3393 26.7832 34.4976C26.4004 34.6559 26.2184 35.0945 26.3768 35.4773L26.975 36.9236C27.1333 37.3064 27.5719 37.4883 27.9547 37.33C28.3375 37.1717 28.5194 36.7331 28.3611 36.3503L27.7629 34.904ZM33.5477 27.7329C33.7061 27.3501 34.1447 27.1682 34.5275 27.3265L35.9738 27.9247C36.3565 28.083 36.5385 28.5217 36.3802 28.9044C36.2219 29.2872 35.7832 29.4691 35.4005 29.3108L33.9541 28.7126C33.5714 28.5543 33.3894 28.1157 33.5477 27.7329ZM35.9738 17.9751C36.3565 17.8168 36.5385 17.3782 36.3802 16.9954C36.2219 16.6126 35.7832 16.4307 35.4005 16.589L33.9541 17.1872C33.5714 17.3455 33.3894 17.7842 33.5477 18.1669C33.7061 18.5497 34.1447 18.7317 34.5275 18.5733L35.9738 17.9751ZM27.9534 8.5616C28.3365 8.71922 28.5192 9.15751 28.3616 9.54057L27.7634 10.9945C27.6058 11.3775 27.1675 11.5603 26.7844 11.4027C26.4014 11.2451 26.2186 10.8068 26.3762 10.4237L26.9745 8.96981C27.1321 8.58675 27.5704 8.40399 27.9534 8.5616ZM28.5834 22.9499C28.5834 26.5858 25.6359 29.5332 22.0001 29.5332C18.3642 29.5332 15.4167 26.5858 15.4167 22.9499V22.9267L15.4153 22.9036C15.309 21.1867 16.0769 19.5578 17.3417 18.3401C18.6094 17.1195 20.3229 16.3666 22.0001 16.3666C22.4143 16.3666 22.7501 16.0308 22.7501 15.6166C22.7501 15.2024 22.4143 14.8666 22.0001 14.8666C19.8904 14.8666 17.8147 15.8024 16.3013 17.2595C14.7902 18.7144 13.7866 20.7431 13.9168 22.973C13.9292 27.4267 17.5435 31.0332 22.0001 31.0332C26.4644 31.0332 30.0834 27.4142 30.0834 22.9499C30.0834 22.5357 29.7476 22.1999 29.3334 22.1999C28.9192 22.1999 28.5834 22.5357 28.5834 22.9499Z" fill="#252323"/>
</g>
<defs>
<clipPath id="clip0_490_3558">
<rect width="44" height="44" fill="white" transform="translate(0 0.949951)"/>
</clipPath>
</defs>
</svg>
