<svg width="18" height="18" viewBox="0 0 18 18" fill="none" xmlns="http://www.w3.org/2000/svg">
<g clip-path="url(#clip0_613_5208)">
<circle cx="8.95847" cy="8.95847" r="2.55955" fill="#E05149"/>
<path fill-rule="evenodd" clip-rule="evenodd" d="M9.49855 2.29492C9.49855 2.01878 9.27469 1.79492 8.99855 1.79492C8.72241 1.79492 8.49855 2.01878 8.49855 2.29492V3.5805C8.49855 3.85665 8.72241 4.0805 8.99855 4.0805C9.27469 4.0805 9.49855 3.85665 9.49855 3.5805V2.29492ZM8.90248 5.37506C8.20481 5.37506 7.55473 5.56072 7.00075 5.88165C6.76181 6.02008 6.45589 5.9386 6.31747 5.69966C6.17904 5.46071 6.26052 5.1548 6.49946 5.01637C7.20293 4.60883 8.02552 4.37506 8.90248 4.37506C11.4969 4.37506 13.6251 6.42703 13.6251 8.9893C13.6251 10.5708 12.8112 11.9606 11.5806 12.7897C11.3516 12.944 11.0409 12.8835 10.8866 12.6544C10.7323 12.4254 10.7929 12.1147 11.0219 11.9604C11.9947 11.3049 12.6251 10.2169 12.6251 8.9893C12.6251 7.0041 10.9697 5.37506 8.90248 5.37506ZM5.8009 6.33018C6.03279 6.48012 6.09923 6.78965 5.94929 7.02154C5.58479 7.58528 5.37511 8.25655 5.37511 8.97616C5.37511 10.9884 7.02257 12.6251 9.0621 12.6251C9.27001 12.6251 9.47087 12.6079 9.67062 12.5758C9.94325 12.5319 10.1998 12.7173 10.2437 12.9899C10.2876 13.2626 10.1022 13.5191 9.82959 13.563C9.58003 13.6032 9.32597 13.6251 9.0621 13.6251C6.47937 13.6251 4.37511 11.5497 4.37511 8.97616C4.37511 8.05959 4.64281 7.20042 5.10953 6.47858C5.25947 6.24669 5.569 6.18025 5.8009 6.33018ZM3.9054 3.90536C4.10067 3.7101 4.41725 3.7101 4.61251 3.90536L5.52016 4.81301C5.71542 5.00827 5.71542 5.32485 5.52016 5.52012C5.3249 5.71538 5.00832 5.71538 4.81306 5.52012L3.9054 4.61246C3.71014 4.4172 3.71014 4.10062 3.9054 3.90536ZM2.29492 8.4985C2.01878 8.4985 1.79492 8.72236 1.79492 8.9985C1.79492 9.27465 2.01878 9.4985 2.29492 9.4985H3.5805C3.85665 9.4985 4.0805 9.27465 4.0805 8.9985C4.0805 8.72236 3.85665 8.4985 3.5805 8.4985H2.29492ZM5.52016 12.48C5.71542 12.6753 5.71542 12.9918 5.52016 13.1871L4.61251 14.0948C4.41725 14.29 4.10067 14.29 3.9054 14.0948C3.71014 13.8995 3.71014 13.5829 3.9054 13.3877L4.81306 12.48C5.00832 12.2847 5.3249 12.2847 5.52016 12.48ZM9.49855 14.4196C9.49855 14.1435 9.27469 13.9196 8.99855 13.9196C8.72241 13.9196 8.49855 14.1435 8.49855 14.4196V15.7052C8.49855 15.9813 8.72241 16.2052 8.99855 16.2052C9.27469 16.2052 9.49855 15.9813 9.49855 15.7052V14.4196ZM12.48 12.48C12.6753 12.2847 12.9919 12.2847 13.1872 12.48L14.0948 13.3877C14.2901 13.5829 14.2901 13.8995 14.0948 14.0948C13.8995 14.29 13.583 14.29 13.3877 14.0948L12.48 13.1871C12.2848 12.9918 12.2848 12.6753 12.48 12.48ZM14.4197 8.4985C14.1436 8.4985 13.9197 8.72236 13.9197 8.9985C13.9197 9.27465 14.1436 9.4985 14.4197 9.4985H15.7053C15.9814 9.4985 16.2053 9.27465 16.2053 8.9985C16.2053 8.72236 15.9814 8.4985 15.7053 8.4985H14.4197ZM14.0948 3.90536C14.2901 4.10062 14.2901 4.4172 14.0948 4.61246L13.1872 5.52012C12.9919 5.71538 12.6753 5.71538 12.48 5.52012C12.2848 5.32485 12.2848 5.00827 12.48 4.81301L13.3877 3.90536C13.583 3.7101 13.8995 3.7101 14.0948 3.90536ZM7.14379 3.20742C7.03871 2.95205 6.74651 2.83021 6.49114 2.93529C6.23577 3.04036 6.11393 3.33256 6.21901 3.58793L6.46373 4.1827C6.56881 4.43807 6.86101 4.55991 7.11638 4.45484C7.37175 4.34976 7.49359 4.05757 7.38851 3.8022L7.14379 3.20742ZM2.93538 6.49114C3.04045 6.23577 3.33265 6.11393 3.58802 6.21901L4.1828 6.46373C4.43817 6.56881 4.56 6.86101 4.45493 7.11638C4.34986 7.37175 4.05766 7.49359 3.80229 7.38851L3.20751 7.14379C2.95214 7.03871 2.8303 6.74651 2.93538 6.49114ZM4.1828 11.5364C4.43817 11.4313 4.56 11.1391 4.45493 10.8838C4.34986 10.6284 4.05766 10.5065 3.80229 10.6116L3.20751 10.8563C2.95214 10.9614 2.8303 11.2536 2.93538 11.509C3.04045 11.7644 3.33265 11.8862 3.58802 11.7811L4.1828 11.5364ZM7.11723 13.5456C7.3724 13.6511 7.4937 13.9436 7.38816 14.1987L7.14343 14.7904C7.03789 15.0456 6.74547 15.1669 6.49029 15.0613C6.23512 14.9558 6.11381 14.6634 6.21936 14.4082L6.46408 13.8165C6.56963 13.5613 6.86205 13.44 7.11723 13.5456ZM11.5361 13.8165C11.4306 13.5613 11.1382 13.44 10.883 13.5456C10.6278 13.6511 10.5065 13.9436 10.6121 14.1987L10.8568 14.7904C10.9623 15.0456 11.2547 15.1669 11.5099 15.0613C11.7651 14.9558 11.8864 14.6634 11.7809 14.4082L11.5361 13.8165ZM13.5456 10.8829C13.6512 10.6277 13.9436 10.5064 14.1988 10.612L14.7905 10.8567C15.0456 10.9622 15.1669 11.2547 15.0614 11.5098C14.9558 11.765 14.6634 11.8863 14.4082 11.7808L13.8166 11.536C13.5614 11.4305 13.4401 11.1381 13.5456 10.8829ZM14.7905 7.14343C15.0456 7.03789 15.1669 6.74547 15.0614 6.49029C14.9558 6.23512 14.6634 6.11381 14.4082 6.21936L13.8166 6.46408C13.5614 6.56963 13.4401 6.86205 13.5456 7.11723C13.6512 7.3724 13.9436 7.4937 14.1988 7.38816L14.7905 7.14343ZM11.5091 2.93529C11.7644 3.04036 11.8863 3.33256 11.7812 3.58793L11.5365 4.1827C11.4314 4.43807 11.1392 4.55991 10.8838 4.45484C10.6285 4.34977 10.5066 4.05757 10.6117 3.8022L10.8564 3.20742C10.9615 2.95205 11.2537 2.83021 11.5091 2.93529ZM11.018 8.95842C11.018 10.0962 10.0965 11.018 8.96047 11.018C7.82446 11.018 6.90288 10.0962 6.90288 8.95842V8.94298L6.90193 8.92756C6.86999 8.41112 7.10019 7.90743 7.50131 7.52094C7.90444 7.13252 8.44442 6.89888 8.96047 6.89888C9.23661 6.89888 9.46047 6.67502 9.46047 6.39888C9.46047 6.12274 9.23661 5.89888 8.96047 5.89888C8.15581 5.89888 7.3743 6.25465 6.80746 6.80082C6.24204 7.34563 5.85506 8.11569 5.90292 8.97372C5.91115 10.6561 7.27655 12.018 8.96047 12.018C10.6495 12.018 12.018 10.6478 12.018 8.95842C12.018 8.68228 11.7942 8.45842 11.518 8.45842C11.2419 8.45842 11.018 8.68228 11.018 8.95842Z" fill="#252323"/>
</g>
<defs>
<clipPath id="clip0_613_5208">
<rect width="18" height="18" fill="white"/>
</clipPath>
</defs>
</svg>
