<svg width="28" height="28" viewBox="0 0 28 28" fill="none" xmlns="http://www.w3.org/2000/svg">
<g clip-path="url(#clip0_613_5390)">
<path fill-rule="evenodd" clip-rule="evenodd" d="M14.7477 3.56982C14.7477 3.15561 14.4119 2.81982 13.9977 2.81982C13.5835 2.81982 13.2477 3.15561 13.2477 3.56982V5.56962C13.2477 5.98383 13.5835 6.31962 13.9977 6.31962C14.4119 6.31962 14.7477 5.98383 14.7477 5.56962V3.56982ZM13.8483 8.33337C12.758 8.33337 11.742 8.62351 10.8761 9.12515C10.5177 9.33279 10.0588 9.21056 9.85115 8.85215C9.64351 8.49374 9.76574 8.03487 10.1241 7.82723C11.2143 7.19568 12.4891 6.83337 13.8483 6.83337C17.8693 6.83337 21.1668 10.0136 21.1668 13.9833C21.1668 16.4336 19.9057 18.5872 17.9987 19.872C17.6552 20.1035 17.1891 20.0126 16.9577 19.6691C16.7262 19.3256 16.8171 18.8595 17.1606 18.628C18.681 17.6036 19.6668 15.9027 19.6668 13.9833C19.6668 10.8792 17.0786 8.33337 13.8483 8.33337ZM9.00848 9.87022C9.35632 10.0951 9.45597 10.5594 9.23107 10.9073C8.66124 11.7886 8.33344 12.838 8.33344 13.9629C8.33344 17.1086 10.9089 19.6667 14.0965 19.6667C14.4215 19.6667 14.7354 19.6399 15.0475 19.5897C15.4565 19.5238 15.8414 19.802 15.9072 20.2109C15.9731 20.6199 15.695 21.0047 15.286 21.0706C14.8992 21.1329 14.5055 21.1667 14.0965 21.1667C10.094 21.1667 6.83344 17.9506 6.83344 13.9629C6.83344 12.5426 7.24826 11.2113 7.97144 10.0928C8.19634 9.74498 8.66064 9.64532 9.00848 9.87022ZM6.09466 6.09459C6.38755 5.8017 6.86243 5.8017 7.15532 6.09459L8.56722 7.50649C8.86012 7.79939 8.86012 8.27426 8.56722 8.56715C8.27433 8.86005 7.79946 8.86005 7.50656 8.56715L6.09466 7.15525C5.80177 6.86236 5.80177 6.38748 6.09466 6.09459ZM3.56982 13.2476C3.15561 13.2476 2.81982 13.5834 2.81982 13.9976C2.81982 14.4118 3.15561 14.7476 3.56982 14.7476H5.56962C5.98383 14.7476 6.31962 14.4118 6.31962 13.9976C6.31962 13.5834 5.98383 13.2476 5.56962 13.2476H3.56982ZM8.56722 19.4329C8.86012 19.7258 8.86012 20.2007 8.56722 20.4936L7.15532 21.9055C6.86243 22.1984 6.38755 22.1984 6.09466 21.9055C5.80177 21.6126 5.80177 21.1377 6.09466 20.8448L7.50656 19.4329C7.79946 19.14 8.27433 19.14 8.56722 19.4329ZM14.7477 22.4305C14.7477 22.0162 14.4119 21.6805 13.9977 21.6805C13.5835 21.6805 13.2477 22.0162 13.2477 22.4305V24.4303C13.2477 24.8445 13.5835 25.1803 13.9977 25.1803C14.4119 25.1803 14.7477 24.8445 14.7477 24.4303V22.4305ZM19.433 19.4329C19.7259 19.14 20.2008 19.14 20.4937 19.4329L21.9056 20.8448C22.1985 21.1377 22.1985 21.6126 21.9056 21.9055C21.6127 22.1984 21.1378 22.1984 20.8449 21.9055L19.433 20.4936C19.1401 20.2007 19.1401 19.7258 19.433 19.4329ZM22.4306 13.2476C22.0164 13.2476 21.6806 13.5834 21.6806 13.9976C21.6806 14.4118 22.0164 14.7476 22.4306 14.7476H24.4304C24.8446 14.7476 25.1804 14.4118 25.1804 13.9976C25.1804 13.5834 24.8446 13.2476 24.4304 13.2476H22.4306ZM21.9056 6.09459C22.1985 6.38748 22.1985 6.86236 21.9056 7.15525L20.4937 8.56715C20.2008 8.86005 19.7259 8.86005 19.433 8.56715C19.1401 8.27426 19.1401 7.79939 19.433 7.50649L20.8449 6.09459C21.1378 5.8017 21.6127 5.8017 21.9056 6.09459ZM11.0868 4.99984C10.9292 4.61678 10.4909 4.43402 10.1078 4.59163C9.72479 4.74925 9.54203 5.18754 9.69965 5.5706L10.0803 6.4958C10.2379 6.87886 10.6762 7.06162 11.0593 6.90401C11.4423 6.7464 11.6251 6.3081 11.4675 5.92504L11.0868 4.99984ZM4.59178 10.1078C4.74939 9.72479 5.18768 9.54203 5.57074 9.69965L6.49595 10.0803C6.879 10.2379 7.06176 10.6762 6.90415 11.0593C6.74654 11.4423 6.30824 11.6251 5.92519 11.4675L4.99998 11.0868C4.61692 10.9292 4.43416 10.4909 4.59178 10.1078ZM6.49595 17.9198C6.879 17.7621 7.06176 17.3239 6.90415 16.9408C6.74654 16.5577 6.30824 16.375 5.92519 16.5326L4.99998 16.9133C4.61692 17.0709 4.43416 17.5092 4.59178 17.8922C4.74939 18.2753 5.18768 18.4581 5.57074 18.3004L6.49595 17.9198ZM11.0606 21.0965C11.4433 21.2548 11.6253 21.6935 11.467 22.0762L11.0863 22.9966C10.928 23.3794 10.4893 23.5613 10.1066 23.403C9.72381 23.2447 9.54186 22.8061 9.70017 22.4233L10.0809 21.5029C10.2392 21.1202 10.6778 20.9382 11.0606 21.0965ZM17.9194 21.5029C17.7611 21.1202 17.3224 20.9382 16.9397 21.0965C16.5569 21.2548 16.3749 21.6935 16.5333 22.0762L16.9139 22.9966C17.0723 23.3794 17.5109 23.5613 17.8937 23.403C18.2764 23.2447 18.4584 22.8061 18.3001 22.4233L17.9194 21.5029ZM21.0966 16.9395C21.2549 16.5568 21.6936 16.3748 22.0763 16.5331L22.9967 16.9138C23.3795 17.0721 23.5614 17.5108 23.4031 17.8935C23.2448 18.2763 22.8062 18.4582 22.4234 18.2999L21.503 17.9192C21.1202 17.7609 20.9383 17.3223 21.0966 16.9395ZM22.9967 11.0863C23.3795 10.928 23.5614 10.4893 23.4031 10.1066C23.2448 9.72381 22.8062 9.54186 22.4234 9.70017L21.503 10.0809C21.1202 10.2392 20.9383 10.6778 21.0966 11.0606C21.2549 11.4433 21.6936 11.6253 22.0763 11.467L22.9967 11.0863ZM17.8924 4.59163C18.2754 4.74924 18.4582 5.18754 18.3006 5.5706L17.9199 6.4958C17.7623 6.87886 17.324 7.06162 16.9409 6.90401C16.5579 6.7464 16.3751 6.3081 16.5327 5.92504L16.9134 4.99984C17.071 4.61678 17.5093 4.43402 17.8924 4.59163ZM17.1669 13.9353C17.1669 15.7205 15.7209 17.1668 13.9384 17.1668C12.156 17.1668 10.71 15.7205 10.71 13.9353V13.9121L10.7086 13.889C10.6583 13.076 11.0208 12.2849 11.6494 11.6792C12.281 11.0706 13.1277 10.7038 13.9384 10.7038C14.3527 10.7038 14.6884 10.368 14.6884 9.95376C14.6884 9.53955 14.3527 9.20376 13.9384 9.20376C12.6948 9.20376 11.4858 9.75379 10.6086 10.599C9.73353 11.4422 9.13588 12.6328 9.21004 13.9582C9.22238 16.5603 11.3341 18.6668 13.9384 18.6668C16.5504 18.6668 18.6669 16.5479 18.6669 13.9353C18.6669 13.5211 18.3311 13.1853 17.9169 13.1853C17.5027 13.1853 17.1669 13.5211 17.1669 13.9353Z" fill="#332A2A"/>
</g>
<defs>
<clipPath id="clip0_613_5390">
<rect width="28" height="28" fill="white"/>
</clipPath>
</defs>
</svg>
