<svg width="23" height="23" viewBox="0 0 23 23" fill="none" xmlns="http://www.w3.org/2000/svg">
<g clip-path="url(#clip0_1053_12228)">
<path fill-rule="evenodd" clip-rule="evenodd" d="M7.95205 4.81199C6.70091 5.55672 5.23742 6.40436 3.3542 6.40436C2.98141 6.40436 2.6792 6.10215 2.6792 5.72936C2.6792 5.35657 2.98141 5.05436 3.3542 5.05436C4.82514 5.05436 5.99707 4.40461 7.26155 3.65194L7.45007 3.53943C8.61617 2.84251 9.92623 2.05957 11.5 2.05957C12.5372 2.05957 13.443 2.39459 14.2645 2.81261C14.6742 3.02106 15.0738 3.25599 15.4596 3.48572L15.594 3.56582C15.9375 3.77064 16.2711 3.96957 16.6139 4.1558C16.9415 4.33377 17.0628 4.74358 16.8848 5.07115C16.7069 5.39873 16.297 5.52001 15.9695 5.34205C15.6012 5.14199 15.2432 4.92847 14.9022 4.72512L14.9022 4.72509L14.769 4.64569C14.3829 4.41584 14.0178 4.20178 13.6523 4.01581C12.9236 3.64502 12.2374 3.40957 11.5 3.40957C10.3073 3.40957 9.29359 4.01318 8.02597 4.76798L7.95205 4.81199ZM17.0907 5.17939C17.2117 4.82678 17.5956 4.63901 17.9483 4.75999C18.4809 4.94274 19.0385 5.05436 19.6459 5.05436C20.0187 5.05436 20.3209 5.35657 20.3209 5.72936C20.3209 6.10215 20.0187 6.40436 19.6459 6.40436C18.8668 6.40436 18.1607 6.26013 17.5101 6.03692C17.1575 5.91594 16.9698 5.53201 17.0907 5.17939ZM7.88879 7.38607C7.46008 7.64077 7.00558 7.90511 6.5256 8.13971C6.19068 8.3034 5.78646 8.1646 5.62276 7.82967C5.45906 7.49474 5.59787 7.09052 5.9328 6.92682C6.35981 6.71812 6.7741 6.47803 7.19927 6.22544L7.40274 6.10424C7.75833 5.89217 8.12553 5.67316 8.49499 5.4749C9.38043 4.99975 10.3618 4.59603 11.5 4.59603C13.0738 4.59603 14.3839 5.37897 15.55 6.07589L15.7385 6.1884C17.003 6.94107 18.1749 7.59082 19.6459 7.59082C20.0187 7.59082 20.3209 7.89303 20.3209 8.26582C20.3209 8.63861 20.0187 8.94082 19.6459 8.94082C17.7626 8.94082 16.2992 8.09318 15.048 7.34845L14.9741 7.30444C13.7065 6.54964 12.6928 5.94603 11.5 5.94603C10.6897 5.94603 9.94268 6.23013 9.13333 6.66444C8.79325 6.84694 8.45679 7.04756 8.10111 7.25963L7.88879 7.38607ZM5.44505 7.90988C5.53871 8.27072 5.32213 8.63916 4.9613 8.73283C4.45944 8.8631 3.92602 8.94082 3.3542 8.94082C2.98141 8.94082 2.6792 8.63861 2.6792 8.26582C2.6792 7.89303 2.98141 7.59082 3.3542 7.59082C3.80146 7.59082 4.22078 7.53031 4.6221 7.42614C4.98293 7.33247 5.35138 7.54905 5.44505 7.90988ZM11.9773 6.8302L13.6963 8.54916L13.8959 8.54916C14.2687 8.54916 14.5709 8.85137 14.5709 9.22416C14.5709 9.59695 14.2687 9.89916 13.8959 9.89916L13.4167 9.89916C13.2377 9.89916 13.066 9.82805 12.9394 9.70146L11.5 8.26209L10.0607 9.70146C9.93408 9.82805 9.76239 9.89916 9.58337 9.89916L9.1042 9.89916C8.73141 9.89916 8.4292 9.59696 8.4292 9.22416C8.4292 8.85137 8.73141 8.54916 9.1042 8.54916H9.30377L11.0227 6.8302C11.2863 6.5666 11.7137 6.5666 11.9773 6.8302ZM12.175 9.99987L12.175 14.0158C12.175 14.3886 11.8728 14.6908 11.5 14.6908C11.1272 14.6908 10.825 14.3886 10.825 14.0158V9.99987C10.825 9.62708 11.1272 9.32487 11.5 9.32487C11.8728 9.32487 12.175 9.62708 12.175 9.99987ZM12.175 16.4117L12.175 18.8075C12.175 19.1803 11.8728 19.4825 11.5 19.4825C11.1272 19.4825 10.825 19.1803 10.825 18.8075V16.4117C10.825 16.0389 11.1272 15.7367 11.5 15.7367C11.8728 15.7367 12.175 16.0389 12.175 16.4117ZM17.7273 9.2551C17.4637 8.9915 17.0363 8.9915 16.7727 9.2551L15.0538 10.9741H14.8542C14.4814 10.9741 14.1792 11.2763 14.1792 11.6491C14.1792 12.0219 14.4814 12.3241 14.8542 12.3241H15.3334C15.5124 12.3241 15.6841 12.2529 15.8107 12.1264L17.25 10.687L18.6894 12.1264C18.816 12.2529 18.9877 12.3241 19.1667 12.3241H19.6459C20.0187 12.3241 20.3209 12.0219 20.3209 11.6491C20.3209 11.2763 20.0187 10.9741 19.6459 10.9741H19.4463L17.7273 9.2551ZM17.925 15.6929L17.925 12.328C17.925 11.9552 17.6228 11.653 17.25 11.653C16.8772 11.653 16.575 11.9552 16.575 12.328L16.575 15.6929C16.575 16.0657 16.8772 16.3679 17.25 16.3679C17.6228 16.3679 17.925 16.0657 17.925 15.6929ZM16.575 19.7658C16.575 20.1386 16.8772 20.4408 17.25 20.4408C17.6228 20.4408 17.925 20.1386 17.925 19.7658V17.7294C17.925 17.3566 17.6228 17.0544 17.25 17.0544C16.8772 17.0544 16.575 17.3566 16.575 17.7294L16.575 19.7658ZM5.27274 9.2551C5.53634 8.9915 5.96373 8.9915 6.22733 9.2551L7.94629 10.9741H8.14587C8.51866 10.9741 8.82087 11.2763 8.82087 11.6491C8.82087 12.0219 8.51866 12.3241 8.14587 12.3241H7.6667C7.48768 12.3241 7.31599 12.2529 7.1894 12.1264L5.75003 10.687L4.31066 12.1264C4.18408 12.2529 4.01239 12.3241 3.83337 12.3241H3.3542C2.98141 12.3241 2.6792 12.0219 2.6792 11.6491C2.6792 11.2763 2.98141 10.9741 3.3542 10.9741H3.55377L5.27274 9.2551ZM6.42503 12.3732L6.42503 15.6929C6.42503 16.0657 6.12283 16.3679 5.75003 16.3679C5.37724 16.3679 5.07503 16.0657 5.07503 15.6929L5.07503 12.3732C5.07503 12.0004 5.37724 11.6982 5.75003 11.6982C6.12283 11.6982 6.42503 12.0004 6.42503 12.3732ZM5.75003 20.4408C5.37724 20.4408 5.07503 20.1386 5.07503 19.7658V17.7294C5.07503 17.3566 5.37724 17.0544 5.75003 17.0544C6.12283 17.0544 6.42503 17.3566 6.42503 17.7294V19.7658C6.42503 20.1386 6.12283 20.4408 5.75003 20.4408Z" fill="#332A2A"/>
</g>
<defs>
<clipPath id="clip0_1053_12228">
<rect width="23" height="23" fill="white"/>
</clipPath>
</defs>
</svg>
