<svg width="44" height="44" viewBox="0 0 44 44" fill="none" xmlns="http://www.w3.org/2000/svg">
<g clip-path="url(#clip0_1053_12160)">
<path fill-rule="evenodd" clip-rule="evenodd" d="M14.9358 9.69655C12.5369 11.1244 9.85413 12.6667 6.41675 12.6667C6.00254 12.6667 5.66675 12.3309 5.66675 11.9167C5.66675 11.5025 6.00254 11.1667 6.41675 11.1667C9.39604 11.1667 11.7549 9.84432 14.1686 8.40761C14.2779 8.34255 14.3874 8.27714 14.4973 8.21154L14.4991 8.21046C16.7576 6.86201 19.1435 5.4375 22.0001 5.4375C23.864 5.4375 25.5088 6.03848 27.0432 6.81924C27.8092 7.20899 28.5598 7.65006 29.298 8.08959L29.5548 8.24262C30.2108 8.63383 30.8588 9.02022 31.5248 9.38202C31.8887 9.57976 32.0235 10.0351 31.8258 10.3991C31.628 10.763 31.1727 10.8978 30.8087 10.7001C30.1145 10.3229 29.4393 9.92028 28.786 9.53068L28.5306 9.37844C27.7922 8.93878 27.0799 8.5209 26.363 8.15613C24.9317 7.42784 23.5309 6.9375 22.0001 6.9375C19.5671 6.9375 17.5107 8.1626 15.1429 9.57319L14.9358 9.69655ZM33.2073 11.0402C33.3418 10.6484 33.7684 10.4398 34.1601 10.5742C35.2264 10.94 36.3526 11.1667 37.5834 11.1667C37.9976 11.1667 38.3334 11.5025 38.3334 11.9167C38.3334 12.3309 37.9976 12.6667 37.5834 12.6667C36.1618 12.6667 34.8706 12.4038 33.6733 11.993C33.2816 11.8586 33.0729 11.432 33.2073 11.0402ZM14.8151 13.6641C13.9964 14.1505 13.1431 14.6465 12.2461 15.0849C11.8739 15.2668 11.4248 15.1126 11.2429 14.7404C11.061 14.3683 11.2153 13.9192 11.5874 13.7373C12.4255 13.3276 13.2342 12.8586 14.049 12.3745C14.1782 12.2978 14.3078 12.2205 14.4377 12.143L14.4386 12.1425L14.4415 12.1408L14.4418 12.1406C15.1222 11.7348 15.8123 11.3233 16.5073 10.9503C18.1706 10.0577 19.9541 9.33333 22.0001 9.33333C24.8567 9.33333 27.2426 10.7578 29.5011 12.1063C29.6115 12.1723 29.7217 12.238 29.8316 12.3034C32.2453 13.7401 34.6041 15.0625 37.5834 15.0625C37.9976 15.0625 38.3334 15.3983 38.3334 15.8125C38.3334 16.2267 37.9976 16.5625 37.5834 16.5625C34.146 16.5625 31.4632 15.0203 29.0644 13.5924L28.8573 13.469C26.4895 12.0584 24.4331 10.8333 22.0001 10.8333C20.3184 10.8333 18.7954 11.4248 17.2165 12.272C16.5542 12.6275 15.8982 13.0186 15.2177 13.4244C15.0846 13.5038 14.9504 13.5837 14.8151 13.6641ZM9.89269 15.2676C9.99676 15.6685 9.75612 16.0779 9.35519 16.182C8.43542 16.4207 7.46072 16.5625 6.41675 16.5625C6.00254 16.5625 5.66675 16.2267 5.66675 15.8125C5.66675 15.3983 6.00254 15.0625 6.41675 15.0625C7.32232 15.0625 8.17024 14.9398 8.97831 14.7301C9.37923 14.626 9.78861 14.8667 9.89269 15.2676ZM22.5304 13.4489L25.9774 16.8959H26.5834C26.9976 16.8959 27.3334 17.2316 27.3334 17.6459C27.3334 18.0601 26.9976 18.3959 26.5834 18.3959H25.6667C25.4678 18.3959 25.2771 18.3168 25.1364 18.1762L22.0001 15.0398L18.8637 18.1762C18.7231 18.3168 18.5323 18.3959 18.3334 18.3959L17.4167 18.3959C17.0025 18.3959 16.6667 18.0601 16.6667 17.6459C16.6667 17.2316 17.0025 16.8959 17.4167 16.8959H18.0228L21.4698 13.4489C21.7626 13.156 22.2375 13.156 22.5304 13.4489ZM22.0001 16.8958C22.4143 16.8958 22.7501 17.2316 22.7501 17.6458V26.8125C22.7501 27.2267 22.4143 27.5625 22.0001 27.5625C21.5859 27.5625 21.2501 27.2267 21.2501 26.8125V17.6458C21.2501 17.2316 21.5859 16.8958 22.0001 16.8958ZM22.7501 31.3958V35.9792C22.7501 36.3934 22.4143 36.7292 22.0001 36.7292C21.5859 36.7292 21.2501 36.3934 21.2501 35.9792V31.3958C21.2501 30.9816 21.5859 30.6458 22.0001 30.6458C22.4143 30.6458 22.7501 30.9816 22.7501 31.3958ZM36.9774 21.5348L33.5304 18.0878C33.2375 17.7949 32.7626 17.7949 32.4698 18.0878L29.0228 21.5348H28.4167C28.0025 21.5348 27.6667 21.8706 27.6667 22.2848C27.6667 22.699 28.0025 23.0348 28.4167 23.0348H29.3334C29.5323 23.0348 29.7231 22.9558 29.8637 22.8151L33.0001 19.6788L36.1364 22.8151C36.2771 22.9558 36.4678 23.0348 36.6667 23.0348H37.5834C37.9976 23.0348 38.3334 22.699 38.3334 22.2848C38.3334 21.8706 37.9976 21.5348 37.5834 21.5348H36.9774ZM33.0001 38.5625C33.4143 38.5625 33.7501 38.2267 33.7501 37.8125V33.9167C33.7501 33.5025 33.4143 33.1667 33.0001 33.1667C32.5859 33.1667 32.2501 33.5025 32.2501 33.9167V37.8125C32.2501 38.2267 32.5859 38.5625 33.0001 38.5625ZM32.2501 30.0208C32.2501 30.435 32.5859 30.7708 33.0001 30.7708C33.4143 30.7708 33.7501 30.435 33.7501 30.0208V22.2292C33.7501 21.815 33.4143 21.4792 33.0001 21.4792C32.5859 21.4792 32.2501 21.815 32.2501 22.2292V30.0208ZM11.5304 18.0878L14.9774 21.5348H15.5834C15.9976 21.5348 16.3334 21.8706 16.3334 22.2848C16.3334 22.699 15.9976 23.0348 15.5834 23.0348H14.6667C14.4678 23.0348 14.2771 22.9558 14.1364 22.8151L11.0001 19.6788L7.86374 22.8151C7.72309 22.9558 7.53233 23.0348 7.33341 23.0348H6.41675C6.00253 23.0348 5.66675 22.699 5.66675 22.2848C5.66675 21.8706 6.00253 21.5348 6.41675 21.5348H7.02275L10.4698 18.0878C10.7626 17.7949 11.2375 17.7949 11.5304 18.0878ZM11.0001 38.5625C10.5859 38.5625 10.2501 38.2267 10.2501 37.8125L10.2501 33.9167C10.2501 33.5025 10.5859 33.1667 11.0001 33.1667C11.4143 33.1667 11.7501 33.5025 11.7501 33.9167L11.7501 37.8125C11.7501 38.2267 11.4143 38.5625 11.0001 38.5625ZM11.0001 30.7708C10.5859 30.7708 10.2501 30.435 10.2501 30.0208L10.2501 22.2292C10.2501 21.815 10.5859 21.4792 11.0001 21.4792C11.4143 21.4792 11.7501 21.815 11.7501 22.2292L11.7501 30.0208C11.7501 30.435 11.4143 30.7708 11.0001 30.7708Z" fill="#252323"/>
</g>
<defs>
<clipPath id="clip0_1053_12160">
<rect width="44" height="44" fill="white"/>
</clipPath>
</defs>
</svg>
