<svg width="18" height="18" viewBox="0 0 18 18" fill="none" xmlns="http://www.w3.org/2000/svg">
<g clip-path="url(#clip0_1053_12201)">
<path fill-rule="evenodd" clip-rule="evenodd" d="M6.2728 3.74018C5.2946 4.32245 4.12837 5 2.625 5C2.27982 5 2 4.72018 2 4.375C2 4.02982 2.27982 3.75 2.625 3.75C3.74663 3.75 4.6429 3.25568 5.63345 2.66607L5.78564 2.5752C6.69386 2.03216 7.74069 1.40625 9 1.40625C9.8332 1.40625 10.5578 1.67557 11.2074 2.00611C11.5312 2.17085 11.8463 2.3562 12.1483 2.53598L12.2535 2.59869C12.5225 2.75911 12.7819 2.91375 13.0484 3.05851C13.3081 3.19965 13.4278 3.49827 13.3533 3.77164C13.5064 3.53928 13.8024 3.43037 14.0778 3.52486C14.4862 3.66498 14.9119 3.75 15.375 3.75C15.7202 3.75 16 4.02982 16 4.375C16 4.72018 15.7202 5 15.375 5C14.753 5 14.1897 4.88478 13.6722 4.7072C13.3584 4.59953 13.1856 4.26698 13.272 3.95141C13.0955 4.22021 12.7393 4.31318 12.4516 4.15689C12.1616 3.99933 11.8797 3.83116 11.613 3.67211L11.613 3.67211L11.5088 3.61003C11.2067 3.43014 10.9234 3.26411 10.6405 3.12018C10.0769 2.83338 9.55556 2.65625 9 2.65625C8.09347 2.65625 7.3209 3.1162 6.31684 3.71397L6.2728 3.74018ZM6.22322 5.86342C5.88745 6.0629 5.52888 6.27151 5.14945 6.45696C4.87419 6.5915 4.54839 6.50537 4.37263 6.26745C4.39964 6.56655 4.20727 6.84993 3.90704 6.92787C3.50707 7.03169 3.08144 7.09375 2.625 7.09375C2.27982 7.09375 2 6.81393 2 6.46875C2 6.12357 2.27982 5.84375 2.625 5.84375C2.96611 5.84375 3.28609 5.79763 3.59296 5.71797C3.84695 5.65204 4.10502 5.75212 4.25228 5.9507C4.23012 5.70037 4.36129 5.45087 4.60055 5.33393C4.93094 5.17245 5.25229 4.98629 5.58478 4.78876L5.74339 4.69428L5.74339 4.69428L5.74341 4.69427L5.74342 4.69426L5.74343 4.69426C6.02167 4.52831 6.31124 4.3556 6.60249 4.19931C7.30089 3.82453 8.08574 3.5 9 3.5C10.2593 3.5 11.3061 4.12592 12.2144 4.66895L12.3666 4.75982C13.3571 5.34943 14.2534 5.84375 15.375 5.84375C15.7202 5.84375 16 6.12357 16 6.46875C16 6.81393 15.7202 7.09375 15.375 7.09375C13.8716 7.09375 12.7054 6.4162 11.7272 5.83393L11.6832 5.80772C10.6791 5.20995 9.90653 4.75 9 4.75C8.38933 4.75 7.8215 4.96377 7.19354 5.30074C6.92949 5.44244 6.66836 5.59813 6.39001 5.76409L6.22322 5.86342ZM9.44194 5.27682L10.7589 6.59376H10.875C11.2202 6.59376 11.5 6.87358 11.5 7.21876C11.5 7.56394 11.2202 7.84376 10.875 7.84376H10.5C10.3342 7.84376 10.1753 7.77791 10.0581 7.6607L9 6.60264L7.94194 7.6607C7.82473 7.77791 7.66576 7.84376 7.5 7.84376H7.125C6.77982 7.84376 6.5 7.56394 6.5 7.21876C6.5 6.87358 6.77982 6.59376 7.125 6.59376H7.24112L8.55806 5.27682C8.80214 5.03274 9.19787 5.03274 9.44194 5.27682ZM9.625 8L9.625 10.9688C9.625 11.3139 9.34518 11.5938 9 11.5938C8.65482 11.5938 8.375 11.3139 8.375 10.9688L8.375 8C8.375 7.65482 8.65482 7.375 9 7.375C9.34518 7.375 9.625 7.65482 9.625 8ZM9.625 12.8438V14.7188C9.625 15.0639 9.34518 15.3438 9 15.3438C8.65482 15.3438 8.375 15.0639 8.375 14.7188V12.8438C8.375 12.4986 8.65482 12.2188 9 12.2188C9.34518 12.2188 9.625 12.4986 9.625 12.8438ZM15.2589 8.49151L13.9419 7.17457C13.6979 6.93049 13.3021 6.93049 13.0581 7.17457L11.7411 8.49151H11.625C11.2798 8.49151 11 8.77133 11 9.11651C11 9.46169 11.2798 9.74151 11.625 9.74151H12C12.1658 9.74151 12.3247 9.67566 12.4419 9.55845L13.5 8.50039L14.5581 9.55845C14.6753 9.67566 14.8342 9.74151 15 9.74151H15.375C15.7202 9.74151 16 9.46169 16 9.11651C16 8.77133 15.7202 8.49151 15.375 8.49151H15.2589ZM14.125 12.2812L14.125 10C14.125 9.65482 13.8452 9.375 13.5 9.375C13.1548 9.375 12.875 9.65482 12.875 10L12.875 12.2812C12.875 12.6264 13.1548 12.9062 13.5 12.9062C13.8452 12.9062 14.125 12.6264 14.125 12.2812ZM12.875 15.4688C12.875 15.8139 13.1548 16.0938 13.5 16.0938C13.8452 16.0938 14.125 15.8139 14.125 15.4688V13.875C14.125 13.5298 13.8452 13.25 13.5 13.25C13.1548 13.25 12.875 13.5298 12.875 13.875V15.4688ZM4.94194 7.17457L6.25888 8.49151H6.375C6.72018 8.49151 7 8.77133 7 9.11651C7 9.46169 6.72018 9.74151 6.375 9.74151H6C5.83424 9.74151 5.67527 9.67566 5.55806 9.55845L4.5 8.50039L3.44194 9.55845C3.32473 9.67566 3.16576 9.74151 3 9.74151H2.625C2.27982 9.74151 2 9.46169 2 9.11651C2 8.77133 2.27982 8.49151 2.625 8.49151H2.74112L4.05806 7.17457C4.30214 6.93049 4.69786 6.93049 4.94194 7.17457ZM5.125 10L5.125 12.2812C5.125 12.6264 4.84518 12.9062 4.5 12.9062C4.15482 12.9062 3.875 12.6264 3.875 12.2812L3.875 10C3.875 9.65482 4.15482 9.375 4.5 9.375C4.84518 9.375 5.125 9.65482 5.125 10ZM4.5 16.0938C4.15482 16.0938 3.875 15.8139 3.875 15.4688L3.875 13.875C3.875 13.5298 4.15482 13.25 4.5 13.25C4.84518 13.25 5.125 13.5298 5.125 13.875L5.125 15.4688C5.125 15.8139 4.84518 16.0938 4.5 16.0938Z" fill="#332A2A"/>
</g>
<defs>
<clipPath id="clip0_1053_12201">
<rect width="18" height="18" fill="white"/>
</clipPath>
</defs>
</svg>
