<svg width="23" height="24" viewBox="0 0 23 24" fill="none" xmlns="http://www.w3.org/2000/svg">
<g clip-path="url(#clip0_1053_12228)">
<path fill-rule="evenodd" clip-rule="evenodd" d="M7.95205 5.31199C6.70091 6.05672 5.23742 6.90436 3.3542 6.90436C2.98141 6.90436 2.6792 6.60215 2.6792 6.22936C2.6792 5.85657 2.98141 5.55436 3.3542 5.55436C4.82514 5.55436 5.99707 4.90461 7.26155 4.15194L7.45007 4.03943C8.61617 3.34251 9.92623 2.55957 11.5 2.55957C12.5372 2.55957 13.443 2.89459 14.2645 3.31261C14.6742 3.52106 15.0738 3.75599 15.4596 3.98572L15.594 4.06582C15.9375 4.27064 16.2711 4.46957 16.6139 4.6558C16.9415 4.83377 17.0628 5.24358 16.8848 5.57115C16.7069 5.89873 16.297 6.02001 15.9695 5.84205C15.6012 5.64199 15.2432 5.42847 14.9022 5.22512L14.9022 5.22509L14.769 5.14569C14.3829 4.91584 14.0178 4.70178 13.6523 4.51581C12.9236 4.14502 12.2374 3.90957 11.5 3.90957C10.3073 3.90957 9.29359 4.51318 8.02597 5.26798L7.95205 5.31199ZM17.0907 5.67939C17.2117 5.32678 17.5956 5.13901 17.9483 5.25999C18.4809 5.44274 19.0385 5.55436 19.6459 5.55436C20.0187 5.55436 20.3209 5.85657 20.3209 6.22936C20.3209 6.60215 20.0187 6.90436 19.6459 6.90436C18.8668 6.90436 18.1607 6.76013 17.5101 6.53692C17.1575 6.41594 16.9698 6.03201 17.0907 5.67939ZM7.88879 7.88607C7.46008 8.14077 7.00558 8.40511 6.5256 8.63971C6.19068 8.8034 5.78646 8.6646 5.62276 8.32967C5.45906 7.99474 5.59787 7.59052 5.9328 7.42682C6.35981 7.21812 6.7741 6.97803 7.19927 6.72544L7.40274 6.60424C7.75833 6.39217 8.12553 6.17316 8.49499 5.9749C9.38043 5.49975 10.3618 5.09603 11.5 5.09603C13.0738 5.09603 14.3839 5.87897 15.55 6.57589L15.7385 6.6884C17.003 7.44107 18.1749 8.09082 19.6459 8.09082C20.0187 8.09082 20.3209 8.39303 20.3209 8.76582C20.3209 9.13861 20.0187 9.44082 19.6459 9.44082C17.7626 9.44082 16.2992 8.59318 15.048 7.84845L14.9741 7.80444C13.7065 7.04964 12.6928 6.44603 11.5 6.44603C10.6897 6.44603 9.94268 6.73013 9.13333 7.16444C8.79325 7.34694 8.45679 7.54756 8.10111 7.75963L7.88879 7.88607ZM5.44505 8.40988C5.53871 8.77072 5.32213 9.13916 4.9613 9.23283C4.45944 9.3631 3.92602 9.44082 3.3542 9.44082C2.98141 9.44082 2.6792 9.13861 2.6792 8.76582C2.6792 8.39303 2.98141 8.09082 3.3542 8.09082C3.80146 8.09082 4.22078 8.03031 4.6221 7.92614C4.98293 7.83247 5.35138 8.04905 5.44505 8.40988ZM11.9773 7.3302L13.6963 9.04916L13.8959 9.04916C14.2687 9.04916 14.5709 9.35137 14.5709 9.72416C14.5709 10.097 14.2687 10.3992 13.8959 10.3992L13.4167 10.3992C13.2377 10.3992 13.066 10.328 12.9394 10.2015L11.5 8.76209L10.0607 10.2015C9.93408 10.328 9.76239 10.3992 9.58337 10.3992L9.1042 10.3992C8.73141 10.3992 8.4292 10.097 8.4292 9.72416C8.4292 9.35137 8.73141 9.04916 9.1042 9.04916H9.30377L11.0227 7.3302C11.2863 7.0666 11.7137 7.0666 11.9773 7.3302ZM12.175 10.4999L12.175 14.5158C12.175 14.8886 11.8728 15.1908 11.5 15.1908C11.1272 15.1908 10.825 14.8886 10.825 14.5158V10.4999C10.825 10.1271 11.1272 9.82487 11.5 9.82487C11.8728 9.82487 12.175 10.1271 12.175 10.4999ZM12.175 16.9117L12.175 19.3075C12.175 19.6803 11.8728 19.9825 11.5 19.9825C11.1272 19.9825 10.825 19.6803 10.825 19.3075V16.9117C10.825 16.5389 11.1272 16.2367 11.5 16.2367C11.8728 16.2367 12.175 16.5389 12.175 16.9117ZM17.7273 9.7551C17.4637 9.4915 17.0363 9.4915 16.7727 9.7551L15.0538 11.4741H14.8542C14.4814 11.4741 14.1792 11.7763 14.1792 12.1491C14.1792 12.5219 14.4814 12.8241 14.8542 12.8241H15.3334C15.5124 12.8241 15.6841 12.7529 15.8107 12.6264L17.25 11.187L18.6894 12.6264C18.816 12.7529 18.9877 12.8241 19.1667 12.8241H19.6459C20.0187 12.8241 20.3209 12.5219 20.3209 12.1491C20.3209 11.7763 20.0187 11.4741 19.6459 11.4741H19.4463L17.7273 9.7551ZM17.925 16.1929L17.925 12.828C17.925 12.4552 17.6228 12.153 17.25 12.153C16.8772 12.153 16.575 12.4552 16.575 12.828L16.575 16.1929C16.575 16.5657 16.8772 16.8679 17.25 16.8679C17.6228 16.8679 17.925 16.5657 17.925 16.1929ZM16.575 20.2658C16.575 20.6386 16.8772 20.9408 17.25 20.9408C17.6228 20.9408 17.925 20.6386 17.925 20.2658V18.2294C17.925 17.8566 17.6228 17.5544 17.25 17.5544C16.8772 17.5544 16.575 17.8566 16.575 18.2294L16.575 20.2658ZM5.27274 9.7551C5.53634 9.4915 5.96373 9.4915 6.22733 9.7551L7.94629 11.4741H8.14587C8.51866 11.4741 8.82087 11.7763 8.82087 12.1491C8.82087 12.5219 8.51866 12.8241 8.14587 12.8241H7.6667C7.48768 12.8241 7.31599 12.7529 7.1894 12.6264L5.75003 11.187L4.31066 12.6264C4.18408 12.7529 4.01239 12.8241 3.83337 12.8241H3.3542C2.98141 12.8241 2.6792 12.5219 2.6792 12.1491C2.6792 11.7763 2.98141 11.4741 3.3542 11.4741H3.55377L5.27274 9.7551ZM6.42503 12.8732L6.42503 16.1929C6.42503 16.5657 6.12283 16.8679 5.75003 16.8679C5.37724 16.8679 5.07503 16.5657 5.07503 16.1929L5.07503 12.8732C5.07503 12.5004 5.37724 12.1982 5.75003 12.1982C6.12283 12.1982 6.42503 12.5004 6.42503 12.8732ZM5.75003 20.9408C5.37724 20.9408 5.07503 20.6386 5.07503 20.2658V18.2294C5.07503 17.8566 5.37724 17.5544 5.75003 17.5544C6.12283 17.5544 6.42503 17.8566 6.42503 18.2294V20.2658C6.42503 20.6386 6.12283 20.9408 5.75003 20.9408Z" fill="#252323"/>
</g>
<defs>
<clipPath id="clip0_1053_12228">
<rect width="23" height="23" fill="white" transform="translate(0 0.5)"/>
</clipPath>
</defs>
</svg>
