<svg width="44" height="44" viewBox="0 0 44 44" fill="none" xmlns="http://www.w3.org/2000/svg">
<g clip-path="url(#clip0_1053_12160)">
<path d="M10.9998 33.167C11.414 33.167 11.7498 33.5028 11.7498 33.917V37.8125C11.7498 38.2267 11.414 38.5625 10.9998 38.5625C10.5857 38.5623 10.2498 38.2266 10.2498 37.8125V33.917C10.2498 33.5029 10.5857 33.1672 10.9998 33.167ZM32.9998 33.167C33.414 33.167 33.7498 33.5028 33.7498 33.917V37.8125C33.7498 38.2267 33.414 38.5625 32.9998 38.5625C32.5857 38.5623 32.2498 38.2266 32.2498 37.8125V33.917C32.2498 33.5029 32.5857 33.1672 32.9998 33.167ZM21.9998 30.6465C22.414 30.6465 22.7498 30.9823 22.7498 31.3965V35.9795C22.7496 36.3936 22.4139 36.7295 21.9998 36.7295C21.5858 36.7293 21.2499 36.3934 21.2498 35.9795V31.3965C21.2498 30.9824 21.5857 30.6467 21.9998 30.6465ZM10.9998 21.4795C11.414 21.4795 11.7498 21.8153 11.7498 22.2295V30.0205C11.7498 30.4347 11.414 30.7705 10.9998 30.7705C10.5857 30.7703 10.2498 30.4346 10.2498 30.0205V22.2295C10.2498 21.8154 10.5857 21.4797 10.9998 21.4795ZM32.9998 21.4795C33.414 21.4795 33.7498 21.8153 33.7498 22.2295V30.0205C33.7498 30.4347 33.414 30.7705 32.9998 30.7705C32.5857 30.7703 32.2498 30.4346 32.2498 30.0205V22.2295C32.2498 21.8154 32.5857 21.4797 32.9998 21.4795ZM21.9998 16.8965C22.414 16.8965 22.7498 17.2323 22.7498 17.6465V26.8125C22.7496 27.2266 22.4139 27.5625 21.9998 27.5625C21.5858 27.5623 21.2499 27.2265 21.2498 26.8125V17.6465C21.2498 17.2324 21.5857 16.8967 21.9998 16.8965ZM10.4695 18.0879C10.7623 17.7951 11.2371 17.7952 11.53 18.0879L14.9773 21.5352H15.5837C15.9978 21.5353 16.3337 21.8711 16.3337 22.2852C16.3335 22.6991 15.9977 23.035 15.5837 23.0352H14.6667C14.4679 23.0352 14.2771 22.956 14.1365 22.8154L10.9998 19.6787L7.86401 22.8154C7.72344 22.956 7.53253 23.0351 7.33374 23.0352H6.41675C6.00265 23.0352 5.66694 22.6992 5.66675 22.2852C5.66675 21.8709 6.00253 21.5352 6.41675 21.5352H7.02319L10.4695 18.0879ZM32.4695 18.0879C32.7623 17.7951 33.2371 17.7952 33.53 18.0879L36.9773 21.5352H37.5837C37.9978 21.5353 38.3337 21.8711 38.3337 22.2852C38.3335 22.6991 37.9977 23.035 37.5837 23.0352H36.6667C36.4679 23.0352 36.2771 22.956 36.1365 22.8154L32.9998 19.6787L29.864 22.8154C29.7234 22.956 29.5325 23.0351 29.3337 23.0352H28.4167C28.0027 23.0352 27.6669 22.6992 27.6667 22.2852C27.6667 21.8709 28.0025 21.5352 28.4167 21.5352H29.0232L32.4695 18.0879ZM21.4695 13.4492C21.7623 13.1564 22.2371 13.1565 22.53 13.4492L25.9773 16.8965H26.5837C26.9978 16.8967 27.3337 17.2324 27.3337 17.6465C27.3334 18.0603 26.9976 18.3963 26.5837 18.3965H25.6667C25.468 18.3965 25.2771 18.3172 25.1365 18.1768L21.9998 15.04L18.864 18.1768C18.7235 18.3172 18.5325 18.3964 18.3337 18.3965H17.4167C17.0027 18.3965 16.6671 18.0604 16.6667 17.6465C16.6667 17.2323 17.0025 16.8965 17.4167 16.8965H18.0232L21.4695 13.4492ZM8.97827 14.7295C9.37906 14.6255 9.78814 14.8669 9.89233 15.2676C9.99626 15.6684 9.75601 16.0775 9.35522 16.1816C8.43545 16.4204 7.46072 16.5625 6.41675 16.5625C6.00264 16.5625 5.66692 16.2266 5.66675 15.8125C5.66692 15.3984 6.00264 15.0625 6.41675 15.0625C7.32232 15.0625 8.17021 14.9393 8.97827 14.7295ZM21.9998 9.33301C24.996 9.33301 27.4751 10.8999 29.8318 12.3027C32.2454 13.7394 34.6045 15.0625 37.5837 15.0625C37.9977 15.0627 38.3336 15.3985 38.3337 15.8125C38.3336 16.2265 37.9977 16.5623 37.5837 16.5625C34.1464 16.5625 31.463 15.0197 29.0642 13.5918C26.6086 12.1301 24.5033 10.833 21.9998 10.833C20.3183 10.8331 18.7952 11.4244 17.2166 12.2715C16.4246 12.6965 15.6417 13.173 14.8152 13.6641C13.9965 14.1504 13.1428 14.6466 12.2458 15.085C11.8738 15.2666 11.4248 15.1122 11.2429 14.7402C11.0612 14.3681 11.2156 13.9191 11.5876 13.7373C12.4256 13.3277 13.2339 12.858 14.0486 12.374C14.8555 11.8946 15.6785 11.3951 16.5076 10.9502C18.1708 10.0577 19.9541 9.33308 21.9998 9.33301ZM21.9998 5.4375C23.8637 5.4375 25.5093 6.03857 27.0437 6.81934C27.8095 7.209 28.5596 7.65043 29.2976 8.08984C30.042 8.53304 30.7725 8.97292 31.5251 9.38184C31.889 9.57963 32.0236 10.0355 31.8259 10.3994C31.6281 10.7632 31.1723 10.8979 30.8083 10.7002C30.0235 10.2738 29.2631 9.81477 28.531 9.37891C27.7926 8.93927 27.0799 8.52101 26.363 8.15625C24.9317 7.42797 23.5305 6.9375 21.9998 6.9375C19.4962 6.93761 17.3909 8.2346 14.9353 9.69629C12.5365 11.1241 9.85401 12.667 6.41675 12.667C6.00264 12.667 5.66692 12.3311 5.66675 11.917C5.66675 11.5028 6.00253 11.167 6.41675 11.167C9.39604 11.167 11.755 9.84393 14.1687 8.40723C16.5253 7.00449 19.0037 5.43761 21.9998 5.4375ZM33.2078 11.04C33.3423 10.6485 33.7683 10.44 34.1599 10.5742C35.2261 10.94 36.3529 11.167 37.5837 11.167C37.9978 11.1672 38.3337 11.5029 38.3337 11.917C38.3336 12.3309 37.9977 12.6668 37.5837 12.667C36.1623 12.667 34.8708 12.4039 33.6736 11.9932C33.2818 11.8587 33.0733 11.4318 33.2078 11.04Z" fill="#332A2A"/>
</g>
<defs>
<clipPath id="clip0_1053_12160">
<rect width="44" height="44" fill="white"/>
</clipPath>
</defs>
</svg>
