<svg width="28" height="28" viewBox="0 0 28 28" fill="none" xmlns="http://www.w3.org/2000/svg">
<g clip-path="url(#clip0_1053_12174)">
<path fill-rule="evenodd" clip-rule="evenodd" d="M9.64395 6.40489C8.12011 7.31193 6.35396 8.33333 4.08325 8.33333C3.66904 8.33333 3.33325 7.99755 3.33325 7.58333C3.33325 7.16912 3.66904 6.83333 4.08325 6.83333C5.89587 6.83333 7.33806 6.03182 8.87672 5.11595L9.10253 4.98119C10.5256 4.1309 12.1044 3.1875 13.9999 3.1875C15.2466 3.1875 16.3377 3.59005 17.3329 4.09645C17.8292 4.34901 18.3138 4.63391 18.7836 4.91358L18.9471 5.01106L18.9472 5.0111L18.9473 5.01116L18.9474 5.01122L18.9474 5.01124C19.3654 5.26045 19.7727 5.50333 20.1913 5.73073C20.5553 5.92847 20.69 6.38382 20.4923 6.74779C20.2945 7.11176 19.8392 7.24652 19.4752 7.04878C19.0283 6.80597 18.5937 6.54679 18.1785 6.29915L18.0162 6.20244C17.5462 5.92263 17.0999 5.66092 16.6526 5.43333C15.7605 4.97942 14.9135 4.6875 13.9999 4.6875C12.5279 4.6875 11.2784 5.4316 9.74343 6.34565L9.64395 6.40489ZM20.8738 6.93709C21.0083 6.54529 21.4349 6.33666 21.8267 6.47109C22.4813 6.69571 23.168 6.83333 23.9166 6.83333C24.3308 6.83333 24.6666 7.16912 24.6666 7.58333C24.6666 7.99755 24.3308 8.33333 23.9166 8.33333C22.9773 8.33333 22.1256 8.15948 21.3398 7.8899C20.9481 7.75547 20.7394 7.32888 20.8738 6.93709ZM9.56699 8.92982C9.04526 9.23978 8.4941 9.5603 7.91259 9.84452C7.54045 10.0264 7.09132 9.87217 6.90943 9.50003C6.72754 9.12789 6.88177 8.67876 7.25392 8.49687C7.77657 8.24142 8.28306 7.94785 8.80085 7.64024C8.88217 7.59192 8.96402 7.54311 9.04632 7.49403L9.04753 7.49331L9.04787 7.4931L9.04857 7.49268L9.04902 7.49242L9.04903 7.49241L9.04903 7.49241L9.04904 7.49241L9.04904 7.4924C9.48194 7.23422 9.92732 6.96859 10.3755 6.72807C11.4494 6.15179 12.6317 5.66667 13.9999 5.66667C15.8954 5.66667 17.4743 6.61007 18.8973 7.46036L19.1231 7.59511C20.6618 8.51098 22.104 9.3125 23.9166 9.3125C24.3308 9.3125 24.6666 9.64829 24.6666 10.0625C24.6666 10.4767 24.3308 10.8125 23.9166 10.8125C21.6459 10.8125 19.8797 9.7911 18.3559 8.88405L18.2564 8.82482C16.7215 7.91077 15.4719 7.16667 13.9999 7.16667C12.996 7.16667 12.0741 7.51888 11.0848 8.04979C10.6692 8.2728 10.258 8.518 9.82497 8.77619L9.82445 8.7765C9.73953 8.82713 9.65378 8.87826 9.56699 8.92982ZM6.55919 9.64721C6.66327 10.0481 6.42262 10.4575 6.0217 10.5616C5.41608 10.7188 4.77276 10.8125 4.08325 10.8125C3.66904 10.8125 3.33325 10.4767 3.33325 10.0625C3.33325 9.64829 3.66904 9.3125 4.08325 9.3125C4.63436 9.3125 5.1509 9.23792 5.64481 9.10971C6.04573 9.00564 6.45512 9.24628 6.55919 9.64721ZM14.5302 8.36552L16.6439 10.4792H16.9166C17.3308 10.4792 17.6666 10.815 17.6666 11.2292C17.6666 11.6434 17.3308 11.9792 16.9166 11.9792H16.3333C16.1343 11.9792 15.9436 11.9002 15.8029 11.7595L13.9999 9.95651L12.1969 11.7595C12.0563 11.9002 11.8655 11.9792 11.6666 11.9792H11.0833C10.669 11.9792 10.3333 11.6434 10.3333 11.2292C10.3333 10.815 10.669 10.4792 11.0833 10.4792H11.3559L13.4696 8.36552C13.7625 8.07262 14.2374 8.07262 14.5302 8.36552ZM14.7499 11.4998V17.0625C14.7499 17.4767 14.4141 17.8125 13.9999 17.8125C13.5857 17.8125 13.2499 17.4767 13.2499 17.0625V11.4998C13.2499 11.0856 13.5857 10.7498 13.9999 10.7498C14.4141 10.7498 14.7499 11.0856 14.7499 11.4998ZM14.7499 19.9792V22.8958C14.7499 23.31 14.4141 23.6458 13.9999 23.6458C13.5857 23.6458 13.2499 23.31 13.2499 22.8958V19.9792C13.2499 19.565 13.5857 19.2292 13.9999 19.2292C14.4141 19.2292 14.7499 19.565 14.7499 19.9792ZM23.6439 13.4312L21.5302 11.3176C21.2374 11.0247 20.7625 11.0247 20.4696 11.3176L18.3559 13.4312H18.0833C17.669 13.4312 17.3333 13.767 17.3333 14.1812C17.3333 14.5954 17.669 14.9312 18.0833 14.9312H18.6666C18.8655 14.9312 19.0563 14.8522 19.1969 14.7116L20.9999 12.9086L22.8029 14.7116C22.9436 14.8522 23.1343 14.9312 23.3333 14.9312H23.9166C24.3308 14.9312 24.6666 14.5954 24.6666 14.1812C24.6666 13.767 24.3308 13.4312 23.9166 13.4312H23.6439ZM21.7499 19.1042L21.7499 14.5C21.7499 14.0858 21.4141 13.75 20.9999 13.75C20.5857 13.75 20.2499 14.0858 20.2499 14.5V19.1042C20.2499 19.5184 20.5857 19.8542 20.9999 19.8542C21.4141 19.8542 21.7499 19.5184 21.7499 19.1042ZM20.9999 24.8125C21.4141 24.8125 21.7499 24.4767 21.7499 24.0625V21.5833C21.7499 21.1691 21.4141 20.8333 20.9999 20.8333C20.5857 20.8333 20.2499 21.1691 20.2499 21.5833V24.0625C20.2499 24.4767 20.5857 24.8125 20.9999 24.8125ZM6.46959 11.3176C6.76248 11.0247 7.23736 11.0247 7.53025 11.3176L9.64391 13.4312H9.91659C10.3308 13.4312 10.6666 13.767 10.6666 14.1812C10.6666 14.5954 10.3308 14.9312 9.91659 14.9312H9.33325C9.13434 14.9312 8.94357 14.8522 8.80292 14.7116L6.99992 12.9086L5.19691 14.7116C5.05626 14.8522 4.8655 14.9312 4.66658 14.9312H4.08325C3.66904 14.9312 3.33325 14.5954 3.33325 14.1812C3.33325 13.767 3.66904 13.4312 4.08325 13.4312H4.35592L6.46959 11.3176ZM7 24.8125C6.58579 24.8125 6.25 24.4767 6.25 24.0625L6.25 21.5625C6.25 21.1483 6.58579 20.8125 7 20.8125C7.41421 20.8125 7.75 21.1483 7.75 21.5625V24.0625C7.75 24.4767 7.41421 24.8125 7 24.8125ZM7 19.8125C6.58579 19.8125 6.25 19.4767 6.25 19.0625V14.5C6.25 14.0858 6.58579 13.75 7 13.75C7.41421 13.75 7.75 14.0858 7.75 14.5L7.75 19.0625C7.75 19.4767 7.41421 19.8125 7 19.8125Z" fill="#252323"/>
</g>
<defs>
<clipPath id="clip0_1053_12174">
<rect width="28" height="28" fill="white"/>
</clipPath>
</defs>
</svg>
