<svg width="28" height="28" viewBox="0 0 28 28" fill="none" xmlns="http://www.w3.org/2000/svg">
<g clip-path="url(#clip0_601_3294)">
<path fill-rule="evenodd" clip-rule="evenodd" d="M11.2499 4.08331H5.08325C4.53097 4.08331 4.08325 4.53103 4.08325 5.08331V18.25C4.08325 18.8023 4.53097 19.25 5.08325 19.25H8.16659H9.33325V22.9166C9.33325 23.4689 9.78097 23.9166 10.3333 23.9166H13.7083H15.8958H17.0833C17.6355 23.9166 18.0833 23.4689 18.0833 22.9166V19.25H19.8333H21.8749H22.9166C23.4689 19.25 23.9166 18.8023 23.9166 18.25V5.08331C23.9166 4.53103 23.4689 4.08331 22.9166 4.08331H16.7499C16.1976 4.08331 15.7499 4.53103 15.7499 5.08331V8.16665H12.2499V5.08331C12.2499 4.53103 11.8022 4.08331 11.2499 4.08331Z" fill="#E05149"/>
<path fill-rule="evenodd" clip-rule="evenodd" d="M3.33325 5.08331C3.33325 4.11682 4.11675 3.33331 5.08325 3.33331H11.2499C12.2164 3.33331 12.9999 4.11682 12.9999 5.08331V6.20665V7.41665H15V5.08331C15 4.11682 15.7835 3.33331 16.75 3.33331H18.9121C19.3263 3.33331 19.6621 3.6691 19.6621 4.08331C19.6621 4.49753 19.3263 4.83331 18.9121 4.83331H16.75C16.612 4.83331 16.5 4.94524 16.5 5.08331V5.2844L23.1667 8.85583V5.08331C23.1667 4.94524 23.0548 4.83331 22.9167 4.83331H21.875C21.4608 4.83331 21.125 4.49753 21.125 4.08331C21.125 3.6691 21.4608 3.33331 21.875 3.33331H22.9167C23.8832 3.33331 24.6667 4.11682 24.6667 5.08331V18.25C24.6667 19.2165 23.8832 20 22.9167 20H18.8333V22.9166C18.8333 23.8831 18.0498 24.6666 17.0833 24.6666H15.8958C15.4816 24.6666 15.1458 24.3309 15.1458 23.9166C15.1458 23.5024 15.4816 23.1666 15.8958 23.1666H17.0833C17.2214 23.1666 17.3333 23.0547 17.3333 22.9166V9.16665C17.3333 9.02858 17.2214 8.91665 17.0833 8.91665H10.3333C10.1952 8.91665 10.0833 9.02858 10.0833 9.16665V22.9166C10.0833 23.0547 10.1952 23.1666 10.3333 23.1666H12.9398C13.3541 23.1666 13.6898 23.5024 13.6898 23.9166C13.6898 24.3309 13.3541 24.6666 12.9398 24.6666H10.3333C9.36679 24.6666 8.58329 23.8831 8.58329 22.9166V20H5.08325C4.11675 20 3.33325 19.2165 3.33325 18.25V17.3541C3.33325 16.9399 3.66904 16.6041 4.08325 16.6041C4.49747 16.6041 4.83325 16.9399 4.83325 17.3541V18.25C4.83325 18.3881 4.94518 18.5 5.08325 18.5H8.15637C8.13695 18.4376 8.12649 18.3713 8.12649 18.3025C8.12649 18.0082 8.31806 17.7587 8.58329 17.6718V14.9517C8.31806 14.8648 8.12649 14.6153 8.12649 14.321C8.12649 14.0267 8.31806 13.7772 8.58329 13.6903V10.9702C8.31806 10.8833 8.12649 10.6337 8.12649 10.3395C8.12649 10.0452 8.31806 9.79563 8.58329 9.70873V9.16665C8.58329 8.20015 9.36679 7.41665 10.3333 7.41665H11.4999V6.20665V5.08331C11.4999 5.01821 11.475 4.95891 11.4342 4.91442C11.4409 4.95221 11.4444 4.9911 11.4444 5.0308C11.4444 5.39729 11.1473 5.69438 10.7808 5.69438C10.4143 5.69438 10.1172 5.39729 10.1172 5.0308C10.1172 4.96202 10.1277 4.89569 10.1471 4.83331H6.76936C6.78878 4.89569 6.79924 4.96202 6.79924 5.0308C6.79924 5.39729 6.50214 5.69438 6.13565 5.69438C5.76916 5.69438 5.47207 5.39729 5.47207 5.0308C5.47207 4.96202 5.48253 4.89569 5.50195 4.83331H5.08325C4.94518 4.83331 4.83325 4.94524 4.83325 5.08331V11.6666V14.433C4.83325 14.8472 4.49747 15.183 4.08325 15.183C3.66904 15.183 3.33325 14.8472 3.33325 14.433V11.6666V5.08331ZM23.1667 10.5622L18.3911 8.00386C18.6662 8.313 18.8333 8.72031 18.8333 9.16665V10.7864L23.1667 12.9796V10.5622ZM18.8333 14.7894V12.2097L23.1667 14.4383V17.5309L18.8333 14.7894ZM18.8333 16.5686V18.5H21.8377L18.8333 16.5686ZM17.3262 7.43338L16.5 6.99076V7.41665H17.0833C17.1657 7.41665 17.2468 7.42235 17.3262 7.43338ZM9.45366 7.02155C9.45366 7.38804 9.15657 7.68514 8.79008 7.68514C8.42359 7.68514 8.12649 7.38804 8.12649 7.02155C8.12649 6.65507 8.42359 6.35797 8.79008 6.35797C9.15657 6.35797 9.45366 6.65507 9.45366 7.02155ZM6.13565 17.6389C6.50214 17.6389 6.79924 17.3418 6.79924 16.9753C6.79924 16.6088 6.50214 16.3117 6.13565 16.3117C5.76916 16.3117 5.47207 16.6088 5.47207 16.9753C5.47207 17.3418 5.76916 17.6389 6.13565 17.6389ZM6.13565 13.6574C6.50214 13.6574 6.79924 13.3603 6.79924 12.9938C6.79924 12.6273 6.50214 12.3302 6.13565 12.3302C5.76916 12.3302 5.47207 12.6273 5.47207 12.9938C5.47207 13.3603 5.76916 13.6574 6.13565 13.6574ZM6.13565 9.67587C6.50214 9.67587 6.79924 9.37877 6.79924 9.01228C6.79924 8.64579 6.50214 8.3487 6.13565 8.3487C5.76916 8.3487 5.47207 8.64579 5.47207 9.01228C5.47207 9.37877 5.76916 9.67587 6.13565 9.67587Z" fill="#332A2A"/>
</g>
<defs>
<clipPath id="clip0_601_3294">
<rect width="28" height="28" fill="white"/>
</clipPath>
</defs>
</svg>
