<svg width="23" height="23" viewBox="0 0 23 23" fill="none" xmlns="http://www.w3.org/2000/svg">
<g clip-path="url(#clip0_601_3316)">
<path fill-rule="evenodd" clip-rule="evenodd" d="M9.06258 3.35419H4.35425C3.80196 3.35419 3.35425 3.8019 3.35425 4.35419V14.8125C3.35425 15.3648 3.80196 15.8125 4.35425 15.8125H6.70841H7.66675V18.6459C7.66675 19.1981 8.11446 19.6459 8.66675 19.6459H11.2605H13.0574H13.8542C14.4065 19.6459 14.8542 19.1981 14.8542 18.6459V15.8125H16.2917H17.9688H18.6459C19.1982 15.8125 19.6459 15.3648 19.6459 14.8125V4.35419C19.6459 3.8019 19.1982 3.35419 18.6459 3.35419H13.9376C13.3853 3.35419 12.9376 3.8019 12.9376 4.35419V6.70835H10.0626V4.35419C10.0626 3.8019 9.61487 3.35419 9.06258 3.35419Z" fill="#E05149"/>
<path fill-rule="evenodd" clip-rule="evenodd" d="M2.6792 4.35414C2.6792 3.42906 3.42912 2.67914 4.3542 2.67914H9.06253C9.98761 2.67914 10.7375 3.42906 10.7375 4.35414V5.0983V6.0333H12.2625V4.35414C12.2625 3.42906 13.0125 2.67914 13.9375 2.67914H15.3334C15.7062 2.67914 16.0084 2.98135 16.0084 3.35414C16.0084 3.72693 15.7062 4.02914 15.3334 4.02914H13.9375C13.8266 4.02914 13.7286 4.08475 13.67 4.16962L18.9709 6.60371V4.35414C18.9709 4.17465 18.8254 4.02914 18.6459 4.02914H17.9688C17.596 4.02914 17.2938 3.72693 17.2938 3.35414C17.2938 2.98135 17.596 2.67914 17.9688 2.67914H18.6459C19.5709 2.67914 20.3209 3.42906 20.3209 4.35414V14.8125C20.3209 15.7375 19.5709 16.4875 18.6459 16.4875H15.5292V18.6458C15.5292 19.5709 14.7793 20.3208 13.8542 20.3208H13.0573C12.6845 20.3208 12.3823 20.0186 12.3823 19.6458C12.3823 19.273 12.6845 18.9708 13.0573 18.9708H13.8542C14.0337 18.9708 14.1792 18.8253 14.1792 18.6458V15.8136L14.1792 15.8125L14.1792 15.8113V7.7083C14.1792 7.52881 14.0337 7.3833 13.8542 7.3833H8.6667C8.48721 7.3833 8.3417 7.52881 8.3417 7.70831V15.8117L8.3417 15.8125L8.3417 15.8133V18.6458C8.3417 18.8253 8.48721 18.9708 8.6667 18.9708H10.2223C10.595 18.9708 10.8973 19.273 10.8973 19.6458C10.8973 20.0186 10.595 20.3208 10.2223 20.3208H8.6667C7.74162 20.3208 6.9917 19.5709 6.9917 18.6458V16.4875H4.3542C3.42912 16.4875 2.6792 15.7375 2.6792 14.8125V14.2552C2.6792 13.8824 2.98141 13.5802 3.3542 13.5802C3.72699 13.5802 4.0292 13.8824 4.0292 14.2552V14.8125C4.0292 14.992 4.17471 15.1375 4.3542 15.1375H6.9917V7.70831C6.9917 6.78323 7.74162 6.0333 8.6667 6.0333H9.38753V5.0983V4.35414C9.38753 4.17465 9.24203 4.02914 9.06253 4.02914H4.3542C4.17471 4.02914 4.0292 4.17465 4.0292 4.35414V9.5833V11.7555C4.0292 12.1283 3.72699 12.4305 3.3542 12.4305C2.98141 12.4305 2.6792 12.1283 2.6792 11.7555V9.5833V4.35414ZM18.9709 7.83586L13.6125 5.3754V6.0333H13.8542C14.7793 6.0333 15.5292 6.78323 15.5292 7.7083V8.44473L18.9709 9.9689V7.83586ZM15.5292 11.7989V9.64747L18.9709 11.1962V13.3231L15.5292 11.7989ZM15.5292 13.0016V15.1375H18.6459C18.8254 15.1375 18.9709 14.992 18.9709 14.8125V14.5504L15.5292 13.0016ZM6.81485 13.1185C6.81485 13.589 6.43346 13.9703 5.963 13.9703C5.49253 13.9703 5.11114 13.589 5.11114 13.1185C5.11114 12.648 5.49253 12.2666 5.963 12.2666C6.43346 12.2666 6.81485 12.648 6.81485 13.1185ZM5.45188 9.88145C5.92235 9.88145 6.30374 9.50007 6.30374 9.0296C6.30374 8.55914 5.92235 8.17775 5.45188 8.17775C4.98142 8.17775 4.60003 8.55914 4.60003 9.0296C4.60003 9.50007 4.98142 9.88145 5.45188 9.88145ZM6.81485 5.45182C6.81485 5.92229 6.43346 6.30368 5.963 6.30368C5.49253 6.30368 5.11114 5.92229 5.11114 5.45182C5.11114 4.98136 5.49253 4.59997 5.963 4.59997C6.43346 4.59997 6.81485 4.98136 6.81485 5.45182Z" fill="#252323"/>
</g>
<defs>
<clipPath id="clip0_601_3316">
<rect width="23" height="23" fill="white"/>
</clipPath>
</defs>
</svg>
