<svg width="44" height="44" viewBox="0 0 44 44" fill="none" xmlns="http://www.w3.org/2000/svg">
<g clip-path="url(#clip0_189_286)">
<path fill-rule="evenodd" clip-rule="evenodd" d="M18.2501 6.41669H7.41675C6.86446 6.41669 6.41675 6.8644 6.41675 7.41669V29.25C6.41675 29.8023 6.86446 30.25 7.41675 30.25H12.8334H14.6667V36.5834C14.6667 37.1356 15.1145 37.5834 15.6667 37.5834H21.5417H24.9792H27.4167C27.969 37.5834 28.4167 37.1356 28.4167 36.5834V30.25H31.1667H34.3751H36.5834C37.1357 30.25 37.5834 29.8023 37.5834 29.25V7.41669C37.5834 6.8644 37.1357 6.41669 36.5834 6.41669H25.7501C25.1978 6.41669 24.7501 6.8644 24.7501 7.41669V12.8334H19.2501V7.41669C19.2501 6.8644 18.8024 6.41669 18.2501 6.41669Z" fill="#E05149"/>
<path fill-rule="evenodd" clip-rule="evenodd" d="M5.66675 7.41669C5.66675 6.45019 6.45025 5.66669 7.41675 5.66669H18.2501C19.2166 5.66669 20.0001 6.45019 20.0001 7.41669V9.75335V12.0834H24.0001V7.41669C24.0001 6.45019 24.7836 5.66669 25.7501 5.66669H31.1667C31.581 5.66669 31.9167 6.00247 31.9167 6.41669C31.9167 6.8309 31.581 7.16669 31.1667 7.16669H25.7501C25.612 7.16669 25.5001 7.27862 25.5001 7.41669V7.67774L36.8334 12.8818V7.41669C36.8334 7.27862 36.7215 7.16669 36.5834 7.16669H34.3751C33.9609 7.16669 33.6251 6.8309 33.6251 6.41669C33.6251 6.00247 33.9609 5.66669 34.3751 5.66669H36.5834C37.5499 5.66669 38.3334 6.45019 38.3334 7.41669V29.25C38.3334 30.2165 37.5499 31 36.5834 31H29.1667V36.5834C29.1667 37.5499 28.3832 38.3334 27.4167 38.3334H24.9792C24.565 38.3334 24.2292 37.9976 24.2292 37.5834C24.2292 37.1691 24.565 36.8334 24.9792 36.8334H27.4167C27.5548 36.8334 27.6667 36.7214 27.6667 36.5834V30.2517L27.6667 30.25L27.6667 30.2483V13.8334C27.6667 13.6953 27.5548 13.5834 27.4167 13.5834H15.6667C15.5287 13.5834 15.4167 13.6953 15.4167 13.8334V30.25V36.5834C15.4167 36.7214 15.5287 36.8334 15.6667 36.8334H21.5417C21.956 36.8334 22.2917 37.1691 22.2917 37.5834C22.2917 37.9976 21.956 38.3334 21.5417 38.3334H15.6667C14.7002 38.3334 13.9167 37.5499 13.9167 36.5834V31H7.41675C6.45025 31 5.66675 30.2165 5.66675 29.25V27.2709C5.66675 26.8566 6.00253 26.5209 6.41675 26.5209C6.83096 26.5209 7.16675 26.8566 7.16675 27.2709V29.25C7.16675 29.3881 7.27868 29.5 7.41675 29.5H13.9167V28.4016C13.8627 28.4115 13.807 28.4167 13.7501 28.4167C13.2438 28.4167 12.8334 28.0063 12.8334 27.5C12.8334 26.9938 13.2438 26.5834 13.7501 26.5834C13.807 26.5834 13.8627 26.5885 13.9167 26.5985V22.9016C13.8627 22.9115 13.807 22.9167 13.7501 22.9167C13.2438 22.9167 12.8334 22.5063 12.8334 22C12.8334 21.4938 13.2438 21.0834 13.7501 21.0834C13.807 21.0834 13.8627 21.0885 13.9167 21.0985V17.4016C13.8627 17.4115 13.807 17.4167 13.7501 17.4167C13.2438 17.4167 12.8334 17.0063 12.8334 16.5C12.8334 15.9938 13.2438 15.5834 13.7501 15.5834C13.807 15.5834 13.8627 15.5885 13.9167 15.5985V13.8334C13.9167 12.8669 14.7003 12.0834 15.6667 12.0834H18.5001V9.75335V7.41669C18.5001 7.27862 18.3882 7.16669 18.2501 7.16669H7.41675C7.27868 7.16669 7.16675 7.27862 7.16675 7.41669V18.3334V24.2917C7.16675 24.7059 6.83096 25.0417 6.41675 25.0417C6.00253 25.0417 5.66675 24.7059 5.66675 24.2917V18.3334V7.41669ZM25.5001 10.0349V12.0834H27.4167C28.3832 12.0834 29.1667 12.8669 29.1667 13.8334V15.9155L36.8334 19.3107V15.239L25.5001 10.0349ZM29.1667 22.3322V18.2125L36.8334 21.6625V25.7274L29.1667 22.3322ZM29.1667 24.6292V29.5H36.5834C36.7215 29.5 36.8334 29.3881 36.8334 29.25V28.0792L29.1667 24.6292ZM11.0001 9.16669C11.0001 9.67295 10.5897 10.0834 10.0834 10.0834C9.57715 10.0834 9.16675 9.67295 9.16675 9.16669C9.16675 8.66043 9.57715 8.25002 10.0834 8.25002C10.5897 8.25002 11.0001 8.66043 11.0001 9.16669ZM16.5001 10.0834C17.0063 10.0834 17.4167 9.67295 17.4167 9.16669C17.4167 8.66043 17.0063 8.25002 16.5001 8.25002C15.9938 8.25002 15.5834 8.66043 15.5834 9.16669C15.5834 9.67295 15.9938 10.0834 16.5001 10.0834ZM14.6667 11.9167C14.6667 12.4229 14.2563 12.8334 13.7501 12.8334C13.2438 12.8334 12.8334 12.4229 12.8334 11.9167C12.8334 11.4104 13.2438 11 13.7501 11C14.2563 11 14.6667 11.4104 14.6667 11.9167ZM10.0834 26.5834C10.5897 26.5834 11.0001 26.1729 11.0001 25.6667C11.0001 25.1604 10.5897 24.75 10.0834 24.75C9.57715 24.75 9.16675 25.1604 9.16675 25.6667C9.16675 26.1729 9.57715 26.5834 10.0834 26.5834ZM10.0834 21.0834C10.5897 21.0834 11.0001 20.6729 11.0001 20.1667C11.0001 19.6604 10.5897 19.25 10.0834 19.25C9.57715 19.25 9.16675 19.6604 9.16675 20.1667C9.16675 20.6729 9.57715 21.0834 10.0834 21.0834ZM10.0834 15.5834C10.5897 15.5834 11.0001 15.1729 11.0001 14.6667C11.0001 14.1604 10.5897 13.75 10.0834 13.75C9.57715 13.75 9.16675 14.1604 9.16675 14.6667C9.16675 15.1729 9.57715 15.5834 10.0834 15.5834Z" fill="#332A2A"/>
</g>
<defs>
<clipPath id="clip0_189_286">
<rect width="44" height="44" fill="white"/>
</clipPath>
</defs>
</svg>
