<svg width="23" height="23" viewBox="0 0 23 23" fill="none" xmlns="http://www.w3.org/2000/svg">
<g clip-path="url(#clip0_601_3316)">
<path fill-rule="evenodd" clip-rule="evenodd" d="M9.06258 3.35419H4.35425C3.80196 3.35419 3.35425 3.8019 3.35425 4.35419V14.8125C3.35425 15.3648 3.80196 15.8125 4.35425 15.8125H6.70841H7.66675V18.6459C7.66675 19.1981 8.11446 19.6459 8.66675 19.6459H11.2605H13.0574H13.8542C14.4065 19.6459 14.8542 19.1981 14.8542 18.6459V15.8125H16.2917H17.9688H18.6459C19.1982 15.8125 19.6459 15.3648 19.6459 14.8125V4.35419C19.6459 3.8019 19.1982 3.35419 18.6459 3.35419H13.9376C13.3853 3.35419 12.9376 3.8019 12.9376 4.35419V6.70835H10.0626V4.35419C10.0626 3.8019 9.61487 3.35419 9.06258 3.35419Z" fill="#E05149"/>
<path d="M9.11206 2.72919C10.0371 2.72919 10.7878 3.47891 10.7878 4.40399V6.08368H12.3123V4.40399C12.3123 3.47902 13.0621 2.72936 13.9871 2.72919H15.3826C15.7554 2.72919 16.0583 3.0312 16.0583 3.40399C16.0583 3.77678 15.7554 4.0788 15.3826 4.0788H13.9871C13.8762 4.07891 13.7781 4.13452 13.7195 4.21942L19.0203 6.65302V4.40399C19.0203 4.2245 18.8746 4.0788 18.6951 4.0788H18.0183C17.6457 4.07862 17.3435 3.77668 17.3435 3.40399C17.3435 3.03131 17.6457 2.72936 18.0183 2.72919H18.6951C19.6201 2.72919 20.3708 3.47891 20.3708 4.40399V14.862C20.3708 15.7871 19.6201 16.5378 18.6951 16.5378H15.5789V18.696C15.5787 19.6209 14.829 20.3708 13.9041 20.3708H13.1072C12.7345 20.3708 12.4325 20.0686 12.4324 19.696C12.4324 19.3232 12.7344 19.0212 13.1072 19.0212H13.9041C14.0834 19.0212 14.2291 18.8753 14.2292 18.696V15.8708C14.2292 15.8679 14.2283 15.8649 14.2283 15.862C14.2283 15.8587 14.2292 15.8555 14.2292 15.8522V7.75848C14.2292 7.57899 14.0835 7.43329 13.9041 7.43329H8.71655C8.53706 7.43329 8.39136 7.57899 8.39136 7.75848V18.696C8.39153 18.8753 8.53717 19.0212 8.71655 19.0212H10.2722C10.645 19.0212 10.947 19.3232 10.947 19.696C10.9468 20.0686 10.6449 20.3707 10.2722 20.3708H8.71655C7.79158 20.3708 7.04192 19.6209 7.04175 18.696V16.5378H4.40405C3.47897 16.5378 2.72925 15.7871 2.72925 14.862V14.3054C2.72925 13.9326 3.03126 13.6296 3.40405 13.6296C3.77684 13.6296 4.07886 13.9326 4.07886 14.3054V14.862C4.07886 15.0415 4.22456 15.1872 4.40405 15.1872H7.04175V7.75848C7.04175 6.83341 7.79148 6.08368 8.71655 6.08368H9.43726V4.40399C9.43726 4.2245 9.29155 4.0788 9.11206 4.0788H4.40405C4.22456 4.0788 4.07886 4.2245 4.07886 4.40399V11.8054C4.07886 12.1782 3.77684 12.4802 3.40405 12.4802C3.03126 12.4802 2.72925 12.1782 2.72925 11.8054V4.40399C2.72925 3.47891 3.47898 2.72919 4.40405 2.72919H9.11206ZM15.5789 15.1872H18.6951C18.8746 15.1872 19.0203 15.0415 19.0203 14.862V14.5993L15.5789 13.0505V15.1872ZM6.01245 12.3161C6.48292 12.3161 6.86499 12.6982 6.86499 13.1686C6.86483 13.639 6.48282 14.0202 6.01245 14.0202C5.54227 14.02 5.16105 13.6388 5.16089 13.1686C5.16089 12.6983 5.54217 12.3163 6.01245 12.3161ZM15.5789 11.8483L19.0203 13.3718V11.2448L15.5789 9.69598V11.8483ZM13.6619 6.08368H13.9041C14.8291 6.08368 15.5789 6.83341 15.5789 7.75848V8.49481L19.0203 10.0182V7.88544L13.6619 5.4245V6.08368ZM5.50171 8.22723C5.97217 8.22723 6.35327 8.60931 6.35327 9.07977C6.3531 9.55009 5.97207 9.93134 5.50171 9.93134C5.03136 9.93132 4.65032 9.55008 4.65015 9.07977C4.65015 8.60932 5.03126 8.22725 5.50171 8.22723ZM6.01245 4.65009C6.48291 4.65009 6.86497 5.0312 6.86499 5.50165C6.86499 5.97211 6.48292 6.35321 6.01245 6.35321C5.54217 6.353 5.16089 5.97198 5.16089 5.50165C5.1609 5.03133 5.54218 4.6503 6.01245 4.65009Z" fill="#332A2A"/>
</g>
<defs>
<clipPath id="clip0_601_3316">
<rect width="23" height="23" fill="white"/>
</clipPath>
</defs>
</svg>
