<svg width="18" height="18" viewBox="0 0 18 18" fill="none" xmlns="http://www.w3.org/2000/svg">
<g clip-path="url(#clip0_601_3338)">
<path fill-rule="evenodd" clip-rule="evenodd" d="M6.875 2.625H3.625C3.07272 2.625 2.625 3.07272 2.625 3.625V11.375C2.625 11.9273 3.07272 12.375 3.625 12.375H5.25H6V14.375C6 14.9273 6.44772 15.375 7 15.375H8.8125H10.2188H10.625C11.1773 15.375 11.625 14.9273 11.625 14.375V12.375H12.75H14.0625H14.375C14.9273 12.375 15.375 11.9273 15.375 11.375V3.625C15.375 3.07272 14.9273 2.625 14.375 2.625H11.125C10.5727 2.625 10.125 3.07272 10.125 3.625V5.25H7.875V3.625C7.875 3.07272 7.42728 2.625 6.875 2.625Z" fill="#E05149"/>
<path d="M7 2.125C7.89746 2.125 8.625 2.85254 8.625 3.75V4.75H9.625V3.75C9.625 2.85254 10.3525 2.125 11.25 2.125H12.125C12.4702 2.125 12.75 2.40482 12.75 2.75C12.75 3.09518 12.4702 3.375 12.125 3.375H11.25C11.1544 3.375 11.0672 3.41084 11.001 3.46973L14.875 5.24902V3.75C14.875 3.54289 14.7071 3.375 14.5 3.375H14.1875C13.8423 3.375 13.5625 3.09518 13.5625 2.75C13.5625 2.40482 13.8423 2.125 14.1875 2.125H14.5C15.3975 2.125 16.125 2.85254 16.125 3.75V11.5C16.125 12.3975 15.3975 13.125 14.5 13.125H12.375V14.5C12.375 15.3975 11.6475 16.125 10.75 16.125H10.3438C9.99857 16.125 9.71875 15.8452 9.71875 15.5C9.71875 15.1548 9.99857 14.875 10.3438 14.875H10.75C10.9571 14.875 11.125 14.7071 11.125 14.5V6.375C11.125 6.16789 10.9571 6 10.75 6H7.125C6.91789 6 6.75 6.16789 6.75 6.375V14.5C6.75 14.7071 6.91789 14.875 7.125 14.875H8.125C8.47018 14.875 8.75 15.1548 8.75 15.5C8.75 15.8452 8.47018 16.125 8.125 16.125H7.125C6.22754 16.125 5.5 15.3975 5.5 14.5V13.125H3.75C2.85254 13.125 2.125 12.3975 2.125 11.5V11.2812C2.125 10.9361 2.40482 10.6562 2.75 10.6562C3.09518 10.6562 3.375 10.9361 3.375 11.2812V11.5C3.375 11.7071 3.54289 11.875 3.75 11.875H5.5V6.375C5.5 5.47754 6.22754 4.75 7.125 4.75H7.375V3.75C7.375 3.54289 7.20711 3.375 7 3.375H3.75C3.54289 3.375 3.375 3.54289 3.375 3.75V9.3252C3.37489 9.67028 3.09511 9.9502 2.75 9.9502C2.40489 9.9502 2.12511 9.67028 2.125 9.3252V3.75C2.125 2.85254 2.85254 2.125 3.75 2.125H7ZM12.375 11.875H14.5C14.7071 11.875 14.875 11.7071 14.875 11.5V11.4688L12.375 10.3438V11.875ZM4.79199 9.72461C5.16001 9.72479 5.45797 10.0236 5.45801 10.3916C5.45801 10.7597 5.16003 11.0584 4.79199 11.0586C4.4238 11.0586 4.125 10.7598 4.125 10.3916C4.12504 10.0234 4.42382 9.72461 4.79199 9.72461ZM12.375 9.40137L14.875 10.5088V8.84375L12.375 7.71875V9.40137ZM10.875 4.75586C11.714 4.81973 12.375 5.51963 12.375 6.375V6.77637L14.875 7.88379V6.21289L10.875 4.375V4.75586ZM4.3916 6.52539C4.7597 6.52539 5.05845 6.82334 5.05859 7.19141C5.05859 7.5596 4.75979 7.8584 4.3916 7.8584C4.02344 7.85836 3.72461 7.55957 3.72461 7.19141C3.72475 6.82336 4.02353 6.52543 4.3916 6.52539ZM4.79199 3.72461C5.16001 3.72479 5.45797 4.02355 5.45801 4.3916C5.45801 4.75968 5.16003 5.05842 4.79199 5.05859C4.4238 5.05859 4.125 4.75979 4.125 4.3916C4.12504 4.02344 4.42382 3.72461 4.79199 3.72461Z" fill="#332A2A"/>
</g>
<defs>
<clipPath id="clip0_601_3338">
<rect width="18" height="18" fill="white"/>
</clipPath>
</defs>
</svg>
