<svg width="18" height="18" viewBox="0 0 18 18" fill="none" xmlns="http://www.w3.org/2000/svg">
<g clip-path="url(#clip0_601_3338)">
<path fill-rule="evenodd" clip-rule="evenodd" d="M6.875 2.625H3.625C3.07272 2.625 2.625 3.07272 2.625 3.625V11.375C2.625 11.9273 3.07272 12.375 3.625 12.375H5.25H6V14.375C6 14.9273 6.44772 15.375 7 15.375H8.8125H10.2188H10.625C11.1773 15.375 11.625 14.9273 11.625 14.375V12.375H12.75H14.0625H14.375C14.9273 12.375 15.375 11.9273 15.375 11.375V3.625C15.375 3.07272 14.9273 2.625 14.375 2.625H11.125C10.5727 2.625 10.125 3.07272 10.125 3.625V5.25H7.875V3.625C7.875 3.07272 7.42728 2.625 6.875 2.625Z" fill="#E05149"/>
<path fill-rule="evenodd" clip-rule="evenodd" d="M2 3.625C2 2.72754 2.72754 2 3.625 2H6.875C7.77246 2 8.5 2.72754 8.5 3.625V3.99V4.625H9.5V3.625C9.5 2.72754 10.2275 2 11.125 2H12C12.3452 2 12.625 2.27982 12.625 2.625C12.625 2.97018 12.3452 3.25 12 3.25H11.125C11.0293 3.25 10.9421 3.28581 10.8758 3.34476L14.75 5.12372V3.625C14.75 3.41789 14.5821 3.25 14.375 3.25H14.0625C13.7173 3.25 13.4375 2.97018 13.4375 2.625C13.4375 2.27982 13.7173 2 14.0625 2H14.375C15.2725 2 16 2.72754 16 3.625V11.375C16 12.2725 15.2725 13 14.375 13H12.25V14.375C12.25 15.2725 11.5225 16 10.625 16H10.2188C9.87357 16 9.59375 15.7202 9.59375 15.375C9.59375 15.0298 9.87357 14.75 10.2188 14.75H10.625C10.8321 14.75 11 14.5821 11 14.375V12.375V6.25C11 6.04289 10.8321 5.875 10.625 5.875H7C6.79289 5.875 6.625 6.04289 6.625 6.25V12.375V14.375C6.625 14.5821 6.79289 14.75 7 14.75H8C8.34518 14.75 8.625 15.0298 8.625 15.375C8.625 15.7202 8.34518 16 8 16H7C6.10254 16 5.375 15.2725 5.375 14.375V13H3.625C2.72754 13 2 12.2725 2 11.375V11.1562C2 10.8111 2.27982 10.5312 2.625 10.5312C2.97018 10.5312 3.25 10.8111 3.25 11.1562V11.375C3.25 11.5821 3.41789 11.75 3.625 11.75H5.375V6.25C5.375 5.35254 6.10254 4.625 7 4.625H7.25V3.99V3.625C7.25 3.41789 7.08211 3.25 6.875 3.25H3.625C3.41789 3.25 3.25 3.41789 3.25 3.625V7.5V9.2C3.25 9.54518 2.97018 9.825 2.625 9.825C2.27982 9.825 2 9.54518 2 9.2V7.5V3.625ZM14.75 6.08801L10.75 4.25128V4.62974C11.5891 4.69356 12.25 5.3946 12.25 6.25V6.65179L14.75 7.75893V6.08801ZM12.25 9.27679V7.59375L14.75 8.71875V10.3839L12.25 9.27679ZM12.25 10.2188V11.75H14.375C14.5821 11.75 14.75 11.5821 14.75 11.375V11.3438L12.25 10.2188ZM5.33333 10.2667C5.33333 10.6349 5.03486 10.9333 4.66667 10.9333C4.29848 10.9333 4 10.6349 4 10.2667C4 9.89848 4.29848 9.6 4.66667 9.6C5.03486 9.6 5.33333 9.89848 5.33333 10.2667ZM4.26667 7.73333C4.63486 7.73333 4.93333 7.43486 4.93333 7.06667C4.93333 6.69848 4.63486 6.4 4.26667 6.4C3.89848 6.4 3.6 6.69848 3.6 7.06667C3.6 7.43486 3.89848 7.73333 4.26667 7.73333ZM5.33333 4.26667C5.33333 4.63486 5.03486 4.93333 4.66667 4.93333C4.29848 4.93333 4 4.63486 4 4.26667C4 3.89848 4.29848 3.6 4.66667 3.6C5.03486 3.6 5.33333 3.89848 5.33333 4.26667Z" fill="#252323"/>
</g>
<defs>
<clipPath id="clip0_601_3338">
<rect width="18" height="18" fill="white"/>
</clipPath>
</defs>
</svg>
