<svg width="18" height="18" viewBox="0 0 18 18" fill="none" xmlns="http://www.w3.org/2000/svg">
<g clip-path="url(#clip0_666_9091)">
<path fill-rule="evenodd" clip-rule="evenodd" d="M3.49993 5.41285C3.49993 6.57716 4.44934 7.3102 5.62049 7.3102C6.09152 7.3102 6.55373 7.16568 6.9258 6.90926C7.05112 6.41829 7.33928 5.98171 7.72404 5.66082C7.73525 5.58033 7.74106 5.49762 7.74106 5.41285C7.74106 4.24854 6.79165 3.30469 5.62049 3.30469C5.03976 3.30469 4.49462 3.56152 4.10251 3.96646C3.73343 4.3476 3.49993 4.85995 3.49993 5.41285ZM11.5749 7.19143C11.4823 6.36766 10.9617 5.67244 10.2394 5.33048C10.2858 4.22632 11.2581 3.30469 12.3582 3.30469C13.5294 3.30469 14.4788 4.24854 14.4788 5.41285C14.4788 6.538 13.4112 7.3102 12.3582 7.3102C12.0815 7.3102 11.8172 7.26928 11.5749 7.19143ZM7.1145 8.47467C7.50605 9.16777 8.30335 9.57303 9.22325 9.57303C9.41841 9.63357 10.0466 9.58544 10.9981 8.90858C11.148 8.76157 11.2739 8.59232 11.3705 8.40305C12.7878 8.38883 14.0186 8.48612 15.0055 9.12014C15.2894 9.30255 15.4139 9.64638 15.5353 9.98155C15.5784 10.1005 15.6211 10.2185 15.6704 10.3277C15.8096 10.636 15.8766 10.9574 14.8858 11.6401C14.7189 11.7551 14.518 11.8242 14.3201 11.8682L14.3163 11.8691C14.0684 11.9243 13.7283 12 13.4395 12L12.5459 11.9716C12.6693 12.1 12.7764 12.2359 12.8654 12.378C13.1776 12.877 12.6694 13.471 12.2772 13.9099C12.1919 14.0054 12.1082 14.1074 12.024 14.21L12.0239 14.2101L12.0237 14.2103C11.9762 14.2682 11.9284 14.3264 11.8801 14.3837C11.7024 14.5946 11.4356 14.7003 11.1598 14.7003H10.6693H9.22318H7.37755C7.04882 14.7003 6.74397 14.5447 6.54904 14.28C6.41101 14.0925 6.26233 13.9082 6.07571 13.7536C5.67981 13.4256 5.25657 12.9898 5.49252 12.5331C5.56162 12.3993 5.64651 12.2703 5.7457 12.1471H4.30138C3.97265 12.1471 3.6678 11.9915 3.47287 11.7268C3.33483 11.5394 3.18616 11.355 2.99954 11.2004C2.60364 10.8724 2.1804 10.4367 2.41635 9.97994C2.65686 9.51435 3.0886 9.10678 3.64913 8.79984C3.92952 8.62651 4.55476 8.43005 4.83234 8.35349C5.24354 8.25616 5.68604 8.20313 6.14701 8.20313C6.51764 8.35537 6.80658 8.4333 7.1145 8.47467Z" fill="#E05149"/>
<path fill-rule="evenodd" clip-rule="evenodd" d="M5.62066 3.92969C5.22525 3.92969 4.83772 4.10583 4.55167 4.40123C4.28347 4.6782 4.1251 5.03872 4.1251 5.41285C4.1251 6.14486 4.70058 6.6852 5.62066 6.6852C5.90753 6.6852 6.17241 6.61789 6.39703 6.50181C6.54877 6.07417 6.79815 5.68837 7.11564 5.3711C7.09338 4.57452 6.43591 3.92969 5.62066 3.92969ZM8.25697 4.64661C7.92385 3.50835 6.86739 2.67969 5.62066 2.67969C4.85461 2.67969 4.15186 3.01722 3.65368 3.53168C3.18373 4.017 2.8751 4.68119 2.8751 5.41285C2.8751 6.67826 3.70635 7.52226 4.75927 7.81796C4.35822 7.88283 3.94059 7.99213 3.54424 8.1494C2.859 8.4213 2.15375 8.87078 1.76121 9.57153C1.48707 10.0609 1.62408 10.5328 1.81458 10.8536C1.99214 11.1527 2.26151 11.4067 2.446 11.5767C2.52765 11.6519 2.60524 11.7439 2.69211 11.8597C3.0028 12.2739 3.48775 12.5297 4.02074 12.5297H4.81715C4.73069 12.9124 4.85189 13.2619 5.01182 13.5199C5.19768 13.8198 5.4723 14.0653 5.67686 14.2348C5.80352 14.3397 5.91636 14.4747 6.046 14.6508C6.35755 15.0737 6.84873 15.3256 7.37803 15.3256H9.22373C9.56866 15.3254 9.84856 15.0455 9.84873 14.7006C9.84873 14.3555 9.56876 14.0757 9.22373 14.0756H7.37803C7.25005 14.0756 7.13115 14.0157 7.05284 13.9096C6.9064 13.7107 6.72129 13.4761 6.47471 13.2719C6.28365 13.1136 6.14587 12.977 6.07432 12.8617C6.05331 12.8278 6.04559 12.8053 6.04209 12.7943C6.25217 12.3768 6.70948 12.0178 7.33604 11.7592C7.95786 11.5025 8.66255 11.3812 9.22373 11.3812C10.7303 11.3813 11.8934 12.0019 12.336 12.7094L12.3374 12.7113C12.3378 12.7121 12.3375 12.7132 12.337 12.7201C12.3353 12.7422 12.3249 12.7939 12.2804 12.8803C12.1854 13.0644 12.0148 13.2662 11.8116 13.4935C11.7183 13.598 11.6165 13.7218 11.5258 13.832L11.5258 13.832L11.5257 13.8321C11.4812 13.8862 11.4393 13.9371 11.4024 13.9808C11.3613 14.0297 11.2811 14.0755 11.1603 14.0756H10.67C10.3248 14.0756 10.045 14.3554 10.045 14.7006C10.0452 15.0456 10.325 15.3256 10.67 15.3256H11.1603C11.5908 15.3255 12.0443 15.1594 12.3585 14.7865C12.4195 14.7141 12.4723 14.6497 12.5215 14.5895C12.5977 14.4964 12.6656 14.4134 12.7433 14.3266C12.9322 14.1151 13.2116 13.7998 13.3907 13.4525C13.5163 13.209 13.6258 12.8807 13.5752 12.5296H14.0499C14.4814 12.5296 14.935 12.362 15.2481 11.9867C15.2868 11.9403 15.3207 11.8992 15.3526 11.8604L15.3526 11.8603L15.3528 11.8601C15.4021 11.8002 15.4469 11.7458 15.4981 11.6859C15.6825 11.4698 15.9582 11.1446 16.1309 10.7904C16.3048 10.4338 16.4481 9.88377 16.0879 9.36851C15.6577 8.75299 14.977 8.35417 14.3204 8.10972C13.9443 7.96972 13.5524 7.87152 13.1773 7.81264C14.195 7.50822 15.104 6.65308 15.1041 5.41309C15.1041 3.90015 13.8709 2.67969 12.358 2.67969C11.1962 2.67989 10.1507 3.46012 9.76772 4.52742C9.5911 4.49507 9.40911 4.47816 9.22322 4.47816C8.88865 4.47818 8.5629 4.53765 8.25697 4.64661ZM10.0501 10.0865C10.6832 9.91793 11.2723 9.5621 11.6755 9.04594C11.8941 9.01307 12.1227 8.99547 12.3585 8.99547C12.7938 8.99547 13.3594 9.08549 13.8838 9.28062C14.414 9.47796 14.8307 9.75652 15.0596 10.0814H15.0606C15.0596 10.1015 15.0505 10.1532 15.0069 10.2425C14.9143 10.4324 14.7446 10.6428 14.5469 10.8744C14.4937 10.9367 14.4344 11.009 14.3798 11.0756L14.3797 11.0758L14.3792 11.0764C14.3464 11.1164 14.3152 11.1544 14.2881 11.1869C14.2479 11.2349 14.1695 11.2796 14.0499 11.2796H12.7213C12.0245 10.6919 11.055 10.3046 9.99481 10.1772C9.9947 10.1769 9.99459 10.1767 9.99449 10.1764L9.99322 10.1732C10.0107 10.1443 10.0297 10.1153 10.0501 10.0865ZM8.3008 10.0753C8.30427 10.0801 8.3077 10.0849 8.31109 10.0898L8.31102 10.0912C8.31043 10.1075 8.30458 10.1456 8.27796 10.2094C7.8075 10.2844 7.31859 10.4144 6.85948 10.6039C6.45764 10.7698 6.05478 10.9914 5.70489 11.2797H4.02074C3.89628 11.2797 3.77586 11.2214 3.692 11.1096C3.5852 10.9672 3.45526 10.8069 3.29305 10.6574C3.09947 10.479 2.96168 10.3372 2.88943 10.2155C2.87551 10.1921 2.86743 10.1748 2.86279 10.1632C3.06193 9.82293 3.46332 9.52631 4.00527 9.31127C4.54793 9.09594 5.15108 8.99547 5.62066 8.99547C6.06031 8.99547 6.46634 9.05535 6.82672 9.15762C7.19951 9.60371 7.71887 9.91581 8.3008 10.0753ZM12.1097 6.67167C11.9225 5.98668 11.4959 5.40073 10.9257 5.00722C11.1151 4.40112 11.7084 3.9299 12.358 3.92969C13.1875 3.92969 13.8541 4.59741 13.8541 5.41309C13.854 6.09363 13.1743 6.68555 12.358 6.68555C12.2722 6.68553 12.1894 6.68081 12.1097 6.67167ZM10.9644 7.4557C10.9644 6.50505 10.1884 5.72816 9.22322 5.72816C8.30324 5.72828 7.48203 6.53562 7.48201 7.4557C7.48201 8.32183 8.16621 8.94568 9.22029 8.94691C10.2041 8.94058 10.9644 8.28436 10.9644 7.4557Z" fill="#332A2A"/>
</g>
<defs>
<clipPath id="clip0_666_9091">
<rect width="18" height="18" fill="white"/>
</clipPath>
</defs>
</svg>
