<svg width="18" height="18" viewBox="0 0 18 18" fill="none" xmlns="http://www.w3.org/2000/svg">
<g clip-path="url(#clip0_666_9091)">
<path fill-rule="evenodd" clip-rule="evenodd" d="M3.49993 5.41285C3.49993 6.57716 4.44934 7.3102 5.62049 7.3102C6.09152 7.3102 6.55373 7.16568 6.9258 6.90926C7.05112 6.41829 7.33928 5.98171 7.72404 5.66082C7.73525 5.58033 7.74106 5.49762 7.74106 5.41285C7.74106 4.24854 6.79165 3.30469 5.62049 3.30469C5.03976 3.30469 4.49462 3.56152 4.10251 3.96646C3.73343 4.3476 3.49993 4.85995 3.49993 5.41285ZM11.5749 7.19143C11.4823 6.36766 10.9617 5.67244 10.2394 5.33048C10.2858 4.22632 11.2581 3.30469 12.3582 3.30469C13.5294 3.30469 14.4788 4.24854 14.4788 5.41285C14.4788 6.538 13.4112 7.3102 12.3582 7.3102C12.0815 7.3102 11.8172 7.26928 11.5749 7.19143ZM7.1145 8.47467C7.50605 9.16777 8.30335 9.57303 9.22325 9.57303C9.41841 9.63357 10.0466 9.58544 10.9981 8.90858C11.148 8.76157 11.2739 8.59232 11.3705 8.40305C12.7878 8.38883 14.0186 8.48612 15.0055 9.12014C15.2894 9.30255 15.4139 9.64638 15.5353 9.98155C15.5784 10.1005 15.6211 10.2185 15.6704 10.3277C15.8096 10.636 15.8766 10.9574 14.8858 11.6401C14.7189 11.7551 14.518 11.8242 14.3201 11.8682L14.3163 11.8691C14.0684 11.9243 13.7283 12 13.4395 12L12.5459 11.9716C12.6693 12.1 12.7764 12.2359 12.8654 12.378C13.1776 12.877 12.6694 13.471 12.2772 13.9099C12.1919 14.0054 12.1082 14.1074 12.024 14.21L12.0239 14.2101L12.0237 14.2103C11.9762 14.2682 11.9284 14.3264 11.8801 14.3837C11.7024 14.5946 11.4356 14.7003 11.1598 14.7003H10.6693H9.22318H7.37755C7.04882 14.7003 6.74397 14.5447 6.54904 14.28C6.41101 14.0925 6.26233 13.9082 6.07571 13.7536C5.67981 13.4256 5.25657 12.9898 5.49252 12.5331C5.56162 12.3993 5.64651 12.2703 5.7457 12.1471H4.30138C3.97265 12.1471 3.6678 11.9915 3.47287 11.7268C3.33483 11.5394 3.18616 11.355 2.99954 11.2004C2.60364 10.8724 2.1804 10.4367 2.41635 9.97994C2.65686 9.51435 3.0886 9.10678 3.64913 8.79984C3.92952 8.62651 4.55476 8.43005 4.83234 8.35349C5.24354 8.25616 5.68604 8.20313 6.14701 8.20313C6.51764 8.35537 6.80658 8.4333 7.1145 8.47467Z" fill="#E05149"/>
<path fill-rule="evenodd" clip-rule="evenodd" d="M5.62066 3.92969C5.22525 3.92969 4.83772 4.10583 4.55167 4.40123C4.28347 4.6782 4.1251 5.03872 4.1251 5.41285C4.1251 6.14486 4.70058 6.6852 5.62066 6.6852C5.90753 6.6852 6.17241 6.61789 6.39703 6.50181C6.54877 6.07417 6.79815 5.68837 7.11564 5.3711C7.09338 4.57452 6.43591 3.92969 5.62066 3.92969ZM8.25697 4.64661C7.92385 3.50835 6.86739 2.67969 5.62066 2.67969C4.85461 2.67969 4.15186 3.01722 3.65368 3.53168C3.18373 4.017 2.8751 4.68119 2.8751 5.41285C2.8751 6.67826 3.70635 7.52226 4.75927 7.81796C4.35822 7.88283 3.94059 7.99213 3.54424 8.1494C2.859 8.4213 2.15375 8.87078 1.76121 9.57153C1.48707 10.0609 1.62408 10.5328 1.81458 10.8536C1.99214 11.1527 2.26151 11.4067 2.446 11.5767C2.52765 11.6519 2.60524 11.7439 2.69211 11.8597C3.0028 12.2739 3.48775 12.5297 4.02074 12.5297H4.81693C4.73044 12.9125 4.85151 13.2621 5.01143 13.5201C5.19736 13.8201 5.47263 14.0653 5.67722 14.2348C5.80388 14.3398 5.91637 14.4745 6.04601 14.6506C6.35756 15.0736 6.84843 15.3253 7.37778 15.3253H9.22341C9.56859 15.3253 9.84841 15.0454 9.84841 14.7003C9.84841 14.3551 9.56859 14.0753 9.22341 14.0753H7.37778C7.24968 14.0753 7.13085 14.0157 7.05254 13.9093C6.9061 13.7105 6.72125 13.4765 6.47467 13.2722C6.28336 13.1138 6.1454 12.977 6.07389 12.8616C6.05397 12.8294 6.0451 12.808 6.04125 12.7966C6.25085 12.3781 6.70867 12.0186 7.3364 11.7595C7.95822 11.5029 8.66223 11.3812 9.22341 11.3812C10.7301 11.3812 11.8931 12.002 12.3358 12.7095C12.3363 12.7103 12.3367 12.7107 12.337 12.711C12.3379 12.7118 12.3379 12.7118 12.3373 12.7198C12.3357 12.7417 12.3249 12.7932 12.2802 12.88C12.1852 13.0642 12.0146 13.2661 11.8114 13.4935C11.7185 13.5975 11.6174 13.7205 11.5272 13.8303L11.5271 13.8304L11.527 13.8304C11.482 13.8852 11.4397 13.9367 11.4024 13.9809C11.3612 14.0298 11.281 14.0753 11.16 14.0753H10.6696C10.3244 14.0753 10.0446 14.3551 10.0446 14.7003C10.0446 15.0454 10.3244 15.3253 10.6696 15.3253H11.16C11.5906 15.3253 12.044 15.1594 12.3583 14.7864C12.4187 14.7147 12.471 14.6509 12.5199 14.5913L12.52 14.5911L12.5201 14.5911L12.5201 14.5911C12.597 14.4972 12.6654 14.4138 12.7435 14.3263C12.9325 14.1149 13.2121 13.8002 13.3911 13.4529C13.5168 13.2094 13.626 12.8809 13.5752 12.5297H14.0496C14.4813 12.5297 14.9349 12.3626 15.248 11.9872C15.289 11.9381 15.3244 11.8949 15.3578 11.8541L15.358 11.8539C15.4052 11.7963 15.4485 11.7435 15.4979 11.6857C15.6823 11.4696 15.9577 11.1446 16.1305 10.7904C16.3044 10.4338 16.448 9.88404 16.0878 9.36871C15.6575 8.7531 14.9769 8.354 14.3202 8.10955C13.944 7.96952 13.5522 7.87136 13.177 7.81254C14.1949 7.50837 15.104 6.65325 15.104 5.41285C15.104 3.89992 13.8713 2.67969 12.3585 2.67969C11.1964 2.67969 10.1507 3.45992 9.76766 4.52737C9.59112 4.49505 9.40921 4.47816 9.22342 4.47816C8.88878 4.47816 8.56296 4.53763 8.25697 4.64661ZM10.0502 10.0866C10.6835 9.91804 11.2728 9.56206 11.676 9.0457C11.8945 9.01295 12.1229 8.99547 12.3584 8.99547C12.7939 8.99547 13.3596 9.08579 13.8842 9.28103C14.4146 9.47846 14.8319 9.75621 15.0608 10.0813C15.0598 10.1013 15.0506 10.1529 15.007 10.2424C14.9144 10.4323 14.7447 10.6426 14.547 10.8743C14.4931 10.9375 14.4329 11.0108 14.3776 11.078L14.3776 11.078L14.3774 11.0783C14.3452 11.1175 14.3147 11.1546 14.2881 11.1865C14.2479 11.2347 14.1696 11.2797 14.0496 11.2797H12.7211C12.0239 10.6916 11.0537 10.3041 9.9928 10.177C9.99257 10.1764 9.99234 10.1759 9.99212 10.1753C10.01 10.1457 10.0293 10.1161 10.0502 10.0866ZM8.30093 10.0755C8.30436 10.0803 8.30774 10.085 8.31109 10.0898L8.31102 10.0912C8.31043 10.1075 8.30457 10.1456 8.27794 10.2094C7.80753 10.2844 7.31867 10.4145 6.85949 10.6041C6.45766 10.7699 6.05475 10.9915 5.70481 11.2797H4.02074C3.89628 11.2797 3.77586 11.2214 3.692 11.1096C3.5852 10.9672 3.45526 10.8069 3.29305 10.6574C3.09947 10.479 2.96168 10.3372 2.88943 10.2155C2.87551 10.1921 2.86743 10.1748 2.86279 10.1632C3.06193 9.82293 3.46332 9.52631 4.00527 9.31127C4.54793 9.09594 5.15108 8.99547 5.62066 8.99547C6.06028 8.99547 6.46628 9.05534 6.82664 9.1576C7.19946 9.6038 7.71891 9.91597 8.30093 10.0755ZM12.11 6.67136C11.9227 5.98639 11.496 5.40049 10.9257 5.00703C11.1152 4.40084 11.7086 3.92969 12.3585 3.92969C13.1879 3.92969 13.854 4.59717 13.854 5.41285C13.854 6.09349 13.1748 6.6852 12.3585 6.6852C12.2726 6.6852 12.1897 6.68049 12.11 6.67136ZM9.22342 5.72816C8.30335 5.72816 7.48201 6.53557 7.48201 7.45573C7.48201 8.32219 8.16673 8.94728 9.22149 8.94804C10.2048 8.94119 10.9648 8.28406 10.9648 7.45573C10.9648 6.50507 10.1886 5.72816 9.22342 5.72816Z" fill="#252323"/>
</g>
<defs>
<clipPath id="clip0_666_9091">
<rect width="18" height="18" fill="white"/>
</clipPath>
</defs>
</svg>
