<svg width="23" height="23" viewBox="0 0 23 23" fill="none" xmlns="http://www.w3.org/2000/svg">
<g clip-path="url(#clip0_666_9048)">
<path fill-rule="evenodd" clip-rule="evenodd" d="M4.47218 6.91642C4.47218 8.40414 5.68531 9.34081 7.18179 9.34081C7.78365 9.34081 8.37426 9.15614 8.84967 8.82849C9.00981 8.20115 9.37801 7.64329 9.86965 7.23326C9.88397 7.13042 9.89139 7.02474 9.89139 6.91642C9.89139 5.4287 8.67826 4.22266 7.18179 4.22266C6.43974 4.22266 5.74317 4.55083 5.24214 5.06825C4.77054 5.55527 4.47218 6.20994 4.47218 6.91642ZM14.7902 9.18905C14.6718 8.13646 14.0067 7.24811 13.0837 6.81117C13.143 5.4003 14.3854 4.22266 15.7911 4.22266C17.2876 4.22266 18.5007 5.4287 18.5007 6.91642C18.5007 8.35412 17.1366 9.34081 15.7911 9.34081C15.4376 9.34081 15.0998 9.28853 14.7902 9.18905ZM9.09079 10.8287C9.5911 11.7144 10.6099 12.2322 11.7853 12.2322C12.0347 12.3096 12.8374 12.2481 14.0531 11.3832C14.2447 11.1953 14.4056 10.9791 14.529 10.7372C16.4252 10.7182 18.0602 10.8554 19.3497 11.7725C19.6071 11.9556 19.7008 12.2731 19.7943 12.5901L19.7943 12.5901C19.8362 12.7319 19.878 12.8737 19.9345 13.0033C19.951 13.0413 19.9686 13.0787 19.9861 13.1161C20.1867 13.5441 20.3797 13.956 18.9481 14.923C18.7802 15.0364 18.5801 15.1027 18.3821 15.1463L18.2931 15.166L18.2931 15.166C17.9763 15.2366 17.5417 15.3333 17.1727 15.3333L16.0309 15.297C16.2621 15.5375 16.4486 15.7987 16.5826 16.0753C16.8392 16.605 16.3149 17.1503 15.892 17.5596C15.7102 17.7355 15.538 17.9453 15.364 18.1572L15.364 18.1572L15.364 18.1572C15.2778 18.2623 15.1911 18.3678 15.1027 18.47C14.9222 18.6786 14.655 18.7837 14.3792 18.7837H13.6331H11.7852H9.28225C8.95352 18.7837 8.64559 18.6303 8.4534 18.3636C8.20714 18.0219 7.94483 17.677 7.5656 17.4273C7.13623 17.1445 6.72422 16.7156 6.91563 16.2384C7.0166 15.9868 7.16049 15.7465 7.34178 15.5213H5.35158C5.02286 15.5213 4.71492 15.368 4.52273 15.1013C4.27648 14.7596 4.01417 14.4147 3.63494 14.165C3.20557 13.8822 2.79355 13.4533 2.98497 12.9761C3.26103 12.288 3.85804 11.6849 4.66282 11.2442C5.0211 11.0228 5.82002 10.7717 6.1747 10.6739C6.70012 10.5495 7.26554 10.4818 7.85456 10.4818C8.32814 10.6763 8.69733 10.7759 9.09079 10.8287Z" fill="#E05149"/>
<path fill-rule="evenodd" clip-rule="evenodd" d="M17.7506 6.84082C17.7504 5.72991 16.8435 4.82245 15.7164 4.82227C14.7999 4.82227 13.9675 5.50664 13.7415 6.37517C14.5058 6.87583 15.073 7.65102 15.3002 8.56101C15.4327 8.58064 15.5717 8.59082 15.7164 8.59082C16.8062 8.59065 17.7506 7.79834 17.7506 6.84082ZM15.3759 9.92617C15.4885 9.93565 15.6022 9.94043 15.7164 9.94043C17.3174 9.94026 19.1002 8.75845 19.1002 6.84082C19.1 4.97688 17.5817 3.47285 15.7164 3.47266C14.2479 3.47266 12.929 4.48549 12.4879 5.85234C12.237 5.79885 11.9767 5.7707 11.7099 5.7707C11.2507 5.77075 10.8049 5.86151 10.3912 6.02607C10.0248 4.55747 8.69097 3.47282 7.10701 3.47266C6.16486 3.47266 5.29778 3.88778 4.6822 4.52344C4.10175 5.12287 3.72236 5.94143 3.72224 6.84082C3.72224 8.79543 5.33937 9.94043 7.10701 9.94043C7.41529 9.9404 7.72688 9.89905 8.02971 9.8192C8.03605 9.88257 8.04402 9.94506 8.05357 10.0067C7.74362 9.96635 7.42664 9.94561 7.10626 9.94561C6.26995 9.94566 5.25021 10.1264 4.34161 10.5149C3.44432 10.8987 2.55226 11.5313 2.14141 12.5032C1.9277 13.009 2.07335 13.4743 2.28497 13.8011C2.48476 14.1095 2.77309 14.3509 3.00372 14.5188C3.1958 14.6587 3.35268 14.8506 3.54278 15.1126C3.86461 15.5561 4.3759 15.8118 4.91778 15.8118H6.25741L6.21454 15.9121C6.01403 16.4119 6.15253 16.8716 6.36884 17.2011C6.5732 17.5123 6.86805 17.7508 7.11884 17.916C7.38389 18.0905 7.58427 18.3415 7.83075 18.6835C8.15327 19.1308 8.66743 19.3836 9.20673 19.3837H11.7106C12.0831 19.3835 12.3852 19.0814 12.3854 18.7089C12.3854 18.3363 12.0832 18.0334 11.7106 18.0331H9.20673C9.08907 18.033 8.98719 17.9791 8.92548 17.8935C8.67949 17.5522 8.35519 17.1128 7.862 16.788C7.68355 16.6705 7.55783 16.5529 7.49677 16.4599C7.48014 16.4345 7.47388 16.417 7.47065 16.4079L7.4704 16.4072C7.67426 15.9055 8.13675 15.4098 8.84247 15.0234C9.16945 14.8443 9.2891 14.4343 9.11005 14.1074C8.93099 13.7804 8.521 13.6607 8.19403 13.8398C7.8662 14.0193 7.56088 14.2273 7.28825 14.4612H4.91778C4.80222 14.4612 4.69986 14.4082 4.63556 14.3196C4.43624 14.045 4.17492 13.7021 3.79864 13.428C3.61376 13.2934 3.48312 13.1676 3.41778 13.0667C3.40263 13.0433 3.39586 13.0262 3.39183 13.016L3.39141 13.0149C3.61318 12.505 4.13831 12.0703 4.87286 11.7562C5.60297 11.4439 6.44039 11.2953 7.10626 11.2952C7.69528 11.2952 8.2384 11.3773 8.71924 11.5178C9.18826 12.0938 9.85411 12.494 10.6045 12.6913C10.6634 12.7691 10.7149 12.8482 10.7586 12.928C10.7563 12.9445 10.7468 12.9857 10.7095 13.0549C10.4236 13.0901 10.1446 13.1402 9.8747 13.204C9.51199 13.29 9.28787 13.6538 9.37372 14.0165C9.45963 14.3792 9.82349 14.6034 10.1862 14.5175C10.6597 14.4055 11.1733 14.3437 11.7106 14.3437C13.8096 14.3438 15.4022 15.2668 15.9001 16.2939L15.9001 16.2947C15.9002 16.2956 15.9004 16.297 15.9001 16.2988C15.8973 16.3171 15.884 16.3628 15.8376 16.4404C15.7375 16.6076 15.5636 16.7897 15.3474 16.999C15.138 17.2015 14.9194 17.4676 14.7331 17.6944C14.6543 17.7902 14.5813 17.879 14.5173 17.9531C14.4831 17.9926 14.4135 18.0331 14.3044 18.0331H13.5583C13.1855 18.0331 12.8835 18.3361 12.8835 18.7089C12.8837 19.0815 13.1857 19.3837 13.5583 19.3837H14.3044C14.7466 19.3837 15.2111 19.2141 15.5378 18.8369C15.655 18.7014 15.754 18.5803 15.8447 18.4695C16 18.2797 16.1306 18.1199 16.2858 17.9697C16.4926 17.7696 16.7922 17.4739 16.9958 17.1337C17.1915 16.8068 17.3611 16.3277 17.161 15.8118H17.9961C18.4386 15.8118 18.9054 15.6415 19.2315 15.26C19.3224 15.1537 19.4001 15.0588 19.4714 14.9716C19.596 14.8195 19.7012 14.6909 19.8242 14.5657C20.0219 14.3647 20.3051 14.0655 20.4785 13.722C20.6659 13.3507 20.7737 12.8126 20.4043 12.305C20.185 12.0036 19.7624 11.9373 19.461 12.1565C19.1703 12.3681 19.1001 12.7671 19.292 13.0657L19.2892 13.0741L19.2892 13.0742C19.2857 13.0846 19.2814 13.0979 19.2735 13.1136C19.2053 13.2485 19.0625 13.4148 18.8614 13.6194C18.6968 13.7868 18.5237 13.9976 18.3756 14.1779L18.3755 14.1781L18.3754 14.1782C18.3134 14.2537 18.2558 14.3238 18.2051 14.3831C18.1728 14.4209 18.1051 14.4612 17.9961 14.4612H16.134C15.2228 13.6782 13.9192 13.1706 12.4992 13.0323L12.4981 13.0296C12.5485 12.9209 12.6133 12.8124 12.6925 12.7055C13.5104 12.4974 14.2689 12.0383 14.7754 11.3687C15.0758 11.3209 15.3907 11.2952 15.7158 11.2952C16.9793 11.2952 17.5956 11.3986 18.2403 11.8548C18.5446 12.0701 18.9663 11.998 19.1817 11.6936C19.3969 11.3894 19.3247 10.9675 19.0205 10.7522C18.0184 10.0432 17.0411 9.94559 15.7158 9.94559C15.6004 9.9456 15.4857 9.94826 15.3719 9.95349C15.3733 9.9444 15.3746 9.9353 15.3759 9.92617ZM9.14119 6.83912C8.71982 7.24914 8.39164 7.75528 8.2001 8.31812C7.88447 8.49089 7.50946 8.59076 7.10701 8.59082C5.8817 8.59082 5.07185 7.86166 5.07185 6.84082C5.07197 6.32762 5.28946 5.83729 5.65193 5.46289C6.03842 5.06377 6.56511 4.82227 7.10701 4.82227C8.23356 4.82246 9.14005 5.72899 9.14119 6.83912ZM14.0585 9.45137C14.0584 8.16778 13.0107 7.12031 11.7099 7.12031C10.4676 7.12049 9.36136 8.20611 9.36124 9.45137C9.36124 10.6438 10.3099 11.4794 11.7069 11.4807C13.0104 11.4723 14.0585 10.598 14.0585 9.45137Z" fill="#332A2A"/>
</g>
<defs>
<clipPath id="clip0_666_9048">
<rect width="23" height="23" fill="white"/>
</clipPath>
</defs>
</svg>
