<svg width="44" height="44" viewBox="0 0 44 44" fill="none" xmlns="http://www.w3.org/2000/svg">
<g clip-path="url(#clip0_666_9134)">
<path fill-rule="evenodd" clip-rule="evenodd" d="M34.6431 13.2314C34.6431 10.8037 32.6623 8.82812 30.2095 8.82812C28.0712 8.82813 26.1536 10.5159 25.8254 12.6013C27.4279 13.5281 28.5991 15.1132 28.9624 16.9863C29.354 17.0736 29.7717 17.1191 30.2095 17.1191C32.4996 17.1191 34.6431 15.4484 34.6431 13.2314ZM29.0732 18.53C29.4432 18.589 29.8234 18.6191 30.2095 18.6191C33.0675 18.6191 36.1431 16.5152 36.1431 13.2314C36.1431 9.96701 33.4824 7.32812 30.2095 7.32812C27.4648 7.32813 25.0133 9.35825 24.4149 11.9944C23.8225 11.8187 23.1951 11.7244 22.5457 11.7244C21.5101 11.7245 20.5122 11.9872 19.6214 12.4495C19.2367 9.55574 16.7464 7.32813 13.7394 7.32813C12.0976 7.32813 10.5761 8.05273 9.49033 9.17383C8.4671 10.2305 7.80576 11.6654 7.80576 13.2314C7.80578 16.5963 10.5753 18.6191 13.7394 18.6191C14.5112 18.6191 15.2871 18.4749 16.0116 18.2023C16.0116 18.21 16.0116 18.2177 16.0116 18.2254C16.0116 18.8405 16.0958 19.4151 16.2524 19.9456C15.4506 19.7925 14.6076 19.7112 13.7397 19.7112C12.6727 19.7112 11.6452 19.834 10.6869 20.0608C10.2839 20.1562 10.0341 20.5601 10.1293 20.9631C10.2247 21.3662 10.6296 21.6161 11.0326 21.5207C11.8758 21.3212 12.7872 21.2112 13.7397 21.2112C14.9659 21.2112 16.1205 21.3928 17.1482 21.7119C18.0063 22.8332 19.2837 23.6009 20.7458 23.9454C21.1159 24.3972 21.3741 24.8784 21.5111 25.3694L21.5114 25.3703C21.5129 25.3755 21.5133 25.3769 21.5111 25.385C21.5072 25.3998 21.4928 25.4368 21.4496 25.4944C21.4267 25.5249 21.3993 25.5564 21.3678 25.5885C20.6044 25.6477 19.8653 25.7638 19.16 25.9307C18.7571 26.0261 18.5072 26.4301 18.6024 26.8331C18.6978 27.236 19.1018 27.4858 19.5048 27.3907C20.4523 27.1664 21.4763 27.0431 22.5458 27.043C24.8201 27.043 26.8779 27.5991 28.4384 28.4913C30.007 29.3882 31.0144 30.5864 31.329 31.8467C31.3314 31.8564 31.3311 31.8612 31.328 31.8721C31.3233 31.8887 31.3087 31.9251 31.2665 31.9796C31.1756 32.097 31.0123 32.2283 30.8046 32.3448C30.2132 32.6762 29.7214 33.1875 29.3016 33.6739C29.1138 33.8916 28.9471 34.0952 28.7866 34.2913L28.7864 34.2916C28.5534 34.5762 28.3335 34.8448 28.0809 35.1173C28.0494 35.1511 27.9895 35.1836 27.9013 35.1837H26.0809C25.6669 35.1837 25.3311 35.5196 25.3309 35.9337C25.3309 36.3478 25.6668 36.6836 26.0809 36.6837H27.9013C28.364 36.6836 28.8372 36.507 29.1806 36.1368C29.4524 35.8436 29.7383 35.4962 30.0026 35.1752L30.0028 35.1748C30.1575 34.9869 30.3047 34.8081 30.4374 34.6544C30.8376 34.1906 31.1867 33.8497 31.537 33.6534C31.8425 33.4822 32.1938 33.2325 32.453 32.8975C32.7206 32.5517 32.9275 32.0583 32.7841 31.4835C32.6402 30.907 32.4001 30.3608 32.0797 29.8508H34.9648C35.4284 29.8508 35.9022 29.6728 36.2451 29.299C36.478 29.0452 36.7231 28.7469 36.949 28.4721L36.9492 28.4719L36.9502 28.4707C37.0797 28.3132 37.2027 28.1635 37.3135 28.0344C37.6526 27.6389 37.9471 27.3451 38.2383 27.1643C38.5251 26.9861 38.868 26.7299 39.1201 26.3938C39.3804 26.0466 39.5874 25.5467 39.4258 24.967C39.2571 24.3623 38.9719 23.7949 38.5947 23.2766C38.351 22.9417 37.8818 22.868 37.5469 23.1115C37.212 23.3553 37.1381 23.8245 37.3818 24.1594C37.665 24.5486 37.8658 24.955 37.9814 25.3693L37.9817 25.3702C37.982 25.3714 37.9823 25.3723 37.9825 25.3732C37.9832 25.3764 37.9831 25.3787 37.9814 25.385C37.9775 25.3997 37.9632 25.4367 37.9199 25.4943C37.827 25.6182 37.6602 25.7576 37.4473 25.8898C36.9502 26.1985 36.532 26.6412 36.1748 27.0578C36.0164 27.2426 35.8757 27.4144 35.7405 27.5795C35.5412 27.823 35.354 28.0517 35.1396 28.2854C35.1096 28.318 35.0526 28.3508 34.9648 28.3508H30.8022C30.3221 27.918 29.777 27.5289 29.1835 27.1895C27.5691 26.2664 25.5488 25.6799 23.3503 25.5641C23.3357 25.5417 23.3312 25.5274 23.3301 25.5227C23.3294 25.52 23.3293 25.5176 23.3311 25.51C23.454 24.9793 23.718 24.4582 24.1116 23.9708C25.7103 23.6088 27.1784 22.7144 28.0978 21.397C28.7693 21.2762 29.4775 21.2111 30.21 21.2111C32.5536 21.2112 34.6296 21.8744 36.0605 22.8869C36.3987 23.126 36.8663 23.0453 37.1055 22.7072C37.3447 22.3691 37.2649 21.9016 36.9268 21.6623C35.2075 20.4458 32.8182 19.7112 30.21 19.7111C29.755 19.7111 29.3072 19.7335 28.8689 19.7767C28.9807 19.3833 29.0509 18.9672 29.0732 18.53ZM18.1652 13.4678C17.2965 14.2619 16.6319 15.2794 16.2834 16.4178C15.5522 16.8639 14.6679 17.1191 13.7394 17.1191C11.1778 17.1191 9.30578 15.5587 9.30576 13.2314C9.30576 12.0945 9.78644 11.0244 10.5675 10.2178C11.3987 9.35937 12.5422 8.82813 13.7394 8.82813C16.1921 8.82813 18.173 10.8037 18.173 13.2314C18.173 13.311 18.1703 13.3898 18.1652 13.4678ZM13.0122 29.8508H9.07658C8.51867 29.8508 7.97722 29.5924 7.63712 29.1213L7.54892 28.9989C6.95941 28.1803 6.48592 27.5228 5.65177 27.1633C5.05803 26.9074 4.2298 26.2105 4.47013 25.1721C4.86456 23.4692 6.17738 22.058 7.90763 21.1106C8.27094 20.9116 8.72627 21.0451 8.92521 21.4084C9.124 21.7716 8.99137 22.227 8.62833 22.426C7.13774 23.2422 6.20006 24.3535 5.93205 25.51C5.93027 25.5176 5.93041 25.52 5.93107 25.5227C5.93243 25.5283 5.93845 25.5473 5.96037 25.5774C6.0086 25.6435 6.10698 25.7267 6.24552 25.7864C7.47585 26.3166 8.17786 27.2991 8.72587 28.0661C8.76912 28.1267 8.81142 28.1859 8.85294 28.2434C8.89764 28.3053 8.97706 28.3508 9.07658 28.3508H14.2902C14.816 27.8769 15.42 27.4552 16.08 27.0938C16.4433 26.8949 16.8986 27.0284 17.0975 27.3917C17.2964 27.7549 17.1637 28.2102 16.8007 28.4092C15.0875 29.3473 14.0109 30.6381 13.7304 31.9913L13.7301 31.9925C13.7283 32.0005 13.7236 32.0209 13.7616 32.0723C13.8094 32.1369 13.9047 32.2155 14.037 32.2686C15.4594 32.8397 16.2561 33.9553 16.8871 34.8388C16.9452 34.9201 17.0019 34.9994 17.0575 35.0762C17.1025 35.1383 17.1821 35.1836 17.2821 35.1837H22.5458C22.9599 35.1837 23.2956 35.5196 23.2958 35.9337C23.2958 36.3479 22.96 36.6837 22.5458 36.6837H17.2821C16.725 36.6836 16.1834 36.4271 15.8427 35.9571C15.7927 35.8881 15.7436 35.82 15.6951 35.7526C15.0279 34.8268 14.4762 34.0611 13.4774 33.6602C12.8526 33.4092 12.0488 32.7133 12.2616 31.6866C12.3967 31.0352 12.6543 30.4205 13.0122 29.8508ZM27.5809 18.2254C27.5809 15.4677 25.3304 13.2244 22.5457 13.2244C19.8762 13.2246 17.5116 15.5377 17.5116 18.2254C17.5117 20.8815 19.6511 22.6488 22.5428 22.6502C25.2392 22.6331 27.5807 20.8033 27.5809 18.2254Z" fill="#332A2A"/>
</g>
<defs>
<clipPath id="clip0_666_9134">
<rect width="44" height="44" fill="white"/>
</clipPath>
</defs>
</svg>
