<svg width="28" height="28" viewBox="0 0 28 28" fill="none" xmlns="http://www.w3.org/2000/svg">
<g clip-path="url(#clip0_666_9005)">
<path fill-rule="evenodd" clip-rule="evenodd" d="M5.4446 8.41999C5.4446 10.2311 6.92146 11.3714 8.74326 11.3714C9.47596 11.3714 10.195 11.1466 10.7737 10.7477C10.9687 9.98401 11.4169 9.30488 12.0154 8.80571C12.0329 8.68052 12.0419 8.55185 12.0419 8.41999C12.0419 6.60885 10.5651 5.14062 8.74326 5.14062C7.8399 5.14062 6.9919 5.54014 6.38195 6.17004C5.80783 6.76293 5.4446 7.55993 5.4446 8.41999ZM18.0057 11.1867C17.8616 9.90525 17.0519 8.82379 15.9282 8.29185C16.0003 6.57428 17.5129 5.14062 19.2242 5.14062C21.046 5.14062 22.5228 6.60885 22.5228 8.41999C22.5228 10.1702 20.8622 11.3714 19.2242 11.3714C18.7938 11.3714 18.3826 11.3078 18.0057 11.1867ZM11.0673 13.1828C11.6763 14.261 12.9166 14.8914 14.3475 14.8914C14.6511 14.9856 15.6283 14.9107 17.1084 13.8578C17.3414 13.6292 17.5372 13.3661 17.6875 13.0718C19.5052 13.0515 21.2421 13.1313 22.6966 13.6215C23.5963 13.9247 24.7386 16.4233 24.156 17.1731C23.9089 17.4912 23.5439 17.8362 23.0099 18.2032C22.8429 18.3181 22.6426 18.382 22.4444 18.4246C22.3907 18.4361 22.3322 18.4492 22.2701 18.463L22.27 18.463C21.8844 18.5489 21.3554 18.6667 20.9061 18.6667L19.5161 18.6225C19.856 18.976 20.1165 19.3663 20.2809 19.7818C20.4975 20.3292 19.9706 20.8443 19.5189 21.2216C19.2325 21.4609 18.97 21.7806 18.7042 22.1044C18.5793 22.2566 18.4537 22.4096 18.3246 22.5556C18.1418 22.7621 17.8746 22.8671 17.5988 22.8671H16.597H14.3474H11.1869C10.8582 22.8671 10.549 22.7148 10.3574 22.4477C10.0037 21.9547 9.63518 21.4437 9.04565 21.1159C8.59634 20.866 8.19296 20.4383 8.35321 19.9498C8.47542 19.5772 8.67419 19.2232 8.93803 18.8956H6.40174C6.07301 18.8956 5.76387 18.7433 5.57224 18.4762C5.21854 17.9832 4.85003 17.4722 4.26049 17.1443C3.81118 16.8945 3.40781 16.4667 3.56805 15.9782C3.86755 15.0652 4.62692 14.2635 5.6767 13.6886C6.11285 13.419 7.08546 13.1134 7.51724 12.9943C8.15689 12.8429 8.84522 12.7604 9.56228 12.7604C10.1388 12.9972 10.5883 13.1185 11.0673 13.1828Z" fill="#E05149"/>
<path fill-rule="evenodd" clip-rule="evenodd" d="M16.7386 7.88487C17.6886 8.49184 18.391 9.45008 18.6593 10.5768C18.8386 10.6062 19.0273 10.6214 19.2242 10.6214C20.5783 10.6214 21.7729 9.63681 21.7729 8.41999C21.7729 7.0272 20.636 5.89062 19.2242 5.89062C18.0581 5.89062 17.0024 6.77237 16.7386 7.88487ZM18.7479 12.0982C18.9051 12.1136 19.0641 12.1214 19.2242 12.1214C21.1463 12.1214 23.2729 10.7036 23.2729 8.41999C23.2729 6.19049 21.4561 4.39062 19.2242 4.39062C17.4458 4.39062 15.8503 5.63404 15.3429 7.30005C15.0229 7.22689 14.6897 7.18825 14.3475 7.18825C13.7693 7.18825 13.2088 7.30848 12.6918 7.52529C12.2826 5.72809 10.6671 4.39063 8.74322 4.39063C7.61748 4.39063 6.58035 4.88698 5.84312 5.64831C5.14795 6.36621 4.69457 7.34541 4.69457 8.41999C4.69457 10.7499 6.62013 12.1214 8.74322 12.1214C9.14089 12.1214 9.54258 12.0642 9.93054 11.9541C9.94161 12.092 9.95909 12.2266 9.98265 12.3576C9.57799 12.3003 9.16294 12.2707 8.74321 12.2707C8.04345 12.2707 7.36862 12.3512 6.73789 12.5005C6.33481 12.5959 6.08539 13 6.18079 13.4031C6.27619 13.8062 6.68029 14.0556 7.08337 13.9602C7.59902 13.8381 8.15784 13.7707 8.74321 13.7707C9.47609 13.7707 10.151 13.8737 10.7477 14.0502C11.3141 14.7546 12.1259 15.2425 13.0434 15.4787C13.1592 15.6285 13.2533 15.7826 13.3241 15.9384C13.3188 15.9557 13.3052 15.9878 13.2728 16.0395C13.2727 16.0397 13.2726 16.0399 13.2725 16.04C12.8799 16.0829 12.498 16.1488 12.1297 16.236C11.7266 16.3314 11.4772 16.7355 11.5726 17.1386C11.668 17.5416 12.0721 17.7911 12.4752 17.6957C13.0573 17.5579 13.6876 17.4819 14.3475 17.4819C15.6607 17.4819 16.8503 17.7826 17.7751 18.2657C18.7017 18.7498 19.3151 19.3897 19.5791 20.0466C19.5744 20.0625 19.5609 20.0974 19.5244 20.1526C19.4284 20.2983 19.2583 20.4621 19.0381 20.646C18.775 20.8658 18.543 21.1268 18.3414 21.3665C18.2581 21.4656 18.1829 21.5573 18.1109 21.6451L18.1108 21.6452L18.1107 21.6453C17.9934 21.7884 17.8846 21.9211 17.7629 22.0585C17.7409 22.0834 17.6892 22.1171 17.5989 22.1171H16.5971C16.1828 22.1171 15.8471 22.4529 15.8471 22.8671C15.8471 23.2813 16.1828 23.6171 16.5971 23.6171H17.5989C18.0601 23.6171 18.5428 23.4407 18.8863 23.0525C19.0233 22.8977 19.1673 22.7224 19.2987 22.5624L19.2988 22.5624L19.2989 22.5622C19.3667 22.4798 19.4311 22.4013 19.4895 22.3319C19.6789 22.1067 19.8419 21.9291 19.9998 21.7972C20.2313 21.6038 20.5506 21.3213 20.7767 20.9783C21.01 20.6245 21.2116 20.0953 20.9784 19.5059C20.9466 19.4256 20.9122 19.3465 20.8751 19.2685H22.0935C22.5546 19.2685 23.0392 19.092 23.3824 18.6994C23.4947 18.5708 23.6122 18.4278 23.7194 18.2973L23.7195 18.2971L23.7196 18.297L23.7199 18.2966C23.7724 18.2327 23.8225 18.1717 23.8683 18.1169C24.0206 17.9348 24.1523 17.7874 24.2795 17.6717C24.496 17.4749 24.8082 17.1821 25.0251 16.8357C25.2486 16.4788 25.4454 15.9377 25.1843 15.3481C25.0758 15.103 24.9395 14.8705 24.7805 14.6519C24.5368 14.317 24.0677 14.2431 23.7328 14.4868C23.3978 14.7305 23.3239 15.1996 23.5677 15.5345C23.6646 15.6678 23.7436 15.8029 23.8052 15.9384C23.7999 15.9557 23.7863 15.9878 23.7538 16.0395C23.6583 16.1921 23.4895 16.3627 23.2705 16.5618C23.0646 16.749 22.8796 16.9609 22.7174 17.1549C22.653 17.2319 22.5943 17.3035 22.5381 17.3721L22.5379 17.3723L22.5378 17.3724L22.5378 17.3724L22.5377 17.3725C22.4411 17.4903 22.3516 17.5993 22.2529 17.7123C22.2331 17.735 22.1839 17.7685 22.0935 17.7685H19.7045C19.3381 17.4509 18.921 17.172 18.4697 16.9362C17.5299 16.4453 16.4096 16.1224 15.2002 16.0183C15.2711 15.8424 15.3714 15.667 15.5007 15.496C16.5013 15.2472 17.4277 14.6861 18.0385 13.8656C18.4169 13.8038 18.814 13.7707 19.2242 13.7707C20.7352 13.7707 21.6426 13.9687 22.4605 14.5474C22.7986 14.7867 23.2667 14.7065 23.5059 14.3684C23.7452 14.0303 23.665 13.5622 23.3269 13.3229C22.14 12.4831 20.8647 12.2707 19.2242 12.2707C19.0546 12.2707 18.8864 12.2755 18.72 12.2847C18.7307 12.2233 18.74 12.1611 18.7479 12.0982ZM10.1334 10.2669C9.73234 10.4917 9.25412 10.6214 8.74322 10.6214C7.22272 10.6214 6.19457 9.71237 6.19457 8.41999C6.19457 7.77445 6.46764 7.15966 6.9207 6.69178C7.40338 6.19331 8.06225 5.89063 8.74322 5.89063C10.155 5.89063 11.2919 7.0272 11.2919 8.41999C11.2919 8.42925 11.2918 8.4385 11.2917 8.44773C10.7697 8.94906 10.3648 9.57255 10.1334 10.2669ZM7.81981 19.2685H5.96499C5.40318 19.2685 4.86458 19.0061 4.52704 18.5363C4.23077 18.124 4.00134 17.8311 3.68133 17.6359C3.41095 17.471 3.10059 17.229 2.88311 16.9049C2.65329 16.5624 2.50527 16.0837 2.69788 15.5588C3.06461 14.5594 3.88497 13.7511 4.90109 13.1947C5.2644 12.9958 5.72019 13.129 5.91913 13.4923C6.11808 13.8556 5.98483 14.3114 5.62152 14.5104C4.83586 14.9406 4.32945 15.4931 4.11613 16.0487C4.1192 16.0543 4.1233 16.0611 4.1287 16.0691C4.1807 16.1466 4.29383 16.2525 4.46236 16.3553C5.07353 16.728 5.45905 17.2628 5.74521 17.6611C5.79129 17.7252 5.86935 17.7685 5.96499 17.7685H8.99062C9.3236 17.4798 9.69827 17.2232 10.1017 17.0023C10.465 16.8034 10.9208 16.9366 11.1198 17.2999C11.3187 17.6633 11.1854 18.1191 10.8221 18.318C9.89167 18.8275 9.29823 19.493 9.07114 20.1678C9.07456 20.1747 9.08011 20.1845 9.08893 20.1974C9.13974 20.2713 9.24928 20.3709 9.41021 20.4604C10.1507 20.8721 10.604 21.5044 10.9437 21.9782L10.9668 22.0105C11.0118 22.0731 11.0897 22.1171 11.187 22.1171H14.3475C14.7617 22.1171 15.0975 22.4529 15.0975 22.8671C15.0975 23.2813 14.7617 23.6171 14.3475 23.6171H11.187C10.6267 23.6171 10.0864 23.3565 9.74808 22.8849C9.38287 22.3759 9.10284 22.0058 8.68121 21.7713C8.39283 21.6109 8.07603 21.3717 7.85289 21.0472C7.61844 20.7062 7.47025 20.2354 7.64063 19.716C7.69084 19.5629 7.75081 19.4137 7.81981 19.2685ZM23.8077 15.9219C23.8084 15.9216 23.8087 15.925 23.8066 15.9332C23.806 15.9263 23.807 15.9223 23.8077 15.9219ZM13.3267 15.9219C13.3273 15.9216 13.3276 15.925 13.3256 15.9332C13.325 15.9263 13.326 15.9223 13.3267 15.9219ZM14.3475 8.68825C12.7961 8.68825 11.4164 10.0412 11.4164 11.5978C11.4164 13.0995 12.6148 14.1405 14.3452 14.1414C15.9584 14.1305 17.2786 13.0443 17.2786 11.5978C17.2786 9.99504 15.9705 8.68825 14.3475 8.68825Z" fill="#332A2A"/>
</g>
<defs>
<clipPath id="clip0_666_9005">
<rect width="28" height="28" fill="white"/>
</clipPath>
</defs>
</svg>
