<svg width="44" height="44" viewBox="0 0 44 44" fill="none" xmlns="http://www.w3.org/2000/svg">
<g clip-path="url(#clip0_399_2441)">
<path fill-rule="evenodd" clip-rule="evenodd" d="M8.55573 13.2314C8.55573 16.0775 10.8765 17.8694 13.7393 17.8694C14.8907 17.8694 16.0206 17.5161 16.9301 16.8893C17.2364 15.6892 17.9408 14.622 18.8813 13.8375C18.9087 13.6408 18.9229 13.4386 18.9229 13.2314C18.9229 10.3853 16.6022 8.07812 13.7393 8.07812C12.3198 8.07812 10.9872 8.70594 10.0287 9.69578C9.12651 10.6275 8.55573 11.8799 8.55573 13.2314ZM28.2945 17.5791C28.0681 15.5654 26.7957 13.8659 25.03 13.03C25.1433 10.331 27.5202 8.07812 30.2093 8.07812C33.0722 8.07812 35.3929 10.3853 35.3929 13.2314C35.3929 15.9818 32.7834 17.8694 30.2093 17.8694C29.533 17.8694 28.8869 17.7694 28.2945 17.5791ZM17.3913 20.7159C18.3485 22.4101 20.2974 23.4008 22.5461 23.4008C23.0231 23.5487 24.5587 23.4311 26.8845 21.7765C27.2536 21.4146 27.5631 20.9975 27.7999 20.5309C31.0778 20.4788 34.0442 20.6371 36.4281 21.8666C37.272 22.3018 38.5296 24.653 38.4289 25.5971C38.3379 26.4509 37.7879 27.5102 36.0144 28.7021C35.8462 28.8152 35.6419 28.8782 35.443 28.9171C35.3165 28.9419 35.165 28.9756 34.9958 29.0133L34.9957 29.0133C34.3896 29.1482 33.5583 29.3333 32.8524 29.3333L30.6681 29.2639C31.3574 29.9809 31.8391 30.7942 32.0565 31.6651C32.199 32.2362 31.6841 32.7118 31.1706 32.9996C30.5162 33.3663 29.959 34.0451 29.3923 34.7355L29.3923 34.7356L29.3922 34.7356C29.1433 35.0389 28.8925 35.3444 28.6308 35.6267C28.4433 35.829 28.1767 35.934 27.9009 35.934H26.0809H22.5459H17.2822C16.9534 35.934 16.6426 35.7828 16.4497 35.5166C16.3947 35.4407 16.3398 35.3642 16.2847 35.2873C15.64 34.3887 14.9662 33.4496 13.7571 32.9643C13.28 32.7728 12.8913 32.3426 12.9956 31.8392C13.1543 31.0734 13.5167 30.3495 14.0454 29.693H9.76263C9.43391 29.693 9.12308 29.5418 8.93021 29.2756C8.8752 29.1997 8.8203 29.1232 8.76518 29.0464L8.76516 29.0463C8.12044 28.1477 7.4467 27.2086 6.23756 26.7233C5.76045 26.5318 5.37172 26.1016 5.47606 25.5982C5.81532 23.9613 7.0856 22.5155 8.92045 21.5107C9.60583 21.087 11.1342 20.6068 11.8127 20.4196C12.8179 20.1817 13.8995 20.0521 15.0264 20.0521C15.9324 20.4242 16.6386 20.6147 17.3913 20.7159Z" fill="#E05149"/>
<path fill-rule="evenodd" clip-rule="evenodd" d="M25.8253 12.6012C27.4278 13.5279 28.599 15.1132 28.9621 16.9865C29.3538 17.0738 29.7715 17.1194 30.2094 17.1194C32.4994 17.1194 34.643 15.4484 34.643 13.2314C34.643 10.8037 32.6622 8.82812 30.2094 8.82812C28.0711 8.82812 26.1536 10.5158 25.8253 12.6012ZM29.0728 18.5302C29.4429 18.5892 29.8232 18.6194 30.2094 18.6194C33.0674 18.6194 36.143 16.5152 36.143 13.2314C36.143 9.96698 33.4823 7.32812 30.2094 7.32812C27.4647 7.32812 25.0132 9.35819 24.4148 11.9942C23.8225 11.8187 23.1952 11.7244 22.546 11.7244C21.5102 11.7244 20.5122 11.9872 19.6213 12.4494C19.2365 9.5557 16.7463 7.32813 13.7392 7.32813C12.0973 7.32813 10.5756 8.05277 9.4898 9.17405C8.46657 10.2307 7.80563 11.6654 7.80563 13.2314C7.80563 16.5963 10.5751 18.6194 13.7392 18.6194C14.5111 18.6194 15.287 18.4751 16.0115 18.2025C16.0114 18.21 16.0114 18.2176 16.0114 18.2251C16.0114 18.8403 16.0957 19.415 16.2522 19.9455C15.4504 19.7924 14.6073 19.7112 13.7392 19.7112C12.6723 19.7112 11.645 19.8339 10.6867 20.0607C10.2836 20.1561 10.0342 20.5602 10.1296 20.9633C10.225 21.3664 10.6291 21.6158 11.0322 21.5204C11.8754 21.3208 12.7867 21.2112 13.7392 21.2112C14.9656 21.2112 16.1203 21.3928 17.1481 21.7119C18.0062 22.833 19.2834 23.6005 20.7453 23.945C21.1156 24.397 21.374 24.8784 21.511 25.3696L21.5112 25.3703C21.5127 25.3756 21.5129 25.3765 21.5108 25.3847C21.5069 25.3993 21.4931 25.4361 21.4497 25.494C21.4267 25.5246 21.3993 25.5562 21.3677 25.5884C20.6041 25.6477 19.8649 25.7638 19.1596 25.9308C18.7565 26.0262 18.5071 26.4303 18.6025 26.8333C18.6979 27.2364 19.102 27.4858 19.5051 27.3904C20.4527 27.1661 21.4763 27.043 22.546 27.043C24.8204 27.043 26.878 27.5993 28.4385 28.4917C30.0071 29.3886 31.0143 30.5864 31.3288 31.8467C31.3313 31.8564 31.3313 31.8608 31.3282 31.8717C31.3237 31.8881 31.309 31.9245 31.2665 31.9795C31.1755 32.0971 31.012 32.2287 30.804 32.3453C30.2125 32.6768 29.7211 33.1877 29.3013 33.6742C29.1136 33.8917 28.9471 34.095 28.7868 34.2907C28.5536 34.5755 28.3336 34.8441 28.0808 35.1168C28.0493 35.1508 27.9895 35.184 27.9009 35.184H26.081C25.6667 35.184 25.331 35.5197 25.331 35.934C25.331 36.3482 25.6667 36.684 26.081 36.684H27.9009C28.3639 36.684 28.8374 36.5071 29.1809 36.1365C29.4521 35.8439 29.7372 35.4974 30.0008 35.1769L30.001 35.1766L30.0012 35.1763C30.1563 34.9878 30.3039 34.8083 30.4369 34.6541C30.8372 34.1903 31.187 33.8501 31.5373 33.6538C31.8428 33.4826 32.1935 33.2325 32.4527 32.8976C32.7204 32.5517 32.9277 32.0583 32.7842 31.4835C32.6403 30.9069 32.4001 30.3606 32.0796 29.8505H34.9647C35.4283 29.8505 35.9022 29.673 36.2451 29.2992C36.4781 29.0452 36.7236 28.7467 36.9496 28.4718L36.9497 28.4718L36.9497 28.4717L36.95 28.4714L36.9502 28.4711C37.0798 28.3135 37.203 28.1637 37.3138 28.0345C37.653 27.639 37.9472 27.3452 38.2384 27.1644C38.5252 26.9863 38.868 26.73 39.1201 26.3938C39.3804 26.0465 39.5878 25.5464 39.4261 24.9666C39.2574 24.3619 38.9714 23.795 38.5941 23.2766C38.3504 22.9417 37.8813 22.8677 37.5464 23.1115C37.2115 23.3552 37.1376 23.8243 37.3813 24.1592C37.6647 24.5486 37.8656 24.9551 37.9813 25.3697L37.9814 25.3704C37.9829 25.3757 37.9832 25.3765 37.981 25.3847C37.9771 25.3994 37.9634 25.4361 37.92 25.494C37.827 25.6179 37.6603 25.7577 37.4471 25.8901C36.9501 26.1987 36.5324 26.6415 36.1751 27.058C36.0171 27.2423 35.8767 27.4137 35.7418 27.5783L35.7418 27.5783C35.5421 27.8222 35.3545 28.0511 35.1398 28.2852C35.1098 28.3179 35.0527 28.3505 34.9647 28.3505H30.8017C30.3216 27.9179 29.7765 27.5288 29.1831 27.1895C27.5686 26.2663 25.5486 25.6798 23.35 25.5641C23.3355 25.5418 23.3312 25.5278 23.33 25.5231L23.33 25.5228C23.3293 25.52 23.3288 25.518 23.3306 25.5103C23.4535 24.9794 23.7176 24.4581 24.1115 23.9704C25.7103 23.6085 27.1784 22.714 28.0977 21.3966C28.7691 21.2759 29.4771 21.2111 30.2094 21.2111C32.5532 21.2111 34.6293 21.874 36.0604 22.8866C36.3985 23.1258 36.8666 23.0457 37.1058 22.7075C37.3451 22.3694 37.2649 21.9014 36.9268 21.6621C35.2074 20.4455 32.8178 19.7111 30.2094 19.7111C29.7545 19.7111 29.3068 19.7334 28.8685 19.7766C28.9804 19.3833 29.0505 18.9673 29.0728 18.5302ZM16.2831 16.418C15.552 16.8641 14.6677 17.1194 13.7392 17.1194C11.1777 17.1194 9.30563 15.5587 9.30563 13.2314C9.30563 12.0944 9.78625 11.0242 10.5674 10.2175C11.3986 9.35911 12.5421 8.82813 13.7392 8.82813C16.192 8.82813 18.1728 10.8037 18.1728 13.2314C18.1728 13.3109 18.1702 13.3897 18.1651 13.4676C17.2963 14.2619 16.6316 15.2795 16.2831 16.418ZM13.0122 29.8505H9.07611C8.51817 29.8505 7.97659 29.5927 7.63651 29.1215L7.54675 28.997C6.95801 28.1794 6.48511 27.5226 5.65169 27.1634C5.05789 26.9075 4.22961 26.2105 4.47018 25.1718C4.86461 23.4689 6.17716 22.0579 7.90742 21.1104C8.27073 20.9115 8.72653 21.0447 8.92547 21.4081C9.12441 21.7714 8.99116 22.2272 8.62785 22.4261C7.1371 23.2424 6.1994 24.3536 5.93149 25.5103C5.9297 25.518 5.93021 25.5201 5.93088 25.5228L5.93097 25.5231C5.93233 25.5287 5.9382 25.5474 5.9602 25.5776C6.00844 25.6438 6.1068 25.7262 6.24534 25.7859C7.47515 26.3159 8.17686 27.2981 8.72474 28.065C8.76833 28.126 8.81094 28.1857 8.85277 28.2436C8.89746 28.3056 8.9766 28.3505 9.07611 28.3505H14.2904C14.8162 27.8767 15.42 27.4552 16.0798 27.0938C16.4431 26.8949 16.8989 27.0282 17.0979 27.3915C17.2968 27.7548 17.1636 28.2106 16.8003 28.4095C15.0871 29.3476 14.0105 30.6381 13.73 31.9913L13.7298 31.9925C13.7279 32.0006 13.7232 32.0211 13.7614 32.0727C13.8091 32.1372 13.9043 32.2151 14.0365 32.2682C15.4585 32.839 16.255 33.9543 16.8858 34.8377L16.886 34.838C16.9443 34.9197 17.0013 34.9994 17.0571 35.0766C17.1022 35.1387 17.1821 35.184 17.2822 35.184H22.546C22.9602 35.184 23.296 35.5197 23.296 35.934C23.296 36.3482 22.9602 36.684 22.546 36.684H17.2822C16.7249 36.684 16.1832 36.4269 15.8425 35.9566C15.7931 35.8885 15.7445 35.8211 15.6966 35.7546L15.6952 35.7527L15.6944 35.7516C15.0275 34.826 14.4763 34.0611 13.4778 33.6603C12.8528 33.4094 12.0484 32.7138 12.2613 31.6869C12.3963 31.0353 12.6541 30.4204 13.0122 29.8505ZM22.546 13.2244C19.8763 13.2244 17.5114 15.5374 17.5114 18.2251C17.5114 20.8817 19.6514 22.6499 22.5437 22.6508C25.2397 22.6332 27.5805 20.8029 27.5805 18.2251C27.5805 15.4674 25.3306 13.2244 22.546 13.2244Z" fill="#252323"/>
</g>
<defs>
<clipPath id="clip0_399_2441">
<rect width="44" height="44" fill="white"/>
</clipPath>
</defs>
</svg>
