<svg width="23" height="23" viewBox="0 0 23 23" fill="none" xmlns="http://www.w3.org/2000/svg">
<g clip-path="url(#clip0_666_9136)">
<path fill-rule="evenodd" clip-rule="evenodd" d="M13.8169 6.45021C14.5811 6.95088 15.1482 7.72606 15.3753 8.63599C15.5077 8.6556 15.6466 8.66576 15.7914 8.66576C16.8813 8.66576 17.826 7.87399 17.826 6.91637C17.826 5.80517 16.9188 4.89761 15.7914 4.89761C14.8749 4.89761 14.043 5.58178 13.8169 6.45021ZM15.4511 10.0015C15.5636 10.011 15.6772 10.0158 15.7914 10.0158C17.3925 10.0158 19.176 8.83414 19.176 6.91637C19.176 5.05213 17.6569 3.54761 15.7914 3.54761C14.3229 3.54761 13.0042 4.56044 12.563 5.92721C12.3122 5.87377 12.0521 5.84566 11.7855 5.84566C11.3263 5.84566 10.8806 5.93638 10.4668 6.1009C10.1002 4.6323 8.76594 3.54761 7.18194 3.54761C6.23974 3.54761 5.37296 3.96293 4.75738 4.59864C4.17684 5.19817 3.79733 6.01683 3.79733 6.91637C3.79733 8.87098 5.4143 10.0158 7.18194 10.0158C7.49025 10.0158 7.80191 9.97444 8.10481 9.89461C8.11113 9.9578 8.11907 10.0201 8.12859 10.0815C7.81885 10.0413 7.5021 10.0206 7.18193 10.0206C6.34555 10.0206 5.32593 10.2012 4.41719 10.5898C3.51963 10.9736 2.62735 11.6066 2.21654 12.5788C2.00283 13.0847 2.14832 13.5493 2.35993 13.8761C2.55977 14.1847 2.84837 14.4262 3.07908 14.5942C3.27118 14.7341 3.42809 14.9257 3.61822 15.1878C3.94004 15.6313 4.45107 15.8866 4.99295 15.8866H6.3317C6.31704 15.9198 6.30293 15.9533 6.28939 15.9871C6.08888 16.4869 6.22746 16.9466 6.44377 17.2761C6.64821 17.5875 6.94369 17.8257 7.1946 17.991C7.45966 18.1655 7.65954 18.4162 7.90602 18.7582C8.22861 19.2059 8.74288 19.4586 9.28248 19.4586H9.74411H10.31H10.9879H11.3713H11.3775H11.3837H11.39H11.3962H11.4025H11.4088H11.415H11.4213H11.4276H11.4339H11.4402H11.4465H11.4529H11.4592H11.4655H11.4719H11.4782H11.4846H11.491H11.4973H11.5037H11.5101H11.5165H11.5229H11.5293H11.5357H11.5422H11.5486H11.5551H11.5615H11.568H11.5744H11.5809H11.5874H11.5939H11.6004H11.6069H11.6134H11.6199H11.6264H11.633H11.6395H11.6461H11.6526H11.6592H11.6658H11.6724H11.679H11.6856H11.6922H11.6988H11.7054H11.712H11.7187H11.7253H11.732H11.7386H11.7453H11.752H11.7586H11.7653H11.772H11.7787H11.7855C12.1582 19.4586 12.4605 19.1564 12.4605 18.7836C12.4605 18.4108 12.1582 18.1086 11.7855 18.1086H11.7787H11.772H11.7653H11.7586H11.752H11.7453H11.7386H11.732H11.7253H11.7187H11.712H11.7054H11.6988H11.6922H11.6856H11.679H11.6724H11.6658H11.6592H11.6526H11.6461H11.6395H11.633H11.6264H11.6199H11.6134H11.6069H11.6004H11.5939H11.5874H11.5809H11.5744H11.568H11.5615H11.5551H11.5486H11.5422H11.5357H11.5293H11.5229H11.5165H11.5101H11.5037H11.4973H11.491H11.4846H11.4782H11.4719H11.4655H11.4592H11.4529H11.4465H11.4402H11.4339H11.4276H11.4213H11.415H11.4088H11.4025H11.3962H11.39H11.3837H11.3775H11.3713H10.9879H10.31H10.0136H10.0091H10.0047H10.0003H9.99594H9.99155H9.98716H9.98279H9.97842H9.97406H9.9697H9.96535H9.96101H9.95667H9.95234H9.94802H9.9437H9.93939H9.93509H9.93079H9.9265H9.92221H9.91794H9.91367H9.9094H9.90514H9.90089H9.89665H9.89241H9.88818H9.88395H9.87973H9.87552H9.87131H9.86711H9.86292H9.85873H9.85455H9.85038H9.84621H9.84205H9.83789H9.83375H9.82961H9.82547H9.82134H9.81722H9.8131H9.80899H9.80489H9.80079H9.7967H9.79262H9.78854H9.78447H9.78041H9.77635H9.7723H9.76825H9.76421H9.76018H9.75615H9.75213H9.74812H9.74411H9.28248C9.16462 18.1086 9.06303 18.0547 9.00124 17.9689C8.75521 17.6275 8.43047 17.1884 7.93707 16.8635C7.75861 16.746 7.6334 16.6283 7.57234 16.5353C7.55573 16.51 7.54811 16.4929 7.54475 16.4837C7.7483 15.9815 8.21142 15.4854 8.91792 15.0986C9.2449 14.9195 9.36482 14.5093 9.18577 14.1823C9.00672 13.8553 8.59651 13.7354 8.26953 13.9145C7.94141 14.0941 7.6359 14.3023 7.36317 14.5366H4.99295C4.87739 14.5366 4.77516 14.4835 4.71086 14.3949C4.5115 14.1202 4.25021 13.777 3.87378 13.5029C3.6889 13.3683 3.55839 13.2431 3.49305 13.1422C3.47769 13.1185 3.46964 13.1017 3.46554 13.0916C3.68689 12.5809 4.21265 12.1455 4.948 11.831C5.67826 11.5187 6.51599 11.3706 7.18193 11.3706C7.77068 11.3706 8.31357 11.4526 8.79425 11.5929C9.26344 12.169 9.92963 12.5692 10.6804 12.7664C10.7393 12.8443 10.7908 12.9234 10.8345 13.0033C10.8322 13.0199 10.8219 13.0609 10.7846 13.1301C10.4988 13.1653 10.22 13.2154 9.95013 13.2793C9.58736 13.3652 9.36288 13.7289 9.44874 14.0916C9.5346 14.4544 9.89829 14.6789 10.2611 14.593C10.7347 14.4809 11.2479 14.419 11.7855 14.419C13.8849 14.419 15.4776 15.3422 15.9754 16.3695C15.9755 16.3697 15.9756 16.3697 15.9757 16.3695L15.975 16.3735C15.9723 16.3916 15.9599 16.4377 15.9132 16.5158C15.8131 16.683 15.639 16.8652 15.4228 17.0745C15.2131 17.2773 14.994 17.5438 14.8075 17.7707L14.8074 17.7708L14.8072 17.771C14.7289 17.8663 14.6563 17.9546 14.5925 18.0282C14.5583 18.0678 14.4887 18.1086 14.3794 18.1086H14.3783H14.3771H14.3759H14.3748H14.3736H14.3724H14.3712H14.3701H14.3689H14.3677H14.3665H14.3653H14.3642H14.363H14.3618H14.3606H14.3594H14.3582H14.357H14.3558H14.3546H14.3534H14.3523H14.3511H14.3499H14.3487H14.3475H14.3463H14.3451H14.3439H14.3426H14.3414H14.3402H14.339H14.3378H14.3366H14.3354H14.3342H14.333H14.3318H14.3305H14.3293H14.3281H14.3269H14.3257H14.3244H14.3232H14.322H14.3208H14.3195H14.3183H14.3171H14.3159H14.3146H14.3134H14.3122H14.3109H14.3097H14.3085H14.3072H14.306H14.3047H14.3035H14.3023H14.301H14.2998H14.2985H14.2973H14.296H14.2948H14.2935H14.2923H14.291H14.2898H14.2885H14.2873H14.286H14.2847H14.2835H14.2822H14.281H14.2797H14.2784H14.2772H14.2759H14.2746H14.2734H14.2721H14.2708H14.2695H14.2683H14.267H14.2657H14.2644H14.2632H14.2619H14.2606H14.2593H14.258H14.2568H14.2555H14.2542H14.2529H14.2516H14.2503H14.249H14.2477H14.2464H14.2452H14.2439H14.2426H14.2413H14.24H14.2387H14.2374H14.2361H14.2348H14.2335H14.2321H14.2308H14.2295H14.2282H14.2269H14.2256H14.2243H14.223H14.2217H14.2203H14.219H14.2177H14.2164H14.2151H14.2138H14.2124H14.2111H14.2098H14.2085H14.2071H14.2058H14.2045H14.2031H14.2018H14.2005H14.1991H14.1978H14.1965H14.1951H14.1938H14.1925H14.1911H14.1898H14.1884H14.1871H14.1857H14.1844H14.1831H14.1817H14.1804H14.179H14.1777H14.1763H14.1749H14.1736H14.1722H14.1709H14.1695H14.1682H14.1668H14.1654H14.1641H14.1627H14.1613H14.16H14.1586H14.1572H14.1559H14.1545H14.1531H14.1518H14.1504H14.149H14.1476H14.1462H14.1449H14.1435H14.1421H14.1407H14.1393H14.138H14.1366H14.1352H14.1338H14.1324H14.131H14.1296H14.1282H14.1268H14.1254H14.1241H14.1227H14.1213H14.1199H14.1185H14.1171H14.1157H14.1143H14.1128H14.1114H14.11H14.1086H14.1072H14.1058H14.1044H14.103H14.1016H14.1002H14.0987H14.0973H14.0959H14.0945H14.0931H14.0916H14.0902H14.0888H14.0874H14.0859H14.0845H14.0831H14.0817H14.0802H14.0788H14.0774H14.0759H14.0745H14.0731H14.0716H14.0702H14.0687H14.0673H14.0659H14.0644H14.063H14.0615H14.0601H14.0586H14.0572H14.0557H14.0543H14.0528H14.0514H14.0499H14.0485H14.047H14.0456H14.0441H14.0427H14.0412H14.0397H14.0383H14.0368H14.0353H14.0339H14.0324H14.0309H14.0295H14.028H14.0265H14.0251H14.0236H14.0221H14.0206H14.0192H14.0177H14.0162H14.0147H14.0132H14.0118H14.0103H14.0088H14.0073H14.0058H14.0043H14.0028H14.0013H13.9999H13.9984H13.9969H13.9954H13.9939H13.9924H13.9909H13.9894H13.9879H13.9864H13.9849H13.9834H13.9819H13.9804H13.9789H13.9774H13.9758H13.9743H13.9728H13.9713H13.9698H13.9683H13.9668H13.9653H13.9637H13.9622H13.9607H13.9592H13.9577H13.9561H13.9546H13.9531H13.9516H13.95H13.9485H13.947H13.9454H13.9439H13.9424H13.9408H13.9393H13.9378H13.9362H13.9347H13.9332H13.9316H13.9301H13.9285H13.927H13.9254H13.9239H13.9224H13.9208H13.9193H13.9177H13.9162H13.9146H13.913H13.9115H13.9099H13.9084H13.9068H13.9053H13.9037H13.9021H13.9006H13.899H13.8975H13.8959H13.8943H13.8928H13.8912H13.8896H13.888H13.8865H13.8849H13.8833H13.8817H13.8802H13.8786H13.877H13.8754H13.8739H13.8723H13.8707H13.8691H13.8675H13.8659H13.8643H13.8628H13.8612H13.8596H13.858H13.8564H13.8548H13.8532H13.8516H13.85H13.8484H13.8468H13.8452H13.8436H13.842H13.8404H13.8388H13.8372H13.8356H13.834H13.8324H13.8308H13.8292H13.8275H13.8259H13.8243H13.8227H13.8211H13.8195H13.8178H13.8162H13.8146H13.813H13.8114H13.8097H13.8081H13.8065H13.8049H13.8032H13.8016H13.8H13.7983H13.7967H13.7951H13.7934H13.7918H13.7902H13.7885H13.7869H13.7853H13.7836H13.782H13.7803H13.7787H13.777H13.7754H13.7737H13.7721H13.7704H13.7688H13.7671H13.7655H13.7638H13.7622H13.7605H13.7589H13.7572H13.7556H13.7539H13.7522H13.7506H13.7489H13.7472H13.7456H13.7439H13.7422H13.7406H13.7389H13.7372H13.7356H13.7339H13.7322H13.7305H13.7289H13.7272H13.7255H13.7238H13.7221H13.7205H13.7188H13.7171H13.7154H13.7137H13.712H13.7103H13.7087H13.707H13.7053H13.7036H13.7019H13.7002H13.6985H13.6968H13.6951H13.6934H13.6917H13.69H13.6883H13.6866H13.6849H13.6832H13.6815H13.6798H13.6781H13.6764H13.6747H13.6729H13.6712H13.6695H13.6678H13.6661H13.6644H13.6627H13.6609H13.6592H13.6575H13.6558H13.6541H13.6523H13.6506H13.6489H13.6472H13.6454H13.6437H13.642H13.6402H13.6385H13.6368H13.635H13.6333C13.2605 18.1086 12.9583 18.4108 12.9583 18.7836C12.9583 19.1564 13.2605 19.4586 13.6333 19.4586H13.635H13.6368H13.6385H13.6402H13.642H13.6437H13.6454H13.6472H13.6489H13.6506H13.6523H13.6541H13.6558H13.6575H13.6592H13.6609H13.6627H13.6644H13.6661H13.6678H13.6695H13.6712H13.6729H13.6747H13.6764H13.6781H13.6798H13.6815H13.6832H13.6849H13.6866H13.6883H13.69H13.6917H13.6934H13.6951H13.6968H13.6985H13.7002H13.7019H13.7036H13.7053H13.707H13.7087H13.7103H13.712H13.7137H13.7154H13.7171H13.7188H13.7205H13.7221H13.7238H13.7255H13.7272H13.7289H13.7305H13.7322H13.7339H13.7356H13.7372H13.7389H13.7406H13.7422H13.7439H13.7456H13.7472H13.7489H13.7506H13.7522H13.7539H13.7556H13.7572H13.7589H13.7605H13.7622H13.7638H13.7655H13.7671H13.7688H13.7704H13.7721H13.7737H13.7754H13.777H13.7787H13.7803H13.782H13.7836H13.7853H13.7869H13.7885H13.7902H13.7918H13.7934H13.7951H13.7967H13.7983H13.8H13.8016H13.8032H13.8049H13.8065H13.8081H13.8097H13.8114H13.813H13.8146H13.8162H13.8178H13.8195H13.8211H13.8227H13.8243H13.8259H13.8275H13.8292H13.8308H13.8324H13.834H13.8356H13.8372H13.8388H13.8404H13.842H13.8436H13.8452H13.8468H13.8484H13.85H13.8516H13.8532H13.8548H13.8564H13.858H13.8596H13.8612H13.8628H13.8643H13.8659H13.8675H13.8691H13.8707H13.8723H13.8739H13.8754H13.877H13.8786H13.8802H13.8817H13.8833H13.8849H13.8865H13.888H13.8896H13.8912H13.8928H13.8943H13.8959H13.8975H13.899H13.9006H13.9021H13.9037H13.9053H13.9068H13.9084H13.9099H13.9115H13.913H13.9146H13.9162H13.9177H13.9193H13.9208H13.9224H13.9239H13.9254H13.927H13.9285H13.9301H13.9316H13.9332H13.9347H13.9362H13.9378H13.9393H13.9408H13.9424H13.9439H13.9454H13.947H13.9485H13.95H13.9516H13.9531H13.9546H13.9561H13.9577H13.9592H13.9607H13.9622H13.9637H13.9653H13.9668H13.9683H13.9698H13.9713H13.9728H13.9743H13.9758H13.9774H13.9789H13.9804H13.9819H13.9834H13.9849H13.9864H13.9879H13.9894H13.9909H13.9924H13.9939H13.9954H13.9969H13.9984H13.9999H14.0013H14.0028H14.0043H14.0058H14.0073H14.0088H14.0103H14.0118H14.0132H14.0147H14.0162H14.0177H14.0192H14.0206H14.0221H14.0236H14.0251H14.0265H14.028H14.0295H14.0309H14.0324H14.0339H14.0353H14.0368H14.0383H14.0397H14.0412H14.0427H14.0441H14.0456H14.047H14.0485H14.0499H14.0514H14.0528H14.0543H14.0557H14.0572H14.0586H14.0601H14.0615H14.063H14.0644H14.0659H14.0673H14.0687H14.0702H14.0716H14.0731H14.0745H14.0759H14.0774H14.0788H14.0802H14.0817H14.0831H14.0845H14.0859H14.0874H14.0888H14.0902H14.0916H14.0931H14.0945H14.0959H14.0973H14.0987H14.1002H14.1016H14.103H14.1044H14.1058H14.1072H14.1086H14.11H14.1114H14.1128H14.1143H14.1157H14.1171H14.1185H14.1199H14.1213H14.1227H14.1241H14.1254H14.1268H14.1282H14.1296H14.131H14.1324H14.1338H14.1352H14.1366H14.138H14.1393H14.1407H14.1421H14.1435H14.1449H14.1462H14.1476H14.149H14.1504H14.1518H14.1531H14.1545H14.1559H14.1572H14.1586H14.16H14.1613H14.1627H14.1641H14.1654H14.1668H14.1682H14.1695H14.1709H14.1722H14.1736H14.1749H14.1763H14.1777H14.179H14.1804H14.1817H14.1831H14.1844H14.1857H14.1871H14.1884H14.1898H14.1911H14.1925H14.1938H14.1951H14.1965H14.1978H14.1991H14.2005H14.2018H14.2031H14.2045H14.2058H14.2071H14.2085H14.2098H14.2111H14.2124H14.2138H14.2151H14.2164H14.2177H14.219H14.2203H14.2217H14.223H14.2243H14.2256H14.2269H14.2282H14.2295H14.2308H14.2321H14.2335H14.2348H14.2361H14.2374H14.2387H14.24H14.2413H14.2426H14.2439H14.2452H14.2464H14.2477H14.249H14.2503H14.2516H14.2529H14.2542H14.2555H14.2568H14.258H14.2593H14.2606H14.2619H14.2632H14.2644H14.2657H14.267H14.2683H14.2695H14.2708H14.2721H14.2734H14.2746H14.2759H14.2772H14.2784H14.2797H14.281H14.2822H14.2835H14.2847H14.286H14.2873H14.2885H14.2898H14.291H14.2923H14.2935H14.2948H14.296H14.2973H14.2985H14.2998H14.301H14.3023H14.3035H14.3047H14.306H14.3072H14.3085H14.3097H14.3109H14.3122H14.3134H14.3146H14.3159H14.3171H14.3183H14.3195H14.3208H14.322H14.3232H14.3244H14.3257H14.3269H14.3281H14.3293H14.3305H14.3318H14.333H14.3342H14.3354H14.3366H14.3378H14.339H14.3402H14.3414H14.3426H14.3439H14.3451H14.3463H14.3475H14.3487H14.3499H14.3511H14.3523H14.3534H14.3546H14.3558H14.357H14.3582H14.3594H14.3606H14.3618H14.363H14.3642H14.3653H14.3665H14.3677H14.3689H14.3701H14.3712H14.3724H14.3736H14.3748H14.3759H14.3771H14.3783H14.3794C14.8218 19.4586 15.2866 19.2892 15.6133 18.9117C15.7303 18.7765 15.8291 18.6558 15.9196 18.5452L15.9196 18.5451L15.9197 18.5451L15.9197 18.5451L15.9197 18.545C16.0753 18.3549 16.2061 18.1951 16.3616 18.0446C16.5683 17.8445 16.8679 17.5494 17.0715 17.2092C17.2673 16.8822 17.4367 16.4026 17.2364 15.8866H18.0713C18.5138 15.8866 18.9802 15.7167 19.3063 15.3353C19.3971 15.2291 19.4746 15.1345 19.5458 15.0475L19.5459 15.0474L19.5459 15.0474L19.5459 15.0474L19.546 15.0473C19.6709 14.8948 19.7763 14.7661 19.8996 14.6407C20.0972 14.4396 20.38 14.1407 20.5534 13.7972C20.7409 13.4259 20.8486 12.8882 20.4792 12.3805C20.2598 12.0791 19.8376 12.0125 19.5362 12.2319C19.2444 12.4443 19.1727 12.8467 19.3675 13.1457C19.3634 13.1565 19.3574 13.1707 19.3483 13.1887C19.2802 13.3237 19.138 13.4897 18.9368 13.6943C18.7719 13.8621 18.5983 14.0733 18.45 14.2538L18.45 14.2538L18.4499 14.2539C18.3881 14.3291 18.3307 14.3989 18.2802 14.458C18.2479 14.4958 18.1803 14.5366 18.0713 14.5366H16.2099C15.2983 13.753 13.9938 13.2451 12.5728 13.1071C12.5727 13.1068 12.5725 13.1065 12.5724 13.1062C12.6229 12.997 12.688 12.8879 12.7675 12.7806C13.5855 12.5725 14.3442 12.1135 14.8507 11.4439C15.1512 11.3961 15.4661 11.3705 15.7913 11.3705C17.0548 11.3705 17.6709 11.4736 18.3156 11.9298C18.6199 12.1451 19.0412 12.073 19.2565 11.7687C19.4718 11.4644 19.3997 11.0431 19.0954 10.8278C18.0933 10.1187 17.1166 10.0205 15.7913 10.0205C15.6757 10.0205 15.561 10.0232 15.4471 10.0284C15.4485 10.0195 15.4498 10.0105 15.4511 10.0015ZM8.27516 8.39337C7.95948 8.566 7.58442 8.66576 7.18194 8.66576C5.95663 8.66576 5.14733 7.93721 5.14733 6.91637C5.14733 6.40296 5.36455 5.91227 5.7272 5.53776C6.11369 5.13864 6.64004 4.89761 7.18194 4.89761C8.30856 4.89761 9.21526 5.80388 9.21655 6.914C8.79503 7.32411 8.46674 7.83038 8.27516 8.39337ZM11.7855 7.19566C10.543 7.19566 9.43672 8.28127 9.43672 9.52672C9.43672 10.7195 10.3857 11.5564 11.7834 11.5572C13.0863 11.5483 14.1342 10.673 14.1342 9.52672C14.1342 8.24304 13.0864 7.19566 11.7855 7.19566ZM15.9757 16.3693L15.9758 16.3688C15.9759 16.3688 15.9758 16.3691 15.9757 16.3693Z" fill="#252323"/>
</g>
<defs>
<clipPath id="clip0_666_9136">
<rect width="23" height="23" fill="white"/>
</clipPath>
</defs>
</svg>
