<svg width="23" height="23" viewBox="0 0 23 23" fill="none" xmlns="http://www.w3.org/2000/svg">
<g clip-path="url(#clip0_1424_12838)">
<path d="M11.5 2.60449C12.5565 2.60454 13.4211 2.86048 14.1104 3.31738C14.7966 3.77232 15.2601 4.39422 15.5713 5.04883C16.1805 6.33089 16.2431 7.82151 16.2432 8.73145V10.4619C16.7102 10.6431 17.041 11.0969 17.041 11.6279V13.2568C17.0408 13.6709 16.7051 14.0068 16.291 14.0068C15.8772 14.0065 15.5412 13.6707 15.541 13.2568V11.8779H7.45801V18.6465C7.45835 18.7842 7.5703 18.8963 7.70801 18.8965H9.10352L9.18066 18.9004C9.55877 18.9389 9.85352 19.2582 9.85352 19.6465C9.85319 20.0345 9.5586 20.3541 9.18066 20.3926L9.10352 20.3965H7.70801C6.74187 20.3963 5.95835 19.6126 5.95801 18.6465V11.6279C5.95801 10.9377 6.5178 10.3781 7.20801 10.3779H14.7432V8.73145C14.7431 7.84761 14.6719 6.65001 14.2168 5.69238C13.9956 5.22694 13.6931 4.84038 13.2812 4.56738C12.8726 4.29656 12.3064 4.10454 11.5 4.10449C10.6934 4.10454 10.1265 4.29646 9.71777 4.56738C9.30619 4.84034 9.00437 5.22713 8.7832 5.69238C8.32816 6.65 8.25686 7.84765 8.25684 8.73145C8.25666 9.14544 7.92084 9.48133 7.50684 9.48145C7.09288 9.48127 6.75701 9.1454 6.75684 8.73145C6.75685 7.8216 6.81867 6.33081 7.42773 5.04883C7.7388 4.39441 8.20278 3.77228 8.88867 3.31738C9.57796 2.86045 10.4435 2.60454 11.5 2.60449ZM16.291 14.6367C16.7052 14.6367 17.0409 14.9726 17.041 15.3867V18.6465C17.0407 19.6127 16.2573 20.3965 15.291 20.3965H11.5C11.0861 20.3963 10.7503 20.0603 10.75 19.6465C10.75 19.2324 11.0859 18.8967 11.5 18.8965H15.291C15.4289 18.8965 15.5407 18.7843 15.541 18.6465V15.3867C15.5411 14.9728 15.8772 14.6371 16.291 14.6367ZM11.6279 13.2568C12.0689 13.2568 12.4267 13.6147 12.4268 14.0557C12.4267 14.226 12.3712 14.3831 12.2803 14.5127C12.2871 14.5314 12.2955 14.5499 12.3008 14.5693L12.7871 16.3525C12.8736 16.6704 12.6342 16.9842 12.3047 16.9844H10.9512C10.622 16.9839 10.3833 16.6702 10.4697 16.3525L10.9551 14.5693C10.9603 14.55 10.9678 14.5312 10.9746 14.5127C10.8839 14.3832 10.8292 14.2258 10.8291 14.0557C10.8292 13.6148 11.1871 13.2571 11.6279 13.2568Z" fill="#332A2A"/>
</g>
<defs>
<clipPath id="clip0_1424_12838">
<rect width="23" height="23" fill="white"/>
</clipPath>
</defs>
</svg>
