<svg width="44" height="44" viewBox="0 0 44 44" fill="none" xmlns="http://www.w3.org/2000/svg">
<g clip-path="url(#clip0_1424_12836)">
<path d="M22 5.66699C23.9072 5.66704 25.4247 6.12777 26.6152 6.91699C27.8027 7.70417 28.6157 8.78534 29.1699 9.95117C30.2655 12.2562 30.3887 14.9751 30.3887 16.7041V20.5684C31.2573 20.7256 31.916 21.4845 31.916 22.3984V25.3613C31.9158 25.7754 31.5801 26.1113 31.166 26.1113C30.7522 26.111 30.4162 25.7752 30.416 25.3613V22.3984C30.416 22.1992 30.2549 22.0373 30.0557 22.0371H13.9443C13.7451 22.0373 13.583 22.1991 13.583 22.3984V35.3613C13.5832 36.1742 14.2428 36.8338 15.0557 36.834H17.416L17.4932 36.8379C17.8713 36.8764 18.166 37.1957 18.166 37.584C18.1657 37.972 17.8711 38.2916 17.4932 38.3301L17.416 38.334H15.0557C13.4144 38.3338 12.0832 37.0026 12.083 35.3613V22.3984C12.083 21.3707 12.9166 20.5373 13.9443 20.5371H28.8887V16.7041C28.8887 15.0012 28.7567 12.5761 27.8154 10.5957C27.3512 9.61906 26.7 8.77229 25.7871 8.16699C24.8771 7.56378 23.6572 7.16704 22 7.16699C20.3428 7.16704 19.1229 7.56378 18.2129 8.16699C17.3 8.77229 16.6478 9.61906 16.1836 10.5957C15.2425 12.5761 15.1104 15.0014 15.1104 16.7041C15.1101 17.1181 14.7744 17.4541 14.3604 17.4541C13.9466 17.4537 13.6106 17.1179 13.6104 16.7041C13.6104 14.9752 13.7336 12.2561 14.8291 9.95117C15.3832 8.78549 16.1966 7.70416 17.3838 6.91699C18.5744 6.12773 20.0928 5.66704 22 5.66699ZM31.166 28.6855C31.5802 28.6855 31.916 29.0213 31.916 29.4355V35.3613C31.9158 37.0026 30.5856 38.3339 28.9443 38.334H22C21.5861 38.3338 21.2503 37.9978 21.25 37.584C21.25 37.1699 21.5859 36.8342 22 36.834H28.9443C29.7572 36.8339 30.4158 36.1742 30.416 35.3613V29.4355C30.416 29.0216 30.7521 28.6859 31.166 28.6855ZM21.9404 25.3613C22.784 25.3616 23.4688 26.046 23.4688 26.8896C23.4686 27.2124 23.3672 27.5112 23.1963 27.7578L24.1045 31.0879C24.2967 31.7943 23.7644 32.4909 23.0322 32.4912H20.8496C20.1171 32.4912 19.5849 31.7946 19.7773 31.0879L20.6846 27.7578C20.5138 27.5113 20.4132 27.2122 20.4131 26.8896C20.4131 26.046 21.0969 25.3616 21.9404 25.3613Z" fill="black"/>
</g>
<defs>
<clipPath id="clip0_1424_12836">
<rect width="44" height="44" fill="white"/>
</clipPath>
</defs>
</svg>
