<svg width="18" height="18" viewBox="0 0 18 18" fill="none" xmlns="http://www.w3.org/2000/svg">
<g clip-path="url(#clip0_1424_12839)">
<path d="M9 1.875C9.85401 1.875 10.5629 2.08221 11.1328 2.45996C11.6997 2.83578 12.0807 3.34796 12.334 3.88086C12.8276 4.91949 12.875 6.118 12.875 6.83301V8.12695C13.2482 8.34312 13.4999 8.74572 13.5 9.20801V10C13.5 10.4142 13.1642 10.75 12.75 10.75C12.3358 10.75 12 10.4142 12 10V9.45801H6V14.375L6.00488 14.4258C6.02832 14.5395 6.12931 14.625 6.25 14.625H7.125L7.20215 14.6289C7.58012 14.6675 7.875 14.9868 7.875 15.375C7.875 15.7632 7.58012 16.0825 7.20215 16.1211L7.125 16.125H6.25C5.34382 16.125 4.59829 15.4363 4.50879 14.5537L4.5 14.375V9.20801C4.50018 8.5178 5.05976 7.95801 5.75 7.95801H11.375V6.83301C11.375 6.14409 11.318 5.23862 10.9785 4.52441C10.8152 4.18092 10.597 3.90377 10.3047 3.70996C10.0153 3.51813 9.60419 3.375 9 3.375C8.40006 3.375 7.9839 3.5206 7.6875 3.71191C7.38708 3.90589 7.1676 4.17442 7.00586 4.47754C6.67112 5.10517 6.625 5.80933 6.625 6C6.625 6.41421 6.28921 6.75 5.875 6.75C5.46079 6.75 5.125 6.41421 5.125 6C5.125 5.69072 5.18327 4.70719 5.68164 3.77246C5.93651 3.29459 6.31631 2.81276 6.875 2.45215C7.43794 2.08886 8.14172 1.875 9 1.875ZM12.75 11.75C13.1642 11.75 13.5 12.0858 13.5 12.5V14.375C13.5 15.3415 12.7165 16.125 11.75 16.125H9.5C9.08579 16.125 8.75 15.7892 8.75 15.375C8.75 14.9608 9.08579 14.625 9.5 14.625H11.75C11.8881 14.625 12 14.5131 12 14.375V12.5C12 12.0858 12.3358 11.75 12.75 11.75ZM8.97559 10.375C9.32058 10.3751 9.60042 10.655 9.60059 11C9.60052 11.1336 9.55679 11.2569 9.48535 11.3584C9.49069 11.3729 9.49783 11.3872 9.50195 11.4023L9.84473 12.6602C9.9313 12.9781 9.69191 13.292 9.3623 13.292H8.58789C8.25868 13.2916 8.02002 12.9779 8.10645 12.6602L8.44922 11.4023C8.45331 11.3873 8.45955 11.3728 8.46484 11.3584C8.39353 11.2569 8.35065 11.1335 8.35059 11C8.35075 10.655 8.63061 10.3751 8.97559 10.375Z" fill="black"/>
</g>
<defs>
<clipPath id="clip0_1424_12839">
<rect width="18" height="18" fill="white"/>
</clipPath>
</defs>
</svg>
