<svg width="28" height="28" viewBox="0 0 28 28" fill="none" xmlns="http://www.w3.org/2000/svg">
<g clip-path="url(#clip0_1424_12869)">
<rect x="8.16675" y="13.4165" width="11.6667" height="10.5" rx="2" fill="#E05149"/>
<path d="M14 3.33301C15.259 3.33306 16.2793 3.63786 17.0879 4.17383C17.8933 4.70779 18.4405 5.43865 18.8096 6.21484C19.5347 7.74036 19.6113 9.52383 19.6113 10.6289V13.0215C20.1904 13.3369 20.5839 13.9514 20.584 14.6572V16.1387C20.5839 16.5526 20.2479 16.8883 19.834 16.8887C19.4198 16.8887 19.084 16.5528 19.084 16.1387V14.6572C19.0838 14.4581 18.9218 14.2961 18.7227 14.2959H9.27832C9.07899 14.2959 8.91717 14.4579 8.91699 14.6572V21.6943C8.9171 22.5073 9.57663 23.166 10.3896 23.166H11.084L11.1602 23.1699C11.5381 23.2083 11.8336 23.528 11.834 23.916C11.834 24.3043 11.5382 24.6236 11.1602 24.6621L11.084 24.666H10.3896C8.7482 24.666 7.4171 23.3358 7.41699 21.6943V14.6572C7.41717 13.6295 8.25056 12.7959 9.27832 12.7959H18.1113V10.6289C18.1113 9.55009 18.0259 8.06037 17.4551 6.85938C17.176 6.27233 16.7908 5.77591 16.2598 5.42383C15.7317 5.07379 15.0091 4.83306 14 4.83301C12.9912 4.83306 12.2692 5.07395 11.7412 5.42383C11.2102 5.77587 10.825 6.27236 10.5459 6.85938C9.97507 8.06039 9.88969 9.55005 9.88965 10.6289C9.88965 11.0429 9.55351 11.3785 9.13965 11.3789C8.72543 11.3789 8.38965 11.0431 8.38965 10.6289C8.38968 9.52383 8.46629 7.74036 9.19141 6.21484C9.56041 5.43884 10.1069 4.70769 10.9121 4.17383C11.7207 3.63792 12.7411 3.33306 14 3.33301ZM19.834 17.9814C20.2478 17.9818 20.5838 18.3176 20.584 18.7314V21.6943C20.5839 23.3356 19.2526 24.6658 17.6113 24.666H14.5C14.086 24.6658 13.75 24.3301 13.75 23.916C13.7504 23.5022 14.0862 23.1662 14.5 23.166H17.6113C18.4242 23.1658 19.0839 22.5072 19.084 21.6943V18.7314C19.0842 18.3174 19.4199 17.9814 19.834 17.9814ZM13.9619 16.1396C14.4987 16.1398 14.9345 16.5745 14.9346 17.1113C14.9345 17.3194 14.8682 17.5118 14.7568 17.6699C14.7648 17.6918 14.775 17.7135 14.7812 17.7363L15.4102 20.0449C15.4965 20.3627 15.2571 20.6756 14.9277 20.6758H12.9971C12.6675 20.6758 12.4282 20.3629 12.5146 20.0449L13.1436 17.7363C13.1498 17.7136 13.159 17.6918 13.167 17.6699C13.0558 17.5119 12.9903 17.3192 12.9902 17.1113C12.9903 16.5746 13.4252 16.1399 13.9619 16.1396Z" fill="black"/>
</g>
<defs>
<clipPath id="clip0_1424_12869">
<rect width="28" height="28" fill="white"/>
</clipPath>
</defs>
</svg>
