<svg width="28" height="28" viewBox="0 0 28 28" fill="none" xmlns="http://www.w3.org/2000/svg">
<g clip-path="url(#clip0_662_7654)">
<path d="M22.75 22.75V18.6666H5.25V22.75H22.75Z" fill="#E05149"/>
<path fill-rule="evenodd" clip-rule="evenodd" d="M9.67717 10.4007C9.67717 9.9865 10.013 9.65071 10.4272 9.65071H10.7665L13.5494 7.47926C13.8206 7.26766 14.201 7.26766 14.4722 7.47926L17.2551 9.65071H17.5944C18.0086 9.65071 18.3444 9.9865 18.3444 10.4007C18.3444 10.8149 18.0086 11.1507 17.5944 11.1507H16.9971C16.83 11.1507 16.6676 11.0949 16.5358 10.992L14.0108 9.02185L11.4858 10.992C11.354 11.0949 11.1916 11.1507 11.0244 11.1507H10.4272C10.013 11.1507 9.67717 10.8149 9.67717 10.4007ZM14.0001 20.8253C13.5859 20.8253 13.2501 20.4895 13.2501 20.0753L13.2501 10.9491C13.2501 10.5349 13.5859 10.1991 14.0001 10.1991C14.4143 10.1991 14.7501 10.5349 14.7501 10.9491L14.7501 20.0753C14.7501 20.4895 14.4143 20.8253 14.0001 20.8253ZM4.66675 17.9167C4.25253 17.9167 3.91675 18.2525 3.91675 18.6667C3.91675 19.0236 4.16608 19.3223 4.50008 19.3981V22.75C4.50008 23.1642 4.83587 23.5 5.25008 23.5H22.7501C23.1643 23.5 23.5001 23.1642 23.5001 22.75V19.3981C23.8341 19.3223 24.0834 19.0236 24.0834 18.6667C24.0834 18.2525 23.7476 17.9167 23.3334 17.9167H22.7501H21.0001C20.5859 17.9167 20.2501 18.2525 20.2501 18.6667C20.2501 19.0809 20.5859 19.4167 21.0001 19.4167H22.0001V22H6.00008V19.4167H7.00008C7.41429 19.4167 7.75008 19.0809 7.75008 18.6667C7.75008 18.2525 7.41429 17.9167 7.00008 17.9167H5.25008H4.66675Z" fill="#252323"/>
</g>
<defs>
<clipPath id="clip0_662_7654">
<rect width="28" height="28" fill="white"/>
</clipPath>
</defs>
</svg>
