<svg width="18" height="18" viewBox="0 0 18 18" fill="none" xmlns="http://www.w3.org/2000/svg">
<g clip-path="url(#clip0_662_7703)">
<path fill-rule="evenodd" clip-rule="evenodd" d="M6.07813 6.18573C6.07813 5.84055 6.35795 5.56073 6.70313 5.56073H6.87109L8.62207 4.1955C8.84806 4.01916 9.16561 4.01916 9.3916 4.1955L11.1416 5.56073H11.3105C11.6557 5.56073 11.9355 5.84055 11.9355 6.18573C11.9355 6.53091 11.6557 6.81073 11.3105 6.81073H10.9268C10.7875 6.81073 10.6518 6.76456 10.542 6.67889L9.00684 5.48163L7.47168 6.67889C7.36187 6.76453 7.22618 6.81073 7.08692 6.81073H6.70313C6.35795 6.81073 6.07813 6.53091 6.07813 6.18573ZM8.375 6.99945C8.375 6.65427 8.65482 6.37445 9 6.37445C9.34518 6.37445 9.625 6.65427 9.625 6.99945V12.9995C9.625 13.3446 9.34518 13.6245 9 13.6245C8.65482 13.6245 8.375 13.3446 8.375 12.9995V6.99945ZM5.125 11.9993C5.125 11.6542 4.84518 11.3743 4.5 11.3743H3C2.65482 11.3743 2.375 11.6542 2.375 11.9993C2.375 12.2555 2.5294 12.4751 2.75 12.5716V14.6243C2.75 14.9695 3.02982 15.2493 3.375 15.2493H14.625C14.9702 15.2493 15.25 14.9695 15.25 14.6243V12.5716C15.4706 12.4751 15.625 12.2555 15.625 11.9993C15.625 11.6542 15.3452 11.3743 15 11.3743H13.5C13.1548 11.3743 12.875 11.6542 12.875 11.9993C12.875 12.3445 13.1548 12.6243 13.5 12.6243H14V13.9993H4V12.6243H4.5C4.84518 12.6243 5.125 12.3445 5.125 11.9993Z" fill="#332A2A"/>
</g>
<defs>
<clipPath id="clip0_662_7703">
<rect width="18" height="18" fill="white"/>
</clipPath>
</defs>
</svg>
