<svg width="18" height="18" viewBox="0 0 18 18" fill="none" xmlns="http://www.w3.org/2000/svg">
<g clip-path="url(#clip0_662_7670)">
<path d="M14.625 14.625V12H3.375V14.625H14.625Z" fill="#E05149"/>
<path fill-rule="evenodd" clip-rule="evenodd" d="M6.07813 6.18619C6.07813 5.84101 6.35795 5.56119 6.70313 5.56119H6.8721L8.6224 4.19548C8.84839 4.01915 9.16537 4.01915 9.39136 4.19548L11.1417 5.56119H11.3106C11.6558 5.56119 11.9356 5.84101 11.9356 6.18619C11.9356 6.53137 11.6558 6.81119 11.3106 6.81119H10.9267C10.7874 6.81119 10.652 6.76464 10.5422 6.67894L9.00688 5.48098L7.47156 6.67894C7.36172 6.76464 7.2264 6.81119 7.08708 6.81119H6.70313C6.35795 6.81119 6.07813 6.53137 6.07813 6.18619ZM9 13.6249C8.65482 13.6249 8.375 13.3451 8.375 12.9999V6.99991C8.375 6.65473 8.65482 6.37491 9 6.37491C9.34518 6.37491 9.625 6.65473 9.625 6.99991V12.9999C9.625 13.3451 9.34518 13.6249 9 13.6249ZM3 11.375C2.65482 11.375 2.375 11.6548 2.375 12C2.375 12.2563 2.52926 12.4766 2.75 12.573V14.625C2.75 14.9702 3.02982 15.25 3.375 15.25H14.625C14.9702 15.25 15.25 14.9702 15.25 14.625V12.573C15.4707 12.4766 15.625 12.2563 15.625 12C15.625 11.6548 15.3452 11.375 15 11.375H14.625H13.5C13.1548 11.375 12.875 11.6548 12.875 12C12.875 12.3452 13.1548 12.625 13.5 12.625H14V14H4V12.625H4.5C4.84518 12.625 5.125 12.3452 5.125 12C5.125 11.6548 4.84518 11.375 4.5 11.375H3.375H3Z" fill="#252323"/>
</g>
<defs>
<clipPath id="clip0_662_7670">
<rect width="18" height="18" fill="white"/>
</clipPath>
</defs>
</svg>
