<svg width="44" height="44" viewBox="0 0 44 44" fill="none" xmlns="http://www.w3.org/2000/svg">
<g clip-path="url(#clip0_209_696)">
<path d="M35.75 35.75V29.3334H8.25V35.75H35.75Z" fill="#E05149"/>
<path fill-rule="evenodd" clip-rule="evenodd" d="M15.6353 16.3439C15.6353 15.9297 15.9711 15.5939 16.3853 15.5939H17.0659L21.5554 12.091C21.8266 11.8794 22.2069 11.8794 22.4781 12.091L26.9675 15.5939H27.6481C28.0623 15.5939 28.3981 15.9297 28.3981 16.3439C28.3981 16.7581 28.0623 17.0939 27.6481 17.0939H26.7096C26.5424 17.0939 26.38 17.0381 26.2482 16.9352L22.0167 13.6335L17.7853 16.9352C17.6535 17.0381 17.4911 17.0939 17.3239 17.0939H16.3853C15.9711 17.0939 15.6353 16.7581 15.6353 16.3439ZM21.9999 32.2969C21.5857 32.2969 21.2499 31.9611 21.2499 31.5469L21.2499 16.5267C21.2499 16.1125 21.5857 15.7767 21.9999 15.7767C22.4141 15.7767 22.7499 16.1125 22.7499 16.5267L22.7499 31.5469C22.7499 31.9611 22.4141 32.2969 21.9999 32.2969ZM7.33325 28.5833C6.91904 28.5833 6.58325 28.9191 6.58325 29.3333C6.58325 29.7475 6.91904 30.0833 7.33325 30.0833H7.49992V35.75C7.49992 36.1642 7.83571 36.5 8.24992 36.5H35.7499C36.1641 36.5 36.4999 36.1642 36.4999 35.75V30.0833H36.6666C37.0808 30.0833 37.4166 29.7475 37.4166 29.3333C37.4166 28.9191 37.0808 28.5833 36.6666 28.5833H35.7499H32.9999C32.5857 28.5833 32.2499 28.9191 32.2499 29.3333C32.2499 29.7475 32.5857 30.0833 32.9999 30.0833H34.9999V35H8.99992V30.0833H10.9999C11.4141 30.0833 11.7499 29.7475 11.7499 29.3333C11.7499 28.9191 11.4141 28.5833 10.9999 28.5833H8.24992H7.33325Z" fill="#252323"/>
</g>
<defs>
<clipPath id="clip0_209_696">
<rect width="44" height="44" fill="white"/>
</clipPath>
</defs>
</svg>
