<svg width="44" height="44" viewBox="0 0 44 44" fill="none" xmlns="http://www.w3.org/2000/svg">
<g clip-path="url(#clip0_209_696)">
<path d="M35.75 35.75V29.3334H8.25V35.75H35.75Z" fill="#E05149"/>
<path fill-rule="evenodd" clip-rule="evenodd" d="M16.3853 15.5938C15.9712 15.5938 15.6354 15.9297 15.6353 16.3438C15.6353 16.758 15.9711 17.0938 16.3853 17.0938H17.3238C17.491 17.0938 17.6539 17.0375 17.7857 16.9346L22.0162 13.6338L26.2486 16.9346C26.3475 17.0117 26.4632 17.0625 26.5855 17.0831L26.7096 17.0938H27.648C28.0622 17.0938 28.398 16.758 28.398 16.3438C28.3979 15.9297 28.0622 15.5938 27.648 15.5938H26.9664L22.4781 12.0909C22.207 11.8794 21.8264 11.8794 21.5553 12.0909L17.066 15.5938H16.3853ZM21.9996 15.7764C21.5856 15.7766 21.2498 16.1125 21.2496 16.5264L21.2496 31.5469C21.2496 31.961 21.5855 32.2967 21.9996 32.2969C22.4138 32.2969 22.7496 31.9611 22.7496 31.5469V16.5264C22.7494 16.1124 22.4137 15.7764 21.9996 15.7764ZM11.7502 29.3331C11.7502 28.919 11.4143 28.5833 11.0002 28.5831H7.33325C6.91904 28.5831 6.58325 28.9189 6.58325 29.3331C6.58325 29.7473 6.91904 30.0831 7.33325 30.0831H7.50024V35.7501C7.50042 36.1641 7.83614 36.5001 8.25024 36.5001H35.7502C36.1642 36.4999 36.5001 36.164 36.5002 35.7501V30.0831H36.6663C37.0805 30.0831 37.4163 29.7473 37.4163 29.3331C37.4163 28.9189 37.0805 28.5831 36.6663 28.5831H33.0002C32.586 28.5831 32.2502 28.9189 32.2502 29.3331C32.2502 29.7473 32.586 30.0831 33.0002 30.0831H35.0002V35.0001H9.00024V30.0831H11.0002C11.4143 30.0829 11.7502 29.7472 11.7502 29.3331Z" fill="#332A2A"/>
</g>
<defs>
<clipPath id="clip0_209_696">
<rect width="44" height="44" fill="white"/>
</clipPath>
</defs>
</svg>
