<svg width="23" height="23" viewBox="0 0 23 23" fill="none" xmlns="http://www.w3.org/2000/svg">
<g clip-path="url(#clip0_662_7702)">
<path fill-rule="evenodd" clip-rule="evenodd" d="M7.94022 8.54345C7.94022 8.19827 8.22004 7.91845 8.56522 7.91845H8.84085L11.1244 6.13664C11.3504 5.96031 11.6674 5.96031 11.8934 6.13664L14.177 7.91845H14.4526C14.7978 7.91845 15.0776 8.19827 15.0776 8.54345C15.0776 8.88863 14.7978 9.16845 14.4526 9.16845H13.962C13.8227 9.16845 13.6873 9.1219 13.5775 9.0362L11.5089 7.42214L9.44031 9.0362C9.33047 9.1219 9.19515 9.16845 9.05583 9.16845H8.56522C8.22004 9.16845 7.94022 8.88863 7.94022 8.54345ZM11.5001 17.1155C11.1549 17.1155 10.8751 16.8356 10.8751 16.4905L10.8751 9.20001C10.8751 8.85483 11.1549 8.57501 11.5001 8.57501C11.8453 8.57501 12.1251 8.85483 12.1251 9.20001L12.1251 16.4905C12.1251 16.8356 11.8453 17.1155 11.5001 17.1155ZM3.83345 14.6584C3.46066 14.6584 3.15845 14.9606 3.15845 15.3334C3.15845 15.6381 3.36032 15.8956 3.63761 15.9795V18.6875C3.63761 19.0603 3.93982 19.3625 4.31261 19.3625H18.6876C19.0604 19.3625 19.3626 19.0603 19.3626 18.6875V15.9795C19.6399 15.8956 19.8418 15.6381 19.8418 15.3334C19.8418 14.9606 19.5396 14.6584 19.1668 14.6584H18.6876H17.2501C16.8773 14.6584 16.5751 14.9606 16.5751 15.3334C16.5751 15.7062 16.8773 16.0084 17.2501 16.0084H18.0126V18.0125H4.98761V16.0084H5.75011C6.12291 16.0084 6.42511 15.7062 6.42511 15.3334C6.42511 14.9606 6.12291 14.6584 5.75011 14.6584H4.31261H3.83345Z" fill="#252323"/>
</g>
<defs>
<clipPath id="clip0_662_7702">
<rect width="23" height="23" fill="white"/>
</clipPath>
</defs>
</svg>
