<svg width="23" height="23" viewBox="0 0 23 23" fill="none" xmlns="http://www.w3.org/2000/svg">
<g clip-path="url(#clip0_662_7702)">
<path fill-rule="evenodd" clip-rule="evenodd" d="M7.94002 8.54345C7.94002 8.19827 8.21984 7.91845 8.56502 7.91845H8.84065L11.1242 6.13665C11.3502 5.96031 11.6672 5.96031 11.8932 6.13665L14.1768 7.91845H14.4524C14.7976 7.91845 15.0774 8.19827 15.0774 8.54345C15.0774 8.88863 14.7976 9.16845 14.4524 9.16845H13.9618C13.8225 9.16845 13.6871 9.1219 13.5773 9.0362L11.5087 7.42214L9.44011 9.0362C9.33028 9.1219 9.19495 9.16845 9.05564 9.16845H8.56502C8.21985 9.16845 7.94002 8.88863 7.94002 8.54345ZM11.4999 17.1155C11.1547 17.1155 10.8749 16.8356 10.8749 16.4905L10.8749 9.20001C10.8749 8.85483 11.1547 8.57501 11.4999 8.57501C11.8451 8.57501 12.1249 8.85483 12.1249 9.20001L12.1249 16.4905C12.1249 16.8356 11.8451 17.1155 11.4999 17.1155ZM6.47485 15.333C6.47485 14.9603 6.17269 14.6583 5.80005 14.6581H3.88306C3.51026 14.6581 3.20825 14.9602 3.20825 15.333C3.20825 15.637 3.41035 15.8901 3.68677 15.9746V18.6874C3.68694 19.0601 3.98987 19.3622 4.36255 19.3622H18.7375C19.1101 19.3621 19.4122 19.06 19.4124 18.6874V15.9755C19.6891 15.8912 19.8918 15.6372 19.8918 15.333C19.8918 14.9602 19.5889 14.6581 19.2161 14.6581H17.3C16.9273 14.6581 16.6243 14.9602 16.6243 15.333C16.6243 15.7057 16.9273 16.0078 17.3 16.0078H18.0618V18.0117H5.03735V16.0078H5.80005C6.17269 16.0076 6.47485 15.7056 6.47485 15.333Z" fill="#332A2A"/>
</g>
<defs>
<clipPath id="clip0_662_7702">
<rect width="23" height="23" fill="white"/>
</clipPath>
</defs>
</svg>
