<svg width="44" height="44" viewBox="0 0 44 44" fill="none" xmlns="http://www.w3.org/2000/svg">
<g clip-path="url(#clip0_1054_11817)">
<path d="M40.3337 36.6665H3.66675V33.0005H40.3337V36.6665ZM40.3337 29.3335H3.66675V24.7505H40.3337V29.3335ZM40.3337 19.938H21.9998V15.813H40.3337V19.938ZM40.3337 11.4585H21.9998V7.3335H40.3337V11.4585Z" fill="#E05149"/>
<path d="M26.5593 6.5835C26.9733 6.58375 27.3093 6.91944 27.3093 7.3335C27.3093 7.74755 26.9733 8.08324 26.5593 8.0835H22.7175V10.8413H39.5837V9.02979C39.5837 8.5073 39.1599 8.08375 38.6375 8.0835H31.1501C30.736 8.08337 30.4001 7.74763 30.4001 7.3335C30.4001 6.91936 30.736 6.58362 31.1501 6.5835H38.6375C39.9883 6.58375 41.0837 7.67888 41.0837 9.02979V34.9702C41.0837 36.3212 39.9884 37.4163 38.6375 37.4165H17.4167C17.0025 37.4165 16.6667 37.0807 16.6667 36.6665C16.6669 36.2524 17.0026 35.9165 17.4167 35.9165H38.6375C39.1599 35.9163 39.5837 35.4928 39.5837 34.9702V33.6323H4.41675V34.9702C4.41675 35.4929 4.8404 35.9164 5.36304 35.9165H12.8337C13.2477 35.9167 13.5836 36.2525 13.5837 36.6665C13.5837 37.0806 13.2478 37.4163 12.8337 37.4165H5.36304C4.01198 37.4164 2.91675 36.3213 2.91675 34.9702V20.1079C2.91675 19.6937 3.25253 19.3579 3.66675 19.3579C4.08096 19.3579 4.41675 19.6937 4.41675 20.1079V23.6157H20.2712C20.7938 23.6155 21.2175 23.192 21.2175 22.6694V8.0835H12.8171C12.4029 8.0835 12.0671 7.74771 12.0671 7.3335C12.0671 6.91928 12.4029 6.5835 12.8171 6.5835H26.5593ZM22.7175 22.6694C22.7175 24.0204 21.6222 25.1155 20.2712 25.1157H4.41675V27.8735H31.1667C31.5809 27.8735 31.9166 28.2095 31.9167 28.6235C31.9167 29.0378 31.581 29.3735 31.1667 29.3735H4.41675V32.1323H39.5837V29.3735H35.7498C35.3357 29.3734 34.9998 29.0376 34.9998 28.6235C34.9999 28.2096 35.3358 27.8737 35.7498 27.8735H39.5837V25.1157H26.5593C26.1451 25.1157 25.8093 24.7799 25.8093 24.3657C25.8093 23.9515 26.1451 23.6157 26.5593 23.6157H39.5837V20.9165H22.7175V22.6694ZM15.8503 16.896C15.9275 16.7363 16.156 16.7363 16.2332 16.896L16.9041 18.2886C16.9249 18.3318 16.9595 18.3673 17.0027 18.3882L18.3953 19.0591C18.5552 19.1362 18.5552 19.3638 18.3953 19.4409L17.0027 20.1128C16.9596 20.1336 16.9248 20.1683 16.9041 20.2114L16.2332 21.604C16.156 21.764 15.9275 21.764 15.8503 21.604L15.1794 20.2114C15.1587 20.1683 15.1239 20.1336 15.0808 20.1128L13.6882 19.4409C13.5283 19.3638 13.5283 19.1362 13.6882 19.0591L15.0808 18.3882C15.124 18.3673 15.1586 18.3318 15.1794 18.2886L15.8503 16.896ZM22.7175 15.1001H35.7419C36.1561 15.1001 36.4919 15.4359 36.4919 15.8501C36.4917 16.2641 36.156 16.6001 35.7419 16.6001H22.7175V19.4165H39.5837V12.3413H22.7175V15.1001ZM9.40015 9.63428C9.49106 9.44569 9.75943 9.44569 9.85034 9.63428L11.0779 12.1802C11.1024 12.2311 11.1441 12.2728 11.1951 12.2974L13.741 13.5249C13.9296 13.6158 13.9296 13.8842 13.741 13.9751L11.1951 15.2026C11.1441 15.2272 11.1024 15.2689 11.0779 15.3198L9.85034 17.8667C9.75937 18.0549 9.4912 18.0548 9.40015 17.8667L8.17261 15.3198C8.14804 15.2689 8.10637 15.2272 8.05542 15.2026L5.50854 13.9751C5.32043 13.884 5.32035 13.6159 5.50854 13.5249L8.05542 12.2974C8.10637 12.2728 8.14804 12.2311 8.17261 12.1802L9.40015 9.63428ZM8.24194 6.5835C8.65614 6.58352 8.99194 6.9193 8.99194 7.3335C8.99194 7.74769 8.65614 8.08347 8.24194 8.0835H5.36304C4.84045 8.08357 4.41682 8.5072 4.41675 9.02979V15.8501C4.41649 16.2641 4.0808 16.6001 3.66675 16.6001C3.25269 16.6001 2.917 16.2641 2.91675 15.8501V9.02979C2.91682 7.67877 4.01202 6.58357 5.36304 6.5835H8.24194ZM16.7703 9.55615C16.846 9.399 17.0705 9.399 17.1462 9.55615L17.6726 10.6479C17.6931 10.6901 17.7271 10.7242 17.7693 10.7446L18.8611 11.271C19.0178 11.3468 19.0178 11.5701 18.8611 11.646L17.7693 12.1724C17.7271 12.1928 17.6931 12.2269 17.6726 12.269L17.1462 13.3608C17.0705 13.518 16.846 13.518 16.7703 13.3608L16.2449 12.269C16.2244 12.2267 16.1896 12.1928 16.1472 12.1724L15.0564 11.646C14.8992 11.5702 14.8992 11.3468 15.0564 11.271L16.1472 10.7446C16.1896 10.7242 16.2244 10.6903 16.2449 10.6479L16.7703 9.55615Z" fill="#332A2A"/>
</g>
<defs>
<clipPath id="clip0_1054_11817">
<rect width="44" height="44" fill="white"/>
</clipPath>
</defs>
</svg>
