<svg width="44" height="44" viewBox="0 0 44 44" fill="none" xmlns="http://www.w3.org/2000/svg">
<g clip-path="url(#clip0_1054_11934)">
<path fill-rule="evenodd" clip-rule="evenodd" d="M5.36318 6.5835C4.01205 6.5835 2.91675 7.6788 2.91675 9.02992V15.8496C2.91675 16.2638 3.25253 16.5996 3.66675 16.5996C4.08096 16.5996 4.41675 16.2638 4.41675 15.8496V9.02992C4.41675 8.50723 4.84048 8.0835 5.36318 8.0835H8.2419C8.65611 8.0835 8.9919 7.74771 8.9919 7.3335C8.9919 6.91928 8.65611 6.5835 8.2419 6.5835H5.36318ZM12.817 6.5835C12.4028 6.5835 12.067 6.91928 12.067 7.3335C12.067 7.74771 12.4028 8.0835 12.817 8.0835H21.2173V11.5916V13.7206V15.8496V20.1668V22.6693C21.2173 23.192 20.7936 23.6158 20.2709 23.6158H4.41675V20.1077C4.41675 19.6935 4.08096 19.3577 3.66675 19.3577C3.25253 19.3577 2.91675 19.6935 2.91675 20.1077V24.3658V28.6238V32.8819V34.9704C2.91675 36.3215 4.01205 37.4168 5.36318 37.4168H12.8334C13.2476 37.4168 13.5834 37.081 13.5834 36.6668C13.5834 36.2526 13.2476 35.9168 12.8334 35.9168H5.36318C4.84048 35.9168 4.41675 35.4931 4.41675 34.9704V33.6319H39.5834V34.9704C39.5834 35.4931 39.1597 35.9168 38.637 35.9168H22.0001H17.4167C17.0025 35.9168 16.6667 36.2526 16.6667 36.6668C16.6667 37.081 17.0025 37.4168 17.4167 37.4168H22.0001H38.637C39.9881 37.4168 41.0834 36.3215 41.0834 34.9704V32.8819V28.6238V24.3658V20.1668V20.1077V15.8496V11.5916V9.02992C41.0834 7.6788 39.9881 6.5835 38.637 6.5835H31.1504C30.7362 6.5835 30.4004 6.91928 30.4004 7.3335C30.4004 7.74771 30.7362 8.0835 31.1504 8.0835H38.637C39.1597 8.0835 39.5834 8.50723 39.5834 9.02992V10.8416H22.7173V8.0835H26.5589C26.9731 8.0835 27.3089 7.74771 27.3089 7.3335C27.3089 6.91928 26.9731 6.5835 26.5589 6.5835H21.9673H12.817ZM4.41675 27.8738V25.1158H20.2709C21.622 25.1158 22.7173 24.0204 22.7173 22.6693V20.9168H39.5834V23.6158H31.1504H26.5589C26.1446 23.6158 25.8089 23.9515 25.8089 24.3658C25.8089 24.78 26.1446 25.1158 26.5589 25.1158H31.1504H39.5834V27.8738H35.7501C35.3359 27.8738 35.0001 28.2096 35.0001 28.6238C35.0001 29.038 35.3359 29.3738 35.7501 29.3738H39.5834V32.1319H4.41675V29.3738H22.0001H31.1667C31.581 29.3738 31.9167 29.038 31.9167 28.6238C31.9167 28.2096 31.581 27.8738 31.1667 27.8738H22.0001H4.41675ZM39.5834 15.8496V19.4168H22.7173V16.5996H31.1504H35.7419C36.1561 16.5996 36.4919 16.2638 36.4919 15.8496C36.4919 15.4354 36.1561 15.0996 35.7419 15.0996H31.1504H22.7173V13.7206V12.3416H39.5834V15.8496ZM9.85028 9.63398C9.75937 9.44539 9.49079 9.44539 9.39988 9.63398L8.1722 12.1806C8.14764 12.2316 8.10652 12.2727 8.05557 12.2973L5.50889 13.525C5.32031 13.6159 5.32031 13.8844 5.50889 13.9754L8.05557 15.203C8.10652 15.2276 8.14764 15.2687 8.1722 15.3197L9.39988 17.8664C9.49079 18.0549 9.75937 18.0549 9.85028 17.8664L11.078 15.3197C11.1025 15.2687 11.1436 15.2276 11.1946 15.203L13.7413 13.9754C13.9299 13.8845 13.9299 13.6159 13.7413 13.525L11.1946 12.2973C11.1436 12.2727 11.1025 12.2316 11.078 12.1806L9.85028 9.63398ZM16.7708 9.55612C16.8465 9.39896 17.0703 9.39896 17.1461 9.55612L17.6722 10.6475C17.6927 10.69 17.7269 10.7242 17.7694 10.7447L18.8608 11.2708C19.0179 11.3466 19.0179 11.5704 18.8608 11.6462L17.7694 12.1723C17.7269 12.1928 17.6927 12.227 17.6722 12.2695L17.1461 13.3609C17.0703 13.518 16.8465 13.518 16.7707 13.3609L16.2446 12.2695C16.2242 12.227 16.1899 12.1928 16.1474 12.1723L15.056 11.6462C14.8989 11.5704 14.8989 11.3466 15.056 11.2708L16.1474 10.7447C16.1899 10.7242 16.2242 10.69 16.2446 10.6475L16.7708 9.55612ZM16.2328 16.8964C16.1557 16.7364 15.9278 16.7364 15.8507 16.8964L15.1794 18.2889C15.1586 18.3321 15.1237 18.367 15.0805 18.3879L13.688 19.0591C13.528 19.1363 13.528 19.3641 13.688 19.4412L15.0805 20.1125C15.1237 20.1333 15.1586 20.1682 15.1794 20.2114L15.8507 21.6039C15.9278 21.7639 16.1557 21.7639 16.2328 21.6039L16.9041 20.2114C16.9249 20.1682 16.9598 20.1333 17.003 20.1125L18.3955 19.4412C18.5555 19.3641 18.5555 19.1363 18.3955 19.0591L17.003 18.3879C16.9598 18.367 16.9249 18.3321 16.9041 18.2889L16.2328 16.8964Z" fill="#252323"/>
</g>
<defs>
<clipPath id="clip0_1054_11934">
<rect width="44" height="44" fill="white"/>
</clipPath>
</defs>
</svg>
