<svg width="18" height="18" viewBox="0 0 18 18" fill="none" xmlns="http://www.w3.org/2000/svg">
<g clip-path="url(#clip0_1054_11911)">
<path fill-rule="evenodd" clip-rule="evenodd" d="M16.5 3H9V4.6875H16.5V3ZM16.5 6.46875H9V8.15625H16.5V6.46875ZM1.5 10.125H16.5V12H1.5V10.125ZM16.5 13.5H1.5V15H16.5V13.5Z" fill="#E05149"/>
<path fill-rule="evenodd" clip-rule="evenodd" d="M2.5 2.375C1.60254 2.375 0.875 3.10254 0.875 4V6.48387C0.875 6.82905 1.15482 7.10887 1.5 7.10887C1.84518 7.10887 2.125 6.82905 2.125 6.48387V4C2.125 3.79289 2.29289 3.625 2.5 3.625H3.37165C3.71683 3.625 3.99665 3.34518 3.99665 3C3.99665 2.65482 3.71683 2.375 3.37165 2.375H2.5ZM5.2433 2.375C4.89813 2.375 4.6183 2.65482 4.6183 3C4.6183 3.34518 4.89813 3.625 5.2433 3.625H8.36161V4.74194V5.6129V6.48387V8.25V8.27131C8.36161 8.86305 7.88191 9.34274 7.29018 9.34274H2.125V8.22581C2.125 7.88063 1.84518 7.60081 1.5 7.60081C1.15482 7.60081 0.875 7.88063 0.875 8.22581V9.96774V11.7097V13.4516V14C0.875 14.8975 1.60254 15.625 2.5 15.625H5.25C5.59518 15.625 5.875 15.3452 5.875 15C5.875 14.6548 5.59518 14.375 5.25 14.375H2.5C2.31915 14.375 2.1682 14.247 2.13283 14.0766H15.8672C15.8318 14.247 15.6809 14.375 15.5 14.375H9H7.125C6.77982 14.375 6.5 14.6548 6.5 15C6.5 15.3452 6.77982 15.625 7.125 15.625H9H15.5C16.3975 15.625 17.125 14.8975 17.125 14V13.4516V11.7097V9.96774V8.25V8.22581V6.48387V4.74194V4C17.125 3.10254 16.3975 2.375 15.5 2.375H12.7433C12.3981 2.375 12.1183 2.65482 12.1183 3C12.1183 3.34518 12.3981 3.625 12.7433 3.625H15.5C15.7071 3.625 15.875 3.79289 15.875 4V4.11694H9.61161V3.625H10.865C11.2101 3.625 11.49 3.34518 11.49 3C11.49 2.65482 11.2101 2.375 10.865 2.375H8.98661H5.2433ZM2.125 11.0847V10.5927H7.29018C8.36345 10.5927 9.26661 9.86439 9.53234 8.875H15.875V9.34274H12.7433H10.865C10.5198 9.34274 10.24 9.62256 10.24 9.96774C10.24 10.3129 10.5198 10.5927 10.865 10.5927H12.7433H15.875V11.0847H14.625C14.2798 11.0847 14 11.3645 14 11.7097C14 12.0549 14.2798 12.3347 14.625 12.3347H15.875V12.8266H2.125V12.3347H9H12.75C13.0952 12.3347 13.375 12.0549 13.375 11.7097C13.375 11.3645 13.0952 11.0847 12.75 11.0847H9H2.125ZM15.875 6.48387V7.625H9.61161V7.10887H12.7433H14.6217C14.9668 7.10887 15.2467 6.82905 15.2467 6.48387C15.2467 6.13869 14.9668 5.85887 14.6217 5.85887H12.7433H9.61161V5.6129V5.36694H15.875V6.48387ZM4.1627 4.21715C4.07179 4.02856 3.80321 4.02856 3.7123 4.21715L3.36556 4.93642C3.34099 4.98738 3.29988 5.0285 3.24892 5.05306L2.52965 5.3998C2.34106 5.49071 2.34106 5.75929 2.52965 5.8502L3.24892 6.19694C3.29988 6.22151 3.34099 6.26262 3.36556 6.31358L3.7123 7.03285C3.80321 7.22144 4.07179 7.22144 4.1627 7.03285L4.50944 6.31358C4.534 6.26262 4.57512 6.22151 4.62608 6.19694L5.34535 5.8502C5.53394 5.75929 5.53394 5.49071 5.34535 5.3998L4.62608 5.05306C4.57512 5.02849 4.534 4.98738 4.50944 4.93642L4.1627 4.21715ZM6.74983 4.13929C6.82559 3.98214 7.04941 3.98214 7.12516 4.13929L7.21082 4.31698C7.23129 4.35944 7.26556 4.39371 7.30802 4.41418L7.48571 4.49983C7.64286 4.57559 7.64286 4.79941 7.48571 4.87517L7.30802 4.96082C7.26556 4.98129 7.23129 5.01556 7.21082 5.05802L7.12516 5.23571C7.04941 5.39286 6.82559 5.39286 6.74983 5.23571L6.66418 5.05802C6.64371 5.01556 6.60944 4.98129 6.56698 4.96082L6.38929 4.87517C6.23213 4.79941 6.23213 4.57559 6.38929 4.49983L6.56698 4.41418C6.60944 4.39371 6.64371 4.35944 6.66418 4.31698L6.74983 4.13929ZM6.75352 7.14624C6.6764 6.98628 6.4486 6.98628 6.37148 7.14624L6.22875 7.44232C6.20792 7.48554 6.17304 7.52042 6.12982 7.54125L5.83374 7.68398C5.67378 7.7611 5.67378 7.9889 5.83374 8.06602L6.12982 8.20875C6.17304 8.22958 6.20792 8.26446 6.22875 8.30768L6.37148 8.60376C6.4486 8.76372 6.6764 8.76372 6.75352 8.60376L6.89625 8.30768C6.91708 8.26446 6.95196 8.22958 6.99518 8.20875L7.29126 8.06602C7.45122 7.9889 7.45122 7.7611 7.29126 7.68398L6.99518 7.54125C6.95196 7.52042 6.91708 7.48554 6.89625 7.44232L6.75352 7.14624Z" fill="#332A2A"/>
</g>
<defs>
<clipPath id="clip0_1054_11911">
<rect width="18" height="18" fill="white"/>
</clipPath>
</defs>
</svg>
