<svg width="28" height="28" viewBox="0 0 28 28" fill="none" xmlns="http://www.w3.org/2000/svg">
<g clip-path="url(#clip0_1054_11935)">
<path fill-rule="evenodd" clip-rule="evenodd" d="M4.02968 3.9165C2.67856 3.9165 1.58325 5.01181 1.58325 6.36293V10.0859C1.58325 10.5001 1.91904 10.8359 2.33325 10.8359C2.74747 10.8359 3.08325 10.5001 3.08325 10.0859V6.36293C3.08325 5.84023 3.50698 5.4165 4.02968 5.4165H5.24471C5.65892 5.4165 5.99471 5.08072 5.99471 4.6665C5.99471 4.25229 5.65892 3.9165 5.24471 3.9165H4.02968ZM8.15617 3.9165C7.74196 3.9165 7.40617 4.25229 7.40617 4.6665C7.40617 5.08072 7.74196 5.4165 8.15617 5.4165H13.2291V7.37618V8.73102V10.0859V12.8332V13.8088C13.2291 14.3315 12.8054 14.7552 12.2827 14.7552H3.08325V12.7955C3.08325 12.3813 2.74747 12.0455 2.33325 12.0455C1.91904 12.0455 1.58325 12.3813 1.58325 12.7955V15.5052V18.2149V20.9246V21.6367C1.58325 22.9879 2.67856 24.0832 4.02968 24.0832H8.16659C8.5808 24.0832 8.91659 23.7474 8.91659 23.3332C8.91659 22.919 8.5808 22.5832 8.16659 22.5832H4.02968C3.51965 22.5832 3.10385 22.1797 3.08399 21.6746H24.9158C24.896 22.1797 24.4802 22.5832 23.9702 22.5832H13.9999H11.0833C10.669 22.5832 10.3333 22.919 10.3333 23.3332C10.3333 23.7474 10.669 24.0832 11.0833 24.0832H13.9999H23.9702C25.3213 24.0832 26.4166 22.9879 26.4166 21.6367V20.9246V18.2149V15.5052V12.8332V12.7955V10.0859V7.37618V6.36293C26.4166 5.01181 25.3213 3.9165 23.9702 3.9165H19.8228C19.4086 3.9165 19.0728 4.25229 19.0728 4.6665C19.0728 5.08072 19.4086 5.4165 19.8228 5.4165H23.9702C24.4929 5.4165 24.9166 5.84023 24.9166 6.36293V6.62618H14.7291V5.4165H16.901C17.3152 5.4165 17.651 5.08072 17.651 4.6665C17.651 4.25229 17.3152 3.9165 16.901 3.9165H13.9791H8.15617ZM3.08325 17.4649V16.2552H12.2827C13.6338 16.2552 14.7291 15.1599 14.7291 13.8088V13.5832H24.9166V14.7552H19.8228H16.901C16.4867 14.7552 16.151 15.091 16.151 15.5052C16.151 15.9194 16.4867 16.2552 16.901 16.2552H19.8228H24.9166V17.4649H22.7499C22.3357 17.4649 21.9999 17.8007 21.9999 18.2149C21.9999 18.6291 22.3357 18.9649 22.7499 18.9649H24.9166V20.1746H3.08325V18.9649H13.9999H19.8333C20.2475 18.9649 20.5833 18.6291 20.5833 18.2149C20.5833 17.8007 20.2475 17.4649 19.8333 17.4649H13.9999H3.08325ZM24.9166 12.0832H14.7291V10.8359H19.8228H22.7447C23.1589 10.8359 23.4947 10.5001 23.4947 10.0859C23.4947 9.67165 23.1589 9.33586 22.7447 9.33586H19.8228H14.7291V8.73102V8.12618H24.9166V10.0859V12.0832ZM6.35012 6.30032C6.25921 6.11173 5.99063 6.11173 5.89972 6.30032L5.21415 7.72244C5.18959 7.77339 5.14847 7.81451 5.09752 7.83907L3.6754 8.52464C3.48681 8.61555 3.48681 8.88412 3.6754 8.97504L5.09752 9.6606C5.14847 9.68516 5.18959 9.72628 5.21415 9.77724L5.89972 11.1994C5.99063 11.3879 6.25921 11.3879 6.35012 11.1994L7.03568 9.77724C7.06025 9.72628 7.10136 9.68516 7.15232 9.6606L8.57444 8.97504C8.76302 8.88412 8.76302 8.61555 8.57444 8.52464L7.15232 7.83907C7.10136 7.81451 7.06025 7.77339 7.03568 7.72244L6.35012 6.30032ZM10.6039 6.22246C10.6797 6.06531 10.9035 6.06531 10.9792 6.22246L11.2343 6.75157C11.2548 6.79403 11.2891 6.8283 11.3315 6.84877L11.8606 7.10384C12.0178 7.1796 12.0178 7.40341 11.8606 7.47917L11.3315 7.73424C11.2891 7.75471 11.2548 7.78897 11.2343 7.83144L10.9792 8.36055C10.9035 8.5177 10.6797 8.5177 10.6039 8.36055L10.3488 7.83144C10.3284 7.78897 10.2941 7.75471 10.2517 7.73424L9.72254 7.47917C9.56539 7.40341 9.56539 7.1796 9.72254 7.10384L10.2517 6.84877C10.2941 6.8283 10.3284 6.79403 10.3488 6.75157L10.6039 6.22246ZM10.3993 10.8961C10.3222 10.7361 10.0943 10.7361 10.0172 10.8961L9.67121 11.6139C9.65037 11.6571 9.6155 11.692 9.57228 11.7128L8.85449 12.0588C8.69453 12.1359 8.69453 12.3637 8.85449 12.4409L9.57228 12.7869C9.6155 12.8077 9.65037 12.8426 9.67121 12.8858L10.0172 13.6036C10.0943 13.7636 10.3222 13.7636 10.3993 13.6036L10.7453 12.8858C10.7661 12.8426 10.801 12.8077 10.8442 12.7869L11.562 12.4409C11.722 12.3637 11.722 12.1359 11.562 12.0588L10.8442 11.7128C10.801 11.692 10.7661 11.6571 10.7453 11.6139L10.3993 10.8961Z" fill="#332A2A"/>
</g>
<defs>
<clipPath id="clip0_1054_11935">
<rect width="28" height="28" fill="white"/>
</clipPath>
</defs>
</svg>
