<svg width="23" height="23" viewBox="0 0 23 23" fill="none" xmlns="http://www.w3.org/2000/svg">
<g clip-path="url(#clip0_1054_11936)">
<path fill-rule="evenodd" clip-rule="evenodd" d="M2.91675 3.0835C1.95025 3.0835 1.16675 3.867 1.16675 4.8335V8.28511C1.16675 8.69932 1.50253 9.03511 1.91675 9.03511C2.33096 9.03511 2.66675 8.69932 2.66675 8.28511V4.8335C2.66675 4.69542 2.77868 4.5835 2.91675 4.5835H4.3083C4.72252 4.5835 5.0583 4.24771 5.0583 3.8335C5.0583 3.41928 4.72252 3.0835 4.3083 3.0835H2.91675ZM6.69986 3.0835C6.28564 3.0835 5.94986 3.41928 5.94986 3.8335C5.94986 4.24771 6.28564 4.5835 6.69986 4.5835H10.733V6.0593V7.17221V8.28511V10.5418V11.0403C10.733 11.563 10.3092 11.9867 9.78654 11.9867H2.66675V10.5109C2.66675 10.0967 2.33096 9.76092 1.91675 9.76092C1.50253 9.76092 1.16675 10.0967 1.16675 10.5109V12.7367V14.9625V17.1883V18.1668C1.16675 19.1333 1.95025 19.9168 2.91675 19.9168H6.70842C7.12263 19.9168 7.45842 19.581 7.45842 19.1668C7.45842 18.7526 7.12263 18.4168 6.70842 18.4168H2.91675C2.77868 18.4168 2.66675 18.3049 2.66675 18.1668V17.9383H20.3334V18.1668C20.3334 18.3049 20.2215 18.4168 20.0834 18.4168H11.5001H9.10425C8.69003 18.4168 8.35425 18.7526 8.35425 19.1668C8.35425 19.581 8.69003 19.9168 9.10425 19.9168H11.5001H20.0834C21.0499 19.9168 21.8334 19.1333 21.8334 18.1668V17.1883V14.9625V12.7367V10.5418V10.5109V8.28511V6.0593V4.8335C21.8334 3.867 21.0499 3.0835 20.0834 3.0835H16.2832C15.869 3.0835 15.5332 3.41928 15.5332 3.8335C15.5332 4.24771 15.869 4.5835 16.2832 4.5835H20.0834C20.2215 4.5835 20.3334 4.69543 20.3334 4.8335V5.3093H12.233V4.5835H13.8831C14.2973 4.5835 14.6331 4.24771 14.6331 3.8335C14.6331 3.41928 14.2973 3.0835 13.8831 3.0835H11.483H6.69986ZM2.66675 14.2125V13.4867H9.78654C11.0527 13.4867 12.0943 12.5248 12.2202 11.2918H20.3334V11.9867H16.2832H13.8831C13.4689 11.9867 13.1331 12.3225 13.1331 12.7367C13.1331 13.1509 13.4689 13.4867 13.8831 13.4867H16.2832H20.3334V14.2125H18.6876C18.2734 14.2125 17.9376 14.5483 17.9376 14.9625C17.9376 15.3767 18.2734 15.7125 18.6876 15.7125H20.3334V16.4383H2.66675V15.7125H11.5001H16.2917C16.706 15.7125 17.0417 15.3767 17.0417 14.9625C17.0417 14.5483 16.706 14.2125 16.2917 14.2125H11.5001H2.66675ZM20.3334 9.79183H12.233V9.03511H16.2832H18.6833C19.0975 9.03511 19.4333 8.69932 19.4333 8.28511C19.4333 7.8709 19.0975 7.53511 18.6833 7.53511H16.2832H12.233V7.17221V6.8093H20.3334V8.28511V9.79183ZM5.25653 5.25898C5.16562 5.07039 4.89704 5.07039 4.80613 5.25898L4.28998 6.32967C4.26541 6.38063 4.2243 6.42175 4.17334 6.44631L3.10264 6.96246C2.91406 7.05338 2.91406 7.32195 3.10264 7.41286L4.17334 7.92902C4.2243 7.95358 4.26541 7.9947 4.28998 8.04565L4.80613 9.11635C4.89704 9.30493 5.16562 9.30493 5.25653 9.11635L5.77268 8.04565C5.79725 7.9947 5.83837 7.95358 5.88932 7.92902L6.96002 7.41286C7.1486 7.32195 7.1486 7.05338 6.96002 6.96246L5.88932 6.44631C5.83837 6.42175 5.79725 6.38063 5.77268 6.32967L5.25653 5.25898ZM8.677 5.18112C8.75276 5.02397 8.97657 5.02396 9.05233 5.18112L9.22269 5.53452C9.24316 5.57698 9.27743 5.61125 9.31989 5.63172L9.67329 5.80208C9.83045 5.87784 9.83045 6.10165 9.67329 6.17741L9.31989 6.34778C9.27743 6.36825 9.24316 6.40251 9.22269 6.44497L9.05233 6.79837C8.97657 6.95553 8.75276 6.95553 8.677 6.79837L8.50663 6.44497C8.48616 6.40251 8.4519 6.36825 8.40944 6.34778L8.05604 6.17741C7.89888 6.10165 7.89888 5.87784 8.05604 5.80208L8.40944 5.63172C8.4519 5.61125 8.48616 5.57698 8.50663 5.53452L8.677 5.18112ZM8.57651 9.0214C8.4994 8.86144 8.27159 8.86144 8.19448 9.0214L7.9501 9.52834C7.92927 9.57156 7.89439 9.60643 7.85117 9.62727L7.34424 9.87165C7.18428 9.94876 7.18428 10.1766 7.34424 10.2537L7.85117 10.4981C7.89439 10.5189 7.92927 10.5538 7.9501 10.597L8.19448 11.1039C8.27159 11.2639 8.4994 11.2639 8.57651 11.1039L8.82089 10.597C8.84173 10.5538 8.8766 10.5189 8.91983 10.4981L9.42676 10.2537C9.58672 10.1766 9.58672 9.94876 9.42676 9.87165L8.91983 9.62727C8.8766 9.60643 8.84173 9.57156 8.82089 9.52834L8.57651 9.0214Z" fill="#332A2A"/>
</g>
<defs>
<clipPath id="clip0_1054_11936">
<rect width="23" height="23" fill="white"/>
</clipPath>
</defs>
</svg>
