<svg width="23" height="23" viewBox="0 0 23 23" fill="none" xmlns="http://www.w3.org/2000/svg">
<g clip-path="url(#clip0_1177_13372)">
<path d="M7.28068 9.7388L7.81079 10.0838C8.34174 10.4292 9.06951 10.2048 9.38511 9.65556C9.76398 8.99619 10.3398 8.15461 11.1114 7.46736C11.5363 7.08901 11.9017 6.66389 12.2076 6.24815C12.7203 5.55141 13.8975 5.64833 13.8258 6.5104C13.8215 6.56194 13.8129 6.60257 13.7995 6.65253L13.5069 7.7426C13.4945 7.78883 13.479 7.83411 13.4595 7.87783C13.2734 8.29577 13.0255 8.71329 12.7312 9.15366C12.2767 9.8335 12.7352 10.7531 13.5529 10.7531C14.3188 10.7531 15.3536 10.7531 16.8971 10.7531C17.4494 10.7531 17.8976 11.2017 17.8347 11.7504C17.7235 12.7191 17.4949 13.7312 17.3686 14.3748M7.28068 9.7388H5.70459C5.15231 9.7388 4.70459 10.1865 4.70459 10.7388V11.9977M7.28068 9.7388V14.2567M7.28068 18.7745C6.78546 18.7745 6.26255 18.7745 5.70464 18.7745C5.15236 18.7745 4.70459 18.3268 4.70459 17.7745V14.2567M7.28068 18.7745V16.5156M7.28068 18.7745C7.28068 18.7745 7.54692 18.258 8.83939 18.258C9.39958 18.258 11.9901 18.258 13.8196 18.258C15.268 18.258 16.7182 17.6888 17.3686 14.3748M17.3686 14.3748H15.6819M16.824 16.2044H15.1373M17.7218 12.5453H16.0351" stroke="#332A2A" stroke-width="1.35" stroke-linecap="round" stroke-linejoin="round"/>
</g>
<defs>
<clipPath id="clip0_1177_13372">
<rect width="23" height="23" fill="white"/>
</clipPath>
</defs>
</svg>
