<svg width="28" height="28" viewBox="0 0 28 28" fill="none" xmlns="http://www.w3.org/2000/svg">
<g clip-path="url(#clip0_1177_13387)">
<path d="M13.5271 9.09082C14.1624 8.52494 14.6888 7.87311 15.1056 7.26209C15.6127 6.51872 16.8372 6.5918 16.8471 7.49163C16.8487 7.63922 16.8433 7.78417 16.8314 7.92699C16.827 7.98061 16.817 8.0336 16.8031 8.08557L16.4392 9.441C16.4268 9.48722 16.4113 9.53246 16.3919 9.57622C16.1158 10.2001 15.7264 10.8229 15.2579 11.4968C14.7911 12.1682 15.254 13.0908 16.0717 13.0908H20.7882C21.3405 13.0908 21.7925 13.5387 21.7704 14.0906C21.7492 14.6215 21.711 15.1211 21.6575 15.5908C21.0847 20.623 18.761 22.2273 16.824 22.2273H10.7611C9.18765 22.2273 8.86353 22.8561 8.86353 22.8561V20.1061V17.3561V13.2153C8.86353 12.6302 9.5124 12.2783 10.0028 12.5974C10.3942 12.8521 10.9293 12.6867 11.1435 12.2718C11.5747 11.4367 12.3701 10.1213 13.5271 9.09082Z" fill="#E05149"/>
<path d="M8.8634 11.8563L9.73237 12.4217C10.2633 12.7672 10.9906 12.5426 11.295 11.9871C11.7497 11.1575 12.4943 10.0108 13.5269 9.09106C14.1623 8.52518 14.6886 7.87335 15.1055 7.26234C15.6126 6.51896 16.8371 6.59205 16.8469 7.49187C16.8488 7.66727 16.841 7.83894 16.8239 8.00773M8.8634 11.8563H6.72729C6.17501 11.8563 5.72729 12.304 5.72729 12.8563V14.6063M8.8634 11.8563V17.3563M8.8634 22.8563C8.19663 22.8563 7.48864 22.8563 6.72737 22.8563C6.17509 22.8563 5.72729 22.4086 5.72729 21.8563V17.3563M8.8634 22.8563V20.1063M8.8634 22.8563C8.8634 22.8563 9.18752 22.2275 10.761 22.2275C11.4429 22.2275 14.5966 22.2275 16.8239 22.2275C18.5871 22.2275 20.3526 21.5345 21.1443 17.5002M16.2929 10C16.0383 10.5926 15.7171 11.0421 15.3193 11.5436C14.8111 12.1843 15.2539 13.0911 16.0716 13.0911C17.0723 13.0911 18.4764 13.0911 20.7881 13.0911C21.3403 13.0911 21.7897 13.5396 21.7349 14.0891C21.611 15.3318 21.3075 16.6686 21.1443 17.5002M21.1443 17.5002H19.0909M20.4814 19.7274H18.4279M21.5743 15.2729H19.5209" stroke="#252323" stroke-width="1.5" stroke-linecap="round" stroke-linejoin="round"/>
</g>
<defs>
<clipPath id="clip0_1177_13387">
<rect width="28" height="28" fill="white"/>
</clipPath>
</defs>
</svg>
