<svg width="28" height="28" viewBox="0 0 28 28" fill="none" xmlns="http://www.w3.org/2000/svg">
<g clip-path="url(#clip0_1177_13365)">
<path d="M8.8634 11.8561L9.73237 12.4215C10.2633 12.767 10.9906 12.5423 11.295 11.9868C11.7497 11.1573 12.4943 10.0105 13.5269 9.09082C14.1623 8.52494 14.6886 7.87311 15.1055 7.26209C15.6126 6.51872 16.8371 6.5918 16.8469 7.49163C16.8488 7.66703 16.841 7.83869 16.8239 8.00749M8.8634 11.8561H6.72729C6.17501 11.8561 5.72729 12.3038 5.72729 12.8561V14.6061M8.8634 11.8561V17.3561M8.8634 22.8561C8.19663 22.8561 7.48864 22.8561 6.72737 22.8561C6.17509 22.8561 5.72729 22.4083 5.72729 21.8561V17.3561M8.8634 22.8561V20.1061M8.8634 22.8561C8.8634 22.8561 9.18752 22.2273 10.761 22.2273C11.4429 22.2273 14.5966 22.2273 16.8239 22.2273C18.5871 22.2273 20.3526 21.5343 21.1443 17.4999M16.2929 9.99976C16.0383 10.5924 15.7171 11.0418 15.3193 11.5434C14.8111 12.184 15.2539 13.0908 16.0716 13.0908C17.0723 13.0908 18.4764 13.0908 20.7881 13.0908C21.3403 13.0908 21.7897 13.5393 21.7349 14.0889C21.611 15.3316 21.3075 16.6684 21.1443 17.4999M21.1443 17.4999H19.0909M20.4814 19.7272H18.4279M21.5743 15.2726H19.5209" stroke="#332A2A" stroke-width="1.5" stroke-linecap="round" stroke-linejoin="round"/>
</g>
<defs>
<clipPath id="clip0_1177_13365">
<rect width="28" height="28" fill="white"/>
</clipPath>
</defs>
</svg>
