<svg width="44" height="44" viewBox="0 0 44 44" fill="none" xmlns="http://www.w3.org/2000/svg">
<g clip-path="url(#clip0_1177_13386)">
<path d="M21.2566 14.2857C22.6887 13.0103 23.7682 11.4571 24.4931 10.2137C24.9464 9.43633 26.1661 9.48061 26.3314 10.3652C26.4728 11.1226 26.5059 11.8277 26.4452 12.5029C26.4404 12.5565 26.4305 12.6094 26.4166 12.6614L25.8223 14.8757C25.8099 14.9219 25.7943 14.9671 25.7751 15.0109C25.2194 16.2802 24.3641 17.5447 23.3258 18.9824C22.847 19.6454 23.3147 20.5714 24.1325 20.5714H33.2372C33.7895 20.5714 34.2426 21.0193 34.229 21.5714C34.203 22.6209 34.136 23.5957 34.0331 24.5C33.1328 32.4077 29.4813 34.9287 26.4376 34.9287H16.9101C14.4376 34.9287 13.9282 35.9168 13.9282 35.9168V31.5954V27.274V20.4749C13.9282 19.6812 14.8084 19.2038 15.4736 19.6367L15.8815 19.9021C16.4125 20.2476 17.1378 20.0227 17.4229 19.4571C18.0772 18.1594 19.3565 15.978 21.2566 14.2857Z" fill="#E05149"/>
<path d="M13.9282 18.6311L15.8815 19.9021C16.4124 20.2476 17.1377 20.0227 17.4229 19.4571C18.0771 18.1594 19.3565 15.978 21.2566 14.2857C22.6886 13.0103 23.7681 11.4571 24.4931 10.2137C24.9464 9.43633 26.1661 9.48061 26.3313 10.3652C26.4784 11.1527 26.5083 11.8837 26.4375 12.5833M13.9282 18.6311H10C9.44772 18.6311 9 19.0788 9 19.6311V22.9525M13.9282 18.6311V27.274M13.9282 35.9168C12.7154 35.9168 11.4158 35.9168 10 35.9168C9.44772 35.9168 9 35.4691 9 34.9168V27.2739M13.9282 35.9168V31.5954M13.9282 35.9168C13.9282 35.9168 14.4375 34.9287 16.91 34.9287C17.9817 34.9287 22.9375 34.9287 26.4375 34.9287C29.2082 34.9287 31.9826 33.8397 33.2268 27.5M25.8036 14.9451C25.2488 16.2365 24.382 17.5199 23.3257 18.9824C22.847 19.6454 23.3147 20.5714 24.1324 20.5714C25.833 20.5714 28.2687 20.5714 33.2371 20.5714C33.7894 20.5714 34.2423 21.0193 34.2036 21.5702C34.0558 23.6729 33.5084 26.0651 33.2268 27.5M33.2268 27.5H30M32.185 31H28.9582M33.9025 24H30.6757" stroke="#332A2A" stroke-width="1.5" stroke-linecap="round" stroke-linejoin="round"/>
</g>
<defs>
<clipPath id="clip0_1177_13386">
<rect width="44" height="44" fill="white"/>
</clipPath>
</defs>
</svg>
