<svg width="18" height="18" viewBox="0 0 18 18" fill="none" xmlns="http://www.w3.org/2000/svg">
<g clip-path="url(#clip0_1177_13379)">
<path d="M5.69795 7.62203L5.88922 7.74649C6.42017 8.09198 7.14882 7.86624 7.4817 7.32729C7.77356 6.85477 8.17849 6.30524 8.69594 5.84438C9.0284 5.54828 9.31441 5.21558 9.55383 4.89022C9.95506 4.34494 10.8763 4.42079 10.8202 5.09545C10.8169 5.1358 10.8101 5.16759 10.7996 5.20669L10.5747 6.0447C10.5623 6.09092 10.5468 6.13627 10.5272 6.17992C10.4343 6.38649 10.3222 6.59303 10.1939 6.80413C9.76926 7.50297 10.2162 8.41581 11.0339 8.41581C11.5379 8.41581 12.1721 8.41581 13.0062 8.41581C13.5585 8.41581 14.0045 8.86476 13.9306 9.41208C13.8375 10.1017 13.6823 10.7942 13.5928 11.2502C13.0839 13.8437 11.9489 14.2892 10.8154 14.2892C9.38359 14.2892 7.35623 14.2892 6.91781 14.2892C5.90632 14.2892 5.69795 14.6935 5.69795 14.6935M5.69795 7.62203H4.68189C4.1296 7.62203 3.68188 8.06974 3.68188 8.62203V9.38989M5.69795 7.62203V11.1577M5.69795 14.6935C5.37538 14.6935 5.03779 14.6935 4.6819 14.6935C4.12962 14.6935 3.68188 14.2457 3.68188 13.6935V11.1577M5.69795 14.6935V12.9256" stroke="#332A2A" stroke-width="1.25" stroke-linecap="round" stroke-linejoin="round"/>
</g>
<defs>
<clipPath id="clip0_1177_13379">
<rect width="18" height="18" fill="white"/>
</clipPath>
</defs>
</svg>
