<svg width="23" height="23" viewBox="0 0 23 23" fill="none" xmlns="http://www.w3.org/2000/svg">
<g clip-path="url(#clip0_1177_13388)">
<path d="M11.1115 7.4676C11.5363 7.08926 11.9018 6.66414 12.2077 6.2484C12.7204 5.55166 13.8976 5.64857 13.8259 6.51064C13.8216 6.56219 13.813 6.60282 13.7996 6.65277L13.507 7.74285C13.4946 7.78907 13.4791 7.83435 13.4596 7.87807C13.2735 8.29601 13.0256 8.71353 12.7312 9.15391C12.2768 9.83374 12.7353 10.7533 13.553 10.7533H16.8972C17.4495 10.7533 17.9022 11.2013 17.8749 11.753C17.8566 12.123 17.828 12.4741 17.7901 12.8069C17.3195 16.9405 15.4108 18.2583 13.8197 18.2583H8.83947C7.547 18.2583 7.28076 18.7748 7.28076 18.7748V16.5158V14.2569V10.8556C7.28076 10.375 7.81376 10.0859 8.2166 10.348C8.53812 10.5572 8.97761 10.4214 9.15361 10.0805C9.50781 9.39461 10.1611 8.31405 11.1115 7.4676Z" fill="#E05149"/>
<path d="M7.28068 9.73904L7.81079 10.084C8.34174 10.4295 9.06951 10.2051 9.38511 9.65581C9.76398 8.99643 10.3398 8.15485 11.1114 7.4676C11.5363 7.08926 11.9017 6.66414 12.2076 6.2484C12.7203 5.55166 13.8975 5.64857 13.8258 6.51064C13.8215 6.56219 13.8129 6.60282 13.7995 6.65277L13.5069 7.74285C13.4945 7.78907 13.479 7.83435 13.4595 7.87807C13.2734 8.29601 13.0255 8.71353 12.7312 9.15391C12.2767 9.83374 12.7352 10.7533 13.5529 10.7533C14.3188 10.7533 15.3536 10.7533 16.8971 10.7533C17.4494 10.7533 17.8976 11.202 17.8347 11.7507C17.7235 12.7194 17.4949 13.7314 17.3686 14.3751M7.28068 9.73904H5.70459C5.15231 9.73904 4.70459 10.1868 4.70459 10.739V11.998M7.28068 9.73904V14.2569M7.28068 18.7748C6.78546 18.7748 6.26255 18.7748 5.70464 18.7748C5.15236 18.7748 4.70459 18.327 4.70459 17.7748V14.2569M7.28068 18.7748V16.5158M7.28068 18.7748C7.28068 18.7748 7.54692 18.2583 8.83939 18.2583C9.39958 18.2583 11.9901 18.2583 13.8196 18.2583C15.268 18.2583 16.7182 17.689 17.3686 14.3751M17.3686 14.3751H15.6819M16.824 16.2046H15.1373M17.7218 12.5455H16.0351" stroke="#332A2A" stroke-width="1.35" stroke-linecap="round" stroke-linejoin="round"/>
</g>
<defs>
<clipPath id="clip0_1177_13388">
<rect width="23" height="23" fill="white"/>
</clipPath>
</defs>
</svg>
