<svg width="18" height="18" viewBox="0 0 18 18" fill="none" xmlns="http://www.w3.org/2000/svg">
<g clip-path="url(#clip0_1177_13389)">
<path d="M8.69599 5.84413C9.02845 5.54804 9.31446 5.21534 9.55387 4.88998C9.95511 4.3447 10.8764 4.42055 10.8203 5.09521C10.8169 5.13555 10.8102 5.16735 10.7997 5.20644L10.5748 6.04445C10.5624 6.09068 10.5468 6.13603 10.5272 6.17968C10.4343 6.38624 10.3222 6.59278 10.194 6.80389C9.7693 7.50273 10.2162 8.41556 11.034 8.41556H13.0063C13.5585 8.41556 14.0125 8.8638 13.9766 9.41492C13.9629 9.62566 13.9449 9.82816 13.9227 10.0227C13.5544 13.2577 12.0606 14.289 10.8155 14.289H6.91786C5.90636 14.289 5.698 14.6932 5.698 14.6932V12.9254V11.1575V8.49558C5.698 8.11945 6.11513 7.89322 6.43039 8.09836C6.68202 8.2621 7.02596 8.15577 7.16371 7.88903C7.4409 7.35223 7.95219 6.50657 8.69599 5.84413Z" fill="#E05149"/>
<path d="M5.69795 7.62179L5.88922 7.74624C6.42017 8.09174 7.14882 7.86599 7.4817 7.32705C7.77356 6.85453 8.17849 6.30499 8.69594 5.84413C9.0284 5.54804 9.31441 5.21534 9.55383 4.88998C9.95506 4.3447 10.8763 4.42055 10.8202 5.09521V5.09521C10.8169 5.13555 10.8101 5.16735 10.7996 5.20644L10.5747 6.04445C10.5623 6.09068 10.5468 6.13603 10.5272 6.17968C10.4343 6.38624 10.3222 6.59278 10.1939 6.80389C9.76926 7.50273 10.2162 8.41556 11.0339 8.41556C11.5379 8.41556 12.1721 8.41556 13.0062 8.41556C13.5585 8.41556 14.0045 8.86452 13.9306 9.41183C13.8375 10.1015 13.6823 10.7939 13.5928 11.25C13.0839 13.8435 11.9489 14.289 10.8154 14.289C9.38359 14.289 7.35623 14.289 6.91781 14.289C5.90632 14.289 5.69795 14.6932 5.69795 14.6932M5.69795 7.62179H4.68189C4.1296 7.62179 3.68188 8.0695 3.68188 8.62179V9.38964M5.69795 7.62179V11.1575M5.69795 14.6932C5.37538 14.6932 5.03779 14.6932 4.6819 14.6932C4.12962 14.6932 3.68188 14.2455 3.68188 13.6932V11.1575M5.69795 14.6932V12.9254" stroke="#252323" stroke-width="1.25" stroke-linecap="round" stroke-linejoin="round"/>
</g>
<defs>
<clipPath id="clip0_1177_13389">
<rect width="18" height="18" fill="white"/>
</clipPath>
</defs>
</svg>
