<svg width="44" height="44" viewBox="0 0 44 44" fill="none" xmlns="http://www.w3.org/2000/svg">
<g clip-path="url(#clip0_1053_11953)">
<path fill-rule="evenodd" clip-rule="evenodd" d="M25.6289 6.25395C25.835 6.39348 25.9584 6.62614 25.9584 6.875V8.81436L32.5369 10.4796C32.7882 10.5432 32.9888 10.7321 33.0674 10.9791L37.3814 24.5224C37.488 24.857 37.348 25.2209 37.0446 25.3978L20.5446 35.0229C20.361 35.13 20.1406 35.1541 19.9382 35.0893L8.47982 31.4227C8.10009 31.3012 7.8818 30.9038 7.98293 30.5181L12.3096 14.0181C12.3653 13.8058 12.5112 13.6285 12.7089 13.533L19.8751 10.0711V8.70834C19.8751 8.40166 20.0618 8.12588 20.3465 8.01198L24.9299 6.17865C25.1609 6.08622 25.4228 6.11443 25.6289 6.25395ZM21.3751 10.5572C21.3753 10.5465 21.3753 10.5358 21.3751 10.525V9.21611L24.4584 7.98278V9.3824C24.4582 9.39331 24.4582 9.40419 24.4584 9.41504V11.4583C24.4584 11.8726 24.7942 12.2083 25.2084 12.2083C25.6226 12.2083 25.9584 11.8726 25.9584 11.4583V10.3617L30.1726 11.4284L21.2159 15.7624L15.1341 14.0273L19.8751 11.7369V13.2296C19.8751 13.6439 20.2109 13.9796 20.6251 13.9796C21.0393 13.9796 21.3751 13.6439 21.3751 13.2296V10.5572ZM13.5662 15.1398L20.4987 17.1176L19.4785 33.3673L9.61424 30.2108L13.5662 15.1398ZM21.0034 33.0187L35.7697 24.405L31.9008 12.2586L22.0062 17.0463L21.0034 33.0187Z" fill="#252323"/>
</g>
<defs>
<clipPath id="clip0_1053_11953">
<rect width="44" height="44" fill="white"/>
</clipPath>
</defs>
</svg>
