<svg width="28" height="28" viewBox="0 0 28 28" fill="none" xmlns="http://www.w3.org/2000/svg">
<g clip-path="url(#clip0_1053_11958)">
<path d="M15.7633 3.67874C15.9944 3.58639 16.2565 3.61444 16.4626 3.75393C16.6685 3.89347 16.7917 4.12627 16.7917 4.37502V5.39651L20.7721 6.40432C21.0234 6.46793 21.2237 6.65734 21.3024 6.90432L24.0475 15.5225C24.1541 15.857 24.0147 16.2204 23.7116 16.3975L13.2116 22.5225C13.028 22.6296 12.8075 22.6536 12.6051 22.5889L5.31314 20.2559C4.93346 20.1344 4.71504 19.7372 4.81607 19.3516L7.56998 8.85159L7.59439 8.77346C7.66229 8.59608 7.79559 8.4498 7.96841 8.36624L12.3747 6.23733V5.54202C12.3747 5.23542 12.5617 4.95968 12.8463 4.84573L15.7633 3.67874ZM6.44693 19.043L12.1442 20.8672L12.7585 11.0948L8.82486 9.97268L6.44693 19.043ZM14.2653 11.0235L13.6696 20.5186L22.4362 15.4053L20.1354 8.18264L14.2653 11.0235ZM15.2917 7.29202V5.48245L13.8747 6.04983V8.41897C13.8746 8.83314 13.5388 9.16897 13.1247 9.16897C12.7106 9.16879 12.3747 8.83303 12.3747 8.41897V7.90334L10.3932 8.86038L13.4753 9.73928L18.4069 7.35256L16.7917 6.94338V7.29202C16.7915 7.70607 16.4558 8.04202 16.0417 8.04202C15.6276 8.04202 15.2918 7.70607 15.2917 7.29202Z" fill="#332A2A"/>
</g>
<defs>
<clipPath id="clip0_1053_11958">
<rect width="28" height="28" fill="white"/>
</clipPath>
</defs>
</svg>
