<svg width="18" height="18" viewBox="0 0 18 18" fill="none" xmlns="http://www.w3.org/2000/svg">
<g clip-path="url(#clip0_1053_11973)">
<path d="M9.95496 2.10728C10.1475 2.03026 10.3662 2.05351 10.538 2.16978C10.7096 2.28606 10.8124 2.48002 10.8124 2.68736V3.23326L13.2636 3.85338L13.3397 3.87779C13.513 3.94617 13.6485 4.0893 13.7059 4.26939L15.4706 9.81041C15.5593 10.0892 15.4421 10.3925 15.1893 10.5399L8.43934 14.4774C8.28647 14.5664 8.10295 14.5869 7.93445 14.5331L3.24695 13.0331C2.9306 12.9318 2.7488 12.6005 2.83289 12.2792L4.60242 5.52916L4.65125 5.4022C4.71271 5.28235 4.81199 5.18454 4.93543 5.12486L7.68738 3.79478V3.43736C7.68738 3.18192 7.84286 2.95228 8.07996 2.85728L9.95496 2.10728ZM4.19129 12.0213L7.55066 13.0965L7.92664 7.11217L5.65027 6.46275L4.19129 12.0213ZM9.1825 7.05357L8.82215 12.8065L14.1268 9.71177L12.7333 5.3358L9.1825 7.05357ZM8.93738 3.86021V4.87486C8.93738 5.22004 8.65756 5.49986 8.31238 5.49986C8.06645 5.49986 7.8558 5.35677 7.75379 5.15025L6.95496 5.53599L8.5243 5.98326L11.2929 4.64342L10.7255 4.49986C10.6172 4.68588 10.4181 4.81236 10.1874 4.81236C9.8422 4.81236 9.56238 4.53254 9.56238 4.18736V3.61021L8.93738 3.86021Z" fill="#332A2A"/>
</g>
<defs>
<clipPath id="clip0_1053_11973">
<rect width="18" height="18" fill="white"/>
</clipPath>
</defs>
</svg>
