<svg width="23" height="23" viewBox="0 0 23 23" fill="none" xmlns="http://www.w3.org/2000/svg">
<g clip-path="url(#clip0_1053_11966)">
<path d="M12.926 2.96676C13.1339 2.88359 13.3704 2.90962 13.5558 3.03512C13.741 3.16072 13.8517 3.36994 13.8517 3.59371V4.38668L17.0773 5.20407L17.1594 5.23043C17.3465 5.30431 17.4929 5.45873 17.5549 5.65328L19.8098 12.7324C19.9057 13.0335 19.7799 13.3611 19.507 13.5205L10.882 18.5517C10.7169 18.648 10.5182 18.6695 10.3361 18.6113L4.34589 16.6953C4.00438 16.5858 3.8077 16.2278 3.89862 15.8808L6.16034 7.25582C6.21042 7.06486 6.34201 6.90528 6.51972 6.8193L10.1057 5.0859V4.55172C10.1058 4.27593 10.2744 4.02827 10.5305 3.92575L12.926 2.96676ZM5.36737 15.6035L9.92108 17.0615L10.4182 9.15719L7.2912 8.26461L5.36737 15.6035ZM11.7746 9.09274L11.2941 16.748L18.3586 12.6259L16.5051 6.80368L11.7746 9.09274ZM11.4562 5.00875V6.72164C11.4561 7.0942 11.154 7.39627 10.7814 7.39645C10.4088 7.39637 10.1058 7.09426 10.1057 6.72164V6.5859L8.70233 7.26364L11.0627 7.93746L14.9474 6.05758L13.8517 5.77926V5.85836C13.8515 6.23099 13.5496 6.53317 13.1769 6.53317C12.8043 6.53308 12.5023 6.23094 12.5021 5.85836V4.58981L11.4562 5.00875Z" fill="#332A2A"/>
</g>
<defs>
<clipPath id="clip0_1053_11966">
<rect width="23" height="23" fill="white"/>
</clipPath>
</defs>
</svg>
