<svg width="23" height="23" viewBox="0 0 23 23" fill="none" xmlns="http://www.w3.org/2000/svg">
<g clip-path="url(#clip0_1053_11966)">
<path fill-rule="evenodd" clip-rule="evenodd" d="M13.5976 2.9727C13.8037 3.11223 13.9272 3.34489 13.9272 3.59375V4.32887L17.0958 5.13097C17.3471 5.19458 17.5477 5.38343 17.6264 5.63041L19.8814 12.7099C19.988 13.0445 19.848 13.4083 19.5446 13.5853L10.9196 18.6166C10.736 18.7237 10.5156 18.7478 10.3132 18.6831L4.32357 16.7664C3.94384 16.6449 3.72555 16.2475 3.82668 15.8618L6.08837 7.23686C6.14404 7.02454 6.28994 6.84726 6.48759 6.75178L10.0313 5.03981V4.55209C10.0313 4.24541 10.218 3.96963 10.5028 3.85573L12.8986 2.8974C13.1297 2.80497 13.3915 2.83318 13.5976 2.9727ZM11.5313 5.52595C11.5316 5.51526 11.5316 5.50455 11.5313 5.49382V5.05986L12.4272 4.70153V4.89689C12.4269 4.90781 12.4269 4.9187 12.4272 4.92956V5.85804C12.4272 6.27225 12.7629 6.60804 13.1772 6.60804C13.5853 6.60804 13.9173 6.28199 13.9269 5.87613L14.7315 6.0798L11.0571 7.85776L8.91284 7.24601L10.0313 6.70568V6.7214C10.0313 7.13562 10.3671 7.4714 10.7813 7.4714C11.1955 7.4714 11.5313 7.13562 11.5313 6.7214V5.52595ZM7.34495 8.35855L10.34 9.21302L9.85353 16.9611L5.45799 15.5545L7.34495 8.35855ZM11.3784 16.6124L18.2697 12.5925L16.4597 6.90996L11.8474 9.14172L11.3784 16.6124Z" fill="#252323"/>
</g>
<defs>
<clipPath id="clip0_1053_11966">
<rect width="23" height="23" fill="white"/>
</clipPath>
</defs>
</svg>
