<svg width="28" height="28" viewBox="0 0 28 28" fill="none" xmlns="http://www.w3.org/2000/svg">
<g clip-path="url(#clip0_1053_11958)">
<path fill-rule="evenodd" clip-rule="evenodd" d="M16.4621 3.75395C16.6682 3.89348 16.7917 4.12614 16.7917 4.375V5.39685L20.7722 6.40446C21.0234 6.46807 21.2241 6.65692 21.3027 6.9039L24.0479 15.5224C24.1545 15.857 24.0146 16.2209 23.7112 16.3978L13.2112 22.5229C13.0276 22.63 12.8072 22.6541 12.6047 22.5893L5.31308 20.256C4.93334 20.1345 4.71505 19.7371 4.81618 19.3514L7.56954 8.85146C7.62521 8.63913 7.77111 8.46185 7.96876 8.36637L12.375 6.23773V5.54167C12.375 5.23499 12.5617 4.95921 12.8464 4.84531L15.7631 3.67865C15.9942 3.58622 16.256 3.61443 16.4621 3.75395ZM13.875 6.72386C13.8752 6.71318 13.8752 6.70247 13.875 6.69175V6.04944L15.2917 5.48278V5.96488C15.2914 5.97579 15.2914 5.98668 15.2917 5.99752V7.29167C15.2917 7.70588 15.6274 8.04167 16.0417 8.04167C16.4559 8.04167 16.7917 7.70588 16.7917 7.29167V6.94416L18.4079 7.35329L13.4758 9.73981L10.394 8.8606L12.375 7.9036V8.41887C12.375 8.83308 12.7108 9.16887 13.125 9.16887C13.5392 9.16887 13.875 8.83308 13.875 8.41887V6.72386ZM8.82612 9.97314L12.7587 11.0951L12.1451 20.8673L6.4475 19.0441L8.82612 9.97314ZM13.67 20.5187L22.4363 15.405L20.136 8.18345L14.2661 11.0238L13.67 20.5187Z" fill="#252323"/>
</g>
<defs>
<clipPath id="clip0_1053_11958">
<rect width="28" height="28" fill="white"/>
</clipPath>
</defs>
</svg>
