<svg width="44" height="44" viewBox="0 0 44 44" fill="none" xmlns="http://www.w3.org/2000/svg">
<g clip-path="url(#clip0_1053_11953)">
<path d="M24.9301 6.17875C25.1611 6.0864 25.4233 6.11445 25.6293 6.25394C25.8352 6.39349 25.9584 6.62628 25.9584 6.87504V8.81351L32.5365 10.4795C32.7878 10.5431 32.9891 10.7325 33.0678 10.9795L37.3813 24.5225C37.4878 24.8571 37.3477 25.2205 37.0443 25.3975L20.5443 35.0225C20.3607 35.1296 20.1403 35.1537 19.9379 35.0889L8.47989 31.4229C8.10031 31.3014 7.88199 30.9041 7.98282 30.5186L12.31 14.0186L12.3344 13.9405C12.4022 13.763 12.5356 13.6169 12.7084 13.5332L19.8754 10.0703V8.70804C19.8755 8.40159 20.0616 8.12569 20.3461 8.01176L24.9301 6.17875ZM9.61368 30.21L19.4779 33.3672L20.4984 17.1172L13.5649 15.1397L9.61368 30.21ZM22.0053 17.0459L21.0033 33.0186L35.7699 24.4043L31.8998 12.2578L22.0053 17.0459ZM24.4584 11.458V7.98246L21.3754 9.21488V13.2295C21.3754 13.6436 21.0395 13.9794 20.6254 13.9795C20.2112 13.9795 19.8754 13.6437 19.8754 13.2295V11.7364L15.1332 14.0274L21.2152 15.7618L30.1713 11.4278L25.9584 10.3614V11.458C25.9584 11.8723 25.6226 12.208 25.2084 12.208C24.7942 12.208 24.4584 11.8723 24.4584 11.458Z" fill="#332A2A"/>
</g>
<defs>
<clipPath id="clip0_1053_11953">
<rect width="44" height="44" fill="white"/>
</clipPath>
</defs>
</svg>
