<svg width="18" height="18" viewBox="0 0 18 18" fill="none" xmlns="http://www.w3.org/2000/svg">
<g clip-path="url(#clip0_1053_11973)">
<path fill-rule="evenodd" clip-rule="evenodd" d="M10.6628 2.29496C10.8345 2.41123 10.9374 2.60511 10.9374 2.8125V3.3582L13.3885 3.97866C13.5979 4.03167 13.7651 4.18904 13.8306 4.39486L15.5954 9.93531C15.6842 10.2142 15.5676 10.5174 15.3148 10.6649L8.5648 14.6024C8.4118 14.6916 8.22811 14.7117 8.0594 14.6578L3.3719 13.1578C3.05545 13.0565 2.87355 12.7254 2.95782 12.404L4.72784 5.65398C4.77423 5.47704 4.89582 5.32931 5.06052 5.24974L7.81238 3.92033V3.5625C7.81238 3.30694 7.96798 3.07712 8.20526 2.9822L10.0803 2.2322C10.2728 2.15518 10.491 2.17869 10.6628 2.29496ZM9.06238 4.32545C9.06257 4.31654 9.06258 4.30761 9.06238 4.29866V3.98565L9.68738 3.73565V3.83156C9.68718 3.84065 9.68719 3.84973 9.68738 3.85877V4.31251C9.68738 4.65768 9.96721 4.93751 10.3124 4.93751C10.5432 4.93751 10.7448 4.81239 10.853 4.62628L11.4183 4.76935L8.64969 6.10898L7.08157 5.66161L7.8771 5.27729C7.97928 5.48335 8.19179 5.625 8.43738 5.625C8.78256 5.625 9.06238 5.34518 9.06238 5V4.32545ZM5.77499 6.58872L8.0521 7.23837L7.67638 13.2228L4.31725 12.1478L5.77499 6.58872ZM8.94708 12.9322L14.2524 9.83748L12.8584 5.46116L9.30829 7.17895L8.94708 12.9322Z" fill="#252323"/>
</g>
<defs>
<clipPath id="clip0_1053_11973">
<rect width="18" height="18" fill="white"/>
</clipPath>
</defs>
</svg>
