<svg width="23" height="23" viewBox="0 0 23 23" fill="none" xmlns="http://www.w3.org/2000/svg">
<g clip-path="url(#clip0_2047_12750)">
<path d="M18.929 2.20996C19.7367 2.31291 20.2593 3.15982 19.9495 3.94434L18.5706 7.43555L17.719 9.5918C17.5821 9.93842 17.1897 10.1085 16.843 9.97168C16.4964 9.8347 16.3262 9.4424 16.4631 9.0957L17.3147 6.93945L18.6516 3.55371C17.7666 3.59611 16.9777 4.13804 16.6252 4.95801L12.1614 15.3477C11.7393 16.3299 10.7724 16.9667 9.70337 16.9668H6.61646C5.1888 16.9668 3.9636 17.9835 3.70044 19.3867C3.69428 19.4196 3.71975 19.4502 3.75317 19.4502H7.85376C8.22643 19.4503 8.52953 19.7523 8.52954 20.125C8.52954 20.4977 8.22644 20.7997 7.85376 20.7998H3.75317C2.87446 20.7998 2.21136 20.0014 2.37329 19.1377C2.75624 17.0961 4.53922 15.6162 6.61646 15.6162H9.70337C10.2329 15.6161 10.7121 15.3009 10.9211 14.8145L15.385 4.42578C15.9652 3.07561 17.2944 2.20019 18.7639 2.2002L18.929 2.20996ZM15.6116 11.252C15.7486 10.9053 16.1409 10.7351 16.4875 10.8721C16.8341 11.0091 17.0043 11.4014 16.8674 11.748L13.9602 19.1074C13.5569 20.1285 12.5707 20.7995 11.4729 20.7998H10.343C9.97045 20.7995 9.66821 20.4976 9.66821 20.125C9.66822 19.7524 9.97045 19.4505 10.343 19.4502H11.4729C12.0165 19.4499 12.5056 19.117 12.7053 18.6113L15.6116 11.252ZM8.48657 13.1035C8.63669 12.7623 9.03503 12.6068 9.37622 12.7568C9.71726 12.907 9.87182 13.3054 9.72192 13.6465L9.10376 13.375C9.68398 13.6303 9.71986 13.6462 9.72192 13.6475L9.72095 13.6494C9.72051 13.6503 9.71943 13.6514 9.71899 13.6523C9.71808 13.6544 9.71712 13.6569 9.71606 13.6592C9.71397 13.6637 9.71189 13.6693 9.70923 13.6748C9.70383 13.6859 9.69658 13.6992 9.68872 13.7139C9.67293 13.7434 9.65153 13.78 9.62427 13.8213C9.56985 13.9037 9.48834 14.0097 9.37329 14.1143C9.13417 14.3315 8.76623 14.5292 8.26099 14.5293C8.01512 14.5293 7.7853 14.4817 7.58032 14.3604C7.3945 14.2501 7.2763 14.1021 7.23462 14.0518C7.22669 14.0514 7.21701 14.0498 7.2063 14.0498C7.06234 14.0498 7.00866 14.0698 7.00024 14.0732C6.99838 14.0739 6.99295 14.0747 6.94946 14.1143C6.9164 14.1443 6.78257 14.2783 6.6106 14.3721C6.41242 14.4801 6.19178 14.5293 5.94165 14.5293C5.69478 14.5293 5.4683 14.4812 5.26587 14.3662C5.07543 14.258 4.9542 14.1137 4.90747 14.0605C4.90404 14.0566 4.90064 14.0531 4.89771 14.0498C4.89455 14.0498 4.89055 14.0498 4.88696 14.0498C4.72067 14.0499 4.61756 14.0969 4.54224 14.1455C4.49971 14.173 4.4604 14.2053 4.41528 14.2451C4.40376 14.2553 4.39188 14.2649 4.37915 14.2764C4.36725 14.287 4.3524 14.3 4.33813 14.3125C4.31339 14.3343 4.26784 14.3744 4.21411 14.4111C3.90636 14.6213 3.48595 14.543 3.27563 14.2354C3.06543 13.9276 3.14476 13.5072 3.45239 13.2969C3.40277 13.3302 3.97885 12.7005 4.88696 12.7002C5.13396 12.7002 5.36121 12.7483 5.56372 12.8633C5.75395 12.9714 5.87437 13.1158 5.92114 13.1689C5.92405 13.1723 5.92641 13.1758 5.92896 13.1787C5.93276 13.1788 5.93714 13.1787 5.94165 13.1787C5.95558 13.1787 5.96622 13.1774 5.97388 13.1768C5.98579 13.1659 6.0065 13.1468 6.04126 13.1152C6.12812 13.0363 6.26911 12.9153 6.48462 12.8262C6.69521 12.7392 6.93231 12.7002 7.2063 12.7002C7.45543 12.7002 7.68683 12.7448 7.8938 12.8594C8.09158 12.969 8.21162 13.116 8.26392 13.1787C8.38779 13.178 8.44072 13.1373 8.46509 13.1152C8.48099 13.1008 8.49213 13.0868 8.49731 13.0791C8.49648 13.0807 8.49573 13.0832 8.49438 13.0859L8.48853 13.0977L8.48755 13.1006L8.48657 13.1016V13.1035ZM12.3733 5.50879C12.6107 5.28511 12.9681 5.26662 13.2249 5.44727L13.3284 5.53711L13.3293 5.53906L13.3362 5.5459C13.3394 5.54939 13.3428 5.55393 13.3469 5.55859C13.3553 5.56804 13.3664 5.57955 13.3782 5.59375C13.4016 5.622 13.4311 5.66025 13.4641 5.70703C13.5293 5.79956 13.6122 5.9345 13.6799 6.10254C13.8178 6.4451 13.9024 6.96104 13.6106 7.50391C13.4667 7.77145 13.2669 7.97249 13.0061 8.08691C12.7801 8.18582 12.5517 8.19353 12.4719 8.19922C12.4494 8.20084 12.4316 8.20375 12.4182 8.20508C12.4158 8.2092 12.4122 8.2136 12.4094 8.21875C12.338 8.3516 12.34 8.4077 12.3401 8.41309C12.3401 8.42231 12.3387 8.44083 12.3743 8.5293C12.399 8.59086 12.4954 8.79643 12.5247 9.01855C12.5598 9.28639 12.5069 9.55483 12.3616 9.8252C12.2177 10.0927 12.0215 10.291 11.7688 10.4082C11.5455 10.5117 11.3209 10.5266 11.2307 10.5352C11.2004 10.538 11.1776 10.5381 11.1614 10.54C11.0867 10.6792 11.0853 10.8034 11.1135 10.9346C11.1289 11.0058 11.1535 11.0766 11.1838 11.1553C11.1915 11.175 11.1981 11.195 11.2063 11.2158C11.2141 11.2355 11.2233 11.2583 11.2317 11.2803C11.2464 11.3186 11.271 11.3845 11.2883 11.4551C11.377 11.817 11.1561 12.1826 10.7942 12.2715C10.4322 12.3602 10.0667 12.1383 9.97778 11.7764C9.99608 11.8531 9.46977 10.8362 9.9729 9.90039C10.1168 9.63294 10.314 9.43553 10.5667 9.31836C10.7896 9.21502 11.0133 9.19997 11.1038 9.19141C11.1338 9.18855 11.1568 9.18655 11.1731 9.18457C11.1751 9.18084 11.1775 9.17773 11.179 9.1748C11.1785 9.1734 11.1785 9.17148 11.178 9.16992C11.1645 9.13251 11.1527 9.10879 11.1223 9.0332C11.0708 8.90509 10.9911 8.69268 10.9895 8.4209C10.9879 8.14426 11.0665 7.86751 11.2209 7.58008C11.3654 7.31136 11.5608 7.10516 11.8176 6.98242C12.0506 6.87119 12.2793 6.85945 12.3762 6.85254C12.3965 6.85109 12.4133 6.84884 12.427 6.84766C12.4665 6.76453 12.4625 6.69226 12.428 6.60645C12.4084 6.55809 12.382 6.51577 12.3606 6.48535L12.342 6.45996L12.345 6.46289L12.262 6.35449C12.097 6.08758 12.1362 5.73246 12.3733 5.50879Z" fill="#332A2A"/>
</g>
<defs>
<clipPath id="clip0_2047_12750">
<rect width="23" height="23" fill="white"/>
</clipPath>
</defs>
</svg>
