<svg width="28" height="28" viewBox="0 0 28 28" fill="none" xmlns="http://www.w3.org/2000/svg">
<g clip-path="url(#clip0_2047_12749)">
<path d="M23.0344 2.76172C23.9726 2.88109 24.5798 3.86435 24.22 4.77539L22.5413 9.02539L21.5042 11.6504C21.352 12.0355 20.9166 12.2241 20.5315 12.0723C20.1463 11.9201 19.9566 11.4848 20.1086 11.0996L21.1458 8.47461L22.8127 4.25098C21.6637 4.26263 20.6285 4.95041 20.1741 6.00781L14.6262 18.9189C14.1924 19.9286 13.1988 20.5828 12.0999 20.583H8.05493C6.28237 20.583 4.76057 21.8457 4.43384 23.5879C4.41807 23.672 4.48303 23.75 4.5686 23.75H9.56177C9.97576 23.7503 10.3118 24.086 10.3118 24.5C10.3118 24.9141 9.97577 25.2497 9.56177 25.25H4.5686C3.54383 25.25 2.77135 24.3188 2.96021 23.3115C3.41998 20.8599 5.56057 19.083 8.05493 19.083H12.0999C12.5992 19.0828 13.0511 18.7859 13.2483 18.3271L18.7961 5.41602C19.4911 3.79875 21.0818 2.75014 22.842 2.75L23.0344 2.76172ZM19.0725 13.7246C19.2247 13.3394 19.6599 13.1506 20.0452 13.3027C20.4303 13.4549 20.6191 13.8902 20.467 14.2754L16.8196 23.5098C16.4049 24.5596 15.3908 25.2499 14.262 25.25H12.592C12.1778 25.25 11.842 24.9142 11.842 24.5C11.8421 24.0858 12.1778 23.75 12.592 23.75H14.262C14.775 23.7499 15.2366 23.4362 15.425 22.959L19.0725 13.7246ZM10.3967 16.6973C10.5637 16.3188 11.0062 16.1471 11.385 16.3135C11.764 16.4802 11.9363 16.9227 11.7698 17.3018L11.0833 17C11.6996 17.2712 11.7626 17.2996 11.7688 17.3027V17.3037L11.7678 17.3047C11.7674 17.3058 11.7674 17.3075 11.7668 17.3086C11.7658 17.3108 11.7641 17.3129 11.7629 17.3154C11.7606 17.3206 11.7582 17.3267 11.7551 17.333C11.7489 17.3458 11.7409 17.3617 11.7317 17.3789C11.7134 17.4131 11.6883 17.4556 11.6565 17.5039C11.5929 17.6003 11.4974 17.7241 11.3625 17.8467C11.0828 18.1008 10.6511 18.333 10.0559 18.333C9.76599 18.3329 9.49967 18.2774 9.26392 18.1377C9.04381 18.0071 8.90672 17.83 8.85864 17.7725C8.85303 17.7658 8.84736 17.7599 8.84302 17.7549C8.82711 17.7532 8.80378 17.75 8.77271 17.75C8.58705 17.7501 8.51233 17.7764 8.49341 17.7842C8.4802 17.7897 8.4672 17.7959 8.41138 17.8467C8.36759 17.8865 8.21271 18.0414 8.01294 18.1504C7.78398 18.2752 7.52741 18.333 7.23267 18.333C6.94177 18.3329 6.67874 18.2769 6.44556 18.1445C6.2259 18.0196 6.08615 17.8526 6.02856 17.7871C6.01564 17.7725 6.00417 17.7615 5.99634 17.7529C5.98487 17.752 5.9691 17.75 5.94946 17.75C5.73098 17.7501 5.59193 17.8124 5.49048 17.8779C5.43451 17.9141 5.38331 17.9556 5.32739 18.0049C5.3132 18.0174 5.29881 18.0302 5.28345 18.0439C5.2689 18.057 5.25067 18.0729 5.23364 18.0879C5.2037 18.1142 5.15061 18.1601 5.08911 18.2021C4.74724 18.4356 4.28082 18.3485 4.04712 18.0068C3.81379 17.6649 3.90173 17.1975 4.24341 16.9639C4.20458 16.9892 4.87426 16.2503 5.94946 16.25C6.24058 16.25 6.50421 16.307 6.73755 16.4395C6.95694 16.5642 7.09683 16.7303 7.15454 16.7959C7.167 16.8101 7.17708 16.8216 7.18481 16.8301C7.19633 16.8311 7.2123 16.833 7.23267 16.833C7.26737 16.833 7.28946 16.831 7.30103 16.8291C7.30225 16.8281 7.30348 16.8265 7.30493 16.8252C7.33113 16.8031 7.34364 16.7899 7.40259 16.7363C7.50608 16.6423 7.67051 16.5021 7.92114 16.3984C8.1667 16.297 8.44585 16.2501 8.77271 16.25C9.06749 16.25 9.33683 16.3034 9.57544 16.4355C9.80732 16.5642 9.94724 16.7366 10.009 16.8105C10.0156 16.8184 10.0215 16.826 10.0266 16.832C10.0348 16.8324 10.0448 16.833 10.0559 16.833C10.2302 16.833 10.3126 16.7737 10.3538 16.7363C10.3792 16.7132 10.396 16.6907 10.4045 16.6777C10.4063 16.6751 10.4077 16.6731 10.4084 16.6719C10.4077 16.6733 10.4064 16.6759 10.4045 16.6797C10.4035 16.6818 10.403 16.6846 10.4016 16.6875C10.4009 16.689 10.3995 16.6907 10.3987 16.6924L10.3977 16.6953L10.3967 16.6963V16.6973ZM15.2483 6.81641C15.5308 6.55028 15.9659 6.54534 16.2532 6.79395L16.3088 6.84863L16.3108 6.84961L16.3127 6.85156C16.3142 6.85309 16.316 6.85554 16.3176 6.85742C16.3213 6.86139 16.3256 6.8667 16.3303 6.87207C16.34 6.88301 16.3527 6.89744 16.3665 6.91406C16.3939 6.94718 16.4292 6.99176 16.468 7.04688C16.5451 7.15633 16.644 7.31516 16.7239 7.51367C16.8864 7.91741 16.9834 8.52217 16.6409 9.15918C16.472 9.47308 16.2419 9.70512 15.9417 9.83691C15.6795 9.9519 15.4137 9.96064 15.3137 9.96777C15.2647 9.97127 15.2329 9.97327 15.2141 9.97559C15.2062 9.9866 15.1939 10.0033 15.1799 10.0293C15.0885 10.1994 15.0851 10.279 15.0852 10.2998C15.0854 10.325 15.0906 10.3584 15.135 10.4688C15.1675 10.5493 15.2768 10.7877 15.3108 11.0459C15.3514 11.3557 15.2929 11.6681 15.1223 11.9854C14.9533 12.2995 14.7236 12.5279 14.4319 12.6631C14.1733 12.7829 13.9138 12.8009 13.802 12.8115C13.7371 12.8177 13.6994 12.8221 13.679 12.8252C13.6744 12.8323 13.6682 12.8419 13.6614 12.8545C13.56 13.0431 13.5579 13.2128 13.595 13.3848C13.6148 13.4767 13.6445 13.5672 13.6819 13.6641C13.6839 13.6694 13.737 13.8015 13.7424 13.8154C13.7602 13.8618 13.7889 13.9385 13.8088 14.0195C13.9075 14.4218 13.6603 14.8281 13.2581 14.9268C12.856 15.025 12.4505 14.779 12.3518 14.377C12.3668 14.4403 11.7448 13.2517 12.3401 12.1445C12.509 11.8305 12.7379 11.601 13.0295 11.4658C13.2881 11.3461 13.5476 11.329 13.6594 11.3184C13.7234 11.3123 13.7608 11.3068 13.7815 11.3037C13.7862 11.2964 13.794 11.2875 13.801 11.2744C13.8124 11.2531 13.8165 11.2381 13.8196 11.2295C13.8176 11.2224 13.816 11.2109 13.8108 11.1963C13.7939 11.1492 13.7785 11.1179 13.7424 11.0283C13.6805 10.8745 13.5881 10.6267 13.5862 10.3096C13.5843 9.98709 13.6749 9.66128 13.8586 9.31934C14.0288 9.00286 14.2567 8.76464 14.553 8.62305C14.8229 8.49415 15.0884 8.48016 15.2073 8.47168C15.2553 8.46826 15.2881 8.46702 15.3098 8.46484C15.3125 8.46016 15.3172 8.45539 15.3206 8.44922C15.3923 8.31565 15.3814 8.19777 15.3313 8.07324C15.3049 8.00799 15.2699 7.95144 15.2415 7.91113C15.2278 7.89177 15.2166 7.87856 15.2112 7.87207C15.2099 7.87053 15.2097 7.86881 15.2092 7.86816C14.9332 7.5664 14.9497 7.09788 15.2483 6.81641Z" fill="#332A2A"/>
</g>
<defs>
<clipPath id="clip0_2047_12749">
<rect width="28" height="28" fill="white"/>
</clipPath>
</defs>
</svg>
