<svg width="44" height="44" viewBox="0 0 44 44" fill="none" xmlns="http://www.w3.org/2000/svg">
<g clip-path="url(#clip0_2047_12776)">
<path d="M23.1891 38.5H6.70493C6.07879 38.5 5.60666 37.9312 5.72205 37.3157L6.11027 35.2452C6.55368 32.8804 8.61855 31.1667 11.0246 31.1667H19.7659C20.5653 31.1667 21.2879 30.6907 21.6034 29.9562L30.8117 8.52609C31.6007 6.68998 33.4072 5.50001 35.4056 5.50002L36.1132 5.50002C36.8188 5.50003 37.3025 6.2111 37.0433 6.86737L25.0492 37.2347C24.7476 37.9983 24.01 38.5 23.1891 38.5Z" fill="#E05149"/>
<path d="M36.1135 4.75C37.348 4.75019 38.1946 5.99431 37.7415 7.14258L35.0227 14.0254L33.3938 18.1504C33.2417 18.5356 32.8054 18.7243 32.4202 18.5723C32.0351 18.42 31.8462 17.9847 31.9983 17.5996L33.6272 13.4746L36.3459 6.5918C36.4106 6.42785 36.2897 6.25019 36.1135 6.25H35.4055C33.707 6.25012 32.1718 7.26171 31.5012 8.82227L22.2932 30.252C21.8593 31.2618 20.8649 31.9169 19.7659 31.917H11.0247C8.9796 31.9171 7.2248 33.3737 6.8479 35.3838L6.45923 37.4541C6.43051 37.6079 6.54885 37.75 6.70532 37.75H15.0247C15.4388 37.7501 15.7746 38.0859 15.7747 38.5C15.7747 38.9142 15.4388 39.2499 15.0247 39.25H6.70532C5.60962 39.25 4.78375 38.2547 4.9856 37.1777L5.37329 35.1074C5.88321 32.3879 8.25777 30.4171 11.0247 30.417H19.7659C20.2654 30.4169 20.7171 30.1191 20.9143 29.6602L30.1233 8.23047C31.0306 6.11908 33.1075 4.75012 35.4055 4.75H36.1135ZM30.3694 21.7246C30.5216 21.3394 30.9568 21.1506 31.342 21.3027C31.7271 21.4549 31.916 21.8902 31.7639 22.2754L25.7473 37.5098C25.3327 38.5595 24.3183 39.2498 23.1897 39.25H19.7874C19.3731 39.25 19.0374 38.9142 19.0374 38.5C19.0374 38.0858 19.3731 37.75 19.7874 37.75H23.1897C23.7026 37.7498 24.1634 37.436 24.3518 36.959L30.3694 21.7246ZM16.7346 27.1885C16.9046 26.8161 17.3431 26.6481 17.719 26.8135C18.0979 26.9804 18.2695 27.4227 18.1028 27.8018L17.4163 27.5C18.0647 27.7853 18.1009 27.8015 18.1028 27.8027L18.1018 27.8057C18.1013 27.8066 18.1003 27.8075 18.0999 27.8086C18.0988 27.811 18.0973 27.8136 18.0959 27.8164C18.0933 27.8222 18.0908 27.8294 18.0872 27.8369C18.0798 27.8521 18.0704 27.871 18.0588 27.8926C18.0356 27.936 18.0025 27.9925 17.9602 28.0566C17.876 28.1842 17.7491 28.3496 17.5686 28.5137C17.1972 28.8513 16.6184 29.167 15.803 29.167C15.4029 29.1669 15.0652 29.09 14.7766 28.9189C14.5039 28.7572 14.3333 28.5388 14.2502 28.4395C14.1552 28.3257 14.1337 28.3105 14.1125 28.2988C14.0972 28.2903 14.0186 28.25 13.7864 28.25C13.4543 28.25 13.2795 28.2969 13.1848 28.3359C13.0958 28.3728 13.0326 28.4203 12.9299 28.5137C12.8404 28.595 12.6441 28.7914 12.387 28.9316C12.1007 29.0877 11.7712 29.167 11.3665 29.167C10.9655 29.167 10.6294 29.0895 10.3411 28.9258C10.0662 28.7696 9.88939 28.5612 9.79517 28.4541C9.68776 28.332 9.66242 28.3105 9.63501 28.2949C9.62067 28.2868 9.55289 28.25 9.34985 28.25C8.44784 28.2501 8.23796 28.7069 7.7561 29.0361C7.41417 29.2695 6.94773 29.1816 6.71411 28.8398C6.48051 28.4979 6.56851 28.0315 6.9104 27.7979C6.90384 27.8023 6.91251 27.7958 6.95239 27.7607C7.02128 27.7002 7.00139 27.7164 7.09497 27.6338C7.2141 27.5287 7.37727 27.3922 7.58228 27.2598C8.00316 26.988 8.57901 26.75 9.34985 26.75C9.75111 26.75 10.0878 26.8274 10.3762 26.9912C10.651 27.1474 10.8269 27.3558 10.9211 27.4629C11.028 27.5843 11.0541 27.6055 11.0813 27.6211C11.0953 27.6291 11.163 27.667 11.3665 27.667C11.5661 27.667 11.6403 27.631 11.6692 27.6152C11.727 27.5837 11.7585 27.5512 11.9211 27.4033C12.0705 27.2676 12.285 27.0852 12.6116 26.9502C12.9329 26.8174 13.3127 26.75 13.7864 26.75C14.1986 26.75 14.545 26.8238 14.8401 26.9873C15.1288 27.1474 15.3042 27.3622 15.4006 27.4775C15.5079 27.6059 15.5246 27.618 15.5413 27.6279C15.5424 27.6286 15.5986 27.6669 15.803 27.667C16.1973 27.667 16.426 27.524 16.5588 27.4033C16.6299 27.3387 16.679 27.2747 16.7083 27.2305C16.7226 27.2088 16.732 27.1923 16.7356 27.1855L16.7346 27.1885ZM25.0784 11.3711C25.3798 11.0871 25.8548 11.101 26.1389 11.4023L25.593 11.917C26.1199 11.4205 26.139 11.4027 26.1399 11.4023V11.4033L26.1418 11.4043C26.1425 11.405 26.1431 11.4065 26.1438 11.4072C26.1453 11.4089 26.1468 11.411 26.1487 11.4131C26.153 11.4178 26.1592 11.4238 26.1653 11.4307C26.1776 11.4445 26.1937 11.4631 26.2122 11.4854C26.249 11.5298 26.2969 11.5915 26.3508 11.668C26.4581 11.8203 26.595 12.0414 26.7053 12.3154C26.9285 12.8701 27.0578 13.681 26.5969 14.5381C26.3689 14.9622 26.0715 15.2498 25.7014 15.4121C25.3697 15.5576 25.0314 15.5716 24.8577 15.584C24.6446 15.5992 24.576 15.6137 24.5237 15.6387C24.4977 15.6511 24.414 15.6933 24.3 15.9053C24.1291 16.2233 24.1002 16.4183 24.1008 16.5361C24.1016 16.6592 24.1335 16.7723 24.2083 16.958C24.2709 17.1135 24.4137 17.4227 24.4583 17.7607C24.5094 18.1502 24.4391 18.551 24.2092 18.9785C23.9811 19.4027 23.6841 19.6894 23.3215 19.8574C22.9917 20.0102 22.6573 20.035 22.4709 20.0527C22.2465 20.074 22.1696 20.0885 22.1096 20.1162C22.0825 20.1288 22.0097 20.1639 21.9124 20.3447C21.4426 21.2183 21.9293 21.762 22.1057 22.4814C22.2042 22.8836 21.9581 23.2891 21.5559 23.3877C21.1537 23.4861 20.7483 23.2401 20.6497 22.8379C20.6505 22.8412 20.6488 22.8361 20.6428 22.8184C20.637 22.8012 20.629 22.7783 20.6174 22.748C20.5784 22.6462 20.5783 22.6513 20.5256 22.5146C20.4531 22.3267 20.3634 22.0768 20.301 21.7881C20.1736 21.1974 20.1607 20.437 20.592 19.6348C20.8202 19.2107 21.1162 18.9239 21.4788 18.7559C21.8086 18.6031 22.143 18.5773 22.3293 18.5596C22.554 18.5382 22.6317 18.5248 22.6917 18.4971C22.7191 18.4843 22.7911 18.4475 22.8879 18.2676C22.9834 18.0899 22.9782 18.004 22.9719 17.9561C22.9589 17.8574 22.921 17.7768 22.8167 17.5176C22.7244 17.2883 22.6033 16.9601 22.6008 16.5449C22.5984 16.1246 22.716 15.683 22.9788 15.1943C23.212 14.7607 23.5086 14.461 23.8762 14.2852C24.2178 14.1219 24.5586 14.1016 24.7512 14.0879C24.983 14.0714 25.0477 14.0605 25.0989 14.0381C25.1122 14.0323 25.1785 14.0077 25.2756 13.8271C25.4657 13.4734 25.4236 13.1504 25.3127 12.875C25.2561 12.7343 25.1838 12.6154 25.1252 12.5322C25.0966 12.4915 25.0726 12.4602 25.0579 12.4424L25.0442 12.4277L25.0452 12.4287L24.9973 12.373C24.7659 12.0716 24.7961 11.6375 25.0784 11.3711Z" fill="#332A2A"/>
</g>
<defs>
<clipPath id="clip0_2047_12776">
<rect width="44" height="44" fill="white"/>
</clipPath>
</defs>
</svg>
