<svg width="18" height="18" viewBox="0 0 18 18" fill="none" xmlns="http://www.w3.org/2000/svg">
<g clip-path="url(#clip0_2047_12751)">
<path d="M15.375 1.625C15.5818 1.625 15.7752 1.72745 15.8916 1.89844C16.008 2.06951 16.0321 2.28705 15.9561 2.47949L11.124 14.7139C10.7282 15.716 9.76012 16.375 8.68262 16.375H3.24512C2.3367 16.3748 1.65192 15.5492 1.81934 14.6562C2.09463 13.1887 3.37595 12.1251 4.86914 12.125H7.30762C7.85715 12.125 8.35433 11.7979 8.57129 11.293L11.7822 3.81934C12.3542 2.48817 13.6644 1.62502 15.1133 1.625H15.375ZM14.415 2.97949C13.7597 3.18101 13.2104 3.6614 12.9307 4.3125L9.71973 11.7861C9.30553 12.7501 8.35676 13.375 7.30762 13.375H4.86914C3.97743 13.3751 3.21224 14.0103 3.04785 14.8867C3.02467 15.0104 3.11937 15.1248 3.24512 15.125H8.68262C9.24701 15.125 9.7536 14.7798 9.96094 14.2549L14.415 2.97949ZM5.63965 10C5.84617 10 6.04458 10.037 6.22461 10.1367C6.35921 10.2113 6.45009 10.308 6.50391 10.3691C6.54422 10.3633 6.55764 10.3523 6.56055 10.3496C6.56318 10.3472 6.56565 10.3448 6.56738 10.3428L6.55469 10.3682L6.55371 10.3711V10.3721L6.61523 10.2627C6.78333 10.0257 7.1006 9.93114 7.37695 10.0527C7.65317 10.1743 7.79742 10.4719 7.73633 10.7559L7.69727 10.877L7.69629 10.8779V10.8789C7.6959 10.8798 7.69476 10.8809 7.69434 10.8818C7.69354 10.8836 7.69328 10.8857 7.69238 10.8877C7.69049 10.8918 7.68792 10.8965 7.68555 10.9014C7.68077 10.9112 7.67482 10.9227 7.66797 10.9355C7.65431 10.9611 7.63654 10.9931 7.61328 11.0283C7.56715 11.0982 7.49838 11.1872 7.40137 11.2754C7.19881 11.4595 6.88769 11.625 6.46484 11.625C6.25973 11.625 6.06182 11.5856 5.88281 11.4795C5.75586 11.4042 5.66722 11.307 5.61914 11.251C5.56351 11.2521 5.53314 11.2558 5.52051 11.2588C5.53025 11.2536 5.53158 11.2502 5.50391 11.2754C5.48286 11.2945 5.36729 11.4097 5.21973 11.4902C5.04812 11.5838 4.85921 11.6249 4.65039 11.625C4.4443 11.625 4.24945 11.5845 4.07324 11.4844C3.9361 11.4064 3.84165 11.3066 3.79297 11.252C3.70331 11.2571 3.64864 11.283 3.60742 11.3096C3.58003 11.3273 3.55319 11.3482 3.51953 11.3779C3.5109 11.3856 3.50213 11.3934 3.49219 11.4023C3.48295 11.4106 3.47064 11.4214 3.45898 11.4316C3.43924 11.449 3.39974 11.4834 3.35254 11.5156C3.06759 11.7103 2.67914 11.6374 2.48438 11.3525C2.28967 11.0676 2.36258 10.6791 2.64746 10.4844C2.58084 10.5296 3.07424 10 3.8252 10C4.03121 10 4.22619 10.0405 4.40234 10.1406C4.52232 10.2089 4.60856 10.2949 4.66113 10.3516L4.66309 10.3496C4.73413 10.285 4.85432 10.1824 5.03809 10.1064C5.21754 10.0323 5.41608 10 5.63965 10ZM9.79102 3.5459C10.0422 3.30925 10.4381 3.32029 10.6748 3.57129L10.6768 3.57324L10.6787 3.57422C10.6799 3.57551 10.6812 3.57759 10.6826 3.5791C10.6854 3.58216 10.6888 3.58585 10.6924 3.58984C10.6996 3.59794 10.7079 3.60828 10.7178 3.62012C10.7376 3.64401 10.7625 3.67674 10.79 3.71582C10.8442 3.7927 10.9134 3.90402 10.9697 4.04395C11.0849 4.33009 11.1562 4.76517 10.9102 5.22266C10.7892 5.44767 10.6187 5.62203 10.3916 5.72168C10.2105 5.801 10.0281 5.81186 9.95605 5.81641C9.92474 5.88223 9.92766 5.90105 9.92773 5.88867C9.92766 5.87706 9.92233 5.87657 9.94922 5.94336C9.96613 5.98527 10.0464 6.16073 10.0713 6.34961C10.1016 6.58118 10.056 6.81142 9.93359 7.03906C9.81256 7.26415 9.64421 7.43535 9.4248 7.53711C9.23363 7.6257 9.04264 7.63901 8.97363 7.64551C8.94962 7.71055 8.95064 7.77146 8.96582 7.8418C8.97631 7.89024 8.99363 7.94042 9.0166 8C9.02232 8.01481 9.02782 8.0298 9.03418 8.0459C9.04024 8.06124 9.04787 8.07987 9.05469 8.09766C9.06627 8.12788 9.08744 8.18381 9.10254 8.24512C9.18473 8.58022 8.97953 8.91955 8.64453 9.00195C8.3095 9.084 7.97105 8.87887 7.88867 8.54395C7.91264 8.64417 7.47658 7.78241 7.89355 7.00684C8.01464 6.78164 8.18376 6.61053 8.40332 6.50879C8.55004 6.44088 8.69688 6.42027 8.78809 6.41016C8.74659 6.30703 8.67912 6.12587 8.67773 5.89453C8.67648 5.65866 8.74336 5.42625 8.87012 5.19043C8.9908 4.96598 9.15707 4.78826 9.37988 4.68164C9.55969 4.59572 9.73667 4.58155 9.8252 4.5752C9.82512 4.55712 9.81999 4.53662 9.80957 4.51074C9.79771 4.48138 9.7822 4.45393 9.76855 4.43457C9.76265 4.42622 9.75751 4.42095 9.75586 4.41895L9.7627 4.42578L9.76465 4.42676C9.52943 4.17567 9.54082 3.78226 9.79102 3.5459Z" fill="#332A2A"/>
</g>
<defs>
<clipPath id="clip0_2047_12751">
<rect width="18" height="18" fill="white"/>
</clipPath>
</defs>
</svg>
