<svg width="44" height="44" viewBox="0 0 44 44" fill="none" xmlns="http://www.w3.org/2000/svg">
<g clip-path="url(#clip0_189_465)">
<path fill-rule="evenodd" clip-rule="evenodd" d="M20.5202 6.58337C20.106 6.58337 19.7702 6.91916 19.7702 7.33337C19.7702 7.59204 19.9012 7.82012 20.1004 7.95495L6.46617 13.8508L6.48206 13.7555C6.55016 13.3469 6.27414 12.9605 5.86557 12.8924C5.45699 12.8243 5.07057 13.1003 5.00247 13.5089L4.76021 14.9625C4.72397 15.1799 4.78524 15.4023 4.92774 15.5705C5.07024 15.7388 5.27954 15.8358 5.50001 15.8358H9.61846C10.0327 15.8358 10.3685 15.5 10.3685 15.0858C10.3685 14.6715 10.0327 14.3358 9.61846 14.3358H9.12397L22.2002 8.68116C22.1497 9.03327 22.3563 9.38199 22.7057 9.49846C23.0986 9.62944 23.5234 9.41707 23.6544 9.02412L24.1389 7.57054C24.2151 7.34183 24.1768 7.09042 24.0358 6.89484C23.8949 6.69926 23.6685 6.58337 23.4274 6.58337H20.5202ZM26.3732 9.07555C26.5327 9.00162 26.7131 8.98608 26.8829 9.03164L35.7348 11.4068C36.0625 11.4947 36.2904 11.7918 36.2904 12.1311V26.8569C36.2904 27.149 36.1208 27.4145 35.8558 27.5373L20.4815 34.6627C20.3219 34.7366 20.1415 34.7521 19.9717 34.7066L11.1199 32.3315C10.7921 32.2435 10.5642 31.9465 10.5642 31.6071V16.8814C10.5642 16.5893 10.7338 16.3237 10.9988 16.2009L26.3732 9.07555ZM26.757 10.5509L13.505 16.6927L20.0976 18.4616L33.3496 12.3198L26.757 10.5509ZM34.7904 13.3054L20.9161 19.7355V26.6193V32.808L34.7904 26.3778V13.3054ZM19.4161 33.0044V26.6193V19.8318L12.0642 17.8591V31.0318L19.4161 33.0044ZM35.7595 29.1369C35.7595 28.7227 36.0953 28.3869 36.5095 28.3869H39.4166C39.8308 28.3869 40.1666 28.7227 40.1666 29.1369V30.5905C40.1666 31.0047 39.8308 31.3405 39.4166 31.3405C39.0024 31.3405 38.6666 31.0047 38.6666 30.5905V30.3693L28.4479 35.6548H29.4839C29.8981 35.6548 30.2339 35.9906 30.2339 36.4048C30.2339 36.819 29.8981 37.1548 29.4839 37.1548H25.3654C25.145 37.1548 24.9357 37.0578 24.7932 36.8896C24.6507 36.7214 24.5894 36.499 24.6256 36.2815L24.8679 34.8279C24.936 34.4193 25.3224 34.1433 25.731 34.2114C26.1316 34.2782 26.4048 34.651 26.3511 35.0506L36.3621 29.8725C36.0185 29.804 35.7595 29.5007 35.7595 29.1369Z" fill="#252323"/>
</g>
<defs>
<clipPath id="clip0_189_465">
<rect width="44" height="44" fill="white"/>
</clipPath>
</defs>
</svg>
