<svg width="18" height="18" viewBox="0 0 18 18" fill="none" xmlns="http://www.w3.org/2000/svg">
<g clip-path="url(#clip0_607_3506)">
<path fill-rule="evenodd" clip-rule="evenodd" d="M8.39465 2.5C8.1185 2.5 7.89465 2.72386 7.89465 3C7.89465 3.06064 7.90544 3.11876 7.92521 3.17254L2.81063 5.38425C2.74649 5.23092 2.60736 5.11293 2.43131 5.08359C2.15893 5.03819 1.90131 5.2222 1.85591 5.49459L1.75681 6.08923C1.73264 6.23421 1.77349 6.38247 1.86849 6.49462C1.9635 6.60676 2.10303 6.67143 2.25 6.67143H3.93483C4.21097 6.67143 4.43483 6.44757 4.43483 6.17143C4.43483 6.0393 4.38357 5.91914 4.29987 5.82975L8.94083 3.82284C8.99844 3.93518 9.09838 4.02591 9.2276 4.06898C9.48958 4.15631 9.77274 4.01473 9.86006 3.75276L10.0583 3.15811C10.1091 3.00564 10.0835 2.83803 9.98955 2.70764C9.89558 2.57726 9.74465 2.5 9.58393 2.5H8.39465ZM10.7078 3.53743C10.8141 3.48815 10.9344 3.47779 11.0476 3.50816L14.6688 4.4798C14.8873 4.53843 15.0393 4.73648 15.0393 4.96272V10.9869C15.0393 11.1816 14.9262 11.3586 14.7495 11.4405L8.46001 14.3554C8.35367 14.4047 8.23339 14.4151 8.12019 14.3847L4.49897 13.4131C4.28046 13.3544 4.12854 13.1564 4.12854 12.9302V6.906C4.12854 6.71126 4.24161 6.53424 4.4183 6.45235L10.7078 3.53743ZM10.9637 4.52101L6.08906 6.7802L8.20412 7.3477L13.0787 5.08852L10.9637 4.52101ZM14.0393 5.74554L8.74977 8.197V10.8897V13.119L14.0393 10.6675V5.74554ZM7.74977 13.25V10.8897V8.26116L5.12854 7.55784V12.5466L7.74977 13.25ZM14.4357 11.9196C14.4357 11.6435 14.6596 11.4196 14.9357 11.4196H16.125C16.4011 11.4196 16.625 11.6435 16.625 11.9196V12.5143C16.625 12.7904 16.4011 13.0143 16.125 13.0143C15.9217 13.0143 15.7467 12.8929 15.6685 12.7187L12.3072 14.4573C12.4591 14.5431 12.5616 14.706 12.5616 14.8929C12.5616 15.169 12.3377 15.3929 12.0616 15.3929H10.3768C10.2298 15.3929 10.0903 15.3282 9.99526 15.216C9.90026 15.1039 9.85941 14.9556 9.88358 14.8107L9.98268 14.216C10.0281 13.9436 10.2857 13.7596 10.5581 13.805C10.7135 13.8309 10.8401 13.9259 10.9118 14.0532L14.5148 12.1896C14.4647 12.1117 14.4357 12.0191 14.4357 11.9196Z" fill="#332A2A"/>
</g>
<defs>
<clipPath id="clip0_607_3506">
<rect width="18" height="18" fill="white"/>
</clipPath>
</defs>
</svg>
