<svg width="28" height="28" viewBox="0 0 28 28" fill="none" xmlns="http://www.w3.org/2000/svg">
<g clip-path="url(#clip0_607_3474)">
<path fill-rule="evenodd" clip-rule="evenodd" d="M13.0583 3.91663C12.6441 3.91663 12.3083 4.25241 12.3083 4.66663C12.3083 4.76686 12.328 4.8625 12.3637 4.9499L4.35682 8.41232C4.26586 8.16966 4.05147 7.98083 3.77747 7.93516C3.36889 7.86707 2.98247 8.14308 2.91438 8.55166L2.76021 9.47666C2.72397 9.69412 2.78524 9.91652 2.92774 10.0847C3.07024 10.253 3.27954 10.35 3.50001 10.35H6.12084C6.53505 10.35 6.87084 10.0142 6.87084 9.59996C6.87084 9.38743 6.78244 9.19554 6.6404 9.05907L13.9212 5.91061C14.0055 6.08983 14.1601 6.23557 14.3628 6.30314C14.7558 6.43412 15.1805 6.22175 15.3115 5.8288L15.6199 4.9038C15.6961 4.67509 15.6577 4.42367 15.5168 4.22809C15.3758 4.03252 15.1494 3.91663 14.9083 3.91663H13.0583ZM16.6682 5.52784C16.8278 5.45391 17.0082 5.43837 17.178 5.48393L22.811 6.99537C23.1388 7.08331 23.3666 7.38039 23.3666 7.71975V17.0907C23.3666 17.3828 23.197 17.6483 22.932 17.7711L13.1483 22.3054C12.9888 22.3794 12.8084 22.3949 12.6386 22.3494L7.00559 20.8379C6.67783 20.75 6.44996 20.4529 6.44996 20.1135V10.7426C6.44996 10.4505 6.61956 10.185 6.88459 10.0622L16.6682 5.52784ZM17.0521 7.00321L9.39074 10.5539L12.7645 11.4592L20.4258 7.90845L17.0521 7.00321ZM21.8666 8.89397L13.583 12.7331V16.9395V20.4507L21.8666 16.6116V8.89397ZM12.083 20.6472V16.9395V12.8294L7.94996 11.7204V19.5382L12.083 20.6472ZM22.4833 18.5416C22.4833 18.1274 22.8191 17.7916 23.2333 17.7916H25.0833C25.4975 17.7916 25.8333 18.1274 25.8333 18.5416V19.4666C25.8333 19.8808 25.4975 20.2166 25.0833 20.2166C24.7679 20.2166 24.4979 20.0219 24.3871 19.7461L19.0843 22.489C19.3375 22.6094 19.5125 22.8676 19.5125 23.1666C19.5125 23.5808 19.1767 23.9166 18.7625 23.9166H16.1416C15.9212 23.9166 15.7119 23.8196 15.5694 23.6514C15.4269 23.4832 15.3656 23.2608 15.4019 23.0433L15.556 22.1183C15.6241 21.7097 16.0105 21.4337 16.4191 21.5018C16.6617 21.5423 16.8575 21.6949 16.9624 21.8977L22.6189 18.9719C22.5335 18.8501 22.4833 18.7017 22.4833 18.5416Z" fill="#332A2A"/>
</g>
<defs>
<clipPath id="clip0_607_3474">
<rect width="28" height="28" fill="white"/>
</clipPath>
</defs>
</svg>
