<svg width="23" height="23" viewBox="0 0 23 23" fill="none" xmlns="http://www.w3.org/2000/svg">
<g clip-path="url(#clip0_607_3487)">
<path fill-rule="evenodd" clip-rule="evenodd" d="M10.7265 3.20837C10.3813 3.20837 10.1015 3.4882 10.1015 3.83337C10.1015 3.91381 10.1167 3.99069 10.1444 4.06132L3.58382 6.89831C3.50619 6.70031 3.32942 6.54694 3.10439 6.50944C2.76391 6.45269 2.44189 6.6827 2.38515 7.02318L2.25851 7.78301C2.22831 7.96423 2.27937 8.14956 2.39812 8.28974C2.51687 8.42992 2.69128 8.51076 2.875 8.51076H5.02783C5.37301 8.51076 5.65283 8.23093 5.65283 7.88576C5.65283 7.71346 5.58311 7.55744 5.47034 7.44438L11.4309 4.86682C11.5019 5.01259 11.6292 5.1308 11.7952 5.18612C12.1227 5.29528 12.4766 5.1183 12.5858 4.79084L12.8391 4.03102C12.9026 3.84042 12.8706 3.63091 12.7532 3.46793C12.6357 3.30495 12.447 3.20837 12.2461 3.20837H10.7265ZM13.688 4.5327C13.8209 4.47109 13.9713 4.45814 14.1128 4.49611L18.7399 5.73765C19.013 5.81093 19.2029 6.0585 19.2029 6.34129V14.0388C19.2029 14.2823 19.0616 14.5035 18.8407 14.6059L10.8042 18.3305C10.6712 18.3921 10.5209 18.4051 10.3794 18.3671L5.75228 17.1256C5.47914 17.0523 5.28925 16.8047 5.28925 16.5219V8.82437C5.28925 8.58095 5.43058 8.35967 5.65144 8.25731L13.688 4.5327ZM14.0079 5.76217L7.7399 8.66712L10.4843 9.40349L16.7523 6.49855L14.0079 5.76217ZM17.9529 7.31982L11.1664 10.4651V13.9147V16.7849L17.9529 13.6396V7.31982ZM9.91637 16.9486V13.9147V10.5453L6.53925 9.63918V16.0425L9.91637 16.9486ZM18.4595 15.2307C18.4595 14.8855 18.7393 14.6057 19.0845 14.6057H20.6041C20.9493 14.6057 21.2291 14.8855 21.2291 15.2307V15.9905C21.2291 16.3357 20.9493 16.6155 20.6041 16.6155C20.3448 16.6155 20.1223 16.4575 20.0277 16.2325L15.6962 18.473C15.8985 18.5764 16.037 18.7869 16.037 19.0298C16.037 19.375 15.7572 19.6548 15.412 19.6548H13.2592C13.0755 19.6548 12.9011 19.574 12.7823 19.4338C12.6636 19.2936 12.6125 19.1083 12.6427 18.927L12.7694 18.1672C12.8261 17.8267 13.1481 17.5967 13.4886 17.6535C13.6876 17.6866 13.8488 17.8104 13.9372 17.9755L18.5667 15.5809C18.4991 15.481 18.4595 15.3604 18.4595 15.2307Z" fill="#252323"/>
</g>
<defs>
<clipPath id="clip0_607_3487">
<rect width="23" height="23" fill="white"/>
</clipPath>
</defs>
</svg>
