<svg width="23" height="23" viewBox="0 0 23 23" fill="none" xmlns="http://www.w3.org/2000/svg">
<g clip-path="url(#clip0_1815_13189)">
<path d="M11.5 15.8711C12.4887 15.8711 13.2536 16.1652 13.9326 16.6689C14.0007 17.1264 14.1622 17.5531 14.3955 17.9307L14.0664 18.7363C13.4192 18.074 12.5085 17.6621 11.5 17.6621C10.4915 17.6621 9.58082 18.074 8.93359 18.7363L8.06055 17.3037C8.92793 16.4205 10.1484 15.8711 11.5 15.8711ZM11.5 10.7119C13.4712 10.7119 15.2546 11.5448 16.5479 12.8896C15.6224 13.0867 14.8385 13.6662 14.3682 14.4541C13.5398 13.8997 12.5559 13.5781 11.5 13.5781C9.98711 13.5781 8.62125 14.238 7.65039 15.2979L6.34082 13.0049C7.64189 11.5917 9.47254 10.7119 11.5 10.7119ZM11.5 3.83301C14.6538 3.83301 17.5015 5.15273 19.5254 7.27246L17.4883 10.7119C15.978 9.12211 13.8534 8.13281 11.5 8.13281C9.14661 8.13282 7.02195 9.12211 5.51172 10.7119L3.47461 7.27246C4.30356 6.40425 5.27113 5.67049 6.34082 5.10645C7.8827 4.29349 9.63806 3.83301 11.5 3.83301Z" fill="#E05149"/>
<path d="M11.5005 10.0371C13.6775 10.0373 15.6415 10.9625 17.0552 12.4434C17.1257 12.4395 17.1966 12.4375 17.2681 12.4375C18.6152 12.4376 19.8016 13.1262 20.4946 14.168C20.6475 14.3979 20.5849 14.7084 20.355 14.8613C20.1251 15.0138 19.8144 14.9515 19.6616 14.7217C19.1461 13.9469 18.2663 13.4376 17.2681 13.4375C15.6818 13.4379 14.395 14.7242 14.395 16.3105C14.3952 17.8967 15.6819 19.1822 17.2681 19.1826C18.8544 19.1824 20.14 17.8969 20.1401 16.3105C20.1401 16.0348 20.3645 15.8111 20.6401 15.8105C20.9163 15.8105 21.1401 16.0344 21.1401 16.3105C21.14 18.4492 19.4067 20.1824 17.2681 20.1826C16.2407 20.1824 15.307 19.7818 14.6138 19.1289C14.5031 19.2832 14.3331 19.3865 14.1431 19.4082C13.9361 19.4317 13.7291 19.3578 13.5835 19.209C13.0595 18.6728 12.3216 18.3371 11.5005 18.3369C10.6792 18.3369 9.94063 18.6727 9.4165 19.209C9.27103 19.3576 9.06458 19.4315 8.85791 19.4082C8.65098 19.3846 8.46638 19.2657 8.35791 19.0879L7.48486 17.6553C7.3241 17.3914 7.36319 17.0516 7.57959 16.8311C8.57036 15.8224 9.96291 15.1963 11.5005 15.1963C12.194 15.1964 12.8573 15.3252 13.4683 15.5576C13.5178 15.3061 13.5923 15.0635 13.688 14.832C13.0339 14.4633 12.2902 14.253 11.5005 14.2529C10.1901 14.253 8.99995 14.824 8.14795 15.7539C8.00241 15.9123 7.7895 15.9925 7.57568 15.9688C7.36155 15.9448 7.17188 15.8189 7.06494 15.6318L5.75537 13.3398C5.60982 13.0848 5.64572 12.7641 5.84424 12.5479C7.26445 11.0055 9.27218 10.0371 11.5005 10.0371ZM17.5825 13.5996C17.7143 13.6221 17.8156 13.7295 17.8306 13.8623L18.02 15.5791H18.481C18.5865 15.5792 18.6857 15.6349 18.7397 15.7256C18.7938 15.8164 18.7949 15.9296 18.7446 16.0225L17.2847 18.7109C17.2175 18.8339 17.0738 18.8938 16.939 18.8555C16.8043 18.8167 16.7141 18.6898 16.7222 18.5498L16.8228 16.791H16.2915C16.1887 16.7909 16.0925 16.7383 16.0376 16.6514C15.9828 16.5643 15.9767 16.4542 16.021 16.3613L16.3315 15.7129C16.4031 15.5639 16.5817 15.5003 16.731 15.5713C16.8802 15.6427 16.9437 15.8223 16.8726 15.9717L16.7671 16.1914H17.1411C17.2234 16.1915 17.3023 16.2254 17.3589 16.2852C17.4154 16.345 17.4454 16.4257 17.4409 16.5078L17.3979 17.2451L17.9771 16.1797H17.7515C17.5987 16.1795 17.4704 16.064 17.4536 15.9121L17.3491 14.9736L17.1831 15.3223C17.1116 15.4716 16.9321 15.5351 16.7827 15.4639C16.6335 15.3923 16.5698 15.2128 16.6411 15.0635L17.2622 13.7656L17.2866 13.7236C17.3521 13.6302 17.4671 13.5802 17.5825 13.5996ZM11.5005 16.5459C10.5242 16.5459 9.63001 16.8786 8.92822 17.4316L9.104 17.7197C9.78585 17.2577 10.6123 16.9873 11.5005 16.9873C12.2616 16.9874 12.9761 17.1874 13.5942 17.5352C13.5403 17.3733 13.4967 17.2067 13.4644 17.0361C12.882 16.7246 12.2137 16.546 11.5005 16.5459ZM11.5005 11.3867C9.84493 11.3868 8.33113 12.0384 7.18213 13.1162L7.81201 14.2197C8.82711 13.3968 10.1075 12.9034 11.5005 12.9033C12.561 12.9034 13.5561 13.1887 14.4185 13.6885C14.731 13.3489 15.1034 13.0653 15.519 12.8545C14.4122 11.9345 13.0166 11.3869 11.5005 11.3867ZM11.5005 3.1582C14.8464 3.15835 17.8677 4.55882 20.0132 6.80566C20.222 7.02434 20.2598 7.356 20.106 7.61621L18.0688 11.0557C17.961 11.2376 17.7741 11.3581 17.564 11.3818C17.3537 11.4056 17.1442 11.3301 16.9985 11.1768C15.6098 9.7149 13.6599 8.80679 11.5005 8.80664C9.34088 8.80664 7.39033 9.71483 6.00146 11.1768C5.85575 11.3301 5.64624 11.4056 5.43604 11.3818C5.22588 11.3581 5.03898 11.2376 4.93115 11.0557L2.89404 7.61621C2.74013 7.35599 2.77801 7.02435 2.98682 6.80566C3.86547 5.8855 4.89118 5.10711 6.02588 4.50879C7.66232 3.64602 9.52619 3.1582 11.5005 3.1582ZM11.5005 4.50781C9.75106 4.50781 8.10298 4.94012 6.65576 5.70312C5.80202 6.15329 5.01738 6.71922 4.32275 7.37988L5.65967 9.63672C7.22812 8.27873 9.2698 7.45703 11.5005 7.45703C13.7307 7.45716 15.7711 8.2791 17.3394 9.63672L18.6763 7.37891C16.804 5.59854 14.279 4.50795 11.5005 4.50781Z" fill="#332A2A"/>
</g>
<defs>
<clipPath id="clip0_1815_13189">
<rect width="23" height="23" fill="white"/>
</clipPath>
</defs>
</svg>
