<svg width="18" height="18" viewBox="0 0 18 18" fill="none" xmlns="http://www.w3.org/2000/svg">
<g clip-path="url(#clip0_1815_13274)">
<path d="M8.72765 7.48633C10.4383 7.48644 11.9824 8.20484 13.1027 9.35645C13.149 9.35442 13.1955 9.35254 13.2423 9.35254C14.3346 9.35258 15.2969 9.91135 15.8585 10.7559C16.0109 10.9857 15.9486 11.2964 15.7189 11.4492C15.4891 11.6019 15.1785 11.5391 15.0255 11.3096C14.6414 10.732 13.9858 10.3526 13.2423 10.3525C12.0608 10.3526 11.1028 11.3107 11.1027 12.4922C11.1029 13.6736 12.0609 14.6318 13.2423 14.6318C14.4237 14.6318 15.3817 13.6736 15.3819 12.4922C15.3821 12.2162 15.606 11.9922 15.8819 11.9922C16.1579 11.9923 16.3818 12.2163 16.3819 12.4922C16.3817 14.2259 14.976 15.6318 13.2423 15.6318C12.4452 15.6318 11.7198 15.3323 11.1661 14.8428C11.0686 14.9357 10.9434 14.9971 10.8068 15.0127C10.6152 15.0344 10.424 14.9659 10.2892 14.8281C9.89664 14.4265 9.34353 14.1758 8.72765 14.1758C8.11179 14.1758 7.55863 14.4265 7.16613 14.8281C7.03128 14.9659 6.84013 15.0345 6.64855 15.0127C6.45705 14.9909 6.28609 14.8813 6.18566 14.7168L5.50207 13.5947C5.35363 13.3505 5.38991 13.0361 5.58996 12.832C6.383 12.0245 7.49764 11.5235 8.72765 11.5234C9.23888 11.5234 9.73021 11.6092 10.1866 11.7686C10.2186 11.6331 10.2598 11.5011 10.3087 11.373C9.83112 11.1213 9.29464 10.9796 8.72765 10.9795C7.73115 10.9796 6.82558 11.4128 6.17589 12.1221C6.04115 12.269 5.84375 12.3433 5.64562 12.3213C5.44758 12.299 5.27197 12.1827 5.17296 12.0098L4.14757 10.2158C4.01266 9.97957 4.04649 9.68269 4.23058 9.48242C5.35906 8.25673 6.95498 7.48648 8.72765 7.48633ZM13.4562 10.4893C13.5623 10.5073 13.6434 10.5942 13.6554 10.7012L13.798 11.9854H14.1329C14.2179 11.9854 14.2964 12.0306 14.34 12.1035C14.3832 12.1765 14.3852 12.2672 14.3448 12.3418L13.2413 14.374C13.1873 14.473 13.0715 14.5221 12.963 14.4912C12.8547 14.4602 12.782 14.3576 12.7882 14.2451L12.8644 12.9307H12.4777C12.395 12.9306 12.3178 12.8881 12.2736 12.8184C12.2296 12.7484 12.2244 12.6596 12.2599 12.585L12.4943 12.0947C12.5518 11.9747 12.6963 11.9241 12.8165 11.9814C12.9363 12.0391 12.9869 12.1827 12.9298 12.3027L12.8605 12.4482H13.1193C13.1855 12.4482 13.2494 12.4754 13.295 12.5234C13.3404 12.5716 13.3642 12.637 13.3605 12.7031L13.3321 13.1953L13.7267 12.4688H13.5812C13.4584 12.4687 13.3548 12.3758 13.3409 12.2539L13.2677 11.5947L13.1642 11.8125C13.1066 11.9323 12.9629 11.9837 12.8429 11.9268C12.7229 11.8693 12.6716 11.7246 12.7286 11.6045L13.1974 10.623L13.2433 10.5586C13.2975 10.5034 13.3767 10.4758 13.4562 10.4893ZM8.72765 12.7734C8.01736 12.7735 7.36658 13.0072 6.84484 13.3955L6.8839 13.459C7.41597 13.1212 8.04937 12.9258 8.72765 12.9258C9.25282 12.9258 9.75036 13.044 10.1954 13.2539C10.1842 13.209 10.1734 13.1638 10.1642 13.1182C9.7353 12.8988 9.24753 12.7734 8.72765 12.7734ZM8.72765 8.73633C7.48485 8.73646 6.34503 9.214 5.46984 10.0107L5.87023 10.7119C6.66608 10.097 7.6543 9.72961 8.72765 9.72949C9.54415 9.72956 10.3092 9.94538 10.9796 10.3184C11.1881 10.1014 11.4273 9.91473 11.6905 9.76465C10.8609 9.11727 9.83588 8.73642 8.72765 8.73633ZM8.72765 2.10254C11.374 2.10254 13.7635 3.21048 15.4601 4.9873C15.6534 5.1898 15.6885 5.49635 15.546 5.7373L13.9523 8.42871C13.8525 8.59724 13.6791 8.7094 13.4845 8.73145C13.2898 8.75345 13.096 8.68305 12.9611 8.54102C11.8915 7.41516 10.3901 6.7168 8.72765 6.7168C7.06524 6.71683 5.56378 7.41514 4.49425 8.54102C4.35933 8.68304 4.16547 8.75344 3.97082 8.73145C3.7763 8.70935 3.60378 8.59717 3.50402 8.42871L1.90929 5.7373C1.76682 5.49637 1.80191 5.18978 1.99523 4.9873C2.69006 4.25958 3.50107 3.64413 4.39855 3.1709C5.69281 2.4885 7.16642 2.10256 8.72765 2.10254ZM8.72765 3.35254C7.37463 3.35256 6.10061 3.68634 4.98156 4.27637C4.34419 4.61244 3.75778 5.03311 3.23449 5.52148L4.18273 7.12305C5.41494 6.09033 6.9989 5.46682 8.72765 5.4668C10.4561 5.4668 12.0395 6.09067 13.2716 7.12305L14.2208 5.52051C12.7785 4.17463 10.8489 3.35254 8.72765 3.35254Z" fill="#332A2A"/>
</g>
<defs>
<clipPath id="clip0_1815_13274">
<rect width="18" height="18" fill="white"/>
</clipPath>
</defs>
</svg>
