<svg width="44" height="44" viewBox="0 0 44 44" fill="none" xmlns="http://www.w3.org/2000/svg">
<g clip-path="url(#clip0_1815_13127)">
<path d="M22 30.3613C23.8922 30.3613 25.3549 30.9264 26.6543 31.8906C26.7849 32.7654 27.0928 33.5817 27.5391 34.3037L26.9092 35.8447C25.671 34.5775 23.9295 33.7881 22 33.7881C20.0705 33.7881 18.329 34.5775 17.0908 35.8447L15.4209 33.1025C17.0802 31.4131 19.4144 30.3613 22 30.3613ZM22 20.4922C25.7724 20.4922 29.1878 22.0846 31.6621 24.6592C29.889 25.0353 28.3869 26.1432 27.4863 27.6523C25.9017 26.5916 24.02 25.9756 22 25.9756C19.1058 25.9756 16.493 27.2372 14.6357 29.2646L12.1309 24.8789C14.6199 22.1755 18.1214 20.4922 22 20.4922ZM22 7.33301C28.0334 7.33301 33.4807 9.85794 37.3525 13.9131L33.4561 20.4922C30.5669 17.4508 26.5021 15.5576 22 15.5576C17.4979 15.5576 13.4331 17.4508 10.5439 20.4922L6.64844 13.9131C8.2344 12.252 10.0843 10.8476 12.1309 9.76855C15.0805 8.21333 18.438 7.33301 22 7.33301Z" fill="#E05149"/>
<path d="M22.0007 19.7422C25.9507 19.7424 29.5256 21.3938 32.1257 24.0586C32.4236 24.021 32.7269 24 33.0349 24C35.5405 24 37.7468 25.2804 39.0359 27.2188C39.2652 27.5637 39.1718 28.0294 38.8269 28.2588C38.482 28.4878 38.0161 28.3946 37.7869 28.0498C36.764 26.5116 35.0174 25.5 33.0349 25.5C29.886 25.5003 27.3328 28.0531 27.3328 31.2021C27.3328 34.3512 29.886 36.904 33.0349 36.9043C36.1841 36.9043 38.7371 34.3514 38.7371 31.2021C38.7371 30.7882 39.0732 30.4525 39.4871 30.4521C39.9013 30.4521 40.237 30.788 40.2371 31.2021C40.2371 35.1798 37.0126 38.4043 33.0349 38.4043C30.9096 38.4041 28.9997 37.4829 27.6814 36.0186L27.5505 36.2344C27.4301 36.4319 27.2247 36.5635 26.9949 36.5898C26.765 36.6159 26.5346 36.5335 26.3728 36.3682C25.2715 35.2414 23.7207 34.5382 21.9998 34.5381C20.2786 34.5383 18.728 35.2411 17.6267 36.3682C17.4649 36.5336 17.2356 36.6159 17.0056 36.5898C16.7758 36.5636 16.5704 36.4318 16.45 36.2344L14.78 33.4932C14.6017 33.1999 14.6451 32.8221 14.8855 32.5771C16.6818 30.7481 19.2076 29.6115 21.9998 29.6113C23.3762 29.6114 24.6873 29.889 25.8787 30.3887C25.9752 29.5304 26.2234 28.7184 26.5945 27.9785C25.2324 27.1797 23.6665 26.7247 22.0007 26.7246C19.3315 26.7246 16.9145 27.8883 15.1892 29.7715C15.0276 29.9477 14.791 30.036 14.5535 30.0098C14.3156 29.9832 14.104 29.8445 13.9851 29.6367L11.4802 25.25C11.3185 24.9664 11.3588 24.6103 11.5798 24.3701C14.2012 21.5232 17.899 19.7422 22.0007 19.7422ZM33.616 26.1377C33.8144 26.1715 33.9667 26.3332 33.989 26.5332L34.364 29.9268H35.3562C35.5152 29.9269 35.6626 30.0109 35.7439 30.1475C35.8252 30.2841 35.8284 30.454 35.7527 30.5938L32.9597 35.7363C32.8588 35.9217 32.6422 36.0128 32.4392 35.9551C32.2362 35.897 32.1009 35.705 32.113 35.4941L32.3142 32H31.1667C31.0118 31.9999 30.8675 31.9201 30.7849 31.7891C30.7024 31.658 30.6927 31.4933 30.7595 31.3535L31.3533 30.1123C31.4609 29.8879 31.7302 29.7923 31.9548 29.8994C32.1795 30.0069 32.2749 30.2772 32.1677 30.502L31.8835 31.0967H32.7917C32.9157 31.0968 33.0347 31.1482 33.1199 31.2383C33.2051 31.3285 33.249 31.4503 33.2419 31.5742L33.1287 33.5322L34.5984 30.8291H33.9597C33.7298 30.829 33.5368 30.6563 33.5115 30.4277L33.2654 28.2041L32.7615 29.2607C32.6539 29.4854 32.3837 29.5801 32.1589 29.4727C31.9344 29.3651 31.8389 29.0958 31.946 28.8711L33.1335 26.3887L33.1707 26.3242C33.2692 26.1834 33.4422 26.1085 33.616 26.1377ZM21.9998 31.1113C19.8321 31.1115 17.8614 31.9161 16.3767 33.2314L17.2625 34.6846C18.559 33.6557 20.207 33.0382 21.9998 33.0381C23.787 33.0381 25.4306 33.6518 26.7253 34.6748C26.2859 33.878 25.9927 32.9896 25.8826 32.0449C24.7229 31.4499 23.403 31.1114 21.9998 31.1113ZM22.0007 21.2422C18.5367 21.2422 15.3861 22.6657 13.0603 24.9932L14.8025 28.043C16.7239 26.2927 19.2407 25.2246 22.0007 25.2246C23.968 25.2247 25.8091 25.7707 27.4011 26.7168C28.185 25.7335 29.2208 24.9611 30.4109 24.4951C28.1468 22.465 25.2093 21.2424 22.0007 21.2422ZM22.0007 6.58301C28.2476 6.58319 33.8874 9.19811 37.8943 13.3945C38.1263 13.6375 38.1688 14.0058 37.9978 14.2949L34.1013 20.874C33.9816 21.0762 33.7733 21.2108 33.5398 21.2373C33.3063 21.2636 33.0737 21.1791 32.9119 21.0088C30.1577 18.1096 26.2874 16.3078 22.0007 16.3076C17.7139 16.3076 13.8429 18.1095 11.0886 21.0088C10.9268 21.1791 10.6941 21.2635 10.4607 21.2373C10.2271 21.2109 10.019 21.0763 9.89917 20.874L6.00269 14.2949C5.83154 14.0058 5.87415 13.6376 6.1062 13.3945C7.74737 11.6757 9.66222 10.2216 11.781 9.10449C14.8357 7.49393 18.3139 6.58301 22.0007 6.58301ZM22.0007 8.08301C18.5639 8.08301 15.3256 8.932 12.4812 10.4316C10.6753 11.3838 9.02711 12.599 7.58765 14.0264L10.7 19.2822C13.6645 16.507 17.6362 14.8076 22.0007 14.8076C26.3648 14.8078 30.3351 16.5073 33.2996 19.2822L36.4128 14.0264C32.7057 10.3504 27.6169 8.08319 22.0007 8.08301Z" fill="#332A2A"/>
</g>
<defs>
<clipPath id="clip0_1815_13127">
<rect width="44" height="44" fill="white"/>
</clipPath>
</defs>
</svg>
