<svg width="44" height="44" viewBox="0 0 44 44" fill="none" xmlns="http://www.w3.org/2000/svg">
<g clip-path="url(#clip0_1815_13271)">
<path d="M22.0006 19.7422C25.9506 19.7424 29.5255 21.3938 32.1256 24.0586C32.4235 24.021 32.7268 24 33.0348 24C35.5404 24 37.7467 25.2804 39.0358 27.2188C39.2651 27.5637 39.1717 28.0294 38.8268 28.2588C38.4819 28.4878 38.016 28.3946 37.7868 28.0498C36.7639 26.5116 35.0173 25.5 33.0348 25.5C29.8859 25.5003 27.3327 28.0531 27.3327 31.2021C27.3327 34.3512 29.8859 36.904 33.0348 36.9043C36.184 36.9043 38.737 34.3514 38.737 31.2021C38.737 30.7882 39.0731 30.4525 39.487 30.4521C39.9012 30.4521 40.2369 30.788 40.237 31.2021C40.237 35.1798 37.0125 38.4043 33.0348 38.4043C30.9095 38.4041 28.9996 37.4829 27.6813 36.0186L27.5504 36.2344C27.43 36.4319 27.2246 36.5635 26.9948 36.5898C26.7649 36.6159 26.5345 36.5335 26.3727 36.3682C25.2714 35.2414 23.7206 34.5382 21.9997 34.5381C20.2785 34.5383 18.7279 35.2411 17.6266 36.3682C17.4648 36.5336 17.2355 36.6159 17.0055 36.5898C16.7757 36.5636 16.5703 36.4318 16.4498 36.2344L14.7799 33.4932C14.6016 33.1999 14.645 32.8221 14.8854 32.5771C16.6817 30.7481 19.2074 29.6115 21.9997 29.6113C23.3761 29.6114 24.6872 29.889 25.8786 30.3887C25.9751 29.5304 26.2233 28.7184 26.5944 27.9785C25.2323 27.1797 23.6664 26.7247 22.0006 26.7246C19.3314 26.7246 16.9144 27.8883 15.1891 29.7715C15.0275 29.9477 14.7909 30.036 14.5534 30.0098C14.3155 29.9832 14.1039 29.8445 13.985 29.6367L11.4801 25.25C11.3184 24.9664 11.3587 24.6103 11.5797 24.3701C14.2011 21.5232 17.8989 19.7422 22.0006 19.7422ZM33.6159 26.1377C33.8143 26.1715 33.9666 26.3332 33.9889 26.5332L34.3639 29.9268H35.3561C35.5151 29.9269 35.6624 30.0109 35.7438 30.1475C35.8251 30.2841 35.8283 30.454 35.7526 30.5938L32.9596 35.7363C32.8587 35.9217 32.6421 36.0128 32.4391 35.9551C32.2361 35.897 32.1008 35.705 32.1129 35.4941L32.3141 32H31.1666C31.0117 31.9999 30.8674 31.9201 30.7848 31.7891C30.7023 31.658 30.6926 31.4933 30.7594 31.3535L31.3532 30.1123C31.4608 29.8879 31.7301 29.7923 31.9547 29.8994C32.1794 30.0069 32.2748 30.2772 32.1676 30.502L31.8834 31.0967H32.7916C32.9156 31.0968 33.0346 31.1482 33.1198 31.2383C33.205 31.3285 33.2489 31.4503 33.2418 31.5742L33.1286 33.5322L34.5983 30.8291H33.9596C33.7296 30.829 33.5367 30.6563 33.5114 30.4277L33.2653 28.2041L32.7614 29.2607C32.6538 29.4854 32.3836 29.5801 32.1588 29.4727C31.9343 29.3651 31.8388 29.0958 31.9459 28.8711L33.1334 26.3887L33.1706 26.3242C33.2691 26.1834 33.4421 26.1085 33.6159 26.1377ZM21.9997 31.1113C19.832 31.1115 17.8613 31.9161 16.3766 33.2314L17.2623 34.6846C18.5589 33.6557 20.2069 33.0382 21.9997 33.0381C23.7869 33.0381 25.4305 33.6518 26.7252 34.6748C26.2858 33.878 25.9926 32.9896 25.8825 32.0449C24.7228 31.4499 23.4029 31.1114 21.9997 31.1113ZM22.0006 21.2422C18.5366 21.2422 15.386 22.6657 13.0602 24.9932L14.8024 28.043C16.7238 26.2927 19.2406 25.2246 22.0006 25.2246C23.9679 25.2247 25.809 25.7707 27.401 26.7168C28.1849 25.7335 29.2207 24.9611 30.4108 24.4951C28.1467 22.465 25.2092 21.2424 22.0006 21.2422ZM22.0006 6.58301C28.2475 6.58319 33.8873 9.19811 37.8942 13.3945C38.1262 13.6375 38.1687 14.0058 37.9977 14.2949L34.1012 20.874C33.9815 21.0762 33.7732 21.2108 33.5397 21.2373C33.3062 21.2636 33.0736 21.1791 32.9118 21.0088C30.1576 18.1096 26.2873 16.3078 22.0006 16.3076C17.7138 16.3076 13.8428 18.1095 11.0885 21.0088C10.9267 21.1791 10.694 21.2635 10.4606 21.2373C10.227 21.2109 10.0189 21.0763 9.89907 20.874L6.00258 14.2949C5.83144 14.0058 5.87404 13.6376 6.1061 13.3945C7.74727 11.6757 9.66211 10.2216 11.7809 9.10449C14.8356 7.49393 18.3138 6.58301 22.0006 6.58301ZM22.0006 8.08301C18.5638 8.08301 15.3255 8.932 12.4811 10.4316C10.6752 11.3838 9.02701 12.599 7.58754 14.0264L10.6998 19.2822C13.6644 16.507 17.6361 14.8076 22.0006 14.8076C26.3647 14.8078 30.335 16.5073 33.2995 19.2822L36.4127 14.0264C32.7056 10.3504 27.6168 8.08319 22.0006 8.08301Z" fill="#332A2A"/>
</g>
<defs>
<clipPath id="clip0_1815_13271">
<rect width="44" height="44" fill="white"/>
</clipPath>
</defs>
</svg>
