<svg width="23" height="23" viewBox="0 0 23 23" fill="none" xmlns="http://www.w3.org/2000/svg">
<g clip-path="url(#clip0_1815_13189)">
<path d="M11.5 15.8711C12.4887 15.8711 13.2536 16.1652 13.9326 16.6689C14.0007 17.1264 14.1622 17.5531 14.3955 17.9307L14.0664 18.7363C13.4192 18.074 12.5085 17.6621 11.5 17.6621C10.4915 17.6621 9.58082 18.074 8.93359 18.7363L8.06055 17.3037C8.92793 16.4205 10.1484 15.8711 11.5 15.8711ZM11.5 10.7119C13.4712 10.7119 15.2546 11.5448 16.5479 12.8896C15.6224 13.0867 14.8385 13.6662 14.3682 14.4541C13.5398 13.8997 12.5559 13.5781 11.5 13.5781C9.98711 13.5781 8.62125 14.238 7.65039 15.2979L6.34082 13.0049C7.64189 11.5917 9.47254 10.7119 11.5 10.7119ZM11.5 3.83301C14.6538 3.83301 17.5015 5.15273 19.5254 7.27246L17.4883 10.7119C15.978 9.12211 13.8534 8.13281 11.5 8.13281C9.14661 8.13281 7.02195 9.12211 5.51172 10.7119L3.47461 7.27246C4.30356 6.40425 5.27113 5.67049 6.34082 5.10645C7.8827 4.29349 9.63806 3.83301 11.5 3.83301Z" fill="#E05149"/>
<path d="M11.5 10.0371C13.6769 10.0373 15.6411 10.9625 17.0547 12.4434C17.1254 12.4395 17.1969 12.4375 17.2686 12.4375C18.6156 12.4377 19.8022 13.1262 20.4951 14.168C20.6478 14.3978 20.5852 14.7084 20.3555 14.8613C20.1256 15.014 19.815 14.9514 19.6621 14.7217C19.1467 13.9469 18.2668 13.4377 17.2686 13.4375C15.6821 13.4377 14.3955 14.7241 14.3955 16.3105C14.3957 17.8969 15.6823 19.1824 17.2686 19.1826C18.8547 19.1823 20.1405 17.8968 20.1406 16.3105C20.1406 16.0346 20.3648 15.8109 20.6406 15.8105C20.9166 15.8107 21.1406 16.0345 21.1406 16.3105C21.1405 18.449 19.407 20.1823 17.2686 20.1826C16.2409 20.1825 15.3067 19.782 14.6133 19.1289C14.5026 19.2831 14.3326 19.3865 14.1426 19.4082C13.9357 19.4316 13.7286 19.3578 13.583 19.209C13.059 18.6727 12.3211 18.337 11.5 18.3369C10.6789 18.337 9.94008 18.6727 9.41602 19.209C9.27053 19.3575 9.06404 19.4315 8.85742 19.4082C8.65053 19.3846 8.46584 19.2657 8.35742 19.0879L7.48438 17.6553C7.32365 17.3914 7.36283 17.0516 7.5791 16.8311C8.56981 15.8224 9.96254 15.1964 11.5 15.1963C12.1933 15.1963 12.857 15.3244 13.4678 15.5566C13.5173 15.3055 13.5919 15.0632 13.6875 14.832C13.0335 14.4634 12.2896 14.253 11.5 14.2529C10.1897 14.253 8.99942 14.824 8.14746 15.7539C8.00193 15.9122 7.78896 15.9925 7.5752 15.9688C7.36112 15.9447 7.17135 15.8189 7.06445 15.6318L5.75488 13.3398C5.60935 13.0849 5.64532 12.7641 5.84375 12.5479C7.26392 11.0055 9.27177 10.0372 11.5 10.0371ZM17.583 13.5996C17.7146 13.6222 17.8161 13.7296 17.8311 13.8623L18.0205 15.5791H18.4814C18.5869 15.5793 18.6862 15.6349 18.7402 15.7256C18.7941 15.8163 18.7953 15.9296 18.7451 16.0225L17.2852 18.7109C17.2181 18.8339 17.0742 18.8936 16.9395 18.8555C16.8046 18.8168 16.7146 18.6899 16.7227 18.5498L16.8232 16.791H16.292C16.1891 16.791 16.0931 16.7383 16.0381 16.6514C15.9832 16.5642 15.9771 16.4542 16.0215 16.3613L16.332 15.7129C16.4036 15.5639 16.5822 15.5001 16.7314 15.5713C16.8805 15.6428 16.9441 15.8224 16.873 15.9717L16.7676 16.1914H17.1416C17.2238 16.1916 17.3029 16.2254 17.3594 16.2852C17.4158 16.345 17.4459 16.4257 17.4414 16.5078L17.3984 17.2451L17.9775 16.1797H17.752C17.599 16.1797 17.4709 16.0641 17.4541 15.9121L17.3496 14.9736L17.1836 15.3223C17.1122 15.4716 16.9326 15.535 16.7832 15.4639C16.6337 15.3924 16.5701 15.213 16.6416 15.0635L17.2627 13.7656L17.2871 13.7236C17.3527 13.6302 17.4676 13.5801 17.583 13.5996ZM11.5 16.5459C10.5238 16.546 9.62945 16.8786 8.92773 17.4316L9.10352 17.7197C9.78528 17.2577 10.6119 16.9874 11.5 16.9873C12.2609 16.9874 12.9758 17.1866 13.5938 17.5342C13.5399 17.3726 13.4962 17.2064 13.4639 17.0361C12.8816 16.7247 12.2131 16.546 11.5 16.5459ZM11.5 11.3867C9.84453 11.3868 8.3306 12.0385 7.18164 13.1162L7.81152 14.2197C8.82657 13.3968 10.1071 12.9034 11.5 12.9033C12.5605 12.9034 13.5557 13.1887 14.418 13.6885C14.7305 13.3489 15.103 13.0653 15.5186 12.8545C14.4117 11.9345 13.0161 11.3869 11.5 11.3867ZM11.5 3.1582C14.8459 3.15833 17.8672 4.55888 20.0127 6.80566C20.2215 7.02437 20.2594 7.35598 20.1055 7.61621L18.0684 11.0557C17.9605 11.2376 17.7736 11.3581 17.5635 11.3818C17.3533 11.4055 17.1437 11.3301 16.998 11.1768C15.6093 9.71497 13.6594 8.80677 11.5 8.80664C9.3404 8.80669 7.38981 9.71479 6.00098 11.1768C5.85526 11.3301 5.64577 11.4056 5.43555 11.3818C5.22548 11.358 5.03845 11.2375 4.93066 11.0557L2.89355 7.61621C2.73973 7.35601 2.77756 7.02432 2.98633 6.80566C3.865 5.88544 4.89064 5.10714 6.02539 4.50879C7.66182 3.64598 9.52569 3.15823 11.5 3.1582ZM11.5 4.50781C9.75057 4.50784 8.10249 4.94008 6.65527 5.70312C5.80147 6.15332 5.01693 6.71917 4.32227 7.37988L5.65918 9.63672C7.22761 8.27869 9.26931 7.45708 11.5 7.45703C13.7302 7.45714 15.7706 8.27916 17.3389 9.63672L18.6758 7.37891C16.8035 5.5986 14.2785 4.50793 11.5 4.50781Z" fill="#332A2A"/>
</g>
<defs>
<clipPath id="clip0_1815_13189">
<rect width="23" height="23" fill="white"/>
</clipPath>
</defs>
</svg>
