<svg width="28" height="28" viewBox="0 0 28 28" fill="none" xmlns="http://www.w3.org/2000/svg">
<g clip-path="url(#clip0_1815_13272)">
<path d="M13.5195 12.374C16.099 12.3742 18.4313 13.4493 20.1318 15.1797C20.3677 15.1435 20.6094 15.125 20.8555 15.125C22.5014 15.1251 23.9514 15.9663 24.7979 17.2393C24.9887 17.5264 24.9108 17.9142 24.624 18.1055C24.3366 18.2966 23.948 18.219 23.7568 17.9316C23.1322 16.9922 22.0655 16.3751 20.8555 16.375C18.9334 16.3753 17.3753 17.9334 17.375 19.8555C17.375 21.7778 18.9332 23.3367 20.8555 23.3369C22.7778 23.3367 24.3369 21.7778 24.3369 19.8555C24.3372 19.5105 24.6169 19.2305 24.9619 19.2305C25.3068 19.2307 25.5867 19.5106 25.5869 19.8555C25.5869 22.4682 23.4682 24.5867 20.8555 24.5869C19.4927 24.5868 18.2655 24.0093 17.4023 23.0869L17.2842 23.2832C17.1637 23.4806 16.9583 23.6124 16.7285 23.6387C16.4986 23.6648 16.2682 23.5834 16.1064 23.418C15.4553 22.7516 14.5383 22.335 13.5186 22.335C12.499 22.3351 11.5817 22.7517 10.9307 23.418C10.7689 23.5831 10.5393 23.6648 10.3096 23.6387C10.0798 23.6124 9.87433 23.4806 9.75391 23.2832L8.69141 21.5391C8.51289 21.2459 8.55652 20.8681 8.79688 20.623C9.98979 19.4084 11.6666 18.6545 13.5186 18.6543C14.4616 18.6543 15.3593 18.85 16.1709 19.2021C16.2191 18.8533 16.3048 18.5165 16.4248 18.1963C15.5702 17.6664 14.5778 17.3634 13.5195 17.3633C11.9027 17.3633 10.4366 18.067 9.38672 19.2129C9.22508 19.3893 8.9878 19.4785 8.75 19.4521C8.51218 19.4256 8.30052 19.2858 8.18164 19.0781L6.58789 16.2871C6.42598 16.0035 6.46629 15.6475 6.6875 15.4072C8.40382 13.5431 10.828 12.3741 13.5195 12.374ZM21.2354 16.5723C21.3894 16.5984 21.5073 16.7236 21.5244 16.8789L21.7568 18.9824H22.332C22.4554 18.9824 22.5697 19.0473 22.6328 19.1533C22.6958 19.2593 22.6985 19.3907 22.6396 19.499L20.8623 22.7715C20.784 22.9151 20.6164 22.9861 20.459 22.9414C20.3016 22.8965 20.1958 22.7474 20.2051 22.584L20.3291 20.4268H19.666C19.5461 20.4266 19.4342 20.365 19.3701 20.2637C19.3061 20.1621 19.2989 20.0341 19.3506 19.9258L19.7275 19.1357C19.8108 18.9615 20.0201 18.8877 20.1943 18.9707C20.3687 19.0541 20.4426 19.2631 20.3594 19.4375L20.2207 19.7266H20.7002C20.7965 19.7266 20.889 19.7669 20.9551 19.8369C21.0209 19.9069 21.0553 20.0008 21.0498 20.0967L20.9941 21.0615L21.7441 19.6816H21.4434C21.2652 19.6815 21.1154 19.5472 21.0957 19.3701L20.9629 18.1738L20.7373 18.6475C20.6538 18.8216 20.4448 18.8958 20.2705 18.8125C20.0964 18.7291 20.0224 18.52 20.1055 18.3457L20.8613 16.7656L20.8896 16.7158C20.9661 16.6066 21.1006 16.5495 21.2354 16.5723ZM13.5186 20.1543C12.2909 20.1544 11.1687 20.5808 10.2949 21.2871L10.5801 21.7568C11.4102 21.1762 12.4251 20.8351 13.5186 20.835C14.6119 20.835 15.6269 21.1764 16.457 21.7568L16.4951 21.6924C16.3929 21.4501 16.311 21.1974 16.25 20.9365C15.4633 20.4423 14.5268 20.1543 13.5186 20.1543ZM13.5195 13.874C11.4646 13.8741 9.5891 14.6908 8.17285 16.0381L9.01074 17.5059C10.2449 16.4813 11.8108 15.8633 13.5195 15.8633C14.8527 15.8634 16.0976 16.2413 17.167 16.8936C17.5424 16.4267 18.0048 16.0332 18.5293 15.7363C17.1585 14.5701 15.4158 13.8742 13.5195 13.874ZM13.5195 4C17.5726 4.00013 21.2321 5.69702 23.8311 8.41895C24.0628 8.66204 24.1057 9.0303 23.9346 9.31934L21.4551 13.5059C21.3353 13.708 21.127 13.8426 20.8936 13.8691C20.6602 13.8955 20.4275 13.8107 20.2656 13.6406C18.562 11.8473 16.1691 10.7335 13.5195 10.7334C10.8697 10.7334 8.47714 11.8472 6.77344 13.6406C6.61168 13.8109 6.37886 13.8953 6.14551 13.8691C5.91207 13.8428 5.70382 13.7079 5.58398 13.5059L3.10449 9.31934C2.93323 9.03015 2.97591 8.66203 3.20801 8.41895C4.27254 7.30407 5.51494 6.36056 6.88965 5.63574C8.87169 4.59084 11.1281 4 13.5195 4ZM13.5195 5.5C11.3778 5.5 9.36076 6.0287 7.58887 6.96289C6.52669 7.52293 5.55193 8.229 4.69141 9.05469L6.39355 11.9287C8.29899 10.2524 10.791 9.2334 13.5195 9.2334C16.2477 9.23351 18.7393 10.2527 20.6445 11.9287L22.3467 9.05469C20.0504 6.85151 16.9421 5.50012 13.5195 5.5Z" fill="#332A2A"/>
</g>
<defs>
<clipPath id="clip0_1815_13272">
<rect width="28" height="28" fill="white"/>
</clipPath>
</defs>
</svg>
