<svg width="18" height="18" viewBox="0 0 18 18" fill="none" xmlns="http://www.w3.org/2000/svg">
<g clip-path="url(#clip0_1815_13230)">
<path d="M9 12.4209C9.77547 12.4209 10.3749 12.6521 10.9072 13.0479C10.9607 13.4041 11.085 13.736 11.2666 14.0303L11.0088 14.6631C10.5023 14.1447 9.78929 13.8223 9 13.8223C8.21071 13.8223 7.49774 14.1447 6.99121 14.6631L6.30859 13.542C6.98741 12.8509 7.94226 12.4209 9 12.4209ZM9 8.38281C10.5432 8.38281 11.939 9.03576 12.9512 10.0889C12.2265 10.2431 11.6142 10.6965 11.2461 11.3135C10.5975 10.8789 9.82707 10.626 9 10.626C7.81607 10.626 6.7471 11.1423 5.9873 11.9717L4.96289 10.1777C5.98112 9.07182 7.41332 8.38281 9 8.38281ZM9 3C11.4681 3 13.6964 4.03257 15.2803 5.69141L13.6865 8.38281C12.5046 7.13871 10.8417 6.36426 9 6.36426C7.15829 6.36426 5.49539 7.13871 4.31348 8.38281L2.71973 5.69141C3.36851 5.01193 4.1257 4.4375 4.96289 3.99609C6.16952 3.35995 7.54293 3 9 3Z" fill="#E05149"/>
<path d="M9 7.75879C10.7106 7.75887 12.2548 8.47731 13.375 9.62891C13.4213 9.62688 13.4678 9.625 13.5146 9.625C14.607 9.62504 15.5692 10.1838 16.1309 11.0283C16.2833 11.2582 16.2209 11.5689 15.9912 11.7217C15.7614 11.8743 15.4508 11.8116 15.2979 11.582C14.9137 11.0044 14.2582 10.625 13.5146 10.625C12.3332 10.625 11.3752 11.5832 11.375 12.7646C11.3752 13.946 12.3332 14.9042 13.5146 14.9043C14.6961 14.9042 15.6541 13.946 15.6543 12.7646C15.6545 12.4887 15.8783 12.2647 16.1543 12.2646C16.4302 12.2648 16.6541 12.4887 16.6543 12.7646C16.6541 14.4983 15.2484 15.9042 13.5146 15.9043C12.7176 15.9043 11.9922 15.6048 11.4385 15.1152C11.341 15.2081 11.2157 15.2696 11.0791 15.2852C10.8876 15.3068 10.6963 15.2384 10.5615 15.1006C10.169 14.6989 9.61589 14.4482 9 14.4482C8.38418 14.4483 7.83096 14.6989 7.43848 15.1006C7.30362 15.2384 7.11248 15.307 6.9209 15.2852C6.7294 15.2633 6.55842 15.1538 6.45801 14.9893L5.77441 13.8672C5.62599 13.623 5.66231 13.3086 5.8623 13.1045C6.65532 12.297 7.77003 11.796 9 11.7959C9.51119 11.7959 10.0026 11.8817 10.459 12.041C10.491 11.9055 10.5321 11.7736 10.5811 11.6455C10.1035 11.3938 9.56699 11.252 9 11.252C8.0035 11.2521 7.09793 11.6853 6.44824 12.3945C6.31348 12.5414 6.11611 12.6158 5.91797 12.5938C5.71991 12.5715 5.54431 12.4552 5.44531 12.2822L4.41992 10.4883C4.28502 10.252 4.31888 9.95515 4.50293 9.75488C5.63141 8.52919 7.22732 7.75894 9 7.75879ZM13.7285 10.7617C13.8346 10.7798 13.9158 10.8667 13.9277 10.9736L14.0703 12.2578H14.4053C14.4902 12.2578 14.5687 12.3031 14.6123 12.376C14.6555 12.4489 14.6575 12.5397 14.6172 12.6143L13.5137 14.6465C13.4596 14.7455 13.3439 14.7945 13.2354 14.7637C13.127 14.7327 13.0544 14.6301 13.0605 14.5176L13.1367 13.2031H12.75C12.6673 13.2031 12.5902 13.1606 12.5459 13.0908C12.5019 13.0208 12.4967 12.9321 12.5322 12.8574L12.7666 12.3672C12.8242 12.2471 12.9687 12.1966 13.0889 12.2539C13.2087 12.3115 13.2593 12.4551 13.2021 12.5752L13.1328 12.7207H13.3916C13.4579 12.7207 13.5218 12.7478 13.5674 12.7959C13.6127 12.8441 13.6365 12.9095 13.6328 12.9756L13.6045 13.4678L13.999 12.7412H13.8535C13.7307 12.7412 13.6272 12.6483 13.6133 12.5264L13.54 11.8672L13.4365 12.085C13.379 12.2047 13.2353 12.2561 13.1152 12.1992C12.9953 12.1417 12.944 11.9971 13.001 11.877L13.4697 10.8955L13.5156 10.8311C13.5698 10.7759 13.6491 10.7483 13.7285 10.7617ZM9 13.0459C8.28976 13.046 7.6389 13.2797 7.11719 13.668L7.15625 13.7314C7.68829 13.3937 8.32176 13.1983 9 13.1982C9.52514 13.1982 10.0227 13.3165 10.4678 13.5264C10.4566 13.4815 10.4458 13.4363 10.4365 13.3906C10.0077 13.1712 9.51984 13.0459 9 13.0459ZM9 9.00879C7.75719 9.00892 6.61738 9.48646 5.74219 10.2832L6.14258 10.9844C6.93843 10.3694 7.92664 10.0021 9 10.002C9.81651 10.002 10.5815 10.2179 11.252 10.5908C11.4605 10.3738 11.6996 10.1872 11.9629 10.0371C11.1332 9.38975 10.1082 9.00886 9 9.00879ZM9 2.375C11.6464 2.375 14.0358 3.48294 15.7324 5.25977C15.9258 5.46226 15.9609 5.76881 15.8184 6.00977L14.2246 8.70117C14.1248 8.8697 13.9514 8.98187 13.7568 9.00391C13.5622 9.02591 13.3683 8.95551 13.2334 8.81348C12.1639 7.68763 10.6624 6.98926 9 6.98926C7.33759 6.98929 5.83613 7.6876 4.7666 8.81348C4.63167 8.9555 4.43782 9.0259 4.24316 9.00391C4.04864 8.98181 3.87613 8.86963 3.77637 8.70117L2.18164 6.00977C2.03917 5.76883 2.07426 5.46224 2.26758 5.25977C2.96241 4.53205 3.77342 3.91659 4.6709 3.44336C5.96515 2.76096 7.43876 2.37502 9 2.375ZM9 3.625C7.64698 3.62502 6.37296 3.95881 5.25391 4.54883C4.61653 4.8849 4.03012 5.30557 3.50684 5.79395L4.45508 7.39551C5.68729 6.36279 7.27125 5.73929 9 5.73926C10.7285 5.73926 12.3118 6.36313 13.5439 7.39551L14.4932 5.79297C13.0509 4.44709 11.1213 3.625 9 3.625Z" fill="#332A2A"/>
</g>
<defs>
<clipPath id="clip0_1815_13230">
<rect width="18" height="18" fill="white"/>
</clipPath>
</defs>
</svg>
