<svg width="18" height="18" viewBox="0 0 18 18" fill="none" xmlns="http://www.w3.org/2000/svg">
<g clip-path="url(#clip0_1819_13634)">
<path d="M8.57812 12.875C8.9233 12.875 9.20312 13.1548 9.20312 13.5V16.125C9.20312 16.4702 8.9233 16.75 8.57812 16.75C8.23311 16.7498 7.95313 16.4701 7.95312 16.125V13.5C7.95312 13.1549 8.23311 12.8752 8.57812 12.875ZM14.5781 9.375C14.9233 9.375 15.2031 9.65482 15.2031 10V13.5C15.2031 13.8452 14.9233 14.125 14.5781 14.125C14.2331 14.1248 13.9531 13.8451 13.9531 13.5V10C13.9531 9.65494 14.2331 9.37519 14.5781 9.375ZM2.95312 10.875C3.2983 10.875 3.57812 11.1548 3.57812 11.5V13.125C3.57812 13.4702 3.2983 13.75 2.95312 13.75C2.60811 13.7498 2.32812 13.4701 2.32812 13.125V11.5C2.32813 11.1549 2.60811 10.8752 2.95312 10.875ZM8.57812 10.625C8.78207 10.625 8.97387 10.7245 9.09082 10.8916L9.77441 11.8701C10.0633 11.9252 10.2822 12.1776 10.2822 12.4824C10.2822 12.8275 10.0023 13.1073 9.65723 13.1074C9.3181 13.1074 9.00014 12.9419 8.80566 12.6641L8.57812 12.3398L8.35156 12.6641C8.15708 12.9419 7.83913 13.1074 7.5 13.1074C7.15482 13.1074 6.875 12.8276 6.875 12.4824C6.87505 12.1778 7.09332 11.9255 7.38184 11.8701L8.06641 10.8916C8.1833 10.7246 8.37431 10.6251 8.57812 10.625ZM2.95312 8.75C3.15707 8.75 3.34886 8.84952 3.46582 9.0166L4.14941 9.99512C4.43826 10.0502 4.65717 10.3026 4.65723 10.6074C4.65723 10.9525 4.37727 11.2323 4.03223 11.2324C3.6931 11.2324 3.37514 11.0669 3.18066 10.7891L2.95312 10.4648L2.72656 10.7891C2.53208 11.0669 2.21413 11.2324 1.875 11.2324C1.52982 11.2324 1.25 10.9526 1.25 10.6074C1.25006 10.3028 1.46832 10.0505 1.75684 9.99512L2.44141 9.0166C2.5583 8.84962 2.74931 8.75011 2.95312 8.75ZM14.71 4.19629C15.0504 4.13964 15.372 4.36953 15.4287 4.70996C15.4854 5.05038 15.2555 5.37197 14.915 5.42871C14.2751 5.53537 14.0558 5.52931 13.7148 5.74414C13.3498 5.97421 12.8475 6.47705 11.9453 7.73438C11.4953 8.36155 11.0619 8.98565 10.4766 9.4248C9.85289 9.8927 9.10284 10.125 8.0625 10.125C6.7495 10.125 5.95173 9.50148 5.25781 8.99805C4.97844 8.79537 4.9165 8.40439 5.11914 8.125C5.32184 7.84561 5.71279 7.78363 5.99219 7.98633C6.71299 8.50927 7.20486 8.875 8.0625 8.875C8.89709 8.875 9.36588 8.69542 9.72656 8.4248C10.1255 8.12547 10.4423 7.68418 10.9297 7.00488C11.8363 5.74128 12.4591 5.05879 13.0479 4.6875C13.6608 4.30117 14.2252 4.27708 14.71 4.19629ZM14.5781 6.875C14.7821 6.875 14.9739 6.97452 15.0908 7.1416L15.7744 8.12012C16.0633 8.17519 16.2822 8.42755 16.2822 8.73242C16.2822 9.0775 16.0023 9.35727 15.6572 9.35742C15.3181 9.35742 15.0001 9.19189 14.8057 8.91406L14.5781 8.58984L14.3516 8.91406C14.1571 9.19189 13.8391 9.35742 13.5 9.35742C13.1548 9.35742 12.875 9.0776 12.875 8.73242C12.8751 8.42779 13.0933 8.17545 13.3818 8.12012L14.0664 7.1416C14.1833 6.97462 14.3743 6.87511 14.5781 6.875ZM2.22656 6.74512C3.18117 6.70933 3.92669 6.86693 4.55371 7.12891C4.87192 7.26196 5.02232 7.62797 4.88965 7.94629C4.75658 8.26478 4.38978 8.4153 4.07129 8.28223C3.6186 8.09314 3.05457 7.96486 2.27344 7.99414C1.9285 8.00707 1.63793 7.73751 1.625 7.39258C1.6123 7.04784 1.88178 6.75806 2.22656 6.74512ZM10.7422 4.125C10.9434 3.84454 11.3338 3.78022 11.6143 3.98145C11.8947 4.18268 11.959 4.57307 11.7578 4.85352C11.6208 5.04444 11.4947 5.22637 11.373 5.40234C11.2525 5.57675 11.1342 5.74778 11.0186 5.9082C10.7887 6.22712 10.5488 6.53289 10.2676 6.79199C9.66482 7.34718 8.94209 7.625 7.875 7.625C7.29486 7.625 6.8165 7.41809 6.4043 7.16406C6.02286 6.92899 5.60664 6.58871 5.25781 6.33594C4.52298 5.80352 3.67502 5.32247 2.27344 5.375C1.92851 5.38793 1.63793 5.11837 1.625 4.77344C1.61207 4.42851 1.88163 4.13793 2.22656 4.125C4.01218 4.05807 5.13338 4.70191 5.99219 5.32422C6.44003 5.64875 6.72722 5.89419 7.06055 6.09961C7.36311 6.28605 7.61144 6.375 7.875 6.375C8.68262 6.375 9.08525 6.18117 9.41992 5.87305C9.60726 5.7005 9.78958 5.47642 10.0049 5.17773C10.1119 5.02926 10.2222 4.86868 10.3447 4.69141C10.4661 4.51587 10.5981 4.32584 10.7422 4.125ZM14.8125 1.875C15.1577 1.875 15.4375 2.15482 15.4375 2.5C15.4375 2.84518 15.1577 3.125 14.8125 3.125C14.1299 3.12501 13.5521 3.1886 12.9229 3.63184C12.6407 3.8306 12.2506 3.76254 12.0518 3.48047C11.853 3.19835 11.9201 2.80821 12.2021 2.60938C13.142 1.94729 14.0297 1.87501 14.8125 1.875Z" fill="#332A2A"/>
</g>
<defs>
<clipPath id="clip0_1819_13634">
<rect width="18" height="18" fill="white"/>
</clipPath>
</defs>
</svg>
