<svg width="44" height="44" viewBox="0 0 44 44" fill="none" xmlns="http://www.w3.org/2000/svg">
<g clip-path="url(#clip0_1819_13596)">
<path d="M20.9697 30.2734C21.3098 30.2737 21.5859 30.5495 21.5859 30.8896V39.417C21.5858 39.757 21.3098 40.033 20.9697 40.0332C20.6296 40.033 20.3527 39.7571 20.3525 39.417V30.8896C20.3526 30.5495 20.6296 30.2736 20.9697 30.2734ZM35.6367 21.1064C35.9768 21.1067 36.2528 21.3825 36.2529 21.7227V33C36.2529 33.3402 35.9769 33.616 35.6367 33.6162C35.2964 33.6162 35.0195 33.3404 35.0195 33V21.7227C35.0196 21.3824 35.2964 21.1064 35.6367 21.1064ZM7.21973 25.6895C7.55971 25.6897 7.83568 25.9657 7.83594 26.3057V32.083C7.83594 32.4232 7.55987 32.699 7.21973 32.6992C6.87952 32.699 6.60254 32.4233 6.60254 32.083V26.3057C6.6028 25.9656 6.87968 25.6896 7.21973 25.6895ZM20.9697 26.8838C21.1706 26.8839 21.3594 26.9819 21.4746 27.1465L23.3379 29.8096C23.3762 29.8642 23.4392 29.8963 23.5059 29.8965H23.6055C23.9458 29.8965 24.2217 30.1733 24.2217 30.5137C24.2212 30.8537 23.9456 31.1299 23.6055 31.1299H23.5059C23.037 31.1297 22.5971 30.9006 22.3281 30.5166L20.9688 28.5752L19.6104 30.5166C19.3413 30.9005 18.9015 31.1298 18.4326 31.1299H18.333C17.9931 31.1297 17.7172 30.8535 17.7168 30.5137C17.7168 30.1734 17.9928 29.8967 18.333 29.8965H18.4326C18.4993 29.8964 18.5621 29.8641 18.6006 29.8096L20.4648 27.1465C20.5801 26.9821 20.769 26.8839 20.9697 26.8838ZM7.21973 22.2998C7.42047 22.3 7.60935 22.3981 7.72461 22.5625L9.58789 25.2256C9.62624 25.2802 9.68913 25.3123 9.75586 25.3125H9.85547C10.1957 25.3125 10.4715 25.5895 10.4717 25.9297C10.4714 26.2698 10.1957 26.5459 9.85547 26.5459H9.75586C9.28699 26.5457 8.84712 26.3167 8.57812 25.9326L7.21875 23.9912L5.86035 25.9326C5.59128 26.3167 5.15162 26.5458 4.68262 26.5459H4.58301C4.24296 26.5457 3.96706 26.2697 3.9668 25.9297C3.96697 25.5896 4.24291 25.3127 4.58301 25.3125H4.68262C4.74948 25.3124 4.81216 25.2803 4.85059 25.2256L6.71484 22.5625C6.83014 22.3982 7.01898 22.2999 7.21973 22.2998ZM36.085 13.4678C36.4934 13.3997 36.88 13.6766 36.9482 14.085C37.0162 14.4933 36.7403 14.88 36.332 14.9482C34.8639 15.1929 34.1131 15.1962 33.1104 15.8281C32.0788 16.4783 30.7755 17.818 28.5674 20.8955C27.444 22.4612 26.4575 23.8737 25.1426 24.8604C23.7817 25.8813 22.123 26.416 19.708 26.416C16.782 26.4159 15.0225 25.0523 13.3096 23.8096C12.9745 23.5664 12.8996 23.0969 13.1426 22.7617C13.3858 22.4267 13.8552 22.3518 14.1904 22.5947C15.9358 23.861 17.3282 24.9159 19.708 24.916C21.876 24.916 23.1969 24.4444 24.2422 23.6602C25.3333 22.8414 26.1805 21.6495 27.3486 20.0215C29.5626 16.9359 31.0103 15.3792 32.3105 14.5596C33.6395 13.7219 34.8033 13.6814 36.085 13.4678ZM26.8906 15.4248C27.1321 15.0883 27.601 15.0115 27.9375 15.2529C28.2737 15.4944 28.3505 15.9624 28.1094 16.2988C27.77 16.7718 27.4584 17.2224 27.1611 17.6523C26.8651 18.0805 26.581 18.4922 26.3037 18.877C25.7507 19.6441 25.1996 20.3403 24.5703 20.9199C23.2637 22.1233 21.6971 22.75 19.25 22.75C18.0289 22.75 17.0029 22.3172 16.0635 21.7383C15.161 21.1821 14.224 20.4107 13.3096 19.748C11.436 18.3905 9.1937 17.1117 5.52832 17.249C5.11448 17.2645 4.76662 16.9421 4.75098 16.5283C4.73546 16.1145 5.05787 15.7666 5.47168 15.751C9.59775 15.5963 12.1682 17.0678 14.1904 18.5332C15.2238 19.282 16.0058 19.9403 16.8506 20.4609C17.6585 20.9589 18.4087 21.25 19.25 21.25C21.3862 21.25 22.5697 20.7237 23.5547 19.8164C24.071 19.3408 24.5516 18.7426 25.0869 18C25.3538 17.6297 25.6284 17.2313 25.9268 16.7998C26.2238 16.3702 26.5426 15.9099 26.8906 15.4248ZM5.47168 19.709C7.69727 19.6256 9.4068 19.9938 10.8311 20.5889C11.2129 20.7486 11.3928 21.1874 11.2334 21.5693C11.0738 21.9514 10.635 22.132 10.2529 21.9727C9.03786 21.465 7.54585 21.1324 5.52832 21.208C5.1144 21.2235 4.76649 20.9003 4.75098 20.4863C4.73585 20.0728 5.0581 19.7246 5.47168 19.709ZM35.6367 17.7168C35.8376 17.7169 36.0264 17.8149 36.1416 17.9795L38.0049 20.6426C38.0433 20.6973 38.106 20.7294 38.1729 20.7295H38.2725C38.6128 20.7295 38.8887 21.0063 38.8887 21.3467C38.8884 21.6868 38.6127 21.9629 38.2725 21.9629H38.1729C37.7039 21.9628 37.2642 21.7337 36.9951 21.3496L35.6357 19.4082L34.2773 21.3496C34.0083 21.7337 33.5686 21.9628 33.0996 21.9629H33C32.6598 21.9629 32.384 21.6868 32.3838 21.3467C32.3838 21.0063 32.6596 20.7295 33 20.7295H33.0996C33.1665 20.7294 33.2292 20.6973 33.2676 20.6426L35.1318 17.9795C35.2472 17.815 35.4358 17.7168 35.6367 17.7168ZM36.208 10.25C36.6222 10.25 36.958 10.5858 36.958 11C36.958 11.4142 36.6222 11.75 36.208 11.75C34.4772 11.75 32.8718 11.9104 31.1406 13.1299C30.802 13.3684 30.3333 13.2869 30.0947 12.9482C29.8566 12.6097 29.9379 12.1418 30.2764 11.9033C32.3803 10.4212 34.3569 10.25 36.208 10.25Z" fill="#332A2A"/>
</g>
<defs>
<clipPath id="clip0_1819_13596">
<rect width="44" height="44" fill="white"/>
</clipPath>
</defs>
</svg>
