<svg width="23" height="23" viewBox="0 0 23 23" fill="none" xmlns="http://www.w3.org/2000/svg">
<g clip-path="url(#clip0_1819_13619)">
<path d="M10.9365 16.3262C11.2953 16.3262 11.5867 16.6168 11.5869 16.9756V20.5801C11.5867 20.9389 11.2954 21.2305 10.9365 21.2305C10.5778 21.2302 10.2873 20.9388 10.2871 20.5801V16.9756C10.2874 16.617 10.5779 16.3264 10.9365 16.3262ZM18.6035 11.8252C18.9625 11.8252 19.2539 12.1166 19.2539 12.4756V17.2256C19.2539 17.5846 18.9625 17.876 18.6035 17.876C18.2446 17.8759 17.9541 17.5845 17.9541 17.2256V12.4756C17.9541 12.1166 18.2446 11.8253 18.6035 11.8252ZM3.74902 13.8252C4.10774 13.8252 4.39897 14.116 4.39941 14.4746V16.7461C4.39941 17.1051 4.10801 17.3965 3.74902 17.3965C3.39024 17.3962 3.09961 17.1049 3.09961 16.7461V14.4756C3.09978 14.1169 3.39035 13.8254 3.74902 13.8252ZM10.9365 13.7012C11.1486 13.7012 11.3471 13.8048 11.4688 13.9785L12.3809 15.2832C12.7086 15.3165 12.9648 15.5893 12.9648 15.9258C12.9647 16.2846 12.6733 16.5762 12.3145 16.5762C11.93 16.576 11.5692 16.3881 11.3486 16.0732L10.9365 15.4844L10.5244 16.0732C10.3037 16.388 9.94309 16.5762 9.55859 16.5762C9.19987 16.576 8.90838 16.2845 8.9082 15.9258C8.90822 15.5895 9.16477 15.3168 9.49219 15.2832L10.4043 13.9785C10.5258 13.8049 10.7246 13.7013 10.9365 13.7012ZM3.74902 11.3047C3.96098 11.3047 4.15959 11.4085 4.28125 11.582L5.19336 12.8867C5.52095 12.9201 5.77716 13.193 5.77734 13.5293C5.77734 13.8883 5.48594 14.1797 5.12695 14.1797C4.74247 14.1795 4.38174 13.9917 4.16113 13.6768L3.74902 13.0879L3.33691 13.6768C3.11619 13.9917 2.75574 14.1797 2.37109 14.1797C2.01226 14.1795 1.7207 13.8882 1.7207 13.5293C1.72089 13.1931 1.97735 12.9203 2.30469 12.8867L3.2168 11.582C3.33835 11.4084 3.53711 11.3048 3.74902 11.3047ZM18.7959 5.76172C19.1499 5.7028 19.4849 5.94283 19.5439 6.29688C19.6024 6.65059 19.3635 6.98588 19.0098 7.04492C18.2102 7.17817 17.889 7.17369 17.4209 7.46875C16.9279 7.77958 16.2713 8.44271 15.1182 10.0498C14.5388 10.8573 13.9991 11.6333 13.2734 12.1777C12.5078 12.7521 11.5821 13.043 10.2773 13.043C8.65407 13.0429 7.67102 12.2764 6.78125 11.6309C6.49087 11.4201 6.42622 11.0132 6.63672 10.7227C6.84756 10.4322 7.2544 10.3683 7.54492 10.5791C8.46255 11.2448 9.12763 11.7431 10.2773 11.7432C11.3681 11.7432 12.0011 11.5068 12.4932 11.1377C13.025 10.7386 13.4443 10.1536 14.0625 9.29199C15.2206 7.67793 16.0017 6.82678 16.7275 6.36914C17.4783 5.89589 18.158 5.86803 18.7959 5.76172ZM18.6035 8.90918C18.8156 8.90918 19.0141 9.01276 19.1357 9.18652L20.0479 10.4912C20.3755 10.5246 20.6318 10.7973 20.6318 11.1338C20.6318 11.4928 20.3404 11.7842 19.9814 11.7842C19.5968 11.7841 19.2363 11.5962 19.0156 11.2813L18.6035 10.6924L18.1914 11.2813C17.9707 11.5962 17.6102 11.7842 17.2256 11.7842C16.8666 11.7842 16.5752 11.4928 16.5752 11.1338C16.5752 10.7974 16.8316 10.5247 17.1592 10.4912L18.0713 9.18652C18.1929 9.01279 18.3915 8.90922 18.6035 8.90918ZM13.8223 6.88867C14.0315 6.597 14.4378 6.52998 14.7295 6.73926C15.0211 6.94856 15.0882 7.35485 14.8789 7.64648C14.7031 7.89157 14.5411 8.12485 14.3857 8.34961C14.2314 8.57281 14.0813 8.79057 13.9346 8.99414C13.6426 9.39926 13.3424 9.7798 12.9941 10.1006C12.2558 10.7806 11.3708 11.126 10.0381 11.126C9.33457 11.126 8.75091 10.8751 8.2373 10.5586C7.75563 10.2617 7.23878 9.83837 6.78125 9.50684C5.82754 8.81581 4.71159 8.18118 2.875 8.25C2.51629 8.26345 2.21466 7.9837 2.20117 7.625C2.18773 7.26629 2.46747 6.96466 2.82617 6.95117C5.06217 6.86736 6.46228 7.6696 7.54492 8.4541C8.10544 8.86027 8.48736 9.18515 8.91895 9.45117C9.31868 9.69752 9.66362 9.8252 10.0381 9.8252C11.1012 9.8252 11.6537 9.56783 12.1133 9.14453C12.3639 8.91372 12.603 8.61755 12.8799 8.2334C13.0176 8.04229 13.16 7.83649 13.3164 7.61035C13.4715 7.38607 13.639 7.14404 13.8223 6.88867ZM2.82617 9.02148C4.02531 8.97654 4.95586 9.1749 5.73633 9.50098C6.06735 9.63939 6.2241 10.0195 6.08594 10.3506C5.94742 10.6815 5.56641 10.8384 5.23535 10.7002C4.63614 10.4498 3.89392 10.2821 2.875 10.3203C2.51653 10.3337 2.21502 10.0537 2.20117 9.69531C2.18773 9.33661 2.46749 9.03498 2.82617 9.02148ZM18.9023 4.0752C19.2613 4.07519 19.5527 4.3666 19.5527 4.72559C19.5527 5.08457 19.2613 5.37597 18.9023 5.37598C18.0184 5.37601 17.2431 5.45759 16.4023 6.0498C16.1089 6.25655 15.7028 6.18605 15.4961 5.89258C15.2896 5.59917 15.36 5.19403 15.6533 4.9873C16.8172 4.16741 17.9141 4.07522 18.9023 4.0752Z" fill="#332A2A"/>
</g>
<defs>
<clipPath id="clip0_1819_13619">
<rect width="23" height="23" fill="white"/>
</clipPath>
</defs>
</svg>
