<svg width="23" height="23" viewBox="0 0 23 23" fill="none" xmlns="http://www.w3.org/2000/svg">
<g clip-path="url(#clip0_1819_13619)">
<path d="M10.9609 16.3506C11.3198 16.3506 11.6111 16.6412 11.6113 17V20.6045C11.6112 20.9633 11.3198 21.2549 10.9609 21.2549C10.6023 21.2546 10.3117 20.9632 10.3115 20.6045V17.001C10.3115 16.6421 10.6022 16.3508 10.9609 16.3506ZM18.6279 11.8496C18.9869 11.8496 19.2783 12.141 19.2783 12.5V17.25C19.2783 17.609 18.9869 17.9004 18.6279 17.9004C18.269 17.9003 17.9785 17.6089 17.9785 17.25V12.5C17.9785 12.1411 18.269 11.8497 18.6279 11.8496ZM3.77344 13.8496C4.13215 13.8496 4.42339 14.1404 4.42383 14.499V16.7705C4.42383 17.1295 4.13242 17.4209 3.77344 17.4209C3.41466 17.4207 3.12402 17.1293 3.12402 16.7705V14.5C3.1242 14.1413 3.41476 13.8498 3.77344 13.8496ZM10.9609 13.7256C11.173 13.7256 11.3715 13.8292 11.4932 14.0029L12.4053 15.3076C12.733 15.341 12.9892 15.6137 12.9893 15.9502C12.9891 16.309 12.6977 16.6006 12.3389 16.6006C11.9544 16.6004 11.5937 16.4125 11.373 16.0977L10.9609 15.5088L10.5488 16.0977C10.3281 16.4124 9.9675 16.6006 9.58301 16.6006C9.22428 16.6004 8.93279 16.3089 8.93262 15.9502C8.93264 15.6139 9.18919 15.3412 9.5166 15.3076L10.4287 14.0029C10.5503 13.8293 10.749 13.7257 10.9609 13.7256ZM3.77344 11.3291C3.98539 11.3291 4.18401 11.4329 4.30566 11.6064L5.21777 12.9111C5.54536 12.9445 5.80157 13.2174 5.80176 13.5537C5.80176 13.9127 5.51035 14.2041 5.15137 14.2041C4.76688 14.2039 4.40615 14.0161 4.18555 13.7012L3.77344 13.1123L3.36133 13.7012C3.14061 14.0162 2.78015 14.2041 2.39551 14.2041C2.03667 14.2039 1.74512 13.9126 1.74512 13.5537C1.7453 13.2175 2.00176 12.9447 2.3291 12.9111L3.24121 11.6064C3.36276 11.4328 3.56153 11.3292 3.77344 11.3291ZM18.8203 5.78613C19.1744 5.72721 19.5094 5.96724 19.5684 6.32129C19.6268 6.67501 19.3879 7.0103 19.0342 7.06934C18.2346 7.20259 17.9134 7.19811 17.4453 7.49316C16.9523 7.804 16.2957 8.46712 15.1426 10.0742C14.5632 10.8817 14.0235 11.6577 13.2979 12.2021C12.5322 12.7765 11.6066 13.0674 10.3018 13.0674C8.67849 13.0673 7.69543 12.3008 6.80566 11.6553C6.51529 11.4445 6.45063 11.0376 6.66113 10.7471C6.87197 10.4566 7.27882 10.3927 7.56934 10.6035C8.48696 11.2693 9.15205 11.7675 10.3018 11.7676C11.3925 11.7676 12.0255 11.5313 12.5176 11.1621C13.0494 10.763 13.4687 10.178 14.0869 9.31641C15.245 7.70235 16.0262 6.85119 16.752 6.39355C17.5028 5.92031 18.1824 5.89244 18.8203 5.78613ZM18.6279 8.93359C18.84 8.93359 19.0385 9.03718 19.1602 9.21094L20.0723 10.5156C20.4 10.549 20.6562 10.8217 20.6562 11.1582C20.6562 11.5172 20.3648 11.8086 20.0059 11.8086C19.6213 11.8085 19.2607 11.6207 19.04 11.3057L18.6279 10.7168L18.2158 11.3057C17.9951 11.6207 17.6346 11.8086 17.25 11.8086C16.891 11.8086 16.5996 11.5172 16.5996 11.1582C16.5996 10.8218 16.856 10.5491 17.1836 10.5156L18.0957 9.21094C18.2173 9.03721 18.4159 8.93363 18.6279 8.93359ZM13.8467 6.91309C14.056 6.62141 14.4622 6.5544 14.7539 6.76367C15.0455 6.97297 15.1126 7.37926 14.9033 7.6709C14.7275 7.91598 14.5656 8.14927 14.4102 8.37402C14.2558 8.59722 14.1057 8.81498 13.959 9.01855C13.667 9.42367 13.3668 9.80422 13.0186 10.125C12.2802 10.8051 11.3952 11.1504 10.0625 11.1504C9.35898 11.1504 8.77532 10.8995 8.26172 10.583C7.78004 10.2862 7.26319 9.86278 6.80566 9.53125C5.85196 8.84022 4.736 8.20559 2.89941 8.27441C2.5407 8.28786 2.23907 8.00811 2.22559 7.64941C2.21214 7.2907 2.49189 6.98907 2.85059 6.97559C5.08658 6.89177 6.4867 7.69401 7.56934 8.47852C8.12985 8.88468 8.51178 9.20957 8.94336 9.47559C9.34309 9.72193 9.68803 9.84961 10.0625 9.84961C11.1256 9.84961 11.6781 9.59224 12.1377 9.16895C12.3883 8.93813 12.6274 8.64197 12.9043 8.25781C13.042 8.06671 13.1845 7.8609 13.3408 7.63477C13.4959 7.41048 13.6635 7.16845 13.8467 6.91309ZM2.85059 9.0459C4.04973 9.00095 4.98028 9.19931 5.76074 9.52539C6.09176 9.66381 6.24851 10.0439 6.11035 10.375C5.97184 10.7059 5.59082 10.8628 5.25977 10.7246C4.66056 10.4743 3.91834 10.3065 2.89941 10.3447C2.54095 10.3582 2.23943 10.0781 2.22559 9.71973C2.21214 9.36103 2.4919 9.0594 2.85059 9.0459ZM18.9268 4.09961C19.2857 4.09961 19.5771 4.39101 19.5771 4.75C19.5771 5.10898 19.2857 5.40039 18.9268 5.40039C18.0428 5.40042 17.2675 5.482 16.4268 6.07422C16.1333 6.28096 15.7273 6.21047 15.5205 5.91699C15.314 5.62358 15.3844 5.21844 15.6777 5.01172C16.8416 4.19182 17.9385 4.09964 18.9268 4.09961Z" fill="#332A2A"/>
</g>
<defs>
<clipPath id="clip0_1819_13619">
<rect width="23" height="23" fill="white"/>
</clipPath>
</defs>
</svg>
