<svg width="28" height="28" viewBox="0 0 28 28" fill="none" xmlns="http://www.w3.org/2000/svg">
<g clip-path="url(#clip0_1819_13604)">
<path d="M13.3447 20.1924C13.6847 20.1926 13.9607 20.4686 13.9609 20.8086V25.083C13.9609 25.4232 13.6849 25.699 13.3447 25.6992C13.0044 25.6992 12.7285 25.4234 12.7285 25.083V20.8086C12.7287 20.4684 13.0045 20.1924 13.3447 20.1924ZM22.6777 13.8838C23.018 13.8839 23.2939 14.1597 23.2939 14.5V21C23.2939 21.3403 23.018 21.6161 22.6777 21.6162C22.3374 21.6162 22.0615 21.3404 22.0615 21V14.5C22.0615 14.1596 22.3374 13.8838 22.6777 13.8838ZM4.59473 16.8838C4.93472 16.884 5.21067 17.16 5.21094 17.5V20.417C5.21076 20.7571 4.93477 21.033 4.59473 21.0332C4.25448 21.0332 3.97869 20.7572 3.97852 20.417V17.501C3.97852 17.1606 4.25437 16.8838 4.59473 16.8838ZM13.3447 17.4658C13.5456 17.466 13.7344 17.564 13.8496 17.7285L14.999 19.3711C15.0043 19.3786 15.0133 19.3828 15.0225 19.3828C15.3623 19.3831 15.6382 19.6592 15.6387 19.999C15.6387 20.3392 15.3626 20.6159 15.0225 20.6162C14.6111 20.6162 14.2252 20.4152 13.9893 20.0781L13.3447 19.1572L12.7002 20.0781C12.4644 20.4151 12.0783 20.6161 11.667 20.6162C11.3266 20.6162 11.0508 20.3394 11.0508 19.999C11.0512 19.659 11.3269 19.3828 11.667 19.3828C11.6761 19.3827 11.6852 19.3785 11.6904 19.3711L12.8398 17.7285C12.9552 17.5641 13.1438 17.4658 13.3447 17.4658ZM4.59473 13.9678C4.79566 13.9679 4.98437 14.0658 5.09961 14.2305L6.24902 15.873C6.25434 15.8802 6.2635 15.8848 6.27246 15.8848C6.61256 15.8851 6.88867 16.1608 6.88867 16.501C6.88848 16.841 6.61244 17.1169 6.27246 17.1172C5.86123 17.1172 5.47519 16.9159 5.23926 16.5791L4.59473 15.6592L3.9502 16.5791C3.71434 16.916 3.32823 17.1171 2.91699 17.1172C2.57676 17.1172 2.30098 16.8412 2.30078 16.501C2.30078 16.1606 2.57664 15.8848 2.91699 15.8848C2.92601 15.8847 2.93521 15.8804 2.94043 15.873L4.08984 14.2305C4.20517 14.0657 4.39363 13.9678 4.59473 13.9678ZM22.918 8.30176C23.3265 8.23366 23.7132 8.51037 23.7812 8.91895C23.849 9.32733 23.5734 9.71416 23.165 9.78223C22.1969 9.94358 21.7946 9.93895 21.2158 10.3037C20.6082 10.6867 19.8054 11.5002 18.4014 13.457C17.6947 14.4419 17.0414 15.3807 16.1641 16.0391C15.2407 16.7318 14.1236 17.0839 12.542 17.084C10.5806 17.084 9.39377 16.1587 8.30957 15.3721C7.97465 15.1289 7.89981 14.6604 8.14258 14.3252C8.38579 13.99 8.85516 13.9151 9.19043 14.1582C10.307 14.9683 11.1268 15.584 12.542 15.584C13.8765 15.5839 14.6559 15.2948 15.2637 14.8389C15.9173 14.3484 16.4312 13.6293 17.1826 12.582C18.5924 10.6172 19.5398 9.58752 20.416 9.03516C21.3209 8.46477 22.1364 8.43199 22.918 8.30176ZM16.8906 9.65723C17.1321 9.32068 17.601 9.2429 17.9375 9.48438C18.274 9.72585 18.3508 10.1947 18.1094 10.5312C17.8949 10.8301 17.6981 11.1149 17.5088 11.3887C17.3208 11.6605 17.1383 11.9244 16.96 12.1719C16.6048 12.6646 16.2413 13.1259 15.8203 13.5137C14.9304 14.3332 13.8636 14.75 12.25 14.75C11.4038 14.75 10.7008 14.4486 10.0791 14.0654C9.49432 13.705 8.86981 13.1941 8.30957 12.7881C7.14435 11.9437 5.7771 11.1648 3.52832 11.249C3.11448 11.2645 2.76662 10.9421 2.75098 10.5283C2.73546 10.1145 3.05787 9.76662 3.47168 9.75098C6.18109 9.64942 7.87653 10.6212 9.19043 11.5732C9.8695 12.0653 10.3392 12.4633 10.8662 12.7881C11.3565 13.0902 11.7837 13.25 12.25 13.25C13.5528 13.25 14.2363 12.9336 14.8047 12.4102C15.1128 12.1263 15.4056 11.7632 15.7432 11.2949C15.9112 11.0618 16.0841 10.8104 16.2744 10.5352C16.4633 10.262 16.6677 9.96791 16.8906 9.65723ZM3.47168 12.2705C4.92564 12.216 6.05275 12.4561 6.99707 12.8506C7.37919 13.0103 7.56006 13.4499 7.40039 13.832C7.24055 14.2138 6.80095 14.3939 6.41895 14.2344C5.68379 13.9273 4.77423 13.7229 3.52832 13.7695C3.11455 13.785 2.76672 13.4616 2.75098 13.0479C2.73546 12.634 3.05788 12.2862 3.47168 12.2705ZM22.6777 11.0508C22.8788 11.0508 23.0673 11.1488 23.1826 11.3135L24.332 12.9561C24.3373 12.9635 24.3464 12.9678 24.3555 12.9678C24.6957 12.9679 24.9717 13.2437 24.9717 13.584C24.9717 13.9242 24.6957 14.2001 24.3555 14.2002C23.9441 14.2002 23.5582 13.9991 23.3223 13.6621L22.6777 12.7422L22.0332 13.6621C21.7973 13.9991 21.4114 14.2002 21 14.2002C20.6597 14.2002 20.3838 13.9243 20.3838 13.584C20.3838 13.2436 20.6596 12.9678 21 12.9678C21.0092 12.9678 21.0182 12.9635 21.0234 12.9561L22.1729 11.3135C22.2882 11.1487 22.4766 11.0508 22.6777 11.0508ZM23.042 6.25C23.4561 6.25018 23.792 6.5859 23.792 7C23.792 7.4141 23.4561 7.74982 23.042 7.75C21.9623 7.75001 21.0076 7.84974 19.9736 8.57812C19.6351 8.8166 19.1673 8.73582 18.9287 8.39746C18.6902 8.05884 18.7708 7.59012 19.1094 7.35156C20.5161 6.36055 21.8421 6.25001 23.042 6.25Z" fill="#332A2A"/>
</g>
<defs>
<clipPath id="clip0_1819_13604">
<rect width="28" height="28" fill="white"/>
</clipPath>
</defs>
</svg>
